G04 #@! TF.GenerationSoftware,KiCad,Pcbnew,(5.1.6)-1*
G04 #@! TF.CreationDate,2021-12-02T18:02:17-06:00*
G04 #@! TF.ProjectId,Space Hand Wire Helpers,53706163-6520-4486-916e-642057697265,rev?*
G04 #@! TF.SameCoordinates,Original*
G04 #@! TF.FileFunction,Copper,L1,Top*
G04 #@! TF.FilePolarity,Positive*
%FSLAX46Y46*%
G04 Gerber Fmt 4.6, Leading zero omitted, Abs format (unit mm)*
G04 Created by KiCad (PCBNEW (5.1.6)-1) date 2021-12-02 18:02:17*
%MOMM*%
%LPD*%
G01*
G04 APERTURE LIST*
G04 #@! TA.AperFunction,ComponentPad*
%ADD10C,1.700000*%
G04 #@! TD*
G04 #@! TA.AperFunction,ComponentPad*
%ADD11C,1.524000*%
G04 #@! TD*
G04 #@! TA.AperFunction,ComponentPad*
%ADD12C,2.200000*%
G04 #@! TD*
G04 #@! TA.AperFunction,Conductor*
%ADD13C,0.250000*%
G04 #@! TD*
G04 #@! TA.AperFunction,NonConductor*
%ADD14C,0.254000*%
G04 #@! TD*
G04 APERTURE END LIST*
D10*
X145398000Y-103934000D03*
X145398000Y-86834000D03*
X92898000Y-91434000D03*
X200498000Y-92134000D03*
D11*
X158598000Y-91234000D03*
D12*
X143129000Y-98679000D03*
X149479000Y-101219000D03*
X150749000Y-93599000D03*
X144399000Y-91059000D03*
D13*
X145415000Y-89451000D02*
X145398000Y-89434000D01*
X145415000Y-102817000D02*
X145398000Y-102834000D01*
X143129000Y-98679000D02*
X145415000Y-100965000D01*
X145415000Y-100965000D02*
X145415000Y-102817000D01*
X145415000Y-86851000D02*
X145398000Y-86834000D01*
X145415000Y-89451000D02*
X145415000Y-86851000D01*
X145415000Y-103917000D02*
X145398000Y-103934000D01*
X145415000Y-102817000D02*
X145415000Y-103917000D01*
X145415000Y-90043000D02*
X144399000Y-91059000D01*
X145415000Y-89451000D02*
X145415000Y-90043000D01*
D14*
G36*
X95259285Y-85852262D02*
G01*
X94892262Y-86219285D01*
X94603893Y-86650859D01*
X94405261Y-87130399D01*
X94304000Y-87639475D01*
X94304000Y-88158525D01*
X94405261Y-88667601D01*
X94603893Y-89147141D01*
X94892262Y-89578715D01*
X95259285Y-89945738D01*
X95690859Y-90234107D01*
X96170399Y-90432739D01*
X96679475Y-90534000D01*
X97198525Y-90534000D01*
X97707601Y-90432739D01*
X98187141Y-90234107D01*
X98618715Y-89945738D01*
X98985738Y-89578715D01*
X99274107Y-89147141D01*
X99472739Y-88667601D01*
X99574000Y-88158525D01*
X99574000Y-87639475D01*
X99472739Y-87130399D01*
X99274107Y-86650859D01*
X98985738Y-86219285D01*
X98618715Y-85852262D01*
X98579112Y-85825800D01*
X144306093Y-85825800D01*
X144244525Y-85887368D01*
X144082010Y-86130589D01*
X143970068Y-86400842D01*
X143913000Y-86687740D01*
X143913000Y-86980260D01*
X143970068Y-87267158D01*
X144082010Y-87537411D01*
X144244525Y-87780632D01*
X144451368Y-87987475D01*
X144655001Y-88123538D01*
X144655000Y-89265228D01*
X144648998Y-89285015D01*
X144643712Y-89338685D01*
X144569883Y-89324000D01*
X144228117Y-89324000D01*
X143892919Y-89390675D01*
X143577169Y-89521463D01*
X143293002Y-89711337D01*
X143051337Y-89953002D01*
X142861463Y-90237169D01*
X142730675Y-90552919D01*
X142664000Y-90888117D01*
X142664000Y-91229883D01*
X142730675Y-91565081D01*
X142861463Y-91880831D01*
X143051337Y-92164998D01*
X143293002Y-92406663D01*
X143577169Y-92596537D01*
X143892919Y-92727325D01*
X144228117Y-92794000D01*
X144569883Y-92794000D01*
X144905081Y-92727325D01*
X145220831Y-92596537D01*
X145504998Y-92406663D01*
X145746663Y-92164998D01*
X145936537Y-91880831D01*
X146067325Y-91565081D01*
X146134000Y-91229883D01*
X146134000Y-90888117D01*
X146067325Y-90552919D01*
X146037930Y-90481953D01*
X146049974Y-90467277D01*
X146120546Y-90335247D01*
X146137145Y-90280525D01*
X146164003Y-90191986D01*
X146175000Y-90080333D01*
X146175000Y-90080323D01*
X146178676Y-90043000D01*
X146175000Y-90005678D01*
X146175000Y-89488325D01*
X146178676Y-89451000D01*
X146175000Y-89413675D01*
X146175000Y-88100819D01*
X146344632Y-87987475D01*
X146551475Y-87780632D01*
X146713990Y-87537411D01*
X146825932Y-87267158D01*
X146883000Y-86980260D01*
X146883000Y-86687740D01*
X146825932Y-86400842D01*
X146713990Y-86130589D01*
X146551475Y-85887368D01*
X146489907Y-85825800D01*
X195298888Y-85825800D01*
X195259285Y-85852262D01*
X194892262Y-86219285D01*
X194603893Y-86650859D01*
X194405261Y-87130399D01*
X194304000Y-87639475D01*
X194304000Y-88158525D01*
X194405261Y-88667601D01*
X194603893Y-89147141D01*
X194892262Y-89578715D01*
X195259285Y-89945738D01*
X195690859Y-90234107D01*
X196170399Y-90432739D01*
X196679475Y-90534000D01*
X197198525Y-90534000D01*
X197707601Y-90432739D01*
X198187141Y-90234107D01*
X198618715Y-89945738D01*
X198985738Y-89578715D01*
X199274107Y-89147141D01*
X199472739Y-88667601D01*
X199574000Y-88158525D01*
X199574000Y-87639475D01*
X199472739Y-87130399D01*
X199274107Y-86650859D01*
X198985738Y-86219285D01*
X198618715Y-85852262D01*
X198579112Y-85825800D01*
X200864001Y-85825800D01*
X200864001Y-90692709D01*
X200644260Y-90649000D01*
X200351740Y-90649000D01*
X200064842Y-90706068D01*
X199794589Y-90818010D01*
X199551368Y-90980525D01*
X199344525Y-91187368D01*
X199182010Y-91430589D01*
X199070068Y-91700842D01*
X199013000Y-91987740D01*
X199013000Y-92280260D01*
X199070068Y-92567158D01*
X199182010Y-92837411D01*
X199344525Y-93080632D01*
X199551368Y-93287475D01*
X199794589Y-93449990D01*
X200064842Y-93561932D01*
X200351740Y-93619000D01*
X200644260Y-93619000D01*
X200864001Y-93575291D01*
X200864000Y-104471000D01*
X198646796Y-104471000D01*
X198853167Y-104162144D01*
X199015992Y-103769049D01*
X199099000Y-103351741D01*
X199099000Y-102926259D01*
X199015992Y-102508951D01*
X198853167Y-102115856D01*
X198616781Y-101762080D01*
X198315920Y-101461219D01*
X197962144Y-101224833D01*
X197569049Y-101062008D01*
X197151741Y-100979000D01*
X196726259Y-100979000D01*
X196308951Y-101062008D01*
X195915856Y-101224833D01*
X195562080Y-101461219D01*
X195261219Y-101762080D01*
X195024833Y-102115856D01*
X194862008Y-102508951D01*
X194779000Y-102926259D01*
X194779000Y-103351741D01*
X194862008Y-103769049D01*
X195024833Y-104162144D01*
X195231204Y-104471000D01*
X146782919Y-104471000D01*
X146825932Y-104367158D01*
X146883000Y-104080260D01*
X146883000Y-103787740D01*
X146825932Y-103500842D01*
X146713990Y-103230589D01*
X146551475Y-102987368D01*
X146344632Y-102780525D01*
X146175000Y-102667181D01*
X146175000Y-101048117D01*
X147744000Y-101048117D01*
X147744000Y-101389883D01*
X147810675Y-101725081D01*
X147941463Y-102040831D01*
X148131337Y-102324998D01*
X148373002Y-102566663D01*
X148657169Y-102756537D01*
X148972919Y-102887325D01*
X149308117Y-102954000D01*
X149649883Y-102954000D01*
X149985081Y-102887325D01*
X150300831Y-102756537D01*
X150584998Y-102566663D01*
X150826663Y-102324998D01*
X151016537Y-102040831D01*
X151147325Y-101725081D01*
X151214000Y-101389883D01*
X151214000Y-101048117D01*
X151147325Y-100712919D01*
X151016537Y-100397169D01*
X150826663Y-100113002D01*
X150584998Y-99871337D01*
X150300831Y-99681463D01*
X149985081Y-99550675D01*
X149649883Y-99484000D01*
X149308117Y-99484000D01*
X148972919Y-99550675D01*
X148657169Y-99681463D01*
X148373002Y-99871337D01*
X148131337Y-100113002D01*
X147941463Y-100397169D01*
X147810675Y-100712919D01*
X147744000Y-101048117D01*
X146175000Y-101048117D01*
X146175000Y-101002322D01*
X146178676Y-100964999D01*
X146175000Y-100927676D01*
X146175000Y-100927667D01*
X146164003Y-100816014D01*
X146120546Y-100672753D01*
X146049974Y-100540724D01*
X145955001Y-100424999D01*
X145926004Y-100401202D01*
X144771714Y-99246912D01*
X144797325Y-99185081D01*
X144864000Y-98849883D01*
X144864000Y-98508117D01*
X144797325Y-98172919D01*
X144666537Y-97857169D01*
X144476663Y-97573002D01*
X144234998Y-97331337D01*
X143950831Y-97141463D01*
X143635081Y-97010675D01*
X143299883Y-96944000D01*
X143107110Y-96944000D01*
X143174990Y-96842411D01*
X143286932Y-96572158D01*
X143344000Y-96285260D01*
X143344000Y-95992740D01*
X143321471Y-95879475D01*
X144304000Y-95879475D01*
X144304000Y-96398525D01*
X144405261Y-96907601D01*
X144603893Y-97387141D01*
X144892262Y-97818715D01*
X145259285Y-98185738D01*
X145690859Y-98474107D01*
X146170399Y-98672739D01*
X146679475Y-98774000D01*
X147198525Y-98774000D01*
X147707601Y-98672739D01*
X148187141Y-98474107D01*
X148618715Y-98185738D01*
X148985738Y-97818715D01*
X149274107Y-97387141D01*
X149472739Y-96907601D01*
X149574000Y-96398525D01*
X149574000Y-95879475D01*
X149472739Y-95370399D01*
X149274107Y-94890859D01*
X148985738Y-94459285D01*
X148618715Y-94092262D01*
X148187141Y-93803893D01*
X147707601Y-93605261D01*
X147198525Y-93504000D01*
X146679475Y-93504000D01*
X146170399Y-93605261D01*
X145690859Y-93803893D01*
X145259285Y-94092262D01*
X144892262Y-94459285D01*
X144603893Y-94890859D01*
X144405261Y-95370399D01*
X144304000Y-95879475D01*
X143321471Y-95879475D01*
X143286932Y-95705842D01*
X143174990Y-95435589D01*
X143012475Y-95192368D01*
X142805632Y-94985525D01*
X142562411Y-94823010D01*
X142292158Y-94711068D01*
X142005260Y-94654000D01*
X141712740Y-94654000D01*
X141425842Y-94711068D01*
X141155589Y-94823010D01*
X140912368Y-94985525D01*
X140705525Y-95192368D01*
X140543010Y-95435589D01*
X140431068Y-95705842D01*
X140374000Y-95992740D01*
X140374000Y-96285260D01*
X140431068Y-96572158D01*
X140543010Y-96842411D01*
X140705525Y-97085632D01*
X140912368Y-97292475D01*
X141155589Y-97454990D01*
X141425842Y-97566932D01*
X141712740Y-97624000D01*
X141747261Y-97624000D01*
X141591463Y-97857169D01*
X141460675Y-98172919D01*
X141394000Y-98508117D01*
X141394000Y-98849883D01*
X141460675Y-99185081D01*
X141591463Y-99500831D01*
X141781337Y-99784998D01*
X142023002Y-100026663D01*
X142307169Y-100216537D01*
X142622919Y-100347325D01*
X142958117Y-100414000D01*
X143299883Y-100414000D01*
X143635081Y-100347325D01*
X143696912Y-100321714D01*
X144655000Y-101279802D01*
X144655001Y-102644462D01*
X144451368Y-102780525D01*
X144244525Y-102987368D01*
X144082010Y-103230589D01*
X143970068Y-103500842D01*
X143913000Y-103787740D01*
X143913000Y-104080260D01*
X143970068Y-104367158D01*
X144013081Y-104471000D01*
X98646796Y-104471000D01*
X98853167Y-104162144D01*
X99015992Y-103769049D01*
X99099000Y-103351741D01*
X99099000Y-102926259D01*
X99015992Y-102508951D01*
X98853167Y-102115856D01*
X98616781Y-101762080D01*
X98315920Y-101461219D01*
X97962144Y-101224833D01*
X97569049Y-101062008D01*
X97151741Y-100979000D01*
X96726259Y-100979000D01*
X96308951Y-101062008D01*
X95915856Y-101224833D01*
X95562080Y-101461219D01*
X95261219Y-101762080D01*
X95024833Y-102115856D01*
X94862008Y-102508951D01*
X94779000Y-102926259D01*
X94779000Y-103351741D01*
X94862008Y-103769049D01*
X95024833Y-104162144D01*
X95231204Y-104471000D01*
X92302800Y-104471000D01*
X92302800Y-93428117D01*
X149014000Y-93428117D01*
X149014000Y-93769883D01*
X149080675Y-94105081D01*
X149211463Y-94420831D01*
X149401337Y-94704998D01*
X149643002Y-94946663D01*
X149927169Y-95136537D01*
X150242919Y-95267325D01*
X150578117Y-95334000D01*
X150770890Y-95334000D01*
X150703010Y-95435589D01*
X150591068Y-95705842D01*
X150534000Y-95992740D01*
X150534000Y-96285260D01*
X150591068Y-96572158D01*
X150703010Y-96842411D01*
X150865525Y-97085632D01*
X151072368Y-97292475D01*
X151315589Y-97454990D01*
X151585842Y-97566932D01*
X151872740Y-97624000D01*
X152165260Y-97624000D01*
X152452158Y-97566932D01*
X152722411Y-97454990D01*
X152965632Y-97292475D01*
X153172475Y-97085632D01*
X153334990Y-96842411D01*
X153446932Y-96572158D01*
X153504000Y-96285260D01*
X153504000Y-95992740D01*
X153499330Y-95969259D01*
X154176300Y-95969259D01*
X154177376Y-95976533D01*
X154177168Y-95983875D01*
X154187234Y-96043199D01*
X154196039Y-96102740D01*
X154198511Y-96109660D01*
X154199741Y-96116907D01*
X154221189Y-96173132D01*
X154241437Y-96229806D01*
X154245213Y-96236113D01*
X154247832Y-96242978D01*
X154279837Y-96293938D01*
X154310754Y-96345574D01*
X154315687Y-96351022D01*
X154319596Y-96357246D01*
X154360927Y-96400982D01*
X154401324Y-96445595D01*
X154407227Y-96449977D01*
X154412273Y-96455317D01*
X154461324Y-96490137D01*
X154509666Y-96526024D01*
X154546828Y-96543621D01*
X156266385Y-97526226D01*
X156287666Y-97542024D01*
X156324821Y-97559618D01*
X156331158Y-97563239D01*
X156355220Y-97574013D01*
X156409617Y-97599771D01*
X156416745Y-97601560D01*
X156423452Y-97604563D01*
X156482131Y-97617970D01*
X156540492Y-97632617D01*
X156547830Y-97632981D01*
X156554995Y-97634618D01*
X156615139Y-97636319D01*
X156675259Y-97639300D01*
X156682533Y-97638224D01*
X156689875Y-97638432D01*
X156749195Y-97628366D01*
X156808740Y-97619561D01*
X156815661Y-97617088D01*
X156822906Y-97615859D01*
X156879124Y-97594414D01*
X156935806Y-97574163D01*
X156942113Y-97570387D01*
X156948978Y-97567768D01*
X156999929Y-97535769D01*
X157051574Y-97504846D01*
X157057024Y-97499911D01*
X157063245Y-97496004D01*
X157106969Y-97454685D01*
X157151595Y-97414276D01*
X157155977Y-97408373D01*
X157161317Y-97403327D01*
X157196145Y-97354265D01*
X157211871Y-97333081D01*
X157215629Y-97326817D01*
X157239423Y-97293299D01*
X157250252Y-97269112D01*
X159501630Y-93516816D01*
X159525423Y-93483299D01*
X159550003Y-93428401D01*
X159575771Y-93373984D01*
X159577562Y-93366850D01*
X159580563Y-93360146D01*
X159593956Y-93301527D01*
X159608617Y-93243110D01*
X159608981Y-93235762D01*
X159610617Y-93228603D01*
X159612317Y-93168493D01*
X159615300Y-93108342D01*
X159614224Y-93101068D01*
X159614432Y-93093723D01*
X159604364Y-93034386D01*
X159595561Y-92974860D01*
X159593089Y-92967941D01*
X159591859Y-92960692D01*
X159570403Y-92904445D01*
X159550163Y-92847794D01*
X159546389Y-92841491D01*
X159543768Y-92834620D01*
X159511743Y-92783628D01*
X159480846Y-92732026D01*
X159475915Y-92726581D01*
X159472004Y-92720353D01*
X159430640Y-92676581D01*
X159390276Y-92632006D01*
X159384380Y-92627629D01*
X159379327Y-92622282D01*
X159330213Y-92587417D01*
X159281934Y-92551576D01*
X159244795Y-92533990D01*
X159188182Y-92501640D01*
X159259727Y-92472005D01*
X159488535Y-92319120D01*
X159683120Y-92124535D01*
X159836005Y-91895727D01*
X159941314Y-91641490D01*
X159995000Y-91371592D01*
X159995000Y-91096408D01*
X159941314Y-90826510D01*
X159836005Y-90572273D01*
X159683120Y-90343465D01*
X159488535Y-90148880D01*
X159259727Y-89995995D01*
X159005490Y-89890686D01*
X158735592Y-89837000D01*
X158460408Y-89837000D01*
X158190510Y-89890686D01*
X157936273Y-89995995D01*
X157707465Y-90148880D01*
X157512880Y-90343465D01*
X157359995Y-90572273D01*
X157254686Y-90826510D01*
X157201000Y-91096408D01*
X157201000Y-91371592D01*
X157215079Y-91442373D01*
X157176435Y-91441281D01*
X157116340Y-91438301D01*
X157109072Y-91439376D01*
X157101725Y-91439168D01*
X157042387Y-91449236D01*
X156982859Y-91458039D01*
X156975938Y-91460512D01*
X156968693Y-91461741D01*
X156912482Y-91483183D01*
X156855793Y-91503437D01*
X156849485Y-91507214D01*
X156842622Y-91509832D01*
X156791682Y-91541824D01*
X156740025Y-91572754D01*
X156734575Y-91577689D01*
X156728354Y-91581596D01*
X156684641Y-91622905D01*
X156640004Y-91663324D01*
X156635620Y-91669230D01*
X156630283Y-91674273D01*
X156595477Y-91723304D01*
X156579728Y-91744519D01*
X156575964Y-91750792D01*
X156552177Y-91784301D01*
X156541350Y-91808482D01*
X154289973Y-95560779D01*
X154266177Y-95594301D01*
X154241585Y-95649225D01*
X154215829Y-95703617D01*
X154214040Y-95710747D01*
X154211037Y-95717453D01*
X154197634Y-95776116D01*
X154182983Y-95834492D01*
X154182619Y-95841832D01*
X154180982Y-95848997D01*
X154179281Y-95909137D01*
X154176300Y-95969259D01*
X153499330Y-95969259D01*
X153446932Y-95705842D01*
X153334990Y-95435589D01*
X153172475Y-95192368D01*
X152965632Y-94985525D01*
X152722411Y-94823010D01*
X152452158Y-94711068D01*
X152165260Y-94654000D01*
X152130739Y-94654000D01*
X152286537Y-94420831D01*
X152417325Y-94105081D01*
X152484000Y-93769883D01*
X152484000Y-93428117D01*
X152417325Y-93092919D01*
X152286537Y-92777169D01*
X152096663Y-92493002D01*
X151854998Y-92251337D01*
X151570831Y-92061463D01*
X151255081Y-91930675D01*
X150919883Y-91864000D01*
X150578117Y-91864000D01*
X150242919Y-91930675D01*
X149927169Y-92061463D01*
X149643002Y-92251337D01*
X149401337Y-92493002D01*
X149211463Y-92777169D01*
X149080675Y-93092919D01*
X149014000Y-93428117D01*
X92302800Y-93428117D01*
X92302800Y-92794812D01*
X92464842Y-92861932D01*
X92751740Y-92919000D01*
X93044260Y-92919000D01*
X93331158Y-92861932D01*
X93601411Y-92749990D01*
X93844632Y-92587475D01*
X94051475Y-92380632D01*
X94213990Y-92137411D01*
X94325932Y-91867158D01*
X94383000Y-91580260D01*
X94383000Y-91287740D01*
X94325932Y-91000842D01*
X94213990Y-90730589D01*
X94051475Y-90487368D01*
X93844632Y-90280525D01*
X93601411Y-90118010D01*
X93331158Y-90006068D01*
X93044260Y-89949000D01*
X92751740Y-89949000D01*
X92464842Y-90006068D01*
X92302800Y-90073188D01*
X92302800Y-85825800D01*
X95298888Y-85825800D01*
X95259285Y-85852262D01*
G37*
X95259285Y-85852262D02*
X94892262Y-86219285D01*
X94603893Y-86650859D01*
X94405261Y-87130399D01*
X94304000Y-87639475D01*
X94304000Y-88158525D01*
X94405261Y-88667601D01*
X94603893Y-89147141D01*
X94892262Y-89578715D01*
X95259285Y-89945738D01*
X95690859Y-90234107D01*
X96170399Y-90432739D01*
X96679475Y-90534000D01*
X97198525Y-90534000D01*
X97707601Y-90432739D01*
X98187141Y-90234107D01*
X98618715Y-89945738D01*
X98985738Y-89578715D01*
X99274107Y-89147141D01*
X99472739Y-88667601D01*
X99574000Y-88158525D01*
X99574000Y-87639475D01*
X99472739Y-87130399D01*
X99274107Y-86650859D01*
X98985738Y-86219285D01*
X98618715Y-85852262D01*
X98579112Y-85825800D01*
X144306093Y-85825800D01*
X144244525Y-85887368D01*
X144082010Y-86130589D01*
X143970068Y-86400842D01*
X143913000Y-86687740D01*
X143913000Y-86980260D01*
X143970068Y-87267158D01*
X144082010Y-87537411D01*
X144244525Y-87780632D01*
X144451368Y-87987475D01*
X144655001Y-88123538D01*
X144655000Y-89265228D01*
X144648998Y-89285015D01*
X144643712Y-89338685D01*
X144569883Y-89324000D01*
X144228117Y-89324000D01*
X143892919Y-89390675D01*
X143577169Y-89521463D01*
X143293002Y-89711337D01*
X143051337Y-89953002D01*
X142861463Y-90237169D01*
X142730675Y-90552919D01*
X142664000Y-90888117D01*
X142664000Y-91229883D01*
X142730675Y-91565081D01*
X142861463Y-91880831D01*
X143051337Y-92164998D01*
X143293002Y-92406663D01*
X143577169Y-92596537D01*
X143892919Y-92727325D01*
X144228117Y-92794000D01*
X144569883Y-92794000D01*
X144905081Y-92727325D01*
X145220831Y-92596537D01*
X145504998Y-92406663D01*
X145746663Y-92164998D01*
X145936537Y-91880831D01*
X146067325Y-91565081D01*
X146134000Y-91229883D01*
X146134000Y-90888117D01*
X146067325Y-90552919D01*
X146037930Y-90481953D01*
X146049974Y-90467277D01*
X146120546Y-90335247D01*
X146137145Y-90280525D01*
X146164003Y-90191986D01*
X146175000Y-90080333D01*
X146175000Y-90080323D01*
X146178676Y-90043000D01*
X146175000Y-90005678D01*
X146175000Y-89488325D01*
X146178676Y-89451000D01*
X146175000Y-89413675D01*
X146175000Y-88100819D01*
X146344632Y-87987475D01*
X146551475Y-87780632D01*
X146713990Y-87537411D01*
X146825932Y-87267158D01*
X146883000Y-86980260D01*
X146883000Y-86687740D01*
X146825932Y-86400842D01*
X146713990Y-86130589D01*
X146551475Y-85887368D01*
X146489907Y-85825800D01*
X195298888Y-85825800D01*
X195259285Y-85852262D01*
X194892262Y-86219285D01*
X194603893Y-86650859D01*
X194405261Y-87130399D01*
X194304000Y-87639475D01*
X194304000Y-88158525D01*
X194405261Y-88667601D01*
X194603893Y-89147141D01*
X194892262Y-89578715D01*
X195259285Y-89945738D01*
X195690859Y-90234107D01*
X196170399Y-90432739D01*
X196679475Y-90534000D01*
X197198525Y-90534000D01*
X197707601Y-90432739D01*
X198187141Y-90234107D01*
X198618715Y-89945738D01*
X198985738Y-89578715D01*
X199274107Y-89147141D01*
X199472739Y-88667601D01*
X199574000Y-88158525D01*
X199574000Y-87639475D01*
X199472739Y-87130399D01*
X199274107Y-86650859D01*
X198985738Y-86219285D01*
X198618715Y-85852262D01*
X198579112Y-85825800D01*
X200864001Y-85825800D01*
X200864001Y-90692709D01*
X200644260Y-90649000D01*
X200351740Y-90649000D01*
X200064842Y-90706068D01*
X199794589Y-90818010D01*
X199551368Y-90980525D01*
X199344525Y-91187368D01*
X199182010Y-91430589D01*
X199070068Y-91700842D01*
X199013000Y-91987740D01*
X199013000Y-92280260D01*
X199070068Y-92567158D01*
X199182010Y-92837411D01*
X199344525Y-93080632D01*
X199551368Y-93287475D01*
X199794589Y-93449990D01*
X200064842Y-93561932D01*
X200351740Y-93619000D01*
X200644260Y-93619000D01*
X200864001Y-93575291D01*
X200864000Y-104471000D01*
X198646796Y-104471000D01*
X198853167Y-104162144D01*
X199015992Y-103769049D01*
X199099000Y-103351741D01*
X199099000Y-102926259D01*
X199015992Y-102508951D01*
X198853167Y-102115856D01*
X198616781Y-101762080D01*
X198315920Y-101461219D01*
X197962144Y-101224833D01*
X197569049Y-101062008D01*
X197151741Y-100979000D01*
X196726259Y-100979000D01*
X196308951Y-101062008D01*
X195915856Y-101224833D01*
X195562080Y-101461219D01*
X195261219Y-101762080D01*
X195024833Y-102115856D01*
X194862008Y-102508951D01*
X194779000Y-102926259D01*
X194779000Y-103351741D01*
X194862008Y-103769049D01*
X195024833Y-104162144D01*
X195231204Y-104471000D01*
X146782919Y-104471000D01*
X146825932Y-104367158D01*
X146883000Y-104080260D01*
X146883000Y-103787740D01*
X146825932Y-103500842D01*
X146713990Y-103230589D01*
X146551475Y-102987368D01*
X146344632Y-102780525D01*
X146175000Y-102667181D01*
X146175000Y-101048117D01*
X147744000Y-101048117D01*
X147744000Y-101389883D01*
X147810675Y-101725081D01*
X147941463Y-102040831D01*
X148131337Y-102324998D01*
X148373002Y-102566663D01*
X148657169Y-102756537D01*
X148972919Y-102887325D01*
X149308117Y-102954000D01*
X149649883Y-102954000D01*
X149985081Y-102887325D01*
X150300831Y-102756537D01*
X150584998Y-102566663D01*
X150826663Y-102324998D01*
X151016537Y-102040831D01*
X151147325Y-101725081D01*
X151214000Y-101389883D01*
X151214000Y-101048117D01*
X151147325Y-100712919D01*
X151016537Y-100397169D01*
X150826663Y-100113002D01*
X150584998Y-99871337D01*
X150300831Y-99681463D01*
X149985081Y-99550675D01*
X149649883Y-99484000D01*
X149308117Y-99484000D01*
X148972919Y-99550675D01*
X148657169Y-99681463D01*
X148373002Y-99871337D01*
X148131337Y-100113002D01*
X147941463Y-100397169D01*
X147810675Y-100712919D01*
X147744000Y-101048117D01*
X146175000Y-101048117D01*
X146175000Y-101002322D01*
X146178676Y-100964999D01*
X146175000Y-100927676D01*
X146175000Y-100927667D01*
X146164003Y-100816014D01*
X146120546Y-100672753D01*
X146049974Y-100540724D01*
X145955001Y-100424999D01*
X145926004Y-100401202D01*
X144771714Y-99246912D01*
X144797325Y-99185081D01*
X144864000Y-98849883D01*
X144864000Y-98508117D01*
X144797325Y-98172919D01*
X144666537Y-97857169D01*
X144476663Y-97573002D01*
X144234998Y-97331337D01*
X143950831Y-97141463D01*
X143635081Y-97010675D01*
X143299883Y-96944000D01*
X143107110Y-96944000D01*
X143174990Y-96842411D01*
X143286932Y-96572158D01*
X143344000Y-96285260D01*
X143344000Y-95992740D01*
X143321471Y-95879475D01*
X144304000Y-95879475D01*
X144304000Y-96398525D01*
X144405261Y-96907601D01*
X144603893Y-97387141D01*
X144892262Y-97818715D01*
X145259285Y-98185738D01*
X145690859Y-98474107D01*
X146170399Y-98672739D01*
X146679475Y-98774000D01*
X147198525Y-98774000D01*
X147707601Y-98672739D01*
X148187141Y-98474107D01*
X148618715Y-98185738D01*
X148985738Y-97818715D01*
X149274107Y-97387141D01*
X149472739Y-96907601D01*
X149574000Y-96398525D01*
X149574000Y-95879475D01*
X149472739Y-95370399D01*
X149274107Y-94890859D01*
X148985738Y-94459285D01*
X148618715Y-94092262D01*
X148187141Y-93803893D01*
X147707601Y-93605261D01*
X147198525Y-93504000D01*
X146679475Y-93504000D01*
X146170399Y-93605261D01*
X145690859Y-93803893D01*
X145259285Y-94092262D01*
X144892262Y-94459285D01*
X144603893Y-94890859D01*
X144405261Y-95370399D01*
X144304000Y-95879475D01*
X143321471Y-95879475D01*
X143286932Y-95705842D01*
X143174990Y-95435589D01*
X143012475Y-95192368D01*
X142805632Y-94985525D01*
X142562411Y-94823010D01*
X142292158Y-94711068D01*
X142005260Y-94654000D01*
X141712740Y-94654000D01*
X141425842Y-94711068D01*
X141155589Y-94823010D01*
X140912368Y-94985525D01*
X140705525Y-95192368D01*
X140543010Y-95435589D01*
X140431068Y-95705842D01*
X140374000Y-95992740D01*
X140374000Y-96285260D01*
X140431068Y-96572158D01*
X140543010Y-96842411D01*
X140705525Y-97085632D01*
X140912368Y-97292475D01*
X141155589Y-97454990D01*
X141425842Y-97566932D01*
X141712740Y-97624000D01*
X141747261Y-97624000D01*
X141591463Y-97857169D01*
X141460675Y-98172919D01*
X141394000Y-98508117D01*
X141394000Y-98849883D01*
X141460675Y-99185081D01*
X141591463Y-99500831D01*
X141781337Y-99784998D01*
X142023002Y-100026663D01*
X142307169Y-100216537D01*
X142622919Y-100347325D01*
X142958117Y-100414000D01*
X143299883Y-100414000D01*
X143635081Y-100347325D01*
X143696912Y-100321714D01*
X144655000Y-101279802D01*
X144655001Y-102644462D01*
X144451368Y-102780525D01*
X144244525Y-102987368D01*
X144082010Y-103230589D01*
X143970068Y-103500842D01*
X143913000Y-103787740D01*
X143913000Y-104080260D01*
X143970068Y-104367158D01*
X144013081Y-104471000D01*
X98646796Y-104471000D01*
X98853167Y-104162144D01*
X99015992Y-103769049D01*
X99099000Y-103351741D01*
X99099000Y-102926259D01*
X99015992Y-102508951D01*
X98853167Y-102115856D01*
X98616781Y-101762080D01*
X98315920Y-101461219D01*
X97962144Y-101224833D01*
X97569049Y-101062008D01*
X97151741Y-100979000D01*
X96726259Y-100979000D01*
X96308951Y-101062008D01*
X95915856Y-101224833D01*
X95562080Y-101461219D01*
X95261219Y-101762080D01*
X95024833Y-102115856D01*
X94862008Y-102508951D01*
X94779000Y-102926259D01*
X94779000Y-103351741D01*
X94862008Y-103769049D01*
X95024833Y-104162144D01*
X95231204Y-104471000D01*
X92302800Y-104471000D01*
X92302800Y-93428117D01*
X149014000Y-93428117D01*
X149014000Y-93769883D01*
X149080675Y-94105081D01*
X149211463Y-94420831D01*
X149401337Y-94704998D01*
X149643002Y-94946663D01*
X149927169Y-95136537D01*
X150242919Y-95267325D01*
X150578117Y-95334000D01*
X150770890Y-95334000D01*
X150703010Y-95435589D01*
X150591068Y-95705842D01*
X150534000Y-95992740D01*
X150534000Y-96285260D01*
X150591068Y-96572158D01*
X150703010Y-96842411D01*
X150865525Y-97085632D01*
X151072368Y-97292475D01*
X151315589Y-97454990D01*
X151585842Y-97566932D01*
X151872740Y-97624000D01*
X152165260Y-97624000D01*
X152452158Y-97566932D01*
X152722411Y-97454990D01*
X152965632Y-97292475D01*
X153172475Y-97085632D01*
X153334990Y-96842411D01*
X153446932Y-96572158D01*
X153504000Y-96285260D01*
X153504000Y-95992740D01*
X153499330Y-95969259D01*
X154176300Y-95969259D01*
X154177376Y-95976533D01*
X154177168Y-95983875D01*
X154187234Y-96043199D01*
X154196039Y-96102740D01*
X154198511Y-96109660D01*
X154199741Y-96116907D01*
X154221189Y-96173132D01*
X154241437Y-96229806D01*
X154245213Y-96236113D01*
X154247832Y-96242978D01*
X154279837Y-96293938D01*
X154310754Y-96345574D01*
X154315687Y-96351022D01*
X154319596Y-96357246D01*
X154360927Y-96400982D01*
X154401324Y-96445595D01*
X154407227Y-96449977D01*
X154412273Y-96455317D01*
X154461324Y-96490137D01*
X154509666Y-96526024D01*
X154546828Y-96543621D01*
X156266385Y-97526226D01*
X156287666Y-97542024D01*
X156324821Y-97559618D01*
X156331158Y-97563239D01*
X156355220Y-97574013D01*
X156409617Y-97599771D01*
X156416745Y-97601560D01*
X156423452Y-97604563D01*
X156482131Y-97617970D01*
X156540492Y-97632617D01*
X156547830Y-97632981D01*
X156554995Y-97634618D01*
X156615139Y-97636319D01*
X156675259Y-97639300D01*
X156682533Y-97638224D01*
X156689875Y-97638432D01*
X156749195Y-97628366D01*
X156808740Y-97619561D01*
X156815661Y-97617088D01*
X156822906Y-97615859D01*
X156879124Y-97594414D01*
X156935806Y-97574163D01*
X156942113Y-97570387D01*
X156948978Y-97567768D01*
X156999929Y-97535769D01*
X157051574Y-97504846D01*
X157057024Y-97499911D01*
X157063245Y-97496004D01*
X157106969Y-97454685D01*
X157151595Y-97414276D01*
X157155977Y-97408373D01*
X157161317Y-97403327D01*
X157196145Y-97354265D01*
X157211871Y-97333081D01*
X157215629Y-97326817D01*
X157239423Y-97293299D01*
X157250252Y-97269112D01*
X159501630Y-93516816D01*
X159525423Y-93483299D01*
X159550003Y-93428401D01*
X159575771Y-93373984D01*
X159577562Y-93366850D01*
X159580563Y-93360146D01*
X159593956Y-93301527D01*
X159608617Y-93243110D01*
X159608981Y-93235762D01*
X159610617Y-93228603D01*
X159612317Y-93168493D01*
X159615300Y-93108342D01*
X159614224Y-93101068D01*
X159614432Y-93093723D01*
X159604364Y-93034386D01*
X159595561Y-92974860D01*
X159593089Y-92967941D01*
X159591859Y-92960692D01*
X159570403Y-92904445D01*
X159550163Y-92847794D01*
X159546389Y-92841491D01*
X159543768Y-92834620D01*
X159511743Y-92783628D01*
X159480846Y-92732026D01*
X159475915Y-92726581D01*
X159472004Y-92720353D01*
X159430640Y-92676581D01*
X159390276Y-92632006D01*
X159384380Y-92627629D01*
X159379327Y-92622282D01*
X159330213Y-92587417D01*
X159281934Y-92551576D01*
X159244795Y-92533990D01*
X159188182Y-92501640D01*
X159259727Y-92472005D01*
X159488535Y-92319120D01*
X159683120Y-92124535D01*
X159836005Y-91895727D01*
X159941314Y-91641490D01*
X159995000Y-91371592D01*
X159995000Y-91096408D01*
X159941314Y-90826510D01*
X159836005Y-90572273D01*
X159683120Y-90343465D01*
X159488535Y-90148880D01*
X159259727Y-89995995D01*
X159005490Y-89890686D01*
X158735592Y-89837000D01*
X158460408Y-89837000D01*
X158190510Y-89890686D01*
X157936273Y-89995995D01*
X157707465Y-90148880D01*
X157512880Y-90343465D01*
X157359995Y-90572273D01*
X157254686Y-90826510D01*
X157201000Y-91096408D01*
X157201000Y-91371592D01*
X157215079Y-91442373D01*
X157176435Y-91441281D01*
X157116340Y-91438301D01*
X157109072Y-91439376D01*
X157101725Y-91439168D01*
X157042387Y-91449236D01*
X156982859Y-91458039D01*
X156975938Y-91460512D01*
X156968693Y-91461741D01*
X156912482Y-91483183D01*
X156855793Y-91503437D01*
X156849485Y-91507214D01*
X156842622Y-91509832D01*
X156791682Y-91541824D01*
X156740025Y-91572754D01*
X156734575Y-91577689D01*
X156728354Y-91581596D01*
X156684641Y-91622905D01*
X156640004Y-91663324D01*
X156635620Y-91669230D01*
X156630283Y-91674273D01*
X156595477Y-91723304D01*
X156579728Y-91744519D01*
X156575964Y-91750792D01*
X156552177Y-91784301D01*
X156541350Y-91808482D01*
X154289973Y-95560779D01*
X154266177Y-95594301D01*
X154241585Y-95649225D01*
X154215829Y-95703617D01*
X154214040Y-95710747D01*
X154211037Y-95717453D01*
X154197634Y-95776116D01*
X154182983Y-95834492D01*
X154182619Y-95841832D01*
X154180982Y-95848997D01*
X154179281Y-95909137D01*
X154176300Y-95969259D01*
X153499330Y-95969259D01*
X153446932Y-95705842D01*
X153334990Y-95435589D01*
X153172475Y-95192368D01*
X152965632Y-94985525D01*
X152722411Y-94823010D01*
X152452158Y-94711068D01*
X152165260Y-94654000D01*
X152130739Y-94654000D01*
X152286537Y-94420831D01*
X152417325Y-94105081D01*
X152484000Y-93769883D01*
X152484000Y-93428117D01*
X152417325Y-93092919D01*
X152286537Y-92777169D01*
X152096663Y-92493002D01*
X151854998Y-92251337D01*
X151570831Y-92061463D01*
X151255081Y-91930675D01*
X150919883Y-91864000D01*
X150578117Y-91864000D01*
X150242919Y-91930675D01*
X149927169Y-92061463D01*
X149643002Y-92251337D01*
X149401337Y-92493002D01*
X149211463Y-92777169D01*
X149080675Y-93092919D01*
X149014000Y-93428117D01*
X92302800Y-93428117D01*
X92302800Y-92794812D01*
X92464842Y-92861932D01*
X92751740Y-92919000D01*
X93044260Y-92919000D01*
X93331158Y-92861932D01*
X93601411Y-92749990D01*
X93844632Y-92587475D01*
X94051475Y-92380632D01*
X94213990Y-92137411D01*
X94325932Y-91867158D01*
X94383000Y-91580260D01*
X94383000Y-91287740D01*
X94325932Y-91000842D01*
X94213990Y-90730589D01*
X94051475Y-90487368D01*
X93844632Y-90280525D01*
X93601411Y-90118010D01*
X93331158Y-90006068D01*
X93044260Y-89949000D01*
X92751740Y-89949000D01*
X92464842Y-90006068D01*
X92302800Y-90073188D01*
X92302800Y-85825800D01*
X95298888Y-85825800D01*
X95259285Y-85852262D01*
M02*
