%TF.GenerationSoftware,KiCad,Pcbnew,(5.1.6)-1*%
%TF.CreationDate,2021-02-24T16:46:43-06:00*%
%TF.ProjectId,PR-TopPlate,50522d54-6f70-4506-9c61-74652e6b6963,rev?*%
%TF.SameCoordinates,Original*%
%TF.FileFunction,Profile,NP*%
%FSLAX46Y46*%
G04 Gerber Fmt 4.6, Leading zero omitted, Abs format (unit mm)*
G04 Created by KiCad (PCBNEW (5.1.6)-1) date 2021-02-24 16:46:43*
%MOMM*%
%LPD*%
G01*
G04 APERTURE LIST*
%TA.AperFunction,Profile*%
%ADD10C,0.050000*%
%TD*%
%TA.AperFunction,Profile*%
%ADD11C,0.150000*%
%TD*%
G04 APERTURE END LIST*
D10*
X113600000Y-110850000D02*
G75*
G03*
X113600000Y-110850000I-1000000J0D01*
G01*
X166400000Y-110850000D02*
G75*
G03*
X166400000Y-110850000I-1000000J0D01*
G01*
X140000000Y-110850000D02*
G75*
G03*
X140000000Y-110850000I-1000000J0D01*
G01*
X126500000Y-38000000D02*
G75*
G03*
X126500000Y-38000000I-1000000J0D01*
G01*
X153500000Y-38150000D02*
G75*
G03*
X153500000Y-38150000I-1000000J0D01*
G01*
X126500000Y-81100000D02*
G75*
G03*
X126500000Y-81100000I-1000000J0D01*
G01*
X153500000Y-81250000D02*
G75*
G03*
X153500000Y-81250000I-1000000J0D01*
G01*
X126500000Y5000000D02*
G75*
G03*
X126500000Y5000000I-1000000J0D01*
G01*
X153500000Y5000000D02*
G75*
G03*
X153500000Y5000000I-1000000J0D01*
G01*
X123500000Y5650000D02*
G75*
G02*
X154500000Y5650000I15500000J-50000D01*
G01*
X123497556Y-83026935D02*
G75*
G03*
X134100000Y-112850000I-497556J-16973065D01*
G01*
X123497556Y-83026935D02*
X123500000Y5650000D01*
X154499989Y-82961443D02*
X154500000Y5650000D01*
X143800001Y-112849999D02*
X134100000Y-112850000D01*
X154499989Y-82961442D02*
G75*
G02*
X143800001Y-112849999I500011J-17038558D01*
G01*
X132000000Y-5000000D02*
X132000000Y9000000D01*
X132000000Y9000000D02*
X146000000Y9000000D01*
X146000000Y9000000D02*
X146000000Y-5000000D01*
X132000000Y-5000000D02*
X146000000Y-5000000D01*
X132000000Y-24000000D02*
X132000000Y-10000000D01*
X132000000Y-10000000D02*
X146000000Y-10000000D01*
X146000000Y-10000000D02*
X146000000Y-24000000D01*
X132000000Y-24000000D02*
X146000000Y-24000000D01*
X132000000Y-43000000D02*
X132000000Y-29000000D01*
X132000000Y-29000000D02*
X146000000Y-29000000D01*
X146000000Y-29000000D02*
X146000000Y-43000000D01*
X132000000Y-43000000D02*
X146000000Y-43000000D01*
X132000000Y-62000000D02*
X132000000Y-48000000D01*
X132000000Y-48000000D02*
X146000000Y-48000000D01*
X146000000Y-48000000D02*
X146000000Y-62000000D01*
X132000000Y-62000000D02*
X146000000Y-62000000D01*
X132000000Y-81000000D02*
X132000000Y-67000000D01*
X132000000Y-67000000D02*
X146000000Y-67000000D01*
X146000000Y-67000000D02*
X146000000Y-81000000D01*
X132000000Y-81000000D02*
X146000000Y-81000000D01*
D11*
X158100000Y-100000000D02*
G75*
G03*
X158100000Y-100000000I-3100000J0D01*
G01*
X126100000Y-100000000D02*
G75*
G03*
X126100000Y-100000000I-3100000J0D01*
G01*
M02*
