%TF.GenerationSoftware,KiCad,Pcbnew,(5.1.6)-1*%
%TF.CreationDate,2021-02-24T16:46:42-06:00*%
%TF.ProjectId,PR-TopPlate,50522d54-6f70-4506-9c61-74652e6b6963,rev?*%
%TF.SameCoordinates,Original*%
%TF.FileFunction,Copper,L1,Top*%
%TF.FilePolarity,Positive*%
%FSLAX46Y46*%
G04 Gerber Fmt 4.6, Leading zero omitted, Abs format (unit mm)*
G04 Created by KiCad (PCBNEW (5.1.6)-1) date 2021-02-24 16:46:42*
%MOMM*%
%LPD*%
G01*
G04 APERTURE LIST*
%TA.AperFunction,NonConductor*%
%ADD10C,0.254000*%
%TD*%
G04 APERTURE END LIST*
D10*
G36*
X139772696Y20419104D02*
G01*
X141266308Y20265153D01*
X142736707Y19961055D01*
X144168856Y19509917D01*
X145548078Y18916363D01*
X146860267Y18186463D01*
X148091965Y17327705D01*
X149230577Y16348868D01*
X150264447Y15259974D01*
X151182982Y14072179D01*
X151976780Y12797642D01*
X152637715Y11449412D01*
X153159019Y10041289D01*
X153535357Y8587684D01*
X153762945Y7103024D01*
X153818892Y6035499D01*
X153798658Y6065781D01*
X153565781Y6298658D01*
X153291947Y6481628D01*
X152987678Y6607660D01*
X152664669Y6671910D01*
X152335331Y6671910D01*
X152012322Y6607660D01*
X151708053Y6481628D01*
X151434219Y6298658D01*
X151201342Y6065781D01*
X151018372Y5791947D01*
X150892340Y5487678D01*
X150828090Y5164669D01*
X150828090Y4835331D01*
X150892340Y4512322D01*
X151018372Y4208053D01*
X151201342Y3934219D01*
X151434219Y3701342D01*
X151708053Y3518372D01*
X152012322Y3392340D01*
X152335331Y3328090D01*
X152664669Y3328090D01*
X152987678Y3392340D01*
X153291947Y3518372D01*
X153565781Y3701342D01*
X153798658Y3934219D01*
X153840001Y3996093D01*
X153839995Y-37146085D01*
X153798658Y-37084219D01*
X153565781Y-36851342D01*
X153291947Y-36668372D01*
X152987678Y-36542340D01*
X152664669Y-36478090D01*
X152335331Y-36478090D01*
X152012322Y-36542340D01*
X151708053Y-36668372D01*
X151434219Y-36851342D01*
X151201342Y-37084219D01*
X151018372Y-37358053D01*
X150892340Y-37662322D01*
X150828090Y-37985331D01*
X150828090Y-38314669D01*
X150892340Y-38637678D01*
X151018372Y-38941947D01*
X151201342Y-39215781D01*
X151434219Y-39448658D01*
X151708053Y-39631628D01*
X152012322Y-39757660D01*
X152335331Y-39821910D01*
X152664669Y-39821910D01*
X152987678Y-39757660D01*
X153291947Y-39631628D01*
X153565781Y-39448658D01*
X153798658Y-39215781D01*
X153839995Y-39153916D01*
X153839989Y-80246076D01*
X153798658Y-80184219D01*
X153565781Y-79951342D01*
X153291947Y-79768372D01*
X152987678Y-79642340D01*
X152664669Y-79578090D01*
X152335331Y-79578090D01*
X152012322Y-79642340D01*
X151708053Y-79768372D01*
X151434219Y-79951342D01*
X151201342Y-80184219D01*
X151018372Y-80458053D01*
X150892340Y-80762322D01*
X150828090Y-81085331D01*
X150828090Y-81414669D01*
X150892340Y-81737678D01*
X151018372Y-82041947D01*
X151201342Y-82315781D01*
X151434219Y-82548658D01*
X151708053Y-82731628D01*
X152012322Y-82857660D01*
X152335331Y-82921910D01*
X152664669Y-82921910D01*
X152987678Y-82857660D01*
X153291947Y-82731628D01*
X153565781Y-82548658D01*
X153798658Y-82315781D01*
X153839989Y-82253925D01*
X153839989Y-82993861D01*
X153849539Y-83090825D01*
X153887279Y-83215235D01*
X153948564Y-83329892D01*
X154031041Y-83430390D01*
X154131539Y-83512867D01*
X154246196Y-83574152D01*
X154370606Y-83611892D01*
X154499989Y-83624635D01*
X154526257Y-83622048D01*
X156091350Y-83651254D01*
X157653284Y-83831123D01*
X159190798Y-84159869D01*
X160689701Y-84634460D01*
X162136236Y-85250537D01*
X163517054Y-86002417D01*
X164819448Y-86883180D01*
X166031441Y-87884728D01*
X167141847Y-88997815D01*
X168140463Y-90212213D01*
X169018081Y-91516728D01*
X169766632Y-92899358D01*
X170379215Y-94347366D01*
X170850194Y-95847425D01*
X171175228Y-97385711D01*
X171351329Y-98948076D01*
X171376874Y-100520123D01*
X171251625Y-102087396D01*
X170976742Y-103635417D01*
X170554745Y-105149993D01*
X169989530Y-106617138D01*
X169286300Y-108023352D01*
X168451520Y-109355700D01*
X167492889Y-110601897D01*
X167062413Y-111062412D01*
X167071910Y-111014669D01*
X167071910Y-110685331D01*
X167007660Y-110362322D01*
X166881628Y-110058053D01*
X166698658Y-109784219D01*
X166465781Y-109551342D01*
X166191947Y-109368372D01*
X165887678Y-109242340D01*
X165564669Y-109178090D01*
X165235331Y-109178090D01*
X164912322Y-109242340D01*
X164608053Y-109368372D01*
X164334219Y-109551342D01*
X164101342Y-109784219D01*
X163918372Y-110058053D01*
X163792340Y-110362322D01*
X163728090Y-110685331D01*
X163728090Y-111014669D01*
X163792340Y-111337678D01*
X163918372Y-111641947D01*
X164101342Y-111915781D01*
X164334219Y-112148658D01*
X164608053Y-112331628D01*
X164912322Y-112457660D01*
X165235331Y-112521910D01*
X165545162Y-112521910D01*
X165240421Y-112790868D01*
X163967325Y-113713482D01*
X162611665Y-114509827D01*
X161185918Y-115172572D01*
X159703205Y-115695617D01*
X158177207Y-116074137D01*
X156621935Y-116304657D01*
X155051736Y-116385049D01*
X153481061Y-116314574D01*
X151924369Y-116093881D01*
X150395996Y-115725002D01*
X148910018Y-115211332D01*
X147480123Y-114557609D01*
X146119459Y-113769840D01*
X144834117Y-112850676D01*
X144270130Y-112382491D01*
X144268948Y-112381051D01*
X144168450Y-112298574D01*
X144053793Y-112237289D01*
X143929383Y-112199549D01*
X143832419Y-112189999D01*
X140003909Y-112190000D01*
X140065781Y-112148658D01*
X140298658Y-111915781D01*
X140481628Y-111641947D01*
X140607660Y-111337678D01*
X140671910Y-111014669D01*
X140671910Y-110685331D01*
X140607660Y-110362322D01*
X140481628Y-110058053D01*
X140298658Y-109784219D01*
X140065781Y-109551342D01*
X139791947Y-109368372D01*
X139487678Y-109242340D01*
X139164669Y-109178090D01*
X138835331Y-109178090D01*
X138512322Y-109242340D01*
X138208053Y-109368372D01*
X137934219Y-109551342D01*
X137701342Y-109784219D01*
X137518372Y-110058053D01*
X137392340Y-110362322D01*
X137328090Y-110685331D01*
X137328090Y-111014669D01*
X137392340Y-111337678D01*
X137518372Y-111641947D01*
X137701342Y-111915781D01*
X137934219Y-112148658D01*
X137996092Y-112190000D01*
X134067581Y-112190001D01*
X133970617Y-112199551D01*
X133846207Y-112237291D01*
X133731550Y-112298576D01*
X133687163Y-112335004D01*
X132435254Y-113315599D01*
X131115577Y-114158623D01*
X129721171Y-114871283D01*
X128264875Y-115447016D01*
X126760112Y-115880515D01*
X125220719Y-116167795D01*
X123660872Y-116306209D01*
X122094957Y-116294480D01*
X120537373Y-116132720D01*
X119002445Y-115822413D01*
X117504351Y-115366426D01*
X116056838Y-114768943D01*
X114673265Y-114035479D01*
X113366354Y-113172778D01*
X112560563Y-112521910D01*
X112764669Y-112521910D01*
X113087678Y-112457660D01*
X113391947Y-112331628D01*
X113665781Y-112148658D01*
X113898658Y-111915781D01*
X114081628Y-111641947D01*
X114207660Y-111337678D01*
X114271910Y-111014669D01*
X114271910Y-110685331D01*
X114207660Y-110362322D01*
X114081628Y-110058053D01*
X113898658Y-109784219D01*
X113665781Y-109551342D01*
X113391947Y-109368372D01*
X113087678Y-109242340D01*
X112764669Y-109178090D01*
X112435331Y-109178090D01*
X112112322Y-109242340D01*
X111808053Y-109368372D01*
X111534219Y-109551342D01*
X111301342Y-109784219D01*
X111118372Y-110058053D01*
X110992340Y-110362322D01*
X110928090Y-110685331D01*
X110928090Y-110971582D01*
X110021805Y-109894224D01*
X109133233Y-108604764D01*
X108372343Y-107236078D01*
X107746134Y-105800756D01*
X107260382Y-104312032D01*
X106919555Y-102783611D01*
X106726789Y-101229560D01*
X106683860Y-99664179D01*
X106686578Y-99624594D01*
X119188442Y-99624594D01*
X119188442Y-100375406D01*
X119334919Y-101111790D01*
X119622242Y-101805450D01*
X120039370Y-102429726D01*
X120570274Y-102960630D01*
X121194550Y-103377758D01*
X121888210Y-103665081D01*
X122624594Y-103811558D01*
X123375406Y-103811558D01*
X124111790Y-103665081D01*
X124805450Y-103377758D01*
X125429726Y-102960630D01*
X125960630Y-102429726D01*
X126377758Y-101805450D01*
X126665081Y-101111790D01*
X126811558Y-100375406D01*
X126811558Y-99624594D01*
X151188442Y-99624594D01*
X151188442Y-100375406D01*
X151334919Y-101111790D01*
X151622242Y-101805450D01*
X152039370Y-102429726D01*
X152570274Y-102960630D01*
X153194550Y-103377758D01*
X153888210Y-103665081D01*
X154624594Y-103811558D01*
X155375406Y-103811558D01*
X156111790Y-103665081D01*
X156805450Y-103377758D01*
X157429726Y-102960630D01*
X157960630Y-102429726D01*
X158377758Y-101805450D01*
X158665081Y-101111790D01*
X158811558Y-100375406D01*
X158811558Y-99624594D01*
X158665081Y-98888210D01*
X158377758Y-98194550D01*
X157960630Y-97570274D01*
X157429726Y-97039370D01*
X156805450Y-96622242D01*
X156111790Y-96334919D01*
X155375406Y-96188442D01*
X154624594Y-96188442D01*
X153888210Y-96334919D01*
X153194550Y-96622242D01*
X152570274Y-97039370D01*
X152039370Y-97570274D01*
X151622242Y-98194550D01*
X151334919Y-98888210D01*
X151188442Y-99624594D01*
X126811558Y-99624594D01*
X126665081Y-98888210D01*
X126377758Y-98194550D01*
X125960630Y-97570274D01*
X125429726Y-97039370D01*
X124805450Y-96622242D01*
X124111790Y-96334919D01*
X123375406Y-96188442D01*
X122624594Y-96188442D01*
X121888210Y-96334919D01*
X121194550Y-96622242D01*
X120570274Y-97039370D01*
X120039370Y-97570274D01*
X119622242Y-98194550D01*
X119334919Y-98888210D01*
X119188442Y-99624594D01*
X106686578Y-99624594D01*
X106791164Y-98101890D01*
X107047713Y-96557078D01*
X107451144Y-95043969D01*
X107997737Y-93576504D01*
X108682469Y-92168174D01*
X109499039Y-90831946D01*
X110439914Y-89580141D01*
X111496429Y-88424291D01*
X112658870Y-87375015D01*
X113916543Y-86441976D01*
X115257834Y-85633787D01*
X116670420Y-84957872D01*
X118141277Y-84420462D01*
X119656889Y-84026497D01*
X121203262Y-83779614D01*
X122774843Y-83681540D01*
X123462667Y-83686692D01*
X123497538Y-83690127D01*
X123626921Y-83677388D01*
X123751332Y-83639651D01*
X123865990Y-83578370D01*
X123966491Y-83495895D01*
X124048970Y-83395400D01*
X124110259Y-83280744D01*
X124148002Y-83156335D01*
X124157555Y-83059372D01*
X124157581Y-82100289D01*
X124201342Y-82165781D01*
X124434219Y-82398658D01*
X124708053Y-82581628D01*
X125012322Y-82707660D01*
X125335331Y-82771910D01*
X125664669Y-82771910D01*
X125987678Y-82707660D01*
X126291947Y-82581628D01*
X126565781Y-82398658D01*
X126798658Y-82165781D01*
X126981628Y-81891947D01*
X127107660Y-81587678D01*
X127171910Y-81264669D01*
X127171910Y-80935331D01*
X127107660Y-80612322D01*
X126981628Y-80308053D01*
X126798658Y-80034219D01*
X126565781Y-79801342D01*
X126291947Y-79618372D01*
X125987678Y-79492340D01*
X125664669Y-79428090D01*
X125335331Y-79428090D01*
X125012322Y-79492340D01*
X124708053Y-79618372D01*
X124434219Y-79801342D01*
X124201342Y-80034219D01*
X124157637Y-80099629D01*
X124157997Y-67000000D01*
X131336807Y-67000000D01*
X131340001Y-67032429D01*
X131340000Y-80967581D01*
X131336807Y-81000000D01*
X131349550Y-81129383D01*
X131387290Y-81253793D01*
X131448575Y-81368450D01*
X131531052Y-81468948D01*
X131631550Y-81551425D01*
X131746207Y-81612710D01*
X131870617Y-81650450D01*
X132000000Y-81663193D01*
X132032419Y-81660000D01*
X145967581Y-81660000D01*
X146000000Y-81663193D01*
X146032419Y-81660000D01*
X146129383Y-81650450D01*
X146253793Y-81612710D01*
X146368450Y-81551425D01*
X146468948Y-81468948D01*
X146551425Y-81368450D01*
X146612710Y-81253793D01*
X146650450Y-81129383D01*
X146663193Y-81000000D01*
X146660000Y-80967581D01*
X146660000Y-67032419D01*
X146663193Y-67000000D01*
X146650450Y-66870617D01*
X146612710Y-66746207D01*
X146551425Y-66631550D01*
X146468948Y-66531052D01*
X146368450Y-66448575D01*
X146253793Y-66387290D01*
X146129383Y-66349550D01*
X146032419Y-66340000D01*
X146000000Y-66336807D01*
X145967581Y-66340000D01*
X132032419Y-66340000D01*
X132000000Y-66336807D01*
X131967581Y-66340000D01*
X131870617Y-66349550D01*
X131746207Y-66387290D01*
X131631550Y-66448575D01*
X131531052Y-66531052D01*
X131448575Y-66631550D01*
X131387290Y-66746207D01*
X131349550Y-66870617D01*
X131336807Y-67000000D01*
X124157997Y-67000000D01*
X124158520Y-48000000D01*
X131336807Y-48000000D01*
X131340001Y-48032429D01*
X131340000Y-61967581D01*
X131336807Y-62000000D01*
X131349550Y-62129383D01*
X131387290Y-62253793D01*
X131448575Y-62368450D01*
X131531052Y-62468948D01*
X131631550Y-62551425D01*
X131746207Y-62612710D01*
X131870617Y-62650450D01*
X132000000Y-62663193D01*
X132032419Y-62660000D01*
X145967581Y-62660000D01*
X146000000Y-62663193D01*
X146032419Y-62660000D01*
X146129383Y-62650450D01*
X146253793Y-62612710D01*
X146368450Y-62551425D01*
X146468948Y-62468948D01*
X146551425Y-62368450D01*
X146612710Y-62253793D01*
X146650450Y-62129383D01*
X146663193Y-62000000D01*
X146660000Y-61967581D01*
X146660000Y-48032419D01*
X146663193Y-48000000D01*
X146650450Y-47870617D01*
X146612710Y-47746207D01*
X146551425Y-47631550D01*
X146468948Y-47531052D01*
X146368450Y-47448575D01*
X146253793Y-47387290D01*
X146129383Y-47349550D01*
X146032419Y-47340000D01*
X146000000Y-47336807D01*
X145967581Y-47340000D01*
X132032419Y-47340000D01*
X132000000Y-47336807D01*
X131967581Y-47340000D01*
X131870617Y-47349550D01*
X131746207Y-47387290D01*
X131631550Y-47448575D01*
X131531052Y-47531052D01*
X131448575Y-47631550D01*
X131387290Y-47746207D01*
X131349550Y-47870617D01*
X131336807Y-48000000D01*
X124158520Y-48000000D01*
X124158769Y-39002066D01*
X124201342Y-39065781D01*
X124434219Y-39298658D01*
X124708053Y-39481628D01*
X125012322Y-39607660D01*
X125335331Y-39671910D01*
X125664669Y-39671910D01*
X125987678Y-39607660D01*
X126291947Y-39481628D01*
X126565781Y-39298658D01*
X126798658Y-39065781D01*
X126981628Y-38791947D01*
X127107660Y-38487678D01*
X127171910Y-38164669D01*
X127171910Y-37835331D01*
X127107660Y-37512322D01*
X126981628Y-37208053D01*
X126798658Y-36934219D01*
X126565781Y-36701342D01*
X126291947Y-36518372D01*
X125987678Y-36392340D01*
X125664669Y-36328090D01*
X125335331Y-36328090D01*
X125012322Y-36392340D01*
X124708053Y-36518372D01*
X124434219Y-36701342D01*
X124201342Y-36934219D01*
X124158824Y-36997852D01*
X124159044Y-29000000D01*
X131336807Y-29000000D01*
X131340001Y-29032429D01*
X131340000Y-42967581D01*
X131336807Y-43000000D01*
X131349550Y-43129383D01*
X131387290Y-43253793D01*
X131448575Y-43368450D01*
X131531052Y-43468948D01*
X131631550Y-43551425D01*
X131746207Y-43612710D01*
X131870617Y-43650450D01*
X132000000Y-43663193D01*
X132032419Y-43660000D01*
X145967581Y-43660000D01*
X146000000Y-43663193D01*
X146032419Y-43660000D01*
X146129383Y-43650450D01*
X146253793Y-43612710D01*
X146368450Y-43551425D01*
X146468948Y-43468948D01*
X146551425Y-43368450D01*
X146612710Y-43253793D01*
X146650450Y-43129383D01*
X146663193Y-43000000D01*
X146660000Y-42967581D01*
X146660000Y-29032419D01*
X146663193Y-29000000D01*
X146650450Y-28870617D01*
X146612710Y-28746207D01*
X146551425Y-28631550D01*
X146468948Y-28531052D01*
X146368450Y-28448575D01*
X146253793Y-28387290D01*
X146129383Y-28349550D01*
X146032419Y-28340000D01*
X146000000Y-28336807D01*
X145967581Y-28340000D01*
X132032419Y-28340000D01*
X132000000Y-28336807D01*
X131967581Y-28340000D01*
X131870617Y-28349550D01*
X131746207Y-28387290D01*
X131631550Y-28448575D01*
X131531052Y-28531052D01*
X131448575Y-28631550D01*
X131387290Y-28746207D01*
X131349550Y-28870617D01*
X131336807Y-29000000D01*
X124159044Y-29000000D01*
X124159568Y-10000000D01*
X131336807Y-10000000D01*
X131340001Y-10032429D01*
X131340000Y-23967581D01*
X131336807Y-24000000D01*
X131349550Y-24129383D01*
X131387290Y-24253793D01*
X131448575Y-24368450D01*
X131531052Y-24468948D01*
X131631550Y-24551425D01*
X131746207Y-24612710D01*
X131870617Y-24650450D01*
X132000000Y-24663193D01*
X132032419Y-24660000D01*
X145967581Y-24660000D01*
X146000000Y-24663193D01*
X146032419Y-24660000D01*
X146129383Y-24650450D01*
X146253793Y-24612710D01*
X146368450Y-24551425D01*
X146468948Y-24468948D01*
X146551425Y-24368450D01*
X146612710Y-24253793D01*
X146650450Y-24129383D01*
X146663193Y-24000000D01*
X146660000Y-23967581D01*
X146660000Y-10032419D01*
X146663193Y-10000000D01*
X146650450Y-9870617D01*
X146612710Y-9746207D01*
X146551425Y-9631550D01*
X146468948Y-9531052D01*
X146368450Y-9448575D01*
X146253793Y-9387290D01*
X146129383Y-9349550D01*
X146032419Y-9340000D01*
X146000000Y-9336807D01*
X145967581Y-9340000D01*
X132032419Y-9340000D01*
X132000000Y-9336807D01*
X131967581Y-9340000D01*
X131870617Y-9349550D01*
X131746207Y-9387290D01*
X131631550Y-9448575D01*
X131531052Y-9531052D01*
X131448575Y-9631550D01*
X131387290Y-9746207D01*
X131349550Y-9870617D01*
X131336807Y-10000000D01*
X124159568Y-10000000D01*
X124159954Y3996161D01*
X124201342Y3934219D01*
X124434219Y3701342D01*
X124708053Y3518372D01*
X125012322Y3392340D01*
X125335331Y3328090D01*
X125664669Y3328090D01*
X125987678Y3392340D01*
X126291947Y3518372D01*
X126565781Y3701342D01*
X126798658Y3934219D01*
X126981628Y4208053D01*
X127107660Y4512322D01*
X127171910Y4835331D01*
X127171910Y5164669D01*
X127107660Y5487678D01*
X126981628Y5791947D01*
X126798658Y6065781D01*
X126565781Y6298658D01*
X126291947Y6481628D01*
X125987678Y6607660D01*
X125664669Y6671910D01*
X125335331Y6671910D01*
X125012322Y6607660D01*
X124708053Y6481628D01*
X124434219Y6298658D01*
X124201342Y6065781D01*
X124181789Y6036517D01*
X124241647Y7147213D01*
X124473554Y8630715D01*
X124570329Y9000000D01*
X131336807Y9000000D01*
X131340001Y8967571D01*
X131340000Y-4967581D01*
X131336807Y-5000000D01*
X131349550Y-5129383D01*
X131387290Y-5253793D01*
X131448575Y-5368450D01*
X131531052Y-5468948D01*
X131631550Y-5551425D01*
X131746207Y-5612710D01*
X131870617Y-5650450D01*
X132000000Y-5663193D01*
X132032419Y-5660000D01*
X145967581Y-5660000D01*
X146000000Y-5663193D01*
X146032419Y-5660000D01*
X146129383Y-5650450D01*
X146253793Y-5612710D01*
X146368450Y-5551425D01*
X146468948Y-5468948D01*
X146551425Y-5368450D01*
X146612710Y-5253793D01*
X146650450Y-5129383D01*
X146663193Y-5000000D01*
X146660000Y-4967581D01*
X146660000Y8967581D01*
X146663193Y9000000D01*
X146650450Y9129383D01*
X146612710Y9253793D01*
X146551425Y9368450D01*
X146468948Y9468948D01*
X146368450Y9551425D01*
X146253793Y9612710D01*
X146129383Y9650450D01*
X146032419Y9660000D01*
X146000000Y9663193D01*
X145967581Y9660000D01*
X132032419Y9660000D01*
X132000000Y9663193D01*
X131967581Y9660000D01*
X131870617Y9650450D01*
X131746207Y9612710D01*
X131631550Y9551425D01*
X131531052Y9468948D01*
X131448575Y9368450D01*
X131387290Y9253793D01*
X131349550Y9129383D01*
X131336807Y9000000D01*
X124570329Y9000000D01*
X124854193Y10083191D01*
X125379666Y11489769D01*
X126044591Y12836038D01*
X126842161Y14108220D01*
X127764205Y15293286D01*
X128801292Y16379111D01*
X129942796Y17354571D01*
X131177033Y18209681D01*
X132491371Y18935690D01*
X133872352Y19525160D01*
X135305830Y19972056D01*
X136777122Y20271799D01*
X138271181Y20421327D01*
X139772696Y20419104D01*
G37*
X139772696Y20419104D02*
X141266308Y20265153D01*
X142736707Y19961055D01*
X144168856Y19509917D01*
X145548078Y18916363D01*
X146860267Y18186463D01*
X148091965Y17327705D01*
X149230577Y16348868D01*
X150264447Y15259974D01*
X151182982Y14072179D01*
X151976780Y12797642D01*
X152637715Y11449412D01*
X153159019Y10041289D01*
X153535357Y8587684D01*
X153762945Y7103024D01*
X153818892Y6035499D01*
X153798658Y6065781D01*
X153565781Y6298658D01*
X153291947Y6481628D01*
X152987678Y6607660D01*
X152664669Y6671910D01*
X152335331Y6671910D01*
X152012322Y6607660D01*
X151708053Y6481628D01*
X151434219Y6298658D01*
X151201342Y6065781D01*
X151018372Y5791947D01*
X150892340Y5487678D01*
X150828090Y5164669D01*
X150828090Y4835331D01*
X150892340Y4512322D01*
X151018372Y4208053D01*
X151201342Y3934219D01*
X151434219Y3701342D01*
X151708053Y3518372D01*
X152012322Y3392340D01*
X152335331Y3328090D01*
X152664669Y3328090D01*
X152987678Y3392340D01*
X153291947Y3518372D01*
X153565781Y3701342D01*
X153798658Y3934219D01*
X153840001Y3996093D01*
X153839995Y-37146085D01*
X153798658Y-37084219D01*
X153565781Y-36851342D01*
X153291947Y-36668372D01*
X152987678Y-36542340D01*
X152664669Y-36478090D01*
X152335331Y-36478090D01*
X152012322Y-36542340D01*
X151708053Y-36668372D01*
X151434219Y-36851342D01*
X151201342Y-37084219D01*
X151018372Y-37358053D01*
X150892340Y-37662322D01*
X150828090Y-37985331D01*
X150828090Y-38314669D01*
X150892340Y-38637678D01*
X151018372Y-38941947D01*
X151201342Y-39215781D01*
X151434219Y-39448658D01*
X151708053Y-39631628D01*
X152012322Y-39757660D01*
X152335331Y-39821910D01*
X152664669Y-39821910D01*
X152987678Y-39757660D01*
X153291947Y-39631628D01*
X153565781Y-39448658D01*
X153798658Y-39215781D01*
X153839995Y-39153916D01*
X153839989Y-80246076D01*
X153798658Y-80184219D01*
X153565781Y-79951342D01*
X153291947Y-79768372D01*
X152987678Y-79642340D01*
X152664669Y-79578090D01*
X152335331Y-79578090D01*
X152012322Y-79642340D01*
X151708053Y-79768372D01*
X151434219Y-79951342D01*
X151201342Y-80184219D01*
X151018372Y-80458053D01*
X150892340Y-80762322D01*
X150828090Y-81085331D01*
X150828090Y-81414669D01*
X150892340Y-81737678D01*
X151018372Y-82041947D01*
X151201342Y-82315781D01*
X151434219Y-82548658D01*
X151708053Y-82731628D01*
X152012322Y-82857660D01*
X152335331Y-82921910D01*
X152664669Y-82921910D01*
X152987678Y-82857660D01*
X153291947Y-82731628D01*
X153565781Y-82548658D01*
X153798658Y-82315781D01*
X153839989Y-82253925D01*
X153839989Y-82993861D01*
X153849539Y-83090825D01*
X153887279Y-83215235D01*
X153948564Y-83329892D01*
X154031041Y-83430390D01*
X154131539Y-83512867D01*
X154246196Y-83574152D01*
X154370606Y-83611892D01*
X154499989Y-83624635D01*
X154526257Y-83622048D01*
X156091350Y-83651254D01*
X157653284Y-83831123D01*
X159190798Y-84159869D01*
X160689701Y-84634460D01*
X162136236Y-85250537D01*
X163517054Y-86002417D01*
X164819448Y-86883180D01*
X166031441Y-87884728D01*
X167141847Y-88997815D01*
X168140463Y-90212213D01*
X169018081Y-91516728D01*
X169766632Y-92899358D01*
X170379215Y-94347366D01*
X170850194Y-95847425D01*
X171175228Y-97385711D01*
X171351329Y-98948076D01*
X171376874Y-100520123D01*
X171251625Y-102087396D01*
X170976742Y-103635417D01*
X170554745Y-105149993D01*
X169989530Y-106617138D01*
X169286300Y-108023352D01*
X168451520Y-109355700D01*
X167492889Y-110601897D01*
X167062413Y-111062412D01*
X167071910Y-111014669D01*
X167071910Y-110685331D01*
X167007660Y-110362322D01*
X166881628Y-110058053D01*
X166698658Y-109784219D01*
X166465781Y-109551342D01*
X166191947Y-109368372D01*
X165887678Y-109242340D01*
X165564669Y-109178090D01*
X165235331Y-109178090D01*
X164912322Y-109242340D01*
X164608053Y-109368372D01*
X164334219Y-109551342D01*
X164101342Y-109784219D01*
X163918372Y-110058053D01*
X163792340Y-110362322D01*
X163728090Y-110685331D01*
X163728090Y-111014669D01*
X163792340Y-111337678D01*
X163918372Y-111641947D01*
X164101342Y-111915781D01*
X164334219Y-112148658D01*
X164608053Y-112331628D01*
X164912322Y-112457660D01*
X165235331Y-112521910D01*
X165545162Y-112521910D01*
X165240421Y-112790868D01*
X163967325Y-113713482D01*
X162611665Y-114509827D01*
X161185918Y-115172572D01*
X159703205Y-115695617D01*
X158177207Y-116074137D01*
X156621935Y-116304657D01*
X155051736Y-116385049D01*
X153481061Y-116314574D01*
X151924369Y-116093881D01*
X150395996Y-115725002D01*
X148910018Y-115211332D01*
X147480123Y-114557609D01*
X146119459Y-113769840D01*
X144834117Y-112850676D01*
X144270130Y-112382491D01*
X144268948Y-112381051D01*
X144168450Y-112298574D01*
X144053793Y-112237289D01*
X143929383Y-112199549D01*
X143832419Y-112189999D01*
X140003909Y-112190000D01*
X140065781Y-112148658D01*
X140298658Y-111915781D01*
X140481628Y-111641947D01*
X140607660Y-111337678D01*
X140671910Y-111014669D01*
X140671910Y-110685331D01*
X140607660Y-110362322D01*
X140481628Y-110058053D01*
X140298658Y-109784219D01*
X140065781Y-109551342D01*
X139791947Y-109368372D01*
X139487678Y-109242340D01*
X139164669Y-109178090D01*
X138835331Y-109178090D01*
X138512322Y-109242340D01*
X138208053Y-109368372D01*
X137934219Y-109551342D01*
X137701342Y-109784219D01*
X137518372Y-110058053D01*
X137392340Y-110362322D01*
X137328090Y-110685331D01*
X137328090Y-111014669D01*
X137392340Y-111337678D01*
X137518372Y-111641947D01*
X137701342Y-111915781D01*
X137934219Y-112148658D01*
X137996092Y-112190000D01*
X134067581Y-112190001D01*
X133970617Y-112199551D01*
X133846207Y-112237291D01*
X133731550Y-112298576D01*
X133687163Y-112335004D01*
X132435254Y-113315599D01*
X131115577Y-114158623D01*
X129721171Y-114871283D01*
X128264875Y-115447016D01*
X126760112Y-115880515D01*
X125220719Y-116167795D01*
X123660872Y-116306209D01*
X122094957Y-116294480D01*
X120537373Y-116132720D01*
X119002445Y-115822413D01*
X117504351Y-115366426D01*
X116056838Y-114768943D01*
X114673265Y-114035479D01*
X113366354Y-113172778D01*
X112560563Y-112521910D01*
X112764669Y-112521910D01*
X113087678Y-112457660D01*
X113391947Y-112331628D01*
X113665781Y-112148658D01*
X113898658Y-111915781D01*
X114081628Y-111641947D01*
X114207660Y-111337678D01*
X114271910Y-111014669D01*
X114271910Y-110685331D01*
X114207660Y-110362322D01*
X114081628Y-110058053D01*
X113898658Y-109784219D01*
X113665781Y-109551342D01*
X113391947Y-109368372D01*
X113087678Y-109242340D01*
X112764669Y-109178090D01*
X112435331Y-109178090D01*
X112112322Y-109242340D01*
X111808053Y-109368372D01*
X111534219Y-109551342D01*
X111301342Y-109784219D01*
X111118372Y-110058053D01*
X110992340Y-110362322D01*
X110928090Y-110685331D01*
X110928090Y-110971582D01*
X110021805Y-109894224D01*
X109133233Y-108604764D01*
X108372343Y-107236078D01*
X107746134Y-105800756D01*
X107260382Y-104312032D01*
X106919555Y-102783611D01*
X106726789Y-101229560D01*
X106683860Y-99664179D01*
X106686578Y-99624594D01*
X119188442Y-99624594D01*
X119188442Y-100375406D01*
X119334919Y-101111790D01*
X119622242Y-101805450D01*
X120039370Y-102429726D01*
X120570274Y-102960630D01*
X121194550Y-103377758D01*
X121888210Y-103665081D01*
X122624594Y-103811558D01*
X123375406Y-103811558D01*
X124111790Y-103665081D01*
X124805450Y-103377758D01*
X125429726Y-102960630D01*
X125960630Y-102429726D01*
X126377758Y-101805450D01*
X126665081Y-101111790D01*
X126811558Y-100375406D01*
X126811558Y-99624594D01*
X151188442Y-99624594D01*
X151188442Y-100375406D01*
X151334919Y-101111790D01*
X151622242Y-101805450D01*
X152039370Y-102429726D01*
X152570274Y-102960630D01*
X153194550Y-103377758D01*
X153888210Y-103665081D01*
X154624594Y-103811558D01*
X155375406Y-103811558D01*
X156111790Y-103665081D01*
X156805450Y-103377758D01*
X157429726Y-102960630D01*
X157960630Y-102429726D01*
X158377758Y-101805450D01*
X158665081Y-101111790D01*
X158811558Y-100375406D01*
X158811558Y-99624594D01*
X158665081Y-98888210D01*
X158377758Y-98194550D01*
X157960630Y-97570274D01*
X157429726Y-97039370D01*
X156805450Y-96622242D01*
X156111790Y-96334919D01*
X155375406Y-96188442D01*
X154624594Y-96188442D01*
X153888210Y-96334919D01*
X153194550Y-96622242D01*
X152570274Y-97039370D01*
X152039370Y-97570274D01*
X151622242Y-98194550D01*
X151334919Y-98888210D01*
X151188442Y-99624594D01*
X126811558Y-99624594D01*
X126665081Y-98888210D01*
X126377758Y-98194550D01*
X125960630Y-97570274D01*
X125429726Y-97039370D01*
X124805450Y-96622242D01*
X124111790Y-96334919D01*
X123375406Y-96188442D01*
X122624594Y-96188442D01*
X121888210Y-96334919D01*
X121194550Y-96622242D01*
X120570274Y-97039370D01*
X120039370Y-97570274D01*
X119622242Y-98194550D01*
X119334919Y-98888210D01*
X119188442Y-99624594D01*
X106686578Y-99624594D01*
X106791164Y-98101890D01*
X107047713Y-96557078D01*
X107451144Y-95043969D01*
X107997737Y-93576504D01*
X108682469Y-92168174D01*
X109499039Y-90831946D01*
X110439914Y-89580141D01*
X111496429Y-88424291D01*
X112658870Y-87375015D01*
X113916543Y-86441976D01*
X115257834Y-85633787D01*
X116670420Y-84957872D01*
X118141277Y-84420462D01*
X119656889Y-84026497D01*
X121203262Y-83779614D01*
X122774843Y-83681540D01*
X123462667Y-83686692D01*
X123497538Y-83690127D01*
X123626921Y-83677388D01*
X123751332Y-83639651D01*
X123865990Y-83578370D01*
X123966491Y-83495895D01*
X124048970Y-83395400D01*
X124110259Y-83280744D01*
X124148002Y-83156335D01*
X124157555Y-83059372D01*
X124157581Y-82100289D01*
X124201342Y-82165781D01*
X124434219Y-82398658D01*
X124708053Y-82581628D01*
X125012322Y-82707660D01*
X125335331Y-82771910D01*
X125664669Y-82771910D01*
X125987678Y-82707660D01*
X126291947Y-82581628D01*
X126565781Y-82398658D01*
X126798658Y-82165781D01*
X126981628Y-81891947D01*
X127107660Y-81587678D01*
X127171910Y-81264669D01*
X127171910Y-80935331D01*
X127107660Y-80612322D01*
X126981628Y-80308053D01*
X126798658Y-80034219D01*
X126565781Y-79801342D01*
X126291947Y-79618372D01*
X125987678Y-79492340D01*
X125664669Y-79428090D01*
X125335331Y-79428090D01*
X125012322Y-79492340D01*
X124708053Y-79618372D01*
X124434219Y-79801342D01*
X124201342Y-80034219D01*
X124157637Y-80099629D01*
X124157997Y-67000000D01*
X131336807Y-67000000D01*
X131340001Y-67032429D01*
X131340000Y-80967581D01*
X131336807Y-81000000D01*
X131349550Y-81129383D01*
X131387290Y-81253793D01*
X131448575Y-81368450D01*
X131531052Y-81468948D01*
X131631550Y-81551425D01*
X131746207Y-81612710D01*
X131870617Y-81650450D01*
X132000000Y-81663193D01*
X132032419Y-81660000D01*
X145967581Y-81660000D01*
X146000000Y-81663193D01*
X146032419Y-81660000D01*
X146129383Y-81650450D01*
X146253793Y-81612710D01*
X146368450Y-81551425D01*
X146468948Y-81468948D01*
X146551425Y-81368450D01*
X146612710Y-81253793D01*
X146650450Y-81129383D01*
X146663193Y-81000000D01*
X146660000Y-80967581D01*
X146660000Y-67032419D01*
X146663193Y-67000000D01*
X146650450Y-66870617D01*
X146612710Y-66746207D01*
X146551425Y-66631550D01*
X146468948Y-66531052D01*
X146368450Y-66448575D01*
X146253793Y-66387290D01*
X146129383Y-66349550D01*
X146032419Y-66340000D01*
X146000000Y-66336807D01*
X145967581Y-66340000D01*
X132032419Y-66340000D01*
X132000000Y-66336807D01*
X131967581Y-66340000D01*
X131870617Y-66349550D01*
X131746207Y-66387290D01*
X131631550Y-66448575D01*
X131531052Y-66531052D01*
X131448575Y-66631550D01*
X131387290Y-66746207D01*
X131349550Y-66870617D01*
X131336807Y-67000000D01*
X124157997Y-67000000D01*
X124158520Y-48000000D01*
X131336807Y-48000000D01*
X131340001Y-48032429D01*
X131340000Y-61967581D01*
X131336807Y-62000000D01*
X131349550Y-62129383D01*
X131387290Y-62253793D01*
X131448575Y-62368450D01*
X131531052Y-62468948D01*
X131631550Y-62551425D01*
X131746207Y-62612710D01*
X131870617Y-62650450D01*
X132000000Y-62663193D01*
X132032419Y-62660000D01*
X145967581Y-62660000D01*
X146000000Y-62663193D01*
X146032419Y-62660000D01*
X146129383Y-62650450D01*
X146253793Y-62612710D01*
X146368450Y-62551425D01*
X146468948Y-62468948D01*
X146551425Y-62368450D01*
X146612710Y-62253793D01*
X146650450Y-62129383D01*
X146663193Y-62000000D01*
X146660000Y-61967581D01*
X146660000Y-48032419D01*
X146663193Y-48000000D01*
X146650450Y-47870617D01*
X146612710Y-47746207D01*
X146551425Y-47631550D01*
X146468948Y-47531052D01*
X146368450Y-47448575D01*
X146253793Y-47387290D01*
X146129383Y-47349550D01*
X146032419Y-47340000D01*
X146000000Y-47336807D01*
X145967581Y-47340000D01*
X132032419Y-47340000D01*
X132000000Y-47336807D01*
X131967581Y-47340000D01*
X131870617Y-47349550D01*
X131746207Y-47387290D01*
X131631550Y-47448575D01*
X131531052Y-47531052D01*
X131448575Y-47631550D01*
X131387290Y-47746207D01*
X131349550Y-47870617D01*
X131336807Y-48000000D01*
X124158520Y-48000000D01*
X124158769Y-39002066D01*
X124201342Y-39065781D01*
X124434219Y-39298658D01*
X124708053Y-39481628D01*
X125012322Y-39607660D01*
X125335331Y-39671910D01*
X125664669Y-39671910D01*
X125987678Y-39607660D01*
X126291947Y-39481628D01*
X126565781Y-39298658D01*
X126798658Y-39065781D01*
X126981628Y-38791947D01*
X127107660Y-38487678D01*
X127171910Y-38164669D01*
X127171910Y-37835331D01*
X127107660Y-37512322D01*
X126981628Y-37208053D01*
X126798658Y-36934219D01*
X126565781Y-36701342D01*
X126291947Y-36518372D01*
X125987678Y-36392340D01*
X125664669Y-36328090D01*
X125335331Y-36328090D01*
X125012322Y-36392340D01*
X124708053Y-36518372D01*
X124434219Y-36701342D01*
X124201342Y-36934219D01*
X124158824Y-36997852D01*
X124159044Y-29000000D01*
X131336807Y-29000000D01*
X131340001Y-29032429D01*
X131340000Y-42967581D01*
X131336807Y-43000000D01*
X131349550Y-43129383D01*
X131387290Y-43253793D01*
X131448575Y-43368450D01*
X131531052Y-43468948D01*
X131631550Y-43551425D01*
X131746207Y-43612710D01*
X131870617Y-43650450D01*
X132000000Y-43663193D01*
X132032419Y-43660000D01*
X145967581Y-43660000D01*
X146000000Y-43663193D01*
X146032419Y-43660000D01*
X146129383Y-43650450D01*
X146253793Y-43612710D01*
X146368450Y-43551425D01*
X146468948Y-43468948D01*
X146551425Y-43368450D01*
X146612710Y-43253793D01*
X146650450Y-43129383D01*
X146663193Y-43000000D01*
X146660000Y-42967581D01*
X146660000Y-29032419D01*
X146663193Y-29000000D01*
X146650450Y-28870617D01*
X146612710Y-28746207D01*
X146551425Y-28631550D01*
X146468948Y-28531052D01*
X146368450Y-28448575D01*
X146253793Y-28387290D01*
X146129383Y-28349550D01*
X146032419Y-28340000D01*
X146000000Y-28336807D01*
X145967581Y-28340000D01*
X132032419Y-28340000D01*
X132000000Y-28336807D01*
X131967581Y-28340000D01*
X131870617Y-28349550D01*
X131746207Y-28387290D01*
X131631550Y-28448575D01*
X131531052Y-28531052D01*
X131448575Y-28631550D01*
X131387290Y-28746207D01*
X131349550Y-28870617D01*
X131336807Y-29000000D01*
X124159044Y-29000000D01*
X124159568Y-10000000D01*
X131336807Y-10000000D01*
X131340001Y-10032429D01*
X131340000Y-23967581D01*
X131336807Y-24000000D01*
X131349550Y-24129383D01*
X131387290Y-24253793D01*
X131448575Y-24368450D01*
X131531052Y-24468948D01*
X131631550Y-24551425D01*
X131746207Y-24612710D01*
X131870617Y-24650450D01*
X132000000Y-24663193D01*
X132032419Y-24660000D01*
X145967581Y-24660000D01*
X146000000Y-24663193D01*
X146032419Y-24660000D01*
X146129383Y-24650450D01*
X146253793Y-24612710D01*
X146368450Y-24551425D01*
X146468948Y-24468948D01*
X146551425Y-24368450D01*
X146612710Y-24253793D01*
X146650450Y-24129383D01*
X146663193Y-24000000D01*
X146660000Y-23967581D01*
X146660000Y-10032419D01*
X146663193Y-10000000D01*
X146650450Y-9870617D01*
X146612710Y-9746207D01*
X146551425Y-9631550D01*
X146468948Y-9531052D01*
X146368450Y-9448575D01*
X146253793Y-9387290D01*
X146129383Y-9349550D01*
X146032419Y-9340000D01*
X146000000Y-9336807D01*
X145967581Y-9340000D01*
X132032419Y-9340000D01*
X132000000Y-9336807D01*
X131967581Y-9340000D01*
X131870617Y-9349550D01*
X131746207Y-9387290D01*
X131631550Y-9448575D01*
X131531052Y-9531052D01*
X131448575Y-9631550D01*
X131387290Y-9746207D01*
X131349550Y-9870617D01*
X131336807Y-10000000D01*
X124159568Y-10000000D01*
X124159954Y3996161D01*
X124201342Y3934219D01*
X124434219Y3701342D01*
X124708053Y3518372D01*
X125012322Y3392340D01*
X125335331Y3328090D01*
X125664669Y3328090D01*
X125987678Y3392340D01*
X126291947Y3518372D01*
X126565781Y3701342D01*
X126798658Y3934219D01*
X126981628Y4208053D01*
X127107660Y4512322D01*
X127171910Y4835331D01*
X127171910Y5164669D01*
X127107660Y5487678D01*
X126981628Y5791947D01*
X126798658Y6065781D01*
X126565781Y6298658D01*
X126291947Y6481628D01*
X125987678Y6607660D01*
X125664669Y6671910D01*
X125335331Y6671910D01*
X125012322Y6607660D01*
X124708053Y6481628D01*
X124434219Y6298658D01*
X124201342Y6065781D01*
X124181789Y6036517D01*
X124241647Y7147213D01*
X124473554Y8630715D01*
X124570329Y9000000D01*
X131336807Y9000000D01*
X131340001Y8967571D01*
X131340000Y-4967581D01*
X131336807Y-5000000D01*
X131349550Y-5129383D01*
X131387290Y-5253793D01*
X131448575Y-5368450D01*
X131531052Y-5468948D01*
X131631550Y-5551425D01*
X131746207Y-5612710D01*
X131870617Y-5650450D01*
X132000000Y-5663193D01*
X132032419Y-5660000D01*
X145967581Y-5660000D01*
X146000000Y-5663193D01*
X146032419Y-5660000D01*
X146129383Y-5650450D01*
X146253793Y-5612710D01*
X146368450Y-5551425D01*
X146468948Y-5468948D01*
X146551425Y-5368450D01*
X146612710Y-5253793D01*
X146650450Y-5129383D01*
X146663193Y-5000000D01*
X146660000Y-4967581D01*
X146660000Y8967581D01*
X146663193Y9000000D01*
X146650450Y9129383D01*
X146612710Y9253793D01*
X146551425Y9368450D01*
X146468948Y9468948D01*
X146368450Y9551425D01*
X146253793Y9612710D01*
X146129383Y9650450D01*
X146032419Y9660000D01*
X146000000Y9663193D01*
X145967581Y9660000D01*
X132032419Y9660000D01*
X132000000Y9663193D01*
X131967581Y9660000D01*
X131870617Y9650450D01*
X131746207Y9612710D01*
X131631550Y9551425D01*
X131531052Y9468948D01*
X131448575Y9368450D01*
X131387290Y9253793D01*
X131349550Y9129383D01*
X131336807Y9000000D01*
X124570329Y9000000D01*
X124854193Y10083191D01*
X125379666Y11489769D01*
X126044591Y12836038D01*
X126842161Y14108220D01*
X127764205Y15293286D01*
X128801292Y16379111D01*
X129942796Y17354571D01*
X131177033Y18209681D01*
X132491371Y18935690D01*
X133872352Y19525160D01*
X135305830Y19972056D01*
X136777122Y20271799D01*
X138271181Y20421327D01*
X139772696Y20419104D01*
M02*
