G04 #@! TF.GenerationSoftware,KiCad,Pcbnew,(5.1.5)-3*
G04 #@! TF.CreationDate,2021-06-22T16:47:51-05:00*
G04 #@! TF.ProjectId,BigSwitch,42696753-7769-4746-9368-2e6b69636164,rev?*
G04 #@! TF.SameCoordinates,Original*
G04 #@! TF.FileFunction,Copper,L1,Top*
G04 #@! TF.FilePolarity,Positive*
%FSLAX46Y46*%
G04 Gerber Fmt 4.6, Leading zero omitted, Abs format (unit mm)*
G04 Created by KiCad (PCBNEW (5.1.5)-3) date 2021-06-22 16:47:51*
%MOMM*%
%LPD*%
G04 APERTURE LIST*
%ADD10C,1.600000*%
%ADD11R,1.600000X1.600000*%
%ADD12R,2.550000X2.500000*%
%ADD13C,0.250000*%
%ADD14C,0.254000*%
G04 APERTURE END LIST*
D10*
X202438000Y-93472000D03*
X225298000Y-93472000D03*
X225298000Y-108712000D03*
X222758000Y-108712000D03*
X220218000Y-108712000D03*
X217678000Y-108712000D03*
X215138000Y-108712000D03*
X212598000Y-108712000D03*
X210058000Y-108712000D03*
X207518000Y-108712000D03*
X204978000Y-108712000D03*
X202438000Y-108712000D03*
X199898000Y-108712000D03*
D11*
X197358000Y-108712000D03*
D12*
X214757000Y-113411000D03*
X227684000Y-115951000D03*
X195634000Y-113411000D03*
X208561000Y-115951000D03*
X214757000Y-94421001D03*
X227684000Y-96961001D03*
X195634000Y-94421001D03*
X208561000Y-96961001D03*
D13*
X194109000Y-111911000D02*
X195609000Y-113411000D01*
X194109000Y-97446001D02*
X194109000Y-111911000D01*
X195634000Y-95921001D02*
X194109000Y-97446001D01*
X195634000Y-94421001D02*
X195634000Y-95921001D01*
X214757000Y-114911000D02*
X212090000Y-117578000D01*
X214757000Y-113411000D02*
X214757000Y-114911000D01*
X212090000Y-117578000D02*
X211733000Y-117578000D01*
X195609000Y-113411000D02*
X195634000Y-113411000D01*
X214757000Y-113411000D02*
X214757000Y-111911000D01*
X214757000Y-109093000D02*
X215138000Y-108712000D01*
X214757000Y-113411000D02*
X214757000Y-109093000D01*
X217297000Y-98298000D02*
X214757000Y-95758000D01*
X217297000Y-100711000D02*
X217297000Y-98298000D01*
X218803001Y-102217001D02*
X217297000Y-100711000D01*
X218803001Y-109252001D02*
X218803001Y-102217001D01*
X215937999Y-109511999D02*
X215937999Y-110019999D01*
X214757000Y-95758000D02*
X214757000Y-94597001D01*
X215937999Y-110019999D02*
X216154000Y-110236000D01*
X216154000Y-110236000D02*
X217819002Y-110236000D01*
X215138000Y-108712000D02*
X215937999Y-109511999D01*
X217819002Y-110236000D02*
X218803001Y-109252001D01*
X195634000Y-114911000D02*
X198374000Y-117651000D01*
X195634000Y-113411000D02*
X195634000Y-114911000D01*
X200362927Y-120809901D02*
X208120099Y-120809901D01*
X198374000Y-117651000D02*
X198374000Y-118820974D01*
X198374000Y-118820974D02*
X200362927Y-120809901D01*
X211352000Y-117578000D02*
X212090000Y-117578000D01*
X208120099Y-120809901D02*
X211352000Y-117578000D01*
X225298000Y-113590000D02*
X225298000Y-108712000D01*
X227684000Y-115951000D02*
X227659000Y-115951000D01*
X227659000Y-115951000D02*
X225298000Y-113590000D01*
X213616629Y-103516630D02*
X216038630Y-103516630D01*
X216038630Y-103516630D02*
X217678000Y-105156000D01*
X208561000Y-96961001D02*
X208561000Y-98461001D01*
X217678000Y-105156000D02*
X217678000Y-108712000D01*
X208561000Y-98461001D02*
X213616629Y-103516630D01*
X221488000Y-103886000D02*
X220218000Y-105156000D01*
X220218000Y-105156000D02*
X220218000Y-108712000D01*
X223647000Y-103886000D02*
X221488000Y-103886000D01*
X227684000Y-96961001D02*
X227684000Y-99849000D01*
X227684000Y-99849000D02*
X223647000Y-103886000D01*
X208561000Y-111860000D02*
X208561000Y-115951000D01*
X209550000Y-110871000D02*
X208561000Y-111860000D01*
X211570370Y-110871000D02*
X209550000Y-110871000D01*
X212598000Y-109843370D02*
X211570370Y-110871000D01*
X212598000Y-108712000D02*
X212598000Y-109843370D01*
D14*
G36*
X228550000Y-95072929D02*
G01*
X226409000Y-95072929D01*
X226284518Y-95085189D01*
X226164820Y-95121499D01*
X226054506Y-95180464D01*
X225957815Y-95259816D01*
X225878463Y-95356507D01*
X225859440Y-95392095D01*
X225769983Y-95302638D01*
X225420302Y-95068989D01*
X225031756Y-94908048D01*
X224619279Y-94826001D01*
X224198721Y-94826001D01*
X223786244Y-94908048D01*
X223397698Y-95068989D01*
X223048017Y-95302638D01*
X222750637Y-95600018D01*
X222516988Y-95949699D01*
X222356047Y-96338245D01*
X222274000Y-96750722D01*
X222274000Y-97171280D01*
X222345237Y-97529412D01*
X222274826Y-97459001D01*
X221844251Y-97171300D01*
X221365822Y-96973128D01*
X220857924Y-96872101D01*
X220340076Y-96872101D01*
X219832178Y-96973128D01*
X219353749Y-97171300D01*
X218923174Y-97459001D01*
X218557000Y-97825175D01*
X218269299Y-98255750D01*
X218071127Y-98734179D01*
X218057000Y-98805200D01*
X218057000Y-98335322D01*
X218060676Y-98297999D01*
X218057000Y-98260676D01*
X218057000Y-98260667D01*
X218046003Y-98149014D01*
X218002546Y-98005753D01*
X217931974Y-97873724D01*
X217892131Y-97825175D01*
X217860799Y-97786996D01*
X217860795Y-97786992D01*
X217837001Y-97757999D01*
X217808008Y-97734205D01*
X216314058Y-96240256D01*
X216386494Y-96201538D01*
X216483185Y-96122186D01*
X216562537Y-96025495D01*
X216590965Y-95972312D01*
X216698017Y-96079364D01*
X217047698Y-96313013D01*
X217436244Y-96473954D01*
X217848721Y-96556001D01*
X218269279Y-96556001D01*
X218681756Y-96473954D01*
X219070302Y-96313013D01*
X219419983Y-96079364D01*
X219717363Y-95781984D01*
X219951012Y-95432303D01*
X220111953Y-95043757D01*
X220194000Y-94631280D01*
X220194000Y-94210722D01*
X220111953Y-93798245D01*
X219951012Y-93409699D01*
X219898204Y-93330665D01*
X223863000Y-93330665D01*
X223863000Y-93613335D01*
X223918147Y-93890574D01*
X224026320Y-94151727D01*
X224183363Y-94386759D01*
X224383241Y-94586637D01*
X224618273Y-94743680D01*
X224879426Y-94851853D01*
X225156665Y-94907000D01*
X225439335Y-94907000D01*
X225716574Y-94851853D01*
X225977727Y-94743680D01*
X226212759Y-94586637D01*
X226412637Y-94386759D01*
X226569680Y-94151727D01*
X226677853Y-93890574D01*
X226733000Y-93613335D01*
X226733000Y-93330665D01*
X226677853Y-93053426D01*
X226569680Y-92792273D01*
X226412637Y-92557241D01*
X226212759Y-92357363D01*
X225977727Y-92200320D01*
X225716574Y-92092147D01*
X225439335Y-92037000D01*
X225156665Y-92037000D01*
X224879426Y-92092147D01*
X224618273Y-92200320D01*
X224383241Y-92357363D01*
X224183363Y-92557241D01*
X224026320Y-92792273D01*
X223918147Y-93053426D01*
X223863000Y-93330665D01*
X219898204Y-93330665D01*
X219717363Y-93060018D01*
X219419983Y-92762638D01*
X219070302Y-92528989D01*
X218681756Y-92368048D01*
X218269279Y-92286001D01*
X217848721Y-92286001D01*
X217436244Y-92368048D01*
X217047698Y-92528989D01*
X216698017Y-92762638D01*
X216590965Y-92869690D01*
X216562537Y-92816507D01*
X216483185Y-92719816D01*
X216386494Y-92640464D01*
X216276180Y-92581499D01*
X216156482Y-92545189D01*
X216032000Y-92532929D01*
X213482000Y-92532929D01*
X213357518Y-92545189D01*
X213237820Y-92581499D01*
X213127506Y-92640464D01*
X213030815Y-92719816D01*
X212951463Y-92816507D01*
X212892498Y-92926821D01*
X212856188Y-93046519D01*
X212843928Y-93171001D01*
X212843928Y-95671001D01*
X212856188Y-95795483D01*
X212892498Y-95915181D01*
X212951463Y-96025495D01*
X213030815Y-96122186D01*
X213127506Y-96201538D01*
X213237820Y-96260503D01*
X213357518Y-96296813D01*
X213482000Y-96309073D01*
X214230490Y-96309073D01*
X214246003Y-96321804D01*
X215982969Y-98058772D01*
X215959451Y-98049030D01*
X215667722Y-97991001D01*
X215370278Y-97991001D01*
X215078549Y-98049030D01*
X214803747Y-98162857D01*
X214556431Y-98328108D01*
X214346107Y-98538432D01*
X214180856Y-98785748D01*
X214067029Y-99060550D01*
X214009000Y-99352279D01*
X214009000Y-99649723D01*
X214067029Y-99941452D01*
X214180856Y-100216254D01*
X214346107Y-100463570D01*
X214556431Y-100673894D01*
X214803747Y-100839145D01*
X215078549Y-100952972D01*
X215370278Y-101011001D01*
X215667722Y-101011001D01*
X215959451Y-100952972D01*
X216234253Y-100839145D01*
X216481569Y-100673894D01*
X216537000Y-100618463D01*
X216537000Y-100673677D01*
X216533324Y-100711000D01*
X216537000Y-100748322D01*
X216537000Y-100748332D01*
X216547997Y-100859985D01*
X216576204Y-100952972D01*
X216591454Y-101003246D01*
X216662026Y-101135276D01*
X216701871Y-101183826D01*
X216756999Y-101251001D01*
X216786003Y-101274804D01*
X218043002Y-102531804D01*
X218043002Y-104446200D01*
X216602434Y-103005633D01*
X216578631Y-102976629D01*
X216462906Y-102881656D01*
X216330877Y-102811084D01*
X216187616Y-102767627D01*
X216075963Y-102756630D01*
X216075952Y-102756630D01*
X216038630Y-102752954D01*
X216001308Y-102756630D01*
X213931431Y-102756630D01*
X209999713Y-98824912D01*
X210080180Y-98800503D01*
X210190494Y-98741538D01*
X210287185Y-98662186D01*
X210366537Y-98565495D01*
X210425502Y-98455181D01*
X210461812Y-98335483D01*
X210474072Y-98211001D01*
X210474072Y-95711001D01*
X210461812Y-95586519D01*
X210425502Y-95466821D01*
X210366537Y-95356507D01*
X210287185Y-95259816D01*
X210190494Y-95180464D01*
X210080180Y-95121499D01*
X209960482Y-95085189D01*
X209836000Y-95072929D01*
X207286000Y-95072929D01*
X207161518Y-95085189D01*
X207041820Y-95121499D01*
X206931506Y-95180464D01*
X206834815Y-95259816D01*
X206755463Y-95356507D01*
X206736440Y-95392095D01*
X206646983Y-95302638D01*
X206297302Y-95068989D01*
X205908756Y-94908048D01*
X205496279Y-94826001D01*
X205075721Y-94826001D01*
X204663244Y-94908048D01*
X204274698Y-95068989D01*
X203925017Y-95302638D01*
X203627637Y-95600018D01*
X203393988Y-95949699D01*
X203233047Y-96338245D01*
X203151000Y-96750722D01*
X203151000Y-97171280D01*
X203222237Y-97529412D01*
X203151826Y-97459001D01*
X202721251Y-97171300D01*
X202242822Y-96973128D01*
X201734924Y-96872101D01*
X201217076Y-96872101D01*
X200709178Y-96973128D01*
X200230749Y-97171300D01*
X199800174Y-97459001D01*
X199434000Y-97825175D01*
X199146299Y-98255750D01*
X198948127Y-98734179D01*
X198847100Y-99242077D01*
X198847100Y-99759925D01*
X198948127Y-100267823D01*
X199146299Y-100746252D01*
X199434000Y-101176827D01*
X199800174Y-101543001D01*
X200230749Y-101830702D01*
X200709178Y-102028874D01*
X201217076Y-102129901D01*
X201734924Y-102129901D01*
X202242822Y-102028874D01*
X202721251Y-101830702D01*
X203151826Y-101543001D01*
X203518000Y-101176827D01*
X203805701Y-100746252D01*
X204003873Y-100267823D01*
X204104900Y-99759925D01*
X204104900Y-99242077D01*
X204003873Y-98734179D01*
X203968292Y-98648280D01*
X204274698Y-98853013D01*
X204663244Y-99013954D01*
X205075721Y-99096001D01*
X205096977Y-99096001D01*
X205046000Y-99352279D01*
X205046000Y-99649723D01*
X205104029Y-99941452D01*
X205217856Y-100216254D01*
X205383107Y-100463570D01*
X205593431Y-100673894D01*
X205840747Y-100839145D01*
X206115549Y-100952972D01*
X206407278Y-101011001D01*
X206704722Y-101011001D01*
X206996451Y-100952972D01*
X207271253Y-100839145D01*
X207518569Y-100673894D01*
X207728893Y-100463570D01*
X207894144Y-100216254D01*
X208007971Y-99941452D01*
X208066000Y-99649723D01*
X208066000Y-99352279D01*
X208007971Y-99060550D01*
X207944893Y-98908266D01*
X207965170Y-98932973D01*
X208021000Y-99001002D01*
X208049998Y-99024800D01*
X213052829Y-104027632D01*
X213076628Y-104056631D01*
X213105626Y-104080429D01*
X213192352Y-104151604D01*
X213324382Y-104222176D01*
X213467643Y-104265633D01*
X213579296Y-104276630D01*
X213579305Y-104276630D01*
X213616628Y-104280306D01*
X213653951Y-104276630D01*
X215723829Y-104276630D01*
X216918000Y-105470802D01*
X216918001Y-107493956D01*
X216763241Y-107597363D01*
X216563363Y-107797241D01*
X216408000Y-108029759D01*
X216252637Y-107797241D01*
X216052759Y-107597363D01*
X215817727Y-107440320D01*
X215556574Y-107332147D01*
X215279335Y-107277000D01*
X214996665Y-107277000D01*
X214719426Y-107332147D01*
X214458273Y-107440320D01*
X214223241Y-107597363D01*
X214023363Y-107797241D01*
X213868000Y-108029759D01*
X213712637Y-107797241D01*
X213512759Y-107597363D01*
X213277727Y-107440320D01*
X213016574Y-107332147D01*
X212739335Y-107277000D01*
X212456665Y-107277000D01*
X212179426Y-107332147D01*
X211918273Y-107440320D01*
X211683241Y-107597363D01*
X211483363Y-107797241D01*
X211328000Y-108029759D01*
X211172637Y-107797241D01*
X210972759Y-107597363D01*
X210737727Y-107440320D01*
X210476574Y-107332147D01*
X210199335Y-107277000D01*
X209916665Y-107277000D01*
X209639426Y-107332147D01*
X209378273Y-107440320D01*
X209143241Y-107597363D01*
X208943363Y-107797241D01*
X208788000Y-108029759D01*
X208632637Y-107797241D01*
X208432759Y-107597363D01*
X208197727Y-107440320D01*
X207936574Y-107332147D01*
X207659335Y-107277000D01*
X207376665Y-107277000D01*
X207099426Y-107332147D01*
X206838273Y-107440320D01*
X206603241Y-107597363D01*
X206403363Y-107797241D01*
X206247085Y-108031128D01*
X206214671Y-107970486D01*
X205970702Y-107898903D01*
X205157605Y-108712000D01*
X205970702Y-109525097D01*
X206214671Y-109453514D01*
X206245194Y-109389008D01*
X206246320Y-109391727D01*
X206403363Y-109626759D01*
X206603241Y-109826637D01*
X206838273Y-109983680D01*
X207099426Y-110091853D01*
X207376665Y-110147000D01*
X207659335Y-110147000D01*
X207936574Y-110091853D01*
X208197727Y-109983680D01*
X208432759Y-109826637D01*
X208632637Y-109626759D01*
X208788000Y-109394241D01*
X208943363Y-109626759D01*
X209143241Y-109826637D01*
X209378273Y-109983680D01*
X209639426Y-110091853D01*
X209735683Y-110111000D01*
X209587322Y-110111000D01*
X209549999Y-110107324D01*
X209512676Y-110111000D01*
X209512667Y-110111000D01*
X209401014Y-110121997D01*
X209257753Y-110165454D01*
X209125724Y-110236026D01*
X209009999Y-110330999D01*
X208986201Y-110359997D01*
X208050002Y-111296196D01*
X208020999Y-111319999D01*
X207979145Y-111370999D01*
X207926026Y-111435724D01*
X207881520Y-111518988D01*
X207855454Y-111567754D01*
X207811997Y-111711015D01*
X207801000Y-111822668D01*
X207801000Y-111822678D01*
X207797324Y-111860000D01*
X207801000Y-111897323D01*
X207801001Y-114062928D01*
X207286000Y-114062928D01*
X207161518Y-114075188D01*
X207041820Y-114111498D01*
X206931506Y-114170463D01*
X206834815Y-114249815D01*
X206755463Y-114346506D01*
X206736440Y-114382094D01*
X206646983Y-114292637D01*
X206297302Y-114058988D01*
X205908756Y-113898047D01*
X205496279Y-113816000D01*
X205075721Y-113816000D01*
X204663244Y-113898047D01*
X204274698Y-114058988D01*
X203925017Y-114292637D01*
X203627637Y-114590017D01*
X203393988Y-114939698D01*
X203233047Y-115328244D01*
X203151000Y-115740721D01*
X203151000Y-116161279D01*
X203222237Y-116519411D01*
X203151826Y-116449000D01*
X202721251Y-116161299D01*
X202242822Y-115963127D01*
X201734924Y-115862100D01*
X201217076Y-115862100D01*
X200709178Y-115963127D01*
X200230749Y-116161299D01*
X199800174Y-116449000D01*
X199434000Y-116815174D01*
X199146299Y-117245749D01*
X199087978Y-117386549D01*
X199079546Y-117358753D01*
X199008974Y-117226724D01*
X198914001Y-117110999D01*
X198885004Y-117087202D01*
X197072713Y-115274911D01*
X197153180Y-115250502D01*
X197263494Y-115191537D01*
X197360185Y-115112185D01*
X197439537Y-115015494D01*
X197467965Y-114962311D01*
X197575017Y-115069363D01*
X197924698Y-115303012D01*
X198313244Y-115463953D01*
X198725721Y-115546000D01*
X199146279Y-115546000D01*
X199558756Y-115463953D01*
X199947302Y-115303012D01*
X200296983Y-115069363D01*
X200594363Y-114771983D01*
X200828012Y-114422302D01*
X200988953Y-114033756D01*
X201071000Y-113621279D01*
X201071000Y-113200721D01*
X200988953Y-112788244D01*
X200828012Y-112399698D01*
X200594363Y-112050017D01*
X200296983Y-111752637D01*
X199947302Y-111518988D01*
X199558756Y-111358047D01*
X199146279Y-111276000D01*
X198725721Y-111276000D01*
X198313244Y-111358047D01*
X197924698Y-111518988D01*
X197575017Y-111752637D01*
X197467965Y-111859689D01*
X197439537Y-111806506D01*
X197360185Y-111709815D01*
X197263494Y-111630463D01*
X197153180Y-111571498D01*
X197033482Y-111535188D01*
X196909000Y-111522928D01*
X194869000Y-111522928D01*
X194869000Y-107912000D01*
X195919928Y-107912000D01*
X195919928Y-109512000D01*
X195932188Y-109636482D01*
X195968498Y-109756180D01*
X196027463Y-109866494D01*
X196106815Y-109963185D01*
X196203506Y-110042537D01*
X196313820Y-110101502D01*
X196433518Y-110137812D01*
X196558000Y-110150072D01*
X198158000Y-110150072D01*
X198282482Y-110137812D01*
X198402180Y-110101502D01*
X198512494Y-110042537D01*
X198609185Y-109963185D01*
X198688537Y-109866494D01*
X198747502Y-109756180D01*
X198783812Y-109636482D01*
X198784643Y-109628039D01*
X198983241Y-109826637D01*
X199218273Y-109983680D01*
X199479426Y-110091853D01*
X199756665Y-110147000D01*
X200039335Y-110147000D01*
X200316574Y-110091853D01*
X200577727Y-109983680D01*
X200812759Y-109826637D01*
X200934694Y-109704702D01*
X201624903Y-109704702D01*
X201696486Y-109948671D01*
X201951996Y-110069571D01*
X202226184Y-110138300D01*
X202508512Y-110152217D01*
X202788130Y-110110787D01*
X203054292Y-110015603D01*
X203179514Y-109948671D01*
X203251097Y-109704702D01*
X204164903Y-109704702D01*
X204236486Y-109948671D01*
X204491996Y-110069571D01*
X204766184Y-110138300D01*
X205048512Y-110152217D01*
X205328130Y-110110787D01*
X205594292Y-110015603D01*
X205719514Y-109948671D01*
X205791097Y-109704702D01*
X204978000Y-108891605D01*
X204164903Y-109704702D01*
X203251097Y-109704702D01*
X202438000Y-108891605D01*
X201624903Y-109704702D01*
X200934694Y-109704702D01*
X201012637Y-109626759D01*
X201168915Y-109392872D01*
X201201329Y-109453514D01*
X201445298Y-109525097D01*
X202258395Y-108712000D01*
X202617605Y-108712000D01*
X203430702Y-109525097D01*
X203674671Y-109453514D01*
X203705971Y-109387364D01*
X203741329Y-109453514D01*
X203985298Y-109525097D01*
X204798395Y-108712000D01*
X203985298Y-107898903D01*
X203741329Y-107970486D01*
X203710029Y-108036636D01*
X203674671Y-107970486D01*
X203430702Y-107898903D01*
X202617605Y-108712000D01*
X202258395Y-108712000D01*
X201445298Y-107898903D01*
X201201329Y-107970486D01*
X201170806Y-108034992D01*
X201169680Y-108032273D01*
X201012637Y-107797241D01*
X200934694Y-107719298D01*
X201624903Y-107719298D01*
X202438000Y-108532395D01*
X203251097Y-107719298D01*
X204164903Y-107719298D01*
X204978000Y-108532395D01*
X205791097Y-107719298D01*
X205719514Y-107475329D01*
X205464004Y-107354429D01*
X205189816Y-107285700D01*
X204907488Y-107271783D01*
X204627870Y-107313213D01*
X204361708Y-107408397D01*
X204236486Y-107475329D01*
X204164903Y-107719298D01*
X203251097Y-107719298D01*
X203179514Y-107475329D01*
X202924004Y-107354429D01*
X202649816Y-107285700D01*
X202367488Y-107271783D01*
X202087870Y-107313213D01*
X201821708Y-107408397D01*
X201696486Y-107475329D01*
X201624903Y-107719298D01*
X200934694Y-107719298D01*
X200812759Y-107597363D01*
X200577727Y-107440320D01*
X200316574Y-107332147D01*
X200039335Y-107277000D01*
X199756665Y-107277000D01*
X199479426Y-107332147D01*
X199218273Y-107440320D01*
X198983241Y-107597363D01*
X198784643Y-107795961D01*
X198783812Y-107787518D01*
X198747502Y-107667820D01*
X198688537Y-107557506D01*
X198609185Y-107460815D01*
X198512494Y-107381463D01*
X198402180Y-107322498D01*
X198282482Y-107286188D01*
X198158000Y-107273928D01*
X196558000Y-107273928D01*
X196433518Y-107286188D01*
X196313820Y-107322498D01*
X196203506Y-107381463D01*
X196106815Y-107460815D01*
X196027463Y-107557506D01*
X195968498Y-107667820D01*
X195932188Y-107787518D01*
X195919928Y-107912000D01*
X194869000Y-107912000D01*
X194869000Y-99352279D01*
X194886000Y-99352279D01*
X194886000Y-99649723D01*
X194944029Y-99941452D01*
X195057856Y-100216254D01*
X195223107Y-100463570D01*
X195433431Y-100673894D01*
X195680747Y-100839145D01*
X195955549Y-100952972D01*
X196247278Y-101011001D01*
X196544722Y-101011001D01*
X196836451Y-100952972D01*
X197111253Y-100839145D01*
X197358569Y-100673894D01*
X197568893Y-100463570D01*
X197734144Y-100216254D01*
X197847971Y-99941452D01*
X197906000Y-99649723D01*
X197906000Y-99352279D01*
X197847971Y-99060550D01*
X197734144Y-98785748D01*
X197568893Y-98538432D01*
X197358569Y-98328108D01*
X197111253Y-98162857D01*
X196836451Y-98049030D01*
X196544722Y-97991001D01*
X196247278Y-97991001D01*
X195955549Y-98049030D01*
X195680747Y-98162857D01*
X195433431Y-98328108D01*
X195223107Y-98538432D01*
X195057856Y-98785748D01*
X194944029Y-99060550D01*
X194886000Y-99352279D01*
X194869000Y-99352279D01*
X194869000Y-97760802D01*
X196145003Y-96484800D01*
X196174001Y-96461002D01*
X196268974Y-96345277D01*
X196288326Y-96309073D01*
X196909000Y-96309073D01*
X197033482Y-96296813D01*
X197153180Y-96260503D01*
X197263494Y-96201538D01*
X197360185Y-96122186D01*
X197439537Y-96025495D01*
X197467965Y-95972312D01*
X197575017Y-96079364D01*
X197924698Y-96313013D01*
X198313244Y-96473954D01*
X198725721Y-96556001D01*
X199146279Y-96556001D01*
X199558756Y-96473954D01*
X199947302Y-96313013D01*
X200296983Y-96079364D01*
X200594363Y-95781984D01*
X200828012Y-95432303D01*
X200988953Y-95043757D01*
X201071000Y-94631280D01*
X201071000Y-94210722D01*
X200988953Y-93798245D01*
X200828012Y-93409699D01*
X200775204Y-93330665D01*
X201003000Y-93330665D01*
X201003000Y-93613335D01*
X201058147Y-93890574D01*
X201166320Y-94151727D01*
X201323363Y-94386759D01*
X201523241Y-94586637D01*
X201758273Y-94743680D01*
X202019426Y-94851853D01*
X202296665Y-94907000D01*
X202579335Y-94907000D01*
X202856574Y-94851853D01*
X203117727Y-94743680D01*
X203352759Y-94586637D01*
X203552637Y-94386759D01*
X203709680Y-94151727D01*
X203817853Y-93890574D01*
X203873000Y-93613335D01*
X203873000Y-93330665D01*
X203817853Y-93053426D01*
X203709680Y-92792273D01*
X203552637Y-92557241D01*
X203352759Y-92357363D01*
X203117727Y-92200320D01*
X202856574Y-92092147D01*
X202579335Y-92037000D01*
X202296665Y-92037000D01*
X202019426Y-92092147D01*
X201758273Y-92200320D01*
X201523241Y-92357363D01*
X201323363Y-92557241D01*
X201166320Y-92792273D01*
X201058147Y-93053426D01*
X201003000Y-93330665D01*
X200775204Y-93330665D01*
X200594363Y-93060018D01*
X200296983Y-92762638D01*
X199947302Y-92528989D01*
X199558756Y-92368048D01*
X199146279Y-92286001D01*
X198725721Y-92286001D01*
X198313244Y-92368048D01*
X197924698Y-92528989D01*
X197575017Y-92762638D01*
X197467965Y-92869690D01*
X197439537Y-92816507D01*
X197360185Y-92719816D01*
X197263494Y-92640464D01*
X197153180Y-92581499D01*
X197033482Y-92545189D01*
X196909000Y-92532929D01*
X194359000Y-92532929D01*
X194234518Y-92545189D01*
X194233000Y-92545649D01*
X194233000Y-91685000D01*
X228550000Y-91685000D01*
X228550000Y-95072929D01*
G37*
X228550000Y-95072929D02*
X226409000Y-95072929D01*
X226284518Y-95085189D01*
X226164820Y-95121499D01*
X226054506Y-95180464D01*
X225957815Y-95259816D01*
X225878463Y-95356507D01*
X225859440Y-95392095D01*
X225769983Y-95302638D01*
X225420302Y-95068989D01*
X225031756Y-94908048D01*
X224619279Y-94826001D01*
X224198721Y-94826001D01*
X223786244Y-94908048D01*
X223397698Y-95068989D01*
X223048017Y-95302638D01*
X222750637Y-95600018D01*
X222516988Y-95949699D01*
X222356047Y-96338245D01*
X222274000Y-96750722D01*
X222274000Y-97171280D01*
X222345237Y-97529412D01*
X222274826Y-97459001D01*
X221844251Y-97171300D01*
X221365822Y-96973128D01*
X220857924Y-96872101D01*
X220340076Y-96872101D01*
X219832178Y-96973128D01*
X219353749Y-97171300D01*
X218923174Y-97459001D01*
X218557000Y-97825175D01*
X218269299Y-98255750D01*
X218071127Y-98734179D01*
X218057000Y-98805200D01*
X218057000Y-98335322D01*
X218060676Y-98297999D01*
X218057000Y-98260676D01*
X218057000Y-98260667D01*
X218046003Y-98149014D01*
X218002546Y-98005753D01*
X217931974Y-97873724D01*
X217892131Y-97825175D01*
X217860799Y-97786996D01*
X217860795Y-97786992D01*
X217837001Y-97757999D01*
X217808008Y-97734205D01*
X216314058Y-96240256D01*
X216386494Y-96201538D01*
X216483185Y-96122186D01*
X216562537Y-96025495D01*
X216590965Y-95972312D01*
X216698017Y-96079364D01*
X217047698Y-96313013D01*
X217436244Y-96473954D01*
X217848721Y-96556001D01*
X218269279Y-96556001D01*
X218681756Y-96473954D01*
X219070302Y-96313013D01*
X219419983Y-96079364D01*
X219717363Y-95781984D01*
X219951012Y-95432303D01*
X220111953Y-95043757D01*
X220194000Y-94631280D01*
X220194000Y-94210722D01*
X220111953Y-93798245D01*
X219951012Y-93409699D01*
X219898204Y-93330665D01*
X223863000Y-93330665D01*
X223863000Y-93613335D01*
X223918147Y-93890574D01*
X224026320Y-94151727D01*
X224183363Y-94386759D01*
X224383241Y-94586637D01*
X224618273Y-94743680D01*
X224879426Y-94851853D01*
X225156665Y-94907000D01*
X225439335Y-94907000D01*
X225716574Y-94851853D01*
X225977727Y-94743680D01*
X226212759Y-94586637D01*
X226412637Y-94386759D01*
X226569680Y-94151727D01*
X226677853Y-93890574D01*
X226733000Y-93613335D01*
X226733000Y-93330665D01*
X226677853Y-93053426D01*
X226569680Y-92792273D01*
X226412637Y-92557241D01*
X226212759Y-92357363D01*
X225977727Y-92200320D01*
X225716574Y-92092147D01*
X225439335Y-92037000D01*
X225156665Y-92037000D01*
X224879426Y-92092147D01*
X224618273Y-92200320D01*
X224383241Y-92357363D01*
X224183363Y-92557241D01*
X224026320Y-92792273D01*
X223918147Y-93053426D01*
X223863000Y-93330665D01*
X219898204Y-93330665D01*
X219717363Y-93060018D01*
X219419983Y-92762638D01*
X219070302Y-92528989D01*
X218681756Y-92368048D01*
X218269279Y-92286001D01*
X217848721Y-92286001D01*
X217436244Y-92368048D01*
X217047698Y-92528989D01*
X216698017Y-92762638D01*
X216590965Y-92869690D01*
X216562537Y-92816507D01*
X216483185Y-92719816D01*
X216386494Y-92640464D01*
X216276180Y-92581499D01*
X216156482Y-92545189D01*
X216032000Y-92532929D01*
X213482000Y-92532929D01*
X213357518Y-92545189D01*
X213237820Y-92581499D01*
X213127506Y-92640464D01*
X213030815Y-92719816D01*
X212951463Y-92816507D01*
X212892498Y-92926821D01*
X212856188Y-93046519D01*
X212843928Y-93171001D01*
X212843928Y-95671001D01*
X212856188Y-95795483D01*
X212892498Y-95915181D01*
X212951463Y-96025495D01*
X213030815Y-96122186D01*
X213127506Y-96201538D01*
X213237820Y-96260503D01*
X213357518Y-96296813D01*
X213482000Y-96309073D01*
X214230490Y-96309073D01*
X214246003Y-96321804D01*
X215982969Y-98058772D01*
X215959451Y-98049030D01*
X215667722Y-97991001D01*
X215370278Y-97991001D01*
X215078549Y-98049030D01*
X214803747Y-98162857D01*
X214556431Y-98328108D01*
X214346107Y-98538432D01*
X214180856Y-98785748D01*
X214067029Y-99060550D01*
X214009000Y-99352279D01*
X214009000Y-99649723D01*
X214067029Y-99941452D01*
X214180856Y-100216254D01*
X214346107Y-100463570D01*
X214556431Y-100673894D01*
X214803747Y-100839145D01*
X215078549Y-100952972D01*
X215370278Y-101011001D01*
X215667722Y-101011001D01*
X215959451Y-100952972D01*
X216234253Y-100839145D01*
X216481569Y-100673894D01*
X216537000Y-100618463D01*
X216537000Y-100673677D01*
X216533324Y-100711000D01*
X216537000Y-100748322D01*
X216537000Y-100748332D01*
X216547997Y-100859985D01*
X216576204Y-100952972D01*
X216591454Y-101003246D01*
X216662026Y-101135276D01*
X216701871Y-101183826D01*
X216756999Y-101251001D01*
X216786003Y-101274804D01*
X218043002Y-102531804D01*
X218043002Y-104446200D01*
X216602434Y-103005633D01*
X216578631Y-102976629D01*
X216462906Y-102881656D01*
X216330877Y-102811084D01*
X216187616Y-102767627D01*
X216075963Y-102756630D01*
X216075952Y-102756630D01*
X216038630Y-102752954D01*
X216001308Y-102756630D01*
X213931431Y-102756630D01*
X209999713Y-98824912D01*
X210080180Y-98800503D01*
X210190494Y-98741538D01*
X210287185Y-98662186D01*
X210366537Y-98565495D01*
X210425502Y-98455181D01*
X210461812Y-98335483D01*
X210474072Y-98211001D01*
X210474072Y-95711001D01*
X210461812Y-95586519D01*
X210425502Y-95466821D01*
X210366537Y-95356507D01*
X210287185Y-95259816D01*
X210190494Y-95180464D01*
X210080180Y-95121499D01*
X209960482Y-95085189D01*
X209836000Y-95072929D01*
X207286000Y-95072929D01*
X207161518Y-95085189D01*
X207041820Y-95121499D01*
X206931506Y-95180464D01*
X206834815Y-95259816D01*
X206755463Y-95356507D01*
X206736440Y-95392095D01*
X206646983Y-95302638D01*
X206297302Y-95068989D01*
X205908756Y-94908048D01*
X205496279Y-94826001D01*
X205075721Y-94826001D01*
X204663244Y-94908048D01*
X204274698Y-95068989D01*
X203925017Y-95302638D01*
X203627637Y-95600018D01*
X203393988Y-95949699D01*
X203233047Y-96338245D01*
X203151000Y-96750722D01*
X203151000Y-97171280D01*
X203222237Y-97529412D01*
X203151826Y-97459001D01*
X202721251Y-97171300D01*
X202242822Y-96973128D01*
X201734924Y-96872101D01*
X201217076Y-96872101D01*
X200709178Y-96973128D01*
X200230749Y-97171300D01*
X199800174Y-97459001D01*
X199434000Y-97825175D01*
X199146299Y-98255750D01*
X198948127Y-98734179D01*
X198847100Y-99242077D01*
X198847100Y-99759925D01*
X198948127Y-100267823D01*
X199146299Y-100746252D01*
X199434000Y-101176827D01*
X199800174Y-101543001D01*
X200230749Y-101830702D01*
X200709178Y-102028874D01*
X201217076Y-102129901D01*
X201734924Y-102129901D01*
X202242822Y-102028874D01*
X202721251Y-101830702D01*
X203151826Y-101543001D01*
X203518000Y-101176827D01*
X203805701Y-100746252D01*
X204003873Y-100267823D01*
X204104900Y-99759925D01*
X204104900Y-99242077D01*
X204003873Y-98734179D01*
X203968292Y-98648280D01*
X204274698Y-98853013D01*
X204663244Y-99013954D01*
X205075721Y-99096001D01*
X205096977Y-99096001D01*
X205046000Y-99352279D01*
X205046000Y-99649723D01*
X205104029Y-99941452D01*
X205217856Y-100216254D01*
X205383107Y-100463570D01*
X205593431Y-100673894D01*
X205840747Y-100839145D01*
X206115549Y-100952972D01*
X206407278Y-101011001D01*
X206704722Y-101011001D01*
X206996451Y-100952972D01*
X207271253Y-100839145D01*
X207518569Y-100673894D01*
X207728893Y-100463570D01*
X207894144Y-100216254D01*
X208007971Y-99941452D01*
X208066000Y-99649723D01*
X208066000Y-99352279D01*
X208007971Y-99060550D01*
X207944893Y-98908266D01*
X207965170Y-98932973D01*
X208021000Y-99001002D01*
X208049998Y-99024800D01*
X213052829Y-104027632D01*
X213076628Y-104056631D01*
X213105626Y-104080429D01*
X213192352Y-104151604D01*
X213324382Y-104222176D01*
X213467643Y-104265633D01*
X213579296Y-104276630D01*
X213579305Y-104276630D01*
X213616628Y-104280306D01*
X213653951Y-104276630D01*
X215723829Y-104276630D01*
X216918000Y-105470802D01*
X216918001Y-107493956D01*
X216763241Y-107597363D01*
X216563363Y-107797241D01*
X216408000Y-108029759D01*
X216252637Y-107797241D01*
X216052759Y-107597363D01*
X215817727Y-107440320D01*
X215556574Y-107332147D01*
X215279335Y-107277000D01*
X214996665Y-107277000D01*
X214719426Y-107332147D01*
X214458273Y-107440320D01*
X214223241Y-107597363D01*
X214023363Y-107797241D01*
X213868000Y-108029759D01*
X213712637Y-107797241D01*
X213512759Y-107597363D01*
X213277727Y-107440320D01*
X213016574Y-107332147D01*
X212739335Y-107277000D01*
X212456665Y-107277000D01*
X212179426Y-107332147D01*
X211918273Y-107440320D01*
X211683241Y-107597363D01*
X211483363Y-107797241D01*
X211328000Y-108029759D01*
X211172637Y-107797241D01*
X210972759Y-107597363D01*
X210737727Y-107440320D01*
X210476574Y-107332147D01*
X210199335Y-107277000D01*
X209916665Y-107277000D01*
X209639426Y-107332147D01*
X209378273Y-107440320D01*
X209143241Y-107597363D01*
X208943363Y-107797241D01*
X208788000Y-108029759D01*
X208632637Y-107797241D01*
X208432759Y-107597363D01*
X208197727Y-107440320D01*
X207936574Y-107332147D01*
X207659335Y-107277000D01*
X207376665Y-107277000D01*
X207099426Y-107332147D01*
X206838273Y-107440320D01*
X206603241Y-107597363D01*
X206403363Y-107797241D01*
X206247085Y-108031128D01*
X206214671Y-107970486D01*
X205970702Y-107898903D01*
X205157605Y-108712000D01*
X205970702Y-109525097D01*
X206214671Y-109453514D01*
X206245194Y-109389008D01*
X206246320Y-109391727D01*
X206403363Y-109626759D01*
X206603241Y-109826637D01*
X206838273Y-109983680D01*
X207099426Y-110091853D01*
X207376665Y-110147000D01*
X207659335Y-110147000D01*
X207936574Y-110091853D01*
X208197727Y-109983680D01*
X208432759Y-109826637D01*
X208632637Y-109626759D01*
X208788000Y-109394241D01*
X208943363Y-109626759D01*
X209143241Y-109826637D01*
X209378273Y-109983680D01*
X209639426Y-110091853D01*
X209735683Y-110111000D01*
X209587322Y-110111000D01*
X209549999Y-110107324D01*
X209512676Y-110111000D01*
X209512667Y-110111000D01*
X209401014Y-110121997D01*
X209257753Y-110165454D01*
X209125724Y-110236026D01*
X209009999Y-110330999D01*
X208986201Y-110359997D01*
X208050002Y-111296196D01*
X208020999Y-111319999D01*
X207979145Y-111370999D01*
X207926026Y-111435724D01*
X207881520Y-111518988D01*
X207855454Y-111567754D01*
X207811997Y-111711015D01*
X207801000Y-111822668D01*
X207801000Y-111822678D01*
X207797324Y-111860000D01*
X207801000Y-111897323D01*
X207801001Y-114062928D01*
X207286000Y-114062928D01*
X207161518Y-114075188D01*
X207041820Y-114111498D01*
X206931506Y-114170463D01*
X206834815Y-114249815D01*
X206755463Y-114346506D01*
X206736440Y-114382094D01*
X206646983Y-114292637D01*
X206297302Y-114058988D01*
X205908756Y-113898047D01*
X205496279Y-113816000D01*
X205075721Y-113816000D01*
X204663244Y-113898047D01*
X204274698Y-114058988D01*
X203925017Y-114292637D01*
X203627637Y-114590017D01*
X203393988Y-114939698D01*
X203233047Y-115328244D01*
X203151000Y-115740721D01*
X203151000Y-116161279D01*
X203222237Y-116519411D01*
X203151826Y-116449000D01*
X202721251Y-116161299D01*
X202242822Y-115963127D01*
X201734924Y-115862100D01*
X201217076Y-115862100D01*
X200709178Y-115963127D01*
X200230749Y-116161299D01*
X199800174Y-116449000D01*
X199434000Y-116815174D01*
X199146299Y-117245749D01*
X199087978Y-117386549D01*
X199079546Y-117358753D01*
X199008974Y-117226724D01*
X198914001Y-117110999D01*
X198885004Y-117087202D01*
X197072713Y-115274911D01*
X197153180Y-115250502D01*
X197263494Y-115191537D01*
X197360185Y-115112185D01*
X197439537Y-115015494D01*
X197467965Y-114962311D01*
X197575017Y-115069363D01*
X197924698Y-115303012D01*
X198313244Y-115463953D01*
X198725721Y-115546000D01*
X199146279Y-115546000D01*
X199558756Y-115463953D01*
X199947302Y-115303012D01*
X200296983Y-115069363D01*
X200594363Y-114771983D01*
X200828012Y-114422302D01*
X200988953Y-114033756D01*
X201071000Y-113621279D01*
X201071000Y-113200721D01*
X200988953Y-112788244D01*
X200828012Y-112399698D01*
X200594363Y-112050017D01*
X200296983Y-111752637D01*
X199947302Y-111518988D01*
X199558756Y-111358047D01*
X199146279Y-111276000D01*
X198725721Y-111276000D01*
X198313244Y-111358047D01*
X197924698Y-111518988D01*
X197575017Y-111752637D01*
X197467965Y-111859689D01*
X197439537Y-111806506D01*
X197360185Y-111709815D01*
X197263494Y-111630463D01*
X197153180Y-111571498D01*
X197033482Y-111535188D01*
X196909000Y-111522928D01*
X194869000Y-111522928D01*
X194869000Y-107912000D01*
X195919928Y-107912000D01*
X195919928Y-109512000D01*
X195932188Y-109636482D01*
X195968498Y-109756180D01*
X196027463Y-109866494D01*
X196106815Y-109963185D01*
X196203506Y-110042537D01*
X196313820Y-110101502D01*
X196433518Y-110137812D01*
X196558000Y-110150072D01*
X198158000Y-110150072D01*
X198282482Y-110137812D01*
X198402180Y-110101502D01*
X198512494Y-110042537D01*
X198609185Y-109963185D01*
X198688537Y-109866494D01*
X198747502Y-109756180D01*
X198783812Y-109636482D01*
X198784643Y-109628039D01*
X198983241Y-109826637D01*
X199218273Y-109983680D01*
X199479426Y-110091853D01*
X199756665Y-110147000D01*
X200039335Y-110147000D01*
X200316574Y-110091853D01*
X200577727Y-109983680D01*
X200812759Y-109826637D01*
X200934694Y-109704702D01*
X201624903Y-109704702D01*
X201696486Y-109948671D01*
X201951996Y-110069571D01*
X202226184Y-110138300D01*
X202508512Y-110152217D01*
X202788130Y-110110787D01*
X203054292Y-110015603D01*
X203179514Y-109948671D01*
X203251097Y-109704702D01*
X204164903Y-109704702D01*
X204236486Y-109948671D01*
X204491996Y-110069571D01*
X204766184Y-110138300D01*
X205048512Y-110152217D01*
X205328130Y-110110787D01*
X205594292Y-110015603D01*
X205719514Y-109948671D01*
X205791097Y-109704702D01*
X204978000Y-108891605D01*
X204164903Y-109704702D01*
X203251097Y-109704702D01*
X202438000Y-108891605D01*
X201624903Y-109704702D01*
X200934694Y-109704702D01*
X201012637Y-109626759D01*
X201168915Y-109392872D01*
X201201329Y-109453514D01*
X201445298Y-109525097D01*
X202258395Y-108712000D01*
X202617605Y-108712000D01*
X203430702Y-109525097D01*
X203674671Y-109453514D01*
X203705971Y-109387364D01*
X203741329Y-109453514D01*
X203985298Y-109525097D01*
X204798395Y-108712000D01*
X203985298Y-107898903D01*
X203741329Y-107970486D01*
X203710029Y-108036636D01*
X203674671Y-107970486D01*
X203430702Y-107898903D01*
X202617605Y-108712000D01*
X202258395Y-108712000D01*
X201445298Y-107898903D01*
X201201329Y-107970486D01*
X201170806Y-108034992D01*
X201169680Y-108032273D01*
X201012637Y-107797241D01*
X200934694Y-107719298D01*
X201624903Y-107719298D01*
X202438000Y-108532395D01*
X203251097Y-107719298D01*
X204164903Y-107719298D01*
X204978000Y-108532395D01*
X205791097Y-107719298D01*
X205719514Y-107475329D01*
X205464004Y-107354429D01*
X205189816Y-107285700D01*
X204907488Y-107271783D01*
X204627870Y-107313213D01*
X204361708Y-107408397D01*
X204236486Y-107475329D01*
X204164903Y-107719298D01*
X203251097Y-107719298D01*
X203179514Y-107475329D01*
X202924004Y-107354429D01*
X202649816Y-107285700D01*
X202367488Y-107271783D01*
X202087870Y-107313213D01*
X201821708Y-107408397D01*
X201696486Y-107475329D01*
X201624903Y-107719298D01*
X200934694Y-107719298D01*
X200812759Y-107597363D01*
X200577727Y-107440320D01*
X200316574Y-107332147D01*
X200039335Y-107277000D01*
X199756665Y-107277000D01*
X199479426Y-107332147D01*
X199218273Y-107440320D01*
X198983241Y-107597363D01*
X198784643Y-107795961D01*
X198783812Y-107787518D01*
X198747502Y-107667820D01*
X198688537Y-107557506D01*
X198609185Y-107460815D01*
X198512494Y-107381463D01*
X198402180Y-107322498D01*
X198282482Y-107286188D01*
X198158000Y-107273928D01*
X196558000Y-107273928D01*
X196433518Y-107286188D01*
X196313820Y-107322498D01*
X196203506Y-107381463D01*
X196106815Y-107460815D01*
X196027463Y-107557506D01*
X195968498Y-107667820D01*
X195932188Y-107787518D01*
X195919928Y-107912000D01*
X194869000Y-107912000D01*
X194869000Y-99352279D01*
X194886000Y-99352279D01*
X194886000Y-99649723D01*
X194944029Y-99941452D01*
X195057856Y-100216254D01*
X195223107Y-100463570D01*
X195433431Y-100673894D01*
X195680747Y-100839145D01*
X195955549Y-100952972D01*
X196247278Y-101011001D01*
X196544722Y-101011001D01*
X196836451Y-100952972D01*
X197111253Y-100839145D01*
X197358569Y-100673894D01*
X197568893Y-100463570D01*
X197734144Y-100216254D01*
X197847971Y-99941452D01*
X197906000Y-99649723D01*
X197906000Y-99352279D01*
X197847971Y-99060550D01*
X197734144Y-98785748D01*
X197568893Y-98538432D01*
X197358569Y-98328108D01*
X197111253Y-98162857D01*
X196836451Y-98049030D01*
X196544722Y-97991001D01*
X196247278Y-97991001D01*
X195955549Y-98049030D01*
X195680747Y-98162857D01*
X195433431Y-98328108D01*
X195223107Y-98538432D01*
X195057856Y-98785748D01*
X194944029Y-99060550D01*
X194886000Y-99352279D01*
X194869000Y-99352279D01*
X194869000Y-97760802D01*
X196145003Y-96484800D01*
X196174001Y-96461002D01*
X196268974Y-96345277D01*
X196288326Y-96309073D01*
X196909000Y-96309073D01*
X197033482Y-96296813D01*
X197153180Y-96260503D01*
X197263494Y-96201538D01*
X197360185Y-96122186D01*
X197439537Y-96025495D01*
X197467965Y-95972312D01*
X197575017Y-96079364D01*
X197924698Y-96313013D01*
X198313244Y-96473954D01*
X198725721Y-96556001D01*
X199146279Y-96556001D01*
X199558756Y-96473954D01*
X199947302Y-96313013D01*
X200296983Y-96079364D01*
X200594363Y-95781984D01*
X200828012Y-95432303D01*
X200988953Y-95043757D01*
X201071000Y-94631280D01*
X201071000Y-94210722D01*
X200988953Y-93798245D01*
X200828012Y-93409699D01*
X200775204Y-93330665D01*
X201003000Y-93330665D01*
X201003000Y-93613335D01*
X201058147Y-93890574D01*
X201166320Y-94151727D01*
X201323363Y-94386759D01*
X201523241Y-94586637D01*
X201758273Y-94743680D01*
X202019426Y-94851853D01*
X202296665Y-94907000D01*
X202579335Y-94907000D01*
X202856574Y-94851853D01*
X203117727Y-94743680D01*
X203352759Y-94586637D01*
X203552637Y-94386759D01*
X203709680Y-94151727D01*
X203817853Y-93890574D01*
X203873000Y-93613335D01*
X203873000Y-93330665D01*
X203817853Y-93053426D01*
X203709680Y-92792273D01*
X203552637Y-92557241D01*
X203352759Y-92357363D01*
X203117727Y-92200320D01*
X202856574Y-92092147D01*
X202579335Y-92037000D01*
X202296665Y-92037000D01*
X202019426Y-92092147D01*
X201758273Y-92200320D01*
X201523241Y-92357363D01*
X201323363Y-92557241D01*
X201166320Y-92792273D01*
X201058147Y-93053426D01*
X201003000Y-93330665D01*
X200775204Y-93330665D01*
X200594363Y-93060018D01*
X200296983Y-92762638D01*
X199947302Y-92528989D01*
X199558756Y-92368048D01*
X199146279Y-92286001D01*
X198725721Y-92286001D01*
X198313244Y-92368048D01*
X197924698Y-92528989D01*
X197575017Y-92762638D01*
X197467965Y-92869690D01*
X197439537Y-92816507D01*
X197360185Y-92719816D01*
X197263494Y-92640464D01*
X197153180Y-92581499D01*
X197033482Y-92545189D01*
X196909000Y-92532929D01*
X194359000Y-92532929D01*
X194234518Y-92545189D01*
X194233000Y-92545649D01*
X194233000Y-91685000D01*
X228550000Y-91685000D01*
X228550000Y-95072929D01*
M02*
