G04 #@! TF.GenerationSoftware,KiCad,Pcbnew,(5.1.5)-3*
G04 #@! TF.CreationDate,2021-06-22T16:47:51-05:00*
G04 #@! TF.ProjectId,BigSwitch,42696753-7769-4746-9368-2e6b69636164,rev?*
G04 #@! TF.SameCoordinates,Original*
G04 #@! TF.FileFunction,Copper,L2,Bot*
G04 #@! TF.FilePolarity,Positive*
%FSLAX46Y46*%
G04 Gerber Fmt 4.6, Leading zero omitted, Abs format (unit mm)*
G04 Created by KiCad (PCBNEW (5.1.5)-3) date 2021-06-22 16:47:51*
%MOMM*%
%LPD*%
G04 APERTURE LIST*
%ADD10C,1.600000*%
%ADD11R,1.600000X1.600000*%
%ADD12C,0.254000*%
G04 APERTURE END LIST*
D10*
X202438000Y-93472000D03*
X225298000Y-93472000D03*
X225298000Y-108712000D03*
X222758000Y-108712000D03*
X220218000Y-108712000D03*
X217678000Y-108712000D03*
X215138000Y-108712000D03*
X212598000Y-108712000D03*
X210058000Y-108712000D03*
X207518000Y-108712000D03*
X204978000Y-108712000D03*
X202438000Y-108712000D03*
X199898000Y-108712000D03*
D11*
X197358000Y-108712000D03*
D12*
G36*
X228550001Y-121315000D02*
G01*
X194233000Y-121315000D01*
X194233000Y-118342278D01*
X194886000Y-118342278D01*
X194886000Y-118639722D01*
X194944029Y-118931451D01*
X195057856Y-119206253D01*
X195223107Y-119453569D01*
X195433431Y-119663893D01*
X195680747Y-119829144D01*
X195955549Y-119942971D01*
X196247278Y-120001000D01*
X196544722Y-120001000D01*
X196836451Y-119942971D01*
X197111253Y-119829144D01*
X197358569Y-119663893D01*
X197568893Y-119453569D01*
X197734144Y-119206253D01*
X197847971Y-118931451D01*
X197906000Y-118639722D01*
X197906000Y-118342278D01*
X197884080Y-118232076D01*
X198847100Y-118232076D01*
X198847100Y-118749924D01*
X198948127Y-119257822D01*
X199146299Y-119736251D01*
X199434000Y-120166826D01*
X199800174Y-120533000D01*
X200230749Y-120820701D01*
X200709178Y-121018873D01*
X201217076Y-121119900D01*
X201734924Y-121119900D01*
X202242822Y-121018873D01*
X202721251Y-120820701D01*
X203151826Y-120533000D01*
X203518000Y-120166826D01*
X203805701Y-119736251D01*
X204003873Y-119257822D01*
X204104900Y-118749924D01*
X204104900Y-118232076D01*
X204003873Y-117724178D01*
X203968292Y-117638279D01*
X204274698Y-117843012D01*
X204663244Y-118003953D01*
X205075721Y-118086000D01*
X205096977Y-118086000D01*
X205046000Y-118342278D01*
X205046000Y-118639722D01*
X205104029Y-118931451D01*
X205217856Y-119206253D01*
X205383107Y-119453569D01*
X205593431Y-119663893D01*
X205840747Y-119829144D01*
X206115549Y-119942971D01*
X206407278Y-120001000D01*
X206704722Y-120001000D01*
X206996451Y-119942971D01*
X207271253Y-119829144D01*
X207518569Y-119663893D01*
X207728893Y-119453569D01*
X207894144Y-119206253D01*
X208007971Y-118931451D01*
X208066000Y-118639722D01*
X208066000Y-118342278D01*
X214009000Y-118342278D01*
X214009000Y-118639722D01*
X214067029Y-118931451D01*
X214180856Y-119206253D01*
X214346107Y-119453569D01*
X214556431Y-119663893D01*
X214803747Y-119829144D01*
X215078549Y-119942971D01*
X215370278Y-120001000D01*
X215667722Y-120001000D01*
X215959451Y-119942971D01*
X216234253Y-119829144D01*
X216481569Y-119663893D01*
X216691893Y-119453569D01*
X216857144Y-119206253D01*
X216970971Y-118931451D01*
X217029000Y-118639722D01*
X217029000Y-118342278D01*
X217007080Y-118232076D01*
X217970100Y-118232076D01*
X217970100Y-118749924D01*
X218071127Y-119257822D01*
X218269299Y-119736251D01*
X218557000Y-120166826D01*
X218923174Y-120533000D01*
X219353749Y-120820701D01*
X219832178Y-121018873D01*
X220340076Y-121119900D01*
X220857924Y-121119900D01*
X221365822Y-121018873D01*
X221844251Y-120820701D01*
X222274826Y-120533000D01*
X222641000Y-120166826D01*
X222928701Y-119736251D01*
X223126873Y-119257822D01*
X223227900Y-118749924D01*
X223227900Y-118232076D01*
X223126873Y-117724178D01*
X223091292Y-117638279D01*
X223397698Y-117843012D01*
X223786244Y-118003953D01*
X224198721Y-118086000D01*
X224219977Y-118086000D01*
X224169000Y-118342278D01*
X224169000Y-118639722D01*
X224227029Y-118931451D01*
X224340856Y-119206253D01*
X224506107Y-119453569D01*
X224716431Y-119663893D01*
X224963747Y-119829144D01*
X225238549Y-119942971D01*
X225530278Y-120001000D01*
X225827722Y-120001000D01*
X226119451Y-119942971D01*
X226394253Y-119829144D01*
X226641569Y-119663893D01*
X226851893Y-119453569D01*
X227017144Y-119206253D01*
X227130971Y-118931451D01*
X227189000Y-118639722D01*
X227189000Y-118342278D01*
X227130971Y-118050549D01*
X227017144Y-117775747D01*
X226851893Y-117528431D01*
X226641569Y-117318107D01*
X226394253Y-117152856D01*
X226221501Y-117081299D01*
X226301012Y-116962302D01*
X226461953Y-116573756D01*
X226544000Y-116161279D01*
X226544000Y-115740721D01*
X226461953Y-115328244D01*
X226301012Y-114939698D01*
X226067363Y-114590017D01*
X225769983Y-114292637D01*
X225420302Y-114058988D01*
X225031756Y-113898047D01*
X224619279Y-113816000D01*
X224198721Y-113816000D01*
X223786244Y-113898047D01*
X223397698Y-114058988D01*
X223048017Y-114292637D01*
X222750637Y-114590017D01*
X222516988Y-114939698D01*
X222356047Y-115328244D01*
X222274000Y-115740721D01*
X222274000Y-116161279D01*
X222345237Y-116519411D01*
X222274826Y-116449000D01*
X221844251Y-116161299D01*
X221365822Y-115963127D01*
X220857924Y-115862100D01*
X220340076Y-115862100D01*
X219832178Y-115963127D01*
X219353749Y-116161299D01*
X218923174Y-116449000D01*
X218557000Y-116815174D01*
X218269299Y-117245749D01*
X218071127Y-117724178D01*
X217970100Y-118232076D01*
X217007080Y-118232076D01*
X216970971Y-118050549D01*
X216857144Y-117775747D01*
X216691893Y-117528431D01*
X216481569Y-117318107D01*
X216234253Y-117152856D01*
X215959451Y-117039029D01*
X215667722Y-116981000D01*
X215370278Y-116981000D01*
X215078549Y-117039029D01*
X214803747Y-117152856D01*
X214556431Y-117318107D01*
X214346107Y-117528431D01*
X214180856Y-117775747D01*
X214067029Y-118050549D01*
X214009000Y-118342278D01*
X208066000Y-118342278D01*
X208007971Y-118050549D01*
X207894144Y-117775747D01*
X207728893Y-117528431D01*
X207518569Y-117318107D01*
X207271253Y-117152856D01*
X207098501Y-117081299D01*
X207178012Y-116962302D01*
X207338953Y-116573756D01*
X207421000Y-116161279D01*
X207421000Y-115740721D01*
X207338953Y-115328244D01*
X207178012Y-114939698D01*
X206944363Y-114590017D01*
X206646983Y-114292637D01*
X206297302Y-114058988D01*
X205908756Y-113898047D01*
X205496279Y-113816000D01*
X205075721Y-113816000D01*
X204663244Y-113898047D01*
X204274698Y-114058988D01*
X203925017Y-114292637D01*
X203627637Y-114590017D01*
X203393988Y-114939698D01*
X203233047Y-115328244D01*
X203151000Y-115740721D01*
X203151000Y-116161279D01*
X203222237Y-116519411D01*
X203151826Y-116449000D01*
X202721251Y-116161299D01*
X202242822Y-115963127D01*
X201734924Y-115862100D01*
X201217076Y-115862100D01*
X200709178Y-115963127D01*
X200230749Y-116161299D01*
X199800174Y-116449000D01*
X199434000Y-116815174D01*
X199146299Y-117245749D01*
X198948127Y-117724178D01*
X198847100Y-118232076D01*
X197884080Y-118232076D01*
X197847971Y-118050549D01*
X197734144Y-117775747D01*
X197568893Y-117528431D01*
X197358569Y-117318107D01*
X197111253Y-117152856D01*
X196836451Y-117039029D01*
X196544722Y-116981000D01*
X196247278Y-116981000D01*
X195955549Y-117039029D01*
X195680747Y-117152856D01*
X195433431Y-117318107D01*
X195223107Y-117528431D01*
X195057856Y-117775747D01*
X194944029Y-118050549D01*
X194886000Y-118342278D01*
X194233000Y-118342278D01*
X194233000Y-113200721D01*
X196801000Y-113200721D01*
X196801000Y-113621279D01*
X196883047Y-114033756D01*
X197043988Y-114422302D01*
X197277637Y-114771983D01*
X197575017Y-115069363D01*
X197924698Y-115303012D01*
X198313244Y-115463953D01*
X198725721Y-115546000D01*
X199146279Y-115546000D01*
X199558756Y-115463953D01*
X199947302Y-115303012D01*
X200296983Y-115069363D01*
X200594363Y-114771983D01*
X200828012Y-114422302D01*
X200988953Y-114033756D01*
X201071000Y-113621279D01*
X201071000Y-113200721D01*
X215924000Y-113200721D01*
X215924000Y-113621279D01*
X216006047Y-114033756D01*
X216166988Y-114422302D01*
X216400637Y-114771983D01*
X216698017Y-115069363D01*
X217047698Y-115303012D01*
X217436244Y-115463953D01*
X217848721Y-115546000D01*
X218269279Y-115546000D01*
X218681756Y-115463953D01*
X219070302Y-115303012D01*
X219419983Y-115069363D01*
X219717363Y-114771983D01*
X219951012Y-114422302D01*
X220111953Y-114033756D01*
X220194000Y-113621279D01*
X220194000Y-113200721D01*
X220111953Y-112788244D01*
X219951012Y-112399698D01*
X219717363Y-112050017D01*
X219419983Y-111752637D01*
X219070302Y-111518988D01*
X218681756Y-111358047D01*
X218269279Y-111276000D01*
X217848721Y-111276000D01*
X217436244Y-111358047D01*
X217047698Y-111518988D01*
X216698017Y-111752637D01*
X216400637Y-112050017D01*
X216166988Y-112399698D01*
X216006047Y-112788244D01*
X215924000Y-113200721D01*
X201071000Y-113200721D01*
X200988953Y-112788244D01*
X200828012Y-112399698D01*
X200594363Y-112050017D01*
X200296983Y-111752637D01*
X199947302Y-111518988D01*
X199558756Y-111358047D01*
X199146279Y-111276000D01*
X198725721Y-111276000D01*
X198313244Y-111358047D01*
X197924698Y-111518988D01*
X197575017Y-111752637D01*
X197277637Y-112050017D01*
X197043988Y-112399698D01*
X196883047Y-112788244D01*
X196801000Y-113200721D01*
X194233000Y-113200721D01*
X194233000Y-107912000D01*
X195919928Y-107912000D01*
X195919928Y-109512000D01*
X195932188Y-109636482D01*
X195968498Y-109756180D01*
X196027463Y-109866494D01*
X196106815Y-109963185D01*
X196203506Y-110042537D01*
X196313820Y-110101502D01*
X196433518Y-110137812D01*
X196558000Y-110150072D01*
X198158000Y-110150072D01*
X198282482Y-110137812D01*
X198402180Y-110101502D01*
X198512494Y-110042537D01*
X198609185Y-109963185D01*
X198688537Y-109866494D01*
X198747502Y-109756180D01*
X198783812Y-109636482D01*
X198784643Y-109628039D01*
X198983241Y-109826637D01*
X199218273Y-109983680D01*
X199479426Y-110091853D01*
X199756665Y-110147000D01*
X200039335Y-110147000D01*
X200316574Y-110091853D01*
X200577727Y-109983680D01*
X200812759Y-109826637D01*
X200934694Y-109704702D01*
X201624903Y-109704702D01*
X201696486Y-109948671D01*
X201951996Y-110069571D01*
X202226184Y-110138300D01*
X202508512Y-110152217D01*
X202788130Y-110110787D01*
X203054292Y-110015603D01*
X203179514Y-109948671D01*
X203251097Y-109704702D01*
X204164903Y-109704702D01*
X204236486Y-109948671D01*
X204491996Y-110069571D01*
X204766184Y-110138300D01*
X205048512Y-110152217D01*
X205328130Y-110110787D01*
X205594292Y-110015603D01*
X205719514Y-109948671D01*
X205791097Y-109704702D01*
X204978000Y-108891605D01*
X204164903Y-109704702D01*
X203251097Y-109704702D01*
X202438000Y-108891605D01*
X201624903Y-109704702D01*
X200934694Y-109704702D01*
X201012637Y-109626759D01*
X201168915Y-109392872D01*
X201201329Y-109453514D01*
X201445298Y-109525097D01*
X202258395Y-108712000D01*
X202617605Y-108712000D01*
X203430702Y-109525097D01*
X203674671Y-109453514D01*
X203705971Y-109387364D01*
X203741329Y-109453514D01*
X203985298Y-109525097D01*
X204798395Y-108712000D01*
X205157605Y-108712000D01*
X205970702Y-109525097D01*
X206214671Y-109453514D01*
X206245194Y-109389008D01*
X206246320Y-109391727D01*
X206403363Y-109626759D01*
X206603241Y-109826637D01*
X206838273Y-109983680D01*
X207099426Y-110091853D01*
X207376665Y-110147000D01*
X207659335Y-110147000D01*
X207936574Y-110091853D01*
X208197727Y-109983680D01*
X208432759Y-109826637D01*
X208632637Y-109626759D01*
X208788000Y-109394241D01*
X208943363Y-109626759D01*
X209143241Y-109826637D01*
X209378273Y-109983680D01*
X209639426Y-110091853D01*
X209916665Y-110147000D01*
X210199335Y-110147000D01*
X210476574Y-110091853D01*
X210737727Y-109983680D01*
X210972759Y-109826637D01*
X211172637Y-109626759D01*
X211328000Y-109394241D01*
X211483363Y-109626759D01*
X211683241Y-109826637D01*
X211918273Y-109983680D01*
X212179426Y-110091853D01*
X212456665Y-110147000D01*
X212739335Y-110147000D01*
X213016574Y-110091853D01*
X213277727Y-109983680D01*
X213512759Y-109826637D01*
X213712637Y-109626759D01*
X213868000Y-109394241D01*
X214023363Y-109626759D01*
X214223241Y-109826637D01*
X214458273Y-109983680D01*
X214719426Y-110091853D01*
X214996665Y-110147000D01*
X215279335Y-110147000D01*
X215556574Y-110091853D01*
X215817727Y-109983680D01*
X216052759Y-109826637D01*
X216252637Y-109626759D01*
X216408000Y-109394241D01*
X216563363Y-109626759D01*
X216763241Y-109826637D01*
X216998273Y-109983680D01*
X217259426Y-110091853D01*
X217536665Y-110147000D01*
X217819335Y-110147000D01*
X218096574Y-110091853D01*
X218357727Y-109983680D01*
X218592759Y-109826637D01*
X218792637Y-109626759D01*
X218948000Y-109394241D01*
X219103363Y-109626759D01*
X219303241Y-109826637D01*
X219538273Y-109983680D01*
X219799426Y-110091853D01*
X220076665Y-110147000D01*
X220359335Y-110147000D01*
X220636574Y-110091853D01*
X220897727Y-109983680D01*
X221132759Y-109826637D01*
X221332637Y-109626759D01*
X221488000Y-109394241D01*
X221643363Y-109626759D01*
X221843241Y-109826637D01*
X222078273Y-109983680D01*
X222339426Y-110091853D01*
X222616665Y-110147000D01*
X222899335Y-110147000D01*
X223176574Y-110091853D01*
X223437727Y-109983680D01*
X223672759Y-109826637D01*
X223872637Y-109626759D01*
X224028000Y-109394241D01*
X224183363Y-109626759D01*
X224383241Y-109826637D01*
X224618273Y-109983680D01*
X224879426Y-110091853D01*
X225156665Y-110147000D01*
X225439335Y-110147000D01*
X225716574Y-110091853D01*
X225977727Y-109983680D01*
X226212759Y-109826637D01*
X226412637Y-109626759D01*
X226569680Y-109391727D01*
X226677853Y-109130574D01*
X226733000Y-108853335D01*
X226733000Y-108570665D01*
X226677853Y-108293426D01*
X226569680Y-108032273D01*
X226412637Y-107797241D01*
X226212759Y-107597363D01*
X225977727Y-107440320D01*
X225716574Y-107332147D01*
X225439335Y-107277000D01*
X225156665Y-107277000D01*
X224879426Y-107332147D01*
X224618273Y-107440320D01*
X224383241Y-107597363D01*
X224183363Y-107797241D01*
X224028000Y-108029759D01*
X223872637Y-107797241D01*
X223672759Y-107597363D01*
X223437727Y-107440320D01*
X223176574Y-107332147D01*
X222899335Y-107277000D01*
X222616665Y-107277000D01*
X222339426Y-107332147D01*
X222078273Y-107440320D01*
X221843241Y-107597363D01*
X221643363Y-107797241D01*
X221488000Y-108029759D01*
X221332637Y-107797241D01*
X221132759Y-107597363D01*
X220897727Y-107440320D01*
X220636574Y-107332147D01*
X220359335Y-107277000D01*
X220076665Y-107277000D01*
X219799426Y-107332147D01*
X219538273Y-107440320D01*
X219303241Y-107597363D01*
X219103363Y-107797241D01*
X218948000Y-108029759D01*
X218792637Y-107797241D01*
X218592759Y-107597363D01*
X218357727Y-107440320D01*
X218096574Y-107332147D01*
X217819335Y-107277000D01*
X217536665Y-107277000D01*
X217259426Y-107332147D01*
X216998273Y-107440320D01*
X216763241Y-107597363D01*
X216563363Y-107797241D01*
X216408000Y-108029759D01*
X216252637Y-107797241D01*
X216052759Y-107597363D01*
X215817727Y-107440320D01*
X215556574Y-107332147D01*
X215279335Y-107277000D01*
X214996665Y-107277000D01*
X214719426Y-107332147D01*
X214458273Y-107440320D01*
X214223241Y-107597363D01*
X214023363Y-107797241D01*
X213868000Y-108029759D01*
X213712637Y-107797241D01*
X213512759Y-107597363D01*
X213277727Y-107440320D01*
X213016574Y-107332147D01*
X212739335Y-107277000D01*
X212456665Y-107277000D01*
X212179426Y-107332147D01*
X211918273Y-107440320D01*
X211683241Y-107597363D01*
X211483363Y-107797241D01*
X211328000Y-108029759D01*
X211172637Y-107797241D01*
X210972759Y-107597363D01*
X210737727Y-107440320D01*
X210476574Y-107332147D01*
X210199335Y-107277000D01*
X209916665Y-107277000D01*
X209639426Y-107332147D01*
X209378273Y-107440320D01*
X209143241Y-107597363D01*
X208943363Y-107797241D01*
X208788000Y-108029759D01*
X208632637Y-107797241D01*
X208432759Y-107597363D01*
X208197727Y-107440320D01*
X207936574Y-107332147D01*
X207659335Y-107277000D01*
X207376665Y-107277000D01*
X207099426Y-107332147D01*
X206838273Y-107440320D01*
X206603241Y-107597363D01*
X206403363Y-107797241D01*
X206247085Y-108031128D01*
X206214671Y-107970486D01*
X205970702Y-107898903D01*
X205157605Y-108712000D01*
X204798395Y-108712000D01*
X203985298Y-107898903D01*
X203741329Y-107970486D01*
X203710029Y-108036636D01*
X203674671Y-107970486D01*
X203430702Y-107898903D01*
X202617605Y-108712000D01*
X202258395Y-108712000D01*
X201445298Y-107898903D01*
X201201329Y-107970486D01*
X201170806Y-108034992D01*
X201169680Y-108032273D01*
X201012637Y-107797241D01*
X200934694Y-107719298D01*
X201624903Y-107719298D01*
X202438000Y-108532395D01*
X203251097Y-107719298D01*
X204164903Y-107719298D01*
X204978000Y-108532395D01*
X205791097Y-107719298D01*
X205719514Y-107475329D01*
X205464004Y-107354429D01*
X205189816Y-107285700D01*
X204907488Y-107271783D01*
X204627870Y-107313213D01*
X204361708Y-107408397D01*
X204236486Y-107475329D01*
X204164903Y-107719298D01*
X203251097Y-107719298D01*
X203179514Y-107475329D01*
X202924004Y-107354429D01*
X202649816Y-107285700D01*
X202367488Y-107271783D01*
X202087870Y-107313213D01*
X201821708Y-107408397D01*
X201696486Y-107475329D01*
X201624903Y-107719298D01*
X200934694Y-107719298D01*
X200812759Y-107597363D01*
X200577727Y-107440320D01*
X200316574Y-107332147D01*
X200039335Y-107277000D01*
X199756665Y-107277000D01*
X199479426Y-107332147D01*
X199218273Y-107440320D01*
X198983241Y-107597363D01*
X198784643Y-107795961D01*
X198783812Y-107787518D01*
X198747502Y-107667820D01*
X198688537Y-107557506D01*
X198609185Y-107460815D01*
X198512494Y-107381463D01*
X198402180Y-107322498D01*
X198282482Y-107286188D01*
X198158000Y-107273928D01*
X196558000Y-107273928D01*
X196433518Y-107286188D01*
X196313820Y-107322498D01*
X196203506Y-107381463D01*
X196106815Y-107460815D01*
X196027463Y-107557506D01*
X195968498Y-107667820D01*
X195932188Y-107787518D01*
X195919928Y-107912000D01*
X194233000Y-107912000D01*
X194233000Y-99352279D01*
X194886000Y-99352279D01*
X194886000Y-99649723D01*
X194944029Y-99941452D01*
X195057856Y-100216254D01*
X195223107Y-100463570D01*
X195433431Y-100673894D01*
X195680747Y-100839145D01*
X195955549Y-100952972D01*
X196247278Y-101011001D01*
X196544722Y-101011001D01*
X196836451Y-100952972D01*
X197111253Y-100839145D01*
X197358569Y-100673894D01*
X197568893Y-100463570D01*
X197734144Y-100216254D01*
X197847971Y-99941452D01*
X197906000Y-99649723D01*
X197906000Y-99352279D01*
X197884080Y-99242077D01*
X198847100Y-99242077D01*
X198847100Y-99759925D01*
X198948127Y-100267823D01*
X199146299Y-100746252D01*
X199434000Y-101176827D01*
X199800174Y-101543001D01*
X200230749Y-101830702D01*
X200709178Y-102028874D01*
X201217076Y-102129901D01*
X201734924Y-102129901D01*
X202242822Y-102028874D01*
X202721251Y-101830702D01*
X203151826Y-101543001D01*
X203518000Y-101176827D01*
X203805701Y-100746252D01*
X204003873Y-100267823D01*
X204104900Y-99759925D01*
X204104900Y-99242077D01*
X204003873Y-98734179D01*
X203968292Y-98648280D01*
X204274698Y-98853013D01*
X204663244Y-99013954D01*
X205075721Y-99096001D01*
X205096977Y-99096001D01*
X205046000Y-99352279D01*
X205046000Y-99649723D01*
X205104029Y-99941452D01*
X205217856Y-100216254D01*
X205383107Y-100463570D01*
X205593431Y-100673894D01*
X205840747Y-100839145D01*
X206115549Y-100952972D01*
X206407278Y-101011001D01*
X206704722Y-101011001D01*
X206996451Y-100952972D01*
X207271253Y-100839145D01*
X207518569Y-100673894D01*
X207728893Y-100463570D01*
X207894144Y-100216254D01*
X208007971Y-99941452D01*
X208066000Y-99649723D01*
X208066000Y-99352279D01*
X214009000Y-99352279D01*
X214009000Y-99649723D01*
X214067029Y-99941452D01*
X214180856Y-100216254D01*
X214346107Y-100463570D01*
X214556431Y-100673894D01*
X214803747Y-100839145D01*
X215078549Y-100952972D01*
X215370278Y-101011001D01*
X215667722Y-101011001D01*
X215959451Y-100952972D01*
X216234253Y-100839145D01*
X216481569Y-100673894D01*
X216691893Y-100463570D01*
X216857144Y-100216254D01*
X216970971Y-99941452D01*
X217029000Y-99649723D01*
X217029000Y-99352279D01*
X217007080Y-99242077D01*
X217970100Y-99242077D01*
X217970100Y-99759925D01*
X218071127Y-100267823D01*
X218269299Y-100746252D01*
X218557000Y-101176827D01*
X218923174Y-101543001D01*
X219353749Y-101830702D01*
X219832178Y-102028874D01*
X220340076Y-102129901D01*
X220857924Y-102129901D01*
X221365822Y-102028874D01*
X221844251Y-101830702D01*
X222274826Y-101543001D01*
X222641000Y-101176827D01*
X222928701Y-100746252D01*
X223126873Y-100267823D01*
X223227900Y-99759925D01*
X223227900Y-99242077D01*
X223126873Y-98734179D01*
X223091292Y-98648280D01*
X223397698Y-98853013D01*
X223786244Y-99013954D01*
X224198721Y-99096001D01*
X224219977Y-99096001D01*
X224169000Y-99352279D01*
X224169000Y-99649723D01*
X224227029Y-99941452D01*
X224340856Y-100216254D01*
X224506107Y-100463570D01*
X224716431Y-100673894D01*
X224963747Y-100839145D01*
X225238549Y-100952972D01*
X225530278Y-101011001D01*
X225827722Y-101011001D01*
X226119451Y-100952972D01*
X226394253Y-100839145D01*
X226641569Y-100673894D01*
X226851893Y-100463570D01*
X227017144Y-100216254D01*
X227130971Y-99941452D01*
X227189000Y-99649723D01*
X227189000Y-99352279D01*
X227130971Y-99060550D01*
X227017144Y-98785748D01*
X226851893Y-98538432D01*
X226641569Y-98328108D01*
X226394253Y-98162857D01*
X226221501Y-98091300D01*
X226301012Y-97972303D01*
X226461953Y-97583757D01*
X226544000Y-97171280D01*
X226544000Y-96750722D01*
X226461953Y-96338245D01*
X226301012Y-95949699D01*
X226067363Y-95600018D01*
X225769983Y-95302638D01*
X225420302Y-95068989D01*
X225031756Y-94908048D01*
X224619279Y-94826001D01*
X224198721Y-94826001D01*
X223786244Y-94908048D01*
X223397698Y-95068989D01*
X223048017Y-95302638D01*
X222750637Y-95600018D01*
X222516988Y-95949699D01*
X222356047Y-96338245D01*
X222274000Y-96750722D01*
X222274000Y-97171280D01*
X222345237Y-97529412D01*
X222274826Y-97459001D01*
X221844251Y-97171300D01*
X221365822Y-96973128D01*
X220857924Y-96872101D01*
X220340076Y-96872101D01*
X219832178Y-96973128D01*
X219353749Y-97171300D01*
X218923174Y-97459001D01*
X218557000Y-97825175D01*
X218269299Y-98255750D01*
X218071127Y-98734179D01*
X217970100Y-99242077D01*
X217007080Y-99242077D01*
X216970971Y-99060550D01*
X216857144Y-98785748D01*
X216691893Y-98538432D01*
X216481569Y-98328108D01*
X216234253Y-98162857D01*
X215959451Y-98049030D01*
X215667722Y-97991001D01*
X215370278Y-97991001D01*
X215078549Y-98049030D01*
X214803747Y-98162857D01*
X214556431Y-98328108D01*
X214346107Y-98538432D01*
X214180856Y-98785748D01*
X214067029Y-99060550D01*
X214009000Y-99352279D01*
X208066000Y-99352279D01*
X208007971Y-99060550D01*
X207894144Y-98785748D01*
X207728893Y-98538432D01*
X207518569Y-98328108D01*
X207271253Y-98162857D01*
X207098501Y-98091300D01*
X207178012Y-97972303D01*
X207338953Y-97583757D01*
X207421000Y-97171280D01*
X207421000Y-96750722D01*
X207338953Y-96338245D01*
X207178012Y-95949699D01*
X206944363Y-95600018D01*
X206646983Y-95302638D01*
X206297302Y-95068989D01*
X205908756Y-94908048D01*
X205496279Y-94826001D01*
X205075721Y-94826001D01*
X204663244Y-94908048D01*
X204274698Y-95068989D01*
X203925017Y-95302638D01*
X203627637Y-95600018D01*
X203393988Y-95949699D01*
X203233047Y-96338245D01*
X203151000Y-96750722D01*
X203151000Y-97171280D01*
X203222237Y-97529412D01*
X203151826Y-97459001D01*
X202721251Y-97171300D01*
X202242822Y-96973128D01*
X201734924Y-96872101D01*
X201217076Y-96872101D01*
X200709178Y-96973128D01*
X200230749Y-97171300D01*
X199800174Y-97459001D01*
X199434000Y-97825175D01*
X199146299Y-98255750D01*
X198948127Y-98734179D01*
X198847100Y-99242077D01*
X197884080Y-99242077D01*
X197847971Y-99060550D01*
X197734144Y-98785748D01*
X197568893Y-98538432D01*
X197358569Y-98328108D01*
X197111253Y-98162857D01*
X196836451Y-98049030D01*
X196544722Y-97991001D01*
X196247278Y-97991001D01*
X195955549Y-98049030D01*
X195680747Y-98162857D01*
X195433431Y-98328108D01*
X195223107Y-98538432D01*
X195057856Y-98785748D01*
X194944029Y-99060550D01*
X194886000Y-99352279D01*
X194233000Y-99352279D01*
X194233000Y-94210722D01*
X196801000Y-94210722D01*
X196801000Y-94631280D01*
X196883047Y-95043757D01*
X197043988Y-95432303D01*
X197277637Y-95781984D01*
X197575017Y-96079364D01*
X197924698Y-96313013D01*
X198313244Y-96473954D01*
X198725721Y-96556001D01*
X199146279Y-96556001D01*
X199558756Y-96473954D01*
X199947302Y-96313013D01*
X200296983Y-96079364D01*
X200594363Y-95781984D01*
X200828012Y-95432303D01*
X200988953Y-95043757D01*
X201071000Y-94631280D01*
X201071000Y-94210722D01*
X200988953Y-93798245D01*
X200828012Y-93409699D01*
X200775204Y-93330665D01*
X201003000Y-93330665D01*
X201003000Y-93613335D01*
X201058147Y-93890574D01*
X201166320Y-94151727D01*
X201323363Y-94386759D01*
X201523241Y-94586637D01*
X201758273Y-94743680D01*
X202019426Y-94851853D01*
X202296665Y-94907000D01*
X202579335Y-94907000D01*
X202856574Y-94851853D01*
X203117727Y-94743680D01*
X203352759Y-94586637D01*
X203552637Y-94386759D01*
X203670260Y-94210722D01*
X215924000Y-94210722D01*
X215924000Y-94631280D01*
X216006047Y-95043757D01*
X216166988Y-95432303D01*
X216400637Y-95781984D01*
X216698017Y-96079364D01*
X217047698Y-96313013D01*
X217436244Y-96473954D01*
X217848721Y-96556001D01*
X218269279Y-96556001D01*
X218681756Y-96473954D01*
X219070302Y-96313013D01*
X219419983Y-96079364D01*
X219717363Y-95781984D01*
X219951012Y-95432303D01*
X220111953Y-95043757D01*
X220194000Y-94631280D01*
X220194000Y-94210722D01*
X220111953Y-93798245D01*
X219951012Y-93409699D01*
X219898204Y-93330665D01*
X223863000Y-93330665D01*
X223863000Y-93613335D01*
X223918147Y-93890574D01*
X224026320Y-94151727D01*
X224183363Y-94386759D01*
X224383241Y-94586637D01*
X224618273Y-94743680D01*
X224879426Y-94851853D01*
X225156665Y-94907000D01*
X225439335Y-94907000D01*
X225716574Y-94851853D01*
X225977727Y-94743680D01*
X226212759Y-94586637D01*
X226412637Y-94386759D01*
X226569680Y-94151727D01*
X226677853Y-93890574D01*
X226733000Y-93613335D01*
X226733000Y-93330665D01*
X226677853Y-93053426D01*
X226569680Y-92792273D01*
X226412637Y-92557241D01*
X226212759Y-92357363D01*
X225977727Y-92200320D01*
X225716574Y-92092147D01*
X225439335Y-92037000D01*
X225156665Y-92037000D01*
X224879426Y-92092147D01*
X224618273Y-92200320D01*
X224383241Y-92357363D01*
X224183363Y-92557241D01*
X224026320Y-92792273D01*
X223918147Y-93053426D01*
X223863000Y-93330665D01*
X219898204Y-93330665D01*
X219717363Y-93060018D01*
X219419983Y-92762638D01*
X219070302Y-92528989D01*
X218681756Y-92368048D01*
X218269279Y-92286001D01*
X217848721Y-92286001D01*
X217436244Y-92368048D01*
X217047698Y-92528989D01*
X216698017Y-92762638D01*
X216400637Y-93060018D01*
X216166988Y-93409699D01*
X216006047Y-93798245D01*
X215924000Y-94210722D01*
X203670260Y-94210722D01*
X203709680Y-94151727D01*
X203817853Y-93890574D01*
X203873000Y-93613335D01*
X203873000Y-93330665D01*
X203817853Y-93053426D01*
X203709680Y-92792273D01*
X203552637Y-92557241D01*
X203352759Y-92357363D01*
X203117727Y-92200320D01*
X202856574Y-92092147D01*
X202579335Y-92037000D01*
X202296665Y-92037000D01*
X202019426Y-92092147D01*
X201758273Y-92200320D01*
X201523241Y-92357363D01*
X201323363Y-92557241D01*
X201166320Y-92792273D01*
X201058147Y-93053426D01*
X201003000Y-93330665D01*
X200775204Y-93330665D01*
X200594363Y-93060018D01*
X200296983Y-92762638D01*
X199947302Y-92528989D01*
X199558756Y-92368048D01*
X199146279Y-92286001D01*
X198725721Y-92286001D01*
X198313244Y-92368048D01*
X197924698Y-92528989D01*
X197575017Y-92762638D01*
X197277637Y-93060018D01*
X197043988Y-93409699D01*
X196883047Y-93798245D01*
X196801000Y-94210722D01*
X194233000Y-94210722D01*
X194233000Y-91685000D01*
X228550000Y-91685000D01*
X228550001Y-121315000D01*
G37*
X228550001Y-121315000D02*
X194233000Y-121315000D01*
X194233000Y-118342278D01*
X194886000Y-118342278D01*
X194886000Y-118639722D01*
X194944029Y-118931451D01*
X195057856Y-119206253D01*
X195223107Y-119453569D01*
X195433431Y-119663893D01*
X195680747Y-119829144D01*
X195955549Y-119942971D01*
X196247278Y-120001000D01*
X196544722Y-120001000D01*
X196836451Y-119942971D01*
X197111253Y-119829144D01*
X197358569Y-119663893D01*
X197568893Y-119453569D01*
X197734144Y-119206253D01*
X197847971Y-118931451D01*
X197906000Y-118639722D01*
X197906000Y-118342278D01*
X197884080Y-118232076D01*
X198847100Y-118232076D01*
X198847100Y-118749924D01*
X198948127Y-119257822D01*
X199146299Y-119736251D01*
X199434000Y-120166826D01*
X199800174Y-120533000D01*
X200230749Y-120820701D01*
X200709178Y-121018873D01*
X201217076Y-121119900D01*
X201734924Y-121119900D01*
X202242822Y-121018873D01*
X202721251Y-120820701D01*
X203151826Y-120533000D01*
X203518000Y-120166826D01*
X203805701Y-119736251D01*
X204003873Y-119257822D01*
X204104900Y-118749924D01*
X204104900Y-118232076D01*
X204003873Y-117724178D01*
X203968292Y-117638279D01*
X204274698Y-117843012D01*
X204663244Y-118003953D01*
X205075721Y-118086000D01*
X205096977Y-118086000D01*
X205046000Y-118342278D01*
X205046000Y-118639722D01*
X205104029Y-118931451D01*
X205217856Y-119206253D01*
X205383107Y-119453569D01*
X205593431Y-119663893D01*
X205840747Y-119829144D01*
X206115549Y-119942971D01*
X206407278Y-120001000D01*
X206704722Y-120001000D01*
X206996451Y-119942971D01*
X207271253Y-119829144D01*
X207518569Y-119663893D01*
X207728893Y-119453569D01*
X207894144Y-119206253D01*
X208007971Y-118931451D01*
X208066000Y-118639722D01*
X208066000Y-118342278D01*
X214009000Y-118342278D01*
X214009000Y-118639722D01*
X214067029Y-118931451D01*
X214180856Y-119206253D01*
X214346107Y-119453569D01*
X214556431Y-119663893D01*
X214803747Y-119829144D01*
X215078549Y-119942971D01*
X215370278Y-120001000D01*
X215667722Y-120001000D01*
X215959451Y-119942971D01*
X216234253Y-119829144D01*
X216481569Y-119663893D01*
X216691893Y-119453569D01*
X216857144Y-119206253D01*
X216970971Y-118931451D01*
X217029000Y-118639722D01*
X217029000Y-118342278D01*
X217007080Y-118232076D01*
X217970100Y-118232076D01*
X217970100Y-118749924D01*
X218071127Y-119257822D01*
X218269299Y-119736251D01*
X218557000Y-120166826D01*
X218923174Y-120533000D01*
X219353749Y-120820701D01*
X219832178Y-121018873D01*
X220340076Y-121119900D01*
X220857924Y-121119900D01*
X221365822Y-121018873D01*
X221844251Y-120820701D01*
X222274826Y-120533000D01*
X222641000Y-120166826D01*
X222928701Y-119736251D01*
X223126873Y-119257822D01*
X223227900Y-118749924D01*
X223227900Y-118232076D01*
X223126873Y-117724178D01*
X223091292Y-117638279D01*
X223397698Y-117843012D01*
X223786244Y-118003953D01*
X224198721Y-118086000D01*
X224219977Y-118086000D01*
X224169000Y-118342278D01*
X224169000Y-118639722D01*
X224227029Y-118931451D01*
X224340856Y-119206253D01*
X224506107Y-119453569D01*
X224716431Y-119663893D01*
X224963747Y-119829144D01*
X225238549Y-119942971D01*
X225530278Y-120001000D01*
X225827722Y-120001000D01*
X226119451Y-119942971D01*
X226394253Y-119829144D01*
X226641569Y-119663893D01*
X226851893Y-119453569D01*
X227017144Y-119206253D01*
X227130971Y-118931451D01*
X227189000Y-118639722D01*
X227189000Y-118342278D01*
X227130971Y-118050549D01*
X227017144Y-117775747D01*
X226851893Y-117528431D01*
X226641569Y-117318107D01*
X226394253Y-117152856D01*
X226221501Y-117081299D01*
X226301012Y-116962302D01*
X226461953Y-116573756D01*
X226544000Y-116161279D01*
X226544000Y-115740721D01*
X226461953Y-115328244D01*
X226301012Y-114939698D01*
X226067363Y-114590017D01*
X225769983Y-114292637D01*
X225420302Y-114058988D01*
X225031756Y-113898047D01*
X224619279Y-113816000D01*
X224198721Y-113816000D01*
X223786244Y-113898047D01*
X223397698Y-114058988D01*
X223048017Y-114292637D01*
X222750637Y-114590017D01*
X222516988Y-114939698D01*
X222356047Y-115328244D01*
X222274000Y-115740721D01*
X222274000Y-116161279D01*
X222345237Y-116519411D01*
X222274826Y-116449000D01*
X221844251Y-116161299D01*
X221365822Y-115963127D01*
X220857924Y-115862100D01*
X220340076Y-115862100D01*
X219832178Y-115963127D01*
X219353749Y-116161299D01*
X218923174Y-116449000D01*
X218557000Y-116815174D01*
X218269299Y-117245749D01*
X218071127Y-117724178D01*
X217970100Y-118232076D01*
X217007080Y-118232076D01*
X216970971Y-118050549D01*
X216857144Y-117775747D01*
X216691893Y-117528431D01*
X216481569Y-117318107D01*
X216234253Y-117152856D01*
X215959451Y-117039029D01*
X215667722Y-116981000D01*
X215370278Y-116981000D01*
X215078549Y-117039029D01*
X214803747Y-117152856D01*
X214556431Y-117318107D01*
X214346107Y-117528431D01*
X214180856Y-117775747D01*
X214067029Y-118050549D01*
X214009000Y-118342278D01*
X208066000Y-118342278D01*
X208007971Y-118050549D01*
X207894144Y-117775747D01*
X207728893Y-117528431D01*
X207518569Y-117318107D01*
X207271253Y-117152856D01*
X207098501Y-117081299D01*
X207178012Y-116962302D01*
X207338953Y-116573756D01*
X207421000Y-116161279D01*
X207421000Y-115740721D01*
X207338953Y-115328244D01*
X207178012Y-114939698D01*
X206944363Y-114590017D01*
X206646983Y-114292637D01*
X206297302Y-114058988D01*
X205908756Y-113898047D01*
X205496279Y-113816000D01*
X205075721Y-113816000D01*
X204663244Y-113898047D01*
X204274698Y-114058988D01*
X203925017Y-114292637D01*
X203627637Y-114590017D01*
X203393988Y-114939698D01*
X203233047Y-115328244D01*
X203151000Y-115740721D01*
X203151000Y-116161279D01*
X203222237Y-116519411D01*
X203151826Y-116449000D01*
X202721251Y-116161299D01*
X202242822Y-115963127D01*
X201734924Y-115862100D01*
X201217076Y-115862100D01*
X200709178Y-115963127D01*
X200230749Y-116161299D01*
X199800174Y-116449000D01*
X199434000Y-116815174D01*
X199146299Y-117245749D01*
X198948127Y-117724178D01*
X198847100Y-118232076D01*
X197884080Y-118232076D01*
X197847971Y-118050549D01*
X197734144Y-117775747D01*
X197568893Y-117528431D01*
X197358569Y-117318107D01*
X197111253Y-117152856D01*
X196836451Y-117039029D01*
X196544722Y-116981000D01*
X196247278Y-116981000D01*
X195955549Y-117039029D01*
X195680747Y-117152856D01*
X195433431Y-117318107D01*
X195223107Y-117528431D01*
X195057856Y-117775747D01*
X194944029Y-118050549D01*
X194886000Y-118342278D01*
X194233000Y-118342278D01*
X194233000Y-113200721D01*
X196801000Y-113200721D01*
X196801000Y-113621279D01*
X196883047Y-114033756D01*
X197043988Y-114422302D01*
X197277637Y-114771983D01*
X197575017Y-115069363D01*
X197924698Y-115303012D01*
X198313244Y-115463953D01*
X198725721Y-115546000D01*
X199146279Y-115546000D01*
X199558756Y-115463953D01*
X199947302Y-115303012D01*
X200296983Y-115069363D01*
X200594363Y-114771983D01*
X200828012Y-114422302D01*
X200988953Y-114033756D01*
X201071000Y-113621279D01*
X201071000Y-113200721D01*
X215924000Y-113200721D01*
X215924000Y-113621279D01*
X216006047Y-114033756D01*
X216166988Y-114422302D01*
X216400637Y-114771983D01*
X216698017Y-115069363D01*
X217047698Y-115303012D01*
X217436244Y-115463953D01*
X217848721Y-115546000D01*
X218269279Y-115546000D01*
X218681756Y-115463953D01*
X219070302Y-115303012D01*
X219419983Y-115069363D01*
X219717363Y-114771983D01*
X219951012Y-114422302D01*
X220111953Y-114033756D01*
X220194000Y-113621279D01*
X220194000Y-113200721D01*
X220111953Y-112788244D01*
X219951012Y-112399698D01*
X219717363Y-112050017D01*
X219419983Y-111752637D01*
X219070302Y-111518988D01*
X218681756Y-111358047D01*
X218269279Y-111276000D01*
X217848721Y-111276000D01*
X217436244Y-111358047D01*
X217047698Y-111518988D01*
X216698017Y-111752637D01*
X216400637Y-112050017D01*
X216166988Y-112399698D01*
X216006047Y-112788244D01*
X215924000Y-113200721D01*
X201071000Y-113200721D01*
X200988953Y-112788244D01*
X200828012Y-112399698D01*
X200594363Y-112050017D01*
X200296983Y-111752637D01*
X199947302Y-111518988D01*
X199558756Y-111358047D01*
X199146279Y-111276000D01*
X198725721Y-111276000D01*
X198313244Y-111358047D01*
X197924698Y-111518988D01*
X197575017Y-111752637D01*
X197277637Y-112050017D01*
X197043988Y-112399698D01*
X196883047Y-112788244D01*
X196801000Y-113200721D01*
X194233000Y-113200721D01*
X194233000Y-107912000D01*
X195919928Y-107912000D01*
X195919928Y-109512000D01*
X195932188Y-109636482D01*
X195968498Y-109756180D01*
X196027463Y-109866494D01*
X196106815Y-109963185D01*
X196203506Y-110042537D01*
X196313820Y-110101502D01*
X196433518Y-110137812D01*
X196558000Y-110150072D01*
X198158000Y-110150072D01*
X198282482Y-110137812D01*
X198402180Y-110101502D01*
X198512494Y-110042537D01*
X198609185Y-109963185D01*
X198688537Y-109866494D01*
X198747502Y-109756180D01*
X198783812Y-109636482D01*
X198784643Y-109628039D01*
X198983241Y-109826637D01*
X199218273Y-109983680D01*
X199479426Y-110091853D01*
X199756665Y-110147000D01*
X200039335Y-110147000D01*
X200316574Y-110091853D01*
X200577727Y-109983680D01*
X200812759Y-109826637D01*
X200934694Y-109704702D01*
X201624903Y-109704702D01*
X201696486Y-109948671D01*
X201951996Y-110069571D01*
X202226184Y-110138300D01*
X202508512Y-110152217D01*
X202788130Y-110110787D01*
X203054292Y-110015603D01*
X203179514Y-109948671D01*
X203251097Y-109704702D01*
X204164903Y-109704702D01*
X204236486Y-109948671D01*
X204491996Y-110069571D01*
X204766184Y-110138300D01*
X205048512Y-110152217D01*
X205328130Y-110110787D01*
X205594292Y-110015603D01*
X205719514Y-109948671D01*
X205791097Y-109704702D01*
X204978000Y-108891605D01*
X204164903Y-109704702D01*
X203251097Y-109704702D01*
X202438000Y-108891605D01*
X201624903Y-109704702D01*
X200934694Y-109704702D01*
X201012637Y-109626759D01*
X201168915Y-109392872D01*
X201201329Y-109453514D01*
X201445298Y-109525097D01*
X202258395Y-108712000D01*
X202617605Y-108712000D01*
X203430702Y-109525097D01*
X203674671Y-109453514D01*
X203705971Y-109387364D01*
X203741329Y-109453514D01*
X203985298Y-109525097D01*
X204798395Y-108712000D01*
X205157605Y-108712000D01*
X205970702Y-109525097D01*
X206214671Y-109453514D01*
X206245194Y-109389008D01*
X206246320Y-109391727D01*
X206403363Y-109626759D01*
X206603241Y-109826637D01*
X206838273Y-109983680D01*
X207099426Y-110091853D01*
X207376665Y-110147000D01*
X207659335Y-110147000D01*
X207936574Y-110091853D01*
X208197727Y-109983680D01*
X208432759Y-109826637D01*
X208632637Y-109626759D01*
X208788000Y-109394241D01*
X208943363Y-109626759D01*
X209143241Y-109826637D01*
X209378273Y-109983680D01*
X209639426Y-110091853D01*
X209916665Y-110147000D01*
X210199335Y-110147000D01*
X210476574Y-110091853D01*
X210737727Y-109983680D01*
X210972759Y-109826637D01*
X211172637Y-109626759D01*
X211328000Y-109394241D01*
X211483363Y-109626759D01*
X211683241Y-109826637D01*
X211918273Y-109983680D01*
X212179426Y-110091853D01*
X212456665Y-110147000D01*
X212739335Y-110147000D01*
X213016574Y-110091853D01*
X213277727Y-109983680D01*
X213512759Y-109826637D01*
X213712637Y-109626759D01*
X213868000Y-109394241D01*
X214023363Y-109626759D01*
X214223241Y-109826637D01*
X214458273Y-109983680D01*
X214719426Y-110091853D01*
X214996665Y-110147000D01*
X215279335Y-110147000D01*
X215556574Y-110091853D01*
X215817727Y-109983680D01*
X216052759Y-109826637D01*
X216252637Y-109626759D01*
X216408000Y-109394241D01*
X216563363Y-109626759D01*
X216763241Y-109826637D01*
X216998273Y-109983680D01*
X217259426Y-110091853D01*
X217536665Y-110147000D01*
X217819335Y-110147000D01*
X218096574Y-110091853D01*
X218357727Y-109983680D01*
X218592759Y-109826637D01*
X218792637Y-109626759D01*
X218948000Y-109394241D01*
X219103363Y-109626759D01*
X219303241Y-109826637D01*
X219538273Y-109983680D01*
X219799426Y-110091853D01*
X220076665Y-110147000D01*
X220359335Y-110147000D01*
X220636574Y-110091853D01*
X220897727Y-109983680D01*
X221132759Y-109826637D01*
X221332637Y-109626759D01*
X221488000Y-109394241D01*
X221643363Y-109626759D01*
X221843241Y-109826637D01*
X222078273Y-109983680D01*
X222339426Y-110091853D01*
X222616665Y-110147000D01*
X222899335Y-110147000D01*
X223176574Y-110091853D01*
X223437727Y-109983680D01*
X223672759Y-109826637D01*
X223872637Y-109626759D01*
X224028000Y-109394241D01*
X224183363Y-109626759D01*
X224383241Y-109826637D01*
X224618273Y-109983680D01*
X224879426Y-110091853D01*
X225156665Y-110147000D01*
X225439335Y-110147000D01*
X225716574Y-110091853D01*
X225977727Y-109983680D01*
X226212759Y-109826637D01*
X226412637Y-109626759D01*
X226569680Y-109391727D01*
X226677853Y-109130574D01*
X226733000Y-108853335D01*
X226733000Y-108570665D01*
X226677853Y-108293426D01*
X226569680Y-108032273D01*
X226412637Y-107797241D01*
X226212759Y-107597363D01*
X225977727Y-107440320D01*
X225716574Y-107332147D01*
X225439335Y-107277000D01*
X225156665Y-107277000D01*
X224879426Y-107332147D01*
X224618273Y-107440320D01*
X224383241Y-107597363D01*
X224183363Y-107797241D01*
X224028000Y-108029759D01*
X223872637Y-107797241D01*
X223672759Y-107597363D01*
X223437727Y-107440320D01*
X223176574Y-107332147D01*
X222899335Y-107277000D01*
X222616665Y-107277000D01*
X222339426Y-107332147D01*
X222078273Y-107440320D01*
X221843241Y-107597363D01*
X221643363Y-107797241D01*
X221488000Y-108029759D01*
X221332637Y-107797241D01*
X221132759Y-107597363D01*
X220897727Y-107440320D01*
X220636574Y-107332147D01*
X220359335Y-107277000D01*
X220076665Y-107277000D01*
X219799426Y-107332147D01*
X219538273Y-107440320D01*
X219303241Y-107597363D01*
X219103363Y-107797241D01*
X218948000Y-108029759D01*
X218792637Y-107797241D01*
X218592759Y-107597363D01*
X218357727Y-107440320D01*
X218096574Y-107332147D01*
X217819335Y-107277000D01*
X217536665Y-107277000D01*
X217259426Y-107332147D01*
X216998273Y-107440320D01*
X216763241Y-107597363D01*
X216563363Y-107797241D01*
X216408000Y-108029759D01*
X216252637Y-107797241D01*
X216052759Y-107597363D01*
X215817727Y-107440320D01*
X215556574Y-107332147D01*
X215279335Y-107277000D01*
X214996665Y-107277000D01*
X214719426Y-107332147D01*
X214458273Y-107440320D01*
X214223241Y-107597363D01*
X214023363Y-107797241D01*
X213868000Y-108029759D01*
X213712637Y-107797241D01*
X213512759Y-107597363D01*
X213277727Y-107440320D01*
X213016574Y-107332147D01*
X212739335Y-107277000D01*
X212456665Y-107277000D01*
X212179426Y-107332147D01*
X211918273Y-107440320D01*
X211683241Y-107597363D01*
X211483363Y-107797241D01*
X211328000Y-108029759D01*
X211172637Y-107797241D01*
X210972759Y-107597363D01*
X210737727Y-107440320D01*
X210476574Y-107332147D01*
X210199335Y-107277000D01*
X209916665Y-107277000D01*
X209639426Y-107332147D01*
X209378273Y-107440320D01*
X209143241Y-107597363D01*
X208943363Y-107797241D01*
X208788000Y-108029759D01*
X208632637Y-107797241D01*
X208432759Y-107597363D01*
X208197727Y-107440320D01*
X207936574Y-107332147D01*
X207659335Y-107277000D01*
X207376665Y-107277000D01*
X207099426Y-107332147D01*
X206838273Y-107440320D01*
X206603241Y-107597363D01*
X206403363Y-107797241D01*
X206247085Y-108031128D01*
X206214671Y-107970486D01*
X205970702Y-107898903D01*
X205157605Y-108712000D01*
X204798395Y-108712000D01*
X203985298Y-107898903D01*
X203741329Y-107970486D01*
X203710029Y-108036636D01*
X203674671Y-107970486D01*
X203430702Y-107898903D01*
X202617605Y-108712000D01*
X202258395Y-108712000D01*
X201445298Y-107898903D01*
X201201329Y-107970486D01*
X201170806Y-108034992D01*
X201169680Y-108032273D01*
X201012637Y-107797241D01*
X200934694Y-107719298D01*
X201624903Y-107719298D01*
X202438000Y-108532395D01*
X203251097Y-107719298D01*
X204164903Y-107719298D01*
X204978000Y-108532395D01*
X205791097Y-107719298D01*
X205719514Y-107475329D01*
X205464004Y-107354429D01*
X205189816Y-107285700D01*
X204907488Y-107271783D01*
X204627870Y-107313213D01*
X204361708Y-107408397D01*
X204236486Y-107475329D01*
X204164903Y-107719298D01*
X203251097Y-107719298D01*
X203179514Y-107475329D01*
X202924004Y-107354429D01*
X202649816Y-107285700D01*
X202367488Y-107271783D01*
X202087870Y-107313213D01*
X201821708Y-107408397D01*
X201696486Y-107475329D01*
X201624903Y-107719298D01*
X200934694Y-107719298D01*
X200812759Y-107597363D01*
X200577727Y-107440320D01*
X200316574Y-107332147D01*
X200039335Y-107277000D01*
X199756665Y-107277000D01*
X199479426Y-107332147D01*
X199218273Y-107440320D01*
X198983241Y-107597363D01*
X198784643Y-107795961D01*
X198783812Y-107787518D01*
X198747502Y-107667820D01*
X198688537Y-107557506D01*
X198609185Y-107460815D01*
X198512494Y-107381463D01*
X198402180Y-107322498D01*
X198282482Y-107286188D01*
X198158000Y-107273928D01*
X196558000Y-107273928D01*
X196433518Y-107286188D01*
X196313820Y-107322498D01*
X196203506Y-107381463D01*
X196106815Y-107460815D01*
X196027463Y-107557506D01*
X195968498Y-107667820D01*
X195932188Y-107787518D01*
X195919928Y-107912000D01*
X194233000Y-107912000D01*
X194233000Y-99352279D01*
X194886000Y-99352279D01*
X194886000Y-99649723D01*
X194944029Y-99941452D01*
X195057856Y-100216254D01*
X195223107Y-100463570D01*
X195433431Y-100673894D01*
X195680747Y-100839145D01*
X195955549Y-100952972D01*
X196247278Y-101011001D01*
X196544722Y-101011001D01*
X196836451Y-100952972D01*
X197111253Y-100839145D01*
X197358569Y-100673894D01*
X197568893Y-100463570D01*
X197734144Y-100216254D01*
X197847971Y-99941452D01*
X197906000Y-99649723D01*
X197906000Y-99352279D01*
X197884080Y-99242077D01*
X198847100Y-99242077D01*
X198847100Y-99759925D01*
X198948127Y-100267823D01*
X199146299Y-100746252D01*
X199434000Y-101176827D01*
X199800174Y-101543001D01*
X200230749Y-101830702D01*
X200709178Y-102028874D01*
X201217076Y-102129901D01*
X201734924Y-102129901D01*
X202242822Y-102028874D01*
X202721251Y-101830702D01*
X203151826Y-101543001D01*
X203518000Y-101176827D01*
X203805701Y-100746252D01*
X204003873Y-100267823D01*
X204104900Y-99759925D01*
X204104900Y-99242077D01*
X204003873Y-98734179D01*
X203968292Y-98648280D01*
X204274698Y-98853013D01*
X204663244Y-99013954D01*
X205075721Y-99096001D01*
X205096977Y-99096001D01*
X205046000Y-99352279D01*
X205046000Y-99649723D01*
X205104029Y-99941452D01*
X205217856Y-100216254D01*
X205383107Y-100463570D01*
X205593431Y-100673894D01*
X205840747Y-100839145D01*
X206115549Y-100952972D01*
X206407278Y-101011001D01*
X206704722Y-101011001D01*
X206996451Y-100952972D01*
X207271253Y-100839145D01*
X207518569Y-100673894D01*
X207728893Y-100463570D01*
X207894144Y-100216254D01*
X208007971Y-99941452D01*
X208066000Y-99649723D01*
X208066000Y-99352279D01*
X214009000Y-99352279D01*
X214009000Y-99649723D01*
X214067029Y-99941452D01*
X214180856Y-100216254D01*
X214346107Y-100463570D01*
X214556431Y-100673894D01*
X214803747Y-100839145D01*
X215078549Y-100952972D01*
X215370278Y-101011001D01*
X215667722Y-101011001D01*
X215959451Y-100952972D01*
X216234253Y-100839145D01*
X216481569Y-100673894D01*
X216691893Y-100463570D01*
X216857144Y-100216254D01*
X216970971Y-99941452D01*
X217029000Y-99649723D01*
X217029000Y-99352279D01*
X217007080Y-99242077D01*
X217970100Y-99242077D01*
X217970100Y-99759925D01*
X218071127Y-100267823D01*
X218269299Y-100746252D01*
X218557000Y-101176827D01*
X218923174Y-101543001D01*
X219353749Y-101830702D01*
X219832178Y-102028874D01*
X220340076Y-102129901D01*
X220857924Y-102129901D01*
X221365822Y-102028874D01*
X221844251Y-101830702D01*
X222274826Y-101543001D01*
X222641000Y-101176827D01*
X222928701Y-100746252D01*
X223126873Y-100267823D01*
X223227900Y-99759925D01*
X223227900Y-99242077D01*
X223126873Y-98734179D01*
X223091292Y-98648280D01*
X223397698Y-98853013D01*
X223786244Y-99013954D01*
X224198721Y-99096001D01*
X224219977Y-99096001D01*
X224169000Y-99352279D01*
X224169000Y-99649723D01*
X224227029Y-99941452D01*
X224340856Y-100216254D01*
X224506107Y-100463570D01*
X224716431Y-100673894D01*
X224963747Y-100839145D01*
X225238549Y-100952972D01*
X225530278Y-101011001D01*
X225827722Y-101011001D01*
X226119451Y-100952972D01*
X226394253Y-100839145D01*
X226641569Y-100673894D01*
X226851893Y-100463570D01*
X227017144Y-100216254D01*
X227130971Y-99941452D01*
X227189000Y-99649723D01*
X227189000Y-99352279D01*
X227130971Y-99060550D01*
X227017144Y-98785748D01*
X226851893Y-98538432D01*
X226641569Y-98328108D01*
X226394253Y-98162857D01*
X226221501Y-98091300D01*
X226301012Y-97972303D01*
X226461953Y-97583757D01*
X226544000Y-97171280D01*
X226544000Y-96750722D01*
X226461953Y-96338245D01*
X226301012Y-95949699D01*
X226067363Y-95600018D01*
X225769983Y-95302638D01*
X225420302Y-95068989D01*
X225031756Y-94908048D01*
X224619279Y-94826001D01*
X224198721Y-94826001D01*
X223786244Y-94908048D01*
X223397698Y-95068989D01*
X223048017Y-95302638D01*
X222750637Y-95600018D01*
X222516988Y-95949699D01*
X222356047Y-96338245D01*
X222274000Y-96750722D01*
X222274000Y-97171280D01*
X222345237Y-97529412D01*
X222274826Y-97459001D01*
X221844251Y-97171300D01*
X221365822Y-96973128D01*
X220857924Y-96872101D01*
X220340076Y-96872101D01*
X219832178Y-96973128D01*
X219353749Y-97171300D01*
X218923174Y-97459001D01*
X218557000Y-97825175D01*
X218269299Y-98255750D01*
X218071127Y-98734179D01*
X217970100Y-99242077D01*
X217007080Y-99242077D01*
X216970971Y-99060550D01*
X216857144Y-98785748D01*
X216691893Y-98538432D01*
X216481569Y-98328108D01*
X216234253Y-98162857D01*
X215959451Y-98049030D01*
X215667722Y-97991001D01*
X215370278Y-97991001D01*
X215078549Y-98049030D01*
X214803747Y-98162857D01*
X214556431Y-98328108D01*
X214346107Y-98538432D01*
X214180856Y-98785748D01*
X214067029Y-99060550D01*
X214009000Y-99352279D01*
X208066000Y-99352279D01*
X208007971Y-99060550D01*
X207894144Y-98785748D01*
X207728893Y-98538432D01*
X207518569Y-98328108D01*
X207271253Y-98162857D01*
X207098501Y-98091300D01*
X207178012Y-97972303D01*
X207338953Y-97583757D01*
X207421000Y-97171280D01*
X207421000Y-96750722D01*
X207338953Y-96338245D01*
X207178012Y-95949699D01*
X206944363Y-95600018D01*
X206646983Y-95302638D01*
X206297302Y-95068989D01*
X205908756Y-94908048D01*
X205496279Y-94826001D01*
X205075721Y-94826001D01*
X204663244Y-94908048D01*
X204274698Y-95068989D01*
X203925017Y-95302638D01*
X203627637Y-95600018D01*
X203393988Y-95949699D01*
X203233047Y-96338245D01*
X203151000Y-96750722D01*
X203151000Y-97171280D01*
X203222237Y-97529412D01*
X203151826Y-97459001D01*
X202721251Y-97171300D01*
X202242822Y-96973128D01*
X201734924Y-96872101D01*
X201217076Y-96872101D01*
X200709178Y-96973128D01*
X200230749Y-97171300D01*
X199800174Y-97459001D01*
X199434000Y-97825175D01*
X199146299Y-98255750D01*
X198948127Y-98734179D01*
X198847100Y-99242077D01*
X197884080Y-99242077D01*
X197847971Y-99060550D01*
X197734144Y-98785748D01*
X197568893Y-98538432D01*
X197358569Y-98328108D01*
X197111253Y-98162857D01*
X196836451Y-98049030D01*
X196544722Y-97991001D01*
X196247278Y-97991001D01*
X195955549Y-98049030D01*
X195680747Y-98162857D01*
X195433431Y-98328108D01*
X195223107Y-98538432D01*
X195057856Y-98785748D01*
X194944029Y-99060550D01*
X194886000Y-99352279D01*
X194233000Y-99352279D01*
X194233000Y-94210722D01*
X196801000Y-94210722D01*
X196801000Y-94631280D01*
X196883047Y-95043757D01*
X197043988Y-95432303D01*
X197277637Y-95781984D01*
X197575017Y-96079364D01*
X197924698Y-96313013D01*
X198313244Y-96473954D01*
X198725721Y-96556001D01*
X199146279Y-96556001D01*
X199558756Y-96473954D01*
X199947302Y-96313013D01*
X200296983Y-96079364D01*
X200594363Y-95781984D01*
X200828012Y-95432303D01*
X200988953Y-95043757D01*
X201071000Y-94631280D01*
X201071000Y-94210722D01*
X200988953Y-93798245D01*
X200828012Y-93409699D01*
X200775204Y-93330665D01*
X201003000Y-93330665D01*
X201003000Y-93613335D01*
X201058147Y-93890574D01*
X201166320Y-94151727D01*
X201323363Y-94386759D01*
X201523241Y-94586637D01*
X201758273Y-94743680D01*
X202019426Y-94851853D01*
X202296665Y-94907000D01*
X202579335Y-94907000D01*
X202856574Y-94851853D01*
X203117727Y-94743680D01*
X203352759Y-94586637D01*
X203552637Y-94386759D01*
X203670260Y-94210722D01*
X215924000Y-94210722D01*
X215924000Y-94631280D01*
X216006047Y-95043757D01*
X216166988Y-95432303D01*
X216400637Y-95781984D01*
X216698017Y-96079364D01*
X217047698Y-96313013D01*
X217436244Y-96473954D01*
X217848721Y-96556001D01*
X218269279Y-96556001D01*
X218681756Y-96473954D01*
X219070302Y-96313013D01*
X219419983Y-96079364D01*
X219717363Y-95781984D01*
X219951012Y-95432303D01*
X220111953Y-95043757D01*
X220194000Y-94631280D01*
X220194000Y-94210722D01*
X220111953Y-93798245D01*
X219951012Y-93409699D01*
X219898204Y-93330665D01*
X223863000Y-93330665D01*
X223863000Y-93613335D01*
X223918147Y-93890574D01*
X224026320Y-94151727D01*
X224183363Y-94386759D01*
X224383241Y-94586637D01*
X224618273Y-94743680D01*
X224879426Y-94851853D01*
X225156665Y-94907000D01*
X225439335Y-94907000D01*
X225716574Y-94851853D01*
X225977727Y-94743680D01*
X226212759Y-94586637D01*
X226412637Y-94386759D01*
X226569680Y-94151727D01*
X226677853Y-93890574D01*
X226733000Y-93613335D01*
X226733000Y-93330665D01*
X226677853Y-93053426D01*
X226569680Y-92792273D01*
X226412637Y-92557241D01*
X226212759Y-92357363D01*
X225977727Y-92200320D01*
X225716574Y-92092147D01*
X225439335Y-92037000D01*
X225156665Y-92037000D01*
X224879426Y-92092147D01*
X224618273Y-92200320D01*
X224383241Y-92357363D01*
X224183363Y-92557241D01*
X224026320Y-92792273D01*
X223918147Y-93053426D01*
X223863000Y-93330665D01*
X219898204Y-93330665D01*
X219717363Y-93060018D01*
X219419983Y-92762638D01*
X219070302Y-92528989D01*
X218681756Y-92368048D01*
X218269279Y-92286001D01*
X217848721Y-92286001D01*
X217436244Y-92368048D01*
X217047698Y-92528989D01*
X216698017Y-92762638D01*
X216400637Y-93060018D01*
X216166988Y-93409699D01*
X216006047Y-93798245D01*
X215924000Y-94210722D01*
X203670260Y-94210722D01*
X203709680Y-94151727D01*
X203817853Y-93890574D01*
X203873000Y-93613335D01*
X203873000Y-93330665D01*
X203817853Y-93053426D01*
X203709680Y-92792273D01*
X203552637Y-92557241D01*
X203352759Y-92357363D01*
X203117727Y-92200320D01*
X202856574Y-92092147D01*
X202579335Y-92037000D01*
X202296665Y-92037000D01*
X202019426Y-92092147D01*
X201758273Y-92200320D01*
X201523241Y-92357363D01*
X201323363Y-92557241D01*
X201166320Y-92792273D01*
X201058147Y-93053426D01*
X201003000Y-93330665D01*
X200775204Y-93330665D01*
X200594363Y-93060018D01*
X200296983Y-92762638D01*
X199947302Y-92528989D01*
X199558756Y-92368048D01*
X199146279Y-92286001D01*
X198725721Y-92286001D01*
X198313244Y-92368048D01*
X197924698Y-92528989D01*
X197575017Y-92762638D01*
X197277637Y-93060018D01*
X197043988Y-93409699D01*
X196883047Y-93798245D01*
X196801000Y-94210722D01*
X194233000Y-94210722D01*
X194233000Y-91685000D01*
X228550000Y-91685000D01*
X228550001Y-121315000D01*
M02*
