M48
; DRILL file {KiCad (5.1.5)-3} date 6/22/2021 4:47:56 PM
; FORMAT={-:-/ absolute / inch / decimal}
; #@! TF.CreationDate,2021-06-22T16:47:56-05:00
; #@! TF.GenerationSoftware,Kicad,Pcbnew,(5.1.5)-3
; #@! TF.FileFunction,NonPlated,1,2,NPTH
FMAT,2
INCH
T1C0.0689
T2C0.1181
T3C0.1570
%
G90
G05
T1
X7.7321Y-3.9174
X8.485Y-3.9174
X8.885Y-3.9174
X7.7321Y-4.665
X8.1321Y-4.665
X8.485Y-4.665
X8.885Y-4.665
X8.1321Y-3.9174
T2
X8.585Y-3.7174
X8.835Y-3.8174
X7.8321Y-4.465
X8.0821Y-4.565
X8.585Y-4.465
X8.835Y-4.565
X7.8321Y-3.7174
X8.0821Y-3.8174
T3
X8.685Y-3.9174
X7.9321Y-4.665
X8.685Y-4.665
X7.9321Y-3.9174
T0
M30
