%TF.GenerationSoftware,KiCad,Pcbnew,(5.1.6)-1*%
%TF.CreationDate,2022-02-07T14:22:24-06:00*%
%TF.ProjectId,Pikatea R26 Plate,50696b61-7465-4612-9052-323620506c61,rev?*%
%TF.SameCoordinates,Original*%
%TF.FileFunction,Profile,NP*%
%FSLAX46Y46*%
G04 Gerber Fmt 4.6, Leading zero omitted, Abs format (unit mm)*
G04 Created by KiCad (PCBNEW (5.1.6)-1) date 2022-02-07 14:22:24*
%MOMM*%
%LPD*%
G01*
G04 APERTURE LIST*
%TA.AperFunction,Profile*%
%ADD10C,0.050000*%
%TD*%
G04 APERTURE END LIST*
D10*
X138018730Y-92525000D02*
G75*
G02*
X135581270Y-92524999I-1218730J282123D01*
G01*
X135581269Y-139574999D02*
G75*
G02*
X138018731Y-139575001I1218731J-275001D01*
G01*
X91750000Y-132575000D02*
X91750000Y-118575000D01*
X91750000Y-118575000D02*
X77750000Y-118575000D01*
X77750000Y-132575000D02*
X91750000Y-132575000D01*
X77750000Y-118575000D02*
X77750000Y-132575000D01*
X91750000Y-113525000D02*
X91750000Y-99525000D01*
X77750000Y-113525000D02*
X91750000Y-113525000D01*
X77750000Y-99525000D02*
X77750000Y-113525000D01*
X91750000Y-99525000D02*
X77750000Y-99525000D01*
X195850000Y-132575000D02*
X195850000Y-118575000D01*
X181850000Y-132575000D02*
X195850000Y-132575000D01*
X96800000Y-113525000D02*
X110800000Y-113525000D01*
X110800000Y-132575000D02*
X110800000Y-118575000D01*
X110800000Y-99525000D02*
X96800000Y-99525000D01*
X162800000Y-99525000D02*
X162800000Y-113525000D01*
X176800000Y-113525000D02*
X176800000Y-99525000D01*
X176800000Y-99525000D02*
X162800000Y-99525000D01*
X202125230Y-137700230D02*
G75*
G03*
X202125230Y-137700230I-1150000J0D01*
G01*
X176800000Y-118575000D02*
X162800000Y-118575000D01*
X96800000Y-99525000D02*
X96800000Y-113525000D01*
X162800000Y-113525000D02*
X176800000Y-113525000D01*
X110800000Y-113525000D02*
X110800000Y-99525000D01*
X73774771Y-137700230D02*
G75*
G03*
X73774771Y-137700230I-1150000J0D01*
G01*
X96800000Y-118575000D02*
X96800000Y-132575000D01*
X110800000Y-118575000D02*
X96800000Y-118575000D01*
X176800000Y-132575000D02*
X176800000Y-118575000D01*
X96800000Y-132575000D02*
X110800000Y-132575000D01*
X162800000Y-132575000D02*
X176800000Y-132575000D01*
X162800000Y-118575000D02*
X162800000Y-132575000D01*
X73774771Y-94399771D02*
G75*
G03*
X73774771Y-94399771I-1150000J0D01*
G01*
X202850000Y-139575000D02*
X202850000Y-92525000D01*
X138175001Y-110670000D02*
X138175001Y-109170000D01*
X135425001Y-109170000D02*
X135425001Y-110670000D01*
X202125230Y-94399771D02*
G75*
G03*
X202125230Y-94399771I-1150000J0D01*
G01*
X202850000Y-92525000D02*
X138018732Y-92525000D01*
X181850000Y-99525000D02*
X181850000Y-113525000D01*
X138018732Y-139575000D02*
X202850000Y-139575000D01*
X135425001Y-110670000D02*
X138175001Y-110670000D01*
X195850000Y-99525000D02*
X181850000Y-99525000D01*
X70750000Y-92525000D02*
X70750000Y-139575000D01*
X181850000Y-118575000D02*
X181850000Y-132575000D01*
X70750000Y-139575000D02*
X135581269Y-139575000D01*
X138175001Y-109170000D02*
X135425001Y-109170000D01*
X195850000Y-118575000D02*
X181850000Y-118575000D01*
X135581269Y-92525000D02*
X70750000Y-92525000D01*
X195850000Y-113525000D02*
X195850000Y-99525000D01*
X181850000Y-113525000D02*
X195850000Y-113525000D01*
M02*
