%TF.GenerationSoftware,KiCad,Pcbnew,(5.1.6)-1*%
%TF.CreationDate,2022-02-07T14:22:23-06:00*%
%TF.ProjectId,Pikatea R26 Plate,50696b61-7465-4612-9052-323620506c61,rev?*%
%TF.SameCoordinates,Original*%
%TF.FileFunction,Copper,L2,Bot*%
%TF.FilePolarity,Positive*%
%FSLAX46Y46*%
G04 Gerber Fmt 4.6, Leading zero omitted, Abs format (unit mm)*
G04 Created by KiCad (PCBNEW (5.1.6)-1) date 2022-02-07 14:22:23*
%MOMM*%
%LPD*%
G01*
G04 APERTURE LIST*
%TA.AperFunction,ComponentPad*%
%ADD10C,8.500000*%
%TD*%
%TA.AperFunction,Conductor*%
%ADD11C,0.254000*%
%TD*%
G04 APERTURE END LIST*
D10*
%TO.P,TP1,1*%
%TO.N,GND*%
X136800000Y-116050000D03*
%TD*%
D11*
%TO.N,GND*%
G36*
X135157490Y-93215523D02*
G01*
X135189678Y-93265919D01*
X135221180Y-93316794D01*
X135226824Y-93324078D01*
X135377692Y-93516030D01*
X135419057Y-93559216D01*
X135459840Y-93603003D01*
X135466792Y-93609053D01*
X135652070Y-93768045D01*
X135701040Y-93802377D01*
X135749548Y-93837406D01*
X135757542Y-93841990D01*
X135970173Y-93961966D01*
X136024904Y-93986143D01*
X136079263Y-94011070D01*
X136087995Y-94014014D01*
X136319880Y-94090406D01*
X136378200Y-94103478D01*
X136436436Y-94117388D01*
X136445574Y-94118580D01*
X136687880Y-94148476D01*
X136747641Y-94149971D01*
X136807453Y-94152305D01*
X136816648Y-94151699D01*
X137060147Y-94133962D01*
X137119083Y-94123818D01*
X137178186Y-94114493D01*
X137187087Y-94112112D01*
X137187090Y-94112112D01*
X137187093Y-94112111D01*
X137422506Y-94047417D01*
X137478342Y-94026021D01*
X137534517Y-94005391D01*
X137542788Y-94001327D01*
X137761155Y-93892138D01*
X137811781Y-93860298D01*
X137862869Y-93829156D01*
X137870193Y-93823563D01*
X138063193Y-93674039D01*
X138106689Y-93632955D01*
X138150737Y-93592499D01*
X138156835Y-93585590D01*
X138317116Y-93401428D01*
X138351805Y-93352676D01*
X138387156Y-93304436D01*
X138391792Y-93296480D01*
X138391795Y-93296475D01*
X138391797Y-93296470D01*
X138455724Y-93185000D01*
X199614452Y-93185000D01*
X199560621Y-93238831D01*
X199361314Y-93537115D01*
X199224029Y-93868550D01*
X199154042Y-94220400D01*
X199154042Y-94579142D01*
X199224029Y-94930992D01*
X199361314Y-95262427D01*
X199560621Y-95560711D01*
X199814290Y-95814380D01*
X200112574Y-96013687D01*
X200444009Y-96150972D01*
X200795859Y-96220959D01*
X201154601Y-96220959D01*
X201506451Y-96150972D01*
X201837886Y-96013687D01*
X202136170Y-95814380D01*
X202190001Y-95760549D01*
X202190000Y-136339451D01*
X202136170Y-136285621D01*
X201837886Y-136086314D01*
X201506451Y-135949029D01*
X201154601Y-135879042D01*
X200795859Y-135879042D01*
X200444009Y-135949029D01*
X200112574Y-136086314D01*
X199814290Y-136285621D01*
X199560621Y-136539290D01*
X199361314Y-136837574D01*
X199224029Y-137169009D01*
X199154042Y-137520859D01*
X199154042Y-137879601D01*
X199224029Y-138231451D01*
X199361314Y-138562886D01*
X199560621Y-138861170D01*
X199614451Y-138915000D01*
X138459422Y-138915000D01*
X138435751Y-138869108D01*
X138403282Y-138818889D01*
X138371499Y-138768191D01*
X138365815Y-138760938D01*
X138214075Y-138570070D01*
X138172457Y-138527100D01*
X138131447Y-138483557D01*
X138124462Y-138477546D01*
X137938540Y-138319785D01*
X137889370Y-138285718D01*
X137840678Y-138250966D01*
X137832658Y-138246426D01*
X137619634Y-138127783D01*
X137564810Y-138103928D01*
X137510271Y-138079284D01*
X137501522Y-138076389D01*
X137269512Y-138001382D01*
X137211121Y-137988634D01*
X137152811Y-137975048D01*
X137143666Y-137973907D01*
X136901504Y-137945393D01*
X136841701Y-137944229D01*
X136781911Y-137942229D01*
X136772719Y-137942886D01*
X136529632Y-137961951D01*
X136470783Y-137972417D01*
X136411702Y-137982075D01*
X136402815Y-137984504D01*
X136402809Y-137984506D01*
X136168057Y-138050423D01*
X136112329Y-138072133D01*
X136056281Y-138093071D01*
X136048033Y-138097181D01*
X135830552Y-138207440D01*
X135780088Y-138239571D01*
X135729190Y-138270986D01*
X135721897Y-138276620D01*
X135529975Y-138427021D01*
X135486739Y-138468316D01*
X135442882Y-138509048D01*
X135436823Y-138515991D01*
X135277769Y-138700808D01*
X135243383Y-138749706D01*
X135208272Y-138798182D01*
X135203676Y-138806170D01*
X135142064Y-138915000D01*
X73985550Y-138915000D01*
X74039380Y-138861170D01*
X74238687Y-138562886D01*
X74375972Y-138231451D01*
X74445959Y-137879601D01*
X74445959Y-137520859D01*
X74375972Y-137169009D01*
X74238687Y-136837574D01*
X74039380Y-136539290D01*
X73785711Y-136285621D01*
X73487427Y-136086314D01*
X73155992Y-135949029D01*
X72804142Y-135879042D01*
X72445400Y-135879042D01*
X72093550Y-135949029D01*
X71762115Y-136086314D01*
X71463831Y-136285621D01*
X71410000Y-136339452D01*
X71410000Y-118575000D01*
X77086807Y-118575000D01*
X77090000Y-118607419D01*
X77090001Y-132542571D01*
X77086807Y-132575000D01*
X77099550Y-132704383D01*
X77137290Y-132828793D01*
X77198575Y-132943450D01*
X77281052Y-133043948D01*
X77381550Y-133126425D01*
X77496207Y-133187710D01*
X77620617Y-133225450D01*
X77717581Y-133235000D01*
X77750000Y-133238193D01*
X77782419Y-133235000D01*
X91717581Y-133235000D01*
X91750000Y-133238193D01*
X91782419Y-133235000D01*
X91879383Y-133225450D01*
X92003793Y-133187710D01*
X92118450Y-133126425D01*
X92218948Y-133043948D01*
X92301425Y-132943450D01*
X92362710Y-132828793D01*
X92400450Y-132704383D01*
X92413193Y-132575000D01*
X92410000Y-132542581D01*
X92410000Y-118607419D01*
X92413193Y-118575000D01*
X96136807Y-118575000D01*
X96140000Y-118607419D01*
X96140001Y-132542571D01*
X96136807Y-132575000D01*
X96149550Y-132704383D01*
X96187290Y-132828793D01*
X96248575Y-132943450D01*
X96331052Y-133043948D01*
X96431550Y-133126425D01*
X96546207Y-133187710D01*
X96670617Y-133225450D01*
X96767581Y-133235000D01*
X96800000Y-133238193D01*
X96832419Y-133235000D01*
X110767581Y-133235000D01*
X110800000Y-133238193D01*
X110832419Y-133235000D01*
X110929383Y-133225450D01*
X111053793Y-133187710D01*
X111168450Y-133126425D01*
X111268948Y-133043948D01*
X111351425Y-132943450D01*
X111412710Y-132828793D01*
X111450450Y-132704383D01*
X111463193Y-132575000D01*
X111460000Y-132542581D01*
X111460000Y-119497278D01*
X133532327Y-119497278D01*
X134018487Y-120094490D01*
X134860973Y-120559422D01*
X135777975Y-120851061D01*
X136734254Y-120958197D01*
X137693059Y-120876714D01*
X138617544Y-120609743D01*
X139472183Y-120167543D01*
X139581513Y-120094490D01*
X140067673Y-119497278D01*
X136800000Y-116229605D01*
X133532327Y-119497278D01*
X111460000Y-119497278D01*
X111460000Y-118607419D01*
X111463193Y-118575000D01*
X111450450Y-118445617D01*
X111412710Y-118321207D01*
X111351425Y-118206550D01*
X111268948Y-118106052D01*
X111168450Y-118023575D01*
X111053793Y-117962290D01*
X110929383Y-117924550D01*
X110832419Y-117915000D01*
X110800000Y-117911807D01*
X110767581Y-117915000D01*
X96832419Y-117915000D01*
X96800000Y-117911807D01*
X96767581Y-117915000D01*
X96670617Y-117924550D01*
X96546207Y-117962290D01*
X96431550Y-118023575D01*
X96331052Y-118106052D01*
X96248575Y-118206550D01*
X96187290Y-118321207D01*
X96149550Y-118445617D01*
X96136807Y-118575000D01*
X92413193Y-118575000D01*
X92400450Y-118445617D01*
X92362710Y-118321207D01*
X92301425Y-118206550D01*
X92218948Y-118106052D01*
X92118450Y-118023575D01*
X92003793Y-117962290D01*
X91879383Y-117924550D01*
X91782419Y-117915000D01*
X91750000Y-117911807D01*
X91717581Y-117915000D01*
X77782419Y-117915000D01*
X77750000Y-117911807D01*
X77717581Y-117915000D01*
X77620617Y-117924550D01*
X77496207Y-117962290D01*
X77381550Y-118023575D01*
X77281052Y-118106052D01*
X77198575Y-118206550D01*
X77137290Y-118321207D01*
X77099550Y-118445617D01*
X77086807Y-118575000D01*
X71410000Y-118575000D01*
X71410000Y-115984254D01*
X131891803Y-115984254D01*
X131973286Y-116943059D01*
X132240257Y-117867544D01*
X132682457Y-118722183D01*
X132755510Y-118831513D01*
X133352722Y-119317673D01*
X136620395Y-116050000D01*
X136979605Y-116050000D01*
X140247278Y-119317673D01*
X140844490Y-118831513D01*
X140986048Y-118575000D01*
X162136807Y-118575000D01*
X162140000Y-118607419D01*
X162140001Y-132542571D01*
X162136807Y-132575000D01*
X162149550Y-132704383D01*
X162187290Y-132828793D01*
X162248575Y-132943450D01*
X162331052Y-133043948D01*
X162431550Y-133126425D01*
X162546207Y-133187710D01*
X162670617Y-133225450D01*
X162767581Y-133235000D01*
X162800000Y-133238193D01*
X162832419Y-133235000D01*
X176767581Y-133235000D01*
X176800000Y-133238193D01*
X176832419Y-133235000D01*
X176929383Y-133225450D01*
X177053793Y-133187710D01*
X177168450Y-133126425D01*
X177268948Y-133043948D01*
X177351425Y-132943450D01*
X177412710Y-132828793D01*
X177450450Y-132704383D01*
X177463193Y-132575000D01*
X177460000Y-132542581D01*
X177460000Y-118607419D01*
X177463193Y-118575000D01*
X181186807Y-118575000D01*
X181190000Y-118607419D01*
X181190001Y-132542571D01*
X181186807Y-132575000D01*
X181199550Y-132704383D01*
X181237290Y-132828793D01*
X181298575Y-132943450D01*
X181381052Y-133043948D01*
X181481550Y-133126425D01*
X181596207Y-133187710D01*
X181720617Y-133225450D01*
X181817581Y-133235000D01*
X181850000Y-133238193D01*
X181882419Y-133235000D01*
X195817581Y-133235000D01*
X195850000Y-133238193D01*
X195882419Y-133235000D01*
X195979383Y-133225450D01*
X196103793Y-133187710D01*
X196218450Y-133126425D01*
X196318948Y-133043948D01*
X196401425Y-132943450D01*
X196462710Y-132828793D01*
X196500450Y-132704383D01*
X196513193Y-132575000D01*
X196510000Y-132542581D01*
X196510000Y-118607419D01*
X196513193Y-118575000D01*
X196500450Y-118445617D01*
X196462710Y-118321207D01*
X196401425Y-118206550D01*
X196318948Y-118106052D01*
X196218450Y-118023575D01*
X196103793Y-117962290D01*
X195979383Y-117924550D01*
X195882419Y-117915000D01*
X195850000Y-117911807D01*
X195817581Y-117915000D01*
X181882419Y-117915000D01*
X181850000Y-117911807D01*
X181817581Y-117915000D01*
X181720617Y-117924550D01*
X181596207Y-117962290D01*
X181481550Y-118023575D01*
X181381052Y-118106052D01*
X181298575Y-118206550D01*
X181237290Y-118321207D01*
X181199550Y-118445617D01*
X181186807Y-118575000D01*
X177463193Y-118575000D01*
X177450450Y-118445617D01*
X177412710Y-118321207D01*
X177351425Y-118206550D01*
X177268948Y-118106052D01*
X177168450Y-118023575D01*
X177053793Y-117962290D01*
X176929383Y-117924550D01*
X176832419Y-117915000D01*
X176800000Y-117911807D01*
X176767581Y-117915000D01*
X162832419Y-117915000D01*
X162800000Y-117911807D01*
X162767581Y-117915000D01*
X162670617Y-117924550D01*
X162546207Y-117962290D01*
X162431550Y-118023575D01*
X162331052Y-118106052D01*
X162248575Y-118206550D01*
X162187290Y-118321207D01*
X162149550Y-118445617D01*
X162136807Y-118575000D01*
X140986048Y-118575000D01*
X141309422Y-117989027D01*
X141601061Y-117072025D01*
X141708197Y-116115746D01*
X141626714Y-115156941D01*
X141359743Y-114232456D01*
X140917543Y-113377817D01*
X140844490Y-113268487D01*
X140247278Y-112782327D01*
X136979605Y-116050000D01*
X136620395Y-116050000D01*
X133352722Y-112782327D01*
X132755510Y-113268487D01*
X132290578Y-114110973D01*
X131998939Y-115027975D01*
X131891803Y-115984254D01*
X71410000Y-115984254D01*
X71410000Y-99525000D01*
X77086807Y-99525000D01*
X77090000Y-99557419D01*
X77090001Y-113492571D01*
X77086807Y-113525000D01*
X77099550Y-113654383D01*
X77137290Y-113778793D01*
X77198575Y-113893450D01*
X77281052Y-113993948D01*
X77381550Y-114076425D01*
X77496207Y-114137710D01*
X77620617Y-114175450D01*
X77717581Y-114185000D01*
X77750000Y-114188193D01*
X77782419Y-114185000D01*
X91717581Y-114185000D01*
X91750000Y-114188193D01*
X91782419Y-114185000D01*
X91879383Y-114175450D01*
X92003793Y-114137710D01*
X92118450Y-114076425D01*
X92218948Y-113993948D01*
X92301425Y-113893450D01*
X92362710Y-113778793D01*
X92400450Y-113654383D01*
X92413193Y-113525000D01*
X92410000Y-113492581D01*
X92410000Y-99557419D01*
X92413193Y-99525000D01*
X96136807Y-99525000D01*
X96140000Y-99557419D01*
X96140001Y-113492571D01*
X96136807Y-113525000D01*
X96149550Y-113654383D01*
X96187290Y-113778793D01*
X96248575Y-113893450D01*
X96331052Y-113993948D01*
X96431550Y-114076425D01*
X96546207Y-114137710D01*
X96670617Y-114175450D01*
X96767581Y-114185000D01*
X96800000Y-114188193D01*
X96832419Y-114185000D01*
X110767581Y-114185000D01*
X110800000Y-114188193D01*
X110832419Y-114185000D01*
X110929383Y-114175450D01*
X111053793Y-114137710D01*
X111168450Y-114076425D01*
X111268948Y-113993948D01*
X111351425Y-113893450D01*
X111412710Y-113778793D01*
X111450450Y-113654383D01*
X111463193Y-113525000D01*
X111460000Y-113492581D01*
X111460000Y-112602722D01*
X133532327Y-112602722D01*
X136800000Y-115870395D01*
X140067673Y-112602722D01*
X139581513Y-112005510D01*
X138739027Y-111540578D01*
X138076906Y-111330000D01*
X138142582Y-111330000D01*
X138175001Y-111333193D01*
X138207420Y-111330000D01*
X138304384Y-111320450D01*
X138428794Y-111282710D01*
X138543451Y-111221425D01*
X138643949Y-111138948D01*
X138726426Y-111038450D01*
X138787711Y-110923793D01*
X138825451Y-110799383D01*
X138838194Y-110670000D01*
X138835001Y-110637581D01*
X138835001Y-109202419D01*
X138838194Y-109170000D01*
X138825451Y-109040617D01*
X138787711Y-108916207D01*
X138726426Y-108801550D01*
X138643949Y-108701052D01*
X138543451Y-108618575D01*
X138428794Y-108557290D01*
X138304384Y-108519550D01*
X138207420Y-108510000D01*
X138175001Y-108506807D01*
X138142582Y-108510000D01*
X135457420Y-108510000D01*
X135425001Y-108506807D01*
X135392582Y-108510000D01*
X135295618Y-108519550D01*
X135171208Y-108557290D01*
X135056551Y-108618575D01*
X134956053Y-108701052D01*
X134873576Y-108801550D01*
X134812291Y-108916207D01*
X134774551Y-109040617D01*
X134761808Y-109170000D01*
X134765001Y-109202420D01*
X134765002Y-110637571D01*
X134761808Y-110670000D01*
X134774551Y-110799383D01*
X134812291Y-110923793D01*
X134873576Y-111038450D01*
X134956053Y-111138948D01*
X135056551Y-111221425D01*
X135171208Y-111282710D01*
X135295618Y-111320450D01*
X135392582Y-111330000D01*
X135425001Y-111333193D01*
X135457420Y-111330000D01*
X135537405Y-111330000D01*
X134982456Y-111490257D01*
X134127817Y-111932457D01*
X134018487Y-112005510D01*
X133532327Y-112602722D01*
X111460000Y-112602722D01*
X111460000Y-99557419D01*
X111463193Y-99525000D01*
X162136807Y-99525000D01*
X162140000Y-99557419D01*
X162140001Y-113492571D01*
X162136807Y-113525000D01*
X162149550Y-113654383D01*
X162187290Y-113778793D01*
X162248575Y-113893450D01*
X162331052Y-113993948D01*
X162431550Y-114076425D01*
X162546207Y-114137710D01*
X162670617Y-114175450D01*
X162767581Y-114185000D01*
X162800000Y-114188193D01*
X162832419Y-114185000D01*
X176767581Y-114185000D01*
X176800000Y-114188193D01*
X176832419Y-114185000D01*
X176929383Y-114175450D01*
X177053793Y-114137710D01*
X177168450Y-114076425D01*
X177268948Y-113993948D01*
X177351425Y-113893450D01*
X177412710Y-113778793D01*
X177450450Y-113654383D01*
X177463193Y-113525000D01*
X177460000Y-113492581D01*
X177460000Y-99557419D01*
X177463193Y-99525000D01*
X181186807Y-99525000D01*
X181190000Y-99557419D01*
X181190001Y-113492571D01*
X181186807Y-113525000D01*
X181199550Y-113654383D01*
X181237290Y-113778793D01*
X181298575Y-113893450D01*
X181381052Y-113993948D01*
X181481550Y-114076425D01*
X181596207Y-114137710D01*
X181720617Y-114175450D01*
X181817581Y-114185000D01*
X181850000Y-114188193D01*
X181882419Y-114185000D01*
X195817581Y-114185000D01*
X195850000Y-114188193D01*
X195882419Y-114185000D01*
X195979383Y-114175450D01*
X196103793Y-114137710D01*
X196218450Y-114076425D01*
X196318948Y-113993948D01*
X196401425Y-113893450D01*
X196462710Y-113778793D01*
X196500450Y-113654383D01*
X196513193Y-113525000D01*
X196510000Y-113492581D01*
X196510000Y-99557419D01*
X196513193Y-99525000D01*
X196500450Y-99395617D01*
X196462710Y-99271207D01*
X196401425Y-99156550D01*
X196318948Y-99056052D01*
X196218450Y-98973575D01*
X196103793Y-98912290D01*
X195979383Y-98874550D01*
X195882419Y-98865000D01*
X195850000Y-98861807D01*
X195817581Y-98865000D01*
X181882419Y-98865000D01*
X181850000Y-98861807D01*
X181817581Y-98865000D01*
X181720617Y-98874550D01*
X181596207Y-98912290D01*
X181481550Y-98973575D01*
X181381052Y-99056052D01*
X181298575Y-99156550D01*
X181237290Y-99271207D01*
X181199550Y-99395617D01*
X181186807Y-99525000D01*
X177463193Y-99525000D01*
X177450450Y-99395617D01*
X177412710Y-99271207D01*
X177351425Y-99156550D01*
X177268948Y-99056052D01*
X177168450Y-98973575D01*
X177053793Y-98912290D01*
X176929383Y-98874550D01*
X176832419Y-98865000D01*
X176800000Y-98861807D01*
X176767581Y-98865000D01*
X162832419Y-98865000D01*
X162800000Y-98861807D01*
X162767581Y-98865000D01*
X162670617Y-98874550D01*
X162546207Y-98912290D01*
X162431550Y-98973575D01*
X162331052Y-99056052D01*
X162248575Y-99156550D01*
X162187290Y-99271207D01*
X162149550Y-99395617D01*
X162136807Y-99525000D01*
X111463193Y-99525000D01*
X111450450Y-99395617D01*
X111412710Y-99271207D01*
X111351425Y-99156550D01*
X111268948Y-99056052D01*
X111168450Y-98973575D01*
X111053793Y-98912290D01*
X110929383Y-98874550D01*
X110832419Y-98865000D01*
X110800000Y-98861807D01*
X110767581Y-98865000D01*
X96832419Y-98865000D01*
X96800000Y-98861807D01*
X96767581Y-98865000D01*
X96670617Y-98874550D01*
X96546207Y-98912290D01*
X96431550Y-98973575D01*
X96331052Y-99056052D01*
X96248575Y-99156550D01*
X96187290Y-99271207D01*
X96149550Y-99395617D01*
X96136807Y-99525000D01*
X92413193Y-99525000D01*
X92400450Y-99395617D01*
X92362710Y-99271207D01*
X92301425Y-99156550D01*
X92218948Y-99056052D01*
X92118450Y-98973575D01*
X92003793Y-98912290D01*
X91879383Y-98874550D01*
X91782419Y-98865000D01*
X91750000Y-98861807D01*
X91717581Y-98865000D01*
X77782419Y-98865000D01*
X77750000Y-98861807D01*
X77717581Y-98865000D01*
X77620617Y-98874550D01*
X77496207Y-98912290D01*
X77381550Y-98973575D01*
X77281052Y-99056052D01*
X77198575Y-99156550D01*
X77137290Y-99271207D01*
X77099550Y-99395617D01*
X77086807Y-99525000D01*
X71410000Y-99525000D01*
X71410000Y-95760549D01*
X71463831Y-95814380D01*
X71762115Y-96013687D01*
X72093550Y-96150972D01*
X72445400Y-96220959D01*
X72804142Y-96220959D01*
X73155992Y-96150972D01*
X73487427Y-96013687D01*
X73785711Y-95814380D01*
X74039380Y-95560711D01*
X74238687Y-95262427D01*
X74375972Y-94930992D01*
X74445959Y-94579142D01*
X74445959Y-94220400D01*
X74375972Y-93868550D01*
X74238687Y-93537115D01*
X74039380Y-93238831D01*
X73985549Y-93185000D01*
X135141960Y-93185000D01*
X135157490Y-93215523D01*
G37*
X135157490Y-93215523D02*
X135189678Y-93265919D01*
X135221180Y-93316794D01*
X135226824Y-93324078D01*
X135377692Y-93516030D01*
X135419057Y-93559216D01*
X135459840Y-93603003D01*
X135466792Y-93609053D01*
X135652070Y-93768045D01*
X135701040Y-93802377D01*
X135749548Y-93837406D01*
X135757542Y-93841990D01*
X135970173Y-93961966D01*
X136024904Y-93986143D01*
X136079263Y-94011070D01*
X136087995Y-94014014D01*
X136319880Y-94090406D01*
X136378200Y-94103478D01*
X136436436Y-94117388D01*
X136445574Y-94118580D01*
X136687880Y-94148476D01*
X136747641Y-94149971D01*
X136807453Y-94152305D01*
X136816648Y-94151699D01*
X137060147Y-94133962D01*
X137119083Y-94123818D01*
X137178186Y-94114493D01*
X137187087Y-94112112D01*
X137187090Y-94112112D01*
X137187093Y-94112111D01*
X137422506Y-94047417D01*
X137478342Y-94026021D01*
X137534517Y-94005391D01*
X137542788Y-94001327D01*
X137761155Y-93892138D01*
X137811781Y-93860298D01*
X137862869Y-93829156D01*
X137870193Y-93823563D01*
X138063193Y-93674039D01*
X138106689Y-93632955D01*
X138150737Y-93592499D01*
X138156835Y-93585590D01*
X138317116Y-93401428D01*
X138351805Y-93352676D01*
X138387156Y-93304436D01*
X138391792Y-93296480D01*
X138391795Y-93296475D01*
X138391797Y-93296470D01*
X138455724Y-93185000D01*
X199614452Y-93185000D01*
X199560621Y-93238831D01*
X199361314Y-93537115D01*
X199224029Y-93868550D01*
X199154042Y-94220400D01*
X199154042Y-94579142D01*
X199224029Y-94930992D01*
X199361314Y-95262427D01*
X199560621Y-95560711D01*
X199814290Y-95814380D01*
X200112574Y-96013687D01*
X200444009Y-96150972D01*
X200795859Y-96220959D01*
X201154601Y-96220959D01*
X201506451Y-96150972D01*
X201837886Y-96013687D01*
X202136170Y-95814380D01*
X202190001Y-95760549D01*
X202190000Y-136339451D01*
X202136170Y-136285621D01*
X201837886Y-136086314D01*
X201506451Y-135949029D01*
X201154601Y-135879042D01*
X200795859Y-135879042D01*
X200444009Y-135949029D01*
X200112574Y-136086314D01*
X199814290Y-136285621D01*
X199560621Y-136539290D01*
X199361314Y-136837574D01*
X199224029Y-137169009D01*
X199154042Y-137520859D01*
X199154042Y-137879601D01*
X199224029Y-138231451D01*
X199361314Y-138562886D01*
X199560621Y-138861170D01*
X199614451Y-138915000D01*
X138459422Y-138915000D01*
X138435751Y-138869108D01*
X138403282Y-138818889D01*
X138371499Y-138768191D01*
X138365815Y-138760938D01*
X138214075Y-138570070D01*
X138172457Y-138527100D01*
X138131447Y-138483557D01*
X138124462Y-138477546D01*
X137938540Y-138319785D01*
X137889370Y-138285718D01*
X137840678Y-138250966D01*
X137832658Y-138246426D01*
X137619634Y-138127783D01*
X137564810Y-138103928D01*
X137510271Y-138079284D01*
X137501522Y-138076389D01*
X137269512Y-138001382D01*
X137211121Y-137988634D01*
X137152811Y-137975048D01*
X137143666Y-137973907D01*
X136901504Y-137945393D01*
X136841701Y-137944229D01*
X136781911Y-137942229D01*
X136772719Y-137942886D01*
X136529632Y-137961951D01*
X136470783Y-137972417D01*
X136411702Y-137982075D01*
X136402815Y-137984504D01*
X136402809Y-137984506D01*
X136168057Y-138050423D01*
X136112329Y-138072133D01*
X136056281Y-138093071D01*
X136048033Y-138097181D01*
X135830552Y-138207440D01*
X135780088Y-138239571D01*
X135729190Y-138270986D01*
X135721897Y-138276620D01*
X135529975Y-138427021D01*
X135486739Y-138468316D01*
X135442882Y-138509048D01*
X135436823Y-138515991D01*
X135277769Y-138700808D01*
X135243383Y-138749706D01*
X135208272Y-138798182D01*
X135203676Y-138806170D01*
X135142064Y-138915000D01*
X73985550Y-138915000D01*
X74039380Y-138861170D01*
X74238687Y-138562886D01*
X74375972Y-138231451D01*
X74445959Y-137879601D01*
X74445959Y-137520859D01*
X74375972Y-137169009D01*
X74238687Y-136837574D01*
X74039380Y-136539290D01*
X73785711Y-136285621D01*
X73487427Y-136086314D01*
X73155992Y-135949029D01*
X72804142Y-135879042D01*
X72445400Y-135879042D01*
X72093550Y-135949029D01*
X71762115Y-136086314D01*
X71463831Y-136285621D01*
X71410000Y-136339452D01*
X71410000Y-118575000D01*
X77086807Y-118575000D01*
X77090000Y-118607419D01*
X77090001Y-132542571D01*
X77086807Y-132575000D01*
X77099550Y-132704383D01*
X77137290Y-132828793D01*
X77198575Y-132943450D01*
X77281052Y-133043948D01*
X77381550Y-133126425D01*
X77496207Y-133187710D01*
X77620617Y-133225450D01*
X77717581Y-133235000D01*
X77750000Y-133238193D01*
X77782419Y-133235000D01*
X91717581Y-133235000D01*
X91750000Y-133238193D01*
X91782419Y-133235000D01*
X91879383Y-133225450D01*
X92003793Y-133187710D01*
X92118450Y-133126425D01*
X92218948Y-133043948D01*
X92301425Y-132943450D01*
X92362710Y-132828793D01*
X92400450Y-132704383D01*
X92413193Y-132575000D01*
X92410000Y-132542581D01*
X92410000Y-118607419D01*
X92413193Y-118575000D01*
X96136807Y-118575000D01*
X96140000Y-118607419D01*
X96140001Y-132542571D01*
X96136807Y-132575000D01*
X96149550Y-132704383D01*
X96187290Y-132828793D01*
X96248575Y-132943450D01*
X96331052Y-133043948D01*
X96431550Y-133126425D01*
X96546207Y-133187710D01*
X96670617Y-133225450D01*
X96767581Y-133235000D01*
X96800000Y-133238193D01*
X96832419Y-133235000D01*
X110767581Y-133235000D01*
X110800000Y-133238193D01*
X110832419Y-133235000D01*
X110929383Y-133225450D01*
X111053793Y-133187710D01*
X111168450Y-133126425D01*
X111268948Y-133043948D01*
X111351425Y-132943450D01*
X111412710Y-132828793D01*
X111450450Y-132704383D01*
X111463193Y-132575000D01*
X111460000Y-132542581D01*
X111460000Y-119497278D01*
X133532327Y-119497278D01*
X134018487Y-120094490D01*
X134860973Y-120559422D01*
X135777975Y-120851061D01*
X136734254Y-120958197D01*
X137693059Y-120876714D01*
X138617544Y-120609743D01*
X139472183Y-120167543D01*
X139581513Y-120094490D01*
X140067673Y-119497278D01*
X136800000Y-116229605D01*
X133532327Y-119497278D01*
X111460000Y-119497278D01*
X111460000Y-118607419D01*
X111463193Y-118575000D01*
X111450450Y-118445617D01*
X111412710Y-118321207D01*
X111351425Y-118206550D01*
X111268948Y-118106052D01*
X111168450Y-118023575D01*
X111053793Y-117962290D01*
X110929383Y-117924550D01*
X110832419Y-117915000D01*
X110800000Y-117911807D01*
X110767581Y-117915000D01*
X96832419Y-117915000D01*
X96800000Y-117911807D01*
X96767581Y-117915000D01*
X96670617Y-117924550D01*
X96546207Y-117962290D01*
X96431550Y-118023575D01*
X96331052Y-118106052D01*
X96248575Y-118206550D01*
X96187290Y-118321207D01*
X96149550Y-118445617D01*
X96136807Y-118575000D01*
X92413193Y-118575000D01*
X92400450Y-118445617D01*
X92362710Y-118321207D01*
X92301425Y-118206550D01*
X92218948Y-118106052D01*
X92118450Y-118023575D01*
X92003793Y-117962290D01*
X91879383Y-117924550D01*
X91782419Y-117915000D01*
X91750000Y-117911807D01*
X91717581Y-117915000D01*
X77782419Y-117915000D01*
X77750000Y-117911807D01*
X77717581Y-117915000D01*
X77620617Y-117924550D01*
X77496207Y-117962290D01*
X77381550Y-118023575D01*
X77281052Y-118106052D01*
X77198575Y-118206550D01*
X77137290Y-118321207D01*
X77099550Y-118445617D01*
X77086807Y-118575000D01*
X71410000Y-118575000D01*
X71410000Y-115984254D01*
X131891803Y-115984254D01*
X131973286Y-116943059D01*
X132240257Y-117867544D01*
X132682457Y-118722183D01*
X132755510Y-118831513D01*
X133352722Y-119317673D01*
X136620395Y-116050000D01*
X136979605Y-116050000D01*
X140247278Y-119317673D01*
X140844490Y-118831513D01*
X140986048Y-118575000D01*
X162136807Y-118575000D01*
X162140000Y-118607419D01*
X162140001Y-132542571D01*
X162136807Y-132575000D01*
X162149550Y-132704383D01*
X162187290Y-132828793D01*
X162248575Y-132943450D01*
X162331052Y-133043948D01*
X162431550Y-133126425D01*
X162546207Y-133187710D01*
X162670617Y-133225450D01*
X162767581Y-133235000D01*
X162800000Y-133238193D01*
X162832419Y-133235000D01*
X176767581Y-133235000D01*
X176800000Y-133238193D01*
X176832419Y-133235000D01*
X176929383Y-133225450D01*
X177053793Y-133187710D01*
X177168450Y-133126425D01*
X177268948Y-133043948D01*
X177351425Y-132943450D01*
X177412710Y-132828793D01*
X177450450Y-132704383D01*
X177463193Y-132575000D01*
X177460000Y-132542581D01*
X177460000Y-118607419D01*
X177463193Y-118575000D01*
X181186807Y-118575000D01*
X181190000Y-118607419D01*
X181190001Y-132542571D01*
X181186807Y-132575000D01*
X181199550Y-132704383D01*
X181237290Y-132828793D01*
X181298575Y-132943450D01*
X181381052Y-133043948D01*
X181481550Y-133126425D01*
X181596207Y-133187710D01*
X181720617Y-133225450D01*
X181817581Y-133235000D01*
X181850000Y-133238193D01*
X181882419Y-133235000D01*
X195817581Y-133235000D01*
X195850000Y-133238193D01*
X195882419Y-133235000D01*
X195979383Y-133225450D01*
X196103793Y-133187710D01*
X196218450Y-133126425D01*
X196318948Y-133043948D01*
X196401425Y-132943450D01*
X196462710Y-132828793D01*
X196500450Y-132704383D01*
X196513193Y-132575000D01*
X196510000Y-132542581D01*
X196510000Y-118607419D01*
X196513193Y-118575000D01*
X196500450Y-118445617D01*
X196462710Y-118321207D01*
X196401425Y-118206550D01*
X196318948Y-118106052D01*
X196218450Y-118023575D01*
X196103793Y-117962290D01*
X195979383Y-117924550D01*
X195882419Y-117915000D01*
X195850000Y-117911807D01*
X195817581Y-117915000D01*
X181882419Y-117915000D01*
X181850000Y-117911807D01*
X181817581Y-117915000D01*
X181720617Y-117924550D01*
X181596207Y-117962290D01*
X181481550Y-118023575D01*
X181381052Y-118106052D01*
X181298575Y-118206550D01*
X181237290Y-118321207D01*
X181199550Y-118445617D01*
X181186807Y-118575000D01*
X177463193Y-118575000D01*
X177450450Y-118445617D01*
X177412710Y-118321207D01*
X177351425Y-118206550D01*
X177268948Y-118106052D01*
X177168450Y-118023575D01*
X177053793Y-117962290D01*
X176929383Y-117924550D01*
X176832419Y-117915000D01*
X176800000Y-117911807D01*
X176767581Y-117915000D01*
X162832419Y-117915000D01*
X162800000Y-117911807D01*
X162767581Y-117915000D01*
X162670617Y-117924550D01*
X162546207Y-117962290D01*
X162431550Y-118023575D01*
X162331052Y-118106052D01*
X162248575Y-118206550D01*
X162187290Y-118321207D01*
X162149550Y-118445617D01*
X162136807Y-118575000D01*
X140986048Y-118575000D01*
X141309422Y-117989027D01*
X141601061Y-117072025D01*
X141708197Y-116115746D01*
X141626714Y-115156941D01*
X141359743Y-114232456D01*
X140917543Y-113377817D01*
X140844490Y-113268487D01*
X140247278Y-112782327D01*
X136979605Y-116050000D01*
X136620395Y-116050000D01*
X133352722Y-112782327D01*
X132755510Y-113268487D01*
X132290578Y-114110973D01*
X131998939Y-115027975D01*
X131891803Y-115984254D01*
X71410000Y-115984254D01*
X71410000Y-99525000D01*
X77086807Y-99525000D01*
X77090000Y-99557419D01*
X77090001Y-113492571D01*
X77086807Y-113525000D01*
X77099550Y-113654383D01*
X77137290Y-113778793D01*
X77198575Y-113893450D01*
X77281052Y-113993948D01*
X77381550Y-114076425D01*
X77496207Y-114137710D01*
X77620617Y-114175450D01*
X77717581Y-114185000D01*
X77750000Y-114188193D01*
X77782419Y-114185000D01*
X91717581Y-114185000D01*
X91750000Y-114188193D01*
X91782419Y-114185000D01*
X91879383Y-114175450D01*
X92003793Y-114137710D01*
X92118450Y-114076425D01*
X92218948Y-113993948D01*
X92301425Y-113893450D01*
X92362710Y-113778793D01*
X92400450Y-113654383D01*
X92413193Y-113525000D01*
X92410000Y-113492581D01*
X92410000Y-99557419D01*
X92413193Y-99525000D01*
X96136807Y-99525000D01*
X96140000Y-99557419D01*
X96140001Y-113492571D01*
X96136807Y-113525000D01*
X96149550Y-113654383D01*
X96187290Y-113778793D01*
X96248575Y-113893450D01*
X96331052Y-113993948D01*
X96431550Y-114076425D01*
X96546207Y-114137710D01*
X96670617Y-114175450D01*
X96767581Y-114185000D01*
X96800000Y-114188193D01*
X96832419Y-114185000D01*
X110767581Y-114185000D01*
X110800000Y-114188193D01*
X110832419Y-114185000D01*
X110929383Y-114175450D01*
X111053793Y-114137710D01*
X111168450Y-114076425D01*
X111268948Y-113993948D01*
X111351425Y-113893450D01*
X111412710Y-113778793D01*
X111450450Y-113654383D01*
X111463193Y-113525000D01*
X111460000Y-113492581D01*
X111460000Y-112602722D01*
X133532327Y-112602722D01*
X136800000Y-115870395D01*
X140067673Y-112602722D01*
X139581513Y-112005510D01*
X138739027Y-111540578D01*
X138076906Y-111330000D01*
X138142582Y-111330000D01*
X138175001Y-111333193D01*
X138207420Y-111330000D01*
X138304384Y-111320450D01*
X138428794Y-111282710D01*
X138543451Y-111221425D01*
X138643949Y-111138948D01*
X138726426Y-111038450D01*
X138787711Y-110923793D01*
X138825451Y-110799383D01*
X138838194Y-110670000D01*
X138835001Y-110637581D01*
X138835001Y-109202419D01*
X138838194Y-109170000D01*
X138825451Y-109040617D01*
X138787711Y-108916207D01*
X138726426Y-108801550D01*
X138643949Y-108701052D01*
X138543451Y-108618575D01*
X138428794Y-108557290D01*
X138304384Y-108519550D01*
X138207420Y-108510000D01*
X138175001Y-108506807D01*
X138142582Y-108510000D01*
X135457420Y-108510000D01*
X135425001Y-108506807D01*
X135392582Y-108510000D01*
X135295618Y-108519550D01*
X135171208Y-108557290D01*
X135056551Y-108618575D01*
X134956053Y-108701052D01*
X134873576Y-108801550D01*
X134812291Y-108916207D01*
X134774551Y-109040617D01*
X134761808Y-109170000D01*
X134765001Y-109202420D01*
X134765002Y-110637571D01*
X134761808Y-110670000D01*
X134774551Y-110799383D01*
X134812291Y-110923793D01*
X134873576Y-111038450D01*
X134956053Y-111138948D01*
X135056551Y-111221425D01*
X135171208Y-111282710D01*
X135295618Y-111320450D01*
X135392582Y-111330000D01*
X135425001Y-111333193D01*
X135457420Y-111330000D01*
X135537405Y-111330000D01*
X134982456Y-111490257D01*
X134127817Y-111932457D01*
X134018487Y-112005510D01*
X133532327Y-112602722D01*
X111460000Y-112602722D01*
X111460000Y-99557419D01*
X111463193Y-99525000D01*
X162136807Y-99525000D01*
X162140000Y-99557419D01*
X162140001Y-113492571D01*
X162136807Y-113525000D01*
X162149550Y-113654383D01*
X162187290Y-113778793D01*
X162248575Y-113893450D01*
X162331052Y-113993948D01*
X162431550Y-114076425D01*
X162546207Y-114137710D01*
X162670617Y-114175450D01*
X162767581Y-114185000D01*
X162800000Y-114188193D01*
X162832419Y-114185000D01*
X176767581Y-114185000D01*
X176800000Y-114188193D01*
X176832419Y-114185000D01*
X176929383Y-114175450D01*
X177053793Y-114137710D01*
X177168450Y-114076425D01*
X177268948Y-113993948D01*
X177351425Y-113893450D01*
X177412710Y-113778793D01*
X177450450Y-113654383D01*
X177463193Y-113525000D01*
X177460000Y-113492581D01*
X177460000Y-99557419D01*
X177463193Y-99525000D01*
X181186807Y-99525000D01*
X181190000Y-99557419D01*
X181190001Y-113492571D01*
X181186807Y-113525000D01*
X181199550Y-113654383D01*
X181237290Y-113778793D01*
X181298575Y-113893450D01*
X181381052Y-113993948D01*
X181481550Y-114076425D01*
X181596207Y-114137710D01*
X181720617Y-114175450D01*
X181817581Y-114185000D01*
X181850000Y-114188193D01*
X181882419Y-114185000D01*
X195817581Y-114185000D01*
X195850000Y-114188193D01*
X195882419Y-114185000D01*
X195979383Y-114175450D01*
X196103793Y-114137710D01*
X196218450Y-114076425D01*
X196318948Y-113993948D01*
X196401425Y-113893450D01*
X196462710Y-113778793D01*
X196500450Y-113654383D01*
X196513193Y-113525000D01*
X196510000Y-113492581D01*
X196510000Y-99557419D01*
X196513193Y-99525000D01*
X196500450Y-99395617D01*
X196462710Y-99271207D01*
X196401425Y-99156550D01*
X196318948Y-99056052D01*
X196218450Y-98973575D01*
X196103793Y-98912290D01*
X195979383Y-98874550D01*
X195882419Y-98865000D01*
X195850000Y-98861807D01*
X195817581Y-98865000D01*
X181882419Y-98865000D01*
X181850000Y-98861807D01*
X181817581Y-98865000D01*
X181720617Y-98874550D01*
X181596207Y-98912290D01*
X181481550Y-98973575D01*
X181381052Y-99056052D01*
X181298575Y-99156550D01*
X181237290Y-99271207D01*
X181199550Y-99395617D01*
X181186807Y-99525000D01*
X177463193Y-99525000D01*
X177450450Y-99395617D01*
X177412710Y-99271207D01*
X177351425Y-99156550D01*
X177268948Y-99056052D01*
X177168450Y-98973575D01*
X177053793Y-98912290D01*
X176929383Y-98874550D01*
X176832419Y-98865000D01*
X176800000Y-98861807D01*
X176767581Y-98865000D01*
X162832419Y-98865000D01*
X162800000Y-98861807D01*
X162767581Y-98865000D01*
X162670617Y-98874550D01*
X162546207Y-98912290D01*
X162431550Y-98973575D01*
X162331052Y-99056052D01*
X162248575Y-99156550D01*
X162187290Y-99271207D01*
X162149550Y-99395617D01*
X162136807Y-99525000D01*
X111463193Y-99525000D01*
X111450450Y-99395617D01*
X111412710Y-99271207D01*
X111351425Y-99156550D01*
X111268948Y-99056052D01*
X111168450Y-98973575D01*
X111053793Y-98912290D01*
X110929383Y-98874550D01*
X110832419Y-98865000D01*
X110800000Y-98861807D01*
X110767581Y-98865000D01*
X96832419Y-98865000D01*
X96800000Y-98861807D01*
X96767581Y-98865000D01*
X96670617Y-98874550D01*
X96546207Y-98912290D01*
X96431550Y-98973575D01*
X96331052Y-99056052D01*
X96248575Y-99156550D01*
X96187290Y-99271207D01*
X96149550Y-99395617D01*
X96136807Y-99525000D01*
X92413193Y-99525000D01*
X92400450Y-99395617D01*
X92362710Y-99271207D01*
X92301425Y-99156550D01*
X92218948Y-99056052D01*
X92118450Y-98973575D01*
X92003793Y-98912290D01*
X91879383Y-98874550D01*
X91782419Y-98865000D01*
X91750000Y-98861807D01*
X91717581Y-98865000D01*
X77782419Y-98865000D01*
X77750000Y-98861807D01*
X77717581Y-98865000D01*
X77620617Y-98874550D01*
X77496207Y-98912290D01*
X77381550Y-98973575D01*
X77281052Y-99056052D01*
X77198575Y-99156550D01*
X77137290Y-99271207D01*
X77099550Y-99395617D01*
X77086807Y-99525000D01*
X71410000Y-99525000D01*
X71410000Y-95760549D01*
X71463831Y-95814380D01*
X71762115Y-96013687D01*
X72093550Y-96150972D01*
X72445400Y-96220959D01*
X72804142Y-96220959D01*
X73155992Y-96150972D01*
X73487427Y-96013687D01*
X73785711Y-95814380D01*
X74039380Y-95560711D01*
X74238687Y-95262427D01*
X74375972Y-94930992D01*
X74445959Y-94579142D01*
X74445959Y-94220400D01*
X74375972Y-93868550D01*
X74238687Y-93537115D01*
X74039380Y-93238831D01*
X73985549Y-93185000D01*
X135141960Y-93185000D01*
X135157490Y-93215523D01*
%TD*%
M02*
