%TF.GenerationSoftware,KiCad,Pcbnew,(5.1.6)-1*%
%TF.CreationDate,2021-04-27T15:39:35-05:00*%
%TF.ProjectId,Pikatea SD card Module,50696b61-7465-4612-9053-442063617264,rev?*%
%TF.SameCoordinates,Original*%
%TF.FileFunction,Legend,Top*%
%TF.FilePolarity,Positive*%
%FSLAX46Y46*%
G04 Gerber Fmt 4.6, Leading zero omitted, Abs format (unit mm)*
G04 Created by KiCad (PCBNEW (5.1.6)-1) date 2021-04-27 15:39:35*
%MOMM*%
%LPD*%
G01*
G04 APERTURE LIST*
%ADD10C,0.150000*%
%ADD11C,0.120000*%
G04 APERTURE END LIST*
D10*
X213073809Y-87502380D02*
X213073809Y-86502380D01*
X213454761Y-86502380D01*
X213550000Y-86550000D01*
X213597619Y-86597619D01*
X213645238Y-86692857D01*
X213645238Y-86835714D01*
X213597619Y-86930952D01*
X213550000Y-86978571D01*
X213454761Y-87026190D01*
X213073809Y-87026190D01*
X214073809Y-87502380D02*
X214073809Y-86835714D01*
X214073809Y-86502380D02*
X214026190Y-86550000D01*
X214073809Y-86597619D01*
X214121428Y-86550000D01*
X214073809Y-86502380D01*
X214073809Y-86597619D01*
X214550000Y-87502380D02*
X214550000Y-86502380D01*
X214645238Y-87121428D02*
X214930952Y-87502380D01*
X214930952Y-86835714D02*
X214550000Y-87216666D01*
X215788095Y-87502380D02*
X215788095Y-86978571D01*
X215740476Y-86883333D01*
X215645238Y-86835714D01*
X215454761Y-86835714D01*
X215359523Y-86883333D01*
X215788095Y-87454761D02*
X215692857Y-87502380D01*
X215454761Y-87502380D01*
X215359523Y-87454761D01*
X215311904Y-87359523D01*
X215311904Y-87264285D01*
X215359523Y-87169047D01*
X215454761Y-87121428D01*
X215692857Y-87121428D01*
X215788095Y-87073809D01*
X216121428Y-86835714D02*
X216502380Y-86835714D01*
X216264285Y-86502380D02*
X216264285Y-87359523D01*
X216311904Y-87454761D01*
X216407142Y-87502380D01*
X216502380Y-87502380D01*
X217216666Y-87454761D02*
X217121428Y-87502380D01*
X216930952Y-87502380D01*
X216835714Y-87454761D01*
X216788095Y-87359523D01*
X216788095Y-86978571D01*
X216835714Y-86883333D01*
X216930952Y-86835714D01*
X217121428Y-86835714D01*
X217216666Y-86883333D01*
X217264285Y-86978571D01*
X217264285Y-87073809D01*
X216788095Y-87169047D01*
X218121428Y-87502380D02*
X218121428Y-86978571D01*
X218073809Y-86883333D01*
X217978571Y-86835714D01*
X217788095Y-86835714D01*
X217692857Y-86883333D01*
X218121428Y-87454761D02*
X218026190Y-87502380D01*
X217788095Y-87502380D01*
X217692857Y-87454761D01*
X217645238Y-87359523D01*
X217645238Y-87264285D01*
X217692857Y-87169047D01*
X217788095Y-87121428D01*
X218026190Y-87121428D01*
X218121428Y-87073809D01*
X219311904Y-87454761D02*
X219454761Y-87502380D01*
X219692857Y-87502380D01*
X219788095Y-87454761D01*
X219835714Y-87407142D01*
X219883333Y-87311904D01*
X219883333Y-87216666D01*
X219835714Y-87121428D01*
X219788095Y-87073809D01*
X219692857Y-87026190D01*
X219502380Y-86978571D01*
X219407142Y-86930952D01*
X219359523Y-86883333D01*
X219311904Y-86788095D01*
X219311904Y-86692857D01*
X219359523Y-86597619D01*
X219407142Y-86550000D01*
X219502380Y-86502380D01*
X219740476Y-86502380D01*
X219883333Y-86550000D01*
X220311904Y-87502380D02*
X220311904Y-86502380D01*
X220550000Y-86502380D01*
X220692857Y-86550000D01*
X220788095Y-86645238D01*
X220835714Y-86740476D01*
X220883333Y-86930952D01*
X220883333Y-87073809D01*
X220835714Y-87264285D01*
X220788095Y-87359523D01*
X220692857Y-87454761D01*
X220550000Y-87502380D01*
X220311904Y-87502380D01*
X221740476Y-87454761D02*
X221645238Y-87502380D01*
X221454761Y-87502380D01*
X221359523Y-87454761D01*
X221311904Y-87407142D01*
X221264285Y-87311904D01*
X221264285Y-87026190D01*
X221311904Y-86930952D01*
X221359523Y-86883333D01*
X221454761Y-86835714D01*
X221645238Y-86835714D01*
X221740476Y-86883333D01*
X222169047Y-87502380D02*
X222169047Y-86502380D01*
X222502380Y-87216666D01*
X222835714Y-86502380D01*
X222835714Y-87502380D01*
X223311904Y-87121428D02*
X224073809Y-87121428D01*
X224502380Y-86597619D02*
X224550000Y-86550000D01*
X224645238Y-86502380D01*
X224883333Y-86502380D01*
X224978571Y-86550000D01*
X225026190Y-86597619D01*
X225073809Y-86692857D01*
X225073809Y-86788095D01*
X225026190Y-86930952D01*
X224454761Y-87502380D01*
X225073809Y-87502380D01*
D11*
%TO.C,R2*%
X217091422Y-74740000D02*
X217608578Y-74740000D01*
X217091422Y-76160000D02*
X217608578Y-76160000D01*
%TO.C,R1*%
X210758578Y-75160000D02*
X210241422Y-75160000D01*
X210758578Y-73740000D02*
X210241422Y-73740000D01*
%TO.C,R4*%
X211371078Y-84710000D02*
X210853922Y-84710000D01*
X211371078Y-83290000D02*
X210853922Y-83290000D01*
%TO.C,R3*%
X211371078Y-86660000D02*
X210853922Y-86660000D01*
X211371078Y-85240000D02*
X210853922Y-85240000D01*
%TO.C,C4*%
X221446078Y-85910000D02*
X220928922Y-85910000D01*
X221446078Y-84490000D02*
X220928922Y-84490000D01*
%TO.C,C3*%
X221446078Y-83910000D02*
X220928922Y-83910000D01*
X221446078Y-82490000D02*
X220928922Y-82490000D01*
%TO.C,C2*%
X225510000Y-83778922D02*
X225510000Y-84296078D01*
X224090000Y-83778922D02*
X224090000Y-84296078D01*
%TO.C,C1*%
X213278565Y-74614411D02*
X213726435Y-74355833D01*
X213988565Y-75844167D02*
X214436435Y-75585589D01*
D10*
%TO.C,U2*%
X212575000Y-82875000D02*
X212700000Y-82875000D01*
X212575000Y-78225000D02*
X212800000Y-78225000D01*
X217825000Y-78225000D02*
X217600000Y-78225000D01*
X217825000Y-82875000D02*
X217600000Y-82875000D01*
X212575000Y-82875000D02*
X212575000Y-78225000D01*
X217825000Y-82875000D02*
X217825000Y-78225000D01*
X212700000Y-82875000D02*
X212700000Y-84225000D01*
%TO.C,XS1*%
X193450000Y-88400000D02*
X200800000Y-88400000D01*
X200800000Y-88400000D02*
X202150000Y-88450000D01*
X202150000Y-88450000D02*
X203300000Y-88600000D01*
X203300000Y-88600000D02*
X204400000Y-88800000D01*
X204400000Y-88800000D02*
X205450000Y-89100000D01*
X203600000Y-75100000D02*
X203600000Y-73800000D01*
X193450000Y-83300000D02*
X193450000Y-76100000D01*
X193450000Y-86100000D02*
X193450000Y-88400000D01*
X205450000Y-89100000D02*
X208150000Y-89100000D01*
X208150000Y-89100000D02*
X208150000Y-86100000D01*
X208150000Y-76100000D02*
X208150000Y-83300000D01*
X203150000Y-75700000D02*
X202850000Y-75700000D01*
X202850000Y-75700000D02*
X202850000Y-76000000D01*
X202850000Y-76000000D02*
X203150000Y-76000000D01*
X203150000Y-76000000D02*
X203150000Y-75700000D01*
X203600000Y-75100000D02*
X206600000Y-75100000D01*
D11*
%TO.C,U1*%
X225810000Y-75890000D02*
X224550000Y-75890000D01*
X218990000Y-75890000D02*
X220250000Y-75890000D01*
X225810000Y-79650000D02*
X225810000Y-75890000D01*
X218990000Y-81900000D02*
X218990000Y-75890000D01*
%TO.C,R2*%
D10*
X217383333Y-74439285D02*
X217050000Y-74082142D01*
X216811904Y-74439285D02*
X216811904Y-73689285D01*
X217192857Y-73689285D01*
X217288095Y-73725000D01*
X217335714Y-73760714D01*
X217383333Y-73832142D01*
X217383333Y-73939285D01*
X217335714Y-74010714D01*
X217288095Y-74046428D01*
X217192857Y-74082142D01*
X216811904Y-74082142D01*
X217764285Y-73760714D02*
X217811904Y-73725000D01*
X217907142Y-73689285D01*
X218145238Y-73689285D01*
X218240476Y-73725000D01*
X218288095Y-73760714D01*
X218335714Y-73832142D01*
X218335714Y-73903571D01*
X218288095Y-74010714D01*
X217716666Y-74439285D01*
X218335714Y-74439285D01*
%TO.C,R1*%
X211641666Y-75944047D02*
X211425000Y-75634523D01*
X211270238Y-75944047D02*
X211270238Y-75294047D01*
X211517857Y-75294047D01*
X211579761Y-75325000D01*
X211610714Y-75355952D01*
X211641666Y-75417857D01*
X211641666Y-75510714D01*
X211610714Y-75572619D01*
X211579761Y-75603571D01*
X211517857Y-75634523D01*
X211270238Y-75634523D01*
X212260714Y-75944047D02*
X211889285Y-75944047D01*
X212075000Y-75944047D02*
X212075000Y-75294047D01*
X212013095Y-75386904D01*
X211951190Y-75448809D01*
X211889285Y-75479761D01*
%TO.C,R4*%
X210975000Y-83189285D02*
X210725000Y-82832142D01*
X210546428Y-83189285D02*
X210546428Y-82439285D01*
X210832142Y-82439285D01*
X210903571Y-82475000D01*
X210939285Y-82510714D01*
X210975000Y-82582142D01*
X210975000Y-82689285D01*
X210939285Y-82760714D01*
X210903571Y-82796428D01*
X210832142Y-82832142D01*
X210546428Y-82832142D01*
X211617857Y-82689285D02*
X211617857Y-83189285D01*
X211439285Y-82403571D02*
X211260714Y-82939285D01*
X211725000Y-82939285D01*
%TO.C,R3*%
X210945833Y-87789285D02*
X210612500Y-87432142D01*
X210374404Y-87789285D02*
X210374404Y-87039285D01*
X210755357Y-87039285D01*
X210850595Y-87075000D01*
X210898214Y-87110714D01*
X210945833Y-87182142D01*
X210945833Y-87289285D01*
X210898214Y-87360714D01*
X210850595Y-87396428D01*
X210755357Y-87432142D01*
X210374404Y-87432142D01*
X211279166Y-87039285D02*
X211898214Y-87039285D01*
X211564880Y-87325000D01*
X211707738Y-87325000D01*
X211802976Y-87360714D01*
X211850595Y-87396428D01*
X211898214Y-87467857D01*
X211898214Y-87646428D01*
X211850595Y-87717857D01*
X211802976Y-87753571D01*
X211707738Y-87789285D01*
X211422023Y-87789285D01*
X211326785Y-87753571D01*
X211279166Y-87717857D01*
%TO.C,C4*%
X218433333Y-85507142D02*
X218385714Y-85554761D01*
X218242857Y-85602380D01*
X218147619Y-85602380D01*
X218004761Y-85554761D01*
X217909523Y-85459523D01*
X217861904Y-85364285D01*
X217814285Y-85173809D01*
X217814285Y-85030952D01*
X217861904Y-84840476D01*
X217909523Y-84745238D01*
X218004761Y-84650000D01*
X218147619Y-84602380D01*
X218242857Y-84602380D01*
X218385714Y-84650000D01*
X218433333Y-84697619D01*
X219290476Y-84935714D02*
X219290476Y-85602380D01*
X219052380Y-84554761D02*
X218814285Y-85269047D01*
X219433333Y-85269047D01*
%TO.C,C3*%
X218433333Y-83557142D02*
X218385714Y-83604761D01*
X218242857Y-83652380D01*
X218147619Y-83652380D01*
X218004761Y-83604761D01*
X217909523Y-83509523D01*
X217861904Y-83414285D01*
X217814285Y-83223809D01*
X217814285Y-83080952D01*
X217861904Y-82890476D01*
X217909523Y-82795238D01*
X218004761Y-82700000D01*
X218147619Y-82652380D01*
X218242857Y-82652380D01*
X218385714Y-82700000D01*
X218433333Y-82747619D01*
X218766666Y-82652380D02*
X219385714Y-82652380D01*
X219052380Y-83033333D01*
X219195238Y-83033333D01*
X219290476Y-83080952D01*
X219338095Y-83128571D01*
X219385714Y-83223809D01*
X219385714Y-83461904D01*
X219338095Y-83557142D01*
X219290476Y-83604761D01*
X219195238Y-83652380D01*
X218909523Y-83652380D01*
X218814285Y-83604761D01*
X218766666Y-83557142D01*
%TO.C,C2*%
X223717857Y-83025000D02*
X223753571Y-83060714D01*
X223789285Y-83167857D01*
X223789285Y-83239285D01*
X223753571Y-83346428D01*
X223682142Y-83417857D01*
X223610714Y-83453571D01*
X223467857Y-83489285D01*
X223360714Y-83489285D01*
X223217857Y-83453571D01*
X223146428Y-83417857D01*
X223075000Y-83346428D01*
X223039285Y-83239285D01*
X223039285Y-83167857D01*
X223075000Y-83060714D01*
X223110714Y-83025000D01*
X223110714Y-82739285D02*
X223075000Y-82703571D01*
X223039285Y-82632142D01*
X223039285Y-82453571D01*
X223075000Y-82382142D01*
X223110714Y-82346428D01*
X223182142Y-82310714D01*
X223253571Y-82310714D01*
X223360714Y-82346428D01*
X223789285Y-82775000D01*
X223789285Y-82310714D01*
%TO.C,C1*%
X212959711Y-74253317D02*
X212936328Y-74308056D01*
X212830468Y-74410414D01*
X212747989Y-74458033D01*
X212606414Y-74498532D01*
X212488221Y-74484292D01*
X212411267Y-74446243D01*
X212298600Y-74346334D01*
X212245028Y-74253546D01*
X212214839Y-74106019D01*
X212220364Y-74020350D01*
X212267128Y-73910872D01*
X212372989Y-73808514D01*
X212455468Y-73760895D01*
X212597043Y-73720396D01*
X212656139Y-73727516D01*
X213820211Y-73838985D02*
X213325339Y-74124700D01*
X213572775Y-73981843D02*
X213197775Y-73332323D01*
X213168868Y-73472731D01*
X213122104Y-73582209D01*
X213057482Y-73660758D01*
%TO.C,U2*%
X211639285Y-80611904D02*
X212246428Y-80611904D01*
X212317857Y-80564285D01*
X212353571Y-80516666D01*
X212389285Y-80421428D01*
X212389285Y-80230952D01*
X212353571Y-80135714D01*
X212317857Y-80088095D01*
X212246428Y-80040476D01*
X211639285Y-80040476D01*
X211710714Y-79611904D02*
X211675000Y-79564285D01*
X211639285Y-79469047D01*
X211639285Y-79230952D01*
X211675000Y-79135714D01*
X211710714Y-79088095D01*
X211782142Y-79040476D01*
X211853571Y-79040476D01*
X211960714Y-79088095D01*
X212389285Y-79659523D01*
X212389285Y-79040476D01*
%TO.C,U1*%
X217989285Y-78111904D02*
X218596428Y-78111904D01*
X218667857Y-78064285D01*
X218703571Y-78016666D01*
X218739285Y-77921428D01*
X218739285Y-77730952D01*
X218703571Y-77635714D01*
X218667857Y-77588095D01*
X218596428Y-77540476D01*
X217989285Y-77540476D01*
X218739285Y-76540476D02*
X218739285Y-77111904D01*
X218739285Y-76826190D02*
X217989285Y-76826190D01*
X218096428Y-76921428D01*
X218167857Y-77016666D01*
X218203571Y-77111904D01*
%TD*%
M02*
