%TF.GenerationSoftware,KiCad,Pcbnew,(5.1.6)-1*%
%TF.CreationDate,2021-02-04T13:42:59-06:00*%
%TF.ProjectId,Pikatea SD card Module,50696b61-7465-4612-9053-442063617264,rev?*%
%TF.SameCoordinates,Original*%
%TF.FileFunction,Soldermask,Top*%
%TF.FilePolarity,Negative*%
%FSLAX46Y46*%
G04 Gerber Fmt 4.6, Leading zero omitted, Abs format (unit mm)*
G04 Created by KiCad (PCBNEW (5.1.6)-1) date 2021-02-04 13:42:59*
%MOMM*%
%LPD*%
G01*
G04 APERTURE LIST*
%ADD10O,1.800000X1.800000*%
%ADD11R,1.800000X1.800000*%
%ADD12R,1.900000X1.600000*%
%ADD13R,0.550000X1.550000*%
%ADD14R,0.800000X1.700000*%
%ADD15R,1.300000X1.500000*%
%ADD16R,1.700000X1.500000*%
%ADD17R,1.300000X2.300000*%
%ADD18R,1.600000X2.100000*%
%ADD19R,3.900000X2.100000*%
G04 APERTURE END LIST*
%TO.C,R2*%
G36*
G01*
X217750000Y-75931250D02*
X217750000Y-74968750D01*
G75*
G02*
X218018750Y-74700000I268750J0D01*
G01*
X218556250Y-74700000D01*
G75*
G02*
X218825000Y-74968750I0J-268750D01*
G01*
X218825000Y-75931250D01*
G75*
G02*
X218556250Y-76200000I-268750J0D01*
G01*
X218018750Y-76200000D01*
G75*
G02*
X217750000Y-75931250I0J268750D01*
G01*
G37*
G36*
G01*
X215875000Y-75931250D02*
X215875000Y-74968750D01*
G75*
G02*
X216143750Y-74700000I268750J0D01*
G01*
X216681250Y-74700000D01*
G75*
G02*
X216950000Y-74968750I0J-268750D01*
G01*
X216950000Y-75931250D01*
G75*
G02*
X216681250Y-76200000I-268750J0D01*
G01*
X216143750Y-76200000D01*
G75*
G02*
X215875000Y-75931250I0J268750D01*
G01*
G37*
%TD*%
%TO.C,R1*%
G36*
G01*
X210100000Y-73968750D02*
X210100000Y-74931250D01*
G75*
G02*
X209831250Y-75200000I-268750J0D01*
G01*
X209293750Y-75200000D01*
G75*
G02*
X209025000Y-74931250I0J268750D01*
G01*
X209025000Y-73968750D01*
G75*
G02*
X209293750Y-73700000I268750J0D01*
G01*
X209831250Y-73700000D01*
G75*
G02*
X210100000Y-73968750I0J-268750D01*
G01*
G37*
G36*
G01*
X211975000Y-73968750D02*
X211975000Y-74931250D01*
G75*
G02*
X211706250Y-75200000I-268750J0D01*
G01*
X211168750Y-75200000D01*
G75*
G02*
X210900000Y-74931250I0J268750D01*
G01*
X210900000Y-73968750D01*
G75*
G02*
X211168750Y-73700000I268750J0D01*
G01*
X211706250Y-73700000D01*
G75*
G02*
X211975000Y-73968750I0J-268750D01*
G01*
G37*
%TD*%
%TO.C,R4*%
G36*
G01*
X210712500Y-83518750D02*
X210712500Y-84481250D01*
G75*
G02*
X210443750Y-84750000I-268750J0D01*
G01*
X209906250Y-84750000D01*
G75*
G02*
X209637500Y-84481250I0J268750D01*
G01*
X209637500Y-83518750D01*
G75*
G02*
X209906250Y-83250000I268750J0D01*
G01*
X210443750Y-83250000D01*
G75*
G02*
X210712500Y-83518750I0J-268750D01*
G01*
G37*
G36*
G01*
X212587500Y-83518750D02*
X212587500Y-84481250D01*
G75*
G02*
X212318750Y-84750000I-268750J0D01*
G01*
X211781250Y-84750000D01*
G75*
G02*
X211512500Y-84481250I0J268750D01*
G01*
X211512500Y-83518750D01*
G75*
G02*
X211781250Y-83250000I268750J0D01*
G01*
X212318750Y-83250000D01*
G75*
G02*
X212587500Y-83518750I0J-268750D01*
G01*
G37*
%TD*%
%TO.C,R3*%
G36*
G01*
X210712500Y-85468750D02*
X210712500Y-86431250D01*
G75*
G02*
X210443750Y-86700000I-268750J0D01*
G01*
X209906250Y-86700000D01*
G75*
G02*
X209637500Y-86431250I0J268750D01*
G01*
X209637500Y-85468750D01*
G75*
G02*
X209906250Y-85200000I268750J0D01*
G01*
X210443750Y-85200000D01*
G75*
G02*
X210712500Y-85468750I0J-268750D01*
G01*
G37*
G36*
G01*
X212587500Y-85468750D02*
X212587500Y-86431250D01*
G75*
G02*
X212318750Y-86700000I-268750J0D01*
G01*
X211781250Y-86700000D01*
G75*
G02*
X211512500Y-86431250I0J268750D01*
G01*
X211512500Y-85468750D01*
G75*
G02*
X211781250Y-85200000I268750J0D01*
G01*
X212318750Y-85200000D01*
G75*
G02*
X212587500Y-85468750I0J-268750D01*
G01*
G37*
%TD*%
%TO.C,C4*%
G36*
G01*
X220787500Y-84718750D02*
X220787500Y-85681250D01*
G75*
G02*
X220518750Y-85950000I-268750J0D01*
G01*
X219981250Y-85950000D01*
G75*
G02*
X219712500Y-85681250I0J268750D01*
G01*
X219712500Y-84718750D01*
G75*
G02*
X219981250Y-84450000I268750J0D01*
G01*
X220518750Y-84450000D01*
G75*
G02*
X220787500Y-84718750I0J-268750D01*
G01*
G37*
G36*
G01*
X222662500Y-84718750D02*
X222662500Y-85681250D01*
G75*
G02*
X222393750Y-85950000I-268750J0D01*
G01*
X221856250Y-85950000D01*
G75*
G02*
X221587500Y-85681250I0J268750D01*
G01*
X221587500Y-84718750D01*
G75*
G02*
X221856250Y-84450000I268750J0D01*
G01*
X222393750Y-84450000D01*
G75*
G02*
X222662500Y-84718750I0J-268750D01*
G01*
G37*
%TD*%
%TO.C,C3*%
G36*
G01*
X220787500Y-82718750D02*
X220787500Y-83681250D01*
G75*
G02*
X220518750Y-83950000I-268750J0D01*
G01*
X219981250Y-83950000D01*
G75*
G02*
X219712500Y-83681250I0J268750D01*
G01*
X219712500Y-82718750D01*
G75*
G02*
X219981250Y-82450000I268750J0D01*
G01*
X220518750Y-82450000D01*
G75*
G02*
X220787500Y-82718750I0J-268750D01*
G01*
G37*
G36*
G01*
X222662500Y-82718750D02*
X222662500Y-83681250D01*
G75*
G02*
X222393750Y-83950000I-268750J0D01*
G01*
X221856250Y-83950000D01*
G75*
G02*
X221587500Y-83681250I0J268750D01*
G01*
X221587500Y-82718750D01*
G75*
G02*
X221856250Y-82450000I268750J0D01*
G01*
X222393750Y-82450000D01*
G75*
G02*
X222662500Y-82718750I0J-268750D01*
G01*
G37*
%TD*%
%TO.C,C2*%
G36*
G01*
X224318750Y-84437500D02*
X225281250Y-84437500D01*
G75*
G02*
X225550000Y-84706250I0J-268750D01*
G01*
X225550000Y-85243750D01*
G75*
G02*
X225281250Y-85512500I-268750J0D01*
G01*
X224318750Y-85512500D01*
G75*
G02*
X224050000Y-85243750I0J268750D01*
G01*
X224050000Y-84706250D01*
G75*
G02*
X224318750Y-84437500I268750J0D01*
G01*
G37*
G36*
G01*
X224318750Y-82562500D02*
X225281250Y-82562500D01*
G75*
G02*
X225550000Y-82831250I0J-268750D01*
G01*
X225550000Y-83368750D01*
G75*
G02*
X225281250Y-83637500I-268750J0D01*
G01*
X224318750Y-83637500D01*
G75*
G02*
X224050000Y-83368750I0J268750D01*
G01*
X224050000Y-82831250D01*
G75*
G02*
X224318750Y-82562500I268750J0D01*
G01*
G37*
%TD*%
%TO.C,C1*%
G36*
G01*
X214287500Y-75981250D02*
X214287500Y-75018750D01*
G75*
G02*
X214556250Y-74750000I268750J0D01*
G01*
X215093750Y-74750000D01*
G75*
G02*
X215362500Y-75018750I0J-268750D01*
G01*
X215362500Y-75981250D01*
G75*
G02*
X215093750Y-76250000I-268750J0D01*
G01*
X214556250Y-76250000D01*
G75*
G02*
X214287500Y-75981250I0J268750D01*
G01*
G37*
G36*
G01*
X212412500Y-75981250D02*
X212412500Y-75018750D01*
G75*
G02*
X212681250Y-74750000I268750J0D01*
G01*
X213218750Y-74750000D01*
G75*
G02*
X213487500Y-75018750I0J-268750D01*
G01*
X213487500Y-75981250D01*
G75*
G02*
X213218750Y-76250000I-268750J0D01*
G01*
X212681250Y-76250000D01*
G75*
G02*
X212412500Y-75981250I0J268750D01*
G01*
G37*
%TD*%
D10*
%TO.C,J2*%
X210500000Y-76420000D03*
X210500000Y-78960000D03*
D11*
X210500000Y-81500000D03*
%TD*%
D10*
%TO.C,J1*%
X190500000Y-76420000D03*
X190500000Y-78960000D03*
D11*
X190500000Y-81500000D03*
%TD*%
D12*
%TO.C,U2*%
X214300000Y-81300000D03*
D13*
X213250000Y-77600000D03*
X213900000Y-77600000D03*
X214550000Y-77600000D03*
X215200000Y-77600000D03*
X215850000Y-77600000D03*
X216500000Y-77600000D03*
X217150000Y-77600000D03*
X217150000Y-83500000D03*
X216500000Y-83500000D03*
X215850000Y-83500000D03*
X215200000Y-83500000D03*
X214550000Y-83500000D03*
X213900000Y-83500000D03*
X213250000Y-83500000D03*
D12*
X214300000Y-79800000D03*
X216100000Y-79800000D03*
X216100000Y-81300000D03*
%TD*%
D14*
%TO.C,XS1*%
X200800000Y-74600000D03*
X201900000Y-74600000D03*
X203000000Y-74600000D03*
X199700000Y-74600000D03*
X198600000Y-74600000D03*
X197500000Y-74600000D03*
X195300000Y-74600000D03*
X196400000Y-74600000D03*
X194200000Y-74600000D03*
D15*
X193050000Y-75100000D03*
D16*
X207650000Y-75100000D03*
D17*
X193050000Y-84700000D03*
X208550000Y-84700000D03*
%TD*%
D18*
%TO.C,U1*%
X220100000Y-80950000D03*
X224700000Y-80950000D03*
X222400000Y-80950000D03*
D19*
X222400000Y-74650000D03*
%TD*%
M02*
