M48
; DRILL file {KiCad (5.1.6)-1} date 02/04/21 13:42:57
; FORMAT={-:-/ absolute / inch / decimal}
; #@! TF.CreationDate,2021-02-04T13:42:57-06:00
; #@! TF.GenerationSoftware,Kicad,Pcbnew,(5.1.6)-1
; #@! TF.FileFunction,Plated,1,2,PTH
FMAT,2
INCH
T1C0.0157
T2C0.0394
%
G90
G05
T1
X7.6732Y-3.0197
X7.7756Y-3.0157
X7.7776Y-3.185
X7.8228Y-3.0217
X7.876Y-3.0177
X7.9134Y-3.0492
X7.9665Y-3.0157
X8.0945Y-3.0945
X8.1575Y-3.3012
X8.2008Y-3.1102
X8.3543Y-3.0768
X8.435Y-3.3553
X8.4626Y-2.9183
X8.5131Y-3.3737
X8.5965Y-3.2087
X8.7067Y-3.0768
X8.7933Y-3.3091
X8.8465Y-3.0768
T2
X8.2874Y-3.0087
X8.2874Y-3.1087
X8.2874Y-3.2087
X7.5Y-3.0087
X7.5Y-3.1087
X7.5Y-3.2087
T0
M30
