%TF.GenerationSoftware,KiCad,Pcbnew,(5.1.6)-1*%
%TF.CreationDate,2022-02-11T00:07:08-06:00*%
%TF.ProjectId,Pikatea Macropad GB4,50696b61-7465-4612-904d-6163726f7061,rev?*%
%TF.SameCoordinates,Original*%
%TF.FileFunction,Paste,Top*%
%TF.FilePolarity,Positive*%
%FSLAX46Y46*%
G04 Gerber Fmt 4.6, Leading zero omitted, Abs format (unit mm)*
G04 Created by KiCad (PCBNEW (5.1.6)-1) date 2022-02-11 00:07:08*
%MOMM*%
%LPD*%
G01*
G04 APERTURE LIST*
%ADD10R,1.800000X0.820000*%
%ADD11R,1.700000X1.000000*%
%ADD12R,1.200000X1.400000*%
G04 APERTURE END LIST*
D10*
%TO.C,D5*%
X209650000Y-108770000D03*
X204450000Y-110570000D03*
X204450000Y-108770000D03*
X209650000Y-110570000D03*
%TD*%
%TO.C,D7*%
X247750000Y-108770000D03*
X242550000Y-110570000D03*
X242550000Y-108770000D03*
X247750000Y-110570000D03*
%TD*%
%TO.C,D6*%
X228700000Y-108770000D03*
X223500000Y-110570000D03*
X223500000Y-108770000D03*
X228700000Y-110570000D03*
%TD*%
%TO.C,D4*%
X190600000Y-108770000D03*
X185400000Y-110570000D03*
X185400000Y-108770000D03*
X190600000Y-110570000D03*
%TD*%
%TO.C,D3*%
X171550000Y-108770000D03*
X166350000Y-110570000D03*
X166350000Y-108770000D03*
X171550000Y-110570000D03*
%TD*%
%TO.C,D2*%
X152500000Y-108770000D03*
X147300000Y-110570000D03*
X147300000Y-108770000D03*
X152500000Y-110570000D03*
%TD*%
%TO.C,D1*%
X133450000Y-108770000D03*
X128250000Y-110570000D03*
X128250000Y-108770000D03*
X133450000Y-110570000D03*
%TD*%
%TO.C,R5*%
G36*
G01*
X129450000Y-93393750D02*
X129450000Y-94306250D01*
G75*
G02*
X129206250Y-94550000I-243750J0D01*
G01*
X128718750Y-94550000D01*
G75*
G02*
X128475000Y-94306250I0J243750D01*
G01*
X128475000Y-93393750D01*
G75*
G02*
X128718750Y-93150000I243750J0D01*
G01*
X129206250Y-93150000D01*
G75*
G02*
X129450000Y-93393750I0J-243750D01*
G01*
G37*
G36*
G01*
X131325000Y-93393750D02*
X131325000Y-94306250D01*
G75*
G02*
X131081250Y-94550000I-243750J0D01*
G01*
X130593750Y-94550000D01*
G75*
G02*
X130350000Y-94306250I0J243750D01*
G01*
X130350000Y-93393750D01*
G75*
G02*
X130593750Y-93150000I243750J0D01*
G01*
X131081250Y-93150000D01*
G75*
G02*
X131325000Y-93393750I0J-243750D01*
G01*
G37*
%TD*%
%TO.C,R4*%
G36*
G01*
X129512500Y-91733750D02*
X129512500Y-92646250D01*
G75*
G02*
X129268750Y-92890000I-243750J0D01*
G01*
X128781250Y-92890000D01*
G75*
G02*
X128537500Y-92646250I0J243750D01*
G01*
X128537500Y-91733750D01*
G75*
G02*
X128781250Y-91490000I243750J0D01*
G01*
X129268750Y-91490000D01*
G75*
G02*
X129512500Y-91733750I0J-243750D01*
G01*
G37*
G36*
G01*
X131387500Y-91733750D02*
X131387500Y-92646250D01*
G75*
G02*
X131143750Y-92890000I-243750J0D01*
G01*
X130656250Y-92890000D01*
G75*
G02*
X130412500Y-92646250I0J243750D01*
G01*
X130412500Y-91733750D01*
G75*
G02*
X130656250Y-91490000I243750J0D01*
G01*
X131143750Y-91490000D01*
G75*
G02*
X131387500Y-91733750I0J-243750D01*
G01*
G37*
%TD*%
%TO.C,R3*%
G36*
G01*
X111049750Y-112131500D02*
X111962250Y-112131500D01*
G75*
G02*
X112206000Y-112375250I0J-243750D01*
G01*
X112206000Y-112862750D01*
G75*
G02*
X111962250Y-113106500I-243750J0D01*
G01*
X111049750Y-113106500D01*
G75*
G02*
X110806000Y-112862750I0J243750D01*
G01*
X110806000Y-112375250D01*
G75*
G02*
X111049750Y-112131500I243750J0D01*
G01*
G37*
G36*
G01*
X111049750Y-110256500D02*
X111962250Y-110256500D01*
G75*
G02*
X112206000Y-110500250I0J-243750D01*
G01*
X112206000Y-110987750D01*
G75*
G02*
X111962250Y-111231500I-243750J0D01*
G01*
X111049750Y-111231500D01*
G75*
G02*
X110806000Y-110987750I0J243750D01*
G01*
X110806000Y-110500250D01*
G75*
G02*
X111049750Y-110256500I243750J0D01*
G01*
G37*
%TD*%
%TO.C,C10*%
G36*
G01*
X125212500Y-102456250D02*
X125212500Y-101543750D01*
G75*
G02*
X125456250Y-101300000I243750J0D01*
G01*
X125943750Y-101300000D01*
G75*
G02*
X126187500Y-101543750I0J-243750D01*
G01*
X126187500Y-102456250D01*
G75*
G02*
X125943750Y-102700000I-243750J0D01*
G01*
X125456250Y-102700000D01*
G75*
G02*
X125212500Y-102456250I0J243750D01*
G01*
G37*
G36*
G01*
X123337500Y-102456250D02*
X123337500Y-101543750D01*
G75*
G02*
X123581250Y-101300000I243750J0D01*
G01*
X124068750Y-101300000D01*
G75*
G02*
X124312500Y-101543750I0J-243750D01*
G01*
X124312500Y-102456250D01*
G75*
G02*
X124068750Y-102700000I-243750J0D01*
G01*
X123581250Y-102700000D01*
G75*
G02*
X123337500Y-102456250I0J243750D01*
G01*
G37*
%TD*%
%TO.C,C9*%
G36*
G01*
X128036500Y-90372250D02*
X128036500Y-89459750D01*
G75*
G02*
X128280250Y-89216000I243750J0D01*
G01*
X128767750Y-89216000D01*
G75*
G02*
X129011500Y-89459750I0J-243750D01*
G01*
X129011500Y-90372250D01*
G75*
G02*
X128767750Y-90616000I-243750J0D01*
G01*
X128280250Y-90616000D01*
G75*
G02*
X128036500Y-90372250I0J243750D01*
G01*
G37*
G36*
G01*
X126161500Y-90372250D02*
X126161500Y-89459750D01*
G75*
G02*
X126405250Y-89216000I243750J0D01*
G01*
X126892750Y-89216000D01*
G75*
G02*
X127136500Y-89459750I0J-243750D01*
G01*
X127136500Y-90372250D01*
G75*
G02*
X126892750Y-90616000I-243750J0D01*
G01*
X126405250Y-90616000D01*
G75*
G02*
X126161500Y-90372250I0J243750D01*
G01*
G37*
%TD*%
%TO.C,C8*%
G36*
G01*
X108550000Y-91056250D02*
X108550000Y-90143750D01*
G75*
G02*
X108793750Y-89900000I243750J0D01*
G01*
X109281250Y-89900000D01*
G75*
G02*
X109525000Y-90143750I0J-243750D01*
G01*
X109525000Y-91056250D01*
G75*
G02*
X109281250Y-91300000I-243750J0D01*
G01*
X108793750Y-91300000D01*
G75*
G02*
X108550000Y-91056250I0J243750D01*
G01*
G37*
G36*
G01*
X106675000Y-91056250D02*
X106675000Y-90143750D01*
G75*
G02*
X106918750Y-89900000I243750J0D01*
G01*
X107406250Y-89900000D01*
G75*
G02*
X107650000Y-90143750I0J-243750D01*
G01*
X107650000Y-91056250D01*
G75*
G02*
X107406250Y-91300000I-243750J0D01*
G01*
X106918750Y-91300000D01*
G75*
G02*
X106675000Y-91056250I0J243750D01*
G01*
G37*
%TD*%
%TO.C,C7*%
G36*
G01*
X108183500Y-96571750D02*
X108183500Y-97484250D01*
G75*
G02*
X107939750Y-97728000I-243750J0D01*
G01*
X107452250Y-97728000D01*
G75*
G02*
X107208500Y-97484250I0J243750D01*
G01*
X107208500Y-96571750D01*
G75*
G02*
X107452250Y-96328000I243750J0D01*
G01*
X107939750Y-96328000D01*
G75*
G02*
X108183500Y-96571750I0J-243750D01*
G01*
G37*
G36*
G01*
X110058500Y-96571750D02*
X110058500Y-97484250D01*
G75*
G02*
X109814750Y-97728000I-243750J0D01*
G01*
X109327250Y-97728000D01*
G75*
G02*
X109083500Y-97484250I0J243750D01*
G01*
X109083500Y-96571750D01*
G75*
G02*
X109327250Y-96328000I243750J0D01*
G01*
X109814750Y-96328000D01*
G75*
G02*
X110058500Y-96571750I0J-243750D01*
G01*
G37*
%TD*%
%TO.C,C5*%
G36*
G01*
X123210500Y-105612250D02*
X123210500Y-104699750D01*
G75*
G02*
X123454250Y-104456000I243750J0D01*
G01*
X123941750Y-104456000D01*
G75*
G02*
X124185500Y-104699750I0J-243750D01*
G01*
X124185500Y-105612250D01*
G75*
G02*
X123941750Y-105856000I-243750J0D01*
G01*
X123454250Y-105856000D01*
G75*
G02*
X123210500Y-105612250I0J243750D01*
G01*
G37*
G36*
G01*
X121335500Y-105612250D02*
X121335500Y-104699750D01*
G75*
G02*
X121579250Y-104456000I243750J0D01*
G01*
X122066750Y-104456000D01*
G75*
G02*
X122310500Y-104699750I0J-243750D01*
G01*
X122310500Y-105612250D01*
G75*
G02*
X122066750Y-105856000I-243750J0D01*
G01*
X121579250Y-105856000D01*
G75*
G02*
X121335500Y-105612250I0J243750D01*
G01*
G37*
%TD*%
%TO.C,C4*%
G36*
G01*
X126056250Y-99312500D02*
X125143750Y-99312500D01*
G75*
G02*
X124900000Y-99068750I0J243750D01*
G01*
X124900000Y-98581250D01*
G75*
G02*
X125143750Y-98337500I243750J0D01*
G01*
X126056250Y-98337500D01*
G75*
G02*
X126300000Y-98581250I0J-243750D01*
G01*
X126300000Y-99068750D01*
G75*
G02*
X126056250Y-99312500I-243750J0D01*
G01*
G37*
G36*
G01*
X126056250Y-101187500D02*
X125143750Y-101187500D01*
G75*
G02*
X124900000Y-100943750I0J243750D01*
G01*
X124900000Y-100456250D01*
G75*
G02*
X125143750Y-100212500I243750J0D01*
G01*
X126056250Y-100212500D01*
G75*
G02*
X126300000Y-100456250I0J-243750D01*
G01*
X126300000Y-100943750D01*
G75*
G02*
X126056250Y-101187500I-243750J0D01*
G01*
G37*
%TD*%
%TO.C,C3*%
G36*
G01*
X110462500Y-99243750D02*
X110462500Y-100156250D01*
G75*
G02*
X110218750Y-100400000I-243750J0D01*
G01*
X109731250Y-100400000D01*
G75*
G02*
X109487500Y-100156250I0J243750D01*
G01*
X109487500Y-99243750D01*
G75*
G02*
X109731250Y-99000000I243750J0D01*
G01*
X110218750Y-99000000D01*
G75*
G02*
X110462500Y-99243750I0J-243750D01*
G01*
G37*
G36*
G01*
X112337500Y-99243750D02*
X112337500Y-100156250D01*
G75*
G02*
X112093750Y-100400000I-243750J0D01*
G01*
X111606250Y-100400000D01*
G75*
G02*
X111362500Y-100156250I0J243750D01*
G01*
X111362500Y-99243750D01*
G75*
G02*
X111606250Y-99000000I243750J0D01*
G01*
X112093750Y-99000000D01*
G75*
G02*
X112337500Y-99243750I0J-243750D01*
G01*
G37*
%TD*%
%TO.C,C2*%
G36*
G01*
X123718500Y-90372250D02*
X123718500Y-89459750D01*
G75*
G02*
X123962250Y-89216000I243750J0D01*
G01*
X124449750Y-89216000D01*
G75*
G02*
X124693500Y-89459750I0J-243750D01*
G01*
X124693500Y-90372250D01*
G75*
G02*
X124449750Y-90616000I-243750J0D01*
G01*
X123962250Y-90616000D01*
G75*
G02*
X123718500Y-90372250I0J243750D01*
G01*
G37*
G36*
G01*
X121843500Y-90372250D02*
X121843500Y-89459750D01*
G75*
G02*
X122087250Y-89216000I243750J0D01*
G01*
X122574750Y-89216000D01*
G75*
G02*
X122818500Y-89459750I0J-243750D01*
G01*
X122818500Y-90372250D01*
G75*
G02*
X122574750Y-90616000I-243750J0D01*
G01*
X122087250Y-90616000D01*
G75*
G02*
X121843500Y-90372250I0J243750D01*
G01*
G37*
%TD*%
%TO.C,C1*%
G36*
G01*
X112150500Y-89459750D02*
X112150500Y-90372250D01*
G75*
G02*
X111906750Y-90616000I-243750J0D01*
G01*
X111419250Y-90616000D01*
G75*
G02*
X111175500Y-90372250I0J243750D01*
G01*
X111175500Y-89459750D01*
G75*
G02*
X111419250Y-89216000I243750J0D01*
G01*
X111906750Y-89216000D01*
G75*
G02*
X112150500Y-89459750I0J-243750D01*
G01*
G37*
G36*
G01*
X114025500Y-89459750D02*
X114025500Y-90372250D01*
G75*
G02*
X113781750Y-90616000I-243750J0D01*
G01*
X113294250Y-90616000D01*
G75*
G02*
X113050500Y-90372250I0J243750D01*
G01*
X113050500Y-89459750D01*
G75*
G02*
X113294250Y-89216000I243750J0D01*
G01*
X113781750Y-89216000D01*
G75*
G02*
X114025500Y-89459750I0J-243750D01*
G01*
G37*
%TD*%
%TO.C,C6*%
G36*
G01*
X130443750Y-94862500D02*
X131356250Y-94862500D01*
G75*
G02*
X131600000Y-95106250I0J-243750D01*
G01*
X131600000Y-95593750D01*
G75*
G02*
X131356250Y-95837500I-243750J0D01*
G01*
X130443750Y-95837500D01*
G75*
G02*
X130200000Y-95593750I0J243750D01*
G01*
X130200000Y-95106250D01*
G75*
G02*
X130443750Y-94862500I243750J0D01*
G01*
G37*
G36*
G01*
X130443750Y-96737500D02*
X131356250Y-96737500D01*
G75*
G02*
X131600000Y-96981250I0J-243750D01*
G01*
X131600000Y-97468750D01*
G75*
G02*
X131356250Y-97712500I-243750J0D01*
G01*
X130443750Y-97712500D01*
G75*
G02*
X130200000Y-97468750I0J243750D01*
G01*
X130200000Y-96981250D01*
G75*
G02*
X130443750Y-96737500I243750J0D01*
G01*
G37*
%TD*%
%TO.C,U1*%
G36*
G01*
X115800263Y-96561106D02*
X116152859Y-96913702D01*
G75*
G02*
X116152859Y-97266298I-176298J-176298D01*
G01*
X115800263Y-97618894D01*
G75*
G02*
X115447667Y-97618894I-176298J176298D01*
G01*
X115095071Y-97266298D01*
G75*
G02*
X115095071Y-96913702I176298J176298D01*
G01*
X115447667Y-96561106D01*
G75*
G02*
X115800263Y-96561106I176298J-176298D01*
G01*
G37*
G36*
G01*
X116622275Y-97383118D02*
X116974871Y-97735714D01*
G75*
G02*
X116974871Y-98088310I-176298J-176298D01*
G01*
X116622275Y-98440906D01*
G75*
G02*
X116269679Y-98440906I-176298J176298D01*
G01*
X115917083Y-98088310D01*
G75*
G02*
X115917083Y-97735714I176298J176298D01*
G01*
X116269679Y-97383118D01*
G75*
G02*
X116622275Y-97383118I176298J-176298D01*
G01*
G37*
G36*
G01*
X117444286Y-98205129D02*
X117796882Y-98557725D01*
G75*
G02*
X117796882Y-98910321I-176298J-176298D01*
G01*
X117444286Y-99262917D01*
G75*
G02*
X117091690Y-99262917I-176298J176298D01*
G01*
X116739094Y-98910321D01*
G75*
G02*
X116739094Y-98557725I176298J176298D01*
G01*
X117091690Y-98205129D01*
G75*
G02*
X117444286Y-98205129I176298J-176298D01*
G01*
G37*
G36*
G01*
X118266298Y-99027141D02*
X118618894Y-99379737D01*
G75*
G02*
X118618894Y-99732333I-176298J-176298D01*
G01*
X118266298Y-100084929D01*
G75*
G02*
X117913702Y-100084929I-176298J176298D01*
G01*
X117561106Y-99732333D01*
G75*
G02*
X117561106Y-99379737I176298J176298D01*
G01*
X117913702Y-99027141D01*
G75*
G02*
X118266298Y-99027141I176298J-176298D01*
G01*
G37*
G36*
G01*
X116622275Y-95739094D02*
X116974871Y-96091690D01*
G75*
G02*
X116974871Y-96444286I-176298J-176298D01*
G01*
X116622275Y-96796882D01*
G75*
G02*
X116269679Y-96796882I-176298J176298D01*
G01*
X115917083Y-96444286D01*
G75*
G02*
X115917083Y-96091690I176298J176298D01*
G01*
X116269679Y-95739094D01*
G75*
G02*
X116622275Y-95739094I176298J-176298D01*
G01*
G37*
G36*
G01*
X117444286Y-96561106D02*
X117796882Y-96913702D01*
G75*
G02*
X117796882Y-97266298I-176298J-176298D01*
G01*
X117444286Y-97618894D01*
G75*
G02*
X117091690Y-97618894I-176298J176298D01*
G01*
X116739094Y-97266298D01*
G75*
G02*
X116739094Y-96913702I176298J176298D01*
G01*
X117091690Y-96561106D01*
G75*
G02*
X117444286Y-96561106I176298J-176298D01*
G01*
G37*
G36*
G01*
X118266298Y-97383118D02*
X118618894Y-97735714D01*
G75*
G02*
X118618894Y-98088310I-176298J-176298D01*
G01*
X118266298Y-98440906D01*
G75*
G02*
X117913702Y-98440906I-176298J176298D01*
G01*
X117561106Y-98088310D01*
G75*
G02*
X117561106Y-97735714I176298J176298D01*
G01*
X117913702Y-97383118D01*
G75*
G02*
X118266298Y-97383118I176298J-176298D01*
G01*
G37*
G36*
G01*
X119088310Y-98205129D02*
X119440906Y-98557725D01*
G75*
G02*
X119440906Y-98910321I-176298J-176298D01*
G01*
X119088310Y-99262917D01*
G75*
G02*
X118735714Y-99262917I-176298J176298D01*
G01*
X118383118Y-98910321D01*
G75*
G02*
X118383118Y-98557725I176298J176298D01*
G01*
X118735714Y-98205129D01*
G75*
G02*
X119088310Y-98205129I176298J-176298D01*
G01*
G37*
G36*
G01*
X117444286Y-94917083D02*
X117796882Y-95269679D01*
G75*
G02*
X117796882Y-95622275I-176298J-176298D01*
G01*
X117444286Y-95974871D01*
G75*
G02*
X117091690Y-95974871I-176298J176298D01*
G01*
X116739094Y-95622275D01*
G75*
G02*
X116739094Y-95269679I176298J176298D01*
G01*
X117091690Y-94917083D01*
G75*
G02*
X117444286Y-94917083I176298J-176298D01*
G01*
G37*
G36*
G01*
X118266298Y-95739094D02*
X118618894Y-96091690D01*
G75*
G02*
X118618894Y-96444286I-176298J-176298D01*
G01*
X118266298Y-96796882D01*
G75*
G02*
X117913702Y-96796882I-176298J176298D01*
G01*
X117561106Y-96444286D01*
G75*
G02*
X117561106Y-96091690I176298J176298D01*
G01*
X117913702Y-95739094D01*
G75*
G02*
X118266298Y-95739094I176298J-176298D01*
G01*
G37*
G36*
G01*
X119088310Y-96561106D02*
X119440906Y-96913702D01*
G75*
G02*
X119440906Y-97266298I-176298J-176298D01*
G01*
X119088310Y-97618894D01*
G75*
G02*
X118735714Y-97618894I-176298J176298D01*
G01*
X118383118Y-97266298D01*
G75*
G02*
X118383118Y-96913702I176298J176298D01*
G01*
X118735714Y-96561106D01*
G75*
G02*
X119088310Y-96561106I176298J-176298D01*
G01*
G37*
G36*
G01*
X119910321Y-97383118D02*
X120262917Y-97735714D01*
G75*
G02*
X120262917Y-98088310I-176298J-176298D01*
G01*
X119910321Y-98440906D01*
G75*
G02*
X119557725Y-98440906I-176298J176298D01*
G01*
X119205129Y-98088310D01*
G75*
G02*
X119205129Y-97735714I176298J176298D01*
G01*
X119557725Y-97383118D01*
G75*
G02*
X119910321Y-97383118I176298J-176298D01*
G01*
G37*
G36*
G01*
X118266298Y-94095071D02*
X118618894Y-94447667D01*
G75*
G02*
X118618894Y-94800263I-176298J-176298D01*
G01*
X118266298Y-95152859D01*
G75*
G02*
X117913702Y-95152859I-176298J176298D01*
G01*
X117561106Y-94800263D01*
G75*
G02*
X117561106Y-94447667I176298J176298D01*
G01*
X117913702Y-94095071D01*
G75*
G02*
X118266298Y-94095071I176298J-176298D01*
G01*
G37*
G36*
G01*
X119088310Y-94917083D02*
X119440906Y-95269679D01*
G75*
G02*
X119440906Y-95622275I-176298J-176298D01*
G01*
X119088310Y-95974871D01*
G75*
G02*
X118735714Y-95974871I-176298J176298D01*
G01*
X118383118Y-95622275D01*
G75*
G02*
X118383118Y-95269679I176298J176298D01*
G01*
X118735714Y-94917083D01*
G75*
G02*
X119088310Y-94917083I176298J-176298D01*
G01*
G37*
G36*
G01*
X119910321Y-95739094D02*
X120262917Y-96091690D01*
G75*
G02*
X120262917Y-96444286I-176298J-176298D01*
G01*
X119910321Y-96796882D01*
G75*
G02*
X119557725Y-96796882I-176298J176298D01*
G01*
X119205129Y-96444286D01*
G75*
G02*
X119205129Y-96091690I176298J176298D01*
G01*
X119557725Y-95739094D01*
G75*
G02*
X119910321Y-95739094I176298J-176298D01*
G01*
G37*
G36*
G01*
X120732333Y-96561106D02*
X121084929Y-96913702D01*
G75*
G02*
X121084929Y-97266298I-176298J-176298D01*
G01*
X120732333Y-97618894D01*
G75*
G02*
X120379737Y-97618894I-176298J176298D01*
G01*
X120027141Y-97266298D01*
G75*
G02*
X120027141Y-96913702I176298J176298D01*
G01*
X120379737Y-96561106D01*
G75*
G02*
X120732333Y-96561106I176298J-176298D01*
G01*
G37*
G36*
G01*
X122111670Y-97399360D02*
X122642000Y-97929690D01*
G75*
G02*
X122642000Y-98018078I-44194J-44194D01*
G01*
X122553612Y-98106466D01*
G75*
G02*
X122465224Y-98106466I-44194J44194D01*
G01*
X121934894Y-97576136D01*
G75*
G02*
X121934894Y-97487748I44194J44194D01*
G01*
X122023282Y-97399360D01*
G75*
G02*
X122111670Y-97399360I44194J-44194D01*
G01*
G37*
G36*
G01*
X121758116Y-97752913D02*
X122288446Y-98283243D01*
G75*
G02*
X122288446Y-98371631I-44194J-44194D01*
G01*
X122200058Y-98460019D01*
G75*
G02*
X122111670Y-98460019I-44194J44194D01*
G01*
X121581340Y-97929689D01*
G75*
G02*
X121581340Y-97841301I44194J44194D01*
G01*
X121669728Y-97752913D01*
G75*
G02*
X121758116Y-97752913I44194J-44194D01*
G01*
G37*
G36*
G01*
X121404563Y-98106466D02*
X121934893Y-98636796D01*
G75*
G02*
X121934893Y-98725184I-44194J-44194D01*
G01*
X121846505Y-98813572D01*
G75*
G02*
X121758117Y-98813572I-44194J44194D01*
G01*
X121227787Y-98283242D01*
G75*
G02*
X121227787Y-98194854I44194J44194D01*
G01*
X121316175Y-98106466D01*
G75*
G02*
X121404563Y-98106466I44194J-44194D01*
G01*
G37*
G36*
G01*
X121051009Y-98460020D02*
X121581339Y-98990350D01*
G75*
G02*
X121581339Y-99078738I-44194J-44194D01*
G01*
X121492951Y-99167126D01*
G75*
G02*
X121404563Y-99167126I-44194J44194D01*
G01*
X120874233Y-98636796D01*
G75*
G02*
X120874233Y-98548408I44194J44194D01*
G01*
X120962621Y-98460020D01*
G75*
G02*
X121051009Y-98460020I44194J-44194D01*
G01*
G37*
G36*
G01*
X120697456Y-98813573D02*
X121227786Y-99343903D01*
G75*
G02*
X121227786Y-99432291I-44194J-44194D01*
G01*
X121139398Y-99520679D01*
G75*
G02*
X121051010Y-99520679I-44194J44194D01*
G01*
X120520680Y-98990349D01*
G75*
G02*
X120520680Y-98901961I44194J44194D01*
G01*
X120609068Y-98813573D01*
G75*
G02*
X120697456Y-98813573I44194J-44194D01*
G01*
G37*
G36*
G01*
X120343903Y-99167127D02*
X120874233Y-99697457D01*
G75*
G02*
X120874233Y-99785845I-44194J-44194D01*
G01*
X120785845Y-99874233D01*
G75*
G02*
X120697457Y-99874233I-44194J44194D01*
G01*
X120167127Y-99343903D01*
G75*
G02*
X120167127Y-99255515I44194J44194D01*
G01*
X120255515Y-99167127D01*
G75*
G02*
X120343903Y-99167127I44194J-44194D01*
G01*
G37*
G36*
G01*
X119990349Y-99520680D02*
X120520679Y-100051010D01*
G75*
G02*
X120520679Y-100139398I-44194J-44194D01*
G01*
X120432291Y-100227786D01*
G75*
G02*
X120343903Y-100227786I-44194J44194D01*
G01*
X119813573Y-99697456D01*
G75*
G02*
X119813573Y-99609068I44194J44194D01*
G01*
X119901961Y-99520680D01*
G75*
G02*
X119990349Y-99520680I44194J-44194D01*
G01*
G37*
G36*
G01*
X119636796Y-99874233D02*
X120167126Y-100404563D01*
G75*
G02*
X120167126Y-100492951I-44194J-44194D01*
G01*
X120078738Y-100581339D01*
G75*
G02*
X119990350Y-100581339I-44194J44194D01*
G01*
X119460020Y-100051009D01*
G75*
G02*
X119460020Y-99962621I44194J44194D01*
G01*
X119548408Y-99874233D01*
G75*
G02*
X119636796Y-99874233I44194J-44194D01*
G01*
G37*
G36*
G01*
X119283242Y-100227787D02*
X119813572Y-100758117D01*
G75*
G02*
X119813572Y-100846505I-44194J-44194D01*
G01*
X119725184Y-100934893D01*
G75*
G02*
X119636796Y-100934893I-44194J44194D01*
G01*
X119106466Y-100404563D01*
G75*
G02*
X119106466Y-100316175I44194J44194D01*
G01*
X119194854Y-100227787D01*
G75*
G02*
X119283242Y-100227787I44194J-44194D01*
G01*
G37*
G36*
G01*
X118929689Y-100581340D02*
X119460019Y-101111670D01*
G75*
G02*
X119460019Y-101200058I-44194J-44194D01*
G01*
X119371631Y-101288446D01*
G75*
G02*
X119283243Y-101288446I-44194J44194D01*
G01*
X118752913Y-100758116D01*
G75*
G02*
X118752913Y-100669728I44194J44194D01*
G01*
X118841301Y-100581340D01*
G75*
G02*
X118929689Y-100581340I44194J-44194D01*
G01*
G37*
G36*
G01*
X118576136Y-100934894D02*
X119106466Y-101465224D01*
G75*
G02*
X119106466Y-101553612I-44194J-44194D01*
G01*
X119018078Y-101642000D01*
G75*
G02*
X118929690Y-101642000I-44194J44194D01*
G01*
X118399360Y-101111670D01*
G75*
G02*
X118399360Y-101023282I44194J44194D01*
G01*
X118487748Y-100934894D01*
G75*
G02*
X118576136Y-100934894I44194J-44194D01*
G01*
G37*
G36*
G01*
X117692252Y-100934894D02*
X117780640Y-101023282D01*
G75*
G02*
X117780640Y-101111670I-44194J-44194D01*
G01*
X117250310Y-101642000D01*
G75*
G02*
X117161922Y-101642000I-44194J44194D01*
G01*
X117073534Y-101553612D01*
G75*
G02*
X117073534Y-101465224I44194J44194D01*
G01*
X117603864Y-100934894D01*
G75*
G02*
X117692252Y-100934894I44194J-44194D01*
G01*
G37*
G36*
G01*
X117338699Y-100581340D02*
X117427087Y-100669728D01*
G75*
G02*
X117427087Y-100758116I-44194J-44194D01*
G01*
X116896757Y-101288446D01*
G75*
G02*
X116808369Y-101288446I-44194J44194D01*
G01*
X116719981Y-101200058D01*
G75*
G02*
X116719981Y-101111670I44194J44194D01*
G01*
X117250311Y-100581340D01*
G75*
G02*
X117338699Y-100581340I44194J-44194D01*
G01*
G37*
G36*
G01*
X116985146Y-100227787D02*
X117073534Y-100316175D01*
G75*
G02*
X117073534Y-100404563I-44194J-44194D01*
G01*
X116543204Y-100934893D01*
G75*
G02*
X116454816Y-100934893I-44194J44194D01*
G01*
X116366428Y-100846505D01*
G75*
G02*
X116366428Y-100758117I44194J44194D01*
G01*
X116896758Y-100227787D01*
G75*
G02*
X116985146Y-100227787I44194J-44194D01*
G01*
G37*
G36*
G01*
X116631592Y-99874233D02*
X116719980Y-99962621D01*
G75*
G02*
X116719980Y-100051009I-44194J-44194D01*
G01*
X116189650Y-100581339D01*
G75*
G02*
X116101262Y-100581339I-44194J44194D01*
G01*
X116012874Y-100492951D01*
G75*
G02*
X116012874Y-100404563I44194J44194D01*
G01*
X116543204Y-99874233D01*
G75*
G02*
X116631592Y-99874233I44194J-44194D01*
G01*
G37*
G36*
G01*
X116278039Y-99520680D02*
X116366427Y-99609068D01*
G75*
G02*
X116366427Y-99697456I-44194J-44194D01*
G01*
X115836097Y-100227786D01*
G75*
G02*
X115747709Y-100227786I-44194J44194D01*
G01*
X115659321Y-100139398D01*
G75*
G02*
X115659321Y-100051010I44194J44194D01*
G01*
X116189651Y-99520680D01*
G75*
G02*
X116278039Y-99520680I44194J-44194D01*
G01*
G37*
G36*
G01*
X115924485Y-99167127D02*
X116012873Y-99255515D01*
G75*
G02*
X116012873Y-99343903I-44194J-44194D01*
G01*
X115482543Y-99874233D01*
G75*
G02*
X115394155Y-99874233I-44194J44194D01*
G01*
X115305767Y-99785845D01*
G75*
G02*
X115305767Y-99697457I44194J44194D01*
G01*
X115836097Y-99167127D01*
G75*
G02*
X115924485Y-99167127I44194J-44194D01*
G01*
G37*
G36*
G01*
X115570932Y-98813573D02*
X115659320Y-98901961D01*
G75*
G02*
X115659320Y-98990349I-44194J-44194D01*
G01*
X115128990Y-99520679D01*
G75*
G02*
X115040602Y-99520679I-44194J44194D01*
G01*
X114952214Y-99432291D01*
G75*
G02*
X114952214Y-99343903I44194J44194D01*
G01*
X115482544Y-98813573D01*
G75*
G02*
X115570932Y-98813573I44194J-44194D01*
G01*
G37*
G36*
G01*
X115217379Y-98460020D02*
X115305767Y-98548408D01*
G75*
G02*
X115305767Y-98636796I-44194J-44194D01*
G01*
X114775437Y-99167126D01*
G75*
G02*
X114687049Y-99167126I-44194J44194D01*
G01*
X114598661Y-99078738D01*
G75*
G02*
X114598661Y-98990350I44194J44194D01*
G01*
X115128991Y-98460020D01*
G75*
G02*
X115217379Y-98460020I44194J-44194D01*
G01*
G37*
G36*
G01*
X114863825Y-98106466D02*
X114952213Y-98194854D01*
G75*
G02*
X114952213Y-98283242I-44194J-44194D01*
G01*
X114421883Y-98813572D01*
G75*
G02*
X114333495Y-98813572I-44194J44194D01*
G01*
X114245107Y-98725184D01*
G75*
G02*
X114245107Y-98636796I44194J44194D01*
G01*
X114775437Y-98106466D01*
G75*
G02*
X114863825Y-98106466I44194J-44194D01*
G01*
G37*
G36*
G01*
X114510272Y-97752913D02*
X114598660Y-97841301D01*
G75*
G02*
X114598660Y-97929689I-44194J-44194D01*
G01*
X114068330Y-98460019D01*
G75*
G02*
X113979942Y-98460019I-44194J44194D01*
G01*
X113891554Y-98371631D01*
G75*
G02*
X113891554Y-98283243I44194J44194D01*
G01*
X114421884Y-97752913D01*
G75*
G02*
X114510272Y-97752913I44194J-44194D01*
G01*
G37*
G36*
G01*
X114156718Y-97399360D02*
X114245106Y-97487748D01*
G75*
G02*
X114245106Y-97576136I-44194J-44194D01*
G01*
X113714776Y-98106466D01*
G75*
G02*
X113626388Y-98106466I-44194J44194D01*
G01*
X113538000Y-98018078D01*
G75*
G02*
X113538000Y-97929690I44194J44194D01*
G01*
X114068330Y-97399360D01*
G75*
G02*
X114156718Y-97399360I44194J-44194D01*
G01*
G37*
G36*
G01*
X113714776Y-96073534D02*
X114245106Y-96603864D01*
G75*
G02*
X114245106Y-96692252I-44194J-44194D01*
G01*
X114156718Y-96780640D01*
G75*
G02*
X114068330Y-96780640I-44194J44194D01*
G01*
X113538000Y-96250310D01*
G75*
G02*
X113538000Y-96161922I44194J44194D01*
G01*
X113626388Y-96073534D01*
G75*
G02*
X113714776Y-96073534I44194J-44194D01*
G01*
G37*
G36*
G01*
X114068330Y-95719981D02*
X114598660Y-96250311D01*
G75*
G02*
X114598660Y-96338699I-44194J-44194D01*
G01*
X114510272Y-96427087D01*
G75*
G02*
X114421884Y-96427087I-44194J44194D01*
G01*
X113891554Y-95896757D01*
G75*
G02*
X113891554Y-95808369I44194J44194D01*
G01*
X113979942Y-95719981D01*
G75*
G02*
X114068330Y-95719981I44194J-44194D01*
G01*
G37*
G36*
G01*
X114421883Y-95366428D02*
X114952213Y-95896758D01*
G75*
G02*
X114952213Y-95985146I-44194J-44194D01*
G01*
X114863825Y-96073534D01*
G75*
G02*
X114775437Y-96073534I-44194J44194D01*
G01*
X114245107Y-95543204D01*
G75*
G02*
X114245107Y-95454816I44194J44194D01*
G01*
X114333495Y-95366428D01*
G75*
G02*
X114421883Y-95366428I44194J-44194D01*
G01*
G37*
G36*
G01*
X114775437Y-95012874D02*
X115305767Y-95543204D01*
G75*
G02*
X115305767Y-95631592I-44194J-44194D01*
G01*
X115217379Y-95719980D01*
G75*
G02*
X115128991Y-95719980I-44194J44194D01*
G01*
X114598661Y-95189650D01*
G75*
G02*
X114598661Y-95101262I44194J44194D01*
G01*
X114687049Y-95012874D01*
G75*
G02*
X114775437Y-95012874I44194J-44194D01*
G01*
G37*
G36*
G01*
X115128990Y-94659321D02*
X115659320Y-95189651D01*
G75*
G02*
X115659320Y-95278039I-44194J-44194D01*
G01*
X115570932Y-95366427D01*
G75*
G02*
X115482544Y-95366427I-44194J44194D01*
G01*
X114952214Y-94836097D01*
G75*
G02*
X114952214Y-94747709I44194J44194D01*
G01*
X115040602Y-94659321D01*
G75*
G02*
X115128990Y-94659321I44194J-44194D01*
G01*
G37*
G36*
G01*
X115482543Y-94305767D02*
X116012873Y-94836097D01*
G75*
G02*
X116012873Y-94924485I-44194J-44194D01*
G01*
X115924485Y-95012873D01*
G75*
G02*
X115836097Y-95012873I-44194J44194D01*
G01*
X115305767Y-94482543D01*
G75*
G02*
X115305767Y-94394155I44194J44194D01*
G01*
X115394155Y-94305767D01*
G75*
G02*
X115482543Y-94305767I44194J-44194D01*
G01*
G37*
G36*
G01*
X115836097Y-93952214D02*
X116366427Y-94482544D01*
G75*
G02*
X116366427Y-94570932I-44194J-44194D01*
G01*
X116278039Y-94659320D01*
G75*
G02*
X116189651Y-94659320I-44194J44194D01*
G01*
X115659321Y-94128990D01*
G75*
G02*
X115659321Y-94040602I44194J44194D01*
G01*
X115747709Y-93952214D01*
G75*
G02*
X115836097Y-93952214I44194J-44194D01*
G01*
G37*
G36*
G01*
X116189650Y-93598661D02*
X116719980Y-94128991D01*
G75*
G02*
X116719980Y-94217379I-44194J-44194D01*
G01*
X116631592Y-94305767D01*
G75*
G02*
X116543204Y-94305767I-44194J44194D01*
G01*
X116012874Y-93775437D01*
G75*
G02*
X116012874Y-93687049I44194J44194D01*
G01*
X116101262Y-93598661D01*
G75*
G02*
X116189650Y-93598661I44194J-44194D01*
G01*
G37*
G36*
G01*
X116543204Y-93245107D02*
X117073534Y-93775437D01*
G75*
G02*
X117073534Y-93863825I-44194J-44194D01*
G01*
X116985146Y-93952213D01*
G75*
G02*
X116896758Y-93952213I-44194J44194D01*
G01*
X116366428Y-93421883D01*
G75*
G02*
X116366428Y-93333495I44194J44194D01*
G01*
X116454816Y-93245107D01*
G75*
G02*
X116543204Y-93245107I44194J-44194D01*
G01*
G37*
G36*
G01*
X116896757Y-92891554D02*
X117427087Y-93421884D01*
G75*
G02*
X117427087Y-93510272I-44194J-44194D01*
G01*
X117338699Y-93598660D01*
G75*
G02*
X117250311Y-93598660I-44194J44194D01*
G01*
X116719981Y-93068330D01*
G75*
G02*
X116719981Y-92979942I44194J44194D01*
G01*
X116808369Y-92891554D01*
G75*
G02*
X116896757Y-92891554I44194J-44194D01*
G01*
G37*
G36*
G01*
X117250310Y-92538000D02*
X117780640Y-93068330D01*
G75*
G02*
X117780640Y-93156718I-44194J-44194D01*
G01*
X117692252Y-93245106D01*
G75*
G02*
X117603864Y-93245106I-44194J44194D01*
G01*
X117073534Y-92714776D01*
G75*
G02*
X117073534Y-92626388I44194J44194D01*
G01*
X117161922Y-92538000D01*
G75*
G02*
X117250310Y-92538000I44194J-44194D01*
G01*
G37*
G36*
G01*
X119018078Y-92538000D02*
X119106466Y-92626388D01*
G75*
G02*
X119106466Y-92714776I-44194J-44194D01*
G01*
X118576136Y-93245106D01*
G75*
G02*
X118487748Y-93245106I-44194J44194D01*
G01*
X118399360Y-93156718D01*
G75*
G02*
X118399360Y-93068330I44194J44194D01*
G01*
X118929690Y-92538000D01*
G75*
G02*
X119018078Y-92538000I44194J-44194D01*
G01*
G37*
G36*
G01*
X119371631Y-92891554D02*
X119460019Y-92979942D01*
G75*
G02*
X119460019Y-93068330I-44194J-44194D01*
G01*
X118929689Y-93598660D01*
G75*
G02*
X118841301Y-93598660I-44194J44194D01*
G01*
X118752913Y-93510272D01*
G75*
G02*
X118752913Y-93421884I44194J44194D01*
G01*
X119283243Y-92891554D01*
G75*
G02*
X119371631Y-92891554I44194J-44194D01*
G01*
G37*
G36*
G01*
X119725184Y-93245107D02*
X119813572Y-93333495D01*
G75*
G02*
X119813572Y-93421883I-44194J-44194D01*
G01*
X119283242Y-93952213D01*
G75*
G02*
X119194854Y-93952213I-44194J44194D01*
G01*
X119106466Y-93863825D01*
G75*
G02*
X119106466Y-93775437I44194J44194D01*
G01*
X119636796Y-93245107D01*
G75*
G02*
X119725184Y-93245107I44194J-44194D01*
G01*
G37*
G36*
G01*
X120078738Y-93598661D02*
X120167126Y-93687049D01*
G75*
G02*
X120167126Y-93775437I-44194J-44194D01*
G01*
X119636796Y-94305767D01*
G75*
G02*
X119548408Y-94305767I-44194J44194D01*
G01*
X119460020Y-94217379D01*
G75*
G02*
X119460020Y-94128991I44194J44194D01*
G01*
X119990350Y-93598661D01*
G75*
G02*
X120078738Y-93598661I44194J-44194D01*
G01*
G37*
G36*
G01*
X120432291Y-93952214D02*
X120520679Y-94040602D01*
G75*
G02*
X120520679Y-94128990I-44194J-44194D01*
G01*
X119990349Y-94659320D01*
G75*
G02*
X119901961Y-94659320I-44194J44194D01*
G01*
X119813573Y-94570932D01*
G75*
G02*
X119813573Y-94482544I44194J44194D01*
G01*
X120343903Y-93952214D01*
G75*
G02*
X120432291Y-93952214I44194J-44194D01*
G01*
G37*
G36*
G01*
X120785845Y-94305767D02*
X120874233Y-94394155D01*
G75*
G02*
X120874233Y-94482543I-44194J-44194D01*
G01*
X120343903Y-95012873D01*
G75*
G02*
X120255515Y-95012873I-44194J44194D01*
G01*
X120167127Y-94924485D01*
G75*
G02*
X120167127Y-94836097I44194J44194D01*
G01*
X120697457Y-94305767D01*
G75*
G02*
X120785845Y-94305767I44194J-44194D01*
G01*
G37*
G36*
G01*
X121139398Y-94659321D02*
X121227786Y-94747709D01*
G75*
G02*
X121227786Y-94836097I-44194J-44194D01*
G01*
X120697456Y-95366427D01*
G75*
G02*
X120609068Y-95366427I-44194J44194D01*
G01*
X120520680Y-95278039D01*
G75*
G02*
X120520680Y-95189651I44194J44194D01*
G01*
X121051010Y-94659321D01*
G75*
G02*
X121139398Y-94659321I44194J-44194D01*
G01*
G37*
G36*
G01*
X121492951Y-95012874D02*
X121581339Y-95101262D01*
G75*
G02*
X121581339Y-95189650I-44194J-44194D01*
G01*
X121051009Y-95719980D01*
G75*
G02*
X120962621Y-95719980I-44194J44194D01*
G01*
X120874233Y-95631592D01*
G75*
G02*
X120874233Y-95543204I44194J44194D01*
G01*
X121404563Y-95012874D01*
G75*
G02*
X121492951Y-95012874I44194J-44194D01*
G01*
G37*
G36*
G01*
X121846505Y-95366428D02*
X121934893Y-95454816D01*
G75*
G02*
X121934893Y-95543204I-44194J-44194D01*
G01*
X121404563Y-96073534D01*
G75*
G02*
X121316175Y-96073534I-44194J44194D01*
G01*
X121227787Y-95985146D01*
G75*
G02*
X121227787Y-95896758I44194J44194D01*
G01*
X121758117Y-95366428D01*
G75*
G02*
X121846505Y-95366428I44194J-44194D01*
G01*
G37*
G36*
G01*
X122200058Y-95719981D02*
X122288446Y-95808369D01*
G75*
G02*
X122288446Y-95896757I-44194J-44194D01*
G01*
X121758116Y-96427087D01*
G75*
G02*
X121669728Y-96427087I-44194J44194D01*
G01*
X121581340Y-96338699D01*
G75*
G02*
X121581340Y-96250311I44194J44194D01*
G01*
X122111670Y-95719981D01*
G75*
G02*
X122200058Y-95719981I44194J-44194D01*
G01*
G37*
G36*
G01*
X122553612Y-96073534D02*
X122642000Y-96161922D01*
G75*
G02*
X122642000Y-96250310I-44194J-44194D01*
G01*
X122111670Y-96780640D01*
G75*
G02*
X122023282Y-96780640I-44194J44194D01*
G01*
X121934894Y-96692252D01*
G75*
G02*
X121934894Y-96603864I44194J44194D01*
G01*
X122465224Y-96073534D01*
G75*
G02*
X122553612Y-96073534I44194J-44194D01*
G01*
G37*
%TD*%
D11*
%TO.C,SW1*%
X122936000Y-112766000D03*
X116636000Y-112766000D03*
X122936000Y-108966000D03*
X116636000Y-108966000D03*
%TD*%
D12*
%TO.C,X1*%
X107620000Y-94996000D03*
X107620000Y-92796000D03*
X109220000Y-92796000D03*
X109220000Y-94996000D03*
%TD*%
M02*
