M48
; DRILL file {KiCad (5.1.6)-1} date 02/11/22 00:07:10
; FORMAT={-:-/ absolute / inch / decimal}
; #@! TF.CreationDate,2022-02-11T00:07:10-06:00
; #@! TF.GenerationSoftware,Kicad,Pcbnew,(5.1.6)-1
; #@! TF.FileFunction,Plated,1,2,PTH
FMAT,2
INCH
T1C0.0079
T2C0.0157
T3C0.0276
T4C0.0295
T5C0.0315
T6C0.0394
T7C0.0400
T8C0.0579
%
G90
G05
T1
X4.5198Y-3.8224
X4.5521Y-3.7901
X4.5521Y-3.8548
X4.5845Y-3.7577
X4.5845Y-3.8224
X4.5845Y-3.8872
X4.6168Y-3.7254
X4.6168Y-3.7901
X4.6168Y-3.8548
X4.6168Y-3.9195
X4.6492Y-3.693
X4.6492Y-3.7577
X4.6492Y-3.8224
X4.6492Y-3.8872
X4.6492Y-3.9519
X4.6816Y-3.7254
X4.6816Y-3.7901
X4.6816Y-3.8548
X4.6816Y-3.9195
X4.7139Y-3.7577
X4.7139Y-3.8224
X4.7139Y-3.8872
X4.7463Y-3.7901
X4.7463Y-3.8548
X4.7787Y-3.8224
T2
X3.6614Y-3.7894
X3.7449Y-4.4459
X3.772Y-3.789
X4.1476Y-3.5886
X4.1476Y-3.7713
X4.1713Y-3.6398
X4.1772Y-3.6969
X4.1944Y-3.8145
X4.3376Y-3.6446
X4.3406Y-3.5256
X4.3484Y-3.565
X4.3661Y-3.8169
X4.3681Y-3.7126
X4.3681Y-3.8839
X4.3711Y-3.7519
X4.3967Y-4.0459
X4.3976Y-4.3169
X4.4158Y-3.6
X4.4291Y-3.6909
X4.4311Y-4.2579
X4.4469Y-3.8189
X4.4508Y-4.4016
X4.4596Y-4.2234
X4.4705Y-4.4606
X4.4754Y-3.689
X4.4764Y-3.7343
X4.4882Y-4.2601
X4.5172Y-3.5665
X4.5276Y-3.5276
X4.6043Y-4.0965
X4.6447Y-4.0078
X4.6496Y-3.6398
X4.7358Y-3.5716
X4.7417Y-3.9985
X4.7539Y-3.5276
X4.7608Y-3.6427
X4.7874Y-3.6122
X4.8092Y-3.7029
X4.811Y-4.1949
X4.8428Y-3.9701
X4.8445Y-3.8287
X4.8781Y-3.634
X4.8834Y-3.8771
X4.9055Y-4.4488
X4.9114Y-4.1752
X4.9151Y-4.0569
X4.9213Y-3.8386
X4.9232Y-4.2933
X4.9331Y-3.5295
X4.994Y-4.004
X5.002Y-3.8543
X5.002Y-4.0906
X5.0046Y-3.815
X5.0256Y-4.0335
X5.0295Y-4.2106
X5.0759Y-3.8673
X5.0807Y-3.752
X5.1043Y-3.5256
X5.12Y-3.871
X5.1299Y-3.9823
X5.1874Y-3.5866
X5.2083Y-3.7799
X5.2717Y-4.1772
X5.3465Y-4.313
X5.3563Y-3.9593
X5.4047Y-3.9673
X5.4862Y-4.1004
X5.5689Y-3.9646
X5.5728Y-4.3799
X5.5748Y-4.2441
X5.7185Y-4.3209
X5.7717Y-4.1693
X5.9075Y-3.9665
X6.0512Y-4.2008
X6.0768Y-4.313
X6.1811Y-4.0787
X6.1909Y-3.9685
X6.4665Y-4.3268
X6.5276Y-4.1732
X6.6535Y-3.9626
X6.7913Y-4.189
X6.8327Y-4.315
X7.2224Y-4.3209
X7.2717Y-4.1969
X7.3957Y-3.9626
X7.5866Y-4.313
X7.6732Y-4.1969
X7.7264Y-3.9587
X7.9606Y-4.3228
X8.1614Y-3.9665
X8.2756Y-4.189
X8.3366Y-4.315
X8.5453Y-3.9646
X8.7224Y-4.3268
X8.7795Y-4.185
X8.9075Y-3.9705
X9.0965Y-4.311
X9.4764Y-4.3287
X9.6614Y-3.9823
T3
X5.2504Y-3.6047
X5.2504Y-3.6677
X5.2504Y-3.7307
X5.2976Y-3.6362
X5.2976Y-3.6992
T4
X6.9528Y-3.9213
X6.9528Y-3.9744
X6.9528Y-4.0276
X6.9528Y-4.0807
X6.9528Y-4.1339
X6.9528Y-4.187
X6.9528Y-4.2421
X6.9528Y-4.2972
X6.9528Y-4.3524
X6.9528Y-4.4075
X6.9528Y-4.4626
X8.4469Y-3.9213
X8.4469Y-3.9744
X8.4469Y-4.0276
X8.4469Y-4.0807
X8.4469Y-4.1339
X8.4469Y-4.187
X8.4469Y-4.2421
X8.4469Y-4.2972
X8.4469Y-4.3524
X8.4469Y-4.4075
X8.4469Y-4.4626
T6
X3.5965Y-4.0299
X3.5965Y-4.1299
X3.5965Y-4.2299
X4.3091Y-4.0299
X4.3091Y-4.2299
T7
X3.8508Y-3.689
X3.8508Y-3.789
X3.9508Y-3.689
X3.9508Y-3.789
X4.0508Y-3.689
X4.0508Y-3.789
T8
X5.0516Y-3.9307
X5.3016Y-4.0307
X5.8016Y-3.9307
X6.0516Y-4.0307
X9.5516Y-3.9307
X9.8016Y-4.0307
X6.5516Y-3.9307
X6.8016Y-4.0307
X8.0516Y-3.9307
X8.3016Y-4.0307
X7.3016Y-3.9307
X7.5516Y-4.0307
X8.8016Y-3.9307
X9.0516Y-4.0307
T5
G00X5.2602Y-3.524
M15
G01X5.2878Y-3.524
M16
G05
G00X5.2602Y-3.8114
M15
G01X5.2878Y-3.8114
M16
G05
G00X5.45Y-3.524
M15
G01X5.4776Y-3.524
M16
G05
G00X5.45Y-3.8114
M15
G01X5.4776Y-3.8114
M16
G05
T0
M30
