%TF.GenerationSoftware,KiCad,Pcbnew,(5.1.6)-1*%
%TF.CreationDate,2022-02-11T00:07:08-06:00*%
%TF.ProjectId,Pikatea Macropad GB4,50696b61-7465-4612-904d-6163726f7061,rev?*%
%TF.SameCoordinates,Original*%
%TF.FileFunction,Legend,Top*%
%TF.FilePolarity,Positive*%
%FSLAX46Y46*%
G04 Gerber Fmt 4.6, Leading zero omitted, Abs format (unit mm)*
G04 Created by KiCad (PCBNEW (5.1.6)-1) date 2022-02-11 00:07:08*
%MOMM*%
%LPD*%
G01*
G04 APERTURE LIST*
%ADD10C,0.750000*%
%ADD11C,0.300000*%
%ADD12C,0.100000*%
%ADD13C,0.120000*%
%ADD14C,0.200000*%
%ADD15C,0.203200*%
%ADD16C,0.150000*%
G04 APERTURE END LIST*
D10*
X196728571Y-101885714D02*
X196585714Y-102028571D01*
X196442857Y-101885714D01*
X196585714Y-101742857D01*
X196728571Y-101885714D01*
X196442857Y-101885714D01*
X197585714Y-101885714D02*
X199300000Y-101742857D01*
X199442857Y-101885714D01*
X199300000Y-102028571D01*
X197585714Y-101885714D01*
X199442857Y-101885714D01*
X198442857Y-103314285D02*
X195442857Y-103314285D01*
X198300000Y-103314285D02*
X198442857Y-103600000D01*
X198442857Y-104171428D01*
X198300000Y-104457142D01*
X198157142Y-104600000D01*
X197871428Y-104742857D01*
X197014285Y-104742857D01*
X196728571Y-104600000D01*
X196585714Y-104457142D01*
X196442857Y-104171428D01*
X196442857Y-103600000D01*
X196585714Y-103314285D01*
X196442857Y-106028571D02*
X198442857Y-106028571D01*
X197871428Y-106028571D02*
X198157142Y-106171428D01*
X198300000Y-106314285D01*
X198442857Y-106600000D01*
X198442857Y-106885714D01*
X196442857Y-107885714D02*
X198442857Y-107885714D01*
X199442857Y-107885714D02*
X199300000Y-107742857D01*
X199157142Y-107885714D01*
X199300000Y-108028571D01*
X199442857Y-107885714D01*
X199157142Y-107885714D01*
X198442857Y-109314285D02*
X196442857Y-109314285D01*
X198157142Y-109314285D02*
X198300000Y-109457142D01*
X198442857Y-109742857D01*
X198442857Y-110171428D01*
X198300000Y-110457142D01*
X198014285Y-110600000D01*
X196442857Y-110600000D01*
X198442857Y-111600000D02*
X198442857Y-112742857D01*
X199442857Y-112028571D02*
X196871428Y-112028571D01*
X196585714Y-112171428D01*
X196442857Y-112457142D01*
X196442857Y-112742857D01*
D11*
X135000000Y-113078571D02*
X135000000Y-111578571D01*
X135571428Y-111578571D01*
X135714285Y-111650000D01*
X135785714Y-111721428D01*
X135857142Y-111864285D01*
X135857142Y-112078571D01*
X135785714Y-112221428D01*
X135714285Y-112292857D01*
X135571428Y-112364285D01*
X135000000Y-112364285D01*
X136500000Y-113078571D02*
X136500000Y-112078571D01*
X136500000Y-111578571D02*
X136428571Y-111650000D01*
X136500000Y-111721428D01*
X136571428Y-111650000D01*
X136500000Y-111578571D01*
X136500000Y-111721428D01*
X137214285Y-113078571D02*
X137214285Y-111578571D01*
X137357142Y-112507142D02*
X137785714Y-113078571D01*
X137785714Y-112078571D02*
X137214285Y-112650000D01*
X139071428Y-113078571D02*
X139071428Y-112292857D01*
X139000000Y-112150000D01*
X138857142Y-112078571D01*
X138571428Y-112078571D01*
X138428571Y-112150000D01*
X139071428Y-113007142D02*
X138928571Y-113078571D01*
X138571428Y-113078571D01*
X138428571Y-113007142D01*
X138357142Y-112864285D01*
X138357142Y-112721428D01*
X138428571Y-112578571D01*
X138571428Y-112507142D01*
X138928571Y-112507142D01*
X139071428Y-112435714D01*
X139571428Y-112078571D02*
X140142857Y-112078571D01*
X139785714Y-111578571D02*
X139785714Y-112864285D01*
X139857142Y-113007142D01*
X140000000Y-113078571D01*
X140142857Y-113078571D01*
X141214285Y-113007142D02*
X141071428Y-113078571D01*
X140785714Y-113078571D01*
X140642857Y-113007142D01*
X140571428Y-112864285D01*
X140571428Y-112292857D01*
X140642857Y-112150000D01*
X140785714Y-112078571D01*
X141071428Y-112078571D01*
X141214285Y-112150000D01*
X141285714Y-112292857D01*
X141285714Y-112435714D01*
X140571428Y-112578571D01*
X142571428Y-113078571D02*
X142571428Y-112292857D01*
X142500000Y-112150000D01*
X142357142Y-112078571D01*
X142071428Y-112078571D01*
X141928571Y-112150000D01*
X142571428Y-113007142D02*
X142428571Y-113078571D01*
X142071428Y-113078571D01*
X141928571Y-113007142D01*
X141857142Y-112864285D01*
X141857142Y-112721428D01*
X141928571Y-112578571D01*
X142071428Y-112507142D01*
X142428571Y-112507142D01*
X142571428Y-112435714D01*
X144428571Y-113078571D02*
X144428571Y-111578571D01*
X144928571Y-112650000D01*
X145428571Y-111578571D01*
X145428571Y-113078571D01*
X146785714Y-113078571D02*
X146785714Y-112292857D01*
X146714285Y-112150000D01*
X146571428Y-112078571D01*
X146285714Y-112078571D01*
X146142857Y-112150000D01*
X146785714Y-113007142D02*
X146642857Y-113078571D01*
X146285714Y-113078571D01*
X146142857Y-113007142D01*
X146071428Y-112864285D01*
X146071428Y-112721428D01*
X146142857Y-112578571D01*
X146285714Y-112507142D01*
X146642857Y-112507142D01*
X146785714Y-112435714D01*
X148142857Y-113007142D02*
X148000000Y-113078571D01*
X147714285Y-113078571D01*
X147571428Y-113007142D01*
X147500000Y-112935714D01*
X147428571Y-112792857D01*
X147428571Y-112364285D01*
X147500000Y-112221428D01*
X147571428Y-112150000D01*
X147714285Y-112078571D01*
X148000000Y-112078571D01*
X148142857Y-112150000D01*
X148785714Y-113078571D02*
X148785714Y-112078571D01*
X148785714Y-112364285D02*
X148857142Y-112221428D01*
X148928571Y-112150000D01*
X149071428Y-112078571D01*
X149214285Y-112078571D01*
X149928571Y-113078571D02*
X149785714Y-113007142D01*
X149714285Y-112935714D01*
X149642857Y-112792857D01*
X149642857Y-112364285D01*
X149714285Y-112221428D01*
X149785714Y-112150000D01*
X149928571Y-112078571D01*
X150142857Y-112078571D01*
X150285714Y-112150000D01*
X150357142Y-112221428D01*
X150428571Y-112364285D01*
X150428571Y-112792857D01*
X150357142Y-112935714D01*
X150285714Y-113007142D01*
X150142857Y-113078571D01*
X149928571Y-113078571D01*
X151071428Y-112078571D02*
X151071428Y-113578571D01*
X151071428Y-112150000D02*
X151214285Y-112078571D01*
X151500000Y-112078571D01*
X151642857Y-112150000D01*
X151714285Y-112221428D01*
X151785714Y-112364285D01*
X151785714Y-112792857D01*
X151714285Y-112935714D01*
X151642857Y-113007142D01*
X151500000Y-113078571D01*
X151214285Y-113078571D01*
X151071428Y-113007142D01*
X153071428Y-113078571D02*
X153071428Y-112292857D01*
X153000000Y-112150000D01*
X152857142Y-112078571D01*
X152571428Y-112078571D01*
X152428571Y-112150000D01*
X153071428Y-113007142D02*
X152928571Y-113078571D01*
X152571428Y-113078571D01*
X152428571Y-113007142D01*
X152357142Y-112864285D01*
X152357142Y-112721428D01*
X152428571Y-112578571D01*
X152571428Y-112507142D01*
X152928571Y-112507142D01*
X153071428Y-112435714D01*
X154428571Y-113078571D02*
X154428571Y-111578571D01*
X154428571Y-113007142D02*
X154285714Y-113078571D01*
X154000000Y-113078571D01*
X153857142Y-113007142D01*
X153785714Y-112935714D01*
X153714285Y-112792857D01*
X153714285Y-112364285D01*
X153785714Y-112221428D01*
X153857142Y-112150000D01*
X154000000Y-112078571D01*
X154285714Y-112078571D01*
X154428571Y-112150000D01*
X157071428Y-111650000D02*
X156928571Y-111578571D01*
X156714285Y-111578571D01*
X156500000Y-111650000D01*
X156357142Y-111792857D01*
X156285714Y-111935714D01*
X156214285Y-112221428D01*
X156214285Y-112435714D01*
X156285714Y-112721428D01*
X156357142Y-112864285D01*
X156500000Y-113007142D01*
X156714285Y-113078571D01*
X156857142Y-113078571D01*
X157071428Y-113007142D01*
X157142857Y-112935714D01*
X157142857Y-112435714D01*
X156857142Y-112435714D01*
X158285714Y-112292857D02*
X158500000Y-112364285D01*
X158571428Y-112435714D01*
X158642857Y-112578571D01*
X158642857Y-112792857D01*
X158571428Y-112935714D01*
X158500000Y-113007142D01*
X158357142Y-113078571D01*
X157785714Y-113078571D01*
X157785714Y-111578571D01*
X158285714Y-111578571D01*
X158428571Y-111650000D01*
X158500000Y-111721428D01*
X158571428Y-111864285D01*
X158571428Y-112007142D01*
X158500000Y-112150000D01*
X158428571Y-112221428D01*
X158285714Y-112292857D01*
X157785714Y-112292857D01*
X159928571Y-112078571D02*
X159928571Y-113078571D01*
X159571428Y-111507142D02*
X159214285Y-112578571D01*
X160142857Y-112578571D01*
D12*
%TO.C,D5*%
G36*
X203250000Y-110970000D02*
G01*
X203250000Y-111570000D01*
X203850000Y-111570000D01*
X203250000Y-110970000D01*
G37*
X203250000Y-110970000D02*
X203250000Y-111570000D01*
X203850000Y-111570000D01*
X203250000Y-110970000D01*
%TO.C,D7*%
G36*
X241350000Y-110970000D02*
G01*
X241350000Y-111570000D01*
X241950000Y-111570000D01*
X241350000Y-110970000D01*
G37*
X241350000Y-110970000D02*
X241350000Y-111570000D01*
X241950000Y-111570000D01*
X241350000Y-110970000D01*
%TO.C,D6*%
G36*
X222300000Y-110970000D02*
G01*
X222300000Y-111570000D01*
X222900000Y-111570000D01*
X222300000Y-110970000D01*
G37*
X222300000Y-110970000D02*
X222300000Y-111570000D01*
X222900000Y-111570000D01*
X222300000Y-110970000D01*
%TO.C,D4*%
G36*
X184200000Y-110970000D02*
G01*
X184200000Y-111570000D01*
X184800000Y-111570000D01*
X184200000Y-110970000D01*
G37*
X184200000Y-110970000D02*
X184200000Y-111570000D01*
X184800000Y-111570000D01*
X184200000Y-110970000D01*
%TO.C,D3*%
G36*
X165150000Y-110970000D02*
G01*
X165150000Y-111570000D01*
X165750000Y-111570000D01*
X165150000Y-110970000D01*
G37*
X165150000Y-110970000D02*
X165150000Y-111570000D01*
X165750000Y-111570000D01*
X165150000Y-110970000D01*
%TO.C,D2*%
G36*
X146100000Y-110970000D02*
G01*
X146100000Y-111570000D01*
X146700000Y-111570000D01*
X146100000Y-110970000D01*
G37*
X146100000Y-110970000D02*
X146100000Y-111570000D01*
X146700000Y-111570000D01*
X146100000Y-110970000D01*
%TO.C,D1*%
G36*
X127050000Y-110970000D02*
G01*
X127050000Y-111570000D01*
X127650000Y-111570000D01*
X127050000Y-110970000D01*
G37*
X127050000Y-110970000D02*
X127050000Y-111570000D01*
X127650000Y-111570000D01*
X127050000Y-110970000D01*
D13*
%TO.C,R5*%
X130158578Y-93140000D02*
X129641422Y-93140000D01*
X130158578Y-94560000D02*
X129641422Y-94560000D01*
%TO.C,R4*%
X130221078Y-91480000D02*
X129703922Y-91480000D01*
X130221078Y-92900000D02*
X129703922Y-92900000D01*
%TO.C,R3*%
X110796000Y-111422922D02*
X110796000Y-111940078D01*
X112216000Y-111422922D02*
X112216000Y-111940078D01*
%TO.C,C10*%
X124503922Y-102710000D02*
X125021078Y-102710000D01*
X124503922Y-101290000D02*
X125021078Y-101290000D01*
%TO.C,C9*%
X127327922Y-90626000D02*
X127845078Y-90626000D01*
X127327922Y-89206000D02*
X127845078Y-89206000D01*
%TO.C,C8*%
X107841422Y-91310000D02*
X108358578Y-91310000D01*
X107841422Y-89890000D02*
X108358578Y-89890000D01*
%TO.C,C7*%
X108892078Y-96318000D02*
X108374922Y-96318000D01*
X108892078Y-97738000D02*
X108374922Y-97738000D01*
%TO.C,C5*%
X122501922Y-105866000D02*
X123019078Y-105866000D01*
X122501922Y-104446000D02*
X123019078Y-104446000D01*
%TO.C,C4*%
X126310000Y-100021078D02*
X126310000Y-99503922D01*
X124890000Y-100021078D02*
X124890000Y-99503922D01*
%TO.C,C3*%
X111171078Y-98990000D02*
X110653922Y-98990000D01*
X111171078Y-100410000D02*
X110653922Y-100410000D01*
%TO.C,C2*%
X123009922Y-90626000D02*
X123527078Y-90626000D01*
X123009922Y-89206000D02*
X123527078Y-89206000D01*
%TO.C,C1*%
X112859078Y-89206000D02*
X112341922Y-89206000D01*
X112859078Y-90626000D02*
X112341922Y-90626000D01*
%TO.C,C6*%
X131610000Y-96028922D02*
X131610000Y-96546078D01*
X130190000Y-96028922D02*
X130190000Y-96546078D01*
%TO.C,U1*%
X122682659Y-97602652D02*
X123195311Y-97090000D01*
X112984689Y-97090000D02*
X113497341Y-97602652D01*
X113497341Y-96577348D02*
X112984689Y-97090000D01*
X118090000Y-91984689D02*
X118602652Y-92497341D01*
X117577348Y-92497341D02*
X118090000Y-91984689D01*
X118090000Y-102195311D02*
X117577348Y-101682659D01*
X118602652Y-101682659D02*
X118090000Y-102195311D01*
D14*
%TO.C,J1*%
X101600000Y-92420000D02*
X101600000Y-91620000D01*
X101600000Y-91620000D02*
X99050000Y-91620000D01*
X99050000Y-91620000D02*
X99050000Y-92420000D01*
D15*
X96540000Y-92430000D02*
X104160000Y-92430000D01*
X104160000Y-97510000D02*
X96540000Y-97510000D01*
X96540000Y-97510000D02*
X96540000Y-92430000D01*
X104160000Y-92430000D02*
X104160000Y-97510000D01*
D13*
%TO.C,SW1*%
X118536000Y-108116000D02*
X121036000Y-108116000D01*
X117036000Y-109866000D02*
X117036000Y-111866000D01*
X118536000Y-113616000D02*
X121036000Y-113616000D01*
X122536000Y-109866000D02*
X122536000Y-111866000D01*
X118086000Y-108566000D02*
X118536000Y-108116000D01*
X121486000Y-108566000D02*
X121036000Y-108116000D01*
X121486000Y-113166000D02*
X121036000Y-113616000D01*
X118086000Y-113166000D02*
X118536000Y-113616000D01*
D14*
%TO.C,J2*%
X143160000Y-89510000D02*
X133960000Y-89510000D01*
X143160000Y-96810000D02*
X143160000Y-89510000D01*
X133960000Y-96810000D02*
X143160000Y-96810000D01*
X133960000Y-89510000D02*
X133960000Y-96810000D01*
D13*
%TO.C,X1*%
X110020000Y-95896000D02*
X110020000Y-91896000D01*
X106820000Y-95896000D02*
X110020000Y-95896000D01*
%TO.C,SW2*%
X108500000Y-111600000D02*
X92300000Y-111600000D01*
X92300000Y-98200000D02*
X108500000Y-98200000D01*
X108500000Y-111600000D02*
X108500000Y-98200000D01*
X92300000Y-111600000D02*
X92300000Y-98200000D01*
%TO.C,J4*%
D16*
X217902380Y-107183333D02*
X218616666Y-107183333D01*
X218759523Y-107230952D01*
X218854761Y-107326190D01*
X218902380Y-107469047D01*
X218902380Y-107564285D01*
X218235714Y-106278571D02*
X218902380Y-106278571D01*
X217854761Y-106516666D02*
X218569047Y-106754761D01*
X218569047Y-106135714D01*
%TO.C,J3*%
X179952380Y-107183333D02*
X180666666Y-107183333D01*
X180809523Y-107230952D01*
X180904761Y-107326190D01*
X180952380Y-107469047D01*
X180952380Y-107564285D01*
X179952380Y-106802380D02*
X179952380Y-106183333D01*
X180333333Y-106516666D01*
X180333333Y-106373809D01*
X180380952Y-106278571D01*
X180428571Y-106230952D01*
X180523809Y-106183333D01*
X180761904Y-106183333D01*
X180857142Y-106230952D01*
X180904761Y-106278571D01*
X180952380Y-106373809D01*
X180952380Y-106659523D01*
X180904761Y-106754761D01*
X180857142Y-106802380D01*
%TO.C,R5*%
X129733333Y-95952380D02*
X129400000Y-95476190D01*
X129161904Y-95952380D02*
X129161904Y-94952380D01*
X129542857Y-94952380D01*
X129638095Y-95000000D01*
X129685714Y-95047619D01*
X129733333Y-95142857D01*
X129733333Y-95285714D01*
X129685714Y-95380952D01*
X129638095Y-95428571D01*
X129542857Y-95476190D01*
X129161904Y-95476190D01*
X130638095Y-94952380D02*
X130161904Y-94952380D01*
X130114285Y-95428571D01*
X130161904Y-95380952D01*
X130257142Y-95333333D01*
X130495238Y-95333333D01*
X130590476Y-95380952D01*
X130638095Y-95428571D01*
X130685714Y-95523809D01*
X130685714Y-95761904D01*
X130638095Y-95857142D01*
X130590476Y-95904761D01*
X130495238Y-95952380D01*
X130257142Y-95952380D01*
X130161904Y-95904761D01*
X130114285Y-95857142D01*
%TO.C,R4*%
X129795833Y-94292380D02*
X129462500Y-93816190D01*
X129224404Y-94292380D02*
X129224404Y-93292380D01*
X129605357Y-93292380D01*
X129700595Y-93340000D01*
X129748214Y-93387619D01*
X129795833Y-93482857D01*
X129795833Y-93625714D01*
X129748214Y-93720952D01*
X129700595Y-93768571D01*
X129605357Y-93816190D01*
X129224404Y-93816190D01*
X130652976Y-93625714D02*
X130652976Y-94292380D01*
X130414880Y-93244761D02*
X130176785Y-93959047D01*
X130795833Y-93959047D01*
%TO.C,R3*%
X113608380Y-111848166D02*
X113132190Y-112181500D01*
X113608380Y-112419595D02*
X112608380Y-112419595D01*
X112608380Y-112038642D01*
X112656000Y-111943404D01*
X112703619Y-111895785D01*
X112798857Y-111848166D01*
X112941714Y-111848166D01*
X113036952Y-111895785D01*
X113084571Y-111943404D01*
X113132190Y-112038642D01*
X113132190Y-112419595D01*
X112608380Y-111514833D02*
X112608380Y-110895785D01*
X112989333Y-111229119D01*
X112989333Y-111086261D01*
X113036952Y-110991023D01*
X113084571Y-110943404D01*
X113179809Y-110895785D01*
X113417904Y-110895785D01*
X113513142Y-110943404D01*
X113560761Y-110991023D01*
X113608380Y-111086261D01*
X113608380Y-111371976D01*
X113560761Y-111467214D01*
X113513142Y-111514833D01*
%TO.C,C10*%
X124119642Y-100707142D02*
X124072023Y-100754761D01*
X123929166Y-100802380D01*
X123833928Y-100802380D01*
X123691071Y-100754761D01*
X123595833Y-100659523D01*
X123548214Y-100564285D01*
X123500595Y-100373809D01*
X123500595Y-100230952D01*
X123548214Y-100040476D01*
X123595833Y-99945238D01*
X123691071Y-99850000D01*
X123833928Y-99802380D01*
X123929166Y-99802380D01*
X124072023Y-99850000D01*
X124119642Y-99897619D01*
X125072023Y-100802380D02*
X124500595Y-100802380D01*
X124786309Y-100802380D02*
X124786309Y-99802380D01*
X124691071Y-99945238D01*
X124595833Y-100040476D01*
X124500595Y-100088095D01*
X125691071Y-99802380D02*
X125786309Y-99802380D01*
X125881547Y-99850000D01*
X125929166Y-99897619D01*
X125976785Y-99992857D01*
X126024404Y-100183333D01*
X126024404Y-100421428D01*
X125976785Y-100611904D01*
X125929166Y-100707142D01*
X125881547Y-100754761D01*
X125786309Y-100802380D01*
X125691071Y-100802380D01*
X125595833Y-100754761D01*
X125548214Y-100707142D01*
X125500595Y-100611904D01*
X125452976Y-100421428D01*
X125452976Y-100183333D01*
X125500595Y-99992857D01*
X125548214Y-99897619D01*
X125595833Y-99850000D01*
X125691071Y-99802380D01*
%TO.C,C9*%
X127419833Y-88623142D02*
X127372214Y-88670761D01*
X127229357Y-88718380D01*
X127134119Y-88718380D01*
X126991261Y-88670761D01*
X126896023Y-88575523D01*
X126848404Y-88480285D01*
X126800785Y-88289809D01*
X126800785Y-88146952D01*
X126848404Y-87956476D01*
X126896023Y-87861238D01*
X126991261Y-87766000D01*
X127134119Y-87718380D01*
X127229357Y-87718380D01*
X127372214Y-87766000D01*
X127419833Y-87813619D01*
X127896023Y-88718380D02*
X128086500Y-88718380D01*
X128181738Y-88670761D01*
X128229357Y-88623142D01*
X128324595Y-88480285D01*
X128372214Y-88289809D01*
X128372214Y-87908857D01*
X128324595Y-87813619D01*
X128276976Y-87766000D01*
X128181738Y-87718380D01*
X127991261Y-87718380D01*
X127896023Y-87766000D01*
X127848404Y-87813619D01*
X127800785Y-87908857D01*
X127800785Y-88146952D01*
X127848404Y-88242190D01*
X127896023Y-88289809D01*
X127991261Y-88337428D01*
X128181738Y-88337428D01*
X128276976Y-88289809D01*
X128324595Y-88242190D01*
X128372214Y-88146952D01*
%TO.C,C8*%
X107933333Y-89307142D02*
X107885714Y-89354761D01*
X107742857Y-89402380D01*
X107647619Y-89402380D01*
X107504761Y-89354761D01*
X107409523Y-89259523D01*
X107361904Y-89164285D01*
X107314285Y-88973809D01*
X107314285Y-88830952D01*
X107361904Y-88640476D01*
X107409523Y-88545238D01*
X107504761Y-88450000D01*
X107647619Y-88402380D01*
X107742857Y-88402380D01*
X107885714Y-88450000D01*
X107933333Y-88497619D01*
X108504761Y-88830952D02*
X108409523Y-88783333D01*
X108361904Y-88735714D01*
X108314285Y-88640476D01*
X108314285Y-88592857D01*
X108361904Y-88497619D01*
X108409523Y-88450000D01*
X108504761Y-88402380D01*
X108695238Y-88402380D01*
X108790476Y-88450000D01*
X108838095Y-88497619D01*
X108885714Y-88592857D01*
X108885714Y-88640476D01*
X108838095Y-88735714D01*
X108790476Y-88783333D01*
X108695238Y-88830952D01*
X108504761Y-88830952D01*
X108409523Y-88878571D01*
X108361904Y-88926190D01*
X108314285Y-89021428D01*
X108314285Y-89211904D01*
X108361904Y-89307142D01*
X108409523Y-89354761D01*
X108504761Y-89402380D01*
X108695238Y-89402380D01*
X108790476Y-89354761D01*
X108838095Y-89307142D01*
X108885714Y-89211904D01*
X108885714Y-89021428D01*
X108838095Y-88926190D01*
X108790476Y-88878571D01*
X108695238Y-88830952D01*
%TO.C,C7*%
X108466833Y-99035142D02*
X108419214Y-99082761D01*
X108276357Y-99130380D01*
X108181119Y-99130380D01*
X108038261Y-99082761D01*
X107943023Y-98987523D01*
X107895404Y-98892285D01*
X107847785Y-98701809D01*
X107847785Y-98558952D01*
X107895404Y-98368476D01*
X107943023Y-98273238D01*
X108038261Y-98178000D01*
X108181119Y-98130380D01*
X108276357Y-98130380D01*
X108419214Y-98178000D01*
X108466833Y-98225619D01*
X108800166Y-98130380D02*
X109466833Y-98130380D01*
X109038261Y-99130380D01*
%TO.C,C5*%
X122593833Y-103863142D02*
X122546214Y-103910761D01*
X122403357Y-103958380D01*
X122308119Y-103958380D01*
X122165261Y-103910761D01*
X122070023Y-103815523D01*
X122022404Y-103720285D01*
X121974785Y-103529809D01*
X121974785Y-103386952D01*
X122022404Y-103196476D01*
X122070023Y-103101238D01*
X122165261Y-103006000D01*
X122308119Y-102958380D01*
X122403357Y-102958380D01*
X122546214Y-103006000D01*
X122593833Y-103053619D01*
X123498595Y-102958380D02*
X123022404Y-102958380D01*
X122974785Y-103434571D01*
X123022404Y-103386952D01*
X123117642Y-103339333D01*
X123355738Y-103339333D01*
X123450976Y-103386952D01*
X123498595Y-103434571D01*
X123546214Y-103529809D01*
X123546214Y-103767904D01*
X123498595Y-103863142D01*
X123450976Y-103910761D01*
X123355738Y-103958380D01*
X123117642Y-103958380D01*
X123022404Y-103910761D01*
X122974785Y-103863142D01*
%TO.C,C4*%
X124307142Y-99929166D02*
X124354761Y-99976785D01*
X124402380Y-100119642D01*
X124402380Y-100214880D01*
X124354761Y-100357738D01*
X124259523Y-100452976D01*
X124164285Y-100500595D01*
X123973809Y-100548214D01*
X123830952Y-100548214D01*
X123640476Y-100500595D01*
X123545238Y-100452976D01*
X123450000Y-100357738D01*
X123402380Y-100214880D01*
X123402380Y-100119642D01*
X123450000Y-99976785D01*
X123497619Y-99929166D01*
X123735714Y-99072023D02*
X124402380Y-99072023D01*
X123354761Y-99310119D02*
X124069047Y-99548214D01*
X124069047Y-98929166D01*
%TO.C,C3*%
X110745833Y-101707142D02*
X110698214Y-101754761D01*
X110555357Y-101802380D01*
X110460119Y-101802380D01*
X110317261Y-101754761D01*
X110222023Y-101659523D01*
X110174404Y-101564285D01*
X110126785Y-101373809D01*
X110126785Y-101230952D01*
X110174404Y-101040476D01*
X110222023Y-100945238D01*
X110317261Y-100850000D01*
X110460119Y-100802380D01*
X110555357Y-100802380D01*
X110698214Y-100850000D01*
X110745833Y-100897619D01*
X111079166Y-100802380D02*
X111698214Y-100802380D01*
X111364880Y-101183333D01*
X111507738Y-101183333D01*
X111602976Y-101230952D01*
X111650595Y-101278571D01*
X111698214Y-101373809D01*
X111698214Y-101611904D01*
X111650595Y-101707142D01*
X111602976Y-101754761D01*
X111507738Y-101802380D01*
X111222023Y-101802380D01*
X111126785Y-101754761D01*
X111079166Y-101707142D01*
%TO.C,C2*%
X123101833Y-88623142D02*
X123054214Y-88670761D01*
X122911357Y-88718380D01*
X122816119Y-88718380D01*
X122673261Y-88670761D01*
X122578023Y-88575523D01*
X122530404Y-88480285D01*
X122482785Y-88289809D01*
X122482785Y-88146952D01*
X122530404Y-87956476D01*
X122578023Y-87861238D01*
X122673261Y-87766000D01*
X122816119Y-87718380D01*
X122911357Y-87718380D01*
X123054214Y-87766000D01*
X123101833Y-87813619D01*
X123482785Y-87813619D02*
X123530404Y-87766000D01*
X123625642Y-87718380D01*
X123863738Y-87718380D01*
X123958976Y-87766000D01*
X124006595Y-87813619D01*
X124054214Y-87908857D01*
X124054214Y-88004095D01*
X124006595Y-88146952D01*
X123435166Y-88718380D01*
X124054214Y-88718380D01*
%TO.C,C1*%
X112433833Y-91923142D02*
X112386214Y-91970761D01*
X112243357Y-92018380D01*
X112148119Y-92018380D01*
X112005261Y-91970761D01*
X111910023Y-91875523D01*
X111862404Y-91780285D01*
X111814785Y-91589809D01*
X111814785Y-91446952D01*
X111862404Y-91256476D01*
X111910023Y-91161238D01*
X112005261Y-91066000D01*
X112148119Y-91018380D01*
X112243357Y-91018380D01*
X112386214Y-91066000D01*
X112433833Y-91113619D01*
X113386214Y-92018380D02*
X112814785Y-92018380D01*
X113100500Y-92018380D02*
X113100500Y-91018380D01*
X113005261Y-91161238D01*
X112910023Y-91256476D01*
X112814785Y-91304095D01*
%TO.C,C6*%
X132907142Y-97220666D02*
X132954761Y-97268285D01*
X133002380Y-97411142D01*
X133002380Y-97506380D01*
X132954761Y-97649238D01*
X132859523Y-97744476D01*
X132764285Y-97792095D01*
X132573809Y-97839714D01*
X132430952Y-97839714D01*
X132240476Y-97792095D01*
X132145238Y-97744476D01*
X132050000Y-97649238D01*
X132002380Y-97506380D01*
X132002380Y-97411142D01*
X132050000Y-97268285D01*
X132097619Y-97220666D01*
X132002380Y-96363523D02*
X132002380Y-96554000D01*
X132050000Y-96649238D01*
X132097619Y-96696857D01*
X132240476Y-96792095D01*
X132430952Y-96839714D01*
X132811904Y-96839714D01*
X132907142Y-96792095D01*
X132954761Y-96744476D01*
X133002380Y-96649238D01*
X133002380Y-96458761D01*
X132954761Y-96363523D01*
X132907142Y-96315904D01*
X132811904Y-96268285D01*
X132573809Y-96268285D01*
X132478571Y-96315904D01*
X132430952Y-96363523D01*
X132383333Y-96458761D01*
X132383333Y-96649238D01*
X132430952Y-96744476D01*
X132478571Y-96792095D01*
X132573809Y-96839714D01*
%TO.C,U1*%
X120572281Y-100649777D02*
X121144701Y-101222197D01*
X121245716Y-101255869D01*
X121313060Y-101255869D01*
X121414075Y-101222197D01*
X121548762Y-101087510D01*
X121582434Y-100986495D01*
X121582434Y-100919151D01*
X121548762Y-100818136D01*
X120976342Y-100245716D01*
X122390556Y-100245716D02*
X121986495Y-100649777D01*
X122188525Y-100447747D02*
X121481419Y-99740640D01*
X121515090Y-99908999D01*
X121515090Y-100043686D01*
X121481419Y-100144701D01*
%TO.C,SW1*%
X118452666Y-107520761D02*
X118595523Y-107568380D01*
X118833619Y-107568380D01*
X118928857Y-107520761D01*
X118976476Y-107473142D01*
X119024095Y-107377904D01*
X119024095Y-107282666D01*
X118976476Y-107187428D01*
X118928857Y-107139809D01*
X118833619Y-107092190D01*
X118643142Y-107044571D01*
X118547904Y-106996952D01*
X118500285Y-106949333D01*
X118452666Y-106854095D01*
X118452666Y-106758857D01*
X118500285Y-106663619D01*
X118547904Y-106616000D01*
X118643142Y-106568380D01*
X118881238Y-106568380D01*
X119024095Y-106616000D01*
X119357428Y-106568380D02*
X119595523Y-107568380D01*
X119786000Y-106854095D01*
X119976476Y-107568380D01*
X120214571Y-106568380D01*
X121119333Y-107568380D02*
X120547904Y-107568380D01*
X120833619Y-107568380D02*
X120833619Y-106568380D01*
X120738380Y-106711238D01*
X120643142Y-106806476D01*
X120547904Y-106854095D01*
%TO.C,J2*%
X135981904Y-96359047D02*
X136629523Y-96359047D01*
X136705714Y-96320952D01*
X136743809Y-96282857D01*
X136781904Y-96206666D01*
X136781904Y-96054285D01*
X136743809Y-95978095D01*
X136705714Y-95940000D01*
X136629523Y-95901904D01*
X135981904Y-95901904D01*
X136743809Y-95559047D02*
X136781904Y-95444761D01*
X136781904Y-95254285D01*
X136743809Y-95178095D01*
X136705714Y-95140000D01*
X136629523Y-95101904D01*
X136553333Y-95101904D01*
X136477142Y-95140000D01*
X136439047Y-95178095D01*
X136400952Y-95254285D01*
X136362857Y-95406666D01*
X136324761Y-95482857D01*
X136286666Y-95520952D01*
X136210476Y-95559047D01*
X136134285Y-95559047D01*
X136058095Y-95520952D01*
X136020000Y-95482857D01*
X135981904Y-95406666D01*
X135981904Y-95216190D01*
X136020000Y-95101904D01*
X136362857Y-94492380D02*
X136400952Y-94378095D01*
X136439047Y-94340000D01*
X136515238Y-94301904D01*
X136629523Y-94301904D01*
X136705714Y-94340000D01*
X136743809Y-94378095D01*
X136781904Y-94454285D01*
X136781904Y-94759047D01*
X135981904Y-94759047D01*
X135981904Y-94492380D01*
X136020000Y-94416190D01*
X136058095Y-94378095D01*
X136134285Y-94340000D01*
X136210476Y-94340000D01*
X136286666Y-94378095D01*
X136324761Y-94416190D01*
X136362857Y-94492380D01*
X136362857Y-94759047D01*
X136858095Y-94149523D02*
X136858095Y-93540000D01*
X136362857Y-93082857D02*
X136400952Y-92968571D01*
X136439047Y-92930476D01*
X136515238Y-92892380D01*
X136629523Y-92892380D01*
X136705714Y-92930476D01*
X136743809Y-92968571D01*
X136781904Y-93044761D01*
X136781904Y-93349523D01*
X135981904Y-93349523D01*
X135981904Y-93082857D01*
X136020000Y-93006666D01*
X136058095Y-92968571D01*
X136134285Y-92930476D01*
X136210476Y-92930476D01*
X136286666Y-92968571D01*
X136324761Y-93006666D01*
X136362857Y-93082857D01*
X136362857Y-93349523D01*
X136858095Y-92740000D02*
X136858095Y-92130476D01*
X136781904Y-91940000D02*
X135981904Y-91940000D01*
X136553333Y-91673333D01*
X135981904Y-91406666D01*
X136781904Y-91406666D01*
X136781904Y-91025714D02*
X136248571Y-91025714D01*
X135981904Y-91025714D02*
X136020000Y-91063809D01*
X136058095Y-91025714D01*
X136020000Y-90987619D01*
X135981904Y-91025714D01*
X136058095Y-91025714D01*
X136248571Y-90644761D02*
X136781904Y-90644761D01*
X136324761Y-90644761D02*
X136286666Y-90606666D01*
X136248571Y-90530476D01*
X136248571Y-90416190D01*
X136286666Y-90340000D01*
X136362857Y-90301904D01*
X136781904Y-90301904D01*
X136781904Y-89920952D02*
X136248571Y-89920952D01*
X135981904Y-89920952D02*
X136020000Y-89959047D01*
X136058095Y-89920952D01*
X136020000Y-89882857D01*
X135981904Y-89920952D01*
X136058095Y-89920952D01*
%TO.C,X1*%
X105422380Y-94705523D02*
X106422380Y-94038857D01*
X105422380Y-94038857D02*
X106422380Y-94705523D01*
X106422380Y-93134095D02*
X106422380Y-93705523D01*
X106422380Y-93419809D02*
X105422380Y-93419809D01*
X105565238Y-93515047D01*
X105660476Y-93610285D01*
X105708095Y-93705523D01*
%TO.C,SW2*%
X93408666Y-97686761D02*
X93551523Y-97734380D01*
X93789619Y-97734380D01*
X93884857Y-97686761D01*
X93932476Y-97639142D01*
X93980095Y-97543904D01*
X93980095Y-97448666D01*
X93932476Y-97353428D01*
X93884857Y-97305809D01*
X93789619Y-97258190D01*
X93599142Y-97210571D01*
X93503904Y-97162952D01*
X93456285Y-97115333D01*
X93408666Y-97020095D01*
X93408666Y-96924857D01*
X93456285Y-96829619D01*
X93503904Y-96782000D01*
X93599142Y-96734380D01*
X93837238Y-96734380D01*
X93980095Y-96782000D01*
X94313428Y-96734380D02*
X94551523Y-97734380D01*
X94742000Y-97020095D01*
X94932476Y-97734380D01*
X95170571Y-96734380D01*
X95503904Y-96829619D02*
X95551523Y-96782000D01*
X95646761Y-96734380D01*
X95884857Y-96734380D01*
X95980095Y-96782000D01*
X96027714Y-96829619D01*
X96075333Y-96924857D01*
X96075333Y-97020095D01*
X96027714Y-97162952D01*
X95456285Y-97734380D01*
X96075333Y-97734380D01*
%TD*%
M02*
