%TF.GenerationSoftware,KiCad,Pcbnew,(5.1.6)-1*%
%TF.CreationDate,2022-02-11T00:07:08-06:00*%
%TF.ProjectId,Pikatea Macropad GB4,50696b61-7465-4612-904d-6163726f7061,rev?*%
%TF.SameCoordinates,Original*%
%TF.FileFunction,Copper,L2,Bot*%
%TF.FilePolarity,Positive*%
%FSLAX46Y46*%
G04 Gerber Fmt 4.6, Leading zero omitted, Abs format (unit mm)*
G04 Created by KiCad (PCBNEW (5.1.6)-1) date 2022-02-11 00:07:08*
%MOMM*%
%LPD*%
G01*
G04 APERTURE LIST*
%TA.AperFunction,ComponentPad*%
%ADD10C,1.000000*%
%TD*%
%TA.AperFunction,ComponentPad*%
%ADD11C,2.250000*%
%TD*%
%TA.AperFunction,Conductor*%
%ADD12C,0.100000*%
%TD*%
%TA.AperFunction,ViaPad*%
%ADD13C,0.500000*%
%TD*%
%TA.AperFunction,ComponentPad*%
%ADD14C,1.700000*%
%TD*%
%TA.AperFunction,ComponentPad*%
%ADD15R,1.700000X1.700000*%
%TD*%
%TA.AperFunction,ComponentPad*%
%ADD16O,1.900000X1.200000*%
%TD*%
%TA.AperFunction,ComponentPad*%
%ADD17C,1.100000*%
%TD*%
%TA.AperFunction,ViaPad*%
%ADD18C,0.800000*%
%TD*%
%TA.AperFunction,Conductor*%
%ADD19C,0.250000*%
%TD*%
%TA.AperFunction,Conductor*%
%ADD20C,0.254000*%
%TD*%
G04 APERTURE END LIST*
D10*
%TO.P,J4,11*%
%TO.N,GND*%
X214550000Y-113350000D03*
%TO.P,J4,1*%
%TO.N,/A0*%
X214550000Y-99600000D03*
%TO.P,J4,2*%
%TO.N,/CS*%
X214550000Y-100950000D03*
%TO.P,J4,3*%
%TO.N,/29*%
X214550000Y-102300000D03*
%TO.P,J4,4*%
%TO.N,GND*%
X214550000Y-103650000D03*
%TO.P,J4,5*%
X214550000Y-105000000D03*
%TO.P,J4,10*%
X214550000Y-111950000D03*
%TO.P,J4,9*%
%TO.N,Net-(D5-Pad1)*%
X214550000Y-110550000D03*
%TO.P,J4,8*%
%TO.N,GND*%
X214550000Y-109150000D03*
%TO.P,J4,7*%
%TO.N,VBUS*%
X214550000Y-107750000D03*
%TO.P,J4,6*%
%TO.N,GND*%
X214550000Y-106350000D03*
%TD*%
%TO.P,J3,11*%
%TO.N,GND*%
X176600000Y-113350000D03*
%TO.P,J3,1*%
%TO.N,/A0*%
X176600000Y-99600000D03*
%TO.P,J3,2*%
%TO.N,GND*%
X176600000Y-100950000D03*
%TO.P,J3,3*%
%TO.N,/CS*%
X176600000Y-102300000D03*
%TO.P,J3,4*%
%TO.N,/29*%
X176600000Y-103650000D03*
%TO.P,J3,5*%
%TO.N,/28*%
X176600000Y-105000000D03*
%TO.P,J3,10*%
%TO.N,GND*%
X176600000Y-111950000D03*
%TO.P,J3,9*%
X176600000Y-110550000D03*
%TO.P,J3,8*%
%TO.N,Net-(D3-Pad1)*%
X176600000Y-109150000D03*
%TO.P,J3,7*%
%TO.N,VBUS*%
X176600000Y-107750000D03*
%TO.P,J3,6*%
%TO.N,/D8*%
X176600000Y-106350000D03*
%TD*%
D11*
%TO.P,MX7,2*%
%TO.N,/A0*%
X242610000Y-99840000D03*
%TO.P,MX7,1*%
%TO.N,/CS*%
X248960000Y-102380000D03*
%TD*%
%TO.P,MX6,2*%
%TO.N,/A0*%
X223560000Y-99840000D03*
%TO.P,MX6,1*%
%TO.N,/29*%
X229910000Y-102380000D03*
%TD*%
%TA.AperFunction,Conductor*%
D12*
%TO.N,GND*%
%TO.C,U1*%
G36*
X118090000Y-93448400D02*
G01*
X121731600Y-97090000D01*
X118090000Y-100731600D01*
X114448400Y-97090000D01*
X118090000Y-93448400D01*
G37*
%TD.AperFunction*%
D13*
X114801953Y-97090000D03*
X115623965Y-96267988D03*
X116445977Y-95445977D03*
X117267988Y-94623965D03*
X118090000Y-93801953D03*
X115623965Y-97912012D03*
X116445977Y-97090000D03*
X117267988Y-96267988D03*
X118090000Y-95445977D03*
X118912012Y-94623965D03*
X116445977Y-98734023D03*
X117267988Y-97912012D03*
X118090000Y-97090000D03*
X118912012Y-96267988D03*
X119734023Y-95445977D03*
X117267988Y-99556035D03*
X118090000Y-98734023D03*
X118912012Y-97912012D03*
X119734023Y-97090000D03*
X120556035Y-96267988D03*
X118090000Y-100378047D03*
X118912012Y-99556035D03*
X119734023Y-98734023D03*
X120556035Y-97912012D03*
X121378047Y-97090000D03*
%TD*%
D11*
%TO.P,MX5,2*%
%TO.N,/A0*%
X204510000Y-99840000D03*
%TO.P,MX5,1*%
%TO.N,/28*%
X210860000Y-102380000D03*
%TD*%
%TO.P,MX4,2*%
%TO.N,/A0*%
X185460000Y-99840000D03*
%TO.P,MX4,1*%
%TO.N,/D8*%
X191810000Y-102380000D03*
%TD*%
%TO.P,MX3,2*%
%TO.N,/A0*%
X166410000Y-99840000D03*
%TO.P,MX3,1*%
%TO.N,/D7*%
X172760000Y-102380000D03*
%TD*%
%TO.P,MX2,1*%
%TO.N,/D9*%
X153710000Y-102380000D03*
%TO.P,MX2,2*%
%TO.N,/A0*%
X147360000Y-99840000D03*
%TD*%
%TO.P,MX1,1*%
%TO.N,/D5*%
X134660000Y-102380000D03*
%TO.P,MX1,2*%
%TO.N,/A0*%
X128310000Y-99840000D03*
%TD*%
D14*
%TO.P,J1,6*%
%TO.N,GND*%
X97810000Y-96240000D03*
%TO.P,J1,5*%
%TO.N,/RESET*%
X97810000Y-93700000D03*
%TO.P,J1,4*%
%TO.N,/MOSI*%
X100350000Y-96240000D03*
%TO.P,J1,3*%
%TO.N,/D8*%
X100350000Y-93700000D03*
%TO.P,J1,2*%
%TO.N,VBUS*%
X102890000Y-96240000D03*
D15*
%TO.P,J1,1*%
%TO.N,/MISO*%
X102890000Y-93700000D03*
%TD*%
D16*
%TO.P,J2,6*%
%TO.N,GND*%
X133960000Y-89510000D03*
X133960000Y-96810000D03*
D17*
%TO.P,J2,1*%
%TO.N,VBUS*%
X133360000Y-94760000D03*
%TO.P,J2,2*%
%TO.N,/D-*%
X134560000Y-93960000D03*
%TO.P,J2,3*%
%TO.N,/D+*%
X133360000Y-93160000D03*
%TO.P,J2,4*%
%TO.N,Net-(J2-Pad4)*%
X134560000Y-92360000D03*
%TO.P,J2,5*%
%TO.N,GND*%
X133360000Y-91560000D03*
D16*
%TO.P,J2,6*%
X138780000Y-96810000D03*
X138780000Y-89510000D03*
%TD*%
D15*
%TO.P,SW2,S1*%
%TO.N,/D4*%
X109450000Y-102360000D03*
%TO.P,SW2,S2*%
%TO.N,/A0*%
X109450000Y-107440000D03*
%TO.P,SW2,C*%
%TO.N,GND*%
X91350000Y-104900000D03*
%TO.P,SW2,B*%
%TO.N,/D6*%
X91350000Y-102360000D03*
%TO.P,SW2,A*%
%TO.N,/D12*%
X91350000Y-107440000D03*
%TD*%
D18*
%TO.N,*%
X164250000Y-109900000D03*
%TO.N,GND*%
X113550000Y-113300000D03*
X217050000Y-100700000D03*
X226250000Y-100850000D03*
X245400000Y-101150000D03*
X207300000Y-100750000D03*
X187850000Y-100650000D03*
X169000000Y-100650000D03*
X150050000Y-100750000D03*
X130300000Y-101150000D03*
X196250000Y-100550000D03*
X129650000Y-89550000D03*
X125300000Y-89650000D03*
X131759999Y-91100000D03*
X125000000Y-97500000D03*
X127650000Y-102450000D03*
X123902653Y-92302653D03*
X122152653Y-94052653D03*
X110250000Y-89550000D03*
X110175000Y-92572140D03*
X124750000Y-106050000D03*
X112950000Y-97000000D03*
X117975000Y-101797430D03*
X118100000Y-92450000D03*
X157250000Y-100800000D03*
X240700000Y-109950000D03*
X231050000Y-109500000D03*
X221550000Y-109900000D03*
X211750000Y-109600000D03*
X202200000Y-109800000D03*
X192700000Y-109550000D03*
X183450000Y-109750000D03*
X173550000Y-109600000D03*
X154350000Y-109550000D03*
X145250000Y-109750000D03*
X135800000Y-109550000D03*
X125050000Y-109050000D03*
X141450000Y-100700000D03*
X141600000Y-107800000D03*
X105950000Y-92450000D03*
X95810000Y-96240000D03*
X93000000Y-96250000D03*
X116950000Y-104050000D03*
X127750000Y-106950000D03*
X139350000Y-104150000D03*
X141550000Y-111250000D03*
X113050000Y-111800000D03*
X124600000Y-113000000D03*
X165800000Y-106000000D03*
X157000000Y-103600000D03*
X172500000Y-106400000D03*
X184700000Y-106600000D03*
X194900000Y-106600000D03*
X133900000Y-106100000D03*
X146600000Y-105900000D03*
X153700000Y-106700000D03*
X210200000Y-106400000D03*
X223000000Y-106300000D03*
%TO.N,/MOSI*%
X112500000Y-93750000D03*
X110950000Y-94300000D03*
X105350000Y-95789999D03*
%TO.N,/RESET*%
X114735660Y-90589034D03*
X112160847Y-91439153D03*
X110450000Y-90550000D03*
X105350000Y-91150000D03*
%TO.N,/MISO*%
X113675000Y-93700306D03*
X111025000Y-95297185D03*
%TO.N,/A0*%
X127050000Y-103900001D03*
X111675000Y-102765771D03*
X120439339Y-101560661D03*
%TO.N,/D9*%
X124039303Y-98478464D03*
X123050000Y-97250000D03*
%TO.N,/D6*%
X95120523Y-112925000D03*
%TO.N,/D5*%
X123008356Y-100841644D03*
X124844346Y-103044346D03*
%TO.N,/CS*%
X114000000Y-108205410D03*
%TO.N,/D8*%
X137280153Y-100769847D03*
X130047151Y-98323879D03*
X127116519Y-96902213D03*
X121600000Y-91750000D03*
X106100000Y-93900000D03*
X106537653Y-96887653D03*
X110900000Y-96950000D03*
X113700000Y-94850000D03*
X120290574Y-90719463D03*
%TO.N,VBUS*%
X122200000Y-106550000D03*
X115000000Y-89600000D03*
X120750000Y-89600000D03*
X129050000Y-95300000D03*
X132289846Y-96010154D03*
X126848000Y-101702000D03*
X110950000Y-98650000D03*
X111700000Y-109650000D03*
%TO.N,/D7*%
X136050000Y-100565000D03*
X128927136Y-98229170D03*
X127050000Y-97900000D03*
X120923793Y-92523794D03*
%TO.N,/28*%
X112550000Y-108150000D03*
%TO.N,/29*%
X113275000Y-107275000D03*
%TD*%
D19*
%TO.N,GND*%
X133360000Y-91560000D02*
X132219999Y-91560000D01*
X132219999Y-91560000D02*
X131759999Y-91100000D01*
X118090000Y-97090000D02*
X118090000Y-101682430D01*
X118090000Y-101682430D02*
X117975000Y-101797430D01*
X151220030Y-99579970D02*
X150050000Y-100750000D01*
X156029970Y-99579970D02*
X151220030Y-99579970D01*
X157250000Y-100800000D02*
X156029970Y-99579970D01*
X140884315Y-100700000D02*
X140534315Y-100350000D01*
X141450000Y-100700000D02*
X140884315Y-100700000D01*
X140534315Y-100350000D02*
X140050000Y-100350000D01*
X138780000Y-99080000D02*
X138780000Y-96810000D01*
X140050000Y-100350000D02*
X138780000Y-99080000D01*
X145250000Y-109750000D02*
X143550000Y-109750000D01*
X143550000Y-109750000D02*
X141600000Y-107800000D01*
X95810000Y-96240000D02*
X93010000Y-96240000D01*
X93010000Y-96240000D02*
X93000000Y-96250000D01*
X118090000Y-97090000D02*
X121010000Y-97090000D01*
X121575001Y-96524999D02*
X123975001Y-96524999D01*
X123975001Y-96524999D02*
X124000000Y-96500000D01*
X121010000Y-97090000D02*
X121575001Y-96524999D01*
X124000000Y-96500000D02*
X125000000Y-97500000D01*
X113040000Y-97090000D02*
X112950000Y-97000000D01*
X118090000Y-97090000D02*
X113040000Y-97090000D01*
X118090000Y-92460000D02*
X118100000Y-92450000D01*
X118090000Y-97090000D02*
X118090000Y-92460000D01*
%TO.N,/MOSI*%
X115550000Y-90800000D02*
X112600000Y-93750000D01*
X112600000Y-93750000D02*
X112500000Y-93750000D01*
X110950000Y-94300000D02*
X110185001Y-95064999D01*
X110185001Y-95064999D02*
X106075000Y-95064999D01*
X106075000Y-95064999D02*
X105350000Y-95789999D01*
%TO.N,/RESET*%
X114735660Y-90589034D02*
X113010966Y-90589034D01*
X113010966Y-90589034D02*
X112160847Y-91439153D01*
X109884315Y-90550000D02*
X109534315Y-90200000D01*
X110450000Y-90550000D02*
X109884315Y-90550000D01*
X109534315Y-90200000D02*
X106300000Y-90200000D01*
X106300000Y-90200000D02*
X105350000Y-91150000D01*
%TO.N,/MISO*%
X115887834Y-91741208D02*
X113928736Y-93700306D01*
X113928736Y-93700306D02*
X113675000Y-93700306D01*
X103700000Y-93700000D02*
X102890000Y-93700000D01*
X104200000Y-95713001D02*
X104200000Y-94200000D01*
X111025000Y-95297185D02*
X110625001Y-95697184D01*
X104200000Y-94200000D02*
X103700000Y-93700000D01*
X110625001Y-95697184D02*
X106702816Y-95697184D01*
X106702816Y-95697184D02*
X105885000Y-96515000D01*
X105885000Y-96515000D02*
X105001999Y-96515000D01*
X105001999Y-96515000D02*
X104200000Y-95713001D01*
%TO.N,/A0*%
X127273001Y-103900001D02*
X127050000Y-103900001D01*
X129434999Y-101738003D02*
X127273001Y-103900001D01*
X128310000Y-99840000D02*
X129434999Y-100964999D01*
X129434999Y-100964999D02*
X129434999Y-101738003D01*
X119234229Y-102765771D02*
X120439339Y-101560661D01*
X111675000Y-102765771D02*
X119234229Y-102765771D01*
%TO.N,/D9*%
X124039303Y-98478464D02*
X124039303Y-98239303D01*
X124039303Y-98239303D02*
X123050000Y-97250000D01*
%TO.N,/D6*%
X90490000Y-102360000D02*
X91350000Y-102360000D01*
X89600000Y-103250000D02*
X90490000Y-102360000D01*
X89600000Y-108500000D02*
X89600000Y-103250000D01*
X95120523Y-112925000D02*
X94025000Y-112925000D01*
X94025000Y-112925000D02*
X89600000Y-108500000D01*
%TO.N,/D5*%
X123008356Y-100841644D02*
X124844346Y-102677634D01*
X124844346Y-102677634D02*
X124844346Y-103044346D01*
%TO.N,/CS*%
X170177200Y-101549980D02*
X171697202Y-100029980D01*
X156436390Y-101549980D02*
X170177200Y-101549980D01*
X114349981Y-110699981D02*
X124822802Y-110699982D01*
X113750000Y-108300000D02*
X113750000Y-110100000D01*
X113750000Y-110100000D02*
X114349981Y-110699981D01*
X113844590Y-108205410D02*
X113750000Y-108300000D01*
X114000000Y-108205410D02*
X113844590Y-108205410D01*
X150776101Y-101701079D02*
X152447201Y-100029979D01*
X124822802Y-110699982D02*
X126472800Y-112349980D01*
X126472800Y-112349980D02*
X134341198Y-112349980D01*
X154916390Y-100029980D02*
X156436390Y-101549980D01*
X144990099Y-101701079D02*
X150776101Y-101701079D01*
X134341198Y-112349980D02*
X144990099Y-101701079D01*
X152447201Y-100029979D02*
X154916390Y-100029980D01*
X214550000Y-100950000D02*
X215550000Y-100950000D01*
X215550000Y-100950000D02*
X216449990Y-101849990D01*
X216449990Y-101849990D02*
X227950010Y-101849990D01*
X227950010Y-101849990D02*
X229050000Y-100750000D01*
X229050000Y-100750000D02*
X230950000Y-100750000D01*
X232580000Y-102380000D02*
X248960000Y-102380000D01*
X230950000Y-100750000D02*
X232580000Y-102380000D01*
X211866399Y-100479989D02*
X210037575Y-100479989D01*
X214550000Y-100950000D02*
X212336410Y-100950000D01*
X212336410Y-100950000D02*
X211866399Y-100479989D01*
X171697202Y-100029980D02*
X173828803Y-100029981D01*
X176098822Y-102300000D02*
X176600000Y-102300000D01*
X173828803Y-100029981D02*
X176098822Y-102300000D01*
X184263599Y-101449981D02*
X183413580Y-102300000D01*
X188613600Y-101449980D02*
X184263599Y-101449981D01*
X209977598Y-100479990D02*
X208977608Y-101479980D01*
X190033600Y-100029980D02*
X188613600Y-101449980D01*
X208977608Y-101479980D02*
X194328802Y-101479980D01*
X194328802Y-101479980D02*
X192878803Y-100029981D01*
X210037575Y-100479990D02*
X209977598Y-100479990D01*
X183413580Y-102300000D02*
X176600000Y-102300000D01*
X192878803Y-100029981D02*
X190033600Y-100029980D01*
%TO.N,/D8*%
X135701999Y-99839999D02*
X135427008Y-100114990D01*
X137280153Y-100769847D02*
X136350305Y-99839999D01*
X136350305Y-99839999D02*
X135701999Y-99839999D01*
X135427008Y-100114990D02*
X131449366Y-100114990D01*
X131449366Y-100114990D02*
X130047151Y-98712775D01*
X130047151Y-98712775D02*
X130047151Y-98323879D01*
X127116519Y-96902213D02*
X121964306Y-91750000D01*
X121964306Y-91750000D02*
X121600000Y-91750000D01*
X104724999Y-92524999D02*
X106100000Y-93900000D01*
X100350000Y-93700000D02*
X101525001Y-92524999D01*
X101525001Y-92524999D02*
X104724999Y-92524999D01*
X106537653Y-96887653D02*
X110837653Y-96887653D01*
X110837653Y-96887653D02*
X110900000Y-96950000D01*
X118396222Y-90719463D02*
X120290574Y-90719463D01*
X113700000Y-94850000D02*
X114265685Y-94850000D01*
X114265685Y-94850000D02*
X118396222Y-90719463D01*
%TO.N,VBUS*%
X123900000Y-89600000D02*
X120750000Y-89600000D01*
X128000000Y-93700000D02*
X123900000Y-89600000D01*
X122363998Y-106550000D02*
X126856999Y-102056999D01*
X129050000Y-94770000D02*
X129060000Y-94760000D01*
X112650000Y-106550000D02*
X122200000Y-106550000D01*
X122200000Y-106550000D02*
X122363998Y-106550000D01*
X120750000Y-89600000D02*
X115000000Y-89600000D01*
X129060000Y-94760000D02*
X128000000Y-93700000D01*
X129050000Y-95300000D02*
X129050000Y-94770000D01*
X129050000Y-96953998D02*
X129050000Y-95300000D01*
X126856999Y-99146999D02*
X129050000Y-96953998D01*
X126856999Y-102056999D02*
X126856999Y-99146999D01*
X133360000Y-94760000D02*
X133360000Y-94940000D01*
X133360000Y-94940000D02*
X132289846Y-96010154D01*
X110950000Y-98350000D02*
X110950000Y-98650000D01*
X110950000Y-98650000D02*
X110950000Y-104850000D01*
X111750000Y-105650000D02*
X111750000Y-109600000D01*
X111750000Y-109600000D02*
X111700000Y-109650000D01*
X111750000Y-105650000D02*
X112650000Y-106550000D01*
X110950000Y-104850000D02*
X111750000Y-105650000D01*
X102890000Y-96240000D02*
X104300000Y-97650000D01*
X109950000Y-97650000D02*
X110950000Y-98650000D01*
X104300000Y-97650000D02*
X109950000Y-97650000D01*
X111750000Y-97850000D02*
X110950000Y-98650000D01*
X115000000Y-89600000D02*
X112350000Y-89600000D01*
X112350000Y-89600000D02*
X111435846Y-90514154D01*
X111750000Y-94026998D02*
X111750000Y-97850000D01*
X111435846Y-90514154D02*
X111435846Y-93712844D01*
X111435846Y-93712844D02*
X111750000Y-94026998D01*
%TO.N,/D7*%
X136050000Y-100565000D02*
X131262966Y-100565000D01*
X131262966Y-100565000D02*
X128927136Y-98229170D01*
X127050000Y-97900000D02*
X121673794Y-92523794D01*
X121673794Y-92523794D02*
X120923793Y-92523794D01*
%TO.N,/28*%
X192506001Y-100929999D02*
X191113999Y-100929999D01*
X191113999Y-100929999D02*
X190200000Y-101843998D01*
X210860000Y-102380000D02*
X193956002Y-102380000D01*
X193956002Y-102380000D02*
X192506001Y-100929999D01*
X190200000Y-101843998D02*
X189706002Y-101843998D01*
X189706002Y-101843998D02*
X189200000Y-102350000D01*
X184636400Y-102350000D02*
X183336400Y-103650000D01*
X189200000Y-102350000D02*
X184636400Y-102350000D01*
X174876002Y-102350000D02*
X174876003Y-103562413D01*
X151148901Y-102601099D02*
X152820001Y-100929999D01*
X176313590Y-105000000D02*
X176600000Y-105000000D01*
X124450000Y-111600000D02*
X126100000Y-113250000D01*
X172070001Y-100929999D02*
X173456001Y-100929999D01*
X113950000Y-111600000D02*
X124450000Y-111600000D01*
X134713998Y-113250000D02*
X145362899Y-102601099D01*
X174876003Y-103562413D02*
X176313590Y-105000000D01*
X155926002Y-102450000D02*
X170550000Y-102450000D01*
X145362899Y-102601099D02*
X151148901Y-102601099D01*
X112550000Y-108150000D02*
X112550000Y-110200000D01*
X126100000Y-113250000D02*
X134713998Y-113250000D01*
X112550000Y-110200000D02*
X113950000Y-111600000D01*
X152820001Y-100929999D02*
X154406001Y-100929999D01*
X173456001Y-100929999D02*
X174876002Y-102350000D01*
X170550000Y-102450000D02*
X172070001Y-100929999D01*
X154406001Y-100929999D02*
X155926002Y-102450000D01*
X176600000Y-105000000D02*
X180650000Y-105000000D01*
X182000000Y-103650000D02*
X183336400Y-103650000D01*
X180650000Y-105000000D02*
X182000000Y-103650000D01*
%TO.N,/29*%
X170363600Y-101999990D02*
X171883601Y-100479989D01*
X156249990Y-101999990D02*
X170363600Y-101999990D01*
X124636401Y-111149991D02*
X126286400Y-112799990D01*
X113275000Y-110288590D02*
X113288590Y-110288590D01*
X114149990Y-111149990D02*
X124636401Y-111149991D01*
X126286400Y-112799990D02*
X134527598Y-112799990D01*
X113288590Y-110288590D02*
X114149990Y-111149990D01*
X154729989Y-100479989D02*
X156249990Y-101999990D01*
X134527598Y-112799990D02*
X145176499Y-102151089D01*
X113275000Y-107275000D02*
X113275000Y-110288590D01*
X152633601Y-100479989D02*
X154729989Y-100479989D01*
X145176499Y-102151089D02*
X150962501Y-102151089D01*
X150962501Y-102151089D02*
X152633601Y-100479989D01*
X229830000Y-102300000D02*
X229910000Y-102380000D01*
X214550000Y-102300000D02*
X229830000Y-102300000D01*
X171883601Y-100479989D02*
X173642402Y-100479990D01*
X173642402Y-100479990D02*
X175326012Y-102163600D01*
X175326012Y-102163600D02*
X175326012Y-103376012D01*
X175600000Y-103650000D02*
X176600000Y-103650000D01*
X175326012Y-103376012D02*
X175600000Y-103650000D01*
X213050000Y-102300000D02*
X214550000Y-102300000D01*
X184450000Y-101899990D02*
X188800000Y-101899990D01*
X210163999Y-100929999D02*
X211679999Y-100929999D01*
X211679999Y-100929999D02*
X213050000Y-102300000D01*
X183150000Y-103199990D02*
X184450000Y-101899990D01*
X176600000Y-103650000D02*
X181363590Y-103650000D01*
X192692402Y-100479990D02*
X194142402Y-101929990D01*
X181363590Y-103650000D02*
X181813600Y-103199990D01*
X188800000Y-101899990D02*
X190220000Y-100479990D01*
X181813600Y-103199990D02*
X183150000Y-103199990D01*
X194142402Y-101929990D02*
X209164008Y-101929990D01*
X190220000Y-100479990D02*
X192692402Y-100479990D01*
X209164008Y-101929990D02*
X210163999Y-100929999D01*
%TD*%
D20*
%TO.N,GND*%
G36*
X110190001Y-104812668D02*
G01*
X110186324Y-104850000D01*
X110190001Y-104887333D01*
X110200998Y-104998986D01*
X110201306Y-105000000D01*
X110244454Y-105142246D01*
X110315026Y-105274276D01*
X110384701Y-105359174D01*
X110410000Y-105390001D01*
X110438998Y-105413799D01*
X110990000Y-105964802D01*
X110990001Y-108896288D01*
X110896063Y-108990226D01*
X110782795Y-109159744D01*
X110704774Y-109348102D01*
X110665000Y-109548061D01*
X110665000Y-109751939D01*
X110704774Y-109951898D01*
X110782795Y-110140256D01*
X110896063Y-110309774D01*
X111040226Y-110453937D01*
X111209744Y-110567205D01*
X111398102Y-110645226D01*
X111598061Y-110685000D01*
X111801939Y-110685000D01*
X111941998Y-110657141D01*
X111977156Y-110699981D01*
X112010000Y-110740001D01*
X112038998Y-110763799D01*
X113386200Y-112111002D01*
X113409999Y-112140001D01*
X113438997Y-112163799D01*
X113525723Y-112234974D01*
X113657753Y-112305546D01*
X113801014Y-112349003D01*
X113912667Y-112360000D01*
X113912677Y-112360000D01*
X113950000Y-112363676D01*
X113987322Y-112360000D01*
X124135199Y-112360000D01*
X125115198Y-113340000D01*
X96068900Y-113340000D01*
X96115749Y-113226898D01*
X96155523Y-113026939D01*
X96155523Y-112823061D01*
X96115749Y-112623102D01*
X96037728Y-112434744D01*
X95924460Y-112265226D01*
X95919234Y-112260000D01*
X108467581Y-112260000D01*
X108500000Y-112263193D01*
X108532419Y-112260000D01*
X108629383Y-112250450D01*
X108753793Y-112212710D01*
X108868450Y-112151425D01*
X108968948Y-112068948D01*
X109051425Y-111968450D01*
X109112710Y-111853793D01*
X109150450Y-111729383D01*
X109163193Y-111600000D01*
X109160000Y-111567581D01*
X109160000Y-108928072D01*
X110300000Y-108928072D01*
X110424482Y-108915812D01*
X110544180Y-108879502D01*
X110654494Y-108820537D01*
X110751185Y-108741185D01*
X110830537Y-108644494D01*
X110889502Y-108534180D01*
X110925812Y-108414482D01*
X110938072Y-108290000D01*
X110938072Y-106590000D01*
X110925812Y-106465518D01*
X110889502Y-106345820D01*
X110830537Y-106235506D01*
X110751185Y-106138815D01*
X110654494Y-106059463D01*
X110544180Y-106000498D01*
X110424482Y-105964188D01*
X110300000Y-105951928D01*
X109160000Y-105951928D01*
X109160000Y-103848072D01*
X110190001Y-103848072D01*
X110190001Y-104812668D01*
G37*
X110190001Y-104812668D02*
X110186324Y-104850000D01*
X110190001Y-104887333D01*
X110200998Y-104998986D01*
X110201306Y-105000000D01*
X110244454Y-105142246D01*
X110315026Y-105274276D01*
X110384701Y-105359174D01*
X110410000Y-105390001D01*
X110438998Y-105413799D01*
X110990000Y-105964802D01*
X110990001Y-108896288D01*
X110896063Y-108990226D01*
X110782795Y-109159744D01*
X110704774Y-109348102D01*
X110665000Y-109548061D01*
X110665000Y-109751939D01*
X110704774Y-109951898D01*
X110782795Y-110140256D01*
X110896063Y-110309774D01*
X111040226Y-110453937D01*
X111209744Y-110567205D01*
X111398102Y-110645226D01*
X111598061Y-110685000D01*
X111801939Y-110685000D01*
X111941998Y-110657141D01*
X111977156Y-110699981D01*
X112010000Y-110740001D01*
X112038998Y-110763799D01*
X113386200Y-112111002D01*
X113409999Y-112140001D01*
X113438997Y-112163799D01*
X113525723Y-112234974D01*
X113657753Y-112305546D01*
X113801014Y-112349003D01*
X113912667Y-112360000D01*
X113912677Y-112360000D01*
X113950000Y-112363676D01*
X113987322Y-112360000D01*
X124135199Y-112360000D01*
X125115198Y-113340000D01*
X96068900Y-113340000D01*
X96115749Y-113226898D01*
X96155523Y-113026939D01*
X96155523Y-112823061D01*
X96115749Y-112623102D01*
X96037728Y-112434744D01*
X95924460Y-112265226D01*
X95919234Y-112260000D01*
X108467581Y-112260000D01*
X108500000Y-112263193D01*
X108532419Y-112260000D01*
X108629383Y-112250450D01*
X108753793Y-112212710D01*
X108868450Y-112151425D01*
X108968948Y-112068948D01*
X109051425Y-111968450D01*
X109112710Y-111853793D01*
X109150450Y-111729383D01*
X109163193Y-111600000D01*
X109160000Y-111567581D01*
X109160000Y-108928072D01*
X110300000Y-108928072D01*
X110424482Y-108915812D01*
X110544180Y-108879502D01*
X110654494Y-108820537D01*
X110751185Y-108741185D01*
X110830537Y-108644494D01*
X110889502Y-108534180D01*
X110925812Y-108414482D01*
X110938072Y-108290000D01*
X110938072Y-106590000D01*
X110925812Y-106465518D01*
X110889502Y-106345820D01*
X110830537Y-106235506D01*
X110751185Y-106138815D01*
X110654494Y-106059463D01*
X110544180Y-106000498D01*
X110424482Y-105964188D01*
X110300000Y-105951928D01*
X109160000Y-105951928D01*
X109160000Y-103848072D01*
X110190001Y-103848072D01*
X110190001Y-104812668D01*
G36*
X232016201Y-102891003D02*
G01*
X232039999Y-102920001D01*
X232068997Y-102943799D01*
X232155723Y-103014974D01*
X232250336Y-103065546D01*
X232287753Y-103085546D01*
X232431014Y-103129003D01*
X232542667Y-103140000D01*
X232542676Y-103140000D01*
X232579999Y-103143676D01*
X232617322Y-103140000D01*
X243212174Y-103140000D01*
X243108000Y-103244174D01*
X242820299Y-103674749D01*
X242622127Y-104153178D01*
X242521100Y-104661076D01*
X242521100Y-105178924D01*
X242622127Y-105686822D01*
X242820299Y-106165251D01*
X243108000Y-106595826D01*
X243474174Y-106962000D01*
X243904749Y-107249701D01*
X244383178Y-107447873D01*
X244891076Y-107548900D01*
X245408924Y-107548900D01*
X245916822Y-107447873D01*
X246395251Y-107249701D01*
X246825826Y-106962000D01*
X247192000Y-106595826D01*
X247479701Y-106165251D01*
X247677873Y-105686822D01*
X247778900Y-105178924D01*
X247778900Y-104661076D01*
X247677873Y-104153178D01*
X247479701Y-103674749D01*
X247192000Y-103244174D01*
X247087826Y-103140000D01*
X247369792Y-103140000D01*
X247400308Y-103213673D01*
X247592919Y-103501935D01*
X247838065Y-103747081D01*
X248126327Y-103939692D01*
X248446627Y-104072364D01*
X248786655Y-104140000D01*
X248935118Y-104140000D01*
X248891856Y-104204747D01*
X248778029Y-104479549D01*
X248720000Y-104771278D01*
X248720000Y-105068722D01*
X248778029Y-105360451D01*
X248891856Y-105635253D01*
X249057107Y-105882569D01*
X249267431Y-106092893D01*
X249514747Y-106258144D01*
X249789549Y-106371971D01*
X250081278Y-106430000D01*
X250378722Y-106430000D01*
X250670451Y-106371971D01*
X250945253Y-106258144D01*
X251192569Y-106092893D01*
X251402893Y-105882569D01*
X251540000Y-105677373D01*
X251540001Y-113340000D01*
X215685638Y-113340000D01*
X215687511Y-113267594D01*
X215649577Y-113047260D01*
X215569387Y-112838560D01*
X215541588Y-112786550D01*
X215328166Y-112751439D01*
X214739605Y-113340000D01*
X214360395Y-113340000D01*
X213771834Y-112751439D01*
X213558412Y-112786550D01*
X213467542Y-112990826D01*
X213418269Y-113208905D01*
X213414879Y-113340000D01*
X177735638Y-113340000D01*
X177737511Y-113267594D01*
X177699577Y-113047260D01*
X177619387Y-112838560D01*
X177591588Y-112786550D01*
X177378166Y-112751439D01*
X176789605Y-113340000D01*
X176410395Y-113340000D01*
X175821834Y-112751439D01*
X175608412Y-112786550D01*
X175517542Y-112990826D01*
X175468269Y-113208905D01*
X175464879Y-113340000D01*
X135698799Y-113340000D01*
X136466965Y-112571834D01*
X176001439Y-112571834D01*
X176079605Y-112650000D01*
X176001439Y-112728166D01*
X176036550Y-112941588D01*
X176240826Y-113032458D01*
X176458905Y-113081731D01*
X176512728Y-113083123D01*
X176600000Y-113170395D01*
X176682983Y-113087412D01*
X176902740Y-113049577D01*
X177111440Y-112969387D01*
X177163450Y-112941588D01*
X177198561Y-112728166D01*
X177120395Y-112650000D01*
X177198561Y-112571834D01*
X213951439Y-112571834D01*
X214029605Y-112650000D01*
X213951439Y-112728166D01*
X213986550Y-112941588D01*
X214190826Y-113032458D01*
X214408905Y-113081731D01*
X214462728Y-113083123D01*
X214550000Y-113170395D01*
X214632983Y-113087412D01*
X214852740Y-113049577D01*
X215061440Y-112969387D01*
X215113450Y-112941588D01*
X215148561Y-112728166D01*
X215070395Y-112650000D01*
X215148561Y-112571834D01*
X215113450Y-112358412D01*
X214909174Y-112267542D01*
X214691095Y-112218269D01*
X214637272Y-112216877D01*
X214550000Y-112129605D01*
X214467017Y-112212588D01*
X214247260Y-112250423D01*
X214038560Y-112330613D01*
X213986550Y-112358412D01*
X213951439Y-112571834D01*
X177198561Y-112571834D01*
X177163450Y-112358412D01*
X176959174Y-112267542D01*
X176741095Y-112218269D01*
X176687272Y-112216877D01*
X176600000Y-112129605D01*
X176517017Y-112212588D01*
X176297260Y-112250423D01*
X176088560Y-112330613D01*
X176036550Y-112358412D01*
X176001439Y-112571834D01*
X136466965Y-112571834D01*
X137006393Y-112032406D01*
X175462489Y-112032406D01*
X175500423Y-112252740D01*
X175580613Y-112461440D01*
X175608412Y-112513450D01*
X175821834Y-112548561D01*
X176420395Y-111950000D01*
X176779605Y-111950000D01*
X177378166Y-112548561D01*
X177591588Y-112513450D01*
X177682458Y-112309174D01*
X177731731Y-112091095D01*
X177737511Y-111867594D01*
X177699577Y-111647260D01*
X177619387Y-111438560D01*
X177591588Y-111386550D01*
X177378166Y-111351439D01*
X176779605Y-111950000D01*
X176420395Y-111950000D01*
X175821834Y-111351439D01*
X175608412Y-111386550D01*
X175517542Y-111590826D01*
X175468269Y-111808905D01*
X175462489Y-112032406D01*
X137006393Y-112032406D01*
X140788799Y-108250000D01*
X147636807Y-108250000D01*
X147640000Y-108282420D01*
X147640001Y-111017571D01*
X147636807Y-111050000D01*
X147649550Y-111179383D01*
X147687290Y-111303793D01*
X147748575Y-111418450D01*
X147831052Y-111518948D01*
X147931550Y-111601425D01*
X148046207Y-111662710D01*
X148170617Y-111700450D01*
X148267581Y-111710000D01*
X148300000Y-111713193D01*
X148332419Y-111710000D01*
X151467581Y-111710000D01*
X151500000Y-111713193D01*
X151532419Y-111710000D01*
X151629383Y-111700450D01*
X151753793Y-111662710D01*
X151868450Y-111601425D01*
X151968948Y-111518948D01*
X152051425Y-111418450D01*
X152112710Y-111303793D01*
X152150450Y-111179383D01*
X152163193Y-111050000D01*
X152160000Y-111017581D01*
X152160000Y-109798061D01*
X163215000Y-109798061D01*
X163215000Y-110001939D01*
X163254774Y-110201898D01*
X163332795Y-110390256D01*
X163446063Y-110559774D01*
X163590226Y-110703937D01*
X163759744Y-110817205D01*
X163948102Y-110895226D01*
X164148061Y-110935000D01*
X164351939Y-110935000D01*
X164551898Y-110895226D01*
X164740256Y-110817205D01*
X164909774Y-110703937D01*
X165053937Y-110559774D01*
X165167205Y-110390256D01*
X165245226Y-110201898D01*
X165285000Y-110001939D01*
X165285000Y-109798061D01*
X165245226Y-109598102D01*
X165167205Y-109409744D01*
X165053937Y-109240226D01*
X164909774Y-109096063D01*
X164740256Y-108982795D01*
X164551898Y-108904774D01*
X164351939Y-108865000D01*
X164148061Y-108865000D01*
X163948102Y-108904774D01*
X163759744Y-108982795D01*
X163590226Y-109096063D01*
X163446063Y-109240226D01*
X163332795Y-109409744D01*
X163254774Y-109598102D01*
X163215000Y-109798061D01*
X152160000Y-109798061D01*
X152160000Y-108282419D01*
X152163193Y-108250000D01*
X166686807Y-108250000D01*
X166690000Y-108282420D01*
X166690001Y-111017571D01*
X166686807Y-111050000D01*
X166699550Y-111179383D01*
X166737290Y-111303793D01*
X166798575Y-111418450D01*
X166881052Y-111518948D01*
X166981550Y-111601425D01*
X167096207Y-111662710D01*
X167220617Y-111700450D01*
X167317581Y-111710000D01*
X167350000Y-111713193D01*
X167382419Y-111710000D01*
X170517581Y-111710000D01*
X170550000Y-111713193D01*
X170582419Y-111710000D01*
X170679383Y-111700450D01*
X170803793Y-111662710D01*
X170918450Y-111601425D01*
X171018948Y-111518948D01*
X171101425Y-111418450D01*
X171162710Y-111303793D01*
X171200450Y-111179383D01*
X171201193Y-111171834D01*
X176001439Y-111171834D01*
X176079605Y-111250000D01*
X176001439Y-111328166D01*
X176036550Y-111541588D01*
X176240826Y-111632458D01*
X176458905Y-111681731D01*
X176512728Y-111683123D01*
X176600000Y-111770395D01*
X176682983Y-111687412D01*
X176902740Y-111649577D01*
X177111440Y-111569387D01*
X177163450Y-111541588D01*
X177198561Y-111328166D01*
X177120395Y-111250000D01*
X177198561Y-111171834D01*
X177163450Y-110958412D01*
X176959174Y-110867542D01*
X176741095Y-110818269D01*
X176687272Y-110816877D01*
X176600000Y-110729605D01*
X176517017Y-110812588D01*
X176297260Y-110850423D01*
X176088560Y-110930613D01*
X176036550Y-110958412D01*
X176001439Y-111171834D01*
X171201193Y-111171834D01*
X171213193Y-111050000D01*
X171210000Y-111017581D01*
X171210000Y-108282419D01*
X171213193Y-108250000D01*
X171200450Y-108120617D01*
X171162710Y-107996207D01*
X171101425Y-107881550D01*
X171018948Y-107781052D01*
X170918450Y-107698575D01*
X170803793Y-107637290D01*
X170679383Y-107599550D01*
X170582419Y-107590000D01*
X170550000Y-107586807D01*
X170517581Y-107590000D01*
X167382419Y-107590000D01*
X167350000Y-107586807D01*
X167317581Y-107590000D01*
X167220617Y-107599550D01*
X167096207Y-107637290D01*
X166981550Y-107698575D01*
X166881052Y-107781052D01*
X166798575Y-107881550D01*
X166737290Y-107996207D01*
X166699550Y-108120617D01*
X166686807Y-108250000D01*
X152163193Y-108250000D01*
X152150450Y-108120617D01*
X152112710Y-107996207D01*
X152051425Y-107881550D01*
X151968948Y-107781052D01*
X151868450Y-107698575D01*
X151753793Y-107637290D01*
X151629383Y-107599550D01*
X151532419Y-107590000D01*
X151500000Y-107586807D01*
X151467581Y-107590000D01*
X148332419Y-107590000D01*
X148300000Y-107586807D01*
X148267581Y-107590000D01*
X148170617Y-107599550D01*
X148046207Y-107637290D01*
X147931550Y-107698575D01*
X147831052Y-107781052D01*
X147748575Y-107881550D01*
X147687290Y-107996207D01*
X147649550Y-108120617D01*
X147636807Y-108250000D01*
X140788799Y-108250000D01*
X143458920Y-105579880D01*
X143481856Y-105635253D01*
X143647107Y-105882569D01*
X143857431Y-106092893D01*
X144104747Y-106258144D01*
X144379549Y-106371971D01*
X144671278Y-106430000D01*
X144968722Y-106430000D01*
X145260451Y-106371971D01*
X145535253Y-106258144D01*
X145782569Y-106092893D01*
X145992893Y-105882569D01*
X146158144Y-105635253D01*
X146271971Y-105360451D01*
X146330000Y-105068722D01*
X146330000Y-104771278D01*
X146271971Y-104479549D01*
X146158144Y-104204747D01*
X145992893Y-103957431D01*
X145782569Y-103747107D01*
X145535253Y-103581856D01*
X145479880Y-103558920D01*
X145677701Y-103361099D01*
X147779873Y-103361099D01*
X147570299Y-103674749D01*
X147372127Y-104153178D01*
X147271100Y-104661076D01*
X147271100Y-105178924D01*
X147372127Y-105686822D01*
X147570299Y-106165251D01*
X147858000Y-106595826D01*
X148224174Y-106962000D01*
X148654749Y-107249701D01*
X149133178Y-107447873D01*
X149641076Y-107548900D01*
X150158924Y-107548900D01*
X150666822Y-107447873D01*
X151145251Y-107249701D01*
X151575826Y-106962000D01*
X151942000Y-106595826D01*
X152229701Y-106165251D01*
X152427873Y-105686822D01*
X152528900Y-105178924D01*
X152528900Y-104661076D01*
X152427873Y-104153178D01*
X152229701Y-103674749D01*
X151942000Y-103244174D01*
X151761314Y-103063488D01*
X152003333Y-102821468D01*
X152017636Y-102893373D01*
X152150308Y-103213673D01*
X152342919Y-103501935D01*
X152588065Y-103747081D01*
X152876327Y-103939692D01*
X153196627Y-104072364D01*
X153536655Y-104140000D01*
X153685118Y-104140000D01*
X153641856Y-104204747D01*
X153528029Y-104479549D01*
X153470000Y-104771278D01*
X153470000Y-105068722D01*
X153528029Y-105360451D01*
X153641856Y-105635253D01*
X153807107Y-105882569D01*
X154017431Y-106092893D01*
X154264747Y-106258144D01*
X154539549Y-106371971D01*
X154831278Y-106430000D01*
X155128722Y-106430000D01*
X155420451Y-106371971D01*
X155695253Y-106258144D01*
X155942569Y-106092893D01*
X156152893Y-105882569D01*
X156318144Y-105635253D01*
X156431971Y-105360451D01*
X156490000Y-105068722D01*
X156490000Y-104771278D01*
X162360000Y-104771278D01*
X162360000Y-105068722D01*
X162418029Y-105360451D01*
X162531856Y-105635253D01*
X162697107Y-105882569D01*
X162907431Y-106092893D01*
X163154747Y-106258144D01*
X163429549Y-106371971D01*
X163721278Y-106430000D01*
X164018722Y-106430000D01*
X164310451Y-106371971D01*
X164585253Y-106258144D01*
X164832569Y-106092893D01*
X165042893Y-105882569D01*
X165208144Y-105635253D01*
X165321971Y-105360451D01*
X165380000Y-105068722D01*
X165380000Y-104771278D01*
X165321971Y-104479549D01*
X165208144Y-104204747D01*
X165042893Y-103957431D01*
X164832569Y-103747107D01*
X164585253Y-103581856D01*
X164310451Y-103468029D01*
X164018722Y-103410000D01*
X163721278Y-103410000D01*
X163429549Y-103468029D01*
X163154747Y-103581856D01*
X162907431Y-103747107D01*
X162697107Y-103957431D01*
X162531856Y-104204747D01*
X162418029Y-104479549D01*
X162360000Y-104771278D01*
X156490000Y-104771278D01*
X156431971Y-104479549D01*
X156318144Y-104204747D01*
X156152893Y-103957431D01*
X155942569Y-103747107D01*
X155695253Y-103581856D01*
X155420451Y-103468029D01*
X155137362Y-103411719D01*
X155269692Y-103213673D01*
X155370276Y-102970840D01*
X155386001Y-102990001D01*
X155414999Y-103013799D01*
X155501725Y-103084974D01*
X155601977Y-103138560D01*
X155633755Y-103155546D01*
X155777016Y-103199003D01*
X155888669Y-103210000D01*
X155888678Y-103210000D01*
X155926001Y-103213676D01*
X155963324Y-103210000D01*
X166942174Y-103210000D01*
X166908000Y-103244174D01*
X166620299Y-103674749D01*
X166422127Y-104153178D01*
X166321100Y-104661076D01*
X166321100Y-105178924D01*
X166422127Y-105686822D01*
X166620299Y-106165251D01*
X166908000Y-106595826D01*
X167274174Y-106962000D01*
X167704749Y-107249701D01*
X168183178Y-107447873D01*
X168691076Y-107548900D01*
X169208924Y-107548900D01*
X169716822Y-107447873D01*
X170195251Y-107249701D01*
X170625826Y-106962000D01*
X170992000Y-106595826D01*
X171279701Y-106165251D01*
X171477873Y-105686822D01*
X171578900Y-105178924D01*
X171578900Y-104661076D01*
X171477873Y-104153178D01*
X171279701Y-103674749D01*
X170992000Y-103244174D01*
X170882080Y-103134254D01*
X170974276Y-103084974D01*
X171090001Y-102990001D01*
X171101737Y-102975701D01*
X171200308Y-103213673D01*
X171392919Y-103501935D01*
X171638065Y-103747081D01*
X171926327Y-103939692D01*
X172246627Y-104072364D01*
X172586655Y-104140000D01*
X172735118Y-104140000D01*
X172691856Y-104204747D01*
X172578029Y-104479549D01*
X172520000Y-104771278D01*
X172520000Y-105068722D01*
X172578029Y-105360451D01*
X172691856Y-105635253D01*
X172857107Y-105882569D01*
X173067431Y-106092893D01*
X173314747Y-106258144D01*
X173589549Y-106371971D01*
X173881278Y-106430000D01*
X174178722Y-106430000D01*
X174470451Y-106371971D01*
X174745253Y-106258144D01*
X174992569Y-106092893D01*
X175202893Y-105882569D01*
X175368144Y-105635253D01*
X175481971Y-105360451D01*
X175498217Y-105278780D01*
X175508617Y-105331067D01*
X175594176Y-105537624D01*
X175685968Y-105675000D01*
X175594176Y-105812376D01*
X175508617Y-106018933D01*
X175465000Y-106238212D01*
X175465000Y-106461788D01*
X175508617Y-106681067D01*
X175594176Y-106887624D01*
X175702672Y-107050000D01*
X175594176Y-107212376D01*
X175508617Y-107418933D01*
X175465000Y-107638212D01*
X175465000Y-107861788D01*
X175508617Y-108081067D01*
X175594176Y-108287624D01*
X175702672Y-108450000D01*
X175594176Y-108612376D01*
X175508617Y-108818933D01*
X175465000Y-109038212D01*
X175465000Y-109261788D01*
X175508617Y-109481067D01*
X175594176Y-109687624D01*
X175718388Y-109873520D01*
X175799913Y-109955045D01*
X175608412Y-109986550D01*
X175517542Y-110190826D01*
X175468269Y-110408905D01*
X175462489Y-110632406D01*
X175500423Y-110852740D01*
X175580613Y-111061440D01*
X175608412Y-111113450D01*
X175821834Y-111148561D01*
X176420395Y-110550000D01*
X176406253Y-110535858D01*
X176585858Y-110356253D01*
X176600000Y-110370395D01*
X176614143Y-110356253D01*
X176793748Y-110535858D01*
X176779605Y-110550000D01*
X177378166Y-111148561D01*
X177591588Y-111113450D01*
X177682458Y-110909174D01*
X177731731Y-110691095D01*
X177737511Y-110467594D01*
X177699577Y-110247260D01*
X177619387Y-110038560D01*
X177591588Y-109986550D01*
X177400087Y-109955045D01*
X177481612Y-109873520D01*
X177605824Y-109687624D01*
X177691383Y-109481067D01*
X177735000Y-109261788D01*
X177735000Y-109038212D01*
X177691383Y-108818933D01*
X177605824Y-108612376D01*
X177497328Y-108450000D01*
X177605824Y-108287624D01*
X177621408Y-108250000D01*
X185736807Y-108250000D01*
X185740000Y-108282420D01*
X185740001Y-111017571D01*
X185736807Y-111050000D01*
X185749550Y-111179383D01*
X185787290Y-111303793D01*
X185848575Y-111418450D01*
X185931052Y-111518948D01*
X186031550Y-111601425D01*
X186146207Y-111662710D01*
X186270617Y-111700450D01*
X186367581Y-111710000D01*
X186400000Y-111713193D01*
X186432419Y-111710000D01*
X189567581Y-111710000D01*
X189600000Y-111713193D01*
X189632419Y-111710000D01*
X189729383Y-111700450D01*
X189853793Y-111662710D01*
X189968450Y-111601425D01*
X190068948Y-111518948D01*
X190151425Y-111418450D01*
X190212710Y-111303793D01*
X190250450Y-111179383D01*
X190263193Y-111050000D01*
X190260000Y-111017581D01*
X190260000Y-108282419D01*
X190263193Y-108250000D01*
X204786807Y-108250000D01*
X204790000Y-108282420D01*
X204790001Y-111017571D01*
X204786807Y-111050000D01*
X204799550Y-111179383D01*
X204837290Y-111303793D01*
X204898575Y-111418450D01*
X204981052Y-111518948D01*
X205081550Y-111601425D01*
X205196207Y-111662710D01*
X205320617Y-111700450D01*
X205417581Y-111710000D01*
X205450000Y-111713193D01*
X205482419Y-111710000D01*
X208617581Y-111710000D01*
X208650000Y-111713193D01*
X208682419Y-111710000D01*
X208779383Y-111700450D01*
X208903793Y-111662710D01*
X209018450Y-111601425D01*
X209118948Y-111518948D01*
X209201425Y-111418450D01*
X209262710Y-111303793D01*
X209300450Y-111179383D01*
X209313193Y-111050000D01*
X209310000Y-111017581D01*
X209310000Y-108282419D01*
X209313193Y-108250000D01*
X209300450Y-108120617D01*
X209262710Y-107996207D01*
X209201425Y-107881550D01*
X209118948Y-107781052D01*
X209018450Y-107698575D01*
X208903793Y-107637290D01*
X208779383Y-107599550D01*
X208682419Y-107590000D01*
X208650000Y-107586807D01*
X208617581Y-107590000D01*
X205482419Y-107590000D01*
X205450000Y-107586807D01*
X205417581Y-107590000D01*
X205320617Y-107599550D01*
X205196207Y-107637290D01*
X205081550Y-107698575D01*
X204981052Y-107781052D01*
X204898575Y-107881550D01*
X204837290Y-107996207D01*
X204799550Y-108120617D01*
X204786807Y-108250000D01*
X190263193Y-108250000D01*
X190250450Y-108120617D01*
X190212710Y-107996207D01*
X190151425Y-107881550D01*
X190068948Y-107781052D01*
X189968450Y-107698575D01*
X189853793Y-107637290D01*
X189729383Y-107599550D01*
X189632419Y-107590000D01*
X189600000Y-107586807D01*
X189567581Y-107590000D01*
X186432419Y-107590000D01*
X186400000Y-107586807D01*
X186367581Y-107590000D01*
X186270617Y-107599550D01*
X186146207Y-107637290D01*
X186031550Y-107698575D01*
X185931052Y-107781052D01*
X185848575Y-107881550D01*
X185787290Y-107996207D01*
X185749550Y-108120617D01*
X185736807Y-108250000D01*
X177621408Y-108250000D01*
X177691383Y-108081067D01*
X177735000Y-107861788D01*
X177735000Y-107638212D01*
X177691383Y-107418933D01*
X177605824Y-107212376D01*
X177497328Y-107050000D01*
X177605824Y-106887624D01*
X177691383Y-106681067D01*
X177735000Y-106461788D01*
X177735000Y-106238212D01*
X177691383Y-106018933D01*
X177605824Y-105812376D01*
X177570827Y-105760000D01*
X180612678Y-105760000D01*
X180650000Y-105763676D01*
X180687322Y-105760000D01*
X180687333Y-105760000D01*
X180798986Y-105749003D01*
X180942247Y-105705546D01*
X181074276Y-105634974D01*
X181190001Y-105540001D01*
X181213804Y-105510997D01*
X181450827Y-105273974D01*
X181468029Y-105360451D01*
X181581856Y-105635253D01*
X181747107Y-105882569D01*
X181957431Y-106092893D01*
X182204747Y-106258144D01*
X182479549Y-106371971D01*
X182771278Y-106430000D01*
X183068722Y-106430000D01*
X183360451Y-106371971D01*
X183635253Y-106258144D01*
X183882569Y-106092893D01*
X184092893Y-105882569D01*
X184258144Y-105635253D01*
X184371971Y-105360451D01*
X184430000Y-105068722D01*
X184430000Y-104771278D01*
X184371971Y-104479549D01*
X184258144Y-104204747D01*
X184097250Y-103963951D01*
X184951202Y-103110000D01*
X186092174Y-103110000D01*
X185958000Y-103244174D01*
X185670299Y-103674749D01*
X185472127Y-104153178D01*
X185371100Y-104661076D01*
X185371100Y-105178924D01*
X185472127Y-105686822D01*
X185670299Y-106165251D01*
X185958000Y-106595826D01*
X186324174Y-106962000D01*
X186754749Y-107249701D01*
X187233178Y-107447873D01*
X187741076Y-107548900D01*
X188258924Y-107548900D01*
X188766822Y-107447873D01*
X189245251Y-107249701D01*
X189675826Y-106962000D01*
X190042000Y-106595826D01*
X190329701Y-106165251D01*
X190527873Y-105686822D01*
X190628900Y-105178924D01*
X190628900Y-104661076D01*
X190527873Y-104153178D01*
X190329701Y-103674749D01*
X190042000Y-103244174D01*
X189711345Y-102913519D01*
X189740001Y-102890001D01*
X189763804Y-102860997D01*
X190020803Y-102603998D01*
X190060076Y-102603998D01*
X190117636Y-102893373D01*
X190250308Y-103213673D01*
X190442919Y-103501935D01*
X190688065Y-103747081D01*
X190976327Y-103939692D01*
X191296627Y-104072364D01*
X191636655Y-104140000D01*
X191785118Y-104140000D01*
X191741856Y-104204747D01*
X191628029Y-104479549D01*
X191570000Y-104771278D01*
X191570000Y-105068722D01*
X191628029Y-105360451D01*
X191741856Y-105635253D01*
X191907107Y-105882569D01*
X192117431Y-106092893D01*
X192364747Y-106258144D01*
X192639549Y-106371971D01*
X192931278Y-106430000D01*
X193228722Y-106430000D01*
X193520451Y-106371971D01*
X193795253Y-106258144D01*
X194042569Y-106092893D01*
X194252893Y-105882569D01*
X194418144Y-105635253D01*
X194531971Y-105360451D01*
X194590000Y-105068722D01*
X194590000Y-104771278D01*
X200460000Y-104771278D01*
X200460000Y-105068722D01*
X200518029Y-105360451D01*
X200631856Y-105635253D01*
X200797107Y-105882569D01*
X201007431Y-106092893D01*
X201254747Y-106258144D01*
X201529549Y-106371971D01*
X201821278Y-106430000D01*
X202118722Y-106430000D01*
X202410451Y-106371971D01*
X202685253Y-106258144D01*
X202932569Y-106092893D01*
X203142893Y-105882569D01*
X203308144Y-105635253D01*
X203421971Y-105360451D01*
X203480000Y-105068722D01*
X203480000Y-104771278D01*
X203421971Y-104479549D01*
X203308144Y-104204747D01*
X203142893Y-103957431D01*
X202932569Y-103747107D01*
X202685253Y-103581856D01*
X202410451Y-103468029D01*
X202118722Y-103410000D01*
X201821278Y-103410000D01*
X201529549Y-103468029D01*
X201254747Y-103581856D01*
X201007431Y-103747107D01*
X200797107Y-103957431D01*
X200631856Y-104204747D01*
X200518029Y-104479549D01*
X200460000Y-104771278D01*
X194590000Y-104771278D01*
X194531971Y-104479549D01*
X194418144Y-104204747D01*
X194252893Y-103957431D01*
X194042569Y-103747107D01*
X193795253Y-103581856D01*
X193520451Y-103468029D01*
X193237362Y-103411719D01*
X193369692Y-103213673D01*
X193472223Y-102966141D01*
X193531725Y-103014974D01*
X193626338Y-103065546D01*
X193663755Y-103085546D01*
X193807016Y-103129003D01*
X193918669Y-103140000D01*
X193918678Y-103140000D01*
X193956001Y-103143676D01*
X193993324Y-103140000D01*
X205112174Y-103140000D01*
X205008000Y-103244174D01*
X204720299Y-103674749D01*
X204522127Y-104153178D01*
X204421100Y-104661076D01*
X204421100Y-105178924D01*
X204522127Y-105686822D01*
X204720299Y-106165251D01*
X205008000Y-106595826D01*
X205374174Y-106962000D01*
X205804749Y-107249701D01*
X206283178Y-107447873D01*
X206791076Y-107548900D01*
X207308924Y-107548900D01*
X207816822Y-107447873D01*
X208295251Y-107249701D01*
X208725826Y-106962000D01*
X209092000Y-106595826D01*
X209379701Y-106165251D01*
X209577873Y-105686822D01*
X209678900Y-105178924D01*
X209678900Y-104661076D01*
X209577873Y-104153178D01*
X209379701Y-103674749D01*
X209092000Y-103244174D01*
X208987826Y-103140000D01*
X209269792Y-103140000D01*
X209300308Y-103213673D01*
X209492919Y-103501935D01*
X209738065Y-103747081D01*
X210026327Y-103939692D01*
X210346627Y-104072364D01*
X210686655Y-104140000D01*
X210835118Y-104140000D01*
X210791856Y-104204747D01*
X210678029Y-104479549D01*
X210620000Y-104771278D01*
X210620000Y-105068722D01*
X210678029Y-105360451D01*
X210791856Y-105635253D01*
X210957107Y-105882569D01*
X211167431Y-106092893D01*
X211414747Y-106258144D01*
X211689549Y-106371971D01*
X211981278Y-106430000D01*
X212278722Y-106430000D01*
X212570451Y-106371971D01*
X212845253Y-106258144D01*
X213092569Y-106092893D01*
X213302893Y-105882569D01*
X213468144Y-105635253D01*
X213525231Y-105497433D01*
X213530613Y-105511440D01*
X213558412Y-105563450D01*
X213701053Y-105586917D01*
X213654181Y-105633789D01*
X213695392Y-105675000D01*
X213654181Y-105716211D01*
X213701053Y-105763083D01*
X213558412Y-105786550D01*
X213467542Y-105990826D01*
X213418269Y-106208905D01*
X213412489Y-106432406D01*
X213450423Y-106652740D01*
X213530613Y-106861440D01*
X213558412Y-106913450D01*
X213749913Y-106944955D01*
X213668388Y-107026480D01*
X213544176Y-107212376D01*
X213458617Y-107418933D01*
X213415000Y-107638212D01*
X213415000Y-107861788D01*
X213458617Y-108081067D01*
X213544176Y-108287624D01*
X213668388Y-108473520D01*
X213749913Y-108555045D01*
X213558412Y-108586550D01*
X213467542Y-108790826D01*
X213418269Y-109008905D01*
X213412489Y-109232406D01*
X213450423Y-109452740D01*
X213530613Y-109661440D01*
X213558412Y-109713450D01*
X213749913Y-109744955D01*
X213668388Y-109826480D01*
X213544176Y-110012376D01*
X213458617Y-110218933D01*
X213415000Y-110438212D01*
X213415000Y-110661788D01*
X213458617Y-110881067D01*
X213544176Y-111087624D01*
X213668388Y-111273520D01*
X213749913Y-111355045D01*
X213558412Y-111386550D01*
X213467542Y-111590826D01*
X213418269Y-111808905D01*
X213412489Y-112032406D01*
X213450423Y-112252740D01*
X213530613Y-112461440D01*
X213558412Y-112513450D01*
X213771834Y-112548561D01*
X214370395Y-111950000D01*
X214356253Y-111935858D01*
X214535858Y-111756253D01*
X214550000Y-111770395D01*
X214564143Y-111756253D01*
X214743748Y-111935858D01*
X214729605Y-111950000D01*
X215328166Y-112548561D01*
X215541588Y-112513450D01*
X215632458Y-112309174D01*
X215681731Y-112091095D01*
X215687511Y-111867594D01*
X215649577Y-111647260D01*
X215569387Y-111438560D01*
X215541588Y-111386550D01*
X215350087Y-111355045D01*
X215431612Y-111273520D01*
X215555824Y-111087624D01*
X215641383Y-110881067D01*
X215685000Y-110661788D01*
X215685000Y-110438212D01*
X215641383Y-110218933D01*
X215555824Y-110012376D01*
X215431612Y-109826480D01*
X215350087Y-109744955D01*
X215541588Y-109713450D01*
X215632458Y-109509174D01*
X215681731Y-109291095D01*
X215687511Y-109067594D01*
X215649577Y-108847260D01*
X215569387Y-108638560D01*
X215541588Y-108586550D01*
X215350087Y-108555045D01*
X215431612Y-108473520D01*
X215555824Y-108287624D01*
X215571408Y-108250000D01*
X223836807Y-108250000D01*
X223840000Y-108282420D01*
X223840001Y-111017571D01*
X223836807Y-111050000D01*
X223849550Y-111179383D01*
X223887290Y-111303793D01*
X223948575Y-111418450D01*
X224031052Y-111518948D01*
X224131550Y-111601425D01*
X224246207Y-111662710D01*
X224370617Y-111700450D01*
X224467581Y-111710000D01*
X224500000Y-111713193D01*
X224532419Y-111710000D01*
X227667581Y-111710000D01*
X227700000Y-111713193D01*
X227732419Y-111710000D01*
X227829383Y-111700450D01*
X227953793Y-111662710D01*
X228068450Y-111601425D01*
X228168948Y-111518948D01*
X228251425Y-111418450D01*
X228312710Y-111303793D01*
X228350450Y-111179383D01*
X228363193Y-111050000D01*
X228360000Y-111017581D01*
X228360000Y-108282419D01*
X228363193Y-108250000D01*
X242886807Y-108250000D01*
X242890001Y-108282429D01*
X242890000Y-111012411D01*
X242886888Y-111039639D01*
X242890000Y-111077248D01*
X242890000Y-111082418D01*
X242892676Y-111109587D01*
X242897609Y-111169205D01*
X242899040Y-111174201D01*
X242899550Y-111179382D01*
X242916931Y-111236680D01*
X242933400Y-111294189D01*
X242935780Y-111298814D01*
X242937290Y-111303792D01*
X242965495Y-111356560D01*
X242992886Y-111409790D01*
X242996124Y-111413864D01*
X242998575Y-111418449D01*
X243036539Y-111464709D01*
X243073783Y-111511564D01*
X243077751Y-111514925D01*
X243081052Y-111518948D01*
X243127347Y-111556942D01*
X243172981Y-111595601D01*
X243177525Y-111598122D01*
X243181550Y-111601425D01*
X243234366Y-111629655D01*
X243286666Y-111658670D01*
X243291618Y-111660257D01*
X243296207Y-111662710D01*
X243353495Y-111680088D01*
X243410471Y-111698349D01*
X243415637Y-111698939D01*
X243420617Y-111700450D01*
X243480230Y-111706321D01*
X243507274Y-111709412D01*
X243512428Y-111709493D01*
X243550000Y-111713193D01*
X243577283Y-111710506D01*
X246712429Y-111759493D01*
X246750000Y-111763193D01*
X246809621Y-111757321D01*
X246869205Y-111752391D01*
X246874201Y-111750960D01*
X246879383Y-111750450D01*
X246936698Y-111733063D01*
X246994189Y-111716600D01*
X246998812Y-111714221D01*
X247003793Y-111712710D01*
X247056587Y-111684491D01*
X247109790Y-111657114D01*
X247113862Y-111653877D01*
X247118450Y-111651425D01*
X247164726Y-111613447D01*
X247211564Y-111576217D01*
X247214925Y-111572249D01*
X247218948Y-111568948D01*
X247256928Y-111522670D01*
X247295601Y-111477020D01*
X247298124Y-111472473D01*
X247301425Y-111468450D01*
X247329649Y-111415647D01*
X247358670Y-111363334D01*
X247360257Y-111358382D01*
X247362710Y-111353793D01*
X247380088Y-111296505D01*
X247398349Y-111239529D01*
X247398940Y-111234362D01*
X247400450Y-111229383D01*
X247406317Y-111169813D01*
X247413112Y-111110361D01*
X247410000Y-111072748D01*
X247410000Y-108282419D01*
X247413193Y-108250000D01*
X247400450Y-108120617D01*
X247362710Y-107996207D01*
X247301425Y-107881550D01*
X247218948Y-107781052D01*
X247118450Y-107698575D01*
X247003793Y-107637290D01*
X246879383Y-107599550D01*
X246782419Y-107590000D01*
X246750000Y-107586807D01*
X246717581Y-107590000D01*
X243582419Y-107590000D01*
X243550000Y-107586807D01*
X243517581Y-107590000D01*
X243420617Y-107599550D01*
X243296207Y-107637290D01*
X243181550Y-107698575D01*
X243081052Y-107781052D01*
X242998575Y-107881550D01*
X242937290Y-107996207D01*
X242899550Y-108120617D01*
X242886807Y-108250000D01*
X228363193Y-108250000D01*
X228350450Y-108120617D01*
X228312710Y-107996207D01*
X228251425Y-107881550D01*
X228168948Y-107781052D01*
X228068450Y-107698575D01*
X227953793Y-107637290D01*
X227829383Y-107599550D01*
X227732419Y-107590000D01*
X227700000Y-107586807D01*
X227667581Y-107590000D01*
X224532419Y-107590000D01*
X224500000Y-107586807D01*
X224467581Y-107590000D01*
X224370617Y-107599550D01*
X224246207Y-107637290D01*
X224131550Y-107698575D01*
X224031052Y-107781052D01*
X223948575Y-107881550D01*
X223887290Y-107996207D01*
X223849550Y-108120617D01*
X223836807Y-108250000D01*
X215571408Y-108250000D01*
X215641383Y-108081067D01*
X215685000Y-107861788D01*
X215685000Y-107638212D01*
X215641383Y-107418933D01*
X215555824Y-107212376D01*
X215431612Y-107026480D01*
X215350087Y-106944955D01*
X215541588Y-106913450D01*
X215632458Y-106709174D01*
X215681731Y-106491095D01*
X215687511Y-106267594D01*
X215649577Y-106047260D01*
X215569387Y-105838560D01*
X215541588Y-105786550D01*
X215398947Y-105763083D01*
X215445819Y-105716211D01*
X215404608Y-105675000D01*
X215445819Y-105633789D01*
X215398947Y-105586917D01*
X215541588Y-105563450D01*
X215632458Y-105359174D01*
X215681731Y-105141095D01*
X215687511Y-104917594D01*
X215662321Y-104771278D01*
X219510000Y-104771278D01*
X219510000Y-105068722D01*
X219568029Y-105360451D01*
X219681856Y-105635253D01*
X219847107Y-105882569D01*
X220057431Y-106092893D01*
X220304747Y-106258144D01*
X220579549Y-106371971D01*
X220871278Y-106430000D01*
X221168722Y-106430000D01*
X221460451Y-106371971D01*
X221735253Y-106258144D01*
X221982569Y-106092893D01*
X222192893Y-105882569D01*
X222358144Y-105635253D01*
X222471971Y-105360451D01*
X222530000Y-105068722D01*
X222530000Y-104771278D01*
X222471971Y-104479549D01*
X222358144Y-104204747D01*
X222192893Y-103957431D01*
X221982569Y-103747107D01*
X221735253Y-103581856D01*
X221460451Y-103468029D01*
X221168722Y-103410000D01*
X220871278Y-103410000D01*
X220579549Y-103468029D01*
X220304747Y-103581856D01*
X220057431Y-103747107D01*
X219847107Y-103957431D01*
X219681856Y-104204747D01*
X219568029Y-104479549D01*
X219510000Y-104771278D01*
X215662321Y-104771278D01*
X215649577Y-104697260D01*
X215569387Y-104488560D01*
X215541588Y-104436550D01*
X215398947Y-104413083D01*
X215445819Y-104366211D01*
X215404608Y-104325000D01*
X215445819Y-104283789D01*
X215398947Y-104236917D01*
X215541588Y-104213450D01*
X215632458Y-104009174D01*
X215681731Y-103791095D01*
X215687511Y-103567594D01*
X215649577Y-103347260D01*
X215569387Y-103138560D01*
X215541588Y-103086550D01*
X215393023Y-103062109D01*
X215395132Y-103060000D01*
X224242174Y-103060000D01*
X224058000Y-103244174D01*
X223770299Y-103674749D01*
X223572127Y-104153178D01*
X223471100Y-104661076D01*
X223471100Y-105178924D01*
X223572127Y-105686822D01*
X223770299Y-106165251D01*
X224058000Y-106595826D01*
X224424174Y-106962000D01*
X224854749Y-107249701D01*
X225333178Y-107447873D01*
X225841076Y-107548900D01*
X226358924Y-107548900D01*
X226866822Y-107447873D01*
X227345251Y-107249701D01*
X227775826Y-106962000D01*
X228142000Y-106595826D01*
X228429701Y-106165251D01*
X228627873Y-105686822D01*
X228728900Y-105178924D01*
X228728900Y-104661076D01*
X228627873Y-104153178D01*
X228429701Y-103674749D01*
X228142000Y-103244174D01*
X227957826Y-103060000D01*
X228286655Y-103060000D01*
X228350308Y-103213673D01*
X228542919Y-103501935D01*
X228788065Y-103747081D01*
X229076327Y-103939692D01*
X229396627Y-104072364D01*
X229736655Y-104140000D01*
X229885118Y-104140000D01*
X229841856Y-104204747D01*
X229728029Y-104479549D01*
X229670000Y-104771278D01*
X229670000Y-105068722D01*
X229728029Y-105360451D01*
X229841856Y-105635253D01*
X230007107Y-105882569D01*
X230217431Y-106092893D01*
X230464747Y-106258144D01*
X230739549Y-106371971D01*
X231031278Y-106430000D01*
X231328722Y-106430000D01*
X231620451Y-106371971D01*
X231895253Y-106258144D01*
X232142569Y-106092893D01*
X232352893Y-105882569D01*
X232518144Y-105635253D01*
X232631971Y-105360451D01*
X232690000Y-105068722D01*
X232690000Y-104771278D01*
X238560000Y-104771278D01*
X238560000Y-105068722D01*
X238618029Y-105360451D01*
X238731856Y-105635253D01*
X238897107Y-105882569D01*
X239107431Y-106092893D01*
X239354747Y-106258144D01*
X239629549Y-106371971D01*
X239921278Y-106430000D01*
X240218722Y-106430000D01*
X240510451Y-106371971D01*
X240785253Y-106258144D01*
X241032569Y-106092893D01*
X241242893Y-105882569D01*
X241408144Y-105635253D01*
X241521971Y-105360451D01*
X241580000Y-105068722D01*
X241580000Y-104771278D01*
X241521971Y-104479549D01*
X241408144Y-104204747D01*
X241242893Y-103957431D01*
X241032569Y-103747107D01*
X240785253Y-103581856D01*
X240510451Y-103468029D01*
X240218722Y-103410000D01*
X239921278Y-103410000D01*
X239629549Y-103468029D01*
X239354747Y-103581856D01*
X239107431Y-103747107D01*
X238897107Y-103957431D01*
X238731856Y-104204747D01*
X238618029Y-104479549D01*
X238560000Y-104771278D01*
X232690000Y-104771278D01*
X232631971Y-104479549D01*
X232518144Y-104204747D01*
X232352893Y-103957431D01*
X232142569Y-103747107D01*
X231895253Y-103581856D01*
X231620451Y-103468029D01*
X231337362Y-103411719D01*
X231469692Y-103213673D01*
X231602364Y-102893373D01*
X231670000Y-102553345D01*
X231670000Y-102544802D01*
X232016201Y-102891003D01*
G37*
X232016201Y-102891003D02*
X232039999Y-102920001D01*
X232068997Y-102943799D01*
X232155723Y-103014974D01*
X232250336Y-103065546D01*
X232287753Y-103085546D01*
X232431014Y-103129003D01*
X232542667Y-103140000D01*
X232542676Y-103140000D01*
X232579999Y-103143676D01*
X232617322Y-103140000D01*
X243212174Y-103140000D01*
X243108000Y-103244174D01*
X242820299Y-103674749D01*
X242622127Y-104153178D01*
X242521100Y-104661076D01*
X242521100Y-105178924D01*
X242622127Y-105686822D01*
X242820299Y-106165251D01*
X243108000Y-106595826D01*
X243474174Y-106962000D01*
X243904749Y-107249701D01*
X244383178Y-107447873D01*
X244891076Y-107548900D01*
X245408924Y-107548900D01*
X245916822Y-107447873D01*
X246395251Y-107249701D01*
X246825826Y-106962000D01*
X247192000Y-106595826D01*
X247479701Y-106165251D01*
X247677873Y-105686822D01*
X247778900Y-105178924D01*
X247778900Y-104661076D01*
X247677873Y-104153178D01*
X247479701Y-103674749D01*
X247192000Y-103244174D01*
X247087826Y-103140000D01*
X247369792Y-103140000D01*
X247400308Y-103213673D01*
X247592919Y-103501935D01*
X247838065Y-103747081D01*
X248126327Y-103939692D01*
X248446627Y-104072364D01*
X248786655Y-104140000D01*
X248935118Y-104140000D01*
X248891856Y-104204747D01*
X248778029Y-104479549D01*
X248720000Y-104771278D01*
X248720000Y-105068722D01*
X248778029Y-105360451D01*
X248891856Y-105635253D01*
X249057107Y-105882569D01*
X249267431Y-106092893D01*
X249514747Y-106258144D01*
X249789549Y-106371971D01*
X250081278Y-106430000D01*
X250378722Y-106430000D01*
X250670451Y-106371971D01*
X250945253Y-106258144D01*
X251192569Y-106092893D01*
X251402893Y-105882569D01*
X251540000Y-105677373D01*
X251540001Y-113340000D01*
X215685638Y-113340000D01*
X215687511Y-113267594D01*
X215649577Y-113047260D01*
X215569387Y-112838560D01*
X215541588Y-112786550D01*
X215328166Y-112751439D01*
X214739605Y-113340000D01*
X214360395Y-113340000D01*
X213771834Y-112751439D01*
X213558412Y-112786550D01*
X213467542Y-112990826D01*
X213418269Y-113208905D01*
X213414879Y-113340000D01*
X177735638Y-113340000D01*
X177737511Y-113267594D01*
X177699577Y-113047260D01*
X177619387Y-112838560D01*
X177591588Y-112786550D01*
X177378166Y-112751439D01*
X176789605Y-113340000D01*
X176410395Y-113340000D01*
X175821834Y-112751439D01*
X175608412Y-112786550D01*
X175517542Y-112990826D01*
X175468269Y-113208905D01*
X175464879Y-113340000D01*
X135698799Y-113340000D01*
X136466965Y-112571834D01*
X176001439Y-112571834D01*
X176079605Y-112650000D01*
X176001439Y-112728166D01*
X176036550Y-112941588D01*
X176240826Y-113032458D01*
X176458905Y-113081731D01*
X176512728Y-113083123D01*
X176600000Y-113170395D01*
X176682983Y-113087412D01*
X176902740Y-113049577D01*
X177111440Y-112969387D01*
X177163450Y-112941588D01*
X177198561Y-112728166D01*
X177120395Y-112650000D01*
X177198561Y-112571834D01*
X213951439Y-112571834D01*
X214029605Y-112650000D01*
X213951439Y-112728166D01*
X213986550Y-112941588D01*
X214190826Y-113032458D01*
X214408905Y-113081731D01*
X214462728Y-113083123D01*
X214550000Y-113170395D01*
X214632983Y-113087412D01*
X214852740Y-113049577D01*
X215061440Y-112969387D01*
X215113450Y-112941588D01*
X215148561Y-112728166D01*
X215070395Y-112650000D01*
X215148561Y-112571834D01*
X215113450Y-112358412D01*
X214909174Y-112267542D01*
X214691095Y-112218269D01*
X214637272Y-112216877D01*
X214550000Y-112129605D01*
X214467017Y-112212588D01*
X214247260Y-112250423D01*
X214038560Y-112330613D01*
X213986550Y-112358412D01*
X213951439Y-112571834D01*
X177198561Y-112571834D01*
X177163450Y-112358412D01*
X176959174Y-112267542D01*
X176741095Y-112218269D01*
X176687272Y-112216877D01*
X176600000Y-112129605D01*
X176517017Y-112212588D01*
X176297260Y-112250423D01*
X176088560Y-112330613D01*
X176036550Y-112358412D01*
X176001439Y-112571834D01*
X136466965Y-112571834D01*
X137006393Y-112032406D01*
X175462489Y-112032406D01*
X175500423Y-112252740D01*
X175580613Y-112461440D01*
X175608412Y-112513450D01*
X175821834Y-112548561D01*
X176420395Y-111950000D01*
X176779605Y-111950000D01*
X177378166Y-112548561D01*
X177591588Y-112513450D01*
X177682458Y-112309174D01*
X177731731Y-112091095D01*
X177737511Y-111867594D01*
X177699577Y-111647260D01*
X177619387Y-111438560D01*
X177591588Y-111386550D01*
X177378166Y-111351439D01*
X176779605Y-111950000D01*
X176420395Y-111950000D01*
X175821834Y-111351439D01*
X175608412Y-111386550D01*
X175517542Y-111590826D01*
X175468269Y-111808905D01*
X175462489Y-112032406D01*
X137006393Y-112032406D01*
X140788799Y-108250000D01*
X147636807Y-108250000D01*
X147640000Y-108282420D01*
X147640001Y-111017571D01*
X147636807Y-111050000D01*
X147649550Y-111179383D01*
X147687290Y-111303793D01*
X147748575Y-111418450D01*
X147831052Y-111518948D01*
X147931550Y-111601425D01*
X148046207Y-111662710D01*
X148170617Y-111700450D01*
X148267581Y-111710000D01*
X148300000Y-111713193D01*
X148332419Y-111710000D01*
X151467581Y-111710000D01*
X151500000Y-111713193D01*
X151532419Y-111710000D01*
X151629383Y-111700450D01*
X151753793Y-111662710D01*
X151868450Y-111601425D01*
X151968948Y-111518948D01*
X152051425Y-111418450D01*
X152112710Y-111303793D01*
X152150450Y-111179383D01*
X152163193Y-111050000D01*
X152160000Y-111017581D01*
X152160000Y-109798061D01*
X163215000Y-109798061D01*
X163215000Y-110001939D01*
X163254774Y-110201898D01*
X163332795Y-110390256D01*
X163446063Y-110559774D01*
X163590226Y-110703937D01*
X163759744Y-110817205D01*
X163948102Y-110895226D01*
X164148061Y-110935000D01*
X164351939Y-110935000D01*
X164551898Y-110895226D01*
X164740256Y-110817205D01*
X164909774Y-110703937D01*
X165053937Y-110559774D01*
X165167205Y-110390256D01*
X165245226Y-110201898D01*
X165285000Y-110001939D01*
X165285000Y-109798061D01*
X165245226Y-109598102D01*
X165167205Y-109409744D01*
X165053937Y-109240226D01*
X164909774Y-109096063D01*
X164740256Y-108982795D01*
X164551898Y-108904774D01*
X164351939Y-108865000D01*
X164148061Y-108865000D01*
X163948102Y-108904774D01*
X163759744Y-108982795D01*
X163590226Y-109096063D01*
X163446063Y-109240226D01*
X163332795Y-109409744D01*
X163254774Y-109598102D01*
X163215000Y-109798061D01*
X152160000Y-109798061D01*
X152160000Y-108282419D01*
X152163193Y-108250000D01*
X166686807Y-108250000D01*
X166690000Y-108282420D01*
X166690001Y-111017571D01*
X166686807Y-111050000D01*
X166699550Y-111179383D01*
X166737290Y-111303793D01*
X166798575Y-111418450D01*
X166881052Y-111518948D01*
X166981550Y-111601425D01*
X167096207Y-111662710D01*
X167220617Y-111700450D01*
X167317581Y-111710000D01*
X167350000Y-111713193D01*
X167382419Y-111710000D01*
X170517581Y-111710000D01*
X170550000Y-111713193D01*
X170582419Y-111710000D01*
X170679383Y-111700450D01*
X170803793Y-111662710D01*
X170918450Y-111601425D01*
X171018948Y-111518948D01*
X171101425Y-111418450D01*
X171162710Y-111303793D01*
X171200450Y-111179383D01*
X171201193Y-111171834D01*
X176001439Y-111171834D01*
X176079605Y-111250000D01*
X176001439Y-111328166D01*
X176036550Y-111541588D01*
X176240826Y-111632458D01*
X176458905Y-111681731D01*
X176512728Y-111683123D01*
X176600000Y-111770395D01*
X176682983Y-111687412D01*
X176902740Y-111649577D01*
X177111440Y-111569387D01*
X177163450Y-111541588D01*
X177198561Y-111328166D01*
X177120395Y-111250000D01*
X177198561Y-111171834D01*
X177163450Y-110958412D01*
X176959174Y-110867542D01*
X176741095Y-110818269D01*
X176687272Y-110816877D01*
X176600000Y-110729605D01*
X176517017Y-110812588D01*
X176297260Y-110850423D01*
X176088560Y-110930613D01*
X176036550Y-110958412D01*
X176001439Y-111171834D01*
X171201193Y-111171834D01*
X171213193Y-111050000D01*
X171210000Y-111017581D01*
X171210000Y-108282419D01*
X171213193Y-108250000D01*
X171200450Y-108120617D01*
X171162710Y-107996207D01*
X171101425Y-107881550D01*
X171018948Y-107781052D01*
X170918450Y-107698575D01*
X170803793Y-107637290D01*
X170679383Y-107599550D01*
X170582419Y-107590000D01*
X170550000Y-107586807D01*
X170517581Y-107590000D01*
X167382419Y-107590000D01*
X167350000Y-107586807D01*
X167317581Y-107590000D01*
X167220617Y-107599550D01*
X167096207Y-107637290D01*
X166981550Y-107698575D01*
X166881052Y-107781052D01*
X166798575Y-107881550D01*
X166737290Y-107996207D01*
X166699550Y-108120617D01*
X166686807Y-108250000D01*
X152163193Y-108250000D01*
X152150450Y-108120617D01*
X152112710Y-107996207D01*
X152051425Y-107881550D01*
X151968948Y-107781052D01*
X151868450Y-107698575D01*
X151753793Y-107637290D01*
X151629383Y-107599550D01*
X151532419Y-107590000D01*
X151500000Y-107586807D01*
X151467581Y-107590000D01*
X148332419Y-107590000D01*
X148300000Y-107586807D01*
X148267581Y-107590000D01*
X148170617Y-107599550D01*
X148046207Y-107637290D01*
X147931550Y-107698575D01*
X147831052Y-107781052D01*
X147748575Y-107881550D01*
X147687290Y-107996207D01*
X147649550Y-108120617D01*
X147636807Y-108250000D01*
X140788799Y-108250000D01*
X143458920Y-105579880D01*
X143481856Y-105635253D01*
X143647107Y-105882569D01*
X143857431Y-106092893D01*
X144104747Y-106258144D01*
X144379549Y-106371971D01*
X144671278Y-106430000D01*
X144968722Y-106430000D01*
X145260451Y-106371971D01*
X145535253Y-106258144D01*
X145782569Y-106092893D01*
X145992893Y-105882569D01*
X146158144Y-105635253D01*
X146271971Y-105360451D01*
X146330000Y-105068722D01*
X146330000Y-104771278D01*
X146271971Y-104479549D01*
X146158144Y-104204747D01*
X145992893Y-103957431D01*
X145782569Y-103747107D01*
X145535253Y-103581856D01*
X145479880Y-103558920D01*
X145677701Y-103361099D01*
X147779873Y-103361099D01*
X147570299Y-103674749D01*
X147372127Y-104153178D01*
X147271100Y-104661076D01*
X147271100Y-105178924D01*
X147372127Y-105686822D01*
X147570299Y-106165251D01*
X147858000Y-106595826D01*
X148224174Y-106962000D01*
X148654749Y-107249701D01*
X149133178Y-107447873D01*
X149641076Y-107548900D01*
X150158924Y-107548900D01*
X150666822Y-107447873D01*
X151145251Y-107249701D01*
X151575826Y-106962000D01*
X151942000Y-106595826D01*
X152229701Y-106165251D01*
X152427873Y-105686822D01*
X152528900Y-105178924D01*
X152528900Y-104661076D01*
X152427873Y-104153178D01*
X152229701Y-103674749D01*
X151942000Y-103244174D01*
X151761314Y-103063488D01*
X152003333Y-102821468D01*
X152017636Y-102893373D01*
X152150308Y-103213673D01*
X152342919Y-103501935D01*
X152588065Y-103747081D01*
X152876327Y-103939692D01*
X153196627Y-104072364D01*
X153536655Y-104140000D01*
X153685118Y-104140000D01*
X153641856Y-104204747D01*
X153528029Y-104479549D01*
X153470000Y-104771278D01*
X153470000Y-105068722D01*
X153528029Y-105360451D01*
X153641856Y-105635253D01*
X153807107Y-105882569D01*
X154017431Y-106092893D01*
X154264747Y-106258144D01*
X154539549Y-106371971D01*
X154831278Y-106430000D01*
X155128722Y-106430000D01*
X155420451Y-106371971D01*
X155695253Y-106258144D01*
X155942569Y-106092893D01*
X156152893Y-105882569D01*
X156318144Y-105635253D01*
X156431971Y-105360451D01*
X156490000Y-105068722D01*
X156490000Y-104771278D01*
X162360000Y-104771278D01*
X162360000Y-105068722D01*
X162418029Y-105360451D01*
X162531856Y-105635253D01*
X162697107Y-105882569D01*
X162907431Y-106092893D01*
X163154747Y-106258144D01*
X163429549Y-106371971D01*
X163721278Y-106430000D01*
X164018722Y-106430000D01*
X164310451Y-106371971D01*
X164585253Y-106258144D01*
X164832569Y-106092893D01*
X165042893Y-105882569D01*
X165208144Y-105635253D01*
X165321971Y-105360451D01*
X165380000Y-105068722D01*
X165380000Y-104771278D01*
X165321971Y-104479549D01*
X165208144Y-104204747D01*
X165042893Y-103957431D01*
X164832569Y-103747107D01*
X164585253Y-103581856D01*
X164310451Y-103468029D01*
X164018722Y-103410000D01*
X163721278Y-103410000D01*
X163429549Y-103468029D01*
X163154747Y-103581856D01*
X162907431Y-103747107D01*
X162697107Y-103957431D01*
X162531856Y-104204747D01*
X162418029Y-104479549D01*
X162360000Y-104771278D01*
X156490000Y-104771278D01*
X156431971Y-104479549D01*
X156318144Y-104204747D01*
X156152893Y-103957431D01*
X155942569Y-103747107D01*
X155695253Y-103581856D01*
X155420451Y-103468029D01*
X155137362Y-103411719D01*
X155269692Y-103213673D01*
X155370276Y-102970840D01*
X155386001Y-102990001D01*
X155414999Y-103013799D01*
X155501725Y-103084974D01*
X155601977Y-103138560D01*
X155633755Y-103155546D01*
X155777016Y-103199003D01*
X155888669Y-103210000D01*
X155888678Y-103210000D01*
X155926001Y-103213676D01*
X155963324Y-103210000D01*
X166942174Y-103210000D01*
X166908000Y-103244174D01*
X166620299Y-103674749D01*
X166422127Y-104153178D01*
X166321100Y-104661076D01*
X166321100Y-105178924D01*
X166422127Y-105686822D01*
X166620299Y-106165251D01*
X166908000Y-106595826D01*
X167274174Y-106962000D01*
X167704749Y-107249701D01*
X168183178Y-107447873D01*
X168691076Y-107548900D01*
X169208924Y-107548900D01*
X169716822Y-107447873D01*
X170195251Y-107249701D01*
X170625826Y-106962000D01*
X170992000Y-106595826D01*
X171279701Y-106165251D01*
X171477873Y-105686822D01*
X171578900Y-105178924D01*
X171578900Y-104661076D01*
X171477873Y-104153178D01*
X171279701Y-103674749D01*
X170992000Y-103244174D01*
X170882080Y-103134254D01*
X170974276Y-103084974D01*
X171090001Y-102990001D01*
X171101737Y-102975701D01*
X171200308Y-103213673D01*
X171392919Y-103501935D01*
X171638065Y-103747081D01*
X171926327Y-103939692D01*
X172246627Y-104072364D01*
X172586655Y-104140000D01*
X172735118Y-104140000D01*
X172691856Y-104204747D01*
X172578029Y-104479549D01*
X172520000Y-104771278D01*
X172520000Y-105068722D01*
X172578029Y-105360451D01*
X172691856Y-105635253D01*
X172857107Y-105882569D01*
X173067431Y-106092893D01*
X173314747Y-106258144D01*
X173589549Y-106371971D01*
X173881278Y-106430000D01*
X174178722Y-106430000D01*
X174470451Y-106371971D01*
X174745253Y-106258144D01*
X174992569Y-106092893D01*
X175202893Y-105882569D01*
X175368144Y-105635253D01*
X175481971Y-105360451D01*
X175498217Y-105278780D01*
X175508617Y-105331067D01*
X175594176Y-105537624D01*
X175685968Y-105675000D01*
X175594176Y-105812376D01*
X175508617Y-106018933D01*
X175465000Y-106238212D01*
X175465000Y-106461788D01*
X175508617Y-106681067D01*
X175594176Y-106887624D01*
X175702672Y-107050000D01*
X175594176Y-107212376D01*
X175508617Y-107418933D01*
X175465000Y-107638212D01*
X175465000Y-107861788D01*
X175508617Y-108081067D01*
X175594176Y-108287624D01*
X175702672Y-108450000D01*
X175594176Y-108612376D01*
X175508617Y-108818933D01*
X175465000Y-109038212D01*
X175465000Y-109261788D01*
X175508617Y-109481067D01*
X175594176Y-109687624D01*
X175718388Y-109873520D01*
X175799913Y-109955045D01*
X175608412Y-109986550D01*
X175517542Y-110190826D01*
X175468269Y-110408905D01*
X175462489Y-110632406D01*
X175500423Y-110852740D01*
X175580613Y-111061440D01*
X175608412Y-111113450D01*
X175821834Y-111148561D01*
X176420395Y-110550000D01*
X176406253Y-110535858D01*
X176585858Y-110356253D01*
X176600000Y-110370395D01*
X176614143Y-110356253D01*
X176793748Y-110535858D01*
X176779605Y-110550000D01*
X177378166Y-111148561D01*
X177591588Y-111113450D01*
X177682458Y-110909174D01*
X177731731Y-110691095D01*
X177737511Y-110467594D01*
X177699577Y-110247260D01*
X177619387Y-110038560D01*
X177591588Y-109986550D01*
X177400087Y-109955045D01*
X177481612Y-109873520D01*
X177605824Y-109687624D01*
X177691383Y-109481067D01*
X177735000Y-109261788D01*
X177735000Y-109038212D01*
X177691383Y-108818933D01*
X177605824Y-108612376D01*
X177497328Y-108450000D01*
X177605824Y-108287624D01*
X177621408Y-108250000D01*
X185736807Y-108250000D01*
X185740000Y-108282420D01*
X185740001Y-111017571D01*
X185736807Y-111050000D01*
X185749550Y-111179383D01*
X185787290Y-111303793D01*
X185848575Y-111418450D01*
X185931052Y-111518948D01*
X186031550Y-111601425D01*
X186146207Y-111662710D01*
X186270617Y-111700450D01*
X186367581Y-111710000D01*
X186400000Y-111713193D01*
X186432419Y-111710000D01*
X189567581Y-111710000D01*
X189600000Y-111713193D01*
X189632419Y-111710000D01*
X189729383Y-111700450D01*
X189853793Y-111662710D01*
X189968450Y-111601425D01*
X190068948Y-111518948D01*
X190151425Y-111418450D01*
X190212710Y-111303793D01*
X190250450Y-111179383D01*
X190263193Y-111050000D01*
X190260000Y-111017581D01*
X190260000Y-108282419D01*
X190263193Y-108250000D01*
X204786807Y-108250000D01*
X204790000Y-108282420D01*
X204790001Y-111017571D01*
X204786807Y-111050000D01*
X204799550Y-111179383D01*
X204837290Y-111303793D01*
X204898575Y-111418450D01*
X204981052Y-111518948D01*
X205081550Y-111601425D01*
X205196207Y-111662710D01*
X205320617Y-111700450D01*
X205417581Y-111710000D01*
X205450000Y-111713193D01*
X205482419Y-111710000D01*
X208617581Y-111710000D01*
X208650000Y-111713193D01*
X208682419Y-111710000D01*
X208779383Y-111700450D01*
X208903793Y-111662710D01*
X209018450Y-111601425D01*
X209118948Y-111518948D01*
X209201425Y-111418450D01*
X209262710Y-111303793D01*
X209300450Y-111179383D01*
X209313193Y-111050000D01*
X209310000Y-111017581D01*
X209310000Y-108282419D01*
X209313193Y-108250000D01*
X209300450Y-108120617D01*
X209262710Y-107996207D01*
X209201425Y-107881550D01*
X209118948Y-107781052D01*
X209018450Y-107698575D01*
X208903793Y-107637290D01*
X208779383Y-107599550D01*
X208682419Y-107590000D01*
X208650000Y-107586807D01*
X208617581Y-107590000D01*
X205482419Y-107590000D01*
X205450000Y-107586807D01*
X205417581Y-107590000D01*
X205320617Y-107599550D01*
X205196207Y-107637290D01*
X205081550Y-107698575D01*
X204981052Y-107781052D01*
X204898575Y-107881550D01*
X204837290Y-107996207D01*
X204799550Y-108120617D01*
X204786807Y-108250000D01*
X190263193Y-108250000D01*
X190250450Y-108120617D01*
X190212710Y-107996207D01*
X190151425Y-107881550D01*
X190068948Y-107781052D01*
X189968450Y-107698575D01*
X189853793Y-107637290D01*
X189729383Y-107599550D01*
X189632419Y-107590000D01*
X189600000Y-107586807D01*
X189567581Y-107590000D01*
X186432419Y-107590000D01*
X186400000Y-107586807D01*
X186367581Y-107590000D01*
X186270617Y-107599550D01*
X186146207Y-107637290D01*
X186031550Y-107698575D01*
X185931052Y-107781052D01*
X185848575Y-107881550D01*
X185787290Y-107996207D01*
X185749550Y-108120617D01*
X185736807Y-108250000D01*
X177621408Y-108250000D01*
X177691383Y-108081067D01*
X177735000Y-107861788D01*
X177735000Y-107638212D01*
X177691383Y-107418933D01*
X177605824Y-107212376D01*
X177497328Y-107050000D01*
X177605824Y-106887624D01*
X177691383Y-106681067D01*
X177735000Y-106461788D01*
X177735000Y-106238212D01*
X177691383Y-106018933D01*
X177605824Y-105812376D01*
X177570827Y-105760000D01*
X180612678Y-105760000D01*
X180650000Y-105763676D01*
X180687322Y-105760000D01*
X180687333Y-105760000D01*
X180798986Y-105749003D01*
X180942247Y-105705546D01*
X181074276Y-105634974D01*
X181190001Y-105540001D01*
X181213804Y-105510997D01*
X181450827Y-105273974D01*
X181468029Y-105360451D01*
X181581856Y-105635253D01*
X181747107Y-105882569D01*
X181957431Y-106092893D01*
X182204747Y-106258144D01*
X182479549Y-106371971D01*
X182771278Y-106430000D01*
X183068722Y-106430000D01*
X183360451Y-106371971D01*
X183635253Y-106258144D01*
X183882569Y-106092893D01*
X184092893Y-105882569D01*
X184258144Y-105635253D01*
X184371971Y-105360451D01*
X184430000Y-105068722D01*
X184430000Y-104771278D01*
X184371971Y-104479549D01*
X184258144Y-104204747D01*
X184097250Y-103963951D01*
X184951202Y-103110000D01*
X186092174Y-103110000D01*
X185958000Y-103244174D01*
X185670299Y-103674749D01*
X185472127Y-104153178D01*
X185371100Y-104661076D01*
X185371100Y-105178924D01*
X185472127Y-105686822D01*
X185670299Y-106165251D01*
X185958000Y-106595826D01*
X186324174Y-106962000D01*
X186754749Y-107249701D01*
X187233178Y-107447873D01*
X187741076Y-107548900D01*
X188258924Y-107548900D01*
X188766822Y-107447873D01*
X189245251Y-107249701D01*
X189675826Y-106962000D01*
X190042000Y-106595826D01*
X190329701Y-106165251D01*
X190527873Y-105686822D01*
X190628900Y-105178924D01*
X190628900Y-104661076D01*
X190527873Y-104153178D01*
X190329701Y-103674749D01*
X190042000Y-103244174D01*
X189711345Y-102913519D01*
X189740001Y-102890001D01*
X189763804Y-102860997D01*
X190020803Y-102603998D01*
X190060076Y-102603998D01*
X190117636Y-102893373D01*
X190250308Y-103213673D01*
X190442919Y-103501935D01*
X190688065Y-103747081D01*
X190976327Y-103939692D01*
X191296627Y-104072364D01*
X191636655Y-104140000D01*
X191785118Y-104140000D01*
X191741856Y-104204747D01*
X191628029Y-104479549D01*
X191570000Y-104771278D01*
X191570000Y-105068722D01*
X191628029Y-105360451D01*
X191741856Y-105635253D01*
X191907107Y-105882569D01*
X192117431Y-106092893D01*
X192364747Y-106258144D01*
X192639549Y-106371971D01*
X192931278Y-106430000D01*
X193228722Y-106430000D01*
X193520451Y-106371971D01*
X193795253Y-106258144D01*
X194042569Y-106092893D01*
X194252893Y-105882569D01*
X194418144Y-105635253D01*
X194531971Y-105360451D01*
X194590000Y-105068722D01*
X194590000Y-104771278D01*
X200460000Y-104771278D01*
X200460000Y-105068722D01*
X200518029Y-105360451D01*
X200631856Y-105635253D01*
X200797107Y-105882569D01*
X201007431Y-106092893D01*
X201254747Y-106258144D01*
X201529549Y-106371971D01*
X201821278Y-106430000D01*
X202118722Y-106430000D01*
X202410451Y-106371971D01*
X202685253Y-106258144D01*
X202932569Y-106092893D01*
X203142893Y-105882569D01*
X203308144Y-105635253D01*
X203421971Y-105360451D01*
X203480000Y-105068722D01*
X203480000Y-104771278D01*
X203421971Y-104479549D01*
X203308144Y-104204747D01*
X203142893Y-103957431D01*
X202932569Y-103747107D01*
X202685253Y-103581856D01*
X202410451Y-103468029D01*
X202118722Y-103410000D01*
X201821278Y-103410000D01*
X201529549Y-103468029D01*
X201254747Y-103581856D01*
X201007431Y-103747107D01*
X200797107Y-103957431D01*
X200631856Y-104204747D01*
X200518029Y-104479549D01*
X200460000Y-104771278D01*
X194590000Y-104771278D01*
X194531971Y-104479549D01*
X194418144Y-104204747D01*
X194252893Y-103957431D01*
X194042569Y-103747107D01*
X193795253Y-103581856D01*
X193520451Y-103468029D01*
X193237362Y-103411719D01*
X193369692Y-103213673D01*
X193472223Y-102966141D01*
X193531725Y-103014974D01*
X193626338Y-103065546D01*
X193663755Y-103085546D01*
X193807016Y-103129003D01*
X193918669Y-103140000D01*
X193918678Y-103140000D01*
X193956001Y-103143676D01*
X193993324Y-103140000D01*
X205112174Y-103140000D01*
X205008000Y-103244174D01*
X204720299Y-103674749D01*
X204522127Y-104153178D01*
X204421100Y-104661076D01*
X204421100Y-105178924D01*
X204522127Y-105686822D01*
X204720299Y-106165251D01*
X205008000Y-106595826D01*
X205374174Y-106962000D01*
X205804749Y-107249701D01*
X206283178Y-107447873D01*
X206791076Y-107548900D01*
X207308924Y-107548900D01*
X207816822Y-107447873D01*
X208295251Y-107249701D01*
X208725826Y-106962000D01*
X209092000Y-106595826D01*
X209379701Y-106165251D01*
X209577873Y-105686822D01*
X209678900Y-105178924D01*
X209678900Y-104661076D01*
X209577873Y-104153178D01*
X209379701Y-103674749D01*
X209092000Y-103244174D01*
X208987826Y-103140000D01*
X209269792Y-103140000D01*
X209300308Y-103213673D01*
X209492919Y-103501935D01*
X209738065Y-103747081D01*
X210026327Y-103939692D01*
X210346627Y-104072364D01*
X210686655Y-104140000D01*
X210835118Y-104140000D01*
X210791856Y-104204747D01*
X210678029Y-104479549D01*
X210620000Y-104771278D01*
X210620000Y-105068722D01*
X210678029Y-105360451D01*
X210791856Y-105635253D01*
X210957107Y-105882569D01*
X211167431Y-106092893D01*
X211414747Y-106258144D01*
X211689549Y-106371971D01*
X211981278Y-106430000D01*
X212278722Y-106430000D01*
X212570451Y-106371971D01*
X212845253Y-106258144D01*
X213092569Y-106092893D01*
X213302893Y-105882569D01*
X213468144Y-105635253D01*
X213525231Y-105497433D01*
X213530613Y-105511440D01*
X213558412Y-105563450D01*
X213701053Y-105586917D01*
X213654181Y-105633789D01*
X213695392Y-105675000D01*
X213654181Y-105716211D01*
X213701053Y-105763083D01*
X213558412Y-105786550D01*
X213467542Y-105990826D01*
X213418269Y-106208905D01*
X213412489Y-106432406D01*
X213450423Y-106652740D01*
X213530613Y-106861440D01*
X213558412Y-106913450D01*
X213749913Y-106944955D01*
X213668388Y-107026480D01*
X213544176Y-107212376D01*
X213458617Y-107418933D01*
X213415000Y-107638212D01*
X213415000Y-107861788D01*
X213458617Y-108081067D01*
X213544176Y-108287624D01*
X213668388Y-108473520D01*
X213749913Y-108555045D01*
X213558412Y-108586550D01*
X213467542Y-108790826D01*
X213418269Y-109008905D01*
X213412489Y-109232406D01*
X213450423Y-109452740D01*
X213530613Y-109661440D01*
X213558412Y-109713450D01*
X213749913Y-109744955D01*
X213668388Y-109826480D01*
X213544176Y-110012376D01*
X213458617Y-110218933D01*
X213415000Y-110438212D01*
X213415000Y-110661788D01*
X213458617Y-110881067D01*
X213544176Y-111087624D01*
X213668388Y-111273520D01*
X213749913Y-111355045D01*
X213558412Y-111386550D01*
X213467542Y-111590826D01*
X213418269Y-111808905D01*
X213412489Y-112032406D01*
X213450423Y-112252740D01*
X213530613Y-112461440D01*
X213558412Y-112513450D01*
X213771834Y-112548561D01*
X214370395Y-111950000D01*
X214356253Y-111935858D01*
X214535858Y-111756253D01*
X214550000Y-111770395D01*
X214564143Y-111756253D01*
X214743748Y-111935858D01*
X214729605Y-111950000D01*
X215328166Y-112548561D01*
X215541588Y-112513450D01*
X215632458Y-112309174D01*
X215681731Y-112091095D01*
X215687511Y-111867594D01*
X215649577Y-111647260D01*
X215569387Y-111438560D01*
X215541588Y-111386550D01*
X215350087Y-111355045D01*
X215431612Y-111273520D01*
X215555824Y-111087624D01*
X215641383Y-110881067D01*
X215685000Y-110661788D01*
X215685000Y-110438212D01*
X215641383Y-110218933D01*
X215555824Y-110012376D01*
X215431612Y-109826480D01*
X215350087Y-109744955D01*
X215541588Y-109713450D01*
X215632458Y-109509174D01*
X215681731Y-109291095D01*
X215687511Y-109067594D01*
X215649577Y-108847260D01*
X215569387Y-108638560D01*
X215541588Y-108586550D01*
X215350087Y-108555045D01*
X215431612Y-108473520D01*
X215555824Y-108287624D01*
X215571408Y-108250000D01*
X223836807Y-108250000D01*
X223840000Y-108282420D01*
X223840001Y-111017571D01*
X223836807Y-111050000D01*
X223849550Y-111179383D01*
X223887290Y-111303793D01*
X223948575Y-111418450D01*
X224031052Y-111518948D01*
X224131550Y-111601425D01*
X224246207Y-111662710D01*
X224370617Y-111700450D01*
X224467581Y-111710000D01*
X224500000Y-111713193D01*
X224532419Y-111710000D01*
X227667581Y-111710000D01*
X227700000Y-111713193D01*
X227732419Y-111710000D01*
X227829383Y-111700450D01*
X227953793Y-111662710D01*
X228068450Y-111601425D01*
X228168948Y-111518948D01*
X228251425Y-111418450D01*
X228312710Y-111303793D01*
X228350450Y-111179383D01*
X228363193Y-111050000D01*
X228360000Y-111017581D01*
X228360000Y-108282419D01*
X228363193Y-108250000D01*
X242886807Y-108250000D01*
X242890001Y-108282429D01*
X242890000Y-111012411D01*
X242886888Y-111039639D01*
X242890000Y-111077248D01*
X242890000Y-111082418D01*
X242892676Y-111109587D01*
X242897609Y-111169205D01*
X242899040Y-111174201D01*
X242899550Y-111179382D01*
X242916931Y-111236680D01*
X242933400Y-111294189D01*
X242935780Y-111298814D01*
X242937290Y-111303792D01*
X242965495Y-111356560D01*
X242992886Y-111409790D01*
X242996124Y-111413864D01*
X242998575Y-111418449D01*
X243036539Y-111464709D01*
X243073783Y-111511564D01*
X243077751Y-111514925D01*
X243081052Y-111518948D01*
X243127347Y-111556942D01*
X243172981Y-111595601D01*
X243177525Y-111598122D01*
X243181550Y-111601425D01*
X243234366Y-111629655D01*
X243286666Y-111658670D01*
X243291618Y-111660257D01*
X243296207Y-111662710D01*
X243353495Y-111680088D01*
X243410471Y-111698349D01*
X243415637Y-111698939D01*
X243420617Y-111700450D01*
X243480230Y-111706321D01*
X243507274Y-111709412D01*
X243512428Y-111709493D01*
X243550000Y-111713193D01*
X243577283Y-111710506D01*
X246712429Y-111759493D01*
X246750000Y-111763193D01*
X246809621Y-111757321D01*
X246869205Y-111752391D01*
X246874201Y-111750960D01*
X246879383Y-111750450D01*
X246936698Y-111733063D01*
X246994189Y-111716600D01*
X246998812Y-111714221D01*
X247003793Y-111712710D01*
X247056587Y-111684491D01*
X247109790Y-111657114D01*
X247113862Y-111653877D01*
X247118450Y-111651425D01*
X247164726Y-111613447D01*
X247211564Y-111576217D01*
X247214925Y-111572249D01*
X247218948Y-111568948D01*
X247256928Y-111522670D01*
X247295601Y-111477020D01*
X247298124Y-111472473D01*
X247301425Y-111468450D01*
X247329649Y-111415647D01*
X247358670Y-111363334D01*
X247360257Y-111358382D01*
X247362710Y-111353793D01*
X247380088Y-111296505D01*
X247398349Y-111239529D01*
X247398940Y-111234362D01*
X247400450Y-111229383D01*
X247406317Y-111169813D01*
X247413112Y-111110361D01*
X247410000Y-111072748D01*
X247410000Y-108282419D01*
X247413193Y-108250000D01*
X247400450Y-108120617D01*
X247362710Y-107996207D01*
X247301425Y-107881550D01*
X247218948Y-107781052D01*
X247118450Y-107698575D01*
X247003793Y-107637290D01*
X246879383Y-107599550D01*
X246782419Y-107590000D01*
X246750000Y-107586807D01*
X246717581Y-107590000D01*
X243582419Y-107590000D01*
X243550000Y-107586807D01*
X243517581Y-107590000D01*
X243420617Y-107599550D01*
X243296207Y-107637290D01*
X243181550Y-107698575D01*
X243081052Y-107781052D01*
X242998575Y-107881550D01*
X242937290Y-107996207D01*
X242899550Y-108120617D01*
X242886807Y-108250000D01*
X228363193Y-108250000D01*
X228350450Y-108120617D01*
X228312710Y-107996207D01*
X228251425Y-107881550D01*
X228168948Y-107781052D01*
X228068450Y-107698575D01*
X227953793Y-107637290D01*
X227829383Y-107599550D01*
X227732419Y-107590000D01*
X227700000Y-107586807D01*
X227667581Y-107590000D01*
X224532419Y-107590000D01*
X224500000Y-107586807D01*
X224467581Y-107590000D01*
X224370617Y-107599550D01*
X224246207Y-107637290D01*
X224131550Y-107698575D01*
X224031052Y-107781052D01*
X223948575Y-107881550D01*
X223887290Y-107996207D01*
X223849550Y-108120617D01*
X223836807Y-108250000D01*
X215571408Y-108250000D01*
X215641383Y-108081067D01*
X215685000Y-107861788D01*
X215685000Y-107638212D01*
X215641383Y-107418933D01*
X215555824Y-107212376D01*
X215431612Y-107026480D01*
X215350087Y-106944955D01*
X215541588Y-106913450D01*
X215632458Y-106709174D01*
X215681731Y-106491095D01*
X215687511Y-106267594D01*
X215649577Y-106047260D01*
X215569387Y-105838560D01*
X215541588Y-105786550D01*
X215398947Y-105763083D01*
X215445819Y-105716211D01*
X215404608Y-105675000D01*
X215445819Y-105633789D01*
X215398947Y-105586917D01*
X215541588Y-105563450D01*
X215632458Y-105359174D01*
X215681731Y-105141095D01*
X215687511Y-104917594D01*
X215662321Y-104771278D01*
X219510000Y-104771278D01*
X219510000Y-105068722D01*
X219568029Y-105360451D01*
X219681856Y-105635253D01*
X219847107Y-105882569D01*
X220057431Y-106092893D01*
X220304747Y-106258144D01*
X220579549Y-106371971D01*
X220871278Y-106430000D01*
X221168722Y-106430000D01*
X221460451Y-106371971D01*
X221735253Y-106258144D01*
X221982569Y-106092893D01*
X222192893Y-105882569D01*
X222358144Y-105635253D01*
X222471971Y-105360451D01*
X222530000Y-105068722D01*
X222530000Y-104771278D01*
X222471971Y-104479549D01*
X222358144Y-104204747D01*
X222192893Y-103957431D01*
X221982569Y-103747107D01*
X221735253Y-103581856D01*
X221460451Y-103468029D01*
X221168722Y-103410000D01*
X220871278Y-103410000D01*
X220579549Y-103468029D01*
X220304747Y-103581856D01*
X220057431Y-103747107D01*
X219847107Y-103957431D01*
X219681856Y-104204747D01*
X219568029Y-104479549D01*
X219510000Y-104771278D01*
X215662321Y-104771278D01*
X215649577Y-104697260D01*
X215569387Y-104488560D01*
X215541588Y-104436550D01*
X215398947Y-104413083D01*
X215445819Y-104366211D01*
X215404608Y-104325000D01*
X215445819Y-104283789D01*
X215398947Y-104236917D01*
X215541588Y-104213450D01*
X215632458Y-104009174D01*
X215681731Y-103791095D01*
X215687511Y-103567594D01*
X215649577Y-103347260D01*
X215569387Y-103138560D01*
X215541588Y-103086550D01*
X215393023Y-103062109D01*
X215395132Y-103060000D01*
X224242174Y-103060000D01*
X224058000Y-103244174D01*
X223770299Y-103674749D01*
X223572127Y-104153178D01*
X223471100Y-104661076D01*
X223471100Y-105178924D01*
X223572127Y-105686822D01*
X223770299Y-106165251D01*
X224058000Y-106595826D01*
X224424174Y-106962000D01*
X224854749Y-107249701D01*
X225333178Y-107447873D01*
X225841076Y-107548900D01*
X226358924Y-107548900D01*
X226866822Y-107447873D01*
X227345251Y-107249701D01*
X227775826Y-106962000D01*
X228142000Y-106595826D01*
X228429701Y-106165251D01*
X228627873Y-105686822D01*
X228728900Y-105178924D01*
X228728900Y-104661076D01*
X228627873Y-104153178D01*
X228429701Y-103674749D01*
X228142000Y-103244174D01*
X227957826Y-103060000D01*
X228286655Y-103060000D01*
X228350308Y-103213673D01*
X228542919Y-103501935D01*
X228788065Y-103747081D01*
X229076327Y-103939692D01*
X229396627Y-104072364D01*
X229736655Y-104140000D01*
X229885118Y-104140000D01*
X229841856Y-104204747D01*
X229728029Y-104479549D01*
X229670000Y-104771278D01*
X229670000Y-105068722D01*
X229728029Y-105360451D01*
X229841856Y-105635253D01*
X230007107Y-105882569D01*
X230217431Y-106092893D01*
X230464747Y-106258144D01*
X230739549Y-106371971D01*
X231031278Y-106430000D01*
X231328722Y-106430000D01*
X231620451Y-106371971D01*
X231895253Y-106258144D01*
X232142569Y-106092893D01*
X232352893Y-105882569D01*
X232518144Y-105635253D01*
X232631971Y-105360451D01*
X232690000Y-105068722D01*
X232690000Y-104771278D01*
X238560000Y-104771278D01*
X238560000Y-105068722D01*
X238618029Y-105360451D01*
X238731856Y-105635253D01*
X238897107Y-105882569D01*
X239107431Y-106092893D01*
X239354747Y-106258144D01*
X239629549Y-106371971D01*
X239921278Y-106430000D01*
X240218722Y-106430000D01*
X240510451Y-106371971D01*
X240785253Y-106258144D01*
X241032569Y-106092893D01*
X241242893Y-105882569D01*
X241408144Y-105635253D01*
X241521971Y-105360451D01*
X241580000Y-105068722D01*
X241580000Y-104771278D01*
X241521971Y-104479549D01*
X241408144Y-104204747D01*
X241242893Y-103957431D01*
X241032569Y-103747107D01*
X240785253Y-103581856D01*
X240510451Y-103468029D01*
X240218722Y-103410000D01*
X239921278Y-103410000D01*
X239629549Y-103468029D01*
X239354747Y-103581856D01*
X239107431Y-103747107D01*
X238897107Y-103957431D01*
X238731856Y-104204747D01*
X238618029Y-104479549D01*
X238560000Y-104771278D01*
X232690000Y-104771278D01*
X232631971Y-104479549D01*
X232518144Y-104204747D01*
X232352893Y-103957431D01*
X232142569Y-103747107D01*
X231895253Y-103581856D01*
X231620451Y-103468029D01*
X231337362Y-103411719D01*
X231469692Y-103213673D01*
X231602364Y-102893373D01*
X231670000Y-102553345D01*
X231670000Y-102544802D01*
X232016201Y-102891003D01*
G36*
X138927000Y-89637000D02*
G01*
X138907000Y-89637000D01*
X138907000Y-90745000D01*
X139257000Y-90745000D01*
X139340000Y-90728119D01*
X139340001Y-95591881D01*
X139257000Y-95575000D01*
X138907000Y-95575000D01*
X138907000Y-96683000D01*
X138927000Y-96683000D01*
X138927000Y-96937000D01*
X138907000Y-96937000D01*
X138907000Y-98045000D01*
X139257000Y-98045000D01*
X139340001Y-98028119D01*
X139340001Y-98967571D01*
X139336807Y-99000000D01*
X139349550Y-99129383D01*
X139387290Y-99253793D01*
X139448575Y-99368450D01*
X139531052Y-99468948D01*
X139631550Y-99551425D01*
X139746207Y-99612710D01*
X139870617Y-99650450D01*
X139967581Y-99660000D01*
X140000000Y-99663193D01*
X140032419Y-99660000D01*
X145601324Y-99660000D01*
X145600000Y-99666655D01*
X145600000Y-100013345D01*
X145667636Y-100353373D01*
X145800308Y-100673673D01*
X145978983Y-100941079D01*
X145027421Y-100941079D01*
X144990098Y-100937403D01*
X144952775Y-100941079D01*
X144952766Y-100941079D01*
X144841113Y-100952076D01*
X144697852Y-100995533D01*
X144565823Y-101066105D01*
X144450098Y-101161078D01*
X144426300Y-101190076D01*
X134026397Y-111589980D01*
X132832396Y-111589980D01*
X132918948Y-111518948D01*
X133001425Y-111418450D01*
X133062710Y-111303793D01*
X133100450Y-111179383D01*
X133113193Y-111050000D01*
X133110000Y-111017581D01*
X133110000Y-108332419D01*
X133113193Y-108300000D01*
X133100450Y-108170617D01*
X133062710Y-108046207D01*
X133001425Y-107931550D01*
X132918948Y-107831052D01*
X132818450Y-107748575D01*
X132703793Y-107687290D01*
X132579383Y-107649550D01*
X132482419Y-107640000D01*
X132450000Y-107636807D01*
X132417581Y-107640000D01*
X129232419Y-107640000D01*
X129200000Y-107636807D01*
X129167581Y-107640000D01*
X129070617Y-107649550D01*
X128946207Y-107687290D01*
X128831550Y-107748575D01*
X128731052Y-107831052D01*
X128648575Y-107931550D01*
X128587290Y-108046207D01*
X128549550Y-108170617D01*
X128536807Y-108300000D01*
X128540000Y-108332420D01*
X128540001Y-111017571D01*
X128536807Y-111050000D01*
X128549550Y-111179383D01*
X128587290Y-111303793D01*
X128648575Y-111418450D01*
X128731052Y-111518948D01*
X128817604Y-111589980D01*
X126787602Y-111589980D01*
X125386599Y-110188978D01*
X125362803Y-110159982D01*
X125333804Y-110136183D01*
X125247078Y-110065008D01*
X125115048Y-109994436D01*
X125015244Y-109964162D01*
X124971788Y-109950980D01*
X124860135Y-109939983D01*
X124822802Y-109936306D01*
X124785470Y-109939983D01*
X114664783Y-109939981D01*
X114510000Y-109785199D01*
X114510000Y-109109423D01*
X114659774Y-109009347D01*
X114803937Y-108865184D01*
X114917205Y-108695666D01*
X114995226Y-108507308D01*
X115035000Y-108307349D01*
X115035000Y-108103471D01*
X114995226Y-107903512D01*
X114917205Y-107715154D01*
X114803937Y-107545636D01*
X114659774Y-107401473D01*
X114522875Y-107310000D01*
X121496289Y-107310000D01*
X121540226Y-107353937D01*
X121709744Y-107467205D01*
X121898102Y-107545226D01*
X122098061Y-107585000D01*
X122301939Y-107585000D01*
X122501898Y-107545226D01*
X122690256Y-107467205D01*
X122859774Y-107353937D01*
X123003937Y-107209774D01*
X123117205Y-107040256D01*
X123195226Y-106851898D01*
X123209708Y-106779091D01*
X124408920Y-105579880D01*
X124431856Y-105635253D01*
X124597107Y-105882569D01*
X124807431Y-106092893D01*
X125054747Y-106258144D01*
X125329549Y-106371971D01*
X125621278Y-106430000D01*
X125918722Y-106430000D01*
X126210451Y-106371971D01*
X126485253Y-106258144D01*
X126732569Y-106092893D01*
X126942893Y-105882569D01*
X127108144Y-105635253D01*
X127221971Y-105360451D01*
X127280000Y-105068722D01*
X127280000Y-104909528D01*
X127351898Y-104895227D01*
X127540256Y-104817206D01*
X127709774Y-104703938D01*
X127853937Y-104559775D01*
X127967205Y-104390257D01*
X128044746Y-104203057D01*
X128482995Y-103764808D01*
X128322127Y-104153178D01*
X128221100Y-104661076D01*
X128221100Y-105178924D01*
X128322127Y-105686822D01*
X128520299Y-106165251D01*
X128808000Y-106595826D01*
X129174174Y-106962000D01*
X129604749Y-107249701D01*
X130083178Y-107447873D01*
X130591076Y-107548900D01*
X131108924Y-107548900D01*
X131616822Y-107447873D01*
X132095251Y-107249701D01*
X132525826Y-106962000D01*
X132892000Y-106595826D01*
X133179701Y-106165251D01*
X133377873Y-105686822D01*
X133478900Y-105178924D01*
X133478900Y-104661076D01*
X133377873Y-104153178D01*
X133179701Y-103674749D01*
X132892000Y-103244174D01*
X132525826Y-102878000D01*
X132095251Y-102590299D01*
X131616822Y-102392127D01*
X131108924Y-102291100D01*
X130591076Y-102291100D01*
X130083178Y-102392127D01*
X129694809Y-102552995D01*
X129946002Y-102301802D01*
X129975000Y-102278004D01*
X130005853Y-102240409D01*
X130069973Y-102162280D01*
X130140545Y-102030250D01*
X130147970Y-102005771D01*
X130184002Y-101886989D01*
X130194999Y-101775336D01*
X130194999Y-101775326D01*
X130198675Y-101738003D01*
X130194999Y-101700680D01*
X130194999Y-101002322D01*
X130198675Y-100964999D01*
X130194999Y-100927676D01*
X130194999Y-100927666D01*
X130184002Y-100816013D01*
X130140545Y-100672752D01*
X130069973Y-100540723D01*
X129975000Y-100424998D01*
X129973281Y-100423587D01*
X129994799Y-100371636D01*
X130699171Y-101076008D01*
X130722965Y-101105001D01*
X130751958Y-101128795D01*
X130751962Y-101128799D01*
X130793483Y-101162874D01*
X130838690Y-101199974D01*
X130970719Y-101270546D01*
X131113980Y-101314003D01*
X131225633Y-101325000D01*
X131225642Y-101325000D01*
X131262965Y-101328676D01*
X131300288Y-101325000D01*
X133248194Y-101325000D01*
X133100308Y-101546327D01*
X132967636Y-101866627D01*
X132900000Y-102206655D01*
X132900000Y-102553345D01*
X132967636Y-102893373D01*
X133100308Y-103213673D01*
X133292919Y-103501935D01*
X133538065Y-103747081D01*
X133826327Y-103939692D01*
X134146627Y-104072364D01*
X134486655Y-104140000D01*
X134635118Y-104140000D01*
X134591856Y-104204747D01*
X134478029Y-104479549D01*
X134420000Y-104771278D01*
X134420000Y-105068722D01*
X134478029Y-105360451D01*
X134591856Y-105635253D01*
X134757107Y-105882569D01*
X134967431Y-106092893D01*
X135214747Y-106258144D01*
X135489549Y-106371971D01*
X135781278Y-106430000D01*
X136078722Y-106430000D01*
X136370451Y-106371971D01*
X136645253Y-106258144D01*
X136892569Y-106092893D01*
X137102893Y-105882569D01*
X137268144Y-105635253D01*
X137381971Y-105360451D01*
X137440000Y-105068722D01*
X137440000Y-104771278D01*
X137381971Y-104479549D01*
X137268144Y-104204747D01*
X137102893Y-103957431D01*
X136892569Y-103747107D01*
X136645253Y-103581856D01*
X136370451Y-103468029D01*
X136087362Y-103411719D01*
X136219692Y-103213673D01*
X136352364Y-102893373D01*
X136420000Y-102553345D01*
X136420000Y-102206655D01*
X136352364Y-101866627D01*
X136235074Y-101583463D01*
X136351898Y-101560226D01*
X136532155Y-101485560D01*
X136620379Y-101573784D01*
X136789897Y-101687052D01*
X136978255Y-101765073D01*
X137178214Y-101804847D01*
X137382092Y-101804847D01*
X137582051Y-101765073D01*
X137770409Y-101687052D01*
X137939927Y-101573784D01*
X138084090Y-101429621D01*
X138197358Y-101260103D01*
X138275379Y-101071745D01*
X138315153Y-100871786D01*
X138315153Y-100667908D01*
X138275379Y-100467949D01*
X138197358Y-100279591D01*
X138084090Y-100110073D01*
X137939927Y-99965910D01*
X137770409Y-99852642D01*
X137582051Y-99774621D01*
X137382092Y-99734847D01*
X137319954Y-99734847D01*
X136914108Y-99329001D01*
X136890306Y-99299998D01*
X136774581Y-99205025D01*
X136642552Y-99134453D01*
X136499291Y-99090996D01*
X136387638Y-99079999D01*
X136387627Y-99079999D01*
X136350305Y-99076323D01*
X136312983Y-99079999D01*
X135739321Y-99079999D01*
X135701998Y-99076323D01*
X135664676Y-99079999D01*
X135664666Y-99079999D01*
X135553013Y-99090996D01*
X135409752Y-99134453D01*
X135277723Y-99205025D01*
X135161998Y-99299998D01*
X135138195Y-99329002D01*
X135112207Y-99354990D01*
X131764169Y-99354990D01*
X131040203Y-98631025D01*
X131042377Y-98625777D01*
X131082151Y-98425818D01*
X131082151Y-98221940D01*
X131042377Y-98021981D01*
X130964356Y-97833623D01*
X130851088Y-97664105D01*
X130706925Y-97519942D01*
X130537407Y-97406674D01*
X130349049Y-97328653D01*
X130149090Y-97288879D01*
X129945212Y-97288879D01*
X129745253Y-97328653D01*
X129701898Y-97346611D01*
X129755546Y-97246245D01*
X129799003Y-97102984D01*
X129810000Y-96991331D01*
X129810000Y-96991323D01*
X129813676Y-96953998D01*
X129810000Y-96916673D01*
X129810000Y-96003711D01*
X129853937Y-95959774D01*
X129888387Y-95908215D01*
X131254846Y-95908215D01*
X131254846Y-96112093D01*
X131294620Y-96312052D01*
X131372641Y-96500410D01*
X131485909Y-96669928D01*
X131630072Y-96814091D01*
X131799590Y-96927359D01*
X131987948Y-97005380D01*
X132187907Y-97045154D01*
X132391785Y-97045154D01*
X132482273Y-97027155D01*
X132416538Y-97127609D01*
X132420409Y-97165282D01*
X132512579Y-97390533D01*
X132646922Y-97593474D01*
X132818275Y-97766307D01*
X133020054Y-97902390D01*
X133244504Y-97996493D01*
X133483000Y-98045000D01*
X133833000Y-98045000D01*
X133833000Y-96937000D01*
X134087000Y-96937000D01*
X134087000Y-98045000D01*
X134437000Y-98045000D01*
X134675496Y-97996493D01*
X134899946Y-97902390D01*
X135101725Y-97766307D01*
X135273078Y-97593474D01*
X135407421Y-97390533D01*
X135499591Y-97165282D01*
X135503462Y-97127609D01*
X137236538Y-97127609D01*
X137240409Y-97165282D01*
X137332579Y-97390533D01*
X137466922Y-97593474D01*
X137638275Y-97766307D01*
X137840054Y-97902390D01*
X138064504Y-97996493D01*
X138303000Y-98045000D01*
X138653000Y-98045000D01*
X138653000Y-96937000D01*
X137361269Y-96937000D01*
X137236538Y-97127609D01*
X135503462Y-97127609D01*
X135378731Y-96937000D01*
X134087000Y-96937000D01*
X133833000Y-96937000D01*
X133813000Y-96937000D01*
X133813000Y-96683000D01*
X133833000Y-96683000D01*
X133833000Y-96663000D01*
X134087000Y-96663000D01*
X134087000Y-96683000D01*
X135378731Y-96683000D01*
X135503462Y-96492391D01*
X137236538Y-96492391D01*
X137361269Y-96683000D01*
X138653000Y-96683000D01*
X138653000Y-95575000D01*
X138303000Y-95575000D01*
X138064504Y-95623507D01*
X137840054Y-95717610D01*
X137638275Y-95853693D01*
X137466922Y-96026526D01*
X137332579Y-96229467D01*
X137240409Y-96454718D01*
X137236538Y-96492391D01*
X135503462Y-96492391D01*
X135499591Y-96454718D01*
X135407421Y-96229467D01*
X135273078Y-96026526D01*
X135101725Y-95853693D01*
X134899946Y-95717610D01*
X134675496Y-95623507D01*
X134437000Y-95575000D01*
X134220844Y-95575000D01*
X134280450Y-95515394D01*
X134410134Y-95321308D01*
X134483163Y-95145000D01*
X134676712Y-95145000D01*
X134905652Y-95099461D01*
X135121308Y-95010134D01*
X135315394Y-94880450D01*
X135480450Y-94715394D01*
X135610134Y-94521308D01*
X135699461Y-94305652D01*
X135745000Y-94076712D01*
X135745000Y-93843288D01*
X135699461Y-93614348D01*
X135610134Y-93398692D01*
X135480450Y-93204606D01*
X135435844Y-93160000D01*
X135480450Y-93115394D01*
X135610134Y-92921308D01*
X135699461Y-92705652D01*
X135745000Y-92476712D01*
X135745000Y-92243288D01*
X135699461Y-92014348D01*
X135610134Y-91798692D01*
X135480450Y-91604606D01*
X135315394Y-91439550D01*
X135121308Y-91309866D01*
X134905652Y-91220539D01*
X134676712Y-91175000D01*
X134481333Y-91175000D01*
X134426808Y-91031066D01*
X134392478Y-90966841D01*
X134173982Y-90925626D01*
X134291345Y-90808263D01*
X134228082Y-90745000D01*
X134437000Y-90745000D01*
X134675496Y-90696493D01*
X134899946Y-90602390D01*
X135101725Y-90466307D01*
X135273078Y-90293474D01*
X135407421Y-90090533D01*
X135499591Y-89865282D01*
X135503462Y-89827609D01*
X137236538Y-89827609D01*
X137240409Y-89865282D01*
X137332579Y-90090533D01*
X137466922Y-90293474D01*
X137638275Y-90466307D01*
X137840054Y-90602390D01*
X138064504Y-90696493D01*
X138303000Y-90745000D01*
X138653000Y-90745000D01*
X138653000Y-89637000D01*
X137361269Y-89637000D01*
X137236538Y-89827609D01*
X135503462Y-89827609D01*
X135378731Y-89637000D01*
X134087000Y-89637000D01*
X134087000Y-89657000D01*
X133833000Y-89657000D01*
X133833000Y-89637000D01*
X132541269Y-89637000D01*
X132416538Y-89827609D01*
X132420409Y-89865282D01*
X132512579Y-90090533D01*
X132646922Y-90293474D01*
X132818275Y-90466307D01*
X132848402Y-90486625D01*
X132831066Y-90493192D01*
X132766841Y-90527522D01*
X132725626Y-90746021D01*
X133360000Y-91380395D01*
X133374143Y-91366253D01*
X133553748Y-91545858D01*
X133539605Y-91560000D01*
X133553748Y-91574143D01*
X133374143Y-91753748D01*
X133360000Y-91739605D01*
X133345858Y-91753748D01*
X133166253Y-91574143D01*
X133180395Y-91560000D01*
X132546021Y-90925626D01*
X132327522Y-90966841D01*
X132231641Y-91179665D01*
X132179122Y-91407105D01*
X132171984Y-91640421D01*
X132210500Y-91870646D01*
X132293192Y-92088934D01*
X132327522Y-92153159D01*
X132546018Y-92194374D01*
X132428655Y-92311737D01*
X132480537Y-92363619D01*
X132439550Y-92404606D01*
X132309866Y-92598692D01*
X132220539Y-92814348D01*
X132175000Y-93043288D01*
X132175000Y-93276712D01*
X132220539Y-93505652D01*
X132309866Y-93721308D01*
X132439550Y-93915394D01*
X132484156Y-93960000D01*
X132439550Y-94004606D01*
X132309866Y-94198692D01*
X132220539Y-94414348D01*
X132175000Y-94643288D01*
X132175000Y-94876712D01*
X132194581Y-94975154D01*
X132187907Y-94975154D01*
X131987948Y-95014928D01*
X131799590Y-95092949D01*
X131630072Y-95206217D01*
X131485909Y-95350380D01*
X131372641Y-95519898D01*
X131294620Y-95708256D01*
X131254846Y-95908215D01*
X129888387Y-95908215D01*
X129967205Y-95790256D01*
X130045226Y-95601898D01*
X130085000Y-95401939D01*
X130085000Y-95198061D01*
X130045226Y-94998102D01*
X129967205Y-94809744D01*
X129853937Y-94640226D01*
X129802156Y-94588445D01*
X129782910Y-94524998D01*
X129765546Y-94467754D01*
X129699932Y-94345000D01*
X129694973Y-94335723D01*
X129623799Y-94248996D01*
X129623793Y-94248990D01*
X129600001Y-94219999D01*
X129571009Y-94196206D01*
X128563803Y-93189002D01*
X128563799Y-93188997D01*
X124834801Y-89460000D01*
X138927000Y-89460000D01*
X138927000Y-89637000D01*
G37*
X138927000Y-89637000D02*
X138907000Y-89637000D01*
X138907000Y-90745000D01*
X139257000Y-90745000D01*
X139340000Y-90728119D01*
X139340001Y-95591881D01*
X139257000Y-95575000D01*
X138907000Y-95575000D01*
X138907000Y-96683000D01*
X138927000Y-96683000D01*
X138927000Y-96937000D01*
X138907000Y-96937000D01*
X138907000Y-98045000D01*
X139257000Y-98045000D01*
X139340001Y-98028119D01*
X139340001Y-98967571D01*
X139336807Y-99000000D01*
X139349550Y-99129383D01*
X139387290Y-99253793D01*
X139448575Y-99368450D01*
X139531052Y-99468948D01*
X139631550Y-99551425D01*
X139746207Y-99612710D01*
X139870617Y-99650450D01*
X139967581Y-99660000D01*
X140000000Y-99663193D01*
X140032419Y-99660000D01*
X145601324Y-99660000D01*
X145600000Y-99666655D01*
X145600000Y-100013345D01*
X145667636Y-100353373D01*
X145800308Y-100673673D01*
X145978983Y-100941079D01*
X145027421Y-100941079D01*
X144990098Y-100937403D01*
X144952775Y-100941079D01*
X144952766Y-100941079D01*
X144841113Y-100952076D01*
X144697852Y-100995533D01*
X144565823Y-101066105D01*
X144450098Y-101161078D01*
X144426300Y-101190076D01*
X134026397Y-111589980D01*
X132832396Y-111589980D01*
X132918948Y-111518948D01*
X133001425Y-111418450D01*
X133062710Y-111303793D01*
X133100450Y-111179383D01*
X133113193Y-111050000D01*
X133110000Y-111017581D01*
X133110000Y-108332419D01*
X133113193Y-108300000D01*
X133100450Y-108170617D01*
X133062710Y-108046207D01*
X133001425Y-107931550D01*
X132918948Y-107831052D01*
X132818450Y-107748575D01*
X132703793Y-107687290D01*
X132579383Y-107649550D01*
X132482419Y-107640000D01*
X132450000Y-107636807D01*
X132417581Y-107640000D01*
X129232419Y-107640000D01*
X129200000Y-107636807D01*
X129167581Y-107640000D01*
X129070617Y-107649550D01*
X128946207Y-107687290D01*
X128831550Y-107748575D01*
X128731052Y-107831052D01*
X128648575Y-107931550D01*
X128587290Y-108046207D01*
X128549550Y-108170617D01*
X128536807Y-108300000D01*
X128540000Y-108332420D01*
X128540001Y-111017571D01*
X128536807Y-111050000D01*
X128549550Y-111179383D01*
X128587290Y-111303793D01*
X128648575Y-111418450D01*
X128731052Y-111518948D01*
X128817604Y-111589980D01*
X126787602Y-111589980D01*
X125386599Y-110188978D01*
X125362803Y-110159982D01*
X125333804Y-110136183D01*
X125247078Y-110065008D01*
X125115048Y-109994436D01*
X125015244Y-109964162D01*
X124971788Y-109950980D01*
X124860135Y-109939983D01*
X124822802Y-109936306D01*
X124785470Y-109939983D01*
X114664783Y-109939981D01*
X114510000Y-109785199D01*
X114510000Y-109109423D01*
X114659774Y-109009347D01*
X114803937Y-108865184D01*
X114917205Y-108695666D01*
X114995226Y-108507308D01*
X115035000Y-108307349D01*
X115035000Y-108103471D01*
X114995226Y-107903512D01*
X114917205Y-107715154D01*
X114803937Y-107545636D01*
X114659774Y-107401473D01*
X114522875Y-107310000D01*
X121496289Y-107310000D01*
X121540226Y-107353937D01*
X121709744Y-107467205D01*
X121898102Y-107545226D01*
X122098061Y-107585000D01*
X122301939Y-107585000D01*
X122501898Y-107545226D01*
X122690256Y-107467205D01*
X122859774Y-107353937D01*
X123003937Y-107209774D01*
X123117205Y-107040256D01*
X123195226Y-106851898D01*
X123209708Y-106779091D01*
X124408920Y-105579880D01*
X124431856Y-105635253D01*
X124597107Y-105882569D01*
X124807431Y-106092893D01*
X125054747Y-106258144D01*
X125329549Y-106371971D01*
X125621278Y-106430000D01*
X125918722Y-106430000D01*
X126210451Y-106371971D01*
X126485253Y-106258144D01*
X126732569Y-106092893D01*
X126942893Y-105882569D01*
X127108144Y-105635253D01*
X127221971Y-105360451D01*
X127280000Y-105068722D01*
X127280000Y-104909528D01*
X127351898Y-104895227D01*
X127540256Y-104817206D01*
X127709774Y-104703938D01*
X127853937Y-104559775D01*
X127967205Y-104390257D01*
X128044746Y-104203057D01*
X128482995Y-103764808D01*
X128322127Y-104153178D01*
X128221100Y-104661076D01*
X128221100Y-105178924D01*
X128322127Y-105686822D01*
X128520299Y-106165251D01*
X128808000Y-106595826D01*
X129174174Y-106962000D01*
X129604749Y-107249701D01*
X130083178Y-107447873D01*
X130591076Y-107548900D01*
X131108924Y-107548900D01*
X131616822Y-107447873D01*
X132095251Y-107249701D01*
X132525826Y-106962000D01*
X132892000Y-106595826D01*
X133179701Y-106165251D01*
X133377873Y-105686822D01*
X133478900Y-105178924D01*
X133478900Y-104661076D01*
X133377873Y-104153178D01*
X133179701Y-103674749D01*
X132892000Y-103244174D01*
X132525826Y-102878000D01*
X132095251Y-102590299D01*
X131616822Y-102392127D01*
X131108924Y-102291100D01*
X130591076Y-102291100D01*
X130083178Y-102392127D01*
X129694809Y-102552995D01*
X129946002Y-102301802D01*
X129975000Y-102278004D01*
X130005853Y-102240409D01*
X130069973Y-102162280D01*
X130140545Y-102030250D01*
X130147970Y-102005771D01*
X130184002Y-101886989D01*
X130194999Y-101775336D01*
X130194999Y-101775326D01*
X130198675Y-101738003D01*
X130194999Y-101700680D01*
X130194999Y-101002322D01*
X130198675Y-100964999D01*
X130194999Y-100927676D01*
X130194999Y-100927666D01*
X130184002Y-100816013D01*
X130140545Y-100672752D01*
X130069973Y-100540723D01*
X129975000Y-100424998D01*
X129973281Y-100423587D01*
X129994799Y-100371636D01*
X130699171Y-101076008D01*
X130722965Y-101105001D01*
X130751958Y-101128795D01*
X130751962Y-101128799D01*
X130793483Y-101162874D01*
X130838690Y-101199974D01*
X130970719Y-101270546D01*
X131113980Y-101314003D01*
X131225633Y-101325000D01*
X131225642Y-101325000D01*
X131262965Y-101328676D01*
X131300288Y-101325000D01*
X133248194Y-101325000D01*
X133100308Y-101546327D01*
X132967636Y-101866627D01*
X132900000Y-102206655D01*
X132900000Y-102553345D01*
X132967636Y-102893373D01*
X133100308Y-103213673D01*
X133292919Y-103501935D01*
X133538065Y-103747081D01*
X133826327Y-103939692D01*
X134146627Y-104072364D01*
X134486655Y-104140000D01*
X134635118Y-104140000D01*
X134591856Y-104204747D01*
X134478029Y-104479549D01*
X134420000Y-104771278D01*
X134420000Y-105068722D01*
X134478029Y-105360451D01*
X134591856Y-105635253D01*
X134757107Y-105882569D01*
X134967431Y-106092893D01*
X135214747Y-106258144D01*
X135489549Y-106371971D01*
X135781278Y-106430000D01*
X136078722Y-106430000D01*
X136370451Y-106371971D01*
X136645253Y-106258144D01*
X136892569Y-106092893D01*
X137102893Y-105882569D01*
X137268144Y-105635253D01*
X137381971Y-105360451D01*
X137440000Y-105068722D01*
X137440000Y-104771278D01*
X137381971Y-104479549D01*
X137268144Y-104204747D01*
X137102893Y-103957431D01*
X136892569Y-103747107D01*
X136645253Y-103581856D01*
X136370451Y-103468029D01*
X136087362Y-103411719D01*
X136219692Y-103213673D01*
X136352364Y-102893373D01*
X136420000Y-102553345D01*
X136420000Y-102206655D01*
X136352364Y-101866627D01*
X136235074Y-101583463D01*
X136351898Y-101560226D01*
X136532155Y-101485560D01*
X136620379Y-101573784D01*
X136789897Y-101687052D01*
X136978255Y-101765073D01*
X137178214Y-101804847D01*
X137382092Y-101804847D01*
X137582051Y-101765073D01*
X137770409Y-101687052D01*
X137939927Y-101573784D01*
X138084090Y-101429621D01*
X138197358Y-101260103D01*
X138275379Y-101071745D01*
X138315153Y-100871786D01*
X138315153Y-100667908D01*
X138275379Y-100467949D01*
X138197358Y-100279591D01*
X138084090Y-100110073D01*
X137939927Y-99965910D01*
X137770409Y-99852642D01*
X137582051Y-99774621D01*
X137382092Y-99734847D01*
X137319954Y-99734847D01*
X136914108Y-99329001D01*
X136890306Y-99299998D01*
X136774581Y-99205025D01*
X136642552Y-99134453D01*
X136499291Y-99090996D01*
X136387638Y-99079999D01*
X136387627Y-99079999D01*
X136350305Y-99076323D01*
X136312983Y-99079999D01*
X135739321Y-99079999D01*
X135701998Y-99076323D01*
X135664676Y-99079999D01*
X135664666Y-99079999D01*
X135553013Y-99090996D01*
X135409752Y-99134453D01*
X135277723Y-99205025D01*
X135161998Y-99299998D01*
X135138195Y-99329002D01*
X135112207Y-99354990D01*
X131764169Y-99354990D01*
X131040203Y-98631025D01*
X131042377Y-98625777D01*
X131082151Y-98425818D01*
X131082151Y-98221940D01*
X131042377Y-98021981D01*
X130964356Y-97833623D01*
X130851088Y-97664105D01*
X130706925Y-97519942D01*
X130537407Y-97406674D01*
X130349049Y-97328653D01*
X130149090Y-97288879D01*
X129945212Y-97288879D01*
X129745253Y-97328653D01*
X129701898Y-97346611D01*
X129755546Y-97246245D01*
X129799003Y-97102984D01*
X129810000Y-96991331D01*
X129810000Y-96991323D01*
X129813676Y-96953998D01*
X129810000Y-96916673D01*
X129810000Y-96003711D01*
X129853937Y-95959774D01*
X129888387Y-95908215D01*
X131254846Y-95908215D01*
X131254846Y-96112093D01*
X131294620Y-96312052D01*
X131372641Y-96500410D01*
X131485909Y-96669928D01*
X131630072Y-96814091D01*
X131799590Y-96927359D01*
X131987948Y-97005380D01*
X132187907Y-97045154D01*
X132391785Y-97045154D01*
X132482273Y-97027155D01*
X132416538Y-97127609D01*
X132420409Y-97165282D01*
X132512579Y-97390533D01*
X132646922Y-97593474D01*
X132818275Y-97766307D01*
X133020054Y-97902390D01*
X133244504Y-97996493D01*
X133483000Y-98045000D01*
X133833000Y-98045000D01*
X133833000Y-96937000D01*
X134087000Y-96937000D01*
X134087000Y-98045000D01*
X134437000Y-98045000D01*
X134675496Y-97996493D01*
X134899946Y-97902390D01*
X135101725Y-97766307D01*
X135273078Y-97593474D01*
X135407421Y-97390533D01*
X135499591Y-97165282D01*
X135503462Y-97127609D01*
X137236538Y-97127609D01*
X137240409Y-97165282D01*
X137332579Y-97390533D01*
X137466922Y-97593474D01*
X137638275Y-97766307D01*
X137840054Y-97902390D01*
X138064504Y-97996493D01*
X138303000Y-98045000D01*
X138653000Y-98045000D01*
X138653000Y-96937000D01*
X137361269Y-96937000D01*
X137236538Y-97127609D01*
X135503462Y-97127609D01*
X135378731Y-96937000D01*
X134087000Y-96937000D01*
X133833000Y-96937000D01*
X133813000Y-96937000D01*
X133813000Y-96683000D01*
X133833000Y-96683000D01*
X133833000Y-96663000D01*
X134087000Y-96663000D01*
X134087000Y-96683000D01*
X135378731Y-96683000D01*
X135503462Y-96492391D01*
X137236538Y-96492391D01*
X137361269Y-96683000D01*
X138653000Y-96683000D01*
X138653000Y-95575000D01*
X138303000Y-95575000D01*
X138064504Y-95623507D01*
X137840054Y-95717610D01*
X137638275Y-95853693D01*
X137466922Y-96026526D01*
X137332579Y-96229467D01*
X137240409Y-96454718D01*
X137236538Y-96492391D01*
X135503462Y-96492391D01*
X135499591Y-96454718D01*
X135407421Y-96229467D01*
X135273078Y-96026526D01*
X135101725Y-95853693D01*
X134899946Y-95717610D01*
X134675496Y-95623507D01*
X134437000Y-95575000D01*
X134220844Y-95575000D01*
X134280450Y-95515394D01*
X134410134Y-95321308D01*
X134483163Y-95145000D01*
X134676712Y-95145000D01*
X134905652Y-95099461D01*
X135121308Y-95010134D01*
X135315394Y-94880450D01*
X135480450Y-94715394D01*
X135610134Y-94521308D01*
X135699461Y-94305652D01*
X135745000Y-94076712D01*
X135745000Y-93843288D01*
X135699461Y-93614348D01*
X135610134Y-93398692D01*
X135480450Y-93204606D01*
X135435844Y-93160000D01*
X135480450Y-93115394D01*
X135610134Y-92921308D01*
X135699461Y-92705652D01*
X135745000Y-92476712D01*
X135745000Y-92243288D01*
X135699461Y-92014348D01*
X135610134Y-91798692D01*
X135480450Y-91604606D01*
X135315394Y-91439550D01*
X135121308Y-91309866D01*
X134905652Y-91220539D01*
X134676712Y-91175000D01*
X134481333Y-91175000D01*
X134426808Y-91031066D01*
X134392478Y-90966841D01*
X134173982Y-90925626D01*
X134291345Y-90808263D01*
X134228082Y-90745000D01*
X134437000Y-90745000D01*
X134675496Y-90696493D01*
X134899946Y-90602390D01*
X135101725Y-90466307D01*
X135273078Y-90293474D01*
X135407421Y-90090533D01*
X135499591Y-89865282D01*
X135503462Y-89827609D01*
X137236538Y-89827609D01*
X137240409Y-89865282D01*
X137332579Y-90090533D01*
X137466922Y-90293474D01*
X137638275Y-90466307D01*
X137840054Y-90602390D01*
X138064504Y-90696493D01*
X138303000Y-90745000D01*
X138653000Y-90745000D01*
X138653000Y-89637000D01*
X137361269Y-89637000D01*
X137236538Y-89827609D01*
X135503462Y-89827609D01*
X135378731Y-89637000D01*
X134087000Y-89637000D01*
X134087000Y-89657000D01*
X133833000Y-89657000D01*
X133833000Y-89637000D01*
X132541269Y-89637000D01*
X132416538Y-89827609D01*
X132420409Y-89865282D01*
X132512579Y-90090533D01*
X132646922Y-90293474D01*
X132818275Y-90466307D01*
X132848402Y-90486625D01*
X132831066Y-90493192D01*
X132766841Y-90527522D01*
X132725626Y-90746021D01*
X133360000Y-91380395D01*
X133374143Y-91366253D01*
X133553748Y-91545858D01*
X133539605Y-91560000D01*
X133553748Y-91574143D01*
X133374143Y-91753748D01*
X133360000Y-91739605D01*
X133345858Y-91753748D01*
X133166253Y-91574143D01*
X133180395Y-91560000D01*
X132546021Y-90925626D01*
X132327522Y-90966841D01*
X132231641Y-91179665D01*
X132179122Y-91407105D01*
X132171984Y-91640421D01*
X132210500Y-91870646D01*
X132293192Y-92088934D01*
X132327522Y-92153159D01*
X132546018Y-92194374D01*
X132428655Y-92311737D01*
X132480537Y-92363619D01*
X132439550Y-92404606D01*
X132309866Y-92598692D01*
X132220539Y-92814348D01*
X132175000Y-93043288D01*
X132175000Y-93276712D01*
X132220539Y-93505652D01*
X132309866Y-93721308D01*
X132439550Y-93915394D01*
X132484156Y-93960000D01*
X132439550Y-94004606D01*
X132309866Y-94198692D01*
X132220539Y-94414348D01*
X132175000Y-94643288D01*
X132175000Y-94876712D01*
X132194581Y-94975154D01*
X132187907Y-94975154D01*
X131987948Y-95014928D01*
X131799590Y-95092949D01*
X131630072Y-95206217D01*
X131485909Y-95350380D01*
X131372641Y-95519898D01*
X131294620Y-95708256D01*
X131254846Y-95908215D01*
X129888387Y-95908215D01*
X129967205Y-95790256D01*
X130045226Y-95601898D01*
X130085000Y-95401939D01*
X130085000Y-95198061D01*
X130045226Y-94998102D01*
X129967205Y-94809744D01*
X129853937Y-94640226D01*
X129802156Y-94588445D01*
X129782910Y-94524998D01*
X129765546Y-94467754D01*
X129699932Y-94345000D01*
X129694973Y-94335723D01*
X129623799Y-94248996D01*
X129623793Y-94248990D01*
X129600001Y-94219999D01*
X129571009Y-94196206D01*
X128563803Y-93189002D01*
X128563799Y-93188997D01*
X124834801Y-89460000D01*
X138927000Y-89460000D01*
X138927000Y-89637000D01*
G36*
X214743748Y-109135858D02*
G01*
X214729605Y-109150000D01*
X214743748Y-109164143D01*
X214564143Y-109343748D01*
X214550000Y-109329605D01*
X214535858Y-109343748D01*
X214356253Y-109164143D01*
X214370395Y-109150000D01*
X214356253Y-109135858D01*
X214535858Y-108956253D01*
X214550000Y-108970395D01*
X214564143Y-108956253D01*
X214743748Y-109135858D01*
G37*
X214743748Y-109135858D02*
X214729605Y-109150000D01*
X214743748Y-109164143D01*
X214564143Y-109343748D01*
X214550000Y-109329605D01*
X214535858Y-109343748D01*
X214356253Y-109164143D01*
X214370395Y-109150000D01*
X214356253Y-109135858D01*
X214535858Y-108956253D01*
X214550000Y-108970395D01*
X214564143Y-108956253D01*
X214743748Y-109135858D01*
G36*
X214743748Y-106335858D02*
G01*
X214729605Y-106350000D01*
X214743748Y-106364143D01*
X214564143Y-106543748D01*
X214550000Y-106529605D01*
X214535858Y-106543748D01*
X214356253Y-106364143D01*
X214370395Y-106350000D01*
X214356253Y-106335858D01*
X214535858Y-106156253D01*
X214550000Y-106170395D01*
X214564143Y-106156253D01*
X214743748Y-106335858D01*
G37*
X214743748Y-106335858D02*
X214729605Y-106350000D01*
X214743748Y-106364143D01*
X214564143Y-106543748D01*
X214550000Y-106529605D01*
X214535858Y-106543748D01*
X214356253Y-106364143D01*
X214370395Y-106350000D01*
X214356253Y-106335858D01*
X214535858Y-106156253D01*
X214550000Y-106170395D01*
X214564143Y-106156253D01*
X214743748Y-106335858D01*
G36*
X119630800Y-91523400D02*
G01*
X119800318Y-91636668D01*
X119988676Y-91714689D01*
X120188635Y-91754463D01*
X120229413Y-91754463D01*
X120119856Y-91864020D01*
X120006588Y-92033538D01*
X119928567Y-92221896D01*
X119888793Y-92421855D01*
X119888793Y-92625733D01*
X119928567Y-92825692D01*
X120006588Y-93014050D01*
X120119856Y-93183568D01*
X120264019Y-93327731D01*
X120433537Y-93440999D01*
X120621895Y-93519020D01*
X120821854Y-93558794D01*
X121025732Y-93558794D01*
X121225691Y-93519020D01*
X121414049Y-93440999D01*
X121475283Y-93400084D01*
X126015000Y-97939803D01*
X126015000Y-98001939D01*
X126054774Y-98201898D01*
X126132795Y-98390256D01*
X126246063Y-98559774D01*
X126306311Y-98620022D01*
X126293201Y-98635996D01*
X126293200Y-98635997D01*
X126222025Y-98722723D01*
X126151453Y-98854753D01*
X126127111Y-98935000D01*
X126107997Y-98998013D01*
X126101871Y-99060207D01*
X126093323Y-99146999D01*
X126097000Y-99184331D01*
X126096999Y-100989290D01*
X126044063Y-101042226D01*
X125930795Y-101211744D01*
X125852774Y-101400102D01*
X125813000Y-101600061D01*
X125813000Y-101803939D01*
X125849875Y-101989322D01*
X125551454Y-102287743D01*
X125504120Y-102240409D01*
X125425680Y-102187997D01*
X125408145Y-102166631D01*
X125384347Y-102137633D01*
X125355350Y-102113836D01*
X124043356Y-100801843D01*
X124043356Y-100739705D01*
X124003582Y-100539746D01*
X123925561Y-100351388D01*
X123812293Y-100181870D01*
X123668130Y-100037707D01*
X123498612Y-99924439D01*
X123310254Y-99846418D01*
X123110295Y-99806644D01*
X122906417Y-99806644D01*
X122706458Y-99846418D01*
X122518100Y-99924439D01*
X122348582Y-100037707D01*
X122204419Y-100181870D01*
X122091151Y-100351388D01*
X122013130Y-100539746D01*
X121973356Y-100739705D01*
X121973356Y-100943583D01*
X122013130Y-101143542D01*
X122091151Y-101331900D01*
X122204419Y-101501418D01*
X122348582Y-101645581D01*
X122518100Y-101758849D01*
X122706458Y-101836870D01*
X122906417Y-101876644D01*
X122968555Y-101876644D01*
X123846671Y-102754761D01*
X123809346Y-102942407D01*
X123809346Y-103146285D01*
X123849120Y-103346244D01*
X123927141Y-103534602D01*
X124040409Y-103704120D01*
X124087743Y-103751454D01*
X122320504Y-105518693D01*
X122301939Y-105515000D01*
X122098061Y-105515000D01*
X121898102Y-105554774D01*
X121709744Y-105632795D01*
X121540226Y-105746063D01*
X121496289Y-105790000D01*
X112964802Y-105790000D01*
X112313803Y-105139002D01*
X112290001Y-105109999D01*
X112261003Y-105086201D01*
X111710000Y-104535199D01*
X111710000Y-103800771D01*
X111776939Y-103800771D01*
X111976898Y-103760997D01*
X112165256Y-103682976D01*
X112334774Y-103569708D01*
X112378711Y-103525771D01*
X119196907Y-103525771D01*
X119234229Y-103529447D01*
X119271551Y-103525771D01*
X119271562Y-103525771D01*
X119383215Y-103514774D01*
X119526476Y-103471317D01*
X119658505Y-103400745D01*
X119774230Y-103305772D01*
X119798033Y-103276768D01*
X120479141Y-102595661D01*
X120541278Y-102595661D01*
X120741237Y-102555887D01*
X120929595Y-102477866D01*
X121099113Y-102364598D01*
X121243276Y-102220435D01*
X121356544Y-102050917D01*
X121434565Y-101862559D01*
X121474339Y-101662600D01*
X121474339Y-101458722D01*
X121434565Y-101258763D01*
X121356544Y-101070405D01*
X121243276Y-100900887D01*
X121099113Y-100756724D01*
X120929595Y-100643456D01*
X120741237Y-100565435D01*
X120541278Y-100525661D01*
X120337400Y-100525661D01*
X120137441Y-100565435D01*
X119949083Y-100643456D01*
X119779565Y-100756724D01*
X119635402Y-100900887D01*
X119522134Y-101070405D01*
X119444113Y-101258763D01*
X119404339Y-101458722D01*
X119404339Y-101520859D01*
X118919428Y-102005771D01*
X112378711Y-102005771D01*
X112334774Y-101961834D01*
X112165256Y-101848566D01*
X111976898Y-101770545D01*
X111776939Y-101730771D01*
X111710000Y-101730771D01*
X111710000Y-99353711D01*
X111753937Y-99309774D01*
X111867205Y-99140256D01*
X111945226Y-98951898D01*
X111985000Y-98751939D01*
X111985000Y-98689802D01*
X112261002Y-98413799D01*
X112290001Y-98390001D01*
X112384974Y-98274276D01*
X112455546Y-98142247D01*
X112499003Y-97998986D01*
X112510000Y-97887333D01*
X112510000Y-97887323D01*
X112513676Y-97850000D01*
X112510000Y-97812677D01*
X112510000Y-97090000D01*
X113810328Y-97090000D01*
X113822589Y-97214481D01*
X113858898Y-97334180D01*
X113917862Y-97444494D01*
X113997215Y-97541185D01*
X115618131Y-99157757D01*
X115664597Y-99157757D01*
X115759295Y-99299080D01*
X115882727Y-99422188D01*
X116022243Y-99515145D01*
X116022243Y-99561869D01*
X117638815Y-101182785D01*
X117735506Y-101262138D01*
X117845820Y-101321102D01*
X117965519Y-101357411D01*
X118090000Y-101369672D01*
X118214481Y-101357411D01*
X118334180Y-101321102D01*
X118444494Y-101262138D01*
X118541185Y-101182785D01*
X120157757Y-99561869D01*
X120157757Y-99515403D01*
X120299080Y-99420705D01*
X120422188Y-99297273D01*
X120515145Y-99157757D01*
X120561869Y-99157757D01*
X122089056Y-97634662D01*
X122132795Y-97740256D01*
X122246063Y-97909774D01*
X122390226Y-98053937D01*
X122559744Y-98167205D01*
X122748102Y-98245226D01*
X122948061Y-98285000D01*
X123010198Y-98285000D01*
X123020466Y-98295268D01*
X123004303Y-98376525D01*
X123004303Y-98580403D01*
X123044077Y-98780362D01*
X123122098Y-98968720D01*
X123235366Y-99138238D01*
X123379529Y-99282401D01*
X123549047Y-99395669D01*
X123737405Y-99473690D01*
X123937364Y-99513464D01*
X124141242Y-99513464D01*
X124341201Y-99473690D01*
X124529559Y-99395669D01*
X124699077Y-99282401D01*
X124843240Y-99138238D01*
X124956508Y-98968720D01*
X125034529Y-98780362D01*
X125074303Y-98580403D01*
X125074303Y-98376525D01*
X125034529Y-98176566D01*
X124956508Y-97988208D01*
X124843240Y-97818690D01*
X124699077Y-97674527D01*
X124529559Y-97561259D01*
X124369947Y-97495145D01*
X124085000Y-97210198D01*
X124085000Y-97148061D01*
X124045226Y-96948102D01*
X123967205Y-96759744D01*
X123853937Y-96590226D01*
X123709774Y-96446063D01*
X123540256Y-96332795D01*
X123351898Y-96254774D01*
X123151939Y-96215000D01*
X122948061Y-96215000D01*
X122748102Y-96254774D01*
X122559744Y-96332795D01*
X122390226Y-96446063D01*
X122246063Y-96590226D01*
X122199769Y-96659510D01*
X122182785Y-96638815D01*
X120561869Y-95022243D01*
X120515403Y-95022243D01*
X120420705Y-94880920D01*
X120297273Y-94757812D01*
X120157757Y-94664855D01*
X120157757Y-94618131D01*
X118541185Y-92997215D01*
X118444494Y-92917862D01*
X118334180Y-92858898D01*
X118214481Y-92822589D01*
X118090000Y-92810328D01*
X117965519Y-92822589D01*
X117845820Y-92858898D01*
X117735506Y-92917862D01*
X117638815Y-92997215D01*
X116022243Y-94618131D01*
X116022243Y-94664597D01*
X115880920Y-94759295D01*
X115757812Y-94882727D01*
X115664855Y-95022243D01*
X115618131Y-95022243D01*
X113997215Y-96638815D01*
X113917862Y-96735506D01*
X113858898Y-96845820D01*
X113822589Y-96965519D01*
X113810328Y-97090000D01*
X112510000Y-97090000D01*
X112510000Y-94785000D01*
X112601939Y-94785000D01*
X112665000Y-94772456D01*
X112665000Y-94951939D01*
X112704774Y-95151898D01*
X112782795Y-95340256D01*
X112896063Y-95509774D01*
X113040226Y-95653937D01*
X113209744Y-95767205D01*
X113398102Y-95845226D01*
X113598061Y-95885000D01*
X113801939Y-95885000D01*
X114001898Y-95845226D01*
X114190256Y-95767205D01*
X114359774Y-95653937D01*
X114414724Y-95598987D01*
X114557932Y-95555546D01*
X114689961Y-95484974D01*
X114805686Y-95390001D01*
X114829489Y-95360997D01*
X118711025Y-91479463D01*
X119586863Y-91479463D01*
X119630800Y-91523400D01*
G37*
X119630800Y-91523400D02*
X119800318Y-91636668D01*
X119988676Y-91714689D01*
X120188635Y-91754463D01*
X120229413Y-91754463D01*
X120119856Y-91864020D01*
X120006588Y-92033538D01*
X119928567Y-92221896D01*
X119888793Y-92421855D01*
X119888793Y-92625733D01*
X119928567Y-92825692D01*
X120006588Y-93014050D01*
X120119856Y-93183568D01*
X120264019Y-93327731D01*
X120433537Y-93440999D01*
X120621895Y-93519020D01*
X120821854Y-93558794D01*
X121025732Y-93558794D01*
X121225691Y-93519020D01*
X121414049Y-93440999D01*
X121475283Y-93400084D01*
X126015000Y-97939803D01*
X126015000Y-98001939D01*
X126054774Y-98201898D01*
X126132795Y-98390256D01*
X126246063Y-98559774D01*
X126306311Y-98620022D01*
X126293201Y-98635996D01*
X126293200Y-98635997D01*
X126222025Y-98722723D01*
X126151453Y-98854753D01*
X126127111Y-98935000D01*
X126107997Y-98998013D01*
X126101871Y-99060207D01*
X126093323Y-99146999D01*
X126097000Y-99184331D01*
X126096999Y-100989290D01*
X126044063Y-101042226D01*
X125930795Y-101211744D01*
X125852774Y-101400102D01*
X125813000Y-101600061D01*
X125813000Y-101803939D01*
X125849875Y-101989322D01*
X125551454Y-102287743D01*
X125504120Y-102240409D01*
X125425680Y-102187997D01*
X125408145Y-102166631D01*
X125384347Y-102137633D01*
X125355350Y-102113836D01*
X124043356Y-100801843D01*
X124043356Y-100739705D01*
X124003582Y-100539746D01*
X123925561Y-100351388D01*
X123812293Y-100181870D01*
X123668130Y-100037707D01*
X123498612Y-99924439D01*
X123310254Y-99846418D01*
X123110295Y-99806644D01*
X122906417Y-99806644D01*
X122706458Y-99846418D01*
X122518100Y-99924439D01*
X122348582Y-100037707D01*
X122204419Y-100181870D01*
X122091151Y-100351388D01*
X122013130Y-100539746D01*
X121973356Y-100739705D01*
X121973356Y-100943583D01*
X122013130Y-101143542D01*
X122091151Y-101331900D01*
X122204419Y-101501418D01*
X122348582Y-101645581D01*
X122518100Y-101758849D01*
X122706458Y-101836870D01*
X122906417Y-101876644D01*
X122968555Y-101876644D01*
X123846671Y-102754761D01*
X123809346Y-102942407D01*
X123809346Y-103146285D01*
X123849120Y-103346244D01*
X123927141Y-103534602D01*
X124040409Y-103704120D01*
X124087743Y-103751454D01*
X122320504Y-105518693D01*
X122301939Y-105515000D01*
X122098061Y-105515000D01*
X121898102Y-105554774D01*
X121709744Y-105632795D01*
X121540226Y-105746063D01*
X121496289Y-105790000D01*
X112964802Y-105790000D01*
X112313803Y-105139002D01*
X112290001Y-105109999D01*
X112261003Y-105086201D01*
X111710000Y-104535199D01*
X111710000Y-103800771D01*
X111776939Y-103800771D01*
X111976898Y-103760997D01*
X112165256Y-103682976D01*
X112334774Y-103569708D01*
X112378711Y-103525771D01*
X119196907Y-103525771D01*
X119234229Y-103529447D01*
X119271551Y-103525771D01*
X119271562Y-103525771D01*
X119383215Y-103514774D01*
X119526476Y-103471317D01*
X119658505Y-103400745D01*
X119774230Y-103305772D01*
X119798033Y-103276768D01*
X120479141Y-102595661D01*
X120541278Y-102595661D01*
X120741237Y-102555887D01*
X120929595Y-102477866D01*
X121099113Y-102364598D01*
X121243276Y-102220435D01*
X121356544Y-102050917D01*
X121434565Y-101862559D01*
X121474339Y-101662600D01*
X121474339Y-101458722D01*
X121434565Y-101258763D01*
X121356544Y-101070405D01*
X121243276Y-100900887D01*
X121099113Y-100756724D01*
X120929595Y-100643456D01*
X120741237Y-100565435D01*
X120541278Y-100525661D01*
X120337400Y-100525661D01*
X120137441Y-100565435D01*
X119949083Y-100643456D01*
X119779565Y-100756724D01*
X119635402Y-100900887D01*
X119522134Y-101070405D01*
X119444113Y-101258763D01*
X119404339Y-101458722D01*
X119404339Y-101520859D01*
X118919428Y-102005771D01*
X112378711Y-102005771D01*
X112334774Y-101961834D01*
X112165256Y-101848566D01*
X111976898Y-101770545D01*
X111776939Y-101730771D01*
X111710000Y-101730771D01*
X111710000Y-99353711D01*
X111753937Y-99309774D01*
X111867205Y-99140256D01*
X111945226Y-98951898D01*
X111985000Y-98751939D01*
X111985000Y-98689802D01*
X112261002Y-98413799D01*
X112290001Y-98390001D01*
X112384974Y-98274276D01*
X112455546Y-98142247D01*
X112499003Y-97998986D01*
X112510000Y-97887333D01*
X112510000Y-97887323D01*
X112513676Y-97850000D01*
X112510000Y-97812677D01*
X112510000Y-97090000D01*
X113810328Y-97090000D01*
X113822589Y-97214481D01*
X113858898Y-97334180D01*
X113917862Y-97444494D01*
X113997215Y-97541185D01*
X115618131Y-99157757D01*
X115664597Y-99157757D01*
X115759295Y-99299080D01*
X115882727Y-99422188D01*
X116022243Y-99515145D01*
X116022243Y-99561869D01*
X117638815Y-101182785D01*
X117735506Y-101262138D01*
X117845820Y-101321102D01*
X117965519Y-101357411D01*
X118090000Y-101369672D01*
X118214481Y-101357411D01*
X118334180Y-101321102D01*
X118444494Y-101262138D01*
X118541185Y-101182785D01*
X120157757Y-99561869D01*
X120157757Y-99515403D01*
X120299080Y-99420705D01*
X120422188Y-99297273D01*
X120515145Y-99157757D01*
X120561869Y-99157757D01*
X122089056Y-97634662D01*
X122132795Y-97740256D01*
X122246063Y-97909774D01*
X122390226Y-98053937D01*
X122559744Y-98167205D01*
X122748102Y-98245226D01*
X122948061Y-98285000D01*
X123010198Y-98285000D01*
X123020466Y-98295268D01*
X123004303Y-98376525D01*
X123004303Y-98580403D01*
X123044077Y-98780362D01*
X123122098Y-98968720D01*
X123235366Y-99138238D01*
X123379529Y-99282401D01*
X123549047Y-99395669D01*
X123737405Y-99473690D01*
X123937364Y-99513464D01*
X124141242Y-99513464D01*
X124341201Y-99473690D01*
X124529559Y-99395669D01*
X124699077Y-99282401D01*
X124843240Y-99138238D01*
X124956508Y-98968720D01*
X125034529Y-98780362D01*
X125074303Y-98580403D01*
X125074303Y-98376525D01*
X125034529Y-98176566D01*
X124956508Y-97988208D01*
X124843240Y-97818690D01*
X124699077Y-97674527D01*
X124529559Y-97561259D01*
X124369947Y-97495145D01*
X124085000Y-97210198D01*
X124085000Y-97148061D01*
X124045226Y-96948102D01*
X123967205Y-96759744D01*
X123853937Y-96590226D01*
X123709774Y-96446063D01*
X123540256Y-96332795D01*
X123351898Y-96254774D01*
X123151939Y-96215000D01*
X122948061Y-96215000D01*
X122748102Y-96254774D01*
X122559744Y-96332795D01*
X122390226Y-96446063D01*
X122246063Y-96590226D01*
X122199769Y-96659510D01*
X122182785Y-96638815D01*
X120561869Y-95022243D01*
X120515403Y-95022243D01*
X120420705Y-94880920D01*
X120297273Y-94757812D01*
X120157757Y-94664855D01*
X120157757Y-94618131D01*
X118541185Y-92997215D01*
X118444494Y-92917862D01*
X118334180Y-92858898D01*
X118214481Y-92822589D01*
X118090000Y-92810328D01*
X117965519Y-92822589D01*
X117845820Y-92858898D01*
X117735506Y-92917862D01*
X117638815Y-92997215D01*
X116022243Y-94618131D01*
X116022243Y-94664597D01*
X115880920Y-94759295D01*
X115757812Y-94882727D01*
X115664855Y-95022243D01*
X115618131Y-95022243D01*
X113997215Y-96638815D01*
X113917862Y-96735506D01*
X113858898Y-96845820D01*
X113822589Y-96965519D01*
X113810328Y-97090000D01*
X112510000Y-97090000D01*
X112510000Y-94785000D01*
X112601939Y-94785000D01*
X112665000Y-94772456D01*
X112665000Y-94951939D01*
X112704774Y-95151898D01*
X112782795Y-95340256D01*
X112896063Y-95509774D01*
X113040226Y-95653937D01*
X113209744Y-95767205D01*
X113398102Y-95845226D01*
X113598061Y-95885000D01*
X113801939Y-95885000D01*
X114001898Y-95845226D01*
X114190256Y-95767205D01*
X114359774Y-95653937D01*
X114414724Y-95598987D01*
X114557932Y-95555546D01*
X114689961Y-95484974D01*
X114805686Y-95390001D01*
X114829489Y-95360997D01*
X118711025Y-91479463D01*
X119586863Y-91479463D01*
X119630800Y-91523400D01*
G36*
X120036628Y-98857023D02*
G01*
X119857023Y-98857023D01*
X119857023Y-99036628D01*
X119540276Y-98719881D01*
X119719881Y-98540276D01*
X120036628Y-98857023D01*
G37*
X120036628Y-98857023D02*
X119857023Y-98857023D01*
X119857023Y-99036628D01*
X119540276Y-98719881D01*
X119719881Y-98540276D01*
X120036628Y-98857023D01*
G36*
X116639725Y-98719881D02*
G01*
X116322977Y-99036628D01*
X116322977Y-98857023D01*
X116143372Y-98857023D01*
X116460120Y-98540276D01*
X116639725Y-98719881D01*
G37*
X116639725Y-98719881D02*
X116322977Y-99036628D01*
X116322977Y-98857023D01*
X116143372Y-98857023D01*
X116460120Y-98540276D01*
X116639725Y-98719881D01*
G36*
X119105760Y-97926155D02*
G01*
X118926155Y-98105760D01*
X118718265Y-97897870D01*
X118897870Y-97718265D01*
X119105760Y-97926155D01*
G37*
X119105760Y-97926155D02*
X118926155Y-98105760D01*
X118718265Y-97897870D01*
X118897870Y-97718265D01*
X119105760Y-97926155D01*
G36*
X117461736Y-97897870D02*
G01*
X117253846Y-98105760D01*
X117074241Y-97926155D01*
X117282131Y-97718265D01*
X117461736Y-97897870D01*
G37*
X117461736Y-97897870D02*
X117253846Y-98105760D01*
X117074241Y-97926155D01*
X117282131Y-97718265D01*
X117461736Y-97897870D01*
G36*
X118283748Y-97075858D02*
G01*
X118269605Y-97090000D01*
X118283748Y-97104143D01*
X118104143Y-97283748D01*
X118090000Y-97269605D01*
X118075858Y-97283748D01*
X117896253Y-97104143D01*
X117910395Y-97090000D01*
X117896253Y-97075858D01*
X118075858Y-96896253D01*
X118090000Y-96910395D01*
X118104143Y-96896253D01*
X118283748Y-97075858D01*
G37*
X118283748Y-97075858D02*
X118269605Y-97090000D01*
X118283748Y-97104143D01*
X118104143Y-97283748D01*
X118090000Y-97269605D01*
X118075858Y-97283748D01*
X117896253Y-97104143D01*
X117910395Y-97090000D01*
X117896253Y-97075858D01*
X118075858Y-96896253D01*
X118090000Y-96910395D01*
X118104143Y-96896253D01*
X118283748Y-97075858D01*
G36*
X117461736Y-96282131D02*
G01*
X117282131Y-96461736D01*
X117074241Y-96253846D01*
X117253846Y-96074241D01*
X117461736Y-96282131D01*
G37*
X117461736Y-96282131D02*
X117282131Y-96461736D01*
X117074241Y-96253846D01*
X117253846Y-96074241D01*
X117461736Y-96282131D01*
G36*
X119105760Y-96253846D02*
G01*
X118897870Y-96461736D01*
X118718265Y-96282131D01*
X118926155Y-96074241D01*
X119105760Y-96253846D01*
G37*
X119105760Y-96253846D02*
X118897870Y-96461736D01*
X118718265Y-96282131D01*
X118926155Y-96074241D01*
X119105760Y-96253846D01*
G36*
X119857023Y-95322977D02*
G01*
X120036628Y-95322977D01*
X119719881Y-95639725D01*
X119540276Y-95460120D01*
X119857023Y-95143372D01*
X119857023Y-95322977D01*
G37*
X119857023Y-95322977D02*
X120036628Y-95322977D01*
X119719881Y-95639725D01*
X119540276Y-95460120D01*
X119857023Y-95143372D01*
X119857023Y-95322977D01*
G36*
X116639725Y-95460120D02*
G01*
X116460120Y-95639725D01*
X116143372Y-95322977D01*
X116322977Y-95322977D01*
X116322977Y-95143372D01*
X116639725Y-95460120D01*
G37*
X116639725Y-95460120D02*
X116460120Y-95639725D01*
X116143372Y-95322977D01*
X116322977Y-95322977D01*
X116322977Y-95143372D01*
X116639725Y-95460120D01*
G36*
X214743748Y-104985858D02*
G01*
X214729605Y-105000000D01*
X214743748Y-105014143D01*
X214564143Y-105193748D01*
X214550000Y-105179605D01*
X214535858Y-105193748D01*
X214356253Y-105014143D01*
X214370395Y-105000000D01*
X214356253Y-104985858D01*
X214535858Y-104806253D01*
X214550000Y-104820395D01*
X214564143Y-104806253D01*
X214743748Y-104985858D01*
G37*
X214743748Y-104985858D02*
X214729605Y-105000000D01*
X214743748Y-105014143D01*
X214564143Y-105193748D01*
X214550000Y-105179605D01*
X214535858Y-105193748D01*
X214356253Y-105014143D01*
X214370395Y-105000000D01*
X214356253Y-104985858D01*
X214535858Y-104806253D01*
X214550000Y-104820395D01*
X214564143Y-104806253D01*
X214743748Y-104985858D01*
G36*
X91477000Y-104773000D02*
G01*
X91497000Y-104773000D01*
X91497000Y-105027000D01*
X91477000Y-105027000D01*
X91477000Y-105047000D01*
X91223000Y-105047000D01*
X91223000Y-105027000D01*
X91203000Y-105027000D01*
X91203000Y-104773000D01*
X91223000Y-104773000D01*
X91223000Y-104753000D01*
X91477000Y-104753000D01*
X91477000Y-104773000D01*
G37*
X91477000Y-104773000D02*
X91497000Y-104773000D01*
X91497000Y-105027000D01*
X91477000Y-105027000D01*
X91477000Y-105047000D01*
X91223000Y-105047000D01*
X91223000Y-105027000D01*
X91203000Y-105027000D01*
X91203000Y-104773000D01*
X91223000Y-104773000D01*
X91223000Y-104753000D01*
X91477000Y-104753000D01*
X91477000Y-104773000D01*
G36*
X240850000Y-99666655D02*
G01*
X240850000Y-100013345D01*
X240917636Y-100353373D01*
X241050308Y-100673673D01*
X241242919Y-100961935D01*
X241488065Y-101207081D01*
X241776327Y-101399692D01*
X242096627Y-101532364D01*
X242436655Y-101600000D01*
X242783345Y-101600000D01*
X243123373Y-101532364D01*
X243443673Y-101399692D01*
X243731935Y-101207081D01*
X243977081Y-100961935D01*
X244169692Y-100673673D01*
X244302364Y-100353373D01*
X244370000Y-100013345D01*
X244370000Y-99666655D01*
X244368676Y-99660000D01*
X251540000Y-99660000D01*
X251540000Y-104162627D01*
X251402893Y-103957431D01*
X251192569Y-103747107D01*
X250945253Y-103581856D01*
X250670451Y-103468029D01*
X250387362Y-103411719D01*
X250519692Y-103213673D01*
X250652364Y-102893373D01*
X250720000Y-102553345D01*
X250720000Y-102206655D01*
X250652364Y-101866627D01*
X250519692Y-101546327D01*
X250327081Y-101258065D01*
X250081935Y-101012919D01*
X249793673Y-100820308D01*
X249473373Y-100687636D01*
X249133345Y-100620000D01*
X248786655Y-100620000D01*
X248446627Y-100687636D01*
X248126327Y-100820308D01*
X247838065Y-101012919D01*
X247592919Y-101258065D01*
X247400308Y-101546327D01*
X247369792Y-101620000D01*
X232894802Y-101620000D01*
X231513804Y-100239003D01*
X231490001Y-100209999D01*
X231374276Y-100115026D01*
X231242247Y-100044454D01*
X231098986Y-100000997D01*
X230987333Y-99990000D01*
X230987322Y-99990000D01*
X230950000Y-99986324D01*
X230912678Y-99990000D01*
X229087325Y-99990000D01*
X229050000Y-99986324D01*
X229012675Y-99990000D01*
X229012667Y-99990000D01*
X228901014Y-100000997D01*
X228757753Y-100044454D01*
X228625724Y-100115026D01*
X228509999Y-100209999D01*
X228486201Y-100238997D01*
X227635209Y-101089990D01*
X224799026Y-101089990D01*
X224927081Y-100961935D01*
X225119692Y-100673673D01*
X225252364Y-100353373D01*
X225320000Y-100013345D01*
X225320000Y-99666655D01*
X225318676Y-99660000D01*
X240851324Y-99660000D01*
X240850000Y-99666655D01*
G37*
X240850000Y-99666655D02*
X240850000Y-100013345D01*
X240917636Y-100353373D01*
X241050308Y-100673673D01*
X241242919Y-100961935D01*
X241488065Y-101207081D01*
X241776327Y-101399692D01*
X242096627Y-101532364D01*
X242436655Y-101600000D01*
X242783345Y-101600000D01*
X243123373Y-101532364D01*
X243443673Y-101399692D01*
X243731935Y-101207081D01*
X243977081Y-100961935D01*
X244169692Y-100673673D01*
X244302364Y-100353373D01*
X244370000Y-100013345D01*
X244370000Y-99666655D01*
X244368676Y-99660000D01*
X251540000Y-99660000D01*
X251540000Y-104162627D01*
X251402893Y-103957431D01*
X251192569Y-103747107D01*
X250945253Y-103581856D01*
X250670451Y-103468029D01*
X250387362Y-103411719D01*
X250519692Y-103213673D01*
X250652364Y-102893373D01*
X250720000Y-102553345D01*
X250720000Y-102206655D01*
X250652364Y-101866627D01*
X250519692Y-101546327D01*
X250327081Y-101258065D01*
X250081935Y-101012919D01*
X249793673Y-100820308D01*
X249473373Y-100687636D01*
X249133345Y-100620000D01*
X248786655Y-100620000D01*
X248446627Y-100687636D01*
X248126327Y-100820308D01*
X247838065Y-101012919D01*
X247592919Y-101258065D01*
X247400308Y-101546327D01*
X247369792Y-101620000D01*
X232894802Y-101620000D01*
X231513804Y-100239003D01*
X231490001Y-100209999D01*
X231374276Y-100115026D01*
X231242247Y-100044454D01*
X231098986Y-100000997D01*
X230987333Y-99990000D01*
X230987322Y-99990000D01*
X230950000Y-99986324D01*
X230912678Y-99990000D01*
X229087325Y-99990000D01*
X229050000Y-99986324D01*
X229012675Y-99990000D01*
X229012667Y-99990000D01*
X228901014Y-100000997D01*
X228757753Y-100044454D01*
X228625724Y-100115026D01*
X228509999Y-100209999D01*
X228486201Y-100238997D01*
X227635209Y-101089990D01*
X224799026Y-101089990D01*
X224927081Y-100961935D01*
X225119692Y-100673673D01*
X225252364Y-100353373D01*
X225320000Y-100013345D01*
X225320000Y-99666655D01*
X225318676Y-99660000D01*
X240851324Y-99660000D01*
X240850000Y-99666655D01*
G36*
X214743748Y-103635858D02*
G01*
X214729605Y-103650000D01*
X214743748Y-103664143D01*
X214564143Y-103843748D01*
X214550000Y-103829605D01*
X214535858Y-103843748D01*
X214356253Y-103664143D01*
X214370395Y-103650000D01*
X214356253Y-103635858D01*
X214535858Y-103456253D01*
X214550000Y-103470395D01*
X214564143Y-103456253D01*
X214743748Y-103635858D01*
G37*
X214743748Y-103635858D02*
X214729605Y-103650000D01*
X214743748Y-103664143D01*
X214564143Y-103843748D01*
X214550000Y-103829605D01*
X214535858Y-103843748D01*
X214356253Y-103664143D01*
X214370395Y-103650000D01*
X214356253Y-103635858D01*
X214535858Y-103456253D01*
X214550000Y-103470395D01*
X214564143Y-103456253D01*
X214743748Y-103635858D01*
G36*
X128136655Y-101600000D02*
G01*
X128483345Y-101600000D01*
X128501889Y-101596311D01*
X127219718Y-102878483D01*
X127151939Y-102865001D01*
X127123799Y-102865001D01*
X127368003Y-102620797D01*
X127397000Y-102597000D01*
X127427975Y-102559257D01*
X127507774Y-102505937D01*
X127651937Y-102361774D01*
X127765205Y-102192256D01*
X127843226Y-102003898D01*
X127883000Y-101803939D01*
X127883000Y-101600061D01*
X127872538Y-101547464D01*
X128136655Y-101600000D01*
G37*
X128136655Y-101600000D02*
X128483345Y-101600000D01*
X128501889Y-101596311D01*
X127219718Y-102878483D01*
X127151939Y-102865001D01*
X127123799Y-102865001D01*
X127368003Y-102620797D01*
X127397000Y-102597000D01*
X127427975Y-102559257D01*
X127507774Y-102505937D01*
X127651937Y-102361774D01*
X127765205Y-102192256D01*
X127843226Y-102003898D01*
X127883000Y-101803939D01*
X127883000Y-101600061D01*
X127872538Y-101547464D01*
X128136655Y-101600000D01*
G36*
X96656525Y-92753368D02*
G01*
X96494010Y-92996589D01*
X96382068Y-93266842D01*
X96325000Y-93553740D01*
X96325000Y-93846260D01*
X96382068Y-94133158D01*
X96494010Y-94403411D01*
X96656525Y-94646632D01*
X96863368Y-94853475D01*
X97036729Y-94969311D01*
X96961208Y-95211603D01*
X97810000Y-96060395D01*
X98658792Y-95211603D01*
X98583271Y-94969311D01*
X98756632Y-94853475D01*
X98963475Y-94646632D01*
X99080000Y-94472240D01*
X99196525Y-94646632D01*
X99403368Y-94853475D01*
X99577760Y-94970000D01*
X99403368Y-95086525D01*
X99196525Y-95293368D01*
X99080689Y-95466729D01*
X98838397Y-95391208D01*
X97989605Y-96240000D01*
X98838397Y-97088792D01*
X99080689Y-97013271D01*
X99196525Y-97186632D01*
X99403368Y-97393475D01*
X99622658Y-97540000D01*
X98539010Y-97540000D01*
X98581157Y-97517472D01*
X98658792Y-97268397D01*
X97810000Y-96419605D01*
X96961208Y-97268397D01*
X97038843Y-97517472D01*
X97086090Y-97540000D01*
X93526074Y-97540000D01*
X93515304Y-97538223D01*
X93461191Y-97540000D01*
X93439581Y-97540000D01*
X93428772Y-97541065D01*
X93385365Y-97542490D01*
X93364224Y-97547422D01*
X93342617Y-97549550D01*
X93301048Y-97562160D01*
X93258757Y-97572026D01*
X93238985Y-97580987D01*
X93218207Y-97587290D01*
X93179906Y-97607762D01*
X93140342Y-97625693D01*
X93122694Y-97638342D01*
X93103550Y-97648575D01*
X93069974Y-97676130D01*
X93061150Y-97682455D01*
X93044916Y-97696695D01*
X93003052Y-97731052D01*
X92996124Y-97739493D01*
X91774936Y-98810678D01*
X91733052Y-98845052D01*
X91705492Y-98878635D01*
X91675811Y-98910331D01*
X91664351Y-98928765D01*
X91650575Y-98945551D01*
X91630096Y-98983865D01*
X91607170Y-99020742D01*
X91599526Y-99041057D01*
X91589290Y-99060208D01*
X91576680Y-99101777D01*
X91561387Y-99142422D01*
X91557853Y-99163839D01*
X91551550Y-99184618D01*
X91547292Y-99227852D01*
X91540223Y-99270696D01*
X91542000Y-99324796D01*
X91542000Y-100871928D01*
X90500000Y-100871928D01*
X90375518Y-100884188D01*
X90255820Y-100920498D01*
X90145506Y-100979463D01*
X90048815Y-101058815D01*
X89969463Y-101155506D01*
X89910498Y-101265820D01*
X89874188Y-101385518D01*
X89861928Y-101510000D01*
X89861928Y-101913270D01*
X89660000Y-102115198D01*
X89660000Y-99468280D01*
X92737244Y-96308531D01*
X96319389Y-96308531D01*
X96361401Y-96598019D01*
X96459081Y-96873747D01*
X96532528Y-97011157D01*
X96781603Y-97088792D01*
X97630395Y-96240000D01*
X96781603Y-95391208D01*
X96532528Y-95468843D01*
X96406629Y-95732883D01*
X96334661Y-96016411D01*
X96319389Y-96308531D01*
X92737244Y-96308531D01*
X96290509Y-92660000D01*
X96749893Y-92660000D01*
X96656525Y-92753368D01*
G37*
X96656525Y-92753368D02*
X96494010Y-92996589D01*
X96382068Y-93266842D01*
X96325000Y-93553740D01*
X96325000Y-93846260D01*
X96382068Y-94133158D01*
X96494010Y-94403411D01*
X96656525Y-94646632D01*
X96863368Y-94853475D01*
X97036729Y-94969311D01*
X96961208Y-95211603D01*
X97810000Y-96060395D01*
X98658792Y-95211603D01*
X98583271Y-94969311D01*
X98756632Y-94853475D01*
X98963475Y-94646632D01*
X99080000Y-94472240D01*
X99196525Y-94646632D01*
X99403368Y-94853475D01*
X99577760Y-94970000D01*
X99403368Y-95086525D01*
X99196525Y-95293368D01*
X99080689Y-95466729D01*
X98838397Y-95391208D01*
X97989605Y-96240000D01*
X98838397Y-97088792D01*
X99080689Y-97013271D01*
X99196525Y-97186632D01*
X99403368Y-97393475D01*
X99622658Y-97540000D01*
X98539010Y-97540000D01*
X98581157Y-97517472D01*
X98658792Y-97268397D01*
X97810000Y-96419605D01*
X96961208Y-97268397D01*
X97038843Y-97517472D01*
X97086090Y-97540000D01*
X93526074Y-97540000D01*
X93515304Y-97538223D01*
X93461191Y-97540000D01*
X93439581Y-97540000D01*
X93428772Y-97541065D01*
X93385365Y-97542490D01*
X93364224Y-97547422D01*
X93342617Y-97549550D01*
X93301048Y-97562160D01*
X93258757Y-97572026D01*
X93238985Y-97580987D01*
X93218207Y-97587290D01*
X93179906Y-97607762D01*
X93140342Y-97625693D01*
X93122694Y-97638342D01*
X93103550Y-97648575D01*
X93069974Y-97676130D01*
X93061150Y-97682455D01*
X93044916Y-97696695D01*
X93003052Y-97731052D01*
X92996124Y-97739493D01*
X91774936Y-98810678D01*
X91733052Y-98845052D01*
X91705492Y-98878635D01*
X91675811Y-98910331D01*
X91664351Y-98928765D01*
X91650575Y-98945551D01*
X91630096Y-98983865D01*
X91607170Y-99020742D01*
X91599526Y-99041057D01*
X91589290Y-99060208D01*
X91576680Y-99101777D01*
X91561387Y-99142422D01*
X91557853Y-99163839D01*
X91551550Y-99184618D01*
X91547292Y-99227852D01*
X91540223Y-99270696D01*
X91542000Y-99324796D01*
X91542000Y-100871928D01*
X90500000Y-100871928D01*
X90375518Y-100884188D01*
X90255820Y-100920498D01*
X90145506Y-100979463D01*
X90048815Y-101058815D01*
X89969463Y-101155506D01*
X89910498Y-101265820D01*
X89874188Y-101385518D01*
X89861928Y-101510000D01*
X89861928Y-101913270D01*
X89660000Y-102115198D01*
X89660000Y-99468280D01*
X92737244Y-96308531D01*
X96319389Y-96308531D01*
X96361401Y-96598019D01*
X96459081Y-96873747D01*
X96532528Y-97011157D01*
X96781603Y-97088792D01*
X97630395Y-96240000D01*
X96781603Y-95391208D01*
X96532528Y-95468843D01*
X96406629Y-95732883D01*
X96334661Y-96016411D01*
X96319389Y-96308531D01*
X92737244Y-96308531D01*
X96290509Y-92660000D01*
X96749893Y-92660000D01*
X96656525Y-92753368D01*
G36*
X176793748Y-100935858D02*
G01*
X176779605Y-100950000D01*
X176793748Y-100964143D01*
X176614143Y-101143748D01*
X176600000Y-101129605D01*
X176585858Y-101143748D01*
X176406253Y-100964143D01*
X176420395Y-100950000D01*
X176406253Y-100935858D01*
X176585858Y-100756253D01*
X176600000Y-100770395D01*
X176614143Y-100756253D01*
X176793748Y-100935858D01*
G37*
X176793748Y-100935858D02*
X176779605Y-100950000D01*
X176793748Y-100964143D01*
X176614143Y-101143748D01*
X176600000Y-101129605D01*
X176585858Y-101143748D01*
X176406253Y-100964143D01*
X176420395Y-100950000D01*
X176406253Y-100935858D01*
X176585858Y-100756253D01*
X176600000Y-100770395D01*
X176614143Y-100756253D01*
X176793748Y-100935858D01*
G36*
X221800000Y-99666655D02*
G01*
X221800000Y-100013345D01*
X221867636Y-100353373D01*
X222000308Y-100673673D01*
X222192919Y-100961935D01*
X222320974Y-101089990D01*
X216764792Y-101089990D01*
X216113803Y-100439002D01*
X216090001Y-100409999D01*
X215974276Y-100315026D01*
X215842247Y-100244454D01*
X215698986Y-100200997D01*
X215587333Y-100190000D01*
X215587322Y-100190000D01*
X215550000Y-100186324D01*
X215521402Y-100189141D01*
X215555824Y-100137624D01*
X215641383Y-99931067D01*
X215685000Y-99711788D01*
X215685000Y-99660000D01*
X221801324Y-99660000D01*
X221800000Y-99666655D01*
G37*
X221800000Y-99666655D02*
X221800000Y-100013345D01*
X221867636Y-100353373D01*
X222000308Y-100673673D01*
X222192919Y-100961935D01*
X222320974Y-101089990D01*
X216764792Y-101089990D01*
X216113803Y-100439002D01*
X216090001Y-100409999D01*
X215974276Y-100315026D01*
X215842247Y-100244454D01*
X215698986Y-100200997D01*
X215587333Y-100190000D01*
X215587322Y-100190000D01*
X215550000Y-100186324D01*
X215521402Y-100189141D01*
X215555824Y-100137624D01*
X215641383Y-99931067D01*
X215685000Y-99711788D01*
X215685000Y-99660000D01*
X221801324Y-99660000D01*
X221800000Y-99666655D01*
G36*
X150461300Y-100941079D02*
G01*
X148741017Y-100941079D01*
X148919692Y-100673673D01*
X149052364Y-100353373D01*
X149120000Y-100013345D01*
X149120000Y-99666655D01*
X149118676Y-99660000D01*
X151742378Y-99660000D01*
X150461300Y-100941079D01*
G37*
X150461300Y-100941079D02*
X148741017Y-100941079D01*
X148919692Y-100673673D01*
X149052364Y-100353373D01*
X149120000Y-100013345D01*
X149120000Y-99666655D01*
X149118676Y-99660000D01*
X151742378Y-99660000D01*
X150461300Y-100941079D01*
G36*
X169862398Y-100789980D02*
G01*
X167891978Y-100789980D01*
X167969692Y-100673673D01*
X168102364Y-100353373D01*
X168170000Y-100013345D01*
X168170000Y-99666655D01*
X168168676Y-99660000D01*
X170992380Y-99660000D01*
X169862398Y-100789980D01*
G37*
X169862398Y-100789980D02*
X167891978Y-100789980D01*
X167969692Y-100673673D01*
X168102364Y-100353373D01*
X168170000Y-100013345D01*
X168170000Y-99666655D01*
X168168676Y-99660000D01*
X170992380Y-99660000D01*
X169862398Y-100789980D01*
G36*
X202750000Y-99666655D02*
G01*
X202750000Y-100013345D01*
X202817636Y-100353373D01*
X202950308Y-100673673D01*
X202981249Y-100719980D01*
X194643604Y-100719980D01*
X193583623Y-99660000D01*
X202751324Y-99660000D01*
X202750000Y-99666655D01*
G37*
X202750000Y-99666655D02*
X202750000Y-100013345D01*
X202817636Y-100353373D01*
X202950308Y-100673673D01*
X202981249Y-100719980D01*
X194643604Y-100719980D01*
X193583623Y-99660000D01*
X202751324Y-99660000D01*
X202750000Y-99666655D01*
G36*
X188298799Y-100689980D02*
G01*
X187008795Y-100689981D01*
X187019692Y-100673673D01*
X187152364Y-100353373D01*
X187220000Y-100013345D01*
X187220000Y-99666655D01*
X187218676Y-99660000D01*
X189328778Y-99660000D01*
X188298799Y-100689980D01*
G37*
X188298799Y-100689980D02*
X187008795Y-100689981D01*
X187019692Y-100673673D01*
X187152364Y-100353373D01*
X187220000Y-100013345D01*
X187220000Y-99666655D01*
X187218676Y-99660000D01*
X189328778Y-99660000D01*
X188298799Y-100689980D01*
G36*
X127488997Y-94263799D02*
G01*
X127489002Y-94263803D01*
X128104134Y-94878937D01*
X128054774Y-94998102D01*
X128015000Y-95198061D01*
X128015000Y-95401939D01*
X128054774Y-95601898D01*
X128132795Y-95790256D01*
X128246063Y-95959774D01*
X128290001Y-96003712D01*
X128290000Y-96639196D01*
X128147770Y-96781426D01*
X128111745Y-96600315D01*
X128033724Y-96411957D01*
X127920456Y-96242439D01*
X127776293Y-96098276D01*
X127606775Y-95985008D01*
X127418417Y-95906987D01*
X127218458Y-95867213D01*
X127156321Y-95867213D01*
X122528110Y-91239003D01*
X122504307Y-91209999D01*
X122459270Y-91173038D01*
X122403937Y-91090226D01*
X122259774Y-90946063D01*
X122090256Y-90832795D01*
X121901898Y-90754774D01*
X121701939Y-90715000D01*
X121498061Y-90715000D01*
X121325574Y-90749310D01*
X121325574Y-90617524D01*
X121297951Y-90478654D01*
X121409774Y-90403937D01*
X121453711Y-90360000D01*
X123585199Y-90360000D01*
X127488997Y-94263799D01*
G37*
X127488997Y-94263799D02*
X127489002Y-94263803D01*
X128104134Y-94878937D01*
X128054774Y-94998102D01*
X128015000Y-95198061D01*
X128015000Y-95401939D01*
X128054774Y-95601898D01*
X128132795Y-95790256D01*
X128246063Y-95959774D01*
X128290001Y-96003712D01*
X128290000Y-96639196D01*
X128147770Y-96781426D01*
X128111745Y-96600315D01*
X128033724Y-96411957D01*
X127920456Y-96242439D01*
X127776293Y-96098276D01*
X127606775Y-95985008D01*
X127418417Y-95906987D01*
X127218458Y-95867213D01*
X127156321Y-95867213D01*
X122528110Y-91239003D01*
X122504307Y-91209999D01*
X122459270Y-91173038D01*
X122403937Y-91090226D01*
X122259774Y-90946063D01*
X122090256Y-90832795D01*
X121901898Y-90754774D01*
X121701939Y-90715000D01*
X121498061Y-90715000D01*
X121325574Y-90749310D01*
X121325574Y-90617524D01*
X121297951Y-90478654D01*
X121409774Y-90403937D01*
X121453711Y-90360000D01*
X123585199Y-90360000D01*
X127488997Y-94263799D01*
G36*
X109320511Y-91060997D02*
G01*
X109344314Y-91090001D01*
X109460039Y-91184974D01*
X109592068Y-91255546D01*
X109735276Y-91298987D01*
X109790226Y-91353937D01*
X109959744Y-91467205D01*
X110148102Y-91545226D01*
X110348061Y-91585000D01*
X110551939Y-91585000D01*
X110675846Y-91560353D01*
X110675847Y-93299255D01*
X110648102Y-93304774D01*
X110459744Y-93382795D01*
X110290226Y-93496063D01*
X110146063Y-93640226D01*
X110032795Y-93809744D01*
X109954774Y-93998102D01*
X109915000Y-94198061D01*
X109915000Y-94260199D01*
X109870200Y-94304999D01*
X107052520Y-94304999D01*
X107095226Y-94201898D01*
X107135000Y-94001939D01*
X107135000Y-93798061D01*
X107095226Y-93598102D01*
X107017205Y-93409744D01*
X106903937Y-93240226D01*
X106759774Y-93096063D01*
X106590256Y-92982795D01*
X106401898Y-92904774D01*
X106201939Y-92865000D01*
X106139802Y-92865000D01*
X105458497Y-92183696D01*
X105651898Y-92145226D01*
X105840256Y-92067205D01*
X106009774Y-91953937D01*
X106153937Y-91809774D01*
X106267205Y-91640256D01*
X106345226Y-91451898D01*
X106385000Y-91251939D01*
X106385000Y-91189802D01*
X106614802Y-90960000D01*
X109219514Y-90960000D01*
X109320511Y-91060997D01*
G37*
X109320511Y-91060997D02*
X109344314Y-91090001D01*
X109460039Y-91184974D01*
X109592068Y-91255546D01*
X109735276Y-91298987D01*
X109790226Y-91353937D01*
X109959744Y-91467205D01*
X110148102Y-91545226D01*
X110348061Y-91585000D01*
X110551939Y-91585000D01*
X110675846Y-91560353D01*
X110675847Y-93299255D01*
X110648102Y-93304774D01*
X110459744Y-93382795D01*
X110290226Y-93496063D01*
X110146063Y-93640226D01*
X110032795Y-93809744D01*
X109954774Y-93998102D01*
X109915000Y-94198061D01*
X109915000Y-94260199D01*
X109870200Y-94304999D01*
X107052520Y-94304999D01*
X107095226Y-94201898D01*
X107135000Y-94001939D01*
X107135000Y-93798061D01*
X107095226Y-93598102D01*
X107017205Y-93409744D01*
X106903937Y-93240226D01*
X106759774Y-93096063D01*
X106590256Y-92982795D01*
X106401898Y-92904774D01*
X106201939Y-92865000D01*
X106139802Y-92865000D01*
X105458497Y-92183696D01*
X105651898Y-92145226D01*
X105840256Y-92067205D01*
X106009774Y-91953937D01*
X106153937Y-91809774D01*
X106267205Y-91640256D01*
X106345226Y-91451898D01*
X106385000Y-91251939D01*
X106385000Y-91189802D01*
X106614802Y-90960000D01*
X109219514Y-90960000D01*
X109320511Y-91060997D01*
G36*
X111119455Y-89755744D02*
G01*
X111109774Y-89746063D01*
X110940256Y-89632795D01*
X110751898Y-89554774D01*
X110551939Y-89515000D01*
X110348061Y-89515000D01*
X110148102Y-89554774D01*
X110013856Y-89610381D01*
X109958591Y-89565026D01*
X109826562Y-89494454D01*
X109712980Y-89460000D01*
X111415198Y-89460000D01*
X111119455Y-89755744D01*
G37*
X111119455Y-89755744D02*
X111109774Y-89746063D01*
X110940256Y-89632795D01*
X110751898Y-89554774D01*
X110551939Y-89515000D01*
X110348061Y-89515000D01*
X110148102Y-89554774D01*
X110013856Y-89610381D01*
X109958591Y-89565026D01*
X109826562Y-89494454D01*
X109712980Y-89460000D01*
X111415198Y-89460000D01*
X111119455Y-89755744D01*
%TD*%
M02*
