%TF.GenerationSoftware,KiCad,Pcbnew,(5.1.6)-1*%
%TF.CreationDate,2022-02-11T00:07:08-06:00*%
%TF.ProjectId,Pikatea Macropad GB4,50696b61-7465-4612-904d-6163726f7061,rev?*%
%TF.SameCoordinates,Original*%
%TF.FileFunction,Soldermask,Top*%
%TF.FilePolarity,Negative*%
%FSLAX46Y46*%
G04 Gerber Fmt 4.6, Leading zero omitted, Abs format (unit mm)*
G04 Created by KiCad (PCBNEW (5.1.6)-1) date 2022-02-11 00:07:08*
%MOMM*%
%LPD*%
G01*
G04 APERTURE LIST*
%ADD10R,1.900000X0.920000*%
%ADD11C,1.100000*%
%ADD12C,2.350000*%
%ADD13C,4.087800*%
%ADD14C,1.850000*%
%ADD15C,0.100000*%
%ADD16C,1.800000*%
%ADD17R,1.800000X1.800000*%
%ADD18R,1.800000X1.100000*%
%ADD19O,2.000000X1.300000*%
%ADD20C,1.200000*%
%ADD21R,1.300000X1.500000*%
G04 APERTURE END LIST*
D10*
%TO.C,D5*%
X209650000Y-108770000D03*
X204450000Y-110570000D03*
X204450000Y-108770000D03*
X209650000Y-110570000D03*
%TD*%
%TO.C,D7*%
X247750000Y-108770000D03*
X242550000Y-110570000D03*
X242550000Y-108770000D03*
X247750000Y-110570000D03*
%TD*%
%TO.C,D6*%
X228700000Y-108770000D03*
X223500000Y-110570000D03*
X223500000Y-108770000D03*
X228700000Y-110570000D03*
%TD*%
%TO.C,D4*%
X190600000Y-108770000D03*
X185400000Y-110570000D03*
X185400000Y-108770000D03*
X190600000Y-110570000D03*
%TD*%
%TO.C,D3*%
X171550000Y-108770000D03*
X166350000Y-110570000D03*
X166350000Y-108770000D03*
X171550000Y-110570000D03*
%TD*%
%TO.C,D2*%
X152500000Y-108770000D03*
X147300000Y-110570000D03*
X147300000Y-108770000D03*
X152500000Y-110570000D03*
%TD*%
%TO.C,D1*%
X133450000Y-108770000D03*
X128250000Y-110570000D03*
X128250000Y-108770000D03*
X133450000Y-110570000D03*
%TD*%
D11*
%TO.C,J4*%
X214550000Y-113350000D03*
X214550000Y-99600000D03*
X214550000Y-100950000D03*
X214550000Y-102300000D03*
X214550000Y-103650000D03*
X214550000Y-105000000D03*
X214550000Y-111950000D03*
X214550000Y-110550000D03*
X214550000Y-109150000D03*
X214550000Y-107750000D03*
X214550000Y-106350000D03*
%TD*%
%TO.C,J3*%
X176600000Y-113350000D03*
X176600000Y-99600000D03*
X176600000Y-100950000D03*
X176600000Y-102300000D03*
X176600000Y-103650000D03*
X176600000Y-105000000D03*
X176600000Y-111950000D03*
X176600000Y-110550000D03*
X176600000Y-109150000D03*
X176600000Y-107750000D03*
X176600000Y-106350000D03*
%TD*%
D12*
%TO.C,MX7*%
X242610000Y-99840000D03*
D13*
X245150000Y-104920000D03*
D12*
X248960000Y-102380000D03*
D14*
X250230000Y-104920000D03*
X240070000Y-104920000D03*
%TD*%
D12*
%TO.C,MX6*%
X223560000Y-99840000D03*
D13*
X226100000Y-104920000D03*
D12*
X229910000Y-102380000D03*
D14*
X231180000Y-104920000D03*
X221020000Y-104920000D03*
%TD*%
%TO.C,R5*%
G36*
G01*
X129500000Y-93368750D02*
X129500000Y-94331250D01*
G75*
G02*
X129231250Y-94600000I-268750J0D01*
G01*
X128693750Y-94600000D01*
G75*
G02*
X128425000Y-94331250I0J268750D01*
G01*
X128425000Y-93368750D01*
G75*
G02*
X128693750Y-93100000I268750J0D01*
G01*
X129231250Y-93100000D01*
G75*
G02*
X129500000Y-93368750I0J-268750D01*
G01*
G37*
G36*
G01*
X131375000Y-93368750D02*
X131375000Y-94331250D01*
G75*
G02*
X131106250Y-94600000I-268750J0D01*
G01*
X130568750Y-94600000D01*
G75*
G02*
X130300000Y-94331250I0J268750D01*
G01*
X130300000Y-93368750D01*
G75*
G02*
X130568750Y-93100000I268750J0D01*
G01*
X131106250Y-93100000D01*
G75*
G02*
X131375000Y-93368750I0J-268750D01*
G01*
G37*
%TD*%
%TO.C,R4*%
G36*
G01*
X129562500Y-91708750D02*
X129562500Y-92671250D01*
G75*
G02*
X129293750Y-92940000I-268750J0D01*
G01*
X128756250Y-92940000D01*
G75*
G02*
X128487500Y-92671250I0J268750D01*
G01*
X128487500Y-91708750D01*
G75*
G02*
X128756250Y-91440000I268750J0D01*
G01*
X129293750Y-91440000D01*
G75*
G02*
X129562500Y-91708750I0J-268750D01*
G01*
G37*
G36*
G01*
X131437500Y-91708750D02*
X131437500Y-92671250D01*
G75*
G02*
X131168750Y-92940000I-268750J0D01*
G01*
X130631250Y-92940000D01*
G75*
G02*
X130362500Y-92671250I0J268750D01*
G01*
X130362500Y-91708750D01*
G75*
G02*
X130631250Y-91440000I268750J0D01*
G01*
X131168750Y-91440000D01*
G75*
G02*
X131437500Y-91708750I0J-268750D01*
G01*
G37*
%TD*%
%TO.C,R3*%
G36*
G01*
X111024750Y-112081500D02*
X111987250Y-112081500D01*
G75*
G02*
X112256000Y-112350250I0J-268750D01*
G01*
X112256000Y-112887750D01*
G75*
G02*
X111987250Y-113156500I-268750J0D01*
G01*
X111024750Y-113156500D01*
G75*
G02*
X110756000Y-112887750I0J268750D01*
G01*
X110756000Y-112350250D01*
G75*
G02*
X111024750Y-112081500I268750J0D01*
G01*
G37*
G36*
G01*
X111024750Y-110206500D02*
X111987250Y-110206500D01*
G75*
G02*
X112256000Y-110475250I0J-268750D01*
G01*
X112256000Y-111012750D01*
G75*
G02*
X111987250Y-111281500I-268750J0D01*
G01*
X111024750Y-111281500D01*
G75*
G02*
X110756000Y-111012750I0J268750D01*
G01*
X110756000Y-110475250D01*
G75*
G02*
X111024750Y-110206500I268750J0D01*
G01*
G37*
%TD*%
%TO.C,C10*%
G36*
G01*
X125162500Y-102481250D02*
X125162500Y-101518750D01*
G75*
G02*
X125431250Y-101250000I268750J0D01*
G01*
X125968750Y-101250000D01*
G75*
G02*
X126237500Y-101518750I0J-268750D01*
G01*
X126237500Y-102481250D01*
G75*
G02*
X125968750Y-102750000I-268750J0D01*
G01*
X125431250Y-102750000D01*
G75*
G02*
X125162500Y-102481250I0J268750D01*
G01*
G37*
G36*
G01*
X123287500Y-102481250D02*
X123287500Y-101518750D01*
G75*
G02*
X123556250Y-101250000I268750J0D01*
G01*
X124093750Y-101250000D01*
G75*
G02*
X124362500Y-101518750I0J-268750D01*
G01*
X124362500Y-102481250D01*
G75*
G02*
X124093750Y-102750000I-268750J0D01*
G01*
X123556250Y-102750000D01*
G75*
G02*
X123287500Y-102481250I0J268750D01*
G01*
G37*
%TD*%
%TO.C,C9*%
G36*
G01*
X127986500Y-90397250D02*
X127986500Y-89434750D01*
G75*
G02*
X128255250Y-89166000I268750J0D01*
G01*
X128792750Y-89166000D01*
G75*
G02*
X129061500Y-89434750I0J-268750D01*
G01*
X129061500Y-90397250D01*
G75*
G02*
X128792750Y-90666000I-268750J0D01*
G01*
X128255250Y-90666000D01*
G75*
G02*
X127986500Y-90397250I0J268750D01*
G01*
G37*
G36*
G01*
X126111500Y-90397250D02*
X126111500Y-89434750D01*
G75*
G02*
X126380250Y-89166000I268750J0D01*
G01*
X126917750Y-89166000D01*
G75*
G02*
X127186500Y-89434750I0J-268750D01*
G01*
X127186500Y-90397250D01*
G75*
G02*
X126917750Y-90666000I-268750J0D01*
G01*
X126380250Y-90666000D01*
G75*
G02*
X126111500Y-90397250I0J268750D01*
G01*
G37*
%TD*%
%TO.C,C8*%
G36*
G01*
X108500000Y-91081250D02*
X108500000Y-90118750D01*
G75*
G02*
X108768750Y-89850000I268750J0D01*
G01*
X109306250Y-89850000D01*
G75*
G02*
X109575000Y-90118750I0J-268750D01*
G01*
X109575000Y-91081250D01*
G75*
G02*
X109306250Y-91350000I-268750J0D01*
G01*
X108768750Y-91350000D01*
G75*
G02*
X108500000Y-91081250I0J268750D01*
G01*
G37*
G36*
G01*
X106625000Y-91081250D02*
X106625000Y-90118750D01*
G75*
G02*
X106893750Y-89850000I268750J0D01*
G01*
X107431250Y-89850000D01*
G75*
G02*
X107700000Y-90118750I0J-268750D01*
G01*
X107700000Y-91081250D01*
G75*
G02*
X107431250Y-91350000I-268750J0D01*
G01*
X106893750Y-91350000D01*
G75*
G02*
X106625000Y-91081250I0J268750D01*
G01*
G37*
%TD*%
%TO.C,C7*%
G36*
G01*
X108233500Y-96546750D02*
X108233500Y-97509250D01*
G75*
G02*
X107964750Y-97778000I-268750J0D01*
G01*
X107427250Y-97778000D01*
G75*
G02*
X107158500Y-97509250I0J268750D01*
G01*
X107158500Y-96546750D01*
G75*
G02*
X107427250Y-96278000I268750J0D01*
G01*
X107964750Y-96278000D01*
G75*
G02*
X108233500Y-96546750I0J-268750D01*
G01*
G37*
G36*
G01*
X110108500Y-96546750D02*
X110108500Y-97509250D01*
G75*
G02*
X109839750Y-97778000I-268750J0D01*
G01*
X109302250Y-97778000D01*
G75*
G02*
X109033500Y-97509250I0J268750D01*
G01*
X109033500Y-96546750D01*
G75*
G02*
X109302250Y-96278000I268750J0D01*
G01*
X109839750Y-96278000D01*
G75*
G02*
X110108500Y-96546750I0J-268750D01*
G01*
G37*
%TD*%
%TO.C,C5*%
G36*
G01*
X123160500Y-105637250D02*
X123160500Y-104674750D01*
G75*
G02*
X123429250Y-104406000I268750J0D01*
G01*
X123966750Y-104406000D01*
G75*
G02*
X124235500Y-104674750I0J-268750D01*
G01*
X124235500Y-105637250D01*
G75*
G02*
X123966750Y-105906000I-268750J0D01*
G01*
X123429250Y-105906000D01*
G75*
G02*
X123160500Y-105637250I0J268750D01*
G01*
G37*
G36*
G01*
X121285500Y-105637250D02*
X121285500Y-104674750D01*
G75*
G02*
X121554250Y-104406000I268750J0D01*
G01*
X122091750Y-104406000D01*
G75*
G02*
X122360500Y-104674750I0J-268750D01*
G01*
X122360500Y-105637250D01*
G75*
G02*
X122091750Y-105906000I-268750J0D01*
G01*
X121554250Y-105906000D01*
G75*
G02*
X121285500Y-105637250I0J268750D01*
G01*
G37*
%TD*%
%TO.C,C4*%
G36*
G01*
X126081250Y-99362500D02*
X125118750Y-99362500D01*
G75*
G02*
X124850000Y-99093750I0J268750D01*
G01*
X124850000Y-98556250D01*
G75*
G02*
X125118750Y-98287500I268750J0D01*
G01*
X126081250Y-98287500D01*
G75*
G02*
X126350000Y-98556250I0J-268750D01*
G01*
X126350000Y-99093750D01*
G75*
G02*
X126081250Y-99362500I-268750J0D01*
G01*
G37*
G36*
G01*
X126081250Y-101237500D02*
X125118750Y-101237500D01*
G75*
G02*
X124850000Y-100968750I0J268750D01*
G01*
X124850000Y-100431250D01*
G75*
G02*
X125118750Y-100162500I268750J0D01*
G01*
X126081250Y-100162500D01*
G75*
G02*
X126350000Y-100431250I0J-268750D01*
G01*
X126350000Y-100968750D01*
G75*
G02*
X126081250Y-101237500I-268750J0D01*
G01*
G37*
%TD*%
%TO.C,C3*%
G36*
G01*
X110512500Y-99218750D02*
X110512500Y-100181250D01*
G75*
G02*
X110243750Y-100450000I-268750J0D01*
G01*
X109706250Y-100450000D01*
G75*
G02*
X109437500Y-100181250I0J268750D01*
G01*
X109437500Y-99218750D01*
G75*
G02*
X109706250Y-98950000I268750J0D01*
G01*
X110243750Y-98950000D01*
G75*
G02*
X110512500Y-99218750I0J-268750D01*
G01*
G37*
G36*
G01*
X112387500Y-99218750D02*
X112387500Y-100181250D01*
G75*
G02*
X112118750Y-100450000I-268750J0D01*
G01*
X111581250Y-100450000D01*
G75*
G02*
X111312500Y-100181250I0J268750D01*
G01*
X111312500Y-99218750D01*
G75*
G02*
X111581250Y-98950000I268750J0D01*
G01*
X112118750Y-98950000D01*
G75*
G02*
X112387500Y-99218750I0J-268750D01*
G01*
G37*
%TD*%
%TO.C,C2*%
G36*
G01*
X123668500Y-90397250D02*
X123668500Y-89434750D01*
G75*
G02*
X123937250Y-89166000I268750J0D01*
G01*
X124474750Y-89166000D01*
G75*
G02*
X124743500Y-89434750I0J-268750D01*
G01*
X124743500Y-90397250D01*
G75*
G02*
X124474750Y-90666000I-268750J0D01*
G01*
X123937250Y-90666000D01*
G75*
G02*
X123668500Y-90397250I0J268750D01*
G01*
G37*
G36*
G01*
X121793500Y-90397250D02*
X121793500Y-89434750D01*
G75*
G02*
X122062250Y-89166000I268750J0D01*
G01*
X122599750Y-89166000D01*
G75*
G02*
X122868500Y-89434750I0J-268750D01*
G01*
X122868500Y-90397250D01*
G75*
G02*
X122599750Y-90666000I-268750J0D01*
G01*
X122062250Y-90666000D01*
G75*
G02*
X121793500Y-90397250I0J268750D01*
G01*
G37*
%TD*%
%TO.C,C1*%
G36*
G01*
X112200500Y-89434750D02*
X112200500Y-90397250D01*
G75*
G02*
X111931750Y-90666000I-268750J0D01*
G01*
X111394250Y-90666000D01*
G75*
G02*
X111125500Y-90397250I0J268750D01*
G01*
X111125500Y-89434750D01*
G75*
G02*
X111394250Y-89166000I268750J0D01*
G01*
X111931750Y-89166000D01*
G75*
G02*
X112200500Y-89434750I0J-268750D01*
G01*
G37*
G36*
G01*
X114075500Y-89434750D02*
X114075500Y-90397250D01*
G75*
G02*
X113806750Y-90666000I-268750J0D01*
G01*
X113269250Y-90666000D01*
G75*
G02*
X113000500Y-90397250I0J268750D01*
G01*
X113000500Y-89434750D01*
G75*
G02*
X113269250Y-89166000I268750J0D01*
G01*
X113806750Y-89166000D01*
G75*
G02*
X114075500Y-89434750I0J-268750D01*
G01*
G37*
%TD*%
%TO.C,C6*%
G36*
G01*
X130418750Y-94812500D02*
X131381250Y-94812500D01*
G75*
G02*
X131650000Y-95081250I0J-268750D01*
G01*
X131650000Y-95618750D01*
G75*
G02*
X131381250Y-95887500I-268750J0D01*
G01*
X130418750Y-95887500D01*
G75*
G02*
X130150000Y-95618750I0J268750D01*
G01*
X130150000Y-95081250D01*
G75*
G02*
X130418750Y-94812500I268750J0D01*
G01*
G37*
G36*
G01*
X130418750Y-96687500D02*
X131381250Y-96687500D01*
G75*
G02*
X131650000Y-96956250I0J-268750D01*
G01*
X131650000Y-97493750D01*
G75*
G02*
X131381250Y-97762500I-268750J0D01*
G01*
X130418750Y-97762500D01*
G75*
G02*
X130150000Y-97493750I0J268750D01*
G01*
X130150000Y-96956250D01*
G75*
G02*
X130418750Y-96687500I268750J0D01*
G01*
G37*
%TD*%
D15*
%TO.C,U1*%
G36*
X118090000Y-93377689D02*
G01*
X121802311Y-97090000D01*
X118090000Y-100802311D01*
X114377689Y-97090000D01*
X118090000Y-93377689D01*
G37*
G36*
G01*
X122129348Y-97346327D02*
X122695034Y-97912012D01*
G75*
G02*
X122695034Y-98035756I-61872J-61872D01*
G01*
X122571290Y-98159500D01*
G75*
G02*
X122447546Y-98159500I-61872J61872D01*
G01*
X121881860Y-97593814D01*
G75*
G02*
X121881860Y-97470070I61872J61872D01*
G01*
X122005604Y-97346326D01*
G75*
G02*
X122129348Y-97346326I61872J-61872D01*
G01*
G37*
G36*
G01*
X121775794Y-97699880D02*
X122341480Y-98265565D01*
G75*
G02*
X122341480Y-98389309I-61872J-61872D01*
G01*
X122217736Y-98513053D01*
G75*
G02*
X122093992Y-98513053I-61872J61872D01*
G01*
X121528306Y-97947367D01*
G75*
G02*
X121528306Y-97823623I61872J61872D01*
G01*
X121652050Y-97699879D01*
G75*
G02*
X121775794Y-97699879I61872J-61872D01*
G01*
G37*
G36*
G01*
X121422241Y-98053433D02*
X121987927Y-98619118D01*
G75*
G02*
X121987927Y-98742862I-61872J-61872D01*
G01*
X121864183Y-98866606D01*
G75*
G02*
X121740439Y-98866606I-61872J61872D01*
G01*
X121174753Y-98300920D01*
G75*
G02*
X121174753Y-98177176I61872J61872D01*
G01*
X121298497Y-98053432D01*
G75*
G02*
X121422241Y-98053432I61872J-61872D01*
G01*
G37*
G36*
G01*
X121068687Y-98406987D02*
X121634373Y-98972672D01*
G75*
G02*
X121634373Y-99096416I-61872J-61872D01*
G01*
X121510629Y-99220160D01*
G75*
G02*
X121386885Y-99220160I-61872J61872D01*
G01*
X120821199Y-98654474D01*
G75*
G02*
X120821199Y-98530730I61872J61872D01*
G01*
X120944943Y-98406986D01*
G75*
G02*
X121068687Y-98406986I61872J-61872D01*
G01*
G37*
G36*
G01*
X120715134Y-98760540D02*
X121280820Y-99326225D01*
G75*
G02*
X121280820Y-99449969I-61872J-61872D01*
G01*
X121157076Y-99573713D01*
G75*
G02*
X121033332Y-99573713I-61872J61872D01*
G01*
X120467646Y-99008027D01*
G75*
G02*
X120467646Y-98884283I61872J61872D01*
G01*
X120591390Y-98760539D01*
G75*
G02*
X120715134Y-98760539I61872J-61872D01*
G01*
G37*
G36*
G01*
X120361581Y-99114094D02*
X120927267Y-99679779D01*
G75*
G02*
X120927267Y-99803523I-61872J-61872D01*
G01*
X120803523Y-99927267D01*
G75*
G02*
X120679779Y-99927267I-61872J61872D01*
G01*
X120114093Y-99361581D01*
G75*
G02*
X120114093Y-99237837I61872J61872D01*
G01*
X120237837Y-99114093D01*
G75*
G02*
X120361581Y-99114093I61872J-61872D01*
G01*
G37*
G36*
G01*
X120008027Y-99467647D02*
X120573713Y-100033332D01*
G75*
G02*
X120573713Y-100157076I-61872J-61872D01*
G01*
X120449969Y-100280820D01*
G75*
G02*
X120326225Y-100280820I-61872J61872D01*
G01*
X119760539Y-99715134D01*
G75*
G02*
X119760539Y-99591390I61872J61872D01*
G01*
X119884283Y-99467646D01*
G75*
G02*
X120008027Y-99467646I61872J-61872D01*
G01*
G37*
G36*
G01*
X119654474Y-99821200D02*
X120220160Y-100386885D01*
G75*
G02*
X120220160Y-100510629I-61872J-61872D01*
G01*
X120096416Y-100634373D01*
G75*
G02*
X119972672Y-100634373I-61872J61872D01*
G01*
X119406986Y-100068687D01*
G75*
G02*
X119406986Y-99944943I61872J61872D01*
G01*
X119530730Y-99821199D01*
G75*
G02*
X119654474Y-99821199I61872J-61872D01*
G01*
G37*
G36*
G01*
X119300920Y-100174754D02*
X119866606Y-100740439D01*
G75*
G02*
X119866606Y-100864183I-61872J-61872D01*
G01*
X119742862Y-100987927D01*
G75*
G02*
X119619118Y-100987927I-61872J61872D01*
G01*
X119053432Y-100422241D01*
G75*
G02*
X119053432Y-100298497I61872J61872D01*
G01*
X119177176Y-100174753D01*
G75*
G02*
X119300920Y-100174753I61872J-61872D01*
G01*
G37*
G36*
G01*
X118947367Y-100528307D02*
X119513053Y-101093992D01*
G75*
G02*
X119513053Y-101217736I-61872J-61872D01*
G01*
X119389309Y-101341480D01*
G75*
G02*
X119265565Y-101341480I-61872J61872D01*
G01*
X118699879Y-100775794D01*
G75*
G02*
X118699879Y-100652050I61872J61872D01*
G01*
X118823623Y-100528306D01*
G75*
G02*
X118947367Y-100528306I61872J-61872D01*
G01*
G37*
G36*
G01*
X118593814Y-100881861D02*
X119159500Y-101447546D01*
G75*
G02*
X119159500Y-101571290I-61872J-61872D01*
G01*
X119035756Y-101695034D01*
G75*
G02*
X118912012Y-101695034I-61872J61872D01*
G01*
X118346326Y-101129348D01*
G75*
G02*
X118346326Y-101005604I61872J61872D01*
G01*
X118470070Y-100881860D01*
G75*
G02*
X118593814Y-100881860I61872J-61872D01*
G01*
G37*
G36*
G01*
X117709930Y-100881861D02*
X117833674Y-101005604D01*
G75*
G02*
X117833674Y-101129348I-61872J-61872D01*
G01*
X117267988Y-101695034D01*
G75*
G02*
X117144244Y-101695034I-61872J61872D01*
G01*
X117020500Y-101571290D01*
G75*
G02*
X117020500Y-101447546I61872J61872D01*
G01*
X117586186Y-100881860D01*
G75*
G02*
X117709930Y-100881860I61872J-61872D01*
G01*
G37*
G36*
G01*
X117356377Y-100528307D02*
X117480121Y-100652050D01*
G75*
G02*
X117480121Y-100775794I-61872J-61872D01*
G01*
X116914435Y-101341480D01*
G75*
G02*
X116790691Y-101341480I-61872J61872D01*
G01*
X116666947Y-101217736D01*
G75*
G02*
X116666947Y-101093992I61872J61872D01*
G01*
X117232633Y-100528306D01*
G75*
G02*
X117356377Y-100528306I61872J-61872D01*
G01*
G37*
G36*
G01*
X117002824Y-100174754D02*
X117126568Y-100298497D01*
G75*
G02*
X117126568Y-100422241I-61872J-61872D01*
G01*
X116560882Y-100987927D01*
G75*
G02*
X116437138Y-100987927I-61872J61872D01*
G01*
X116313394Y-100864183D01*
G75*
G02*
X116313394Y-100740439I61872J61872D01*
G01*
X116879080Y-100174753D01*
G75*
G02*
X117002824Y-100174753I61872J-61872D01*
G01*
G37*
G36*
G01*
X116649270Y-99821200D02*
X116773014Y-99944943D01*
G75*
G02*
X116773014Y-100068687I-61872J-61872D01*
G01*
X116207328Y-100634373D01*
G75*
G02*
X116083584Y-100634373I-61872J61872D01*
G01*
X115959840Y-100510629D01*
G75*
G02*
X115959840Y-100386885I61872J61872D01*
G01*
X116525526Y-99821199D01*
G75*
G02*
X116649270Y-99821199I61872J-61872D01*
G01*
G37*
G36*
G01*
X116295717Y-99467647D02*
X116419461Y-99591390D01*
G75*
G02*
X116419461Y-99715134I-61872J-61872D01*
G01*
X115853775Y-100280820D01*
G75*
G02*
X115730031Y-100280820I-61872J61872D01*
G01*
X115606287Y-100157076D01*
G75*
G02*
X115606287Y-100033332I61872J61872D01*
G01*
X116171973Y-99467646D01*
G75*
G02*
X116295717Y-99467646I61872J-61872D01*
G01*
G37*
G36*
G01*
X115942163Y-99114094D02*
X116065907Y-99237837D01*
G75*
G02*
X116065907Y-99361581I-61872J-61872D01*
G01*
X115500221Y-99927267D01*
G75*
G02*
X115376477Y-99927267I-61872J61872D01*
G01*
X115252733Y-99803523D01*
G75*
G02*
X115252733Y-99679779I61872J61872D01*
G01*
X115818419Y-99114093D01*
G75*
G02*
X115942163Y-99114093I61872J-61872D01*
G01*
G37*
G36*
G01*
X115588610Y-98760540D02*
X115712354Y-98884283D01*
G75*
G02*
X115712354Y-99008027I-61872J-61872D01*
G01*
X115146668Y-99573713D01*
G75*
G02*
X115022924Y-99573713I-61872J61872D01*
G01*
X114899180Y-99449969D01*
G75*
G02*
X114899180Y-99326225I61872J61872D01*
G01*
X115464866Y-98760539D01*
G75*
G02*
X115588610Y-98760539I61872J-61872D01*
G01*
G37*
G36*
G01*
X115235057Y-98406987D02*
X115358801Y-98530730D01*
G75*
G02*
X115358801Y-98654474I-61872J-61872D01*
G01*
X114793115Y-99220160D01*
G75*
G02*
X114669371Y-99220160I-61872J61872D01*
G01*
X114545627Y-99096416D01*
G75*
G02*
X114545627Y-98972672I61872J61872D01*
G01*
X115111313Y-98406986D01*
G75*
G02*
X115235057Y-98406986I61872J-61872D01*
G01*
G37*
G36*
G01*
X114881503Y-98053433D02*
X115005247Y-98177176D01*
G75*
G02*
X115005247Y-98300920I-61872J-61872D01*
G01*
X114439561Y-98866606D01*
G75*
G02*
X114315817Y-98866606I-61872J61872D01*
G01*
X114192073Y-98742862D01*
G75*
G02*
X114192073Y-98619118I61872J61872D01*
G01*
X114757759Y-98053432D01*
G75*
G02*
X114881503Y-98053432I61872J-61872D01*
G01*
G37*
G36*
G01*
X114527950Y-97699880D02*
X114651694Y-97823623D01*
G75*
G02*
X114651694Y-97947367I-61872J-61872D01*
G01*
X114086008Y-98513053D01*
G75*
G02*
X113962264Y-98513053I-61872J61872D01*
G01*
X113838520Y-98389309D01*
G75*
G02*
X113838520Y-98265565I61872J61872D01*
G01*
X114404206Y-97699879D01*
G75*
G02*
X114527950Y-97699879I61872J-61872D01*
G01*
G37*
G36*
G01*
X114174396Y-97346327D02*
X114298140Y-97470070D01*
G75*
G02*
X114298140Y-97593814I-61872J-61872D01*
G01*
X113732454Y-98159500D01*
G75*
G02*
X113608710Y-98159500I-61872J61872D01*
G01*
X113484966Y-98035756D01*
G75*
G02*
X113484966Y-97912012I61872J61872D01*
G01*
X114050652Y-97346326D01*
G75*
G02*
X114174396Y-97346326I61872J-61872D01*
G01*
G37*
G36*
G01*
X113732454Y-96020501D02*
X114298140Y-96586186D01*
G75*
G02*
X114298140Y-96709930I-61872J-61872D01*
G01*
X114174396Y-96833674D01*
G75*
G02*
X114050652Y-96833674I-61872J61872D01*
G01*
X113484966Y-96267988D01*
G75*
G02*
X113484966Y-96144244I61872J61872D01*
G01*
X113608710Y-96020500D01*
G75*
G02*
X113732454Y-96020500I61872J-61872D01*
G01*
G37*
G36*
G01*
X114086008Y-95666948D02*
X114651694Y-96232633D01*
G75*
G02*
X114651694Y-96356377I-61872J-61872D01*
G01*
X114527950Y-96480121D01*
G75*
G02*
X114404206Y-96480121I-61872J61872D01*
G01*
X113838520Y-95914435D01*
G75*
G02*
X113838520Y-95790691I61872J61872D01*
G01*
X113962264Y-95666947D01*
G75*
G02*
X114086008Y-95666947I61872J-61872D01*
G01*
G37*
G36*
G01*
X114439561Y-95313395D02*
X115005247Y-95879080D01*
G75*
G02*
X115005247Y-96002824I-61872J-61872D01*
G01*
X114881503Y-96126568D01*
G75*
G02*
X114757759Y-96126568I-61872J61872D01*
G01*
X114192073Y-95560882D01*
G75*
G02*
X114192073Y-95437138I61872J61872D01*
G01*
X114315817Y-95313394D01*
G75*
G02*
X114439561Y-95313394I61872J-61872D01*
G01*
G37*
G36*
G01*
X114793115Y-94959841D02*
X115358801Y-95525526D01*
G75*
G02*
X115358801Y-95649270I-61872J-61872D01*
G01*
X115235057Y-95773014D01*
G75*
G02*
X115111313Y-95773014I-61872J61872D01*
G01*
X114545627Y-95207328D01*
G75*
G02*
X114545627Y-95083584I61872J61872D01*
G01*
X114669371Y-94959840D01*
G75*
G02*
X114793115Y-94959840I61872J-61872D01*
G01*
G37*
G36*
G01*
X115146668Y-94606288D02*
X115712354Y-95171973D01*
G75*
G02*
X115712354Y-95295717I-61872J-61872D01*
G01*
X115588610Y-95419461D01*
G75*
G02*
X115464866Y-95419461I-61872J61872D01*
G01*
X114899180Y-94853775D01*
G75*
G02*
X114899180Y-94730031I61872J61872D01*
G01*
X115022924Y-94606287D01*
G75*
G02*
X115146668Y-94606287I61872J-61872D01*
G01*
G37*
G36*
G01*
X115500221Y-94252734D02*
X116065907Y-94818419D01*
G75*
G02*
X116065907Y-94942163I-61872J-61872D01*
G01*
X115942163Y-95065907D01*
G75*
G02*
X115818419Y-95065907I-61872J61872D01*
G01*
X115252733Y-94500221D01*
G75*
G02*
X115252733Y-94376477I61872J61872D01*
G01*
X115376477Y-94252733D01*
G75*
G02*
X115500221Y-94252733I61872J-61872D01*
G01*
G37*
G36*
G01*
X115853775Y-93899181D02*
X116419461Y-94464866D01*
G75*
G02*
X116419461Y-94588610I-61872J-61872D01*
G01*
X116295717Y-94712354D01*
G75*
G02*
X116171973Y-94712354I-61872J61872D01*
G01*
X115606287Y-94146668D01*
G75*
G02*
X115606287Y-94022924I61872J61872D01*
G01*
X115730031Y-93899180D01*
G75*
G02*
X115853775Y-93899180I61872J-61872D01*
G01*
G37*
G36*
G01*
X116207328Y-93545628D02*
X116773014Y-94111313D01*
G75*
G02*
X116773014Y-94235057I-61872J-61872D01*
G01*
X116649270Y-94358801D01*
G75*
G02*
X116525526Y-94358801I-61872J61872D01*
G01*
X115959840Y-93793115D01*
G75*
G02*
X115959840Y-93669371I61872J61872D01*
G01*
X116083584Y-93545627D01*
G75*
G02*
X116207328Y-93545627I61872J-61872D01*
G01*
G37*
G36*
G01*
X116560882Y-93192074D02*
X117126568Y-93757759D01*
G75*
G02*
X117126568Y-93881503I-61872J-61872D01*
G01*
X117002824Y-94005247D01*
G75*
G02*
X116879080Y-94005247I-61872J61872D01*
G01*
X116313394Y-93439561D01*
G75*
G02*
X116313394Y-93315817I61872J61872D01*
G01*
X116437138Y-93192073D01*
G75*
G02*
X116560882Y-93192073I61872J-61872D01*
G01*
G37*
G36*
G01*
X116914435Y-92838521D02*
X117480121Y-93404206D01*
G75*
G02*
X117480121Y-93527950I-61872J-61872D01*
G01*
X117356377Y-93651694D01*
G75*
G02*
X117232633Y-93651694I-61872J61872D01*
G01*
X116666947Y-93086008D01*
G75*
G02*
X116666947Y-92962264I61872J61872D01*
G01*
X116790691Y-92838520D01*
G75*
G02*
X116914435Y-92838520I61872J-61872D01*
G01*
G37*
G36*
G01*
X117267988Y-92484967D02*
X117833674Y-93050652D01*
G75*
G02*
X117833674Y-93174396I-61872J-61872D01*
G01*
X117709930Y-93298140D01*
G75*
G02*
X117586186Y-93298140I-61872J61872D01*
G01*
X117020500Y-92732454D01*
G75*
G02*
X117020500Y-92608710I61872J61872D01*
G01*
X117144244Y-92484966D01*
G75*
G02*
X117267988Y-92484966I61872J-61872D01*
G01*
G37*
G36*
G01*
X119035756Y-92484967D02*
X119159500Y-92608710D01*
G75*
G02*
X119159500Y-92732454I-61872J-61872D01*
G01*
X118593814Y-93298140D01*
G75*
G02*
X118470070Y-93298140I-61872J61872D01*
G01*
X118346326Y-93174396D01*
G75*
G02*
X118346326Y-93050652I61872J61872D01*
G01*
X118912012Y-92484966D01*
G75*
G02*
X119035756Y-92484966I61872J-61872D01*
G01*
G37*
G36*
G01*
X119389309Y-92838521D02*
X119513053Y-92962264D01*
G75*
G02*
X119513053Y-93086008I-61872J-61872D01*
G01*
X118947367Y-93651694D01*
G75*
G02*
X118823623Y-93651694I-61872J61872D01*
G01*
X118699879Y-93527950D01*
G75*
G02*
X118699879Y-93404206I61872J61872D01*
G01*
X119265565Y-92838520D01*
G75*
G02*
X119389309Y-92838520I61872J-61872D01*
G01*
G37*
G36*
G01*
X119742862Y-93192074D02*
X119866606Y-93315817D01*
G75*
G02*
X119866606Y-93439561I-61872J-61872D01*
G01*
X119300920Y-94005247D01*
G75*
G02*
X119177176Y-94005247I-61872J61872D01*
G01*
X119053432Y-93881503D01*
G75*
G02*
X119053432Y-93757759I61872J61872D01*
G01*
X119619118Y-93192073D01*
G75*
G02*
X119742862Y-93192073I61872J-61872D01*
G01*
G37*
G36*
G01*
X120096416Y-93545628D02*
X120220160Y-93669371D01*
G75*
G02*
X120220160Y-93793115I-61872J-61872D01*
G01*
X119654474Y-94358801D01*
G75*
G02*
X119530730Y-94358801I-61872J61872D01*
G01*
X119406986Y-94235057D01*
G75*
G02*
X119406986Y-94111313I61872J61872D01*
G01*
X119972672Y-93545627D01*
G75*
G02*
X120096416Y-93545627I61872J-61872D01*
G01*
G37*
G36*
G01*
X120449969Y-93899181D02*
X120573713Y-94022924D01*
G75*
G02*
X120573713Y-94146668I-61872J-61872D01*
G01*
X120008027Y-94712354D01*
G75*
G02*
X119884283Y-94712354I-61872J61872D01*
G01*
X119760539Y-94588610D01*
G75*
G02*
X119760539Y-94464866I61872J61872D01*
G01*
X120326225Y-93899180D01*
G75*
G02*
X120449969Y-93899180I61872J-61872D01*
G01*
G37*
G36*
G01*
X120803523Y-94252734D02*
X120927267Y-94376477D01*
G75*
G02*
X120927267Y-94500221I-61872J-61872D01*
G01*
X120361581Y-95065907D01*
G75*
G02*
X120237837Y-95065907I-61872J61872D01*
G01*
X120114093Y-94942163D01*
G75*
G02*
X120114093Y-94818419I61872J61872D01*
G01*
X120679779Y-94252733D01*
G75*
G02*
X120803523Y-94252733I61872J-61872D01*
G01*
G37*
G36*
G01*
X121157076Y-94606288D02*
X121280820Y-94730031D01*
G75*
G02*
X121280820Y-94853775I-61872J-61872D01*
G01*
X120715134Y-95419461D01*
G75*
G02*
X120591390Y-95419461I-61872J61872D01*
G01*
X120467646Y-95295717D01*
G75*
G02*
X120467646Y-95171973I61872J61872D01*
G01*
X121033332Y-94606287D01*
G75*
G02*
X121157076Y-94606287I61872J-61872D01*
G01*
G37*
G36*
G01*
X121510629Y-94959841D02*
X121634373Y-95083584D01*
G75*
G02*
X121634373Y-95207328I-61872J-61872D01*
G01*
X121068687Y-95773014D01*
G75*
G02*
X120944943Y-95773014I-61872J61872D01*
G01*
X120821199Y-95649270D01*
G75*
G02*
X120821199Y-95525526I61872J61872D01*
G01*
X121386885Y-94959840D01*
G75*
G02*
X121510629Y-94959840I61872J-61872D01*
G01*
G37*
G36*
G01*
X121864183Y-95313395D02*
X121987927Y-95437138D01*
G75*
G02*
X121987927Y-95560882I-61872J-61872D01*
G01*
X121422241Y-96126568D01*
G75*
G02*
X121298497Y-96126568I-61872J61872D01*
G01*
X121174753Y-96002824D01*
G75*
G02*
X121174753Y-95879080I61872J61872D01*
G01*
X121740439Y-95313394D01*
G75*
G02*
X121864183Y-95313394I61872J-61872D01*
G01*
G37*
G36*
G01*
X122217736Y-95666948D02*
X122341480Y-95790691D01*
G75*
G02*
X122341480Y-95914435I-61872J-61872D01*
G01*
X121775794Y-96480121D01*
G75*
G02*
X121652050Y-96480121I-61872J61872D01*
G01*
X121528306Y-96356377D01*
G75*
G02*
X121528306Y-96232633I61872J61872D01*
G01*
X122093992Y-95666947D01*
G75*
G02*
X122217736Y-95666947I61872J-61872D01*
G01*
G37*
G36*
G01*
X122571290Y-96020501D02*
X122695034Y-96144244D01*
G75*
G02*
X122695034Y-96267988I-61872J-61872D01*
G01*
X122129348Y-96833674D01*
G75*
G02*
X122005604Y-96833674I-61872J61872D01*
G01*
X121881860Y-96709930D01*
G75*
G02*
X121881860Y-96586186I61872J61872D01*
G01*
X122447546Y-96020500D01*
G75*
G02*
X122571290Y-96020500I61872J-61872D01*
G01*
G37*
%TD*%
D12*
%TO.C,MX5*%
X204510000Y-99840000D03*
D13*
X207050000Y-104920000D03*
D12*
X210860000Y-102380000D03*
D14*
X212130000Y-104920000D03*
X201970000Y-104920000D03*
%TD*%
D12*
%TO.C,MX4*%
X185460000Y-99840000D03*
D13*
X188000000Y-104920000D03*
D12*
X191810000Y-102380000D03*
D14*
X193080000Y-104920000D03*
X182920000Y-104920000D03*
%TD*%
D12*
%TO.C,MX3*%
X166410000Y-99840000D03*
D13*
X168950000Y-104920000D03*
D12*
X172760000Y-102380000D03*
D14*
X174030000Y-104920000D03*
X163870000Y-104920000D03*
%TD*%
%TO.C,MX2*%
X144820000Y-104920000D03*
X154980000Y-104920000D03*
D12*
X153710000Y-102380000D03*
D13*
X149900000Y-104920000D03*
D12*
X147360000Y-99840000D03*
%TD*%
D14*
%TO.C,MX1*%
X125770000Y-104920000D03*
X135930000Y-104920000D03*
D12*
X134660000Y-102380000D03*
D13*
X130850000Y-104920000D03*
D12*
X128310000Y-99840000D03*
%TD*%
D16*
%TO.C,J1*%
X97810000Y-96240000D03*
X97810000Y-93700000D03*
X100350000Y-96240000D03*
X100350000Y-93700000D03*
X102890000Y-96240000D03*
D17*
X102890000Y-93700000D03*
%TD*%
D18*
%TO.C,SW1*%
X122936000Y-112766000D03*
X116636000Y-112766000D03*
X122936000Y-108966000D03*
X116636000Y-108966000D03*
%TD*%
D19*
%TO.C,J2*%
X133960000Y-89510000D03*
X133960000Y-96810000D03*
D20*
X133360000Y-94760000D03*
X134560000Y-93960000D03*
X133360000Y-93160000D03*
X134560000Y-92360000D03*
X133360000Y-91560000D03*
D19*
X138780000Y-96810000D03*
X138780000Y-89510000D03*
%TD*%
D21*
%TO.C,X1*%
X107620000Y-94996000D03*
X107620000Y-92796000D03*
X109220000Y-92796000D03*
X109220000Y-94996000D03*
%TD*%
D17*
%TO.C,SW2*%
X109450000Y-102360000D03*
X109450000Y-107440000D03*
X91350000Y-104900000D03*
X91350000Y-102360000D03*
X91350000Y-107440000D03*
%TD*%
M02*
