%TF.GenerationSoftware,KiCad,Pcbnew,(6.0.1)*%
%TF.CreationDate,2022-04-18T11:29:40-05:00*%
%TF.ProjectId,Pikatea R26 Kit LED Macropad,50696b61-7465-4612-9052-3236204b6974,rev?*%
%TF.SameCoordinates,Original*%
%TF.FileFunction,Soldermask,Bot*%
%TF.FilePolarity,Negative*%
%FSLAX46Y46*%
G04 Gerber Fmt 4.6, Leading zero omitted, Abs format (unit mm)*
G04 Created by KiCad (PCBNEW (6.0.1)) date 2022-04-18 11:29:40*
%MOMM*%
%LPD*%
G01*
G04 APERTURE LIST*
%ADD10C,1.750000*%
%ADD11C,3.987800*%
%ADD12C,1.600000*%
%ADD13R,1.600000X1.600000*%
%ADD14R,1.700000X1.700000*%
G04 APERTURE END LIST*
D10*
%TO.C,MX8*%
X89971479Y-88323660D03*
D11*
X95051479Y-88323660D03*
D10*
X100131479Y-88323660D03*
%TD*%
%TO.C,MX7*%
X109021480Y-88323660D03*
D11*
X114101480Y-88323660D03*
D10*
X119181480Y-88323660D03*
%TD*%
%TO.C,MX6*%
X175021480Y-88323660D03*
D11*
X180101480Y-88323660D03*
D10*
X185181480Y-88323660D03*
%TD*%
%TO.C,MX5*%
X194071480Y-88323660D03*
D11*
X199151480Y-88323660D03*
D10*
X204231480Y-88323660D03*
%TD*%
%TO.C,MX4*%
X89971479Y-107373660D03*
D11*
X95051479Y-107373660D03*
D10*
X100131479Y-107373660D03*
%TD*%
%TO.C,MX3*%
X109021480Y-107373659D03*
D11*
X114101480Y-107373659D03*
D10*
X119181480Y-107373659D03*
%TD*%
%TO.C,MX2*%
X175021480Y-107373659D03*
D11*
X180101480Y-107373659D03*
D10*
X185181480Y-107373659D03*
%TD*%
%TO.C,MX1*%
X194071480Y-107373659D03*
D11*
X199151480Y-107373659D03*
D10*
X204231480Y-107373659D03*
%TD*%
D12*
%TO.C,U1*%
X171221400Y-76415900D03*
X171221400Y-78955900D03*
X171221400Y-81495900D03*
X171221400Y-84035900D03*
X171221400Y-86575900D03*
X171221400Y-89115900D03*
X171221400Y-91655900D03*
X171221400Y-94195900D03*
X171221400Y-96735900D03*
X171221400Y-99275900D03*
X171221400Y-101815900D03*
X171221400Y-104355900D03*
X155981400Y-104355900D03*
X155981400Y-101815900D03*
X155981400Y-99275900D03*
X155981400Y-96735900D03*
X155981400Y-94195900D03*
X155981400Y-91655900D03*
X155981400Y-89115900D03*
X155981400Y-86575900D03*
X155981400Y-84035900D03*
X155981400Y-81495900D03*
X155981400Y-78955900D03*
D13*
X155981400Y-76415900D03*
%TD*%
D14*
%TO.C,SW3*%
X144531080Y-88798659D03*
X149611080Y-88798659D03*
X147071080Y-106898659D03*
X144531080Y-106898659D03*
X149611080Y-106898659D03*
%TD*%
M02*
