M48
; DRILL file {KiCad (6.0.1)} date Mon Apr 18 11:29:43 2022
; FORMAT={-:-/ absolute / inch / decimal}
; #@! TF.CreationDate,2022-04-18T11:29:43-05:00
; #@! TF.GenerationSoftware,Kicad,Pcbnew,(6.0.1)
; #@! TF.FileFunction,NonPlated,1,2,NPTH
FMAT,2
INCH
; #@! TA.AperFunction,NonPlated,NPTH,ComponentDrill
T1C0.0689
; #@! TA.AperFunction,NonPlated,NPTH,ComponentDrill
T2C0.1570
%
G90
G05
T1
X3.5422Y-3.4773
X3.5422Y-4.2273
X3.9422Y-3.4773
X3.9422Y-4.2273
X4.2922Y-3.4773
X4.2922Y-4.2273
X4.6922Y-3.4773
X4.6922Y-4.2273
X6.8906Y-3.4773
X6.8906Y-4.2273
X7.2906Y-3.4773
X7.2906Y-4.2273
X7.6406Y-3.4773
X7.6406Y-4.2273
X8.0406Y-3.4773
X8.0406Y-4.2273
T2
X3.7422Y-3.4773
X3.7422Y-4.2273
X4.4922Y-3.4773
X4.4922Y-4.2273
X7.0906Y-3.4773
X7.0906Y-4.2273
X7.8406Y-3.4773
X7.8406Y-4.2273
T0
M30
