%TF.GenerationSoftware,KiCad,Pcbnew,(6.0.1)*%
%TF.CreationDate,2022-04-18T11:29:40-05:00*%
%TF.ProjectId,Pikatea R26 Kit LED Macropad,50696b61-7465-4612-9052-3236204b6974,rev?*%
%TF.SameCoordinates,Original*%
%TF.FileFunction,Legend,Top*%
%TF.FilePolarity,Positive*%
%FSLAX46Y46*%
G04 Gerber Fmt 4.6, Leading zero omitted, Abs format (unit mm)*
G04 Created by KiCad (PCBNEW (6.0.1)) date 2022-04-18 11:29:40*
%MOMM*%
%LPD*%
G01*
G04 APERTURE LIST*
%ADD10C,0.475000*%
%ADD11C,0.150000*%
%ADD12C,0.100000*%
%ADD13C,0.120000*%
%ADD14C,1.600000*%
%ADD15R,1.600000X1.600000*%
G04 APERTURE END LIST*
D10*
X173861130Y-78680023D02*
X173861130Y-76780023D01*
X174584940Y-76780023D01*
X174765892Y-76870500D01*
X174856369Y-76960976D01*
X174946845Y-77141928D01*
X174946845Y-77413357D01*
X174856369Y-77594309D01*
X174765892Y-77684785D01*
X174584940Y-77775261D01*
X173861130Y-77775261D01*
X175761130Y-78680023D02*
X175761130Y-77413357D01*
X175761130Y-76780023D02*
X175670654Y-76870500D01*
X175761130Y-76960976D01*
X175851607Y-76870500D01*
X175761130Y-76780023D01*
X175761130Y-76960976D01*
X176665892Y-78680023D02*
X176665892Y-76780023D01*
X176846845Y-77956214D02*
X177389702Y-78680023D01*
X177389702Y-77413357D02*
X176665892Y-78137166D01*
X179018273Y-78680023D02*
X179018273Y-77684785D01*
X178927797Y-77503833D01*
X178746845Y-77413357D01*
X178384940Y-77413357D01*
X178203988Y-77503833D01*
X179018273Y-78589547D02*
X178837321Y-78680023D01*
X178384940Y-78680023D01*
X178203988Y-78589547D01*
X178113511Y-78408595D01*
X178113511Y-78227642D01*
X178203988Y-78046690D01*
X178384940Y-77956214D01*
X178837321Y-77956214D01*
X179018273Y-77865738D01*
X179651607Y-77413357D02*
X180375416Y-77413357D01*
X179923035Y-76780023D02*
X179923035Y-78408595D01*
X180013511Y-78589547D01*
X180194464Y-78680023D01*
X180375416Y-78680023D01*
X181732559Y-78589547D02*
X181551607Y-78680023D01*
X181189702Y-78680023D01*
X181008750Y-78589547D01*
X180918273Y-78408595D01*
X180918273Y-77684785D01*
X181008750Y-77503833D01*
X181189702Y-77413357D01*
X181551607Y-77413357D01*
X181732559Y-77503833D01*
X181823035Y-77684785D01*
X181823035Y-77865738D01*
X180918273Y-78046690D01*
X183451607Y-78680023D02*
X183451607Y-77684785D01*
X183361130Y-77503833D01*
X183180178Y-77413357D01*
X182818273Y-77413357D01*
X182637321Y-77503833D01*
X183451607Y-78589547D02*
X183270654Y-78680023D01*
X182818273Y-78680023D01*
X182637321Y-78589547D01*
X182546845Y-78408595D01*
X182546845Y-78227642D01*
X182637321Y-78046690D01*
X182818273Y-77956214D01*
X183270654Y-77956214D01*
X183451607Y-77865738D01*
X185803988Y-78680023D02*
X185803988Y-76780023D01*
X186437321Y-78137166D01*
X187070654Y-76780023D01*
X187070654Y-78680023D01*
X188789702Y-78680023D02*
X188789702Y-77684785D01*
X188699226Y-77503833D01*
X188518273Y-77413357D01*
X188156369Y-77413357D01*
X187975416Y-77503833D01*
X188789702Y-78589547D02*
X188608750Y-78680023D01*
X188156369Y-78680023D01*
X187975416Y-78589547D01*
X187884940Y-78408595D01*
X187884940Y-78227642D01*
X187975416Y-78046690D01*
X188156369Y-77956214D01*
X188608750Y-77956214D01*
X188789702Y-77865738D01*
X190508750Y-78589547D02*
X190327797Y-78680023D01*
X189965892Y-78680023D01*
X189784940Y-78589547D01*
X189694464Y-78499071D01*
X189603988Y-78318119D01*
X189603988Y-77775261D01*
X189694464Y-77594309D01*
X189784940Y-77503833D01*
X189965892Y-77413357D01*
X190327797Y-77413357D01*
X190508750Y-77503833D01*
X191323035Y-78680023D02*
X191323035Y-77413357D01*
X191323035Y-77775261D02*
X191413511Y-77594309D01*
X191503988Y-77503833D01*
X191684940Y-77413357D01*
X191865892Y-77413357D01*
X192770654Y-78680023D02*
X192589702Y-78589547D01*
X192499226Y-78499071D01*
X192408750Y-78318119D01*
X192408750Y-77775261D01*
X192499226Y-77594309D01*
X192589702Y-77503833D01*
X192770654Y-77413357D01*
X193042083Y-77413357D01*
X193223035Y-77503833D01*
X193313511Y-77594309D01*
X193403988Y-77775261D01*
X193403988Y-78318119D01*
X193313511Y-78499071D01*
X193223035Y-78589547D01*
X193042083Y-78680023D01*
X192770654Y-78680023D01*
X194218273Y-77413357D02*
X194218273Y-79313357D01*
X194218273Y-77503833D02*
X194399226Y-77413357D01*
X194761130Y-77413357D01*
X194942083Y-77503833D01*
X195032559Y-77594309D01*
X195123035Y-77775261D01*
X195123035Y-78318119D01*
X195032559Y-78499071D01*
X194942083Y-78589547D01*
X194761130Y-78680023D01*
X194399226Y-78680023D01*
X194218273Y-78589547D01*
X196751607Y-78680023D02*
X196751607Y-77684785D01*
X196661130Y-77503833D01*
X196480178Y-77413357D01*
X196118273Y-77413357D01*
X195937321Y-77503833D01*
X196751607Y-78589547D02*
X196570654Y-78680023D01*
X196118273Y-78680023D01*
X195937321Y-78589547D01*
X195846845Y-78408595D01*
X195846845Y-78227642D01*
X195937321Y-78046690D01*
X196118273Y-77956214D01*
X196570654Y-77956214D01*
X196751607Y-77865738D01*
X198470654Y-78680023D02*
X198470654Y-76780023D01*
X198470654Y-78589547D02*
X198289702Y-78680023D01*
X197927797Y-78680023D01*
X197746845Y-78589547D01*
X197656369Y-78499071D01*
X197565892Y-78318119D01*
X197565892Y-77775261D01*
X197656369Y-77594309D01*
X197746845Y-77503833D01*
X197927797Y-77413357D01*
X198289702Y-77413357D01*
X198470654Y-77503833D01*
X201908750Y-78680023D02*
X201275416Y-77775261D01*
X200823035Y-78680023D02*
X200823035Y-76780023D01*
X201546845Y-76780023D01*
X201727797Y-76870500D01*
X201818273Y-76960976D01*
X201908750Y-77141928D01*
X201908750Y-77413357D01*
X201818273Y-77594309D01*
X201727797Y-77684785D01*
X201546845Y-77775261D01*
X200823035Y-77775261D01*
X202632559Y-76960976D02*
X202723035Y-76870500D01*
X202903988Y-76780023D01*
X203356369Y-76780023D01*
X203537321Y-76870500D01*
X203627797Y-76960976D01*
X203718273Y-77141928D01*
X203718273Y-77322880D01*
X203627797Y-77594309D01*
X202542083Y-78680023D01*
X203718273Y-78680023D01*
X205346845Y-76780023D02*
X204984940Y-76780023D01*
X204803988Y-76870500D01*
X204713511Y-76960976D01*
X204532559Y-77232404D01*
X204442083Y-77594309D01*
X204442083Y-78318119D01*
X204532559Y-78499071D01*
X204623035Y-78589547D01*
X204803988Y-78680023D01*
X205165892Y-78680023D01*
X205346845Y-78589547D01*
X205437321Y-78499071D01*
X205527797Y-78318119D01*
X205527797Y-77865738D01*
X205437321Y-77684785D01*
X205346845Y-77594309D01*
X205165892Y-77503833D01*
X204803988Y-77503833D01*
X204623035Y-77594309D01*
X204532559Y-77684785D01*
X204442083Y-77865738D01*
X174765892Y-81739023D02*
X173861130Y-81739023D01*
X173861130Y-79839023D01*
X175399226Y-80743785D02*
X176032559Y-80743785D01*
X176303988Y-81739023D02*
X175399226Y-81739023D01*
X175399226Y-79839023D01*
X176303988Y-79839023D01*
X177118273Y-81739023D02*
X177118273Y-79839023D01*
X177570654Y-79839023D01*
X177842083Y-79929500D01*
X178023035Y-80110452D01*
X178113511Y-80291404D01*
X178203988Y-80653309D01*
X178203988Y-80924738D01*
X178113511Y-81286642D01*
X178023035Y-81467595D01*
X177842083Y-81648547D01*
X177570654Y-81739023D01*
X177118273Y-81739023D01*
X180465892Y-81739023D02*
X180465892Y-79839023D01*
X181551607Y-81739023D02*
X180737321Y-80653309D01*
X181551607Y-79839023D02*
X180465892Y-80924738D01*
X182365892Y-81739023D02*
X182365892Y-80472357D01*
X182365892Y-79839023D02*
X182275416Y-79929500D01*
X182365892Y-80019976D01*
X182456369Y-79929500D01*
X182365892Y-79839023D01*
X182365892Y-80019976D01*
X182999226Y-80472357D02*
X183723035Y-80472357D01*
X183270654Y-79839023D02*
X183270654Y-81467595D01*
X183361130Y-81648547D01*
X183542083Y-81739023D01*
X183723035Y-81739023D01*
D11*
%TO.C,D8*%
X113361904Y-84052380D02*
X113361904Y-83052380D01*
X113600000Y-83052380D01*
X113742857Y-83100000D01*
X113838095Y-83195238D01*
X113885714Y-83290476D01*
X113933333Y-83480952D01*
X113933333Y-83623809D01*
X113885714Y-83814285D01*
X113838095Y-83909523D01*
X113742857Y-84004761D01*
X113600000Y-84052380D01*
X113361904Y-84052380D01*
X114504761Y-83480952D02*
X114409523Y-83433333D01*
X114361904Y-83385714D01*
X114314285Y-83290476D01*
X114314285Y-83242857D01*
X114361904Y-83147619D01*
X114409523Y-83100000D01*
X114504761Y-83052380D01*
X114695238Y-83052380D01*
X114790476Y-83100000D01*
X114838095Y-83147619D01*
X114885714Y-83242857D01*
X114885714Y-83290476D01*
X114838095Y-83385714D01*
X114790476Y-83433333D01*
X114695238Y-83480952D01*
X114504761Y-83480952D01*
X114409523Y-83528571D01*
X114361904Y-83576190D01*
X114314285Y-83671428D01*
X114314285Y-83861904D01*
X114361904Y-83957142D01*
X114409523Y-84004761D01*
X114504761Y-84052380D01*
X114695238Y-84052380D01*
X114790476Y-84004761D01*
X114838095Y-83957142D01*
X114885714Y-83861904D01*
X114885714Y-83671428D01*
X114838095Y-83576190D01*
X114790476Y-83528571D01*
X114695238Y-83480952D01*
%TO.C,D7*%
X94311904Y-84052380D02*
X94311904Y-83052380D01*
X94550000Y-83052380D01*
X94692857Y-83100000D01*
X94788095Y-83195238D01*
X94835714Y-83290476D01*
X94883333Y-83480952D01*
X94883333Y-83623809D01*
X94835714Y-83814285D01*
X94788095Y-83909523D01*
X94692857Y-84004761D01*
X94550000Y-84052380D01*
X94311904Y-84052380D01*
X95216666Y-83052380D02*
X95883333Y-83052380D01*
X95454761Y-84052380D01*
%TO.C,D6*%
X94311904Y-103102380D02*
X94311904Y-102102380D01*
X94550000Y-102102380D01*
X94692857Y-102150000D01*
X94788095Y-102245238D01*
X94835714Y-102340476D01*
X94883333Y-102530952D01*
X94883333Y-102673809D01*
X94835714Y-102864285D01*
X94788095Y-102959523D01*
X94692857Y-103054761D01*
X94550000Y-103102380D01*
X94311904Y-103102380D01*
X95740476Y-102102380D02*
X95550000Y-102102380D01*
X95454761Y-102150000D01*
X95407142Y-102197619D01*
X95311904Y-102340476D01*
X95264285Y-102530952D01*
X95264285Y-102911904D01*
X95311904Y-103007142D01*
X95359523Y-103054761D01*
X95454761Y-103102380D01*
X95645238Y-103102380D01*
X95740476Y-103054761D01*
X95788095Y-103007142D01*
X95835714Y-102911904D01*
X95835714Y-102673809D01*
X95788095Y-102578571D01*
X95740476Y-102530952D01*
X95645238Y-102483333D01*
X95454761Y-102483333D01*
X95359523Y-102530952D01*
X95311904Y-102578571D01*
X95264285Y-102673809D01*
%TO.C,D5*%
X113371904Y-103082380D02*
X113371904Y-102082380D01*
X113610000Y-102082380D01*
X113752857Y-102130000D01*
X113848095Y-102225238D01*
X113895714Y-102320476D01*
X113943333Y-102510952D01*
X113943333Y-102653809D01*
X113895714Y-102844285D01*
X113848095Y-102939523D01*
X113752857Y-103034761D01*
X113610000Y-103082380D01*
X113371904Y-103082380D01*
X114848095Y-102082380D02*
X114371904Y-102082380D01*
X114324285Y-102558571D01*
X114371904Y-102510952D01*
X114467142Y-102463333D01*
X114705238Y-102463333D01*
X114800476Y-102510952D01*
X114848095Y-102558571D01*
X114895714Y-102653809D01*
X114895714Y-102891904D01*
X114848095Y-102987142D01*
X114800476Y-103034761D01*
X114705238Y-103082380D01*
X114467142Y-103082380D01*
X114371904Y-103034761D01*
X114324285Y-102987142D01*
%TO.C,D4*%
X179371904Y-103102380D02*
X179371904Y-102102380D01*
X179610000Y-102102380D01*
X179752857Y-102150000D01*
X179848095Y-102245238D01*
X179895714Y-102340476D01*
X179943333Y-102530952D01*
X179943333Y-102673809D01*
X179895714Y-102864285D01*
X179848095Y-102959523D01*
X179752857Y-103054761D01*
X179610000Y-103102380D01*
X179371904Y-103102380D01*
X180800476Y-102435714D02*
X180800476Y-103102380D01*
X180562380Y-102054761D02*
X180324285Y-102769047D01*
X180943333Y-102769047D01*
%TO.C,D3*%
X198401904Y-103092380D02*
X198401904Y-102092380D01*
X198640000Y-102092380D01*
X198782857Y-102140000D01*
X198878095Y-102235238D01*
X198925714Y-102330476D01*
X198973333Y-102520952D01*
X198973333Y-102663809D01*
X198925714Y-102854285D01*
X198878095Y-102949523D01*
X198782857Y-103044761D01*
X198640000Y-103092380D01*
X198401904Y-103092380D01*
X199306666Y-102092380D02*
X199925714Y-102092380D01*
X199592380Y-102473333D01*
X199735238Y-102473333D01*
X199830476Y-102520952D01*
X199878095Y-102568571D01*
X199925714Y-102663809D01*
X199925714Y-102901904D01*
X199878095Y-102997142D01*
X199830476Y-103044761D01*
X199735238Y-103092380D01*
X199449523Y-103092380D01*
X199354285Y-103044761D01*
X199306666Y-102997142D01*
%TO.C,D2*%
X198411904Y-84052380D02*
X198411904Y-83052380D01*
X198650000Y-83052380D01*
X198792857Y-83100000D01*
X198888095Y-83195238D01*
X198935714Y-83290476D01*
X198983333Y-83480952D01*
X198983333Y-83623809D01*
X198935714Y-83814285D01*
X198888095Y-83909523D01*
X198792857Y-84004761D01*
X198650000Y-84052380D01*
X198411904Y-84052380D01*
X199364285Y-83147619D02*
X199411904Y-83100000D01*
X199507142Y-83052380D01*
X199745238Y-83052380D01*
X199840476Y-83100000D01*
X199888095Y-83147619D01*
X199935714Y-83242857D01*
X199935714Y-83338095D01*
X199888095Y-83480952D01*
X199316666Y-84052380D01*
X199935714Y-84052380D01*
%TO.C,D1*%
X179371904Y-84052380D02*
X179371904Y-83052380D01*
X179610000Y-83052380D01*
X179752857Y-83100000D01*
X179848095Y-83195238D01*
X179895714Y-83290476D01*
X179943333Y-83480952D01*
X179943333Y-83623809D01*
X179895714Y-83814285D01*
X179848095Y-83909523D01*
X179752857Y-84004761D01*
X179610000Y-84052380D01*
X179371904Y-84052380D01*
X180895714Y-84052380D02*
X180324285Y-84052380D01*
X180610000Y-84052380D02*
X180610000Y-83052380D01*
X180514761Y-83195238D01*
X180419523Y-83290476D01*
X180324285Y-83338095D01*
%TO.C,SW3*%
X153375841Y-109681992D02*
X153423460Y-109539135D01*
X153423460Y-109301039D01*
X153375841Y-109205801D01*
X153328222Y-109158182D01*
X153232984Y-109110563D01*
X153137746Y-109110563D01*
X153042508Y-109158182D01*
X152994889Y-109205801D01*
X152947270Y-109301039D01*
X152899651Y-109491516D01*
X152852032Y-109586754D01*
X152804413Y-109634373D01*
X152709175Y-109681992D01*
X152613937Y-109681992D01*
X152518699Y-109634373D01*
X152471080Y-109586754D01*
X152423460Y-109491516D01*
X152423460Y-109253420D01*
X152471080Y-109110563D01*
X152423460Y-108777230D02*
X153423460Y-108539135D01*
X152709175Y-108348659D01*
X153423460Y-108158182D01*
X152423460Y-107920087D01*
X152423460Y-107634373D02*
X152423460Y-107015325D01*
X152804413Y-107348659D01*
X152804413Y-107205801D01*
X152852032Y-107110563D01*
X152899651Y-107062944D01*
X152994889Y-107015325D01*
X153232984Y-107015325D01*
X153328222Y-107062944D01*
X153375841Y-107110563D01*
X153423460Y-107205801D01*
X153423460Y-107491516D01*
X153375841Y-107586754D01*
X153328222Y-107634373D01*
D12*
%TO.C,D8*%
X110300000Y-84900000D02*
X110300000Y-85500000D01*
X110300000Y-85500000D02*
X110900000Y-85500000D01*
X110900000Y-85500000D02*
X110300000Y-84900000D01*
G36*
X110900000Y-85500000D02*
G01*
X110300000Y-85500000D01*
X110300000Y-84900000D01*
X110900000Y-85500000D01*
G37*
X110900000Y-85500000D02*
X110300000Y-85500000D01*
X110300000Y-84900000D01*
X110900000Y-85500000D01*
%TO.C,D7*%
X91250000Y-84900000D02*
X91250000Y-85500000D01*
X91250000Y-85500000D02*
X91850000Y-85500000D01*
X91850000Y-85500000D02*
X91250000Y-84900000D01*
G36*
X91850000Y-85500000D02*
G01*
X91250000Y-85500000D01*
X91250000Y-84900000D01*
X91850000Y-85500000D01*
G37*
X91850000Y-85500000D02*
X91250000Y-85500000D01*
X91250000Y-84900000D01*
X91850000Y-85500000D01*
%TO.C,D6*%
X91250000Y-103950000D02*
X91250000Y-104550000D01*
X91250000Y-104550000D02*
X91850000Y-104550000D01*
X91850000Y-104550000D02*
X91250000Y-103950000D01*
G36*
X91850000Y-104550000D02*
G01*
X91250000Y-104550000D01*
X91250000Y-103950000D01*
X91850000Y-104550000D01*
G37*
X91850000Y-104550000D02*
X91250000Y-104550000D01*
X91250000Y-103950000D01*
X91850000Y-104550000D01*
%TO.C,D5*%
X110310000Y-103930000D02*
X110310000Y-104530000D01*
X110310000Y-104530000D02*
X110910000Y-104530000D01*
X110910000Y-104530000D02*
X110310000Y-103930000D01*
G36*
X110910000Y-104530000D02*
G01*
X110310000Y-104530000D01*
X110310000Y-103930000D01*
X110910000Y-104530000D01*
G37*
X110910000Y-104530000D02*
X110310000Y-104530000D01*
X110310000Y-103930000D01*
X110910000Y-104530000D01*
%TO.C,D4*%
X176310000Y-103950000D02*
X176310000Y-104550000D01*
X176310000Y-104550000D02*
X176910000Y-104550000D01*
X176910000Y-104550000D02*
X176310000Y-103950000D01*
G36*
X176910000Y-104550000D02*
G01*
X176310000Y-104550000D01*
X176310000Y-103950000D01*
X176910000Y-104550000D01*
G37*
X176910000Y-104550000D02*
X176310000Y-104550000D01*
X176310000Y-103950000D01*
X176910000Y-104550000D01*
%TO.C,D3*%
X195340000Y-103940000D02*
X195340000Y-104540000D01*
X195340000Y-104540000D02*
X195940000Y-104540000D01*
X195940000Y-104540000D02*
X195340000Y-103940000D01*
G36*
X195940000Y-104540000D02*
G01*
X195340000Y-104540000D01*
X195340000Y-103940000D01*
X195940000Y-104540000D01*
G37*
X195940000Y-104540000D02*
X195340000Y-104540000D01*
X195340000Y-103940000D01*
X195940000Y-104540000D01*
%TO.C,D2*%
X195350000Y-84900000D02*
X195350000Y-85500000D01*
X195350000Y-85500000D02*
X195950000Y-85500000D01*
X195950000Y-85500000D02*
X195350000Y-84900000D01*
G36*
X195950000Y-85500000D02*
G01*
X195350000Y-85500000D01*
X195350000Y-84900000D01*
X195950000Y-85500000D01*
G37*
X195950000Y-85500000D02*
X195350000Y-85500000D01*
X195350000Y-84900000D01*
X195950000Y-85500000D01*
%TO.C,D1*%
X176310000Y-84900000D02*
X176310000Y-85500000D01*
X176310000Y-85500000D02*
X176910000Y-85500000D01*
X176910000Y-85500000D02*
X176310000Y-84900000D01*
G36*
X176910000Y-85500000D02*
G01*
X176310000Y-85500000D01*
X176310000Y-84900000D01*
X176910000Y-85500000D01*
G37*
X176910000Y-85500000D02*
X176310000Y-85500000D01*
X176310000Y-84900000D01*
X176910000Y-85500000D01*
D11*
%TO.C,U1*%
X172491400Y-105625900D02*
X154711400Y-105625900D01*
X172491400Y-75145900D02*
X172491400Y-105625900D01*
X167411400Y-75145900D02*
X172491400Y-75145900D01*
X167411400Y-72605900D02*
X167411400Y-75145900D01*
X159791400Y-72605900D02*
X167411400Y-72605900D01*
X159791400Y-75145900D02*
X159791400Y-72605900D01*
X154711400Y-75145900D02*
X159791400Y-75145900D01*
X154711400Y-75145900D02*
X154711400Y-105625900D01*
D13*
%TO.C,SW3*%
X153771080Y-89748659D02*
X153771080Y-105948659D01*
X140371080Y-105948659D02*
X140371080Y-89748659D01*
X153771080Y-89748659D02*
X140371080Y-89748659D01*
X153771080Y-105948659D02*
X140371080Y-105948659D01*
%TD*%
D14*
%TO.C,U1*%
X171221400Y-76415900D03*
X171221400Y-78955900D03*
X171221400Y-81495900D03*
X171221400Y-84035900D03*
X171221400Y-86575900D03*
X171221400Y-89115900D03*
X171221400Y-91655900D03*
X171221400Y-94195900D03*
X171221400Y-96735900D03*
X171221400Y-99275900D03*
X171221400Y-101815900D03*
X171221400Y-104355900D03*
X155981400Y-104355900D03*
X155981400Y-101815900D03*
X155981400Y-99275900D03*
X155981400Y-96735900D03*
X155981400Y-94195900D03*
X155981400Y-91655900D03*
X155981400Y-89115900D03*
X155981400Y-86575900D03*
X155981400Y-84035900D03*
X155981400Y-81495900D03*
X155981400Y-78955900D03*
D15*
X155981400Y-76415900D03*
%TD*%
M02*
