M48
; DRILL file {KiCad (6.0.1)} date Mon Apr 18 11:29:43 2022
; FORMAT={-:-/ absolute / inch / decimal}
; #@! TF.CreationDate,2022-04-18T11:29:43-05:00
; #@! TF.GenerationSoftware,Kicad,Pcbnew,(6.0.1)
; #@! TF.FileFunction,Plated,1,2,PTH
FMAT,2
INCH
; #@! TA.AperFunction,Plated,PTH,ViaDrill
T1C0.0157
; #@! TA.AperFunction,Plated,PTH,ComponentDrill
T2C0.0394
; #@! TA.AperFunction,Plated,PTH,ComponentDrill
T3C0.0433
; #@! TA.AperFunction,Plated,PTH,ComponentDrill
T4C0.0579
%
G90
G05
T1
X3.5429Y-4.1343
X3.6039Y-3.8071
X3.7161Y-3.6323
X3.7406Y-4.3772
X3.7465Y-3.9394
X3.9567Y-3.2646
X4.0992Y-3.9307
X4.1386Y-4.126
X4.2043Y-4.2051
X4.2339Y-4.0181
X4.3858Y-3.8406
X4.4744Y-3.6504
X4.4787Y-4.3862
X4.5252Y-3.9315
X4.5957Y-3.2047
X4.6323Y-3.9291
X4.8236Y-4.3016
X4.8524Y-4.0906
X5.7886Y-3.4835
X5.7953Y-4.3484
X5.9724Y-4.2622
X6.0193Y-3.4823
X6.0819Y-4.2374
X6.1398Y-4.189
X6.2094Y-3.4587
X6.2343Y-4.0551
X6.2374Y-3.7126
X6.3823Y-4.3283
X6.5244Y-4.4374
X6.8748Y-3.2681
X6.9339Y-4.0831
X7.0646Y-4.3953
X7.0713Y-3.6437
X7.3949Y-4.0067
X7.5283Y-4.1201
X7.6965Y-4.1193
X7.8142Y-4.3839
X7.8209Y-3.6437
X7.9433Y-3.9421
T2
X5.6902Y-3.496
X5.6902Y-4.2086
X5.7902Y-4.2086
X5.8902Y-3.496
X5.8902Y-4.2086
T3
X6.141Y-3.0085
X6.141Y-3.1085
X6.141Y-3.2085
X6.141Y-3.3085
X6.141Y-3.4085
X6.141Y-3.5085
X6.141Y-3.6085
X6.141Y-3.7085
X6.141Y-3.8085
X6.141Y-3.9085
X6.141Y-4.0085
X6.141Y-4.1085
X6.741Y-3.0085
X6.741Y-3.1085
X6.741Y-3.2085
X6.741Y-3.3085
X6.741Y-3.4085
X6.741Y-3.5085
X6.741Y-3.6085
X6.741Y-3.7085
X6.741Y-3.8085
X6.741Y-3.9085
X6.741Y-4.0085
X6.741Y-4.1085
T4
X3.5922Y-3.5773
X3.5922Y-4.3273
X3.8422Y-3.6773
X3.8422Y-4.4273
X4.3422Y-3.5773
X4.3422Y-4.3273
X4.5922Y-3.6773
X4.5922Y-4.4273
X6.9406Y-3.5773
X6.9406Y-4.3273
X7.1906Y-3.6773
X7.1906Y-4.4273
X7.6906Y-3.5773
X7.6906Y-4.3273
X7.9406Y-3.6773
X7.9406Y-4.4273
T0
M30
