%TF.GenerationSoftware,KiCad,Pcbnew,(6.0.1)*%
%TF.CreationDate,2022-04-18T11:29:40-05:00*%
%TF.ProjectId,Pikatea R26 Kit LED Macropad,50696b61-7465-4612-9052-3236204b6974,rev?*%
%TF.SameCoordinates,Original*%
%TF.FileFunction,Profile,NP*%
%FSLAX46Y46*%
G04 Gerber Fmt 4.6, Leading zero omitted, Abs format (unit mm)*
G04 Created by KiCad (PCBNEW (6.0.1)) date 2022-04-18 11:29:40*
%MOMM*%
%LPD*%
G01*
G04 APERTURE LIST*
%TA.AperFunction,Profile*%
%ADD10C,0.100000*%
%TD*%
%TA.AperFunction,Profile*%
%ADD11C,0.120000*%
%TD*%
G04 APERTURE END LIST*
D10*
X153100000Y-75400000D02*
X206600000Y-75400000D01*
X144050000Y-80000000D02*
X141850000Y-75400000D01*
X150500000Y-80000000D02*
X144050000Y-80000000D01*
X153100000Y-75400000D02*
X150500000Y-80000000D01*
X141850000Y-75400000D02*
X88300000Y-75400000D01*
X206600000Y-116200000D02*
X206600000Y-75400000D01*
X88300000Y-116200000D02*
X206600000Y-116200000D01*
X88300000Y-75400000D02*
X88300000Y-116200000D01*
X153732700Y-89850000D02*
X153732700Y-106000000D01*
X140400000Y-89850000D02*
X153732700Y-89850000D01*
X140400000Y-106000000D02*
X140400000Y-89850000D01*
X153732700Y-106000000D02*
X140400000Y-106000000D01*
D11*
%TO.C,MX8*%
X93451479Y-82193660D02*
X96651479Y-82193660D01*
X93451479Y-84993660D02*
X96651479Y-84993660D01*
X96651479Y-84993660D02*
X96651479Y-82193660D01*
X93451479Y-84993660D02*
X93451479Y-82193660D01*
%TO.C,MX7*%
X112501480Y-82193660D02*
X115701480Y-82193660D01*
X112501480Y-84993660D02*
X115701480Y-84993660D01*
X115701480Y-84993660D02*
X115701480Y-82193660D01*
X112501480Y-84993660D02*
X112501480Y-82193660D01*
%TO.C,MX6*%
X178501480Y-82193660D02*
X181701480Y-82193660D01*
X178501480Y-84993660D02*
X181701480Y-84993660D01*
X181701480Y-84993660D02*
X181701480Y-82193660D01*
X178501480Y-84993660D02*
X178501480Y-82193660D01*
%TO.C,MX5*%
X197551480Y-82193660D02*
X200751480Y-82193660D01*
X197551480Y-84993660D02*
X200751480Y-84993660D01*
X200751480Y-84993660D02*
X200751480Y-82193660D01*
X197551480Y-84993660D02*
X197551480Y-82193660D01*
%TO.C,MX4*%
X93451479Y-101243660D02*
X96651479Y-101243660D01*
X93451479Y-104043660D02*
X96651479Y-104043660D01*
X96651479Y-104043660D02*
X96651479Y-101243660D01*
X93451479Y-104043660D02*
X93451479Y-101243660D01*
%TO.C,MX3*%
X112501480Y-101243659D02*
X115701480Y-101243659D01*
X112501480Y-104043659D02*
X115701480Y-104043659D01*
X115701480Y-104043659D02*
X115701480Y-101243659D01*
X112501480Y-104043659D02*
X112501480Y-101243659D01*
%TO.C,MX2*%
X178501480Y-101243659D02*
X181701480Y-101243659D01*
X178501480Y-104043659D02*
X181701480Y-104043659D01*
X181701480Y-104043659D02*
X181701480Y-101243659D01*
X178501480Y-104043659D02*
X178501480Y-101243659D01*
%TO.C,MX1*%
X197551480Y-101243659D02*
X200751480Y-101243659D01*
X197551480Y-104043659D02*
X200751480Y-104043659D01*
X200751480Y-104043659D02*
X200751480Y-101243659D01*
X197551480Y-104043659D02*
X197551480Y-101243659D01*
%TD*%
M02*
