%TF.GenerationSoftware,KiCad,Pcbnew,(5.1.5)-3*%
%TF.CreationDate,2021-10-28T23:15:05-05:00*%
%TF.ProjectId,Pikatea Macropad FK1,50696b61-7465-4612-904d-6163726f7061,rev?*%
%TF.SameCoordinates,Original*%
%TF.FileFunction,Copper,L2,Bot*%
%TF.FilePolarity,Positive*%
%FSLAX46Y46*%
G04 Gerber Fmt 4.6, Leading zero omitted, Abs format (unit mm)*
G04 Created by KiCad (PCBNEW (5.1.5)-3) date 2021-10-28 23:15:05*
%MOMM*%
%LPD*%
G04 APERTURE LIST*
%TA.AperFunction,ComponentPad*%
%ADD10O,1.700000X1.700000*%
%TD*%
%TA.AperFunction,ComponentPad*%
%ADD11R,1.700000X1.700000*%
%TD*%
%TA.AperFunction,ComponentPad*%
%ADD12C,1.000000*%
%TD*%
%TA.AperFunction,ComponentPad*%
%ADD13R,1.905000X1.905000*%
%TD*%
%TA.AperFunction,ComponentPad*%
%ADD14C,1.905000*%
%TD*%
%TA.AperFunction,ComponentPad*%
%ADD15C,2.250000*%
%TD*%
%TA.AperFunction,ViaPad*%
%ADD16C,0.800000*%
%TD*%
%TA.AperFunction,Conductor*%
%ADD17C,0.250000*%
%TD*%
%TA.AperFunction,Conductor*%
%ADD18C,0.254000*%
%TD*%
G04 APERTURE END LIST*
D10*
%TO.P,J1,12*%
%TO.N,/D4*%
X115443000Y-93345000D03*
%TO.P,J1,11*%
%TO.N,/D3*%
X117983000Y-93345000D03*
%TO.P,J1,10*%
%TO.N,/D2*%
X120523000Y-93345000D03*
%TO.P,J1,9*%
%TO.N,/D5*%
X123063000Y-93345000D03*
%TO.P,J1,8*%
%TO.N,/D9*%
X125603000Y-93345000D03*
%TO.P,J1,7*%
%TO.N,/D7*%
X128143000Y-93345000D03*
%TO.P,J1,6*%
%TO.N,/D8*%
X130683000Y-93345000D03*
%TO.P,J1,5*%
%TO.N,/D6*%
X133223000Y-93345000D03*
%TO.P,J1,4*%
%TO.N,GND*%
X135763000Y-93345000D03*
%TO.P,J1,3*%
%TO.N,N/C*%
X138303000Y-93345000D03*
%TO.P,J1,2*%
X140843000Y-93345000D03*
D11*
%TO.P,J1,1*%
%TO.N,/A0*%
X143383000Y-93345000D03*
%TD*%
D12*
%TO.P,J2,1*%
%TO.N,GND*%
X177546000Y-99580000D03*
X177546000Y-113580000D03*
%TO.P,J2,6*%
%TO.N,N/C*%
X177546000Y-112180000D03*
%TO.P,J2,5*%
X177546000Y-110780000D03*
%TO.P,J2,3*%
%TO.N,/D6*%
X177546000Y-109380000D03*
%TO.P,J2,2*%
%TO.N,/A0*%
X177546000Y-107980000D03*
%TO.P,J2,1*%
%TO.N,GND*%
X177546000Y-100980000D03*
X177546000Y-102380000D03*
X177546000Y-103780000D03*
X177546000Y-105180000D03*
%TO.P,J2,4*%
%TO.N,/D8*%
X177546000Y-106580000D03*
%TD*%
D13*
%TO.P,MX5,4*%
%TO.N,N/C*%
X208320000Y-99840000D03*
D14*
%TO.P,MX5,3*%
X205780000Y-99840000D03*
D15*
%TO.P,MX5,1*%
%TO.N,/D6*%
X203240000Y-107460000D03*
%TO.P,MX5,2*%
%TO.N,/A0*%
X209590000Y-110000000D03*
%TD*%
D13*
%TO.P,MX4,4*%
%TO.N,N/C*%
X189270000Y-99840000D03*
D14*
%TO.P,MX4,3*%
X186730000Y-99840000D03*
D15*
%TO.P,MX4,1*%
%TO.N,/D8*%
X184190000Y-107460000D03*
%TO.P,MX4,2*%
%TO.N,/A0*%
X190540000Y-110000000D03*
%TD*%
D13*
%TO.P,MX3,4*%
%TO.N,N/C*%
X170220000Y-99840000D03*
D14*
%TO.P,MX3,3*%
X167680000Y-99840000D03*
D15*
%TO.P,MX3,1*%
%TO.N,/D7*%
X165140000Y-107460000D03*
%TO.P,MX3,2*%
%TO.N,/A0*%
X171490000Y-110000000D03*
%TD*%
D13*
%TO.P,MX2,4*%
%TO.N,N/C*%
X151170000Y-99840000D03*
D14*
%TO.P,MX2,3*%
X148630000Y-99840000D03*
D15*
%TO.P,MX2,1*%
%TO.N,/D9*%
X146090000Y-107460000D03*
%TO.P,MX2,2*%
%TO.N,/A0*%
X152440000Y-110000000D03*
%TD*%
D13*
%TO.P,MX1,4*%
%TO.N,N/C*%
X132120000Y-99840000D03*
D14*
%TO.P,MX1,3*%
X129580000Y-99840000D03*
D15*
%TO.P,MX1,1*%
%TO.N,/D5*%
X127040000Y-107460000D03*
%TO.P,MX1,2*%
%TO.N,/A0*%
X133390000Y-110000000D03*
%TD*%
D10*
%TO.P,J4,3*%
%TO.N,/A0*%
X197760000Y-109390000D03*
%TO.P,J4,2*%
%TO.N,/D6*%
X197760000Y-106850000D03*
D11*
%TO.P,J4,1*%
%TO.N,/D8*%
X197760000Y-104310000D03*
%TD*%
%TO.P,SW1,S1*%
%TO.N,/D2*%
X109450000Y-102360000D03*
%TO.P,SW1,S2*%
%TO.N,/A0*%
X109450000Y-107440000D03*
%TO.P,SW1,C*%
%TO.N,GND*%
X91350000Y-104900000D03*
%TO.P,SW1,B*%
%TO.N,/D3*%
X91350000Y-102360000D03*
%TO.P,SW1,A*%
%TO.N,/D4*%
X91350000Y-107440000D03*
%TD*%
D16*
%TO.N,GND*%
X127000000Y-96139000D03*
X121920000Y-95377000D03*
X129413000Y-96139000D03*
X113157000Y-94869000D03*
X113411000Y-97663000D03*
X109601000Y-110109000D03*
X110109000Y-97409000D03*
X161036000Y-104902000D03*
%TD*%
D17*
%TO.N,GND*%
X178253106Y-102380000D02*
X178271106Y-102362000D01*
X177546000Y-102380000D02*
X178253106Y-102380000D01*
X178271106Y-102362000D02*
X178943000Y-102362000D01*
X134587999Y-92169999D02*
X97695001Y-92169999D01*
X135763000Y-93345000D02*
X134587999Y-92169999D01*
X97695001Y-92169999D02*
X89535000Y-100330000D01*
X90250000Y-104900000D02*
X91350000Y-104900000D01*
X89535000Y-104185000D02*
X90250000Y-104900000D01*
X89535000Y-100330000D02*
X89535000Y-104185000D01*
%TO.N,/A0*%
X151315001Y-108875001D02*
X152440000Y-110000000D01*
X150551003Y-108875001D02*
X151315001Y-108875001D01*
X143383000Y-101706998D02*
X150551003Y-108875001D01*
X143383000Y-93345000D02*
X143383000Y-101706998D01*
%TO.N,/D9*%
X146090000Y-107460000D02*
X145600000Y-107950000D01*
%TO.N,/D2*%
X109450000Y-102360000D02*
X110041002Y-102360000D01*
%TO.N,/A0*%
X177516000Y-107950000D02*
X177546000Y-107980000D01*
%TO.N,/D6*%
X133223000Y-96739002D02*
X133858000Y-97374002D01*
X133223000Y-93345000D02*
X133223000Y-96739002D01*
X133858000Y-97374002D02*
X133858000Y-106553000D01*
X133858000Y-106553000D02*
X139065000Y-111760000D01*
X139065000Y-111760000D02*
X173736000Y-111760000D01*
X176116000Y-109380000D02*
X177546000Y-109380000D01*
X173736000Y-111760000D02*
X176116000Y-109380000D01*
X184416002Y-109380000D02*
X177546000Y-109380000D01*
X186096003Y-107699999D02*
X184416002Y-109380000D01*
X197760000Y-106850000D02*
X196910001Y-107699999D01*
X196910001Y-107699999D02*
X186096003Y-107699999D01*
%TO.N,/D8*%
X178716000Y-106580000D02*
X177546000Y-106580000D01*
X184190000Y-107460000D02*
X179596000Y-107460000D01*
X179596000Y-107460000D02*
X178716000Y-106580000D01*
%TD*%
D18*
%TO.N,GND*%
G36*
X114289525Y-92398368D02*
G01*
X114127010Y-92641589D01*
X114015068Y-92911842D01*
X113958000Y-93198740D01*
X113958000Y-93491260D01*
X114015068Y-93778158D01*
X114127010Y-94048411D01*
X114289525Y-94291632D01*
X114496368Y-94498475D01*
X114739589Y-94660990D01*
X115009842Y-94772932D01*
X115296740Y-94830000D01*
X115589260Y-94830000D01*
X115876158Y-94772932D01*
X116146411Y-94660990D01*
X116389632Y-94498475D01*
X116596475Y-94291632D01*
X116713000Y-94117240D01*
X116829525Y-94291632D01*
X117036368Y-94498475D01*
X117279589Y-94660990D01*
X117549842Y-94772932D01*
X117836740Y-94830000D01*
X118129260Y-94830000D01*
X118416158Y-94772932D01*
X118686411Y-94660990D01*
X118929632Y-94498475D01*
X119136475Y-94291632D01*
X119253000Y-94117240D01*
X119369525Y-94291632D01*
X119576368Y-94498475D01*
X119819589Y-94660990D01*
X120089842Y-94772932D01*
X120376740Y-94830000D01*
X120669260Y-94830000D01*
X120956158Y-94772932D01*
X121226411Y-94660990D01*
X121469632Y-94498475D01*
X121676475Y-94291632D01*
X121793000Y-94117240D01*
X121909525Y-94291632D01*
X122116368Y-94498475D01*
X122359589Y-94660990D01*
X122629842Y-94772932D01*
X122916740Y-94830000D01*
X123209260Y-94830000D01*
X123496158Y-94772932D01*
X123766411Y-94660990D01*
X124009632Y-94498475D01*
X124216475Y-94291632D01*
X124333000Y-94117240D01*
X124449525Y-94291632D01*
X124656368Y-94498475D01*
X124899589Y-94660990D01*
X125169842Y-94772932D01*
X125456740Y-94830000D01*
X125749260Y-94830000D01*
X126036158Y-94772932D01*
X126306411Y-94660990D01*
X126549632Y-94498475D01*
X126756475Y-94291632D01*
X126873000Y-94117240D01*
X126989525Y-94291632D01*
X127196368Y-94498475D01*
X127439589Y-94660990D01*
X127709842Y-94772932D01*
X127996740Y-94830000D01*
X128289260Y-94830000D01*
X128576158Y-94772932D01*
X128846411Y-94660990D01*
X129089632Y-94498475D01*
X129296475Y-94291632D01*
X129413000Y-94117240D01*
X129529525Y-94291632D01*
X129736368Y-94498475D01*
X129979589Y-94660990D01*
X130249842Y-94772932D01*
X130536740Y-94830000D01*
X130829260Y-94830000D01*
X131116158Y-94772932D01*
X131386411Y-94660990D01*
X131629632Y-94498475D01*
X131836475Y-94291632D01*
X131953000Y-94117240D01*
X132069525Y-94291632D01*
X132276368Y-94498475D01*
X132463000Y-94623179D01*
X132463001Y-96701670D01*
X132459324Y-96739002D01*
X132473998Y-96887987D01*
X132517454Y-97031248D01*
X132588026Y-97163278D01*
X132659201Y-97250004D01*
X132683000Y-97279003D01*
X132711998Y-97302801D01*
X133098000Y-97688804D01*
X133098000Y-98251939D01*
X133072500Y-98249428D01*
X131167500Y-98249428D01*
X131043018Y-98261688D01*
X130923320Y-98297998D01*
X130813006Y-98356963D01*
X130716315Y-98436315D01*
X130636963Y-98533006D01*
X130595549Y-98610485D01*
X130591972Y-98606908D01*
X130331963Y-98433176D01*
X130043057Y-98313507D01*
X129736355Y-98252500D01*
X129423645Y-98252500D01*
X129116943Y-98313507D01*
X128828037Y-98433176D01*
X128568028Y-98606908D01*
X128346908Y-98828028D01*
X128173176Y-99088037D01*
X128053507Y-99376943D01*
X127992500Y-99683645D01*
X127992500Y-99996355D01*
X128053507Y-100303057D01*
X128173176Y-100591963D01*
X128346908Y-100851972D01*
X128568028Y-101073092D01*
X128828037Y-101246824D01*
X129116943Y-101366493D01*
X129423645Y-101427500D01*
X129736355Y-101427500D01*
X130043057Y-101366493D01*
X130331963Y-101246824D01*
X130591972Y-101073092D01*
X130595549Y-101069515D01*
X130636963Y-101146994D01*
X130716315Y-101243685D01*
X130813006Y-101323037D01*
X130923320Y-101382002D01*
X131043018Y-101418312D01*
X131167500Y-101430572D01*
X133072500Y-101430572D01*
X133098000Y-101428061D01*
X133098001Y-103552476D01*
X132892000Y-103244174D01*
X132525826Y-102878000D01*
X132095251Y-102590299D01*
X131616822Y-102392127D01*
X131108924Y-102291100D01*
X130591076Y-102291100D01*
X130083178Y-102392127D01*
X129604749Y-102590299D01*
X129174174Y-102878000D01*
X128808000Y-103244174D01*
X128520299Y-103674749D01*
X128322127Y-104153178D01*
X128221100Y-104661076D01*
X128221100Y-105178924D01*
X128322127Y-105686822D01*
X128520299Y-106165251D01*
X128808000Y-106595826D01*
X129174174Y-106962000D01*
X129604749Y-107249701D01*
X130083178Y-107447873D01*
X130591076Y-107548900D01*
X131108924Y-107548900D01*
X131616822Y-107447873D01*
X132095251Y-107249701D01*
X132525826Y-106962000D01*
X132892000Y-106595826D01*
X133098001Y-106287524D01*
X133098001Y-106515668D01*
X133094324Y-106553000D01*
X133098001Y-106590333D01*
X133108998Y-106701986D01*
X133117188Y-106728985D01*
X133152454Y-106845246D01*
X133223026Y-106977276D01*
X133245185Y-107004276D01*
X133318000Y-107093001D01*
X133346998Y-107116799D01*
X138501201Y-112271003D01*
X138524999Y-112300001D01*
X138553997Y-112323799D01*
X138640723Y-112394974D01*
X138729617Y-112442489D01*
X138772753Y-112465546D01*
X138916014Y-112509003D01*
X139027667Y-112520000D01*
X139027677Y-112520000D01*
X139064999Y-112523676D01*
X139102322Y-112520000D01*
X173698678Y-112520000D01*
X173736000Y-112523676D01*
X173773322Y-112520000D01*
X173773333Y-112520000D01*
X173884986Y-112509003D01*
X174028247Y-112465546D01*
X174160276Y-112394974D01*
X174276001Y-112300001D01*
X174299804Y-112270997D01*
X176430802Y-110140000D01*
X176608582Y-110140000D01*
X176540176Y-110242376D01*
X176454617Y-110448933D01*
X176411000Y-110668212D01*
X176411000Y-110891788D01*
X176454617Y-111111067D01*
X176540176Y-111317624D01*
X176648672Y-111480000D01*
X176540176Y-111642376D01*
X176454617Y-111848933D01*
X176411000Y-112068212D01*
X176411000Y-112291788D01*
X176454617Y-112511067D01*
X176540176Y-112717624D01*
X176664388Y-112903520D01*
X176745913Y-112985045D01*
X176554412Y-113016550D01*
X176463542Y-113220826D01*
X176436616Y-113340000D01*
X94184933Y-113340000D01*
X89660000Y-108538032D01*
X89660000Y-101510000D01*
X89861928Y-101510000D01*
X89861928Y-103210000D01*
X89874188Y-103334482D01*
X89910498Y-103454180D01*
X89969463Y-103564494D01*
X90023222Y-103630000D01*
X89969463Y-103695506D01*
X89910498Y-103805820D01*
X89874188Y-103925518D01*
X89861928Y-104050000D01*
X89865000Y-104614250D01*
X90023750Y-104773000D01*
X91223000Y-104773000D01*
X91223000Y-104753000D01*
X91477000Y-104753000D01*
X91477000Y-104773000D01*
X91497000Y-104773000D01*
X91497000Y-105027000D01*
X91477000Y-105027000D01*
X91477000Y-105047000D01*
X91223000Y-105047000D01*
X91223000Y-105027000D01*
X90023750Y-105027000D01*
X89865000Y-105185750D01*
X89861928Y-105750000D01*
X89874188Y-105874482D01*
X89910498Y-105994180D01*
X89969463Y-106104494D01*
X90023222Y-106170000D01*
X89969463Y-106235506D01*
X89910498Y-106345820D01*
X89874188Y-106465518D01*
X89861928Y-106590000D01*
X89861928Y-108290000D01*
X89874188Y-108414482D01*
X89910498Y-108534180D01*
X89969463Y-108644494D01*
X90048815Y-108741185D01*
X90145506Y-108820537D01*
X90255820Y-108879502D01*
X90375518Y-108915812D01*
X90500000Y-108928072D01*
X91542001Y-108928072D01*
X91542001Y-110207648D01*
X91538858Y-110244163D01*
X91545582Y-110304774D01*
X91551551Y-110365383D01*
X91552740Y-110369301D01*
X91553192Y-110373379D01*
X91571611Y-110431510D01*
X91589291Y-110489793D01*
X91591223Y-110493407D01*
X91592461Y-110497315D01*
X91621859Y-110550724D01*
X91650576Y-110604450D01*
X91653174Y-110607616D01*
X91655152Y-110611209D01*
X91694399Y-110657848D01*
X91733053Y-110704948D01*
X91761381Y-110728197D01*
X93112972Y-112046917D01*
X93131052Y-112068948D01*
X93159377Y-112092193D01*
X93162293Y-112095039D01*
X93184450Y-112112771D01*
X93231550Y-112151425D01*
X93235166Y-112153358D01*
X93238365Y-112155918D01*
X93292439Y-112183971D01*
X93346207Y-112212710D01*
X93350132Y-112213901D01*
X93353768Y-112215787D01*
X93412268Y-112232750D01*
X93470617Y-112250450D01*
X93474698Y-112250852D01*
X93478633Y-112251993D01*
X93539314Y-112257216D01*
X93567581Y-112260000D01*
X93571659Y-112260000D01*
X93608163Y-112263142D01*
X93636487Y-112260000D01*
X108467581Y-112260000D01*
X108500000Y-112263193D01*
X108532419Y-112260000D01*
X108629383Y-112250450D01*
X108753793Y-112212710D01*
X108868450Y-112151425D01*
X108968948Y-112068948D01*
X109051425Y-111968450D01*
X109112710Y-111853793D01*
X109150450Y-111729383D01*
X109163193Y-111600000D01*
X109160000Y-111567581D01*
X109160000Y-109826655D01*
X131630000Y-109826655D01*
X131630000Y-110173345D01*
X131697636Y-110513373D01*
X131830308Y-110833673D01*
X132022919Y-111121935D01*
X132268065Y-111367081D01*
X132556327Y-111559692D01*
X132876627Y-111692364D01*
X133216655Y-111760000D01*
X133563345Y-111760000D01*
X133903373Y-111692364D01*
X134223673Y-111559692D01*
X134511935Y-111367081D01*
X134757081Y-111121935D01*
X134949692Y-110833673D01*
X135082364Y-110513373D01*
X135150000Y-110173345D01*
X135150000Y-109826655D01*
X135082364Y-109486627D01*
X134949692Y-109166327D01*
X134757081Y-108878065D01*
X134511935Y-108632919D01*
X134223673Y-108440308D01*
X133903373Y-108307636D01*
X133563345Y-108240000D01*
X133216655Y-108240000D01*
X132876627Y-108307636D01*
X132556327Y-108440308D01*
X132268065Y-108632919D01*
X132022919Y-108878065D01*
X131830308Y-109166327D01*
X131697636Y-109486627D01*
X131630000Y-109826655D01*
X109160000Y-109826655D01*
X109160000Y-108928072D01*
X110300000Y-108928072D01*
X110424482Y-108915812D01*
X110544180Y-108879502D01*
X110654494Y-108820537D01*
X110751185Y-108741185D01*
X110830537Y-108644494D01*
X110889502Y-108534180D01*
X110925812Y-108414482D01*
X110938072Y-108290000D01*
X110938072Y-106590000D01*
X110925812Y-106465518D01*
X110889502Y-106345820D01*
X110830537Y-106235506D01*
X110751185Y-106138815D01*
X110654494Y-106059463D01*
X110544180Y-106000498D01*
X110424482Y-105964188D01*
X110300000Y-105951928D01*
X109160000Y-105951928D01*
X109160000Y-104771278D01*
X124260000Y-104771278D01*
X124260000Y-105068722D01*
X124318029Y-105360451D01*
X124431856Y-105635253D01*
X124597107Y-105882569D01*
X124807431Y-106092893D01*
X125054747Y-106258144D01*
X125329549Y-106371971D01*
X125612638Y-106428281D01*
X125480308Y-106626327D01*
X125347636Y-106946627D01*
X125280000Y-107286655D01*
X125280000Y-107633345D01*
X125347636Y-107973373D01*
X125480308Y-108293673D01*
X125672919Y-108581935D01*
X125918065Y-108827081D01*
X126206327Y-109019692D01*
X126526627Y-109152364D01*
X126866655Y-109220000D01*
X127213345Y-109220000D01*
X127553373Y-109152364D01*
X127873673Y-109019692D01*
X128161935Y-108827081D01*
X128407081Y-108581935D01*
X128599692Y-108293673D01*
X128732364Y-107973373D01*
X128800000Y-107633345D01*
X128800000Y-107286655D01*
X128732364Y-106946627D01*
X128599692Y-106626327D01*
X128407081Y-106338065D01*
X128161935Y-106092919D01*
X127873673Y-105900308D01*
X127553373Y-105767636D01*
X127213345Y-105700000D01*
X127064882Y-105700000D01*
X127108144Y-105635253D01*
X127221971Y-105360451D01*
X127280000Y-105068722D01*
X127280000Y-104771278D01*
X127221971Y-104479549D01*
X127108144Y-104204747D01*
X126942893Y-103957431D01*
X126732569Y-103747107D01*
X126485253Y-103581856D01*
X126210451Y-103468029D01*
X125918722Y-103410000D01*
X125621278Y-103410000D01*
X125329549Y-103468029D01*
X125054747Y-103581856D01*
X124807431Y-103747107D01*
X124597107Y-103957431D01*
X124431856Y-104204747D01*
X124318029Y-104479549D01*
X124260000Y-104771278D01*
X109160000Y-104771278D01*
X109160000Y-103848072D01*
X110300000Y-103848072D01*
X110424482Y-103835812D01*
X110544180Y-103799502D01*
X110654494Y-103740537D01*
X110751185Y-103661185D01*
X110830537Y-103564494D01*
X110889502Y-103454180D01*
X110925812Y-103334482D01*
X110938072Y-103210000D01*
X110938072Y-101510000D01*
X110925812Y-101385518D01*
X110889502Y-101265820D01*
X110830537Y-101155506D01*
X110751185Y-101058815D01*
X110654494Y-100979463D01*
X110544180Y-100920498D01*
X110424482Y-100884188D01*
X110300000Y-100871928D01*
X109160000Y-100871928D01*
X109160000Y-98232419D01*
X109163193Y-98200000D01*
X109150450Y-98070617D01*
X109112710Y-97946207D01*
X109051425Y-97831550D01*
X108968948Y-97731052D01*
X108868450Y-97648575D01*
X108753793Y-97587290D01*
X108629383Y-97549550D01*
X108532419Y-97540000D01*
X108500000Y-97536807D01*
X108467581Y-97540000D01*
X93526074Y-97540000D01*
X93515304Y-97538223D01*
X93461191Y-97540000D01*
X93439581Y-97540000D01*
X93428772Y-97541065D01*
X93385365Y-97542490D01*
X93364224Y-97547422D01*
X93342617Y-97549550D01*
X93301048Y-97562160D01*
X93258757Y-97572026D01*
X93238985Y-97580987D01*
X93218207Y-97587290D01*
X93179906Y-97607762D01*
X93140342Y-97625693D01*
X93122694Y-97638342D01*
X93103550Y-97648575D01*
X93069974Y-97676130D01*
X93061150Y-97682455D01*
X93044916Y-97696695D01*
X93003052Y-97731052D01*
X92996124Y-97739493D01*
X91774936Y-98810678D01*
X91733052Y-98845052D01*
X91705492Y-98878635D01*
X91675811Y-98910331D01*
X91664351Y-98928765D01*
X91650575Y-98945551D01*
X91630096Y-98983865D01*
X91607170Y-99020742D01*
X91599526Y-99041057D01*
X91589290Y-99060208D01*
X91576680Y-99101777D01*
X91561387Y-99142422D01*
X91557853Y-99163839D01*
X91551550Y-99184618D01*
X91547292Y-99227852D01*
X91540223Y-99270696D01*
X91542000Y-99324796D01*
X91542000Y-100871928D01*
X90500000Y-100871928D01*
X90375518Y-100884188D01*
X90255820Y-100920498D01*
X90145506Y-100979463D01*
X90048815Y-101058815D01*
X89969463Y-101155506D01*
X89910498Y-101265820D01*
X89874188Y-101385518D01*
X89861928Y-101510000D01*
X89660000Y-101510000D01*
X89660000Y-99473734D01*
X96920027Y-92227000D01*
X114460893Y-92227000D01*
X114289525Y-92398368D01*
G37*
X114289525Y-92398368D02*
X114127010Y-92641589D01*
X114015068Y-92911842D01*
X113958000Y-93198740D01*
X113958000Y-93491260D01*
X114015068Y-93778158D01*
X114127010Y-94048411D01*
X114289525Y-94291632D01*
X114496368Y-94498475D01*
X114739589Y-94660990D01*
X115009842Y-94772932D01*
X115296740Y-94830000D01*
X115589260Y-94830000D01*
X115876158Y-94772932D01*
X116146411Y-94660990D01*
X116389632Y-94498475D01*
X116596475Y-94291632D01*
X116713000Y-94117240D01*
X116829525Y-94291632D01*
X117036368Y-94498475D01*
X117279589Y-94660990D01*
X117549842Y-94772932D01*
X117836740Y-94830000D01*
X118129260Y-94830000D01*
X118416158Y-94772932D01*
X118686411Y-94660990D01*
X118929632Y-94498475D01*
X119136475Y-94291632D01*
X119253000Y-94117240D01*
X119369525Y-94291632D01*
X119576368Y-94498475D01*
X119819589Y-94660990D01*
X120089842Y-94772932D01*
X120376740Y-94830000D01*
X120669260Y-94830000D01*
X120956158Y-94772932D01*
X121226411Y-94660990D01*
X121469632Y-94498475D01*
X121676475Y-94291632D01*
X121793000Y-94117240D01*
X121909525Y-94291632D01*
X122116368Y-94498475D01*
X122359589Y-94660990D01*
X122629842Y-94772932D01*
X122916740Y-94830000D01*
X123209260Y-94830000D01*
X123496158Y-94772932D01*
X123766411Y-94660990D01*
X124009632Y-94498475D01*
X124216475Y-94291632D01*
X124333000Y-94117240D01*
X124449525Y-94291632D01*
X124656368Y-94498475D01*
X124899589Y-94660990D01*
X125169842Y-94772932D01*
X125456740Y-94830000D01*
X125749260Y-94830000D01*
X126036158Y-94772932D01*
X126306411Y-94660990D01*
X126549632Y-94498475D01*
X126756475Y-94291632D01*
X126873000Y-94117240D01*
X126989525Y-94291632D01*
X127196368Y-94498475D01*
X127439589Y-94660990D01*
X127709842Y-94772932D01*
X127996740Y-94830000D01*
X128289260Y-94830000D01*
X128576158Y-94772932D01*
X128846411Y-94660990D01*
X129089632Y-94498475D01*
X129296475Y-94291632D01*
X129413000Y-94117240D01*
X129529525Y-94291632D01*
X129736368Y-94498475D01*
X129979589Y-94660990D01*
X130249842Y-94772932D01*
X130536740Y-94830000D01*
X130829260Y-94830000D01*
X131116158Y-94772932D01*
X131386411Y-94660990D01*
X131629632Y-94498475D01*
X131836475Y-94291632D01*
X131953000Y-94117240D01*
X132069525Y-94291632D01*
X132276368Y-94498475D01*
X132463000Y-94623179D01*
X132463001Y-96701670D01*
X132459324Y-96739002D01*
X132473998Y-96887987D01*
X132517454Y-97031248D01*
X132588026Y-97163278D01*
X132659201Y-97250004D01*
X132683000Y-97279003D01*
X132711998Y-97302801D01*
X133098000Y-97688804D01*
X133098000Y-98251939D01*
X133072500Y-98249428D01*
X131167500Y-98249428D01*
X131043018Y-98261688D01*
X130923320Y-98297998D01*
X130813006Y-98356963D01*
X130716315Y-98436315D01*
X130636963Y-98533006D01*
X130595549Y-98610485D01*
X130591972Y-98606908D01*
X130331963Y-98433176D01*
X130043057Y-98313507D01*
X129736355Y-98252500D01*
X129423645Y-98252500D01*
X129116943Y-98313507D01*
X128828037Y-98433176D01*
X128568028Y-98606908D01*
X128346908Y-98828028D01*
X128173176Y-99088037D01*
X128053507Y-99376943D01*
X127992500Y-99683645D01*
X127992500Y-99996355D01*
X128053507Y-100303057D01*
X128173176Y-100591963D01*
X128346908Y-100851972D01*
X128568028Y-101073092D01*
X128828037Y-101246824D01*
X129116943Y-101366493D01*
X129423645Y-101427500D01*
X129736355Y-101427500D01*
X130043057Y-101366493D01*
X130331963Y-101246824D01*
X130591972Y-101073092D01*
X130595549Y-101069515D01*
X130636963Y-101146994D01*
X130716315Y-101243685D01*
X130813006Y-101323037D01*
X130923320Y-101382002D01*
X131043018Y-101418312D01*
X131167500Y-101430572D01*
X133072500Y-101430572D01*
X133098000Y-101428061D01*
X133098001Y-103552476D01*
X132892000Y-103244174D01*
X132525826Y-102878000D01*
X132095251Y-102590299D01*
X131616822Y-102392127D01*
X131108924Y-102291100D01*
X130591076Y-102291100D01*
X130083178Y-102392127D01*
X129604749Y-102590299D01*
X129174174Y-102878000D01*
X128808000Y-103244174D01*
X128520299Y-103674749D01*
X128322127Y-104153178D01*
X128221100Y-104661076D01*
X128221100Y-105178924D01*
X128322127Y-105686822D01*
X128520299Y-106165251D01*
X128808000Y-106595826D01*
X129174174Y-106962000D01*
X129604749Y-107249701D01*
X130083178Y-107447873D01*
X130591076Y-107548900D01*
X131108924Y-107548900D01*
X131616822Y-107447873D01*
X132095251Y-107249701D01*
X132525826Y-106962000D01*
X132892000Y-106595826D01*
X133098001Y-106287524D01*
X133098001Y-106515668D01*
X133094324Y-106553000D01*
X133098001Y-106590333D01*
X133108998Y-106701986D01*
X133117188Y-106728985D01*
X133152454Y-106845246D01*
X133223026Y-106977276D01*
X133245185Y-107004276D01*
X133318000Y-107093001D01*
X133346998Y-107116799D01*
X138501201Y-112271003D01*
X138524999Y-112300001D01*
X138553997Y-112323799D01*
X138640723Y-112394974D01*
X138729617Y-112442489D01*
X138772753Y-112465546D01*
X138916014Y-112509003D01*
X139027667Y-112520000D01*
X139027677Y-112520000D01*
X139064999Y-112523676D01*
X139102322Y-112520000D01*
X173698678Y-112520000D01*
X173736000Y-112523676D01*
X173773322Y-112520000D01*
X173773333Y-112520000D01*
X173884986Y-112509003D01*
X174028247Y-112465546D01*
X174160276Y-112394974D01*
X174276001Y-112300001D01*
X174299804Y-112270997D01*
X176430802Y-110140000D01*
X176608582Y-110140000D01*
X176540176Y-110242376D01*
X176454617Y-110448933D01*
X176411000Y-110668212D01*
X176411000Y-110891788D01*
X176454617Y-111111067D01*
X176540176Y-111317624D01*
X176648672Y-111480000D01*
X176540176Y-111642376D01*
X176454617Y-111848933D01*
X176411000Y-112068212D01*
X176411000Y-112291788D01*
X176454617Y-112511067D01*
X176540176Y-112717624D01*
X176664388Y-112903520D01*
X176745913Y-112985045D01*
X176554412Y-113016550D01*
X176463542Y-113220826D01*
X176436616Y-113340000D01*
X94184933Y-113340000D01*
X89660000Y-108538032D01*
X89660000Y-101510000D01*
X89861928Y-101510000D01*
X89861928Y-103210000D01*
X89874188Y-103334482D01*
X89910498Y-103454180D01*
X89969463Y-103564494D01*
X90023222Y-103630000D01*
X89969463Y-103695506D01*
X89910498Y-103805820D01*
X89874188Y-103925518D01*
X89861928Y-104050000D01*
X89865000Y-104614250D01*
X90023750Y-104773000D01*
X91223000Y-104773000D01*
X91223000Y-104753000D01*
X91477000Y-104753000D01*
X91477000Y-104773000D01*
X91497000Y-104773000D01*
X91497000Y-105027000D01*
X91477000Y-105027000D01*
X91477000Y-105047000D01*
X91223000Y-105047000D01*
X91223000Y-105027000D01*
X90023750Y-105027000D01*
X89865000Y-105185750D01*
X89861928Y-105750000D01*
X89874188Y-105874482D01*
X89910498Y-105994180D01*
X89969463Y-106104494D01*
X90023222Y-106170000D01*
X89969463Y-106235506D01*
X89910498Y-106345820D01*
X89874188Y-106465518D01*
X89861928Y-106590000D01*
X89861928Y-108290000D01*
X89874188Y-108414482D01*
X89910498Y-108534180D01*
X89969463Y-108644494D01*
X90048815Y-108741185D01*
X90145506Y-108820537D01*
X90255820Y-108879502D01*
X90375518Y-108915812D01*
X90500000Y-108928072D01*
X91542001Y-108928072D01*
X91542001Y-110207648D01*
X91538858Y-110244163D01*
X91545582Y-110304774D01*
X91551551Y-110365383D01*
X91552740Y-110369301D01*
X91553192Y-110373379D01*
X91571611Y-110431510D01*
X91589291Y-110489793D01*
X91591223Y-110493407D01*
X91592461Y-110497315D01*
X91621859Y-110550724D01*
X91650576Y-110604450D01*
X91653174Y-110607616D01*
X91655152Y-110611209D01*
X91694399Y-110657848D01*
X91733053Y-110704948D01*
X91761381Y-110728197D01*
X93112972Y-112046917D01*
X93131052Y-112068948D01*
X93159377Y-112092193D01*
X93162293Y-112095039D01*
X93184450Y-112112771D01*
X93231550Y-112151425D01*
X93235166Y-112153358D01*
X93238365Y-112155918D01*
X93292439Y-112183971D01*
X93346207Y-112212710D01*
X93350132Y-112213901D01*
X93353768Y-112215787D01*
X93412268Y-112232750D01*
X93470617Y-112250450D01*
X93474698Y-112250852D01*
X93478633Y-112251993D01*
X93539314Y-112257216D01*
X93567581Y-112260000D01*
X93571659Y-112260000D01*
X93608163Y-112263142D01*
X93636487Y-112260000D01*
X108467581Y-112260000D01*
X108500000Y-112263193D01*
X108532419Y-112260000D01*
X108629383Y-112250450D01*
X108753793Y-112212710D01*
X108868450Y-112151425D01*
X108968948Y-112068948D01*
X109051425Y-111968450D01*
X109112710Y-111853793D01*
X109150450Y-111729383D01*
X109163193Y-111600000D01*
X109160000Y-111567581D01*
X109160000Y-109826655D01*
X131630000Y-109826655D01*
X131630000Y-110173345D01*
X131697636Y-110513373D01*
X131830308Y-110833673D01*
X132022919Y-111121935D01*
X132268065Y-111367081D01*
X132556327Y-111559692D01*
X132876627Y-111692364D01*
X133216655Y-111760000D01*
X133563345Y-111760000D01*
X133903373Y-111692364D01*
X134223673Y-111559692D01*
X134511935Y-111367081D01*
X134757081Y-111121935D01*
X134949692Y-110833673D01*
X135082364Y-110513373D01*
X135150000Y-110173345D01*
X135150000Y-109826655D01*
X135082364Y-109486627D01*
X134949692Y-109166327D01*
X134757081Y-108878065D01*
X134511935Y-108632919D01*
X134223673Y-108440308D01*
X133903373Y-108307636D01*
X133563345Y-108240000D01*
X133216655Y-108240000D01*
X132876627Y-108307636D01*
X132556327Y-108440308D01*
X132268065Y-108632919D01*
X132022919Y-108878065D01*
X131830308Y-109166327D01*
X131697636Y-109486627D01*
X131630000Y-109826655D01*
X109160000Y-109826655D01*
X109160000Y-108928072D01*
X110300000Y-108928072D01*
X110424482Y-108915812D01*
X110544180Y-108879502D01*
X110654494Y-108820537D01*
X110751185Y-108741185D01*
X110830537Y-108644494D01*
X110889502Y-108534180D01*
X110925812Y-108414482D01*
X110938072Y-108290000D01*
X110938072Y-106590000D01*
X110925812Y-106465518D01*
X110889502Y-106345820D01*
X110830537Y-106235506D01*
X110751185Y-106138815D01*
X110654494Y-106059463D01*
X110544180Y-106000498D01*
X110424482Y-105964188D01*
X110300000Y-105951928D01*
X109160000Y-105951928D01*
X109160000Y-104771278D01*
X124260000Y-104771278D01*
X124260000Y-105068722D01*
X124318029Y-105360451D01*
X124431856Y-105635253D01*
X124597107Y-105882569D01*
X124807431Y-106092893D01*
X125054747Y-106258144D01*
X125329549Y-106371971D01*
X125612638Y-106428281D01*
X125480308Y-106626327D01*
X125347636Y-106946627D01*
X125280000Y-107286655D01*
X125280000Y-107633345D01*
X125347636Y-107973373D01*
X125480308Y-108293673D01*
X125672919Y-108581935D01*
X125918065Y-108827081D01*
X126206327Y-109019692D01*
X126526627Y-109152364D01*
X126866655Y-109220000D01*
X127213345Y-109220000D01*
X127553373Y-109152364D01*
X127873673Y-109019692D01*
X128161935Y-108827081D01*
X128407081Y-108581935D01*
X128599692Y-108293673D01*
X128732364Y-107973373D01*
X128800000Y-107633345D01*
X128800000Y-107286655D01*
X128732364Y-106946627D01*
X128599692Y-106626327D01*
X128407081Y-106338065D01*
X128161935Y-106092919D01*
X127873673Y-105900308D01*
X127553373Y-105767636D01*
X127213345Y-105700000D01*
X127064882Y-105700000D01*
X127108144Y-105635253D01*
X127221971Y-105360451D01*
X127280000Y-105068722D01*
X127280000Y-104771278D01*
X127221971Y-104479549D01*
X127108144Y-104204747D01*
X126942893Y-103957431D01*
X126732569Y-103747107D01*
X126485253Y-103581856D01*
X126210451Y-103468029D01*
X125918722Y-103410000D01*
X125621278Y-103410000D01*
X125329549Y-103468029D01*
X125054747Y-103581856D01*
X124807431Y-103747107D01*
X124597107Y-103957431D01*
X124431856Y-104204747D01*
X124318029Y-104479549D01*
X124260000Y-104771278D01*
X109160000Y-104771278D01*
X109160000Y-103848072D01*
X110300000Y-103848072D01*
X110424482Y-103835812D01*
X110544180Y-103799502D01*
X110654494Y-103740537D01*
X110751185Y-103661185D01*
X110830537Y-103564494D01*
X110889502Y-103454180D01*
X110925812Y-103334482D01*
X110938072Y-103210000D01*
X110938072Y-101510000D01*
X110925812Y-101385518D01*
X110889502Y-101265820D01*
X110830537Y-101155506D01*
X110751185Y-101058815D01*
X110654494Y-100979463D01*
X110544180Y-100920498D01*
X110424482Y-100884188D01*
X110300000Y-100871928D01*
X109160000Y-100871928D01*
X109160000Y-98232419D01*
X109163193Y-98200000D01*
X109150450Y-98070617D01*
X109112710Y-97946207D01*
X109051425Y-97831550D01*
X108968948Y-97731052D01*
X108868450Y-97648575D01*
X108753793Y-97587290D01*
X108629383Y-97549550D01*
X108532419Y-97540000D01*
X108500000Y-97536807D01*
X108467581Y-97540000D01*
X93526074Y-97540000D01*
X93515304Y-97538223D01*
X93461191Y-97540000D01*
X93439581Y-97540000D01*
X93428772Y-97541065D01*
X93385365Y-97542490D01*
X93364224Y-97547422D01*
X93342617Y-97549550D01*
X93301048Y-97562160D01*
X93258757Y-97572026D01*
X93238985Y-97580987D01*
X93218207Y-97587290D01*
X93179906Y-97607762D01*
X93140342Y-97625693D01*
X93122694Y-97638342D01*
X93103550Y-97648575D01*
X93069974Y-97676130D01*
X93061150Y-97682455D01*
X93044916Y-97696695D01*
X93003052Y-97731052D01*
X92996124Y-97739493D01*
X91774936Y-98810678D01*
X91733052Y-98845052D01*
X91705492Y-98878635D01*
X91675811Y-98910331D01*
X91664351Y-98928765D01*
X91650575Y-98945551D01*
X91630096Y-98983865D01*
X91607170Y-99020742D01*
X91599526Y-99041057D01*
X91589290Y-99060208D01*
X91576680Y-99101777D01*
X91561387Y-99142422D01*
X91557853Y-99163839D01*
X91551550Y-99184618D01*
X91547292Y-99227852D01*
X91540223Y-99270696D01*
X91542000Y-99324796D01*
X91542000Y-100871928D01*
X90500000Y-100871928D01*
X90375518Y-100884188D01*
X90255820Y-100920498D01*
X90145506Y-100979463D01*
X90048815Y-101058815D01*
X89969463Y-101155506D01*
X89910498Y-101265820D01*
X89874188Y-101385518D01*
X89861928Y-101510000D01*
X89660000Y-101510000D01*
X89660000Y-99473734D01*
X96920027Y-92227000D01*
X114460893Y-92227000D01*
X114289525Y-92398368D01*
G36*
X144501001Y-98967571D02*
G01*
X144497807Y-99000000D01*
X144510550Y-99129383D01*
X144548290Y-99253793D01*
X144609575Y-99368450D01*
X144692052Y-99468948D01*
X144792550Y-99551425D01*
X144907207Y-99612710D01*
X145031617Y-99650450D01*
X145128581Y-99660000D01*
X145161000Y-99663193D01*
X145193419Y-99660000D01*
X147047203Y-99660000D01*
X147042500Y-99683645D01*
X147042500Y-99996355D01*
X147103507Y-100303057D01*
X147223176Y-100591963D01*
X147396908Y-100851972D01*
X147618028Y-101073092D01*
X147878037Y-101246824D01*
X148166943Y-101366493D01*
X148473645Y-101427500D01*
X148786355Y-101427500D01*
X149093057Y-101366493D01*
X149381963Y-101246824D01*
X149641972Y-101073092D01*
X149645549Y-101069515D01*
X149686963Y-101146994D01*
X149766315Y-101243685D01*
X149863006Y-101323037D01*
X149973320Y-101382002D01*
X150093018Y-101418312D01*
X150217500Y-101430572D01*
X152122500Y-101430572D01*
X152246982Y-101418312D01*
X152366680Y-101382002D01*
X152476994Y-101323037D01*
X152573685Y-101243685D01*
X152653037Y-101146994D01*
X152712002Y-101036680D01*
X152748312Y-100916982D01*
X152760572Y-100792500D01*
X152760572Y-99660000D01*
X166097203Y-99660000D01*
X166092500Y-99683645D01*
X166092500Y-99996355D01*
X166153507Y-100303057D01*
X166273176Y-100591963D01*
X166446908Y-100851972D01*
X166668028Y-101073092D01*
X166928037Y-101246824D01*
X167216943Y-101366493D01*
X167523645Y-101427500D01*
X167836355Y-101427500D01*
X168143057Y-101366493D01*
X168431963Y-101246824D01*
X168691972Y-101073092D01*
X168695549Y-101069515D01*
X168736963Y-101146994D01*
X168816315Y-101243685D01*
X168913006Y-101323037D01*
X169023320Y-101382002D01*
X169143018Y-101418312D01*
X169267500Y-101430572D01*
X171172500Y-101430572D01*
X171296982Y-101418312D01*
X171416680Y-101382002D01*
X171526994Y-101323037D01*
X171623685Y-101243685D01*
X171703037Y-101146994D01*
X171748250Y-101062406D01*
X176408489Y-101062406D01*
X176446423Y-101282740D01*
X176526613Y-101491440D01*
X176554412Y-101543450D01*
X176767834Y-101578561D01*
X177366395Y-100980000D01*
X177725605Y-100980000D01*
X178324166Y-101578561D01*
X178537588Y-101543450D01*
X178628458Y-101339174D01*
X178677731Y-101121095D01*
X178683511Y-100897594D01*
X178645577Y-100677260D01*
X178565387Y-100468560D01*
X178537588Y-100416550D01*
X178324166Y-100381439D01*
X177725605Y-100980000D01*
X177366395Y-100980000D01*
X176767834Y-100381439D01*
X176554412Y-100416550D01*
X176463542Y-100620826D01*
X176414269Y-100838905D01*
X176408489Y-101062406D01*
X171748250Y-101062406D01*
X171762002Y-101036680D01*
X171798312Y-100916982D01*
X171810572Y-100792500D01*
X171810572Y-100201834D01*
X176947439Y-100201834D01*
X177025605Y-100280000D01*
X176947439Y-100358166D01*
X176982550Y-100571588D01*
X177186826Y-100662458D01*
X177404905Y-100711731D01*
X177458728Y-100713123D01*
X177546000Y-100800395D01*
X177628983Y-100717412D01*
X177848740Y-100679577D01*
X178057440Y-100599387D01*
X178109450Y-100571588D01*
X178144561Y-100358166D01*
X178066395Y-100280000D01*
X178144561Y-100201834D01*
X178109450Y-99988412D01*
X177905174Y-99897542D01*
X177687095Y-99848269D01*
X177633272Y-99846877D01*
X177546000Y-99759605D01*
X177463017Y-99842588D01*
X177243260Y-99880423D01*
X177034560Y-99960613D01*
X176982550Y-99988412D01*
X176947439Y-100201834D01*
X171810572Y-100201834D01*
X171810572Y-99660000D01*
X176408551Y-99660000D01*
X176408489Y-99662406D01*
X176446423Y-99882740D01*
X176526613Y-100091440D01*
X176554412Y-100143450D01*
X176767834Y-100178561D01*
X177286395Y-99660000D01*
X177805605Y-99660000D01*
X178324166Y-100178561D01*
X178537588Y-100143450D01*
X178628458Y-99939174D01*
X178677731Y-99721095D01*
X178679311Y-99660000D01*
X185147203Y-99660000D01*
X185142500Y-99683645D01*
X185142500Y-99996355D01*
X185203507Y-100303057D01*
X185323176Y-100591963D01*
X185496908Y-100851972D01*
X185718028Y-101073092D01*
X185978037Y-101246824D01*
X186266943Y-101366493D01*
X186573645Y-101427500D01*
X186886355Y-101427500D01*
X187193057Y-101366493D01*
X187481963Y-101246824D01*
X187741972Y-101073092D01*
X187745549Y-101069515D01*
X187786963Y-101146994D01*
X187866315Y-101243685D01*
X187963006Y-101323037D01*
X188073320Y-101382002D01*
X188193018Y-101418312D01*
X188317500Y-101430572D01*
X190222500Y-101430572D01*
X190346982Y-101418312D01*
X190466680Y-101382002D01*
X190576994Y-101323037D01*
X190673685Y-101243685D01*
X190753037Y-101146994D01*
X190812002Y-101036680D01*
X190848312Y-100916982D01*
X190860572Y-100792500D01*
X190860572Y-99660000D01*
X204197203Y-99660000D01*
X204192500Y-99683645D01*
X204192500Y-99996355D01*
X204253507Y-100303057D01*
X204373176Y-100591963D01*
X204546908Y-100851972D01*
X204768028Y-101073092D01*
X205028037Y-101246824D01*
X205316943Y-101366493D01*
X205623645Y-101427500D01*
X205936355Y-101427500D01*
X206243057Y-101366493D01*
X206531963Y-101246824D01*
X206791972Y-101073092D01*
X206795549Y-101069515D01*
X206836963Y-101146994D01*
X206916315Y-101243685D01*
X207013006Y-101323037D01*
X207123320Y-101382002D01*
X207243018Y-101418312D01*
X207367500Y-101430572D01*
X209272500Y-101430572D01*
X209396982Y-101418312D01*
X209516680Y-101382002D01*
X209626994Y-101323037D01*
X209723685Y-101243685D01*
X209803037Y-101146994D01*
X209862002Y-101036680D01*
X209898312Y-100916982D01*
X209910572Y-100792500D01*
X209910572Y-99660000D01*
X213440001Y-99660000D01*
X213440001Y-104162627D01*
X213302893Y-103957431D01*
X213092569Y-103747107D01*
X212845253Y-103581856D01*
X212570451Y-103468029D01*
X212278722Y-103410000D01*
X211981278Y-103410000D01*
X211689549Y-103468029D01*
X211414747Y-103581856D01*
X211167431Y-103747107D01*
X210957107Y-103957431D01*
X210791856Y-104204747D01*
X210678029Y-104479549D01*
X210620000Y-104771278D01*
X210620000Y-105068722D01*
X210678029Y-105360451D01*
X210791856Y-105635253D01*
X210957107Y-105882569D01*
X211167431Y-106092893D01*
X211414747Y-106258144D01*
X211689549Y-106371971D01*
X211981278Y-106430000D01*
X212278722Y-106430000D01*
X212570451Y-106371971D01*
X212845253Y-106258144D01*
X213092569Y-106092893D01*
X213302893Y-105882569D01*
X213440001Y-105677373D01*
X213440000Y-113340000D01*
X178656379Y-113340000D01*
X178645577Y-113277260D01*
X178565387Y-113068560D01*
X178537588Y-113016550D01*
X178346087Y-112985045D01*
X178427612Y-112903520D01*
X178551824Y-112717624D01*
X178637383Y-112511067D01*
X178681000Y-112291788D01*
X178681000Y-112068212D01*
X178637383Y-111848933D01*
X178551824Y-111642376D01*
X178443328Y-111480000D01*
X178551824Y-111317624D01*
X178637383Y-111111067D01*
X178681000Y-110891788D01*
X178681000Y-110668212D01*
X178637383Y-110448933D01*
X178551824Y-110242376D01*
X178483418Y-110140000D01*
X184378680Y-110140000D01*
X184416002Y-110143676D01*
X184453324Y-110140000D01*
X184453335Y-110140000D01*
X184564988Y-110129003D01*
X184708249Y-110085546D01*
X184840278Y-110014974D01*
X184956003Y-109920001D01*
X184979806Y-109890997D01*
X186410805Y-108459999D01*
X189676857Y-108459999D01*
X189418065Y-108632919D01*
X189172919Y-108878065D01*
X188980308Y-109166327D01*
X188847636Y-109486627D01*
X188780000Y-109826655D01*
X188780000Y-110173345D01*
X188847636Y-110513373D01*
X188980308Y-110833673D01*
X189172919Y-111121935D01*
X189418065Y-111367081D01*
X189706327Y-111559692D01*
X190026627Y-111692364D01*
X190366655Y-111760000D01*
X190713345Y-111760000D01*
X191053373Y-111692364D01*
X191373673Y-111559692D01*
X191661935Y-111367081D01*
X191907081Y-111121935D01*
X192099692Y-110833673D01*
X192232364Y-110513373D01*
X192300000Y-110173345D01*
X192300000Y-109826655D01*
X192232364Y-109486627D01*
X192099692Y-109166327D01*
X191907081Y-108878065D01*
X191661935Y-108632919D01*
X191403143Y-108459999D01*
X196595413Y-108459999D01*
X196444010Y-108686589D01*
X196332068Y-108956842D01*
X196275000Y-109243740D01*
X196275000Y-109536260D01*
X196332068Y-109823158D01*
X196444010Y-110093411D01*
X196606525Y-110336632D01*
X196813368Y-110543475D01*
X197056589Y-110705990D01*
X197326842Y-110817932D01*
X197613740Y-110875000D01*
X197906260Y-110875000D01*
X198193158Y-110817932D01*
X198463411Y-110705990D01*
X198706632Y-110543475D01*
X198913475Y-110336632D01*
X199075990Y-110093411D01*
X199186483Y-109826655D01*
X207830000Y-109826655D01*
X207830000Y-110173345D01*
X207897636Y-110513373D01*
X208030308Y-110833673D01*
X208222919Y-111121935D01*
X208468065Y-111367081D01*
X208756327Y-111559692D01*
X209076627Y-111692364D01*
X209416655Y-111760000D01*
X209763345Y-111760000D01*
X210103373Y-111692364D01*
X210423673Y-111559692D01*
X210711935Y-111367081D01*
X210957081Y-111121935D01*
X211149692Y-110833673D01*
X211282364Y-110513373D01*
X211350000Y-110173345D01*
X211350000Y-109826655D01*
X211282364Y-109486627D01*
X211149692Y-109166327D01*
X210957081Y-108878065D01*
X210711935Y-108632919D01*
X210423673Y-108440308D01*
X210103373Y-108307636D01*
X209763345Y-108240000D01*
X209416655Y-108240000D01*
X209076627Y-108307636D01*
X208756327Y-108440308D01*
X208468065Y-108632919D01*
X208222919Y-108878065D01*
X208030308Y-109166327D01*
X207897636Y-109486627D01*
X207830000Y-109826655D01*
X199186483Y-109826655D01*
X199187932Y-109823158D01*
X199245000Y-109536260D01*
X199245000Y-109243740D01*
X199187932Y-108956842D01*
X199075990Y-108686589D01*
X198913475Y-108443368D01*
X198706632Y-108236525D01*
X198532240Y-108120000D01*
X198706632Y-108003475D01*
X198913475Y-107796632D01*
X199075990Y-107553411D01*
X199187932Y-107283158D01*
X199245000Y-106996260D01*
X199245000Y-106703740D01*
X199187932Y-106416842D01*
X199075990Y-106146589D01*
X198913475Y-105903368D01*
X198781620Y-105771513D01*
X198854180Y-105749502D01*
X198964494Y-105690537D01*
X199061185Y-105611185D01*
X199140537Y-105514494D01*
X199199502Y-105404180D01*
X199235812Y-105284482D01*
X199248072Y-105160000D01*
X199248072Y-104771278D01*
X200460000Y-104771278D01*
X200460000Y-105068722D01*
X200518029Y-105360451D01*
X200631856Y-105635253D01*
X200797107Y-105882569D01*
X201007431Y-106092893D01*
X201254747Y-106258144D01*
X201529549Y-106371971D01*
X201812638Y-106428281D01*
X201680308Y-106626327D01*
X201547636Y-106946627D01*
X201480000Y-107286655D01*
X201480000Y-107633345D01*
X201547636Y-107973373D01*
X201680308Y-108293673D01*
X201872919Y-108581935D01*
X202118065Y-108827081D01*
X202406327Y-109019692D01*
X202726627Y-109152364D01*
X203066655Y-109220000D01*
X203413345Y-109220000D01*
X203753373Y-109152364D01*
X204073673Y-109019692D01*
X204361935Y-108827081D01*
X204607081Y-108581935D01*
X204799692Y-108293673D01*
X204932364Y-107973373D01*
X205000000Y-107633345D01*
X205000000Y-107286655D01*
X204932364Y-106946627D01*
X204799692Y-106626327D01*
X204607081Y-106338065D01*
X204361935Y-106092919D01*
X204073673Y-105900308D01*
X203753373Y-105767636D01*
X203413345Y-105700000D01*
X203264882Y-105700000D01*
X203308144Y-105635253D01*
X203421971Y-105360451D01*
X203480000Y-105068722D01*
X203480000Y-104771278D01*
X203458080Y-104661076D01*
X204421100Y-104661076D01*
X204421100Y-105178924D01*
X204522127Y-105686822D01*
X204720299Y-106165251D01*
X205008000Y-106595826D01*
X205374174Y-106962000D01*
X205804749Y-107249701D01*
X206283178Y-107447873D01*
X206791076Y-107548900D01*
X207308924Y-107548900D01*
X207816822Y-107447873D01*
X208295251Y-107249701D01*
X208725826Y-106962000D01*
X209092000Y-106595826D01*
X209379701Y-106165251D01*
X209577873Y-105686822D01*
X209678900Y-105178924D01*
X209678900Y-104661076D01*
X209577873Y-104153178D01*
X209379701Y-103674749D01*
X209092000Y-103244174D01*
X208725826Y-102878000D01*
X208295251Y-102590299D01*
X207816822Y-102392127D01*
X207308924Y-102291100D01*
X206791076Y-102291100D01*
X206283178Y-102392127D01*
X205804749Y-102590299D01*
X205374174Y-102878000D01*
X205008000Y-103244174D01*
X204720299Y-103674749D01*
X204522127Y-104153178D01*
X204421100Y-104661076D01*
X203458080Y-104661076D01*
X203421971Y-104479549D01*
X203308144Y-104204747D01*
X203142893Y-103957431D01*
X202932569Y-103747107D01*
X202685253Y-103581856D01*
X202410451Y-103468029D01*
X202118722Y-103410000D01*
X201821278Y-103410000D01*
X201529549Y-103468029D01*
X201254747Y-103581856D01*
X201007431Y-103747107D01*
X200797107Y-103957431D01*
X200631856Y-104204747D01*
X200518029Y-104479549D01*
X200460000Y-104771278D01*
X199248072Y-104771278D01*
X199248072Y-103460000D01*
X199235812Y-103335518D01*
X199199502Y-103215820D01*
X199140537Y-103105506D01*
X199061185Y-103008815D01*
X198964494Y-102929463D01*
X198854180Y-102870498D01*
X198734482Y-102834188D01*
X198610000Y-102821928D01*
X196910000Y-102821928D01*
X196785518Y-102834188D01*
X196665820Y-102870498D01*
X196555506Y-102929463D01*
X196458815Y-103008815D01*
X196379463Y-103105506D01*
X196320498Y-103215820D01*
X196284188Y-103335518D01*
X196271928Y-103460000D01*
X196271928Y-105160000D01*
X196284188Y-105284482D01*
X196320498Y-105404180D01*
X196379463Y-105514494D01*
X196458815Y-105611185D01*
X196555506Y-105690537D01*
X196665820Y-105749502D01*
X196738380Y-105771513D01*
X196606525Y-105903368D01*
X196444010Y-106146589D01*
X196332068Y-106416842D01*
X196275000Y-106703740D01*
X196275000Y-106939999D01*
X189697827Y-106939999D01*
X190042000Y-106595826D01*
X190329701Y-106165251D01*
X190527873Y-105686822D01*
X190628900Y-105178924D01*
X190628900Y-104771278D01*
X191570000Y-104771278D01*
X191570000Y-105068722D01*
X191628029Y-105360451D01*
X191741856Y-105635253D01*
X191907107Y-105882569D01*
X192117431Y-106092893D01*
X192364747Y-106258144D01*
X192639549Y-106371971D01*
X192931278Y-106430000D01*
X193228722Y-106430000D01*
X193520451Y-106371971D01*
X193795253Y-106258144D01*
X194042569Y-106092893D01*
X194252893Y-105882569D01*
X194418144Y-105635253D01*
X194531971Y-105360451D01*
X194590000Y-105068722D01*
X194590000Y-104771278D01*
X194531971Y-104479549D01*
X194418144Y-104204747D01*
X194252893Y-103957431D01*
X194042569Y-103747107D01*
X193795253Y-103581856D01*
X193520451Y-103468029D01*
X193228722Y-103410000D01*
X192931278Y-103410000D01*
X192639549Y-103468029D01*
X192364747Y-103581856D01*
X192117431Y-103747107D01*
X191907107Y-103957431D01*
X191741856Y-104204747D01*
X191628029Y-104479549D01*
X191570000Y-104771278D01*
X190628900Y-104771278D01*
X190628900Y-104661076D01*
X190527873Y-104153178D01*
X190329701Y-103674749D01*
X190042000Y-103244174D01*
X189675826Y-102878000D01*
X189245251Y-102590299D01*
X188766822Y-102392127D01*
X188258924Y-102291100D01*
X187741076Y-102291100D01*
X187233178Y-102392127D01*
X186754749Y-102590299D01*
X186324174Y-102878000D01*
X185958000Y-103244174D01*
X185670299Y-103674749D01*
X185472127Y-104153178D01*
X185371100Y-104661076D01*
X185371100Y-105178924D01*
X185472127Y-105686822D01*
X185670299Y-106165251D01*
X185958000Y-106595826D01*
X186302173Y-106939999D01*
X186133325Y-106939999D01*
X186096002Y-106936323D01*
X186058679Y-106939999D01*
X186058670Y-106939999D01*
X185947017Y-106950996D01*
X185886863Y-106969243D01*
X185882364Y-106946627D01*
X185749692Y-106626327D01*
X185557081Y-106338065D01*
X185311935Y-106092919D01*
X185023673Y-105900308D01*
X184703373Y-105767636D01*
X184363345Y-105700000D01*
X184214882Y-105700000D01*
X184258144Y-105635253D01*
X184371971Y-105360451D01*
X184430000Y-105068722D01*
X184430000Y-104771278D01*
X184371971Y-104479549D01*
X184258144Y-104204747D01*
X184092893Y-103957431D01*
X183882569Y-103747107D01*
X183635253Y-103581856D01*
X183360451Y-103468029D01*
X183068722Y-103410000D01*
X182771278Y-103410000D01*
X182479549Y-103468029D01*
X182204747Y-103581856D01*
X181957431Y-103747107D01*
X181747107Y-103957431D01*
X181581856Y-104204747D01*
X181468029Y-104479549D01*
X181410000Y-104771278D01*
X181410000Y-105068722D01*
X181468029Y-105360451D01*
X181581856Y-105635253D01*
X181747107Y-105882569D01*
X181957431Y-106092893D01*
X182204747Y-106258144D01*
X182479549Y-106371971D01*
X182762638Y-106428281D01*
X182630308Y-106626327D01*
X182599792Y-106700000D01*
X179910802Y-106700000D01*
X179279803Y-106069002D01*
X179256001Y-106039999D01*
X179140276Y-105945026D01*
X179008247Y-105874454D01*
X178864986Y-105830997D01*
X178753333Y-105820000D01*
X178753322Y-105820000D01*
X178716000Y-105816324D01*
X178678678Y-105820000D01*
X178391132Y-105820000D01*
X178346087Y-105774955D01*
X178537588Y-105743450D01*
X178628458Y-105539174D01*
X178677731Y-105321095D01*
X178683511Y-105097594D01*
X178645577Y-104877260D01*
X178565387Y-104668560D01*
X178537588Y-104616550D01*
X178324166Y-104581439D01*
X177725605Y-105180000D01*
X177739748Y-105194143D01*
X177560143Y-105373748D01*
X177546000Y-105359605D01*
X177531858Y-105373748D01*
X177352253Y-105194143D01*
X177366395Y-105180000D01*
X176767834Y-104581439D01*
X176554412Y-104616550D01*
X176463542Y-104820826D01*
X176414269Y-105038905D01*
X176408489Y-105262406D01*
X176446423Y-105482740D01*
X176526613Y-105691440D01*
X176554412Y-105743450D01*
X176745913Y-105774955D01*
X176664388Y-105856480D01*
X176540176Y-106042376D01*
X176454617Y-106248933D01*
X176411000Y-106468212D01*
X176411000Y-106691788D01*
X176454617Y-106911067D01*
X176540176Y-107117624D01*
X176648672Y-107280000D01*
X176540176Y-107442376D01*
X176454617Y-107648933D01*
X176411000Y-107868212D01*
X176411000Y-108091788D01*
X176454617Y-108311067D01*
X176540176Y-108517624D01*
X176608582Y-108620000D01*
X176153322Y-108620000D01*
X176115999Y-108616324D01*
X176078676Y-108620000D01*
X176078667Y-108620000D01*
X175967014Y-108630997D01*
X175823753Y-108674454D01*
X175691724Y-108745026D01*
X175575999Y-108839999D01*
X175552201Y-108868997D01*
X173421199Y-111000000D01*
X172938556Y-111000000D01*
X173049692Y-110833673D01*
X173182364Y-110513373D01*
X173250000Y-110173345D01*
X173250000Y-109826655D01*
X173182364Y-109486627D01*
X173049692Y-109166327D01*
X172857081Y-108878065D01*
X172611935Y-108632919D01*
X172323673Y-108440308D01*
X172003373Y-108307636D01*
X171663345Y-108240000D01*
X171316655Y-108240000D01*
X170976627Y-108307636D01*
X170656327Y-108440308D01*
X170368065Y-108632919D01*
X170122919Y-108878065D01*
X169930308Y-109166327D01*
X169797636Y-109486627D01*
X169730000Y-109826655D01*
X169730000Y-110173345D01*
X169797636Y-110513373D01*
X169930308Y-110833673D01*
X170041444Y-111000000D01*
X153888556Y-111000000D01*
X153999692Y-110833673D01*
X154132364Y-110513373D01*
X154200000Y-110173345D01*
X154200000Y-109826655D01*
X154132364Y-109486627D01*
X153999692Y-109166327D01*
X153807081Y-108878065D01*
X153561935Y-108632919D01*
X153273673Y-108440308D01*
X152953373Y-108307636D01*
X152613345Y-108240000D01*
X152266655Y-108240000D01*
X151926627Y-108307636D01*
X151856413Y-108336719D01*
X151855002Y-108335000D01*
X151739277Y-108240027D01*
X151607248Y-108169455D01*
X151463987Y-108125998D01*
X151352334Y-108115001D01*
X151352323Y-108115001D01*
X151315001Y-108111325D01*
X151277679Y-108115001D01*
X150865805Y-108115001D01*
X150276347Y-107525543D01*
X150666822Y-107447873D01*
X151145251Y-107249701D01*
X151575826Y-106962000D01*
X151942000Y-106595826D01*
X152229701Y-106165251D01*
X152427873Y-105686822D01*
X152528900Y-105178924D01*
X152528900Y-104771278D01*
X153470000Y-104771278D01*
X153470000Y-105068722D01*
X153528029Y-105360451D01*
X153641856Y-105635253D01*
X153807107Y-105882569D01*
X154017431Y-106092893D01*
X154264747Y-106258144D01*
X154539549Y-106371971D01*
X154831278Y-106430000D01*
X155128722Y-106430000D01*
X155420451Y-106371971D01*
X155695253Y-106258144D01*
X155942569Y-106092893D01*
X156152893Y-105882569D01*
X156318144Y-105635253D01*
X156431971Y-105360451D01*
X156490000Y-105068722D01*
X156490000Y-104771278D01*
X162360000Y-104771278D01*
X162360000Y-105068722D01*
X162418029Y-105360451D01*
X162531856Y-105635253D01*
X162697107Y-105882569D01*
X162907431Y-106092893D01*
X163154747Y-106258144D01*
X163429549Y-106371971D01*
X163712638Y-106428281D01*
X163580308Y-106626327D01*
X163447636Y-106946627D01*
X163380000Y-107286655D01*
X163380000Y-107633345D01*
X163447636Y-107973373D01*
X163580308Y-108293673D01*
X163772919Y-108581935D01*
X164018065Y-108827081D01*
X164306327Y-109019692D01*
X164626627Y-109152364D01*
X164966655Y-109220000D01*
X165313345Y-109220000D01*
X165653373Y-109152364D01*
X165973673Y-109019692D01*
X166261935Y-108827081D01*
X166507081Y-108581935D01*
X166699692Y-108293673D01*
X166832364Y-107973373D01*
X166900000Y-107633345D01*
X166900000Y-107286655D01*
X166832364Y-106946627D01*
X166699692Y-106626327D01*
X166507081Y-106338065D01*
X166261935Y-106092919D01*
X165973673Y-105900308D01*
X165653373Y-105767636D01*
X165313345Y-105700000D01*
X165164882Y-105700000D01*
X165208144Y-105635253D01*
X165321971Y-105360451D01*
X165380000Y-105068722D01*
X165380000Y-104771278D01*
X165358080Y-104661076D01*
X166321100Y-104661076D01*
X166321100Y-105178924D01*
X166422127Y-105686822D01*
X166620299Y-106165251D01*
X166908000Y-106595826D01*
X167274174Y-106962000D01*
X167704749Y-107249701D01*
X168183178Y-107447873D01*
X168691076Y-107548900D01*
X169208924Y-107548900D01*
X169716822Y-107447873D01*
X170195251Y-107249701D01*
X170625826Y-106962000D01*
X170992000Y-106595826D01*
X171279701Y-106165251D01*
X171477873Y-105686822D01*
X171578900Y-105178924D01*
X171578900Y-104771278D01*
X172520000Y-104771278D01*
X172520000Y-105068722D01*
X172578029Y-105360451D01*
X172691856Y-105635253D01*
X172857107Y-105882569D01*
X173067431Y-106092893D01*
X173314747Y-106258144D01*
X173589549Y-106371971D01*
X173881278Y-106430000D01*
X174178722Y-106430000D01*
X174470451Y-106371971D01*
X174745253Y-106258144D01*
X174992569Y-106092893D01*
X175202893Y-105882569D01*
X175368144Y-105635253D01*
X175481971Y-105360451D01*
X175540000Y-105068722D01*
X175540000Y-104771278D01*
X175481971Y-104479549D01*
X175449781Y-104401834D01*
X176947439Y-104401834D01*
X177025605Y-104480000D01*
X176947439Y-104558166D01*
X176982550Y-104771588D01*
X177186826Y-104862458D01*
X177404905Y-104911731D01*
X177458728Y-104913123D01*
X177546000Y-105000395D01*
X177628983Y-104917412D01*
X177848740Y-104879577D01*
X178057440Y-104799387D01*
X178109450Y-104771588D01*
X178144561Y-104558166D01*
X178066395Y-104480000D01*
X178144561Y-104401834D01*
X178109450Y-104188412D01*
X177905174Y-104097542D01*
X177687095Y-104048269D01*
X177633272Y-104046877D01*
X177546000Y-103959605D01*
X177463017Y-104042588D01*
X177243260Y-104080423D01*
X177034560Y-104160613D01*
X176982550Y-104188412D01*
X176947439Y-104401834D01*
X175449781Y-104401834D01*
X175368144Y-104204747D01*
X175202893Y-103957431D01*
X175107868Y-103862406D01*
X176408489Y-103862406D01*
X176446423Y-104082740D01*
X176526613Y-104291440D01*
X176554412Y-104343450D01*
X176767834Y-104378561D01*
X177366395Y-103780000D01*
X177725605Y-103780000D01*
X178324166Y-104378561D01*
X178537588Y-104343450D01*
X178628458Y-104139174D01*
X178677731Y-103921095D01*
X178683511Y-103697594D01*
X178645577Y-103477260D01*
X178565387Y-103268560D01*
X178537588Y-103216550D01*
X178324166Y-103181439D01*
X177725605Y-103780000D01*
X177366395Y-103780000D01*
X176767834Y-103181439D01*
X176554412Y-103216550D01*
X176463542Y-103420826D01*
X176414269Y-103638905D01*
X176408489Y-103862406D01*
X175107868Y-103862406D01*
X174992569Y-103747107D01*
X174745253Y-103581856D01*
X174470451Y-103468029D01*
X174178722Y-103410000D01*
X173881278Y-103410000D01*
X173589549Y-103468029D01*
X173314747Y-103581856D01*
X173067431Y-103747107D01*
X172857107Y-103957431D01*
X172691856Y-104204747D01*
X172578029Y-104479549D01*
X172520000Y-104771278D01*
X171578900Y-104771278D01*
X171578900Y-104661076D01*
X171477873Y-104153178D01*
X171279701Y-103674749D01*
X170992000Y-103244174D01*
X170749660Y-103001834D01*
X176947439Y-103001834D01*
X177025605Y-103080000D01*
X176947439Y-103158166D01*
X176982550Y-103371588D01*
X177186826Y-103462458D01*
X177404905Y-103511731D01*
X177458728Y-103513123D01*
X177546000Y-103600395D01*
X177628983Y-103517412D01*
X177848740Y-103479577D01*
X178057440Y-103399387D01*
X178109450Y-103371588D01*
X178144561Y-103158166D01*
X178066395Y-103080000D01*
X178144561Y-103001834D01*
X178109450Y-102788412D01*
X177905174Y-102697542D01*
X177687095Y-102648269D01*
X177633272Y-102646877D01*
X177546000Y-102559605D01*
X177463017Y-102642588D01*
X177243260Y-102680423D01*
X177034560Y-102760613D01*
X176982550Y-102788412D01*
X176947439Y-103001834D01*
X170749660Y-103001834D01*
X170625826Y-102878000D01*
X170195251Y-102590299D01*
X169886491Y-102462406D01*
X176408489Y-102462406D01*
X176446423Y-102682740D01*
X176526613Y-102891440D01*
X176554412Y-102943450D01*
X176767834Y-102978561D01*
X177366395Y-102380000D01*
X177725605Y-102380000D01*
X178324166Y-102978561D01*
X178537588Y-102943450D01*
X178628458Y-102739174D01*
X178677731Y-102521095D01*
X178683511Y-102297594D01*
X178645577Y-102077260D01*
X178565387Y-101868560D01*
X178537588Y-101816550D01*
X178324166Y-101781439D01*
X177725605Y-102380000D01*
X177366395Y-102380000D01*
X176767834Y-101781439D01*
X176554412Y-101816550D01*
X176463542Y-102020826D01*
X176414269Y-102238905D01*
X176408489Y-102462406D01*
X169886491Y-102462406D01*
X169716822Y-102392127D01*
X169208924Y-102291100D01*
X168691076Y-102291100D01*
X168183178Y-102392127D01*
X167704749Y-102590299D01*
X167274174Y-102878000D01*
X166908000Y-103244174D01*
X166620299Y-103674749D01*
X166422127Y-104153178D01*
X166321100Y-104661076D01*
X165358080Y-104661076D01*
X165321971Y-104479549D01*
X165208144Y-104204747D01*
X165042893Y-103957431D01*
X164832569Y-103747107D01*
X164585253Y-103581856D01*
X164310451Y-103468029D01*
X164018722Y-103410000D01*
X163721278Y-103410000D01*
X163429549Y-103468029D01*
X163154747Y-103581856D01*
X162907431Y-103747107D01*
X162697107Y-103957431D01*
X162531856Y-104204747D01*
X162418029Y-104479549D01*
X162360000Y-104771278D01*
X156490000Y-104771278D01*
X156431971Y-104479549D01*
X156318144Y-104204747D01*
X156152893Y-103957431D01*
X155942569Y-103747107D01*
X155695253Y-103581856D01*
X155420451Y-103468029D01*
X155128722Y-103410000D01*
X154831278Y-103410000D01*
X154539549Y-103468029D01*
X154264747Y-103581856D01*
X154017431Y-103747107D01*
X153807107Y-103957431D01*
X153641856Y-104204747D01*
X153528029Y-104479549D01*
X153470000Y-104771278D01*
X152528900Y-104771278D01*
X152528900Y-104661076D01*
X152427873Y-104153178D01*
X152229701Y-103674749D01*
X151942000Y-103244174D01*
X151575826Y-102878000D01*
X151145251Y-102590299D01*
X150666822Y-102392127D01*
X150158924Y-102291100D01*
X149641076Y-102291100D01*
X149133178Y-102392127D01*
X148654749Y-102590299D01*
X148224174Y-102878000D01*
X147858000Y-103244174D01*
X147570299Y-103674749D01*
X147372127Y-104153178D01*
X147294457Y-104543653D01*
X144352638Y-101601834D01*
X176947439Y-101601834D01*
X177025605Y-101680000D01*
X176947439Y-101758166D01*
X176982550Y-101971588D01*
X177186826Y-102062458D01*
X177404905Y-102111731D01*
X177458728Y-102113123D01*
X177546000Y-102200395D01*
X177628983Y-102117412D01*
X177848740Y-102079577D01*
X178057440Y-101999387D01*
X178109450Y-101971588D01*
X178144561Y-101758166D01*
X178066395Y-101680000D01*
X178144561Y-101601834D01*
X178109450Y-101388412D01*
X177905174Y-101297542D01*
X177687095Y-101248269D01*
X177633272Y-101246877D01*
X177546000Y-101159605D01*
X177463017Y-101242588D01*
X177243260Y-101280423D01*
X177034560Y-101360613D01*
X176982550Y-101388412D01*
X176947439Y-101601834D01*
X144352638Y-101601834D01*
X144143000Y-101392197D01*
X144143000Y-94833072D01*
X144233000Y-94833072D01*
X144357482Y-94820812D01*
X144477180Y-94784502D01*
X144501000Y-94771770D01*
X144501001Y-98967571D01*
G37*
X144501001Y-98967571D02*
X144497807Y-99000000D01*
X144510550Y-99129383D01*
X144548290Y-99253793D01*
X144609575Y-99368450D01*
X144692052Y-99468948D01*
X144792550Y-99551425D01*
X144907207Y-99612710D01*
X145031617Y-99650450D01*
X145128581Y-99660000D01*
X145161000Y-99663193D01*
X145193419Y-99660000D01*
X147047203Y-99660000D01*
X147042500Y-99683645D01*
X147042500Y-99996355D01*
X147103507Y-100303057D01*
X147223176Y-100591963D01*
X147396908Y-100851972D01*
X147618028Y-101073092D01*
X147878037Y-101246824D01*
X148166943Y-101366493D01*
X148473645Y-101427500D01*
X148786355Y-101427500D01*
X149093057Y-101366493D01*
X149381963Y-101246824D01*
X149641972Y-101073092D01*
X149645549Y-101069515D01*
X149686963Y-101146994D01*
X149766315Y-101243685D01*
X149863006Y-101323037D01*
X149973320Y-101382002D01*
X150093018Y-101418312D01*
X150217500Y-101430572D01*
X152122500Y-101430572D01*
X152246982Y-101418312D01*
X152366680Y-101382002D01*
X152476994Y-101323037D01*
X152573685Y-101243685D01*
X152653037Y-101146994D01*
X152712002Y-101036680D01*
X152748312Y-100916982D01*
X152760572Y-100792500D01*
X152760572Y-99660000D01*
X166097203Y-99660000D01*
X166092500Y-99683645D01*
X166092500Y-99996355D01*
X166153507Y-100303057D01*
X166273176Y-100591963D01*
X166446908Y-100851972D01*
X166668028Y-101073092D01*
X166928037Y-101246824D01*
X167216943Y-101366493D01*
X167523645Y-101427500D01*
X167836355Y-101427500D01*
X168143057Y-101366493D01*
X168431963Y-101246824D01*
X168691972Y-101073092D01*
X168695549Y-101069515D01*
X168736963Y-101146994D01*
X168816315Y-101243685D01*
X168913006Y-101323037D01*
X169023320Y-101382002D01*
X169143018Y-101418312D01*
X169267500Y-101430572D01*
X171172500Y-101430572D01*
X171296982Y-101418312D01*
X171416680Y-101382002D01*
X171526994Y-101323037D01*
X171623685Y-101243685D01*
X171703037Y-101146994D01*
X171748250Y-101062406D01*
X176408489Y-101062406D01*
X176446423Y-101282740D01*
X176526613Y-101491440D01*
X176554412Y-101543450D01*
X176767834Y-101578561D01*
X177366395Y-100980000D01*
X177725605Y-100980000D01*
X178324166Y-101578561D01*
X178537588Y-101543450D01*
X178628458Y-101339174D01*
X178677731Y-101121095D01*
X178683511Y-100897594D01*
X178645577Y-100677260D01*
X178565387Y-100468560D01*
X178537588Y-100416550D01*
X178324166Y-100381439D01*
X177725605Y-100980000D01*
X177366395Y-100980000D01*
X176767834Y-100381439D01*
X176554412Y-100416550D01*
X176463542Y-100620826D01*
X176414269Y-100838905D01*
X176408489Y-101062406D01*
X171748250Y-101062406D01*
X171762002Y-101036680D01*
X171798312Y-100916982D01*
X171810572Y-100792500D01*
X171810572Y-100201834D01*
X176947439Y-100201834D01*
X177025605Y-100280000D01*
X176947439Y-100358166D01*
X176982550Y-100571588D01*
X177186826Y-100662458D01*
X177404905Y-100711731D01*
X177458728Y-100713123D01*
X177546000Y-100800395D01*
X177628983Y-100717412D01*
X177848740Y-100679577D01*
X178057440Y-100599387D01*
X178109450Y-100571588D01*
X178144561Y-100358166D01*
X178066395Y-100280000D01*
X178144561Y-100201834D01*
X178109450Y-99988412D01*
X177905174Y-99897542D01*
X177687095Y-99848269D01*
X177633272Y-99846877D01*
X177546000Y-99759605D01*
X177463017Y-99842588D01*
X177243260Y-99880423D01*
X177034560Y-99960613D01*
X176982550Y-99988412D01*
X176947439Y-100201834D01*
X171810572Y-100201834D01*
X171810572Y-99660000D01*
X176408551Y-99660000D01*
X176408489Y-99662406D01*
X176446423Y-99882740D01*
X176526613Y-100091440D01*
X176554412Y-100143450D01*
X176767834Y-100178561D01*
X177286395Y-99660000D01*
X177805605Y-99660000D01*
X178324166Y-100178561D01*
X178537588Y-100143450D01*
X178628458Y-99939174D01*
X178677731Y-99721095D01*
X178679311Y-99660000D01*
X185147203Y-99660000D01*
X185142500Y-99683645D01*
X185142500Y-99996355D01*
X185203507Y-100303057D01*
X185323176Y-100591963D01*
X185496908Y-100851972D01*
X185718028Y-101073092D01*
X185978037Y-101246824D01*
X186266943Y-101366493D01*
X186573645Y-101427500D01*
X186886355Y-101427500D01*
X187193057Y-101366493D01*
X187481963Y-101246824D01*
X187741972Y-101073092D01*
X187745549Y-101069515D01*
X187786963Y-101146994D01*
X187866315Y-101243685D01*
X187963006Y-101323037D01*
X188073320Y-101382002D01*
X188193018Y-101418312D01*
X188317500Y-101430572D01*
X190222500Y-101430572D01*
X190346982Y-101418312D01*
X190466680Y-101382002D01*
X190576994Y-101323037D01*
X190673685Y-101243685D01*
X190753037Y-101146994D01*
X190812002Y-101036680D01*
X190848312Y-100916982D01*
X190860572Y-100792500D01*
X190860572Y-99660000D01*
X204197203Y-99660000D01*
X204192500Y-99683645D01*
X204192500Y-99996355D01*
X204253507Y-100303057D01*
X204373176Y-100591963D01*
X204546908Y-100851972D01*
X204768028Y-101073092D01*
X205028037Y-101246824D01*
X205316943Y-101366493D01*
X205623645Y-101427500D01*
X205936355Y-101427500D01*
X206243057Y-101366493D01*
X206531963Y-101246824D01*
X206791972Y-101073092D01*
X206795549Y-101069515D01*
X206836963Y-101146994D01*
X206916315Y-101243685D01*
X207013006Y-101323037D01*
X207123320Y-101382002D01*
X207243018Y-101418312D01*
X207367500Y-101430572D01*
X209272500Y-101430572D01*
X209396982Y-101418312D01*
X209516680Y-101382002D01*
X209626994Y-101323037D01*
X209723685Y-101243685D01*
X209803037Y-101146994D01*
X209862002Y-101036680D01*
X209898312Y-100916982D01*
X209910572Y-100792500D01*
X209910572Y-99660000D01*
X213440001Y-99660000D01*
X213440001Y-104162627D01*
X213302893Y-103957431D01*
X213092569Y-103747107D01*
X212845253Y-103581856D01*
X212570451Y-103468029D01*
X212278722Y-103410000D01*
X211981278Y-103410000D01*
X211689549Y-103468029D01*
X211414747Y-103581856D01*
X211167431Y-103747107D01*
X210957107Y-103957431D01*
X210791856Y-104204747D01*
X210678029Y-104479549D01*
X210620000Y-104771278D01*
X210620000Y-105068722D01*
X210678029Y-105360451D01*
X210791856Y-105635253D01*
X210957107Y-105882569D01*
X211167431Y-106092893D01*
X211414747Y-106258144D01*
X211689549Y-106371971D01*
X211981278Y-106430000D01*
X212278722Y-106430000D01*
X212570451Y-106371971D01*
X212845253Y-106258144D01*
X213092569Y-106092893D01*
X213302893Y-105882569D01*
X213440001Y-105677373D01*
X213440000Y-113340000D01*
X178656379Y-113340000D01*
X178645577Y-113277260D01*
X178565387Y-113068560D01*
X178537588Y-113016550D01*
X178346087Y-112985045D01*
X178427612Y-112903520D01*
X178551824Y-112717624D01*
X178637383Y-112511067D01*
X178681000Y-112291788D01*
X178681000Y-112068212D01*
X178637383Y-111848933D01*
X178551824Y-111642376D01*
X178443328Y-111480000D01*
X178551824Y-111317624D01*
X178637383Y-111111067D01*
X178681000Y-110891788D01*
X178681000Y-110668212D01*
X178637383Y-110448933D01*
X178551824Y-110242376D01*
X178483418Y-110140000D01*
X184378680Y-110140000D01*
X184416002Y-110143676D01*
X184453324Y-110140000D01*
X184453335Y-110140000D01*
X184564988Y-110129003D01*
X184708249Y-110085546D01*
X184840278Y-110014974D01*
X184956003Y-109920001D01*
X184979806Y-109890997D01*
X186410805Y-108459999D01*
X189676857Y-108459999D01*
X189418065Y-108632919D01*
X189172919Y-108878065D01*
X188980308Y-109166327D01*
X188847636Y-109486627D01*
X188780000Y-109826655D01*
X188780000Y-110173345D01*
X188847636Y-110513373D01*
X188980308Y-110833673D01*
X189172919Y-111121935D01*
X189418065Y-111367081D01*
X189706327Y-111559692D01*
X190026627Y-111692364D01*
X190366655Y-111760000D01*
X190713345Y-111760000D01*
X191053373Y-111692364D01*
X191373673Y-111559692D01*
X191661935Y-111367081D01*
X191907081Y-111121935D01*
X192099692Y-110833673D01*
X192232364Y-110513373D01*
X192300000Y-110173345D01*
X192300000Y-109826655D01*
X192232364Y-109486627D01*
X192099692Y-109166327D01*
X191907081Y-108878065D01*
X191661935Y-108632919D01*
X191403143Y-108459999D01*
X196595413Y-108459999D01*
X196444010Y-108686589D01*
X196332068Y-108956842D01*
X196275000Y-109243740D01*
X196275000Y-109536260D01*
X196332068Y-109823158D01*
X196444010Y-110093411D01*
X196606525Y-110336632D01*
X196813368Y-110543475D01*
X197056589Y-110705990D01*
X197326842Y-110817932D01*
X197613740Y-110875000D01*
X197906260Y-110875000D01*
X198193158Y-110817932D01*
X198463411Y-110705990D01*
X198706632Y-110543475D01*
X198913475Y-110336632D01*
X199075990Y-110093411D01*
X199186483Y-109826655D01*
X207830000Y-109826655D01*
X207830000Y-110173345D01*
X207897636Y-110513373D01*
X208030308Y-110833673D01*
X208222919Y-111121935D01*
X208468065Y-111367081D01*
X208756327Y-111559692D01*
X209076627Y-111692364D01*
X209416655Y-111760000D01*
X209763345Y-111760000D01*
X210103373Y-111692364D01*
X210423673Y-111559692D01*
X210711935Y-111367081D01*
X210957081Y-111121935D01*
X211149692Y-110833673D01*
X211282364Y-110513373D01*
X211350000Y-110173345D01*
X211350000Y-109826655D01*
X211282364Y-109486627D01*
X211149692Y-109166327D01*
X210957081Y-108878065D01*
X210711935Y-108632919D01*
X210423673Y-108440308D01*
X210103373Y-108307636D01*
X209763345Y-108240000D01*
X209416655Y-108240000D01*
X209076627Y-108307636D01*
X208756327Y-108440308D01*
X208468065Y-108632919D01*
X208222919Y-108878065D01*
X208030308Y-109166327D01*
X207897636Y-109486627D01*
X207830000Y-109826655D01*
X199186483Y-109826655D01*
X199187932Y-109823158D01*
X199245000Y-109536260D01*
X199245000Y-109243740D01*
X199187932Y-108956842D01*
X199075990Y-108686589D01*
X198913475Y-108443368D01*
X198706632Y-108236525D01*
X198532240Y-108120000D01*
X198706632Y-108003475D01*
X198913475Y-107796632D01*
X199075990Y-107553411D01*
X199187932Y-107283158D01*
X199245000Y-106996260D01*
X199245000Y-106703740D01*
X199187932Y-106416842D01*
X199075990Y-106146589D01*
X198913475Y-105903368D01*
X198781620Y-105771513D01*
X198854180Y-105749502D01*
X198964494Y-105690537D01*
X199061185Y-105611185D01*
X199140537Y-105514494D01*
X199199502Y-105404180D01*
X199235812Y-105284482D01*
X199248072Y-105160000D01*
X199248072Y-104771278D01*
X200460000Y-104771278D01*
X200460000Y-105068722D01*
X200518029Y-105360451D01*
X200631856Y-105635253D01*
X200797107Y-105882569D01*
X201007431Y-106092893D01*
X201254747Y-106258144D01*
X201529549Y-106371971D01*
X201812638Y-106428281D01*
X201680308Y-106626327D01*
X201547636Y-106946627D01*
X201480000Y-107286655D01*
X201480000Y-107633345D01*
X201547636Y-107973373D01*
X201680308Y-108293673D01*
X201872919Y-108581935D01*
X202118065Y-108827081D01*
X202406327Y-109019692D01*
X202726627Y-109152364D01*
X203066655Y-109220000D01*
X203413345Y-109220000D01*
X203753373Y-109152364D01*
X204073673Y-109019692D01*
X204361935Y-108827081D01*
X204607081Y-108581935D01*
X204799692Y-108293673D01*
X204932364Y-107973373D01*
X205000000Y-107633345D01*
X205000000Y-107286655D01*
X204932364Y-106946627D01*
X204799692Y-106626327D01*
X204607081Y-106338065D01*
X204361935Y-106092919D01*
X204073673Y-105900308D01*
X203753373Y-105767636D01*
X203413345Y-105700000D01*
X203264882Y-105700000D01*
X203308144Y-105635253D01*
X203421971Y-105360451D01*
X203480000Y-105068722D01*
X203480000Y-104771278D01*
X203458080Y-104661076D01*
X204421100Y-104661076D01*
X204421100Y-105178924D01*
X204522127Y-105686822D01*
X204720299Y-106165251D01*
X205008000Y-106595826D01*
X205374174Y-106962000D01*
X205804749Y-107249701D01*
X206283178Y-107447873D01*
X206791076Y-107548900D01*
X207308924Y-107548900D01*
X207816822Y-107447873D01*
X208295251Y-107249701D01*
X208725826Y-106962000D01*
X209092000Y-106595826D01*
X209379701Y-106165251D01*
X209577873Y-105686822D01*
X209678900Y-105178924D01*
X209678900Y-104661076D01*
X209577873Y-104153178D01*
X209379701Y-103674749D01*
X209092000Y-103244174D01*
X208725826Y-102878000D01*
X208295251Y-102590299D01*
X207816822Y-102392127D01*
X207308924Y-102291100D01*
X206791076Y-102291100D01*
X206283178Y-102392127D01*
X205804749Y-102590299D01*
X205374174Y-102878000D01*
X205008000Y-103244174D01*
X204720299Y-103674749D01*
X204522127Y-104153178D01*
X204421100Y-104661076D01*
X203458080Y-104661076D01*
X203421971Y-104479549D01*
X203308144Y-104204747D01*
X203142893Y-103957431D01*
X202932569Y-103747107D01*
X202685253Y-103581856D01*
X202410451Y-103468029D01*
X202118722Y-103410000D01*
X201821278Y-103410000D01*
X201529549Y-103468029D01*
X201254747Y-103581856D01*
X201007431Y-103747107D01*
X200797107Y-103957431D01*
X200631856Y-104204747D01*
X200518029Y-104479549D01*
X200460000Y-104771278D01*
X199248072Y-104771278D01*
X199248072Y-103460000D01*
X199235812Y-103335518D01*
X199199502Y-103215820D01*
X199140537Y-103105506D01*
X199061185Y-103008815D01*
X198964494Y-102929463D01*
X198854180Y-102870498D01*
X198734482Y-102834188D01*
X198610000Y-102821928D01*
X196910000Y-102821928D01*
X196785518Y-102834188D01*
X196665820Y-102870498D01*
X196555506Y-102929463D01*
X196458815Y-103008815D01*
X196379463Y-103105506D01*
X196320498Y-103215820D01*
X196284188Y-103335518D01*
X196271928Y-103460000D01*
X196271928Y-105160000D01*
X196284188Y-105284482D01*
X196320498Y-105404180D01*
X196379463Y-105514494D01*
X196458815Y-105611185D01*
X196555506Y-105690537D01*
X196665820Y-105749502D01*
X196738380Y-105771513D01*
X196606525Y-105903368D01*
X196444010Y-106146589D01*
X196332068Y-106416842D01*
X196275000Y-106703740D01*
X196275000Y-106939999D01*
X189697827Y-106939999D01*
X190042000Y-106595826D01*
X190329701Y-106165251D01*
X190527873Y-105686822D01*
X190628900Y-105178924D01*
X190628900Y-104771278D01*
X191570000Y-104771278D01*
X191570000Y-105068722D01*
X191628029Y-105360451D01*
X191741856Y-105635253D01*
X191907107Y-105882569D01*
X192117431Y-106092893D01*
X192364747Y-106258144D01*
X192639549Y-106371971D01*
X192931278Y-106430000D01*
X193228722Y-106430000D01*
X193520451Y-106371971D01*
X193795253Y-106258144D01*
X194042569Y-106092893D01*
X194252893Y-105882569D01*
X194418144Y-105635253D01*
X194531971Y-105360451D01*
X194590000Y-105068722D01*
X194590000Y-104771278D01*
X194531971Y-104479549D01*
X194418144Y-104204747D01*
X194252893Y-103957431D01*
X194042569Y-103747107D01*
X193795253Y-103581856D01*
X193520451Y-103468029D01*
X193228722Y-103410000D01*
X192931278Y-103410000D01*
X192639549Y-103468029D01*
X192364747Y-103581856D01*
X192117431Y-103747107D01*
X191907107Y-103957431D01*
X191741856Y-104204747D01*
X191628029Y-104479549D01*
X191570000Y-104771278D01*
X190628900Y-104771278D01*
X190628900Y-104661076D01*
X190527873Y-104153178D01*
X190329701Y-103674749D01*
X190042000Y-103244174D01*
X189675826Y-102878000D01*
X189245251Y-102590299D01*
X188766822Y-102392127D01*
X188258924Y-102291100D01*
X187741076Y-102291100D01*
X187233178Y-102392127D01*
X186754749Y-102590299D01*
X186324174Y-102878000D01*
X185958000Y-103244174D01*
X185670299Y-103674749D01*
X185472127Y-104153178D01*
X185371100Y-104661076D01*
X185371100Y-105178924D01*
X185472127Y-105686822D01*
X185670299Y-106165251D01*
X185958000Y-106595826D01*
X186302173Y-106939999D01*
X186133325Y-106939999D01*
X186096002Y-106936323D01*
X186058679Y-106939999D01*
X186058670Y-106939999D01*
X185947017Y-106950996D01*
X185886863Y-106969243D01*
X185882364Y-106946627D01*
X185749692Y-106626327D01*
X185557081Y-106338065D01*
X185311935Y-106092919D01*
X185023673Y-105900308D01*
X184703373Y-105767636D01*
X184363345Y-105700000D01*
X184214882Y-105700000D01*
X184258144Y-105635253D01*
X184371971Y-105360451D01*
X184430000Y-105068722D01*
X184430000Y-104771278D01*
X184371971Y-104479549D01*
X184258144Y-104204747D01*
X184092893Y-103957431D01*
X183882569Y-103747107D01*
X183635253Y-103581856D01*
X183360451Y-103468029D01*
X183068722Y-103410000D01*
X182771278Y-103410000D01*
X182479549Y-103468029D01*
X182204747Y-103581856D01*
X181957431Y-103747107D01*
X181747107Y-103957431D01*
X181581856Y-104204747D01*
X181468029Y-104479549D01*
X181410000Y-104771278D01*
X181410000Y-105068722D01*
X181468029Y-105360451D01*
X181581856Y-105635253D01*
X181747107Y-105882569D01*
X181957431Y-106092893D01*
X182204747Y-106258144D01*
X182479549Y-106371971D01*
X182762638Y-106428281D01*
X182630308Y-106626327D01*
X182599792Y-106700000D01*
X179910802Y-106700000D01*
X179279803Y-106069002D01*
X179256001Y-106039999D01*
X179140276Y-105945026D01*
X179008247Y-105874454D01*
X178864986Y-105830997D01*
X178753333Y-105820000D01*
X178753322Y-105820000D01*
X178716000Y-105816324D01*
X178678678Y-105820000D01*
X178391132Y-105820000D01*
X178346087Y-105774955D01*
X178537588Y-105743450D01*
X178628458Y-105539174D01*
X178677731Y-105321095D01*
X178683511Y-105097594D01*
X178645577Y-104877260D01*
X178565387Y-104668560D01*
X178537588Y-104616550D01*
X178324166Y-104581439D01*
X177725605Y-105180000D01*
X177739748Y-105194143D01*
X177560143Y-105373748D01*
X177546000Y-105359605D01*
X177531858Y-105373748D01*
X177352253Y-105194143D01*
X177366395Y-105180000D01*
X176767834Y-104581439D01*
X176554412Y-104616550D01*
X176463542Y-104820826D01*
X176414269Y-105038905D01*
X176408489Y-105262406D01*
X176446423Y-105482740D01*
X176526613Y-105691440D01*
X176554412Y-105743450D01*
X176745913Y-105774955D01*
X176664388Y-105856480D01*
X176540176Y-106042376D01*
X176454617Y-106248933D01*
X176411000Y-106468212D01*
X176411000Y-106691788D01*
X176454617Y-106911067D01*
X176540176Y-107117624D01*
X176648672Y-107280000D01*
X176540176Y-107442376D01*
X176454617Y-107648933D01*
X176411000Y-107868212D01*
X176411000Y-108091788D01*
X176454617Y-108311067D01*
X176540176Y-108517624D01*
X176608582Y-108620000D01*
X176153322Y-108620000D01*
X176115999Y-108616324D01*
X176078676Y-108620000D01*
X176078667Y-108620000D01*
X175967014Y-108630997D01*
X175823753Y-108674454D01*
X175691724Y-108745026D01*
X175575999Y-108839999D01*
X175552201Y-108868997D01*
X173421199Y-111000000D01*
X172938556Y-111000000D01*
X173049692Y-110833673D01*
X173182364Y-110513373D01*
X173250000Y-110173345D01*
X173250000Y-109826655D01*
X173182364Y-109486627D01*
X173049692Y-109166327D01*
X172857081Y-108878065D01*
X172611935Y-108632919D01*
X172323673Y-108440308D01*
X172003373Y-108307636D01*
X171663345Y-108240000D01*
X171316655Y-108240000D01*
X170976627Y-108307636D01*
X170656327Y-108440308D01*
X170368065Y-108632919D01*
X170122919Y-108878065D01*
X169930308Y-109166327D01*
X169797636Y-109486627D01*
X169730000Y-109826655D01*
X169730000Y-110173345D01*
X169797636Y-110513373D01*
X169930308Y-110833673D01*
X170041444Y-111000000D01*
X153888556Y-111000000D01*
X153999692Y-110833673D01*
X154132364Y-110513373D01*
X154200000Y-110173345D01*
X154200000Y-109826655D01*
X154132364Y-109486627D01*
X153999692Y-109166327D01*
X153807081Y-108878065D01*
X153561935Y-108632919D01*
X153273673Y-108440308D01*
X152953373Y-108307636D01*
X152613345Y-108240000D01*
X152266655Y-108240000D01*
X151926627Y-108307636D01*
X151856413Y-108336719D01*
X151855002Y-108335000D01*
X151739277Y-108240027D01*
X151607248Y-108169455D01*
X151463987Y-108125998D01*
X151352334Y-108115001D01*
X151352323Y-108115001D01*
X151315001Y-108111325D01*
X151277679Y-108115001D01*
X150865805Y-108115001D01*
X150276347Y-107525543D01*
X150666822Y-107447873D01*
X151145251Y-107249701D01*
X151575826Y-106962000D01*
X151942000Y-106595826D01*
X152229701Y-106165251D01*
X152427873Y-105686822D01*
X152528900Y-105178924D01*
X152528900Y-104771278D01*
X153470000Y-104771278D01*
X153470000Y-105068722D01*
X153528029Y-105360451D01*
X153641856Y-105635253D01*
X153807107Y-105882569D01*
X154017431Y-106092893D01*
X154264747Y-106258144D01*
X154539549Y-106371971D01*
X154831278Y-106430000D01*
X155128722Y-106430000D01*
X155420451Y-106371971D01*
X155695253Y-106258144D01*
X155942569Y-106092893D01*
X156152893Y-105882569D01*
X156318144Y-105635253D01*
X156431971Y-105360451D01*
X156490000Y-105068722D01*
X156490000Y-104771278D01*
X162360000Y-104771278D01*
X162360000Y-105068722D01*
X162418029Y-105360451D01*
X162531856Y-105635253D01*
X162697107Y-105882569D01*
X162907431Y-106092893D01*
X163154747Y-106258144D01*
X163429549Y-106371971D01*
X163712638Y-106428281D01*
X163580308Y-106626327D01*
X163447636Y-106946627D01*
X163380000Y-107286655D01*
X163380000Y-107633345D01*
X163447636Y-107973373D01*
X163580308Y-108293673D01*
X163772919Y-108581935D01*
X164018065Y-108827081D01*
X164306327Y-109019692D01*
X164626627Y-109152364D01*
X164966655Y-109220000D01*
X165313345Y-109220000D01*
X165653373Y-109152364D01*
X165973673Y-109019692D01*
X166261935Y-108827081D01*
X166507081Y-108581935D01*
X166699692Y-108293673D01*
X166832364Y-107973373D01*
X166900000Y-107633345D01*
X166900000Y-107286655D01*
X166832364Y-106946627D01*
X166699692Y-106626327D01*
X166507081Y-106338065D01*
X166261935Y-106092919D01*
X165973673Y-105900308D01*
X165653373Y-105767636D01*
X165313345Y-105700000D01*
X165164882Y-105700000D01*
X165208144Y-105635253D01*
X165321971Y-105360451D01*
X165380000Y-105068722D01*
X165380000Y-104771278D01*
X165358080Y-104661076D01*
X166321100Y-104661076D01*
X166321100Y-105178924D01*
X166422127Y-105686822D01*
X166620299Y-106165251D01*
X166908000Y-106595826D01*
X167274174Y-106962000D01*
X167704749Y-107249701D01*
X168183178Y-107447873D01*
X168691076Y-107548900D01*
X169208924Y-107548900D01*
X169716822Y-107447873D01*
X170195251Y-107249701D01*
X170625826Y-106962000D01*
X170992000Y-106595826D01*
X171279701Y-106165251D01*
X171477873Y-105686822D01*
X171578900Y-105178924D01*
X171578900Y-104771278D01*
X172520000Y-104771278D01*
X172520000Y-105068722D01*
X172578029Y-105360451D01*
X172691856Y-105635253D01*
X172857107Y-105882569D01*
X173067431Y-106092893D01*
X173314747Y-106258144D01*
X173589549Y-106371971D01*
X173881278Y-106430000D01*
X174178722Y-106430000D01*
X174470451Y-106371971D01*
X174745253Y-106258144D01*
X174992569Y-106092893D01*
X175202893Y-105882569D01*
X175368144Y-105635253D01*
X175481971Y-105360451D01*
X175540000Y-105068722D01*
X175540000Y-104771278D01*
X175481971Y-104479549D01*
X175449781Y-104401834D01*
X176947439Y-104401834D01*
X177025605Y-104480000D01*
X176947439Y-104558166D01*
X176982550Y-104771588D01*
X177186826Y-104862458D01*
X177404905Y-104911731D01*
X177458728Y-104913123D01*
X177546000Y-105000395D01*
X177628983Y-104917412D01*
X177848740Y-104879577D01*
X178057440Y-104799387D01*
X178109450Y-104771588D01*
X178144561Y-104558166D01*
X178066395Y-104480000D01*
X178144561Y-104401834D01*
X178109450Y-104188412D01*
X177905174Y-104097542D01*
X177687095Y-104048269D01*
X177633272Y-104046877D01*
X177546000Y-103959605D01*
X177463017Y-104042588D01*
X177243260Y-104080423D01*
X177034560Y-104160613D01*
X176982550Y-104188412D01*
X176947439Y-104401834D01*
X175449781Y-104401834D01*
X175368144Y-104204747D01*
X175202893Y-103957431D01*
X175107868Y-103862406D01*
X176408489Y-103862406D01*
X176446423Y-104082740D01*
X176526613Y-104291440D01*
X176554412Y-104343450D01*
X176767834Y-104378561D01*
X177366395Y-103780000D01*
X177725605Y-103780000D01*
X178324166Y-104378561D01*
X178537588Y-104343450D01*
X178628458Y-104139174D01*
X178677731Y-103921095D01*
X178683511Y-103697594D01*
X178645577Y-103477260D01*
X178565387Y-103268560D01*
X178537588Y-103216550D01*
X178324166Y-103181439D01*
X177725605Y-103780000D01*
X177366395Y-103780000D01*
X176767834Y-103181439D01*
X176554412Y-103216550D01*
X176463542Y-103420826D01*
X176414269Y-103638905D01*
X176408489Y-103862406D01*
X175107868Y-103862406D01*
X174992569Y-103747107D01*
X174745253Y-103581856D01*
X174470451Y-103468029D01*
X174178722Y-103410000D01*
X173881278Y-103410000D01*
X173589549Y-103468029D01*
X173314747Y-103581856D01*
X173067431Y-103747107D01*
X172857107Y-103957431D01*
X172691856Y-104204747D01*
X172578029Y-104479549D01*
X172520000Y-104771278D01*
X171578900Y-104771278D01*
X171578900Y-104661076D01*
X171477873Y-104153178D01*
X171279701Y-103674749D01*
X170992000Y-103244174D01*
X170749660Y-103001834D01*
X176947439Y-103001834D01*
X177025605Y-103080000D01*
X176947439Y-103158166D01*
X176982550Y-103371588D01*
X177186826Y-103462458D01*
X177404905Y-103511731D01*
X177458728Y-103513123D01*
X177546000Y-103600395D01*
X177628983Y-103517412D01*
X177848740Y-103479577D01*
X178057440Y-103399387D01*
X178109450Y-103371588D01*
X178144561Y-103158166D01*
X178066395Y-103080000D01*
X178144561Y-103001834D01*
X178109450Y-102788412D01*
X177905174Y-102697542D01*
X177687095Y-102648269D01*
X177633272Y-102646877D01*
X177546000Y-102559605D01*
X177463017Y-102642588D01*
X177243260Y-102680423D01*
X177034560Y-102760613D01*
X176982550Y-102788412D01*
X176947439Y-103001834D01*
X170749660Y-103001834D01*
X170625826Y-102878000D01*
X170195251Y-102590299D01*
X169886491Y-102462406D01*
X176408489Y-102462406D01*
X176446423Y-102682740D01*
X176526613Y-102891440D01*
X176554412Y-102943450D01*
X176767834Y-102978561D01*
X177366395Y-102380000D01*
X177725605Y-102380000D01*
X178324166Y-102978561D01*
X178537588Y-102943450D01*
X178628458Y-102739174D01*
X178677731Y-102521095D01*
X178683511Y-102297594D01*
X178645577Y-102077260D01*
X178565387Y-101868560D01*
X178537588Y-101816550D01*
X178324166Y-101781439D01*
X177725605Y-102380000D01*
X177366395Y-102380000D01*
X176767834Y-101781439D01*
X176554412Y-101816550D01*
X176463542Y-102020826D01*
X176414269Y-102238905D01*
X176408489Y-102462406D01*
X169886491Y-102462406D01*
X169716822Y-102392127D01*
X169208924Y-102291100D01*
X168691076Y-102291100D01*
X168183178Y-102392127D01*
X167704749Y-102590299D01*
X167274174Y-102878000D01*
X166908000Y-103244174D01*
X166620299Y-103674749D01*
X166422127Y-104153178D01*
X166321100Y-104661076D01*
X165358080Y-104661076D01*
X165321971Y-104479549D01*
X165208144Y-104204747D01*
X165042893Y-103957431D01*
X164832569Y-103747107D01*
X164585253Y-103581856D01*
X164310451Y-103468029D01*
X164018722Y-103410000D01*
X163721278Y-103410000D01*
X163429549Y-103468029D01*
X163154747Y-103581856D01*
X162907431Y-103747107D01*
X162697107Y-103957431D01*
X162531856Y-104204747D01*
X162418029Y-104479549D01*
X162360000Y-104771278D01*
X156490000Y-104771278D01*
X156431971Y-104479549D01*
X156318144Y-104204747D01*
X156152893Y-103957431D01*
X155942569Y-103747107D01*
X155695253Y-103581856D01*
X155420451Y-103468029D01*
X155128722Y-103410000D01*
X154831278Y-103410000D01*
X154539549Y-103468029D01*
X154264747Y-103581856D01*
X154017431Y-103747107D01*
X153807107Y-103957431D01*
X153641856Y-104204747D01*
X153528029Y-104479549D01*
X153470000Y-104771278D01*
X152528900Y-104771278D01*
X152528900Y-104661076D01*
X152427873Y-104153178D01*
X152229701Y-103674749D01*
X151942000Y-103244174D01*
X151575826Y-102878000D01*
X151145251Y-102590299D01*
X150666822Y-102392127D01*
X150158924Y-102291100D01*
X149641076Y-102291100D01*
X149133178Y-102392127D01*
X148654749Y-102590299D01*
X148224174Y-102878000D01*
X147858000Y-103244174D01*
X147570299Y-103674749D01*
X147372127Y-104153178D01*
X147294457Y-104543653D01*
X144352638Y-101601834D01*
X176947439Y-101601834D01*
X177025605Y-101680000D01*
X176947439Y-101758166D01*
X176982550Y-101971588D01*
X177186826Y-102062458D01*
X177404905Y-102111731D01*
X177458728Y-102113123D01*
X177546000Y-102200395D01*
X177628983Y-102117412D01*
X177848740Y-102079577D01*
X178057440Y-101999387D01*
X178109450Y-101971588D01*
X178144561Y-101758166D01*
X178066395Y-101680000D01*
X178144561Y-101601834D01*
X178109450Y-101388412D01*
X177905174Y-101297542D01*
X177687095Y-101248269D01*
X177633272Y-101246877D01*
X177546000Y-101159605D01*
X177463017Y-101242588D01*
X177243260Y-101280423D01*
X177034560Y-101360613D01*
X176982550Y-101388412D01*
X176947439Y-101601834D01*
X144352638Y-101601834D01*
X144143000Y-101392197D01*
X144143000Y-94833072D01*
X144233000Y-94833072D01*
X144357482Y-94820812D01*
X144477180Y-94784502D01*
X144501000Y-94771770D01*
X144501001Y-98967571D01*
G36*
X135890000Y-93218000D02*
G01*
X135910000Y-93218000D01*
X135910000Y-93472000D01*
X135890000Y-93472000D01*
X135890000Y-94665155D01*
X136119890Y-94786476D01*
X136267099Y-94741825D01*
X136529920Y-94616641D01*
X136763269Y-94442588D01*
X136958178Y-94226355D01*
X137027805Y-94109466D01*
X137149525Y-94291632D01*
X137356368Y-94498475D01*
X137599589Y-94660990D01*
X137869842Y-94772932D01*
X138156740Y-94830000D01*
X138449260Y-94830000D01*
X138736158Y-94772932D01*
X139006411Y-94660990D01*
X139249632Y-94498475D01*
X139456475Y-94291632D01*
X139573000Y-94117240D01*
X139689525Y-94291632D01*
X139896368Y-94498475D01*
X140139589Y-94660990D01*
X140409842Y-94772932D01*
X140696740Y-94830000D01*
X140989260Y-94830000D01*
X141276158Y-94772932D01*
X141546411Y-94660990D01*
X141789632Y-94498475D01*
X141921487Y-94366620D01*
X141943498Y-94439180D01*
X142002463Y-94549494D01*
X142081815Y-94646185D01*
X142178506Y-94725537D01*
X142288820Y-94784502D01*
X142408518Y-94820812D01*
X142533000Y-94833072D01*
X142623000Y-94833072D01*
X142623001Y-101669666D01*
X142619324Y-101706998D01*
X142633998Y-101855983D01*
X142677454Y-101999244D01*
X142748026Y-102131274D01*
X142804753Y-102200395D01*
X142843000Y-102246999D01*
X142871998Y-102270797D01*
X144160120Y-103558920D01*
X144104747Y-103581856D01*
X143857431Y-103747107D01*
X143647107Y-103957431D01*
X143481856Y-104204747D01*
X143368029Y-104479549D01*
X143310000Y-104771278D01*
X143310000Y-105068722D01*
X143368029Y-105360451D01*
X143481856Y-105635253D01*
X143647107Y-105882569D01*
X143857431Y-106092893D01*
X144104747Y-106258144D01*
X144379549Y-106371971D01*
X144662638Y-106428281D01*
X144530308Y-106626327D01*
X144397636Y-106946627D01*
X144330000Y-107286655D01*
X144330000Y-107633345D01*
X144397636Y-107973373D01*
X144530308Y-108293673D01*
X144722919Y-108581935D01*
X144968065Y-108827081D01*
X145256327Y-109019692D01*
X145576627Y-109152364D01*
X145916655Y-109220000D01*
X146263345Y-109220000D01*
X146603373Y-109152364D01*
X146923673Y-109019692D01*
X147211935Y-108827081D01*
X147457081Y-108581935D01*
X147649692Y-108293673D01*
X147782364Y-107973373D01*
X147850000Y-107633345D01*
X147850000Y-107286655D01*
X147840600Y-107239400D01*
X149987203Y-109386003D01*
X150011002Y-109415002D01*
X150040000Y-109438800D01*
X150126726Y-109509975D01*
X150244371Y-109572858D01*
X150258756Y-109580547D01*
X150402017Y-109624004D01*
X150513670Y-109635001D01*
X150513679Y-109635001D01*
X150551002Y-109638677D01*
X150588325Y-109635001D01*
X150718122Y-109635001D01*
X150680000Y-109826655D01*
X150680000Y-110173345D01*
X150747636Y-110513373D01*
X150880308Y-110833673D01*
X150991444Y-111000000D01*
X139379802Y-111000000D01*
X134618000Y-106238199D01*
X134618000Y-105674380D01*
X134757107Y-105882569D01*
X134967431Y-106092893D01*
X135214747Y-106258144D01*
X135489549Y-106371971D01*
X135781278Y-106430000D01*
X136078722Y-106430000D01*
X136370451Y-106371971D01*
X136645253Y-106258144D01*
X136892569Y-106092893D01*
X137102893Y-105882569D01*
X137268144Y-105635253D01*
X137381971Y-105360451D01*
X137440000Y-105068722D01*
X137440000Y-104771278D01*
X137381971Y-104479549D01*
X137268144Y-104204747D01*
X137102893Y-103957431D01*
X136892569Y-103747107D01*
X136645253Y-103581856D01*
X136370451Y-103468029D01*
X136078722Y-103410000D01*
X135781278Y-103410000D01*
X135489549Y-103468029D01*
X135214747Y-103581856D01*
X134967431Y-103747107D01*
X134757107Y-103957431D01*
X134618000Y-104165620D01*
X134618000Y-97411335D01*
X134621677Y-97374002D01*
X134607003Y-97225016D01*
X134563546Y-97081755D01*
X134492974Y-96949726D01*
X134421799Y-96862999D01*
X134398001Y-96834001D01*
X134369004Y-96810204D01*
X133983000Y-96424201D01*
X133983000Y-94623178D01*
X134169632Y-94498475D01*
X134376475Y-94291632D01*
X134498195Y-94109466D01*
X134567822Y-94226355D01*
X134762731Y-94442588D01*
X134996080Y-94616641D01*
X135258901Y-94741825D01*
X135406110Y-94786476D01*
X135636000Y-94665155D01*
X135636000Y-93472000D01*
X135616000Y-93472000D01*
X135616000Y-93218000D01*
X135636000Y-93218000D01*
X135636000Y-93198000D01*
X135890000Y-93198000D01*
X135890000Y-93218000D01*
G37*
X135890000Y-93218000D02*
X135910000Y-93218000D01*
X135910000Y-93472000D01*
X135890000Y-93472000D01*
X135890000Y-94665155D01*
X136119890Y-94786476D01*
X136267099Y-94741825D01*
X136529920Y-94616641D01*
X136763269Y-94442588D01*
X136958178Y-94226355D01*
X137027805Y-94109466D01*
X137149525Y-94291632D01*
X137356368Y-94498475D01*
X137599589Y-94660990D01*
X137869842Y-94772932D01*
X138156740Y-94830000D01*
X138449260Y-94830000D01*
X138736158Y-94772932D01*
X139006411Y-94660990D01*
X139249632Y-94498475D01*
X139456475Y-94291632D01*
X139573000Y-94117240D01*
X139689525Y-94291632D01*
X139896368Y-94498475D01*
X140139589Y-94660990D01*
X140409842Y-94772932D01*
X140696740Y-94830000D01*
X140989260Y-94830000D01*
X141276158Y-94772932D01*
X141546411Y-94660990D01*
X141789632Y-94498475D01*
X141921487Y-94366620D01*
X141943498Y-94439180D01*
X142002463Y-94549494D01*
X142081815Y-94646185D01*
X142178506Y-94725537D01*
X142288820Y-94784502D01*
X142408518Y-94820812D01*
X142533000Y-94833072D01*
X142623000Y-94833072D01*
X142623001Y-101669666D01*
X142619324Y-101706998D01*
X142633998Y-101855983D01*
X142677454Y-101999244D01*
X142748026Y-102131274D01*
X142804753Y-102200395D01*
X142843000Y-102246999D01*
X142871998Y-102270797D01*
X144160120Y-103558920D01*
X144104747Y-103581856D01*
X143857431Y-103747107D01*
X143647107Y-103957431D01*
X143481856Y-104204747D01*
X143368029Y-104479549D01*
X143310000Y-104771278D01*
X143310000Y-105068722D01*
X143368029Y-105360451D01*
X143481856Y-105635253D01*
X143647107Y-105882569D01*
X143857431Y-106092893D01*
X144104747Y-106258144D01*
X144379549Y-106371971D01*
X144662638Y-106428281D01*
X144530308Y-106626327D01*
X144397636Y-106946627D01*
X144330000Y-107286655D01*
X144330000Y-107633345D01*
X144397636Y-107973373D01*
X144530308Y-108293673D01*
X144722919Y-108581935D01*
X144968065Y-108827081D01*
X145256327Y-109019692D01*
X145576627Y-109152364D01*
X145916655Y-109220000D01*
X146263345Y-109220000D01*
X146603373Y-109152364D01*
X146923673Y-109019692D01*
X147211935Y-108827081D01*
X147457081Y-108581935D01*
X147649692Y-108293673D01*
X147782364Y-107973373D01*
X147850000Y-107633345D01*
X147850000Y-107286655D01*
X147840600Y-107239400D01*
X149987203Y-109386003D01*
X150011002Y-109415002D01*
X150040000Y-109438800D01*
X150126726Y-109509975D01*
X150244371Y-109572858D01*
X150258756Y-109580547D01*
X150402017Y-109624004D01*
X150513670Y-109635001D01*
X150513679Y-109635001D01*
X150551002Y-109638677D01*
X150588325Y-109635001D01*
X150718122Y-109635001D01*
X150680000Y-109826655D01*
X150680000Y-110173345D01*
X150747636Y-110513373D01*
X150880308Y-110833673D01*
X150991444Y-111000000D01*
X139379802Y-111000000D01*
X134618000Y-106238199D01*
X134618000Y-105674380D01*
X134757107Y-105882569D01*
X134967431Y-106092893D01*
X135214747Y-106258144D01*
X135489549Y-106371971D01*
X135781278Y-106430000D01*
X136078722Y-106430000D01*
X136370451Y-106371971D01*
X136645253Y-106258144D01*
X136892569Y-106092893D01*
X137102893Y-105882569D01*
X137268144Y-105635253D01*
X137381971Y-105360451D01*
X137440000Y-105068722D01*
X137440000Y-104771278D01*
X137381971Y-104479549D01*
X137268144Y-104204747D01*
X137102893Y-103957431D01*
X136892569Y-103747107D01*
X136645253Y-103581856D01*
X136370451Y-103468029D01*
X136078722Y-103410000D01*
X135781278Y-103410000D01*
X135489549Y-103468029D01*
X135214747Y-103581856D01*
X134967431Y-103747107D01*
X134757107Y-103957431D01*
X134618000Y-104165620D01*
X134618000Y-97411335D01*
X134621677Y-97374002D01*
X134607003Y-97225016D01*
X134563546Y-97081755D01*
X134492974Y-96949726D01*
X134421799Y-96862999D01*
X134398001Y-96834001D01*
X134369004Y-96810204D01*
X133983000Y-96424201D01*
X133983000Y-94623178D01*
X134169632Y-94498475D01*
X134376475Y-94291632D01*
X134498195Y-94109466D01*
X134567822Y-94226355D01*
X134762731Y-94442588D01*
X134996080Y-94616641D01*
X135258901Y-94741825D01*
X135406110Y-94786476D01*
X135636000Y-94665155D01*
X135636000Y-93472000D01*
X135616000Y-93472000D01*
X135616000Y-93218000D01*
X135636000Y-93218000D01*
X135636000Y-93198000D01*
X135890000Y-93198000D01*
X135890000Y-93218000D01*
%TD*%
M02*
