M48
; DRILL file {KiCad (5.1.6)-1} date 02/07/22 12:47:36
; FORMAT={-:-/ absolute / inch / decimal}
; #@! TF.CreationDate,2022-02-07T12:47:36-06:00
; #@! TF.GenerationSoftware,Kicad,Pcbnew,(5.1.6)-1
; #@! TF.FileFunction,Plated,1,2,PTH
FMAT,2
INCH
T1C0.0157
T2C0.0276
T3C0.0394
T4C0.0433
T5C0.0579
%
G90
G05
T1
X3.5118Y-3.0984
X3.5354Y-3.7205
X3.563Y-4.4724
X3.6437Y-3.0807
X3.6949Y-3.252
X3.7165Y-4.374
X3.7677Y-3.6299
X3.8504Y-3.0945
X3.9311Y-4.4567
X3.9528Y-3.3189
X3.9567Y-3.8268
X3.9882Y-3.9961
X3.9961Y-4.3268
X4.0551Y-3.4173
X4.0689Y-3.5846
X4.1181Y-4.4311
X4.1496Y-3.7283
X4.1654Y-3.0984
X4.2165Y-3.437
X4.2283Y-3.8543
X4.2283Y-4.3504
X4.2323Y-3.9921
X4.3708Y-3.2364
X4.3819Y-3.1299
X4.4567Y-3.2697
X4.4724Y-4.374
X4.5118Y-4.4567
X4.5591Y-3.0
X4.6575Y-3.6339
X4.7323Y-3.122
X4.7815Y-3.1752
X4.8937Y-3.0512
X5.3976Y-3.5512
X5.4331Y-3.7283
X5.5709Y-3.1654
X5.5906Y-3.0945
X5.6024Y-4.2953
X5.9685Y-3.4882
X5.9764Y-4.3425
X6.0591Y-3.0709
X6.0709Y-4.2717
X6.189Y-3.252
X6.1929Y-4.063
X6.2126Y-3.7677
X6.2126Y-3.8583
X6.3543Y-3.9528
X6.378Y-3.7165
X6.3819Y-3.8465
X6.4488Y-4.0118
X6.5992Y-3.7528
X7.02Y-4.4331
X7.0571Y-3.628
X7.0945Y-4.4114
X7.3976Y-4.0512
X7.4094Y-3.6417
X7.4173Y-3.5157
X7.4291Y-4.378
X7.4921Y-3.5118
X7.5197Y-3.6378
X7.5276Y-4.0512
X7.5827Y-4.2835
X7.8071Y-3.6575
X7.8189Y-4.376
T2
X7.5197Y-3.9803
X7.5197Y-4.2874
X7.4134Y-3.4134
X7.4134Y-3.7205
X4.1693Y-3.9803
X4.1693Y-4.2874
X7.4134Y-3.9803
X7.4134Y-4.2874
X4.063Y-3.4882
X4.063Y-3.7953
X4.063Y-3.9803
X4.063Y-4.2874
X5.3976Y-3.4882
X5.3976Y-3.7953
X4.1693Y-3.4882
X4.1693Y-3.7953
X7.5157Y-3.4134
X7.5157Y-3.7205
T3
X5.6902Y-3.496
X5.6902Y-4.2086
X5.7902Y-4.2086
X5.8902Y-3.496
X5.8902Y-4.2086
X3.7075Y-3.0385
X3.8075Y-3.0385
X3.9075Y-3.0385
X4.0075Y-3.0385
X4.1075Y-3.0385
X4.2075Y-3.0385
X4.3075Y-3.0385
X4.4075Y-3.0385
X4.5075Y-3.0385
X4.6075Y-3.0385
X4.7075Y-3.0385
X4.8075Y-3.0385
T4
X6.141Y-3.0085
X6.141Y-3.1085
X6.141Y-3.2085
X6.141Y-3.3085
X6.141Y-3.4085
X6.141Y-3.5085
X6.141Y-3.6085
X6.141Y-3.7085
X6.141Y-3.8085
X6.141Y-3.9085
X6.141Y-4.0085
X6.141Y-4.1085
X6.741Y-3.0085
X6.741Y-3.1085
X6.741Y-3.2085
X6.741Y-3.3085
X6.741Y-3.4085
X6.741Y-3.5085
X6.741Y-3.6085
X6.741Y-3.7085
X6.741Y-3.8085
X6.741Y-3.9085
X6.741Y-4.0085
X6.741Y-4.1085
T5
X4.3422Y-4.3273
X4.5922Y-4.4273
X7.6906Y-3.5773
X7.9406Y-3.6773
X3.5922Y-4.3273
X3.8422Y-4.4273
X4.3422Y-3.5773
X4.5922Y-3.6773
X3.5922Y-3.5773
X3.8422Y-3.6773
X7.6906Y-4.3273
X7.9406Y-4.4273
X6.9406Y-4.3273
X7.1906Y-4.4273
X6.9406Y-3.5773
X7.1906Y-3.6773
T0
M30
