M48
; DRILL file {KiCad (5.1.6)-1} date 02/07/22 12:47:36
; FORMAT={-:-/ absolute / inch / decimal}
; #@! TF.CreationDate,2022-02-07T12:47:36-06:00
; #@! TF.GenerationSoftware,Kicad,Pcbnew,(5.1.6)-1
; #@! TF.FileFunction,NonPlated,1,2,NPTH
FMAT,2
INCH
T1C0.0689
T2C0.1570
%
G90
G05
T1
X6.8906Y-3.4773
X7.2906Y-3.4773
X3.5422Y-4.2273
X3.9422Y-4.2273
X4.2922Y-3.4773
X4.6922Y-3.4773
X3.5422Y-3.4773
X3.9422Y-3.4773
X7.6406Y-4.2273
X8.0406Y-4.2273
X6.8906Y-4.2273
X7.2906Y-4.2273
X4.2922Y-4.2273
X4.6922Y-4.2273
X7.6406Y-3.4773
X8.0406Y-3.4773
T2
X7.0906Y-4.2273
X7.0906Y-3.4773
X4.4922Y-4.2273
X7.8406Y-3.4773
X3.7422Y-4.2273
X4.4922Y-3.4773
X3.7422Y-3.4773
X7.8406Y-4.2273
T0
M30
