%TF.GenerationSoftware,KiCad,Pcbnew,(5.1.6)-1*%
%TF.CreationDate,2022-02-24T21:40:28-06:00*%
%TF.ProjectId,Pikatea R26 PCB,50696b61-7465-4612-9052-323620504342,rev?*%
%TF.SameCoordinates,Original*%
%TF.FileFunction,Copper,L2,Bot*%
%TF.FilePolarity,Positive*%
%FSLAX46Y46*%
G04 Gerber Fmt 4.6, Leading zero omitted, Abs format (unit mm)*
G04 Created by KiCad (PCBNEW (5.1.6)-1) date 2022-02-24 21:40:28*
%MOMM*%
%LPD*%
G01*
G04 APERTURE LIST*
%TA.AperFunction,ComponentPad*%
%ADD10O,1.000000X1.600000*%
%TD*%
%TA.AperFunction,ComponentPad*%
%ADD11O,1.000000X2.100000*%
%TD*%
%TA.AperFunction,ComponentPad*%
%ADD12C,1.000000*%
%TD*%
%TA.AperFunction,ComponentPad*%
%ADD13C,1.700000*%
%TD*%
%TA.AperFunction,ComponentPad*%
%ADD14R,1.700000X1.700000*%
%TD*%
%TA.AperFunction,ComponentPad*%
%ADD15O,1.900000X1.200000*%
%TD*%
%TA.AperFunction,ComponentPad*%
%ADD16C,1.100000*%
%TD*%
%TA.AperFunction,ComponentPad*%
%ADD17C,2.250000*%
%TD*%
%TA.AperFunction,ViaPad*%
%ADD18C,0.800000*%
%TD*%
%TA.AperFunction,Conductor*%
%ADD19C,0.254000*%
%TD*%
%TA.AperFunction,Conductor*%
%ADD20C,0.354000*%
%TD*%
G04 APERTURE END LIST*
D10*
%TO.P,USB1,13*%
%TO.N,GND*%
X170660000Y-82100000D03*
X179300000Y-82100000D03*
D11*
X170660000Y-86280000D03*
X179300000Y-86280000D03*
%TD*%
D12*
%TO.P,J4,1*%
%TO.N,GND*%
X89200000Y-94500000D03*
X90400000Y-94500000D03*
%TO.P,J4,2*%
%TO.N,USB_D_R+*%
X91600000Y-94500000D03*
%TO.P,J4,1*%
%TO.N,GND*%
X95200000Y-94500000D03*
%TO.P,J4,4*%
%TO.N,VCC_USB*%
X94000000Y-94500000D03*
%TO.P,J4,3*%
%TO.N,USB_D_R-*%
X92800000Y-94500000D03*
%TD*%
%TO.P,J3,1*%
%TO.N,GND*%
X181000000Y-94600000D03*
X169000000Y-94600000D03*
X170200000Y-94600000D03*
X171400000Y-94600000D03*
X172600000Y-94600000D03*
%TO.P,J3,2*%
%TO.N,USB_D_R+*%
X173800000Y-94600000D03*
%TO.P,J3,4*%
%TO.N,VCC_USB*%
X179800000Y-94600000D03*
X178600000Y-94600000D03*
%TO.P,J3,1*%
%TO.N,GND*%
X177400000Y-94600000D03*
X176200000Y-94600000D03*
%TO.P,J3,3*%
%TO.N,USB_D_R-*%
X175000000Y-94600000D03*
%TD*%
D13*
%TO.P,J1,6*%
%TO.N,GND*%
X121590000Y-100130000D03*
%TO.P,J1,5*%
%TO.N,Reset*%
X121590000Y-102670000D03*
%TO.P,J1,4*%
%TO.N,MOSI*%
X119050000Y-100130000D03*
%TO.P,J1,3*%
%TO.N,SCK*%
X119050000Y-102670000D03*
%TO.P,J1,2*%
%TO.N,VCC*%
X116510000Y-100130000D03*
D14*
%TO.P,J1,1*%
%TO.N,C_5*%
X116510000Y-102670000D03*
%TD*%
D15*
%TO.P,J2,6*%
%TO.N,GND*%
X99500000Y-85550000D03*
X99500000Y-92850000D03*
D16*
%TO.P,J2,1*%
%TO.N,VCC_USB*%
X98900000Y-90800000D03*
%TO.P,J2,2*%
%TO.N,USB_D_R-*%
X100100000Y-90000000D03*
%TO.P,J2,3*%
%TO.N,USB_D_R+*%
X98900000Y-89200000D03*
%TO.P,J2,4*%
%TO.N,Net-(J2-Pad4)*%
X100100000Y-88400000D03*
%TO.P,J2,5*%
%TO.N,GND*%
X98900000Y-87600000D03*
D15*
%TO.P,J2,6*%
X104320000Y-92850000D03*
X104320000Y-85550000D03*
%TD*%
D14*
%TO.P,SW2,S1*%
%TO.N,R_1*%
X128860000Y-101075000D03*
%TO.P,SW2,S2*%
%TO.N,C_5*%
X133940000Y-101075000D03*
%TO.P,SW2,C*%
%TO.N,GND*%
X131400000Y-119175000D03*
%TO.P,SW2,B*%
%TO.N,Knob_B*%
X128860000Y-119175000D03*
%TO.P,SW2,A*%
%TO.N,Knob_A*%
X133940000Y-119175000D03*
%TD*%
D17*
%TO.P,MX_8,1*%
%TO.N,C_4*%
X179640000Y-103140000D03*
%TO.P,MX_8,2*%
%TO.N,R_1*%
X185990000Y-105680000D03*
%TD*%
%TO.P,MX_7,1*%
%TO.N,C_3*%
X160590000Y-103140000D03*
%TO.P,MX_7,2*%
%TO.N,R_1*%
X166940000Y-105680000D03*
%TD*%
%TO.P,MX_6,1*%
%TO.N,C_8*%
X160590000Y-122190000D03*
%TO.P,MX_6,2*%
%TO.N,R_1*%
X166940000Y-124730000D03*
%TD*%
%TO.P,MX_5,1*%
%TO.N,C_7*%
X94590000Y-122190000D03*
%TO.P,MX_5,2*%
%TO.N,R_1*%
X100940000Y-124730000D03*
%TD*%
%TO.P,MX_4,1*%
%TO.N,C_2*%
X94590000Y-103140000D03*
%TO.P,MX_4,2*%
%TO.N,R_1*%
X100940000Y-105680000D03*
%TD*%
%TO.P,MX_3,2*%
%TO.N,R_1*%
X81890000Y-124730000D03*
%TO.P,MX_3,1*%
%TO.N,C_6*%
X75540000Y-122190000D03*
%TD*%
%TO.P,MX_2,1*%
%TO.N,C_1*%
X75540000Y-103140000D03*
%TO.P,MX_2,2*%
%TO.N,R_1*%
X81890000Y-105680000D03*
%TD*%
%TO.P,MX_1,1*%
%TO.N,C_9*%
X179640000Y-122190000D03*
%TO.P,MX_1,2*%
%TO.N,R_1*%
X185990000Y-124730000D03*
%TD*%
D18*
%TO.N,GND*%
X152700000Y-112900000D03*
X154200000Y-112900000D03*
X151300000Y-112900000D03*
X152700000Y-111400000D03*
X152700000Y-114500000D03*
X159600000Y-115000000D03*
X157400000Y-108700000D03*
X147000000Y-115900000D03*
X144300000Y-117700000D03*
X139700000Y-113800000D03*
X147600000Y-102800000D03*
X172900000Y-92800000D03*
X176800000Y-92600000D03*
X172000000Y-95700000D03*
X171300000Y-93300000D03*
X170600000Y-95800000D03*
X100400000Y-86700000D03*
X100700000Y-91400000D03*
X158300000Y-98700000D03*
X176300000Y-96800000D03*
X89600000Y-96200000D03*
X90200000Y-92600000D03*
X164900000Y-123200000D03*
X184100000Y-123400000D03*
X184100000Y-104500000D03*
X164900000Y-104200000D03*
X99100000Y-104300000D03*
X80000000Y-104200000D03*
X79900000Y-123300000D03*
X99100000Y-123600000D03*
X94900000Y-90400000D03*
X94200000Y-86800000D03*
X122050000Y-104580401D03*
X96300000Y-95650000D03*
X96700000Y-122850000D03*
X91550000Y-123600000D03*
X143350000Y-106650000D03*
X140250000Y-104150000D03*
X138900000Y-107750000D03*
X148450000Y-109200000D03*
X143200000Y-115000000D03*
X143400000Y-109850000D03*
X131150000Y-100850000D03*
X151600000Y-100700000D03*
X149400000Y-99600000D03*
X149300000Y-106300000D03*
%TO.N,Reset*%
X140157852Y-101805200D03*
X122800000Y-97800000D03*
%TO.N,VCC*%
X158800000Y-118000000D03*
X158300000Y-105800000D03*
X152800000Y-104000000D03*
X145200000Y-109700000D03*
X147200000Y-119200000D03*
X160500000Y-109300000D03*
X139350000Y-102400000D03*
%TO.N,USB_D_R+*%
X154900000Y-102500000D03*
%TO.N,USB_D_R-*%
X156400000Y-101736302D03*
%TO.N,R_1*%
X105800000Y-104600000D03*
X153390000Y-97210000D03*
%TO.N,MOSI*%
X137600000Y-100100000D03*
%TO.N,SCK*%
X138550000Y-99450000D03*
%TO.N,VCC_USB*%
X157200000Y-96400000D03*
X174500000Y-98200000D03*
X172500000Y-88500000D03*
X174900000Y-89500000D03*
X177550000Y-88550000D03*
%TD*%
D19*
%TO.N,Reset*%
X140157852Y-99330562D02*
X138555660Y-97728370D01*
X140157852Y-101805200D02*
X140157852Y-99330562D01*
X138555660Y-97728370D02*
X122871630Y-97728370D01*
X122871630Y-97728370D02*
X122800000Y-97800000D01*
D20*
%TO.N,VCC*%
X158800000Y-118000000D02*
X160500000Y-116300000D01*
X160500000Y-108000000D02*
X158300000Y-105800000D01*
X158300000Y-105800000D02*
X156500000Y-104000000D01*
X156500000Y-104000000D02*
X152800000Y-104000000D01*
X152800000Y-104000000D02*
X149900000Y-104000000D01*
X149900000Y-104000000D02*
X145200000Y-108700000D01*
X145200000Y-108700000D02*
X145200000Y-109700000D01*
X145200000Y-109700000D02*
X145200000Y-117200000D01*
X145200000Y-117200000D02*
X147200000Y-119200000D01*
X157600000Y-119200000D02*
X158800000Y-118000000D01*
X147200000Y-119200000D02*
X157600000Y-119200000D01*
X160500000Y-116300000D02*
X160500000Y-109300000D01*
X160500000Y-109300000D02*
X160500000Y-108000000D01*
D19*
X139350000Y-99169302D02*
X138366278Y-98185580D01*
X118454420Y-98185580D02*
X116510000Y-100130000D01*
X139350000Y-102400000D02*
X139350000Y-99169302D01*
X123964420Y-98185580D02*
X123557210Y-98592790D01*
X138366278Y-98185580D02*
X123964420Y-98185580D01*
X123557210Y-98592790D02*
X122289382Y-98592790D01*
X121882172Y-98185580D02*
X118454420Y-98185580D01*
X122289382Y-98592790D02*
X121882172Y-98185580D01*
%TO.N,USB_D_R+*%
X91600000Y-92700000D02*
X91600000Y-94500000D01*
X98900000Y-89200000D02*
X94000000Y-89200000D01*
X91600000Y-91600000D02*
X91600000Y-92700000D01*
X94000000Y-89200000D02*
X91600000Y-91600000D01*
X94200000Y-97600000D02*
X91600000Y-95000000D01*
X123351858Y-97271160D02*
X123150497Y-97069799D01*
X120930201Y-97069799D02*
X120400001Y-97599999D01*
X154900000Y-102500000D02*
X154900000Y-101300000D01*
X154900000Y-101300000D02*
X151200000Y-97600000D01*
X91600000Y-95000000D02*
X91600000Y-94500000D01*
X123150497Y-97069799D02*
X120930201Y-97069799D01*
X151200000Y-97600000D02*
X139073882Y-97600000D01*
X120400001Y-97599999D02*
X94200000Y-97600000D01*
X139073882Y-97600000D02*
X138745042Y-97271160D01*
X138745042Y-97271160D02*
X123351858Y-97271160D01*
%TO.N,USB_D_R-*%
X92800000Y-94500000D02*
X92800000Y-92146592D01*
X100100000Y-90000000D02*
X100100000Y-90902698D01*
X99279402Y-91723296D02*
X93223296Y-91723296D01*
X92800000Y-92146592D02*
X93223296Y-91723296D01*
X100100000Y-90902698D02*
X99279402Y-91723296D01*
X152463698Y-97800000D02*
X156400000Y-101736302D01*
X123541240Y-96813950D02*
X151477648Y-96813950D01*
X123339880Y-96612590D02*
X123541240Y-96813950D01*
X151477648Y-96813950D02*
X152463698Y-97800000D01*
X92800000Y-95553408D02*
X94389382Y-97142790D01*
X120210618Y-97142790D02*
X120740819Y-96612589D01*
X120740819Y-96612589D02*
X123339880Y-96612590D01*
X92800000Y-94500000D02*
X92800000Y-95553408D01*
X94389382Y-97142790D02*
X120210618Y-97142790D01*
%TO.N,R_1*%
X104720000Y-105680000D02*
X95860000Y-105680000D01*
X105800000Y-104600000D02*
X104720000Y-105680000D01*
X95860000Y-105680000D02*
X81890000Y-105680000D01*
X81890000Y-105680000D02*
X81890000Y-124730000D01*
X81890000Y-124730000D02*
X100940000Y-124730000D01*
X185990000Y-105680000D02*
X185990000Y-124730000D01*
X185990000Y-124730000D02*
X180910000Y-124730000D01*
X180910000Y-124730000D02*
X166940000Y-124730000D01*
X157900000Y-101720000D02*
X153390000Y-97210000D01*
X157900000Y-103500000D02*
X157900000Y-101720000D01*
X185990000Y-105680000D02*
X160080000Y-105680000D01*
X160080000Y-105680000D02*
X157900000Y-103500000D01*
%TO.N,C_5*%
X122156497Y-103850201D02*
X117690201Y-103850201D01*
X122770201Y-103236497D02*
X122156497Y-103850201D01*
X117690201Y-103850201D02*
X116510000Y-102670000D01*
X122770201Y-101343089D02*
X122770201Y-103236497D01*
X133940000Y-101075000D02*
X133940000Y-99971000D01*
X133669000Y-99700000D02*
X132600000Y-99700000D01*
X124556080Y-99557210D02*
X122770201Y-101343089D01*
X133940000Y-99971000D02*
X133669000Y-99700000D01*
X132457210Y-99557210D02*
X124556080Y-99557210D01*
X132600000Y-99700000D02*
X132457210Y-99557210D01*
%TO.N,MOSI*%
X137600000Y-100100000D02*
X136600000Y-99100000D01*
X120230201Y-101310201D02*
X119050000Y-100130000D01*
X122156497Y-101310201D02*
X120230201Y-101310201D01*
X124366698Y-99100000D02*
X122156497Y-101310201D01*
X125900000Y-99100000D02*
X124366698Y-99100000D01*
X125900000Y-99100000D02*
X125750000Y-99100000D01*
X136600000Y-99100000D02*
X125900000Y-99100000D01*
%TO.N,SCK*%
X117869799Y-101489799D02*
X119050000Y-102670000D01*
X117869799Y-99480201D02*
X117869799Y-101489799D01*
X118707210Y-98642790D02*
X117869799Y-99480201D01*
X138550000Y-99450000D02*
X137742790Y-98642790D01*
X137742790Y-98642790D02*
X124157210Y-98642790D01*
X124157210Y-98642790D02*
X123750000Y-99050000D01*
X123750000Y-99050000D02*
X122100000Y-99050000D01*
X121692790Y-98642790D02*
X122100000Y-99050000D01*
X118707210Y-98642790D02*
X121692790Y-98642790D01*
D20*
%TO.N,VCC_USB*%
X163639670Y-96400000D02*
X164639670Y-97400000D01*
X157200000Y-96400000D02*
X163639670Y-96400000D01*
X164639670Y-97400000D02*
X173700000Y-97400000D01*
X173700000Y-97400000D02*
X174500000Y-98200000D01*
D19*
X172500000Y-88500000D02*
X172900000Y-88900000D01*
X172900000Y-88900000D02*
X174800000Y-88900000D01*
X174800000Y-88900000D02*
X174800000Y-89400000D01*
X174800000Y-89400000D02*
X174900000Y-89500000D01*
X174800000Y-88900000D02*
X177200000Y-88900000D01*
X177200000Y-88900000D02*
X177550000Y-88550000D01*
%TD*%
%TO.N,GND*%
G36*
X169571585Y-81454013D02*
G01*
X169525000Y-81673000D01*
X169525000Y-81973000D01*
X170533000Y-81973000D01*
X170533000Y-81953000D01*
X170787000Y-81953000D01*
X170787000Y-81973000D01*
X171795000Y-81973000D01*
X171795000Y-81673000D01*
X171748415Y-81454013D01*
X171705942Y-81355200D01*
X178254058Y-81355200D01*
X178211585Y-81454013D01*
X178165000Y-81673000D01*
X178165000Y-81973000D01*
X179173000Y-81973000D01*
X179173000Y-81953000D01*
X179427000Y-81953000D01*
X179427000Y-81973000D01*
X180435000Y-81973000D01*
X180435000Y-81673000D01*
X180388415Y-81454013D01*
X180345942Y-81355200D01*
X181144800Y-81355200D01*
X181144801Y-93469106D01*
X181141095Y-93468269D01*
X180917594Y-93462489D01*
X180697260Y-93500423D01*
X180488560Y-93580613D01*
X180436550Y-93608412D01*
X180401439Y-93821834D01*
X181000000Y-94420395D01*
X181014143Y-94406253D01*
X181144801Y-94536911D01*
X181144801Y-94924406D01*
X181000000Y-94779605D01*
X180401439Y-95378166D01*
X180436550Y-95591588D01*
X180640826Y-95682458D01*
X180858905Y-95731731D01*
X181082406Y-95737511D01*
X181302740Y-95699577D01*
X181511440Y-95619387D01*
X181563450Y-95591588D01*
X181598561Y-95378166D01*
X181575595Y-95355200D01*
X190144800Y-95355200D01*
X190144801Y-126544800D01*
X72655200Y-126544800D01*
X72655200Y-122046675D01*
X74084800Y-122046675D01*
X74084800Y-122333325D01*
X74140723Y-122614466D01*
X74250419Y-122879296D01*
X74409672Y-123117636D01*
X74612364Y-123320328D01*
X74850704Y-123479581D01*
X75115534Y-123589277D01*
X75396675Y-123645200D01*
X75683325Y-123645200D01*
X75964466Y-123589277D01*
X76229296Y-123479581D01*
X76467636Y-123320328D01*
X76670328Y-123117636D01*
X76829581Y-122879296D01*
X76939277Y-122614466D01*
X76995200Y-122333325D01*
X76995200Y-122046675D01*
X76939277Y-121765534D01*
X76829581Y-121500704D01*
X76670328Y-121262364D01*
X76467636Y-121059672D01*
X76229296Y-120900419D01*
X75964466Y-120790723D01*
X75683325Y-120734800D01*
X75396675Y-120734800D01*
X75115534Y-120790723D01*
X74850704Y-120900419D01*
X74612364Y-121059672D01*
X74409672Y-121262364D01*
X74250419Y-121500704D01*
X74140723Y-121765534D01*
X74084800Y-122046675D01*
X72655200Y-122046675D01*
X72655200Y-119531298D01*
X73064800Y-119531298D01*
X73064800Y-119768702D01*
X73111116Y-120001544D01*
X73201966Y-120220876D01*
X73333860Y-120418270D01*
X73501730Y-120586140D01*
X73699124Y-120718034D01*
X73918456Y-120808884D01*
X74151298Y-120855200D01*
X74388702Y-120855200D01*
X74621544Y-120808884D01*
X74840876Y-120718034D01*
X75038270Y-120586140D01*
X75206140Y-120418270D01*
X75338034Y-120220876D01*
X75428884Y-120001544D01*
X75475200Y-119768702D01*
X75475200Y-119531298D01*
X75453280Y-119421096D01*
X77025900Y-119421096D01*
X77025900Y-119878904D01*
X77115214Y-120327915D01*
X77290410Y-120750874D01*
X77544754Y-121131527D01*
X77868473Y-121455246D01*
X78249126Y-121709590D01*
X78672085Y-121884786D01*
X79121096Y-121974100D01*
X79578904Y-121974100D01*
X80027915Y-121884786D01*
X80450874Y-121709590D01*
X80831527Y-121455246D01*
X81155246Y-121131527D01*
X81409590Y-120750874D01*
X81432801Y-120694838D01*
X81432801Y-123344281D01*
X81200704Y-123440419D01*
X80962364Y-123599672D01*
X80759672Y-123802364D01*
X80600419Y-124040704D01*
X80490723Y-124305534D01*
X80434800Y-124586675D01*
X80434800Y-124873325D01*
X80490723Y-125154466D01*
X80600419Y-125419296D01*
X80759672Y-125657636D01*
X80962364Y-125860328D01*
X81200704Y-126019581D01*
X81465534Y-126129277D01*
X81746675Y-126185200D01*
X82033325Y-126185200D01*
X82314466Y-126129277D01*
X82579296Y-126019581D01*
X82817636Y-125860328D01*
X83020328Y-125657636D01*
X83179581Y-125419296D01*
X83275718Y-125187200D01*
X99554282Y-125187200D01*
X99650419Y-125419296D01*
X99809672Y-125657636D01*
X100012364Y-125860328D01*
X100250704Y-126019581D01*
X100515534Y-126129277D01*
X100796675Y-126185200D01*
X101083325Y-126185200D01*
X101364466Y-126129277D01*
X101629296Y-126019581D01*
X101867636Y-125860328D01*
X102070328Y-125657636D01*
X102229581Y-125419296D01*
X102339277Y-125154466D01*
X102395200Y-124873325D01*
X102395200Y-124586675D01*
X102339277Y-124305534D01*
X102229581Y-124040704D01*
X102070328Y-123802364D01*
X101867636Y-123599672D01*
X101629296Y-123440419D01*
X101364466Y-123330723D01*
X101083325Y-123274800D01*
X100796675Y-123274800D01*
X100515534Y-123330723D01*
X100250704Y-123440419D01*
X100012364Y-123599672D01*
X99809672Y-123802364D01*
X99650419Y-124040704D01*
X99554282Y-124272800D01*
X83275718Y-124272800D01*
X83179581Y-124040704D01*
X83020328Y-123802364D01*
X82817636Y-123599672D01*
X82579296Y-123440419D01*
X82347200Y-123344282D01*
X82347200Y-122046675D01*
X93134800Y-122046675D01*
X93134800Y-122333325D01*
X93190723Y-122614466D01*
X93300419Y-122879296D01*
X93459672Y-123117636D01*
X93662364Y-123320328D01*
X93900704Y-123479581D01*
X94165534Y-123589277D01*
X94446675Y-123645200D01*
X94733325Y-123645200D01*
X95014466Y-123589277D01*
X95279296Y-123479581D01*
X95517636Y-123320328D01*
X95720328Y-123117636D01*
X95879581Y-122879296D01*
X95989277Y-122614466D01*
X96045200Y-122333325D01*
X96045200Y-122046675D01*
X159134800Y-122046675D01*
X159134800Y-122333325D01*
X159190723Y-122614466D01*
X159300419Y-122879296D01*
X159459672Y-123117636D01*
X159662364Y-123320328D01*
X159900704Y-123479581D01*
X160165534Y-123589277D01*
X160446675Y-123645200D01*
X160733325Y-123645200D01*
X161014466Y-123589277D01*
X161279296Y-123479581D01*
X161517636Y-123320328D01*
X161720328Y-123117636D01*
X161879581Y-122879296D01*
X161989277Y-122614466D01*
X162045200Y-122333325D01*
X162045200Y-122046675D01*
X178184800Y-122046675D01*
X178184800Y-122333325D01*
X178240723Y-122614466D01*
X178350419Y-122879296D01*
X178509672Y-123117636D01*
X178712364Y-123320328D01*
X178950704Y-123479581D01*
X179215534Y-123589277D01*
X179496675Y-123645200D01*
X179783325Y-123645200D01*
X180064466Y-123589277D01*
X180329296Y-123479581D01*
X180567636Y-123320328D01*
X180770328Y-123117636D01*
X180929581Y-122879296D01*
X181039277Y-122614466D01*
X181095200Y-122333325D01*
X181095200Y-122046675D01*
X181039277Y-121765534D01*
X180929581Y-121500704D01*
X180770328Y-121262364D01*
X180567636Y-121059672D01*
X180329296Y-120900419D01*
X180064466Y-120790723D01*
X179783325Y-120734800D01*
X179496675Y-120734800D01*
X179215534Y-120790723D01*
X178950704Y-120900419D01*
X178712364Y-121059672D01*
X178509672Y-121262364D01*
X178350419Y-121500704D01*
X178240723Y-121765534D01*
X178184800Y-122046675D01*
X162045200Y-122046675D01*
X161989277Y-121765534D01*
X161879581Y-121500704D01*
X161720328Y-121262364D01*
X161517636Y-121059672D01*
X161279296Y-120900419D01*
X161014466Y-120790723D01*
X160733325Y-120734800D01*
X160446675Y-120734800D01*
X160165534Y-120790723D01*
X159900704Y-120900419D01*
X159662364Y-121059672D01*
X159459672Y-121262364D01*
X159300419Y-121500704D01*
X159190723Y-121765534D01*
X159134800Y-122046675D01*
X96045200Y-122046675D01*
X95989277Y-121765534D01*
X95879581Y-121500704D01*
X95720328Y-121262364D01*
X95517636Y-121059672D01*
X95279296Y-120900419D01*
X95014466Y-120790723D01*
X94733325Y-120734800D01*
X94446675Y-120734800D01*
X94165534Y-120790723D01*
X93900704Y-120900419D01*
X93662364Y-121059672D01*
X93459672Y-121262364D01*
X93300419Y-121500704D01*
X93190723Y-121765534D01*
X93134800Y-122046675D01*
X82347200Y-122046675D01*
X82347200Y-119531298D01*
X83224800Y-119531298D01*
X83224800Y-119768702D01*
X83271116Y-120001544D01*
X83361966Y-120220876D01*
X83493860Y-120418270D01*
X83661730Y-120586140D01*
X83859124Y-120718034D01*
X84078456Y-120808884D01*
X84311298Y-120855200D01*
X84548702Y-120855200D01*
X84781544Y-120808884D01*
X85000876Y-120718034D01*
X85198270Y-120586140D01*
X85366140Y-120418270D01*
X85498034Y-120220876D01*
X85588884Y-120001544D01*
X85635200Y-119768702D01*
X85635200Y-119531298D01*
X92114800Y-119531298D01*
X92114800Y-119768702D01*
X92161116Y-120001544D01*
X92251966Y-120220876D01*
X92383860Y-120418270D01*
X92551730Y-120586140D01*
X92749124Y-120718034D01*
X92968456Y-120808884D01*
X93201298Y-120855200D01*
X93438702Y-120855200D01*
X93671544Y-120808884D01*
X93890876Y-120718034D01*
X94088270Y-120586140D01*
X94256140Y-120418270D01*
X94388034Y-120220876D01*
X94478884Y-120001544D01*
X94525200Y-119768702D01*
X94525200Y-119531298D01*
X94503280Y-119421096D01*
X96075900Y-119421096D01*
X96075900Y-119878904D01*
X96165214Y-120327915D01*
X96340410Y-120750874D01*
X96594754Y-121131527D01*
X96918473Y-121455246D01*
X97299126Y-121709590D01*
X97722085Y-121884786D01*
X98171096Y-121974100D01*
X98628904Y-121974100D01*
X99077915Y-121884786D01*
X99500874Y-121709590D01*
X99881527Y-121455246D01*
X100205246Y-121131527D01*
X100459590Y-120750874D01*
X100634786Y-120327915D01*
X100724100Y-119878904D01*
X100724100Y-119531298D01*
X102274800Y-119531298D01*
X102274800Y-119768702D01*
X102321116Y-120001544D01*
X102411966Y-120220876D01*
X102543860Y-120418270D01*
X102711730Y-120586140D01*
X102909124Y-120718034D01*
X103128456Y-120808884D01*
X103361298Y-120855200D01*
X103598702Y-120855200D01*
X103831544Y-120808884D01*
X104050876Y-120718034D01*
X104248270Y-120586140D01*
X104416140Y-120418270D01*
X104548034Y-120220876D01*
X104638884Y-120001544D01*
X104685200Y-119768702D01*
X104685200Y-119531298D01*
X104638884Y-119298456D01*
X104548034Y-119079124D01*
X104416140Y-118881730D01*
X104248270Y-118713860D01*
X104050876Y-118581966D01*
X103831544Y-118491116D01*
X103598702Y-118444800D01*
X103361298Y-118444800D01*
X103128456Y-118491116D01*
X102909124Y-118581966D01*
X102711730Y-118713860D01*
X102543860Y-118881730D01*
X102411966Y-119079124D01*
X102321116Y-119298456D01*
X102274800Y-119531298D01*
X100724100Y-119531298D01*
X100724100Y-119421096D01*
X100634786Y-118972085D01*
X100459590Y-118549126D01*
X100205246Y-118168473D01*
X99881527Y-117844754D01*
X99500874Y-117590410D01*
X99077915Y-117415214D01*
X98628904Y-117325900D01*
X98171096Y-117325900D01*
X97722085Y-117415214D01*
X97299126Y-117590410D01*
X96918473Y-117844754D01*
X96594754Y-118168473D01*
X96340410Y-118549126D01*
X96165214Y-118972085D01*
X96075900Y-119421096D01*
X94503280Y-119421096D01*
X94478884Y-119298456D01*
X94388034Y-119079124D01*
X94256140Y-118881730D01*
X94088270Y-118713860D01*
X93890876Y-118581966D01*
X93671544Y-118491116D01*
X93438702Y-118444800D01*
X93201298Y-118444800D01*
X92968456Y-118491116D01*
X92749124Y-118581966D01*
X92551730Y-118713860D01*
X92383860Y-118881730D01*
X92251966Y-119079124D01*
X92161116Y-119298456D01*
X92114800Y-119531298D01*
X85635200Y-119531298D01*
X85588884Y-119298456D01*
X85498034Y-119079124D01*
X85366140Y-118881730D01*
X85198270Y-118713860D01*
X85000876Y-118581966D01*
X84781544Y-118491116D01*
X84548702Y-118444800D01*
X84311298Y-118444800D01*
X84078456Y-118491116D01*
X83859124Y-118581966D01*
X83661730Y-118713860D01*
X83493860Y-118881730D01*
X83361966Y-119079124D01*
X83271116Y-119298456D01*
X83224800Y-119531298D01*
X82347200Y-119531298D01*
X82347200Y-107065718D01*
X82579296Y-106969581D01*
X82817636Y-106810328D01*
X83020328Y-106607636D01*
X83179581Y-106369296D01*
X83275718Y-106137200D01*
X99554282Y-106137200D01*
X99650419Y-106369296D01*
X99809672Y-106607636D01*
X100012364Y-106810328D01*
X100250704Y-106969581D01*
X100515534Y-107079277D01*
X100796675Y-107135200D01*
X101083325Y-107135200D01*
X101364466Y-107079277D01*
X101629296Y-106969581D01*
X101867636Y-106810328D01*
X102070328Y-106607636D01*
X102229581Y-106369296D01*
X102325718Y-106137200D01*
X104697550Y-106137200D01*
X104720000Y-106139411D01*
X104742450Y-106137200D01*
X104742460Y-106137200D01*
X104809627Y-106130585D01*
X104895809Y-106104441D01*
X104975236Y-106061987D01*
X105044853Y-106004853D01*
X105059174Y-105987403D01*
X105718320Y-105328258D01*
X105728082Y-105330200D01*
X105871918Y-105330200D01*
X106012991Y-105302139D01*
X106145879Y-105247095D01*
X106265475Y-105167183D01*
X106367183Y-105065475D01*
X106447095Y-104945879D01*
X106502139Y-104812991D01*
X106530200Y-104671918D01*
X106530200Y-104528082D01*
X106502139Y-104387009D01*
X106447095Y-104254121D01*
X106367183Y-104134525D01*
X106265475Y-104032817D01*
X106145879Y-103952905D01*
X106012991Y-103897861D01*
X105871918Y-103869800D01*
X105728082Y-103869800D01*
X105587009Y-103897861D01*
X105454121Y-103952905D01*
X105334525Y-104032817D01*
X105232817Y-104134525D01*
X105152905Y-104254121D01*
X105097861Y-104387009D01*
X105069800Y-104528082D01*
X105069800Y-104671918D01*
X105071742Y-104681680D01*
X104530623Y-105222800D01*
X102325718Y-105222800D01*
X102229581Y-104990704D01*
X102070328Y-104752364D01*
X101867636Y-104549672D01*
X101629296Y-104390419D01*
X101364466Y-104280723D01*
X101083325Y-104224800D01*
X100796675Y-104224800D01*
X100515534Y-104280723D01*
X100250704Y-104390419D01*
X100012364Y-104549672D01*
X99809672Y-104752364D01*
X99650419Y-104990704D01*
X99554282Y-105222800D01*
X83275718Y-105222800D01*
X83179581Y-104990704D01*
X83020328Y-104752364D01*
X82817636Y-104549672D01*
X82579296Y-104390419D01*
X82314466Y-104280723D01*
X82033325Y-104224800D01*
X81746675Y-104224800D01*
X81465534Y-104280723D01*
X81200704Y-104390419D01*
X80962364Y-104549672D01*
X80759672Y-104752364D01*
X80600419Y-104990704D01*
X80490723Y-105255534D01*
X80434800Y-105536675D01*
X80434800Y-105823325D01*
X80490723Y-106104466D01*
X80600419Y-106369296D01*
X80759672Y-106607636D01*
X80962364Y-106810328D01*
X81200704Y-106969581D01*
X81432800Y-107065718D01*
X81432801Y-118605161D01*
X81409590Y-118549126D01*
X81155246Y-118168473D01*
X80831527Y-117844754D01*
X80450874Y-117590410D01*
X80027915Y-117415214D01*
X79578904Y-117325900D01*
X79121096Y-117325900D01*
X78672085Y-117415214D01*
X78249126Y-117590410D01*
X77868473Y-117844754D01*
X77544754Y-118168473D01*
X77290410Y-118549126D01*
X77115214Y-118972085D01*
X77025900Y-119421096D01*
X75453280Y-119421096D01*
X75428884Y-119298456D01*
X75338034Y-119079124D01*
X75206140Y-118881730D01*
X75038270Y-118713860D01*
X74840876Y-118581966D01*
X74621544Y-118491116D01*
X74388702Y-118444800D01*
X74151298Y-118444800D01*
X73918456Y-118491116D01*
X73699124Y-118581966D01*
X73501730Y-118713860D01*
X73333860Y-118881730D01*
X73201966Y-119079124D01*
X73111116Y-119298456D01*
X73064800Y-119531298D01*
X72655200Y-119531298D01*
X72655200Y-102996675D01*
X74084800Y-102996675D01*
X74084800Y-103283325D01*
X74140723Y-103564466D01*
X74250419Y-103829296D01*
X74409672Y-104067636D01*
X74612364Y-104270328D01*
X74850704Y-104429581D01*
X75115534Y-104539277D01*
X75396675Y-104595200D01*
X75683325Y-104595200D01*
X75964466Y-104539277D01*
X76229296Y-104429581D01*
X76467636Y-104270328D01*
X76670328Y-104067636D01*
X76829581Y-103829296D01*
X76939277Y-103564466D01*
X76995200Y-103283325D01*
X76995200Y-102996675D01*
X93134800Y-102996675D01*
X93134800Y-103283325D01*
X93190723Y-103564466D01*
X93300419Y-103829296D01*
X93459672Y-104067636D01*
X93662364Y-104270328D01*
X93900704Y-104429581D01*
X94165534Y-104539277D01*
X94446675Y-104595200D01*
X94733325Y-104595200D01*
X95014466Y-104539277D01*
X95279296Y-104429581D01*
X95517636Y-104270328D01*
X95720328Y-104067636D01*
X95879581Y-103829296D01*
X95989277Y-103564466D01*
X96045200Y-103283325D01*
X96045200Y-102996675D01*
X95989277Y-102715534D01*
X95879581Y-102450704D01*
X95720328Y-102212364D01*
X95517636Y-102009672D01*
X95279296Y-101850419D01*
X95014466Y-101740723D01*
X94733325Y-101684800D01*
X94446675Y-101684800D01*
X94165534Y-101740723D01*
X93900704Y-101850419D01*
X93662364Y-102009672D01*
X93459672Y-102212364D01*
X93300419Y-102450704D01*
X93190723Y-102715534D01*
X93134800Y-102996675D01*
X76995200Y-102996675D01*
X76939277Y-102715534D01*
X76829581Y-102450704D01*
X76670328Y-102212364D01*
X76467636Y-102009672D01*
X76229296Y-101850419D01*
X75964466Y-101740723D01*
X75683325Y-101684800D01*
X75396675Y-101684800D01*
X75115534Y-101740723D01*
X74850704Y-101850419D01*
X74612364Y-102009672D01*
X74409672Y-102212364D01*
X74250419Y-102450704D01*
X74140723Y-102715534D01*
X74084800Y-102996675D01*
X72655200Y-102996675D01*
X72655200Y-100481298D01*
X73064800Y-100481298D01*
X73064800Y-100718702D01*
X73111116Y-100951544D01*
X73201966Y-101170876D01*
X73333860Y-101368270D01*
X73501730Y-101536140D01*
X73699124Y-101668034D01*
X73918456Y-101758884D01*
X74151298Y-101805200D01*
X74388702Y-101805200D01*
X74621544Y-101758884D01*
X74840876Y-101668034D01*
X75038270Y-101536140D01*
X75206140Y-101368270D01*
X75338034Y-101170876D01*
X75428884Y-100951544D01*
X75475200Y-100718702D01*
X75475200Y-100481298D01*
X75453280Y-100371096D01*
X77025900Y-100371096D01*
X77025900Y-100828904D01*
X77115214Y-101277915D01*
X77290410Y-101700874D01*
X77544754Y-102081527D01*
X77868473Y-102405246D01*
X78249126Y-102659590D01*
X78672085Y-102834786D01*
X79121096Y-102924100D01*
X79578904Y-102924100D01*
X80027915Y-102834786D01*
X80450874Y-102659590D01*
X80831527Y-102405246D01*
X81155246Y-102081527D01*
X81409590Y-101700874D01*
X81584786Y-101277915D01*
X81674100Y-100828904D01*
X81674100Y-100481298D01*
X83224800Y-100481298D01*
X83224800Y-100718702D01*
X83271116Y-100951544D01*
X83361966Y-101170876D01*
X83493860Y-101368270D01*
X83661730Y-101536140D01*
X83859124Y-101668034D01*
X84078456Y-101758884D01*
X84311298Y-101805200D01*
X84548702Y-101805200D01*
X84781544Y-101758884D01*
X85000876Y-101668034D01*
X85198270Y-101536140D01*
X85366140Y-101368270D01*
X85498034Y-101170876D01*
X85588884Y-100951544D01*
X85635200Y-100718702D01*
X85635200Y-100481298D01*
X92114800Y-100481298D01*
X92114800Y-100718702D01*
X92161116Y-100951544D01*
X92251966Y-101170876D01*
X92383860Y-101368270D01*
X92551730Y-101536140D01*
X92749124Y-101668034D01*
X92968456Y-101758884D01*
X93201298Y-101805200D01*
X93438702Y-101805200D01*
X93671544Y-101758884D01*
X93890876Y-101668034D01*
X94088270Y-101536140D01*
X94256140Y-101368270D01*
X94388034Y-101170876D01*
X94478884Y-100951544D01*
X94525200Y-100718702D01*
X94525200Y-100481298D01*
X94503280Y-100371096D01*
X96075900Y-100371096D01*
X96075900Y-100828904D01*
X96165214Y-101277915D01*
X96340410Y-101700874D01*
X96594754Y-102081527D01*
X96918473Y-102405246D01*
X97299126Y-102659590D01*
X97722085Y-102834786D01*
X98171096Y-102924100D01*
X98628904Y-102924100D01*
X99077915Y-102834786D01*
X99500874Y-102659590D01*
X99881527Y-102405246D01*
X100205246Y-102081527D01*
X100459590Y-101700874D01*
X100634786Y-101277915D01*
X100724100Y-100828904D01*
X100724100Y-100481298D01*
X102274800Y-100481298D01*
X102274800Y-100718702D01*
X102321116Y-100951544D01*
X102411966Y-101170876D01*
X102543860Y-101368270D01*
X102711730Y-101536140D01*
X102909124Y-101668034D01*
X103128456Y-101758884D01*
X103361298Y-101805200D01*
X103598702Y-101805200D01*
X103831544Y-101758884D01*
X104050876Y-101668034D01*
X104248270Y-101536140D01*
X104416140Y-101368270D01*
X104548034Y-101170876D01*
X104638884Y-100951544D01*
X104685200Y-100718702D01*
X104685200Y-100481298D01*
X104638884Y-100248456D01*
X104548034Y-100029124D01*
X104416140Y-99831730D01*
X104248270Y-99663860D01*
X104050876Y-99531966D01*
X103831544Y-99441116D01*
X103598702Y-99394800D01*
X103361298Y-99394800D01*
X103128456Y-99441116D01*
X102909124Y-99531966D01*
X102711730Y-99663860D01*
X102543860Y-99831730D01*
X102411966Y-100029124D01*
X102321116Y-100248456D01*
X102274800Y-100481298D01*
X100724100Y-100481298D01*
X100724100Y-100371096D01*
X100634786Y-99922085D01*
X100459590Y-99499126D01*
X100205246Y-99118473D01*
X99881527Y-98794754D01*
X99500874Y-98540410D01*
X99077915Y-98365214D01*
X98628904Y-98275900D01*
X98171096Y-98275900D01*
X97722085Y-98365214D01*
X97299126Y-98540410D01*
X96918473Y-98794754D01*
X96594754Y-99118473D01*
X96340410Y-99499126D01*
X96165214Y-99922085D01*
X96075900Y-100371096D01*
X94503280Y-100371096D01*
X94478884Y-100248456D01*
X94388034Y-100029124D01*
X94256140Y-99831730D01*
X94088270Y-99663860D01*
X93890876Y-99531966D01*
X93671544Y-99441116D01*
X93438702Y-99394800D01*
X93201298Y-99394800D01*
X92968456Y-99441116D01*
X92749124Y-99531966D01*
X92551730Y-99663860D01*
X92383860Y-99831730D01*
X92251966Y-100029124D01*
X92161116Y-100248456D01*
X92114800Y-100481298D01*
X85635200Y-100481298D01*
X85588884Y-100248456D01*
X85498034Y-100029124D01*
X85366140Y-99831730D01*
X85198270Y-99663860D01*
X85000876Y-99531966D01*
X84781544Y-99441116D01*
X84548702Y-99394800D01*
X84311298Y-99394800D01*
X84078456Y-99441116D01*
X83859124Y-99531966D01*
X83661730Y-99663860D01*
X83493860Y-99831730D01*
X83361966Y-100029124D01*
X83271116Y-100248456D01*
X83224800Y-100481298D01*
X81674100Y-100481298D01*
X81674100Y-100371096D01*
X81584786Y-99922085D01*
X81409590Y-99499126D01*
X81155246Y-99118473D01*
X80831527Y-98794754D01*
X80450874Y-98540410D01*
X80027915Y-98365214D01*
X79578904Y-98275900D01*
X79121096Y-98275900D01*
X78672085Y-98365214D01*
X78249126Y-98540410D01*
X77868473Y-98794754D01*
X77544754Y-99118473D01*
X77290410Y-99499126D01*
X77115214Y-99922085D01*
X77025900Y-100371096D01*
X75453280Y-100371096D01*
X75428884Y-100248456D01*
X75338034Y-100029124D01*
X75206140Y-99831730D01*
X75038270Y-99663860D01*
X74840876Y-99531966D01*
X74621544Y-99441116D01*
X74388702Y-99394800D01*
X74151298Y-99394800D01*
X73918456Y-99441116D01*
X73699124Y-99531966D01*
X73501730Y-99663860D01*
X73333860Y-99831730D01*
X73201966Y-100029124D01*
X73111116Y-100248456D01*
X73064800Y-100481298D01*
X72655200Y-100481298D01*
X72655200Y-95355200D01*
X88393090Y-95355200D01*
X88421087Y-95356294D01*
X88441092Y-95353122D01*
X88483789Y-95395819D01*
X88562745Y-95316863D01*
X88576691Y-95308313D01*
X88598293Y-95296766D01*
X88603761Y-95292279D01*
X88636550Y-95491588D01*
X88840826Y-95582458D01*
X89058905Y-95631731D01*
X89282406Y-95637511D01*
X89502740Y-95599577D01*
X89711440Y-95519387D01*
X89763450Y-95491588D01*
X89797994Y-95281614D01*
X89800000Y-95279608D01*
X89802006Y-95281614D01*
X89836550Y-95491588D01*
X90040826Y-95582458D01*
X90258905Y-95631731D01*
X90482406Y-95637511D01*
X90702740Y-95599577D01*
X90911440Y-95519387D01*
X90963450Y-95491588D01*
X90998561Y-95278166D01*
X90400000Y-94679605D01*
X90385858Y-94693748D01*
X90331768Y-94639658D01*
X90337511Y-94417594D01*
X90328258Y-94363852D01*
X90385858Y-94306253D01*
X90400000Y-94320395D01*
X90414143Y-94306253D01*
X90593748Y-94485858D01*
X90579605Y-94500000D01*
X90796723Y-94717118D01*
X90801704Y-94742160D01*
X90864286Y-94893247D01*
X90955142Y-95029222D01*
X91070778Y-95144858D01*
X91206753Y-95235714D01*
X91207814Y-95236153D01*
X91218013Y-95255235D01*
X91275147Y-95324853D01*
X91292597Y-95339174D01*
X93860836Y-97907414D01*
X93875148Y-97924853D01*
X93892587Y-97939165D01*
X93892592Y-97939170D01*
X93944763Y-97981987D01*
X94002770Y-98012991D01*
X94024192Y-98024441D01*
X94110374Y-98050585D01*
X94177541Y-98057200D01*
X94177549Y-98057200D01*
X94199999Y-98059411D01*
X94222449Y-98057200D01*
X117936224Y-98057198D01*
X116956086Y-99037336D01*
X116854252Y-98995155D01*
X116626240Y-98949800D01*
X116393760Y-98949800D01*
X116165748Y-98995155D01*
X115950966Y-99084121D01*
X115757667Y-99213279D01*
X115593279Y-99377667D01*
X115464121Y-99570966D01*
X115375155Y-99785748D01*
X115329800Y-100013760D01*
X115329800Y-100246240D01*
X115375155Y-100474252D01*
X115464121Y-100689034D01*
X115593279Y-100882333D01*
X115757667Y-101046721D01*
X115950966Y-101175879D01*
X116165748Y-101264845D01*
X116393760Y-101310200D01*
X116626240Y-101310200D01*
X116854252Y-101264845D01*
X117069034Y-101175879D01*
X117262333Y-101046721D01*
X117412600Y-100896454D01*
X117412600Y-101467339D01*
X117410388Y-101489799D01*
X117410723Y-101493198D01*
X117360000Y-101488203D01*
X115660000Y-101488203D01*
X115595270Y-101494578D01*
X115533027Y-101513460D01*
X115475663Y-101544121D01*
X115425384Y-101585384D01*
X115384121Y-101635663D01*
X115353460Y-101693027D01*
X115334578Y-101755270D01*
X115328203Y-101820000D01*
X115328203Y-103520000D01*
X115334578Y-103584730D01*
X115353460Y-103646973D01*
X115384121Y-103704337D01*
X115425384Y-103754616D01*
X115475663Y-103795879D01*
X115533027Y-103826540D01*
X115595270Y-103845422D01*
X115660000Y-103851797D01*
X117045219Y-103851797D01*
X117351031Y-104157609D01*
X117365348Y-104175054D01*
X117382793Y-104189371D01*
X117434964Y-104232188D01*
X117475999Y-104254121D01*
X117514392Y-104274642D01*
X117600574Y-104300786D01*
X117667741Y-104307401D01*
X117667750Y-104307401D01*
X117690200Y-104309612D01*
X117712650Y-104307401D01*
X122134047Y-104307401D01*
X122156497Y-104309612D01*
X122178947Y-104307401D01*
X122178957Y-104307401D01*
X122246124Y-104300786D01*
X122332306Y-104274642D01*
X122411733Y-104232188D01*
X122481350Y-104175054D01*
X122495671Y-104157604D01*
X123077614Y-103575663D01*
X123095054Y-103561350D01*
X123109366Y-103543911D01*
X123109372Y-103543905D01*
X123152188Y-103491733D01*
X123194642Y-103412307D01*
X123220786Y-103326124D01*
X123220976Y-103324191D01*
X123227401Y-103258957D01*
X123227401Y-103258949D01*
X123229612Y-103236497D01*
X123227401Y-103214045D01*
X123227401Y-101532466D01*
X124745458Y-100014410D01*
X127755666Y-100014410D01*
X127734121Y-100040663D01*
X127703460Y-100098027D01*
X127684578Y-100160270D01*
X127678203Y-100225000D01*
X127678203Y-101644800D01*
X124717443Y-101644800D01*
X124700000Y-101643082D01*
X124636146Y-101649371D01*
X124630369Y-101649940D01*
X124563413Y-101670251D01*
X124501707Y-101703234D01*
X124447621Y-101747621D01*
X124403234Y-101801707D01*
X124370251Y-101863413D01*
X124349940Y-101930369D01*
X124343082Y-102000000D01*
X124344800Y-102017443D01*
X124344801Y-118182547D01*
X124343082Y-118200000D01*
X124349940Y-118269631D01*
X124370251Y-118336587D01*
X124403234Y-118398293D01*
X124447621Y-118452379D01*
X124501707Y-118496766D01*
X124563413Y-118529749D01*
X124630369Y-118550060D01*
X124682557Y-118555200D01*
X124700000Y-118556918D01*
X124717443Y-118555200D01*
X127678203Y-118555200D01*
X127678203Y-120025000D01*
X127684578Y-120089730D01*
X127703460Y-120151973D01*
X127734121Y-120209337D01*
X127775384Y-120259616D01*
X127825663Y-120300879D01*
X127883027Y-120331540D01*
X127945270Y-120350422D01*
X128010000Y-120356797D01*
X129710000Y-120356797D01*
X129774730Y-120350422D01*
X129836973Y-120331540D01*
X129894337Y-120300879D01*
X129944616Y-120259616D01*
X129954094Y-120248068D01*
X129960498Y-120269180D01*
X130019463Y-120379494D01*
X130098815Y-120476185D01*
X130195506Y-120555537D01*
X130305820Y-120614502D01*
X130425518Y-120650812D01*
X130550000Y-120663072D01*
X131114250Y-120660000D01*
X131273000Y-120501250D01*
X131273000Y-119302000D01*
X131253000Y-119302000D01*
X131253000Y-119048000D01*
X131273000Y-119048000D01*
X131273000Y-118555200D01*
X131527000Y-118555200D01*
X131527000Y-119048000D01*
X131547000Y-119048000D01*
X131547000Y-119302000D01*
X131527000Y-119302000D01*
X131527000Y-120501250D01*
X131685750Y-120660000D01*
X132250000Y-120663072D01*
X132374482Y-120650812D01*
X132494180Y-120614502D01*
X132604494Y-120555537D01*
X132701185Y-120476185D01*
X132780537Y-120379494D01*
X132839502Y-120269180D01*
X132845906Y-120248068D01*
X132855384Y-120259616D01*
X132905663Y-120300879D01*
X132963027Y-120331540D01*
X133025270Y-120350422D01*
X133090000Y-120356797D01*
X134790000Y-120356797D01*
X134854730Y-120350422D01*
X134916973Y-120331540D01*
X134974337Y-120300879D01*
X135024616Y-120259616D01*
X135065879Y-120209337D01*
X135096540Y-120151973D01*
X135115422Y-120089730D01*
X135121797Y-120025000D01*
X135121797Y-118555200D01*
X138082557Y-118555200D01*
X138100000Y-118556918D01*
X138117443Y-118555200D01*
X138169631Y-118550060D01*
X138236587Y-118529749D01*
X138298293Y-118496766D01*
X138352379Y-118452379D01*
X138396766Y-118398293D01*
X138429749Y-118336587D01*
X138450060Y-118269631D01*
X138456918Y-118200000D01*
X138455200Y-118182557D01*
X138455200Y-109628082D01*
X144469800Y-109628082D01*
X144469800Y-109771918D01*
X144497861Y-109912991D01*
X144552905Y-110045879D01*
X144632817Y-110165475D01*
X144692800Y-110225458D01*
X144692801Y-117175075D01*
X144690346Y-117200000D01*
X144700139Y-117299428D01*
X144729142Y-117395036D01*
X144776239Y-117483149D01*
X144839621Y-117560380D01*
X144858977Y-117576265D01*
X146469800Y-119187089D01*
X146469800Y-119271918D01*
X146497861Y-119412991D01*
X146552905Y-119545879D01*
X146632817Y-119665475D01*
X146734525Y-119767183D01*
X146854121Y-119847095D01*
X146987009Y-119902139D01*
X147128082Y-119930200D01*
X147271918Y-119930200D01*
X147412991Y-119902139D01*
X147545879Y-119847095D01*
X147665475Y-119767183D01*
X147725458Y-119707200D01*
X157575085Y-119707200D01*
X157600000Y-119709654D01*
X157624915Y-119707200D01*
X157624916Y-119707200D01*
X157699429Y-119699861D01*
X157795036Y-119670859D01*
X157883149Y-119623762D01*
X157960380Y-119560380D01*
X157976270Y-119541018D01*
X158146785Y-119370504D01*
X158114800Y-119531298D01*
X158114800Y-119768702D01*
X158161116Y-120001544D01*
X158251966Y-120220876D01*
X158383860Y-120418270D01*
X158551730Y-120586140D01*
X158749124Y-120718034D01*
X158968456Y-120808884D01*
X159201298Y-120855200D01*
X159438702Y-120855200D01*
X159671544Y-120808884D01*
X159890876Y-120718034D01*
X160088270Y-120586140D01*
X160256140Y-120418270D01*
X160388034Y-120220876D01*
X160478884Y-120001544D01*
X160525200Y-119768702D01*
X160525200Y-119531298D01*
X160503280Y-119421096D01*
X162075900Y-119421096D01*
X162075900Y-119878904D01*
X162165214Y-120327915D01*
X162340410Y-120750874D01*
X162594754Y-121131527D01*
X162918473Y-121455246D01*
X163299126Y-121709590D01*
X163722085Y-121884786D01*
X164171096Y-121974100D01*
X164628904Y-121974100D01*
X165077915Y-121884786D01*
X165500874Y-121709590D01*
X165881527Y-121455246D01*
X166205246Y-121131527D01*
X166459590Y-120750874D01*
X166634786Y-120327915D01*
X166724100Y-119878904D01*
X166724100Y-119531298D01*
X168274800Y-119531298D01*
X168274800Y-119768702D01*
X168321116Y-120001544D01*
X168411966Y-120220876D01*
X168543860Y-120418270D01*
X168711730Y-120586140D01*
X168909124Y-120718034D01*
X169128456Y-120808884D01*
X169361298Y-120855200D01*
X169598702Y-120855200D01*
X169831544Y-120808884D01*
X170050876Y-120718034D01*
X170248270Y-120586140D01*
X170416140Y-120418270D01*
X170548034Y-120220876D01*
X170638884Y-120001544D01*
X170685200Y-119768702D01*
X170685200Y-119531298D01*
X177164800Y-119531298D01*
X177164800Y-119768702D01*
X177211116Y-120001544D01*
X177301966Y-120220876D01*
X177433860Y-120418270D01*
X177601730Y-120586140D01*
X177799124Y-120718034D01*
X178018456Y-120808884D01*
X178251298Y-120855200D01*
X178488702Y-120855200D01*
X178721544Y-120808884D01*
X178940876Y-120718034D01*
X179138270Y-120586140D01*
X179306140Y-120418270D01*
X179438034Y-120220876D01*
X179528884Y-120001544D01*
X179575200Y-119768702D01*
X179575200Y-119531298D01*
X179528884Y-119298456D01*
X179438034Y-119079124D01*
X179306140Y-118881730D01*
X179138270Y-118713860D01*
X178940876Y-118581966D01*
X178721544Y-118491116D01*
X178488702Y-118444800D01*
X178251298Y-118444800D01*
X178018456Y-118491116D01*
X177799124Y-118581966D01*
X177601730Y-118713860D01*
X177433860Y-118881730D01*
X177301966Y-119079124D01*
X177211116Y-119298456D01*
X177164800Y-119531298D01*
X170685200Y-119531298D01*
X170638884Y-119298456D01*
X170548034Y-119079124D01*
X170416140Y-118881730D01*
X170248270Y-118713860D01*
X170050876Y-118581966D01*
X169831544Y-118491116D01*
X169598702Y-118444800D01*
X169361298Y-118444800D01*
X169128456Y-118491116D01*
X168909124Y-118581966D01*
X168711730Y-118713860D01*
X168543860Y-118881730D01*
X168411966Y-119079124D01*
X168321116Y-119298456D01*
X168274800Y-119531298D01*
X166724100Y-119531298D01*
X166724100Y-119421096D01*
X166634786Y-118972085D01*
X166459590Y-118549126D01*
X166205246Y-118168473D01*
X165881527Y-117844754D01*
X165500874Y-117590410D01*
X165077915Y-117415214D01*
X164628904Y-117325900D01*
X164171096Y-117325900D01*
X163722085Y-117415214D01*
X163299126Y-117590410D01*
X162918473Y-117844754D01*
X162594754Y-118168473D01*
X162340410Y-118549126D01*
X162165214Y-118972085D01*
X162075900Y-119421096D01*
X160503280Y-119421096D01*
X160478884Y-119298456D01*
X160388034Y-119079124D01*
X160256140Y-118881730D01*
X160088270Y-118713860D01*
X159890876Y-118581966D01*
X159671544Y-118491116D01*
X159438702Y-118444800D01*
X159380998Y-118444800D01*
X159447095Y-118345879D01*
X159502139Y-118212991D01*
X159530200Y-118071918D01*
X159530200Y-117987088D01*
X160841023Y-116676266D01*
X160860380Y-116660380D01*
X160923762Y-116583149D01*
X160970859Y-116495036D01*
X160999861Y-116399429D01*
X161007200Y-116324916D01*
X161007200Y-116324915D01*
X161009654Y-116300001D01*
X161007200Y-116275085D01*
X161007200Y-109825458D01*
X161067183Y-109765475D01*
X161147095Y-109645879D01*
X161202139Y-109512991D01*
X161230200Y-109371918D01*
X161230200Y-109228082D01*
X161202139Y-109087009D01*
X161147095Y-108954121D01*
X161067183Y-108834525D01*
X161007200Y-108774542D01*
X161007200Y-108024915D01*
X161009654Y-108000000D01*
X160999861Y-107900571D01*
X160970859Y-107804964D01*
X160923762Y-107716851D01*
X160860380Y-107639620D01*
X160841023Y-107623734D01*
X159030200Y-105812912D01*
X159030200Y-105728082D01*
X159002139Y-105587009D01*
X158947095Y-105454121D01*
X158867183Y-105334525D01*
X158765475Y-105232817D01*
X158645879Y-105152905D01*
X158512991Y-105097861D01*
X158371918Y-105069800D01*
X158287089Y-105069800D01*
X156876270Y-103658982D01*
X156860380Y-103639620D01*
X156783149Y-103576238D01*
X156695036Y-103529141D01*
X156599429Y-103500139D01*
X156524916Y-103492800D01*
X156524915Y-103492800D01*
X156500000Y-103490346D01*
X156475085Y-103492800D01*
X153325458Y-103492800D01*
X153265475Y-103432817D01*
X153145879Y-103352905D01*
X153012991Y-103297861D01*
X152871918Y-103269800D01*
X152728082Y-103269800D01*
X152587009Y-103297861D01*
X152454121Y-103352905D01*
X152334525Y-103432817D01*
X152274542Y-103492800D01*
X149924915Y-103492800D01*
X149900000Y-103490346D01*
X149800571Y-103500139D01*
X149704963Y-103529141D01*
X149638875Y-103564466D01*
X149616851Y-103576238D01*
X149539620Y-103639620D01*
X149523739Y-103658971D01*
X144858982Y-108323730D01*
X144839620Y-108339620D01*
X144776238Y-108416851D01*
X144729141Y-108504965D01*
X144727719Y-108509654D01*
X144700139Y-108600572D01*
X144690346Y-108700000D01*
X144692800Y-108724916D01*
X144692800Y-109174542D01*
X144632817Y-109234525D01*
X144552905Y-109354121D01*
X144497861Y-109487009D01*
X144469800Y-109628082D01*
X138455200Y-109628082D01*
X138455200Y-102017443D01*
X138456918Y-102000000D01*
X138450060Y-101930369D01*
X138429749Y-101863413D01*
X138396766Y-101801707D01*
X138352379Y-101747621D01*
X138298293Y-101703234D01*
X138236587Y-101670251D01*
X138169631Y-101649940D01*
X138163854Y-101649371D01*
X138100000Y-101643082D01*
X138082557Y-101644800D01*
X135121797Y-101644800D01*
X135121797Y-100225000D01*
X135115422Y-100160270D01*
X135096540Y-100098027D01*
X135065879Y-100040663D01*
X135024616Y-99990384D01*
X134974337Y-99949121D01*
X134916973Y-99918460D01*
X134854730Y-99899578D01*
X134790000Y-99893203D01*
X134391750Y-99893203D01*
X134390585Y-99881373D01*
X134364441Y-99795191D01*
X134321987Y-99715764D01*
X134264853Y-99646147D01*
X134247403Y-99631826D01*
X134172777Y-99557200D01*
X136410623Y-99557200D01*
X136871742Y-100018320D01*
X136869800Y-100028082D01*
X136869800Y-100171918D01*
X136897861Y-100312991D01*
X136952905Y-100445879D01*
X137032817Y-100565475D01*
X137134525Y-100667183D01*
X137254121Y-100747095D01*
X137387009Y-100802139D01*
X137528082Y-100830200D01*
X137671918Y-100830200D01*
X137812991Y-100802139D01*
X137945879Y-100747095D01*
X138065475Y-100667183D01*
X138167183Y-100565475D01*
X138247095Y-100445879D01*
X138302139Y-100312991D01*
X138330200Y-100171918D01*
X138330200Y-100149319D01*
X138337009Y-100152139D01*
X138478082Y-100180200D01*
X138621918Y-100180200D01*
X138762991Y-100152139D01*
X138892801Y-100098370D01*
X138892800Y-101827288D01*
X138884525Y-101832817D01*
X138782817Y-101934525D01*
X138702905Y-102054121D01*
X138647861Y-102187009D01*
X138619800Y-102328082D01*
X138619800Y-102471918D01*
X138647861Y-102612991D01*
X138702905Y-102745879D01*
X138782817Y-102865475D01*
X138884525Y-102967183D01*
X139004121Y-103047095D01*
X139137009Y-103102139D01*
X139278082Y-103130200D01*
X139421918Y-103130200D01*
X139562991Y-103102139D01*
X139695879Y-103047095D01*
X139815475Y-102967183D01*
X139917183Y-102865475D01*
X139997095Y-102745879D01*
X140052139Y-102612991D01*
X140068272Y-102531887D01*
X140085934Y-102535400D01*
X140229770Y-102535400D01*
X140370843Y-102507339D01*
X140503731Y-102452295D01*
X140623327Y-102372383D01*
X140725035Y-102270675D01*
X140804947Y-102151079D01*
X140859991Y-102018191D01*
X140888052Y-101877118D01*
X140888052Y-101733282D01*
X140859991Y-101592209D01*
X140804947Y-101459321D01*
X140725035Y-101339725D01*
X140623327Y-101238017D01*
X140615052Y-101232488D01*
X140615052Y-99353012D01*
X140617263Y-99330562D01*
X140615052Y-99308112D01*
X140615052Y-99308102D01*
X140608437Y-99240935D01*
X140586707Y-99169302D01*
X140582293Y-99154752D01*
X140539839Y-99075326D01*
X140497023Y-99023154D01*
X140497017Y-99023148D01*
X140482705Y-99005709D01*
X140465266Y-98991397D01*
X139531068Y-98057200D01*
X151010623Y-98057200D01*
X154442801Y-101489379D01*
X154442800Y-101927287D01*
X154434525Y-101932817D01*
X154332817Y-102034525D01*
X154252905Y-102154121D01*
X154197861Y-102287009D01*
X154169800Y-102428082D01*
X154169800Y-102571918D01*
X154197861Y-102712991D01*
X154252905Y-102845879D01*
X154332817Y-102965475D01*
X154434525Y-103067183D01*
X154554121Y-103147095D01*
X154687009Y-103202139D01*
X154828082Y-103230200D01*
X154971918Y-103230200D01*
X155112991Y-103202139D01*
X155245879Y-103147095D01*
X155365475Y-103067183D01*
X155467183Y-102965475D01*
X155547095Y-102845879D01*
X155602139Y-102712991D01*
X155630200Y-102571918D01*
X155630200Y-102428082D01*
X155602139Y-102287009D01*
X155547095Y-102154121D01*
X155467183Y-102034525D01*
X155365475Y-101932817D01*
X155357200Y-101927288D01*
X155357200Y-101340081D01*
X155671742Y-101654622D01*
X155669800Y-101664384D01*
X155669800Y-101808220D01*
X155697861Y-101949293D01*
X155752905Y-102082181D01*
X155832817Y-102201777D01*
X155934525Y-102303485D01*
X156054121Y-102383397D01*
X156187009Y-102438441D01*
X156328082Y-102466502D01*
X156471918Y-102466502D01*
X156612991Y-102438441D01*
X156745879Y-102383397D01*
X156865475Y-102303485D01*
X156967183Y-102201777D01*
X157047095Y-102082181D01*
X157102139Y-101949293D01*
X157130200Y-101808220D01*
X157130200Y-101664384D01*
X157113413Y-101579991D01*
X157442801Y-101909379D01*
X157442800Y-103477550D01*
X157440589Y-103500000D01*
X157442800Y-103522450D01*
X157442800Y-103522459D01*
X157449415Y-103589626D01*
X157475559Y-103675808D01*
X157518013Y-103755235D01*
X157575147Y-103824853D01*
X157592597Y-103839174D01*
X159740835Y-105987414D01*
X159755147Y-106004853D01*
X159772586Y-106019165D01*
X159772592Y-106019171D01*
X159824764Y-106061987D01*
X159904190Y-106104441D01*
X159990370Y-106130584D01*
X159990373Y-106130585D01*
X160057540Y-106137200D01*
X160057548Y-106137200D01*
X160080000Y-106139411D01*
X160102452Y-106137200D01*
X165554282Y-106137200D01*
X165650419Y-106369296D01*
X165809672Y-106607636D01*
X166012364Y-106810328D01*
X166250704Y-106969581D01*
X166515534Y-107079277D01*
X166796675Y-107135200D01*
X167083325Y-107135200D01*
X167364466Y-107079277D01*
X167629296Y-106969581D01*
X167867636Y-106810328D01*
X168070328Y-106607636D01*
X168229581Y-106369296D01*
X168325718Y-106137200D01*
X184604282Y-106137200D01*
X184700419Y-106369296D01*
X184859672Y-106607636D01*
X185062364Y-106810328D01*
X185300704Y-106969581D01*
X185532800Y-107065718D01*
X185532801Y-118605161D01*
X185509590Y-118549126D01*
X185255246Y-118168473D01*
X184931527Y-117844754D01*
X184550874Y-117590410D01*
X184127915Y-117415214D01*
X183678904Y-117325900D01*
X183221096Y-117325900D01*
X182772085Y-117415214D01*
X182349126Y-117590410D01*
X181968473Y-117844754D01*
X181644754Y-118168473D01*
X181390410Y-118549126D01*
X181215214Y-118972085D01*
X181125900Y-119421096D01*
X181125900Y-119878904D01*
X181215214Y-120327915D01*
X181390410Y-120750874D01*
X181644754Y-121131527D01*
X181968473Y-121455246D01*
X182349126Y-121709590D01*
X182772085Y-121884786D01*
X183221096Y-121974100D01*
X183678904Y-121974100D01*
X184127915Y-121884786D01*
X184550874Y-121709590D01*
X184931527Y-121455246D01*
X185255246Y-121131527D01*
X185509590Y-120750874D01*
X185532801Y-120694838D01*
X185532801Y-123344281D01*
X185300704Y-123440419D01*
X185062364Y-123599672D01*
X184859672Y-123802364D01*
X184700419Y-124040704D01*
X184604282Y-124272800D01*
X168325718Y-124272800D01*
X168229581Y-124040704D01*
X168070328Y-123802364D01*
X167867636Y-123599672D01*
X167629296Y-123440419D01*
X167364466Y-123330723D01*
X167083325Y-123274800D01*
X166796675Y-123274800D01*
X166515534Y-123330723D01*
X166250704Y-123440419D01*
X166012364Y-123599672D01*
X165809672Y-123802364D01*
X165650419Y-124040704D01*
X165540723Y-124305534D01*
X165484800Y-124586675D01*
X165484800Y-124873325D01*
X165540723Y-125154466D01*
X165650419Y-125419296D01*
X165809672Y-125657636D01*
X166012364Y-125860328D01*
X166250704Y-126019581D01*
X166515534Y-126129277D01*
X166796675Y-126185200D01*
X167083325Y-126185200D01*
X167364466Y-126129277D01*
X167629296Y-126019581D01*
X167867636Y-125860328D01*
X168070328Y-125657636D01*
X168229581Y-125419296D01*
X168325718Y-125187200D01*
X184604282Y-125187200D01*
X184700419Y-125419296D01*
X184859672Y-125657636D01*
X185062364Y-125860328D01*
X185300704Y-126019581D01*
X185565534Y-126129277D01*
X185846675Y-126185200D01*
X186133325Y-126185200D01*
X186414466Y-126129277D01*
X186679296Y-126019581D01*
X186917636Y-125860328D01*
X187120328Y-125657636D01*
X187279581Y-125419296D01*
X187389277Y-125154466D01*
X187445200Y-124873325D01*
X187445200Y-124586675D01*
X187389277Y-124305534D01*
X187279581Y-124040704D01*
X187120328Y-123802364D01*
X186917636Y-123599672D01*
X186679296Y-123440419D01*
X186447200Y-123344282D01*
X186447200Y-119531298D01*
X187324800Y-119531298D01*
X187324800Y-119768702D01*
X187371116Y-120001544D01*
X187461966Y-120220876D01*
X187593860Y-120418270D01*
X187761730Y-120586140D01*
X187959124Y-120718034D01*
X188178456Y-120808884D01*
X188411298Y-120855200D01*
X188648702Y-120855200D01*
X188881544Y-120808884D01*
X189100876Y-120718034D01*
X189298270Y-120586140D01*
X189466140Y-120418270D01*
X189598034Y-120220876D01*
X189688884Y-120001544D01*
X189735200Y-119768702D01*
X189735200Y-119531298D01*
X189688884Y-119298456D01*
X189598034Y-119079124D01*
X189466140Y-118881730D01*
X189298270Y-118713860D01*
X189100876Y-118581966D01*
X188881544Y-118491116D01*
X188648702Y-118444800D01*
X188411298Y-118444800D01*
X188178456Y-118491116D01*
X187959124Y-118581966D01*
X187761730Y-118713860D01*
X187593860Y-118881730D01*
X187461966Y-119079124D01*
X187371116Y-119298456D01*
X187324800Y-119531298D01*
X186447200Y-119531298D01*
X186447200Y-107065718D01*
X186679296Y-106969581D01*
X186917636Y-106810328D01*
X187120328Y-106607636D01*
X187279581Y-106369296D01*
X187389277Y-106104466D01*
X187445200Y-105823325D01*
X187445200Y-105536675D01*
X187389277Y-105255534D01*
X187279581Y-104990704D01*
X187120328Y-104752364D01*
X186917636Y-104549672D01*
X186679296Y-104390419D01*
X186414466Y-104280723D01*
X186133325Y-104224800D01*
X185846675Y-104224800D01*
X185565534Y-104280723D01*
X185300704Y-104390419D01*
X185062364Y-104549672D01*
X184859672Y-104752364D01*
X184700419Y-104990704D01*
X184604282Y-105222800D01*
X168325718Y-105222800D01*
X168229581Y-104990704D01*
X168070328Y-104752364D01*
X167867636Y-104549672D01*
X167629296Y-104390419D01*
X167364466Y-104280723D01*
X167083325Y-104224800D01*
X166796675Y-104224800D01*
X166515534Y-104280723D01*
X166250704Y-104390419D01*
X166012364Y-104549672D01*
X165809672Y-104752364D01*
X165650419Y-104990704D01*
X165554282Y-105222800D01*
X160269379Y-105222800D01*
X158357200Y-103310623D01*
X158357200Y-102996675D01*
X159134800Y-102996675D01*
X159134800Y-103283325D01*
X159190723Y-103564466D01*
X159300419Y-103829296D01*
X159459672Y-104067636D01*
X159662364Y-104270328D01*
X159900704Y-104429581D01*
X160165534Y-104539277D01*
X160446675Y-104595200D01*
X160733325Y-104595200D01*
X161014466Y-104539277D01*
X161279296Y-104429581D01*
X161517636Y-104270328D01*
X161720328Y-104067636D01*
X161879581Y-103829296D01*
X161989277Y-103564466D01*
X162045200Y-103283325D01*
X162045200Y-102996675D01*
X178184800Y-102996675D01*
X178184800Y-103283325D01*
X178240723Y-103564466D01*
X178350419Y-103829296D01*
X178509672Y-104067636D01*
X178712364Y-104270328D01*
X178950704Y-104429581D01*
X179215534Y-104539277D01*
X179496675Y-104595200D01*
X179783325Y-104595200D01*
X180064466Y-104539277D01*
X180329296Y-104429581D01*
X180567636Y-104270328D01*
X180770328Y-104067636D01*
X180929581Y-103829296D01*
X181039277Y-103564466D01*
X181095200Y-103283325D01*
X181095200Y-102996675D01*
X181039277Y-102715534D01*
X180929581Y-102450704D01*
X180770328Y-102212364D01*
X180567636Y-102009672D01*
X180329296Y-101850419D01*
X180064466Y-101740723D01*
X179783325Y-101684800D01*
X179496675Y-101684800D01*
X179215534Y-101740723D01*
X178950704Y-101850419D01*
X178712364Y-102009672D01*
X178509672Y-102212364D01*
X178350419Y-102450704D01*
X178240723Y-102715534D01*
X178184800Y-102996675D01*
X162045200Y-102996675D01*
X161989277Y-102715534D01*
X161879581Y-102450704D01*
X161720328Y-102212364D01*
X161517636Y-102009672D01*
X161279296Y-101850419D01*
X161014466Y-101740723D01*
X160733325Y-101684800D01*
X160446675Y-101684800D01*
X160165534Y-101740723D01*
X159900704Y-101850419D01*
X159662364Y-102009672D01*
X159459672Y-102212364D01*
X159300419Y-102450704D01*
X159190723Y-102715534D01*
X159134800Y-102996675D01*
X158357200Y-102996675D01*
X158357200Y-101742449D01*
X158359411Y-101719999D01*
X158357200Y-101697549D01*
X158357200Y-101697540D01*
X158350585Y-101630373D01*
X158324441Y-101544191D01*
X158281987Y-101464764D01*
X158224853Y-101395147D01*
X158207408Y-101380830D01*
X157307876Y-100481298D01*
X158114800Y-100481298D01*
X158114800Y-100718702D01*
X158161116Y-100951544D01*
X158251966Y-101170876D01*
X158383860Y-101368270D01*
X158551730Y-101536140D01*
X158749124Y-101668034D01*
X158968456Y-101758884D01*
X159201298Y-101805200D01*
X159438702Y-101805200D01*
X159671544Y-101758884D01*
X159890876Y-101668034D01*
X160088270Y-101536140D01*
X160256140Y-101368270D01*
X160388034Y-101170876D01*
X160478884Y-100951544D01*
X160525200Y-100718702D01*
X160525200Y-100481298D01*
X160503280Y-100371096D01*
X162075900Y-100371096D01*
X162075900Y-100828904D01*
X162165214Y-101277915D01*
X162340410Y-101700874D01*
X162594754Y-102081527D01*
X162918473Y-102405246D01*
X163299126Y-102659590D01*
X163722085Y-102834786D01*
X164171096Y-102924100D01*
X164628904Y-102924100D01*
X165077915Y-102834786D01*
X165500874Y-102659590D01*
X165881527Y-102405246D01*
X166205246Y-102081527D01*
X166459590Y-101700874D01*
X166634786Y-101277915D01*
X166724100Y-100828904D01*
X166724100Y-100481298D01*
X168274800Y-100481298D01*
X168274800Y-100718702D01*
X168321116Y-100951544D01*
X168411966Y-101170876D01*
X168543860Y-101368270D01*
X168711730Y-101536140D01*
X168909124Y-101668034D01*
X169128456Y-101758884D01*
X169361298Y-101805200D01*
X169598702Y-101805200D01*
X169831544Y-101758884D01*
X170050876Y-101668034D01*
X170248270Y-101536140D01*
X170416140Y-101368270D01*
X170548034Y-101170876D01*
X170638884Y-100951544D01*
X170685200Y-100718702D01*
X170685200Y-100481298D01*
X177164800Y-100481298D01*
X177164800Y-100718702D01*
X177211116Y-100951544D01*
X177301966Y-101170876D01*
X177433860Y-101368270D01*
X177601730Y-101536140D01*
X177799124Y-101668034D01*
X178018456Y-101758884D01*
X178251298Y-101805200D01*
X178488702Y-101805200D01*
X178721544Y-101758884D01*
X178940876Y-101668034D01*
X179138270Y-101536140D01*
X179306140Y-101368270D01*
X179438034Y-101170876D01*
X179528884Y-100951544D01*
X179575200Y-100718702D01*
X179575200Y-100481298D01*
X179553280Y-100371096D01*
X181125900Y-100371096D01*
X181125900Y-100828904D01*
X181215214Y-101277915D01*
X181390410Y-101700874D01*
X181644754Y-102081527D01*
X181968473Y-102405246D01*
X182349126Y-102659590D01*
X182772085Y-102834786D01*
X183221096Y-102924100D01*
X183678904Y-102924100D01*
X184127915Y-102834786D01*
X184550874Y-102659590D01*
X184931527Y-102405246D01*
X185255246Y-102081527D01*
X185509590Y-101700874D01*
X185684786Y-101277915D01*
X185774100Y-100828904D01*
X185774100Y-100481298D01*
X187324800Y-100481298D01*
X187324800Y-100718702D01*
X187371116Y-100951544D01*
X187461966Y-101170876D01*
X187593860Y-101368270D01*
X187761730Y-101536140D01*
X187959124Y-101668034D01*
X188178456Y-101758884D01*
X188411298Y-101805200D01*
X188648702Y-101805200D01*
X188881544Y-101758884D01*
X189100876Y-101668034D01*
X189298270Y-101536140D01*
X189466140Y-101368270D01*
X189598034Y-101170876D01*
X189688884Y-100951544D01*
X189735200Y-100718702D01*
X189735200Y-100481298D01*
X189688884Y-100248456D01*
X189598034Y-100029124D01*
X189466140Y-99831730D01*
X189298270Y-99663860D01*
X189100876Y-99531966D01*
X188881544Y-99441116D01*
X188648702Y-99394800D01*
X188411298Y-99394800D01*
X188178456Y-99441116D01*
X187959124Y-99531966D01*
X187761730Y-99663860D01*
X187593860Y-99831730D01*
X187461966Y-100029124D01*
X187371116Y-100248456D01*
X187324800Y-100481298D01*
X185774100Y-100481298D01*
X185774100Y-100371096D01*
X185684786Y-99922085D01*
X185509590Y-99499126D01*
X185255246Y-99118473D01*
X184931527Y-98794754D01*
X184550874Y-98540410D01*
X184127915Y-98365214D01*
X183678904Y-98275900D01*
X183221096Y-98275900D01*
X182772085Y-98365214D01*
X182349126Y-98540410D01*
X181968473Y-98794754D01*
X181644754Y-99118473D01*
X181390410Y-99499126D01*
X181215214Y-99922085D01*
X181125900Y-100371096D01*
X179553280Y-100371096D01*
X179528884Y-100248456D01*
X179438034Y-100029124D01*
X179306140Y-99831730D01*
X179138270Y-99663860D01*
X178940876Y-99531966D01*
X178721544Y-99441116D01*
X178488702Y-99394800D01*
X178251298Y-99394800D01*
X178018456Y-99441116D01*
X177799124Y-99531966D01*
X177601730Y-99663860D01*
X177433860Y-99831730D01*
X177301966Y-100029124D01*
X177211116Y-100248456D01*
X177164800Y-100481298D01*
X170685200Y-100481298D01*
X170638884Y-100248456D01*
X170548034Y-100029124D01*
X170416140Y-99831730D01*
X170248270Y-99663860D01*
X170050876Y-99531966D01*
X169831544Y-99441116D01*
X169598702Y-99394800D01*
X169361298Y-99394800D01*
X169128456Y-99441116D01*
X168909124Y-99531966D01*
X168711730Y-99663860D01*
X168543860Y-99831730D01*
X168411966Y-100029124D01*
X168321116Y-100248456D01*
X168274800Y-100481298D01*
X166724100Y-100481298D01*
X166724100Y-100371096D01*
X166634786Y-99922085D01*
X166459590Y-99499126D01*
X166205246Y-99118473D01*
X165881527Y-98794754D01*
X165500874Y-98540410D01*
X165077915Y-98365214D01*
X164628904Y-98275900D01*
X164171096Y-98275900D01*
X163722085Y-98365214D01*
X163299126Y-98540410D01*
X162918473Y-98794754D01*
X162594754Y-99118473D01*
X162340410Y-99499126D01*
X162165214Y-99922085D01*
X162075900Y-100371096D01*
X160503280Y-100371096D01*
X160478884Y-100248456D01*
X160388034Y-100029124D01*
X160256140Y-99831730D01*
X160088270Y-99663860D01*
X159890876Y-99531966D01*
X159671544Y-99441116D01*
X159438702Y-99394800D01*
X159201298Y-99394800D01*
X158968456Y-99441116D01*
X158749124Y-99531966D01*
X158551730Y-99663860D01*
X158383860Y-99831730D01*
X158251966Y-100029124D01*
X158161116Y-100248456D01*
X158114800Y-100481298D01*
X157307876Y-100481298D01*
X154118258Y-97291681D01*
X154120200Y-97281918D01*
X154120200Y-97138082D01*
X154092139Y-96997009D01*
X154037095Y-96864121D01*
X153957183Y-96744525D01*
X153855475Y-96642817D01*
X153735879Y-96562905D01*
X153602991Y-96507861D01*
X153461918Y-96479800D01*
X153318082Y-96479800D01*
X153177009Y-96507861D01*
X153044121Y-96562905D01*
X152924525Y-96642817D01*
X152822817Y-96744525D01*
X152742905Y-96864121D01*
X152687861Y-96997009D01*
X152659800Y-97138082D01*
X152659800Y-97281918D01*
X152676587Y-97366311D01*
X151816822Y-96506547D01*
X151802501Y-96489097D01*
X151732884Y-96431963D01*
X151653457Y-96389509D01*
X151567275Y-96363365D01*
X151500108Y-96356750D01*
X151500098Y-96356750D01*
X151484360Y-96355200D01*
X154879060Y-96355200D01*
X154892991Y-96356849D01*
X154913940Y-96355200D01*
X154917443Y-96355200D01*
X154931384Y-96353827D01*
X154945269Y-96352734D01*
X154948698Y-96352122D01*
X154969631Y-96350060D01*
X154983066Y-96345985D01*
X156547745Y-96066578D01*
X156497861Y-96187009D01*
X156469800Y-96328082D01*
X156469800Y-96471918D01*
X156497861Y-96612991D01*
X156552905Y-96745879D01*
X156632817Y-96865475D01*
X156734525Y-96967183D01*
X156854121Y-97047095D01*
X156987009Y-97102139D01*
X157128082Y-97130200D01*
X157271918Y-97130200D01*
X157412991Y-97102139D01*
X157545879Y-97047095D01*
X157665475Y-96967183D01*
X157725458Y-96907200D01*
X163429582Y-96907200D01*
X164263404Y-97741023D01*
X164279290Y-97760380D01*
X164356521Y-97823762D01*
X164398893Y-97846410D01*
X164444633Y-97870859D01*
X164540241Y-97899861D01*
X164639670Y-97909654D01*
X164664585Y-97907200D01*
X173489912Y-97907200D01*
X173769800Y-98187089D01*
X173769800Y-98271918D01*
X173797861Y-98412991D01*
X173852905Y-98545879D01*
X173932817Y-98665475D01*
X174034525Y-98767183D01*
X174154121Y-98847095D01*
X174287009Y-98902139D01*
X174428082Y-98930200D01*
X174571918Y-98930200D01*
X174712991Y-98902139D01*
X174845879Y-98847095D01*
X174965475Y-98767183D01*
X175067183Y-98665475D01*
X175147095Y-98545879D01*
X175202139Y-98412991D01*
X175230200Y-98271918D01*
X175230200Y-98128082D01*
X175202139Y-97987009D01*
X175147095Y-97854121D01*
X175067183Y-97734525D01*
X174965475Y-97632817D01*
X174845879Y-97552905D01*
X174712991Y-97497861D01*
X174571918Y-97469800D01*
X174487089Y-97469800D01*
X174076270Y-97058982D01*
X174060380Y-97039620D01*
X173983149Y-96976238D01*
X173895036Y-96929141D01*
X173799429Y-96900139D01*
X173724916Y-96892800D01*
X173724915Y-96892800D01*
X173700000Y-96890346D01*
X173675085Y-96892800D01*
X164849759Y-96892800D01*
X164015940Y-96058982D01*
X164000050Y-96039620D01*
X163922819Y-95976238D01*
X163834706Y-95929141D01*
X163739099Y-95900139D01*
X163664586Y-95892800D01*
X163664585Y-95892800D01*
X163639670Y-95890346D01*
X163614755Y-95892800D01*
X157725458Y-95892800D01*
X157694465Y-95861807D01*
X160531469Y-95355200D01*
X168424405Y-95355200D01*
X168401439Y-95378166D01*
X168436550Y-95591588D01*
X168640826Y-95682458D01*
X168858905Y-95731731D01*
X169082406Y-95737511D01*
X169302740Y-95699577D01*
X169511440Y-95619387D01*
X169563450Y-95591588D01*
X169597994Y-95381614D01*
X169600000Y-95379608D01*
X169602006Y-95381614D01*
X169636550Y-95591588D01*
X169840826Y-95682458D01*
X170058905Y-95731731D01*
X170282406Y-95737511D01*
X170502740Y-95699577D01*
X170711440Y-95619387D01*
X170763450Y-95591588D01*
X170797994Y-95381614D01*
X170800000Y-95379608D01*
X170802006Y-95381614D01*
X170836550Y-95591588D01*
X171040826Y-95682458D01*
X171258905Y-95731731D01*
X171482406Y-95737511D01*
X171702740Y-95699577D01*
X171911440Y-95619387D01*
X171963450Y-95591588D01*
X171997994Y-95381614D01*
X172000000Y-95379608D01*
X172002006Y-95381614D01*
X172036550Y-95591588D01*
X172240826Y-95682458D01*
X172458905Y-95731731D01*
X172682406Y-95737511D01*
X172902740Y-95699577D01*
X173111440Y-95619387D01*
X173163450Y-95591588D01*
X173198561Y-95378166D01*
X172600000Y-94779605D01*
X172585858Y-94793748D01*
X172531768Y-94739658D01*
X172535379Y-94600000D01*
X172779605Y-94600000D01*
X172996723Y-94817118D01*
X173001704Y-94842160D01*
X173064286Y-94993247D01*
X173155142Y-95129222D01*
X173270778Y-95244858D01*
X173406753Y-95335714D01*
X173557840Y-95398296D01*
X173718232Y-95430200D01*
X173881768Y-95430200D01*
X174042160Y-95398296D01*
X174193247Y-95335714D01*
X174329222Y-95244858D01*
X174400000Y-95174080D01*
X174470778Y-95244858D01*
X174606753Y-95335714D01*
X174757840Y-95398296D01*
X174918232Y-95430200D01*
X175081768Y-95430200D01*
X175242160Y-95398296D01*
X175393247Y-95335714D01*
X175529222Y-95244858D01*
X175644858Y-95129222D01*
X175735714Y-94993247D01*
X175798296Y-94842160D01*
X175803277Y-94817118D01*
X176020395Y-94600000D01*
X175803277Y-94382882D01*
X175798296Y-94357840D01*
X175735714Y-94206753D01*
X175644858Y-94070778D01*
X175529222Y-93955142D01*
X175393247Y-93864286D01*
X175290759Y-93821834D01*
X175601439Y-93821834D01*
X176200000Y-94420395D01*
X176214143Y-94406253D01*
X176268232Y-94460342D01*
X176262489Y-94682406D01*
X176271742Y-94736148D01*
X176214143Y-94793748D01*
X176200000Y-94779605D01*
X175601439Y-95378166D01*
X175636550Y-95591588D01*
X175840826Y-95682458D01*
X176058905Y-95731731D01*
X176282406Y-95737511D01*
X176502740Y-95699577D01*
X176711440Y-95619387D01*
X176763450Y-95591588D01*
X176797994Y-95381614D01*
X176800000Y-95379608D01*
X176802006Y-95381614D01*
X176836550Y-95591588D01*
X177040826Y-95682458D01*
X177258905Y-95731731D01*
X177482406Y-95737511D01*
X177702740Y-95699577D01*
X177911440Y-95619387D01*
X177963450Y-95591588D01*
X177998561Y-95378166D01*
X177400000Y-94779605D01*
X177385858Y-94793748D01*
X177331768Y-94739658D01*
X177335379Y-94600000D01*
X177579605Y-94600000D01*
X177796723Y-94817118D01*
X177801704Y-94842160D01*
X177864286Y-94993247D01*
X177955142Y-95129222D01*
X178070778Y-95244858D01*
X178206753Y-95335714D01*
X178357840Y-95398296D01*
X178518232Y-95430200D01*
X178681768Y-95430200D01*
X178842160Y-95398296D01*
X178993247Y-95335714D01*
X179129222Y-95244858D01*
X179200000Y-95174080D01*
X179270778Y-95244858D01*
X179406753Y-95335714D01*
X179557840Y-95398296D01*
X179718232Y-95430200D01*
X179881768Y-95430200D01*
X180042160Y-95398296D01*
X180193247Y-95335714D01*
X180329222Y-95244858D01*
X180444858Y-95129222D01*
X180535714Y-94993247D01*
X180598296Y-94842160D01*
X180603277Y-94817118D01*
X180820395Y-94600000D01*
X180603277Y-94382882D01*
X180598296Y-94357840D01*
X180535714Y-94206753D01*
X180444858Y-94070778D01*
X180329222Y-93955142D01*
X180193247Y-93864286D01*
X180042160Y-93801704D01*
X179881768Y-93769800D01*
X179718232Y-93769800D01*
X179557840Y-93801704D01*
X179406753Y-93864286D01*
X179270778Y-93955142D01*
X179200000Y-94025920D01*
X179129222Y-93955142D01*
X178993247Y-93864286D01*
X178842160Y-93801704D01*
X178681768Y-93769800D01*
X178518232Y-93769800D01*
X178357840Y-93801704D01*
X178206753Y-93864286D01*
X178070778Y-93955142D01*
X177955142Y-94070778D01*
X177864286Y-94206753D01*
X177801704Y-94357840D01*
X177796723Y-94382882D01*
X177579605Y-94600000D01*
X177335379Y-94600000D01*
X177337511Y-94517594D01*
X177328258Y-94463852D01*
X177385858Y-94406253D01*
X177400000Y-94420395D01*
X177998561Y-93821834D01*
X177963450Y-93608412D01*
X177759174Y-93517542D01*
X177541095Y-93468269D01*
X177317594Y-93462489D01*
X177097260Y-93500423D01*
X176888560Y-93580613D01*
X176836550Y-93608412D01*
X176802006Y-93818386D01*
X176800000Y-93820392D01*
X176797994Y-93818386D01*
X176763450Y-93608412D01*
X176559174Y-93517542D01*
X176341095Y-93468269D01*
X176117594Y-93462489D01*
X175897260Y-93500423D01*
X175688560Y-93580613D01*
X175636550Y-93608412D01*
X175601439Y-93821834D01*
X175290759Y-93821834D01*
X175242160Y-93801704D01*
X175081768Y-93769800D01*
X174918232Y-93769800D01*
X174757840Y-93801704D01*
X174606753Y-93864286D01*
X174470778Y-93955142D01*
X174400000Y-94025920D01*
X174329222Y-93955142D01*
X174193247Y-93864286D01*
X174042160Y-93801704D01*
X173881768Y-93769800D01*
X173718232Y-93769800D01*
X173557840Y-93801704D01*
X173406753Y-93864286D01*
X173270778Y-93955142D01*
X173155142Y-94070778D01*
X173064286Y-94206753D01*
X173001704Y-94357840D01*
X172996723Y-94382882D01*
X172779605Y-94600000D01*
X172535379Y-94600000D01*
X172537511Y-94517594D01*
X172528258Y-94463852D01*
X172585858Y-94406253D01*
X172600000Y-94420395D01*
X173198561Y-93821834D01*
X173163450Y-93608412D01*
X172959174Y-93517542D01*
X172741095Y-93468269D01*
X172517594Y-93462489D01*
X172297260Y-93500423D01*
X172088560Y-93580613D01*
X172036550Y-93608412D01*
X172002006Y-93818386D01*
X172000000Y-93820392D01*
X171997994Y-93818386D01*
X171963450Y-93608412D01*
X171759174Y-93517542D01*
X171541095Y-93468269D01*
X171317594Y-93462489D01*
X171097260Y-93500423D01*
X170888560Y-93580613D01*
X170836550Y-93608412D01*
X170802006Y-93818386D01*
X170800000Y-93820392D01*
X170797994Y-93818386D01*
X170763450Y-93608412D01*
X170559174Y-93517542D01*
X170341095Y-93468269D01*
X170117594Y-93462489D01*
X169897260Y-93500423D01*
X169688560Y-93580613D01*
X169636550Y-93608412D01*
X169602006Y-93818386D01*
X169600000Y-93820392D01*
X169597994Y-93818386D01*
X169563450Y-93608412D01*
X169359174Y-93517542D01*
X169141095Y-93468269D01*
X168917594Y-93462489D01*
X168855200Y-93473231D01*
X168855200Y-88428082D01*
X171769800Y-88428082D01*
X171769800Y-88571918D01*
X171797861Y-88712991D01*
X171852905Y-88845879D01*
X171932817Y-88965475D01*
X172034525Y-89067183D01*
X172154121Y-89147095D01*
X172287009Y-89202139D01*
X172428082Y-89230200D01*
X172571918Y-89230200D01*
X172579761Y-89228640D01*
X172592592Y-89239170D01*
X172644763Y-89281987D01*
X172687217Y-89304678D01*
X172724191Y-89324441D01*
X172810373Y-89350585D01*
X172877540Y-89357200D01*
X172877549Y-89357200D01*
X172899999Y-89359411D01*
X172922449Y-89357200D01*
X174183899Y-89357200D01*
X174169800Y-89428082D01*
X174169800Y-89571918D01*
X174197861Y-89712991D01*
X174252905Y-89845879D01*
X174332817Y-89965475D01*
X174434525Y-90067183D01*
X174554121Y-90147095D01*
X174687009Y-90202139D01*
X174828082Y-90230200D01*
X174971918Y-90230200D01*
X175112991Y-90202139D01*
X175245879Y-90147095D01*
X175365475Y-90067183D01*
X175467183Y-89965475D01*
X175547095Y-89845879D01*
X175602139Y-89712991D01*
X175630200Y-89571918D01*
X175630200Y-89428082D01*
X175616101Y-89357200D01*
X177177550Y-89357200D01*
X177200000Y-89359411D01*
X177222450Y-89357200D01*
X177222460Y-89357200D01*
X177289627Y-89350585D01*
X177375809Y-89324441D01*
X177455236Y-89281987D01*
X177461446Y-89276891D01*
X177478082Y-89280200D01*
X177621918Y-89280200D01*
X177762991Y-89252139D01*
X177895879Y-89197095D01*
X178015475Y-89117183D01*
X178117183Y-89015475D01*
X178197095Y-88895879D01*
X178252139Y-88762991D01*
X178280200Y-88621918D01*
X178280200Y-88478082D01*
X178252139Y-88337009D01*
X178197095Y-88204121D01*
X178117183Y-88084525D01*
X178015475Y-87982817D01*
X177895879Y-87902905D01*
X177762991Y-87847861D01*
X177621918Y-87819800D01*
X177478082Y-87819800D01*
X177337009Y-87847861D01*
X177204121Y-87902905D01*
X177084525Y-87982817D01*
X176982817Y-88084525D01*
X176902905Y-88204121D01*
X176847861Y-88337009D01*
X176826818Y-88442800D01*
X174822460Y-88442800D01*
X174800000Y-88440588D01*
X174777540Y-88442800D01*
X173230200Y-88442800D01*
X173230200Y-88428082D01*
X173202139Y-88287009D01*
X173147095Y-88154121D01*
X173067183Y-88034525D01*
X172965475Y-87932817D01*
X172845879Y-87852905D01*
X172712991Y-87797861D01*
X172571918Y-87769800D01*
X172428082Y-87769800D01*
X172287009Y-87797861D01*
X172154121Y-87852905D01*
X172034525Y-87932817D01*
X171932817Y-88034525D01*
X171852905Y-88154121D01*
X171797861Y-88287009D01*
X171769800Y-88428082D01*
X168855200Y-88428082D01*
X168855200Y-86407000D01*
X169525000Y-86407000D01*
X169525000Y-86957000D01*
X169571585Y-87175987D01*
X169659997Y-87381678D01*
X169786839Y-87566169D01*
X169947236Y-87722369D01*
X170135024Y-87844276D01*
X170358126Y-87924119D01*
X170533000Y-87797954D01*
X170533000Y-86407000D01*
X169525000Y-86407000D01*
X168855200Y-86407000D01*
X168855200Y-85603000D01*
X169525000Y-85603000D01*
X169525000Y-86153000D01*
X170533000Y-86153000D01*
X170533000Y-84762046D01*
X170787000Y-84762046D01*
X170787000Y-86153000D01*
X170807000Y-86153000D01*
X170807000Y-86407000D01*
X170787000Y-86407000D01*
X170787000Y-87797954D01*
X170961874Y-87924119D01*
X171184976Y-87844276D01*
X171372764Y-87722369D01*
X171533161Y-87566169D01*
X171660003Y-87381678D01*
X171748415Y-87175987D01*
X171795000Y-86957000D01*
X171795000Y-86336990D01*
X171898885Y-86380021D01*
X172025468Y-86405200D01*
X172154532Y-86405200D01*
X172281115Y-86380021D01*
X172400353Y-86330631D01*
X172507666Y-86258927D01*
X172598927Y-86167666D01*
X172670631Y-86060353D01*
X172720021Y-85941115D01*
X172745200Y-85814532D01*
X172745200Y-85685468D01*
X177214800Y-85685468D01*
X177214800Y-85814532D01*
X177239979Y-85941115D01*
X177289369Y-86060353D01*
X177361073Y-86167666D01*
X177452334Y-86258927D01*
X177559647Y-86330631D01*
X177678885Y-86380021D01*
X177805468Y-86405200D01*
X177934532Y-86405200D01*
X178061115Y-86380021D01*
X178165000Y-86336990D01*
X178165000Y-86957000D01*
X178211585Y-87175987D01*
X178299997Y-87381678D01*
X178426839Y-87566169D01*
X178587236Y-87722369D01*
X178775024Y-87844276D01*
X178998126Y-87924119D01*
X179173000Y-87797954D01*
X179173000Y-86407000D01*
X179427000Y-86407000D01*
X179427000Y-87797954D01*
X179601874Y-87924119D01*
X179824976Y-87844276D01*
X180012764Y-87722369D01*
X180173161Y-87566169D01*
X180300003Y-87381678D01*
X180388415Y-87175987D01*
X180435000Y-86957000D01*
X180435000Y-86407000D01*
X179427000Y-86407000D01*
X179173000Y-86407000D01*
X179153000Y-86407000D01*
X179153000Y-86153000D01*
X179173000Y-86153000D01*
X179173000Y-84762046D01*
X179427000Y-84762046D01*
X179427000Y-86153000D01*
X180435000Y-86153000D01*
X180435000Y-85603000D01*
X180388415Y-85384013D01*
X180300003Y-85178322D01*
X180173161Y-84993831D01*
X180012764Y-84837631D01*
X179824976Y-84715724D01*
X179601874Y-84635881D01*
X179427000Y-84762046D01*
X179173000Y-84762046D01*
X178998126Y-84635881D01*
X178775024Y-84715724D01*
X178587236Y-84837631D01*
X178426839Y-84993831D01*
X178299997Y-85178322D01*
X178276292Y-85233473D01*
X178180353Y-85169369D01*
X178061115Y-85119979D01*
X177934532Y-85094800D01*
X177805468Y-85094800D01*
X177678885Y-85119979D01*
X177559647Y-85169369D01*
X177452334Y-85241073D01*
X177361073Y-85332334D01*
X177289369Y-85439647D01*
X177239979Y-85558885D01*
X177214800Y-85685468D01*
X172745200Y-85685468D01*
X172720021Y-85558885D01*
X172670631Y-85439647D01*
X172598927Y-85332334D01*
X172507666Y-85241073D01*
X172400353Y-85169369D01*
X172281115Y-85119979D01*
X172154532Y-85094800D01*
X172025468Y-85094800D01*
X171898885Y-85119979D01*
X171779647Y-85169369D01*
X171683708Y-85233473D01*
X171660003Y-85178322D01*
X171533161Y-84993831D01*
X171372764Y-84837631D01*
X171184976Y-84715724D01*
X170961874Y-84635881D01*
X170787000Y-84762046D01*
X170533000Y-84762046D01*
X170358126Y-84635881D01*
X170135024Y-84715724D01*
X169947236Y-84837631D01*
X169786839Y-84993831D01*
X169659997Y-85178322D01*
X169571585Y-85384013D01*
X169525000Y-85603000D01*
X168855200Y-85603000D01*
X168855200Y-82227000D01*
X169525000Y-82227000D01*
X169525000Y-82527000D01*
X169571585Y-82745987D01*
X169659997Y-82951678D01*
X169786839Y-83136169D01*
X169947236Y-83292369D01*
X170135024Y-83414276D01*
X170358126Y-83494119D01*
X170533000Y-83367954D01*
X170533000Y-82227000D01*
X170787000Y-82227000D01*
X170787000Y-83367954D01*
X170961874Y-83494119D01*
X171184976Y-83414276D01*
X171372764Y-83292369D01*
X171533161Y-83136169D01*
X171660003Y-82951678D01*
X171748415Y-82745987D01*
X171795000Y-82527000D01*
X171795000Y-82227000D01*
X178165000Y-82227000D01*
X178165000Y-82527000D01*
X178211585Y-82745987D01*
X178299997Y-82951678D01*
X178426839Y-83136169D01*
X178587236Y-83292369D01*
X178775024Y-83414276D01*
X178998126Y-83494119D01*
X179173000Y-83367954D01*
X179173000Y-82227000D01*
X179427000Y-82227000D01*
X179427000Y-83367954D01*
X179601874Y-83494119D01*
X179824976Y-83414276D01*
X180012764Y-83292369D01*
X180173161Y-83136169D01*
X180300003Y-82951678D01*
X180388415Y-82745987D01*
X180435000Y-82527000D01*
X180435000Y-82227000D01*
X179427000Y-82227000D01*
X179173000Y-82227000D01*
X178165000Y-82227000D01*
X171795000Y-82227000D01*
X170787000Y-82227000D01*
X170533000Y-82227000D01*
X169525000Y-82227000D01*
X168855200Y-82227000D01*
X168855200Y-81355200D01*
X169614058Y-81355200D01*
X169571585Y-81454013D01*
G37*
X169571585Y-81454013D02*
X169525000Y-81673000D01*
X169525000Y-81973000D01*
X170533000Y-81973000D01*
X170533000Y-81953000D01*
X170787000Y-81953000D01*
X170787000Y-81973000D01*
X171795000Y-81973000D01*
X171795000Y-81673000D01*
X171748415Y-81454013D01*
X171705942Y-81355200D01*
X178254058Y-81355200D01*
X178211585Y-81454013D01*
X178165000Y-81673000D01*
X178165000Y-81973000D01*
X179173000Y-81973000D01*
X179173000Y-81953000D01*
X179427000Y-81953000D01*
X179427000Y-81973000D01*
X180435000Y-81973000D01*
X180435000Y-81673000D01*
X180388415Y-81454013D01*
X180345942Y-81355200D01*
X181144800Y-81355200D01*
X181144801Y-93469106D01*
X181141095Y-93468269D01*
X180917594Y-93462489D01*
X180697260Y-93500423D01*
X180488560Y-93580613D01*
X180436550Y-93608412D01*
X180401439Y-93821834D01*
X181000000Y-94420395D01*
X181014143Y-94406253D01*
X181144801Y-94536911D01*
X181144801Y-94924406D01*
X181000000Y-94779605D01*
X180401439Y-95378166D01*
X180436550Y-95591588D01*
X180640826Y-95682458D01*
X180858905Y-95731731D01*
X181082406Y-95737511D01*
X181302740Y-95699577D01*
X181511440Y-95619387D01*
X181563450Y-95591588D01*
X181598561Y-95378166D01*
X181575595Y-95355200D01*
X190144800Y-95355200D01*
X190144801Y-126544800D01*
X72655200Y-126544800D01*
X72655200Y-122046675D01*
X74084800Y-122046675D01*
X74084800Y-122333325D01*
X74140723Y-122614466D01*
X74250419Y-122879296D01*
X74409672Y-123117636D01*
X74612364Y-123320328D01*
X74850704Y-123479581D01*
X75115534Y-123589277D01*
X75396675Y-123645200D01*
X75683325Y-123645200D01*
X75964466Y-123589277D01*
X76229296Y-123479581D01*
X76467636Y-123320328D01*
X76670328Y-123117636D01*
X76829581Y-122879296D01*
X76939277Y-122614466D01*
X76995200Y-122333325D01*
X76995200Y-122046675D01*
X76939277Y-121765534D01*
X76829581Y-121500704D01*
X76670328Y-121262364D01*
X76467636Y-121059672D01*
X76229296Y-120900419D01*
X75964466Y-120790723D01*
X75683325Y-120734800D01*
X75396675Y-120734800D01*
X75115534Y-120790723D01*
X74850704Y-120900419D01*
X74612364Y-121059672D01*
X74409672Y-121262364D01*
X74250419Y-121500704D01*
X74140723Y-121765534D01*
X74084800Y-122046675D01*
X72655200Y-122046675D01*
X72655200Y-119531298D01*
X73064800Y-119531298D01*
X73064800Y-119768702D01*
X73111116Y-120001544D01*
X73201966Y-120220876D01*
X73333860Y-120418270D01*
X73501730Y-120586140D01*
X73699124Y-120718034D01*
X73918456Y-120808884D01*
X74151298Y-120855200D01*
X74388702Y-120855200D01*
X74621544Y-120808884D01*
X74840876Y-120718034D01*
X75038270Y-120586140D01*
X75206140Y-120418270D01*
X75338034Y-120220876D01*
X75428884Y-120001544D01*
X75475200Y-119768702D01*
X75475200Y-119531298D01*
X75453280Y-119421096D01*
X77025900Y-119421096D01*
X77025900Y-119878904D01*
X77115214Y-120327915D01*
X77290410Y-120750874D01*
X77544754Y-121131527D01*
X77868473Y-121455246D01*
X78249126Y-121709590D01*
X78672085Y-121884786D01*
X79121096Y-121974100D01*
X79578904Y-121974100D01*
X80027915Y-121884786D01*
X80450874Y-121709590D01*
X80831527Y-121455246D01*
X81155246Y-121131527D01*
X81409590Y-120750874D01*
X81432801Y-120694838D01*
X81432801Y-123344281D01*
X81200704Y-123440419D01*
X80962364Y-123599672D01*
X80759672Y-123802364D01*
X80600419Y-124040704D01*
X80490723Y-124305534D01*
X80434800Y-124586675D01*
X80434800Y-124873325D01*
X80490723Y-125154466D01*
X80600419Y-125419296D01*
X80759672Y-125657636D01*
X80962364Y-125860328D01*
X81200704Y-126019581D01*
X81465534Y-126129277D01*
X81746675Y-126185200D01*
X82033325Y-126185200D01*
X82314466Y-126129277D01*
X82579296Y-126019581D01*
X82817636Y-125860328D01*
X83020328Y-125657636D01*
X83179581Y-125419296D01*
X83275718Y-125187200D01*
X99554282Y-125187200D01*
X99650419Y-125419296D01*
X99809672Y-125657636D01*
X100012364Y-125860328D01*
X100250704Y-126019581D01*
X100515534Y-126129277D01*
X100796675Y-126185200D01*
X101083325Y-126185200D01*
X101364466Y-126129277D01*
X101629296Y-126019581D01*
X101867636Y-125860328D01*
X102070328Y-125657636D01*
X102229581Y-125419296D01*
X102339277Y-125154466D01*
X102395200Y-124873325D01*
X102395200Y-124586675D01*
X102339277Y-124305534D01*
X102229581Y-124040704D01*
X102070328Y-123802364D01*
X101867636Y-123599672D01*
X101629296Y-123440419D01*
X101364466Y-123330723D01*
X101083325Y-123274800D01*
X100796675Y-123274800D01*
X100515534Y-123330723D01*
X100250704Y-123440419D01*
X100012364Y-123599672D01*
X99809672Y-123802364D01*
X99650419Y-124040704D01*
X99554282Y-124272800D01*
X83275718Y-124272800D01*
X83179581Y-124040704D01*
X83020328Y-123802364D01*
X82817636Y-123599672D01*
X82579296Y-123440419D01*
X82347200Y-123344282D01*
X82347200Y-122046675D01*
X93134800Y-122046675D01*
X93134800Y-122333325D01*
X93190723Y-122614466D01*
X93300419Y-122879296D01*
X93459672Y-123117636D01*
X93662364Y-123320328D01*
X93900704Y-123479581D01*
X94165534Y-123589277D01*
X94446675Y-123645200D01*
X94733325Y-123645200D01*
X95014466Y-123589277D01*
X95279296Y-123479581D01*
X95517636Y-123320328D01*
X95720328Y-123117636D01*
X95879581Y-122879296D01*
X95989277Y-122614466D01*
X96045200Y-122333325D01*
X96045200Y-122046675D01*
X159134800Y-122046675D01*
X159134800Y-122333325D01*
X159190723Y-122614466D01*
X159300419Y-122879296D01*
X159459672Y-123117636D01*
X159662364Y-123320328D01*
X159900704Y-123479581D01*
X160165534Y-123589277D01*
X160446675Y-123645200D01*
X160733325Y-123645200D01*
X161014466Y-123589277D01*
X161279296Y-123479581D01*
X161517636Y-123320328D01*
X161720328Y-123117636D01*
X161879581Y-122879296D01*
X161989277Y-122614466D01*
X162045200Y-122333325D01*
X162045200Y-122046675D01*
X178184800Y-122046675D01*
X178184800Y-122333325D01*
X178240723Y-122614466D01*
X178350419Y-122879296D01*
X178509672Y-123117636D01*
X178712364Y-123320328D01*
X178950704Y-123479581D01*
X179215534Y-123589277D01*
X179496675Y-123645200D01*
X179783325Y-123645200D01*
X180064466Y-123589277D01*
X180329296Y-123479581D01*
X180567636Y-123320328D01*
X180770328Y-123117636D01*
X180929581Y-122879296D01*
X181039277Y-122614466D01*
X181095200Y-122333325D01*
X181095200Y-122046675D01*
X181039277Y-121765534D01*
X180929581Y-121500704D01*
X180770328Y-121262364D01*
X180567636Y-121059672D01*
X180329296Y-120900419D01*
X180064466Y-120790723D01*
X179783325Y-120734800D01*
X179496675Y-120734800D01*
X179215534Y-120790723D01*
X178950704Y-120900419D01*
X178712364Y-121059672D01*
X178509672Y-121262364D01*
X178350419Y-121500704D01*
X178240723Y-121765534D01*
X178184800Y-122046675D01*
X162045200Y-122046675D01*
X161989277Y-121765534D01*
X161879581Y-121500704D01*
X161720328Y-121262364D01*
X161517636Y-121059672D01*
X161279296Y-120900419D01*
X161014466Y-120790723D01*
X160733325Y-120734800D01*
X160446675Y-120734800D01*
X160165534Y-120790723D01*
X159900704Y-120900419D01*
X159662364Y-121059672D01*
X159459672Y-121262364D01*
X159300419Y-121500704D01*
X159190723Y-121765534D01*
X159134800Y-122046675D01*
X96045200Y-122046675D01*
X95989277Y-121765534D01*
X95879581Y-121500704D01*
X95720328Y-121262364D01*
X95517636Y-121059672D01*
X95279296Y-120900419D01*
X95014466Y-120790723D01*
X94733325Y-120734800D01*
X94446675Y-120734800D01*
X94165534Y-120790723D01*
X93900704Y-120900419D01*
X93662364Y-121059672D01*
X93459672Y-121262364D01*
X93300419Y-121500704D01*
X93190723Y-121765534D01*
X93134800Y-122046675D01*
X82347200Y-122046675D01*
X82347200Y-119531298D01*
X83224800Y-119531298D01*
X83224800Y-119768702D01*
X83271116Y-120001544D01*
X83361966Y-120220876D01*
X83493860Y-120418270D01*
X83661730Y-120586140D01*
X83859124Y-120718034D01*
X84078456Y-120808884D01*
X84311298Y-120855200D01*
X84548702Y-120855200D01*
X84781544Y-120808884D01*
X85000876Y-120718034D01*
X85198270Y-120586140D01*
X85366140Y-120418270D01*
X85498034Y-120220876D01*
X85588884Y-120001544D01*
X85635200Y-119768702D01*
X85635200Y-119531298D01*
X92114800Y-119531298D01*
X92114800Y-119768702D01*
X92161116Y-120001544D01*
X92251966Y-120220876D01*
X92383860Y-120418270D01*
X92551730Y-120586140D01*
X92749124Y-120718034D01*
X92968456Y-120808884D01*
X93201298Y-120855200D01*
X93438702Y-120855200D01*
X93671544Y-120808884D01*
X93890876Y-120718034D01*
X94088270Y-120586140D01*
X94256140Y-120418270D01*
X94388034Y-120220876D01*
X94478884Y-120001544D01*
X94525200Y-119768702D01*
X94525200Y-119531298D01*
X94503280Y-119421096D01*
X96075900Y-119421096D01*
X96075900Y-119878904D01*
X96165214Y-120327915D01*
X96340410Y-120750874D01*
X96594754Y-121131527D01*
X96918473Y-121455246D01*
X97299126Y-121709590D01*
X97722085Y-121884786D01*
X98171096Y-121974100D01*
X98628904Y-121974100D01*
X99077915Y-121884786D01*
X99500874Y-121709590D01*
X99881527Y-121455246D01*
X100205246Y-121131527D01*
X100459590Y-120750874D01*
X100634786Y-120327915D01*
X100724100Y-119878904D01*
X100724100Y-119531298D01*
X102274800Y-119531298D01*
X102274800Y-119768702D01*
X102321116Y-120001544D01*
X102411966Y-120220876D01*
X102543860Y-120418270D01*
X102711730Y-120586140D01*
X102909124Y-120718034D01*
X103128456Y-120808884D01*
X103361298Y-120855200D01*
X103598702Y-120855200D01*
X103831544Y-120808884D01*
X104050876Y-120718034D01*
X104248270Y-120586140D01*
X104416140Y-120418270D01*
X104548034Y-120220876D01*
X104638884Y-120001544D01*
X104685200Y-119768702D01*
X104685200Y-119531298D01*
X104638884Y-119298456D01*
X104548034Y-119079124D01*
X104416140Y-118881730D01*
X104248270Y-118713860D01*
X104050876Y-118581966D01*
X103831544Y-118491116D01*
X103598702Y-118444800D01*
X103361298Y-118444800D01*
X103128456Y-118491116D01*
X102909124Y-118581966D01*
X102711730Y-118713860D01*
X102543860Y-118881730D01*
X102411966Y-119079124D01*
X102321116Y-119298456D01*
X102274800Y-119531298D01*
X100724100Y-119531298D01*
X100724100Y-119421096D01*
X100634786Y-118972085D01*
X100459590Y-118549126D01*
X100205246Y-118168473D01*
X99881527Y-117844754D01*
X99500874Y-117590410D01*
X99077915Y-117415214D01*
X98628904Y-117325900D01*
X98171096Y-117325900D01*
X97722085Y-117415214D01*
X97299126Y-117590410D01*
X96918473Y-117844754D01*
X96594754Y-118168473D01*
X96340410Y-118549126D01*
X96165214Y-118972085D01*
X96075900Y-119421096D01*
X94503280Y-119421096D01*
X94478884Y-119298456D01*
X94388034Y-119079124D01*
X94256140Y-118881730D01*
X94088270Y-118713860D01*
X93890876Y-118581966D01*
X93671544Y-118491116D01*
X93438702Y-118444800D01*
X93201298Y-118444800D01*
X92968456Y-118491116D01*
X92749124Y-118581966D01*
X92551730Y-118713860D01*
X92383860Y-118881730D01*
X92251966Y-119079124D01*
X92161116Y-119298456D01*
X92114800Y-119531298D01*
X85635200Y-119531298D01*
X85588884Y-119298456D01*
X85498034Y-119079124D01*
X85366140Y-118881730D01*
X85198270Y-118713860D01*
X85000876Y-118581966D01*
X84781544Y-118491116D01*
X84548702Y-118444800D01*
X84311298Y-118444800D01*
X84078456Y-118491116D01*
X83859124Y-118581966D01*
X83661730Y-118713860D01*
X83493860Y-118881730D01*
X83361966Y-119079124D01*
X83271116Y-119298456D01*
X83224800Y-119531298D01*
X82347200Y-119531298D01*
X82347200Y-107065718D01*
X82579296Y-106969581D01*
X82817636Y-106810328D01*
X83020328Y-106607636D01*
X83179581Y-106369296D01*
X83275718Y-106137200D01*
X99554282Y-106137200D01*
X99650419Y-106369296D01*
X99809672Y-106607636D01*
X100012364Y-106810328D01*
X100250704Y-106969581D01*
X100515534Y-107079277D01*
X100796675Y-107135200D01*
X101083325Y-107135200D01*
X101364466Y-107079277D01*
X101629296Y-106969581D01*
X101867636Y-106810328D01*
X102070328Y-106607636D01*
X102229581Y-106369296D01*
X102325718Y-106137200D01*
X104697550Y-106137200D01*
X104720000Y-106139411D01*
X104742450Y-106137200D01*
X104742460Y-106137200D01*
X104809627Y-106130585D01*
X104895809Y-106104441D01*
X104975236Y-106061987D01*
X105044853Y-106004853D01*
X105059174Y-105987403D01*
X105718320Y-105328258D01*
X105728082Y-105330200D01*
X105871918Y-105330200D01*
X106012991Y-105302139D01*
X106145879Y-105247095D01*
X106265475Y-105167183D01*
X106367183Y-105065475D01*
X106447095Y-104945879D01*
X106502139Y-104812991D01*
X106530200Y-104671918D01*
X106530200Y-104528082D01*
X106502139Y-104387009D01*
X106447095Y-104254121D01*
X106367183Y-104134525D01*
X106265475Y-104032817D01*
X106145879Y-103952905D01*
X106012991Y-103897861D01*
X105871918Y-103869800D01*
X105728082Y-103869800D01*
X105587009Y-103897861D01*
X105454121Y-103952905D01*
X105334525Y-104032817D01*
X105232817Y-104134525D01*
X105152905Y-104254121D01*
X105097861Y-104387009D01*
X105069800Y-104528082D01*
X105069800Y-104671918D01*
X105071742Y-104681680D01*
X104530623Y-105222800D01*
X102325718Y-105222800D01*
X102229581Y-104990704D01*
X102070328Y-104752364D01*
X101867636Y-104549672D01*
X101629296Y-104390419D01*
X101364466Y-104280723D01*
X101083325Y-104224800D01*
X100796675Y-104224800D01*
X100515534Y-104280723D01*
X100250704Y-104390419D01*
X100012364Y-104549672D01*
X99809672Y-104752364D01*
X99650419Y-104990704D01*
X99554282Y-105222800D01*
X83275718Y-105222800D01*
X83179581Y-104990704D01*
X83020328Y-104752364D01*
X82817636Y-104549672D01*
X82579296Y-104390419D01*
X82314466Y-104280723D01*
X82033325Y-104224800D01*
X81746675Y-104224800D01*
X81465534Y-104280723D01*
X81200704Y-104390419D01*
X80962364Y-104549672D01*
X80759672Y-104752364D01*
X80600419Y-104990704D01*
X80490723Y-105255534D01*
X80434800Y-105536675D01*
X80434800Y-105823325D01*
X80490723Y-106104466D01*
X80600419Y-106369296D01*
X80759672Y-106607636D01*
X80962364Y-106810328D01*
X81200704Y-106969581D01*
X81432800Y-107065718D01*
X81432801Y-118605161D01*
X81409590Y-118549126D01*
X81155246Y-118168473D01*
X80831527Y-117844754D01*
X80450874Y-117590410D01*
X80027915Y-117415214D01*
X79578904Y-117325900D01*
X79121096Y-117325900D01*
X78672085Y-117415214D01*
X78249126Y-117590410D01*
X77868473Y-117844754D01*
X77544754Y-118168473D01*
X77290410Y-118549126D01*
X77115214Y-118972085D01*
X77025900Y-119421096D01*
X75453280Y-119421096D01*
X75428884Y-119298456D01*
X75338034Y-119079124D01*
X75206140Y-118881730D01*
X75038270Y-118713860D01*
X74840876Y-118581966D01*
X74621544Y-118491116D01*
X74388702Y-118444800D01*
X74151298Y-118444800D01*
X73918456Y-118491116D01*
X73699124Y-118581966D01*
X73501730Y-118713860D01*
X73333860Y-118881730D01*
X73201966Y-119079124D01*
X73111116Y-119298456D01*
X73064800Y-119531298D01*
X72655200Y-119531298D01*
X72655200Y-102996675D01*
X74084800Y-102996675D01*
X74084800Y-103283325D01*
X74140723Y-103564466D01*
X74250419Y-103829296D01*
X74409672Y-104067636D01*
X74612364Y-104270328D01*
X74850704Y-104429581D01*
X75115534Y-104539277D01*
X75396675Y-104595200D01*
X75683325Y-104595200D01*
X75964466Y-104539277D01*
X76229296Y-104429581D01*
X76467636Y-104270328D01*
X76670328Y-104067636D01*
X76829581Y-103829296D01*
X76939277Y-103564466D01*
X76995200Y-103283325D01*
X76995200Y-102996675D01*
X93134800Y-102996675D01*
X93134800Y-103283325D01*
X93190723Y-103564466D01*
X93300419Y-103829296D01*
X93459672Y-104067636D01*
X93662364Y-104270328D01*
X93900704Y-104429581D01*
X94165534Y-104539277D01*
X94446675Y-104595200D01*
X94733325Y-104595200D01*
X95014466Y-104539277D01*
X95279296Y-104429581D01*
X95517636Y-104270328D01*
X95720328Y-104067636D01*
X95879581Y-103829296D01*
X95989277Y-103564466D01*
X96045200Y-103283325D01*
X96045200Y-102996675D01*
X95989277Y-102715534D01*
X95879581Y-102450704D01*
X95720328Y-102212364D01*
X95517636Y-102009672D01*
X95279296Y-101850419D01*
X95014466Y-101740723D01*
X94733325Y-101684800D01*
X94446675Y-101684800D01*
X94165534Y-101740723D01*
X93900704Y-101850419D01*
X93662364Y-102009672D01*
X93459672Y-102212364D01*
X93300419Y-102450704D01*
X93190723Y-102715534D01*
X93134800Y-102996675D01*
X76995200Y-102996675D01*
X76939277Y-102715534D01*
X76829581Y-102450704D01*
X76670328Y-102212364D01*
X76467636Y-102009672D01*
X76229296Y-101850419D01*
X75964466Y-101740723D01*
X75683325Y-101684800D01*
X75396675Y-101684800D01*
X75115534Y-101740723D01*
X74850704Y-101850419D01*
X74612364Y-102009672D01*
X74409672Y-102212364D01*
X74250419Y-102450704D01*
X74140723Y-102715534D01*
X74084800Y-102996675D01*
X72655200Y-102996675D01*
X72655200Y-100481298D01*
X73064800Y-100481298D01*
X73064800Y-100718702D01*
X73111116Y-100951544D01*
X73201966Y-101170876D01*
X73333860Y-101368270D01*
X73501730Y-101536140D01*
X73699124Y-101668034D01*
X73918456Y-101758884D01*
X74151298Y-101805200D01*
X74388702Y-101805200D01*
X74621544Y-101758884D01*
X74840876Y-101668034D01*
X75038270Y-101536140D01*
X75206140Y-101368270D01*
X75338034Y-101170876D01*
X75428884Y-100951544D01*
X75475200Y-100718702D01*
X75475200Y-100481298D01*
X75453280Y-100371096D01*
X77025900Y-100371096D01*
X77025900Y-100828904D01*
X77115214Y-101277915D01*
X77290410Y-101700874D01*
X77544754Y-102081527D01*
X77868473Y-102405246D01*
X78249126Y-102659590D01*
X78672085Y-102834786D01*
X79121096Y-102924100D01*
X79578904Y-102924100D01*
X80027915Y-102834786D01*
X80450874Y-102659590D01*
X80831527Y-102405246D01*
X81155246Y-102081527D01*
X81409590Y-101700874D01*
X81584786Y-101277915D01*
X81674100Y-100828904D01*
X81674100Y-100481298D01*
X83224800Y-100481298D01*
X83224800Y-100718702D01*
X83271116Y-100951544D01*
X83361966Y-101170876D01*
X83493860Y-101368270D01*
X83661730Y-101536140D01*
X83859124Y-101668034D01*
X84078456Y-101758884D01*
X84311298Y-101805200D01*
X84548702Y-101805200D01*
X84781544Y-101758884D01*
X85000876Y-101668034D01*
X85198270Y-101536140D01*
X85366140Y-101368270D01*
X85498034Y-101170876D01*
X85588884Y-100951544D01*
X85635200Y-100718702D01*
X85635200Y-100481298D01*
X92114800Y-100481298D01*
X92114800Y-100718702D01*
X92161116Y-100951544D01*
X92251966Y-101170876D01*
X92383860Y-101368270D01*
X92551730Y-101536140D01*
X92749124Y-101668034D01*
X92968456Y-101758884D01*
X93201298Y-101805200D01*
X93438702Y-101805200D01*
X93671544Y-101758884D01*
X93890876Y-101668034D01*
X94088270Y-101536140D01*
X94256140Y-101368270D01*
X94388034Y-101170876D01*
X94478884Y-100951544D01*
X94525200Y-100718702D01*
X94525200Y-100481298D01*
X94503280Y-100371096D01*
X96075900Y-100371096D01*
X96075900Y-100828904D01*
X96165214Y-101277915D01*
X96340410Y-101700874D01*
X96594754Y-102081527D01*
X96918473Y-102405246D01*
X97299126Y-102659590D01*
X97722085Y-102834786D01*
X98171096Y-102924100D01*
X98628904Y-102924100D01*
X99077915Y-102834786D01*
X99500874Y-102659590D01*
X99881527Y-102405246D01*
X100205246Y-102081527D01*
X100459590Y-101700874D01*
X100634786Y-101277915D01*
X100724100Y-100828904D01*
X100724100Y-100481298D01*
X102274800Y-100481298D01*
X102274800Y-100718702D01*
X102321116Y-100951544D01*
X102411966Y-101170876D01*
X102543860Y-101368270D01*
X102711730Y-101536140D01*
X102909124Y-101668034D01*
X103128456Y-101758884D01*
X103361298Y-101805200D01*
X103598702Y-101805200D01*
X103831544Y-101758884D01*
X104050876Y-101668034D01*
X104248270Y-101536140D01*
X104416140Y-101368270D01*
X104548034Y-101170876D01*
X104638884Y-100951544D01*
X104685200Y-100718702D01*
X104685200Y-100481298D01*
X104638884Y-100248456D01*
X104548034Y-100029124D01*
X104416140Y-99831730D01*
X104248270Y-99663860D01*
X104050876Y-99531966D01*
X103831544Y-99441116D01*
X103598702Y-99394800D01*
X103361298Y-99394800D01*
X103128456Y-99441116D01*
X102909124Y-99531966D01*
X102711730Y-99663860D01*
X102543860Y-99831730D01*
X102411966Y-100029124D01*
X102321116Y-100248456D01*
X102274800Y-100481298D01*
X100724100Y-100481298D01*
X100724100Y-100371096D01*
X100634786Y-99922085D01*
X100459590Y-99499126D01*
X100205246Y-99118473D01*
X99881527Y-98794754D01*
X99500874Y-98540410D01*
X99077915Y-98365214D01*
X98628904Y-98275900D01*
X98171096Y-98275900D01*
X97722085Y-98365214D01*
X97299126Y-98540410D01*
X96918473Y-98794754D01*
X96594754Y-99118473D01*
X96340410Y-99499126D01*
X96165214Y-99922085D01*
X96075900Y-100371096D01*
X94503280Y-100371096D01*
X94478884Y-100248456D01*
X94388034Y-100029124D01*
X94256140Y-99831730D01*
X94088270Y-99663860D01*
X93890876Y-99531966D01*
X93671544Y-99441116D01*
X93438702Y-99394800D01*
X93201298Y-99394800D01*
X92968456Y-99441116D01*
X92749124Y-99531966D01*
X92551730Y-99663860D01*
X92383860Y-99831730D01*
X92251966Y-100029124D01*
X92161116Y-100248456D01*
X92114800Y-100481298D01*
X85635200Y-100481298D01*
X85588884Y-100248456D01*
X85498034Y-100029124D01*
X85366140Y-99831730D01*
X85198270Y-99663860D01*
X85000876Y-99531966D01*
X84781544Y-99441116D01*
X84548702Y-99394800D01*
X84311298Y-99394800D01*
X84078456Y-99441116D01*
X83859124Y-99531966D01*
X83661730Y-99663860D01*
X83493860Y-99831730D01*
X83361966Y-100029124D01*
X83271116Y-100248456D01*
X83224800Y-100481298D01*
X81674100Y-100481298D01*
X81674100Y-100371096D01*
X81584786Y-99922085D01*
X81409590Y-99499126D01*
X81155246Y-99118473D01*
X80831527Y-98794754D01*
X80450874Y-98540410D01*
X80027915Y-98365214D01*
X79578904Y-98275900D01*
X79121096Y-98275900D01*
X78672085Y-98365214D01*
X78249126Y-98540410D01*
X77868473Y-98794754D01*
X77544754Y-99118473D01*
X77290410Y-99499126D01*
X77115214Y-99922085D01*
X77025900Y-100371096D01*
X75453280Y-100371096D01*
X75428884Y-100248456D01*
X75338034Y-100029124D01*
X75206140Y-99831730D01*
X75038270Y-99663860D01*
X74840876Y-99531966D01*
X74621544Y-99441116D01*
X74388702Y-99394800D01*
X74151298Y-99394800D01*
X73918456Y-99441116D01*
X73699124Y-99531966D01*
X73501730Y-99663860D01*
X73333860Y-99831730D01*
X73201966Y-100029124D01*
X73111116Y-100248456D01*
X73064800Y-100481298D01*
X72655200Y-100481298D01*
X72655200Y-95355200D01*
X88393090Y-95355200D01*
X88421087Y-95356294D01*
X88441092Y-95353122D01*
X88483789Y-95395819D01*
X88562745Y-95316863D01*
X88576691Y-95308313D01*
X88598293Y-95296766D01*
X88603761Y-95292279D01*
X88636550Y-95491588D01*
X88840826Y-95582458D01*
X89058905Y-95631731D01*
X89282406Y-95637511D01*
X89502740Y-95599577D01*
X89711440Y-95519387D01*
X89763450Y-95491588D01*
X89797994Y-95281614D01*
X89800000Y-95279608D01*
X89802006Y-95281614D01*
X89836550Y-95491588D01*
X90040826Y-95582458D01*
X90258905Y-95631731D01*
X90482406Y-95637511D01*
X90702740Y-95599577D01*
X90911440Y-95519387D01*
X90963450Y-95491588D01*
X90998561Y-95278166D01*
X90400000Y-94679605D01*
X90385858Y-94693748D01*
X90331768Y-94639658D01*
X90337511Y-94417594D01*
X90328258Y-94363852D01*
X90385858Y-94306253D01*
X90400000Y-94320395D01*
X90414143Y-94306253D01*
X90593748Y-94485858D01*
X90579605Y-94500000D01*
X90796723Y-94717118D01*
X90801704Y-94742160D01*
X90864286Y-94893247D01*
X90955142Y-95029222D01*
X91070778Y-95144858D01*
X91206753Y-95235714D01*
X91207814Y-95236153D01*
X91218013Y-95255235D01*
X91275147Y-95324853D01*
X91292597Y-95339174D01*
X93860836Y-97907414D01*
X93875148Y-97924853D01*
X93892587Y-97939165D01*
X93892592Y-97939170D01*
X93944763Y-97981987D01*
X94002770Y-98012991D01*
X94024192Y-98024441D01*
X94110374Y-98050585D01*
X94177541Y-98057200D01*
X94177549Y-98057200D01*
X94199999Y-98059411D01*
X94222449Y-98057200D01*
X117936224Y-98057198D01*
X116956086Y-99037336D01*
X116854252Y-98995155D01*
X116626240Y-98949800D01*
X116393760Y-98949800D01*
X116165748Y-98995155D01*
X115950966Y-99084121D01*
X115757667Y-99213279D01*
X115593279Y-99377667D01*
X115464121Y-99570966D01*
X115375155Y-99785748D01*
X115329800Y-100013760D01*
X115329800Y-100246240D01*
X115375155Y-100474252D01*
X115464121Y-100689034D01*
X115593279Y-100882333D01*
X115757667Y-101046721D01*
X115950966Y-101175879D01*
X116165748Y-101264845D01*
X116393760Y-101310200D01*
X116626240Y-101310200D01*
X116854252Y-101264845D01*
X117069034Y-101175879D01*
X117262333Y-101046721D01*
X117412600Y-100896454D01*
X117412600Y-101467339D01*
X117410388Y-101489799D01*
X117410723Y-101493198D01*
X117360000Y-101488203D01*
X115660000Y-101488203D01*
X115595270Y-101494578D01*
X115533027Y-101513460D01*
X115475663Y-101544121D01*
X115425384Y-101585384D01*
X115384121Y-101635663D01*
X115353460Y-101693027D01*
X115334578Y-101755270D01*
X115328203Y-101820000D01*
X115328203Y-103520000D01*
X115334578Y-103584730D01*
X115353460Y-103646973D01*
X115384121Y-103704337D01*
X115425384Y-103754616D01*
X115475663Y-103795879D01*
X115533027Y-103826540D01*
X115595270Y-103845422D01*
X115660000Y-103851797D01*
X117045219Y-103851797D01*
X117351031Y-104157609D01*
X117365348Y-104175054D01*
X117382793Y-104189371D01*
X117434964Y-104232188D01*
X117475999Y-104254121D01*
X117514392Y-104274642D01*
X117600574Y-104300786D01*
X117667741Y-104307401D01*
X117667750Y-104307401D01*
X117690200Y-104309612D01*
X117712650Y-104307401D01*
X122134047Y-104307401D01*
X122156497Y-104309612D01*
X122178947Y-104307401D01*
X122178957Y-104307401D01*
X122246124Y-104300786D01*
X122332306Y-104274642D01*
X122411733Y-104232188D01*
X122481350Y-104175054D01*
X122495671Y-104157604D01*
X123077614Y-103575663D01*
X123095054Y-103561350D01*
X123109366Y-103543911D01*
X123109372Y-103543905D01*
X123152188Y-103491733D01*
X123194642Y-103412307D01*
X123220786Y-103326124D01*
X123220976Y-103324191D01*
X123227401Y-103258957D01*
X123227401Y-103258949D01*
X123229612Y-103236497D01*
X123227401Y-103214045D01*
X123227401Y-101532466D01*
X124745458Y-100014410D01*
X127755666Y-100014410D01*
X127734121Y-100040663D01*
X127703460Y-100098027D01*
X127684578Y-100160270D01*
X127678203Y-100225000D01*
X127678203Y-101644800D01*
X124717443Y-101644800D01*
X124700000Y-101643082D01*
X124636146Y-101649371D01*
X124630369Y-101649940D01*
X124563413Y-101670251D01*
X124501707Y-101703234D01*
X124447621Y-101747621D01*
X124403234Y-101801707D01*
X124370251Y-101863413D01*
X124349940Y-101930369D01*
X124343082Y-102000000D01*
X124344800Y-102017443D01*
X124344801Y-118182547D01*
X124343082Y-118200000D01*
X124349940Y-118269631D01*
X124370251Y-118336587D01*
X124403234Y-118398293D01*
X124447621Y-118452379D01*
X124501707Y-118496766D01*
X124563413Y-118529749D01*
X124630369Y-118550060D01*
X124682557Y-118555200D01*
X124700000Y-118556918D01*
X124717443Y-118555200D01*
X127678203Y-118555200D01*
X127678203Y-120025000D01*
X127684578Y-120089730D01*
X127703460Y-120151973D01*
X127734121Y-120209337D01*
X127775384Y-120259616D01*
X127825663Y-120300879D01*
X127883027Y-120331540D01*
X127945270Y-120350422D01*
X128010000Y-120356797D01*
X129710000Y-120356797D01*
X129774730Y-120350422D01*
X129836973Y-120331540D01*
X129894337Y-120300879D01*
X129944616Y-120259616D01*
X129954094Y-120248068D01*
X129960498Y-120269180D01*
X130019463Y-120379494D01*
X130098815Y-120476185D01*
X130195506Y-120555537D01*
X130305820Y-120614502D01*
X130425518Y-120650812D01*
X130550000Y-120663072D01*
X131114250Y-120660000D01*
X131273000Y-120501250D01*
X131273000Y-119302000D01*
X131253000Y-119302000D01*
X131253000Y-119048000D01*
X131273000Y-119048000D01*
X131273000Y-118555200D01*
X131527000Y-118555200D01*
X131527000Y-119048000D01*
X131547000Y-119048000D01*
X131547000Y-119302000D01*
X131527000Y-119302000D01*
X131527000Y-120501250D01*
X131685750Y-120660000D01*
X132250000Y-120663072D01*
X132374482Y-120650812D01*
X132494180Y-120614502D01*
X132604494Y-120555537D01*
X132701185Y-120476185D01*
X132780537Y-120379494D01*
X132839502Y-120269180D01*
X132845906Y-120248068D01*
X132855384Y-120259616D01*
X132905663Y-120300879D01*
X132963027Y-120331540D01*
X133025270Y-120350422D01*
X133090000Y-120356797D01*
X134790000Y-120356797D01*
X134854730Y-120350422D01*
X134916973Y-120331540D01*
X134974337Y-120300879D01*
X135024616Y-120259616D01*
X135065879Y-120209337D01*
X135096540Y-120151973D01*
X135115422Y-120089730D01*
X135121797Y-120025000D01*
X135121797Y-118555200D01*
X138082557Y-118555200D01*
X138100000Y-118556918D01*
X138117443Y-118555200D01*
X138169631Y-118550060D01*
X138236587Y-118529749D01*
X138298293Y-118496766D01*
X138352379Y-118452379D01*
X138396766Y-118398293D01*
X138429749Y-118336587D01*
X138450060Y-118269631D01*
X138456918Y-118200000D01*
X138455200Y-118182557D01*
X138455200Y-109628082D01*
X144469800Y-109628082D01*
X144469800Y-109771918D01*
X144497861Y-109912991D01*
X144552905Y-110045879D01*
X144632817Y-110165475D01*
X144692800Y-110225458D01*
X144692801Y-117175075D01*
X144690346Y-117200000D01*
X144700139Y-117299428D01*
X144729142Y-117395036D01*
X144776239Y-117483149D01*
X144839621Y-117560380D01*
X144858977Y-117576265D01*
X146469800Y-119187089D01*
X146469800Y-119271918D01*
X146497861Y-119412991D01*
X146552905Y-119545879D01*
X146632817Y-119665475D01*
X146734525Y-119767183D01*
X146854121Y-119847095D01*
X146987009Y-119902139D01*
X147128082Y-119930200D01*
X147271918Y-119930200D01*
X147412991Y-119902139D01*
X147545879Y-119847095D01*
X147665475Y-119767183D01*
X147725458Y-119707200D01*
X157575085Y-119707200D01*
X157600000Y-119709654D01*
X157624915Y-119707200D01*
X157624916Y-119707200D01*
X157699429Y-119699861D01*
X157795036Y-119670859D01*
X157883149Y-119623762D01*
X157960380Y-119560380D01*
X157976270Y-119541018D01*
X158146785Y-119370504D01*
X158114800Y-119531298D01*
X158114800Y-119768702D01*
X158161116Y-120001544D01*
X158251966Y-120220876D01*
X158383860Y-120418270D01*
X158551730Y-120586140D01*
X158749124Y-120718034D01*
X158968456Y-120808884D01*
X159201298Y-120855200D01*
X159438702Y-120855200D01*
X159671544Y-120808884D01*
X159890876Y-120718034D01*
X160088270Y-120586140D01*
X160256140Y-120418270D01*
X160388034Y-120220876D01*
X160478884Y-120001544D01*
X160525200Y-119768702D01*
X160525200Y-119531298D01*
X160503280Y-119421096D01*
X162075900Y-119421096D01*
X162075900Y-119878904D01*
X162165214Y-120327915D01*
X162340410Y-120750874D01*
X162594754Y-121131527D01*
X162918473Y-121455246D01*
X163299126Y-121709590D01*
X163722085Y-121884786D01*
X164171096Y-121974100D01*
X164628904Y-121974100D01*
X165077915Y-121884786D01*
X165500874Y-121709590D01*
X165881527Y-121455246D01*
X166205246Y-121131527D01*
X166459590Y-120750874D01*
X166634786Y-120327915D01*
X166724100Y-119878904D01*
X166724100Y-119531298D01*
X168274800Y-119531298D01*
X168274800Y-119768702D01*
X168321116Y-120001544D01*
X168411966Y-120220876D01*
X168543860Y-120418270D01*
X168711730Y-120586140D01*
X168909124Y-120718034D01*
X169128456Y-120808884D01*
X169361298Y-120855200D01*
X169598702Y-120855200D01*
X169831544Y-120808884D01*
X170050876Y-120718034D01*
X170248270Y-120586140D01*
X170416140Y-120418270D01*
X170548034Y-120220876D01*
X170638884Y-120001544D01*
X170685200Y-119768702D01*
X170685200Y-119531298D01*
X177164800Y-119531298D01*
X177164800Y-119768702D01*
X177211116Y-120001544D01*
X177301966Y-120220876D01*
X177433860Y-120418270D01*
X177601730Y-120586140D01*
X177799124Y-120718034D01*
X178018456Y-120808884D01*
X178251298Y-120855200D01*
X178488702Y-120855200D01*
X178721544Y-120808884D01*
X178940876Y-120718034D01*
X179138270Y-120586140D01*
X179306140Y-120418270D01*
X179438034Y-120220876D01*
X179528884Y-120001544D01*
X179575200Y-119768702D01*
X179575200Y-119531298D01*
X179528884Y-119298456D01*
X179438034Y-119079124D01*
X179306140Y-118881730D01*
X179138270Y-118713860D01*
X178940876Y-118581966D01*
X178721544Y-118491116D01*
X178488702Y-118444800D01*
X178251298Y-118444800D01*
X178018456Y-118491116D01*
X177799124Y-118581966D01*
X177601730Y-118713860D01*
X177433860Y-118881730D01*
X177301966Y-119079124D01*
X177211116Y-119298456D01*
X177164800Y-119531298D01*
X170685200Y-119531298D01*
X170638884Y-119298456D01*
X170548034Y-119079124D01*
X170416140Y-118881730D01*
X170248270Y-118713860D01*
X170050876Y-118581966D01*
X169831544Y-118491116D01*
X169598702Y-118444800D01*
X169361298Y-118444800D01*
X169128456Y-118491116D01*
X168909124Y-118581966D01*
X168711730Y-118713860D01*
X168543860Y-118881730D01*
X168411966Y-119079124D01*
X168321116Y-119298456D01*
X168274800Y-119531298D01*
X166724100Y-119531298D01*
X166724100Y-119421096D01*
X166634786Y-118972085D01*
X166459590Y-118549126D01*
X166205246Y-118168473D01*
X165881527Y-117844754D01*
X165500874Y-117590410D01*
X165077915Y-117415214D01*
X164628904Y-117325900D01*
X164171096Y-117325900D01*
X163722085Y-117415214D01*
X163299126Y-117590410D01*
X162918473Y-117844754D01*
X162594754Y-118168473D01*
X162340410Y-118549126D01*
X162165214Y-118972085D01*
X162075900Y-119421096D01*
X160503280Y-119421096D01*
X160478884Y-119298456D01*
X160388034Y-119079124D01*
X160256140Y-118881730D01*
X160088270Y-118713860D01*
X159890876Y-118581966D01*
X159671544Y-118491116D01*
X159438702Y-118444800D01*
X159380998Y-118444800D01*
X159447095Y-118345879D01*
X159502139Y-118212991D01*
X159530200Y-118071918D01*
X159530200Y-117987088D01*
X160841023Y-116676266D01*
X160860380Y-116660380D01*
X160923762Y-116583149D01*
X160970859Y-116495036D01*
X160999861Y-116399429D01*
X161007200Y-116324916D01*
X161007200Y-116324915D01*
X161009654Y-116300001D01*
X161007200Y-116275085D01*
X161007200Y-109825458D01*
X161067183Y-109765475D01*
X161147095Y-109645879D01*
X161202139Y-109512991D01*
X161230200Y-109371918D01*
X161230200Y-109228082D01*
X161202139Y-109087009D01*
X161147095Y-108954121D01*
X161067183Y-108834525D01*
X161007200Y-108774542D01*
X161007200Y-108024915D01*
X161009654Y-108000000D01*
X160999861Y-107900571D01*
X160970859Y-107804964D01*
X160923762Y-107716851D01*
X160860380Y-107639620D01*
X160841023Y-107623734D01*
X159030200Y-105812912D01*
X159030200Y-105728082D01*
X159002139Y-105587009D01*
X158947095Y-105454121D01*
X158867183Y-105334525D01*
X158765475Y-105232817D01*
X158645879Y-105152905D01*
X158512991Y-105097861D01*
X158371918Y-105069800D01*
X158287089Y-105069800D01*
X156876270Y-103658982D01*
X156860380Y-103639620D01*
X156783149Y-103576238D01*
X156695036Y-103529141D01*
X156599429Y-103500139D01*
X156524916Y-103492800D01*
X156524915Y-103492800D01*
X156500000Y-103490346D01*
X156475085Y-103492800D01*
X153325458Y-103492800D01*
X153265475Y-103432817D01*
X153145879Y-103352905D01*
X153012991Y-103297861D01*
X152871918Y-103269800D01*
X152728082Y-103269800D01*
X152587009Y-103297861D01*
X152454121Y-103352905D01*
X152334525Y-103432817D01*
X152274542Y-103492800D01*
X149924915Y-103492800D01*
X149900000Y-103490346D01*
X149800571Y-103500139D01*
X149704963Y-103529141D01*
X149638875Y-103564466D01*
X149616851Y-103576238D01*
X149539620Y-103639620D01*
X149523739Y-103658971D01*
X144858982Y-108323730D01*
X144839620Y-108339620D01*
X144776238Y-108416851D01*
X144729141Y-108504965D01*
X144727719Y-108509654D01*
X144700139Y-108600572D01*
X144690346Y-108700000D01*
X144692800Y-108724916D01*
X144692800Y-109174542D01*
X144632817Y-109234525D01*
X144552905Y-109354121D01*
X144497861Y-109487009D01*
X144469800Y-109628082D01*
X138455200Y-109628082D01*
X138455200Y-102017443D01*
X138456918Y-102000000D01*
X138450060Y-101930369D01*
X138429749Y-101863413D01*
X138396766Y-101801707D01*
X138352379Y-101747621D01*
X138298293Y-101703234D01*
X138236587Y-101670251D01*
X138169631Y-101649940D01*
X138163854Y-101649371D01*
X138100000Y-101643082D01*
X138082557Y-101644800D01*
X135121797Y-101644800D01*
X135121797Y-100225000D01*
X135115422Y-100160270D01*
X135096540Y-100098027D01*
X135065879Y-100040663D01*
X135024616Y-99990384D01*
X134974337Y-99949121D01*
X134916973Y-99918460D01*
X134854730Y-99899578D01*
X134790000Y-99893203D01*
X134391750Y-99893203D01*
X134390585Y-99881373D01*
X134364441Y-99795191D01*
X134321987Y-99715764D01*
X134264853Y-99646147D01*
X134247403Y-99631826D01*
X134172777Y-99557200D01*
X136410623Y-99557200D01*
X136871742Y-100018320D01*
X136869800Y-100028082D01*
X136869800Y-100171918D01*
X136897861Y-100312991D01*
X136952905Y-100445879D01*
X137032817Y-100565475D01*
X137134525Y-100667183D01*
X137254121Y-100747095D01*
X137387009Y-100802139D01*
X137528082Y-100830200D01*
X137671918Y-100830200D01*
X137812991Y-100802139D01*
X137945879Y-100747095D01*
X138065475Y-100667183D01*
X138167183Y-100565475D01*
X138247095Y-100445879D01*
X138302139Y-100312991D01*
X138330200Y-100171918D01*
X138330200Y-100149319D01*
X138337009Y-100152139D01*
X138478082Y-100180200D01*
X138621918Y-100180200D01*
X138762991Y-100152139D01*
X138892801Y-100098370D01*
X138892800Y-101827288D01*
X138884525Y-101832817D01*
X138782817Y-101934525D01*
X138702905Y-102054121D01*
X138647861Y-102187009D01*
X138619800Y-102328082D01*
X138619800Y-102471918D01*
X138647861Y-102612991D01*
X138702905Y-102745879D01*
X138782817Y-102865475D01*
X138884525Y-102967183D01*
X139004121Y-103047095D01*
X139137009Y-103102139D01*
X139278082Y-103130200D01*
X139421918Y-103130200D01*
X139562991Y-103102139D01*
X139695879Y-103047095D01*
X139815475Y-102967183D01*
X139917183Y-102865475D01*
X139997095Y-102745879D01*
X140052139Y-102612991D01*
X140068272Y-102531887D01*
X140085934Y-102535400D01*
X140229770Y-102535400D01*
X140370843Y-102507339D01*
X140503731Y-102452295D01*
X140623327Y-102372383D01*
X140725035Y-102270675D01*
X140804947Y-102151079D01*
X140859991Y-102018191D01*
X140888052Y-101877118D01*
X140888052Y-101733282D01*
X140859991Y-101592209D01*
X140804947Y-101459321D01*
X140725035Y-101339725D01*
X140623327Y-101238017D01*
X140615052Y-101232488D01*
X140615052Y-99353012D01*
X140617263Y-99330562D01*
X140615052Y-99308112D01*
X140615052Y-99308102D01*
X140608437Y-99240935D01*
X140586707Y-99169302D01*
X140582293Y-99154752D01*
X140539839Y-99075326D01*
X140497023Y-99023154D01*
X140497017Y-99023148D01*
X140482705Y-99005709D01*
X140465266Y-98991397D01*
X139531068Y-98057200D01*
X151010623Y-98057200D01*
X154442801Y-101489379D01*
X154442800Y-101927287D01*
X154434525Y-101932817D01*
X154332817Y-102034525D01*
X154252905Y-102154121D01*
X154197861Y-102287009D01*
X154169800Y-102428082D01*
X154169800Y-102571918D01*
X154197861Y-102712991D01*
X154252905Y-102845879D01*
X154332817Y-102965475D01*
X154434525Y-103067183D01*
X154554121Y-103147095D01*
X154687009Y-103202139D01*
X154828082Y-103230200D01*
X154971918Y-103230200D01*
X155112991Y-103202139D01*
X155245879Y-103147095D01*
X155365475Y-103067183D01*
X155467183Y-102965475D01*
X155547095Y-102845879D01*
X155602139Y-102712991D01*
X155630200Y-102571918D01*
X155630200Y-102428082D01*
X155602139Y-102287009D01*
X155547095Y-102154121D01*
X155467183Y-102034525D01*
X155365475Y-101932817D01*
X155357200Y-101927288D01*
X155357200Y-101340081D01*
X155671742Y-101654622D01*
X155669800Y-101664384D01*
X155669800Y-101808220D01*
X155697861Y-101949293D01*
X155752905Y-102082181D01*
X155832817Y-102201777D01*
X155934525Y-102303485D01*
X156054121Y-102383397D01*
X156187009Y-102438441D01*
X156328082Y-102466502D01*
X156471918Y-102466502D01*
X156612991Y-102438441D01*
X156745879Y-102383397D01*
X156865475Y-102303485D01*
X156967183Y-102201777D01*
X157047095Y-102082181D01*
X157102139Y-101949293D01*
X157130200Y-101808220D01*
X157130200Y-101664384D01*
X157113413Y-101579991D01*
X157442801Y-101909379D01*
X157442800Y-103477550D01*
X157440589Y-103500000D01*
X157442800Y-103522450D01*
X157442800Y-103522459D01*
X157449415Y-103589626D01*
X157475559Y-103675808D01*
X157518013Y-103755235D01*
X157575147Y-103824853D01*
X157592597Y-103839174D01*
X159740835Y-105987414D01*
X159755147Y-106004853D01*
X159772586Y-106019165D01*
X159772592Y-106019171D01*
X159824764Y-106061987D01*
X159904190Y-106104441D01*
X159990370Y-106130584D01*
X159990373Y-106130585D01*
X160057540Y-106137200D01*
X160057548Y-106137200D01*
X160080000Y-106139411D01*
X160102452Y-106137200D01*
X165554282Y-106137200D01*
X165650419Y-106369296D01*
X165809672Y-106607636D01*
X166012364Y-106810328D01*
X166250704Y-106969581D01*
X166515534Y-107079277D01*
X166796675Y-107135200D01*
X167083325Y-107135200D01*
X167364466Y-107079277D01*
X167629296Y-106969581D01*
X167867636Y-106810328D01*
X168070328Y-106607636D01*
X168229581Y-106369296D01*
X168325718Y-106137200D01*
X184604282Y-106137200D01*
X184700419Y-106369296D01*
X184859672Y-106607636D01*
X185062364Y-106810328D01*
X185300704Y-106969581D01*
X185532800Y-107065718D01*
X185532801Y-118605161D01*
X185509590Y-118549126D01*
X185255246Y-118168473D01*
X184931527Y-117844754D01*
X184550874Y-117590410D01*
X184127915Y-117415214D01*
X183678904Y-117325900D01*
X183221096Y-117325900D01*
X182772085Y-117415214D01*
X182349126Y-117590410D01*
X181968473Y-117844754D01*
X181644754Y-118168473D01*
X181390410Y-118549126D01*
X181215214Y-118972085D01*
X181125900Y-119421096D01*
X181125900Y-119878904D01*
X181215214Y-120327915D01*
X181390410Y-120750874D01*
X181644754Y-121131527D01*
X181968473Y-121455246D01*
X182349126Y-121709590D01*
X182772085Y-121884786D01*
X183221096Y-121974100D01*
X183678904Y-121974100D01*
X184127915Y-121884786D01*
X184550874Y-121709590D01*
X184931527Y-121455246D01*
X185255246Y-121131527D01*
X185509590Y-120750874D01*
X185532801Y-120694838D01*
X185532801Y-123344281D01*
X185300704Y-123440419D01*
X185062364Y-123599672D01*
X184859672Y-123802364D01*
X184700419Y-124040704D01*
X184604282Y-124272800D01*
X168325718Y-124272800D01*
X168229581Y-124040704D01*
X168070328Y-123802364D01*
X167867636Y-123599672D01*
X167629296Y-123440419D01*
X167364466Y-123330723D01*
X167083325Y-123274800D01*
X166796675Y-123274800D01*
X166515534Y-123330723D01*
X166250704Y-123440419D01*
X166012364Y-123599672D01*
X165809672Y-123802364D01*
X165650419Y-124040704D01*
X165540723Y-124305534D01*
X165484800Y-124586675D01*
X165484800Y-124873325D01*
X165540723Y-125154466D01*
X165650419Y-125419296D01*
X165809672Y-125657636D01*
X166012364Y-125860328D01*
X166250704Y-126019581D01*
X166515534Y-126129277D01*
X166796675Y-126185200D01*
X167083325Y-126185200D01*
X167364466Y-126129277D01*
X167629296Y-126019581D01*
X167867636Y-125860328D01*
X168070328Y-125657636D01*
X168229581Y-125419296D01*
X168325718Y-125187200D01*
X184604282Y-125187200D01*
X184700419Y-125419296D01*
X184859672Y-125657636D01*
X185062364Y-125860328D01*
X185300704Y-126019581D01*
X185565534Y-126129277D01*
X185846675Y-126185200D01*
X186133325Y-126185200D01*
X186414466Y-126129277D01*
X186679296Y-126019581D01*
X186917636Y-125860328D01*
X187120328Y-125657636D01*
X187279581Y-125419296D01*
X187389277Y-125154466D01*
X187445200Y-124873325D01*
X187445200Y-124586675D01*
X187389277Y-124305534D01*
X187279581Y-124040704D01*
X187120328Y-123802364D01*
X186917636Y-123599672D01*
X186679296Y-123440419D01*
X186447200Y-123344282D01*
X186447200Y-119531298D01*
X187324800Y-119531298D01*
X187324800Y-119768702D01*
X187371116Y-120001544D01*
X187461966Y-120220876D01*
X187593860Y-120418270D01*
X187761730Y-120586140D01*
X187959124Y-120718034D01*
X188178456Y-120808884D01*
X188411298Y-120855200D01*
X188648702Y-120855200D01*
X188881544Y-120808884D01*
X189100876Y-120718034D01*
X189298270Y-120586140D01*
X189466140Y-120418270D01*
X189598034Y-120220876D01*
X189688884Y-120001544D01*
X189735200Y-119768702D01*
X189735200Y-119531298D01*
X189688884Y-119298456D01*
X189598034Y-119079124D01*
X189466140Y-118881730D01*
X189298270Y-118713860D01*
X189100876Y-118581966D01*
X188881544Y-118491116D01*
X188648702Y-118444800D01*
X188411298Y-118444800D01*
X188178456Y-118491116D01*
X187959124Y-118581966D01*
X187761730Y-118713860D01*
X187593860Y-118881730D01*
X187461966Y-119079124D01*
X187371116Y-119298456D01*
X187324800Y-119531298D01*
X186447200Y-119531298D01*
X186447200Y-107065718D01*
X186679296Y-106969581D01*
X186917636Y-106810328D01*
X187120328Y-106607636D01*
X187279581Y-106369296D01*
X187389277Y-106104466D01*
X187445200Y-105823325D01*
X187445200Y-105536675D01*
X187389277Y-105255534D01*
X187279581Y-104990704D01*
X187120328Y-104752364D01*
X186917636Y-104549672D01*
X186679296Y-104390419D01*
X186414466Y-104280723D01*
X186133325Y-104224800D01*
X185846675Y-104224800D01*
X185565534Y-104280723D01*
X185300704Y-104390419D01*
X185062364Y-104549672D01*
X184859672Y-104752364D01*
X184700419Y-104990704D01*
X184604282Y-105222800D01*
X168325718Y-105222800D01*
X168229581Y-104990704D01*
X168070328Y-104752364D01*
X167867636Y-104549672D01*
X167629296Y-104390419D01*
X167364466Y-104280723D01*
X167083325Y-104224800D01*
X166796675Y-104224800D01*
X166515534Y-104280723D01*
X166250704Y-104390419D01*
X166012364Y-104549672D01*
X165809672Y-104752364D01*
X165650419Y-104990704D01*
X165554282Y-105222800D01*
X160269379Y-105222800D01*
X158357200Y-103310623D01*
X158357200Y-102996675D01*
X159134800Y-102996675D01*
X159134800Y-103283325D01*
X159190723Y-103564466D01*
X159300419Y-103829296D01*
X159459672Y-104067636D01*
X159662364Y-104270328D01*
X159900704Y-104429581D01*
X160165534Y-104539277D01*
X160446675Y-104595200D01*
X160733325Y-104595200D01*
X161014466Y-104539277D01*
X161279296Y-104429581D01*
X161517636Y-104270328D01*
X161720328Y-104067636D01*
X161879581Y-103829296D01*
X161989277Y-103564466D01*
X162045200Y-103283325D01*
X162045200Y-102996675D01*
X178184800Y-102996675D01*
X178184800Y-103283325D01*
X178240723Y-103564466D01*
X178350419Y-103829296D01*
X178509672Y-104067636D01*
X178712364Y-104270328D01*
X178950704Y-104429581D01*
X179215534Y-104539277D01*
X179496675Y-104595200D01*
X179783325Y-104595200D01*
X180064466Y-104539277D01*
X180329296Y-104429581D01*
X180567636Y-104270328D01*
X180770328Y-104067636D01*
X180929581Y-103829296D01*
X181039277Y-103564466D01*
X181095200Y-103283325D01*
X181095200Y-102996675D01*
X181039277Y-102715534D01*
X180929581Y-102450704D01*
X180770328Y-102212364D01*
X180567636Y-102009672D01*
X180329296Y-101850419D01*
X180064466Y-101740723D01*
X179783325Y-101684800D01*
X179496675Y-101684800D01*
X179215534Y-101740723D01*
X178950704Y-101850419D01*
X178712364Y-102009672D01*
X178509672Y-102212364D01*
X178350419Y-102450704D01*
X178240723Y-102715534D01*
X178184800Y-102996675D01*
X162045200Y-102996675D01*
X161989277Y-102715534D01*
X161879581Y-102450704D01*
X161720328Y-102212364D01*
X161517636Y-102009672D01*
X161279296Y-101850419D01*
X161014466Y-101740723D01*
X160733325Y-101684800D01*
X160446675Y-101684800D01*
X160165534Y-101740723D01*
X159900704Y-101850419D01*
X159662364Y-102009672D01*
X159459672Y-102212364D01*
X159300419Y-102450704D01*
X159190723Y-102715534D01*
X159134800Y-102996675D01*
X158357200Y-102996675D01*
X158357200Y-101742449D01*
X158359411Y-101719999D01*
X158357200Y-101697549D01*
X158357200Y-101697540D01*
X158350585Y-101630373D01*
X158324441Y-101544191D01*
X158281987Y-101464764D01*
X158224853Y-101395147D01*
X158207408Y-101380830D01*
X157307876Y-100481298D01*
X158114800Y-100481298D01*
X158114800Y-100718702D01*
X158161116Y-100951544D01*
X158251966Y-101170876D01*
X158383860Y-101368270D01*
X158551730Y-101536140D01*
X158749124Y-101668034D01*
X158968456Y-101758884D01*
X159201298Y-101805200D01*
X159438702Y-101805200D01*
X159671544Y-101758884D01*
X159890876Y-101668034D01*
X160088270Y-101536140D01*
X160256140Y-101368270D01*
X160388034Y-101170876D01*
X160478884Y-100951544D01*
X160525200Y-100718702D01*
X160525200Y-100481298D01*
X160503280Y-100371096D01*
X162075900Y-100371096D01*
X162075900Y-100828904D01*
X162165214Y-101277915D01*
X162340410Y-101700874D01*
X162594754Y-102081527D01*
X162918473Y-102405246D01*
X163299126Y-102659590D01*
X163722085Y-102834786D01*
X164171096Y-102924100D01*
X164628904Y-102924100D01*
X165077915Y-102834786D01*
X165500874Y-102659590D01*
X165881527Y-102405246D01*
X166205246Y-102081527D01*
X166459590Y-101700874D01*
X166634786Y-101277915D01*
X166724100Y-100828904D01*
X166724100Y-100481298D01*
X168274800Y-100481298D01*
X168274800Y-100718702D01*
X168321116Y-100951544D01*
X168411966Y-101170876D01*
X168543860Y-101368270D01*
X168711730Y-101536140D01*
X168909124Y-101668034D01*
X169128456Y-101758884D01*
X169361298Y-101805200D01*
X169598702Y-101805200D01*
X169831544Y-101758884D01*
X170050876Y-101668034D01*
X170248270Y-101536140D01*
X170416140Y-101368270D01*
X170548034Y-101170876D01*
X170638884Y-100951544D01*
X170685200Y-100718702D01*
X170685200Y-100481298D01*
X177164800Y-100481298D01*
X177164800Y-100718702D01*
X177211116Y-100951544D01*
X177301966Y-101170876D01*
X177433860Y-101368270D01*
X177601730Y-101536140D01*
X177799124Y-101668034D01*
X178018456Y-101758884D01*
X178251298Y-101805200D01*
X178488702Y-101805200D01*
X178721544Y-101758884D01*
X178940876Y-101668034D01*
X179138270Y-101536140D01*
X179306140Y-101368270D01*
X179438034Y-101170876D01*
X179528884Y-100951544D01*
X179575200Y-100718702D01*
X179575200Y-100481298D01*
X179553280Y-100371096D01*
X181125900Y-100371096D01*
X181125900Y-100828904D01*
X181215214Y-101277915D01*
X181390410Y-101700874D01*
X181644754Y-102081527D01*
X181968473Y-102405246D01*
X182349126Y-102659590D01*
X182772085Y-102834786D01*
X183221096Y-102924100D01*
X183678904Y-102924100D01*
X184127915Y-102834786D01*
X184550874Y-102659590D01*
X184931527Y-102405246D01*
X185255246Y-102081527D01*
X185509590Y-101700874D01*
X185684786Y-101277915D01*
X185774100Y-100828904D01*
X185774100Y-100481298D01*
X187324800Y-100481298D01*
X187324800Y-100718702D01*
X187371116Y-100951544D01*
X187461966Y-101170876D01*
X187593860Y-101368270D01*
X187761730Y-101536140D01*
X187959124Y-101668034D01*
X188178456Y-101758884D01*
X188411298Y-101805200D01*
X188648702Y-101805200D01*
X188881544Y-101758884D01*
X189100876Y-101668034D01*
X189298270Y-101536140D01*
X189466140Y-101368270D01*
X189598034Y-101170876D01*
X189688884Y-100951544D01*
X189735200Y-100718702D01*
X189735200Y-100481298D01*
X189688884Y-100248456D01*
X189598034Y-100029124D01*
X189466140Y-99831730D01*
X189298270Y-99663860D01*
X189100876Y-99531966D01*
X188881544Y-99441116D01*
X188648702Y-99394800D01*
X188411298Y-99394800D01*
X188178456Y-99441116D01*
X187959124Y-99531966D01*
X187761730Y-99663860D01*
X187593860Y-99831730D01*
X187461966Y-100029124D01*
X187371116Y-100248456D01*
X187324800Y-100481298D01*
X185774100Y-100481298D01*
X185774100Y-100371096D01*
X185684786Y-99922085D01*
X185509590Y-99499126D01*
X185255246Y-99118473D01*
X184931527Y-98794754D01*
X184550874Y-98540410D01*
X184127915Y-98365214D01*
X183678904Y-98275900D01*
X183221096Y-98275900D01*
X182772085Y-98365214D01*
X182349126Y-98540410D01*
X181968473Y-98794754D01*
X181644754Y-99118473D01*
X181390410Y-99499126D01*
X181215214Y-99922085D01*
X181125900Y-100371096D01*
X179553280Y-100371096D01*
X179528884Y-100248456D01*
X179438034Y-100029124D01*
X179306140Y-99831730D01*
X179138270Y-99663860D01*
X178940876Y-99531966D01*
X178721544Y-99441116D01*
X178488702Y-99394800D01*
X178251298Y-99394800D01*
X178018456Y-99441116D01*
X177799124Y-99531966D01*
X177601730Y-99663860D01*
X177433860Y-99831730D01*
X177301966Y-100029124D01*
X177211116Y-100248456D01*
X177164800Y-100481298D01*
X170685200Y-100481298D01*
X170638884Y-100248456D01*
X170548034Y-100029124D01*
X170416140Y-99831730D01*
X170248270Y-99663860D01*
X170050876Y-99531966D01*
X169831544Y-99441116D01*
X169598702Y-99394800D01*
X169361298Y-99394800D01*
X169128456Y-99441116D01*
X168909124Y-99531966D01*
X168711730Y-99663860D01*
X168543860Y-99831730D01*
X168411966Y-100029124D01*
X168321116Y-100248456D01*
X168274800Y-100481298D01*
X166724100Y-100481298D01*
X166724100Y-100371096D01*
X166634786Y-99922085D01*
X166459590Y-99499126D01*
X166205246Y-99118473D01*
X165881527Y-98794754D01*
X165500874Y-98540410D01*
X165077915Y-98365214D01*
X164628904Y-98275900D01*
X164171096Y-98275900D01*
X163722085Y-98365214D01*
X163299126Y-98540410D01*
X162918473Y-98794754D01*
X162594754Y-99118473D01*
X162340410Y-99499126D01*
X162165214Y-99922085D01*
X162075900Y-100371096D01*
X160503280Y-100371096D01*
X160478884Y-100248456D01*
X160388034Y-100029124D01*
X160256140Y-99831730D01*
X160088270Y-99663860D01*
X159890876Y-99531966D01*
X159671544Y-99441116D01*
X159438702Y-99394800D01*
X159201298Y-99394800D01*
X158968456Y-99441116D01*
X158749124Y-99531966D01*
X158551730Y-99663860D01*
X158383860Y-99831730D01*
X158251966Y-100029124D01*
X158161116Y-100248456D01*
X158114800Y-100481298D01*
X157307876Y-100481298D01*
X154118258Y-97291681D01*
X154120200Y-97281918D01*
X154120200Y-97138082D01*
X154092139Y-96997009D01*
X154037095Y-96864121D01*
X153957183Y-96744525D01*
X153855475Y-96642817D01*
X153735879Y-96562905D01*
X153602991Y-96507861D01*
X153461918Y-96479800D01*
X153318082Y-96479800D01*
X153177009Y-96507861D01*
X153044121Y-96562905D01*
X152924525Y-96642817D01*
X152822817Y-96744525D01*
X152742905Y-96864121D01*
X152687861Y-96997009D01*
X152659800Y-97138082D01*
X152659800Y-97281918D01*
X152676587Y-97366311D01*
X151816822Y-96506547D01*
X151802501Y-96489097D01*
X151732884Y-96431963D01*
X151653457Y-96389509D01*
X151567275Y-96363365D01*
X151500108Y-96356750D01*
X151500098Y-96356750D01*
X151484360Y-96355200D01*
X154879060Y-96355200D01*
X154892991Y-96356849D01*
X154913940Y-96355200D01*
X154917443Y-96355200D01*
X154931384Y-96353827D01*
X154945269Y-96352734D01*
X154948698Y-96352122D01*
X154969631Y-96350060D01*
X154983066Y-96345985D01*
X156547745Y-96066578D01*
X156497861Y-96187009D01*
X156469800Y-96328082D01*
X156469800Y-96471918D01*
X156497861Y-96612991D01*
X156552905Y-96745879D01*
X156632817Y-96865475D01*
X156734525Y-96967183D01*
X156854121Y-97047095D01*
X156987009Y-97102139D01*
X157128082Y-97130200D01*
X157271918Y-97130200D01*
X157412991Y-97102139D01*
X157545879Y-97047095D01*
X157665475Y-96967183D01*
X157725458Y-96907200D01*
X163429582Y-96907200D01*
X164263404Y-97741023D01*
X164279290Y-97760380D01*
X164356521Y-97823762D01*
X164398893Y-97846410D01*
X164444633Y-97870859D01*
X164540241Y-97899861D01*
X164639670Y-97909654D01*
X164664585Y-97907200D01*
X173489912Y-97907200D01*
X173769800Y-98187089D01*
X173769800Y-98271918D01*
X173797861Y-98412991D01*
X173852905Y-98545879D01*
X173932817Y-98665475D01*
X174034525Y-98767183D01*
X174154121Y-98847095D01*
X174287009Y-98902139D01*
X174428082Y-98930200D01*
X174571918Y-98930200D01*
X174712991Y-98902139D01*
X174845879Y-98847095D01*
X174965475Y-98767183D01*
X175067183Y-98665475D01*
X175147095Y-98545879D01*
X175202139Y-98412991D01*
X175230200Y-98271918D01*
X175230200Y-98128082D01*
X175202139Y-97987009D01*
X175147095Y-97854121D01*
X175067183Y-97734525D01*
X174965475Y-97632817D01*
X174845879Y-97552905D01*
X174712991Y-97497861D01*
X174571918Y-97469800D01*
X174487089Y-97469800D01*
X174076270Y-97058982D01*
X174060380Y-97039620D01*
X173983149Y-96976238D01*
X173895036Y-96929141D01*
X173799429Y-96900139D01*
X173724916Y-96892800D01*
X173724915Y-96892800D01*
X173700000Y-96890346D01*
X173675085Y-96892800D01*
X164849759Y-96892800D01*
X164015940Y-96058982D01*
X164000050Y-96039620D01*
X163922819Y-95976238D01*
X163834706Y-95929141D01*
X163739099Y-95900139D01*
X163664586Y-95892800D01*
X163664585Y-95892800D01*
X163639670Y-95890346D01*
X163614755Y-95892800D01*
X157725458Y-95892800D01*
X157694465Y-95861807D01*
X160531469Y-95355200D01*
X168424405Y-95355200D01*
X168401439Y-95378166D01*
X168436550Y-95591588D01*
X168640826Y-95682458D01*
X168858905Y-95731731D01*
X169082406Y-95737511D01*
X169302740Y-95699577D01*
X169511440Y-95619387D01*
X169563450Y-95591588D01*
X169597994Y-95381614D01*
X169600000Y-95379608D01*
X169602006Y-95381614D01*
X169636550Y-95591588D01*
X169840826Y-95682458D01*
X170058905Y-95731731D01*
X170282406Y-95737511D01*
X170502740Y-95699577D01*
X170711440Y-95619387D01*
X170763450Y-95591588D01*
X170797994Y-95381614D01*
X170800000Y-95379608D01*
X170802006Y-95381614D01*
X170836550Y-95591588D01*
X171040826Y-95682458D01*
X171258905Y-95731731D01*
X171482406Y-95737511D01*
X171702740Y-95699577D01*
X171911440Y-95619387D01*
X171963450Y-95591588D01*
X171997994Y-95381614D01*
X172000000Y-95379608D01*
X172002006Y-95381614D01*
X172036550Y-95591588D01*
X172240826Y-95682458D01*
X172458905Y-95731731D01*
X172682406Y-95737511D01*
X172902740Y-95699577D01*
X173111440Y-95619387D01*
X173163450Y-95591588D01*
X173198561Y-95378166D01*
X172600000Y-94779605D01*
X172585858Y-94793748D01*
X172531768Y-94739658D01*
X172535379Y-94600000D01*
X172779605Y-94600000D01*
X172996723Y-94817118D01*
X173001704Y-94842160D01*
X173064286Y-94993247D01*
X173155142Y-95129222D01*
X173270778Y-95244858D01*
X173406753Y-95335714D01*
X173557840Y-95398296D01*
X173718232Y-95430200D01*
X173881768Y-95430200D01*
X174042160Y-95398296D01*
X174193247Y-95335714D01*
X174329222Y-95244858D01*
X174400000Y-95174080D01*
X174470778Y-95244858D01*
X174606753Y-95335714D01*
X174757840Y-95398296D01*
X174918232Y-95430200D01*
X175081768Y-95430200D01*
X175242160Y-95398296D01*
X175393247Y-95335714D01*
X175529222Y-95244858D01*
X175644858Y-95129222D01*
X175735714Y-94993247D01*
X175798296Y-94842160D01*
X175803277Y-94817118D01*
X176020395Y-94600000D01*
X175803277Y-94382882D01*
X175798296Y-94357840D01*
X175735714Y-94206753D01*
X175644858Y-94070778D01*
X175529222Y-93955142D01*
X175393247Y-93864286D01*
X175290759Y-93821834D01*
X175601439Y-93821834D01*
X176200000Y-94420395D01*
X176214143Y-94406253D01*
X176268232Y-94460342D01*
X176262489Y-94682406D01*
X176271742Y-94736148D01*
X176214143Y-94793748D01*
X176200000Y-94779605D01*
X175601439Y-95378166D01*
X175636550Y-95591588D01*
X175840826Y-95682458D01*
X176058905Y-95731731D01*
X176282406Y-95737511D01*
X176502740Y-95699577D01*
X176711440Y-95619387D01*
X176763450Y-95591588D01*
X176797994Y-95381614D01*
X176800000Y-95379608D01*
X176802006Y-95381614D01*
X176836550Y-95591588D01*
X177040826Y-95682458D01*
X177258905Y-95731731D01*
X177482406Y-95737511D01*
X177702740Y-95699577D01*
X177911440Y-95619387D01*
X177963450Y-95591588D01*
X177998561Y-95378166D01*
X177400000Y-94779605D01*
X177385858Y-94793748D01*
X177331768Y-94739658D01*
X177335379Y-94600000D01*
X177579605Y-94600000D01*
X177796723Y-94817118D01*
X177801704Y-94842160D01*
X177864286Y-94993247D01*
X177955142Y-95129222D01*
X178070778Y-95244858D01*
X178206753Y-95335714D01*
X178357840Y-95398296D01*
X178518232Y-95430200D01*
X178681768Y-95430200D01*
X178842160Y-95398296D01*
X178993247Y-95335714D01*
X179129222Y-95244858D01*
X179200000Y-95174080D01*
X179270778Y-95244858D01*
X179406753Y-95335714D01*
X179557840Y-95398296D01*
X179718232Y-95430200D01*
X179881768Y-95430200D01*
X180042160Y-95398296D01*
X180193247Y-95335714D01*
X180329222Y-95244858D01*
X180444858Y-95129222D01*
X180535714Y-94993247D01*
X180598296Y-94842160D01*
X180603277Y-94817118D01*
X180820395Y-94600000D01*
X180603277Y-94382882D01*
X180598296Y-94357840D01*
X180535714Y-94206753D01*
X180444858Y-94070778D01*
X180329222Y-93955142D01*
X180193247Y-93864286D01*
X180042160Y-93801704D01*
X179881768Y-93769800D01*
X179718232Y-93769800D01*
X179557840Y-93801704D01*
X179406753Y-93864286D01*
X179270778Y-93955142D01*
X179200000Y-94025920D01*
X179129222Y-93955142D01*
X178993247Y-93864286D01*
X178842160Y-93801704D01*
X178681768Y-93769800D01*
X178518232Y-93769800D01*
X178357840Y-93801704D01*
X178206753Y-93864286D01*
X178070778Y-93955142D01*
X177955142Y-94070778D01*
X177864286Y-94206753D01*
X177801704Y-94357840D01*
X177796723Y-94382882D01*
X177579605Y-94600000D01*
X177335379Y-94600000D01*
X177337511Y-94517594D01*
X177328258Y-94463852D01*
X177385858Y-94406253D01*
X177400000Y-94420395D01*
X177998561Y-93821834D01*
X177963450Y-93608412D01*
X177759174Y-93517542D01*
X177541095Y-93468269D01*
X177317594Y-93462489D01*
X177097260Y-93500423D01*
X176888560Y-93580613D01*
X176836550Y-93608412D01*
X176802006Y-93818386D01*
X176800000Y-93820392D01*
X176797994Y-93818386D01*
X176763450Y-93608412D01*
X176559174Y-93517542D01*
X176341095Y-93468269D01*
X176117594Y-93462489D01*
X175897260Y-93500423D01*
X175688560Y-93580613D01*
X175636550Y-93608412D01*
X175601439Y-93821834D01*
X175290759Y-93821834D01*
X175242160Y-93801704D01*
X175081768Y-93769800D01*
X174918232Y-93769800D01*
X174757840Y-93801704D01*
X174606753Y-93864286D01*
X174470778Y-93955142D01*
X174400000Y-94025920D01*
X174329222Y-93955142D01*
X174193247Y-93864286D01*
X174042160Y-93801704D01*
X173881768Y-93769800D01*
X173718232Y-93769800D01*
X173557840Y-93801704D01*
X173406753Y-93864286D01*
X173270778Y-93955142D01*
X173155142Y-94070778D01*
X173064286Y-94206753D01*
X173001704Y-94357840D01*
X172996723Y-94382882D01*
X172779605Y-94600000D01*
X172535379Y-94600000D01*
X172537511Y-94517594D01*
X172528258Y-94463852D01*
X172585858Y-94406253D01*
X172600000Y-94420395D01*
X173198561Y-93821834D01*
X173163450Y-93608412D01*
X172959174Y-93517542D01*
X172741095Y-93468269D01*
X172517594Y-93462489D01*
X172297260Y-93500423D01*
X172088560Y-93580613D01*
X172036550Y-93608412D01*
X172002006Y-93818386D01*
X172000000Y-93820392D01*
X171997994Y-93818386D01*
X171963450Y-93608412D01*
X171759174Y-93517542D01*
X171541095Y-93468269D01*
X171317594Y-93462489D01*
X171097260Y-93500423D01*
X170888560Y-93580613D01*
X170836550Y-93608412D01*
X170802006Y-93818386D01*
X170800000Y-93820392D01*
X170797994Y-93818386D01*
X170763450Y-93608412D01*
X170559174Y-93517542D01*
X170341095Y-93468269D01*
X170117594Y-93462489D01*
X169897260Y-93500423D01*
X169688560Y-93580613D01*
X169636550Y-93608412D01*
X169602006Y-93818386D01*
X169600000Y-93820392D01*
X169597994Y-93818386D01*
X169563450Y-93608412D01*
X169359174Y-93517542D01*
X169141095Y-93468269D01*
X168917594Y-93462489D01*
X168855200Y-93473231D01*
X168855200Y-88428082D01*
X171769800Y-88428082D01*
X171769800Y-88571918D01*
X171797861Y-88712991D01*
X171852905Y-88845879D01*
X171932817Y-88965475D01*
X172034525Y-89067183D01*
X172154121Y-89147095D01*
X172287009Y-89202139D01*
X172428082Y-89230200D01*
X172571918Y-89230200D01*
X172579761Y-89228640D01*
X172592592Y-89239170D01*
X172644763Y-89281987D01*
X172687217Y-89304678D01*
X172724191Y-89324441D01*
X172810373Y-89350585D01*
X172877540Y-89357200D01*
X172877549Y-89357200D01*
X172899999Y-89359411D01*
X172922449Y-89357200D01*
X174183899Y-89357200D01*
X174169800Y-89428082D01*
X174169800Y-89571918D01*
X174197861Y-89712991D01*
X174252905Y-89845879D01*
X174332817Y-89965475D01*
X174434525Y-90067183D01*
X174554121Y-90147095D01*
X174687009Y-90202139D01*
X174828082Y-90230200D01*
X174971918Y-90230200D01*
X175112991Y-90202139D01*
X175245879Y-90147095D01*
X175365475Y-90067183D01*
X175467183Y-89965475D01*
X175547095Y-89845879D01*
X175602139Y-89712991D01*
X175630200Y-89571918D01*
X175630200Y-89428082D01*
X175616101Y-89357200D01*
X177177550Y-89357200D01*
X177200000Y-89359411D01*
X177222450Y-89357200D01*
X177222460Y-89357200D01*
X177289627Y-89350585D01*
X177375809Y-89324441D01*
X177455236Y-89281987D01*
X177461446Y-89276891D01*
X177478082Y-89280200D01*
X177621918Y-89280200D01*
X177762991Y-89252139D01*
X177895879Y-89197095D01*
X178015475Y-89117183D01*
X178117183Y-89015475D01*
X178197095Y-88895879D01*
X178252139Y-88762991D01*
X178280200Y-88621918D01*
X178280200Y-88478082D01*
X178252139Y-88337009D01*
X178197095Y-88204121D01*
X178117183Y-88084525D01*
X178015475Y-87982817D01*
X177895879Y-87902905D01*
X177762991Y-87847861D01*
X177621918Y-87819800D01*
X177478082Y-87819800D01*
X177337009Y-87847861D01*
X177204121Y-87902905D01*
X177084525Y-87982817D01*
X176982817Y-88084525D01*
X176902905Y-88204121D01*
X176847861Y-88337009D01*
X176826818Y-88442800D01*
X174822460Y-88442800D01*
X174800000Y-88440588D01*
X174777540Y-88442800D01*
X173230200Y-88442800D01*
X173230200Y-88428082D01*
X173202139Y-88287009D01*
X173147095Y-88154121D01*
X173067183Y-88034525D01*
X172965475Y-87932817D01*
X172845879Y-87852905D01*
X172712991Y-87797861D01*
X172571918Y-87769800D01*
X172428082Y-87769800D01*
X172287009Y-87797861D01*
X172154121Y-87852905D01*
X172034525Y-87932817D01*
X171932817Y-88034525D01*
X171852905Y-88154121D01*
X171797861Y-88287009D01*
X171769800Y-88428082D01*
X168855200Y-88428082D01*
X168855200Y-86407000D01*
X169525000Y-86407000D01*
X169525000Y-86957000D01*
X169571585Y-87175987D01*
X169659997Y-87381678D01*
X169786839Y-87566169D01*
X169947236Y-87722369D01*
X170135024Y-87844276D01*
X170358126Y-87924119D01*
X170533000Y-87797954D01*
X170533000Y-86407000D01*
X169525000Y-86407000D01*
X168855200Y-86407000D01*
X168855200Y-85603000D01*
X169525000Y-85603000D01*
X169525000Y-86153000D01*
X170533000Y-86153000D01*
X170533000Y-84762046D01*
X170787000Y-84762046D01*
X170787000Y-86153000D01*
X170807000Y-86153000D01*
X170807000Y-86407000D01*
X170787000Y-86407000D01*
X170787000Y-87797954D01*
X170961874Y-87924119D01*
X171184976Y-87844276D01*
X171372764Y-87722369D01*
X171533161Y-87566169D01*
X171660003Y-87381678D01*
X171748415Y-87175987D01*
X171795000Y-86957000D01*
X171795000Y-86336990D01*
X171898885Y-86380021D01*
X172025468Y-86405200D01*
X172154532Y-86405200D01*
X172281115Y-86380021D01*
X172400353Y-86330631D01*
X172507666Y-86258927D01*
X172598927Y-86167666D01*
X172670631Y-86060353D01*
X172720021Y-85941115D01*
X172745200Y-85814532D01*
X172745200Y-85685468D01*
X177214800Y-85685468D01*
X177214800Y-85814532D01*
X177239979Y-85941115D01*
X177289369Y-86060353D01*
X177361073Y-86167666D01*
X177452334Y-86258927D01*
X177559647Y-86330631D01*
X177678885Y-86380021D01*
X177805468Y-86405200D01*
X177934532Y-86405200D01*
X178061115Y-86380021D01*
X178165000Y-86336990D01*
X178165000Y-86957000D01*
X178211585Y-87175987D01*
X178299997Y-87381678D01*
X178426839Y-87566169D01*
X178587236Y-87722369D01*
X178775024Y-87844276D01*
X178998126Y-87924119D01*
X179173000Y-87797954D01*
X179173000Y-86407000D01*
X179427000Y-86407000D01*
X179427000Y-87797954D01*
X179601874Y-87924119D01*
X179824976Y-87844276D01*
X180012764Y-87722369D01*
X180173161Y-87566169D01*
X180300003Y-87381678D01*
X180388415Y-87175987D01*
X180435000Y-86957000D01*
X180435000Y-86407000D01*
X179427000Y-86407000D01*
X179173000Y-86407000D01*
X179153000Y-86407000D01*
X179153000Y-86153000D01*
X179173000Y-86153000D01*
X179173000Y-84762046D01*
X179427000Y-84762046D01*
X179427000Y-86153000D01*
X180435000Y-86153000D01*
X180435000Y-85603000D01*
X180388415Y-85384013D01*
X180300003Y-85178322D01*
X180173161Y-84993831D01*
X180012764Y-84837631D01*
X179824976Y-84715724D01*
X179601874Y-84635881D01*
X179427000Y-84762046D01*
X179173000Y-84762046D01*
X178998126Y-84635881D01*
X178775024Y-84715724D01*
X178587236Y-84837631D01*
X178426839Y-84993831D01*
X178299997Y-85178322D01*
X178276292Y-85233473D01*
X178180353Y-85169369D01*
X178061115Y-85119979D01*
X177934532Y-85094800D01*
X177805468Y-85094800D01*
X177678885Y-85119979D01*
X177559647Y-85169369D01*
X177452334Y-85241073D01*
X177361073Y-85332334D01*
X177289369Y-85439647D01*
X177239979Y-85558885D01*
X177214800Y-85685468D01*
X172745200Y-85685468D01*
X172720021Y-85558885D01*
X172670631Y-85439647D01*
X172598927Y-85332334D01*
X172507666Y-85241073D01*
X172400353Y-85169369D01*
X172281115Y-85119979D01*
X172154532Y-85094800D01*
X172025468Y-85094800D01*
X171898885Y-85119979D01*
X171779647Y-85169369D01*
X171683708Y-85233473D01*
X171660003Y-85178322D01*
X171533161Y-84993831D01*
X171372764Y-84837631D01*
X171184976Y-84715724D01*
X170961874Y-84635881D01*
X170787000Y-84762046D01*
X170533000Y-84762046D01*
X170358126Y-84635881D01*
X170135024Y-84715724D01*
X169947236Y-84837631D01*
X169786839Y-84993831D01*
X169659997Y-85178322D01*
X169571585Y-85384013D01*
X169525000Y-85603000D01*
X168855200Y-85603000D01*
X168855200Y-82227000D01*
X169525000Y-82227000D01*
X169525000Y-82527000D01*
X169571585Y-82745987D01*
X169659997Y-82951678D01*
X169786839Y-83136169D01*
X169947236Y-83292369D01*
X170135024Y-83414276D01*
X170358126Y-83494119D01*
X170533000Y-83367954D01*
X170533000Y-82227000D01*
X170787000Y-82227000D01*
X170787000Y-83367954D01*
X170961874Y-83494119D01*
X171184976Y-83414276D01*
X171372764Y-83292369D01*
X171533161Y-83136169D01*
X171660003Y-82951678D01*
X171748415Y-82745987D01*
X171795000Y-82527000D01*
X171795000Y-82227000D01*
X178165000Y-82227000D01*
X178165000Y-82527000D01*
X178211585Y-82745987D01*
X178299997Y-82951678D01*
X178426839Y-83136169D01*
X178587236Y-83292369D01*
X178775024Y-83414276D01*
X178998126Y-83494119D01*
X179173000Y-83367954D01*
X179173000Y-82227000D01*
X179427000Y-82227000D01*
X179427000Y-83367954D01*
X179601874Y-83494119D01*
X179824976Y-83414276D01*
X180012764Y-83292369D01*
X180173161Y-83136169D01*
X180300003Y-82951678D01*
X180388415Y-82745987D01*
X180435000Y-82527000D01*
X180435000Y-82227000D01*
X179427000Y-82227000D01*
X179173000Y-82227000D01*
X178165000Y-82227000D01*
X171795000Y-82227000D01*
X170787000Y-82227000D01*
X170533000Y-82227000D01*
X169525000Y-82227000D01*
X168855200Y-82227000D01*
X168855200Y-81355200D01*
X169614058Y-81355200D01*
X169571585Y-81454013D01*
G36*
X152334525Y-104567183D02*
G01*
X152454121Y-104647095D01*
X152587009Y-104702139D01*
X152728082Y-104730200D01*
X152871918Y-104730200D01*
X153012991Y-104702139D01*
X153145879Y-104647095D01*
X153265475Y-104567183D01*
X153325458Y-104507200D01*
X156289912Y-104507200D01*
X157569800Y-105787089D01*
X157569800Y-105871918D01*
X157597861Y-106012991D01*
X157652905Y-106145879D01*
X157732817Y-106265475D01*
X157834525Y-106367183D01*
X157954121Y-106447095D01*
X158087009Y-106502139D01*
X158228082Y-106530200D01*
X158312912Y-106530200D01*
X159992801Y-108210090D01*
X159992800Y-108774542D01*
X159932817Y-108834525D01*
X159852905Y-108954121D01*
X159797861Y-109087009D01*
X159769800Y-109228082D01*
X159769800Y-109371918D01*
X159797861Y-109512991D01*
X159852905Y-109645879D01*
X159932817Y-109765475D01*
X159992801Y-109825459D01*
X159992800Y-116089911D01*
X158812912Y-117269800D01*
X158728082Y-117269800D01*
X158587009Y-117297861D01*
X158454121Y-117352905D01*
X158334525Y-117432817D01*
X158232817Y-117534525D01*
X158152905Y-117654121D01*
X158097861Y-117787009D01*
X158069800Y-117928082D01*
X158069800Y-118012911D01*
X157389912Y-118692800D01*
X147725458Y-118692800D01*
X147665475Y-118632817D01*
X147545879Y-118552905D01*
X147412991Y-118497861D01*
X147271918Y-118469800D01*
X147187089Y-118469800D01*
X145707200Y-116989912D01*
X145707200Y-110225458D01*
X145767183Y-110165475D01*
X145847095Y-110045879D01*
X145902139Y-109912991D01*
X145930200Y-109771918D01*
X145930200Y-109628082D01*
X145902139Y-109487009D01*
X145847095Y-109354121D01*
X145767183Y-109234525D01*
X145707200Y-109174542D01*
X145707200Y-108910088D01*
X150110090Y-104507200D01*
X152274542Y-104507200D01*
X152334525Y-104567183D01*
G37*
X152334525Y-104567183D02*
X152454121Y-104647095D01*
X152587009Y-104702139D01*
X152728082Y-104730200D01*
X152871918Y-104730200D01*
X153012991Y-104702139D01*
X153145879Y-104647095D01*
X153265475Y-104567183D01*
X153325458Y-104507200D01*
X156289912Y-104507200D01*
X157569800Y-105787089D01*
X157569800Y-105871918D01*
X157597861Y-106012991D01*
X157652905Y-106145879D01*
X157732817Y-106265475D01*
X157834525Y-106367183D01*
X157954121Y-106447095D01*
X158087009Y-106502139D01*
X158228082Y-106530200D01*
X158312912Y-106530200D01*
X159992801Y-108210090D01*
X159992800Y-108774542D01*
X159932817Y-108834525D01*
X159852905Y-108954121D01*
X159797861Y-109087009D01*
X159769800Y-109228082D01*
X159769800Y-109371918D01*
X159797861Y-109512991D01*
X159852905Y-109645879D01*
X159932817Y-109765475D01*
X159992801Y-109825459D01*
X159992800Y-116089911D01*
X158812912Y-117269800D01*
X158728082Y-117269800D01*
X158587009Y-117297861D01*
X158454121Y-117352905D01*
X158334525Y-117432817D01*
X158232817Y-117534525D01*
X158152905Y-117654121D01*
X158097861Y-117787009D01*
X158069800Y-117928082D01*
X158069800Y-118012911D01*
X157389912Y-118692800D01*
X147725458Y-118692800D01*
X147665475Y-118632817D01*
X147545879Y-118552905D01*
X147412991Y-118497861D01*
X147271918Y-118469800D01*
X147187089Y-118469800D01*
X145707200Y-116989912D01*
X145707200Y-110225458D01*
X145767183Y-110165475D01*
X145847095Y-110045879D01*
X145902139Y-109912991D01*
X145930200Y-109771918D01*
X145930200Y-109628082D01*
X145902139Y-109487009D01*
X145847095Y-109354121D01*
X145767183Y-109234525D01*
X145707200Y-109174542D01*
X145707200Y-108910088D01*
X150110090Y-104507200D01*
X152274542Y-104507200D01*
X152334525Y-104567183D01*
G36*
X132275147Y-100024853D02*
G01*
X132344764Y-100081987D01*
X132424191Y-100124441D01*
X132510373Y-100150585D01*
X132577540Y-100157200D01*
X132577548Y-100157200D01*
X132600000Y-100159411D01*
X132622452Y-100157200D01*
X132765509Y-100157200D01*
X132764578Y-100160270D01*
X132758203Y-100225000D01*
X132758203Y-101644800D01*
X130041797Y-101644800D01*
X130041797Y-100225000D01*
X130035422Y-100160270D01*
X130016540Y-100098027D01*
X129985879Y-100040663D01*
X129964334Y-100014410D01*
X132266577Y-100014410D01*
X132275147Y-100024853D01*
G37*
X132275147Y-100024853D02*
X132344764Y-100081987D01*
X132424191Y-100124441D01*
X132510373Y-100150585D01*
X132577540Y-100157200D01*
X132577548Y-100157200D01*
X132600000Y-100159411D01*
X132622452Y-100157200D01*
X132765509Y-100157200D01*
X132764578Y-100160270D01*
X132758203Y-100225000D01*
X132758203Y-101644800D01*
X130041797Y-101644800D01*
X130041797Y-100225000D01*
X130035422Y-100160270D01*
X130016540Y-100098027D01*
X129985879Y-100040663D01*
X129964334Y-100014410D01*
X132266577Y-100014410D01*
X132275147Y-100024853D01*
G36*
X121783748Y-100115858D02*
G01*
X121769605Y-100130000D01*
X121783748Y-100144143D01*
X121604143Y-100323748D01*
X121590000Y-100309605D01*
X121575858Y-100323748D01*
X121396253Y-100144143D01*
X121410395Y-100130000D01*
X121396253Y-100115858D01*
X121575858Y-99936253D01*
X121590000Y-99950395D01*
X121604143Y-99936253D01*
X121783748Y-100115858D01*
G37*
X121783748Y-100115858D02*
X121769605Y-100130000D01*
X121783748Y-100144143D01*
X121604143Y-100323748D01*
X121590000Y-100309605D01*
X121575858Y-100323748D01*
X121396253Y-100144143D01*
X121410395Y-100130000D01*
X121396253Y-100115858D01*
X121575858Y-99936253D01*
X121590000Y-99950395D01*
X121604143Y-99936253D01*
X121783748Y-100115858D01*
G36*
X98081269Y-85423000D02*
G01*
X99373000Y-85423000D01*
X99373000Y-85255200D01*
X99627000Y-85255200D01*
X99627000Y-85423000D01*
X100918731Y-85423000D01*
X101028536Y-85255200D01*
X102791464Y-85255200D01*
X102901269Y-85423000D01*
X104193000Y-85423000D01*
X104193000Y-85255200D01*
X104447000Y-85255200D01*
X104447000Y-85423000D01*
X104467000Y-85423000D01*
X104467000Y-85677000D01*
X104447000Y-85677000D01*
X104447000Y-86785000D01*
X104797000Y-86785000D01*
X105035496Y-86736493D01*
X105244800Y-86648740D01*
X105244801Y-91751260D01*
X105035496Y-91663507D01*
X104797000Y-91615000D01*
X104447000Y-91615000D01*
X104447000Y-92723000D01*
X104467000Y-92723000D01*
X104467000Y-92977000D01*
X104447000Y-92977000D01*
X104447000Y-93344800D01*
X104193000Y-93344800D01*
X104193000Y-92977000D01*
X102901269Y-92977000D01*
X102776538Y-93167609D01*
X102780409Y-93205282D01*
X102837498Y-93344800D01*
X100982502Y-93344800D01*
X101039591Y-93205282D01*
X101043462Y-93167609D01*
X100918731Y-92977000D01*
X99627000Y-92977000D01*
X99627000Y-93344800D01*
X99373000Y-93344800D01*
X99373000Y-92977000D01*
X98081269Y-92977000D01*
X97956538Y-93167609D01*
X97960409Y-93205282D01*
X98017498Y-93344800D01*
X95817443Y-93344800D01*
X95800000Y-93343082D01*
X95782557Y-93344800D01*
X95730369Y-93349940D01*
X95663413Y-93370251D01*
X95601707Y-93403234D01*
X95575450Y-93424782D01*
X95559174Y-93417542D01*
X95341095Y-93368269D01*
X95117594Y-93362489D01*
X94897260Y-93400423D01*
X94688560Y-93480613D01*
X94636550Y-93508412D01*
X94601439Y-93721834D01*
X95200000Y-94320395D01*
X95214143Y-94306253D01*
X95393748Y-94485858D01*
X95379605Y-94500000D01*
X95393748Y-94514143D01*
X95214143Y-94693748D01*
X95200000Y-94679605D01*
X94601439Y-95278166D01*
X94636550Y-95491588D01*
X94840826Y-95582458D01*
X95058905Y-95631731D01*
X95282406Y-95637511D01*
X95502740Y-95599577D01*
X95711440Y-95519387D01*
X95763450Y-95491588D01*
X95785835Y-95355523D01*
X95800000Y-95356918D01*
X95817443Y-95355200D01*
X95875592Y-95355200D01*
X95916211Y-95395819D01*
X95956830Y-95355200D01*
X101356274Y-95355200D01*
X105305326Y-96342463D01*
X105330369Y-96350060D01*
X105356589Y-96352642D01*
X105382650Y-96356496D01*
X105408781Y-96355200D01*
X120351630Y-96355200D01*
X120021241Y-96685590D01*
X94578761Y-96685590D01*
X93257200Y-95364031D01*
X93257200Y-95192982D01*
X93329222Y-95144858D01*
X93400000Y-95074080D01*
X93470778Y-95144858D01*
X93606753Y-95235714D01*
X93757840Y-95298296D01*
X93918232Y-95330200D01*
X94081768Y-95330200D01*
X94242160Y-95298296D01*
X94393247Y-95235714D01*
X94529222Y-95144858D01*
X94644858Y-95029222D01*
X94735714Y-94893247D01*
X94798296Y-94742160D01*
X94803277Y-94717118D01*
X95020395Y-94500000D01*
X94803277Y-94282882D01*
X94798296Y-94257840D01*
X94735714Y-94106753D01*
X94644858Y-93970778D01*
X94529222Y-93855142D01*
X94393247Y-93764286D01*
X94242160Y-93701704D01*
X94081768Y-93669800D01*
X93918232Y-93669800D01*
X93757840Y-93701704D01*
X93606753Y-93764286D01*
X93470778Y-93855142D01*
X93400000Y-93925920D01*
X93329222Y-93855142D01*
X93257200Y-93807018D01*
X93257200Y-92335969D01*
X93412674Y-92180496D01*
X98111476Y-92180496D01*
X98052579Y-92269467D01*
X97960409Y-92494718D01*
X97956538Y-92532391D01*
X98081269Y-92723000D01*
X99373000Y-92723000D01*
X99373000Y-92703000D01*
X99627000Y-92703000D01*
X99627000Y-92723000D01*
X100918731Y-92723000D01*
X101043462Y-92532391D01*
X102776538Y-92532391D01*
X102901269Y-92723000D01*
X104193000Y-92723000D01*
X104193000Y-91615000D01*
X103843000Y-91615000D01*
X103604504Y-91663507D01*
X103380054Y-91757610D01*
X103178275Y-91893693D01*
X103006922Y-92066526D01*
X102872579Y-92269467D01*
X102780409Y-92494718D01*
X102776538Y-92532391D01*
X101043462Y-92532391D01*
X101039591Y-92494718D01*
X100947421Y-92269467D01*
X100813078Y-92066526D01*
X100641725Y-91893693D01*
X100439946Y-91757610D01*
X100215496Y-91663507D01*
X100024595Y-91624680D01*
X100407408Y-91241868D01*
X100424853Y-91227551D01*
X100481987Y-91157934D01*
X100524441Y-91078507D01*
X100550585Y-90992325D01*
X100557200Y-90925158D01*
X100557200Y-90925148D01*
X100559411Y-90902698D01*
X100557200Y-90880248D01*
X100557200Y-90753116D01*
X100661095Y-90683696D01*
X100783696Y-90561095D01*
X100880023Y-90416931D01*
X100946374Y-90256745D01*
X100980200Y-90086692D01*
X100980200Y-89913308D01*
X100946374Y-89743255D01*
X100880023Y-89583069D01*
X100783696Y-89438905D01*
X100661095Y-89316304D01*
X100516931Y-89219977D01*
X100468702Y-89200000D01*
X100516931Y-89180023D01*
X100661095Y-89083696D01*
X100783696Y-88961095D01*
X100880023Y-88816931D01*
X100946374Y-88656745D01*
X100980200Y-88486692D01*
X100980200Y-88313308D01*
X100946374Y-88143255D01*
X100880023Y-87983069D01*
X100783696Y-87838905D01*
X100661095Y-87716304D01*
X100516931Y-87619977D01*
X100356745Y-87553626D01*
X100186692Y-87519800D01*
X100088009Y-87519800D01*
X100088016Y-87519579D01*
X100049500Y-87289354D01*
X99966808Y-87071066D01*
X99932478Y-87006841D01*
X99713982Y-86965626D01*
X99831345Y-86848263D01*
X99768082Y-86785000D01*
X99977000Y-86785000D01*
X100215496Y-86736493D01*
X100439946Y-86642390D01*
X100641725Y-86506307D01*
X100813078Y-86333474D01*
X100947421Y-86130533D01*
X101039591Y-85905282D01*
X101043462Y-85867609D01*
X102776538Y-85867609D01*
X102780409Y-85905282D01*
X102872579Y-86130533D01*
X103006922Y-86333474D01*
X103178275Y-86506307D01*
X103380054Y-86642390D01*
X103604504Y-86736493D01*
X103843000Y-86785000D01*
X104193000Y-86785000D01*
X104193000Y-85677000D01*
X102901269Y-85677000D01*
X102776538Y-85867609D01*
X101043462Y-85867609D01*
X100918731Y-85677000D01*
X99627000Y-85677000D01*
X99627000Y-85697000D01*
X99373000Y-85697000D01*
X99373000Y-85677000D01*
X98081269Y-85677000D01*
X97956538Y-85867609D01*
X97960409Y-85905282D01*
X98052579Y-86130533D01*
X98186922Y-86333474D01*
X98358275Y-86506307D01*
X98388402Y-86526625D01*
X98371066Y-86533192D01*
X98306841Y-86567522D01*
X98265626Y-86786021D01*
X98900000Y-87420395D01*
X98914143Y-87406253D01*
X99093748Y-87585858D01*
X99079605Y-87600000D01*
X99093748Y-87614143D01*
X98914143Y-87793748D01*
X98900000Y-87779605D01*
X98265626Y-88413979D01*
X98293493Y-88561716D01*
X98216304Y-88638905D01*
X98146884Y-88742800D01*
X94022452Y-88742800D01*
X94000000Y-88740589D01*
X93977548Y-88742800D01*
X93977540Y-88742800D01*
X93910373Y-88749415D01*
X93824190Y-88775559D01*
X93744764Y-88818013D01*
X93692592Y-88860829D01*
X93692586Y-88860835D01*
X93675147Y-88875147D01*
X93660835Y-88892586D01*
X91292597Y-91260826D01*
X91275147Y-91275147D01*
X91218013Y-91344765D01*
X91175559Y-91424192D01*
X91149415Y-91510374D01*
X91142800Y-91577541D01*
X91142800Y-91577550D01*
X91140589Y-91600000D01*
X91142800Y-91622450D01*
X91142801Y-92677531D01*
X91142800Y-92677541D01*
X91142801Y-93630771D01*
X91116211Y-93604181D01*
X90998561Y-93721831D01*
X90963450Y-93508412D01*
X90759174Y-93417542D01*
X90541095Y-93368269D01*
X90317594Y-93362489D01*
X90097260Y-93400423D01*
X89888560Y-93480613D01*
X89836550Y-93508412D01*
X89802006Y-93718386D01*
X89800000Y-93720392D01*
X89797994Y-93718386D01*
X89763450Y-93508412D01*
X89559174Y-93417542D01*
X89341354Y-93368327D01*
X91312410Y-87680421D01*
X97711984Y-87680421D01*
X97750500Y-87910646D01*
X97833192Y-88128934D01*
X97867522Y-88193159D01*
X98086021Y-88234374D01*
X98720395Y-87600000D01*
X98086021Y-86965626D01*
X97867522Y-87006841D01*
X97771641Y-87219665D01*
X97719122Y-87447105D01*
X97711984Y-87680421D01*
X91312410Y-87680421D01*
X92152833Y-85255200D01*
X97971464Y-85255200D01*
X98081269Y-85423000D01*
G37*
X98081269Y-85423000D02*
X99373000Y-85423000D01*
X99373000Y-85255200D01*
X99627000Y-85255200D01*
X99627000Y-85423000D01*
X100918731Y-85423000D01*
X101028536Y-85255200D01*
X102791464Y-85255200D01*
X102901269Y-85423000D01*
X104193000Y-85423000D01*
X104193000Y-85255200D01*
X104447000Y-85255200D01*
X104447000Y-85423000D01*
X104467000Y-85423000D01*
X104467000Y-85677000D01*
X104447000Y-85677000D01*
X104447000Y-86785000D01*
X104797000Y-86785000D01*
X105035496Y-86736493D01*
X105244800Y-86648740D01*
X105244801Y-91751260D01*
X105035496Y-91663507D01*
X104797000Y-91615000D01*
X104447000Y-91615000D01*
X104447000Y-92723000D01*
X104467000Y-92723000D01*
X104467000Y-92977000D01*
X104447000Y-92977000D01*
X104447000Y-93344800D01*
X104193000Y-93344800D01*
X104193000Y-92977000D01*
X102901269Y-92977000D01*
X102776538Y-93167609D01*
X102780409Y-93205282D01*
X102837498Y-93344800D01*
X100982502Y-93344800D01*
X101039591Y-93205282D01*
X101043462Y-93167609D01*
X100918731Y-92977000D01*
X99627000Y-92977000D01*
X99627000Y-93344800D01*
X99373000Y-93344800D01*
X99373000Y-92977000D01*
X98081269Y-92977000D01*
X97956538Y-93167609D01*
X97960409Y-93205282D01*
X98017498Y-93344800D01*
X95817443Y-93344800D01*
X95800000Y-93343082D01*
X95782557Y-93344800D01*
X95730369Y-93349940D01*
X95663413Y-93370251D01*
X95601707Y-93403234D01*
X95575450Y-93424782D01*
X95559174Y-93417542D01*
X95341095Y-93368269D01*
X95117594Y-93362489D01*
X94897260Y-93400423D01*
X94688560Y-93480613D01*
X94636550Y-93508412D01*
X94601439Y-93721834D01*
X95200000Y-94320395D01*
X95214143Y-94306253D01*
X95393748Y-94485858D01*
X95379605Y-94500000D01*
X95393748Y-94514143D01*
X95214143Y-94693748D01*
X95200000Y-94679605D01*
X94601439Y-95278166D01*
X94636550Y-95491588D01*
X94840826Y-95582458D01*
X95058905Y-95631731D01*
X95282406Y-95637511D01*
X95502740Y-95599577D01*
X95711440Y-95519387D01*
X95763450Y-95491588D01*
X95785835Y-95355523D01*
X95800000Y-95356918D01*
X95817443Y-95355200D01*
X95875592Y-95355200D01*
X95916211Y-95395819D01*
X95956830Y-95355200D01*
X101356274Y-95355200D01*
X105305326Y-96342463D01*
X105330369Y-96350060D01*
X105356589Y-96352642D01*
X105382650Y-96356496D01*
X105408781Y-96355200D01*
X120351630Y-96355200D01*
X120021241Y-96685590D01*
X94578761Y-96685590D01*
X93257200Y-95364031D01*
X93257200Y-95192982D01*
X93329222Y-95144858D01*
X93400000Y-95074080D01*
X93470778Y-95144858D01*
X93606753Y-95235714D01*
X93757840Y-95298296D01*
X93918232Y-95330200D01*
X94081768Y-95330200D01*
X94242160Y-95298296D01*
X94393247Y-95235714D01*
X94529222Y-95144858D01*
X94644858Y-95029222D01*
X94735714Y-94893247D01*
X94798296Y-94742160D01*
X94803277Y-94717118D01*
X95020395Y-94500000D01*
X94803277Y-94282882D01*
X94798296Y-94257840D01*
X94735714Y-94106753D01*
X94644858Y-93970778D01*
X94529222Y-93855142D01*
X94393247Y-93764286D01*
X94242160Y-93701704D01*
X94081768Y-93669800D01*
X93918232Y-93669800D01*
X93757840Y-93701704D01*
X93606753Y-93764286D01*
X93470778Y-93855142D01*
X93400000Y-93925920D01*
X93329222Y-93855142D01*
X93257200Y-93807018D01*
X93257200Y-92335969D01*
X93412674Y-92180496D01*
X98111476Y-92180496D01*
X98052579Y-92269467D01*
X97960409Y-92494718D01*
X97956538Y-92532391D01*
X98081269Y-92723000D01*
X99373000Y-92723000D01*
X99373000Y-92703000D01*
X99627000Y-92703000D01*
X99627000Y-92723000D01*
X100918731Y-92723000D01*
X101043462Y-92532391D01*
X102776538Y-92532391D01*
X102901269Y-92723000D01*
X104193000Y-92723000D01*
X104193000Y-91615000D01*
X103843000Y-91615000D01*
X103604504Y-91663507D01*
X103380054Y-91757610D01*
X103178275Y-91893693D01*
X103006922Y-92066526D01*
X102872579Y-92269467D01*
X102780409Y-92494718D01*
X102776538Y-92532391D01*
X101043462Y-92532391D01*
X101039591Y-92494718D01*
X100947421Y-92269467D01*
X100813078Y-92066526D01*
X100641725Y-91893693D01*
X100439946Y-91757610D01*
X100215496Y-91663507D01*
X100024595Y-91624680D01*
X100407408Y-91241868D01*
X100424853Y-91227551D01*
X100481987Y-91157934D01*
X100524441Y-91078507D01*
X100550585Y-90992325D01*
X100557200Y-90925158D01*
X100557200Y-90925148D01*
X100559411Y-90902698D01*
X100557200Y-90880248D01*
X100557200Y-90753116D01*
X100661095Y-90683696D01*
X100783696Y-90561095D01*
X100880023Y-90416931D01*
X100946374Y-90256745D01*
X100980200Y-90086692D01*
X100980200Y-89913308D01*
X100946374Y-89743255D01*
X100880023Y-89583069D01*
X100783696Y-89438905D01*
X100661095Y-89316304D01*
X100516931Y-89219977D01*
X100468702Y-89200000D01*
X100516931Y-89180023D01*
X100661095Y-89083696D01*
X100783696Y-88961095D01*
X100880023Y-88816931D01*
X100946374Y-88656745D01*
X100980200Y-88486692D01*
X100980200Y-88313308D01*
X100946374Y-88143255D01*
X100880023Y-87983069D01*
X100783696Y-87838905D01*
X100661095Y-87716304D01*
X100516931Y-87619977D01*
X100356745Y-87553626D01*
X100186692Y-87519800D01*
X100088009Y-87519800D01*
X100088016Y-87519579D01*
X100049500Y-87289354D01*
X99966808Y-87071066D01*
X99932478Y-87006841D01*
X99713982Y-86965626D01*
X99831345Y-86848263D01*
X99768082Y-86785000D01*
X99977000Y-86785000D01*
X100215496Y-86736493D01*
X100439946Y-86642390D01*
X100641725Y-86506307D01*
X100813078Y-86333474D01*
X100947421Y-86130533D01*
X101039591Y-85905282D01*
X101043462Y-85867609D01*
X102776538Y-85867609D01*
X102780409Y-85905282D01*
X102872579Y-86130533D01*
X103006922Y-86333474D01*
X103178275Y-86506307D01*
X103380054Y-86642390D01*
X103604504Y-86736493D01*
X103843000Y-86785000D01*
X104193000Y-86785000D01*
X104193000Y-85677000D01*
X102901269Y-85677000D01*
X102776538Y-85867609D01*
X101043462Y-85867609D01*
X100918731Y-85677000D01*
X99627000Y-85677000D01*
X99627000Y-85697000D01*
X99373000Y-85697000D01*
X99373000Y-85677000D01*
X98081269Y-85677000D01*
X97956538Y-85867609D01*
X97960409Y-85905282D01*
X98052579Y-86130533D01*
X98186922Y-86333474D01*
X98358275Y-86506307D01*
X98388402Y-86526625D01*
X98371066Y-86533192D01*
X98306841Y-86567522D01*
X98265626Y-86786021D01*
X98900000Y-87420395D01*
X98914143Y-87406253D01*
X99093748Y-87585858D01*
X99079605Y-87600000D01*
X99093748Y-87614143D01*
X98914143Y-87793748D01*
X98900000Y-87779605D01*
X98265626Y-88413979D01*
X98293493Y-88561716D01*
X98216304Y-88638905D01*
X98146884Y-88742800D01*
X94022452Y-88742800D01*
X94000000Y-88740589D01*
X93977548Y-88742800D01*
X93977540Y-88742800D01*
X93910373Y-88749415D01*
X93824190Y-88775559D01*
X93744764Y-88818013D01*
X93692592Y-88860829D01*
X93692586Y-88860835D01*
X93675147Y-88875147D01*
X93660835Y-88892586D01*
X91292597Y-91260826D01*
X91275147Y-91275147D01*
X91218013Y-91344765D01*
X91175559Y-91424192D01*
X91149415Y-91510374D01*
X91142800Y-91577541D01*
X91142800Y-91577550D01*
X91140589Y-91600000D01*
X91142800Y-91622450D01*
X91142801Y-92677531D01*
X91142800Y-92677541D01*
X91142801Y-93630771D01*
X91116211Y-93604181D01*
X90998561Y-93721831D01*
X90963450Y-93508412D01*
X90759174Y-93417542D01*
X90541095Y-93368269D01*
X90317594Y-93362489D01*
X90097260Y-93400423D01*
X89888560Y-93480613D01*
X89836550Y-93508412D01*
X89802006Y-93718386D01*
X89800000Y-93720392D01*
X89797994Y-93718386D01*
X89763450Y-93508412D01*
X89559174Y-93417542D01*
X89341354Y-93368327D01*
X91312410Y-87680421D01*
X97711984Y-87680421D01*
X97750500Y-87910646D01*
X97833192Y-88128934D01*
X97867522Y-88193159D01*
X98086021Y-88234374D01*
X98720395Y-87600000D01*
X98086021Y-86965626D01*
X97867522Y-87006841D01*
X97771641Y-87219665D01*
X97719122Y-87447105D01*
X97711984Y-87680421D01*
X91312410Y-87680421D01*
X92152833Y-85255200D01*
X97971464Y-85255200D01*
X98081269Y-85423000D01*
G36*
X169068232Y-94460342D02*
G01*
X169062489Y-94682406D01*
X169071742Y-94736148D01*
X169014143Y-94793748D01*
X169000000Y-94779605D01*
X168855200Y-94924405D01*
X168855200Y-94536910D01*
X168985858Y-94406253D01*
X169000000Y-94420395D01*
X169014143Y-94406253D01*
X169068232Y-94460342D01*
G37*
X169068232Y-94460342D02*
X169062489Y-94682406D01*
X169071742Y-94736148D01*
X169014143Y-94793748D01*
X169000000Y-94779605D01*
X168855200Y-94924405D01*
X168855200Y-94536910D01*
X168985858Y-94406253D01*
X169000000Y-94420395D01*
X169014143Y-94406253D01*
X169068232Y-94460342D01*
G36*
X171468232Y-94460342D02*
G01*
X171462489Y-94682406D01*
X171471742Y-94736148D01*
X171414143Y-94793748D01*
X171400000Y-94779605D01*
X171385858Y-94793748D01*
X171331768Y-94739658D01*
X171337511Y-94517594D01*
X171328258Y-94463852D01*
X171385858Y-94406253D01*
X171400000Y-94420395D01*
X171414143Y-94406253D01*
X171468232Y-94460342D01*
G37*
X171468232Y-94460342D02*
X171462489Y-94682406D01*
X171471742Y-94736148D01*
X171414143Y-94793748D01*
X171400000Y-94779605D01*
X171385858Y-94793748D01*
X171331768Y-94739658D01*
X171337511Y-94517594D01*
X171328258Y-94463852D01*
X171385858Y-94406253D01*
X171400000Y-94420395D01*
X171414143Y-94406253D01*
X171468232Y-94460342D01*
G36*
X170268232Y-94460342D02*
G01*
X170262489Y-94682406D01*
X170271742Y-94736148D01*
X170214143Y-94793748D01*
X170200000Y-94779605D01*
X170185858Y-94793748D01*
X170131768Y-94739658D01*
X170137511Y-94517594D01*
X170128258Y-94463852D01*
X170185858Y-94406253D01*
X170200000Y-94420395D01*
X170214143Y-94406253D01*
X170268232Y-94460342D01*
G37*
X170268232Y-94460342D02*
X170262489Y-94682406D01*
X170271742Y-94736148D01*
X170214143Y-94793748D01*
X170200000Y-94779605D01*
X170185858Y-94793748D01*
X170131768Y-94739658D01*
X170137511Y-94517594D01*
X170128258Y-94463852D01*
X170185858Y-94406253D01*
X170200000Y-94420395D01*
X170214143Y-94406253D01*
X170268232Y-94460342D01*
G36*
X89200000Y-94320395D02*
G01*
X89214143Y-94306253D01*
X89268232Y-94360342D01*
X89262489Y-94582406D01*
X89271742Y-94636148D01*
X89214143Y-94693748D01*
X89200000Y-94679605D01*
X89185858Y-94693748D01*
X89006253Y-94514143D01*
X89020395Y-94500000D01*
X88967515Y-94447120D01*
X89059958Y-94180353D01*
X89200000Y-94320395D01*
G37*
X89200000Y-94320395D02*
X89214143Y-94306253D01*
X89268232Y-94360342D01*
X89262489Y-94582406D01*
X89271742Y-94636148D01*
X89214143Y-94693748D01*
X89200000Y-94679605D01*
X89185858Y-94693748D01*
X89006253Y-94514143D01*
X89020395Y-94500000D01*
X88967515Y-94447120D01*
X89059958Y-94180353D01*
X89200000Y-94320395D01*
G36*
X98216304Y-89761095D02*
G01*
X98338905Y-89883696D01*
X98483069Y-89980023D01*
X98531298Y-90000000D01*
X98483069Y-90019977D01*
X98338905Y-90116304D01*
X98216304Y-90238905D01*
X98119977Y-90383069D01*
X98053626Y-90543255D01*
X98019800Y-90713308D01*
X98019800Y-90886692D01*
X98053626Y-91056745D01*
X98119977Y-91216931D01*
X98152828Y-91266096D01*
X93245746Y-91266096D01*
X93223296Y-91263885D01*
X93200846Y-91266096D01*
X93200836Y-91266096D01*
X93133669Y-91272711D01*
X93047487Y-91298855D01*
X92968060Y-91341309D01*
X92898443Y-91398443D01*
X92884126Y-91415888D01*
X92492592Y-91807423D01*
X92475148Y-91821739D01*
X92460831Y-91839184D01*
X92460830Y-91839185D01*
X92418013Y-91891357D01*
X92392457Y-91939170D01*
X92375560Y-91970783D01*
X92352091Y-92048149D01*
X92349416Y-92056966D01*
X92340589Y-92146592D01*
X92342801Y-92169052D01*
X92342800Y-93807018D01*
X92270778Y-93855142D01*
X92200000Y-93925920D01*
X92129222Y-93855142D01*
X92057200Y-93807018D01*
X92057200Y-91789377D01*
X94189379Y-89657200D01*
X98146884Y-89657200D01*
X98216304Y-89761095D01*
G37*
X98216304Y-89761095D02*
X98338905Y-89883696D01*
X98483069Y-89980023D01*
X98531298Y-90000000D01*
X98483069Y-90019977D01*
X98338905Y-90116304D01*
X98216304Y-90238905D01*
X98119977Y-90383069D01*
X98053626Y-90543255D01*
X98019800Y-90713308D01*
X98019800Y-90886692D01*
X98053626Y-91056745D01*
X98119977Y-91216931D01*
X98152828Y-91266096D01*
X93245746Y-91266096D01*
X93223296Y-91263885D01*
X93200846Y-91266096D01*
X93200836Y-91266096D01*
X93133669Y-91272711D01*
X93047487Y-91298855D01*
X92968060Y-91341309D01*
X92898443Y-91398443D01*
X92884126Y-91415888D01*
X92492592Y-91807423D01*
X92475148Y-91821739D01*
X92460831Y-91839184D01*
X92460830Y-91839185D01*
X92418013Y-91891357D01*
X92392457Y-91939170D01*
X92375560Y-91970783D01*
X92352091Y-92048149D01*
X92349416Y-92056966D01*
X92340589Y-92146592D01*
X92342801Y-92169052D01*
X92342800Y-93807018D01*
X92270778Y-93855142D01*
X92200000Y-93925920D01*
X92129222Y-93855142D01*
X92057200Y-93807018D01*
X92057200Y-91789377D01*
X94189379Y-89657200D01*
X98146884Y-89657200D01*
X98216304Y-89761095D01*
%TD*%
M02*
