%TF.GenerationSoftware,KiCad,Pcbnew,(5.1.6)-1*%
%TF.CreationDate,2022-02-24T21:40:28-06:00*%
%TF.ProjectId,Pikatea R26 PCB,50696b61-7465-4612-9052-323620504342,rev?*%
%TF.SameCoordinates,Original*%
%TF.FileFunction,Profile,NP*%
%FSLAX46Y46*%
G04 Gerber Fmt 4.6, Leading zero omitted, Abs format (unit mm)*
G04 Created by KiCad (PCBNEW (5.1.6)-1) date 2022-02-24 21:40:28*
%MOMM*%
%LPD*%
G01*
G04 APERTURE LIST*
%TA.AperFunction,Profile*%
%ADD10C,0.050000*%
%TD*%
G04 APERTURE END LIST*
D10*
X101400000Y-95000000D02*
X105400000Y-96000000D01*
X101400000Y-95000000D02*
X95800000Y-95000000D01*
X154900000Y-96000000D02*
X160500000Y-95000000D01*
X105400000Y-96000000D02*
X154900000Y-96000000D01*
X124700000Y-102000000D02*
X124700000Y-118200000D01*
X138100000Y-102000000D02*
X124700000Y-102000000D01*
X138100000Y-118200000D02*
X138100000Y-102000000D01*
X124700000Y-118200000D02*
X138100000Y-118200000D01*
X91900000Y-84900000D02*
X88400000Y-95000000D01*
X88400000Y-95000000D02*
X72300000Y-95000000D01*
X190500000Y-95000000D02*
X190500000Y-126900000D01*
X181500000Y-95000000D02*
X190500000Y-95000000D01*
X181500000Y-81000000D02*
X181500000Y-95000000D01*
X168500000Y-81000000D02*
X181500000Y-81000000D01*
X168500000Y-95000000D02*
X168500000Y-81000000D01*
X160500000Y-95000000D02*
X168500000Y-95000000D01*
X95800000Y-93700000D02*
X95800000Y-95000000D01*
X105600000Y-93700000D02*
X95800000Y-93700000D01*
X105600000Y-84900000D02*
X105600000Y-93700000D01*
X105600000Y-84900000D02*
X91900000Y-84900000D01*
X72300000Y-126900000D02*
X72300000Y-95000000D01*
X190500000Y-126900000D02*
X72300000Y-126900000D01*
M02*
