M48
; DRILL file {KiCad (5.1.6)-1} date 02/02/22 11:22:06
; FORMAT={-:-/ absolute / inch / decimal}
; #@! TF.CreationDate,2022-02-02T11:22:06-06:00
; #@! TF.GenerationSoftware,Kicad,Pcbnew,(5.1.6)-1
; #@! TF.FileFunction,Plated,1,2,PTH
FMAT,2
INCH
T1C0.0157
T2C0.0236
T3C0.0276
T4C0.0295
T5C0.0315
T6C0.0394
T7C0.0400
T8C0.0579
%
G90
G05
T1
X3.1457Y-4.8543
X3.1496Y-4.1024
X3.5276Y-3.7874
X3.5512Y-3.6457
X3.6043Y-4.8661
X3.7087Y-3.4173
X3.7362Y-3.5591
X3.7913Y-3.7657
X3.8071Y-4.8366
X3.9016Y-4.1063
X3.9016Y-4.8661
X3.9528Y-3.4134
X3.9646Y-3.5984
X4.1654Y-4.1181
X4.8051Y-4.1173
X4.8346Y-3.8504
X5.1634Y-3.9705
X5.4173Y-3.9409
X5.4547Y-3.9154
X5.4685Y-4.2421
X5.4862Y-4.0315
X5.5Y-4.4803
X5.518Y-4.0081
X5.5217Y-4.1004
X5.6378Y-4.5276
X5.6437Y-4.1988
X5.6457Y-4.3248
X5.6811Y-4.6339
X5.7165Y-4.3189
X5.7874Y-4.563
X5.7953Y-4.6929
X5.811Y-4.0472
X5.8445Y-4.2992
X5.9567Y-4.4449
X6.0118Y-4.3858
X6.0118Y-4.4449
X6.0118Y-4.5079
X6.0157Y-4.0945
X6.039Y-3.8272
X6.0709Y-4.4449
X6.0984Y-4.0354
X6.1575Y-4.0054
X6.189Y-3.7953
X6.1969Y-4.2795
X6.2323Y-3.8858
X6.2323Y-4.1654
X6.252Y-4.6457
X6.2835Y-4.5276
X6.3189Y-4.3031
X6.4921Y-4.1024
X6.4921Y-4.8504
X6.7008Y-3.4803
X6.7165Y-3.7717
X6.7441Y-3.6732
X6.7717Y-3.7677
X6.7913Y-3.4685
X6.8071Y-3.6535
X6.8701Y-3.8661
X6.8882Y-3.5157
X6.9409Y-3.811
X6.9606Y-3.6457
X6.9803Y-3.4724
X7.0984Y-3.4843
X7.248Y-4.1142
X7.248Y-4.8583
T3
X3.8937Y-3.4488
X3.8937Y-3.5118
X3.8937Y-3.5748
X3.9409Y-3.4803
X3.9409Y-3.5433
T4
X6.6535Y-3.7244
X6.7008Y-3.7244
X6.748Y-3.7244
X6.7953Y-3.7244
X6.8425Y-3.7244
X6.8898Y-3.7244
X6.937Y-3.7244
X6.9843Y-3.7244
X7.0315Y-3.7244
X7.0787Y-3.7244
X7.126Y-3.7244
X3.5118Y-3.7205
X3.5591Y-3.7205
X3.6063Y-3.7205
X3.6535Y-3.7205
X3.7008Y-3.7205
X3.748Y-3.7205
T6
X5.0732Y-3.9793
X5.0732Y-4.6919
X5.1732Y-4.6919
X5.2732Y-3.9793
X5.2732Y-4.6919
T7
X4.587Y-3.9421
X4.587Y-4.0421
X4.687Y-3.9421
X4.687Y-4.0421
X4.787Y-3.9421
X4.787Y-4.0421
T8
X3.724Y-4.0606
X3.974Y-4.1606
X6.3224Y-4.8106
X6.5724Y-4.9106
X2.974Y-4.8106
X3.224Y-4.9106
X2.974Y-4.0606
X3.224Y-4.1606
X7.0724Y-4.0606
X7.3224Y-4.1606
X7.0724Y-4.8106
X7.3224Y-4.9106
X6.3224Y-4.0606
X6.5724Y-4.1606
X3.724Y-4.8106
X3.974Y-4.9106
T2
G00X6.6677Y-3.2362
M15
G01X6.6677Y-3.189
M16
G05
G00X6.6677Y-3.3858
M15
G01X6.6677Y-3.3543
M16
G05
G00X7.1102Y-3.2362
M15
G01X7.1102Y-3.189
M16
G05
G00X7.1102Y-3.3858
M15
G01X7.1102Y-3.3543
M16
G05
T5
G00X3.9035Y-3.3681
M15
G01X3.9311Y-3.3681
M16
G05
G00X3.9035Y-3.6555
M15
G01X3.9311Y-3.6555
M16
G05
G00X4.0933Y-3.3681
M15
G01X4.1209Y-3.3681
M16
G05
G00X4.0933Y-3.6555
M15
G01X4.1209Y-3.6555
M16
G05
T0
M30
