%TF.GenerationSoftware,KiCad,Pcbnew,(5.1.6)-1*%
%TF.CreationDate,2022-02-24T21:40:28-06:00*%
%TF.ProjectId,Pikatea R26 PCB,50696b61-7465-4612-9052-323620504342,rev?*%
%TF.SameCoordinates,Original*%
%TF.FileFunction,Soldermask,Top*%
%TF.FilePolarity,Negative*%
%FSLAX46Y46*%
G04 Gerber Fmt 4.6, Leading zero omitted, Abs format (unit mm)*
G04 Created by KiCad (PCBNEW (5.1.6)-1) date 2022-02-24 21:40:28*
%MOMM*%
%LPD*%
G01*
G04 APERTURE LIST*
%ADD10C,0.650000*%
%ADD11R,0.300000X1.450000*%
%ADD12R,0.600000X1.450000*%
%ADD13R,0.375000X0.500000*%
%ADD14R,0.300000X0.650000*%
%ADD15C,1.000000*%
%ADD16C,1.700000*%
%ADD17R,1.700000X1.700000*%
%ADD18C,0.100000*%
%ADD19O,1.900000X1.200000*%
%ADD20C,1.100000*%
%ADD21R,5.150000X5.150000*%
%ADD22C,1.750000*%
%ADD23C,2.250000*%
%ADD24C,3.987800*%
G04 APERTURE END LIST*
D10*
%TO.C,USB1*%
X177870000Y-85750000D03*
X172090000Y-85750000D03*
D11*
X175230000Y-87195000D03*
X174730000Y-87195000D03*
X174230000Y-87195000D03*
X175730000Y-87195000D03*
X173730000Y-87195000D03*
X176230000Y-87195000D03*
X173230000Y-87195000D03*
X176730000Y-87195000D03*
D12*
X177430000Y-87195000D03*
X172530000Y-87195000D03*
X178205000Y-87195000D03*
X171755000Y-87195000D03*
%TD*%
D13*
%TO.C,U2*%
X175500000Y-92250000D03*
X174425000Y-92250000D03*
D14*
X174962500Y-90475000D03*
X174962500Y-92325000D03*
D13*
X174425000Y-90550000D03*
X175500000Y-90550000D03*
%TD*%
%TO.C,R2*%
G36*
G01*
X173472500Y-90895000D02*
X173127500Y-90895000D01*
G75*
G02*
X172980000Y-90747500I0J147500D01*
G01*
X172980000Y-90452500D01*
G75*
G02*
X173127500Y-90305000I147500J0D01*
G01*
X173472500Y-90305000D01*
G75*
G02*
X173620000Y-90452500I0J-147500D01*
G01*
X173620000Y-90747500D01*
G75*
G02*
X173472500Y-90895000I-147500J0D01*
G01*
G37*
G36*
G01*
X173472500Y-91865000D02*
X173127500Y-91865000D01*
G75*
G02*
X172980000Y-91717500I0J147500D01*
G01*
X172980000Y-91422500D01*
G75*
G02*
X173127500Y-91275000I147500J0D01*
G01*
X173472500Y-91275000D01*
G75*
G02*
X173620000Y-91422500I0J-147500D01*
G01*
X173620000Y-91717500D01*
G75*
G02*
X173472500Y-91865000I-147500J0D01*
G01*
G37*
%TD*%
%TO.C,R1*%
G36*
G01*
X176772500Y-90825000D02*
X176427500Y-90825000D01*
G75*
G02*
X176280000Y-90677500I0J147500D01*
G01*
X176280000Y-90382500D01*
G75*
G02*
X176427500Y-90235000I147500J0D01*
G01*
X176772500Y-90235000D01*
G75*
G02*
X176920000Y-90382500I0J-147500D01*
G01*
X176920000Y-90677500D01*
G75*
G02*
X176772500Y-90825000I-147500J0D01*
G01*
G37*
G36*
G01*
X176772500Y-91795000D02*
X176427500Y-91795000D01*
G75*
G02*
X176280000Y-91647500I0J147500D01*
G01*
X176280000Y-91352500D01*
G75*
G02*
X176427500Y-91205000I147500J0D01*
G01*
X176772500Y-91205000D01*
G75*
G02*
X176920000Y-91352500I0J-147500D01*
G01*
X176920000Y-91647500D01*
G75*
G02*
X176772500Y-91795000I-147500J0D01*
G01*
G37*
%TD*%
D15*
%TO.C,J4*%
X89200000Y-94500000D03*
X90400000Y-94500000D03*
X91600000Y-94500000D03*
X95200000Y-94500000D03*
X94000000Y-94500000D03*
X92800000Y-94500000D03*
%TD*%
%TO.C,J3*%
X181000000Y-94600000D03*
X169000000Y-94600000D03*
X170200000Y-94600000D03*
X171400000Y-94600000D03*
X172600000Y-94600000D03*
X173800000Y-94600000D03*
X179800000Y-94600000D03*
X178600000Y-94600000D03*
X177400000Y-94600000D03*
X176200000Y-94600000D03*
X175000000Y-94600000D03*
%TD*%
D16*
%TO.C,J1*%
X121590000Y-100130000D03*
X121590000Y-102670000D03*
X119050000Y-100130000D03*
X119050000Y-102670000D03*
X116510000Y-100130000D03*
D17*
X116510000Y-102670000D03*
%TD*%
D18*
%TO.C,SW1*%
G36*
X144829289Y-106823402D02*
G01*
X145536396Y-106116295D01*
X146738477Y-107318376D01*
X146031370Y-108025483D01*
X144829289Y-106823402D01*
G37*
G36*
X140374517Y-102368630D02*
G01*
X141081624Y-101661523D01*
X142283705Y-102863604D01*
X141576598Y-103570711D01*
X140374517Y-102368630D01*
G37*
G36*
X147516295Y-104136396D02*
G01*
X148223402Y-103429289D01*
X149425483Y-104631370D01*
X148718376Y-105338477D01*
X147516295Y-104136396D01*
G37*
G36*
X143061523Y-99681624D02*
G01*
X143768630Y-98974517D01*
X144970711Y-100176598D01*
X144263604Y-100883705D01*
X143061523Y-99681624D01*
G37*
%TD*%
%TO.C,R5*%
G36*
G01*
X141556250Y-106037500D02*
X141043750Y-106037500D01*
G75*
G02*
X140825000Y-105818750I0J218750D01*
G01*
X140825000Y-105381250D01*
G75*
G02*
X141043750Y-105162500I218750J0D01*
G01*
X141556250Y-105162500D01*
G75*
G02*
X141775000Y-105381250I0J-218750D01*
G01*
X141775000Y-105818750D01*
G75*
G02*
X141556250Y-106037500I-218750J0D01*
G01*
G37*
G36*
G01*
X141556250Y-107612500D02*
X141043750Y-107612500D01*
G75*
G02*
X140825000Y-107393750I0J218750D01*
G01*
X140825000Y-106956250D01*
G75*
G02*
X141043750Y-106737500I218750J0D01*
G01*
X141556250Y-106737500D01*
G75*
G02*
X141775000Y-106956250I0J-218750D01*
G01*
X141775000Y-107393750D01*
G75*
G02*
X141556250Y-107612500I-218750J0D01*
G01*
G37*
%TD*%
D19*
%TO.C,J2*%
X99500000Y-85550000D03*
X99500000Y-92850000D03*
D20*
X98900000Y-90800000D03*
X100100000Y-90000000D03*
X98900000Y-89200000D03*
X100100000Y-88400000D03*
X98900000Y-87600000D03*
D19*
X104320000Y-92850000D03*
X104320000Y-85550000D03*
%TD*%
D18*
%TO.C,Y1*%
G36*
X140885786Y-113831371D02*
G01*
X140037258Y-112982843D01*
X141027208Y-111992893D01*
X141875736Y-112841421D01*
X140885786Y-113831371D01*
G37*
G36*
X142441421Y-112275736D02*
G01*
X141592893Y-111427208D01*
X142582843Y-110437258D01*
X143431371Y-111285786D01*
X142441421Y-112275736D01*
G37*
G36*
X143572792Y-113407107D02*
G01*
X142724264Y-112558579D01*
X143714214Y-111568629D01*
X144562742Y-112417157D01*
X143572792Y-113407107D01*
G37*
G36*
X142017157Y-114962742D02*
G01*
X141168629Y-114114214D01*
X142158579Y-113124264D01*
X143007107Y-113972792D01*
X142017157Y-114962742D01*
G37*
%TD*%
%TO.C,U1*%
G36*
G01*
X155137500Y-108825000D02*
X155262500Y-108825000D01*
G75*
G02*
X155325000Y-108887500I0J-62500D01*
G01*
X155325000Y-109637500D01*
G75*
G02*
X155262500Y-109700000I-62500J0D01*
G01*
X155137500Y-109700000D01*
G75*
G02*
X155075000Y-109637500I0J62500D01*
G01*
X155075000Y-108887500D01*
G75*
G02*
X155137500Y-108825000I62500J0D01*
G01*
G37*
G36*
G01*
X154637500Y-108825000D02*
X154762500Y-108825000D01*
G75*
G02*
X154825000Y-108887500I0J-62500D01*
G01*
X154825000Y-109637500D01*
G75*
G02*
X154762500Y-109700000I-62500J0D01*
G01*
X154637500Y-109700000D01*
G75*
G02*
X154575000Y-109637500I0J62500D01*
G01*
X154575000Y-108887500D01*
G75*
G02*
X154637500Y-108825000I62500J0D01*
G01*
G37*
G36*
G01*
X154137500Y-108825000D02*
X154262500Y-108825000D01*
G75*
G02*
X154325000Y-108887500I0J-62500D01*
G01*
X154325000Y-109637500D01*
G75*
G02*
X154262500Y-109700000I-62500J0D01*
G01*
X154137500Y-109700000D01*
G75*
G02*
X154075000Y-109637500I0J62500D01*
G01*
X154075000Y-108887500D01*
G75*
G02*
X154137500Y-108825000I62500J0D01*
G01*
G37*
G36*
G01*
X153637500Y-108825000D02*
X153762500Y-108825000D01*
G75*
G02*
X153825000Y-108887500I0J-62500D01*
G01*
X153825000Y-109637500D01*
G75*
G02*
X153762500Y-109700000I-62500J0D01*
G01*
X153637500Y-109700000D01*
G75*
G02*
X153575000Y-109637500I0J62500D01*
G01*
X153575000Y-108887500D01*
G75*
G02*
X153637500Y-108825000I62500J0D01*
G01*
G37*
G36*
G01*
X153137500Y-108825000D02*
X153262500Y-108825000D01*
G75*
G02*
X153325000Y-108887500I0J-62500D01*
G01*
X153325000Y-109637500D01*
G75*
G02*
X153262500Y-109700000I-62500J0D01*
G01*
X153137500Y-109700000D01*
G75*
G02*
X153075000Y-109637500I0J62500D01*
G01*
X153075000Y-108887500D01*
G75*
G02*
X153137500Y-108825000I62500J0D01*
G01*
G37*
G36*
G01*
X152637500Y-108825000D02*
X152762500Y-108825000D01*
G75*
G02*
X152825000Y-108887500I0J-62500D01*
G01*
X152825000Y-109637500D01*
G75*
G02*
X152762500Y-109700000I-62500J0D01*
G01*
X152637500Y-109700000D01*
G75*
G02*
X152575000Y-109637500I0J62500D01*
G01*
X152575000Y-108887500D01*
G75*
G02*
X152637500Y-108825000I62500J0D01*
G01*
G37*
G36*
G01*
X152137500Y-108825000D02*
X152262500Y-108825000D01*
G75*
G02*
X152325000Y-108887500I0J-62500D01*
G01*
X152325000Y-109637500D01*
G75*
G02*
X152262500Y-109700000I-62500J0D01*
G01*
X152137500Y-109700000D01*
G75*
G02*
X152075000Y-109637500I0J62500D01*
G01*
X152075000Y-108887500D01*
G75*
G02*
X152137500Y-108825000I62500J0D01*
G01*
G37*
G36*
G01*
X151637500Y-108825000D02*
X151762500Y-108825000D01*
G75*
G02*
X151825000Y-108887500I0J-62500D01*
G01*
X151825000Y-109637500D01*
G75*
G02*
X151762500Y-109700000I-62500J0D01*
G01*
X151637500Y-109700000D01*
G75*
G02*
X151575000Y-109637500I0J62500D01*
G01*
X151575000Y-108887500D01*
G75*
G02*
X151637500Y-108825000I62500J0D01*
G01*
G37*
G36*
G01*
X151137500Y-108825000D02*
X151262500Y-108825000D01*
G75*
G02*
X151325000Y-108887500I0J-62500D01*
G01*
X151325000Y-109637500D01*
G75*
G02*
X151262500Y-109700000I-62500J0D01*
G01*
X151137500Y-109700000D01*
G75*
G02*
X151075000Y-109637500I0J62500D01*
G01*
X151075000Y-108887500D01*
G75*
G02*
X151137500Y-108825000I62500J0D01*
G01*
G37*
G36*
G01*
X150637500Y-108825000D02*
X150762500Y-108825000D01*
G75*
G02*
X150825000Y-108887500I0J-62500D01*
G01*
X150825000Y-109637500D01*
G75*
G02*
X150762500Y-109700000I-62500J0D01*
G01*
X150637500Y-109700000D01*
G75*
G02*
X150575000Y-109637500I0J62500D01*
G01*
X150575000Y-108887500D01*
G75*
G02*
X150637500Y-108825000I62500J0D01*
G01*
G37*
G36*
G01*
X150137500Y-108825000D02*
X150262500Y-108825000D01*
G75*
G02*
X150325000Y-108887500I0J-62500D01*
G01*
X150325000Y-109637500D01*
G75*
G02*
X150262500Y-109700000I-62500J0D01*
G01*
X150137500Y-109700000D01*
G75*
G02*
X150075000Y-109637500I0J62500D01*
G01*
X150075000Y-108887500D01*
G75*
G02*
X150137500Y-108825000I62500J0D01*
G01*
G37*
G36*
G01*
X148887500Y-110075000D02*
X149637500Y-110075000D01*
G75*
G02*
X149700000Y-110137500I0J-62500D01*
G01*
X149700000Y-110262500D01*
G75*
G02*
X149637500Y-110325000I-62500J0D01*
G01*
X148887500Y-110325000D01*
G75*
G02*
X148825000Y-110262500I0J62500D01*
G01*
X148825000Y-110137500D01*
G75*
G02*
X148887500Y-110075000I62500J0D01*
G01*
G37*
G36*
G01*
X148887500Y-110575000D02*
X149637500Y-110575000D01*
G75*
G02*
X149700000Y-110637500I0J-62500D01*
G01*
X149700000Y-110762500D01*
G75*
G02*
X149637500Y-110825000I-62500J0D01*
G01*
X148887500Y-110825000D01*
G75*
G02*
X148825000Y-110762500I0J62500D01*
G01*
X148825000Y-110637500D01*
G75*
G02*
X148887500Y-110575000I62500J0D01*
G01*
G37*
G36*
G01*
X148887500Y-111075000D02*
X149637500Y-111075000D01*
G75*
G02*
X149700000Y-111137500I0J-62500D01*
G01*
X149700000Y-111262500D01*
G75*
G02*
X149637500Y-111325000I-62500J0D01*
G01*
X148887500Y-111325000D01*
G75*
G02*
X148825000Y-111262500I0J62500D01*
G01*
X148825000Y-111137500D01*
G75*
G02*
X148887500Y-111075000I62500J0D01*
G01*
G37*
G36*
G01*
X148887500Y-111575000D02*
X149637500Y-111575000D01*
G75*
G02*
X149700000Y-111637500I0J-62500D01*
G01*
X149700000Y-111762500D01*
G75*
G02*
X149637500Y-111825000I-62500J0D01*
G01*
X148887500Y-111825000D01*
G75*
G02*
X148825000Y-111762500I0J62500D01*
G01*
X148825000Y-111637500D01*
G75*
G02*
X148887500Y-111575000I62500J0D01*
G01*
G37*
G36*
G01*
X148887500Y-112075000D02*
X149637500Y-112075000D01*
G75*
G02*
X149700000Y-112137500I0J-62500D01*
G01*
X149700000Y-112262500D01*
G75*
G02*
X149637500Y-112325000I-62500J0D01*
G01*
X148887500Y-112325000D01*
G75*
G02*
X148825000Y-112262500I0J62500D01*
G01*
X148825000Y-112137500D01*
G75*
G02*
X148887500Y-112075000I62500J0D01*
G01*
G37*
G36*
G01*
X148887500Y-112575000D02*
X149637500Y-112575000D01*
G75*
G02*
X149700000Y-112637500I0J-62500D01*
G01*
X149700000Y-112762500D01*
G75*
G02*
X149637500Y-112825000I-62500J0D01*
G01*
X148887500Y-112825000D01*
G75*
G02*
X148825000Y-112762500I0J62500D01*
G01*
X148825000Y-112637500D01*
G75*
G02*
X148887500Y-112575000I62500J0D01*
G01*
G37*
G36*
G01*
X148887500Y-113075000D02*
X149637500Y-113075000D01*
G75*
G02*
X149700000Y-113137500I0J-62500D01*
G01*
X149700000Y-113262500D01*
G75*
G02*
X149637500Y-113325000I-62500J0D01*
G01*
X148887500Y-113325000D01*
G75*
G02*
X148825000Y-113262500I0J62500D01*
G01*
X148825000Y-113137500D01*
G75*
G02*
X148887500Y-113075000I62500J0D01*
G01*
G37*
G36*
G01*
X148887500Y-113575000D02*
X149637500Y-113575000D01*
G75*
G02*
X149700000Y-113637500I0J-62500D01*
G01*
X149700000Y-113762500D01*
G75*
G02*
X149637500Y-113825000I-62500J0D01*
G01*
X148887500Y-113825000D01*
G75*
G02*
X148825000Y-113762500I0J62500D01*
G01*
X148825000Y-113637500D01*
G75*
G02*
X148887500Y-113575000I62500J0D01*
G01*
G37*
G36*
G01*
X148887500Y-114075000D02*
X149637500Y-114075000D01*
G75*
G02*
X149700000Y-114137500I0J-62500D01*
G01*
X149700000Y-114262500D01*
G75*
G02*
X149637500Y-114325000I-62500J0D01*
G01*
X148887500Y-114325000D01*
G75*
G02*
X148825000Y-114262500I0J62500D01*
G01*
X148825000Y-114137500D01*
G75*
G02*
X148887500Y-114075000I62500J0D01*
G01*
G37*
G36*
G01*
X148887500Y-114575000D02*
X149637500Y-114575000D01*
G75*
G02*
X149700000Y-114637500I0J-62500D01*
G01*
X149700000Y-114762500D01*
G75*
G02*
X149637500Y-114825000I-62500J0D01*
G01*
X148887500Y-114825000D01*
G75*
G02*
X148825000Y-114762500I0J62500D01*
G01*
X148825000Y-114637500D01*
G75*
G02*
X148887500Y-114575000I62500J0D01*
G01*
G37*
G36*
G01*
X148887500Y-115075000D02*
X149637500Y-115075000D01*
G75*
G02*
X149700000Y-115137500I0J-62500D01*
G01*
X149700000Y-115262500D01*
G75*
G02*
X149637500Y-115325000I-62500J0D01*
G01*
X148887500Y-115325000D01*
G75*
G02*
X148825000Y-115262500I0J62500D01*
G01*
X148825000Y-115137500D01*
G75*
G02*
X148887500Y-115075000I62500J0D01*
G01*
G37*
G36*
G01*
X150137500Y-115700000D02*
X150262500Y-115700000D01*
G75*
G02*
X150325000Y-115762500I0J-62500D01*
G01*
X150325000Y-116512500D01*
G75*
G02*
X150262500Y-116575000I-62500J0D01*
G01*
X150137500Y-116575000D01*
G75*
G02*
X150075000Y-116512500I0J62500D01*
G01*
X150075000Y-115762500D01*
G75*
G02*
X150137500Y-115700000I62500J0D01*
G01*
G37*
G36*
G01*
X150637500Y-115700000D02*
X150762500Y-115700000D01*
G75*
G02*
X150825000Y-115762500I0J-62500D01*
G01*
X150825000Y-116512500D01*
G75*
G02*
X150762500Y-116575000I-62500J0D01*
G01*
X150637500Y-116575000D01*
G75*
G02*
X150575000Y-116512500I0J62500D01*
G01*
X150575000Y-115762500D01*
G75*
G02*
X150637500Y-115700000I62500J0D01*
G01*
G37*
G36*
G01*
X151137500Y-115700000D02*
X151262500Y-115700000D01*
G75*
G02*
X151325000Y-115762500I0J-62500D01*
G01*
X151325000Y-116512500D01*
G75*
G02*
X151262500Y-116575000I-62500J0D01*
G01*
X151137500Y-116575000D01*
G75*
G02*
X151075000Y-116512500I0J62500D01*
G01*
X151075000Y-115762500D01*
G75*
G02*
X151137500Y-115700000I62500J0D01*
G01*
G37*
G36*
G01*
X151637500Y-115700000D02*
X151762500Y-115700000D01*
G75*
G02*
X151825000Y-115762500I0J-62500D01*
G01*
X151825000Y-116512500D01*
G75*
G02*
X151762500Y-116575000I-62500J0D01*
G01*
X151637500Y-116575000D01*
G75*
G02*
X151575000Y-116512500I0J62500D01*
G01*
X151575000Y-115762500D01*
G75*
G02*
X151637500Y-115700000I62500J0D01*
G01*
G37*
G36*
G01*
X152137500Y-115700000D02*
X152262500Y-115700000D01*
G75*
G02*
X152325000Y-115762500I0J-62500D01*
G01*
X152325000Y-116512500D01*
G75*
G02*
X152262500Y-116575000I-62500J0D01*
G01*
X152137500Y-116575000D01*
G75*
G02*
X152075000Y-116512500I0J62500D01*
G01*
X152075000Y-115762500D01*
G75*
G02*
X152137500Y-115700000I62500J0D01*
G01*
G37*
G36*
G01*
X152637500Y-115700000D02*
X152762500Y-115700000D01*
G75*
G02*
X152825000Y-115762500I0J-62500D01*
G01*
X152825000Y-116512500D01*
G75*
G02*
X152762500Y-116575000I-62500J0D01*
G01*
X152637500Y-116575000D01*
G75*
G02*
X152575000Y-116512500I0J62500D01*
G01*
X152575000Y-115762500D01*
G75*
G02*
X152637500Y-115700000I62500J0D01*
G01*
G37*
G36*
G01*
X153137500Y-115700000D02*
X153262500Y-115700000D01*
G75*
G02*
X153325000Y-115762500I0J-62500D01*
G01*
X153325000Y-116512500D01*
G75*
G02*
X153262500Y-116575000I-62500J0D01*
G01*
X153137500Y-116575000D01*
G75*
G02*
X153075000Y-116512500I0J62500D01*
G01*
X153075000Y-115762500D01*
G75*
G02*
X153137500Y-115700000I62500J0D01*
G01*
G37*
G36*
G01*
X153637500Y-115700000D02*
X153762500Y-115700000D01*
G75*
G02*
X153825000Y-115762500I0J-62500D01*
G01*
X153825000Y-116512500D01*
G75*
G02*
X153762500Y-116575000I-62500J0D01*
G01*
X153637500Y-116575000D01*
G75*
G02*
X153575000Y-116512500I0J62500D01*
G01*
X153575000Y-115762500D01*
G75*
G02*
X153637500Y-115700000I62500J0D01*
G01*
G37*
G36*
G01*
X154137500Y-115700000D02*
X154262500Y-115700000D01*
G75*
G02*
X154325000Y-115762500I0J-62500D01*
G01*
X154325000Y-116512500D01*
G75*
G02*
X154262500Y-116575000I-62500J0D01*
G01*
X154137500Y-116575000D01*
G75*
G02*
X154075000Y-116512500I0J62500D01*
G01*
X154075000Y-115762500D01*
G75*
G02*
X154137500Y-115700000I62500J0D01*
G01*
G37*
G36*
G01*
X154637500Y-115700000D02*
X154762500Y-115700000D01*
G75*
G02*
X154825000Y-115762500I0J-62500D01*
G01*
X154825000Y-116512500D01*
G75*
G02*
X154762500Y-116575000I-62500J0D01*
G01*
X154637500Y-116575000D01*
G75*
G02*
X154575000Y-116512500I0J62500D01*
G01*
X154575000Y-115762500D01*
G75*
G02*
X154637500Y-115700000I62500J0D01*
G01*
G37*
G36*
G01*
X155137500Y-115700000D02*
X155262500Y-115700000D01*
G75*
G02*
X155325000Y-115762500I0J-62500D01*
G01*
X155325000Y-116512500D01*
G75*
G02*
X155262500Y-116575000I-62500J0D01*
G01*
X155137500Y-116575000D01*
G75*
G02*
X155075000Y-116512500I0J62500D01*
G01*
X155075000Y-115762500D01*
G75*
G02*
X155137500Y-115700000I62500J0D01*
G01*
G37*
G36*
G01*
X155762500Y-115075000D02*
X156512500Y-115075000D01*
G75*
G02*
X156575000Y-115137500I0J-62500D01*
G01*
X156575000Y-115262500D01*
G75*
G02*
X156512500Y-115325000I-62500J0D01*
G01*
X155762500Y-115325000D01*
G75*
G02*
X155700000Y-115262500I0J62500D01*
G01*
X155700000Y-115137500D01*
G75*
G02*
X155762500Y-115075000I62500J0D01*
G01*
G37*
G36*
G01*
X155762500Y-114575000D02*
X156512500Y-114575000D01*
G75*
G02*
X156575000Y-114637500I0J-62500D01*
G01*
X156575000Y-114762500D01*
G75*
G02*
X156512500Y-114825000I-62500J0D01*
G01*
X155762500Y-114825000D01*
G75*
G02*
X155700000Y-114762500I0J62500D01*
G01*
X155700000Y-114637500D01*
G75*
G02*
X155762500Y-114575000I62500J0D01*
G01*
G37*
G36*
G01*
X155762500Y-114075000D02*
X156512500Y-114075000D01*
G75*
G02*
X156575000Y-114137500I0J-62500D01*
G01*
X156575000Y-114262500D01*
G75*
G02*
X156512500Y-114325000I-62500J0D01*
G01*
X155762500Y-114325000D01*
G75*
G02*
X155700000Y-114262500I0J62500D01*
G01*
X155700000Y-114137500D01*
G75*
G02*
X155762500Y-114075000I62500J0D01*
G01*
G37*
G36*
G01*
X155762500Y-113575000D02*
X156512500Y-113575000D01*
G75*
G02*
X156575000Y-113637500I0J-62500D01*
G01*
X156575000Y-113762500D01*
G75*
G02*
X156512500Y-113825000I-62500J0D01*
G01*
X155762500Y-113825000D01*
G75*
G02*
X155700000Y-113762500I0J62500D01*
G01*
X155700000Y-113637500D01*
G75*
G02*
X155762500Y-113575000I62500J0D01*
G01*
G37*
G36*
G01*
X155762500Y-113075000D02*
X156512500Y-113075000D01*
G75*
G02*
X156575000Y-113137500I0J-62500D01*
G01*
X156575000Y-113262500D01*
G75*
G02*
X156512500Y-113325000I-62500J0D01*
G01*
X155762500Y-113325000D01*
G75*
G02*
X155700000Y-113262500I0J62500D01*
G01*
X155700000Y-113137500D01*
G75*
G02*
X155762500Y-113075000I62500J0D01*
G01*
G37*
G36*
G01*
X155762500Y-112575000D02*
X156512500Y-112575000D01*
G75*
G02*
X156575000Y-112637500I0J-62500D01*
G01*
X156575000Y-112762500D01*
G75*
G02*
X156512500Y-112825000I-62500J0D01*
G01*
X155762500Y-112825000D01*
G75*
G02*
X155700000Y-112762500I0J62500D01*
G01*
X155700000Y-112637500D01*
G75*
G02*
X155762500Y-112575000I62500J0D01*
G01*
G37*
G36*
G01*
X155762500Y-112075000D02*
X156512500Y-112075000D01*
G75*
G02*
X156575000Y-112137500I0J-62500D01*
G01*
X156575000Y-112262500D01*
G75*
G02*
X156512500Y-112325000I-62500J0D01*
G01*
X155762500Y-112325000D01*
G75*
G02*
X155700000Y-112262500I0J62500D01*
G01*
X155700000Y-112137500D01*
G75*
G02*
X155762500Y-112075000I62500J0D01*
G01*
G37*
G36*
G01*
X155762500Y-111575000D02*
X156512500Y-111575000D01*
G75*
G02*
X156575000Y-111637500I0J-62500D01*
G01*
X156575000Y-111762500D01*
G75*
G02*
X156512500Y-111825000I-62500J0D01*
G01*
X155762500Y-111825000D01*
G75*
G02*
X155700000Y-111762500I0J62500D01*
G01*
X155700000Y-111637500D01*
G75*
G02*
X155762500Y-111575000I62500J0D01*
G01*
G37*
G36*
G01*
X155762500Y-111075000D02*
X156512500Y-111075000D01*
G75*
G02*
X156575000Y-111137500I0J-62500D01*
G01*
X156575000Y-111262500D01*
G75*
G02*
X156512500Y-111325000I-62500J0D01*
G01*
X155762500Y-111325000D01*
G75*
G02*
X155700000Y-111262500I0J62500D01*
G01*
X155700000Y-111137500D01*
G75*
G02*
X155762500Y-111075000I62500J0D01*
G01*
G37*
G36*
G01*
X155762500Y-110575000D02*
X156512500Y-110575000D01*
G75*
G02*
X156575000Y-110637500I0J-62500D01*
G01*
X156575000Y-110762500D01*
G75*
G02*
X156512500Y-110825000I-62500J0D01*
G01*
X155762500Y-110825000D01*
G75*
G02*
X155700000Y-110762500I0J62500D01*
G01*
X155700000Y-110637500D01*
G75*
G02*
X155762500Y-110575000I62500J0D01*
G01*
G37*
G36*
G01*
X155762500Y-110075000D02*
X156512500Y-110075000D01*
G75*
G02*
X156575000Y-110137500I0J-62500D01*
G01*
X156575000Y-110262500D01*
G75*
G02*
X156512500Y-110325000I-62500J0D01*
G01*
X155762500Y-110325000D01*
G75*
G02*
X155700000Y-110262500I0J62500D01*
G01*
X155700000Y-110137500D01*
G75*
G02*
X155762500Y-110075000I62500J0D01*
G01*
G37*
D21*
X152700000Y-112700000D03*
%TD*%
D17*
%TO.C,SW2*%
X128860000Y-101075000D03*
X133940000Y-101075000D03*
X131400000Y-119175000D03*
X128860000Y-119175000D03*
X133940000Y-119175000D03*
%TD*%
%TO.C,R_HWB1*%
G36*
G01*
X155456250Y-121962500D02*
X154943750Y-121962500D01*
G75*
G02*
X154725000Y-121743750I0J218750D01*
G01*
X154725000Y-121306250D01*
G75*
G02*
X154943750Y-121087500I218750J0D01*
G01*
X155456250Y-121087500D01*
G75*
G02*
X155675000Y-121306250I0J-218750D01*
G01*
X155675000Y-121743750D01*
G75*
G02*
X155456250Y-121962500I-218750J0D01*
G01*
G37*
G36*
G01*
X155456250Y-123537500D02*
X154943750Y-123537500D01*
G75*
G02*
X154725000Y-123318750I0J218750D01*
G01*
X154725000Y-122881250D01*
G75*
G02*
X154943750Y-122662500I218750J0D01*
G01*
X155456250Y-122662500D01*
G75*
G02*
X155675000Y-122881250I0J-218750D01*
G01*
X155675000Y-123318750D01*
G75*
G02*
X155456250Y-123537500I-218750J0D01*
G01*
G37*
%TD*%
%TO.C,R4*%
G36*
G01*
X156656250Y-104137500D02*
X156143750Y-104137500D01*
G75*
G02*
X155925000Y-103918750I0J218750D01*
G01*
X155925000Y-103481250D01*
G75*
G02*
X156143750Y-103262500I218750J0D01*
G01*
X156656250Y-103262500D01*
G75*
G02*
X156875000Y-103481250I0J-218750D01*
G01*
X156875000Y-103918750D01*
G75*
G02*
X156656250Y-104137500I-218750J0D01*
G01*
G37*
G36*
G01*
X156656250Y-105712500D02*
X156143750Y-105712500D01*
G75*
G02*
X155925000Y-105493750I0J218750D01*
G01*
X155925000Y-105056250D01*
G75*
G02*
X156143750Y-104837500I218750J0D01*
G01*
X156656250Y-104837500D01*
G75*
G02*
X156875000Y-105056250I0J-218750D01*
G01*
X156875000Y-105493750D01*
G75*
G02*
X156656250Y-105712500I-218750J0D01*
G01*
G37*
%TD*%
%TO.C,R3*%
G36*
G01*
X155156250Y-104137500D02*
X154643750Y-104137500D01*
G75*
G02*
X154425000Y-103918750I0J218750D01*
G01*
X154425000Y-103481250D01*
G75*
G02*
X154643750Y-103262500I218750J0D01*
G01*
X155156250Y-103262500D01*
G75*
G02*
X155375000Y-103481250I0J-218750D01*
G01*
X155375000Y-103918750D01*
G75*
G02*
X155156250Y-104137500I-218750J0D01*
G01*
G37*
G36*
G01*
X155156250Y-105712500D02*
X154643750Y-105712500D01*
G75*
G02*
X154425000Y-105493750I0J218750D01*
G01*
X154425000Y-105056250D01*
G75*
G02*
X154643750Y-104837500I218750J0D01*
G01*
X155156250Y-104837500D01*
G75*
G02*
X155375000Y-105056250I0J-218750D01*
G01*
X155375000Y-105493750D01*
G75*
G02*
X155156250Y-105712500I-218750J0D01*
G01*
G37*
%TD*%
D22*
%TO.C,MX_8*%
X188530000Y-100600000D03*
X178370000Y-100600000D03*
D23*
X179640000Y-103140000D03*
D24*
X183450000Y-100600000D03*
D23*
X185990000Y-105680000D03*
%TD*%
D22*
%TO.C,MX_7*%
X169480000Y-100600000D03*
X159320000Y-100600000D03*
D23*
X160590000Y-103140000D03*
D24*
X164400000Y-100600000D03*
D23*
X166940000Y-105680000D03*
%TD*%
D22*
%TO.C,MX_6*%
X169480000Y-119650000D03*
X159320000Y-119650000D03*
D23*
X160590000Y-122190000D03*
D24*
X164400000Y-119650000D03*
D23*
X166940000Y-124730000D03*
%TD*%
D22*
%TO.C,MX_5*%
X103480000Y-119650000D03*
X93320000Y-119650000D03*
D23*
X94590000Y-122190000D03*
D24*
X98400000Y-119650000D03*
D23*
X100940000Y-124730000D03*
%TD*%
D22*
%TO.C,MX_4*%
X103480000Y-100600000D03*
X93320000Y-100600000D03*
D23*
X94590000Y-103140000D03*
D24*
X98400000Y-100600000D03*
D23*
X100940000Y-105680000D03*
%TD*%
%TO.C,MX_3*%
X81890000Y-124730000D03*
D24*
X79350000Y-119650000D03*
D23*
X75540000Y-122190000D03*
D22*
X74270000Y-119650000D03*
X84430000Y-119650000D03*
%TD*%
%TO.C,MX_2*%
X84430000Y-100600000D03*
X74270000Y-100600000D03*
D23*
X75540000Y-103140000D03*
D24*
X79350000Y-100600000D03*
D23*
X81890000Y-105680000D03*
%TD*%
D22*
%TO.C,MX_1*%
X188530000Y-119650000D03*
X178370000Y-119650000D03*
D23*
X179640000Y-122190000D03*
D24*
X183450000Y-119650000D03*
D23*
X185990000Y-124730000D03*
%TD*%
%TO.C,F1*%
G36*
G01*
X175350001Y-100125000D02*
X172449999Y-100125000D01*
G75*
G02*
X172200000Y-99875001I0J249999D01*
G01*
X172200000Y-99249999D01*
G75*
G02*
X172449999Y-99000000I249999J0D01*
G01*
X175350001Y-99000000D01*
G75*
G02*
X175600000Y-99249999I0J-249999D01*
G01*
X175600000Y-99875001D01*
G75*
G02*
X175350001Y-100125000I-249999J0D01*
G01*
G37*
G36*
G01*
X175350001Y-104400000D02*
X172449999Y-104400000D01*
G75*
G02*
X172200000Y-104150001I0J249999D01*
G01*
X172200000Y-103524999D01*
G75*
G02*
X172449999Y-103275000I249999J0D01*
G01*
X175350001Y-103275000D01*
G75*
G02*
X175600000Y-103524999I0J-249999D01*
G01*
X175600000Y-104150001D01*
G75*
G02*
X175350001Y-104400000I-249999J0D01*
G01*
G37*
%TD*%
%TO.C,C12*%
G36*
G01*
X140056250Y-118250000D02*
X139543750Y-118250000D01*
G75*
G02*
X139325000Y-118031250I0J218750D01*
G01*
X139325000Y-117593750D01*
G75*
G02*
X139543750Y-117375000I218750J0D01*
G01*
X140056250Y-117375000D01*
G75*
G02*
X140275000Y-117593750I0J-218750D01*
G01*
X140275000Y-118031250D01*
G75*
G02*
X140056250Y-118250000I-218750J0D01*
G01*
G37*
G36*
G01*
X140056250Y-119825000D02*
X139543750Y-119825000D01*
G75*
G02*
X139325000Y-119606250I0J218750D01*
G01*
X139325000Y-119168750D01*
G75*
G02*
X139543750Y-118950000I218750J0D01*
G01*
X140056250Y-118950000D01*
G75*
G02*
X140275000Y-119168750I0J-218750D01*
G01*
X140275000Y-119606250D01*
G75*
G02*
X140056250Y-119825000I-218750J0D01*
G01*
G37*
%TD*%
%TO.C,C11*%
G36*
G01*
X141243750Y-120550000D02*
X141756250Y-120550000D01*
G75*
G02*
X141975000Y-120768750I0J-218750D01*
G01*
X141975000Y-121206250D01*
G75*
G02*
X141756250Y-121425000I-218750J0D01*
G01*
X141243750Y-121425000D01*
G75*
G02*
X141025000Y-121206250I0J218750D01*
G01*
X141025000Y-120768750D01*
G75*
G02*
X141243750Y-120550000I218750J0D01*
G01*
G37*
G36*
G01*
X141243750Y-118975000D02*
X141756250Y-118975000D01*
G75*
G02*
X141975000Y-119193750I0J-218750D01*
G01*
X141975000Y-119631250D01*
G75*
G02*
X141756250Y-119850000I-218750J0D01*
G01*
X141243750Y-119850000D01*
G75*
G02*
X141025000Y-119631250I0J218750D01*
G01*
X141025000Y-119193750D01*
G75*
G02*
X141243750Y-118975000I218750J0D01*
G01*
G37*
%TD*%
%TO.C,C10*%
G36*
G01*
X163243750Y-110950000D02*
X164156250Y-110950000D01*
G75*
G02*
X164400000Y-111193750I0J-243750D01*
G01*
X164400000Y-111681250D01*
G75*
G02*
X164156250Y-111925000I-243750J0D01*
G01*
X163243750Y-111925000D01*
G75*
G02*
X163000000Y-111681250I0J243750D01*
G01*
X163000000Y-111193750D01*
G75*
G02*
X163243750Y-110950000I243750J0D01*
G01*
G37*
G36*
G01*
X163243750Y-109075000D02*
X164156250Y-109075000D01*
G75*
G02*
X164400000Y-109318750I0J-243750D01*
G01*
X164400000Y-109806250D01*
G75*
G02*
X164156250Y-110050000I-243750J0D01*
G01*
X163243750Y-110050000D01*
G75*
G02*
X163000000Y-109806250I0J243750D01*
G01*
X163000000Y-109318750D01*
G75*
G02*
X163243750Y-109075000I243750J0D01*
G01*
G37*
%TD*%
%TO.C,C9*%
G36*
G01*
X157766292Y-107816184D02*
X158128684Y-107453791D01*
G75*
G02*
X158438044Y-107453791I154680J-154680D01*
G01*
X158747403Y-107763150D01*
G75*
G02*
X158747403Y-108072510I-154680J-154680D01*
G01*
X158385010Y-108434903D01*
G75*
G02*
X158075650Y-108434903I-154680J154680D01*
G01*
X157766291Y-108125544D01*
G75*
G02*
X157766291Y-107816184I154680J154680D01*
G01*
G37*
G36*
G01*
X156652598Y-106702490D02*
X157014990Y-106340097D01*
G75*
G02*
X157324350Y-106340097I154680J-154680D01*
G01*
X157633709Y-106649456D01*
G75*
G02*
X157633709Y-106958816I-154680J-154680D01*
G01*
X157271316Y-107321209D01*
G75*
G02*
X156961956Y-107321209I-154680J154680D01*
G01*
X156652597Y-107011850D01*
G75*
G02*
X156652597Y-106702490I154680J154680D01*
G01*
G37*
%TD*%
%TO.C,C8*%
G36*
G01*
X147533708Y-117271316D02*
X147171316Y-117633709D01*
G75*
G02*
X146861956Y-117633709I-154680J154680D01*
G01*
X146552597Y-117324350D01*
G75*
G02*
X146552597Y-117014990I154680J154680D01*
G01*
X146914990Y-116652597D01*
G75*
G02*
X147224350Y-116652597I154680J-154680D01*
G01*
X147533709Y-116961956D01*
G75*
G02*
X147533709Y-117271316I-154680J-154680D01*
G01*
G37*
G36*
G01*
X148647402Y-118385010D02*
X148285010Y-118747403D01*
G75*
G02*
X147975650Y-118747403I-154680J154680D01*
G01*
X147666291Y-118438044D01*
G75*
G02*
X147666291Y-118128684I154680J154680D01*
G01*
X148028684Y-117766291D01*
G75*
G02*
X148338044Y-117766291I154680J-154680D01*
G01*
X148647403Y-118075650D01*
G75*
G02*
X148647403Y-118385010I-154680J-154680D01*
G01*
G37*
%TD*%
%TO.C,C7*%
G36*
G01*
X146143750Y-110850000D02*
X146656250Y-110850000D01*
G75*
G02*
X146875000Y-111068750I0J-218750D01*
G01*
X146875000Y-111506250D01*
G75*
G02*
X146656250Y-111725000I-218750J0D01*
G01*
X146143750Y-111725000D01*
G75*
G02*
X145925000Y-111506250I0J218750D01*
G01*
X145925000Y-111068750D01*
G75*
G02*
X146143750Y-110850000I218750J0D01*
G01*
G37*
G36*
G01*
X146143750Y-109275000D02*
X146656250Y-109275000D01*
G75*
G02*
X146875000Y-109493750I0J-218750D01*
G01*
X146875000Y-109931250D01*
G75*
G02*
X146656250Y-110150000I-218750J0D01*
G01*
X146143750Y-110150000D01*
G75*
G02*
X145925000Y-109931250I0J218750D01*
G01*
X145925000Y-109493750D01*
G75*
G02*
X146143750Y-109275000I218750J0D01*
G01*
G37*
%TD*%
%TO.C,C6*%
G36*
G01*
X161550000Y-111656250D02*
X161550000Y-111143750D01*
G75*
G02*
X161768750Y-110925000I218750J0D01*
G01*
X162206250Y-110925000D01*
G75*
G02*
X162425000Y-111143750I0J-218750D01*
G01*
X162425000Y-111656250D01*
G75*
G02*
X162206250Y-111875000I-218750J0D01*
G01*
X161768750Y-111875000D01*
G75*
G02*
X161550000Y-111656250I0J218750D01*
G01*
G37*
G36*
G01*
X159975000Y-111656250D02*
X159975000Y-111143750D01*
G75*
G02*
X160193750Y-110925000I218750J0D01*
G01*
X160631250Y-110925000D01*
G75*
G02*
X160850000Y-111143750I0J-218750D01*
G01*
X160850000Y-111656250D01*
G75*
G02*
X160631250Y-111875000I-218750J0D01*
G01*
X160193750Y-111875000D01*
G75*
G02*
X159975000Y-111656250I0J218750D01*
G01*
G37*
%TD*%
%TO.C,C5*%
G36*
G01*
X140450000Y-109143750D02*
X140450000Y-109656250D01*
G75*
G02*
X140231250Y-109875000I-218750J0D01*
G01*
X139793750Y-109875000D01*
G75*
G02*
X139575000Y-109656250I0J218750D01*
G01*
X139575000Y-109143750D01*
G75*
G02*
X139793750Y-108925000I218750J0D01*
G01*
X140231250Y-108925000D01*
G75*
G02*
X140450000Y-109143750I0J-218750D01*
G01*
G37*
G36*
G01*
X142025000Y-109143750D02*
X142025000Y-109656250D01*
G75*
G02*
X141806250Y-109875000I-218750J0D01*
G01*
X141368750Y-109875000D01*
G75*
G02*
X141150000Y-109656250I0J218750D01*
G01*
X141150000Y-109143750D01*
G75*
G02*
X141368750Y-108925000I218750J0D01*
G01*
X141806250Y-108925000D01*
G75*
G02*
X142025000Y-109143750I0J-218750D01*
G01*
G37*
%TD*%
%TO.C,C4*%
G36*
G01*
X153062500Y-105256250D02*
X153062500Y-104743750D01*
G75*
G02*
X153281250Y-104525000I218750J0D01*
G01*
X153718750Y-104525000D01*
G75*
G02*
X153937500Y-104743750I0J-218750D01*
G01*
X153937500Y-105256250D01*
G75*
G02*
X153718750Y-105475000I-218750J0D01*
G01*
X153281250Y-105475000D01*
G75*
G02*
X153062500Y-105256250I0J218750D01*
G01*
G37*
G36*
G01*
X151487500Y-105256250D02*
X151487500Y-104743750D01*
G75*
G02*
X151706250Y-104525000I218750J0D01*
G01*
X152143750Y-104525000D01*
G75*
G02*
X152362500Y-104743750I0J-218750D01*
G01*
X152362500Y-105256250D01*
G75*
G02*
X152143750Y-105475000I-218750J0D01*
G01*
X151706250Y-105475000D01*
G75*
G02*
X151487500Y-105256250I0J218750D01*
G01*
G37*
%TD*%
%TO.C,C3*%
G36*
G01*
X151562500Y-106143750D02*
X151562500Y-106656250D01*
G75*
G02*
X151343750Y-106875000I-218750J0D01*
G01*
X150906250Y-106875000D01*
G75*
G02*
X150687500Y-106656250I0J218750D01*
G01*
X150687500Y-106143750D01*
G75*
G02*
X150906250Y-105925000I218750J0D01*
G01*
X151343750Y-105925000D01*
G75*
G02*
X151562500Y-106143750I0J-218750D01*
G01*
G37*
G36*
G01*
X153137500Y-106143750D02*
X153137500Y-106656250D01*
G75*
G02*
X152918750Y-106875000I-218750J0D01*
G01*
X152481250Y-106875000D01*
G75*
G02*
X152262500Y-106656250I0J218750D01*
G01*
X152262500Y-106143750D01*
G75*
G02*
X152481250Y-105925000I218750J0D01*
G01*
X152918750Y-105925000D01*
G75*
G02*
X153137500Y-106143750I0J-218750D01*
G01*
G37*
%TD*%
%TO.C,C2*%
G36*
G01*
X158871837Y-116490555D02*
X158509444Y-116128163D01*
G75*
G02*
X158509444Y-115818803I154680J154680D01*
G01*
X158818803Y-115509444D01*
G75*
G02*
X159128163Y-115509444I154680J-154680D01*
G01*
X159490556Y-115871837D01*
G75*
G02*
X159490556Y-116181197I-154680J-154680D01*
G01*
X159181197Y-116490556D01*
G75*
G02*
X158871837Y-116490556I-154680J154680D01*
G01*
G37*
G36*
G01*
X157758143Y-117604249D02*
X157395750Y-117241857D01*
G75*
G02*
X157395750Y-116932497I154680J154680D01*
G01*
X157705109Y-116623138D01*
G75*
G02*
X158014469Y-116623138I154680J-154680D01*
G01*
X158376862Y-116985531D01*
G75*
G02*
X158376862Y-117294891I-154680J-154680D01*
G01*
X158067503Y-117604250D01*
G75*
G02*
X157758143Y-117604250I-154680J154680D01*
G01*
G37*
%TD*%
%TO.C,C1*%
G36*
G01*
X141037500Y-116043750D02*
X141037500Y-116556250D01*
G75*
G02*
X140818750Y-116775000I-218750J0D01*
G01*
X140381250Y-116775000D01*
G75*
G02*
X140162500Y-116556250I0J218750D01*
G01*
X140162500Y-116043750D01*
G75*
G02*
X140381250Y-115825000I218750J0D01*
G01*
X140818750Y-115825000D01*
G75*
G02*
X141037500Y-116043750I0J-218750D01*
G01*
G37*
G36*
G01*
X142612500Y-116043750D02*
X142612500Y-116556250D01*
G75*
G02*
X142393750Y-116775000I-218750J0D01*
G01*
X141956250Y-116775000D01*
G75*
G02*
X141737500Y-116556250I0J218750D01*
G01*
X141737500Y-116043750D01*
G75*
G02*
X141956250Y-115825000I218750J0D01*
G01*
X142393750Y-115825000D01*
G75*
G02*
X142612500Y-116043750I0J-218750D01*
G01*
G37*
%TD*%
M02*
