M48
; DRILL file {KiCad (5.1.6)-1} date 03/25/21 17:16:50
; FORMAT={-:-/ absolute / inch / decimal}
; #@! TF.CreationDate,2021-03-25T17:16:50-05:00
; #@! TF.GenerationSoftware,Kicad,Pcbnew,(5.1.6)-1
; #@! TF.FileFunction,Plated,1,2,PTH
FMAT,2
INCH
T1C0.0157
T2C0.0276
T3C0.0295
T4C0.0315
T5C0.0394
T6C0.0409
T7C0.0579
%
G90
G05
T1
X3.89Y-3.7
X3.9Y-3.8415
X3.98Y-3.69
X4.03Y-3.72
X4.07Y-3.813
X4.17Y-3.7844
X4.3083Y-4.4517
X4.32Y-3.88
X4.3498Y-3.6398
X4.35Y-3.57
X4.35Y-3.73
X4.3587Y-3.9304
X4.3672Y-4.2772
X4.3856Y-4.19
X4.4142Y-3.9907
X4.5006Y-3.7706
X4.5119Y-3.8419
X4.5185Y-3.8812
X4.5202Y-3.5598
X4.5284Y-3.7428
X4.56Y-4.36
X4.5885Y-4.16
X4.5898Y-3.7402
X4.59Y-3.97
X4.5904Y-3.6404
X4.6261Y-4.1481
X4.63Y-3.8766
X4.63Y-3.9337
X4.6306Y-3.6406
X4.64Y-3.7
X4.6404Y-3.5904
X4.67Y-3.62
X4.6936Y-3.8766
X4.7067Y-3.6736
X4.7527Y-3.7473
X4.77Y-3.55
X4.7827Y-3.7773
X4.79Y-4.08
X4.8Y-3.9088
X4.8286Y-3.5986
X4.89Y-4.2
X4.9315Y-3.83
X4.94Y-3.54
X4.9544Y-3.7207
X4.9885Y-3.86
X5.0006Y-3.5994
X5.04Y-4.1
X5.0524Y-3.88
X5.07Y-3.9837
X5.13Y-4.37
T2
X5.2504Y-3.6047
X5.2504Y-3.6677
X5.2504Y-3.7307
X5.2976Y-3.6362
X5.2976Y-3.6992
T3
X6.9913Y-3.9193
X6.9913Y-3.9744
X6.9913Y-4.0295
X6.9913Y-4.0846
X6.9913Y-4.1398
X6.9913Y-4.1949
X6.9913Y-4.25
X6.9913Y-4.3051
X6.9913Y-4.3602
X6.9913Y-4.4154
X6.9913Y-4.4705
T5
X4.49Y-4.23
X4.49Y-4.33
X4.49Y-4.43
X7.7858Y-4.1067
X7.7858Y-4.2067
X7.7858Y-4.3067
X5.5118Y-4.0205
X5.5118Y-4.1205
X5.5118Y-4.2205
X3.5965Y-4.0299
X3.5965Y-4.1299
X3.5965Y-4.2299
X4.3091Y-4.0299
X4.3091Y-4.2299
X6.2992Y-4.0205
X6.2992Y-4.1205
X6.2992Y-4.2205
T6
X5.1016Y-3.9307
X5.2016Y-3.9307
X7.3516Y-3.9307
X7.4516Y-3.9307
X5.8516Y-3.9307
X5.9516Y-3.9307
X6.6016Y-3.9307
X6.7016Y-3.9307
X8.1016Y-3.9307
X8.2016Y-3.9307
T7
X7.2516Y-4.2307
X7.5016Y-4.3307
X6.5016Y-4.2307
X8.0016Y-4.2307
X8.2516Y-4.3307
X5.0016Y-4.2307
X5.2516Y-4.3307
X5.7516Y-4.2307
X6.0016Y-4.3307
X6.7516Y-4.3307
T4
G00X5.2602Y-3.524
M15
G01X5.2878Y-3.524
M16
G05
G00X5.2602Y-3.8114
M15
G01X5.2878Y-3.8114
M16
G05
G00X5.45Y-3.524
M15
G01X5.4776Y-3.524
M16
G05
G00X5.45Y-3.8114
M15
G01X5.4776Y-3.8114
M16
G05
T0
M30
