%TF.GenerationSoftware,KiCad,Pcbnew,(5.1.6)-1*%
%TF.CreationDate,2022-01-06T13:40:46-06:00*%
%TF.ProjectId,Pikatea XL Macropad,50696b61-7465-4612-9058-4c204d616372,rev?*%
%TF.SameCoordinates,Original*%
%TF.FileFunction,Legend,Top*%
%TF.FilePolarity,Positive*%
%FSLAX46Y46*%
G04 Gerber Fmt 4.6, Leading zero omitted, Abs format (unit mm)*
G04 Created by KiCad (PCBNEW (5.1.6)-1) date 2022-01-06 13:40:46*
%MOMM*%
%LPD*%
G01*
G04 APERTURE LIST*
%ADD10C,0.150000*%
%ADD11C,0.500000*%
%ADD12C,0.200000*%
%ADD13C,0.120000*%
G04 APERTURE END LIST*
D10*
X185980952Y-113657142D02*
X186028571Y-113704761D01*
X185980952Y-113752380D01*
X185933333Y-113704761D01*
X185980952Y-113657142D01*
X185980952Y-113752380D01*
X185980952Y-113371428D02*
X185933333Y-112800000D01*
X185980952Y-112752380D01*
X186028571Y-112800000D01*
X185980952Y-113371428D01*
X185980952Y-112752380D01*
X186457142Y-113085714D02*
X186457142Y-114085714D01*
X186457142Y-113133333D02*
X186552380Y-113085714D01*
X186742857Y-113085714D01*
X186838095Y-113133333D01*
X186885714Y-113180952D01*
X186933333Y-113276190D01*
X186933333Y-113561904D01*
X186885714Y-113657142D01*
X186838095Y-113704761D01*
X186742857Y-113752380D01*
X186552380Y-113752380D01*
X186457142Y-113704761D01*
X187361904Y-113752380D02*
X187361904Y-113085714D01*
X187361904Y-113276190D02*
X187409523Y-113180952D01*
X187457142Y-113133333D01*
X187552380Y-113085714D01*
X187647619Y-113085714D01*
X187980952Y-113752380D02*
X187980952Y-113085714D01*
X187980952Y-112752380D02*
X187933333Y-112800000D01*
X187980952Y-112847619D01*
X188028571Y-112800000D01*
X187980952Y-112752380D01*
X187980952Y-112847619D01*
X188457142Y-113085714D02*
X188457142Y-113752380D01*
X188457142Y-113180952D02*
X188504761Y-113133333D01*
X188600000Y-113085714D01*
X188742857Y-113085714D01*
X188838095Y-113133333D01*
X188885714Y-113228571D01*
X188885714Y-113752380D01*
X189219047Y-113085714D02*
X189600000Y-113085714D01*
X189361904Y-112752380D02*
X189361904Y-113609523D01*
X189409523Y-113704761D01*
X189504761Y-113752380D01*
X189600000Y-113752380D01*
X191028571Y-113228571D02*
X191171428Y-113276190D01*
X191219047Y-113323809D01*
X191266666Y-113419047D01*
X191266666Y-113561904D01*
X191219047Y-113657142D01*
X191171428Y-113704761D01*
X191076190Y-113752380D01*
X190695238Y-113752380D01*
X190695238Y-112752380D01*
X191028571Y-112752380D01*
X191123809Y-112800000D01*
X191171428Y-112847619D01*
X191219047Y-112942857D01*
X191219047Y-113038095D01*
X191171428Y-113133333D01*
X191123809Y-113180952D01*
X191028571Y-113228571D01*
X190695238Y-113228571D01*
X192076190Y-113704761D02*
X191980952Y-113752380D01*
X191790476Y-113752380D01*
X191695238Y-113704761D01*
X191647619Y-113609523D01*
X191647619Y-113228571D01*
X191695238Y-113133333D01*
X191790476Y-113085714D01*
X191980952Y-113085714D01*
X192076190Y-113133333D01*
X192123809Y-113228571D01*
X192123809Y-113323809D01*
X191647619Y-113419047D01*
X192933333Y-113704761D02*
X192838095Y-113752380D01*
X192647619Y-113752380D01*
X192552380Y-113704761D01*
X192504761Y-113609523D01*
X192504761Y-113228571D01*
X192552380Y-113133333D01*
X192647619Y-113085714D01*
X192838095Y-113085714D01*
X192933333Y-113133333D01*
X192980952Y-113228571D01*
X192980952Y-113323809D01*
X192504761Y-113419047D01*
X193409523Y-113085714D02*
X193409523Y-114085714D01*
X193409523Y-113133333D02*
X193504761Y-113085714D01*
X193695238Y-113085714D01*
X193790476Y-113133333D01*
X193838095Y-113180952D01*
X193885714Y-113276190D01*
X193885714Y-113561904D01*
X193838095Y-113657142D01*
X193790476Y-113704761D01*
X193695238Y-113752380D01*
X193504761Y-113752380D01*
X193409523Y-113704761D01*
X195409523Y-113228571D02*
X195552380Y-113276190D01*
X195600000Y-113323809D01*
X195647619Y-113419047D01*
X195647619Y-113561904D01*
X195600000Y-113657142D01*
X195552380Y-113704761D01*
X195457142Y-113752380D01*
X195076190Y-113752380D01*
X195076190Y-112752380D01*
X195409523Y-112752380D01*
X195504761Y-112800000D01*
X195552380Y-112847619D01*
X195600000Y-112942857D01*
X195600000Y-113038095D01*
X195552380Y-113133333D01*
X195504761Y-113180952D01*
X195409523Y-113228571D01*
X195076190Y-113228571D01*
X196457142Y-113704761D02*
X196361904Y-113752380D01*
X196171428Y-113752380D01*
X196076190Y-113704761D01*
X196028571Y-113609523D01*
X196028571Y-113228571D01*
X196076190Y-113133333D01*
X196171428Y-113085714D01*
X196361904Y-113085714D01*
X196457142Y-113133333D01*
X196504761Y-113228571D01*
X196504761Y-113323809D01*
X196028571Y-113419047D01*
X197314285Y-113704761D02*
X197219047Y-113752380D01*
X197028571Y-113752380D01*
X196933333Y-113704761D01*
X196885714Y-113609523D01*
X196885714Y-113228571D01*
X196933333Y-113133333D01*
X197028571Y-113085714D01*
X197219047Y-113085714D01*
X197314285Y-113133333D01*
X197361904Y-113228571D01*
X197361904Y-113323809D01*
X196885714Y-113419047D01*
X197790476Y-113085714D02*
X197790476Y-114085714D01*
X197790476Y-113133333D02*
X197885714Y-113085714D01*
X198076190Y-113085714D01*
X198171428Y-113133333D01*
X198219047Y-113180952D01*
X198266666Y-113276190D01*
X198266666Y-113561904D01*
X198219047Y-113657142D01*
X198171428Y-113704761D01*
X198076190Y-113752380D01*
X197885714Y-113752380D01*
X197790476Y-113704761D01*
D11*
X119523809Y-84804761D02*
X119523809Y-82804761D01*
X120285714Y-82804761D01*
X120476190Y-82900000D01*
X120571428Y-82995238D01*
X120666666Y-83185714D01*
X120666666Y-83471428D01*
X120571428Y-83661904D01*
X120476190Y-83757142D01*
X120285714Y-83852380D01*
X119523809Y-83852380D01*
X121523809Y-84804761D02*
X121523809Y-83471428D01*
X121523809Y-82804761D02*
X121428571Y-82900000D01*
X121523809Y-82995238D01*
X121619047Y-82900000D01*
X121523809Y-82804761D01*
X121523809Y-82995238D01*
X122476190Y-84804761D02*
X122476190Y-82804761D01*
X122666666Y-84042857D02*
X123238095Y-84804761D01*
X123238095Y-83471428D02*
X122476190Y-84233333D01*
X124952380Y-84804761D02*
X124952380Y-83757142D01*
X124857142Y-83566666D01*
X124666666Y-83471428D01*
X124285714Y-83471428D01*
X124095238Y-83566666D01*
X124952380Y-84709523D02*
X124761904Y-84804761D01*
X124285714Y-84804761D01*
X124095238Y-84709523D01*
X124000000Y-84519047D01*
X124000000Y-84328571D01*
X124095238Y-84138095D01*
X124285714Y-84042857D01*
X124761904Y-84042857D01*
X124952380Y-83947619D01*
X125619047Y-83471428D02*
X126380952Y-83471428D01*
X125904761Y-82804761D02*
X125904761Y-84519047D01*
X126000000Y-84709523D01*
X126190476Y-84804761D01*
X126380952Y-84804761D01*
X127809523Y-84709523D02*
X127619047Y-84804761D01*
X127238095Y-84804761D01*
X127047619Y-84709523D01*
X126952380Y-84519047D01*
X126952380Y-83757142D01*
X127047619Y-83566666D01*
X127238095Y-83471428D01*
X127619047Y-83471428D01*
X127809523Y-83566666D01*
X127904761Y-83757142D01*
X127904761Y-83947619D01*
X126952380Y-84138095D01*
X129619047Y-84804761D02*
X129619047Y-83757142D01*
X129523809Y-83566666D01*
X129333333Y-83471428D01*
X128952380Y-83471428D01*
X128761904Y-83566666D01*
X129619047Y-84709523D02*
X129428571Y-84804761D01*
X128952380Y-84804761D01*
X128761904Y-84709523D01*
X128666666Y-84519047D01*
X128666666Y-84328571D01*
X128761904Y-84138095D01*
X128952380Y-84042857D01*
X129428571Y-84042857D01*
X129619047Y-83947619D01*
X132095238Y-84804761D02*
X132095238Y-82804761D01*
X132761904Y-84233333D01*
X133428571Y-82804761D01*
X133428571Y-84804761D01*
X135238095Y-84804761D02*
X135238095Y-83757142D01*
X135142857Y-83566666D01*
X134952380Y-83471428D01*
X134571428Y-83471428D01*
X134380952Y-83566666D01*
X135238095Y-84709523D02*
X135047619Y-84804761D01*
X134571428Y-84804761D01*
X134380952Y-84709523D01*
X134285714Y-84519047D01*
X134285714Y-84328571D01*
X134380952Y-84138095D01*
X134571428Y-84042857D01*
X135047619Y-84042857D01*
X135238095Y-83947619D01*
X137047619Y-84709523D02*
X136857142Y-84804761D01*
X136476190Y-84804761D01*
X136285714Y-84709523D01*
X136190476Y-84614285D01*
X136095238Y-84423809D01*
X136095238Y-83852380D01*
X136190476Y-83661904D01*
X136285714Y-83566666D01*
X136476190Y-83471428D01*
X136857142Y-83471428D01*
X137047619Y-83566666D01*
X137904761Y-84804761D02*
X137904761Y-83471428D01*
X137904761Y-83852380D02*
X138000000Y-83661904D01*
X138095238Y-83566666D01*
X138285714Y-83471428D01*
X138476190Y-83471428D01*
X139428571Y-84804761D02*
X139238095Y-84709523D01*
X139142857Y-84614285D01*
X139047619Y-84423809D01*
X139047619Y-83852380D01*
X139142857Y-83661904D01*
X139238095Y-83566666D01*
X139428571Y-83471428D01*
X139714285Y-83471428D01*
X139904761Y-83566666D01*
X140000000Y-83661904D01*
X140095238Y-83852380D01*
X140095238Y-84423809D01*
X140000000Y-84614285D01*
X139904761Y-84709523D01*
X139714285Y-84804761D01*
X139428571Y-84804761D01*
X140952380Y-83471428D02*
X140952380Y-85471428D01*
X140952380Y-83566666D02*
X141142857Y-83471428D01*
X141523809Y-83471428D01*
X141714285Y-83566666D01*
X141809523Y-83661904D01*
X141904761Y-83852380D01*
X141904761Y-84423809D01*
X141809523Y-84614285D01*
X141714285Y-84709523D01*
X141523809Y-84804761D01*
X141142857Y-84804761D01*
X140952380Y-84709523D01*
X143619047Y-84804761D02*
X143619047Y-83757142D01*
X143523809Y-83566666D01*
X143333333Y-83471428D01*
X142952380Y-83471428D01*
X142761904Y-83566666D01*
X143619047Y-84709523D02*
X143428571Y-84804761D01*
X142952380Y-84804761D01*
X142761904Y-84709523D01*
X142666666Y-84519047D01*
X142666666Y-84328571D01*
X142761904Y-84138095D01*
X142952380Y-84042857D01*
X143428571Y-84042857D01*
X143619047Y-83947619D01*
X145428571Y-84804761D02*
X145428571Y-82804761D01*
X145428571Y-84709523D02*
X145238095Y-84804761D01*
X144857142Y-84804761D01*
X144666666Y-84709523D01*
X144571428Y-84614285D01*
X144476190Y-84423809D01*
X144476190Y-83852380D01*
X144571428Y-83661904D01*
X144666666Y-83566666D01*
X144857142Y-83471428D01*
X145238095Y-83471428D01*
X145428571Y-83566666D01*
X147714285Y-82804761D02*
X149047619Y-84804761D01*
X149047619Y-82804761D02*
X147714285Y-84804761D01*
X150761904Y-84804761D02*
X149809523Y-84804761D01*
X149809523Y-82804761D01*
D12*
%TO.C,D1*%
X192100000Y-88525000D02*
X189700000Y-88525000D01*
X192100000Y-88425000D02*
X189700000Y-88425000D01*
X192100000Y-88325000D02*
X189700000Y-88325000D01*
X192100000Y-88150000D02*
X189700000Y-88150000D01*
X192100000Y-87975000D02*
X189700000Y-87975000D01*
X192100000Y-87800000D02*
X189700000Y-87800000D01*
X192100000Y-87800000D02*
X192100000Y-93400000D01*
X192100000Y-93400000D02*
X189700000Y-93400000D01*
X189700000Y-93400000D02*
X189700000Y-87800000D01*
%TO.C,D2*%
X189800000Y-107075000D02*
X192200000Y-107075000D01*
X189800000Y-107175000D02*
X192200000Y-107175000D01*
X189800000Y-107275000D02*
X192200000Y-107275000D01*
X189800000Y-107450000D02*
X192200000Y-107450000D01*
X189800000Y-107625000D02*
X192200000Y-107625000D01*
X189800000Y-107800000D02*
X192200000Y-107800000D01*
X189800000Y-107800000D02*
X189800000Y-102200000D01*
X189800000Y-102200000D02*
X192200000Y-102200000D01*
X192200000Y-102200000D02*
X192200000Y-107800000D01*
%TO.C,D3*%
X189500000Y-88525000D02*
X187100000Y-88525000D01*
X189500000Y-88425000D02*
X187100000Y-88425000D01*
X189500000Y-88325000D02*
X187100000Y-88325000D01*
X189500000Y-88150000D02*
X187100000Y-88150000D01*
X189500000Y-87975000D02*
X187100000Y-87975000D01*
X189500000Y-87800000D02*
X187100000Y-87800000D01*
X189500000Y-87800000D02*
X189500000Y-93400000D01*
X189500000Y-93400000D02*
X187100000Y-93400000D01*
X187100000Y-93400000D02*
X187100000Y-87800000D01*
%TO.C,D4*%
X187100000Y-107075000D02*
X189500000Y-107075000D01*
X187100000Y-107175000D02*
X189500000Y-107175000D01*
X187100000Y-107275000D02*
X189500000Y-107275000D01*
X187100000Y-107450000D02*
X189500000Y-107450000D01*
X187100000Y-107625000D02*
X189500000Y-107625000D01*
X187100000Y-107800000D02*
X189500000Y-107800000D01*
X187100000Y-107800000D02*
X187100000Y-102200000D01*
X187100000Y-102200000D02*
X189500000Y-102200000D01*
X189500000Y-102200000D02*
X189500000Y-107800000D01*
%TO.C,D5*%
X104700000Y-94575000D02*
X107100000Y-94575000D01*
X104700000Y-94675000D02*
X107100000Y-94675000D01*
X104700000Y-94775000D02*
X107100000Y-94775000D01*
X104700000Y-94950000D02*
X107100000Y-94950000D01*
X104700000Y-95125000D02*
X107100000Y-95125000D01*
X104700000Y-95300000D02*
X107100000Y-95300000D01*
X104700000Y-95300000D02*
X104700000Y-89700000D01*
X104700000Y-89700000D02*
X107100000Y-89700000D01*
X107100000Y-89700000D02*
X107100000Y-95300000D01*
%TO.C,D6*%
X104700000Y-107075000D02*
X107100000Y-107075000D01*
X104700000Y-107175000D02*
X107100000Y-107175000D01*
X104700000Y-107275000D02*
X107100000Y-107275000D01*
X104700000Y-107450000D02*
X107100000Y-107450000D01*
X104700000Y-107625000D02*
X107100000Y-107625000D01*
X104700000Y-107800000D02*
X107100000Y-107800000D01*
X104700000Y-107800000D02*
X104700000Y-102200000D01*
X104700000Y-102200000D02*
X107100000Y-102200000D01*
X107100000Y-102200000D02*
X107100000Y-107800000D01*
%TO.C,D7*%
X102000000Y-94575000D02*
X104400000Y-94575000D01*
X102000000Y-94675000D02*
X104400000Y-94675000D01*
X102000000Y-94775000D02*
X104400000Y-94775000D01*
X102000000Y-94950000D02*
X104400000Y-94950000D01*
X102000000Y-95125000D02*
X104400000Y-95125000D01*
X102000000Y-95300000D02*
X104400000Y-95300000D01*
X102000000Y-95300000D02*
X102000000Y-89700000D01*
X102000000Y-89700000D02*
X104400000Y-89700000D01*
X104400000Y-89700000D02*
X104400000Y-95300000D01*
%TO.C,D8*%
X102000000Y-107075000D02*
X104400000Y-107075000D01*
X102000000Y-107175000D02*
X104400000Y-107175000D01*
X102000000Y-107275000D02*
X104400000Y-107275000D01*
X102000000Y-107450000D02*
X104400000Y-107450000D01*
X102000000Y-107625000D02*
X104400000Y-107625000D01*
X102000000Y-107800000D02*
X104400000Y-107800000D01*
X102000000Y-107800000D02*
X102000000Y-102200000D01*
X102000000Y-102200000D02*
X104400000Y-102200000D01*
X104400000Y-102200000D02*
X104400000Y-107800000D01*
%TO.C,D9*%
X135900000Y-94575000D02*
X138300000Y-94575000D01*
X135900000Y-94675000D02*
X138300000Y-94675000D01*
X135900000Y-94775000D02*
X138300000Y-94775000D01*
X135900000Y-94950000D02*
X138300000Y-94950000D01*
X135900000Y-95125000D02*
X138300000Y-95125000D01*
X135900000Y-95300000D02*
X138300000Y-95300000D01*
X135900000Y-95300000D02*
X135900000Y-89700000D01*
X135900000Y-89700000D02*
X138300000Y-89700000D01*
X138300000Y-89700000D02*
X138300000Y-95300000D01*
D10*
%TO.C,U1*%
X154711400Y-75145900D02*
X154711400Y-105625900D01*
X154711400Y-75145900D02*
X159791400Y-75145900D01*
X159791400Y-75145900D02*
X159791400Y-72605900D01*
X159791400Y-72605900D02*
X167411400Y-72605900D01*
X167411400Y-72605900D02*
X167411400Y-75145900D01*
X167411400Y-75145900D02*
X172491400Y-75145900D01*
X172491400Y-75145900D02*
X172491400Y-105625900D01*
X172491400Y-105625900D02*
X154711400Y-105625900D01*
D13*
%TO.C,J1*%
X92840500Y-75847900D02*
X92840500Y-78507900D01*
X120840500Y-75847900D02*
X92840500Y-75847900D01*
X120840500Y-78507900D02*
X92840500Y-78507900D01*
X120840500Y-75847900D02*
X120840500Y-78507900D01*
X122110500Y-75847900D02*
X123440500Y-75847900D01*
X123440500Y-75847900D02*
X123440500Y-77177900D01*
%TO.C,SW3*%
X153771080Y-106679940D02*
X140371080Y-106679940D01*
X153771080Y-90479940D02*
X140371080Y-90479940D01*
X140371080Y-106679940D02*
X140371080Y-90479940D01*
X153771080Y-90479940D02*
X153771080Y-106679940D01*
%TO.C,D1*%
D10*
X193352380Y-91338095D02*
X192352380Y-91338095D01*
X192352380Y-91100000D01*
X192400000Y-90957142D01*
X192495238Y-90861904D01*
X192590476Y-90814285D01*
X192780952Y-90766666D01*
X192923809Y-90766666D01*
X193114285Y-90814285D01*
X193209523Y-90861904D01*
X193304761Y-90957142D01*
X193352380Y-91100000D01*
X193352380Y-91338095D01*
X193352380Y-89814285D02*
X193352380Y-90385714D01*
X193352380Y-90100000D02*
X192352380Y-90100000D01*
X192495238Y-90195238D01*
X192590476Y-90290476D01*
X192638095Y-90385714D01*
%TO.C,D2*%
X189452380Y-105738095D02*
X188452380Y-105738095D01*
X188452380Y-105500000D01*
X188500000Y-105357142D01*
X188595238Y-105261904D01*
X188690476Y-105214285D01*
X188880952Y-105166666D01*
X189023809Y-105166666D01*
X189214285Y-105214285D01*
X189309523Y-105261904D01*
X189404761Y-105357142D01*
X189452380Y-105500000D01*
X189452380Y-105738095D01*
X188547619Y-104785714D02*
X188500000Y-104738095D01*
X188452380Y-104642857D01*
X188452380Y-104404761D01*
X188500000Y-104309523D01*
X188547619Y-104261904D01*
X188642857Y-104214285D01*
X188738095Y-104214285D01*
X188880952Y-104261904D01*
X189452380Y-104833333D01*
X189452380Y-104214285D01*
%TO.C,D3*%
X190752380Y-91338095D02*
X189752380Y-91338095D01*
X189752380Y-91100000D01*
X189800000Y-90957142D01*
X189895238Y-90861904D01*
X189990476Y-90814285D01*
X190180952Y-90766666D01*
X190323809Y-90766666D01*
X190514285Y-90814285D01*
X190609523Y-90861904D01*
X190704761Y-90957142D01*
X190752380Y-91100000D01*
X190752380Y-91338095D01*
X189752380Y-90433333D02*
X189752380Y-89814285D01*
X190133333Y-90147619D01*
X190133333Y-90004761D01*
X190180952Y-89909523D01*
X190228571Y-89861904D01*
X190323809Y-89814285D01*
X190561904Y-89814285D01*
X190657142Y-89861904D01*
X190704761Y-89909523D01*
X190752380Y-90004761D01*
X190752380Y-90290476D01*
X190704761Y-90385714D01*
X190657142Y-90433333D01*
%TO.C,D4*%
X186752380Y-105738095D02*
X185752380Y-105738095D01*
X185752380Y-105500000D01*
X185800000Y-105357142D01*
X185895238Y-105261904D01*
X185990476Y-105214285D01*
X186180952Y-105166666D01*
X186323809Y-105166666D01*
X186514285Y-105214285D01*
X186609523Y-105261904D01*
X186704761Y-105357142D01*
X186752380Y-105500000D01*
X186752380Y-105738095D01*
X186085714Y-104309523D02*
X186752380Y-104309523D01*
X185704761Y-104547619D02*
X186419047Y-104785714D01*
X186419047Y-104166666D01*
%TO.C,D5*%
X104352380Y-93238095D02*
X103352380Y-93238095D01*
X103352380Y-93000000D01*
X103400000Y-92857142D01*
X103495238Y-92761904D01*
X103590476Y-92714285D01*
X103780952Y-92666666D01*
X103923809Y-92666666D01*
X104114285Y-92714285D01*
X104209523Y-92761904D01*
X104304761Y-92857142D01*
X104352380Y-93000000D01*
X104352380Y-93238095D01*
X103352380Y-91761904D02*
X103352380Y-92238095D01*
X103828571Y-92285714D01*
X103780952Y-92238095D01*
X103733333Y-92142857D01*
X103733333Y-91904761D01*
X103780952Y-91809523D01*
X103828571Y-91761904D01*
X103923809Y-91714285D01*
X104161904Y-91714285D01*
X104257142Y-91761904D01*
X104304761Y-91809523D01*
X104352380Y-91904761D01*
X104352380Y-92142857D01*
X104304761Y-92238095D01*
X104257142Y-92285714D01*
%TO.C,D6*%
X104352380Y-105738095D02*
X103352380Y-105738095D01*
X103352380Y-105500000D01*
X103400000Y-105357142D01*
X103495238Y-105261904D01*
X103590476Y-105214285D01*
X103780952Y-105166666D01*
X103923809Y-105166666D01*
X104114285Y-105214285D01*
X104209523Y-105261904D01*
X104304761Y-105357142D01*
X104352380Y-105500000D01*
X104352380Y-105738095D01*
X103352380Y-104309523D02*
X103352380Y-104500000D01*
X103400000Y-104595238D01*
X103447619Y-104642857D01*
X103590476Y-104738095D01*
X103780952Y-104785714D01*
X104161904Y-104785714D01*
X104257142Y-104738095D01*
X104304761Y-104690476D01*
X104352380Y-104595238D01*
X104352380Y-104404761D01*
X104304761Y-104309523D01*
X104257142Y-104261904D01*
X104161904Y-104214285D01*
X103923809Y-104214285D01*
X103828571Y-104261904D01*
X103780952Y-104309523D01*
X103733333Y-104404761D01*
X103733333Y-104595238D01*
X103780952Y-104690476D01*
X103828571Y-104738095D01*
X103923809Y-104785714D01*
%TO.C,D7*%
X101652380Y-93238095D02*
X100652380Y-93238095D01*
X100652380Y-93000000D01*
X100700000Y-92857142D01*
X100795238Y-92761904D01*
X100890476Y-92714285D01*
X101080952Y-92666666D01*
X101223809Y-92666666D01*
X101414285Y-92714285D01*
X101509523Y-92761904D01*
X101604761Y-92857142D01*
X101652380Y-93000000D01*
X101652380Y-93238095D01*
X100652380Y-92333333D02*
X100652380Y-91666666D01*
X101652380Y-92095238D01*
%TO.C,D8*%
X101652380Y-105738095D02*
X100652380Y-105738095D01*
X100652380Y-105500000D01*
X100700000Y-105357142D01*
X100795238Y-105261904D01*
X100890476Y-105214285D01*
X101080952Y-105166666D01*
X101223809Y-105166666D01*
X101414285Y-105214285D01*
X101509523Y-105261904D01*
X101604761Y-105357142D01*
X101652380Y-105500000D01*
X101652380Y-105738095D01*
X101080952Y-104595238D02*
X101033333Y-104690476D01*
X100985714Y-104738095D01*
X100890476Y-104785714D01*
X100842857Y-104785714D01*
X100747619Y-104738095D01*
X100700000Y-104690476D01*
X100652380Y-104595238D01*
X100652380Y-104404761D01*
X100700000Y-104309523D01*
X100747619Y-104261904D01*
X100842857Y-104214285D01*
X100890476Y-104214285D01*
X100985714Y-104261904D01*
X101033333Y-104309523D01*
X101080952Y-104404761D01*
X101080952Y-104595238D01*
X101128571Y-104690476D01*
X101176190Y-104738095D01*
X101271428Y-104785714D01*
X101461904Y-104785714D01*
X101557142Y-104738095D01*
X101604761Y-104690476D01*
X101652380Y-104595238D01*
X101652380Y-104404761D01*
X101604761Y-104309523D01*
X101557142Y-104261904D01*
X101461904Y-104214285D01*
X101271428Y-104214285D01*
X101176190Y-104261904D01*
X101128571Y-104309523D01*
X101080952Y-104404761D01*
%TO.C,D9*%
X135552380Y-93238095D02*
X134552380Y-93238095D01*
X134552380Y-93000000D01*
X134600000Y-92857142D01*
X134695238Y-92761904D01*
X134790476Y-92714285D01*
X134980952Y-92666666D01*
X135123809Y-92666666D01*
X135314285Y-92714285D01*
X135409523Y-92761904D01*
X135504761Y-92857142D01*
X135552380Y-93000000D01*
X135552380Y-93238095D01*
X135552380Y-92190476D02*
X135552380Y-92000000D01*
X135504761Y-91904761D01*
X135457142Y-91857142D01*
X135314285Y-91761904D01*
X135123809Y-91714285D01*
X134742857Y-91714285D01*
X134647619Y-91761904D01*
X134600000Y-91809523D01*
X134552380Y-91904761D01*
X134552380Y-92095238D01*
X134600000Y-92190476D01*
X134647619Y-92238095D01*
X134742857Y-92285714D01*
X134980952Y-92285714D01*
X135076190Y-92238095D01*
X135123809Y-92190476D01*
X135171428Y-92095238D01*
X135171428Y-91904761D01*
X135123809Y-91809523D01*
X135076190Y-91761904D01*
X134980952Y-91714285D01*
%TO.C,J1*%
X123892880Y-77511233D02*
X124607166Y-77511233D01*
X124750023Y-77558852D01*
X124845261Y-77654090D01*
X124892880Y-77796947D01*
X124892880Y-77892185D01*
X124892880Y-76511233D02*
X124892880Y-77082661D01*
X124892880Y-76796947D02*
X123892880Y-76796947D01*
X124035738Y-76892185D01*
X124130976Y-76987423D01*
X124178595Y-77082661D01*
%TO.C,SW3*%
X153375841Y-110413273D02*
X153423460Y-110270416D01*
X153423460Y-110032320D01*
X153375841Y-109937082D01*
X153328222Y-109889463D01*
X153232984Y-109841844D01*
X153137746Y-109841844D01*
X153042508Y-109889463D01*
X152994889Y-109937082D01*
X152947270Y-110032320D01*
X152899651Y-110222797D01*
X152852032Y-110318035D01*
X152804413Y-110365654D01*
X152709175Y-110413273D01*
X152613937Y-110413273D01*
X152518699Y-110365654D01*
X152471080Y-110318035D01*
X152423460Y-110222797D01*
X152423460Y-109984701D01*
X152471080Y-109841844D01*
X152423460Y-109508511D02*
X153423460Y-109270416D01*
X152709175Y-109079940D01*
X153423460Y-108889463D01*
X152423460Y-108651368D01*
X152423460Y-108365654D02*
X152423460Y-107746606D01*
X152804413Y-108079940D01*
X152804413Y-107937082D01*
X152852032Y-107841844D01*
X152899651Y-107794225D01*
X152994889Y-107746606D01*
X153232984Y-107746606D01*
X153328222Y-107794225D01*
X153375841Y-107841844D01*
X153423460Y-107937082D01*
X153423460Y-108222797D01*
X153375841Y-108318035D01*
X153328222Y-108365654D01*
%TD*%
M02*
