%TF.GenerationSoftware,KiCad,Pcbnew,(5.1.6)-1*%
%TF.CreationDate,2022-01-06T13:40:46-06:00*%
%TF.ProjectId,Pikatea XL Macropad,50696b61-7465-4612-9058-4c204d616372,rev?*%
%TF.SameCoordinates,Original*%
%TF.FileFunction,Copper,L1,Top*%
%TF.FilePolarity,Positive*%
%FSLAX46Y46*%
G04 Gerber Fmt 4.6, Leading zero omitted, Abs format (unit mm)*
G04 Created by KiCad (PCBNEW (5.1.6)-1) date 2022-01-06 13:40:46*
%MOMM*%
%LPD*%
G01*
G04 APERTURE LIST*
%TA.AperFunction,ComponentPad*%
%ADD10C,1.600000*%
%TD*%
%TA.AperFunction,ComponentPad*%
%ADD11R,1.600000X1.600000*%
%TD*%
%TA.AperFunction,ComponentPad*%
%ADD12O,1.700000X1.700000*%
%TD*%
%TA.AperFunction,ComponentPad*%
%ADD13R,1.700000X1.700000*%
%TD*%
%TA.AperFunction,ComponentPad*%
%ADD14R,1.905000X1.905000*%
%TD*%
%TA.AperFunction,ComponentPad*%
%ADD15C,1.905000*%
%TD*%
%TA.AperFunction,ComponentPad*%
%ADD16C,2.250000*%
%TD*%
%TA.AperFunction,ViaPad*%
%ADD17C,0.800000*%
%TD*%
%TA.AperFunction,Conductor*%
%ADD18C,0.250000*%
%TD*%
%TA.AperFunction,Conductor*%
%ADD19C,0.254000*%
%TD*%
G04 APERTURE END LIST*
D10*
%TO.P,D1,2*%
%TO.N,/A3*%
X190900000Y-94500000D03*
D11*
%TO.P,D1,1*%
%TO.N,Net-(D1-Pad1)*%
X190900000Y-86700000D03*
%TD*%
D10*
%TO.P,D2,2*%
%TO.N,/A0*%
X191000000Y-101100000D03*
D11*
%TO.P,D2,1*%
%TO.N,Net-(D2-Pad1)*%
X191000000Y-108900000D03*
%TD*%
D10*
%TO.P,D3,2*%
%TO.N,/A3*%
X188300000Y-94500000D03*
D11*
%TO.P,D3,1*%
%TO.N,Net-(D3-Pad1)*%
X188300000Y-86700000D03*
%TD*%
D10*
%TO.P,D4,2*%
%TO.N,/A0*%
X188300000Y-101100000D03*
D11*
%TO.P,D4,1*%
%TO.N,Net-(D4-Pad1)*%
X188300000Y-108900000D03*
%TD*%
D10*
%TO.P,D5,2*%
%TO.N,/A3*%
X105900000Y-88600000D03*
D11*
%TO.P,D5,1*%
%TO.N,Net-(D5-Pad1)*%
X105900000Y-96400000D03*
%TD*%
D10*
%TO.P,D6,2*%
%TO.N,/A0*%
X105900000Y-101100000D03*
D11*
%TO.P,D6,1*%
%TO.N,Net-(D6-Pad1)*%
X105900000Y-108900000D03*
%TD*%
D10*
%TO.P,D7,2*%
%TO.N,/A3*%
X103200000Y-88600000D03*
D11*
%TO.P,D7,1*%
%TO.N,Net-(D7-Pad1)*%
X103200000Y-96400000D03*
%TD*%
D10*
%TO.P,D8,2*%
%TO.N,/A0*%
X103200000Y-101100000D03*
D11*
%TO.P,D8,1*%
%TO.N,Net-(D8-Pad1)*%
X103200000Y-108900000D03*
%TD*%
D10*
%TO.P,D9,2*%
%TO.N,/A3*%
X137100000Y-88600000D03*
D11*
%TO.P,D9,1*%
%TO.N,Net-(D9-Pad1)*%
X137100000Y-96400000D03*
%TD*%
D10*
%TO.P,U1,24*%
%TO.N,Net-(U1-Pad24)*%
X171221400Y-76415900D03*
%TO.P,U1,23*%
%TO.N,Net-(U1-Pad23)*%
X171221400Y-78955900D03*
%TO.P,U1,22*%
%TO.N,Net-(U1-Pad22)*%
X171221400Y-81495900D03*
%TO.P,U1,21*%
%TO.N,Net-(U1-Pad21)*%
X171221400Y-84035900D03*
%TO.P,U1,20*%
%TO.N,Net-(U1-Pad20)*%
X171221400Y-86575900D03*
%TO.P,U1,19*%
%TO.N,Net-(U1-Pad19)*%
X171221400Y-89115900D03*
%TO.P,U1,18*%
%TO.N,Net-(U1-Pad18)*%
X171221400Y-91655900D03*
%TO.P,U1,17*%
%TO.N,Net-(U1-Pad17)*%
X171221400Y-94195900D03*
%TO.P,U1,16*%
%TO.N,Net-(U1-Pad16)*%
X171221400Y-96735900D03*
%TO.P,U1,15*%
%TO.N,Net-(U1-Pad15)*%
X171221400Y-99275900D03*
%TO.P,U1,14*%
%TO.N,Net-(U1-Pad14)*%
X171221400Y-101815900D03*
%TO.P,U1,13*%
%TO.N,Net-(U1-Pad13)*%
X171221400Y-104355900D03*
%TO.P,U1,12*%
%TO.N,/A4*%
X155981400Y-104355900D03*
%TO.P,U1,11*%
%TO.N,/A0*%
X155981400Y-101815900D03*
%TO.P,U1,10*%
%TO.N,/A3*%
X155981400Y-99275900D03*
%TO.P,U1,9*%
%TO.N,/D9*%
X155981400Y-96735900D03*
%TO.P,U1,8*%
%TO.N,/D7*%
X155981400Y-94195900D03*
%TO.P,U1,7*%
%TO.N,/A*%
X155981400Y-91655900D03*
%TO.P,U1,6*%
%TO.N,/B*%
X155981400Y-89115900D03*
%TO.P,U1,5*%
%TO.N,Net-(J1-Pad5)*%
X155981400Y-86575900D03*
%TO.P,U1,4*%
%TO.N,GND*%
X155981400Y-84035900D03*
%TO.P,U1,3*%
X155981400Y-81495900D03*
%TO.P,U1,2*%
%TO.N,Net-(J1-Pad2)*%
X155981400Y-78955900D03*
D11*
%TO.P,U1,1*%
%TO.N,/A10*%
X155981400Y-76415900D03*
%TD*%
D12*
%TO.P,J1,12*%
%TO.N,/A4*%
X94170500Y-77177900D03*
%TO.P,J1,11*%
%TO.N,/A0*%
X96710500Y-77177900D03*
%TO.P,J1,10*%
%TO.N,/A3*%
X99250500Y-77177900D03*
%TO.P,J1,9*%
%TO.N,/D9*%
X101790500Y-77177900D03*
%TO.P,J1,8*%
%TO.N,/D7*%
X104330500Y-77177900D03*
%TO.P,J1,7*%
%TO.N,/A*%
X106870500Y-77177900D03*
%TO.P,J1,6*%
%TO.N,/B*%
X109410500Y-77177900D03*
%TO.P,J1,5*%
%TO.N,Net-(J1-Pad5)*%
X111950500Y-77177900D03*
%TO.P,J1,4*%
%TO.N,GND*%
X114490500Y-77177900D03*
%TO.P,J1,3*%
X117030500Y-77177900D03*
%TO.P,J1,2*%
%TO.N,Net-(J1-Pad2)*%
X119570500Y-77177900D03*
D13*
%TO.P,J1,1*%
%TO.N,/A10*%
X122110500Y-77177900D03*
%TD*%
%TO.P,SW3,S1*%
%TO.N,Net-(D9-Pad1)*%
X144531080Y-89529940D03*
%TO.P,SW3,S2*%
%TO.N,/A10*%
X149611080Y-89529940D03*
%TO.P,SW3,C*%
%TO.N,GND*%
X147071080Y-107629940D03*
%TO.P,SW3,B*%
%TO.N,/B*%
X144531080Y-107629940D03*
%TO.P,SW3,A*%
%TO.N,/A*%
X149611080Y-107629940D03*
%TD*%
D14*
%TO.P,MX8,4*%
%TO.N,Net-(MX8-Pad4)*%
X96321479Y-83243660D03*
D15*
%TO.P,MX8,3*%
%TO.N,Net-(MX8-Pad3)*%
X93781479Y-83243660D03*
D16*
%TO.P,MX8,1*%
%TO.N,/A4*%
X91241479Y-90863660D03*
%TO.P,MX8,2*%
%TO.N,Net-(D7-Pad1)*%
X97591479Y-93403660D03*
%TD*%
D14*
%TO.P,MX7,4*%
%TO.N,Net-(MX7-Pad4)*%
X115371480Y-83243660D03*
D15*
%TO.P,MX7,3*%
%TO.N,Net-(MX7-Pad3)*%
X112831480Y-83243660D03*
D16*
%TO.P,MX7,1*%
%TO.N,/D8*%
X110291480Y-90863660D03*
%TO.P,MX7,2*%
%TO.N,Net-(D5-Pad1)*%
X116641480Y-93403660D03*
%TD*%
D14*
%TO.P,MX6,4*%
%TO.N,Net-(MX6-Pad4)*%
X181371480Y-83243660D03*
D15*
%TO.P,MX6,3*%
%TO.N,Net-(MX6-Pad3)*%
X178831480Y-83243660D03*
D16*
%TO.P,MX6,1*%
%TO.N,/D7*%
X176291480Y-90863660D03*
%TO.P,MX6,2*%
%TO.N,Net-(D3-Pad1)*%
X182641480Y-93403660D03*
%TD*%
D14*
%TO.P,MX5,4*%
%TO.N,Net-(MX5-Pad4)*%
X200421480Y-83243660D03*
D15*
%TO.P,MX5,3*%
%TO.N,Net-(MX5-Pad3)*%
X197881480Y-83243660D03*
D16*
%TO.P,MX5,1*%
%TO.N,/D9*%
X195341480Y-90863660D03*
%TO.P,MX5,2*%
%TO.N,Net-(D1-Pad1)*%
X201691480Y-93403660D03*
%TD*%
D14*
%TO.P,MX4,4*%
%TO.N,Net-(MX4-Pad4)*%
X96321479Y-102293660D03*
D15*
%TO.P,MX4,3*%
%TO.N,Net-(MX4-Pad3)*%
X93781479Y-102293660D03*
D16*
%TO.P,MX4,1*%
%TO.N,/A4*%
X91241479Y-109913660D03*
%TO.P,MX4,2*%
%TO.N,Net-(D8-Pad1)*%
X97591479Y-112453660D03*
%TD*%
D14*
%TO.P,MX3,4*%
%TO.N,Net-(MX3-Pad4)*%
X115371480Y-102293659D03*
D15*
%TO.P,MX3,3*%
%TO.N,Net-(MX3-Pad3)*%
X112831480Y-102293659D03*
D16*
%TO.P,MX3,1*%
%TO.N,/D8*%
X110291480Y-109913659D03*
%TO.P,MX3,2*%
%TO.N,Net-(D6-Pad1)*%
X116641480Y-112453659D03*
%TD*%
D14*
%TO.P,MX2,4*%
%TO.N,Net-(MX2-Pad4)*%
X181371480Y-102293659D03*
D15*
%TO.P,MX2,3*%
%TO.N,Net-(MX2-Pad3)*%
X178831480Y-102293659D03*
D16*
%TO.P,MX2,1*%
%TO.N,/D7*%
X176291480Y-109913659D03*
%TO.P,MX2,2*%
%TO.N,Net-(D4-Pad1)*%
X182641480Y-112453659D03*
%TD*%
D14*
%TO.P,MX1,4*%
%TO.N,Net-(MX1-Pad4)*%
X200421480Y-102293659D03*
D15*
%TO.P,MX1,3*%
%TO.N,Net-(MX1-Pad3)*%
X197881480Y-102293659D03*
D16*
%TO.P,MX1,1*%
%TO.N,/D9*%
X195341480Y-109913659D03*
%TO.P,MX1,2*%
%TO.N,Net-(D2-Pad1)*%
X201691480Y-112453659D03*
%TD*%
D17*
%TO.N,GND*%
X115800000Y-76200000D03*
%TO.N,/D9*%
X162100000Y-97700000D03*
%TO.N,/D7*%
X162000000Y-94400000D03*
%TO.N,/A3*%
X167620901Y-95320901D03*
%TO.N,/A0*%
X178307113Y-112600000D03*
X163800000Y-101900000D03*
%TO.N,GND*%
X157200000Y-82600000D03*
X107100000Y-87300000D03*
X107400000Y-97900000D03*
X100500000Y-97200000D03*
X103000000Y-86800000D03*
X107400000Y-110500000D03*
X101500000Y-109900000D03*
X101300000Y-101500000D03*
X107500000Y-101400000D03*
X151800000Y-110300000D03*
X142300000Y-109100000D03*
X154200000Y-108500000D03*
X188700000Y-111200000D03*
X192600000Y-108800000D03*
X187900000Y-102900000D03*
X191200000Y-102900000D03*
X188400000Y-89300000D03*
X190300000Y-89200000D03*
X191000000Y-92400000D03*
X188200000Y-92500000D03*
X157300000Y-103200000D03*
X118300000Y-92300000D03*
X95700000Y-92200000D03*
X94400000Y-111100000D03*
X113600000Y-111100000D03*
X151600000Y-89500000D03*
X142200000Y-88600000D03*
X137100000Y-90200000D03*
X138000000Y-94700000D03*
X153900000Y-78000000D03*
X120200000Y-79300000D03*
X147700000Y-76800000D03*
X100400000Y-84300000D03*
X89800000Y-94500000D03*
X161400000Y-100400000D03*
X157800000Y-95700000D03*
X90500000Y-113600000D03*
X89200000Y-78700000D03*
X92600000Y-80000000D03*
X157800000Y-98000000D03*
X111300000Y-79500000D03*
%TO.N,/A10*%
X149587347Y-79287347D03*
%TD*%
D18*
%TO.N,Net-(D1-Pad1)*%
X200927482Y-93403660D02*
X201691480Y-93403660D01*
X194223822Y-86700000D02*
X200927482Y-93403660D01*
X190900000Y-86700000D02*
X194223822Y-86700000D01*
%TO.N,Net-(D2-Pad1)*%
X191000000Y-108900000D02*
X191000000Y-110500000D01*
X192953659Y-112453659D02*
X201691480Y-112453659D01*
X191000000Y-110500000D02*
X192953659Y-112453659D01*
%TO.N,Net-(D3-Pad1)*%
X182641480Y-89087658D02*
X182641480Y-93403660D01*
X185029138Y-86700000D02*
X182641480Y-89087658D01*
X188300000Y-86700000D02*
X185029138Y-86700000D01*
%TO.N,Net-(D4-Pad1)*%
X188300000Y-108900000D02*
X188300000Y-110700000D01*
X186546341Y-112453659D02*
X182641480Y-112453659D01*
X188300000Y-110700000D02*
X186546341Y-112453659D01*
%TO.N,Net-(D6-Pad1)*%
X105900000Y-108900000D02*
X105900000Y-111500000D01*
X106853659Y-112453659D02*
X116641480Y-112453659D01*
X105900000Y-111500000D02*
X106853659Y-112453659D01*
%TO.N,Net-(D7-Pad1)*%
X100587819Y-96400000D02*
X97591479Y-93403660D01*
X103200000Y-96400000D02*
X100587819Y-96400000D01*
%TO.N,Net-(D8-Pad1)*%
X103200000Y-108900000D02*
X103200000Y-110300000D01*
X101046340Y-112453660D02*
X97591479Y-112453660D01*
X103200000Y-110300000D02*
X101046340Y-112453660D01*
%TO.N,Net-(D9-Pad1)*%
X137100000Y-96400000D02*
X137100000Y-91700000D01*
X139270060Y-89529940D02*
X144531080Y-89529940D01*
X137100000Y-91700000D02*
X139270060Y-89529940D01*
%TO.N,/D9*%
X195341480Y-107879661D02*
X195341480Y-109913659D01*
X195341480Y-90863660D02*
X195341480Y-107879661D01*
X161135900Y-96735900D02*
X155981400Y-96735900D01*
X162100000Y-97700000D02*
X161135900Y-96735900D01*
%TO.N,/D7*%
X176291480Y-107879661D02*
X176291480Y-109913659D01*
X176291480Y-90863660D02*
X176291480Y-107879661D01*
X156185500Y-94400000D02*
X155981400Y-94195900D01*
X162000000Y-94400000D02*
X156185500Y-94400000D01*
%TO.N,/D8*%
X110291480Y-109913659D02*
X110291480Y-90863660D01*
%TO.N,/A4*%
X91241479Y-80106921D02*
X94170500Y-77177900D01*
X91241479Y-90863660D02*
X91241479Y-80106921D01*
X91241479Y-109913660D02*
X96327819Y-115000000D01*
X96327819Y-115000000D02*
X151500000Y-115000000D01*
X155981400Y-110518600D02*
X155981400Y-104355900D01*
X151500000Y-115000000D02*
X155981400Y-110518600D01*
%TO.N,/A3*%
X190900000Y-94500000D02*
X188300000Y-94500000D01*
X105900000Y-88600000D02*
X103200000Y-88600000D01*
X103200000Y-88600000D02*
X100300000Y-85700000D01*
X99250500Y-84650500D02*
X100300000Y-85700000D01*
X99250500Y-77177900D02*
X99250500Y-84650500D01*
X137709101Y-87990899D02*
X137100000Y-88600000D01*
X160290899Y-87990899D02*
X137709101Y-87990899D01*
X167620901Y-95320901D02*
X160290899Y-87990899D01*
X167620901Y-95320901D02*
X167620901Y-95979099D01*
X164324100Y-99275900D02*
X155981400Y-99275900D01*
X167620901Y-95979099D02*
X164324100Y-99275900D01*
%TO.N,/A0*%
X191000000Y-101100000D02*
X188300000Y-101100000D01*
X103200000Y-101100000D02*
X105900000Y-101100000D01*
X182420381Y-108486732D02*
X182420381Y-106979619D01*
X178307113Y-112600000D02*
X178307113Y-112600000D01*
X182420381Y-106979619D02*
X188300000Y-101100000D01*
X103200000Y-101100000D02*
X102100000Y-100000000D01*
X92503978Y-81384422D02*
X96710500Y-77177900D01*
X92691480Y-93791480D02*
X92691480Y-84044363D01*
X92691480Y-84044363D02*
X92503978Y-83856861D01*
X98900000Y-100000000D02*
X92691480Y-93791480D01*
X92503978Y-83856861D02*
X92503978Y-81384422D01*
X102100000Y-100000000D02*
X98900000Y-100000000D01*
X178307113Y-112600000D02*
X182420381Y-108486732D01*
X156065500Y-101900000D02*
X155981400Y-101815900D01*
X163800000Y-101900000D02*
X156065500Y-101900000D01*
%TO.N,Net-(J1-Pad5)*%
X111950500Y-77332678D02*
X111950500Y-77177900D01*
X115234957Y-80462357D02*
X111950500Y-77177900D01*
X153062358Y-80462358D02*
X115234957Y-80462357D01*
X154375900Y-86575900D02*
X153700000Y-85900000D01*
X153700000Y-85900000D02*
X153700000Y-81100000D01*
X155981400Y-86575900D02*
X154375900Y-86575900D01*
X153700000Y-81100000D02*
X153062358Y-80462358D01*
%TO.N,Net-(J1-Pad2)*%
X122404948Y-80012348D02*
X119570500Y-77177900D01*
X154924952Y-80012348D02*
X122404948Y-80012348D01*
X155981400Y-78955900D02*
X154924952Y-80012348D01*
%TO.N,GND*%
X117030500Y-77177900D02*
X114490500Y-77177900D01*
X114822100Y-77177900D02*
X115800000Y-76200000D01*
X114490500Y-77177900D02*
X114822100Y-77177900D01*
X114490500Y-77177900D02*
X114490500Y-78390500D01*
X115400000Y-79300000D02*
X120200000Y-79300000D01*
X114490500Y-78390500D02*
X115400000Y-79300000D01*
%TO.N,/B*%
X109410500Y-85610500D02*
X109410500Y-77177900D01*
X144531080Y-107629940D02*
X128721758Y-107629940D01*
X112991818Y-91900000D02*
X112900000Y-91900000D01*
X128721758Y-107629940D02*
X112991818Y-91900000D01*
X112900000Y-91900000D02*
X111741481Y-90741481D01*
X111741481Y-87941481D02*
X109410500Y-85610500D01*
X111741481Y-90741481D02*
X111741481Y-87941481D01*
%TO.N,/A10*%
X149600000Y-77800000D02*
X150984100Y-76415900D01*
X149600000Y-77931800D02*
X149600000Y-77800000D01*
X155981400Y-76415900D02*
X150984100Y-76415900D01*
X149587347Y-77944453D02*
X149600000Y-77931800D01*
X149587347Y-79287347D02*
X149587347Y-77944453D01*
X149337662Y-79562338D02*
X123162338Y-79562338D01*
X122110500Y-78510500D02*
X122110500Y-77177900D01*
X123162338Y-79562338D02*
X122110500Y-78510500D01*
X149587347Y-79287347D02*
X149587347Y-79312653D01*
X149587347Y-79312653D02*
X149337662Y-79562338D01*
%TD*%
D19*
%TO.N,GND*%
G36*
X89008910Y-108546553D02*
G01*
X89256226Y-108711804D01*
X89531028Y-108825631D01*
X89814117Y-108881941D01*
X89681787Y-109079987D01*
X89549115Y-109400287D01*
X89481479Y-109740315D01*
X89481479Y-110087005D01*
X89549115Y-110427033D01*
X89681787Y-110747333D01*
X89874398Y-111035595D01*
X90119544Y-111280741D01*
X90407806Y-111473352D01*
X90728106Y-111606024D01*
X91068134Y-111673660D01*
X91414824Y-111673660D01*
X91754852Y-111606024D01*
X91828525Y-111575508D01*
X95764020Y-115511003D01*
X95767300Y-115515000D01*
X88985000Y-115515000D01*
X88985000Y-108522643D01*
X89008910Y-108546553D01*
G37*
X89008910Y-108546553D02*
X89256226Y-108711804D01*
X89531028Y-108825631D01*
X89814117Y-108881941D01*
X89681787Y-109079987D01*
X89549115Y-109400287D01*
X89481479Y-109740315D01*
X89481479Y-110087005D01*
X89549115Y-110427033D01*
X89681787Y-110747333D01*
X89874398Y-111035595D01*
X90119544Y-111280741D01*
X90407806Y-111473352D01*
X90728106Y-111606024D01*
X91068134Y-111673660D01*
X91414824Y-111673660D01*
X91754852Y-111606024D01*
X91828525Y-111575508D01*
X95764020Y-115511003D01*
X95767300Y-115515000D01*
X88985000Y-115515000D01*
X88985000Y-108522643D01*
X89008910Y-108546553D01*
G36*
X169786400Y-76274565D02*
G01*
X169786400Y-76557235D01*
X169841547Y-76834474D01*
X169949720Y-77095627D01*
X170106763Y-77330659D01*
X170306641Y-77530537D01*
X170539159Y-77685900D01*
X170306641Y-77841263D01*
X170106763Y-78041141D01*
X169949720Y-78276173D01*
X169841547Y-78537326D01*
X169786400Y-78814565D01*
X169786400Y-79097235D01*
X169841547Y-79374474D01*
X169949720Y-79635627D01*
X170106763Y-79870659D01*
X170306641Y-80070537D01*
X170539159Y-80225900D01*
X170306641Y-80381263D01*
X170106763Y-80581141D01*
X169949720Y-80816173D01*
X169841547Y-81077326D01*
X169786400Y-81354565D01*
X169786400Y-81637235D01*
X169841547Y-81914474D01*
X169949720Y-82175627D01*
X170106763Y-82410659D01*
X170306641Y-82610537D01*
X170539159Y-82765900D01*
X170306641Y-82921263D01*
X170106763Y-83121141D01*
X169949720Y-83356173D01*
X169841547Y-83617326D01*
X169786400Y-83894565D01*
X169786400Y-84177235D01*
X169841547Y-84454474D01*
X169949720Y-84715627D01*
X170106763Y-84950659D01*
X170306641Y-85150537D01*
X170539159Y-85305900D01*
X170306641Y-85461263D01*
X170106763Y-85661141D01*
X169949720Y-85896173D01*
X169841547Y-86157326D01*
X169786400Y-86434565D01*
X169786400Y-86717235D01*
X169841547Y-86994474D01*
X169949720Y-87255627D01*
X170106763Y-87490659D01*
X170306641Y-87690537D01*
X170539159Y-87845900D01*
X170306641Y-88001263D01*
X170106763Y-88201141D01*
X169949720Y-88436173D01*
X169841547Y-88697326D01*
X169786400Y-88974565D01*
X169786400Y-89257235D01*
X169841547Y-89534474D01*
X169949720Y-89795627D01*
X170106763Y-90030659D01*
X170306641Y-90230537D01*
X170539159Y-90385900D01*
X170306641Y-90541263D01*
X170106763Y-90741141D01*
X169949720Y-90976173D01*
X169841547Y-91237326D01*
X169786400Y-91514565D01*
X169786400Y-91797235D01*
X169841547Y-92074474D01*
X169949720Y-92335627D01*
X170106763Y-92570659D01*
X170306641Y-92770537D01*
X170539159Y-92925900D01*
X170306641Y-93081263D01*
X170106763Y-93281141D01*
X169949720Y-93516173D01*
X169841547Y-93777326D01*
X169786400Y-94054565D01*
X169786400Y-94337235D01*
X169841547Y-94614474D01*
X169949720Y-94875627D01*
X170106763Y-95110659D01*
X170306641Y-95310537D01*
X170539159Y-95465900D01*
X170306641Y-95621263D01*
X170106763Y-95821141D01*
X169949720Y-96056173D01*
X169841547Y-96317326D01*
X169786400Y-96594565D01*
X169786400Y-96877235D01*
X169841547Y-97154474D01*
X169949720Y-97415627D01*
X170106763Y-97650659D01*
X170306641Y-97850537D01*
X170539159Y-98005900D01*
X170306641Y-98161263D01*
X170106763Y-98361141D01*
X169949720Y-98596173D01*
X169841547Y-98857326D01*
X169786400Y-99134565D01*
X169786400Y-99417235D01*
X169841547Y-99694474D01*
X169949720Y-99955627D01*
X170106763Y-100190659D01*
X170306641Y-100390537D01*
X170539159Y-100545900D01*
X170306641Y-100701263D01*
X170106763Y-100901141D01*
X169949720Y-101136173D01*
X169841547Y-101397326D01*
X169786400Y-101674565D01*
X169786400Y-101957235D01*
X169841547Y-102234474D01*
X169949720Y-102495627D01*
X170106763Y-102730659D01*
X170306641Y-102930537D01*
X170539159Y-103085900D01*
X170306641Y-103241263D01*
X170106763Y-103441141D01*
X169949720Y-103676173D01*
X169841547Y-103937326D01*
X169786400Y-104214565D01*
X169786400Y-104497235D01*
X169841547Y-104774474D01*
X169949720Y-105035627D01*
X170106763Y-105270659D01*
X170306641Y-105470537D01*
X170541673Y-105627580D01*
X170802826Y-105735753D01*
X171080065Y-105790900D01*
X171362735Y-105790900D01*
X171639974Y-105735753D01*
X171901127Y-105627580D01*
X172136159Y-105470537D01*
X172336037Y-105270659D01*
X172493080Y-105035627D01*
X172601253Y-104774474D01*
X172656400Y-104497235D01*
X172656400Y-104214565D01*
X172601253Y-103937326D01*
X172493080Y-103676173D01*
X172336037Y-103441141D01*
X172136159Y-103241263D01*
X171903641Y-103085900D01*
X172136159Y-102930537D01*
X172336037Y-102730659D01*
X172493080Y-102495627D01*
X172601253Y-102234474D01*
X172656400Y-101957235D01*
X172656400Y-101674565D01*
X172601253Y-101397326D01*
X172493080Y-101136173D01*
X172336037Y-100901141D01*
X172136159Y-100701263D01*
X171903641Y-100545900D01*
X172136159Y-100390537D01*
X172336037Y-100190659D01*
X172493080Y-99955627D01*
X172601253Y-99694474D01*
X172656400Y-99417235D01*
X172656400Y-99134565D01*
X172601253Y-98857326D01*
X172493080Y-98596173D01*
X172336037Y-98361141D01*
X172136159Y-98161263D01*
X171903641Y-98005900D01*
X172136159Y-97850537D01*
X172336037Y-97650659D01*
X172493080Y-97415627D01*
X172601253Y-97154474D01*
X172656400Y-96877235D01*
X172656400Y-96594565D01*
X172601253Y-96317326D01*
X172493080Y-96056173D01*
X172336037Y-95821141D01*
X172136159Y-95621263D01*
X171903641Y-95465900D01*
X172136159Y-95310537D01*
X172336037Y-95110659D01*
X172493080Y-94875627D01*
X172601253Y-94614474D01*
X172656400Y-94337235D01*
X172656400Y-94054565D01*
X172601253Y-93777326D01*
X172493080Y-93516173D01*
X172336037Y-93281141D01*
X172136159Y-93081263D01*
X171903641Y-92925900D01*
X172136159Y-92770537D01*
X172336037Y-92570659D01*
X172493080Y-92335627D01*
X172601253Y-92074474D01*
X172656400Y-91797235D01*
X172656400Y-91514565D01*
X172601253Y-91237326D01*
X172493080Y-90976173D01*
X172336037Y-90741141D01*
X172136159Y-90541263D01*
X171903641Y-90385900D01*
X172136159Y-90230537D01*
X172336037Y-90030659D01*
X172493080Y-89795627D01*
X172601253Y-89534474D01*
X172656400Y-89257235D01*
X172656400Y-88974565D01*
X172601253Y-88697326D01*
X172493080Y-88436173D01*
X172336037Y-88201141D01*
X172309834Y-88174938D01*
X173511480Y-88174938D01*
X173511480Y-88472382D01*
X173569509Y-88764111D01*
X173683336Y-89038913D01*
X173848587Y-89286229D01*
X174058911Y-89496553D01*
X174306227Y-89661804D01*
X174581029Y-89775631D01*
X174864118Y-89831941D01*
X174731788Y-90029987D01*
X174599116Y-90350287D01*
X174531480Y-90690315D01*
X174531480Y-91037005D01*
X174599116Y-91377033D01*
X174731788Y-91697333D01*
X174924399Y-91985595D01*
X175169545Y-92230741D01*
X175457807Y-92423352D01*
X175531480Y-92453868D01*
X175531481Y-105950497D01*
X175461931Y-105921688D01*
X175170202Y-105863659D01*
X174872758Y-105863659D01*
X174581029Y-105921688D01*
X174306227Y-106035515D01*
X174058911Y-106200766D01*
X173848587Y-106411090D01*
X173683336Y-106658406D01*
X173569509Y-106933208D01*
X173511480Y-107224937D01*
X173511480Y-107522381D01*
X173569509Y-107814110D01*
X173683336Y-108088912D01*
X173848587Y-108336228D01*
X174058911Y-108546552D01*
X174306227Y-108711803D01*
X174581029Y-108825630D01*
X174864118Y-108881940D01*
X174731788Y-109079986D01*
X174599116Y-109400286D01*
X174531480Y-109740314D01*
X174531480Y-110087004D01*
X174599116Y-110427032D01*
X174731788Y-110747332D01*
X174924399Y-111035594D01*
X175169545Y-111280740D01*
X175457807Y-111473351D01*
X175778107Y-111606023D01*
X176118135Y-111673659D01*
X176464825Y-111673659D01*
X176804853Y-111606023D01*
X177125153Y-111473351D01*
X177413415Y-111280740D01*
X177658561Y-111035594D01*
X177851172Y-110747332D01*
X177983844Y-110427032D01*
X178051480Y-110087004D01*
X178051480Y-109740314D01*
X177983844Y-109400286D01*
X177851172Y-109079986D01*
X177658561Y-108791724D01*
X177413415Y-108546578D01*
X177125153Y-108353967D01*
X177051480Y-108323451D01*
X177051480Y-102137304D01*
X177243980Y-102137304D01*
X177243980Y-102450014D01*
X177304987Y-102756716D01*
X177424656Y-103045622D01*
X177598388Y-103305631D01*
X177819508Y-103526751D01*
X178079517Y-103700483D01*
X178368423Y-103820152D01*
X178675125Y-103881159D01*
X178987835Y-103881159D01*
X179294537Y-103820152D01*
X179583443Y-103700483D01*
X179843452Y-103526751D01*
X179847029Y-103523174D01*
X179888443Y-103600653D01*
X179967795Y-103697344D01*
X180064486Y-103776696D01*
X180174800Y-103835661D01*
X180294498Y-103871971D01*
X180418980Y-103884231D01*
X182323980Y-103884231D01*
X182448462Y-103871971D01*
X182568160Y-103835661D01*
X182678474Y-103776696D01*
X182775165Y-103697344D01*
X182854517Y-103600653D01*
X182913482Y-103490339D01*
X182949792Y-103370641D01*
X182962052Y-103246159D01*
X182962052Y-101341159D01*
X182949792Y-101216677D01*
X182913482Y-101096979D01*
X182854517Y-100986665D01*
X182775165Y-100889974D01*
X182678474Y-100810622D01*
X182568160Y-100751657D01*
X182448462Y-100715347D01*
X182323980Y-100703087D01*
X180418980Y-100703087D01*
X180294498Y-100715347D01*
X180174800Y-100751657D01*
X180064486Y-100810622D01*
X179967795Y-100889974D01*
X179888443Y-100986665D01*
X179847029Y-101064144D01*
X179843452Y-101060567D01*
X179583443Y-100886835D01*
X179294537Y-100767166D01*
X178987835Y-100706159D01*
X178675125Y-100706159D01*
X178368423Y-100767166D01*
X178079517Y-100886835D01*
X177819508Y-101060567D01*
X177598388Y-101281687D01*
X177424656Y-101541696D01*
X177304987Y-101830602D01*
X177243980Y-102137304D01*
X177051480Y-102137304D01*
X177051480Y-92453868D01*
X177125153Y-92423352D01*
X177413415Y-92230741D01*
X177658561Y-91985595D01*
X177851172Y-91697333D01*
X177983844Y-91377033D01*
X178051480Y-91037005D01*
X178051480Y-90690315D01*
X177983844Y-90350287D01*
X177851172Y-90029987D01*
X177658561Y-89741725D01*
X177413415Y-89496579D01*
X177125153Y-89303968D01*
X176804853Y-89171296D01*
X176464825Y-89103660D01*
X176316362Y-89103660D01*
X176359624Y-89038913D01*
X176473451Y-88764111D01*
X176531480Y-88472382D01*
X176531480Y-88174938D01*
X176509560Y-88064736D01*
X177472580Y-88064736D01*
X177472580Y-88582584D01*
X177573607Y-89090482D01*
X177771779Y-89568911D01*
X178059480Y-89999486D01*
X178425654Y-90365660D01*
X178856229Y-90653361D01*
X179334658Y-90851533D01*
X179842556Y-90952560D01*
X180360404Y-90952560D01*
X180868302Y-90851533D01*
X181346731Y-90653361D01*
X181777306Y-90365660D01*
X181881480Y-90261486D01*
X181881481Y-91813452D01*
X181807807Y-91843968D01*
X181519545Y-92036579D01*
X181274399Y-92281725D01*
X181081788Y-92569987D01*
X180949116Y-92890287D01*
X180881480Y-93230315D01*
X180881480Y-93577005D01*
X180949116Y-93917033D01*
X181081788Y-94237333D01*
X181274399Y-94525595D01*
X181519545Y-94770741D01*
X181807807Y-94963352D01*
X182128107Y-95096024D01*
X182468135Y-95163660D01*
X182814825Y-95163660D01*
X183154853Y-95096024D01*
X183475153Y-94963352D01*
X183763415Y-94770741D01*
X184008561Y-94525595D01*
X184120100Y-94358665D01*
X186865000Y-94358665D01*
X186865000Y-94641335D01*
X186920147Y-94918574D01*
X187028320Y-95179727D01*
X187185363Y-95414759D01*
X187385241Y-95614637D01*
X187620273Y-95771680D01*
X187881426Y-95879853D01*
X188158665Y-95935000D01*
X188441335Y-95935000D01*
X188718574Y-95879853D01*
X188979727Y-95771680D01*
X189214759Y-95614637D01*
X189414637Y-95414759D01*
X189518043Y-95260000D01*
X189681957Y-95260000D01*
X189785363Y-95414759D01*
X189985241Y-95614637D01*
X190220273Y-95771680D01*
X190481426Y-95879853D01*
X190758665Y-95935000D01*
X191041335Y-95935000D01*
X191318574Y-95879853D01*
X191579727Y-95771680D01*
X191814759Y-95614637D01*
X192014637Y-95414759D01*
X192171680Y-95179727D01*
X192279853Y-94918574D01*
X192335000Y-94641335D01*
X192335000Y-94358665D01*
X192279853Y-94081426D01*
X192171680Y-93820273D01*
X192014637Y-93585241D01*
X191814759Y-93385363D01*
X191579727Y-93228320D01*
X191318574Y-93120147D01*
X191041335Y-93065000D01*
X190758665Y-93065000D01*
X190481426Y-93120147D01*
X190220273Y-93228320D01*
X189985241Y-93385363D01*
X189785363Y-93585241D01*
X189681957Y-93740000D01*
X189518043Y-93740000D01*
X189414637Y-93585241D01*
X189214759Y-93385363D01*
X188979727Y-93228320D01*
X188718574Y-93120147D01*
X188441335Y-93065000D01*
X188158665Y-93065000D01*
X187881426Y-93120147D01*
X187620273Y-93228320D01*
X187385241Y-93385363D01*
X187185363Y-93585241D01*
X187028320Y-93820273D01*
X186920147Y-94081426D01*
X186865000Y-94358665D01*
X184120100Y-94358665D01*
X184201172Y-94237333D01*
X184333844Y-93917033D01*
X184401480Y-93577005D01*
X184401480Y-93230315D01*
X184333844Y-92890287D01*
X184201172Y-92569987D01*
X184008561Y-92281725D01*
X183763415Y-92036579D01*
X183475153Y-91843968D01*
X183401480Y-91813452D01*
X183401480Y-89402459D01*
X183820400Y-88983540D01*
X183843336Y-89038913D01*
X184008587Y-89286229D01*
X184218911Y-89496553D01*
X184466227Y-89661804D01*
X184741029Y-89775631D01*
X185032758Y-89833660D01*
X185330202Y-89833660D01*
X185621931Y-89775631D01*
X185896733Y-89661804D01*
X186144049Y-89496553D01*
X186354373Y-89286229D01*
X186519624Y-89038913D01*
X186633451Y-88764111D01*
X186691480Y-88472382D01*
X186691480Y-88174938D01*
X186633451Y-87883209D01*
X186519624Y-87608407D01*
X186420462Y-87460000D01*
X186861928Y-87460000D01*
X186861928Y-87500000D01*
X186874188Y-87624482D01*
X186910498Y-87744180D01*
X186969463Y-87854494D01*
X187048815Y-87951185D01*
X187145506Y-88030537D01*
X187255820Y-88089502D01*
X187375518Y-88125812D01*
X187500000Y-88138072D01*
X189100000Y-88138072D01*
X189224482Y-88125812D01*
X189344180Y-88089502D01*
X189454494Y-88030537D01*
X189551185Y-87951185D01*
X189600000Y-87891704D01*
X189648815Y-87951185D01*
X189745506Y-88030537D01*
X189855820Y-88089502D01*
X189975518Y-88125812D01*
X190100000Y-88138072D01*
X191700000Y-88138072D01*
X191824482Y-88125812D01*
X191944180Y-88089502D01*
X192054494Y-88030537D01*
X192151185Y-87951185D01*
X192230537Y-87854494D01*
X192289502Y-87744180D01*
X192325812Y-87624482D01*
X192338072Y-87500000D01*
X192338072Y-87460000D01*
X192832498Y-87460000D01*
X192733336Y-87608407D01*
X192619509Y-87883209D01*
X192561480Y-88174938D01*
X192561480Y-88472382D01*
X192619509Y-88764111D01*
X192733336Y-89038913D01*
X192898587Y-89286229D01*
X193108911Y-89496553D01*
X193356227Y-89661804D01*
X193631029Y-89775631D01*
X193914118Y-89831941D01*
X193781788Y-90029987D01*
X193649116Y-90350287D01*
X193581480Y-90690315D01*
X193581480Y-91037005D01*
X193649116Y-91377033D01*
X193781788Y-91697333D01*
X193974399Y-91985595D01*
X194219545Y-92230741D01*
X194507807Y-92423352D01*
X194581480Y-92453868D01*
X194581481Y-105950497D01*
X194511931Y-105921688D01*
X194220202Y-105863659D01*
X193922758Y-105863659D01*
X193631029Y-105921688D01*
X193356227Y-106035515D01*
X193108911Y-106200766D01*
X192898587Y-106411090D01*
X192733336Y-106658406D01*
X192619509Y-106933208D01*
X192561480Y-107224937D01*
X192561480Y-107522381D01*
X192619509Y-107814110D01*
X192733336Y-108088912D01*
X192898587Y-108336228D01*
X193108911Y-108546552D01*
X193356227Y-108711803D01*
X193631029Y-108825630D01*
X193914118Y-108881940D01*
X193781788Y-109079986D01*
X193649116Y-109400286D01*
X193581480Y-109740314D01*
X193581480Y-110087004D01*
X193649116Y-110427032D01*
X193781788Y-110747332D01*
X193974399Y-111035594D01*
X194219545Y-111280740D01*
X194507807Y-111473351D01*
X194828107Y-111606023D01*
X195168135Y-111673659D01*
X195514825Y-111673659D01*
X195854853Y-111606023D01*
X196175153Y-111473351D01*
X196463415Y-111280740D01*
X196708561Y-111035594D01*
X196901172Y-110747332D01*
X197033844Y-110427032D01*
X197101480Y-110087004D01*
X197101480Y-109740314D01*
X197033844Y-109400286D01*
X196901172Y-109079986D01*
X196708561Y-108791724D01*
X196463415Y-108546578D01*
X196175153Y-108353967D01*
X196101480Y-108323451D01*
X196101480Y-107114735D01*
X196522580Y-107114735D01*
X196522580Y-107632583D01*
X196623607Y-108140481D01*
X196821779Y-108618910D01*
X197109480Y-109049485D01*
X197475654Y-109415659D01*
X197906229Y-109703360D01*
X198384658Y-109901532D01*
X198892556Y-110002559D01*
X199410404Y-110002559D01*
X199918302Y-109901532D01*
X200396731Y-109703360D01*
X200827306Y-109415659D01*
X201193480Y-109049485D01*
X201481181Y-108618910D01*
X201679353Y-108140481D01*
X201780380Y-107632583D01*
X201780380Y-107224937D01*
X202721480Y-107224937D01*
X202721480Y-107522381D01*
X202779509Y-107814110D01*
X202893336Y-108088912D01*
X203058587Y-108336228D01*
X203268911Y-108546552D01*
X203516227Y-108711803D01*
X203791029Y-108825630D01*
X204082758Y-108883659D01*
X204380202Y-108883659D01*
X204671931Y-108825630D01*
X204946733Y-108711803D01*
X205194049Y-108546552D01*
X205404373Y-108336228D01*
X205569624Y-108088912D01*
X205683451Y-107814110D01*
X205741480Y-107522381D01*
X205741480Y-107224937D01*
X205683451Y-106933208D01*
X205569624Y-106658406D01*
X205404373Y-106411090D01*
X205194049Y-106200766D01*
X204946733Y-106035515D01*
X204671931Y-105921688D01*
X204380202Y-105863659D01*
X204082758Y-105863659D01*
X203791029Y-105921688D01*
X203516227Y-106035515D01*
X203268911Y-106200766D01*
X203058587Y-106411090D01*
X202893336Y-106658406D01*
X202779509Y-106933208D01*
X202721480Y-107224937D01*
X201780380Y-107224937D01*
X201780380Y-107114735D01*
X201679353Y-106606837D01*
X201481181Y-106128408D01*
X201193480Y-105697833D01*
X200827306Y-105331659D01*
X200396731Y-105043958D01*
X199918302Y-104845786D01*
X199410404Y-104744759D01*
X198892556Y-104744759D01*
X198384658Y-104845786D01*
X197906229Y-105043958D01*
X197475654Y-105331659D01*
X197109480Y-105697833D01*
X196821779Y-106128408D01*
X196623607Y-106606837D01*
X196522580Y-107114735D01*
X196101480Y-107114735D01*
X196101480Y-102137304D01*
X196293980Y-102137304D01*
X196293980Y-102450014D01*
X196354987Y-102756716D01*
X196474656Y-103045622D01*
X196648388Y-103305631D01*
X196869508Y-103526751D01*
X197129517Y-103700483D01*
X197418423Y-103820152D01*
X197725125Y-103881159D01*
X198037835Y-103881159D01*
X198344537Y-103820152D01*
X198633443Y-103700483D01*
X198893452Y-103526751D01*
X198897029Y-103523174D01*
X198938443Y-103600653D01*
X199017795Y-103697344D01*
X199114486Y-103776696D01*
X199224800Y-103835661D01*
X199344498Y-103871971D01*
X199468980Y-103884231D01*
X201373980Y-103884231D01*
X201498462Y-103871971D01*
X201618160Y-103835661D01*
X201728474Y-103776696D01*
X201825165Y-103697344D01*
X201904517Y-103600653D01*
X201963482Y-103490339D01*
X201999792Y-103370641D01*
X202012052Y-103246159D01*
X202012052Y-101341159D01*
X201999792Y-101216677D01*
X201963482Y-101096979D01*
X201904517Y-100986665D01*
X201825165Y-100889974D01*
X201728474Y-100810622D01*
X201618160Y-100751657D01*
X201498462Y-100715347D01*
X201373980Y-100703087D01*
X199468980Y-100703087D01*
X199344498Y-100715347D01*
X199224800Y-100751657D01*
X199114486Y-100810622D01*
X199017795Y-100889974D01*
X198938443Y-100986665D01*
X198897029Y-101064144D01*
X198893452Y-101060567D01*
X198633443Y-100886835D01*
X198344537Y-100767166D01*
X198037835Y-100706159D01*
X197725125Y-100706159D01*
X197418423Y-100767166D01*
X197129517Y-100886835D01*
X196869508Y-101060567D01*
X196648388Y-101281687D01*
X196474656Y-101541696D01*
X196354987Y-101830602D01*
X196293980Y-102137304D01*
X196101480Y-102137304D01*
X196101480Y-92453868D01*
X196175153Y-92423352D01*
X196463415Y-92230741D01*
X196708561Y-91985595D01*
X196901172Y-91697333D01*
X197033844Y-91377033D01*
X197101480Y-91037005D01*
X197101480Y-90690315D01*
X197092080Y-90643060D01*
X199931480Y-93482460D01*
X199931480Y-93577005D01*
X199999116Y-93917033D01*
X200131788Y-94237333D01*
X200324399Y-94525595D01*
X200569545Y-94770741D01*
X200857807Y-94963352D01*
X201178107Y-95096024D01*
X201518135Y-95163660D01*
X201864825Y-95163660D01*
X202204853Y-95096024D01*
X202525153Y-94963352D01*
X202813415Y-94770741D01*
X203058561Y-94525595D01*
X203251172Y-94237333D01*
X203383844Y-93917033D01*
X203451480Y-93577005D01*
X203451480Y-93230315D01*
X203383844Y-92890287D01*
X203251172Y-92569987D01*
X203058561Y-92281725D01*
X202813415Y-92036579D01*
X202525153Y-91843968D01*
X202204853Y-91711296D01*
X201864825Y-91643660D01*
X201518135Y-91643660D01*
X201178107Y-91711296D01*
X200857807Y-91843968D01*
X200608904Y-92010280D01*
X199527827Y-90929203D01*
X199918302Y-90851533D01*
X200396731Y-90653361D01*
X200827306Y-90365660D01*
X201193480Y-89999486D01*
X201481181Y-89568911D01*
X201679353Y-89090482D01*
X201780380Y-88582584D01*
X201780380Y-88174938D01*
X202721480Y-88174938D01*
X202721480Y-88472382D01*
X202779509Y-88764111D01*
X202893336Y-89038913D01*
X203058587Y-89286229D01*
X203268911Y-89496553D01*
X203516227Y-89661804D01*
X203791029Y-89775631D01*
X204082758Y-89833660D01*
X204380202Y-89833660D01*
X204671931Y-89775631D01*
X204946733Y-89661804D01*
X205194049Y-89496553D01*
X205404373Y-89286229D01*
X205569624Y-89038913D01*
X205683451Y-88764111D01*
X205741480Y-88472382D01*
X205741480Y-88174938D01*
X205683451Y-87883209D01*
X205569624Y-87608407D01*
X205404373Y-87361091D01*
X205194049Y-87150767D01*
X204946733Y-86985516D01*
X204671931Y-86871689D01*
X204380202Y-86813660D01*
X204082758Y-86813660D01*
X203791029Y-86871689D01*
X203516227Y-86985516D01*
X203268911Y-87150767D01*
X203058587Y-87361091D01*
X202893336Y-87608407D01*
X202779509Y-87883209D01*
X202721480Y-88174938D01*
X201780380Y-88174938D01*
X201780380Y-88064736D01*
X201679353Y-87556838D01*
X201481181Y-87078409D01*
X201193480Y-86647834D01*
X200827306Y-86281660D01*
X200396731Y-85993959D01*
X199918302Y-85795787D01*
X199410404Y-85694760D01*
X198892556Y-85694760D01*
X198384658Y-85795787D01*
X197906229Y-85993959D01*
X197475654Y-86281660D01*
X197109480Y-86647834D01*
X196821779Y-87078409D01*
X196623607Y-87556838D01*
X196545937Y-87947313D01*
X194787626Y-86189003D01*
X194763823Y-86159999D01*
X194648098Y-86065026D01*
X194516069Y-85994454D01*
X194372808Y-85950997D01*
X194261155Y-85940000D01*
X194261144Y-85940000D01*
X194223822Y-85936324D01*
X194186500Y-85940000D01*
X192338072Y-85940000D01*
X192338072Y-85900000D01*
X192325812Y-85775518D01*
X192289502Y-85655820D01*
X192230537Y-85545506D01*
X192151185Y-85448815D01*
X192054494Y-85369463D01*
X191944180Y-85310498D01*
X191824482Y-85274188D01*
X191700000Y-85261928D01*
X190100000Y-85261928D01*
X189975518Y-85274188D01*
X189855820Y-85310498D01*
X189745506Y-85369463D01*
X189648815Y-85448815D01*
X189600000Y-85508296D01*
X189551185Y-85448815D01*
X189454494Y-85369463D01*
X189344180Y-85310498D01*
X189224482Y-85274188D01*
X189100000Y-85261928D01*
X187500000Y-85261928D01*
X187375518Y-85274188D01*
X187255820Y-85310498D01*
X187145506Y-85369463D01*
X187048815Y-85448815D01*
X186969463Y-85545506D01*
X186910498Y-85655820D01*
X186874188Y-85775518D01*
X186861928Y-85900000D01*
X186861928Y-85940000D01*
X185066460Y-85940000D01*
X185029137Y-85936324D01*
X184991814Y-85940000D01*
X184991805Y-85940000D01*
X184880152Y-85950997D01*
X184736891Y-85994454D01*
X184604862Y-86065026D01*
X184489137Y-86159999D01*
X184465339Y-86188997D01*
X182707023Y-87947313D01*
X182629353Y-87556838D01*
X182431181Y-87078409D01*
X182143480Y-86647834D01*
X181777306Y-86281660D01*
X181346731Y-85993959D01*
X180868302Y-85795787D01*
X180360404Y-85694760D01*
X179842556Y-85694760D01*
X179334658Y-85795787D01*
X178856229Y-85993959D01*
X178425654Y-86281660D01*
X178059480Y-86647834D01*
X177771779Y-87078409D01*
X177573607Y-87556838D01*
X177472580Y-88064736D01*
X176509560Y-88064736D01*
X176473451Y-87883209D01*
X176359624Y-87608407D01*
X176194373Y-87361091D01*
X175984049Y-87150767D01*
X175736733Y-86985516D01*
X175461931Y-86871689D01*
X175170202Y-86813660D01*
X174872758Y-86813660D01*
X174581029Y-86871689D01*
X174306227Y-86985516D01*
X174058911Y-87150767D01*
X173848587Y-87361091D01*
X173683336Y-87608407D01*
X173569509Y-87883209D01*
X173511480Y-88174938D01*
X172309834Y-88174938D01*
X172136159Y-88001263D01*
X171903641Y-87845900D01*
X172136159Y-87690537D01*
X172336037Y-87490659D01*
X172493080Y-87255627D01*
X172601253Y-86994474D01*
X172656400Y-86717235D01*
X172656400Y-86434565D01*
X172601253Y-86157326D01*
X172493080Y-85896173D01*
X172336037Y-85661141D01*
X172136159Y-85461263D01*
X171903641Y-85305900D01*
X172136159Y-85150537D01*
X172336037Y-84950659D01*
X172493080Y-84715627D01*
X172601253Y-84454474D01*
X172656400Y-84177235D01*
X172656400Y-83894565D01*
X172601253Y-83617326D01*
X172493080Y-83356173D01*
X172336037Y-83121141D01*
X172302201Y-83087305D01*
X177243980Y-83087305D01*
X177243980Y-83400015D01*
X177304987Y-83706717D01*
X177424656Y-83995623D01*
X177598388Y-84255632D01*
X177819508Y-84476752D01*
X178079517Y-84650484D01*
X178368423Y-84770153D01*
X178675125Y-84831160D01*
X178987835Y-84831160D01*
X179294537Y-84770153D01*
X179583443Y-84650484D01*
X179843452Y-84476752D01*
X179847029Y-84473175D01*
X179888443Y-84550654D01*
X179967795Y-84647345D01*
X180064486Y-84726697D01*
X180174800Y-84785662D01*
X180294498Y-84821972D01*
X180418980Y-84834232D01*
X182323980Y-84834232D01*
X182448462Y-84821972D01*
X182568160Y-84785662D01*
X182678474Y-84726697D01*
X182775165Y-84647345D01*
X182854517Y-84550654D01*
X182913482Y-84440340D01*
X182949792Y-84320642D01*
X182962052Y-84196160D01*
X182962052Y-83087305D01*
X196293980Y-83087305D01*
X196293980Y-83400015D01*
X196354987Y-83706717D01*
X196474656Y-83995623D01*
X196648388Y-84255632D01*
X196869508Y-84476752D01*
X197129517Y-84650484D01*
X197418423Y-84770153D01*
X197725125Y-84831160D01*
X198037835Y-84831160D01*
X198344537Y-84770153D01*
X198633443Y-84650484D01*
X198893452Y-84476752D01*
X198897029Y-84473175D01*
X198938443Y-84550654D01*
X199017795Y-84647345D01*
X199114486Y-84726697D01*
X199224800Y-84785662D01*
X199344498Y-84821972D01*
X199468980Y-84834232D01*
X201373980Y-84834232D01*
X201498462Y-84821972D01*
X201618160Y-84785662D01*
X201728474Y-84726697D01*
X201825165Y-84647345D01*
X201904517Y-84550654D01*
X201963482Y-84440340D01*
X201999792Y-84320642D01*
X202012052Y-84196160D01*
X202012052Y-82291160D01*
X201999792Y-82166678D01*
X201963482Y-82046980D01*
X201904517Y-81936666D01*
X201825165Y-81839975D01*
X201728474Y-81760623D01*
X201618160Y-81701658D01*
X201498462Y-81665348D01*
X201373980Y-81653088D01*
X199468980Y-81653088D01*
X199344498Y-81665348D01*
X199224800Y-81701658D01*
X199114486Y-81760623D01*
X199017795Y-81839975D01*
X198938443Y-81936666D01*
X198897029Y-82014145D01*
X198893452Y-82010568D01*
X198633443Y-81836836D01*
X198344537Y-81717167D01*
X198037835Y-81656160D01*
X197725125Y-81656160D01*
X197418423Y-81717167D01*
X197129517Y-81836836D01*
X196869508Y-82010568D01*
X196648388Y-82231688D01*
X196474656Y-82491697D01*
X196354987Y-82780603D01*
X196293980Y-83087305D01*
X182962052Y-83087305D01*
X182962052Y-82291160D01*
X182949792Y-82166678D01*
X182913482Y-82046980D01*
X182854517Y-81936666D01*
X182775165Y-81839975D01*
X182678474Y-81760623D01*
X182568160Y-81701658D01*
X182448462Y-81665348D01*
X182323980Y-81653088D01*
X180418980Y-81653088D01*
X180294498Y-81665348D01*
X180174800Y-81701658D01*
X180064486Y-81760623D01*
X179967795Y-81839975D01*
X179888443Y-81936666D01*
X179847029Y-82014145D01*
X179843452Y-82010568D01*
X179583443Y-81836836D01*
X179294537Y-81717167D01*
X178987835Y-81656160D01*
X178675125Y-81656160D01*
X178368423Y-81717167D01*
X178079517Y-81836836D01*
X177819508Y-82010568D01*
X177598388Y-82231688D01*
X177424656Y-82491697D01*
X177304987Y-82780603D01*
X177243980Y-83087305D01*
X172302201Y-83087305D01*
X172136159Y-82921263D01*
X171903641Y-82765900D01*
X172136159Y-82610537D01*
X172336037Y-82410659D01*
X172493080Y-82175627D01*
X172601253Y-81914474D01*
X172656400Y-81637235D01*
X172656400Y-81354565D01*
X172601253Y-81077326D01*
X172493080Y-80816173D01*
X172336037Y-80581141D01*
X172136159Y-80381263D01*
X171903641Y-80225900D01*
X172136159Y-80070537D01*
X172336037Y-79870659D01*
X172493080Y-79635627D01*
X172601253Y-79374474D01*
X172656400Y-79097235D01*
X172656400Y-78814565D01*
X172601253Y-78537326D01*
X172493080Y-78276173D01*
X172336037Y-78041141D01*
X172136159Y-77841263D01*
X171903641Y-77685900D01*
X172136159Y-77530537D01*
X172336037Y-77330659D01*
X172493080Y-77095627D01*
X172601253Y-76834474D01*
X172656400Y-76557235D01*
X172656400Y-76274565D01*
X172618693Y-76085000D01*
X205915001Y-76085000D01*
X205915000Y-115515000D01*
X152060519Y-115515000D01*
X152063804Y-115510997D01*
X155076740Y-112498061D01*
X177272113Y-112498061D01*
X177272113Y-112701939D01*
X177311887Y-112901898D01*
X177389908Y-113090256D01*
X177503176Y-113259774D01*
X177647339Y-113403937D01*
X177816857Y-113517205D01*
X178005215Y-113595226D01*
X178205174Y-113635000D01*
X178409052Y-113635000D01*
X178609011Y-113595226D01*
X178797369Y-113517205D01*
X178966887Y-113403937D01*
X179111050Y-113259774D01*
X179224318Y-113090256D01*
X179302339Y-112901898D01*
X179342113Y-112701939D01*
X179342113Y-112639801D01*
X179701600Y-112280314D01*
X180881480Y-112280314D01*
X180881480Y-112627004D01*
X180949116Y-112967032D01*
X181081788Y-113287332D01*
X181274399Y-113575594D01*
X181519545Y-113820740D01*
X181807807Y-114013351D01*
X182128107Y-114146023D01*
X182468135Y-114213659D01*
X182814825Y-114213659D01*
X183154853Y-114146023D01*
X183475153Y-114013351D01*
X183763415Y-113820740D01*
X184008561Y-113575594D01*
X184201172Y-113287332D01*
X184231688Y-113213659D01*
X186509019Y-113213659D01*
X186546341Y-113217335D01*
X186583663Y-113213659D01*
X186583674Y-113213659D01*
X186695327Y-113202662D01*
X186838588Y-113159205D01*
X186970617Y-113088633D01*
X187086342Y-112993660D01*
X187110145Y-112964656D01*
X188811003Y-111263799D01*
X188840001Y-111240001D01*
X188934974Y-111124276D01*
X189005546Y-110992247D01*
X189049003Y-110848986D01*
X189060000Y-110737333D01*
X189060000Y-110737324D01*
X189063676Y-110700001D01*
X189060000Y-110662678D01*
X189060000Y-110338072D01*
X189100000Y-110338072D01*
X189224482Y-110325812D01*
X189344180Y-110289502D01*
X189454494Y-110230537D01*
X189551185Y-110151185D01*
X189630537Y-110054494D01*
X189650000Y-110018082D01*
X189669463Y-110054494D01*
X189748815Y-110151185D01*
X189845506Y-110230537D01*
X189955820Y-110289502D01*
X190075518Y-110325812D01*
X190200000Y-110338072D01*
X190240001Y-110338072D01*
X190240001Y-110462668D01*
X190236324Y-110500000D01*
X190240001Y-110537333D01*
X190250998Y-110648986D01*
X190256640Y-110667585D01*
X190294454Y-110792246D01*
X190365026Y-110924276D01*
X190436201Y-111011002D01*
X190460000Y-111040001D01*
X190488998Y-111063799D01*
X192389860Y-112964662D01*
X192413658Y-112993660D01*
X192442656Y-113017458D01*
X192529382Y-113088633D01*
X192625484Y-113140001D01*
X192661412Y-113159205D01*
X192804673Y-113202662D01*
X192916326Y-113213659D01*
X192916335Y-113213659D01*
X192953658Y-113217335D01*
X192990981Y-113213659D01*
X200101272Y-113213659D01*
X200131788Y-113287332D01*
X200324399Y-113575594D01*
X200569545Y-113820740D01*
X200857807Y-114013351D01*
X201178107Y-114146023D01*
X201518135Y-114213659D01*
X201864825Y-114213659D01*
X202204853Y-114146023D01*
X202525153Y-114013351D01*
X202813415Y-113820740D01*
X203058561Y-113575594D01*
X203251172Y-113287332D01*
X203383844Y-112967032D01*
X203451480Y-112627004D01*
X203451480Y-112280314D01*
X203383844Y-111940286D01*
X203251172Y-111619986D01*
X203058561Y-111331724D01*
X202813415Y-111086578D01*
X202525153Y-110893967D01*
X202204853Y-110761295D01*
X201864825Y-110693659D01*
X201518135Y-110693659D01*
X201178107Y-110761295D01*
X200857807Y-110893967D01*
X200569545Y-111086578D01*
X200324399Y-111331724D01*
X200131788Y-111619986D01*
X200101272Y-111693659D01*
X193268461Y-111693659D01*
X191902753Y-110327952D01*
X191924482Y-110325812D01*
X192044180Y-110289502D01*
X192154494Y-110230537D01*
X192251185Y-110151185D01*
X192330537Y-110054494D01*
X192389502Y-109944180D01*
X192425812Y-109824482D01*
X192438072Y-109700000D01*
X192438072Y-108100000D01*
X192425812Y-107975518D01*
X192389502Y-107855820D01*
X192330537Y-107745506D01*
X192251185Y-107648815D01*
X192154494Y-107569463D01*
X192044180Y-107510498D01*
X191924482Y-107474188D01*
X191800000Y-107461928D01*
X190200000Y-107461928D01*
X190075518Y-107474188D01*
X189955820Y-107510498D01*
X189845506Y-107569463D01*
X189748815Y-107648815D01*
X189669463Y-107745506D01*
X189650000Y-107781918D01*
X189630537Y-107745506D01*
X189551185Y-107648815D01*
X189454494Y-107569463D01*
X189344180Y-107510498D01*
X189224482Y-107474188D01*
X189100000Y-107461928D01*
X187500000Y-107461928D01*
X187375518Y-107474188D01*
X187255820Y-107510498D01*
X187145506Y-107569463D01*
X187048815Y-107648815D01*
X186969463Y-107745506D01*
X186910498Y-107855820D01*
X186874188Y-107975518D01*
X186861928Y-108100000D01*
X186861928Y-109700000D01*
X186874188Y-109824482D01*
X186910498Y-109944180D01*
X186969463Y-110054494D01*
X187048815Y-110151185D01*
X187145506Y-110230537D01*
X187255820Y-110289502D01*
X187375518Y-110325812D01*
X187500000Y-110338072D01*
X187540001Y-110338072D01*
X187540001Y-110385197D01*
X186231540Y-111693659D01*
X184231688Y-111693659D01*
X184201172Y-111619986D01*
X184008561Y-111331724D01*
X183763415Y-111086578D01*
X183475153Y-110893967D01*
X183154853Y-110761295D01*
X182814825Y-110693659D01*
X182468135Y-110693659D01*
X182128107Y-110761295D01*
X181807807Y-110893967D01*
X181519545Y-111086578D01*
X181274399Y-111331724D01*
X181081788Y-111619986D01*
X180949116Y-111940286D01*
X180881480Y-112280314D01*
X179701600Y-112280314D01*
X182931390Y-109050526D01*
X182960382Y-109026733D01*
X182984176Y-108997740D01*
X182984180Y-108997736D01*
X183055354Y-108911009D01*
X183055355Y-108911008D01*
X183125927Y-108778979D01*
X183169384Y-108635718D01*
X183180381Y-108524065D01*
X183180381Y-108524056D01*
X183184057Y-108486733D01*
X183180381Y-108449410D01*
X183180381Y-107294420D01*
X183897586Y-106577215D01*
X183843336Y-106658406D01*
X183729509Y-106933208D01*
X183671480Y-107224937D01*
X183671480Y-107522381D01*
X183729509Y-107814110D01*
X183843336Y-108088912D01*
X184008587Y-108336228D01*
X184218911Y-108546552D01*
X184466227Y-108711803D01*
X184741029Y-108825630D01*
X185032758Y-108883659D01*
X185330202Y-108883659D01*
X185621931Y-108825630D01*
X185896733Y-108711803D01*
X186144049Y-108546552D01*
X186354373Y-108336228D01*
X186519624Y-108088912D01*
X186633451Y-107814110D01*
X186691480Y-107522381D01*
X186691480Y-107224937D01*
X186633451Y-106933208D01*
X186519624Y-106658406D01*
X186354373Y-106411090D01*
X186144049Y-106200766D01*
X185896733Y-106035515D01*
X185621931Y-105921688D01*
X185330202Y-105863659D01*
X185032758Y-105863659D01*
X184741029Y-105921688D01*
X184466227Y-106035515D01*
X184385037Y-106089765D01*
X187976114Y-102498688D01*
X188158665Y-102535000D01*
X188441335Y-102535000D01*
X188718574Y-102479853D01*
X188979727Y-102371680D01*
X189214759Y-102214637D01*
X189414637Y-102014759D01*
X189518043Y-101860000D01*
X189781957Y-101860000D01*
X189885363Y-102014759D01*
X190085241Y-102214637D01*
X190320273Y-102371680D01*
X190581426Y-102479853D01*
X190858665Y-102535000D01*
X191141335Y-102535000D01*
X191418574Y-102479853D01*
X191679727Y-102371680D01*
X191914759Y-102214637D01*
X192114637Y-102014759D01*
X192271680Y-101779727D01*
X192379853Y-101518574D01*
X192435000Y-101241335D01*
X192435000Y-100958665D01*
X192379853Y-100681426D01*
X192271680Y-100420273D01*
X192114637Y-100185241D01*
X191914759Y-99985363D01*
X191679727Y-99828320D01*
X191418574Y-99720147D01*
X191141335Y-99665000D01*
X190858665Y-99665000D01*
X190581426Y-99720147D01*
X190320273Y-99828320D01*
X190085241Y-99985363D01*
X189885363Y-100185241D01*
X189781957Y-100340000D01*
X189518043Y-100340000D01*
X189414637Y-100185241D01*
X189214759Y-99985363D01*
X188979727Y-99828320D01*
X188718574Y-99720147D01*
X188441335Y-99665000D01*
X188158665Y-99665000D01*
X187881426Y-99720147D01*
X187620273Y-99828320D01*
X187385241Y-99985363D01*
X187185363Y-100185241D01*
X187028320Y-100420273D01*
X186920147Y-100681426D01*
X186865000Y-100958665D01*
X186865000Y-101241335D01*
X186901312Y-101423886D01*
X182337298Y-105987901D01*
X182143480Y-105697833D01*
X181777306Y-105331659D01*
X181346731Y-105043958D01*
X180868302Y-104845786D01*
X180360404Y-104744759D01*
X179842556Y-104744759D01*
X179334658Y-104845786D01*
X178856229Y-105043958D01*
X178425654Y-105331659D01*
X178059480Y-105697833D01*
X177771779Y-106128408D01*
X177573607Y-106606837D01*
X177472580Y-107114735D01*
X177472580Y-107632583D01*
X177573607Y-108140481D01*
X177771779Y-108618910D01*
X178059480Y-109049485D01*
X178425654Y-109415659D01*
X178856229Y-109703360D01*
X179334658Y-109901532D01*
X179831876Y-110000435D01*
X178267312Y-111565000D01*
X178205174Y-111565000D01*
X178005215Y-111604774D01*
X177816857Y-111682795D01*
X177647339Y-111796063D01*
X177503176Y-111940226D01*
X177389908Y-112109744D01*
X177311887Y-112298102D01*
X177272113Y-112498061D01*
X155076740Y-112498061D01*
X156492404Y-111082398D01*
X156521401Y-111058601D01*
X156616374Y-110942876D01*
X156686946Y-110810847D01*
X156730403Y-110667586D01*
X156741400Y-110555933D01*
X156741400Y-110555925D01*
X156745076Y-110518600D01*
X156741400Y-110481275D01*
X156741400Y-105573943D01*
X156896159Y-105470537D01*
X157096037Y-105270659D01*
X157253080Y-105035627D01*
X157361253Y-104774474D01*
X157416400Y-104497235D01*
X157416400Y-104214565D01*
X157361253Y-103937326D01*
X157253080Y-103676173D01*
X157096037Y-103441141D01*
X156896159Y-103241263D01*
X156663641Y-103085900D01*
X156896159Y-102930537D01*
X157096037Y-102730659D01*
X157143250Y-102660000D01*
X163096289Y-102660000D01*
X163140226Y-102703937D01*
X163309744Y-102817205D01*
X163498102Y-102895226D01*
X163698061Y-102935000D01*
X163901939Y-102935000D01*
X164101898Y-102895226D01*
X164290256Y-102817205D01*
X164459774Y-102703937D01*
X164603937Y-102559774D01*
X164717205Y-102390256D01*
X164795226Y-102201898D01*
X164835000Y-102001939D01*
X164835000Y-101798061D01*
X164795226Y-101598102D01*
X164717205Y-101409744D01*
X164603937Y-101240226D01*
X164459774Y-101096063D01*
X164290256Y-100982795D01*
X164101898Y-100904774D01*
X163901939Y-100865000D01*
X163698061Y-100865000D01*
X163498102Y-100904774D01*
X163309744Y-100982795D01*
X163140226Y-101096063D01*
X163096289Y-101140000D01*
X157254665Y-101140000D01*
X157253080Y-101136173D01*
X157096037Y-100901141D01*
X156896159Y-100701263D01*
X156663641Y-100545900D01*
X156896159Y-100390537D01*
X157096037Y-100190659D01*
X157199443Y-100035900D01*
X164286778Y-100035900D01*
X164324100Y-100039576D01*
X164361422Y-100035900D01*
X164361433Y-100035900D01*
X164473086Y-100024903D01*
X164616347Y-99981446D01*
X164748376Y-99910874D01*
X164864101Y-99815901D01*
X164887904Y-99786897D01*
X168131904Y-96542898D01*
X168160902Y-96519100D01*
X168255875Y-96403375D01*
X168326447Y-96271346D01*
X168369904Y-96128085D01*
X168380007Y-96025506D01*
X168424838Y-95980675D01*
X168538106Y-95811157D01*
X168616127Y-95622799D01*
X168655901Y-95422840D01*
X168655901Y-95218962D01*
X168616127Y-95019003D01*
X168538106Y-94830645D01*
X168424838Y-94661127D01*
X168280675Y-94516964D01*
X168111157Y-94403696D01*
X167922799Y-94325675D01*
X167722840Y-94285901D01*
X167660703Y-94285901D01*
X160854703Y-87479902D01*
X160830900Y-87450898D01*
X160715175Y-87355925D01*
X160583146Y-87285353D01*
X160439885Y-87241896D01*
X160328232Y-87230899D01*
X160328221Y-87230899D01*
X160290899Y-87227223D01*
X160253577Y-87230899D01*
X157263323Y-87230899D01*
X157361253Y-86994474D01*
X157416400Y-86717235D01*
X157416400Y-86434565D01*
X157361253Y-86157326D01*
X157253080Y-85896173D01*
X157096037Y-85661141D01*
X156896159Y-85461263D01*
X156662272Y-85304985D01*
X156722914Y-85272571D01*
X156794497Y-85028602D01*
X155981400Y-84215505D01*
X155168303Y-85028602D01*
X155239886Y-85272571D01*
X155304392Y-85303094D01*
X155301673Y-85304220D01*
X155066641Y-85461263D01*
X154866763Y-85661141D01*
X154763357Y-85815900D01*
X154690702Y-85815900D01*
X154460000Y-85585199D01*
X154460000Y-84106412D01*
X154541183Y-84106412D01*
X154582613Y-84386030D01*
X154677797Y-84652192D01*
X154744729Y-84777414D01*
X154988698Y-84848997D01*
X155801795Y-84035900D01*
X156161005Y-84035900D01*
X156974102Y-84848997D01*
X157218071Y-84777414D01*
X157338971Y-84521904D01*
X157407700Y-84247716D01*
X157421617Y-83965388D01*
X157380187Y-83685770D01*
X157285003Y-83419608D01*
X157218071Y-83294386D01*
X156974102Y-83222803D01*
X156161005Y-84035900D01*
X155801795Y-84035900D01*
X154988698Y-83222803D01*
X154744729Y-83294386D01*
X154623829Y-83549896D01*
X154555100Y-83824084D01*
X154541183Y-84106412D01*
X154460000Y-84106412D01*
X154460000Y-82488602D01*
X155168303Y-82488602D01*
X155239886Y-82732571D01*
X155306036Y-82763871D01*
X155239886Y-82799229D01*
X155168303Y-83043198D01*
X155981400Y-83856295D01*
X156794497Y-83043198D01*
X156722914Y-82799229D01*
X156656764Y-82767929D01*
X156722914Y-82732571D01*
X156794497Y-82488602D01*
X155981400Y-81675505D01*
X155168303Y-82488602D01*
X154460000Y-82488602D01*
X154460000Y-81137323D01*
X154463676Y-81100000D01*
X154460000Y-81062677D01*
X154460000Y-81062667D01*
X154449003Y-80951014D01*
X154405546Y-80807753D01*
X154388586Y-80776024D01*
X154386622Y-80772348D01*
X154736230Y-80772348D01*
X154623829Y-81009896D01*
X154555100Y-81284084D01*
X154541183Y-81566412D01*
X154582613Y-81846030D01*
X154677797Y-82112192D01*
X154744729Y-82237414D01*
X154988698Y-82308997D01*
X155801795Y-81495900D01*
X156161005Y-81495900D01*
X156974102Y-82308997D01*
X157218071Y-82237414D01*
X157338971Y-81981904D01*
X157407700Y-81707716D01*
X157421617Y-81425388D01*
X157380187Y-81145770D01*
X157285003Y-80879608D01*
X157218071Y-80754386D01*
X156974102Y-80682803D01*
X156161005Y-81495900D01*
X155801795Y-81495900D01*
X155787653Y-81481758D01*
X155967258Y-81302153D01*
X155981400Y-81316295D01*
X156794497Y-80503198D01*
X156722914Y-80259229D01*
X156658408Y-80228706D01*
X156661127Y-80227580D01*
X156896159Y-80070537D01*
X157096037Y-79870659D01*
X157253080Y-79635627D01*
X157361253Y-79374474D01*
X157416400Y-79097235D01*
X157416400Y-78814565D01*
X157361253Y-78537326D01*
X157253080Y-78276173D01*
X157096037Y-78041141D01*
X156897439Y-77842543D01*
X156905882Y-77841712D01*
X157025580Y-77805402D01*
X157135894Y-77746437D01*
X157232585Y-77667085D01*
X157311937Y-77570394D01*
X157370902Y-77460080D01*
X157407212Y-77340382D01*
X157419472Y-77215900D01*
X157419472Y-76085000D01*
X169824107Y-76085000D01*
X169786400Y-76274565D01*
G37*
X169786400Y-76274565D02*
X169786400Y-76557235D01*
X169841547Y-76834474D01*
X169949720Y-77095627D01*
X170106763Y-77330659D01*
X170306641Y-77530537D01*
X170539159Y-77685900D01*
X170306641Y-77841263D01*
X170106763Y-78041141D01*
X169949720Y-78276173D01*
X169841547Y-78537326D01*
X169786400Y-78814565D01*
X169786400Y-79097235D01*
X169841547Y-79374474D01*
X169949720Y-79635627D01*
X170106763Y-79870659D01*
X170306641Y-80070537D01*
X170539159Y-80225900D01*
X170306641Y-80381263D01*
X170106763Y-80581141D01*
X169949720Y-80816173D01*
X169841547Y-81077326D01*
X169786400Y-81354565D01*
X169786400Y-81637235D01*
X169841547Y-81914474D01*
X169949720Y-82175627D01*
X170106763Y-82410659D01*
X170306641Y-82610537D01*
X170539159Y-82765900D01*
X170306641Y-82921263D01*
X170106763Y-83121141D01*
X169949720Y-83356173D01*
X169841547Y-83617326D01*
X169786400Y-83894565D01*
X169786400Y-84177235D01*
X169841547Y-84454474D01*
X169949720Y-84715627D01*
X170106763Y-84950659D01*
X170306641Y-85150537D01*
X170539159Y-85305900D01*
X170306641Y-85461263D01*
X170106763Y-85661141D01*
X169949720Y-85896173D01*
X169841547Y-86157326D01*
X169786400Y-86434565D01*
X169786400Y-86717235D01*
X169841547Y-86994474D01*
X169949720Y-87255627D01*
X170106763Y-87490659D01*
X170306641Y-87690537D01*
X170539159Y-87845900D01*
X170306641Y-88001263D01*
X170106763Y-88201141D01*
X169949720Y-88436173D01*
X169841547Y-88697326D01*
X169786400Y-88974565D01*
X169786400Y-89257235D01*
X169841547Y-89534474D01*
X169949720Y-89795627D01*
X170106763Y-90030659D01*
X170306641Y-90230537D01*
X170539159Y-90385900D01*
X170306641Y-90541263D01*
X170106763Y-90741141D01*
X169949720Y-90976173D01*
X169841547Y-91237326D01*
X169786400Y-91514565D01*
X169786400Y-91797235D01*
X169841547Y-92074474D01*
X169949720Y-92335627D01*
X170106763Y-92570659D01*
X170306641Y-92770537D01*
X170539159Y-92925900D01*
X170306641Y-93081263D01*
X170106763Y-93281141D01*
X169949720Y-93516173D01*
X169841547Y-93777326D01*
X169786400Y-94054565D01*
X169786400Y-94337235D01*
X169841547Y-94614474D01*
X169949720Y-94875627D01*
X170106763Y-95110659D01*
X170306641Y-95310537D01*
X170539159Y-95465900D01*
X170306641Y-95621263D01*
X170106763Y-95821141D01*
X169949720Y-96056173D01*
X169841547Y-96317326D01*
X169786400Y-96594565D01*
X169786400Y-96877235D01*
X169841547Y-97154474D01*
X169949720Y-97415627D01*
X170106763Y-97650659D01*
X170306641Y-97850537D01*
X170539159Y-98005900D01*
X170306641Y-98161263D01*
X170106763Y-98361141D01*
X169949720Y-98596173D01*
X169841547Y-98857326D01*
X169786400Y-99134565D01*
X169786400Y-99417235D01*
X169841547Y-99694474D01*
X169949720Y-99955627D01*
X170106763Y-100190659D01*
X170306641Y-100390537D01*
X170539159Y-100545900D01*
X170306641Y-100701263D01*
X170106763Y-100901141D01*
X169949720Y-101136173D01*
X169841547Y-101397326D01*
X169786400Y-101674565D01*
X169786400Y-101957235D01*
X169841547Y-102234474D01*
X169949720Y-102495627D01*
X170106763Y-102730659D01*
X170306641Y-102930537D01*
X170539159Y-103085900D01*
X170306641Y-103241263D01*
X170106763Y-103441141D01*
X169949720Y-103676173D01*
X169841547Y-103937326D01*
X169786400Y-104214565D01*
X169786400Y-104497235D01*
X169841547Y-104774474D01*
X169949720Y-105035627D01*
X170106763Y-105270659D01*
X170306641Y-105470537D01*
X170541673Y-105627580D01*
X170802826Y-105735753D01*
X171080065Y-105790900D01*
X171362735Y-105790900D01*
X171639974Y-105735753D01*
X171901127Y-105627580D01*
X172136159Y-105470537D01*
X172336037Y-105270659D01*
X172493080Y-105035627D01*
X172601253Y-104774474D01*
X172656400Y-104497235D01*
X172656400Y-104214565D01*
X172601253Y-103937326D01*
X172493080Y-103676173D01*
X172336037Y-103441141D01*
X172136159Y-103241263D01*
X171903641Y-103085900D01*
X172136159Y-102930537D01*
X172336037Y-102730659D01*
X172493080Y-102495627D01*
X172601253Y-102234474D01*
X172656400Y-101957235D01*
X172656400Y-101674565D01*
X172601253Y-101397326D01*
X172493080Y-101136173D01*
X172336037Y-100901141D01*
X172136159Y-100701263D01*
X171903641Y-100545900D01*
X172136159Y-100390537D01*
X172336037Y-100190659D01*
X172493080Y-99955627D01*
X172601253Y-99694474D01*
X172656400Y-99417235D01*
X172656400Y-99134565D01*
X172601253Y-98857326D01*
X172493080Y-98596173D01*
X172336037Y-98361141D01*
X172136159Y-98161263D01*
X171903641Y-98005900D01*
X172136159Y-97850537D01*
X172336037Y-97650659D01*
X172493080Y-97415627D01*
X172601253Y-97154474D01*
X172656400Y-96877235D01*
X172656400Y-96594565D01*
X172601253Y-96317326D01*
X172493080Y-96056173D01*
X172336037Y-95821141D01*
X172136159Y-95621263D01*
X171903641Y-95465900D01*
X172136159Y-95310537D01*
X172336037Y-95110659D01*
X172493080Y-94875627D01*
X172601253Y-94614474D01*
X172656400Y-94337235D01*
X172656400Y-94054565D01*
X172601253Y-93777326D01*
X172493080Y-93516173D01*
X172336037Y-93281141D01*
X172136159Y-93081263D01*
X171903641Y-92925900D01*
X172136159Y-92770537D01*
X172336037Y-92570659D01*
X172493080Y-92335627D01*
X172601253Y-92074474D01*
X172656400Y-91797235D01*
X172656400Y-91514565D01*
X172601253Y-91237326D01*
X172493080Y-90976173D01*
X172336037Y-90741141D01*
X172136159Y-90541263D01*
X171903641Y-90385900D01*
X172136159Y-90230537D01*
X172336037Y-90030659D01*
X172493080Y-89795627D01*
X172601253Y-89534474D01*
X172656400Y-89257235D01*
X172656400Y-88974565D01*
X172601253Y-88697326D01*
X172493080Y-88436173D01*
X172336037Y-88201141D01*
X172309834Y-88174938D01*
X173511480Y-88174938D01*
X173511480Y-88472382D01*
X173569509Y-88764111D01*
X173683336Y-89038913D01*
X173848587Y-89286229D01*
X174058911Y-89496553D01*
X174306227Y-89661804D01*
X174581029Y-89775631D01*
X174864118Y-89831941D01*
X174731788Y-90029987D01*
X174599116Y-90350287D01*
X174531480Y-90690315D01*
X174531480Y-91037005D01*
X174599116Y-91377033D01*
X174731788Y-91697333D01*
X174924399Y-91985595D01*
X175169545Y-92230741D01*
X175457807Y-92423352D01*
X175531480Y-92453868D01*
X175531481Y-105950497D01*
X175461931Y-105921688D01*
X175170202Y-105863659D01*
X174872758Y-105863659D01*
X174581029Y-105921688D01*
X174306227Y-106035515D01*
X174058911Y-106200766D01*
X173848587Y-106411090D01*
X173683336Y-106658406D01*
X173569509Y-106933208D01*
X173511480Y-107224937D01*
X173511480Y-107522381D01*
X173569509Y-107814110D01*
X173683336Y-108088912D01*
X173848587Y-108336228D01*
X174058911Y-108546552D01*
X174306227Y-108711803D01*
X174581029Y-108825630D01*
X174864118Y-108881940D01*
X174731788Y-109079986D01*
X174599116Y-109400286D01*
X174531480Y-109740314D01*
X174531480Y-110087004D01*
X174599116Y-110427032D01*
X174731788Y-110747332D01*
X174924399Y-111035594D01*
X175169545Y-111280740D01*
X175457807Y-111473351D01*
X175778107Y-111606023D01*
X176118135Y-111673659D01*
X176464825Y-111673659D01*
X176804853Y-111606023D01*
X177125153Y-111473351D01*
X177413415Y-111280740D01*
X177658561Y-111035594D01*
X177851172Y-110747332D01*
X177983844Y-110427032D01*
X178051480Y-110087004D01*
X178051480Y-109740314D01*
X177983844Y-109400286D01*
X177851172Y-109079986D01*
X177658561Y-108791724D01*
X177413415Y-108546578D01*
X177125153Y-108353967D01*
X177051480Y-108323451D01*
X177051480Y-102137304D01*
X177243980Y-102137304D01*
X177243980Y-102450014D01*
X177304987Y-102756716D01*
X177424656Y-103045622D01*
X177598388Y-103305631D01*
X177819508Y-103526751D01*
X178079517Y-103700483D01*
X178368423Y-103820152D01*
X178675125Y-103881159D01*
X178987835Y-103881159D01*
X179294537Y-103820152D01*
X179583443Y-103700483D01*
X179843452Y-103526751D01*
X179847029Y-103523174D01*
X179888443Y-103600653D01*
X179967795Y-103697344D01*
X180064486Y-103776696D01*
X180174800Y-103835661D01*
X180294498Y-103871971D01*
X180418980Y-103884231D01*
X182323980Y-103884231D01*
X182448462Y-103871971D01*
X182568160Y-103835661D01*
X182678474Y-103776696D01*
X182775165Y-103697344D01*
X182854517Y-103600653D01*
X182913482Y-103490339D01*
X182949792Y-103370641D01*
X182962052Y-103246159D01*
X182962052Y-101341159D01*
X182949792Y-101216677D01*
X182913482Y-101096979D01*
X182854517Y-100986665D01*
X182775165Y-100889974D01*
X182678474Y-100810622D01*
X182568160Y-100751657D01*
X182448462Y-100715347D01*
X182323980Y-100703087D01*
X180418980Y-100703087D01*
X180294498Y-100715347D01*
X180174800Y-100751657D01*
X180064486Y-100810622D01*
X179967795Y-100889974D01*
X179888443Y-100986665D01*
X179847029Y-101064144D01*
X179843452Y-101060567D01*
X179583443Y-100886835D01*
X179294537Y-100767166D01*
X178987835Y-100706159D01*
X178675125Y-100706159D01*
X178368423Y-100767166D01*
X178079517Y-100886835D01*
X177819508Y-101060567D01*
X177598388Y-101281687D01*
X177424656Y-101541696D01*
X177304987Y-101830602D01*
X177243980Y-102137304D01*
X177051480Y-102137304D01*
X177051480Y-92453868D01*
X177125153Y-92423352D01*
X177413415Y-92230741D01*
X177658561Y-91985595D01*
X177851172Y-91697333D01*
X177983844Y-91377033D01*
X178051480Y-91037005D01*
X178051480Y-90690315D01*
X177983844Y-90350287D01*
X177851172Y-90029987D01*
X177658561Y-89741725D01*
X177413415Y-89496579D01*
X177125153Y-89303968D01*
X176804853Y-89171296D01*
X176464825Y-89103660D01*
X176316362Y-89103660D01*
X176359624Y-89038913D01*
X176473451Y-88764111D01*
X176531480Y-88472382D01*
X176531480Y-88174938D01*
X176509560Y-88064736D01*
X177472580Y-88064736D01*
X177472580Y-88582584D01*
X177573607Y-89090482D01*
X177771779Y-89568911D01*
X178059480Y-89999486D01*
X178425654Y-90365660D01*
X178856229Y-90653361D01*
X179334658Y-90851533D01*
X179842556Y-90952560D01*
X180360404Y-90952560D01*
X180868302Y-90851533D01*
X181346731Y-90653361D01*
X181777306Y-90365660D01*
X181881480Y-90261486D01*
X181881481Y-91813452D01*
X181807807Y-91843968D01*
X181519545Y-92036579D01*
X181274399Y-92281725D01*
X181081788Y-92569987D01*
X180949116Y-92890287D01*
X180881480Y-93230315D01*
X180881480Y-93577005D01*
X180949116Y-93917033D01*
X181081788Y-94237333D01*
X181274399Y-94525595D01*
X181519545Y-94770741D01*
X181807807Y-94963352D01*
X182128107Y-95096024D01*
X182468135Y-95163660D01*
X182814825Y-95163660D01*
X183154853Y-95096024D01*
X183475153Y-94963352D01*
X183763415Y-94770741D01*
X184008561Y-94525595D01*
X184120100Y-94358665D01*
X186865000Y-94358665D01*
X186865000Y-94641335D01*
X186920147Y-94918574D01*
X187028320Y-95179727D01*
X187185363Y-95414759D01*
X187385241Y-95614637D01*
X187620273Y-95771680D01*
X187881426Y-95879853D01*
X188158665Y-95935000D01*
X188441335Y-95935000D01*
X188718574Y-95879853D01*
X188979727Y-95771680D01*
X189214759Y-95614637D01*
X189414637Y-95414759D01*
X189518043Y-95260000D01*
X189681957Y-95260000D01*
X189785363Y-95414759D01*
X189985241Y-95614637D01*
X190220273Y-95771680D01*
X190481426Y-95879853D01*
X190758665Y-95935000D01*
X191041335Y-95935000D01*
X191318574Y-95879853D01*
X191579727Y-95771680D01*
X191814759Y-95614637D01*
X192014637Y-95414759D01*
X192171680Y-95179727D01*
X192279853Y-94918574D01*
X192335000Y-94641335D01*
X192335000Y-94358665D01*
X192279853Y-94081426D01*
X192171680Y-93820273D01*
X192014637Y-93585241D01*
X191814759Y-93385363D01*
X191579727Y-93228320D01*
X191318574Y-93120147D01*
X191041335Y-93065000D01*
X190758665Y-93065000D01*
X190481426Y-93120147D01*
X190220273Y-93228320D01*
X189985241Y-93385363D01*
X189785363Y-93585241D01*
X189681957Y-93740000D01*
X189518043Y-93740000D01*
X189414637Y-93585241D01*
X189214759Y-93385363D01*
X188979727Y-93228320D01*
X188718574Y-93120147D01*
X188441335Y-93065000D01*
X188158665Y-93065000D01*
X187881426Y-93120147D01*
X187620273Y-93228320D01*
X187385241Y-93385363D01*
X187185363Y-93585241D01*
X187028320Y-93820273D01*
X186920147Y-94081426D01*
X186865000Y-94358665D01*
X184120100Y-94358665D01*
X184201172Y-94237333D01*
X184333844Y-93917033D01*
X184401480Y-93577005D01*
X184401480Y-93230315D01*
X184333844Y-92890287D01*
X184201172Y-92569987D01*
X184008561Y-92281725D01*
X183763415Y-92036579D01*
X183475153Y-91843968D01*
X183401480Y-91813452D01*
X183401480Y-89402459D01*
X183820400Y-88983540D01*
X183843336Y-89038913D01*
X184008587Y-89286229D01*
X184218911Y-89496553D01*
X184466227Y-89661804D01*
X184741029Y-89775631D01*
X185032758Y-89833660D01*
X185330202Y-89833660D01*
X185621931Y-89775631D01*
X185896733Y-89661804D01*
X186144049Y-89496553D01*
X186354373Y-89286229D01*
X186519624Y-89038913D01*
X186633451Y-88764111D01*
X186691480Y-88472382D01*
X186691480Y-88174938D01*
X186633451Y-87883209D01*
X186519624Y-87608407D01*
X186420462Y-87460000D01*
X186861928Y-87460000D01*
X186861928Y-87500000D01*
X186874188Y-87624482D01*
X186910498Y-87744180D01*
X186969463Y-87854494D01*
X187048815Y-87951185D01*
X187145506Y-88030537D01*
X187255820Y-88089502D01*
X187375518Y-88125812D01*
X187500000Y-88138072D01*
X189100000Y-88138072D01*
X189224482Y-88125812D01*
X189344180Y-88089502D01*
X189454494Y-88030537D01*
X189551185Y-87951185D01*
X189600000Y-87891704D01*
X189648815Y-87951185D01*
X189745506Y-88030537D01*
X189855820Y-88089502D01*
X189975518Y-88125812D01*
X190100000Y-88138072D01*
X191700000Y-88138072D01*
X191824482Y-88125812D01*
X191944180Y-88089502D01*
X192054494Y-88030537D01*
X192151185Y-87951185D01*
X192230537Y-87854494D01*
X192289502Y-87744180D01*
X192325812Y-87624482D01*
X192338072Y-87500000D01*
X192338072Y-87460000D01*
X192832498Y-87460000D01*
X192733336Y-87608407D01*
X192619509Y-87883209D01*
X192561480Y-88174938D01*
X192561480Y-88472382D01*
X192619509Y-88764111D01*
X192733336Y-89038913D01*
X192898587Y-89286229D01*
X193108911Y-89496553D01*
X193356227Y-89661804D01*
X193631029Y-89775631D01*
X193914118Y-89831941D01*
X193781788Y-90029987D01*
X193649116Y-90350287D01*
X193581480Y-90690315D01*
X193581480Y-91037005D01*
X193649116Y-91377033D01*
X193781788Y-91697333D01*
X193974399Y-91985595D01*
X194219545Y-92230741D01*
X194507807Y-92423352D01*
X194581480Y-92453868D01*
X194581481Y-105950497D01*
X194511931Y-105921688D01*
X194220202Y-105863659D01*
X193922758Y-105863659D01*
X193631029Y-105921688D01*
X193356227Y-106035515D01*
X193108911Y-106200766D01*
X192898587Y-106411090D01*
X192733336Y-106658406D01*
X192619509Y-106933208D01*
X192561480Y-107224937D01*
X192561480Y-107522381D01*
X192619509Y-107814110D01*
X192733336Y-108088912D01*
X192898587Y-108336228D01*
X193108911Y-108546552D01*
X193356227Y-108711803D01*
X193631029Y-108825630D01*
X193914118Y-108881940D01*
X193781788Y-109079986D01*
X193649116Y-109400286D01*
X193581480Y-109740314D01*
X193581480Y-110087004D01*
X193649116Y-110427032D01*
X193781788Y-110747332D01*
X193974399Y-111035594D01*
X194219545Y-111280740D01*
X194507807Y-111473351D01*
X194828107Y-111606023D01*
X195168135Y-111673659D01*
X195514825Y-111673659D01*
X195854853Y-111606023D01*
X196175153Y-111473351D01*
X196463415Y-111280740D01*
X196708561Y-111035594D01*
X196901172Y-110747332D01*
X197033844Y-110427032D01*
X197101480Y-110087004D01*
X197101480Y-109740314D01*
X197033844Y-109400286D01*
X196901172Y-109079986D01*
X196708561Y-108791724D01*
X196463415Y-108546578D01*
X196175153Y-108353967D01*
X196101480Y-108323451D01*
X196101480Y-107114735D01*
X196522580Y-107114735D01*
X196522580Y-107632583D01*
X196623607Y-108140481D01*
X196821779Y-108618910D01*
X197109480Y-109049485D01*
X197475654Y-109415659D01*
X197906229Y-109703360D01*
X198384658Y-109901532D01*
X198892556Y-110002559D01*
X199410404Y-110002559D01*
X199918302Y-109901532D01*
X200396731Y-109703360D01*
X200827306Y-109415659D01*
X201193480Y-109049485D01*
X201481181Y-108618910D01*
X201679353Y-108140481D01*
X201780380Y-107632583D01*
X201780380Y-107224937D01*
X202721480Y-107224937D01*
X202721480Y-107522381D01*
X202779509Y-107814110D01*
X202893336Y-108088912D01*
X203058587Y-108336228D01*
X203268911Y-108546552D01*
X203516227Y-108711803D01*
X203791029Y-108825630D01*
X204082758Y-108883659D01*
X204380202Y-108883659D01*
X204671931Y-108825630D01*
X204946733Y-108711803D01*
X205194049Y-108546552D01*
X205404373Y-108336228D01*
X205569624Y-108088912D01*
X205683451Y-107814110D01*
X205741480Y-107522381D01*
X205741480Y-107224937D01*
X205683451Y-106933208D01*
X205569624Y-106658406D01*
X205404373Y-106411090D01*
X205194049Y-106200766D01*
X204946733Y-106035515D01*
X204671931Y-105921688D01*
X204380202Y-105863659D01*
X204082758Y-105863659D01*
X203791029Y-105921688D01*
X203516227Y-106035515D01*
X203268911Y-106200766D01*
X203058587Y-106411090D01*
X202893336Y-106658406D01*
X202779509Y-106933208D01*
X202721480Y-107224937D01*
X201780380Y-107224937D01*
X201780380Y-107114735D01*
X201679353Y-106606837D01*
X201481181Y-106128408D01*
X201193480Y-105697833D01*
X200827306Y-105331659D01*
X200396731Y-105043958D01*
X199918302Y-104845786D01*
X199410404Y-104744759D01*
X198892556Y-104744759D01*
X198384658Y-104845786D01*
X197906229Y-105043958D01*
X197475654Y-105331659D01*
X197109480Y-105697833D01*
X196821779Y-106128408D01*
X196623607Y-106606837D01*
X196522580Y-107114735D01*
X196101480Y-107114735D01*
X196101480Y-102137304D01*
X196293980Y-102137304D01*
X196293980Y-102450014D01*
X196354987Y-102756716D01*
X196474656Y-103045622D01*
X196648388Y-103305631D01*
X196869508Y-103526751D01*
X197129517Y-103700483D01*
X197418423Y-103820152D01*
X197725125Y-103881159D01*
X198037835Y-103881159D01*
X198344537Y-103820152D01*
X198633443Y-103700483D01*
X198893452Y-103526751D01*
X198897029Y-103523174D01*
X198938443Y-103600653D01*
X199017795Y-103697344D01*
X199114486Y-103776696D01*
X199224800Y-103835661D01*
X199344498Y-103871971D01*
X199468980Y-103884231D01*
X201373980Y-103884231D01*
X201498462Y-103871971D01*
X201618160Y-103835661D01*
X201728474Y-103776696D01*
X201825165Y-103697344D01*
X201904517Y-103600653D01*
X201963482Y-103490339D01*
X201999792Y-103370641D01*
X202012052Y-103246159D01*
X202012052Y-101341159D01*
X201999792Y-101216677D01*
X201963482Y-101096979D01*
X201904517Y-100986665D01*
X201825165Y-100889974D01*
X201728474Y-100810622D01*
X201618160Y-100751657D01*
X201498462Y-100715347D01*
X201373980Y-100703087D01*
X199468980Y-100703087D01*
X199344498Y-100715347D01*
X199224800Y-100751657D01*
X199114486Y-100810622D01*
X199017795Y-100889974D01*
X198938443Y-100986665D01*
X198897029Y-101064144D01*
X198893452Y-101060567D01*
X198633443Y-100886835D01*
X198344537Y-100767166D01*
X198037835Y-100706159D01*
X197725125Y-100706159D01*
X197418423Y-100767166D01*
X197129517Y-100886835D01*
X196869508Y-101060567D01*
X196648388Y-101281687D01*
X196474656Y-101541696D01*
X196354987Y-101830602D01*
X196293980Y-102137304D01*
X196101480Y-102137304D01*
X196101480Y-92453868D01*
X196175153Y-92423352D01*
X196463415Y-92230741D01*
X196708561Y-91985595D01*
X196901172Y-91697333D01*
X197033844Y-91377033D01*
X197101480Y-91037005D01*
X197101480Y-90690315D01*
X197092080Y-90643060D01*
X199931480Y-93482460D01*
X199931480Y-93577005D01*
X199999116Y-93917033D01*
X200131788Y-94237333D01*
X200324399Y-94525595D01*
X200569545Y-94770741D01*
X200857807Y-94963352D01*
X201178107Y-95096024D01*
X201518135Y-95163660D01*
X201864825Y-95163660D01*
X202204853Y-95096024D01*
X202525153Y-94963352D01*
X202813415Y-94770741D01*
X203058561Y-94525595D01*
X203251172Y-94237333D01*
X203383844Y-93917033D01*
X203451480Y-93577005D01*
X203451480Y-93230315D01*
X203383844Y-92890287D01*
X203251172Y-92569987D01*
X203058561Y-92281725D01*
X202813415Y-92036579D01*
X202525153Y-91843968D01*
X202204853Y-91711296D01*
X201864825Y-91643660D01*
X201518135Y-91643660D01*
X201178107Y-91711296D01*
X200857807Y-91843968D01*
X200608904Y-92010280D01*
X199527827Y-90929203D01*
X199918302Y-90851533D01*
X200396731Y-90653361D01*
X200827306Y-90365660D01*
X201193480Y-89999486D01*
X201481181Y-89568911D01*
X201679353Y-89090482D01*
X201780380Y-88582584D01*
X201780380Y-88174938D01*
X202721480Y-88174938D01*
X202721480Y-88472382D01*
X202779509Y-88764111D01*
X202893336Y-89038913D01*
X203058587Y-89286229D01*
X203268911Y-89496553D01*
X203516227Y-89661804D01*
X203791029Y-89775631D01*
X204082758Y-89833660D01*
X204380202Y-89833660D01*
X204671931Y-89775631D01*
X204946733Y-89661804D01*
X205194049Y-89496553D01*
X205404373Y-89286229D01*
X205569624Y-89038913D01*
X205683451Y-88764111D01*
X205741480Y-88472382D01*
X205741480Y-88174938D01*
X205683451Y-87883209D01*
X205569624Y-87608407D01*
X205404373Y-87361091D01*
X205194049Y-87150767D01*
X204946733Y-86985516D01*
X204671931Y-86871689D01*
X204380202Y-86813660D01*
X204082758Y-86813660D01*
X203791029Y-86871689D01*
X203516227Y-86985516D01*
X203268911Y-87150767D01*
X203058587Y-87361091D01*
X202893336Y-87608407D01*
X202779509Y-87883209D01*
X202721480Y-88174938D01*
X201780380Y-88174938D01*
X201780380Y-88064736D01*
X201679353Y-87556838D01*
X201481181Y-87078409D01*
X201193480Y-86647834D01*
X200827306Y-86281660D01*
X200396731Y-85993959D01*
X199918302Y-85795787D01*
X199410404Y-85694760D01*
X198892556Y-85694760D01*
X198384658Y-85795787D01*
X197906229Y-85993959D01*
X197475654Y-86281660D01*
X197109480Y-86647834D01*
X196821779Y-87078409D01*
X196623607Y-87556838D01*
X196545937Y-87947313D01*
X194787626Y-86189003D01*
X194763823Y-86159999D01*
X194648098Y-86065026D01*
X194516069Y-85994454D01*
X194372808Y-85950997D01*
X194261155Y-85940000D01*
X194261144Y-85940000D01*
X194223822Y-85936324D01*
X194186500Y-85940000D01*
X192338072Y-85940000D01*
X192338072Y-85900000D01*
X192325812Y-85775518D01*
X192289502Y-85655820D01*
X192230537Y-85545506D01*
X192151185Y-85448815D01*
X192054494Y-85369463D01*
X191944180Y-85310498D01*
X191824482Y-85274188D01*
X191700000Y-85261928D01*
X190100000Y-85261928D01*
X189975518Y-85274188D01*
X189855820Y-85310498D01*
X189745506Y-85369463D01*
X189648815Y-85448815D01*
X189600000Y-85508296D01*
X189551185Y-85448815D01*
X189454494Y-85369463D01*
X189344180Y-85310498D01*
X189224482Y-85274188D01*
X189100000Y-85261928D01*
X187500000Y-85261928D01*
X187375518Y-85274188D01*
X187255820Y-85310498D01*
X187145506Y-85369463D01*
X187048815Y-85448815D01*
X186969463Y-85545506D01*
X186910498Y-85655820D01*
X186874188Y-85775518D01*
X186861928Y-85900000D01*
X186861928Y-85940000D01*
X185066460Y-85940000D01*
X185029137Y-85936324D01*
X184991814Y-85940000D01*
X184991805Y-85940000D01*
X184880152Y-85950997D01*
X184736891Y-85994454D01*
X184604862Y-86065026D01*
X184489137Y-86159999D01*
X184465339Y-86188997D01*
X182707023Y-87947313D01*
X182629353Y-87556838D01*
X182431181Y-87078409D01*
X182143480Y-86647834D01*
X181777306Y-86281660D01*
X181346731Y-85993959D01*
X180868302Y-85795787D01*
X180360404Y-85694760D01*
X179842556Y-85694760D01*
X179334658Y-85795787D01*
X178856229Y-85993959D01*
X178425654Y-86281660D01*
X178059480Y-86647834D01*
X177771779Y-87078409D01*
X177573607Y-87556838D01*
X177472580Y-88064736D01*
X176509560Y-88064736D01*
X176473451Y-87883209D01*
X176359624Y-87608407D01*
X176194373Y-87361091D01*
X175984049Y-87150767D01*
X175736733Y-86985516D01*
X175461931Y-86871689D01*
X175170202Y-86813660D01*
X174872758Y-86813660D01*
X174581029Y-86871689D01*
X174306227Y-86985516D01*
X174058911Y-87150767D01*
X173848587Y-87361091D01*
X173683336Y-87608407D01*
X173569509Y-87883209D01*
X173511480Y-88174938D01*
X172309834Y-88174938D01*
X172136159Y-88001263D01*
X171903641Y-87845900D01*
X172136159Y-87690537D01*
X172336037Y-87490659D01*
X172493080Y-87255627D01*
X172601253Y-86994474D01*
X172656400Y-86717235D01*
X172656400Y-86434565D01*
X172601253Y-86157326D01*
X172493080Y-85896173D01*
X172336037Y-85661141D01*
X172136159Y-85461263D01*
X171903641Y-85305900D01*
X172136159Y-85150537D01*
X172336037Y-84950659D01*
X172493080Y-84715627D01*
X172601253Y-84454474D01*
X172656400Y-84177235D01*
X172656400Y-83894565D01*
X172601253Y-83617326D01*
X172493080Y-83356173D01*
X172336037Y-83121141D01*
X172302201Y-83087305D01*
X177243980Y-83087305D01*
X177243980Y-83400015D01*
X177304987Y-83706717D01*
X177424656Y-83995623D01*
X177598388Y-84255632D01*
X177819508Y-84476752D01*
X178079517Y-84650484D01*
X178368423Y-84770153D01*
X178675125Y-84831160D01*
X178987835Y-84831160D01*
X179294537Y-84770153D01*
X179583443Y-84650484D01*
X179843452Y-84476752D01*
X179847029Y-84473175D01*
X179888443Y-84550654D01*
X179967795Y-84647345D01*
X180064486Y-84726697D01*
X180174800Y-84785662D01*
X180294498Y-84821972D01*
X180418980Y-84834232D01*
X182323980Y-84834232D01*
X182448462Y-84821972D01*
X182568160Y-84785662D01*
X182678474Y-84726697D01*
X182775165Y-84647345D01*
X182854517Y-84550654D01*
X182913482Y-84440340D01*
X182949792Y-84320642D01*
X182962052Y-84196160D01*
X182962052Y-83087305D01*
X196293980Y-83087305D01*
X196293980Y-83400015D01*
X196354987Y-83706717D01*
X196474656Y-83995623D01*
X196648388Y-84255632D01*
X196869508Y-84476752D01*
X197129517Y-84650484D01*
X197418423Y-84770153D01*
X197725125Y-84831160D01*
X198037835Y-84831160D01*
X198344537Y-84770153D01*
X198633443Y-84650484D01*
X198893452Y-84476752D01*
X198897029Y-84473175D01*
X198938443Y-84550654D01*
X199017795Y-84647345D01*
X199114486Y-84726697D01*
X199224800Y-84785662D01*
X199344498Y-84821972D01*
X199468980Y-84834232D01*
X201373980Y-84834232D01*
X201498462Y-84821972D01*
X201618160Y-84785662D01*
X201728474Y-84726697D01*
X201825165Y-84647345D01*
X201904517Y-84550654D01*
X201963482Y-84440340D01*
X201999792Y-84320642D01*
X202012052Y-84196160D01*
X202012052Y-82291160D01*
X201999792Y-82166678D01*
X201963482Y-82046980D01*
X201904517Y-81936666D01*
X201825165Y-81839975D01*
X201728474Y-81760623D01*
X201618160Y-81701658D01*
X201498462Y-81665348D01*
X201373980Y-81653088D01*
X199468980Y-81653088D01*
X199344498Y-81665348D01*
X199224800Y-81701658D01*
X199114486Y-81760623D01*
X199017795Y-81839975D01*
X198938443Y-81936666D01*
X198897029Y-82014145D01*
X198893452Y-82010568D01*
X198633443Y-81836836D01*
X198344537Y-81717167D01*
X198037835Y-81656160D01*
X197725125Y-81656160D01*
X197418423Y-81717167D01*
X197129517Y-81836836D01*
X196869508Y-82010568D01*
X196648388Y-82231688D01*
X196474656Y-82491697D01*
X196354987Y-82780603D01*
X196293980Y-83087305D01*
X182962052Y-83087305D01*
X182962052Y-82291160D01*
X182949792Y-82166678D01*
X182913482Y-82046980D01*
X182854517Y-81936666D01*
X182775165Y-81839975D01*
X182678474Y-81760623D01*
X182568160Y-81701658D01*
X182448462Y-81665348D01*
X182323980Y-81653088D01*
X180418980Y-81653088D01*
X180294498Y-81665348D01*
X180174800Y-81701658D01*
X180064486Y-81760623D01*
X179967795Y-81839975D01*
X179888443Y-81936666D01*
X179847029Y-82014145D01*
X179843452Y-82010568D01*
X179583443Y-81836836D01*
X179294537Y-81717167D01*
X178987835Y-81656160D01*
X178675125Y-81656160D01*
X178368423Y-81717167D01*
X178079517Y-81836836D01*
X177819508Y-82010568D01*
X177598388Y-82231688D01*
X177424656Y-82491697D01*
X177304987Y-82780603D01*
X177243980Y-83087305D01*
X172302201Y-83087305D01*
X172136159Y-82921263D01*
X171903641Y-82765900D01*
X172136159Y-82610537D01*
X172336037Y-82410659D01*
X172493080Y-82175627D01*
X172601253Y-81914474D01*
X172656400Y-81637235D01*
X172656400Y-81354565D01*
X172601253Y-81077326D01*
X172493080Y-80816173D01*
X172336037Y-80581141D01*
X172136159Y-80381263D01*
X171903641Y-80225900D01*
X172136159Y-80070537D01*
X172336037Y-79870659D01*
X172493080Y-79635627D01*
X172601253Y-79374474D01*
X172656400Y-79097235D01*
X172656400Y-78814565D01*
X172601253Y-78537326D01*
X172493080Y-78276173D01*
X172336037Y-78041141D01*
X172136159Y-77841263D01*
X171903641Y-77685900D01*
X172136159Y-77530537D01*
X172336037Y-77330659D01*
X172493080Y-77095627D01*
X172601253Y-76834474D01*
X172656400Y-76557235D01*
X172656400Y-76274565D01*
X172618693Y-76085000D01*
X205915001Y-76085000D01*
X205915000Y-115515000D01*
X152060519Y-115515000D01*
X152063804Y-115510997D01*
X155076740Y-112498061D01*
X177272113Y-112498061D01*
X177272113Y-112701939D01*
X177311887Y-112901898D01*
X177389908Y-113090256D01*
X177503176Y-113259774D01*
X177647339Y-113403937D01*
X177816857Y-113517205D01*
X178005215Y-113595226D01*
X178205174Y-113635000D01*
X178409052Y-113635000D01*
X178609011Y-113595226D01*
X178797369Y-113517205D01*
X178966887Y-113403937D01*
X179111050Y-113259774D01*
X179224318Y-113090256D01*
X179302339Y-112901898D01*
X179342113Y-112701939D01*
X179342113Y-112639801D01*
X179701600Y-112280314D01*
X180881480Y-112280314D01*
X180881480Y-112627004D01*
X180949116Y-112967032D01*
X181081788Y-113287332D01*
X181274399Y-113575594D01*
X181519545Y-113820740D01*
X181807807Y-114013351D01*
X182128107Y-114146023D01*
X182468135Y-114213659D01*
X182814825Y-114213659D01*
X183154853Y-114146023D01*
X183475153Y-114013351D01*
X183763415Y-113820740D01*
X184008561Y-113575594D01*
X184201172Y-113287332D01*
X184231688Y-113213659D01*
X186509019Y-113213659D01*
X186546341Y-113217335D01*
X186583663Y-113213659D01*
X186583674Y-113213659D01*
X186695327Y-113202662D01*
X186838588Y-113159205D01*
X186970617Y-113088633D01*
X187086342Y-112993660D01*
X187110145Y-112964656D01*
X188811003Y-111263799D01*
X188840001Y-111240001D01*
X188934974Y-111124276D01*
X189005546Y-110992247D01*
X189049003Y-110848986D01*
X189060000Y-110737333D01*
X189060000Y-110737324D01*
X189063676Y-110700001D01*
X189060000Y-110662678D01*
X189060000Y-110338072D01*
X189100000Y-110338072D01*
X189224482Y-110325812D01*
X189344180Y-110289502D01*
X189454494Y-110230537D01*
X189551185Y-110151185D01*
X189630537Y-110054494D01*
X189650000Y-110018082D01*
X189669463Y-110054494D01*
X189748815Y-110151185D01*
X189845506Y-110230537D01*
X189955820Y-110289502D01*
X190075518Y-110325812D01*
X190200000Y-110338072D01*
X190240001Y-110338072D01*
X190240001Y-110462668D01*
X190236324Y-110500000D01*
X190240001Y-110537333D01*
X190250998Y-110648986D01*
X190256640Y-110667585D01*
X190294454Y-110792246D01*
X190365026Y-110924276D01*
X190436201Y-111011002D01*
X190460000Y-111040001D01*
X190488998Y-111063799D01*
X192389860Y-112964662D01*
X192413658Y-112993660D01*
X192442656Y-113017458D01*
X192529382Y-113088633D01*
X192625484Y-113140001D01*
X192661412Y-113159205D01*
X192804673Y-113202662D01*
X192916326Y-113213659D01*
X192916335Y-113213659D01*
X192953658Y-113217335D01*
X192990981Y-113213659D01*
X200101272Y-113213659D01*
X200131788Y-113287332D01*
X200324399Y-113575594D01*
X200569545Y-113820740D01*
X200857807Y-114013351D01*
X201178107Y-114146023D01*
X201518135Y-114213659D01*
X201864825Y-114213659D01*
X202204853Y-114146023D01*
X202525153Y-114013351D01*
X202813415Y-113820740D01*
X203058561Y-113575594D01*
X203251172Y-113287332D01*
X203383844Y-112967032D01*
X203451480Y-112627004D01*
X203451480Y-112280314D01*
X203383844Y-111940286D01*
X203251172Y-111619986D01*
X203058561Y-111331724D01*
X202813415Y-111086578D01*
X202525153Y-110893967D01*
X202204853Y-110761295D01*
X201864825Y-110693659D01*
X201518135Y-110693659D01*
X201178107Y-110761295D01*
X200857807Y-110893967D01*
X200569545Y-111086578D01*
X200324399Y-111331724D01*
X200131788Y-111619986D01*
X200101272Y-111693659D01*
X193268461Y-111693659D01*
X191902753Y-110327952D01*
X191924482Y-110325812D01*
X192044180Y-110289502D01*
X192154494Y-110230537D01*
X192251185Y-110151185D01*
X192330537Y-110054494D01*
X192389502Y-109944180D01*
X192425812Y-109824482D01*
X192438072Y-109700000D01*
X192438072Y-108100000D01*
X192425812Y-107975518D01*
X192389502Y-107855820D01*
X192330537Y-107745506D01*
X192251185Y-107648815D01*
X192154494Y-107569463D01*
X192044180Y-107510498D01*
X191924482Y-107474188D01*
X191800000Y-107461928D01*
X190200000Y-107461928D01*
X190075518Y-107474188D01*
X189955820Y-107510498D01*
X189845506Y-107569463D01*
X189748815Y-107648815D01*
X189669463Y-107745506D01*
X189650000Y-107781918D01*
X189630537Y-107745506D01*
X189551185Y-107648815D01*
X189454494Y-107569463D01*
X189344180Y-107510498D01*
X189224482Y-107474188D01*
X189100000Y-107461928D01*
X187500000Y-107461928D01*
X187375518Y-107474188D01*
X187255820Y-107510498D01*
X187145506Y-107569463D01*
X187048815Y-107648815D01*
X186969463Y-107745506D01*
X186910498Y-107855820D01*
X186874188Y-107975518D01*
X186861928Y-108100000D01*
X186861928Y-109700000D01*
X186874188Y-109824482D01*
X186910498Y-109944180D01*
X186969463Y-110054494D01*
X187048815Y-110151185D01*
X187145506Y-110230537D01*
X187255820Y-110289502D01*
X187375518Y-110325812D01*
X187500000Y-110338072D01*
X187540001Y-110338072D01*
X187540001Y-110385197D01*
X186231540Y-111693659D01*
X184231688Y-111693659D01*
X184201172Y-111619986D01*
X184008561Y-111331724D01*
X183763415Y-111086578D01*
X183475153Y-110893967D01*
X183154853Y-110761295D01*
X182814825Y-110693659D01*
X182468135Y-110693659D01*
X182128107Y-110761295D01*
X181807807Y-110893967D01*
X181519545Y-111086578D01*
X181274399Y-111331724D01*
X181081788Y-111619986D01*
X180949116Y-111940286D01*
X180881480Y-112280314D01*
X179701600Y-112280314D01*
X182931390Y-109050526D01*
X182960382Y-109026733D01*
X182984176Y-108997740D01*
X182984180Y-108997736D01*
X183055354Y-108911009D01*
X183055355Y-108911008D01*
X183125927Y-108778979D01*
X183169384Y-108635718D01*
X183180381Y-108524065D01*
X183180381Y-108524056D01*
X183184057Y-108486733D01*
X183180381Y-108449410D01*
X183180381Y-107294420D01*
X183897586Y-106577215D01*
X183843336Y-106658406D01*
X183729509Y-106933208D01*
X183671480Y-107224937D01*
X183671480Y-107522381D01*
X183729509Y-107814110D01*
X183843336Y-108088912D01*
X184008587Y-108336228D01*
X184218911Y-108546552D01*
X184466227Y-108711803D01*
X184741029Y-108825630D01*
X185032758Y-108883659D01*
X185330202Y-108883659D01*
X185621931Y-108825630D01*
X185896733Y-108711803D01*
X186144049Y-108546552D01*
X186354373Y-108336228D01*
X186519624Y-108088912D01*
X186633451Y-107814110D01*
X186691480Y-107522381D01*
X186691480Y-107224937D01*
X186633451Y-106933208D01*
X186519624Y-106658406D01*
X186354373Y-106411090D01*
X186144049Y-106200766D01*
X185896733Y-106035515D01*
X185621931Y-105921688D01*
X185330202Y-105863659D01*
X185032758Y-105863659D01*
X184741029Y-105921688D01*
X184466227Y-106035515D01*
X184385037Y-106089765D01*
X187976114Y-102498688D01*
X188158665Y-102535000D01*
X188441335Y-102535000D01*
X188718574Y-102479853D01*
X188979727Y-102371680D01*
X189214759Y-102214637D01*
X189414637Y-102014759D01*
X189518043Y-101860000D01*
X189781957Y-101860000D01*
X189885363Y-102014759D01*
X190085241Y-102214637D01*
X190320273Y-102371680D01*
X190581426Y-102479853D01*
X190858665Y-102535000D01*
X191141335Y-102535000D01*
X191418574Y-102479853D01*
X191679727Y-102371680D01*
X191914759Y-102214637D01*
X192114637Y-102014759D01*
X192271680Y-101779727D01*
X192379853Y-101518574D01*
X192435000Y-101241335D01*
X192435000Y-100958665D01*
X192379853Y-100681426D01*
X192271680Y-100420273D01*
X192114637Y-100185241D01*
X191914759Y-99985363D01*
X191679727Y-99828320D01*
X191418574Y-99720147D01*
X191141335Y-99665000D01*
X190858665Y-99665000D01*
X190581426Y-99720147D01*
X190320273Y-99828320D01*
X190085241Y-99985363D01*
X189885363Y-100185241D01*
X189781957Y-100340000D01*
X189518043Y-100340000D01*
X189414637Y-100185241D01*
X189214759Y-99985363D01*
X188979727Y-99828320D01*
X188718574Y-99720147D01*
X188441335Y-99665000D01*
X188158665Y-99665000D01*
X187881426Y-99720147D01*
X187620273Y-99828320D01*
X187385241Y-99985363D01*
X187185363Y-100185241D01*
X187028320Y-100420273D01*
X186920147Y-100681426D01*
X186865000Y-100958665D01*
X186865000Y-101241335D01*
X186901312Y-101423886D01*
X182337298Y-105987901D01*
X182143480Y-105697833D01*
X181777306Y-105331659D01*
X181346731Y-105043958D01*
X180868302Y-104845786D01*
X180360404Y-104744759D01*
X179842556Y-104744759D01*
X179334658Y-104845786D01*
X178856229Y-105043958D01*
X178425654Y-105331659D01*
X178059480Y-105697833D01*
X177771779Y-106128408D01*
X177573607Y-106606837D01*
X177472580Y-107114735D01*
X177472580Y-107632583D01*
X177573607Y-108140481D01*
X177771779Y-108618910D01*
X178059480Y-109049485D01*
X178425654Y-109415659D01*
X178856229Y-109703360D01*
X179334658Y-109901532D01*
X179831876Y-110000435D01*
X178267312Y-111565000D01*
X178205174Y-111565000D01*
X178005215Y-111604774D01*
X177816857Y-111682795D01*
X177647339Y-111796063D01*
X177503176Y-111940226D01*
X177389908Y-112109744D01*
X177311887Y-112298102D01*
X177272113Y-112498061D01*
X155076740Y-112498061D01*
X156492404Y-111082398D01*
X156521401Y-111058601D01*
X156616374Y-110942876D01*
X156686946Y-110810847D01*
X156730403Y-110667586D01*
X156741400Y-110555933D01*
X156741400Y-110555925D01*
X156745076Y-110518600D01*
X156741400Y-110481275D01*
X156741400Y-105573943D01*
X156896159Y-105470537D01*
X157096037Y-105270659D01*
X157253080Y-105035627D01*
X157361253Y-104774474D01*
X157416400Y-104497235D01*
X157416400Y-104214565D01*
X157361253Y-103937326D01*
X157253080Y-103676173D01*
X157096037Y-103441141D01*
X156896159Y-103241263D01*
X156663641Y-103085900D01*
X156896159Y-102930537D01*
X157096037Y-102730659D01*
X157143250Y-102660000D01*
X163096289Y-102660000D01*
X163140226Y-102703937D01*
X163309744Y-102817205D01*
X163498102Y-102895226D01*
X163698061Y-102935000D01*
X163901939Y-102935000D01*
X164101898Y-102895226D01*
X164290256Y-102817205D01*
X164459774Y-102703937D01*
X164603937Y-102559774D01*
X164717205Y-102390256D01*
X164795226Y-102201898D01*
X164835000Y-102001939D01*
X164835000Y-101798061D01*
X164795226Y-101598102D01*
X164717205Y-101409744D01*
X164603937Y-101240226D01*
X164459774Y-101096063D01*
X164290256Y-100982795D01*
X164101898Y-100904774D01*
X163901939Y-100865000D01*
X163698061Y-100865000D01*
X163498102Y-100904774D01*
X163309744Y-100982795D01*
X163140226Y-101096063D01*
X163096289Y-101140000D01*
X157254665Y-101140000D01*
X157253080Y-101136173D01*
X157096037Y-100901141D01*
X156896159Y-100701263D01*
X156663641Y-100545900D01*
X156896159Y-100390537D01*
X157096037Y-100190659D01*
X157199443Y-100035900D01*
X164286778Y-100035900D01*
X164324100Y-100039576D01*
X164361422Y-100035900D01*
X164361433Y-100035900D01*
X164473086Y-100024903D01*
X164616347Y-99981446D01*
X164748376Y-99910874D01*
X164864101Y-99815901D01*
X164887904Y-99786897D01*
X168131904Y-96542898D01*
X168160902Y-96519100D01*
X168255875Y-96403375D01*
X168326447Y-96271346D01*
X168369904Y-96128085D01*
X168380007Y-96025506D01*
X168424838Y-95980675D01*
X168538106Y-95811157D01*
X168616127Y-95622799D01*
X168655901Y-95422840D01*
X168655901Y-95218962D01*
X168616127Y-95019003D01*
X168538106Y-94830645D01*
X168424838Y-94661127D01*
X168280675Y-94516964D01*
X168111157Y-94403696D01*
X167922799Y-94325675D01*
X167722840Y-94285901D01*
X167660703Y-94285901D01*
X160854703Y-87479902D01*
X160830900Y-87450898D01*
X160715175Y-87355925D01*
X160583146Y-87285353D01*
X160439885Y-87241896D01*
X160328232Y-87230899D01*
X160328221Y-87230899D01*
X160290899Y-87227223D01*
X160253577Y-87230899D01*
X157263323Y-87230899D01*
X157361253Y-86994474D01*
X157416400Y-86717235D01*
X157416400Y-86434565D01*
X157361253Y-86157326D01*
X157253080Y-85896173D01*
X157096037Y-85661141D01*
X156896159Y-85461263D01*
X156662272Y-85304985D01*
X156722914Y-85272571D01*
X156794497Y-85028602D01*
X155981400Y-84215505D01*
X155168303Y-85028602D01*
X155239886Y-85272571D01*
X155304392Y-85303094D01*
X155301673Y-85304220D01*
X155066641Y-85461263D01*
X154866763Y-85661141D01*
X154763357Y-85815900D01*
X154690702Y-85815900D01*
X154460000Y-85585199D01*
X154460000Y-84106412D01*
X154541183Y-84106412D01*
X154582613Y-84386030D01*
X154677797Y-84652192D01*
X154744729Y-84777414D01*
X154988698Y-84848997D01*
X155801795Y-84035900D01*
X156161005Y-84035900D01*
X156974102Y-84848997D01*
X157218071Y-84777414D01*
X157338971Y-84521904D01*
X157407700Y-84247716D01*
X157421617Y-83965388D01*
X157380187Y-83685770D01*
X157285003Y-83419608D01*
X157218071Y-83294386D01*
X156974102Y-83222803D01*
X156161005Y-84035900D01*
X155801795Y-84035900D01*
X154988698Y-83222803D01*
X154744729Y-83294386D01*
X154623829Y-83549896D01*
X154555100Y-83824084D01*
X154541183Y-84106412D01*
X154460000Y-84106412D01*
X154460000Y-82488602D01*
X155168303Y-82488602D01*
X155239886Y-82732571D01*
X155306036Y-82763871D01*
X155239886Y-82799229D01*
X155168303Y-83043198D01*
X155981400Y-83856295D01*
X156794497Y-83043198D01*
X156722914Y-82799229D01*
X156656764Y-82767929D01*
X156722914Y-82732571D01*
X156794497Y-82488602D01*
X155981400Y-81675505D01*
X155168303Y-82488602D01*
X154460000Y-82488602D01*
X154460000Y-81137323D01*
X154463676Y-81100000D01*
X154460000Y-81062677D01*
X154460000Y-81062667D01*
X154449003Y-80951014D01*
X154405546Y-80807753D01*
X154388586Y-80776024D01*
X154386622Y-80772348D01*
X154736230Y-80772348D01*
X154623829Y-81009896D01*
X154555100Y-81284084D01*
X154541183Y-81566412D01*
X154582613Y-81846030D01*
X154677797Y-82112192D01*
X154744729Y-82237414D01*
X154988698Y-82308997D01*
X155801795Y-81495900D01*
X156161005Y-81495900D01*
X156974102Y-82308997D01*
X157218071Y-82237414D01*
X157338971Y-81981904D01*
X157407700Y-81707716D01*
X157421617Y-81425388D01*
X157380187Y-81145770D01*
X157285003Y-80879608D01*
X157218071Y-80754386D01*
X156974102Y-80682803D01*
X156161005Y-81495900D01*
X155801795Y-81495900D01*
X155787653Y-81481758D01*
X155967258Y-81302153D01*
X155981400Y-81316295D01*
X156794497Y-80503198D01*
X156722914Y-80259229D01*
X156658408Y-80228706D01*
X156661127Y-80227580D01*
X156896159Y-80070537D01*
X157096037Y-79870659D01*
X157253080Y-79635627D01*
X157361253Y-79374474D01*
X157416400Y-79097235D01*
X157416400Y-78814565D01*
X157361253Y-78537326D01*
X157253080Y-78276173D01*
X157096037Y-78041141D01*
X156897439Y-77842543D01*
X156905882Y-77841712D01*
X157025580Y-77805402D01*
X157135894Y-77746437D01*
X157232585Y-77667085D01*
X157311937Y-77570394D01*
X157370902Y-77460080D01*
X157407212Y-77340382D01*
X157419472Y-77215900D01*
X157419472Y-76085000D01*
X169824107Y-76085000D01*
X169786400Y-76274565D01*
G36*
X108257025Y-78124532D02*
G01*
X108463868Y-78331375D01*
X108650501Y-78456079D01*
X108650500Y-85573178D01*
X108646824Y-85610500D01*
X108650500Y-85647822D01*
X108650500Y-85647832D01*
X108661497Y-85759485D01*
X108681946Y-85826897D01*
X108704954Y-85902746D01*
X108775526Y-86034776D01*
X108800246Y-86064897D01*
X108870499Y-86150501D01*
X108899503Y-86174304D01*
X109692317Y-86967118D01*
X109461931Y-86871689D01*
X109170202Y-86813660D01*
X108872758Y-86813660D01*
X108581029Y-86871689D01*
X108306227Y-86985516D01*
X108058911Y-87150767D01*
X107848587Y-87361091D01*
X107683336Y-87608407D01*
X107569509Y-87883209D01*
X107511480Y-88174938D01*
X107511480Y-88472382D01*
X107569509Y-88764111D01*
X107683336Y-89038913D01*
X107848587Y-89286229D01*
X108058911Y-89496553D01*
X108306227Y-89661804D01*
X108581029Y-89775631D01*
X108864118Y-89831941D01*
X108731788Y-90029987D01*
X108599116Y-90350287D01*
X108531480Y-90690315D01*
X108531480Y-91037005D01*
X108599116Y-91377033D01*
X108731788Y-91697333D01*
X108924399Y-91985595D01*
X109169545Y-92230741D01*
X109457807Y-92423352D01*
X109531481Y-92453869D01*
X109531480Y-105950496D01*
X109461931Y-105921688D01*
X109170202Y-105863659D01*
X108872758Y-105863659D01*
X108581029Y-105921688D01*
X108306227Y-106035515D01*
X108058911Y-106200766D01*
X107848587Y-106411090D01*
X107683336Y-106658406D01*
X107569509Y-106933208D01*
X107511480Y-107224937D01*
X107511480Y-107522381D01*
X107569509Y-107814110D01*
X107683336Y-108088912D01*
X107848587Y-108336228D01*
X108058911Y-108546552D01*
X108306227Y-108711803D01*
X108581029Y-108825630D01*
X108864118Y-108881940D01*
X108731788Y-109079986D01*
X108599116Y-109400286D01*
X108531480Y-109740314D01*
X108531480Y-110087004D01*
X108599116Y-110427032D01*
X108731788Y-110747332D01*
X108924399Y-111035594D01*
X109169545Y-111280740D01*
X109457807Y-111473351D01*
X109778107Y-111606023D01*
X110118135Y-111673659D01*
X110464825Y-111673659D01*
X110804853Y-111606023D01*
X111125153Y-111473351D01*
X111413415Y-111280740D01*
X111658561Y-111035594D01*
X111851172Y-110747332D01*
X111983844Y-110427032D01*
X112051480Y-110087004D01*
X112051480Y-109740314D01*
X111983844Y-109400286D01*
X111851172Y-109079986D01*
X111658561Y-108791724D01*
X111413415Y-108546578D01*
X111125153Y-108353967D01*
X111051480Y-108323451D01*
X111051480Y-107114735D01*
X111472580Y-107114735D01*
X111472580Y-107632583D01*
X111573607Y-108140481D01*
X111771779Y-108618910D01*
X112059480Y-109049485D01*
X112425654Y-109415659D01*
X112856229Y-109703360D01*
X113334658Y-109901532D01*
X113842556Y-110002559D01*
X114360404Y-110002559D01*
X114868302Y-109901532D01*
X115346731Y-109703360D01*
X115777306Y-109415659D01*
X116143480Y-109049485D01*
X116431181Y-108618910D01*
X116629353Y-108140481D01*
X116730380Y-107632583D01*
X116730380Y-107224937D01*
X117671480Y-107224937D01*
X117671480Y-107522381D01*
X117729509Y-107814110D01*
X117843336Y-108088912D01*
X118008587Y-108336228D01*
X118218911Y-108546552D01*
X118466227Y-108711803D01*
X118741029Y-108825630D01*
X119032758Y-108883659D01*
X119330202Y-108883659D01*
X119621931Y-108825630D01*
X119896733Y-108711803D01*
X120144049Y-108546552D01*
X120354373Y-108336228D01*
X120519624Y-108088912D01*
X120633451Y-107814110D01*
X120691480Y-107522381D01*
X120691480Y-107224937D01*
X120633451Y-106933208D01*
X120519624Y-106658406D01*
X120354373Y-106411090D01*
X120144049Y-106200766D01*
X119896733Y-106035515D01*
X119621931Y-105921688D01*
X119330202Y-105863659D01*
X119032758Y-105863659D01*
X118741029Y-105921688D01*
X118466227Y-106035515D01*
X118218911Y-106200766D01*
X118008587Y-106411090D01*
X117843336Y-106658406D01*
X117729509Y-106933208D01*
X117671480Y-107224937D01*
X116730380Y-107224937D01*
X116730380Y-107114735D01*
X116629353Y-106606837D01*
X116431181Y-106128408D01*
X116143480Y-105697833D01*
X115777306Y-105331659D01*
X115346731Y-105043958D01*
X114868302Y-104845786D01*
X114360404Y-104744759D01*
X113842556Y-104744759D01*
X113334658Y-104845786D01*
X112856229Y-105043958D01*
X112425654Y-105331659D01*
X112059480Y-105697833D01*
X111771779Y-106128408D01*
X111573607Y-106606837D01*
X111472580Y-107114735D01*
X111051480Y-107114735D01*
X111051480Y-102137304D01*
X111243980Y-102137304D01*
X111243980Y-102450014D01*
X111304987Y-102756716D01*
X111424656Y-103045622D01*
X111598388Y-103305631D01*
X111819508Y-103526751D01*
X112079517Y-103700483D01*
X112368423Y-103820152D01*
X112675125Y-103881159D01*
X112987835Y-103881159D01*
X113294537Y-103820152D01*
X113583443Y-103700483D01*
X113843452Y-103526751D01*
X113847029Y-103523174D01*
X113888443Y-103600653D01*
X113967795Y-103697344D01*
X114064486Y-103776696D01*
X114174800Y-103835661D01*
X114294498Y-103871971D01*
X114418980Y-103884231D01*
X116323980Y-103884231D01*
X116448462Y-103871971D01*
X116568160Y-103835661D01*
X116678474Y-103776696D01*
X116775165Y-103697344D01*
X116854517Y-103600653D01*
X116913482Y-103490339D01*
X116949792Y-103370641D01*
X116962052Y-103246159D01*
X116962052Y-101341159D01*
X116949792Y-101216677D01*
X116913482Y-101096979D01*
X116854517Y-100986665D01*
X116775165Y-100889974D01*
X116678474Y-100810622D01*
X116568160Y-100751657D01*
X116448462Y-100715347D01*
X116323980Y-100703087D01*
X114418980Y-100703087D01*
X114294498Y-100715347D01*
X114174800Y-100751657D01*
X114064486Y-100810622D01*
X113967795Y-100889974D01*
X113888443Y-100986665D01*
X113847029Y-101064144D01*
X113843452Y-101060567D01*
X113583443Y-100886835D01*
X113294537Y-100767166D01*
X112987835Y-100706159D01*
X112675125Y-100706159D01*
X112368423Y-100767166D01*
X112079517Y-100886835D01*
X111819508Y-101060567D01*
X111598388Y-101281687D01*
X111424656Y-101541696D01*
X111304987Y-101830602D01*
X111243980Y-102137304D01*
X111051480Y-102137304D01*
X111051480Y-92453868D01*
X111125153Y-92423352D01*
X111413415Y-92230741D01*
X111658561Y-91985595D01*
X111759591Y-91834393D01*
X112336200Y-92411002D01*
X112359999Y-92440001D01*
X112475724Y-92534974D01*
X112607753Y-92605546D01*
X112629012Y-92611995D01*
X128157963Y-108140948D01*
X128181757Y-108169941D01*
X128210750Y-108193735D01*
X128210754Y-108193739D01*
X128244332Y-108221295D01*
X128297482Y-108264914D01*
X128429511Y-108335486D01*
X128572772Y-108378943D01*
X128684425Y-108389940D01*
X128684434Y-108389940D01*
X128721757Y-108393616D01*
X128759080Y-108389940D01*
X143043008Y-108389940D01*
X143043008Y-108479940D01*
X143055268Y-108604422D01*
X143091578Y-108724120D01*
X143150543Y-108834434D01*
X143229895Y-108931125D01*
X143326586Y-109010477D01*
X143436900Y-109069442D01*
X143556598Y-109105752D01*
X143681080Y-109118012D01*
X145381080Y-109118012D01*
X145505562Y-109105752D01*
X145625260Y-109069442D01*
X145735574Y-109010477D01*
X145801080Y-108956718D01*
X145866586Y-109010477D01*
X145976900Y-109069442D01*
X146096598Y-109105752D01*
X146221080Y-109118012D01*
X146785330Y-109114940D01*
X146944080Y-108956190D01*
X146944080Y-107756940D01*
X146924080Y-107756940D01*
X146924080Y-107502940D01*
X146944080Y-107502940D01*
X146944080Y-107482940D01*
X147198080Y-107482940D01*
X147198080Y-107502940D01*
X147218080Y-107502940D01*
X147218080Y-107756940D01*
X147198080Y-107756940D01*
X147198080Y-108956190D01*
X147356830Y-109114940D01*
X147921080Y-109118012D01*
X148045562Y-109105752D01*
X148165260Y-109069442D01*
X148275574Y-109010477D01*
X148341080Y-108956718D01*
X148406586Y-109010477D01*
X148516900Y-109069442D01*
X148636598Y-109105752D01*
X148761080Y-109118012D01*
X150461080Y-109118012D01*
X150585562Y-109105752D01*
X150705260Y-109069442D01*
X150815574Y-109010477D01*
X150912265Y-108931125D01*
X150991617Y-108834434D01*
X151050582Y-108724120D01*
X151086892Y-108604422D01*
X151099152Y-108479940D01*
X151099152Y-107340500D01*
X153699053Y-107340500D01*
X153732700Y-107343814D01*
X153866983Y-107330588D01*
X153996106Y-107291419D01*
X154115107Y-107227812D01*
X154219411Y-107142211D01*
X154305012Y-107037907D01*
X154368619Y-106918906D01*
X154407788Y-106789783D01*
X154417700Y-106689147D01*
X154417700Y-106689146D01*
X154421014Y-106655500D01*
X154417700Y-106621853D01*
X154417700Y-90539147D01*
X154421014Y-90505500D01*
X154407788Y-90371217D01*
X154368619Y-90242094D01*
X154305012Y-90123093D01*
X154219411Y-90018789D01*
X154115107Y-89933188D01*
X153996106Y-89869581D01*
X153866983Y-89830412D01*
X153766347Y-89820500D01*
X153732700Y-89817186D01*
X153699053Y-89820500D01*
X151099152Y-89820500D01*
X151099152Y-88750899D01*
X154590891Y-88750899D01*
X154546400Y-88974565D01*
X154546400Y-89257235D01*
X154601547Y-89534474D01*
X154709720Y-89795627D01*
X154866763Y-90030659D01*
X155066641Y-90230537D01*
X155299159Y-90385900D01*
X155066641Y-90541263D01*
X154866763Y-90741141D01*
X154709720Y-90976173D01*
X154601547Y-91237326D01*
X154546400Y-91514565D01*
X154546400Y-91797235D01*
X154601547Y-92074474D01*
X154709720Y-92335627D01*
X154866763Y-92570659D01*
X155066641Y-92770537D01*
X155299159Y-92925900D01*
X155066641Y-93081263D01*
X154866763Y-93281141D01*
X154709720Y-93516173D01*
X154601547Y-93777326D01*
X154546400Y-94054565D01*
X154546400Y-94337235D01*
X154601547Y-94614474D01*
X154709720Y-94875627D01*
X154866763Y-95110659D01*
X155066641Y-95310537D01*
X155299159Y-95465900D01*
X155066641Y-95621263D01*
X154866763Y-95821141D01*
X154709720Y-96056173D01*
X154601547Y-96317326D01*
X154546400Y-96594565D01*
X154546400Y-96877235D01*
X154601547Y-97154474D01*
X154709720Y-97415627D01*
X154866763Y-97650659D01*
X155066641Y-97850537D01*
X155299159Y-98005900D01*
X155066641Y-98161263D01*
X154866763Y-98361141D01*
X154709720Y-98596173D01*
X154601547Y-98857326D01*
X154546400Y-99134565D01*
X154546400Y-99417235D01*
X154601547Y-99694474D01*
X154709720Y-99955627D01*
X154866763Y-100190659D01*
X155066641Y-100390537D01*
X155299159Y-100545900D01*
X155066641Y-100701263D01*
X154866763Y-100901141D01*
X154709720Y-101136173D01*
X154601547Y-101397326D01*
X154546400Y-101674565D01*
X154546400Y-101957235D01*
X154601547Y-102234474D01*
X154709720Y-102495627D01*
X154866763Y-102730659D01*
X155066641Y-102930537D01*
X155299159Y-103085900D01*
X155066641Y-103241263D01*
X154866763Y-103441141D01*
X154709720Y-103676173D01*
X154601547Y-103937326D01*
X154546400Y-104214565D01*
X154546400Y-104497235D01*
X154601547Y-104774474D01*
X154709720Y-105035627D01*
X154866763Y-105270659D01*
X155066641Y-105470537D01*
X155221401Y-105573944D01*
X155221400Y-110203798D01*
X151185199Y-114240000D01*
X96642621Y-114240000D01*
X94682936Y-112280315D01*
X95831479Y-112280315D01*
X95831479Y-112627005D01*
X95899115Y-112967033D01*
X96031787Y-113287333D01*
X96224398Y-113575595D01*
X96469544Y-113820741D01*
X96757806Y-114013352D01*
X97078106Y-114146024D01*
X97418134Y-114213660D01*
X97764824Y-114213660D01*
X98104852Y-114146024D01*
X98425152Y-114013352D01*
X98713414Y-113820741D01*
X98958560Y-113575595D01*
X99151171Y-113287333D01*
X99181687Y-113213660D01*
X101009018Y-113213660D01*
X101046340Y-113217336D01*
X101083662Y-113213660D01*
X101083673Y-113213660D01*
X101195326Y-113202663D01*
X101338587Y-113159206D01*
X101470616Y-113088634D01*
X101586341Y-112993661D01*
X101610144Y-112964657D01*
X103711003Y-110863799D01*
X103740001Y-110840001D01*
X103834974Y-110724276D01*
X103905546Y-110592247D01*
X103949003Y-110448986D01*
X103959927Y-110338072D01*
X104000000Y-110338072D01*
X104124482Y-110325812D01*
X104244180Y-110289502D01*
X104354494Y-110230537D01*
X104451185Y-110151185D01*
X104530537Y-110054494D01*
X104550000Y-110018082D01*
X104569463Y-110054494D01*
X104648815Y-110151185D01*
X104745506Y-110230537D01*
X104855820Y-110289502D01*
X104975518Y-110325812D01*
X105100000Y-110338072D01*
X105140001Y-110338072D01*
X105140001Y-111462668D01*
X105136324Y-111500000D01*
X105140001Y-111537333D01*
X105146767Y-111606023D01*
X105150998Y-111648985D01*
X105194454Y-111792246D01*
X105265026Y-111924276D01*
X105336201Y-112011002D01*
X105360000Y-112040001D01*
X105388998Y-112063799D01*
X106289864Y-112964667D01*
X106313658Y-112993660D01*
X106342651Y-113017454D01*
X106342655Y-113017458D01*
X106413344Y-113075470D01*
X106429383Y-113088633D01*
X106561412Y-113159205D01*
X106704673Y-113202662D01*
X106816326Y-113213659D01*
X106816335Y-113213659D01*
X106853658Y-113217335D01*
X106890981Y-113213659D01*
X115051272Y-113213659D01*
X115081788Y-113287332D01*
X115274399Y-113575594D01*
X115519545Y-113820740D01*
X115807807Y-114013351D01*
X116128107Y-114146023D01*
X116468135Y-114213659D01*
X116814825Y-114213659D01*
X117154853Y-114146023D01*
X117475153Y-114013351D01*
X117763415Y-113820740D01*
X118008561Y-113575594D01*
X118201172Y-113287332D01*
X118333844Y-112967032D01*
X118401480Y-112627004D01*
X118401480Y-112280314D01*
X118333844Y-111940286D01*
X118201172Y-111619986D01*
X118008561Y-111331724D01*
X117763415Y-111086578D01*
X117475153Y-110893967D01*
X117154853Y-110761295D01*
X116814825Y-110693659D01*
X116468135Y-110693659D01*
X116128107Y-110761295D01*
X115807807Y-110893967D01*
X115519545Y-111086578D01*
X115274399Y-111331724D01*
X115081788Y-111619986D01*
X115051272Y-111693659D01*
X107168462Y-111693659D01*
X106660000Y-111185199D01*
X106660000Y-110338072D01*
X106700000Y-110338072D01*
X106824482Y-110325812D01*
X106944180Y-110289502D01*
X107054494Y-110230537D01*
X107151185Y-110151185D01*
X107230537Y-110054494D01*
X107289502Y-109944180D01*
X107325812Y-109824482D01*
X107338072Y-109700000D01*
X107338072Y-108100000D01*
X107325812Y-107975518D01*
X107289502Y-107855820D01*
X107230537Y-107745506D01*
X107151185Y-107648815D01*
X107054494Y-107569463D01*
X106944180Y-107510498D01*
X106824482Y-107474188D01*
X106700000Y-107461928D01*
X105100000Y-107461928D01*
X104975518Y-107474188D01*
X104855820Y-107510498D01*
X104745506Y-107569463D01*
X104648815Y-107648815D01*
X104569463Y-107745506D01*
X104550000Y-107781918D01*
X104530537Y-107745506D01*
X104451185Y-107648815D01*
X104354494Y-107569463D01*
X104244180Y-107510498D01*
X104124482Y-107474188D01*
X104000000Y-107461928D01*
X102400000Y-107461928D01*
X102275518Y-107474188D01*
X102155820Y-107510498D01*
X102045506Y-107569463D01*
X101948815Y-107648815D01*
X101869463Y-107745506D01*
X101810498Y-107855820D01*
X101774188Y-107975518D01*
X101761928Y-108100000D01*
X101761928Y-109700000D01*
X101774188Y-109824482D01*
X101810498Y-109944180D01*
X101869463Y-110054494D01*
X101948815Y-110151185D01*
X102045506Y-110230537D01*
X102142706Y-110282492D01*
X100731539Y-111693660D01*
X99181687Y-111693660D01*
X99151171Y-111619987D01*
X98958560Y-111331725D01*
X98713414Y-111086579D01*
X98425152Y-110893968D01*
X98104852Y-110761296D01*
X97764824Y-110693660D01*
X97418134Y-110693660D01*
X97078106Y-110761296D01*
X96757806Y-110893968D01*
X96469544Y-111086579D01*
X96224398Y-111331725D01*
X96031787Y-111619987D01*
X95899115Y-111940287D01*
X95831479Y-112280315D01*
X94682936Y-112280315D01*
X92903327Y-110500706D01*
X92933843Y-110427033D01*
X93001479Y-110087005D01*
X93001479Y-109740315D01*
X92933843Y-109400287D01*
X92801171Y-109079987D01*
X92608560Y-108791725D01*
X92363414Y-108546579D01*
X92075152Y-108353968D01*
X91754852Y-108221296D01*
X91414824Y-108153660D01*
X91266361Y-108153660D01*
X91309623Y-108088913D01*
X91423450Y-107814111D01*
X91481479Y-107522382D01*
X91481479Y-107224938D01*
X91459559Y-107114736D01*
X92422579Y-107114736D01*
X92422579Y-107632584D01*
X92523606Y-108140482D01*
X92721778Y-108618911D01*
X93009479Y-109049486D01*
X93375653Y-109415660D01*
X93806228Y-109703361D01*
X94284657Y-109901533D01*
X94792555Y-110002560D01*
X95310403Y-110002560D01*
X95818301Y-109901533D01*
X96296730Y-109703361D01*
X96727305Y-109415660D01*
X97093479Y-109049486D01*
X97381180Y-108618911D01*
X97579352Y-108140482D01*
X97680379Y-107632584D01*
X97680379Y-107224938D01*
X98621479Y-107224938D01*
X98621479Y-107522382D01*
X98679508Y-107814111D01*
X98793335Y-108088913D01*
X98958586Y-108336229D01*
X99168910Y-108546553D01*
X99416226Y-108711804D01*
X99691028Y-108825631D01*
X99982757Y-108883660D01*
X100280201Y-108883660D01*
X100571930Y-108825631D01*
X100846732Y-108711804D01*
X101094048Y-108546553D01*
X101304372Y-108336229D01*
X101469623Y-108088913D01*
X101583450Y-107814111D01*
X101641479Y-107522382D01*
X101641479Y-107224938D01*
X101583450Y-106933209D01*
X101469623Y-106658407D01*
X101304372Y-106411091D01*
X101094048Y-106200767D01*
X100846732Y-106035516D01*
X100571930Y-105921689D01*
X100280201Y-105863660D01*
X99982757Y-105863660D01*
X99691028Y-105921689D01*
X99416226Y-106035516D01*
X99168910Y-106200767D01*
X98958586Y-106411091D01*
X98793335Y-106658407D01*
X98679508Y-106933209D01*
X98621479Y-107224938D01*
X97680379Y-107224938D01*
X97680379Y-107114736D01*
X97579352Y-106606838D01*
X97381180Y-106128409D01*
X97093479Y-105697834D01*
X96727305Y-105331660D01*
X96296730Y-105043959D01*
X95818301Y-104845787D01*
X95310403Y-104744760D01*
X94792555Y-104744760D01*
X94284657Y-104845787D01*
X93806228Y-105043959D01*
X93375653Y-105331660D01*
X93009479Y-105697834D01*
X92721778Y-106128409D01*
X92523606Y-106606838D01*
X92422579Y-107114736D01*
X91459559Y-107114736D01*
X91423450Y-106933209D01*
X91309623Y-106658407D01*
X91144372Y-106411091D01*
X90934048Y-106200767D01*
X90686732Y-106035516D01*
X90411930Y-105921689D01*
X90120201Y-105863660D01*
X89822757Y-105863660D01*
X89531028Y-105921689D01*
X89256226Y-106035516D01*
X89008910Y-106200767D01*
X88985000Y-106224677D01*
X88985000Y-102137305D01*
X92193979Y-102137305D01*
X92193979Y-102450015D01*
X92254986Y-102756717D01*
X92374655Y-103045623D01*
X92548387Y-103305632D01*
X92769507Y-103526752D01*
X93029516Y-103700484D01*
X93318422Y-103820153D01*
X93625124Y-103881160D01*
X93937834Y-103881160D01*
X94244536Y-103820153D01*
X94533442Y-103700484D01*
X94793451Y-103526752D01*
X94797028Y-103523175D01*
X94838442Y-103600654D01*
X94917794Y-103697345D01*
X95014485Y-103776697D01*
X95124799Y-103835662D01*
X95244497Y-103871972D01*
X95368979Y-103884232D01*
X97273979Y-103884232D01*
X97398461Y-103871972D01*
X97518159Y-103835662D01*
X97628473Y-103776697D01*
X97725164Y-103697345D01*
X97804516Y-103600654D01*
X97863481Y-103490340D01*
X97899791Y-103370642D01*
X97912051Y-103246160D01*
X97912051Y-101341160D01*
X97899791Y-101216678D01*
X97863481Y-101096980D01*
X97804516Y-100986666D01*
X97725164Y-100889975D01*
X97628473Y-100810623D01*
X97518159Y-100751658D01*
X97398461Y-100715348D01*
X97273979Y-100703088D01*
X95368979Y-100703088D01*
X95244497Y-100715348D01*
X95124799Y-100751658D01*
X95014485Y-100810623D01*
X94917794Y-100889975D01*
X94838442Y-100986666D01*
X94797028Y-101064145D01*
X94793451Y-101060568D01*
X94533442Y-100886836D01*
X94244536Y-100767167D01*
X93937834Y-100706160D01*
X93625124Y-100706160D01*
X93318422Y-100767167D01*
X93029516Y-100886836D01*
X92769507Y-101060568D01*
X92548387Y-101281688D01*
X92374655Y-101541697D01*
X92254986Y-101830603D01*
X92193979Y-102137305D01*
X88985000Y-102137305D01*
X88985000Y-89472643D01*
X89008910Y-89496553D01*
X89256226Y-89661804D01*
X89531028Y-89775631D01*
X89814117Y-89831941D01*
X89681787Y-90029987D01*
X89549115Y-90350287D01*
X89481479Y-90690315D01*
X89481479Y-91037005D01*
X89549115Y-91377033D01*
X89681787Y-91697333D01*
X89874398Y-91985595D01*
X90119544Y-92230741D01*
X90407806Y-92423352D01*
X90728106Y-92556024D01*
X91068134Y-92623660D01*
X91414824Y-92623660D01*
X91754852Y-92556024D01*
X91931480Y-92482863D01*
X91931480Y-93754158D01*
X91927804Y-93791480D01*
X91931480Y-93828802D01*
X91931480Y-93828812D01*
X91942477Y-93940465D01*
X91953173Y-93975724D01*
X91985934Y-94083726D01*
X92056506Y-94215756D01*
X92074214Y-94237333D01*
X92151479Y-94331481D01*
X92180483Y-94355284D01*
X98336200Y-100511002D01*
X98359999Y-100540001D01*
X98475724Y-100634974D01*
X98607753Y-100705546D01*
X98751014Y-100749003D01*
X98862667Y-100760000D01*
X98862676Y-100760000D01*
X98899999Y-100763676D01*
X98937322Y-100760000D01*
X101785199Y-100760000D01*
X101801312Y-100776113D01*
X101765000Y-100958665D01*
X101765000Y-101241335D01*
X101820147Y-101518574D01*
X101928320Y-101779727D01*
X102085363Y-102014759D01*
X102285241Y-102214637D01*
X102520273Y-102371680D01*
X102781426Y-102479853D01*
X103058665Y-102535000D01*
X103341335Y-102535000D01*
X103618574Y-102479853D01*
X103879727Y-102371680D01*
X104114759Y-102214637D01*
X104314637Y-102014759D01*
X104418043Y-101860000D01*
X104681957Y-101860000D01*
X104785363Y-102014759D01*
X104985241Y-102214637D01*
X105220273Y-102371680D01*
X105481426Y-102479853D01*
X105758665Y-102535000D01*
X106041335Y-102535000D01*
X106318574Y-102479853D01*
X106579727Y-102371680D01*
X106814759Y-102214637D01*
X107014637Y-102014759D01*
X107171680Y-101779727D01*
X107279853Y-101518574D01*
X107335000Y-101241335D01*
X107335000Y-100958665D01*
X107279853Y-100681426D01*
X107171680Y-100420273D01*
X107014637Y-100185241D01*
X106814759Y-99985363D01*
X106579727Y-99828320D01*
X106318574Y-99720147D01*
X106041335Y-99665000D01*
X105758665Y-99665000D01*
X105481426Y-99720147D01*
X105220273Y-99828320D01*
X104985241Y-99985363D01*
X104785363Y-100185241D01*
X104681957Y-100340000D01*
X104418043Y-100340000D01*
X104314637Y-100185241D01*
X104114759Y-99985363D01*
X103879727Y-99828320D01*
X103618574Y-99720147D01*
X103341335Y-99665000D01*
X103058665Y-99665000D01*
X102876113Y-99701312D01*
X102663804Y-99489002D01*
X102640001Y-99459999D01*
X102524276Y-99365026D01*
X102392247Y-99294454D01*
X102248986Y-99250997D01*
X102137333Y-99240000D01*
X102137322Y-99240000D01*
X102100000Y-99236324D01*
X102062678Y-99240000D01*
X99214802Y-99240000D01*
X93451480Y-93476679D01*
X93451480Y-93230315D01*
X95831479Y-93230315D01*
X95831479Y-93577005D01*
X95899115Y-93917033D01*
X96031787Y-94237333D01*
X96224398Y-94525595D01*
X96469544Y-94770741D01*
X96757806Y-94963352D01*
X97078106Y-95096024D01*
X97418134Y-95163660D01*
X97764824Y-95163660D01*
X98104852Y-95096024D01*
X98178525Y-95065508D01*
X100024020Y-96911003D01*
X100047818Y-96940001D01*
X100163543Y-97034974D01*
X100295572Y-97105546D01*
X100438833Y-97149003D01*
X100550486Y-97160000D01*
X100550494Y-97160000D01*
X100587819Y-97163676D01*
X100625144Y-97160000D01*
X101761928Y-97160000D01*
X101761928Y-97200000D01*
X101774188Y-97324482D01*
X101810498Y-97444180D01*
X101869463Y-97554494D01*
X101948815Y-97651185D01*
X102045506Y-97730537D01*
X102155820Y-97789502D01*
X102275518Y-97825812D01*
X102400000Y-97838072D01*
X104000000Y-97838072D01*
X104124482Y-97825812D01*
X104244180Y-97789502D01*
X104354494Y-97730537D01*
X104451185Y-97651185D01*
X104530537Y-97554494D01*
X104550000Y-97518082D01*
X104569463Y-97554494D01*
X104648815Y-97651185D01*
X104745506Y-97730537D01*
X104855820Y-97789502D01*
X104975518Y-97825812D01*
X105100000Y-97838072D01*
X106700000Y-97838072D01*
X106824482Y-97825812D01*
X106944180Y-97789502D01*
X107054494Y-97730537D01*
X107151185Y-97651185D01*
X107230537Y-97554494D01*
X107289502Y-97444180D01*
X107325812Y-97324482D01*
X107338072Y-97200000D01*
X107338072Y-95600000D01*
X107325812Y-95475518D01*
X107289502Y-95355820D01*
X107230537Y-95245506D01*
X107151185Y-95148815D01*
X107054494Y-95069463D01*
X106944180Y-95010498D01*
X106824482Y-94974188D01*
X106700000Y-94961928D01*
X105100000Y-94961928D01*
X104975518Y-94974188D01*
X104855820Y-95010498D01*
X104745506Y-95069463D01*
X104648815Y-95148815D01*
X104569463Y-95245506D01*
X104550000Y-95281918D01*
X104530537Y-95245506D01*
X104451185Y-95148815D01*
X104354494Y-95069463D01*
X104244180Y-95010498D01*
X104124482Y-94974188D01*
X104000000Y-94961928D01*
X102400000Y-94961928D01*
X102275518Y-94974188D01*
X102155820Y-95010498D01*
X102045506Y-95069463D01*
X101948815Y-95148815D01*
X101869463Y-95245506D01*
X101810498Y-95355820D01*
X101774188Y-95475518D01*
X101761928Y-95600000D01*
X101761928Y-95640000D01*
X100902621Y-95640000D01*
X99253327Y-93990706D01*
X99283843Y-93917033D01*
X99351479Y-93577005D01*
X99351479Y-93230315D01*
X99283843Y-92890287D01*
X99151171Y-92569987D01*
X98958560Y-92281725D01*
X98713414Y-92036579D01*
X98425152Y-91843968D01*
X98104852Y-91711296D01*
X97764824Y-91643660D01*
X97418134Y-91643660D01*
X97078106Y-91711296D01*
X96757806Y-91843968D01*
X96469544Y-92036579D01*
X96224398Y-92281725D01*
X96031787Y-92569987D01*
X95899115Y-92890287D01*
X95831479Y-93230315D01*
X93451480Y-93230315D01*
X93451480Y-90416326D01*
X93806228Y-90653361D01*
X94284657Y-90851533D01*
X94792555Y-90952560D01*
X95310403Y-90952560D01*
X95818301Y-90851533D01*
X96296730Y-90653361D01*
X96727305Y-90365660D01*
X97093479Y-89999486D01*
X97381180Y-89568911D01*
X97579352Y-89090482D01*
X97680379Y-88582584D01*
X97680379Y-88064736D01*
X97579352Y-87556838D01*
X97381180Y-87078409D01*
X97093479Y-86647834D01*
X96727305Y-86281660D01*
X96296730Y-85993959D01*
X95818301Y-85795787D01*
X95310403Y-85694760D01*
X94792555Y-85694760D01*
X94284657Y-85795787D01*
X93806228Y-85993959D01*
X93451480Y-86230994D01*
X93451480Y-84796620D01*
X93625124Y-84831160D01*
X93937834Y-84831160D01*
X94244536Y-84770153D01*
X94533442Y-84650484D01*
X94793451Y-84476752D01*
X94797028Y-84473175D01*
X94838442Y-84550654D01*
X94917794Y-84647345D01*
X95014485Y-84726697D01*
X95124799Y-84785662D01*
X95244497Y-84821972D01*
X95368979Y-84834232D01*
X97273979Y-84834232D01*
X97398461Y-84821972D01*
X97518159Y-84785662D01*
X97628473Y-84726697D01*
X97725164Y-84647345D01*
X97804516Y-84550654D01*
X97863481Y-84440340D01*
X97899791Y-84320642D01*
X97912051Y-84196160D01*
X97912051Y-82291160D01*
X97899791Y-82166678D01*
X97863481Y-82046980D01*
X97804516Y-81936666D01*
X97725164Y-81839975D01*
X97628473Y-81760623D01*
X97518159Y-81701658D01*
X97398461Y-81665348D01*
X97273979Y-81653088D01*
X95368979Y-81653088D01*
X95244497Y-81665348D01*
X95124799Y-81701658D01*
X95014485Y-81760623D01*
X94917794Y-81839975D01*
X94838442Y-81936666D01*
X94797028Y-82014145D01*
X94793451Y-82010568D01*
X94533442Y-81836836D01*
X94244536Y-81717167D01*
X93937834Y-81656160D01*
X93625124Y-81656160D01*
X93318422Y-81717167D01*
X93263978Y-81739718D01*
X93263978Y-81699223D01*
X96344093Y-78619110D01*
X96564240Y-78662900D01*
X96856760Y-78662900D01*
X97143658Y-78605832D01*
X97413911Y-78493890D01*
X97657132Y-78331375D01*
X97863975Y-78124532D01*
X97980500Y-77950140D01*
X98097025Y-78124532D01*
X98303868Y-78331375D01*
X98490500Y-78456079D01*
X98490501Y-84613168D01*
X98486824Y-84650500D01*
X98490501Y-84687833D01*
X98501498Y-84799486D01*
X98508319Y-84821972D01*
X98544954Y-84942746D01*
X98615526Y-85074776D01*
X98685468Y-85159999D01*
X98710500Y-85190501D01*
X98739498Y-85214299D01*
X99788997Y-86263799D01*
X99789002Y-86263803D01*
X100353424Y-86828225D01*
X100280201Y-86813660D01*
X99982757Y-86813660D01*
X99691028Y-86871689D01*
X99416226Y-86985516D01*
X99168910Y-87150767D01*
X98958586Y-87361091D01*
X98793335Y-87608407D01*
X98679508Y-87883209D01*
X98621479Y-88174938D01*
X98621479Y-88472382D01*
X98679508Y-88764111D01*
X98793335Y-89038913D01*
X98958586Y-89286229D01*
X99168910Y-89496553D01*
X99416226Y-89661804D01*
X99691028Y-89775631D01*
X99982757Y-89833660D01*
X100280201Y-89833660D01*
X100571930Y-89775631D01*
X100846732Y-89661804D01*
X101094048Y-89496553D01*
X101304372Y-89286229D01*
X101469623Y-89038913D01*
X101583450Y-88764111D01*
X101641479Y-88472382D01*
X101641479Y-88174938D01*
X101626914Y-88101716D01*
X101801312Y-88276114D01*
X101765000Y-88458665D01*
X101765000Y-88741335D01*
X101820147Y-89018574D01*
X101928320Y-89279727D01*
X102085363Y-89514759D01*
X102285241Y-89714637D01*
X102520273Y-89871680D01*
X102781426Y-89979853D01*
X103058665Y-90035000D01*
X103341335Y-90035000D01*
X103618574Y-89979853D01*
X103879727Y-89871680D01*
X104114759Y-89714637D01*
X104314637Y-89514759D01*
X104418043Y-89360000D01*
X104681957Y-89360000D01*
X104785363Y-89514759D01*
X104985241Y-89714637D01*
X105220273Y-89871680D01*
X105481426Y-89979853D01*
X105758665Y-90035000D01*
X106041335Y-90035000D01*
X106318574Y-89979853D01*
X106579727Y-89871680D01*
X106814759Y-89714637D01*
X107014637Y-89514759D01*
X107171680Y-89279727D01*
X107279853Y-89018574D01*
X107335000Y-88741335D01*
X107335000Y-88458665D01*
X107279853Y-88181426D01*
X107171680Y-87920273D01*
X107014637Y-87685241D01*
X106814759Y-87485363D01*
X106579727Y-87328320D01*
X106318574Y-87220147D01*
X106041335Y-87165000D01*
X105758665Y-87165000D01*
X105481426Y-87220147D01*
X105220273Y-87328320D01*
X104985241Y-87485363D01*
X104785363Y-87685241D01*
X104681957Y-87840000D01*
X104418043Y-87840000D01*
X104314637Y-87685241D01*
X104114759Y-87485363D01*
X103879727Y-87328320D01*
X103618574Y-87220147D01*
X103341335Y-87165000D01*
X103058665Y-87165000D01*
X102876114Y-87201312D01*
X100863803Y-85189002D01*
X100863799Y-85188997D01*
X100010500Y-84335699D01*
X100010500Y-78456078D01*
X100197132Y-78331375D01*
X100403975Y-78124532D01*
X100520500Y-77950140D01*
X100637025Y-78124532D01*
X100843868Y-78331375D01*
X101087089Y-78493890D01*
X101357342Y-78605832D01*
X101644240Y-78662900D01*
X101936760Y-78662900D01*
X102223658Y-78605832D01*
X102493911Y-78493890D01*
X102737132Y-78331375D01*
X102943975Y-78124532D01*
X103060500Y-77950140D01*
X103177025Y-78124532D01*
X103383868Y-78331375D01*
X103627089Y-78493890D01*
X103897342Y-78605832D01*
X104184240Y-78662900D01*
X104476760Y-78662900D01*
X104763658Y-78605832D01*
X105033911Y-78493890D01*
X105277132Y-78331375D01*
X105483975Y-78124532D01*
X105600500Y-77950140D01*
X105717025Y-78124532D01*
X105923868Y-78331375D01*
X106167089Y-78493890D01*
X106437342Y-78605832D01*
X106724240Y-78662900D01*
X107016760Y-78662900D01*
X107303658Y-78605832D01*
X107573911Y-78493890D01*
X107817132Y-78331375D01*
X108023975Y-78124532D01*
X108140500Y-77950140D01*
X108257025Y-78124532D01*
G37*
X108257025Y-78124532D02*
X108463868Y-78331375D01*
X108650501Y-78456079D01*
X108650500Y-85573178D01*
X108646824Y-85610500D01*
X108650500Y-85647822D01*
X108650500Y-85647832D01*
X108661497Y-85759485D01*
X108681946Y-85826897D01*
X108704954Y-85902746D01*
X108775526Y-86034776D01*
X108800246Y-86064897D01*
X108870499Y-86150501D01*
X108899503Y-86174304D01*
X109692317Y-86967118D01*
X109461931Y-86871689D01*
X109170202Y-86813660D01*
X108872758Y-86813660D01*
X108581029Y-86871689D01*
X108306227Y-86985516D01*
X108058911Y-87150767D01*
X107848587Y-87361091D01*
X107683336Y-87608407D01*
X107569509Y-87883209D01*
X107511480Y-88174938D01*
X107511480Y-88472382D01*
X107569509Y-88764111D01*
X107683336Y-89038913D01*
X107848587Y-89286229D01*
X108058911Y-89496553D01*
X108306227Y-89661804D01*
X108581029Y-89775631D01*
X108864118Y-89831941D01*
X108731788Y-90029987D01*
X108599116Y-90350287D01*
X108531480Y-90690315D01*
X108531480Y-91037005D01*
X108599116Y-91377033D01*
X108731788Y-91697333D01*
X108924399Y-91985595D01*
X109169545Y-92230741D01*
X109457807Y-92423352D01*
X109531481Y-92453869D01*
X109531480Y-105950496D01*
X109461931Y-105921688D01*
X109170202Y-105863659D01*
X108872758Y-105863659D01*
X108581029Y-105921688D01*
X108306227Y-106035515D01*
X108058911Y-106200766D01*
X107848587Y-106411090D01*
X107683336Y-106658406D01*
X107569509Y-106933208D01*
X107511480Y-107224937D01*
X107511480Y-107522381D01*
X107569509Y-107814110D01*
X107683336Y-108088912D01*
X107848587Y-108336228D01*
X108058911Y-108546552D01*
X108306227Y-108711803D01*
X108581029Y-108825630D01*
X108864118Y-108881940D01*
X108731788Y-109079986D01*
X108599116Y-109400286D01*
X108531480Y-109740314D01*
X108531480Y-110087004D01*
X108599116Y-110427032D01*
X108731788Y-110747332D01*
X108924399Y-111035594D01*
X109169545Y-111280740D01*
X109457807Y-111473351D01*
X109778107Y-111606023D01*
X110118135Y-111673659D01*
X110464825Y-111673659D01*
X110804853Y-111606023D01*
X111125153Y-111473351D01*
X111413415Y-111280740D01*
X111658561Y-111035594D01*
X111851172Y-110747332D01*
X111983844Y-110427032D01*
X112051480Y-110087004D01*
X112051480Y-109740314D01*
X111983844Y-109400286D01*
X111851172Y-109079986D01*
X111658561Y-108791724D01*
X111413415Y-108546578D01*
X111125153Y-108353967D01*
X111051480Y-108323451D01*
X111051480Y-107114735D01*
X111472580Y-107114735D01*
X111472580Y-107632583D01*
X111573607Y-108140481D01*
X111771779Y-108618910D01*
X112059480Y-109049485D01*
X112425654Y-109415659D01*
X112856229Y-109703360D01*
X113334658Y-109901532D01*
X113842556Y-110002559D01*
X114360404Y-110002559D01*
X114868302Y-109901532D01*
X115346731Y-109703360D01*
X115777306Y-109415659D01*
X116143480Y-109049485D01*
X116431181Y-108618910D01*
X116629353Y-108140481D01*
X116730380Y-107632583D01*
X116730380Y-107224937D01*
X117671480Y-107224937D01*
X117671480Y-107522381D01*
X117729509Y-107814110D01*
X117843336Y-108088912D01*
X118008587Y-108336228D01*
X118218911Y-108546552D01*
X118466227Y-108711803D01*
X118741029Y-108825630D01*
X119032758Y-108883659D01*
X119330202Y-108883659D01*
X119621931Y-108825630D01*
X119896733Y-108711803D01*
X120144049Y-108546552D01*
X120354373Y-108336228D01*
X120519624Y-108088912D01*
X120633451Y-107814110D01*
X120691480Y-107522381D01*
X120691480Y-107224937D01*
X120633451Y-106933208D01*
X120519624Y-106658406D01*
X120354373Y-106411090D01*
X120144049Y-106200766D01*
X119896733Y-106035515D01*
X119621931Y-105921688D01*
X119330202Y-105863659D01*
X119032758Y-105863659D01*
X118741029Y-105921688D01*
X118466227Y-106035515D01*
X118218911Y-106200766D01*
X118008587Y-106411090D01*
X117843336Y-106658406D01*
X117729509Y-106933208D01*
X117671480Y-107224937D01*
X116730380Y-107224937D01*
X116730380Y-107114735D01*
X116629353Y-106606837D01*
X116431181Y-106128408D01*
X116143480Y-105697833D01*
X115777306Y-105331659D01*
X115346731Y-105043958D01*
X114868302Y-104845786D01*
X114360404Y-104744759D01*
X113842556Y-104744759D01*
X113334658Y-104845786D01*
X112856229Y-105043958D01*
X112425654Y-105331659D01*
X112059480Y-105697833D01*
X111771779Y-106128408D01*
X111573607Y-106606837D01*
X111472580Y-107114735D01*
X111051480Y-107114735D01*
X111051480Y-102137304D01*
X111243980Y-102137304D01*
X111243980Y-102450014D01*
X111304987Y-102756716D01*
X111424656Y-103045622D01*
X111598388Y-103305631D01*
X111819508Y-103526751D01*
X112079517Y-103700483D01*
X112368423Y-103820152D01*
X112675125Y-103881159D01*
X112987835Y-103881159D01*
X113294537Y-103820152D01*
X113583443Y-103700483D01*
X113843452Y-103526751D01*
X113847029Y-103523174D01*
X113888443Y-103600653D01*
X113967795Y-103697344D01*
X114064486Y-103776696D01*
X114174800Y-103835661D01*
X114294498Y-103871971D01*
X114418980Y-103884231D01*
X116323980Y-103884231D01*
X116448462Y-103871971D01*
X116568160Y-103835661D01*
X116678474Y-103776696D01*
X116775165Y-103697344D01*
X116854517Y-103600653D01*
X116913482Y-103490339D01*
X116949792Y-103370641D01*
X116962052Y-103246159D01*
X116962052Y-101341159D01*
X116949792Y-101216677D01*
X116913482Y-101096979D01*
X116854517Y-100986665D01*
X116775165Y-100889974D01*
X116678474Y-100810622D01*
X116568160Y-100751657D01*
X116448462Y-100715347D01*
X116323980Y-100703087D01*
X114418980Y-100703087D01*
X114294498Y-100715347D01*
X114174800Y-100751657D01*
X114064486Y-100810622D01*
X113967795Y-100889974D01*
X113888443Y-100986665D01*
X113847029Y-101064144D01*
X113843452Y-101060567D01*
X113583443Y-100886835D01*
X113294537Y-100767166D01*
X112987835Y-100706159D01*
X112675125Y-100706159D01*
X112368423Y-100767166D01*
X112079517Y-100886835D01*
X111819508Y-101060567D01*
X111598388Y-101281687D01*
X111424656Y-101541696D01*
X111304987Y-101830602D01*
X111243980Y-102137304D01*
X111051480Y-102137304D01*
X111051480Y-92453868D01*
X111125153Y-92423352D01*
X111413415Y-92230741D01*
X111658561Y-91985595D01*
X111759591Y-91834393D01*
X112336200Y-92411002D01*
X112359999Y-92440001D01*
X112475724Y-92534974D01*
X112607753Y-92605546D01*
X112629012Y-92611995D01*
X128157963Y-108140948D01*
X128181757Y-108169941D01*
X128210750Y-108193735D01*
X128210754Y-108193739D01*
X128244332Y-108221295D01*
X128297482Y-108264914D01*
X128429511Y-108335486D01*
X128572772Y-108378943D01*
X128684425Y-108389940D01*
X128684434Y-108389940D01*
X128721757Y-108393616D01*
X128759080Y-108389940D01*
X143043008Y-108389940D01*
X143043008Y-108479940D01*
X143055268Y-108604422D01*
X143091578Y-108724120D01*
X143150543Y-108834434D01*
X143229895Y-108931125D01*
X143326586Y-109010477D01*
X143436900Y-109069442D01*
X143556598Y-109105752D01*
X143681080Y-109118012D01*
X145381080Y-109118012D01*
X145505562Y-109105752D01*
X145625260Y-109069442D01*
X145735574Y-109010477D01*
X145801080Y-108956718D01*
X145866586Y-109010477D01*
X145976900Y-109069442D01*
X146096598Y-109105752D01*
X146221080Y-109118012D01*
X146785330Y-109114940D01*
X146944080Y-108956190D01*
X146944080Y-107756940D01*
X146924080Y-107756940D01*
X146924080Y-107502940D01*
X146944080Y-107502940D01*
X146944080Y-107482940D01*
X147198080Y-107482940D01*
X147198080Y-107502940D01*
X147218080Y-107502940D01*
X147218080Y-107756940D01*
X147198080Y-107756940D01*
X147198080Y-108956190D01*
X147356830Y-109114940D01*
X147921080Y-109118012D01*
X148045562Y-109105752D01*
X148165260Y-109069442D01*
X148275574Y-109010477D01*
X148341080Y-108956718D01*
X148406586Y-109010477D01*
X148516900Y-109069442D01*
X148636598Y-109105752D01*
X148761080Y-109118012D01*
X150461080Y-109118012D01*
X150585562Y-109105752D01*
X150705260Y-109069442D01*
X150815574Y-109010477D01*
X150912265Y-108931125D01*
X150991617Y-108834434D01*
X151050582Y-108724120D01*
X151086892Y-108604422D01*
X151099152Y-108479940D01*
X151099152Y-107340500D01*
X153699053Y-107340500D01*
X153732700Y-107343814D01*
X153866983Y-107330588D01*
X153996106Y-107291419D01*
X154115107Y-107227812D01*
X154219411Y-107142211D01*
X154305012Y-107037907D01*
X154368619Y-106918906D01*
X154407788Y-106789783D01*
X154417700Y-106689147D01*
X154417700Y-106689146D01*
X154421014Y-106655500D01*
X154417700Y-106621853D01*
X154417700Y-90539147D01*
X154421014Y-90505500D01*
X154407788Y-90371217D01*
X154368619Y-90242094D01*
X154305012Y-90123093D01*
X154219411Y-90018789D01*
X154115107Y-89933188D01*
X153996106Y-89869581D01*
X153866983Y-89830412D01*
X153766347Y-89820500D01*
X153732700Y-89817186D01*
X153699053Y-89820500D01*
X151099152Y-89820500D01*
X151099152Y-88750899D01*
X154590891Y-88750899D01*
X154546400Y-88974565D01*
X154546400Y-89257235D01*
X154601547Y-89534474D01*
X154709720Y-89795627D01*
X154866763Y-90030659D01*
X155066641Y-90230537D01*
X155299159Y-90385900D01*
X155066641Y-90541263D01*
X154866763Y-90741141D01*
X154709720Y-90976173D01*
X154601547Y-91237326D01*
X154546400Y-91514565D01*
X154546400Y-91797235D01*
X154601547Y-92074474D01*
X154709720Y-92335627D01*
X154866763Y-92570659D01*
X155066641Y-92770537D01*
X155299159Y-92925900D01*
X155066641Y-93081263D01*
X154866763Y-93281141D01*
X154709720Y-93516173D01*
X154601547Y-93777326D01*
X154546400Y-94054565D01*
X154546400Y-94337235D01*
X154601547Y-94614474D01*
X154709720Y-94875627D01*
X154866763Y-95110659D01*
X155066641Y-95310537D01*
X155299159Y-95465900D01*
X155066641Y-95621263D01*
X154866763Y-95821141D01*
X154709720Y-96056173D01*
X154601547Y-96317326D01*
X154546400Y-96594565D01*
X154546400Y-96877235D01*
X154601547Y-97154474D01*
X154709720Y-97415627D01*
X154866763Y-97650659D01*
X155066641Y-97850537D01*
X155299159Y-98005900D01*
X155066641Y-98161263D01*
X154866763Y-98361141D01*
X154709720Y-98596173D01*
X154601547Y-98857326D01*
X154546400Y-99134565D01*
X154546400Y-99417235D01*
X154601547Y-99694474D01*
X154709720Y-99955627D01*
X154866763Y-100190659D01*
X155066641Y-100390537D01*
X155299159Y-100545900D01*
X155066641Y-100701263D01*
X154866763Y-100901141D01*
X154709720Y-101136173D01*
X154601547Y-101397326D01*
X154546400Y-101674565D01*
X154546400Y-101957235D01*
X154601547Y-102234474D01*
X154709720Y-102495627D01*
X154866763Y-102730659D01*
X155066641Y-102930537D01*
X155299159Y-103085900D01*
X155066641Y-103241263D01*
X154866763Y-103441141D01*
X154709720Y-103676173D01*
X154601547Y-103937326D01*
X154546400Y-104214565D01*
X154546400Y-104497235D01*
X154601547Y-104774474D01*
X154709720Y-105035627D01*
X154866763Y-105270659D01*
X155066641Y-105470537D01*
X155221401Y-105573944D01*
X155221400Y-110203798D01*
X151185199Y-114240000D01*
X96642621Y-114240000D01*
X94682936Y-112280315D01*
X95831479Y-112280315D01*
X95831479Y-112627005D01*
X95899115Y-112967033D01*
X96031787Y-113287333D01*
X96224398Y-113575595D01*
X96469544Y-113820741D01*
X96757806Y-114013352D01*
X97078106Y-114146024D01*
X97418134Y-114213660D01*
X97764824Y-114213660D01*
X98104852Y-114146024D01*
X98425152Y-114013352D01*
X98713414Y-113820741D01*
X98958560Y-113575595D01*
X99151171Y-113287333D01*
X99181687Y-113213660D01*
X101009018Y-113213660D01*
X101046340Y-113217336D01*
X101083662Y-113213660D01*
X101083673Y-113213660D01*
X101195326Y-113202663D01*
X101338587Y-113159206D01*
X101470616Y-113088634D01*
X101586341Y-112993661D01*
X101610144Y-112964657D01*
X103711003Y-110863799D01*
X103740001Y-110840001D01*
X103834974Y-110724276D01*
X103905546Y-110592247D01*
X103949003Y-110448986D01*
X103959927Y-110338072D01*
X104000000Y-110338072D01*
X104124482Y-110325812D01*
X104244180Y-110289502D01*
X104354494Y-110230537D01*
X104451185Y-110151185D01*
X104530537Y-110054494D01*
X104550000Y-110018082D01*
X104569463Y-110054494D01*
X104648815Y-110151185D01*
X104745506Y-110230537D01*
X104855820Y-110289502D01*
X104975518Y-110325812D01*
X105100000Y-110338072D01*
X105140001Y-110338072D01*
X105140001Y-111462668D01*
X105136324Y-111500000D01*
X105140001Y-111537333D01*
X105146767Y-111606023D01*
X105150998Y-111648985D01*
X105194454Y-111792246D01*
X105265026Y-111924276D01*
X105336201Y-112011002D01*
X105360000Y-112040001D01*
X105388998Y-112063799D01*
X106289864Y-112964667D01*
X106313658Y-112993660D01*
X106342651Y-113017454D01*
X106342655Y-113017458D01*
X106413344Y-113075470D01*
X106429383Y-113088633D01*
X106561412Y-113159205D01*
X106704673Y-113202662D01*
X106816326Y-113213659D01*
X106816335Y-113213659D01*
X106853658Y-113217335D01*
X106890981Y-113213659D01*
X115051272Y-113213659D01*
X115081788Y-113287332D01*
X115274399Y-113575594D01*
X115519545Y-113820740D01*
X115807807Y-114013351D01*
X116128107Y-114146023D01*
X116468135Y-114213659D01*
X116814825Y-114213659D01*
X117154853Y-114146023D01*
X117475153Y-114013351D01*
X117763415Y-113820740D01*
X118008561Y-113575594D01*
X118201172Y-113287332D01*
X118333844Y-112967032D01*
X118401480Y-112627004D01*
X118401480Y-112280314D01*
X118333844Y-111940286D01*
X118201172Y-111619986D01*
X118008561Y-111331724D01*
X117763415Y-111086578D01*
X117475153Y-110893967D01*
X117154853Y-110761295D01*
X116814825Y-110693659D01*
X116468135Y-110693659D01*
X116128107Y-110761295D01*
X115807807Y-110893967D01*
X115519545Y-111086578D01*
X115274399Y-111331724D01*
X115081788Y-111619986D01*
X115051272Y-111693659D01*
X107168462Y-111693659D01*
X106660000Y-111185199D01*
X106660000Y-110338072D01*
X106700000Y-110338072D01*
X106824482Y-110325812D01*
X106944180Y-110289502D01*
X107054494Y-110230537D01*
X107151185Y-110151185D01*
X107230537Y-110054494D01*
X107289502Y-109944180D01*
X107325812Y-109824482D01*
X107338072Y-109700000D01*
X107338072Y-108100000D01*
X107325812Y-107975518D01*
X107289502Y-107855820D01*
X107230537Y-107745506D01*
X107151185Y-107648815D01*
X107054494Y-107569463D01*
X106944180Y-107510498D01*
X106824482Y-107474188D01*
X106700000Y-107461928D01*
X105100000Y-107461928D01*
X104975518Y-107474188D01*
X104855820Y-107510498D01*
X104745506Y-107569463D01*
X104648815Y-107648815D01*
X104569463Y-107745506D01*
X104550000Y-107781918D01*
X104530537Y-107745506D01*
X104451185Y-107648815D01*
X104354494Y-107569463D01*
X104244180Y-107510498D01*
X104124482Y-107474188D01*
X104000000Y-107461928D01*
X102400000Y-107461928D01*
X102275518Y-107474188D01*
X102155820Y-107510498D01*
X102045506Y-107569463D01*
X101948815Y-107648815D01*
X101869463Y-107745506D01*
X101810498Y-107855820D01*
X101774188Y-107975518D01*
X101761928Y-108100000D01*
X101761928Y-109700000D01*
X101774188Y-109824482D01*
X101810498Y-109944180D01*
X101869463Y-110054494D01*
X101948815Y-110151185D01*
X102045506Y-110230537D01*
X102142706Y-110282492D01*
X100731539Y-111693660D01*
X99181687Y-111693660D01*
X99151171Y-111619987D01*
X98958560Y-111331725D01*
X98713414Y-111086579D01*
X98425152Y-110893968D01*
X98104852Y-110761296D01*
X97764824Y-110693660D01*
X97418134Y-110693660D01*
X97078106Y-110761296D01*
X96757806Y-110893968D01*
X96469544Y-111086579D01*
X96224398Y-111331725D01*
X96031787Y-111619987D01*
X95899115Y-111940287D01*
X95831479Y-112280315D01*
X94682936Y-112280315D01*
X92903327Y-110500706D01*
X92933843Y-110427033D01*
X93001479Y-110087005D01*
X93001479Y-109740315D01*
X92933843Y-109400287D01*
X92801171Y-109079987D01*
X92608560Y-108791725D01*
X92363414Y-108546579D01*
X92075152Y-108353968D01*
X91754852Y-108221296D01*
X91414824Y-108153660D01*
X91266361Y-108153660D01*
X91309623Y-108088913D01*
X91423450Y-107814111D01*
X91481479Y-107522382D01*
X91481479Y-107224938D01*
X91459559Y-107114736D01*
X92422579Y-107114736D01*
X92422579Y-107632584D01*
X92523606Y-108140482D01*
X92721778Y-108618911D01*
X93009479Y-109049486D01*
X93375653Y-109415660D01*
X93806228Y-109703361D01*
X94284657Y-109901533D01*
X94792555Y-110002560D01*
X95310403Y-110002560D01*
X95818301Y-109901533D01*
X96296730Y-109703361D01*
X96727305Y-109415660D01*
X97093479Y-109049486D01*
X97381180Y-108618911D01*
X97579352Y-108140482D01*
X97680379Y-107632584D01*
X97680379Y-107224938D01*
X98621479Y-107224938D01*
X98621479Y-107522382D01*
X98679508Y-107814111D01*
X98793335Y-108088913D01*
X98958586Y-108336229D01*
X99168910Y-108546553D01*
X99416226Y-108711804D01*
X99691028Y-108825631D01*
X99982757Y-108883660D01*
X100280201Y-108883660D01*
X100571930Y-108825631D01*
X100846732Y-108711804D01*
X101094048Y-108546553D01*
X101304372Y-108336229D01*
X101469623Y-108088913D01*
X101583450Y-107814111D01*
X101641479Y-107522382D01*
X101641479Y-107224938D01*
X101583450Y-106933209D01*
X101469623Y-106658407D01*
X101304372Y-106411091D01*
X101094048Y-106200767D01*
X100846732Y-106035516D01*
X100571930Y-105921689D01*
X100280201Y-105863660D01*
X99982757Y-105863660D01*
X99691028Y-105921689D01*
X99416226Y-106035516D01*
X99168910Y-106200767D01*
X98958586Y-106411091D01*
X98793335Y-106658407D01*
X98679508Y-106933209D01*
X98621479Y-107224938D01*
X97680379Y-107224938D01*
X97680379Y-107114736D01*
X97579352Y-106606838D01*
X97381180Y-106128409D01*
X97093479Y-105697834D01*
X96727305Y-105331660D01*
X96296730Y-105043959D01*
X95818301Y-104845787D01*
X95310403Y-104744760D01*
X94792555Y-104744760D01*
X94284657Y-104845787D01*
X93806228Y-105043959D01*
X93375653Y-105331660D01*
X93009479Y-105697834D01*
X92721778Y-106128409D01*
X92523606Y-106606838D01*
X92422579Y-107114736D01*
X91459559Y-107114736D01*
X91423450Y-106933209D01*
X91309623Y-106658407D01*
X91144372Y-106411091D01*
X90934048Y-106200767D01*
X90686732Y-106035516D01*
X90411930Y-105921689D01*
X90120201Y-105863660D01*
X89822757Y-105863660D01*
X89531028Y-105921689D01*
X89256226Y-106035516D01*
X89008910Y-106200767D01*
X88985000Y-106224677D01*
X88985000Y-102137305D01*
X92193979Y-102137305D01*
X92193979Y-102450015D01*
X92254986Y-102756717D01*
X92374655Y-103045623D01*
X92548387Y-103305632D01*
X92769507Y-103526752D01*
X93029516Y-103700484D01*
X93318422Y-103820153D01*
X93625124Y-103881160D01*
X93937834Y-103881160D01*
X94244536Y-103820153D01*
X94533442Y-103700484D01*
X94793451Y-103526752D01*
X94797028Y-103523175D01*
X94838442Y-103600654D01*
X94917794Y-103697345D01*
X95014485Y-103776697D01*
X95124799Y-103835662D01*
X95244497Y-103871972D01*
X95368979Y-103884232D01*
X97273979Y-103884232D01*
X97398461Y-103871972D01*
X97518159Y-103835662D01*
X97628473Y-103776697D01*
X97725164Y-103697345D01*
X97804516Y-103600654D01*
X97863481Y-103490340D01*
X97899791Y-103370642D01*
X97912051Y-103246160D01*
X97912051Y-101341160D01*
X97899791Y-101216678D01*
X97863481Y-101096980D01*
X97804516Y-100986666D01*
X97725164Y-100889975D01*
X97628473Y-100810623D01*
X97518159Y-100751658D01*
X97398461Y-100715348D01*
X97273979Y-100703088D01*
X95368979Y-100703088D01*
X95244497Y-100715348D01*
X95124799Y-100751658D01*
X95014485Y-100810623D01*
X94917794Y-100889975D01*
X94838442Y-100986666D01*
X94797028Y-101064145D01*
X94793451Y-101060568D01*
X94533442Y-100886836D01*
X94244536Y-100767167D01*
X93937834Y-100706160D01*
X93625124Y-100706160D01*
X93318422Y-100767167D01*
X93029516Y-100886836D01*
X92769507Y-101060568D01*
X92548387Y-101281688D01*
X92374655Y-101541697D01*
X92254986Y-101830603D01*
X92193979Y-102137305D01*
X88985000Y-102137305D01*
X88985000Y-89472643D01*
X89008910Y-89496553D01*
X89256226Y-89661804D01*
X89531028Y-89775631D01*
X89814117Y-89831941D01*
X89681787Y-90029987D01*
X89549115Y-90350287D01*
X89481479Y-90690315D01*
X89481479Y-91037005D01*
X89549115Y-91377033D01*
X89681787Y-91697333D01*
X89874398Y-91985595D01*
X90119544Y-92230741D01*
X90407806Y-92423352D01*
X90728106Y-92556024D01*
X91068134Y-92623660D01*
X91414824Y-92623660D01*
X91754852Y-92556024D01*
X91931480Y-92482863D01*
X91931480Y-93754158D01*
X91927804Y-93791480D01*
X91931480Y-93828802D01*
X91931480Y-93828812D01*
X91942477Y-93940465D01*
X91953173Y-93975724D01*
X91985934Y-94083726D01*
X92056506Y-94215756D01*
X92074214Y-94237333D01*
X92151479Y-94331481D01*
X92180483Y-94355284D01*
X98336200Y-100511002D01*
X98359999Y-100540001D01*
X98475724Y-100634974D01*
X98607753Y-100705546D01*
X98751014Y-100749003D01*
X98862667Y-100760000D01*
X98862676Y-100760000D01*
X98899999Y-100763676D01*
X98937322Y-100760000D01*
X101785199Y-100760000D01*
X101801312Y-100776113D01*
X101765000Y-100958665D01*
X101765000Y-101241335D01*
X101820147Y-101518574D01*
X101928320Y-101779727D01*
X102085363Y-102014759D01*
X102285241Y-102214637D01*
X102520273Y-102371680D01*
X102781426Y-102479853D01*
X103058665Y-102535000D01*
X103341335Y-102535000D01*
X103618574Y-102479853D01*
X103879727Y-102371680D01*
X104114759Y-102214637D01*
X104314637Y-102014759D01*
X104418043Y-101860000D01*
X104681957Y-101860000D01*
X104785363Y-102014759D01*
X104985241Y-102214637D01*
X105220273Y-102371680D01*
X105481426Y-102479853D01*
X105758665Y-102535000D01*
X106041335Y-102535000D01*
X106318574Y-102479853D01*
X106579727Y-102371680D01*
X106814759Y-102214637D01*
X107014637Y-102014759D01*
X107171680Y-101779727D01*
X107279853Y-101518574D01*
X107335000Y-101241335D01*
X107335000Y-100958665D01*
X107279853Y-100681426D01*
X107171680Y-100420273D01*
X107014637Y-100185241D01*
X106814759Y-99985363D01*
X106579727Y-99828320D01*
X106318574Y-99720147D01*
X106041335Y-99665000D01*
X105758665Y-99665000D01*
X105481426Y-99720147D01*
X105220273Y-99828320D01*
X104985241Y-99985363D01*
X104785363Y-100185241D01*
X104681957Y-100340000D01*
X104418043Y-100340000D01*
X104314637Y-100185241D01*
X104114759Y-99985363D01*
X103879727Y-99828320D01*
X103618574Y-99720147D01*
X103341335Y-99665000D01*
X103058665Y-99665000D01*
X102876113Y-99701312D01*
X102663804Y-99489002D01*
X102640001Y-99459999D01*
X102524276Y-99365026D01*
X102392247Y-99294454D01*
X102248986Y-99250997D01*
X102137333Y-99240000D01*
X102137322Y-99240000D01*
X102100000Y-99236324D01*
X102062678Y-99240000D01*
X99214802Y-99240000D01*
X93451480Y-93476679D01*
X93451480Y-93230315D01*
X95831479Y-93230315D01*
X95831479Y-93577005D01*
X95899115Y-93917033D01*
X96031787Y-94237333D01*
X96224398Y-94525595D01*
X96469544Y-94770741D01*
X96757806Y-94963352D01*
X97078106Y-95096024D01*
X97418134Y-95163660D01*
X97764824Y-95163660D01*
X98104852Y-95096024D01*
X98178525Y-95065508D01*
X100024020Y-96911003D01*
X100047818Y-96940001D01*
X100163543Y-97034974D01*
X100295572Y-97105546D01*
X100438833Y-97149003D01*
X100550486Y-97160000D01*
X100550494Y-97160000D01*
X100587819Y-97163676D01*
X100625144Y-97160000D01*
X101761928Y-97160000D01*
X101761928Y-97200000D01*
X101774188Y-97324482D01*
X101810498Y-97444180D01*
X101869463Y-97554494D01*
X101948815Y-97651185D01*
X102045506Y-97730537D01*
X102155820Y-97789502D01*
X102275518Y-97825812D01*
X102400000Y-97838072D01*
X104000000Y-97838072D01*
X104124482Y-97825812D01*
X104244180Y-97789502D01*
X104354494Y-97730537D01*
X104451185Y-97651185D01*
X104530537Y-97554494D01*
X104550000Y-97518082D01*
X104569463Y-97554494D01*
X104648815Y-97651185D01*
X104745506Y-97730537D01*
X104855820Y-97789502D01*
X104975518Y-97825812D01*
X105100000Y-97838072D01*
X106700000Y-97838072D01*
X106824482Y-97825812D01*
X106944180Y-97789502D01*
X107054494Y-97730537D01*
X107151185Y-97651185D01*
X107230537Y-97554494D01*
X107289502Y-97444180D01*
X107325812Y-97324482D01*
X107338072Y-97200000D01*
X107338072Y-95600000D01*
X107325812Y-95475518D01*
X107289502Y-95355820D01*
X107230537Y-95245506D01*
X107151185Y-95148815D01*
X107054494Y-95069463D01*
X106944180Y-95010498D01*
X106824482Y-94974188D01*
X106700000Y-94961928D01*
X105100000Y-94961928D01*
X104975518Y-94974188D01*
X104855820Y-95010498D01*
X104745506Y-95069463D01*
X104648815Y-95148815D01*
X104569463Y-95245506D01*
X104550000Y-95281918D01*
X104530537Y-95245506D01*
X104451185Y-95148815D01*
X104354494Y-95069463D01*
X104244180Y-95010498D01*
X104124482Y-94974188D01*
X104000000Y-94961928D01*
X102400000Y-94961928D01*
X102275518Y-94974188D01*
X102155820Y-95010498D01*
X102045506Y-95069463D01*
X101948815Y-95148815D01*
X101869463Y-95245506D01*
X101810498Y-95355820D01*
X101774188Y-95475518D01*
X101761928Y-95600000D01*
X101761928Y-95640000D01*
X100902621Y-95640000D01*
X99253327Y-93990706D01*
X99283843Y-93917033D01*
X99351479Y-93577005D01*
X99351479Y-93230315D01*
X99283843Y-92890287D01*
X99151171Y-92569987D01*
X98958560Y-92281725D01*
X98713414Y-92036579D01*
X98425152Y-91843968D01*
X98104852Y-91711296D01*
X97764824Y-91643660D01*
X97418134Y-91643660D01*
X97078106Y-91711296D01*
X96757806Y-91843968D01*
X96469544Y-92036579D01*
X96224398Y-92281725D01*
X96031787Y-92569987D01*
X95899115Y-92890287D01*
X95831479Y-93230315D01*
X93451480Y-93230315D01*
X93451480Y-90416326D01*
X93806228Y-90653361D01*
X94284657Y-90851533D01*
X94792555Y-90952560D01*
X95310403Y-90952560D01*
X95818301Y-90851533D01*
X96296730Y-90653361D01*
X96727305Y-90365660D01*
X97093479Y-89999486D01*
X97381180Y-89568911D01*
X97579352Y-89090482D01*
X97680379Y-88582584D01*
X97680379Y-88064736D01*
X97579352Y-87556838D01*
X97381180Y-87078409D01*
X97093479Y-86647834D01*
X96727305Y-86281660D01*
X96296730Y-85993959D01*
X95818301Y-85795787D01*
X95310403Y-85694760D01*
X94792555Y-85694760D01*
X94284657Y-85795787D01*
X93806228Y-85993959D01*
X93451480Y-86230994D01*
X93451480Y-84796620D01*
X93625124Y-84831160D01*
X93937834Y-84831160D01*
X94244536Y-84770153D01*
X94533442Y-84650484D01*
X94793451Y-84476752D01*
X94797028Y-84473175D01*
X94838442Y-84550654D01*
X94917794Y-84647345D01*
X95014485Y-84726697D01*
X95124799Y-84785662D01*
X95244497Y-84821972D01*
X95368979Y-84834232D01*
X97273979Y-84834232D01*
X97398461Y-84821972D01*
X97518159Y-84785662D01*
X97628473Y-84726697D01*
X97725164Y-84647345D01*
X97804516Y-84550654D01*
X97863481Y-84440340D01*
X97899791Y-84320642D01*
X97912051Y-84196160D01*
X97912051Y-82291160D01*
X97899791Y-82166678D01*
X97863481Y-82046980D01*
X97804516Y-81936666D01*
X97725164Y-81839975D01*
X97628473Y-81760623D01*
X97518159Y-81701658D01*
X97398461Y-81665348D01*
X97273979Y-81653088D01*
X95368979Y-81653088D01*
X95244497Y-81665348D01*
X95124799Y-81701658D01*
X95014485Y-81760623D01*
X94917794Y-81839975D01*
X94838442Y-81936666D01*
X94797028Y-82014145D01*
X94793451Y-82010568D01*
X94533442Y-81836836D01*
X94244536Y-81717167D01*
X93937834Y-81656160D01*
X93625124Y-81656160D01*
X93318422Y-81717167D01*
X93263978Y-81739718D01*
X93263978Y-81699223D01*
X96344093Y-78619110D01*
X96564240Y-78662900D01*
X96856760Y-78662900D01*
X97143658Y-78605832D01*
X97413911Y-78493890D01*
X97657132Y-78331375D01*
X97863975Y-78124532D01*
X97980500Y-77950140D01*
X98097025Y-78124532D01*
X98303868Y-78331375D01*
X98490500Y-78456079D01*
X98490501Y-84613168D01*
X98486824Y-84650500D01*
X98490501Y-84687833D01*
X98501498Y-84799486D01*
X98508319Y-84821972D01*
X98544954Y-84942746D01*
X98615526Y-85074776D01*
X98685468Y-85159999D01*
X98710500Y-85190501D01*
X98739498Y-85214299D01*
X99788997Y-86263799D01*
X99789002Y-86263803D01*
X100353424Y-86828225D01*
X100280201Y-86813660D01*
X99982757Y-86813660D01*
X99691028Y-86871689D01*
X99416226Y-86985516D01*
X99168910Y-87150767D01*
X98958586Y-87361091D01*
X98793335Y-87608407D01*
X98679508Y-87883209D01*
X98621479Y-88174938D01*
X98621479Y-88472382D01*
X98679508Y-88764111D01*
X98793335Y-89038913D01*
X98958586Y-89286229D01*
X99168910Y-89496553D01*
X99416226Y-89661804D01*
X99691028Y-89775631D01*
X99982757Y-89833660D01*
X100280201Y-89833660D01*
X100571930Y-89775631D01*
X100846732Y-89661804D01*
X101094048Y-89496553D01*
X101304372Y-89286229D01*
X101469623Y-89038913D01*
X101583450Y-88764111D01*
X101641479Y-88472382D01*
X101641479Y-88174938D01*
X101626914Y-88101716D01*
X101801312Y-88276114D01*
X101765000Y-88458665D01*
X101765000Y-88741335D01*
X101820147Y-89018574D01*
X101928320Y-89279727D01*
X102085363Y-89514759D01*
X102285241Y-89714637D01*
X102520273Y-89871680D01*
X102781426Y-89979853D01*
X103058665Y-90035000D01*
X103341335Y-90035000D01*
X103618574Y-89979853D01*
X103879727Y-89871680D01*
X104114759Y-89714637D01*
X104314637Y-89514759D01*
X104418043Y-89360000D01*
X104681957Y-89360000D01*
X104785363Y-89514759D01*
X104985241Y-89714637D01*
X105220273Y-89871680D01*
X105481426Y-89979853D01*
X105758665Y-90035000D01*
X106041335Y-90035000D01*
X106318574Y-89979853D01*
X106579727Y-89871680D01*
X106814759Y-89714637D01*
X107014637Y-89514759D01*
X107171680Y-89279727D01*
X107279853Y-89018574D01*
X107335000Y-88741335D01*
X107335000Y-88458665D01*
X107279853Y-88181426D01*
X107171680Y-87920273D01*
X107014637Y-87685241D01*
X106814759Y-87485363D01*
X106579727Y-87328320D01*
X106318574Y-87220147D01*
X106041335Y-87165000D01*
X105758665Y-87165000D01*
X105481426Y-87220147D01*
X105220273Y-87328320D01*
X104985241Y-87485363D01*
X104785363Y-87685241D01*
X104681957Y-87840000D01*
X104418043Y-87840000D01*
X104314637Y-87685241D01*
X104114759Y-87485363D01*
X103879727Y-87328320D01*
X103618574Y-87220147D01*
X103341335Y-87165000D01*
X103058665Y-87165000D01*
X102876114Y-87201312D01*
X100863803Y-85189002D01*
X100863799Y-85188997D01*
X100010500Y-84335699D01*
X100010500Y-78456078D01*
X100197132Y-78331375D01*
X100403975Y-78124532D01*
X100520500Y-77950140D01*
X100637025Y-78124532D01*
X100843868Y-78331375D01*
X101087089Y-78493890D01*
X101357342Y-78605832D01*
X101644240Y-78662900D01*
X101936760Y-78662900D01*
X102223658Y-78605832D01*
X102493911Y-78493890D01*
X102737132Y-78331375D01*
X102943975Y-78124532D01*
X103060500Y-77950140D01*
X103177025Y-78124532D01*
X103383868Y-78331375D01*
X103627089Y-78493890D01*
X103897342Y-78605832D01*
X104184240Y-78662900D01*
X104476760Y-78662900D01*
X104763658Y-78605832D01*
X105033911Y-78493890D01*
X105277132Y-78331375D01*
X105483975Y-78124532D01*
X105600500Y-77950140D01*
X105717025Y-78124532D01*
X105923868Y-78331375D01*
X106167089Y-78493890D01*
X106437342Y-78605832D01*
X106724240Y-78662900D01*
X107016760Y-78662900D01*
X107303658Y-78605832D01*
X107573911Y-78493890D01*
X107817132Y-78331375D01*
X108023975Y-78124532D01*
X108140500Y-77950140D01*
X108257025Y-78124532D01*
G36*
X110797025Y-78124532D02*
G01*
X111003868Y-78331375D01*
X111247089Y-78493890D01*
X111517342Y-78605832D01*
X111804240Y-78662900D01*
X112096760Y-78662900D01*
X112316908Y-78619109D01*
X114671162Y-80973364D01*
X114694956Y-81002357D01*
X114723949Y-81026151D01*
X114723954Y-81026156D01*
X114810681Y-81097331D01*
X114942710Y-81167903D01*
X115085971Y-81211360D01*
X115234957Y-81226033D01*
X115272292Y-81222356D01*
X152747557Y-81222358D01*
X152940001Y-81414803D01*
X152940000Y-85862677D01*
X152936324Y-85900000D01*
X152940000Y-85937322D01*
X152940000Y-85937332D01*
X152950997Y-86048985D01*
X152994454Y-86192246D01*
X153065026Y-86324276D01*
X153104871Y-86372826D01*
X153159999Y-86440001D01*
X153189002Y-86463803D01*
X153812100Y-87086902D01*
X153835899Y-87115901D01*
X153864897Y-87139699D01*
X153951623Y-87210874D01*
X153989087Y-87230899D01*
X137746424Y-87230899D01*
X137709101Y-87227223D01*
X137671778Y-87230899D01*
X137671768Y-87230899D01*
X137568974Y-87241023D01*
X137518574Y-87220147D01*
X137241335Y-87165000D01*
X136958665Y-87165000D01*
X136681426Y-87220147D01*
X136420273Y-87328320D01*
X136185241Y-87485363D01*
X135985363Y-87685241D01*
X135828320Y-87920273D01*
X135720147Y-88181426D01*
X135665000Y-88458665D01*
X135665000Y-88741335D01*
X135720147Y-89018574D01*
X135828320Y-89279727D01*
X135985363Y-89514759D01*
X136185241Y-89714637D01*
X136420273Y-89871680D01*
X136681426Y-89979853D01*
X136958665Y-90035000D01*
X137241335Y-90035000D01*
X137518574Y-89979853D01*
X137779727Y-89871680D01*
X138002109Y-89723090D01*
X136588998Y-91136201D01*
X136560000Y-91159999D01*
X136536202Y-91188997D01*
X136536201Y-91188998D01*
X136465026Y-91275724D01*
X136394454Y-91407754D01*
X136369359Y-91490484D01*
X136362055Y-91514565D01*
X136350998Y-91551015D01*
X136336324Y-91700000D01*
X136340001Y-91737332D01*
X136340000Y-94961928D01*
X136300000Y-94961928D01*
X136175518Y-94974188D01*
X136055820Y-95010498D01*
X135945506Y-95069463D01*
X135848815Y-95148815D01*
X135769463Y-95245506D01*
X135710498Y-95355820D01*
X135674188Y-95475518D01*
X135661928Y-95600000D01*
X135661928Y-97200000D01*
X135674188Y-97324482D01*
X135710498Y-97444180D01*
X135769463Y-97554494D01*
X135848815Y-97651185D01*
X135945506Y-97730537D01*
X136055820Y-97789502D01*
X136175518Y-97825812D01*
X136300000Y-97838072D01*
X137900000Y-97838072D01*
X138024482Y-97825812D01*
X138144180Y-97789502D01*
X138254494Y-97730537D01*
X138351185Y-97651185D01*
X138430537Y-97554494D01*
X138489502Y-97444180D01*
X138525812Y-97324482D01*
X138538072Y-97200000D01*
X138538072Y-95600000D01*
X138525812Y-95475518D01*
X138489502Y-95355820D01*
X138430537Y-95245506D01*
X138351185Y-95148815D01*
X138254494Y-95069463D01*
X138144180Y-95010498D01*
X138024482Y-94974188D01*
X137900000Y-94961928D01*
X137860000Y-94961928D01*
X137860000Y-92014801D01*
X139584862Y-90289940D01*
X139732267Y-90289940D01*
X139707612Y-90371217D01*
X139694386Y-90505500D01*
X139697701Y-90539157D01*
X139697700Y-106621853D01*
X139694386Y-106655500D01*
X139707612Y-106789783D01*
X139731927Y-106869940D01*
X129036561Y-106869940D01*
X117231072Y-95064453D01*
X117475153Y-94963352D01*
X117763415Y-94770741D01*
X118008561Y-94525595D01*
X118201172Y-94237333D01*
X118333844Y-93917033D01*
X118401480Y-93577005D01*
X118401480Y-93230315D01*
X118333844Y-92890287D01*
X118201172Y-92569987D01*
X118008561Y-92281725D01*
X117763415Y-92036579D01*
X117475153Y-91843968D01*
X117154853Y-91711296D01*
X116814825Y-91643660D01*
X116468135Y-91643660D01*
X116128107Y-91711296D01*
X115807807Y-91843968D01*
X115519545Y-92036579D01*
X115274399Y-92281725D01*
X115081788Y-92569987D01*
X114980687Y-92814068D01*
X113555622Y-91389003D01*
X113531819Y-91359999D01*
X113416094Y-91265026D01*
X113284065Y-91194454D01*
X113262808Y-91188006D01*
X112501481Y-90426680D01*
X112501481Y-90416326D01*
X112856229Y-90653361D01*
X113334658Y-90851533D01*
X113842556Y-90952560D01*
X114360404Y-90952560D01*
X114868302Y-90851533D01*
X115346731Y-90653361D01*
X115777306Y-90365660D01*
X116143480Y-89999486D01*
X116431181Y-89568911D01*
X116629353Y-89090482D01*
X116730380Y-88582584D01*
X116730380Y-88174938D01*
X117671480Y-88174938D01*
X117671480Y-88472382D01*
X117729509Y-88764111D01*
X117843336Y-89038913D01*
X118008587Y-89286229D01*
X118218911Y-89496553D01*
X118466227Y-89661804D01*
X118741029Y-89775631D01*
X119032758Y-89833660D01*
X119330202Y-89833660D01*
X119621931Y-89775631D01*
X119896733Y-89661804D01*
X120144049Y-89496553D01*
X120354373Y-89286229D01*
X120519624Y-89038913D01*
X120633451Y-88764111D01*
X120691480Y-88472382D01*
X120691480Y-88174938D01*
X120633451Y-87883209D01*
X120519624Y-87608407D01*
X120354373Y-87361091D01*
X120144049Y-87150767D01*
X119896733Y-86985516D01*
X119621931Y-86871689D01*
X119330202Y-86813660D01*
X119032758Y-86813660D01*
X118741029Y-86871689D01*
X118466227Y-86985516D01*
X118218911Y-87150767D01*
X118008587Y-87361091D01*
X117843336Y-87608407D01*
X117729509Y-87883209D01*
X117671480Y-88174938D01*
X116730380Y-88174938D01*
X116730380Y-88064736D01*
X116629353Y-87556838D01*
X116431181Y-87078409D01*
X116143480Y-86647834D01*
X115777306Y-86281660D01*
X115346731Y-85993959D01*
X114868302Y-85795787D01*
X114360404Y-85694760D01*
X113842556Y-85694760D01*
X113334658Y-85795787D01*
X112856229Y-85993959D01*
X112425654Y-86281660D01*
X112059480Y-86647834D01*
X111844450Y-86969649D01*
X110170500Y-85295699D01*
X110170500Y-83087305D01*
X111243980Y-83087305D01*
X111243980Y-83400015D01*
X111304987Y-83706717D01*
X111424656Y-83995623D01*
X111598388Y-84255632D01*
X111819508Y-84476752D01*
X112079517Y-84650484D01*
X112368423Y-84770153D01*
X112675125Y-84831160D01*
X112987835Y-84831160D01*
X113294537Y-84770153D01*
X113583443Y-84650484D01*
X113843452Y-84476752D01*
X113847029Y-84473175D01*
X113888443Y-84550654D01*
X113967795Y-84647345D01*
X114064486Y-84726697D01*
X114174800Y-84785662D01*
X114294498Y-84821972D01*
X114418980Y-84834232D01*
X116323980Y-84834232D01*
X116448462Y-84821972D01*
X116568160Y-84785662D01*
X116678474Y-84726697D01*
X116775165Y-84647345D01*
X116854517Y-84550654D01*
X116913482Y-84440340D01*
X116949792Y-84320642D01*
X116962052Y-84196160D01*
X116962052Y-82291160D01*
X116949792Y-82166678D01*
X116913482Y-82046980D01*
X116854517Y-81936666D01*
X116775165Y-81839975D01*
X116678474Y-81760623D01*
X116568160Y-81701658D01*
X116448462Y-81665348D01*
X116323980Y-81653088D01*
X114418980Y-81653088D01*
X114294498Y-81665348D01*
X114174800Y-81701658D01*
X114064486Y-81760623D01*
X113967795Y-81839975D01*
X113888443Y-81936666D01*
X113847029Y-82014145D01*
X113843452Y-82010568D01*
X113583443Y-81836836D01*
X113294537Y-81717167D01*
X112987835Y-81656160D01*
X112675125Y-81656160D01*
X112368423Y-81717167D01*
X112079517Y-81836836D01*
X111819508Y-82010568D01*
X111598388Y-82231688D01*
X111424656Y-82491697D01*
X111304987Y-82780603D01*
X111243980Y-83087305D01*
X110170500Y-83087305D01*
X110170500Y-78456078D01*
X110357132Y-78331375D01*
X110563975Y-78124532D01*
X110680500Y-77950140D01*
X110797025Y-78124532D01*
G37*
X110797025Y-78124532D02*
X111003868Y-78331375D01*
X111247089Y-78493890D01*
X111517342Y-78605832D01*
X111804240Y-78662900D01*
X112096760Y-78662900D01*
X112316908Y-78619109D01*
X114671162Y-80973364D01*
X114694956Y-81002357D01*
X114723949Y-81026151D01*
X114723954Y-81026156D01*
X114810681Y-81097331D01*
X114942710Y-81167903D01*
X115085971Y-81211360D01*
X115234957Y-81226033D01*
X115272292Y-81222356D01*
X152747557Y-81222358D01*
X152940001Y-81414803D01*
X152940000Y-85862677D01*
X152936324Y-85900000D01*
X152940000Y-85937322D01*
X152940000Y-85937332D01*
X152950997Y-86048985D01*
X152994454Y-86192246D01*
X153065026Y-86324276D01*
X153104871Y-86372826D01*
X153159999Y-86440001D01*
X153189002Y-86463803D01*
X153812100Y-87086902D01*
X153835899Y-87115901D01*
X153864897Y-87139699D01*
X153951623Y-87210874D01*
X153989087Y-87230899D01*
X137746424Y-87230899D01*
X137709101Y-87227223D01*
X137671778Y-87230899D01*
X137671768Y-87230899D01*
X137568974Y-87241023D01*
X137518574Y-87220147D01*
X137241335Y-87165000D01*
X136958665Y-87165000D01*
X136681426Y-87220147D01*
X136420273Y-87328320D01*
X136185241Y-87485363D01*
X135985363Y-87685241D01*
X135828320Y-87920273D01*
X135720147Y-88181426D01*
X135665000Y-88458665D01*
X135665000Y-88741335D01*
X135720147Y-89018574D01*
X135828320Y-89279727D01*
X135985363Y-89514759D01*
X136185241Y-89714637D01*
X136420273Y-89871680D01*
X136681426Y-89979853D01*
X136958665Y-90035000D01*
X137241335Y-90035000D01*
X137518574Y-89979853D01*
X137779727Y-89871680D01*
X138002109Y-89723090D01*
X136588998Y-91136201D01*
X136560000Y-91159999D01*
X136536202Y-91188997D01*
X136536201Y-91188998D01*
X136465026Y-91275724D01*
X136394454Y-91407754D01*
X136369359Y-91490484D01*
X136362055Y-91514565D01*
X136350998Y-91551015D01*
X136336324Y-91700000D01*
X136340001Y-91737332D01*
X136340000Y-94961928D01*
X136300000Y-94961928D01*
X136175518Y-94974188D01*
X136055820Y-95010498D01*
X135945506Y-95069463D01*
X135848815Y-95148815D01*
X135769463Y-95245506D01*
X135710498Y-95355820D01*
X135674188Y-95475518D01*
X135661928Y-95600000D01*
X135661928Y-97200000D01*
X135674188Y-97324482D01*
X135710498Y-97444180D01*
X135769463Y-97554494D01*
X135848815Y-97651185D01*
X135945506Y-97730537D01*
X136055820Y-97789502D01*
X136175518Y-97825812D01*
X136300000Y-97838072D01*
X137900000Y-97838072D01*
X138024482Y-97825812D01*
X138144180Y-97789502D01*
X138254494Y-97730537D01*
X138351185Y-97651185D01*
X138430537Y-97554494D01*
X138489502Y-97444180D01*
X138525812Y-97324482D01*
X138538072Y-97200000D01*
X138538072Y-95600000D01*
X138525812Y-95475518D01*
X138489502Y-95355820D01*
X138430537Y-95245506D01*
X138351185Y-95148815D01*
X138254494Y-95069463D01*
X138144180Y-95010498D01*
X138024482Y-94974188D01*
X137900000Y-94961928D01*
X137860000Y-94961928D01*
X137860000Y-92014801D01*
X139584862Y-90289940D01*
X139732267Y-90289940D01*
X139707612Y-90371217D01*
X139694386Y-90505500D01*
X139697701Y-90539157D01*
X139697700Y-106621853D01*
X139694386Y-106655500D01*
X139707612Y-106789783D01*
X139731927Y-106869940D01*
X129036561Y-106869940D01*
X117231072Y-95064453D01*
X117475153Y-94963352D01*
X117763415Y-94770741D01*
X118008561Y-94525595D01*
X118201172Y-94237333D01*
X118333844Y-93917033D01*
X118401480Y-93577005D01*
X118401480Y-93230315D01*
X118333844Y-92890287D01*
X118201172Y-92569987D01*
X118008561Y-92281725D01*
X117763415Y-92036579D01*
X117475153Y-91843968D01*
X117154853Y-91711296D01*
X116814825Y-91643660D01*
X116468135Y-91643660D01*
X116128107Y-91711296D01*
X115807807Y-91843968D01*
X115519545Y-92036579D01*
X115274399Y-92281725D01*
X115081788Y-92569987D01*
X114980687Y-92814068D01*
X113555622Y-91389003D01*
X113531819Y-91359999D01*
X113416094Y-91265026D01*
X113284065Y-91194454D01*
X113262808Y-91188006D01*
X112501481Y-90426680D01*
X112501481Y-90416326D01*
X112856229Y-90653361D01*
X113334658Y-90851533D01*
X113842556Y-90952560D01*
X114360404Y-90952560D01*
X114868302Y-90851533D01*
X115346731Y-90653361D01*
X115777306Y-90365660D01*
X116143480Y-89999486D01*
X116431181Y-89568911D01*
X116629353Y-89090482D01*
X116730380Y-88582584D01*
X116730380Y-88174938D01*
X117671480Y-88174938D01*
X117671480Y-88472382D01*
X117729509Y-88764111D01*
X117843336Y-89038913D01*
X118008587Y-89286229D01*
X118218911Y-89496553D01*
X118466227Y-89661804D01*
X118741029Y-89775631D01*
X119032758Y-89833660D01*
X119330202Y-89833660D01*
X119621931Y-89775631D01*
X119896733Y-89661804D01*
X120144049Y-89496553D01*
X120354373Y-89286229D01*
X120519624Y-89038913D01*
X120633451Y-88764111D01*
X120691480Y-88472382D01*
X120691480Y-88174938D01*
X120633451Y-87883209D01*
X120519624Y-87608407D01*
X120354373Y-87361091D01*
X120144049Y-87150767D01*
X119896733Y-86985516D01*
X119621931Y-86871689D01*
X119330202Y-86813660D01*
X119032758Y-86813660D01*
X118741029Y-86871689D01*
X118466227Y-86985516D01*
X118218911Y-87150767D01*
X118008587Y-87361091D01*
X117843336Y-87608407D01*
X117729509Y-87883209D01*
X117671480Y-88174938D01*
X116730380Y-88174938D01*
X116730380Y-88064736D01*
X116629353Y-87556838D01*
X116431181Y-87078409D01*
X116143480Y-86647834D01*
X115777306Y-86281660D01*
X115346731Y-85993959D01*
X114868302Y-85795787D01*
X114360404Y-85694760D01*
X113842556Y-85694760D01*
X113334658Y-85795787D01*
X112856229Y-85993959D01*
X112425654Y-86281660D01*
X112059480Y-86647834D01*
X111844450Y-86969649D01*
X110170500Y-85295699D01*
X110170500Y-83087305D01*
X111243980Y-83087305D01*
X111243980Y-83400015D01*
X111304987Y-83706717D01*
X111424656Y-83995623D01*
X111598388Y-84255632D01*
X111819508Y-84476752D01*
X112079517Y-84650484D01*
X112368423Y-84770153D01*
X112675125Y-84831160D01*
X112987835Y-84831160D01*
X113294537Y-84770153D01*
X113583443Y-84650484D01*
X113843452Y-84476752D01*
X113847029Y-84473175D01*
X113888443Y-84550654D01*
X113967795Y-84647345D01*
X114064486Y-84726697D01*
X114174800Y-84785662D01*
X114294498Y-84821972D01*
X114418980Y-84834232D01*
X116323980Y-84834232D01*
X116448462Y-84821972D01*
X116568160Y-84785662D01*
X116678474Y-84726697D01*
X116775165Y-84647345D01*
X116854517Y-84550654D01*
X116913482Y-84440340D01*
X116949792Y-84320642D01*
X116962052Y-84196160D01*
X116962052Y-82291160D01*
X116949792Y-82166678D01*
X116913482Y-82046980D01*
X116854517Y-81936666D01*
X116775165Y-81839975D01*
X116678474Y-81760623D01*
X116568160Y-81701658D01*
X116448462Y-81665348D01*
X116323980Y-81653088D01*
X114418980Y-81653088D01*
X114294498Y-81665348D01*
X114174800Y-81701658D01*
X114064486Y-81760623D01*
X113967795Y-81839975D01*
X113888443Y-81936666D01*
X113847029Y-82014145D01*
X113843452Y-82010568D01*
X113583443Y-81836836D01*
X113294537Y-81717167D01*
X112987835Y-81656160D01*
X112675125Y-81656160D01*
X112368423Y-81717167D01*
X112079517Y-81836836D01*
X111819508Y-82010568D01*
X111598388Y-82231688D01*
X111424656Y-82491697D01*
X111304987Y-82780603D01*
X111243980Y-83087305D01*
X110170500Y-83087305D01*
X110170500Y-78456078D01*
X110357132Y-78331375D01*
X110563975Y-78124532D01*
X110680500Y-77950140D01*
X110797025Y-78124532D01*
G36*
X161065000Y-97739801D02*
G01*
X161065000Y-97801939D01*
X161104774Y-98001898D01*
X161182795Y-98190256D01*
X161296063Y-98359774D01*
X161440226Y-98503937D01*
X161458130Y-98515900D01*
X157199443Y-98515900D01*
X157096037Y-98361141D01*
X156896159Y-98161263D01*
X156663641Y-98005900D01*
X156896159Y-97850537D01*
X157096037Y-97650659D01*
X157199443Y-97495900D01*
X160821099Y-97495900D01*
X161065000Y-97739801D01*
G37*
X161065000Y-97739801D02*
X161065000Y-97801939D01*
X161104774Y-98001898D01*
X161182795Y-98190256D01*
X161296063Y-98359774D01*
X161440226Y-98503937D01*
X161458130Y-98515900D01*
X157199443Y-98515900D01*
X157096037Y-98361141D01*
X156896159Y-98161263D01*
X156663641Y-98005900D01*
X156896159Y-97850537D01*
X157096037Y-97650659D01*
X157199443Y-97495900D01*
X160821099Y-97495900D01*
X161065000Y-97739801D01*
G36*
X166585901Y-95360703D02*
G01*
X166585901Y-95422840D01*
X166625675Y-95622799D01*
X166703696Y-95811157D01*
X166707840Y-95817358D01*
X164009299Y-98515900D01*
X162741870Y-98515900D01*
X162759774Y-98503937D01*
X162903937Y-98359774D01*
X163017205Y-98190256D01*
X163095226Y-98001898D01*
X163135000Y-97801939D01*
X163135000Y-97598061D01*
X163095226Y-97398102D01*
X163017205Y-97209744D01*
X162903937Y-97040226D01*
X162759774Y-96896063D01*
X162590256Y-96782795D01*
X162401898Y-96704774D01*
X162201939Y-96665000D01*
X162139801Y-96665000D01*
X161699704Y-96224902D01*
X161675901Y-96195899D01*
X161560176Y-96100926D01*
X161428147Y-96030354D01*
X161284886Y-95986897D01*
X161173233Y-95975900D01*
X161173222Y-95975900D01*
X161135900Y-95972224D01*
X161098578Y-95975900D01*
X157199443Y-95975900D01*
X157096037Y-95821141D01*
X156896159Y-95621263D01*
X156663641Y-95465900D01*
X156896159Y-95310537D01*
X157046696Y-95160000D01*
X161296289Y-95160000D01*
X161340226Y-95203937D01*
X161509744Y-95317205D01*
X161698102Y-95395226D01*
X161898061Y-95435000D01*
X162101939Y-95435000D01*
X162301898Y-95395226D01*
X162490256Y-95317205D01*
X162659774Y-95203937D01*
X162803937Y-95059774D01*
X162917205Y-94890256D01*
X162995226Y-94701898D01*
X163035000Y-94501939D01*
X163035000Y-94298061D01*
X162995226Y-94098102D01*
X162917205Y-93909744D01*
X162803937Y-93740226D01*
X162659774Y-93596063D01*
X162490256Y-93482795D01*
X162301898Y-93404774D01*
X162101939Y-93365000D01*
X161898061Y-93365000D01*
X161698102Y-93404774D01*
X161509744Y-93482795D01*
X161340226Y-93596063D01*
X161296289Y-93640000D01*
X157304371Y-93640000D01*
X157253080Y-93516173D01*
X157096037Y-93281141D01*
X156896159Y-93081263D01*
X156663641Y-92925900D01*
X156896159Y-92770537D01*
X157096037Y-92570659D01*
X157253080Y-92335627D01*
X157361253Y-92074474D01*
X157416400Y-91797235D01*
X157416400Y-91514565D01*
X157361253Y-91237326D01*
X157253080Y-90976173D01*
X157096037Y-90741141D01*
X156896159Y-90541263D01*
X156663641Y-90385900D01*
X156896159Y-90230537D01*
X157096037Y-90030659D01*
X157253080Y-89795627D01*
X157361253Y-89534474D01*
X157416400Y-89257235D01*
X157416400Y-88974565D01*
X157371909Y-88750899D01*
X159976098Y-88750899D01*
X166585901Y-95360703D01*
G37*
X166585901Y-95360703D02*
X166585901Y-95422840D01*
X166625675Y-95622799D01*
X166703696Y-95811157D01*
X166707840Y-95817358D01*
X164009299Y-98515900D01*
X162741870Y-98515900D01*
X162759774Y-98503937D01*
X162903937Y-98359774D01*
X163017205Y-98190256D01*
X163095226Y-98001898D01*
X163135000Y-97801939D01*
X163135000Y-97598061D01*
X163095226Y-97398102D01*
X163017205Y-97209744D01*
X162903937Y-97040226D01*
X162759774Y-96896063D01*
X162590256Y-96782795D01*
X162401898Y-96704774D01*
X162201939Y-96665000D01*
X162139801Y-96665000D01*
X161699704Y-96224902D01*
X161675901Y-96195899D01*
X161560176Y-96100926D01*
X161428147Y-96030354D01*
X161284886Y-95986897D01*
X161173233Y-95975900D01*
X161173222Y-95975900D01*
X161135900Y-95972224D01*
X161098578Y-95975900D01*
X157199443Y-95975900D01*
X157096037Y-95821141D01*
X156896159Y-95621263D01*
X156663641Y-95465900D01*
X156896159Y-95310537D01*
X157046696Y-95160000D01*
X161296289Y-95160000D01*
X161340226Y-95203937D01*
X161509744Y-95317205D01*
X161698102Y-95395226D01*
X161898061Y-95435000D01*
X162101939Y-95435000D01*
X162301898Y-95395226D01*
X162490256Y-95317205D01*
X162659774Y-95203937D01*
X162803937Y-95059774D01*
X162917205Y-94890256D01*
X162995226Y-94701898D01*
X163035000Y-94501939D01*
X163035000Y-94298061D01*
X162995226Y-94098102D01*
X162917205Y-93909744D01*
X162803937Y-93740226D01*
X162659774Y-93596063D01*
X162490256Y-93482795D01*
X162301898Y-93404774D01*
X162101939Y-93365000D01*
X161898061Y-93365000D01*
X161698102Y-93404774D01*
X161509744Y-93482795D01*
X161340226Y-93596063D01*
X161296289Y-93640000D01*
X157304371Y-93640000D01*
X157253080Y-93516173D01*
X157096037Y-93281141D01*
X156896159Y-93081263D01*
X156663641Y-92925900D01*
X156896159Y-92770537D01*
X157096037Y-92570659D01*
X157253080Y-92335627D01*
X157361253Y-92074474D01*
X157416400Y-91797235D01*
X157416400Y-91514565D01*
X157361253Y-91237326D01*
X157253080Y-90976173D01*
X157096037Y-90741141D01*
X156896159Y-90541263D01*
X156663641Y-90385900D01*
X156896159Y-90230537D01*
X157096037Y-90030659D01*
X157253080Y-89795627D01*
X157361253Y-89534474D01*
X157416400Y-89257235D01*
X157416400Y-88974565D01*
X157371909Y-88750899D01*
X159976098Y-88750899D01*
X166585901Y-95360703D01*
G36*
X93017025Y-76231268D02*
G01*
X92854510Y-76474489D01*
X92742568Y-76744742D01*
X92685500Y-77031640D01*
X92685500Y-77324160D01*
X92729290Y-77544308D01*
X90730477Y-79543122D01*
X90701479Y-79566920D01*
X90677681Y-79595918D01*
X90677680Y-79595919D01*
X90606505Y-79682645D01*
X90535933Y-79814675D01*
X90518951Y-79870659D01*
X90492477Y-79957935D01*
X90484754Y-80036350D01*
X90477803Y-80106921D01*
X90481480Y-80144253D01*
X90481479Y-86900497D01*
X90411930Y-86871689D01*
X90120201Y-86813660D01*
X89822757Y-86813660D01*
X89531028Y-86871689D01*
X89256226Y-86985516D01*
X89008910Y-87150767D01*
X88985000Y-87174677D01*
X88985000Y-76085000D01*
X93163293Y-76085000D01*
X93017025Y-76231268D01*
G37*
X93017025Y-76231268D02*
X92854510Y-76474489D01*
X92742568Y-76744742D01*
X92685500Y-77031640D01*
X92685500Y-77324160D01*
X92729290Y-77544308D01*
X90730477Y-79543122D01*
X90701479Y-79566920D01*
X90677681Y-79595918D01*
X90677680Y-79595919D01*
X90606505Y-79682645D01*
X90535933Y-79814675D01*
X90518951Y-79870659D01*
X90492477Y-79957935D01*
X90484754Y-80036350D01*
X90477803Y-80106921D01*
X90481480Y-80144253D01*
X90481479Y-86900497D01*
X90411930Y-86871689D01*
X90120201Y-86813660D01*
X89822757Y-86813660D01*
X89531028Y-86871689D01*
X89256226Y-86985516D01*
X89008910Y-87150767D01*
X88985000Y-87174677D01*
X88985000Y-76085000D01*
X93163293Y-76085000D01*
X93017025Y-76231268D01*
G36*
X94024240Y-78662900D02*
G01*
X94150698Y-78662900D01*
X92001479Y-80812120D01*
X92001479Y-80421722D01*
X93804092Y-78619110D01*
X94024240Y-78662900D01*
G37*
X94024240Y-78662900D02*
X94150698Y-78662900D01*
X92001479Y-80812120D01*
X92001479Y-80421722D01*
X93804092Y-78619110D01*
X94024240Y-78662900D01*
G36*
X114617500Y-77050900D02*
G01*
X116903500Y-77050900D01*
X116903500Y-77030900D01*
X117157500Y-77030900D01*
X117157500Y-77050900D01*
X117177500Y-77050900D01*
X117177500Y-77304900D01*
X117157500Y-77304900D01*
X117157500Y-78498055D01*
X117387390Y-78619376D01*
X117534599Y-78574725D01*
X117797420Y-78449541D01*
X118030769Y-78275488D01*
X118225678Y-78059255D01*
X118295305Y-77942366D01*
X118417025Y-78124532D01*
X118623868Y-78331375D01*
X118867089Y-78493890D01*
X119137342Y-78605832D01*
X119424240Y-78662900D01*
X119716760Y-78662900D01*
X119936908Y-78619109D01*
X121020156Y-79702357D01*
X115549759Y-79702357D01*
X114510301Y-78662900D01*
X114617502Y-78662900D01*
X114617502Y-78498056D01*
X114847390Y-78619376D01*
X114994599Y-78574725D01*
X115257420Y-78449541D01*
X115490769Y-78275488D01*
X115685678Y-78059255D01*
X115760500Y-77933645D01*
X115835322Y-78059255D01*
X116030231Y-78275488D01*
X116263580Y-78449541D01*
X116526401Y-78574725D01*
X116673610Y-78619376D01*
X116903500Y-78498055D01*
X116903500Y-77304900D01*
X114617500Y-77304900D01*
X114617500Y-77324900D01*
X114363500Y-77324900D01*
X114363500Y-77304900D01*
X114343500Y-77304900D01*
X114343500Y-77050900D01*
X114363500Y-77050900D01*
X114363500Y-77030900D01*
X114617500Y-77030900D01*
X114617500Y-77050900D01*
G37*
X114617500Y-77050900D02*
X116903500Y-77050900D01*
X116903500Y-77030900D01*
X117157500Y-77030900D01*
X117157500Y-77050900D01*
X117177500Y-77050900D01*
X117177500Y-77304900D01*
X117157500Y-77304900D01*
X117157500Y-78498055D01*
X117387390Y-78619376D01*
X117534599Y-78574725D01*
X117797420Y-78449541D01*
X118030769Y-78275488D01*
X118225678Y-78059255D01*
X118295305Y-77942366D01*
X118417025Y-78124532D01*
X118623868Y-78331375D01*
X118867089Y-78493890D01*
X119137342Y-78605832D01*
X119424240Y-78662900D01*
X119716760Y-78662900D01*
X119936908Y-78619109D01*
X121020156Y-79702357D01*
X115549759Y-79702357D01*
X114510301Y-78662900D01*
X114617502Y-78662900D01*
X114617502Y-78498056D01*
X114847390Y-78619376D01*
X114994599Y-78574725D01*
X115257420Y-78449541D01*
X115490769Y-78275488D01*
X115685678Y-78059255D01*
X115760500Y-77933645D01*
X115835322Y-78059255D01*
X116030231Y-78275488D01*
X116263580Y-78449541D01*
X116526401Y-78574725D01*
X116673610Y-78619376D01*
X116903500Y-78498055D01*
X116903500Y-77304900D01*
X114617500Y-77304900D01*
X114617500Y-77324900D01*
X114363500Y-77324900D01*
X114363500Y-77304900D01*
X114343500Y-77304900D01*
X114343500Y-77050900D01*
X114363500Y-77050900D01*
X114363500Y-77030900D01*
X114617500Y-77030900D01*
X114617500Y-77050900D01*
G36*
X154543328Y-77215900D02*
G01*
X154555588Y-77340382D01*
X154591898Y-77460080D01*
X154650863Y-77570394D01*
X154730215Y-77667085D01*
X154826906Y-77746437D01*
X154937220Y-77805402D01*
X155056918Y-77841712D01*
X155065361Y-77842543D01*
X154866763Y-78041141D01*
X154709720Y-78276173D01*
X154601547Y-78537326D01*
X154546400Y-78814565D01*
X154546400Y-79097235D01*
X154577254Y-79252348D01*
X150622347Y-79252348D01*
X150622347Y-79185408D01*
X150582573Y-78985449D01*
X150504552Y-78797091D01*
X150391284Y-78627573D01*
X150347347Y-78583636D01*
X150347347Y-78127454D01*
X151298902Y-77175900D01*
X154543328Y-77175900D01*
X154543328Y-77215900D01*
G37*
X154543328Y-77215900D02*
X154555588Y-77340382D01*
X154591898Y-77460080D01*
X154650863Y-77570394D01*
X154730215Y-77667085D01*
X154826906Y-77746437D01*
X154937220Y-77805402D01*
X155056918Y-77841712D01*
X155065361Y-77842543D01*
X154866763Y-78041141D01*
X154709720Y-78276173D01*
X154601547Y-78537326D01*
X154546400Y-78814565D01*
X154546400Y-79097235D01*
X154577254Y-79252348D01*
X150622347Y-79252348D01*
X150622347Y-79185408D01*
X150582573Y-78985449D01*
X150504552Y-78797091D01*
X150391284Y-78627573D01*
X150347347Y-78583636D01*
X150347347Y-78127454D01*
X151298902Y-77175900D01*
X154543328Y-77175900D01*
X154543328Y-77215900D01*
G36*
X149089001Y-77236198D02*
G01*
X149059999Y-77259999D01*
X148965026Y-77375724D01*
X148894454Y-77507753D01*
X148850997Y-77651014D01*
X148840000Y-77762667D01*
X148840000Y-77762678D01*
X148836324Y-77800000D01*
X148837111Y-77807993D01*
X148833790Y-77841712D01*
X148823671Y-77944453D01*
X148827348Y-77981785D01*
X148827348Y-78583635D01*
X148783410Y-78627573D01*
X148670142Y-78797091D01*
X148667969Y-78802338D01*
X123477140Y-78802338D01*
X123261716Y-78586915D01*
X123314994Y-78558437D01*
X123411685Y-78479085D01*
X123491037Y-78382394D01*
X123550002Y-78272080D01*
X123586312Y-78152382D01*
X123598572Y-78027900D01*
X123598572Y-76327900D01*
X123586312Y-76203418D01*
X123550390Y-76085000D01*
X150240198Y-76085000D01*
X149089001Y-77236198D01*
G37*
X149089001Y-77236198D02*
X149059999Y-77259999D01*
X148965026Y-77375724D01*
X148894454Y-77507753D01*
X148850997Y-77651014D01*
X148840000Y-77762667D01*
X148840000Y-77762678D01*
X148836324Y-77800000D01*
X148837111Y-77807993D01*
X148833790Y-77841712D01*
X148823671Y-77944453D01*
X148827348Y-77981785D01*
X148827348Y-78583635D01*
X148783410Y-78627573D01*
X148670142Y-78797091D01*
X148667969Y-78802338D01*
X123477140Y-78802338D01*
X123261716Y-78586915D01*
X123314994Y-78558437D01*
X123411685Y-78479085D01*
X123491037Y-78382394D01*
X123550002Y-78272080D01*
X123586312Y-78152382D01*
X123598572Y-78027900D01*
X123598572Y-76327900D01*
X123586312Y-76203418D01*
X123550390Y-76085000D01*
X150240198Y-76085000D01*
X149089001Y-77236198D01*
G36*
X115835322Y-76296545D02*
G01*
X115760500Y-76422155D01*
X115685678Y-76296545D01*
X115494995Y-76085000D01*
X116026005Y-76085000D01*
X115835322Y-76296545D01*
G37*
X115835322Y-76296545D02*
X115760500Y-76422155D01*
X115685678Y-76296545D01*
X115494995Y-76085000D01*
X116026005Y-76085000D01*
X115835322Y-76296545D01*
%TD*%
M02*
