%TF.GenerationSoftware,KiCad,Pcbnew,(5.1.6)-1*%
%TF.CreationDate,2022-01-12T10:05:38-06:00*%
%TF.ProjectId,Pikatea Macropad FK1,50696b61-7465-4612-904d-6163726f7061,rev?*%
%TF.SameCoordinates,Original*%
%TF.FileFunction,Copper,L1,Top*%
%TF.FilePolarity,Positive*%
%FSLAX46Y46*%
G04 Gerber Fmt 4.6, Leading zero omitted, Abs format (unit mm)*
G04 Created by KiCad (PCBNEW (5.1.6)-1) date 2022-01-12 10:05:38*
%MOMM*%
%LPD*%
G01*
G04 APERTURE LIST*
%TA.AperFunction,ComponentPad*%
%ADD10C,2.250000*%
%TD*%
%TA.AperFunction,ComponentPad*%
%ADD11O,1.700000X1.700000*%
%TD*%
%TA.AperFunction,ComponentPad*%
%ADD12R,1.700000X1.700000*%
%TD*%
%TA.AperFunction,ComponentPad*%
%ADD13C,1.000000*%
%TD*%
%TA.AperFunction,ViaPad*%
%ADD14C,0.800000*%
%TD*%
%TA.AperFunction,Conductor*%
%ADD15C,0.250000*%
%TD*%
%TA.AperFunction,Conductor*%
%ADD16C,0.254000*%
%TD*%
G04 APERTURE END LIST*
D10*
%TO.P,MX5,2*%
%TO.N,/A0*%
X209590000Y-110000000D03*
%TO.P,MX5,1*%
%TO.N,/D6*%
X203240000Y-107460000D03*
%TD*%
%TO.P,MX4,2*%
%TO.N,/A0*%
X190540000Y-110000000D03*
%TO.P,MX4,1*%
%TO.N,/D8*%
X184190000Y-107460000D03*
%TD*%
%TO.P,MX3,2*%
%TO.N,/A0*%
X171490000Y-110000000D03*
%TO.P,MX3,1*%
%TO.N,/D7*%
X165140000Y-107460000D03*
%TD*%
%TO.P,MX2,2*%
%TO.N,/A0*%
X152440000Y-110000000D03*
%TO.P,MX2,1*%
%TO.N,/D9*%
X146090000Y-107460000D03*
%TD*%
%TO.P,MX1,2*%
%TO.N,/A0*%
X133390000Y-110000000D03*
%TO.P,MX1,1*%
%TO.N,/D5*%
X127040000Y-107460000D03*
%TD*%
D11*
%TO.P,J1,12*%
%TO.N,/D4*%
X115443000Y-93345000D03*
%TO.P,J1,11*%
%TO.N,/D3*%
X117983000Y-93345000D03*
%TO.P,J1,10*%
%TO.N,/D2*%
X120523000Y-93345000D03*
%TO.P,J1,9*%
%TO.N,/D5*%
X123063000Y-93345000D03*
%TO.P,J1,8*%
%TO.N,/D9*%
X125603000Y-93345000D03*
%TO.P,J1,7*%
%TO.N,/D7*%
X128143000Y-93345000D03*
%TO.P,J1,6*%
%TO.N,/D8*%
X130683000Y-93345000D03*
%TO.P,J1,5*%
%TO.N,/D6*%
X133223000Y-93345000D03*
%TO.P,J1,4*%
%TO.N,GND*%
X135763000Y-93345000D03*
%TO.P,J1,3*%
%TO.N,N/C*%
X138303000Y-93345000D03*
%TO.P,J1,2*%
X140843000Y-93345000D03*
D12*
%TO.P,J1,1*%
%TO.N,/A0*%
X143383000Y-93345000D03*
%TD*%
D13*
%TO.P,J2,1*%
%TO.N,GND*%
X177546000Y-99580000D03*
X177546000Y-113580000D03*
%TO.P,J2,6*%
%TO.N,N/C*%
X177546000Y-112180000D03*
%TO.P,J2,5*%
X177546000Y-110780000D03*
%TO.P,J2,3*%
%TO.N,/D6*%
X177546000Y-109380000D03*
%TO.P,J2,2*%
%TO.N,/A0*%
X177546000Y-107980000D03*
%TO.P,J2,1*%
%TO.N,GND*%
X177546000Y-100980000D03*
X177546000Y-102380000D03*
X177546000Y-103780000D03*
X177546000Y-105180000D03*
%TO.P,J2,4*%
%TO.N,/D8*%
X177546000Y-106580000D03*
%TD*%
D11*
%TO.P,J4,3*%
%TO.N,/A0*%
X197760000Y-109390000D03*
%TO.P,J4,2*%
%TO.N,/D6*%
X197760000Y-106850000D03*
D12*
%TO.P,J4,1*%
%TO.N,/D8*%
X197760000Y-104310000D03*
%TD*%
%TO.P,SW1,S1*%
%TO.N,/D2*%
X109450000Y-102360000D03*
%TO.P,SW1,S2*%
%TO.N,/A0*%
X109450000Y-107440000D03*
%TO.P,SW1,C*%
%TO.N,GND*%
X91350000Y-104900000D03*
%TO.P,SW1,B*%
%TO.N,/D3*%
X91350000Y-102360000D03*
%TO.P,SW1,A*%
%TO.N,/D4*%
X91350000Y-107440000D03*
%TD*%
D14*
%TO.N,GND*%
X127000000Y-96139000D03*
X121920000Y-95377000D03*
X129413000Y-96139000D03*
X113157000Y-94869000D03*
X113411000Y-97663000D03*
X109601000Y-110109000D03*
X110109000Y-97409000D03*
X161036000Y-104902000D03*
%TD*%
D15*
%TO.N,GND*%
X178253106Y-102380000D02*
X178271106Y-102362000D01*
X177546000Y-102380000D02*
X178253106Y-102380000D01*
X178271106Y-102362000D02*
X178943000Y-102362000D01*
X174371000Y-102362000D02*
X176276000Y-102362000D01*
X173597981Y-101588981D02*
X174371000Y-102362000D01*
X139069229Y-100584000D02*
X140074209Y-101588980D01*
X176276000Y-102362000D02*
X176294000Y-102380000D01*
X177546000Y-102380000D02*
X176276000Y-102362000D01*
X136612999Y-94194999D02*
X136612999Y-99274999D01*
X140074209Y-101588980D02*
X173597981Y-101588981D01*
X137922000Y-100584000D02*
X139069229Y-100584000D01*
X136612999Y-99274999D02*
X137922000Y-100584000D01*
X135763000Y-93345000D02*
X136612999Y-94194999D01*
X177546000Y-100980000D02*
X177546000Y-99580000D01*
%TO.N,/A0*%
X171490000Y-110000000D02*
X151656000Y-110000000D01*
X152440000Y-110000000D02*
X133390000Y-110000000D01*
X198370000Y-110000000D02*
X197760000Y-109390000D01*
X209590000Y-110000000D02*
X198370000Y-110000000D01*
X197150000Y-110000000D02*
X197760000Y-109390000D01*
X190540000Y-110000000D02*
X197150000Y-110000000D01*
X172194000Y-110000000D02*
X171490000Y-110000000D01*
X171490000Y-109180000D02*
X171490000Y-110000000D01*
X109450000Y-108540000D02*
X109450000Y-107440000D01*
X110910000Y-110000000D02*
X109450000Y-108540000D01*
X133390000Y-110000000D02*
X110910000Y-110000000D01*
X175100990Y-107980000D02*
X177546000Y-107980000D01*
X171490000Y-110000000D02*
X173080990Y-110000000D01*
X173080990Y-110000000D02*
X175100990Y-107980000D01*
X179481000Y-107980000D02*
X177546000Y-107980000D01*
X190540000Y-110000000D02*
X181501000Y-110000000D01*
X181501000Y-110000000D02*
X179481000Y-107980000D01*
%TO.N,/D9*%
X139954000Y-105791000D02*
X141623000Y-107460000D01*
X139954000Y-103378000D02*
X139954000Y-105791000D01*
X141623000Y-107460000D02*
X146090000Y-107460000D01*
X125603000Y-96450671D02*
X127490010Y-98337681D01*
X138684000Y-102108000D02*
X139954000Y-103378000D01*
X125603000Y-93345000D02*
X125603000Y-96450671D01*
X128270000Y-102108000D02*
X138684000Y-102108000D01*
X127490010Y-98337681D02*
X127490010Y-101328010D01*
X127490010Y-101328010D02*
X128270000Y-102108000D01*
%TO.N,/D6*%
X198370000Y-107460000D02*
X197760000Y-106850000D01*
X203240000Y-107460000D02*
X198370000Y-107460000D01*
%TO.N,/D5*%
X127040000Y-105869010D02*
X127040000Y-107460000D01*
X123063000Y-94547081D02*
X127040000Y-98524081D01*
X127040000Y-98524081D02*
X127040000Y-105869010D01*
X123063000Y-93345000D02*
X123063000Y-94547081D01*
%TO.N,/D4*%
X90250000Y-107440000D02*
X89662000Y-106852000D01*
X91350000Y-107440000D02*
X90250000Y-107440000D01*
X89662000Y-106852000D02*
X89662000Y-99441000D01*
X89662000Y-99441000D02*
X93160010Y-95942990D01*
X93160010Y-95942990D02*
X114623010Y-95942990D01*
X115443000Y-95123000D02*
X115443000Y-93345000D01*
X114623010Y-95942990D02*
X115443000Y-95123000D01*
%TO.N,/D3*%
X117983000Y-95123000D02*
X117983000Y-93345000D01*
X94234000Y-96393000D02*
X116713000Y-96393000D01*
X91350000Y-102360000D02*
X91350000Y-99277000D01*
X116713000Y-96393000D02*
X117983000Y-95123000D01*
X91350000Y-99277000D02*
X94234000Y-96393000D01*
%TO.N,/D2*%
X120523000Y-95504000D02*
X120523000Y-93345000D01*
X119183990Y-96843010D02*
X120523000Y-95504000D01*
X109450000Y-102360000D02*
X109450000Y-100100000D01*
X112706990Y-96843010D02*
X119183990Y-96843010D01*
X109450000Y-100100000D02*
X112706990Y-96843010D01*
%TO.N,/D8*%
X184190000Y-107460000D02*
X193784000Y-107460000D01*
X196934000Y-104310000D02*
X197760000Y-104310000D01*
X193784000Y-107460000D02*
X196934000Y-104310000D01*
X133604000Y-96266000D02*
X131572000Y-96266000D01*
X134112000Y-96774000D02*
X133604000Y-96266000D01*
X134112000Y-99695000D02*
X134112000Y-96774000D01*
X165100000Y-104501974D02*
X165100000Y-104373998D01*
X131572000Y-96266000D02*
X130683000Y-95377000D01*
X167836927Y-107238901D02*
X165100000Y-104501974D01*
X130683000Y-95377000D02*
X130683000Y-93345000D01*
X175205679Y-107238901D02*
X167836927Y-107238901D01*
X177546000Y-106580000D02*
X175864580Y-106580000D01*
X135624982Y-101207982D02*
X134112000Y-99695000D01*
X175864580Y-106580000D02*
X175205679Y-107238901D01*
X165100000Y-104373998D02*
X162764993Y-102038991D01*
X139056800Y-101207982D02*
X135624982Y-101207982D01*
X162764993Y-102038991D02*
X157607000Y-102038990D01*
X157607000Y-102038990D02*
X139887810Y-102038990D01*
X139887810Y-102038990D02*
X139056800Y-101207982D01*
%TO.N,/D7*%
X159385000Y-106426000D02*
X160419000Y-107460000D01*
X139701410Y-102489000D02*
X158115000Y-102489000D01*
X128143000Y-98044000D02*
X127940020Y-98246980D01*
X158115000Y-102489000D02*
X159385000Y-103759000D01*
X138870401Y-101657991D02*
X139701410Y-102489000D01*
X128143000Y-93345000D02*
X128143000Y-98044000D01*
X127940020Y-98246980D02*
X127940020Y-101141610D01*
X160419000Y-107460000D02*
X165140000Y-107460000D01*
X159385000Y-103759000D02*
X159385000Y-106426000D01*
X127940020Y-101141610D02*
X128456400Y-101657990D01*
X128456400Y-101657990D02*
X138870401Y-101657991D01*
%TD*%
D16*
%TO.N,GND*%
G36*
X135890000Y-93218000D02*
G01*
X135910000Y-93218000D01*
X135910000Y-93472000D01*
X135890000Y-93472000D01*
X135890000Y-94665155D01*
X136119890Y-94786476D01*
X136267099Y-94741825D01*
X136529920Y-94616641D01*
X136763269Y-94442588D01*
X136958178Y-94226355D01*
X137027805Y-94109466D01*
X137149525Y-94291632D01*
X137356368Y-94498475D01*
X137599589Y-94660990D01*
X137869842Y-94772932D01*
X138156740Y-94830000D01*
X138449260Y-94830000D01*
X138736158Y-94772932D01*
X139006411Y-94660990D01*
X139249632Y-94498475D01*
X139456475Y-94291632D01*
X139573000Y-94117240D01*
X139689525Y-94291632D01*
X139896368Y-94498475D01*
X140139589Y-94660990D01*
X140409842Y-94772932D01*
X140696740Y-94830000D01*
X140989260Y-94830000D01*
X141276158Y-94772932D01*
X141546411Y-94660990D01*
X141789632Y-94498475D01*
X141921487Y-94366620D01*
X141943498Y-94439180D01*
X142002463Y-94549494D01*
X142081815Y-94646185D01*
X142178506Y-94725537D01*
X142288820Y-94784502D01*
X142408518Y-94820812D01*
X142533000Y-94833072D01*
X144233000Y-94833072D01*
X144357482Y-94820812D01*
X144477180Y-94784502D01*
X144501000Y-94771770D01*
X144501001Y-98967571D01*
X144497807Y-99000000D01*
X144510550Y-99129383D01*
X144548290Y-99253793D01*
X144609575Y-99368450D01*
X144692052Y-99468948D01*
X144792550Y-99551425D01*
X144907207Y-99612710D01*
X145031617Y-99650450D01*
X145128581Y-99660000D01*
X145161000Y-99663193D01*
X145193419Y-99660000D01*
X176408551Y-99660000D01*
X176408489Y-99662406D01*
X176446423Y-99882740D01*
X176526613Y-100091440D01*
X176554412Y-100143450D01*
X176767834Y-100178561D01*
X177286395Y-99660000D01*
X177805605Y-99660000D01*
X178324166Y-100178561D01*
X178537588Y-100143450D01*
X178628458Y-99939174D01*
X178677731Y-99721095D01*
X178679311Y-99660000D01*
X213440001Y-99660000D01*
X213440001Y-104162627D01*
X213302893Y-103957431D01*
X213092569Y-103747107D01*
X212845253Y-103581856D01*
X212570451Y-103468029D01*
X212278722Y-103410000D01*
X211981278Y-103410000D01*
X211689549Y-103468029D01*
X211414747Y-103581856D01*
X211167431Y-103747107D01*
X210957107Y-103957431D01*
X210791856Y-104204747D01*
X210678029Y-104479549D01*
X210620000Y-104771278D01*
X210620000Y-105068722D01*
X210678029Y-105360451D01*
X210791856Y-105635253D01*
X210957107Y-105882569D01*
X211167431Y-106092893D01*
X211414747Y-106258144D01*
X211689549Y-106371971D01*
X211981278Y-106430000D01*
X212278722Y-106430000D01*
X212570451Y-106371971D01*
X212845253Y-106258144D01*
X213092569Y-106092893D01*
X213302893Y-105882569D01*
X213440001Y-105677373D01*
X213440000Y-113340000D01*
X178656379Y-113340000D01*
X178645577Y-113277260D01*
X178565387Y-113068560D01*
X178537588Y-113016550D01*
X178346087Y-112985045D01*
X178427612Y-112903520D01*
X178551824Y-112717624D01*
X178637383Y-112511067D01*
X178681000Y-112291788D01*
X178681000Y-112068212D01*
X178637383Y-111848933D01*
X178551824Y-111642376D01*
X178443328Y-111480000D01*
X178551824Y-111317624D01*
X178637383Y-111111067D01*
X178681000Y-110891788D01*
X178681000Y-110668212D01*
X178637383Y-110448933D01*
X178551824Y-110242376D01*
X178443328Y-110080000D01*
X178551824Y-109917624D01*
X178637383Y-109711067D01*
X178681000Y-109491788D01*
X178681000Y-109268212D01*
X178637383Y-109048933D01*
X178551824Y-108842376D01*
X178483418Y-108740000D01*
X179166199Y-108740000D01*
X180937205Y-110511008D01*
X180960999Y-110540001D01*
X180989992Y-110563795D01*
X180989996Y-110563799D01*
X181039530Y-110604450D01*
X181076724Y-110634974D01*
X181208753Y-110705546D01*
X181352014Y-110749003D01*
X181463667Y-110760000D01*
X181463676Y-110760000D01*
X181500999Y-110763676D01*
X181538322Y-110760000D01*
X188949792Y-110760000D01*
X188980308Y-110833673D01*
X189172919Y-111121935D01*
X189418065Y-111367081D01*
X189706327Y-111559692D01*
X190026627Y-111692364D01*
X190366655Y-111760000D01*
X190713345Y-111760000D01*
X191053373Y-111692364D01*
X191373673Y-111559692D01*
X191661935Y-111367081D01*
X191907081Y-111121935D01*
X192099692Y-110833673D01*
X192130208Y-110760000D01*
X197112678Y-110760000D01*
X197150000Y-110763676D01*
X197187047Y-110760027D01*
X197326842Y-110817932D01*
X197613740Y-110875000D01*
X197906260Y-110875000D01*
X198193158Y-110817932D01*
X198332953Y-110760027D01*
X198369999Y-110763676D01*
X198407322Y-110760000D01*
X207999792Y-110760000D01*
X208030308Y-110833673D01*
X208222919Y-111121935D01*
X208468065Y-111367081D01*
X208756327Y-111559692D01*
X209076627Y-111692364D01*
X209416655Y-111760000D01*
X209763345Y-111760000D01*
X210103373Y-111692364D01*
X210423673Y-111559692D01*
X210711935Y-111367081D01*
X210957081Y-111121935D01*
X211149692Y-110833673D01*
X211282364Y-110513373D01*
X211350000Y-110173345D01*
X211350000Y-109826655D01*
X211282364Y-109486627D01*
X211149692Y-109166327D01*
X210957081Y-108878065D01*
X210711935Y-108632919D01*
X210423673Y-108440308D01*
X210103373Y-108307636D01*
X209763345Y-108240000D01*
X209416655Y-108240000D01*
X209076627Y-108307636D01*
X208756327Y-108440308D01*
X208468065Y-108632919D01*
X208222919Y-108878065D01*
X208030308Y-109166327D01*
X207999792Y-109240000D01*
X199244256Y-109240000D01*
X199187932Y-108956842D01*
X199075990Y-108686589D01*
X198913475Y-108443368D01*
X198706632Y-108236525D01*
X198681901Y-108220000D01*
X201649792Y-108220000D01*
X201680308Y-108293673D01*
X201872919Y-108581935D01*
X202118065Y-108827081D01*
X202406327Y-109019692D01*
X202726627Y-109152364D01*
X203066655Y-109220000D01*
X203413345Y-109220000D01*
X203753373Y-109152364D01*
X204073673Y-109019692D01*
X204361935Y-108827081D01*
X204607081Y-108581935D01*
X204799692Y-108293673D01*
X204932364Y-107973373D01*
X205000000Y-107633345D01*
X205000000Y-107286655D01*
X204932364Y-106946627D01*
X204799692Y-106626327D01*
X204607081Y-106338065D01*
X204361935Y-106092919D01*
X204073673Y-105900308D01*
X203753373Y-105767636D01*
X203413345Y-105700000D01*
X203264882Y-105700000D01*
X203308144Y-105635253D01*
X203421971Y-105360451D01*
X203480000Y-105068722D01*
X203480000Y-104771278D01*
X203458080Y-104661076D01*
X204421100Y-104661076D01*
X204421100Y-105178924D01*
X204522127Y-105686822D01*
X204720299Y-106165251D01*
X205008000Y-106595826D01*
X205374174Y-106962000D01*
X205804749Y-107249701D01*
X206283178Y-107447873D01*
X206791076Y-107548900D01*
X207308924Y-107548900D01*
X207816822Y-107447873D01*
X208295251Y-107249701D01*
X208725826Y-106962000D01*
X209092000Y-106595826D01*
X209379701Y-106165251D01*
X209577873Y-105686822D01*
X209678900Y-105178924D01*
X209678900Y-104661076D01*
X209577873Y-104153178D01*
X209379701Y-103674749D01*
X209092000Y-103244174D01*
X208725826Y-102878000D01*
X208295251Y-102590299D01*
X207816822Y-102392127D01*
X207308924Y-102291100D01*
X206791076Y-102291100D01*
X206283178Y-102392127D01*
X205804749Y-102590299D01*
X205374174Y-102878000D01*
X205008000Y-103244174D01*
X204720299Y-103674749D01*
X204522127Y-104153178D01*
X204421100Y-104661076D01*
X203458080Y-104661076D01*
X203421971Y-104479549D01*
X203308144Y-104204747D01*
X203142893Y-103957431D01*
X202932569Y-103747107D01*
X202685253Y-103581856D01*
X202410451Y-103468029D01*
X202118722Y-103410000D01*
X201821278Y-103410000D01*
X201529549Y-103468029D01*
X201254747Y-103581856D01*
X201007431Y-103747107D01*
X200797107Y-103957431D01*
X200631856Y-104204747D01*
X200518029Y-104479549D01*
X200460000Y-104771278D01*
X200460000Y-105068722D01*
X200518029Y-105360451D01*
X200631856Y-105635253D01*
X200797107Y-105882569D01*
X201007431Y-106092893D01*
X201254747Y-106258144D01*
X201529549Y-106371971D01*
X201812638Y-106428281D01*
X201680308Y-106626327D01*
X201649792Y-106700000D01*
X199244256Y-106700000D01*
X199187932Y-106416842D01*
X199075990Y-106146589D01*
X198913475Y-105903368D01*
X198781620Y-105771513D01*
X198854180Y-105749502D01*
X198964494Y-105690537D01*
X199061185Y-105611185D01*
X199140537Y-105514494D01*
X199199502Y-105404180D01*
X199235812Y-105284482D01*
X199248072Y-105160000D01*
X199248072Y-103460000D01*
X199235812Y-103335518D01*
X199199502Y-103215820D01*
X199140537Y-103105506D01*
X199061185Y-103008815D01*
X198964494Y-102929463D01*
X198854180Y-102870498D01*
X198734482Y-102834188D01*
X198610000Y-102821928D01*
X196910000Y-102821928D01*
X196785518Y-102834188D01*
X196665820Y-102870498D01*
X196555506Y-102929463D01*
X196458815Y-103008815D01*
X196379463Y-103105506D01*
X196320498Y-103215820D01*
X196284188Y-103335518D01*
X196271928Y-103460000D01*
X196271928Y-103897270D01*
X193469199Y-106700000D01*
X189937826Y-106700000D01*
X190042000Y-106595826D01*
X190329701Y-106165251D01*
X190527873Y-105686822D01*
X190628900Y-105178924D01*
X190628900Y-104771278D01*
X191570000Y-104771278D01*
X191570000Y-105068722D01*
X191628029Y-105360451D01*
X191741856Y-105635253D01*
X191907107Y-105882569D01*
X192117431Y-106092893D01*
X192364747Y-106258144D01*
X192639549Y-106371971D01*
X192931278Y-106430000D01*
X193228722Y-106430000D01*
X193520451Y-106371971D01*
X193795253Y-106258144D01*
X194042569Y-106092893D01*
X194252893Y-105882569D01*
X194418144Y-105635253D01*
X194531971Y-105360451D01*
X194590000Y-105068722D01*
X194590000Y-104771278D01*
X194531971Y-104479549D01*
X194418144Y-104204747D01*
X194252893Y-103957431D01*
X194042569Y-103747107D01*
X193795253Y-103581856D01*
X193520451Y-103468029D01*
X193228722Y-103410000D01*
X192931278Y-103410000D01*
X192639549Y-103468029D01*
X192364747Y-103581856D01*
X192117431Y-103747107D01*
X191907107Y-103957431D01*
X191741856Y-104204747D01*
X191628029Y-104479549D01*
X191570000Y-104771278D01*
X190628900Y-104771278D01*
X190628900Y-104661076D01*
X190527873Y-104153178D01*
X190329701Y-103674749D01*
X190042000Y-103244174D01*
X189675826Y-102878000D01*
X189245251Y-102590299D01*
X188766822Y-102392127D01*
X188258924Y-102291100D01*
X187741076Y-102291100D01*
X187233178Y-102392127D01*
X186754749Y-102590299D01*
X186324174Y-102878000D01*
X185958000Y-103244174D01*
X185670299Y-103674749D01*
X185472127Y-104153178D01*
X185371100Y-104661076D01*
X185371100Y-105178924D01*
X185472127Y-105686822D01*
X185670299Y-106165251D01*
X185958000Y-106595826D01*
X186062174Y-106700000D01*
X185780208Y-106700000D01*
X185749692Y-106626327D01*
X185557081Y-106338065D01*
X185311935Y-106092919D01*
X185023673Y-105900308D01*
X184703373Y-105767636D01*
X184363345Y-105700000D01*
X184214882Y-105700000D01*
X184258144Y-105635253D01*
X184371971Y-105360451D01*
X184430000Y-105068722D01*
X184430000Y-104771278D01*
X184371971Y-104479549D01*
X184258144Y-104204747D01*
X184092893Y-103957431D01*
X183882569Y-103747107D01*
X183635253Y-103581856D01*
X183360451Y-103468029D01*
X183068722Y-103410000D01*
X182771278Y-103410000D01*
X182479549Y-103468029D01*
X182204747Y-103581856D01*
X181957431Y-103747107D01*
X181747107Y-103957431D01*
X181581856Y-104204747D01*
X181468029Y-104479549D01*
X181410000Y-104771278D01*
X181410000Y-105068722D01*
X181468029Y-105360451D01*
X181581856Y-105635253D01*
X181747107Y-105882569D01*
X181957431Y-106092893D01*
X182204747Y-106258144D01*
X182479549Y-106371971D01*
X182762638Y-106428281D01*
X182630308Y-106626327D01*
X182497636Y-106946627D01*
X182430000Y-107286655D01*
X182430000Y-107633345D01*
X182497636Y-107973373D01*
X182630308Y-108293673D01*
X182822919Y-108581935D01*
X183068065Y-108827081D01*
X183356327Y-109019692D01*
X183676627Y-109152364D01*
X184016655Y-109220000D01*
X184363345Y-109220000D01*
X184703373Y-109152364D01*
X185023673Y-109019692D01*
X185311935Y-108827081D01*
X185557081Y-108581935D01*
X185749692Y-108293673D01*
X185780208Y-108220000D01*
X193746678Y-108220000D01*
X193784000Y-108223676D01*
X193821322Y-108220000D01*
X193821333Y-108220000D01*
X193932986Y-108209003D01*
X194076247Y-108165546D01*
X194208276Y-108094974D01*
X194324001Y-108000001D01*
X194347804Y-107970997D01*
X196602921Y-105715881D01*
X196665820Y-105749502D01*
X196738380Y-105771513D01*
X196606525Y-105903368D01*
X196444010Y-106146589D01*
X196332068Y-106416842D01*
X196275000Y-106703740D01*
X196275000Y-106996260D01*
X196332068Y-107283158D01*
X196444010Y-107553411D01*
X196606525Y-107796632D01*
X196813368Y-108003475D01*
X196987760Y-108120000D01*
X196813368Y-108236525D01*
X196606525Y-108443368D01*
X196444010Y-108686589D01*
X196332068Y-108956842D01*
X196275744Y-109240000D01*
X192130208Y-109240000D01*
X192099692Y-109166327D01*
X191907081Y-108878065D01*
X191661935Y-108632919D01*
X191373673Y-108440308D01*
X191053373Y-108307636D01*
X190713345Y-108240000D01*
X190366655Y-108240000D01*
X190026627Y-108307636D01*
X189706327Y-108440308D01*
X189418065Y-108632919D01*
X189172919Y-108878065D01*
X188980308Y-109166327D01*
X188949792Y-109240000D01*
X181815803Y-109240000D01*
X180044804Y-107469002D01*
X180021001Y-107439999D01*
X179905276Y-107345026D01*
X179773247Y-107274454D01*
X179629986Y-107230997D01*
X179518333Y-107220000D01*
X179518322Y-107220000D01*
X179481000Y-107216324D01*
X179443678Y-107220000D01*
X178483418Y-107220000D01*
X178551824Y-107117624D01*
X178637383Y-106911067D01*
X178681000Y-106691788D01*
X178681000Y-106468212D01*
X178637383Y-106248933D01*
X178551824Y-106042376D01*
X178427612Y-105856480D01*
X178346087Y-105774955D01*
X178537588Y-105743450D01*
X178628458Y-105539174D01*
X178677731Y-105321095D01*
X178683511Y-105097594D01*
X178645577Y-104877260D01*
X178565387Y-104668560D01*
X178537588Y-104616550D01*
X178324166Y-104581439D01*
X177725605Y-105180000D01*
X177739748Y-105194143D01*
X177560143Y-105373748D01*
X177546000Y-105359605D01*
X177531858Y-105373748D01*
X177352253Y-105194143D01*
X177366395Y-105180000D01*
X176767834Y-104581439D01*
X176554412Y-104616550D01*
X176463542Y-104820826D01*
X176414269Y-105038905D01*
X176408489Y-105262406D01*
X176446423Y-105482740D01*
X176526613Y-105691440D01*
X176554412Y-105743450D01*
X176745913Y-105774955D01*
X176700868Y-105820000D01*
X175901905Y-105820000D01*
X175864580Y-105816324D01*
X175827255Y-105820000D01*
X175827247Y-105820000D01*
X175715594Y-105830997D01*
X175572333Y-105874454D01*
X175440304Y-105945026D01*
X175324579Y-106039999D01*
X175300780Y-106068998D01*
X174890878Y-106478901D01*
X171070127Y-106478901D01*
X171279701Y-106165251D01*
X171477873Y-105686822D01*
X171578900Y-105178924D01*
X171578900Y-104771278D01*
X172520000Y-104771278D01*
X172520000Y-105068722D01*
X172578029Y-105360451D01*
X172691856Y-105635253D01*
X172857107Y-105882569D01*
X173067431Y-106092893D01*
X173314747Y-106258144D01*
X173589549Y-106371971D01*
X173881278Y-106430000D01*
X174178722Y-106430000D01*
X174470451Y-106371971D01*
X174745253Y-106258144D01*
X174992569Y-106092893D01*
X175202893Y-105882569D01*
X175368144Y-105635253D01*
X175481971Y-105360451D01*
X175540000Y-105068722D01*
X175540000Y-104771278D01*
X175481971Y-104479549D01*
X175449781Y-104401834D01*
X176947439Y-104401834D01*
X177025605Y-104480000D01*
X176947439Y-104558166D01*
X176982550Y-104771588D01*
X177186826Y-104862458D01*
X177404905Y-104911731D01*
X177458728Y-104913123D01*
X177546000Y-105000395D01*
X177628983Y-104917412D01*
X177848740Y-104879577D01*
X178057440Y-104799387D01*
X178109450Y-104771588D01*
X178144561Y-104558166D01*
X178066395Y-104480000D01*
X178144561Y-104401834D01*
X178109450Y-104188412D01*
X177905174Y-104097542D01*
X177687095Y-104048269D01*
X177633272Y-104046877D01*
X177546000Y-103959605D01*
X177463017Y-104042588D01*
X177243260Y-104080423D01*
X177034560Y-104160613D01*
X176982550Y-104188412D01*
X176947439Y-104401834D01*
X175449781Y-104401834D01*
X175368144Y-104204747D01*
X175202893Y-103957431D01*
X175107868Y-103862406D01*
X176408489Y-103862406D01*
X176446423Y-104082740D01*
X176526613Y-104291440D01*
X176554412Y-104343450D01*
X176767834Y-104378561D01*
X177366395Y-103780000D01*
X177725605Y-103780000D01*
X178324166Y-104378561D01*
X178537588Y-104343450D01*
X178628458Y-104139174D01*
X178677731Y-103921095D01*
X178683511Y-103697594D01*
X178645577Y-103477260D01*
X178565387Y-103268560D01*
X178537588Y-103216550D01*
X178324166Y-103181439D01*
X177725605Y-103780000D01*
X177366395Y-103780000D01*
X176767834Y-103181439D01*
X176554412Y-103216550D01*
X176463542Y-103420826D01*
X176414269Y-103638905D01*
X176408489Y-103862406D01*
X175107868Y-103862406D01*
X174992569Y-103747107D01*
X174745253Y-103581856D01*
X174470451Y-103468029D01*
X174178722Y-103410000D01*
X173881278Y-103410000D01*
X173589549Y-103468029D01*
X173314747Y-103581856D01*
X173067431Y-103747107D01*
X172857107Y-103957431D01*
X172691856Y-104204747D01*
X172578029Y-104479549D01*
X172520000Y-104771278D01*
X171578900Y-104771278D01*
X171578900Y-104661076D01*
X171477873Y-104153178D01*
X171279701Y-103674749D01*
X170992000Y-103244174D01*
X170749660Y-103001834D01*
X176947439Y-103001834D01*
X177025605Y-103080000D01*
X176947439Y-103158166D01*
X176982550Y-103371588D01*
X177186826Y-103462458D01*
X177404905Y-103511731D01*
X177458728Y-103513123D01*
X177546000Y-103600395D01*
X177628983Y-103517412D01*
X177848740Y-103479577D01*
X178057440Y-103399387D01*
X178109450Y-103371588D01*
X178144561Y-103158166D01*
X178066395Y-103080000D01*
X178144561Y-103001834D01*
X178109450Y-102788412D01*
X177905174Y-102697542D01*
X177687095Y-102648269D01*
X177633272Y-102646877D01*
X177546000Y-102559605D01*
X177463017Y-102642588D01*
X177243260Y-102680423D01*
X177034560Y-102760613D01*
X176982550Y-102788412D01*
X176947439Y-103001834D01*
X170749660Y-103001834D01*
X170625826Y-102878000D01*
X170195251Y-102590299D01*
X169886491Y-102462406D01*
X176408489Y-102462406D01*
X176446423Y-102682740D01*
X176526613Y-102891440D01*
X176554412Y-102943450D01*
X176767834Y-102978561D01*
X177366395Y-102380000D01*
X177725605Y-102380000D01*
X178324166Y-102978561D01*
X178537588Y-102943450D01*
X178628458Y-102739174D01*
X178677731Y-102521095D01*
X178683511Y-102297594D01*
X178645577Y-102077260D01*
X178565387Y-101868560D01*
X178537588Y-101816550D01*
X178324166Y-101781439D01*
X177725605Y-102380000D01*
X177366395Y-102380000D01*
X176767834Y-101781439D01*
X176554412Y-101816550D01*
X176463542Y-102020826D01*
X176414269Y-102238905D01*
X176408489Y-102462406D01*
X169886491Y-102462406D01*
X169716822Y-102392127D01*
X169208924Y-102291100D01*
X168691076Y-102291100D01*
X168183178Y-102392127D01*
X167704749Y-102590299D01*
X167274174Y-102878000D01*
X166908000Y-103244174D01*
X166620299Y-103674749D01*
X166422127Y-104153178D01*
X166323224Y-104650397D01*
X165827739Y-104154912D01*
X165805546Y-104081751D01*
X165734974Y-103949722D01*
X165663799Y-103862995D01*
X165640001Y-103833997D01*
X165611003Y-103810199D01*
X163402638Y-101601834D01*
X176947439Y-101601834D01*
X177025605Y-101680000D01*
X176947439Y-101758166D01*
X176982550Y-101971588D01*
X177186826Y-102062458D01*
X177404905Y-102111731D01*
X177458728Y-102113123D01*
X177546000Y-102200395D01*
X177628983Y-102117412D01*
X177848740Y-102079577D01*
X178057440Y-101999387D01*
X178109450Y-101971588D01*
X178144561Y-101758166D01*
X178066395Y-101680000D01*
X178144561Y-101601834D01*
X178109450Y-101388412D01*
X177905174Y-101297542D01*
X177687095Y-101248269D01*
X177633272Y-101246877D01*
X177546000Y-101159605D01*
X177463017Y-101242588D01*
X177243260Y-101280423D01*
X177034560Y-101360613D01*
X176982550Y-101388412D01*
X176947439Y-101601834D01*
X163402638Y-101601834D01*
X163328792Y-101527989D01*
X163304994Y-101498991D01*
X163273356Y-101473026D01*
X163189269Y-101404017D01*
X163057239Y-101333445D01*
X162938878Y-101297542D01*
X162913979Y-101289989D01*
X162802326Y-101278992D01*
X162764993Y-101275315D01*
X162727661Y-101278992D01*
X157644333Y-101278990D01*
X140202611Y-101278990D01*
X139986027Y-101062406D01*
X176408489Y-101062406D01*
X176446423Y-101282740D01*
X176526613Y-101491440D01*
X176554412Y-101543450D01*
X176767834Y-101578561D01*
X177366395Y-100980000D01*
X177725605Y-100980000D01*
X178324166Y-101578561D01*
X178537588Y-101543450D01*
X178628458Y-101339174D01*
X178677731Y-101121095D01*
X178683511Y-100897594D01*
X178645577Y-100677260D01*
X178565387Y-100468560D01*
X178537588Y-100416550D01*
X178324166Y-100381439D01*
X177725605Y-100980000D01*
X177366395Y-100980000D01*
X176767834Y-100381439D01*
X176554412Y-100416550D01*
X176463542Y-100620826D01*
X176414269Y-100838905D01*
X176408489Y-101062406D01*
X139986027Y-101062406D01*
X139620599Y-100696979D01*
X139596801Y-100667981D01*
X139481076Y-100573008D01*
X139349047Y-100502436D01*
X139205786Y-100458979D01*
X139094133Y-100447982D01*
X139094125Y-100447982D01*
X139056800Y-100444306D01*
X139019477Y-100447982D01*
X135939784Y-100447982D01*
X135693636Y-100201834D01*
X176947439Y-100201834D01*
X177025605Y-100280000D01*
X176947439Y-100358166D01*
X176982550Y-100571588D01*
X177186826Y-100662458D01*
X177404905Y-100711731D01*
X177458728Y-100713123D01*
X177546000Y-100800395D01*
X177628983Y-100717412D01*
X177848740Y-100679577D01*
X178057440Y-100599387D01*
X178109450Y-100571588D01*
X178144561Y-100358166D01*
X178066395Y-100280000D01*
X178144561Y-100201834D01*
X178109450Y-99988412D01*
X177905174Y-99897542D01*
X177687095Y-99848269D01*
X177633272Y-99846877D01*
X177546000Y-99759605D01*
X177463017Y-99842588D01*
X177243260Y-99880423D01*
X177034560Y-99960613D01*
X176982550Y-99988412D01*
X176947439Y-100201834D01*
X135693636Y-100201834D01*
X134872000Y-99380199D01*
X134872000Y-96811322D01*
X134875676Y-96773999D01*
X134872000Y-96736676D01*
X134872000Y-96736667D01*
X134861003Y-96625014D01*
X134817546Y-96481753D01*
X134746974Y-96349724D01*
X134652001Y-96233999D01*
X134623002Y-96210200D01*
X134167803Y-95755002D01*
X134144001Y-95725999D01*
X134028276Y-95631026D01*
X133896247Y-95560454D01*
X133752986Y-95516997D01*
X133641333Y-95506000D01*
X133641322Y-95506000D01*
X133604000Y-95502324D01*
X133566678Y-95506000D01*
X131886802Y-95506000D01*
X131443000Y-95062199D01*
X131443000Y-94623178D01*
X131629632Y-94498475D01*
X131836475Y-94291632D01*
X131953000Y-94117240D01*
X132069525Y-94291632D01*
X132276368Y-94498475D01*
X132519589Y-94660990D01*
X132789842Y-94772932D01*
X133076740Y-94830000D01*
X133369260Y-94830000D01*
X133656158Y-94772932D01*
X133926411Y-94660990D01*
X134169632Y-94498475D01*
X134376475Y-94291632D01*
X134498195Y-94109466D01*
X134567822Y-94226355D01*
X134762731Y-94442588D01*
X134996080Y-94616641D01*
X135258901Y-94741825D01*
X135406110Y-94786476D01*
X135636000Y-94665155D01*
X135636000Y-93472000D01*
X135616000Y-93472000D01*
X135616000Y-93218000D01*
X135636000Y-93218000D01*
X135636000Y-93198000D01*
X135890000Y-93198000D01*
X135890000Y-93218000D01*
G37*
X135890000Y-93218000D02*
X135910000Y-93218000D01*
X135910000Y-93472000D01*
X135890000Y-93472000D01*
X135890000Y-94665155D01*
X136119890Y-94786476D01*
X136267099Y-94741825D01*
X136529920Y-94616641D01*
X136763269Y-94442588D01*
X136958178Y-94226355D01*
X137027805Y-94109466D01*
X137149525Y-94291632D01*
X137356368Y-94498475D01*
X137599589Y-94660990D01*
X137869842Y-94772932D01*
X138156740Y-94830000D01*
X138449260Y-94830000D01*
X138736158Y-94772932D01*
X139006411Y-94660990D01*
X139249632Y-94498475D01*
X139456475Y-94291632D01*
X139573000Y-94117240D01*
X139689525Y-94291632D01*
X139896368Y-94498475D01*
X140139589Y-94660990D01*
X140409842Y-94772932D01*
X140696740Y-94830000D01*
X140989260Y-94830000D01*
X141276158Y-94772932D01*
X141546411Y-94660990D01*
X141789632Y-94498475D01*
X141921487Y-94366620D01*
X141943498Y-94439180D01*
X142002463Y-94549494D01*
X142081815Y-94646185D01*
X142178506Y-94725537D01*
X142288820Y-94784502D01*
X142408518Y-94820812D01*
X142533000Y-94833072D01*
X144233000Y-94833072D01*
X144357482Y-94820812D01*
X144477180Y-94784502D01*
X144501000Y-94771770D01*
X144501001Y-98967571D01*
X144497807Y-99000000D01*
X144510550Y-99129383D01*
X144548290Y-99253793D01*
X144609575Y-99368450D01*
X144692052Y-99468948D01*
X144792550Y-99551425D01*
X144907207Y-99612710D01*
X145031617Y-99650450D01*
X145128581Y-99660000D01*
X145161000Y-99663193D01*
X145193419Y-99660000D01*
X176408551Y-99660000D01*
X176408489Y-99662406D01*
X176446423Y-99882740D01*
X176526613Y-100091440D01*
X176554412Y-100143450D01*
X176767834Y-100178561D01*
X177286395Y-99660000D01*
X177805605Y-99660000D01*
X178324166Y-100178561D01*
X178537588Y-100143450D01*
X178628458Y-99939174D01*
X178677731Y-99721095D01*
X178679311Y-99660000D01*
X213440001Y-99660000D01*
X213440001Y-104162627D01*
X213302893Y-103957431D01*
X213092569Y-103747107D01*
X212845253Y-103581856D01*
X212570451Y-103468029D01*
X212278722Y-103410000D01*
X211981278Y-103410000D01*
X211689549Y-103468029D01*
X211414747Y-103581856D01*
X211167431Y-103747107D01*
X210957107Y-103957431D01*
X210791856Y-104204747D01*
X210678029Y-104479549D01*
X210620000Y-104771278D01*
X210620000Y-105068722D01*
X210678029Y-105360451D01*
X210791856Y-105635253D01*
X210957107Y-105882569D01*
X211167431Y-106092893D01*
X211414747Y-106258144D01*
X211689549Y-106371971D01*
X211981278Y-106430000D01*
X212278722Y-106430000D01*
X212570451Y-106371971D01*
X212845253Y-106258144D01*
X213092569Y-106092893D01*
X213302893Y-105882569D01*
X213440001Y-105677373D01*
X213440000Y-113340000D01*
X178656379Y-113340000D01*
X178645577Y-113277260D01*
X178565387Y-113068560D01*
X178537588Y-113016550D01*
X178346087Y-112985045D01*
X178427612Y-112903520D01*
X178551824Y-112717624D01*
X178637383Y-112511067D01*
X178681000Y-112291788D01*
X178681000Y-112068212D01*
X178637383Y-111848933D01*
X178551824Y-111642376D01*
X178443328Y-111480000D01*
X178551824Y-111317624D01*
X178637383Y-111111067D01*
X178681000Y-110891788D01*
X178681000Y-110668212D01*
X178637383Y-110448933D01*
X178551824Y-110242376D01*
X178443328Y-110080000D01*
X178551824Y-109917624D01*
X178637383Y-109711067D01*
X178681000Y-109491788D01*
X178681000Y-109268212D01*
X178637383Y-109048933D01*
X178551824Y-108842376D01*
X178483418Y-108740000D01*
X179166199Y-108740000D01*
X180937205Y-110511008D01*
X180960999Y-110540001D01*
X180989992Y-110563795D01*
X180989996Y-110563799D01*
X181039530Y-110604450D01*
X181076724Y-110634974D01*
X181208753Y-110705546D01*
X181352014Y-110749003D01*
X181463667Y-110760000D01*
X181463676Y-110760000D01*
X181500999Y-110763676D01*
X181538322Y-110760000D01*
X188949792Y-110760000D01*
X188980308Y-110833673D01*
X189172919Y-111121935D01*
X189418065Y-111367081D01*
X189706327Y-111559692D01*
X190026627Y-111692364D01*
X190366655Y-111760000D01*
X190713345Y-111760000D01*
X191053373Y-111692364D01*
X191373673Y-111559692D01*
X191661935Y-111367081D01*
X191907081Y-111121935D01*
X192099692Y-110833673D01*
X192130208Y-110760000D01*
X197112678Y-110760000D01*
X197150000Y-110763676D01*
X197187047Y-110760027D01*
X197326842Y-110817932D01*
X197613740Y-110875000D01*
X197906260Y-110875000D01*
X198193158Y-110817932D01*
X198332953Y-110760027D01*
X198369999Y-110763676D01*
X198407322Y-110760000D01*
X207999792Y-110760000D01*
X208030308Y-110833673D01*
X208222919Y-111121935D01*
X208468065Y-111367081D01*
X208756327Y-111559692D01*
X209076627Y-111692364D01*
X209416655Y-111760000D01*
X209763345Y-111760000D01*
X210103373Y-111692364D01*
X210423673Y-111559692D01*
X210711935Y-111367081D01*
X210957081Y-111121935D01*
X211149692Y-110833673D01*
X211282364Y-110513373D01*
X211350000Y-110173345D01*
X211350000Y-109826655D01*
X211282364Y-109486627D01*
X211149692Y-109166327D01*
X210957081Y-108878065D01*
X210711935Y-108632919D01*
X210423673Y-108440308D01*
X210103373Y-108307636D01*
X209763345Y-108240000D01*
X209416655Y-108240000D01*
X209076627Y-108307636D01*
X208756327Y-108440308D01*
X208468065Y-108632919D01*
X208222919Y-108878065D01*
X208030308Y-109166327D01*
X207999792Y-109240000D01*
X199244256Y-109240000D01*
X199187932Y-108956842D01*
X199075990Y-108686589D01*
X198913475Y-108443368D01*
X198706632Y-108236525D01*
X198681901Y-108220000D01*
X201649792Y-108220000D01*
X201680308Y-108293673D01*
X201872919Y-108581935D01*
X202118065Y-108827081D01*
X202406327Y-109019692D01*
X202726627Y-109152364D01*
X203066655Y-109220000D01*
X203413345Y-109220000D01*
X203753373Y-109152364D01*
X204073673Y-109019692D01*
X204361935Y-108827081D01*
X204607081Y-108581935D01*
X204799692Y-108293673D01*
X204932364Y-107973373D01*
X205000000Y-107633345D01*
X205000000Y-107286655D01*
X204932364Y-106946627D01*
X204799692Y-106626327D01*
X204607081Y-106338065D01*
X204361935Y-106092919D01*
X204073673Y-105900308D01*
X203753373Y-105767636D01*
X203413345Y-105700000D01*
X203264882Y-105700000D01*
X203308144Y-105635253D01*
X203421971Y-105360451D01*
X203480000Y-105068722D01*
X203480000Y-104771278D01*
X203458080Y-104661076D01*
X204421100Y-104661076D01*
X204421100Y-105178924D01*
X204522127Y-105686822D01*
X204720299Y-106165251D01*
X205008000Y-106595826D01*
X205374174Y-106962000D01*
X205804749Y-107249701D01*
X206283178Y-107447873D01*
X206791076Y-107548900D01*
X207308924Y-107548900D01*
X207816822Y-107447873D01*
X208295251Y-107249701D01*
X208725826Y-106962000D01*
X209092000Y-106595826D01*
X209379701Y-106165251D01*
X209577873Y-105686822D01*
X209678900Y-105178924D01*
X209678900Y-104661076D01*
X209577873Y-104153178D01*
X209379701Y-103674749D01*
X209092000Y-103244174D01*
X208725826Y-102878000D01*
X208295251Y-102590299D01*
X207816822Y-102392127D01*
X207308924Y-102291100D01*
X206791076Y-102291100D01*
X206283178Y-102392127D01*
X205804749Y-102590299D01*
X205374174Y-102878000D01*
X205008000Y-103244174D01*
X204720299Y-103674749D01*
X204522127Y-104153178D01*
X204421100Y-104661076D01*
X203458080Y-104661076D01*
X203421971Y-104479549D01*
X203308144Y-104204747D01*
X203142893Y-103957431D01*
X202932569Y-103747107D01*
X202685253Y-103581856D01*
X202410451Y-103468029D01*
X202118722Y-103410000D01*
X201821278Y-103410000D01*
X201529549Y-103468029D01*
X201254747Y-103581856D01*
X201007431Y-103747107D01*
X200797107Y-103957431D01*
X200631856Y-104204747D01*
X200518029Y-104479549D01*
X200460000Y-104771278D01*
X200460000Y-105068722D01*
X200518029Y-105360451D01*
X200631856Y-105635253D01*
X200797107Y-105882569D01*
X201007431Y-106092893D01*
X201254747Y-106258144D01*
X201529549Y-106371971D01*
X201812638Y-106428281D01*
X201680308Y-106626327D01*
X201649792Y-106700000D01*
X199244256Y-106700000D01*
X199187932Y-106416842D01*
X199075990Y-106146589D01*
X198913475Y-105903368D01*
X198781620Y-105771513D01*
X198854180Y-105749502D01*
X198964494Y-105690537D01*
X199061185Y-105611185D01*
X199140537Y-105514494D01*
X199199502Y-105404180D01*
X199235812Y-105284482D01*
X199248072Y-105160000D01*
X199248072Y-103460000D01*
X199235812Y-103335518D01*
X199199502Y-103215820D01*
X199140537Y-103105506D01*
X199061185Y-103008815D01*
X198964494Y-102929463D01*
X198854180Y-102870498D01*
X198734482Y-102834188D01*
X198610000Y-102821928D01*
X196910000Y-102821928D01*
X196785518Y-102834188D01*
X196665820Y-102870498D01*
X196555506Y-102929463D01*
X196458815Y-103008815D01*
X196379463Y-103105506D01*
X196320498Y-103215820D01*
X196284188Y-103335518D01*
X196271928Y-103460000D01*
X196271928Y-103897270D01*
X193469199Y-106700000D01*
X189937826Y-106700000D01*
X190042000Y-106595826D01*
X190329701Y-106165251D01*
X190527873Y-105686822D01*
X190628900Y-105178924D01*
X190628900Y-104771278D01*
X191570000Y-104771278D01*
X191570000Y-105068722D01*
X191628029Y-105360451D01*
X191741856Y-105635253D01*
X191907107Y-105882569D01*
X192117431Y-106092893D01*
X192364747Y-106258144D01*
X192639549Y-106371971D01*
X192931278Y-106430000D01*
X193228722Y-106430000D01*
X193520451Y-106371971D01*
X193795253Y-106258144D01*
X194042569Y-106092893D01*
X194252893Y-105882569D01*
X194418144Y-105635253D01*
X194531971Y-105360451D01*
X194590000Y-105068722D01*
X194590000Y-104771278D01*
X194531971Y-104479549D01*
X194418144Y-104204747D01*
X194252893Y-103957431D01*
X194042569Y-103747107D01*
X193795253Y-103581856D01*
X193520451Y-103468029D01*
X193228722Y-103410000D01*
X192931278Y-103410000D01*
X192639549Y-103468029D01*
X192364747Y-103581856D01*
X192117431Y-103747107D01*
X191907107Y-103957431D01*
X191741856Y-104204747D01*
X191628029Y-104479549D01*
X191570000Y-104771278D01*
X190628900Y-104771278D01*
X190628900Y-104661076D01*
X190527873Y-104153178D01*
X190329701Y-103674749D01*
X190042000Y-103244174D01*
X189675826Y-102878000D01*
X189245251Y-102590299D01*
X188766822Y-102392127D01*
X188258924Y-102291100D01*
X187741076Y-102291100D01*
X187233178Y-102392127D01*
X186754749Y-102590299D01*
X186324174Y-102878000D01*
X185958000Y-103244174D01*
X185670299Y-103674749D01*
X185472127Y-104153178D01*
X185371100Y-104661076D01*
X185371100Y-105178924D01*
X185472127Y-105686822D01*
X185670299Y-106165251D01*
X185958000Y-106595826D01*
X186062174Y-106700000D01*
X185780208Y-106700000D01*
X185749692Y-106626327D01*
X185557081Y-106338065D01*
X185311935Y-106092919D01*
X185023673Y-105900308D01*
X184703373Y-105767636D01*
X184363345Y-105700000D01*
X184214882Y-105700000D01*
X184258144Y-105635253D01*
X184371971Y-105360451D01*
X184430000Y-105068722D01*
X184430000Y-104771278D01*
X184371971Y-104479549D01*
X184258144Y-104204747D01*
X184092893Y-103957431D01*
X183882569Y-103747107D01*
X183635253Y-103581856D01*
X183360451Y-103468029D01*
X183068722Y-103410000D01*
X182771278Y-103410000D01*
X182479549Y-103468029D01*
X182204747Y-103581856D01*
X181957431Y-103747107D01*
X181747107Y-103957431D01*
X181581856Y-104204747D01*
X181468029Y-104479549D01*
X181410000Y-104771278D01*
X181410000Y-105068722D01*
X181468029Y-105360451D01*
X181581856Y-105635253D01*
X181747107Y-105882569D01*
X181957431Y-106092893D01*
X182204747Y-106258144D01*
X182479549Y-106371971D01*
X182762638Y-106428281D01*
X182630308Y-106626327D01*
X182497636Y-106946627D01*
X182430000Y-107286655D01*
X182430000Y-107633345D01*
X182497636Y-107973373D01*
X182630308Y-108293673D01*
X182822919Y-108581935D01*
X183068065Y-108827081D01*
X183356327Y-109019692D01*
X183676627Y-109152364D01*
X184016655Y-109220000D01*
X184363345Y-109220000D01*
X184703373Y-109152364D01*
X185023673Y-109019692D01*
X185311935Y-108827081D01*
X185557081Y-108581935D01*
X185749692Y-108293673D01*
X185780208Y-108220000D01*
X193746678Y-108220000D01*
X193784000Y-108223676D01*
X193821322Y-108220000D01*
X193821333Y-108220000D01*
X193932986Y-108209003D01*
X194076247Y-108165546D01*
X194208276Y-108094974D01*
X194324001Y-108000001D01*
X194347804Y-107970997D01*
X196602921Y-105715881D01*
X196665820Y-105749502D01*
X196738380Y-105771513D01*
X196606525Y-105903368D01*
X196444010Y-106146589D01*
X196332068Y-106416842D01*
X196275000Y-106703740D01*
X196275000Y-106996260D01*
X196332068Y-107283158D01*
X196444010Y-107553411D01*
X196606525Y-107796632D01*
X196813368Y-108003475D01*
X196987760Y-108120000D01*
X196813368Y-108236525D01*
X196606525Y-108443368D01*
X196444010Y-108686589D01*
X196332068Y-108956842D01*
X196275744Y-109240000D01*
X192130208Y-109240000D01*
X192099692Y-109166327D01*
X191907081Y-108878065D01*
X191661935Y-108632919D01*
X191373673Y-108440308D01*
X191053373Y-108307636D01*
X190713345Y-108240000D01*
X190366655Y-108240000D01*
X190026627Y-108307636D01*
X189706327Y-108440308D01*
X189418065Y-108632919D01*
X189172919Y-108878065D01*
X188980308Y-109166327D01*
X188949792Y-109240000D01*
X181815803Y-109240000D01*
X180044804Y-107469002D01*
X180021001Y-107439999D01*
X179905276Y-107345026D01*
X179773247Y-107274454D01*
X179629986Y-107230997D01*
X179518333Y-107220000D01*
X179518322Y-107220000D01*
X179481000Y-107216324D01*
X179443678Y-107220000D01*
X178483418Y-107220000D01*
X178551824Y-107117624D01*
X178637383Y-106911067D01*
X178681000Y-106691788D01*
X178681000Y-106468212D01*
X178637383Y-106248933D01*
X178551824Y-106042376D01*
X178427612Y-105856480D01*
X178346087Y-105774955D01*
X178537588Y-105743450D01*
X178628458Y-105539174D01*
X178677731Y-105321095D01*
X178683511Y-105097594D01*
X178645577Y-104877260D01*
X178565387Y-104668560D01*
X178537588Y-104616550D01*
X178324166Y-104581439D01*
X177725605Y-105180000D01*
X177739748Y-105194143D01*
X177560143Y-105373748D01*
X177546000Y-105359605D01*
X177531858Y-105373748D01*
X177352253Y-105194143D01*
X177366395Y-105180000D01*
X176767834Y-104581439D01*
X176554412Y-104616550D01*
X176463542Y-104820826D01*
X176414269Y-105038905D01*
X176408489Y-105262406D01*
X176446423Y-105482740D01*
X176526613Y-105691440D01*
X176554412Y-105743450D01*
X176745913Y-105774955D01*
X176700868Y-105820000D01*
X175901905Y-105820000D01*
X175864580Y-105816324D01*
X175827255Y-105820000D01*
X175827247Y-105820000D01*
X175715594Y-105830997D01*
X175572333Y-105874454D01*
X175440304Y-105945026D01*
X175324579Y-106039999D01*
X175300780Y-106068998D01*
X174890878Y-106478901D01*
X171070127Y-106478901D01*
X171279701Y-106165251D01*
X171477873Y-105686822D01*
X171578900Y-105178924D01*
X171578900Y-104771278D01*
X172520000Y-104771278D01*
X172520000Y-105068722D01*
X172578029Y-105360451D01*
X172691856Y-105635253D01*
X172857107Y-105882569D01*
X173067431Y-106092893D01*
X173314747Y-106258144D01*
X173589549Y-106371971D01*
X173881278Y-106430000D01*
X174178722Y-106430000D01*
X174470451Y-106371971D01*
X174745253Y-106258144D01*
X174992569Y-106092893D01*
X175202893Y-105882569D01*
X175368144Y-105635253D01*
X175481971Y-105360451D01*
X175540000Y-105068722D01*
X175540000Y-104771278D01*
X175481971Y-104479549D01*
X175449781Y-104401834D01*
X176947439Y-104401834D01*
X177025605Y-104480000D01*
X176947439Y-104558166D01*
X176982550Y-104771588D01*
X177186826Y-104862458D01*
X177404905Y-104911731D01*
X177458728Y-104913123D01*
X177546000Y-105000395D01*
X177628983Y-104917412D01*
X177848740Y-104879577D01*
X178057440Y-104799387D01*
X178109450Y-104771588D01*
X178144561Y-104558166D01*
X178066395Y-104480000D01*
X178144561Y-104401834D01*
X178109450Y-104188412D01*
X177905174Y-104097542D01*
X177687095Y-104048269D01*
X177633272Y-104046877D01*
X177546000Y-103959605D01*
X177463017Y-104042588D01*
X177243260Y-104080423D01*
X177034560Y-104160613D01*
X176982550Y-104188412D01*
X176947439Y-104401834D01*
X175449781Y-104401834D01*
X175368144Y-104204747D01*
X175202893Y-103957431D01*
X175107868Y-103862406D01*
X176408489Y-103862406D01*
X176446423Y-104082740D01*
X176526613Y-104291440D01*
X176554412Y-104343450D01*
X176767834Y-104378561D01*
X177366395Y-103780000D01*
X177725605Y-103780000D01*
X178324166Y-104378561D01*
X178537588Y-104343450D01*
X178628458Y-104139174D01*
X178677731Y-103921095D01*
X178683511Y-103697594D01*
X178645577Y-103477260D01*
X178565387Y-103268560D01*
X178537588Y-103216550D01*
X178324166Y-103181439D01*
X177725605Y-103780000D01*
X177366395Y-103780000D01*
X176767834Y-103181439D01*
X176554412Y-103216550D01*
X176463542Y-103420826D01*
X176414269Y-103638905D01*
X176408489Y-103862406D01*
X175107868Y-103862406D01*
X174992569Y-103747107D01*
X174745253Y-103581856D01*
X174470451Y-103468029D01*
X174178722Y-103410000D01*
X173881278Y-103410000D01*
X173589549Y-103468029D01*
X173314747Y-103581856D01*
X173067431Y-103747107D01*
X172857107Y-103957431D01*
X172691856Y-104204747D01*
X172578029Y-104479549D01*
X172520000Y-104771278D01*
X171578900Y-104771278D01*
X171578900Y-104661076D01*
X171477873Y-104153178D01*
X171279701Y-103674749D01*
X170992000Y-103244174D01*
X170749660Y-103001834D01*
X176947439Y-103001834D01*
X177025605Y-103080000D01*
X176947439Y-103158166D01*
X176982550Y-103371588D01*
X177186826Y-103462458D01*
X177404905Y-103511731D01*
X177458728Y-103513123D01*
X177546000Y-103600395D01*
X177628983Y-103517412D01*
X177848740Y-103479577D01*
X178057440Y-103399387D01*
X178109450Y-103371588D01*
X178144561Y-103158166D01*
X178066395Y-103080000D01*
X178144561Y-103001834D01*
X178109450Y-102788412D01*
X177905174Y-102697542D01*
X177687095Y-102648269D01*
X177633272Y-102646877D01*
X177546000Y-102559605D01*
X177463017Y-102642588D01*
X177243260Y-102680423D01*
X177034560Y-102760613D01*
X176982550Y-102788412D01*
X176947439Y-103001834D01*
X170749660Y-103001834D01*
X170625826Y-102878000D01*
X170195251Y-102590299D01*
X169886491Y-102462406D01*
X176408489Y-102462406D01*
X176446423Y-102682740D01*
X176526613Y-102891440D01*
X176554412Y-102943450D01*
X176767834Y-102978561D01*
X177366395Y-102380000D01*
X177725605Y-102380000D01*
X178324166Y-102978561D01*
X178537588Y-102943450D01*
X178628458Y-102739174D01*
X178677731Y-102521095D01*
X178683511Y-102297594D01*
X178645577Y-102077260D01*
X178565387Y-101868560D01*
X178537588Y-101816550D01*
X178324166Y-101781439D01*
X177725605Y-102380000D01*
X177366395Y-102380000D01*
X176767834Y-101781439D01*
X176554412Y-101816550D01*
X176463542Y-102020826D01*
X176414269Y-102238905D01*
X176408489Y-102462406D01*
X169886491Y-102462406D01*
X169716822Y-102392127D01*
X169208924Y-102291100D01*
X168691076Y-102291100D01*
X168183178Y-102392127D01*
X167704749Y-102590299D01*
X167274174Y-102878000D01*
X166908000Y-103244174D01*
X166620299Y-103674749D01*
X166422127Y-104153178D01*
X166323224Y-104650397D01*
X165827739Y-104154912D01*
X165805546Y-104081751D01*
X165734974Y-103949722D01*
X165663799Y-103862995D01*
X165640001Y-103833997D01*
X165611003Y-103810199D01*
X163402638Y-101601834D01*
X176947439Y-101601834D01*
X177025605Y-101680000D01*
X176947439Y-101758166D01*
X176982550Y-101971588D01*
X177186826Y-102062458D01*
X177404905Y-102111731D01*
X177458728Y-102113123D01*
X177546000Y-102200395D01*
X177628983Y-102117412D01*
X177848740Y-102079577D01*
X178057440Y-101999387D01*
X178109450Y-101971588D01*
X178144561Y-101758166D01*
X178066395Y-101680000D01*
X178144561Y-101601834D01*
X178109450Y-101388412D01*
X177905174Y-101297542D01*
X177687095Y-101248269D01*
X177633272Y-101246877D01*
X177546000Y-101159605D01*
X177463017Y-101242588D01*
X177243260Y-101280423D01*
X177034560Y-101360613D01*
X176982550Y-101388412D01*
X176947439Y-101601834D01*
X163402638Y-101601834D01*
X163328792Y-101527989D01*
X163304994Y-101498991D01*
X163273356Y-101473026D01*
X163189269Y-101404017D01*
X163057239Y-101333445D01*
X162938878Y-101297542D01*
X162913979Y-101289989D01*
X162802326Y-101278992D01*
X162764993Y-101275315D01*
X162727661Y-101278992D01*
X157644333Y-101278990D01*
X140202611Y-101278990D01*
X139986027Y-101062406D01*
X176408489Y-101062406D01*
X176446423Y-101282740D01*
X176526613Y-101491440D01*
X176554412Y-101543450D01*
X176767834Y-101578561D01*
X177366395Y-100980000D01*
X177725605Y-100980000D01*
X178324166Y-101578561D01*
X178537588Y-101543450D01*
X178628458Y-101339174D01*
X178677731Y-101121095D01*
X178683511Y-100897594D01*
X178645577Y-100677260D01*
X178565387Y-100468560D01*
X178537588Y-100416550D01*
X178324166Y-100381439D01*
X177725605Y-100980000D01*
X177366395Y-100980000D01*
X176767834Y-100381439D01*
X176554412Y-100416550D01*
X176463542Y-100620826D01*
X176414269Y-100838905D01*
X176408489Y-101062406D01*
X139986027Y-101062406D01*
X139620599Y-100696979D01*
X139596801Y-100667981D01*
X139481076Y-100573008D01*
X139349047Y-100502436D01*
X139205786Y-100458979D01*
X139094133Y-100447982D01*
X139094125Y-100447982D01*
X139056800Y-100444306D01*
X139019477Y-100447982D01*
X135939784Y-100447982D01*
X135693636Y-100201834D01*
X176947439Y-100201834D01*
X177025605Y-100280000D01*
X176947439Y-100358166D01*
X176982550Y-100571588D01*
X177186826Y-100662458D01*
X177404905Y-100711731D01*
X177458728Y-100713123D01*
X177546000Y-100800395D01*
X177628983Y-100717412D01*
X177848740Y-100679577D01*
X178057440Y-100599387D01*
X178109450Y-100571588D01*
X178144561Y-100358166D01*
X178066395Y-100280000D01*
X178144561Y-100201834D01*
X178109450Y-99988412D01*
X177905174Y-99897542D01*
X177687095Y-99848269D01*
X177633272Y-99846877D01*
X177546000Y-99759605D01*
X177463017Y-99842588D01*
X177243260Y-99880423D01*
X177034560Y-99960613D01*
X176982550Y-99988412D01*
X176947439Y-100201834D01*
X135693636Y-100201834D01*
X134872000Y-99380199D01*
X134872000Y-96811322D01*
X134875676Y-96773999D01*
X134872000Y-96736676D01*
X134872000Y-96736667D01*
X134861003Y-96625014D01*
X134817546Y-96481753D01*
X134746974Y-96349724D01*
X134652001Y-96233999D01*
X134623002Y-96210200D01*
X134167803Y-95755002D01*
X134144001Y-95725999D01*
X134028276Y-95631026D01*
X133896247Y-95560454D01*
X133752986Y-95516997D01*
X133641333Y-95506000D01*
X133641322Y-95506000D01*
X133604000Y-95502324D01*
X133566678Y-95506000D01*
X131886802Y-95506000D01*
X131443000Y-95062199D01*
X131443000Y-94623178D01*
X131629632Y-94498475D01*
X131836475Y-94291632D01*
X131953000Y-94117240D01*
X132069525Y-94291632D01*
X132276368Y-94498475D01*
X132519589Y-94660990D01*
X132789842Y-94772932D01*
X133076740Y-94830000D01*
X133369260Y-94830000D01*
X133656158Y-94772932D01*
X133926411Y-94660990D01*
X134169632Y-94498475D01*
X134376475Y-94291632D01*
X134498195Y-94109466D01*
X134567822Y-94226355D01*
X134762731Y-94442588D01*
X134996080Y-94616641D01*
X135258901Y-94741825D01*
X135406110Y-94786476D01*
X135636000Y-94665155D01*
X135636000Y-93472000D01*
X135616000Y-93472000D01*
X135616000Y-93218000D01*
X135636000Y-93218000D01*
X135636000Y-93198000D01*
X135890000Y-93198000D01*
X135890000Y-93218000D01*
G36*
X89686200Y-107951002D02*
G01*
X89709999Y-107980001D01*
X89825724Y-108074974D01*
X89861928Y-108094326D01*
X89861928Y-108290000D01*
X89874188Y-108414482D01*
X89910498Y-108534180D01*
X89969463Y-108644494D01*
X90048815Y-108741185D01*
X90145506Y-108820537D01*
X90255820Y-108879502D01*
X90375518Y-108915812D01*
X90500000Y-108928072D01*
X91542001Y-108928072D01*
X91542001Y-110207648D01*
X91538858Y-110244163D01*
X91545582Y-110304774D01*
X91551551Y-110365383D01*
X91552740Y-110369301D01*
X91553192Y-110373379D01*
X91571611Y-110431510D01*
X91589291Y-110489793D01*
X91591223Y-110493407D01*
X91592461Y-110497315D01*
X91621859Y-110550724D01*
X91650576Y-110604450D01*
X91653174Y-110607616D01*
X91655152Y-110611209D01*
X91694399Y-110657848D01*
X91733053Y-110704948D01*
X91761381Y-110728197D01*
X93112972Y-112046917D01*
X93131052Y-112068948D01*
X93159377Y-112092193D01*
X93162293Y-112095039D01*
X93184450Y-112112771D01*
X93231550Y-112151425D01*
X93235166Y-112153358D01*
X93238365Y-112155918D01*
X93292439Y-112183971D01*
X93346207Y-112212710D01*
X93350132Y-112213901D01*
X93353768Y-112215787D01*
X93412268Y-112232750D01*
X93470617Y-112250450D01*
X93474698Y-112250852D01*
X93478633Y-112251993D01*
X93539314Y-112257216D01*
X93567581Y-112260000D01*
X93571659Y-112260000D01*
X93608163Y-112263142D01*
X93636487Y-112260000D01*
X108467581Y-112260000D01*
X108500000Y-112263193D01*
X108532419Y-112260000D01*
X108629383Y-112250450D01*
X108753793Y-112212710D01*
X108868450Y-112151425D01*
X108968948Y-112068948D01*
X109051425Y-111968450D01*
X109112710Y-111853793D01*
X109150450Y-111729383D01*
X109163193Y-111600000D01*
X109160000Y-111567581D01*
X109160000Y-109324801D01*
X110346201Y-110511003D01*
X110369999Y-110540001D01*
X110485724Y-110634974D01*
X110617753Y-110705546D01*
X110761014Y-110749003D01*
X110872667Y-110760000D01*
X110872677Y-110760000D01*
X110910000Y-110763676D01*
X110947323Y-110760000D01*
X131799792Y-110760000D01*
X131830308Y-110833673D01*
X132022919Y-111121935D01*
X132268065Y-111367081D01*
X132556327Y-111559692D01*
X132876627Y-111692364D01*
X133216655Y-111760000D01*
X133563345Y-111760000D01*
X133903373Y-111692364D01*
X134223673Y-111559692D01*
X134511935Y-111367081D01*
X134757081Y-111121935D01*
X134949692Y-110833673D01*
X134980208Y-110760000D01*
X150849792Y-110760000D01*
X150880308Y-110833673D01*
X151072919Y-111121935D01*
X151318065Y-111367081D01*
X151606327Y-111559692D01*
X151926627Y-111692364D01*
X152266655Y-111760000D01*
X152613345Y-111760000D01*
X152953373Y-111692364D01*
X153273673Y-111559692D01*
X153561935Y-111367081D01*
X153807081Y-111121935D01*
X153999692Y-110833673D01*
X154030208Y-110760000D01*
X169899792Y-110760000D01*
X169930308Y-110833673D01*
X170122919Y-111121935D01*
X170368065Y-111367081D01*
X170656327Y-111559692D01*
X170976627Y-111692364D01*
X171316655Y-111760000D01*
X171663345Y-111760000D01*
X172003373Y-111692364D01*
X172323673Y-111559692D01*
X172611935Y-111367081D01*
X172857081Y-111121935D01*
X173049692Y-110833673D01*
X173078776Y-110763458D01*
X173080990Y-110763676D01*
X173118312Y-110760000D01*
X173118323Y-110760000D01*
X173229976Y-110749003D01*
X173373237Y-110705546D01*
X173505266Y-110634974D01*
X173620991Y-110540001D01*
X173644794Y-110510998D01*
X175415793Y-108740000D01*
X176608582Y-108740000D01*
X176540176Y-108842376D01*
X176454617Y-109048933D01*
X176411000Y-109268212D01*
X176411000Y-109491788D01*
X176454617Y-109711067D01*
X176540176Y-109917624D01*
X176648672Y-110080000D01*
X176540176Y-110242376D01*
X176454617Y-110448933D01*
X176411000Y-110668212D01*
X176411000Y-110891788D01*
X176454617Y-111111067D01*
X176540176Y-111317624D01*
X176648672Y-111480000D01*
X176540176Y-111642376D01*
X176454617Y-111848933D01*
X176411000Y-112068212D01*
X176411000Y-112291788D01*
X176454617Y-112511067D01*
X176540176Y-112717624D01*
X176664388Y-112903520D01*
X176745913Y-112985045D01*
X176554412Y-113016550D01*
X176463542Y-113220826D01*
X176436616Y-113340000D01*
X94184933Y-113340000D01*
X89660000Y-108538032D01*
X89660000Y-107924802D01*
X89686200Y-107951002D01*
G37*
X89686200Y-107951002D02*
X89709999Y-107980001D01*
X89825724Y-108074974D01*
X89861928Y-108094326D01*
X89861928Y-108290000D01*
X89874188Y-108414482D01*
X89910498Y-108534180D01*
X89969463Y-108644494D01*
X90048815Y-108741185D01*
X90145506Y-108820537D01*
X90255820Y-108879502D01*
X90375518Y-108915812D01*
X90500000Y-108928072D01*
X91542001Y-108928072D01*
X91542001Y-110207648D01*
X91538858Y-110244163D01*
X91545582Y-110304774D01*
X91551551Y-110365383D01*
X91552740Y-110369301D01*
X91553192Y-110373379D01*
X91571611Y-110431510D01*
X91589291Y-110489793D01*
X91591223Y-110493407D01*
X91592461Y-110497315D01*
X91621859Y-110550724D01*
X91650576Y-110604450D01*
X91653174Y-110607616D01*
X91655152Y-110611209D01*
X91694399Y-110657848D01*
X91733053Y-110704948D01*
X91761381Y-110728197D01*
X93112972Y-112046917D01*
X93131052Y-112068948D01*
X93159377Y-112092193D01*
X93162293Y-112095039D01*
X93184450Y-112112771D01*
X93231550Y-112151425D01*
X93235166Y-112153358D01*
X93238365Y-112155918D01*
X93292439Y-112183971D01*
X93346207Y-112212710D01*
X93350132Y-112213901D01*
X93353768Y-112215787D01*
X93412268Y-112232750D01*
X93470617Y-112250450D01*
X93474698Y-112250852D01*
X93478633Y-112251993D01*
X93539314Y-112257216D01*
X93567581Y-112260000D01*
X93571659Y-112260000D01*
X93608163Y-112263142D01*
X93636487Y-112260000D01*
X108467581Y-112260000D01*
X108500000Y-112263193D01*
X108532419Y-112260000D01*
X108629383Y-112250450D01*
X108753793Y-112212710D01*
X108868450Y-112151425D01*
X108968948Y-112068948D01*
X109051425Y-111968450D01*
X109112710Y-111853793D01*
X109150450Y-111729383D01*
X109163193Y-111600000D01*
X109160000Y-111567581D01*
X109160000Y-109324801D01*
X110346201Y-110511003D01*
X110369999Y-110540001D01*
X110485724Y-110634974D01*
X110617753Y-110705546D01*
X110761014Y-110749003D01*
X110872667Y-110760000D01*
X110872677Y-110760000D01*
X110910000Y-110763676D01*
X110947323Y-110760000D01*
X131799792Y-110760000D01*
X131830308Y-110833673D01*
X132022919Y-111121935D01*
X132268065Y-111367081D01*
X132556327Y-111559692D01*
X132876627Y-111692364D01*
X133216655Y-111760000D01*
X133563345Y-111760000D01*
X133903373Y-111692364D01*
X134223673Y-111559692D01*
X134511935Y-111367081D01*
X134757081Y-111121935D01*
X134949692Y-110833673D01*
X134980208Y-110760000D01*
X150849792Y-110760000D01*
X150880308Y-110833673D01*
X151072919Y-111121935D01*
X151318065Y-111367081D01*
X151606327Y-111559692D01*
X151926627Y-111692364D01*
X152266655Y-111760000D01*
X152613345Y-111760000D01*
X152953373Y-111692364D01*
X153273673Y-111559692D01*
X153561935Y-111367081D01*
X153807081Y-111121935D01*
X153999692Y-110833673D01*
X154030208Y-110760000D01*
X169899792Y-110760000D01*
X169930308Y-110833673D01*
X170122919Y-111121935D01*
X170368065Y-111367081D01*
X170656327Y-111559692D01*
X170976627Y-111692364D01*
X171316655Y-111760000D01*
X171663345Y-111760000D01*
X172003373Y-111692364D01*
X172323673Y-111559692D01*
X172611935Y-111367081D01*
X172857081Y-111121935D01*
X173049692Y-110833673D01*
X173078776Y-110763458D01*
X173080990Y-110763676D01*
X173118312Y-110760000D01*
X173118323Y-110760000D01*
X173229976Y-110749003D01*
X173373237Y-110705546D01*
X173505266Y-110634974D01*
X173620991Y-110540001D01*
X173644794Y-110510998D01*
X175415793Y-108740000D01*
X176608582Y-108740000D01*
X176540176Y-108842376D01*
X176454617Y-109048933D01*
X176411000Y-109268212D01*
X176411000Y-109491788D01*
X176454617Y-109711067D01*
X176540176Y-109917624D01*
X176648672Y-110080000D01*
X176540176Y-110242376D01*
X176454617Y-110448933D01*
X176411000Y-110668212D01*
X176411000Y-110891788D01*
X176454617Y-111111067D01*
X176540176Y-111317624D01*
X176648672Y-111480000D01*
X176540176Y-111642376D01*
X176454617Y-111848933D01*
X176411000Y-112068212D01*
X176411000Y-112291788D01*
X176454617Y-112511067D01*
X176540176Y-112717624D01*
X176664388Y-112903520D01*
X176745913Y-112985045D01*
X176554412Y-113016550D01*
X176463542Y-113220826D01*
X176436616Y-113340000D01*
X94184933Y-113340000D01*
X89660000Y-108538032D01*
X89660000Y-107924802D01*
X89686200Y-107951002D01*
G36*
X121909525Y-94291632D02*
G01*
X122116368Y-94498475D01*
X122307088Y-94625910D01*
X122313998Y-94696067D01*
X122327180Y-94739523D01*
X122357454Y-94839327D01*
X122428026Y-94971357D01*
X122499201Y-95058083D01*
X122523000Y-95087082D01*
X122551998Y-95110880D01*
X126280000Y-98838883D01*
X126280001Y-103496837D01*
X126210451Y-103468029D01*
X125918722Y-103410000D01*
X125621278Y-103410000D01*
X125329549Y-103468029D01*
X125054747Y-103581856D01*
X124807431Y-103747107D01*
X124597107Y-103957431D01*
X124431856Y-104204747D01*
X124318029Y-104479549D01*
X124260000Y-104771278D01*
X124260000Y-105068722D01*
X124318029Y-105360451D01*
X124431856Y-105635253D01*
X124597107Y-105882569D01*
X124807431Y-106092893D01*
X125054747Y-106258144D01*
X125329549Y-106371971D01*
X125612638Y-106428281D01*
X125480308Y-106626327D01*
X125347636Y-106946627D01*
X125280000Y-107286655D01*
X125280000Y-107633345D01*
X125347636Y-107973373D01*
X125480308Y-108293673D01*
X125672919Y-108581935D01*
X125918065Y-108827081D01*
X126206327Y-109019692D01*
X126526627Y-109152364D01*
X126866655Y-109220000D01*
X127213345Y-109220000D01*
X127553373Y-109152364D01*
X127873673Y-109019692D01*
X128161935Y-108827081D01*
X128407081Y-108581935D01*
X128599692Y-108293673D01*
X128732364Y-107973373D01*
X128800000Y-107633345D01*
X128800000Y-107286655D01*
X128732364Y-106946627D01*
X128599692Y-106626327D01*
X128407081Y-106338065D01*
X128161935Y-106092919D01*
X127873673Y-105900308D01*
X127800000Y-105869792D01*
X127800000Y-102705450D01*
X127829685Y-102729811D01*
X127845724Y-102742974D01*
X127977753Y-102813546D01*
X128121014Y-102857003D01*
X128232667Y-102868000D01*
X128232676Y-102868000D01*
X128269999Y-102871676D01*
X128307322Y-102868000D01*
X129189140Y-102868000D01*
X129174174Y-102878000D01*
X128808000Y-103244174D01*
X128520299Y-103674749D01*
X128322127Y-104153178D01*
X128221100Y-104661076D01*
X128221100Y-105178924D01*
X128322127Y-105686822D01*
X128520299Y-106165251D01*
X128808000Y-106595826D01*
X129174174Y-106962000D01*
X129604749Y-107249701D01*
X130083178Y-107447873D01*
X130591076Y-107548900D01*
X131108924Y-107548900D01*
X131616822Y-107447873D01*
X132095251Y-107249701D01*
X132525826Y-106962000D01*
X132892000Y-106595826D01*
X133179701Y-106165251D01*
X133377873Y-105686822D01*
X133478900Y-105178924D01*
X133478900Y-104771278D01*
X134420000Y-104771278D01*
X134420000Y-105068722D01*
X134478029Y-105360451D01*
X134591856Y-105635253D01*
X134757107Y-105882569D01*
X134967431Y-106092893D01*
X135214747Y-106258144D01*
X135489549Y-106371971D01*
X135781278Y-106430000D01*
X136078722Y-106430000D01*
X136370451Y-106371971D01*
X136645253Y-106258144D01*
X136892569Y-106092893D01*
X137102893Y-105882569D01*
X137268144Y-105635253D01*
X137381971Y-105360451D01*
X137440000Y-105068722D01*
X137440000Y-104771278D01*
X137381971Y-104479549D01*
X137268144Y-104204747D01*
X137102893Y-103957431D01*
X136892569Y-103747107D01*
X136645253Y-103581856D01*
X136370451Y-103468029D01*
X136078722Y-103410000D01*
X135781278Y-103410000D01*
X135489549Y-103468029D01*
X135214747Y-103581856D01*
X134967431Y-103747107D01*
X134757107Y-103957431D01*
X134591856Y-104204747D01*
X134478029Y-104479549D01*
X134420000Y-104771278D01*
X133478900Y-104771278D01*
X133478900Y-104661076D01*
X133377873Y-104153178D01*
X133179701Y-103674749D01*
X132892000Y-103244174D01*
X132525826Y-102878000D01*
X132510860Y-102868000D01*
X138369199Y-102868000D01*
X139194000Y-103692802D01*
X139194001Y-105753668D01*
X139190324Y-105791000D01*
X139194001Y-105828333D01*
X139204998Y-105939986D01*
X139218180Y-105983442D01*
X139248454Y-106083246D01*
X139319026Y-106215276D01*
X139378507Y-106287753D01*
X139414000Y-106331001D01*
X139442998Y-106354799D01*
X141059205Y-107971008D01*
X141082999Y-108000001D01*
X141111992Y-108023795D01*
X141111996Y-108023799D01*
X141173179Y-108074010D01*
X141198724Y-108094974D01*
X141330753Y-108165546D01*
X141474014Y-108209003D01*
X141585667Y-108220000D01*
X141585676Y-108220000D01*
X141622999Y-108223676D01*
X141660322Y-108220000D01*
X144499792Y-108220000D01*
X144530308Y-108293673D01*
X144722919Y-108581935D01*
X144968065Y-108827081D01*
X145256327Y-109019692D01*
X145576627Y-109152364D01*
X145916655Y-109220000D01*
X146263345Y-109220000D01*
X146603373Y-109152364D01*
X146923673Y-109019692D01*
X147211935Y-108827081D01*
X147457081Y-108581935D01*
X147649692Y-108293673D01*
X147782364Y-107973373D01*
X147850000Y-107633345D01*
X147850000Y-107286655D01*
X147782364Y-106946627D01*
X147649692Y-106626327D01*
X147457081Y-106338065D01*
X147211935Y-106092919D01*
X146923673Y-105900308D01*
X146603373Y-105767636D01*
X146263345Y-105700000D01*
X146114882Y-105700000D01*
X146158144Y-105635253D01*
X146271971Y-105360451D01*
X146330000Y-105068722D01*
X146330000Y-104771278D01*
X146271971Y-104479549D01*
X146158144Y-104204747D01*
X145992893Y-103957431D01*
X145782569Y-103747107D01*
X145535253Y-103581856D01*
X145260451Y-103468029D01*
X144968722Y-103410000D01*
X144671278Y-103410000D01*
X144379549Y-103468029D01*
X144104747Y-103581856D01*
X143857431Y-103747107D01*
X143647107Y-103957431D01*
X143481856Y-104204747D01*
X143368029Y-104479549D01*
X143310000Y-104771278D01*
X143310000Y-105068722D01*
X143368029Y-105360451D01*
X143481856Y-105635253D01*
X143647107Y-105882569D01*
X143857431Y-106092893D01*
X144104747Y-106258144D01*
X144379549Y-106371971D01*
X144662638Y-106428281D01*
X144530308Y-106626327D01*
X144499792Y-106700000D01*
X141937803Y-106700000D01*
X140714000Y-105476199D01*
X140714000Y-103415322D01*
X140717676Y-103377999D01*
X140714000Y-103340676D01*
X140714000Y-103340667D01*
X140704971Y-103249000D01*
X147854775Y-103249000D01*
X147570299Y-103674749D01*
X147372127Y-104153178D01*
X147271100Y-104661076D01*
X147271100Y-105178924D01*
X147372127Y-105686822D01*
X147570299Y-106165251D01*
X147858000Y-106595826D01*
X148224174Y-106962000D01*
X148654749Y-107249701D01*
X149133178Y-107447873D01*
X149641076Y-107548900D01*
X150158924Y-107548900D01*
X150666822Y-107447873D01*
X151145251Y-107249701D01*
X151575826Y-106962000D01*
X151942000Y-106595826D01*
X152229701Y-106165251D01*
X152427873Y-105686822D01*
X152528900Y-105178924D01*
X152528900Y-104771278D01*
X153470000Y-104771278D01*
X153470000Y-105068722D01*
X153528029Y-105360451D01*
X153641856Y-105635253D01*
X153807107Y-105882569D01*
X154017431Y-106092893D01*
X154264747Y-106258144D01*
X154539549Y-106371971D01*
X154831278Y-106430000D01*
X155128722Y-106430000D01*
X155420451Y-106371971D01*
X155695253Y-106258144D01*
X155942569Y-106092893D01*
X156152893Y-105882569D01*
X156318144Y-105635253D01*
X156431971Y-105360451D01*
X156490000Y-105068722D01*
X156490000Y-104771278D01*
X156431971Y-104479549D01*
X156318144Y-104204747D01*
X156152893Y-103957431D01*
X155942569Y-103747107D01*
X155695253Y-103581856D01*
X155420451Y-103468029D01*
X155128722Y-103410000D01*
X154831278Y-103410000D01*
X154539549Y-103468029D01*
X154264747Y-103581856D01*
X154017431Y-103747107D01*
X153807107Y-103957431D01*
X153641856Y-104204747D01*
X153528029Y-104479549D01*
X153470000Y-104771278D01*
X152528900Y-104771278D01*
X152528900Y-104661076D01*
X152427873Y-104153178D01*
X152229701Y-103674749D01*
X151945225Y-103249000D01*
X157800199Y-103249000D01*
X158625000Y-104073802D01*
X158625001Y-106388668D01*
X158621324Y-106426000D01*
X158625001Y-106463333D01*
X158635998Y-106574986D01*
X158642320Y-106595826D01*
X158679454Y-106718246D01*
X158750026Y-106850276D01*
X158821201Y-106937002D01*
X158845000Y-106966001D01*
X158873998Y-106989799D01*
X159855201Y-107971003D01*
X159878999Y-108000001D01*
X159994724Y-108094974D01*
X160126753Y-108165546D01*
X160270014Y-108209003D01*
X160381667Y-108220000D01*
X160381677Y-108220000D01*
X160419000Y-108223676D01*
X160456323Y-108220000D01*
X163549792Y-108220000D01*
X163580308Y-108293673D01*
X163772919Y-108581935D01*
X164018065Y-108827081D01*
X164306327Y-109019692D01*
X164626627Y-109152364D01*
X164966655Y-109220000D01*
X165313345Y-109220000D01*
X165653373Y-109152364D01*
X165973673Y-109019692D01*
X166261935Y-108827081D01*
X166507081Y-108581935D01*
X166699692Y-108293673D01*
X166832364Y-107973373D01*
X166900000Y-107633345D01*
X166900000Y-107376776D01*
X167273128Y-107749904D01*
X167296926Y-107778902D01*
X167412651Y-107873875D01*
X167544680Y-107944447D01*
X167687941Y-107987904D01*
X167799594Y-107998901D01*
X167799603Y-107998901D01*
X167836926Y-108002577D01*
X167874249Y-107998901D01*
X174007287Y-107998901D01*
X172965646Y-109040543D01*
X172857081Y-108878065D01*
X172611935Y-108632919D01*
X172323673Y-108440308D01*
X172003373Y-108307636D01*
X171663345Y-108240000D01*
X171316655Y-108240000D01*
X170976627Y-108307636D01*
X170656327Y-108440308D01*
X170368065Y-108632919D01*
X170122919Y-108878065D01*
X169930308Y-109166327D01*
X169899792Y-109240000D01*
X154030208Y-109240000D01*
X153999692Y-109166327D01*
X153807081Y-108878065D01*
X153561935Y-108632919D01*
X153273673Y-108440308D01*
X152953373Y-108307636D01*
X152613345Y-108240000D01*
X152266655Y-108240000D01*
X151926627Y-108307636D01*
X151606327Y-108440308D01*
X151318065Y-108632919D01*
X151072919Y-108878065D01*
X150880308Y-109166327D01*
X150849792Y-109240000D01*
X134980208Y-109240000D01*
X134949692Y-109166327D01*
X134757081Y-108878065D01*
X134511935Y-108632919D01*
X134223673Y-108440308D01*
X133903373Y-108307636D01*
X133563345Y-108240000D01*
X133216655Y-108240000D01*
X132876627Y-108307636D01*
X132556327Y-108440308D01*
X132268065Y-108632919D01*
X132022919Y-108878065D01*
X131830308Y-109166327D01*
X131799792Y-109240000D01*
X111224802Y-109240000D01*
X110737345Y-108752543D01*
X110751185Y-108741185D01*
X110830537Y-108644494D01*
X110889502Y-108534180D01*
X110925812Y-108414482D01*
X110938072Y-108290000D01*
X110938072Y-106590000D01*
X110925812Y-106465518D01*
X110889502Y-106345820D01*
X110830537Y-106235506D01*
X110751185Y-106138815D01*
X110654494Y-106059463D01*
X110544180Y-106000498D01*
X110424482Y-105964188D01*
X110300000Y-105951928D01*
X109160000Y-105951928D01*
X109160000Y-103848072D01*
X110300000Y-103848072D01*
X110424482Y-103835812D01*
X110544180Y-103799502D01*
X110654494Y-103740537D01*
X110751185Y-103661185D01*
X110830537Y-103564494D01*
X110889502Y-103454180D01*
X110925812Y-103334482D01*
X110938072Y-103210000D01*
X110938072Y-101510000D01*
X110925812Y-101385518D01*
X110889502Y-101265820D01*
X110830537Y-101155506D01*
X110751185Y-101058815D01*
X110654494Y-100979463D01*
X110544180Y-100920498D01*
X110424482Y-100884188D01*
X110300000Y-100871928D01*
X110210000Y-100871928D01*
X110210000Y-100414801D01*
X113021793Y-97603010D01*
X119146668Y-97603010D01*
X119183990Y-97606686D01*
X119221312Y-97603010D01*
X119221323Y-97603010D01*
X119332976Y-97592013D01*
X119476237Y-97548556D01*
X119608266Y-97477984D01*
X119723991Y-97383011D01*
X119747794Y-97354007D01*
X121034004Y-96067798D01*
X121063001Y-96044001D01*
X121090640Y-96010323D01*
X121157974Y-95928277D01*
X121228546Y-95796247D01*
X121261547Y-95687454D01*
X121272003Y-95652986D01*
X121283000Y-95541333D01*
X121283000Y-95541324D01*
X121286676Y-95504001D01*
X121283000Y-95466678D01*
X121283000Y-94623178D01*
X121469632Y-94498475D01*
X121676475Y-94291632D01*
X121793000Y-94117240D01*
X121909525Y-94291632D01*
G37*
X121909525Y-94291632D02*
X122116368Y-94498475D01*
X122307088Y-94625910D01*
X122313998Y-94696067D01*
X122327180Y-94739523D01*
X122357454Y-94839327D01*
X122428026Y-94971357D01*
X122499201Y-95058083D01*
X122523000Y-95087082D01*
X122551998Y-95110880D01*
X126280000Y-98838883D01*
X126280001Y-103496837D01*
X126210451Y-103468029D01*
X125918722Y-103410000D01*
X125621278Y-103410000D01*
X125329549Y-103468029D01*
X125054747Y-103581856D01*
X124807431Y-103747107D01*
X124597107Y-103957431D01*
X124431856Y-104204747D01*
X124318029Y-104479549D01*
X124260000Y-104771278D01*
X124260000Y-105068722D01*
X124318029Y-105360451D01*
X124431856Y-105635253D01*
X124597107Y-105882569D01*
X124807431Y-106092893D01*
X125054747Y-106258144D01*
X125329549Y-106371971D01*
X125612638Y-106428281D01*
X125480308Y-106626327D01*
X125347636Y-106946627D01*
X125280000Y-107286655D01*
X125280000Y-107633345D01*
X125347636Y-107973373D01*
X125480308Y-108293673D01*
X125672919Y-108581935D01*
X125918065Y-108827081D01*
X126206327Y-109019692D01*
X126526627Y-109152364D01*
X126866655Y-109220000D01*
X127213345Y-109220000D01*
X127553373Y-109152364D01*
X127873673Y-109019692D01*
X128161935Y-108827081D01*
X128407081Y-108581935D01*
X128599692Y-108293673D01*
X128732364Y-107973373D01*
X128800000Y-107633345D01*
X128800000Y-107286655D01*
X128732364Y-106946627D01*
X128599692Y-106626327D01*
X128407081Y-106338065D01*
X128161935Y-106092919D01*
X127873673Y-105900308D01*
X127800000Y-105869792D01*
X127800000Y-102705450D01*
X127829685Y-102729811D01*
X127845724Y-102742974D01*
X127977753Y-102813546D01*
X128121014Y-102857003D01*
X128232667Y-102868000D01*
X128232676Y-102868000D01*
X128269999Y-102871676D01*
X128307322Y-102868000D01*
X129189140Y-102868000D01*
X129174174Y-102878000D01*
X128808000Y-103244174D01*
X128520299Y-103674749D01*
X128322127Y-104153178D01*
X128221100Y-104661076D01*
X128221100Y-105178924D01*
X128322127Y-105686822D01*
X128520299Y-106165251D01*
X128808000Y-106595826D01*
X129174174Y-106962000D01*
X129604749Y-107249701D01*
X130083178Y-107447873D01*
X130591076Y-107548900D01*
X131108924Y-107548900D01*
X131616822Y-107447873D01*
X132095251Y-107249701D01*
X132525826Y-106962000D01*
X132892000Y-106595826D01*
X133179701Y-106165251D01*
X133377873Y-105686822D01*
X133478900Y-105178924D01*
X133478900Y-104771278D01*
X134420000Y-104771278D01*
X134420000Y-105068722D01*
X134478029Y-105360451D01*
X134591856Y-105635253D01*
X134757107Y-105882569D01*
X134967431Y-106092893D01*
X135214747Y-106258144D01*
X135489549Y-106371971D01*
X135781278Y-106430000D01*
X136078722Y-106430000D01*
X136370451Y-106371971D01*
X136645253Y-106258144D01*
X136892569Y-106092893D01*
X137102893Y-105882569D01*
X137268144Y-105635253D01*
X137381971Y-105360451D01*
X137440000Y-105068722D01*
X137440000Y-104771278D01*
X137381971Y-104479549D01*
X137268144Y-104204747D01*
X137102893Y-103957431D01*
X136892569Y-103747107D01*
X136645253Y-103581856D01*
X136370451Y-103468029D01*
X136078722Y-103410000D01*
X135781278Y-103410000D01*
X135489549Y-103468029D01*
X135214747Y-103581856D01*
X134967431Y-103747107D01*
X134757107Y-103957431D01*
X134591856Y-104204747D01*
X134478029Y-104479549D01*
X134420000Y-104771278D01*
X133478900Y-104771278D01*
X133478900Y-104661076D01*
X133377873Y-104153178D01*
X133179701Y-103674749D01*
X132892000Y-103244174D01*
X132525826Y-102878000D01*
X132510860Y-102868000D01*
X138369199Y-102868000D01*
X139194000Y-103692802D01*
X139194001Y-105753668D01*
X139190324Y-105791000D01*
X139194001Y-105828333D01*
X139204998Y-105939986D01*
X139218180Y-105983442D01*
X139248454Y-106083246D01*
X139319026Y-106215276D01*
X139378507Y-106287753D01*
X139414000Y-106331001D01*
X139442998Y-106354799D01*
X141059205Y-107971008D01*
X141082999Y-108000001D01*
X141111992Y-108023795D01*
X141111996Y-108023799D01*
X141173179Y-108074010D01*
X141198724Y-108094974D01*
X141330753Y-108165546D01*
X141474014Y-108209003D01*
X141585667Y-108220000D01*
X141585676Y-108220000D01*
X141622999Y-108223676D01*
X141660322Y-108220000D01*
X144499792Y-108220000D01*
X144530308Y-108293673D01*
X144722919Y-108581935D01*
X144968065Y-108827081D01*
X145256327Y-109019692D01*
X145576627Y-109152364D01*
X145916655Y-109220000D01*
X146263345Y-109220000D01*
X146603373Y-109152364D01*
X146923673Y-109019692D01*
X147211935Y-108827081D01*
X147457081Y-108581935D01*
X147649692Y-108293673D01*
X147782364Y-107973373D01*
X147850000Y-107633345D01*
X147850000Y-107286655D01*
X147782364Y-106946627D01*
X147649692Y-106626327D01*
X147457081Y-106338065D01*
X147211935Y-106092919D01*
X146923673Y-105900308D01*
X146603373Y-105767636D01*
X146263345Y-105700000D01*
X146114882Y-105700000D01*
X146158144Y-105635253D01*
X146271971Y-105360451D01*
X146330000Y-105068722D01*
X146330000Y-104771278D01*
X146271971Y-104479549D01*
X146158144Y-104204747D01*
X145992893Y-103957431D01*
X145782569Y-103747107D01*
X145535253Y-103581856D01*
X145260451Y-103468029D01*
X144968722Y-103410000D01*
X144671278Y-103410000D01*
X144379549Y-103468029D01*
X144104747Y-103581856D01*
X143857431Y-103747107D01*
X143647107Y-103957431D01*
X143481856Y-104204747D01*
X143368029Y-104479549D01*
X143310000Y-104771278D01*
X143310000Y-105068722D01*
X143368029Y-105360451D01*
X143481856Y-105635253D01*
X143647107Y-105882569D01*
X143857431Y-106092893D01*
X144104747Y-106258144D01*
X144379549Y-106371971D01*
X144662638Y-106428281D01*
X144530308Y-106626327D01*
X144499792Y-106700000D01*
X141937803Y-106700000D01*
X140714000Y-105476199D01*
X140714000Y-103415322D01*
X140717676Y-103377999D01*
X140714000Y-103340676D01*
X140714000Y-103340667D01*
X140704971Y-103249000D01*
X147854775Y-103249000D01*
X147570299Y-103674749D01*
X147372127Y-104153178D01*
X147271100Y-104661076D01*
X147271100Y-105178924D01*
X147372127Y-105686822D01*
X147570299Y-106165251D01*
X147858000Y-106595826D01*
X148224174Y-106962000D01*
X148654749Y-107249701D01*
X149133178Y-107447873D01*
X149641076Y-107548900D01*
X150158924Y-107548900D01*
X150666822Y-107447873D01*
X151145251Y-107249701D01*
X151575826Y-106962000D01*
X151942000Y-106595826D01*
X152229701Y-106165251D01*
X152427873Y-105686822D01*
X152528900Y-105178924D01*
X152528900Y-104771278D01*
X153470000Y-104771278D01*
X153470000Y-105068722D01*
X153528029Y-105360451D01*
X153641856Y-105635253D01*
X153807107Y-105882569D01*
X154017431Y-106092893D01*
X154264747Y-106258144D01*
X154539549Y-106371971D01*
X154831278Y-106430000D01*
X155128722Y-106430000D01*
X155420451Y-106371971D01*
X155695253Y-106258144D01*
X155942569Y-106092893D01*
X156152893Y-105882569D01*
X156318144Y-105635253D01*
X156431971Y-105360451D01*
X156490000Y-105068722D01*
X156490000Y-104771278D01*
X156431971Y-104479549D01*
X156318144Y-104204747D01*
X156152893Y-103957431D01*
X155942569Y-103747107D01*
X155695253Y-103581856D01*
X155420451Y-103468029D01*
X155128722Y-103410000D01*
X154831278Y-103410000D01*
X154539549Y-103468029D01*
X154264747Y-103581856D01*
X154017431Y-103747107D01*
X153807107Y-103957431D01*
X153641856Y-104204747D01*
X153528029Y-104479549D01*
X153470000Y-104771278D01*
X152528900Y-104771278D01*
X152528900Y-104661076D01*
X152427873Y-104153178D01*
X152229701Y-103674749D01*
X151945225Y-103249000D01*
X157800199Y-103249000D01*
X158625000Y-104073802D01*
X158625001Y-106388668D01*
X158621324Y-106426000D01*
X158625001Y-106463333D01*
X158635998Y-106574986D01*
X158642320Y-106595826D01*
X158679454Y-106718246D01*
X158750026Y-106850276D01*
X158821201Y-106937002D01*
X158845000Y-106966001D01*
X158873998Y-106989799D01*
X159855201Y-107971003D01*
X159878999Y-108000001D01*
X159994724Y-108094974D01*
X160126753Y-108165546D01*
X160270014Y-108209003D01*
X160381667Y-108220000D01*
X160381677Y-108220000D01*
X160419000Y-108223676D01*
X160456323Y-108220000D01*
X163549792Y-108220000D01*
X163580308Y-108293673D01*
X163772919Y-108581935D01*
X164018065Y-108827081D01*
X164306327Y-109019692D01*
X164626627Y-109152364D01*
X164966655Y-109220000D01*
X165313345Y-109220000D01*
X165653373Y-109152364D01*
X165973673Y-109019692D01*
X166261935Y-108827081D01*
X166507081Y-108581935D01*
X166699692Y-108293673D01*
X166832364Y-107973373D01*
X166900000Y-107633345D01*
X166900000Y-107376776D01*
X167273128Y-107749904D01*
X167296926Y-107778902D01*
X167412651Y-107873875D01*
X167544680Y-107944447D01*
X167687941Y-107987904D01*
X167799594Y-107998901D01*
X167799603Y-107998901D01*
X167836926Y-108002577D01*
X167874249Y-107998901D01*
X174007287Y-107998901D01*
X172965646Y-109040543D01*
X172857081Y-108878065D01*
X172611935Y-108632919D01*
X172323673Y-108440308D01*
X172003373Y-108307636D01*
X171663345Y-108240000D01*
X171316655Y-108240000D01*
X170976627Y-108307636D01*
X170656327Y-108440308D01*
X170368065Y-108632919D01*
X170122919Y-108878065D01*
X169930308Y-109166327D01*
X169899792Y-109240000D01*
X154030208Y-109240000D01*
X153999692Y-109166327D01*
X153807081Y-108878065D01*
X153561935Y-108632919D01*
X153273673Y-108440308D01*
X152953373Y-108307636D01*
X152613345Y-108240000D01*
X152266655Y-108240000D01*
X151926627Y-108307636D01*
X151606327Y-108440308D01*
X151318065Y-108632919D01*
X151072919Y-108878065D01*
X150880308Y-109166327D01*
X150849792Y-109240000D01*
X134980208Y-109240000D01*
X134949692Y-109166327D01*
X134757081Y-108878065D01*
X134511935Y-108632919D01*
X134223673Y-108440308D01*
X133903373Y-108307636D01*
X133563345Y-108240000D01*
X133216655Y-108240000D01*
X132876627Y-108307636D01*
X132556327Y-108440308D01*
X132268065Y-108632919D01*
X132022919Y-108878065D01*
X131830308Y-109166327D01*
X131799792Y-109240000D01*
X111224802Y-109240000D01*
X110737345Y-108752543D01*
X110751185Y-108741185D01*
X110830537Y-108644494D01*
X110889502Y-108534180D01*
X110925812Y-108414482D01*
X110938072Y-108290000D01*
X110938072Y-106590000D01*
X110925812Y-106465518D01*
X110889502Y-106345820D01*
X110830537Y-106235506D01*
X110751185Y-106138815D01*
X110654494Y-106059463D01*
X110544180Y-106000498D01*
X110424482Y-105964188D01*
X110300000Y-105951928D01*
X109160000Y-105951928D01*
X109160000Y-103848072D01*
X110300000Y-103848072D01*
X110424482Y-103835812D01*
X110544180Y-103799502D01*
X110654494Y-103740537D01*
X110751185Y-103661185D01*
X110830537Y-103564494D01*
X110889502Y-103454180D01*
X110925812Y-103334482D01*
X110938072Y-103210000D01*
X110938072Y-101510000D01*
X110925812Y-101385518D01*
X110889502Y-101265820D01*
X110830537Y-101155506D01*
X110751185Y-101058815D01*
X110654494Y-100979463D01*
X110544180Y-100920498D01*
X110424482Y-100884188D01*
X110300000Y-100871928D01*
X110210000Y-100871928D01*
X110210000Y-100414801D01*
X113021793Y-97603010D01*
X119146668Y-97603010D01*
X119183990Y-97606686D01*
X119221312Y-97603010D01*
X119221323Y-97603010D01*
X119332976Y-97592013D01*
X119476237Y-97548556D01*
X119608266Y-97477984D01*
X119723991Y-97383011D01*
X119747794Y-97354007D01*
X121034004Y-96067798D01*
X121063001Y-96044001D01*
X121090640Y-96010323D01*
X121157974Y-95928277D01*
X121228546Y-95796247D01*
X121261547Y-95687454D01*
X121272003Y-95652986D01*
X121283000Y-95541333D01*
X121283000Y-95541324D01*
X121286676Y-95504001D01*
X121283000Y-95466678D01*
X121283000Y-94623178D01*
X121469632Y-94498475D01*
X121676475Y-94291632D01*
X121793000Y-94117240D01*
X121909525Y-94291632D01*
G36*
X162450192Y-102798991D02*
G01*
X163210120Y-103558920D01*
X163154747Y-103581856D01*
X162907431Y-103747107D01*
X162697107Y-103957431D01*
X162531856Y-104204747D01*
X162418029Y-104479549D01*
X162360000Y-104771278D01*
X162360000Y-105068722D01*
X162418029Y-105360451D01*
X162531856Y-105635253D01*
X162697107Y-105882569D01*
X162907431Y-106092893D01*
X163154747Y-106258144D01*
X163429549Y-106371971D01*
X163712638Y-106428281D01*
X163580308Y-106626327D01*
X163549792Y-106700000D01*
X160733802Y-106700000D01*
X160145000Y-106111199D01*
X160145000Y-103796322D01*
X160148676Y-103758999D01*
X160145000Y-103721676D01*
X160145000Y-103721667D01*
X160134003Y-103610014D01*
X160090546Y-103466753D01*
X160019974Y-103334724D01*
X159925001Y-103218999D01*
X159896004Y-103195202D01*
X159499791Y-102798990D01*
X162450192Y-102798991D01*
G37*
X162450192Y-102798991D02*
X163210120Y-103558920D01*
X163154747Y-103581856D01*
X162907431Y-103747107D01*
X162697107Y-103957431D01*
X162531856Y-104204747D01*
X162418029Y-104479549D01*
X162360000Y-104771278D01*
X162360000Y-105068722D01*
X162418029Y-105360451D01*
X162531856Y-105635253D01*
X162697107Y-105882569D01*
X162907431Y-106092893D01*
X163154747Y-106258144D01*
X163429549Y-106371971D01*
X163712638Y-106428281D01*
X163580308Y-106626327D01*
X163549792Y-106700000D01*
X160733802Y-106700000D01*
X160145000Y-106111199D01*
X160145000Y-103796322D01*
X160148676Y-103758999D01*
X160145000Y-103721676D01*
X160145000Y-103721667D01*
X160134003Y-103610014D01*
X160090546Y-103466753D01*
X160019974Y-103334724D01*
X159925001Y-103218999D01*
X159896004Y-103195202D01*
X159499791Y-102798990D01*
X162450192Y-102798991D01*
G36*
X91477000Y-104773000D02*
G01*
X91497000Y-104773000D01*
X91497000Y-105027000D01*
X91477000Y-105027000D01*
X91477000Y-105047000D01*
X91223000Y-105047000D01*
X91223000Y-105027000D01*
X91203000Y-105027000D01*
X91203000Y-104773000D01*
X91223000Y-104773000D01*
X91223000Y-104753000D01*
X91477000Y-104753000D01*
X91477000Y-104773000D01*
G37*
X91477000Y-104773000D02*
X91497000Y-104773000D01*
X91497000Y-105027000D01*
X91477000Y-105027000D01*
X91477000Y-105047000D01*
X91223000Y-105047000D01*
X91223000Y-105027000D01*
X91203000Y-105027000D01*
X91203000Y-104773000D01*
X91223000Y-104773000D01*
X91223000Y-104753000D01*
X91477000Y-104753000D01*
X91477000Y-104773000D01*
G36*
X129529525Y-94291632D02*
G01*
X129736368Y-94498475D01*
X129923000Y-94623179D01*
X129923000Y-95339677D01*
X129919324Y-95377000D01*
X129923000Y-95414322D01*
X129923000Y-95414332D01*
X129933997Y-95525985D01*
X129969795Y-95643997D01*
X129977454Y-95669246D01*
X130048026Y-95801276D01*
X130070944Y-95829201D01*
X130142999Y-95917001D01*
X130172002Y-95940803D01*
X131008200Y-96777002D01*
X131031999Y-96806001D01*
X131147724Y-96900974D01*
X131279753Y-96971546D01*
X131423014Y-97015003D01*
X131534667Y-97026000D01*
X131534677Y-97026000D01*
X131572000Y-97029676D01*
X131609323Y-97026000D01*
X133289199Y-97026000D01*
X133352001Y-97088802D01*
X133352000Y-99657677D01*
X133348324Y-99695000D01*
X133352000Y-99732322D01*
X133352000Y-99732332D01*
X133362997Y-99843985D01*
X133395464Y-99951015D01*
X133406454Y-99987246D01*
X133477026Y-100119276D01*
X133516871Y-100167826D01*
X133571999Y-100235001D01*
X133601003Y-100258804D01*
X134240190Y-100897991D01*
X128771202Y-100897990D01*
X128700020Y-100826809D01*
X128700020Y-98563263D01*
X128777974Y-98468276D01*
X128848546Y-98336247D01*
X128892003Y-98192986D01*
X128903000Y-98081333D01*
X128903000Y-98081324D01*
X128906676Y-98044001D01*
X128903000Y-98006678D01*
X128903000Y-94623178D01*
X129089632Y-94498475D01*
X129296475Y-94291632D01*
X129413000Y-94117240D01*
X129529525Y-94291632D01*
G37*
X129529525Y-94291632D02*
X129736368Y-94498475D01*
X129923000Y-94623179D01*
X129923000Y-95339677D01*
X129919324Y-95377000D01*
X129923000Y-95414322D01*
X129923000Y-95414332D01*
X129933997Y-95525985D01*
X129969795Y-95643997D01*
X129977454Y-95669246D01*
X130048026Y-95801276D01*
X130070944Y-95829201D01*
X130142999Y-95917001D01*
X130172002Y-95940803D01*
X131008200Y-96777002D01*
X131031999Y-96806001D01*
X131147724Y-96900974D01*
X131279753Y-96971546D01*
X131423014Y-97015003D01*
X131534667Y-97026000D01*
X131534677Y-97026000D01*
X131572000Y-97029676D01*
X131609323Y-97026000D01*
X133289199Y-97026000D01*
X133352001Y-97088802D01*
X133352000Y-99657677D01*
X133348324Y-99695000D01*
X133352000Y-99732322D01*
X133352000Y-99732332D01*
X133362997Y-99843985D01*
X133395464Y-99951015D01*
X133406454Y-99987246D01*
X133477026Y-100119276D01*
X133516871Y-100167826D01*
X133571999Y-100235001D01*
X133601003Y-100258804D01*
X134240190Y-100897991D01*
X128771202Y-100897990D01*
X128700020Y-100826809D01*
X128700020Y-98563263D01*
X128777974Y-98468276D01*
X128848546Y-98336247D01*
X128892003Y-98192986D01*
X128903000Y-98081333D01*
X128903000Y-98081324D01*
X128906676Y-98044001D01*
X128903000Y-98006678D01*
X128903000Y-94623178D01*
X129089632Y-94498475D01*
X129296475Y-94291632D01*
X129413000Y-94117240D01*
X129529525Y-94291632D01*
G36*
X109160000Y-99315199D02*
G01*
X109160000Y-98232419D01*
X109163193Y-98200000D01*
X109150450Y-98070617D01*
X109112710Y-97946207D01*
X109051425Y-97831550D01*
X108968948Y-97731052D01*
X108868450Y-97648575D01*
X108753793Y-97587290D01*
X108629383Y-97549550D01*
X108532419Y-97540000D01*
X108500000Y-97536807D01*
X108467581Y-97540000D01*
X94161802Y-97540000D01*
X94548802Y-97153000D01*
X111322198Y-97153000D01*
X109160000Y-99315199D01*
G37*
X109160000Y-99315199D02*
X109160000Y-98232419D01*
X109163193Y-98200000D01*
X109150450Y-98070617D01*
X109112710Y-97946207D01*
X109051425Y-97831550D01*
X108968948Y-97731052D01*
X108868450Y-97648575D01*
X108753793Y-97587290D01*
X108629383Y-97549550D01*
X108532419Y-97540000D01*
X108500000Y-97536807D01*
X108467581Y-97540000D01*
X94161802Y-97540000D01*
X94548802Y-97153000D01*
X111322198Y-97153000D01*
X109160000Y-99315199D01*
G36*
X126989525Y-94291632D02*
G01*
X127196368Y-94498475D01*
X127383000Y-94623179D01*
X127383001Y-97155870D01*
X126363000Y-96135870D01*
X126363000Y-94623178D01*
X126549632Y-94498475D01*
X126756475Y-94291632D01*
X126873000Y-94117240D01*
X126989525Y-94291632D01*
G37*
X126989525Y-94291632D02*
X127196368Y-94498475D01*
X127383000Y-94623179D01*
X127383001Y-97155870D01*
X126363000Y-96135870D01*
X126363000Y-94623178D01*
X126549632Y-94498475D01*
X126756475Y-94291632D01*
X126873000Y-94117240D01*
X126989525Y-94291632D01*
G36*
X114289525Y-92398368D02*
G01*
X114127010Y-92641589D01*
X114015068Y-92911842D01*
X113958000Y-93198740D01*
X113958000Y-93491260D01*
X114015068Y-93778158D01*
X114127010Y-94048411D01*
X114289525Y-94291632D01*
X114496368Y-94498475D01*
X114683000Y-94623179D01*
X114683000Y-94808198D01*
X114308209Y-95182990D01*
X93958615Y-95182990D01*
X96920027Y-92227000D01*
X114460893Y-92227000D01*
X114289525Y-92398368D01*
G37*
X114289525Y-92398368D02*
X114127010Y-92641589D01*
X114015068Y-92911842D01*
X113958000Y-93198740D01*
X113958000Y-93491260D01*
X114015068Y-93778158D01*
X114127010Y-94048411D01*
X114289525Y-94291632D01*
X114496368Y-94498475D01*
X114683000Y-94623179D01*
X114683000Y-94808198D01*
X114308209Y-95182990D01*
X93958615Y-95182990D01*
X96920027Y-92227000D01*
X114460893Y-92227000D01*
X114289525Y-92398368D01*
%TD*%
M02*
