%TF.GenerationSoftware,KiCad,Pcbnew,(5.1.6)-1*%
%TF.CreationDate,2022-01-12T10:05:38-06:00*%
%TF.ProjectId,Pikatea Macropad FK1,50696b61-7465-4612-904d-6163726f7061,rev?*%
%TF.SameCoordinates,Original*%
%TF.FileFunction,Soldermask,Top*%
%TF.FilePolarity,Negative*%
%FSLAX46Y46*%
G04 Gerber Fmt 4.6, Leading zero omitted, Abs format (unit mm)*
G04 Created by KiCad (PCBNEW (5.1.6)-1) date 2022-01-12 10:05:38*
%MOMM*%
%LPD*%
G01*
G04 APERTURE LIST*
%ADD10C,2.350000*%
%ADD11C,4.087800*%
%ADD12C,1.850000*%
%ADD13O,1.800000X1.800000*%
%ADD14R,1.800000X1.800000*%
%ADD15C,1.100000*%
G04 APERTURE END LIST*
D10*
%TO.C,MX5*%
X209590000Y-110000000D03*
D11*
X207050000Y-104920000D03*
D10*
X203240000Y-107460000D03*
D12*
X201970000Y-104920000D03*
X212130000Y-104920000D03*
%TD*%
D10*
%TO.C,MX4*%
X190540000Y-110000000D03*
D11*
X188000000Y-104920000D03*
D10*
X184190000Y-107460000D03*
D12*
X182920000Y-104920000D03*
X193080000Y-104920000D03*
%TD*%
D10*
%TO.C,MX3*%
X171490000Y-110000000D03*
D11*
X168950000Y-104920000D03*
D10*
X165140000Y-107460000D03*
D12*
X163870000Y-104920000D03*
X174030000Y-104920000D03*
%TD*%
D10*
%TO.C,MX2*%
X152440000Y-110000000D03*
D11*
X149900000Y-104920000D03*
D10*
X146090000Y-107460000D03*
D12*
X144820000Y-104920000D03*
X154980000Y-104920000D03*
%TD*%
D10*
%TO.C,MX1*%
X133390000Y-110000000D03*
D11*
X130850000Y-104920000D03*
D10*
X127040000Y-107460000D03*
D12*
X125770000Y-104920000D03*
X135930000Y-104920000D03*
%TD*%
D13*
%TO.C,J1*%
X115443000Y-93345000D03*
X117983000Y-93345000D03*
X120523000Y-93345000D03*
X123063000Y-93345000D03*
X125603000Y-93345000D03*
X128143000Y-93345000D03*
X130683000Y-93345000D03*
X133223000Y-93345000D03*
X135763000Y-93345000D03*
X138303000Y-93345000D03*
X140843000Y-93345000D03*
D14*
X143383000Y-93345000D03*
%TD*%
D15*
%TO.C,J2*%
X177546000Y-99580000D03*
X177546000Y-113580000D03*
X177546000Y-112180000D03*
X177546000Y-110780000D03*
X177546000Y-109380000D03*
X177546000Y-107980000D03*
X177546000Y-100980000D03*
X177546000Y-102380000D03*
X177546000Y-103780000D03*
X177546000Y-105180000D03*
X177546000Y-106580000D03*
%TD*%
D13*
%TO.C,J4*%
X197760000Y-109390000D03*
X197760000Y-106850000D03*
D14*
X197760000Y-104310000D03*
%TD*%
%TO.C,SW1*%
X109450000Y-102360000D03*
X109450000Y-107440000D03*
X91350000Y-104900000D03*
X91350000Y-102360000D03*
X91350000Y-107440000D03*
%TD*%
M02*
