M48
; DRILL file {KiCad 5.99.0+really5.1.10+dfsg1-1} date Wed Jun 30 17:07:36 2021
; FORMAT={-:-/ absolute / inch / decimal}
; #@! TF.CreationDate,2021-06-30T17:07:36-04:00
; #@! TF.GenerationSoftware,Kicad,Pcbnew,5.99.0+really5.1.10+dfsg1-1
FMAT,2
INCH
T1C0.0157
T2C0.0276
T3C0.0394
T4C0.0433
T5C0.0579
T6C0.0689
T7C0.1200
T8C0.1570
%
G90
G05
T1
X-1.368Y-5.762
X-1.366Y-4.262
X-1.366Y-5.012
X-1.3475Y-3.085
X-1.3475Y-3.275
X-1.2188Y-4.26
X-1.2188Y-5.01
X-1.2188Y-5.76
X-1.162Y-3.526
X-0.992Y-3.598
X-0.99Y-2.82
X-0.99Y-5.06
X-0.99Y-5.25
X-0.9375Y-4.31
X-0.9375Y-4.5
X-0.9375Y-5.81
X-0.9375Y-6.0
X-0.898Y-2.7515
X-0.885Y-5.06
X-0.885Y-5.25
X-0.879Y-3.6035
X-0.8245Y-3.5285
X-0.77Y-3.604
X-0.75Y-2.715
X-0.732Y-3.7
X-0.71Y-3.776
X-0.696Y-5.6375
X-0.628Y-3.774
X-0.616Y-4.262
X-0.616Y-5.012
X-0.616Y-5.762
X-0.606Y-3.586
X-0.605Y-2.765
X-0.605Y-2.865
X-0.605Y-2.965
X-0.605Y-3.165
X-0.605Y-3.265
X-0.605Y-3.365
X-0.605Y-3.4675
X-0.5175Y-3.6575
X-0.4688Y-4.26
X-0.4688Y-5.01
X-0.4688Y-5.76
X-0.458Y-3.058
X-0.42Y-3.6575
X-0.412Y-3.14
X-0.4075Y-2.82
X-0.355Y-2.715
X-0.3375Y-2.9
X-0.32Y-3.6575
X-0.2525Y-2.82
X-0.2425Y-5.565
X-0.24Y-5.81
X-0.24Y-6.0
X-0.2375Y-2.9575
X-0.22Y-3.6575
X-0.1875Y-4.31
X-0.1875Y-4.5
X-0.1875Y-4.6175
X-0.1875Y-5.06
X-0.1875Y-5.25
X-0.18Y-3.9275
X-0.18Y-3.998
X-0.14Y-2.8125
X-0.135Y-5.81
X-0.135Y-6.0
X-0.1345Y-2.666
X-0.1345Y-2.964
X-0.1345Y-3.166
X-0.1345Y-3.266
X-0.1345Y-3.466
X-0.1345Y-3.564
X-0.1345Y-3.6575
X-0.134Y-3.344
X-0.119Y-3.7495
X-0.1125Y-4.035
X-0.065Y-6.1075
X-0.016Y-3.842
X-0.009Y-3.7085
X-0.006Y-3.6465
X-0.005Y-2.685
X-0.004Y-3.102
X0.0475Y-3.56
X0.0475Y-3.875
X0.082Y-2.904
X0.125Y-3.8425
X0.132Y-2.828
X0.134Y-5.012
X0.134Y-5.762
X0.2812Y-5.01
X0.286Y-3.7865
X0.32Y-3.512
X0.335Y-2.64
X0.384Y-3.764
X0.385Y-5.7475
X0.392Y-2.6855
X0.3975Y-2.7725
X0.4625Y-5.715
X0.4688Y-3.51
X0.508Y-2.762
X0.5145Y-5.3665
X0.515Y-5.06
X0.515Y-5.25
X0.532Y-2.6845
X0.57Y-3.5
X0.599Y-2.658
X0.6Y-3.824
X0.602Y-4.262
X0.6025Y-5.84
X0.6562Y-2.76
X0.75Y-4.26
X0.79Y-5.012
X0.882Y-5.762
X0.9125Y-6.115
X0.9375Y-5.01
X1.0005Y-6.099
X1.03Y-5.76
X1.1225Y-3.4325
X1.164Y-5.012
X1.164Y-5.762
X1.2Y-3.06
X1.258Y-3.512
X1.26Y-2.81
X1.26Y-3.0
X1.3125Y-5.01
X1.3125Y-5.76
X1.355Y-2.645
X1.365Y-2.81
X1.365Y-3.0
X1.365Y-3.12
X1.4062Y-3.51
X1.446Y-5.762
X1.4475Y-4.31
X1.4475Y-4.5
X1.452Y-2.6475
X1.5245Y-2.6695
X1.5525Y-4.31
X1.5525Y-4.5
X1.5938Y-5.76
X1.634Y-2.762
X1.6375Y-3.56
X1.6375Y-3.75
X1.6375Y-3.8675
X1.6875Y-3.655
X1.74Y-3.56
X1.74Y-3.75
X1.74Y-3.8675
X1.7812Y-2.76
X1.82Y-4.262
X1.83Y-5.81
X1.83Y-6.0
X1.9Y-2.8425
X1.9688Y-4.26
X2.008Y-3.512
X2.0625Y-2.81
X2.0625Y-3.0
X2.1Y-5.762
X2.1562Y-3.51
X2.196Y-5.012
X2.2493Y-5.76
X2.25Y-4.31
X2.25Y-4.5
X2.252Y-3.396
X2.28Y-3.5875
X2.3438Y-5.01
X2.38Y-5.762
X2.382Y-2.762
X2.4375Y-3.56
X2.4375Y-3.75
X2.5292Y-5.76
X2.5312Y-2.76
X2.57Y-4.262
X2.625Y-5.06
X2.625Y-5.25
X2.7188Y-4.26
X2.758Y-3.512
X2.765Y-5.81
X2.765Y-6.0
X2.812Y-4.216
X2.8125Y-2.81
X2.8125Y-3.0
X2.8485Y-4.284
X2.9062Y-3.51
X2.946Y-5.012
X2.959Y-5.7755
X3.0Y-4.31
X3.0Y-4.5
X3.0005Y-5.975
X3.0275Y-5.638
X3.05Y-3.5775
X3.0938Y-5.01
X3.134Y-2.762
X3.1868Y-5.76
X3.1875Y-3.56
X3.1875Y-3.75
X3.2812Y-2.76
X3.3095Y-5.7575
X3.32Y-4.262
X3.375Y-5.06
X3.375Y-5.25
X3.4688Y-4.26
X3.508Y-3.512
X3.6562Y-3.51
X3.696Y-5.012
X3.75Y-4.31
X3.75Y-4.5
X3.7875Y-3.5825
X3.8438Y-5.01
X3.884Y-2.762
X3.9375Y-3.56
X3.9375Y-3.75
X4.0312Y-2.76
X4.07Y-4.262
X4.125Y-5.06
X4.125Y-5.25
X4.2188Y-4.26
X4.258Y-3.512
X4.3125Y-2.81
X4.3125Y-3.0
X4.4062Y-3.51
X4.446Y-5.012
X4.5Y-4.31
X4.5Y-4.5
X4.5938Y-5.01
X4.632Y-2.762
X4.6875Y-3.56
X4.6875Y-3.75
X4.7812Y-2.76
X4.82Y-4.262
X4.8725Y-5.81
X4.8725Y-6.0
X4.875Y-5.06
X4.875Y-5.25
X4.905Y-2.6475
X4.905Y-2.715
X4.9688Y-4.26
X4.986Y-6.096
X5.008Y-3.512
X5.045Y-5.81
X5.045Y-6.0
X5.0625Y-2.81
X5.0625Y-3.0
X5.0675Y-4.9975
X5.15Y-6.124
X5.1562Y-3.51
X5.196Y-5.012
X5.2225Y-6.105
X5.25Y-4.31
X5.25Y-4.5
X5.31Y-6.005
X5.3438Y-5.01
X5.382Y-5.762
X5.384Y-2.762
X5.4375Y-3.56
X5.4375Y-3.75
X5.5Y-5.3275
X5.5305Y-5.76
X5.5312Y-2.76
X5.57Y-4.262
X5.625Y-5.06
X5.625Y-5.25
X5.7188Y-4.26
X5.758Y-3.512
X5.8125Y-2.81
X5.8125Y-3.0
X5.852Y-5.762
X5.9062Y-3.51
X5.946Y-5.012
X5.9993Y-5.76
X6.078Y-6.096
X6.0938Y-5.01
X6.132Y-2.762
X6.146Y-6.052
X6.185Y-5.64
X6.1875Y-3.56
X6.1875Y-3.75
X6.1875Y-3.8675
X6.19Y-6.0
X6.2812Y-2.76
X6.31Y-5.55
X6.315Y-5.64
X6.315Y-5.84
X6.319Y-5.981
X6.32Y-4.262
X6.372Y-5.942
X6.375Y-5.06
X6.375Y-5.25
X6.4Y-5.555
X6.4Y-6.025
X6.4075Y-5.3825
X6.4688Y-4.26
X6.5Y-6.025
X6.508Y-3.512
X6.51Y-2.81
X6.51Y-3.0
X6.51Y-3.1175
X6.6Y-5.4175
X6.6Y-5.555
X6.6Y-6.025
X6.615Y-2.81
X6.615Y-3.0
X6.615Y-3.1175
X6.6562Y-3.51
X6.696Y-5.012
X6.7Y-6.025
X6.7495Y-4.6165
X6.75Y-4.31
X6.75Y-4.5
X6.8Y-5.4175
X6.8Y-5.555
X6.8Y-5.632
X6.8Y-6.025
X6.8438Y-5.01
X6.882Y-2.762
X6.9Y-5.4175
X6.9Y-5.555
X6.9Y-6.025
X6.935Y-6.16
X6.9375Y-3.56
X6.9375Y-3.75
X7.0Y-5.4175
X7.0Y-6.1275
X7.0312Y-2.76
X7.0495Y-5.945
X7.0675Y-6.1535
X7.07Y-4.262
X7.1Y-5.555
X7.1Y-5.652
X7.1Y-6.025
X7.125Y-5.06
X7.125Y-5.25
X7.2Y-5.555
X7.2Y-5.992
X7.2188Y-4.26
X7.258Y-3.512
X7.268Y-5.948
X7.3Y-5.555
X7.3Y-5.652
X7.3Y-6.025
X7.4062Y-3.51
X7.446Y-5.012
X7.5Y-4.31
X7.5Y-4.5
X7.535Y-3.5525
X7.5938Y-5.01
X7.634Y-2.762
X7.6875Y-3.56
X7.6875Y-3.75
X7.7812Y-2.76
X7.82Y-4.262
X7.875Y-5.06
X7.875Y-5.25
X7.9688Y-4.26
X8.008Y-3.512
X8.01Y-2.81
X8.01Y-3.0
X8.115Y-2.81
X8.115Y-3.0
X8.1562Y-3.51
X8.196Y-5.012
X8.25Y-4.31
X8.25Y-4.5
X8.25Y-5.81
X8.25Y-6.0
X8.3438Y-5.01
X8.384Y-2.762
X8.4375Y-3.56
X8.4375Y-3.75
X8.5225Y-5.835
X8.5312Y-2.76
X8.57Y-4.262
X8.572Y-5.762
X8.5725Y-5.06
X8.5725Y-5.25
X8.5725Y-5.3675
X8.595Y-5.1475
X8.6775Y-5.06
X8.6775Y-5.25
X8.6775Y-5.3675
X8.718Y-5.76
X8.7188Y-4.26
X8.758Y-3.512
X8.8125Y-2.81
X8.8125Y-3.0
X8.9062Y-3.51
X8.96Y-5.0
X9.0Y-4.31
X9.0Y-4.5
X9.0725Y-6.0925
X9.1Y-4.9975
X9.13Y-5.1405
X9.134Y-2.762
X9.135Y-5.81
X9.135Y-6.0
X9.1875Y-3.56
X9.1875Y-3.75
X9.1875Y-4.98
X9.2375Y-5.25
X9.24Y-5.81
X9.24Y-6.0
X9.2812Y-2.76
X9.3Y-6.06
X9.32Y-4.262
X9.3225Y-5.06
X9.3225Y-5.25
X9.3225Y-5.3675
X9.375Y-5.2025
X9.4275Y-5.06
X9.4275Y-5.25
X9.4275Y-5.3675
X9.4688Y-4.26
X9.508Y-3.512
X9.51Y-5.65
X9.5625Y-2.81
X9.5625Y-3.0
X9.6562Y-3.51
X9.696Y-5.012
X9.75Y-4.31
X9.75Y-4.5
X9.759Y-5.751
X9.8175Y-5.9775
X9.825Y-3.4875
X9.8438Y-5.01
X9.884Y-2.762
X9.89Y-3.4225
X9.94Y-4.31
X9.94Y-4.5
X9.985Y-5.1
X10.0312Y-2.76
X10.164Y-5.012
X10.3125Y-2.81
X10.3125Y-3.0
X10.3125Y-5.01
X10.352Y-4.262
X10.446Y-3.512
X10.446Y-5.762
X10.5Y-4.26
X10.538Y-5.012
X10.593Y-5.76
X10.5938Y-3.51
X10.634Y-2.762
X10.6868Y-5.01
X10.695Y-5.7375
X10.7812Y-2.76
X10.8375Y-3.56
X10.8375Y-3.75
T2
X-1.3475Y-3.0265
X-1.3475Y-3.3335
X-0.99Y-5.0015
X-0.99Y-5.3085
X-0.9375Y-4.2515
X-0.9375Y-4.5585
X-0.9375Y-5.7515
X-0.9375Y-6.0585
X-0.885Y-5.0015
X-0.885Y-5.3085
X-0.24Y-5.7515
X-0.24Y-6.0585
X-0.1875Y-4.2515
X-0.1875Y-4.5585
X-0.1875Y-5.0015
X-0.1875Y-5.3085
X-0.135Y-5.7515
X-0.135Y-6.0585
X0.0475Y-3.5015
X0.0475Y-3.8085
X0.515Y-5.0015
X0.515Y-5.3085
X1.26Y-2.7515
X1.26Y-3.0585
X1.365Y-2.7515
X1.365Y-3.0585
X1.4475Y-4.2515
X1.4475Y-4.5585
X1.5525Y-4.2515
X1.5525Y-4.5585
X1.6375Y-3.5015
X1.6375Y-3.8085
X1.74Y-3.5015
X1.74Y-3.8085
X1.83Y-5.7515
X1.83Y-6.0585
X2.0625Y-2.7515
X2.0625Y-3.0585
X2.25Y-4.2515
X2.25Y-4.5585
X2.4375Y-3.5015
X2.4375Y-3.8085
X2.625Y-5.0015
X2.625Y-5.3085
X2.765Y-5.7515
X2.765Y-6.0585
X2.8125Y-2.7515
X2.8125Y-3.0585
X3.0Y-4.2515
X3.0Y-4.5585
X3.1875Y-3.5015
X3.1875Y-3.8085
X3.375Y-5.0015
X3.375Y-5.3085
X3.75Y-4.2515
X3.75Y-4.5585
X3.9375Y-3.5015
X3.9375Y-3.8085
X4.125Y-5.0015
X4.125Y-5.3085
X4.3125Y-2.7515
X4.3125Y-3.0585
X4.5Y-4.2515
X4.5Y-4.5585
X4.6875Y-3.5015
X4.6875Y-3.8085
X4.8725Y-5.7515
X4.8725Y-6.0585
X4.875Y-5.0015
X4.875Y-5.3085
X5.045Y-5.7515
X5.045Y-6.0585
X5.0625Y-2.7515
X5.0625Y-3.0585
X5.25Y-4.2515
X5.25Y-4.5585
X5.4375Y-3.5015
X5.4375Y-3.8085
X5.625Y-5.0015
X5.625Y-5.3085
X5.8125Y-2.7515
X5.8125Y-3.0585
X6.1875Y-3.5015
X6.1875Y-3.8085
X6.375Y-5.0015
X6.375Y-5.3085
X6.51Y-2.7515
X6.51Y-3.0585
X6.615Y-2.7515
X6.615Y-3.0585
X6.75Y-4.2515
X6.75Y-4.5585
X6.9375Y-3.5015
X6.9375Y-3.8085
X7.125Y-5.0015
X7.125Y-5.3085
X7.5Y-4.2515
X7.5Y-4.5585
X7.6875Y-3.5015
X7.6875Y-3.8085
X7.875Y-5.0015
X7.875Y-5.3085
X8.01Y-2.7515
X8.01Y-3.0585
X8.115Y-2.7515
X8.115Y-3.0585
X8.25Y-4.2515
X8.25Y-4.5585
X8.25Y-5.7515
X8.25Y-6.0585
X8.4375Y-3.5015
X8.4375Y-3.8085
X8.5725Y-5.0015
X8.5725Y-5.3085
X8.6775Y-5.0015
X8.6775Y-5.3085
X8.8125Y-2.7515
X8.8125Y-3.0585
X9.0Y-4.2515
X9.0Y-4.5585
X9.135Y-5.7515
X9.135Y-6.0585
X9.1875Y-3.5015
X9.1875Y-3.8085
X9.24Y-5.7515
X9.24Y-6.0585
X9.3225Y-5.0015
X9.3225Y-5.3085
X9.4275Y-5.0015
X9.4275Y-5.3085
X9.5625Y-2.7515
X9.5625Y-3.0585
X9.75Y-4.2515
X9.75Y-4.5585
X9.94Y-4.2515
X9.94Y-4.5585
X10.3125Y-2.7515
X10.3125Y-3.0585
X10.8375Y-3.5015
X10.8375Y-3.8085
T3
X-1.0927Y-2.8203
X-1.0927Y-3.5329
X-0.9927Y-3.5329
X-0.8927Y-2.8203
X-0.8927Y-3.5329
T4
X-0.67Y-2.615
X-0.67Y-2.715
X-0.67Y-2.815
X-0.67Y-2.915
X-0.67Y-3.015
X-0.67Y-3.115
X-0.67Y-3.215
X-0.67Y-3.315
X-0.67Y-3.415
X-0.67Y-3.515
X-0.67Y-3.615
X-0.67Y-3.715
X-0.57Y-3.015
X-0.57Y-3.715
X-0.47Y-3.715
X-0.37Y-3.715
X-0.27Y-3.715
X-0.17Y-3.015
X-0.17Y-3.715
X-0.07Y-2.615
X-0.07Y-2.715
X-0.07Y-2.815
X-0.07Y-2.915
X-0.07Y-3.015
X-0.07Y-3.115
X-0.07Y-3.215
X-0.07Y-3.315
X-0.07Y-3.415
X-0.07Y-3.515
X-0.07Y-3.615
X-0.07Y-3.715
X6.25Y-5.49
X6.25Y-5.59
X6.25Y-5.69
X6.25Y-5.79
X6.25Y-5.89
X6.25Y-5.99
X6.25Y-6.09
X6.35Y-5.49
X6.35Y-6.09
X6.45Y-5.49
X6.45Y-6.09
X6.55Y-5.49
X6.55Y-6.09
X6.65Y-5.49
X6.65Y-6.09
X6.75Y-5.49
X6.75Y-6.09
X6.85Y-5.49
X6.85Y-6.09
X6.95Y-5.49
X6.95Y-5.59
X6.95Y-5.99
X6.95Y-6.09
X7.05Y-5.49
X7.05Y-6.09
X7.15Y-5.49
X7.15Y-6.09
X7.25Y-5.49
X7.25Y-6.09
X7.35Y-5.49
X7.35Y-6.09
T5
X-1.4125Y-4.2055
X-1.4125Y-4.9555
X-1.4125Y-5.7055
X-1.1625Y-4.3055
X-1.1625Y-5.0555
X-1.1625Y-5.8055
X-0.6625Y-4.2055
X-0.6625Y-4.9555
X-0.6625Y-5.7055
X-0.4125Y-4.3055
X-0.4125Y-5.0555
X-0.4125Y-5.8055
X0.0874Y-5.7055
X0.0875Y-4.9555
X0.1811Y-5.7055
X0.2749Y-5.7055
X0.275Y-3.4555
X0.3374Y-5.8055
X0.3375Y-5.0555
X0.4311Y-5.8055
X0.4625Y-2.7055
X0.5249Y-5.8055
X0.525Y-3.5555
X0.5563Y-4.2055
X0.7125Y-2.8055
X0.7438Y-4.9555
X0.8063Y-4.3055
X0.8362Y-5.7055
X0.9938Y-5.0555
X1.0862Y-5.8055
X1.1187Y-4.9555
X1.1187Y-5.7055
X1.2125Y-3.4555
X1.3687Y-5.0555
X1.3687Y-5.8055
X1.4Y-5.7055
X1.4625Y-3.5555
X1.5875Y-2.7055
X1.65Y-5.8055
X1.775Y-4.2055
X1.8375Y-2.8055
X1.9625Y-3.4555
X2.025Y-4.3055
X2.0555Y-5.7055
X2.15Y-4.9555
X2.2125Y-3.5555
X2.3055Y-5.8055
X2.3354Y-5.7055
X2.3375Y-2.7055
X2.4Y-5.0555
X2.525Y-4.2055
X2.5854Y-5.8055
X2.5875Y-2.8055
X2.7125Y-3.4555
X2.775Y-4.3055
X2.9Y-4.9555
X2.9625Y-3.5555
X2.993Y-5.7055
X3.0875Y-2.7055
X3.15Y-5.0555
X3.243Y-5.8055
X3.275Y-4.2055
X3.3375Y-2.8055
X3.4625Y-3.4555
X3.525Y-4.3055
X3.65Y-4.9555
X3.7125Y-3.5555
X3.8375Y-2.7055
X3.9Y-5.0555
X4.025Y-4.2055
X4.0875Y-2.8055
X4.2125Y-3.4555
X4.275Y-4.3055
X4.4Y-4.9555
X4.4625Y-3.5555
X4.5875Y-2.7055
X4.65Y-5.0555
X4.775Y-4.2055
X4.8375Y-2.8055
X4.9625Y-3.4555
X5.025Y-4.3055
X5.15Y-4.9555
X5.2125Y-3.5555
X5.3368Y-5.7055
X5.3375Y-2.7055
X5.4Y-5.0555
X5.525Y-4.2055
X5.5868Y-5.8055
X5.5875Y-2.8055
X5.7125Y-3.4555
X5.775Y-4.3055
X5.8055Y-5.7055
X5.9Y-4.9555
X5.9625Y-3.5555
X6.0555Y-5.8055
X6.0875Y-2.7055
X6.15Y-5.0555
X6.275Y-4.2055
X6.3375Y-2.8055
X6.4625Y-3.4555
X6.525Y-4.3055
X6.65Y-4.9555
X6.7125Y-3.5555
X6.8375Y-2.7055
X6.9Y-5.0555
X7.025Y-4.2055
X7.0875Y-2.8055
X7.2125Y-3.4555
X7.275Y-4.3055
X7.4Y-4.9555
X7.4625Y-3.5555
X7.5875Y-2.7055
X7.65Y-5.0555
X7.775Y-4.2055
X7.8375Y-2.8055
X7.9625Y-3.4555
X8.025Y-4.3055
X8.15Y-4.9555
X8.2125Y-3.5555
X8.3375Y-2.7055
X8.4Y-5.0555
X8.5243Y-5.7055
X8.525Y-4.2055
X8.5875Y-2.8055
X8.618Y-5.7055
X8.7125Y-3.4555
X8.7743Y-5.8055
X8.775Y-4.3055
X8.868Y-5.8055
X8.9Y-4.9555
X8.9625Y-3.5555
X9.0875Y-2.7055
X9.15Y-5.0555
X9.275Y-4.2055
X9.3375Y-2.8055
X9.4618Y-5.7055
X9.4625Y-3.4555
X9.525Y-4.3055
X9.5555Y-5.7055
X9.65Y-4.9555
X9.7118Y-5.8055
X9.7125Y-3.5555
X9.8055Y-5.8055
X9.8375Y-2.7055
X9.9Y-5.0555
X10.0875Y-2.8055
X10.1188Y-4.9555
X10.3063Y-4.2055
X10.3688Y-5.0555
X10.3993Y-5.7055
X10.4Y-3.4555
X10.493Y-4.9555
X10.493Y-5.7055
X10.5563Y-4.3055
X10.5875Y-2.7055
X10.6493Y-5.8055
X10.65Y-3.5555
X10.743Y-5.0555
X10.743Y-5.8055
X10.8375Y-2.8055
T6
X-1.5125Y-4.4055
X-1.5125Y-5.1555
X-1.5125Y-5.9055
X-1.1125Y-4.4055
X-1.1125Y-5.1555
X-1.1125Y-5.9055
X-0.7625Y-4.4055
X-0.7625Y-5.1555
X-0.7625Y-5.9055
X-0.3625Y-4.4055
X-0.3625Y-5.1555
X-0.3625Y-5.9055
X-0.0126Y-5.9055
X-0.0125Y-5.1555
X0.0811Y-5.9055
X0.1749Y-5.9055
X0.175Y-3.6555
X0.3625Y-2.9055
X0.3874Y-5.9055
X0.3875Y-5.1555
X0.4562Y-4.4055
X0.4811Y-5.9055
X0.5749Y-5.9055
X0.575Y-3.6555
X0.6437Y-5.1555
X0.7362Y-5.9055
X0.7625Y-2.9055
X0.8562Y-4.4055
X1.0188Y-5.1555
X1.0188Y-5.9055
X1.0437Y-5.1555
X1.1125Y-3.6555
X1.1362Y-5.9055
X1.3Y-5.9055
X1.4187Y-5.1555
X1.4187Y-5.9055
X1.4875Y-2.9055
X1.5125Y-3.6555
X1.675Y-4.4055
X1.7Y-5.9055
X1.8625Y-3.6555
X1.8875Y-2.9055
X1.9555Y-5.9055
X2.05Y-5.1555
X2.075Y-4.4055
X2.2354Y-5.9055
X2.2375Y-2.9055
X2.2625Y-3.6555
X2.3555Y-5.9055
X2.425Y-4.4055
X2.45Y-5.1555
X2.6125Y-3.6555
X2.6354Y-5.9055
X2.6375Y-2.9055
X2.8Y-5.1555
X2.825Y-4.4055
X2.893Y-5.9055
X2.9875Y-2.9055
X3.0125Y-3.6555
X3.175Y-4.4055
X3.2Y-5.1555
X3.293Y-5.9055
X3.3625Y-3.6555
X3.3875Y-2.9055
X3.55Y-5.1555
X3.575Y-4.4055
X3.7375Y-2.9055
X3.7625Y-3.6555
X3.925Y-4.4055
X3.95Y-5.1555
X4.1125Y-3.6555
X4.1375Y-2.9055
X4.3Y-5.1555
X4.325Y-4.4055
X4.4875Y-2.9055
X4.5125Y-3.6555
X4.675Y-4.4055
X4.7Y-5.1555
X4.8625Y-3.6555
X4.8875Y-2.9055
X5.05Y-5.1555
X5.075Y-4.4055
X5.2368Y-5.9055
X5.2375Y-2.9055
X5.2625Y-3.6555
X5.425Y-4.4055
X5.45Y-5.1555
X5.6125Y-3.6555
X5.6368Y-5.9055
X5.6375Y-2.9055
X5.7055Y-5.9055
X5.8Y-5.1555
X5.825Y-4.4055
X5.9875Y-2.9055
X6.0125Y-3.6555
X6.1055Y-5.9055
X6.175Y-4.4055
X6.2Y-5.1555
X6.3625Y-3.6555
X6.3875Y-2.9055
X6.55Y-5.1555
X6.575Y-4.4055
X6.7375Y-2.9055
X6.7625Y-3.6555
X6.925Y-4.4055
X6.95Y-5.1555
X7.1125Y-3.6555
X7.1375Y-2.9055
X7.3Y-5.1555
X7.325Y-4.4055
X7.4875Y-2.9055
X7.5125Y-3.6555
X7.675Y-4.4055
X7.7Y-5.1555
X7.8625Y-3.6555
X7.8875Y-2.9055
X8.05Y-5.1555
X8.075Y-4.4055
X8.2375Y-2.9055
X8.2625Y-3.6555
X8.4243Y-5.9055
X8.425Y-4.4055
X8.45Y-5.1555
X8.518Y-5.9055
X8.6125Y-3.6555
X8.6375Y-2.9055
X8.8Y-5.1555
X8.8243Y-5.9055
X8.825Y-4.4055
X8.918Y-5.9055
X8.9875Y-2.9055
X9.0125Y-3.6555
X9.175Y-4.4055
X9.2Y-5.1555
X9.3618Y-5.9055
X9.3625Y-3.6555
X9.3875Y-2.9055
X9.4555Y-5.9055
X9.55Y-5.1555
X9.575Y-4.4055
X9.7375Y-2.9055
X9.7618Y-5.9055
X9.7625Y-3.6555
X9.8555Y-5.9055
X9.95Y-5.1555
X10.0187Y-5.1555
X10.1375Y-2.9055
X10.2062Y-4.4055
X10.2993Y-5.9055
X10.3Y-3.6555
X10.393Y-5.1555
X10.393Y-5.9055
X10.4187Y-5.1555
X10.4875Y-2.9055
X10.6062Y-4.4055
X10.6993Y-5.9055
X10.7Y-3.6555
X10.793Y-5.1555
X10.793Y-5.9055
X10.8875Y-2.9055
T7
X0.0938Y-2.6305
X0.1875Y-4.6805
X0.375Y-5.4305
X1.0312Y-2.6305
X1.125Y-4.6805
X1.3125Y-5.4305
X3.1868Y-6.1805
X3.937Y-6.1805
X7.6868Y-6.1805
X7.874Y-6.1805
X9.75Y-5.4305
X10.6875Y-5.4305
T8
X-1.3125Y-4.4055
X-1.3125Y-5.1555
X-1.3125Y-5.9055
X-0.5625Y-4.4055
X-0.5625Y-5.1555
X-0.5625Y-5.9055
X0.0938Y-3.2305
X0.1874Y-5.9055
X0.1875Y-4.0805
X0.1875Y-5.1555
X0.2811Y-5.9055
X0.3749Y-5.9055
X0.375Y-3.6555
X0.375Y-4.8305
X0.5625Y-2.9055
X0.6562Y-4.4055
X0.8438Y-5.1555
X0.9362Y-5.9055
X1.0312Y-3.2305
X1.125Y-4.0805
X1.2188Y-5.1555
X1.2188Y-5.9055
X1.3125Y-3.6555
X1.3125Y-4.8305
X1.5Y-5.9055
X1.6875Y-2.9055
X1.875Y-4.4055
X2.0625Y-3.6555
X2.1555Y-5.9055
X2.25Y-5.1555
X2.4354Y-5.9055
X2.4375Y-2.9055
X2.625Y-4.4055
X2.8125Y-3.6555
X3.0Y-5.1555
X3.093Y-5.9055
X3.1868Y-5.5805
X3.1875Y-2.9055
X3.375Y-4.4055
X3.5625Y-3.6555
X3.75Y-5.1555
X3.937Y-5.5805
X3.9375Y-2.9055
X4.125Y-4.4055
X4.3125Y-3.6555
X4.5Y-5.1555
X4.6875Y-2.9055
X4.875Y-4.4055
X5.0625Y-3.6555
X5.25Y-5.1555
X5.4368Y-5.9055
X5.4375Y-2.9055
X5.625Y-4.4055
X5.8125Y-3.6555
X5.9055Y-5.9055
X6.0Y-5.1555
X6.1875Y-2.9055
X6.375Y-4.4055
X6.5625Y-3.6555
X6.75Y-5.1555
X6.9375Y-2.9055
X7.125Y-4.4055
X7.3125Y-3.6555
X7.5Y-5.1555
X7.6868Y-5.5805
X7.6875Y-2.9055
X7.874Y-5.5805
X7.875Y-4.4055
X8.0625Y-3.6555
X8.25Y-5.1555
X8.4375Y-2.9055
X8.6243Y-5.9055
X8.625Y-4.4055
X8.718Y-5.9055
X8.8125Y-3.6555
X9.0Y-5.1555
X9.1875Y-2.9055
X9.375Y-4.4055
X9.5618Y-5.9055
X9.5625Y-3.6555
X9.6555Y-5.9055
X9.75Y-4.8305
X9.75Y-5.1555
X9.9375Y-2.9055
X10.2188Y-5.1555
X10.4062Y-4.4055
X10.4993Y-5.9055
X10.5Y-3.6555
X10.593Y-5.1555
X10.593Y-5.9055
X10.6875Y-2.9055
X10.6875Y-4.8305
T0
M30
