%TF.GenerationSoftware,KiCad,Pcbnew,5.99.0+really5.1.10+dfsg1-1*%
%TF.CreationDate,2021-06-30T17:07:38-04:00*%
%TF.ProjectId,Pikatea Keyboard Teensy2,50696b61-7465-4612-904b-6579626f6172,rev?*%
%TF.SameCoordinates,Original*%
%TF.FileFunction,Soldermask,Top*%
%TF.FilePolarity,Negative*%
%FSLAX46Y46*%
G04 Gerber Fmt 4.6, Leading zero omitted, Abs format (unit mm)*
G04 Created by KiCad (PCBNEW 5.99.0+really5.1.10+dfsg1-1) date 2021-06-30 17:07:38*
%MOMM*%
%LPD*%
G01*
G04 APERTURE LIST*
%ADD10C,2.250000*%
%ADD11C,3.987800*%
%ADD12C,1.750000*%
%ADD13C,3.048000*%
%ADD14C,1.600000*%
%ADD15R,1.600000X1.600000*%
%ADD16R,1.700000X1.700000*%
G04 APERTURE END LIST*
D10*
%TO.C,MX_RSHFT1*%
X18891250Y-125870000D03*
D11*
X21431250Y-130950000D03*
D10*
X25241250Y-128410000D03*
D12*
X26511250Y-130950000D03*
X16351250Y-130950000D03*
D13*
X33337500Y-137935000D03*
X9525000Y-137935000D03*
D11*
X33337500Y-122695000D03*
X9525000Y-122695000D03*
%TD*%
D12*
%TO.C,MX_0*%
X75882500Y-73800000D03*
X86042500Y-73800000D03*
D10*
X84772500Y-71260000D03*
D11*
X80962500Y-73800000D03*
D10*
X78422500Y-68720000D03*
%TD*%
%TO.C,MX_RSHFT2*%
X28416250Y-125870000D03*
D11*
X30956250Y-130950000D03*
D10*
X34766250Y-128410000D03*
D12*
X36036250Y-130950000D03*
X25876250Y-130950000D03*
%TD*%
D10*
%TO.C,MX_ENTER1*%
X14128750Y-106820000D03*
D11*
X16668750Y-111900000D03*
D10*
X20478750Y-109360000D03*
D12*
X21748750Y-111900000D03*
X11588750Y-111900000D03*
D13*
X28575000Y-118885000D03*
X4762500Y-118885000D03*
D11*
X28575000Y-103645000D03*
X4762500Y-103645000D03*
%TD*%
D14*
%TO.C,D70*%
X13081000Y-127037000D03*
D15*
X13081000Y-134837000D03*
%TD*%
D14*
%TO.C,D69*%
X-34226500Y-76872000D03*
D15*
X-34226500Y-84672000D03*
%TD*%
D14*
%TO.C,D68*%
X32004000Y-69887000D03*
D15*
X32004000Y-77687000D03*
%TD*%
D14*
%TO.C,D67*%
X34671000Y-69887000D03*
D15*
X34671000Y-77687000D03*
%TD*%
D14*
%TO.C,D66*%
X52387500Y-69887000D03*
D15*
X52387500Y-77687000D03*
%TD*%
D14*
%TO.C,D65*%
X71437500Y-69887000D03*
D15*
X71437500Y-77687000D03*
%TD*%
D14*
%TO.C,D64*%
X109537500Y-69887000D03*
D15*
X109537500Y-77687000D03*
%TD*%
D14*
%TO.C,D63*%
X128587500Y-69887000D03*
D15*
X128587500Y-77687000D03*
%TD*%
D14*
%TO.C,D62*%
X147637500Y-69887000D03*
D15*
X147637500Y-77687000D03*
%TD*%
D14*
%TO.C,D61*%
X165354000Y-69887000D03*
D15*
X165354000Y-77687000D03*
%TD*%
D14*
%TO.C,D60*%
X168021000Y-69887000D03*
D15*
X168021000Y-77687000D03*
%TD*%
D14*
%TO.C,D59*%
X203454000Y-69887000D03*
D15*
X203454000Y-77687000D03*
%TD*%
D14*
%TO.C,D58*%
X206121000Y-69887000D03*
D15*
X206121000Y-77687000D03*
%TD*%
D14*
%TO.C,D57*%
X223837500Y-69887000D03*
D15*
X223837500Y-77687000D03*
%TD*%
D14*
%TO.C,D56*%
X242887500Y-69887000D03*
D15*
X242887500Y-77687000D03*
%TD*%
D14*
%TO.C,D54*%
X-25146000Y-127037000D03*
D15*
X-25146000Y-134837000D03*
%TD*%
D14*
%TO.C,D53*%
X-23812500Y-107987000D03*
D15*
X-23812500Y-115787000D03*
%TD*%
D14*
%TO.C,D52*%
X-23812500Y-146087000D03*
D15*
X-23812500Y-153887000D03*
%TD*%
D14*
%TO.C,D51*%
X-22479000Y-127037000D03*
D15*
X-22479000Y-134837000D03*
%TD*%
D14*
%TO.C,D50*%
X-4762500Y-107987000D03*
D15*
X-4762500Y-115787000D03*
%TD*%
D14*
%TO.C,D49*%
X-6096000Y-146087000D03*
D15*
X-6096000Y-153887000D03*
%TD*%
D14*
%TO.C,D48*%
X-4762500Y-127037000D03*
D15*
X-4762500Y-134837000D03*
%TD*%
D14*
%TO.C,D47*%
X1206500Y-88937000D03*
D15*
X1206500Y-96737000D03*
%TD*%
D14*
%TO.C,D46*%
X-3429000Y-146087000D03*
D15*
X-3429000Y-153887000D03*
%TD*%
D14*
%TO.C,D45*%
X36766500Y-107987000D03*
D15*
X36766500Y-115787000D03*
%TD*%
D14*
%TO.C,D44*%
X41592500Y-88937000D03*
D15*
X41592500Y-96737000D03*
%TD*%
D14*
%TO.C,D43*%
X46482000Y-146087000D03*
D15*
X46482000Y-153887000D03*
%TD*%
D14*
%TO.C,D42*%
X39433500Y-107987000D03*
D15*
X39433500Y-115787000D03*
%TD*%
D14*
%TO.C,D41*%
X44196000Y-88937000D03*
D15*
X44196000Y-96737000D03*
%TD*%
D14*
%TO.C,D40*%
X70231000Y-146087000D03*
D15*
X70231000Y-153887000D03*
%TD*%
D14*
%TO.C,D39*%
X66675000Y-127037000D03*
D15*
X66675000Y-134837000D03*
%TD*%
D14*
%TO.C,D38*%
X57150000Y-107987000D03*
D15*
X57150000Y-115787000D03*
%TD*%
D14*
%TO.C,D37*%
X61912500Y-88937000D03*
D15*
X61912500Y-96737000D03*
%TD*%
D14*
%TO.C,D36*%
X123761500Y-146087000D03*
D15*
X123761500Y-153887000D03*
%TD*%
D14*
%TO.C,D35*%
X85725000Y-127037000D03*
D15*
X85725000Y-134837000D03*
%TD*%
D14*
%TO.C,D34*%
X76200000Y-107987000D03*
D15*
X76200000Y-115787000D03*
%TD*%
D14*
%TO.C,D33*%
X80962500Y-88937000D03*
D15*
X80962500Y-96737000D03*
%TD*%
D14*
%TO.C,D32*%
X104775000Y-127037000D03*
D15*
X104775000Y-134837000D03*
%TD*%
D14*
%TO.C,D31*%
X95250000Y-107987000D03*
D15*
X95250000Y-115787000D03*
%TD*%
D14*
%TO.C,D30*%
X100012500Y-88937000D03*
D15*
X100012500Y-96737000D03*
%TD*%
D14*
%TO.C,D29*%
X123825000Y-127037000D03*
D15*
X123825000Y-134837000D03*
%TD*%
D14*
%TO.C,D28*%
X114300000Y-107987000D03*
D15*
X114300000Y-115787000D03*
%TD*%
D14*
%TO.C,D27*%
X119062500Y-88937000D03*
D15*
X119062500Y-96737000D03*
%TD*%
D14*
%TO.C,D26*%
X142875000Y-127037000D03*
D15*
X142875000Y-134837000D03*
%TD*%
D14*
%TO.C,D25*%
X133350000Y-107987000D03*
D15*
X133350000Y-115787000D03*
%TD*%
D14*
%TO.C,D24*%
X128143000Y-146087000D03*
D15*
X128143000Y-153887000D03*
%TD*%
D14*
%TO.C,D23*%
X138112500Y-88937000D03*
D15*
X138112500Y-96737000D03*
%TD*%
D14*
%TO.C,D22*%
X161925000Y-127037000D03*
D15*
X161925000Y-134837000D03*
%TD*%
D14*
%TO.C,D21*%
X171450000Y-107987000D03*
D15*
X171450000Y-115787000D03*
%TD*%
D14*
%TO.C,D20*%
X157162500Y-88937000D03*
D15*
X157162500Y-96737000D03*
%TD*%
D14*
%TO.C,D19*%
X180975000Y-127037000D03*
D15*
X180975000Y-134837000D03*
%TD*%
D14*
%TO.C,D18*%
X190500000Y-107987000D03*
D15*
X190500000Y-115787000D03*
%TD*%
D14*
%TO.C,D17*%
X176212500Y-88937000D03*
D15*
X176212500Y-96737000D03*
%TD*%
D14*
%TO.C,D16*%
X200025000Y-127037000D03*
D15*
X200025000Y-134837000D03*
%TD*%
D14*
%TO.C,D15*%
X209550000Y-107987000D03*
D15*
X209550000Y-115787000D03*
%TD*%
D14*
%TO.C,D14*%
X195262500Y-88937000D03*
D15*
X195262500Y-96737000D03*
%TD*%
D14*
%TO.C,D13*%
X217741500Y-127037000D03*
D15*
X217741500Y-134837000D03*
%TD*%
D14*
%TO.C,D12*%
X228600000Y-107987000D03*
D15*
X228600000Y-115787000D03*
%TD*%
D14*
%TO.C,D11*%
X214312500Y-88937000D03*
D15*
X214312500Y-96737000D03*
%TD*%
D14*
%TO.C,D10*%
X220408500Y-127037000D03*
D15*
X220408500Y-134837000D03*
%TD*%
D14*
%TO.C,D9*%
X209550000Y-146087000D03*
D15*
X209550000Y-153887000D03*
%TD*%
D14*
%TO.C,D8*%
X247650000Y-107987000D03*
D15*
X247650000Y-115787000D03*
%TD*%
D14*
%TO.C,D7*%
X233362500Y-88937000D03*
D15*
X233362500Y-96737000D03*
%TD*%
D14*
%TO.C,D6*%
X236791500Y-127037000D03*
D15*
X236791500Y-134837000D03*
%TD*%
D14*
%TO.C,D5*%
X232029000Y-146087000D03*
D15*
X232029000Y-153887000D03*
%TD*%
D14*
%TO.C,D4*%
X239458500Y-127037000D03*
D15*
X239458500Y-134837000D03*
%TD*%
D14*
%TO.C,D3*%
X252476000Y-107987000D03*
D15*
X252476000Y-115787000D03*
%TD*%
D14*
%TO.C,D2*%
X275272500Y-88937000D03*
D15*
X275272500Y-96737000D03*
%TD*%
D14*
%TO.C,D1*%
X234696000Y-146087000D03*
D15*
X234696000Y-153887000D03*
%TD*%
D14*
%TO.C,D55*%
X261937500Y-69887000D03*
D15*
X261937500Y-77687000D03*
%TD*%
D10*
%TO.C,MX_LSHFT2*%
X266522500Y-125870000D03*
D11*
X269062500Y-130950000D03*
D10*
X272872500Y-128410000D03*
D12*
X274142500Y-130950000D03*
X263982500Y-130950000D03*
%TD*%
D10*
%TO.C,MX_LSHFT1*%
X257016250Y-125870000D03*
D11*
X259556250Y-130950000D03*
D10*
X263366250Y-128410000D03*
D12*
X264636250Y-130950000D03*
X254476250Y-130950000D03*
D13*
X271462500Y-137935000D03*
X247650000Y-137935000D03*
D11*
X271462500Y-122695000D03*
X247650000Y-122695000D03*
%TD*%
D10*
%TO.C,MX_LCTRL2*%
X264141250Y-144920000D03*
D11*
X266681250Y-150000000D03*
D10*
X270491250Y-147460000D03*
D12*
X271761250Y-150000000D03*
X261601250Y-150000000D03*
%TD*%
D10*
%TO.C,MX_LCTRL1*%
X266522500Y-144920000D03*
D11*
X269062500Y-150000000D03*
D10*
X272872500Y-147460000D03*
D12*
X274142500Y-150000000D03*
X263982500Y-150000000D03*
%TD*%
D10*
%TO.C,MX_LALT2*%
X216516250Y-144920000D03*
D11*
X219056250Y-150000000D03*
D10*
X222866250Y-147460000D03*
D12*
X224136250Y-150000000D03*
X213976250Y-150000000D03*
%TD*%
D10*
%TO.C,MX_LALT1*%
X218897500Y-144920000D03*
D11*
X221437500Y-150000000D03*
D10*
X225247500Y-147460000D03*
D12*
X226517500Y-150000000D03*
X216357500Y-150000000D03*
%TD*%
D10*
%TO.C,MX_SPACE2*%
X135553750Y-144920000D03*
D11*
X138093750Y-150000000D03*
D10*
X141903750Y-147460000D03*
D12*
X143173750Y-150000000D03*
X133013750Y-150000000D03*
D13*
X195243750Y-156985000D03*
X80943750Y-156985000D03*
D11*
X195243750Y-141745000D03*
X80943750Y-141745000D03*
%TD*%
D10*
%TO.C,MX_SPACE1*%
X147460000Y-144920000D03*
D11*
X150000000Y-150000000D03*
D10*
X153810000Y-147460000D03*
D12*
X155080000Y-150000000D03*
X144920000Y-150000000D03*
D13*
X199999900Y-156985000D03*
X100000100Y-156985000D03*
D11*
X199999900Y-141745000D03*
X100000100Y-141745000D03*
%TD*%
D10*
%TO.C,MX_BSPC1*%
X11747500Y-68720000D03*
D11*
X14287500Y-73800000D03*
D10*
X18097500Y-71260000D03*
D12*
X19367500Y-73800000D03*
X9207500Y-73800000D03*
D13*
X26193750Y-66815000D03*
X2381250Y-66815000D03*
D11*
X26193750Y-82055000D03*
X2381250Y-82055000D03*
%TD*%
D10*
%TO.C,MX_BSLSH1*%
X6985000Y-87770000D03*
D11*
X9525000Y-92850000D03*
D10*
X13335000Y-90310000D03*
D12*
X14605000Y-92850000D03*
X4445000Y-92850000D03*
%TD*%
D10*
%TO.C,MX_TAB1*%
X264160000Y-87770000D03*
D11*
X266700000Y-92850000D03*
D10*
X270510000Y-90310000D03*
D12*
X271780000Y-92850000D03*
X261620000Y-92850000D03*
%TD*%
D10*
%TO.C,MX_CAPS1*%
X261778750Y-106820000D03*
D11*
X264318750Y-111900000D03*
D10*
X268128750Y-109360000D03*
D12*
X269398750Y-111900000D03*
X259238750Y-111900000D03*
%TD*%
D10*
%TO.C,MX_RALT1*%
X76022500Y-144920000D03*
D11*
X78562500Y-150000000D03*
D10*
X82372500Y-147460000D03*
D12*
X83642500Y-150000000D03*
X73482500Y-150000000D03*
%TD*%
D10*
%TO.C,MX_RMENU2*%
X35560000Y-144920000D03*
D11*
X38100000Y-150000000D03*
D10*
X41910000Y-147460000D03*
D12*
X43180000Y-150000000D03*
X33020000Y-150000000D03*
%TD*%
D10*
%TO.C,MX_RMENU1*%
X28416250Y-144920000D03*
D11*
X30956250Y-150000000D03*
D10*
X34766250Y-147460000D03*
D12*
X36036250Y-150000000D03*
X25876250Y-150000000D03*
%TD*%
D10*
%TO.C,MX_RCTRL2*%
X6981250Y-144920000D03*
D11*
X9521250Y-150000000D03*
D10*
X13331250Y-147460000D03*
D12*
X14601250Y-150000000D03*
X4441250Y-150000000D03*
%TD*%
D10*
%TO.C,MX_RCTRL1*%
X4600000Y-144920000D03*
D11*
X7140000Y-150000000D03*
D10*
X10950000Y-147460000D03*
D12*
X12220000Y-150000000D03*
X2060000Y-150000000D03*
%TD*%
D10*
%TO.C,MX_RMENU3*%
X21240000Y-144920000D03*
D11*
X23780000Y-150000000D03*
D10*
X27590000Y-147460000D03*
D12*
X28860000Y-150000000D03*
X18700000Y-150000000D03*
%TD*%
D10*
%TO.C,MX_Q1*%
X240347500Y-87770000D03*
D11*
X242887500Y-92850000D03*
D10*
X246697500Y-90310000D03*
D12*
X247967500Y-92850000D03*
X237807500Y-92850000D03*
%TD*%
D10*
%TO.C,MX_LMENU2*%
X240328750Y-144920000D03*
D11*
X242868750Y-150000000D03*
D10*
X246678750Y-147460000D03*
D12*
X247948750Y-150000000D03*
X237788750Y-150000000D03*
%TD*%
D10*
%TO.C,MX_LMENU1*%
X242710000Y-144920000D03*
D11*
X245250000Y-150000000D03*
D10*
X249060000Y-147460000D03*
D12*
X250330000Y-150000000D03*
X240170000Y-150000000D03*
%TD*%
D10*
%TO.C,MX_EXTRA1*%
X245110000Y-125870000D03*
D11*
X247650000Y-130950000D03*
D10*
X251460000Y-128410000D03*
D12*
X252730000Y-130950000D03*
X242570000Y-130950000D03*
%TD*%
D10*
%TO.C,MX_A1*%
X235585000Y-106820000D03*
D11*
X238125000Y-111900000D03*
D10*
X241935000Y-109360000D03*
D12*
X243205000Y-111900000D03*
X233045000Y-111900000D03*
%TD*%
D10*
%TO.C,MX_RWIN2*%
X59320000Y-144920000D03*
D11*
X61860000Y-150000000D03*
D10*
X65670000Y-147460000D03*
D12*
X66940000Y-150000000D03*
X56780000Y-150000000D03*
%TD*%
D10*
%TO.C,MX_RWIN1*%
X52210000Y-144920000D03*
D11*
X54750000Y-150000000D03*
D10*
X58560000Y-147460000D03*
D12*
X59830000Y-150000000D03*
X49670000Y-150000000D03*
%TD*%
D10*
%TO.C,MX_Z1*%
X226060000Y-125870000D03*
D11*
X228600000Y-130950000D03*
D10*
X232410000Y-128410000D03*
D12*
X233680000Y-130950000D03*
X223520000Y-130950000D03*
%TD*%
D10*
%TO.C,MX_Y1*%
X145097500Y-87770000D03*
D11*
X147637500Y-92850000D03*
D10*
X151447500Y-90310000D03*
D12*
X152717500Y-92850000D03*
X142557500Y-92850000D03*
%TD*%
D10*
%TO.C,MX_X1*%
X207010000Y-125870000D03*
D11*
X209550000Y-130950000D03*
D10*
X213360000Y-128410000D03*
D12*
X214630000Y-130950000D03*
X204470000Y-130950000D03*
%TD*%
D10*
%TO.C,MX_W1*%
X221297500Y-87770000D03*
D11*
X223837500Y-92850000D03*
D10*
X227647500Y-90310000D03*
D12*
X228917500Y-92850000D03*
X218757500Y-92850000D03*
%TD*%
D10*
%TO.C,MX_V1*%
X168910000Y-125870000D03*
D11*
X171450000Y-130950000D03*
D10*
X175260000Y-128410000D03*
D12*
X176530000Y-130950000D03*
X166370000Y-130950000D03*
%TD*%
D10*
%TO.C,MX_UP2*%
X2222500Y-125870000D03*
D11*
X4762500Y-130950000D03*
D10*
X8572500Y-128410000D03*
D12*
X9842500Y-130950000D03*
X-317500Y-130950000D03*
%TD*%
D10*
%TO.C,MX_UP1*%
X-16827500Y-125870000D03*
D11*
X-14287500Y-130950000D03*
D10*
X-10477500Y-128410000D03*
D12*
X-9207500Y-130950000D03*
X-19367500Y-130950000D03*
%TD*%
D10*
%TO.C,MX_U1*%
X126047500Y-87770000D03*
D11*
X128587500Y-92850000D03*
D10*
X132397500Y-90310000D03*
D12*
X133667500Y-92850000D03*
X123507500Y-92850000D03*
%TD*%
D10*
%TO.C,MX_T1*%
X164147500Y-87770000D03*
D11*
X166687500Y-92850000D03*
D10*
X170497500Y-90310000D03*
D12*
X171767500Y-92850000D03*
X161607500Y-92850000D03*
%TD*%
D10*
%TO.C,MX_SEMI1*%
X64135000Y-106820000D03*
D11*
X66675000Y-111900000D03*
D10*
X70485000Y-109360000D03*
D12*
X71755000Y-111900000D03*
X61595000Y-111900000D03*
%TD*%
D10*
%TO.C,MX_S1*%
X216535000Y-106820000D03*
D11*
X219075000Y-111900000D03*
D10*
X222885000Y-109360000D03*
D12*
X224155000Y-111900000D03*
X213995000Y-111900000D03*
%TD*%
D10*
%TO.C,MX_RIGHT1*%
X-35877500Y-144920000D03*
D11*
X-33337500Y-150000000D03*
D10*
X-29527500Y-147460000D03*
D12*
X-28257500Y-150000000D03*
X-38417500Y-150000000D03*
%TD*%
D10*
%TO.C,MX_RCTRL3*%
X2218750Y-144920000D03*
D11*
X4758750Y-150000000D03*
D10*
X8568750Y-147460000D03*
D12*
X9838750Y-150000000D03*
X-321250Y-150000000D03*
%TD*%
D10*
%TO.C,MX_R1*%
X183197500Y-87770000D03*
D11*
X185737500Y-92850000D03*
D10*
X189547500Y-90310000D03*
D12*
X190817500Y-92850000D03*
X180657500Y-92850000D03*
%TD*%
D10*
%TO.C,MX_QUOTE1*%
X45085000Y-106820000D03*
D11*
X47625000Y-111900000D03*
D10*
X51435000Y-109360000D03*
D12*
X52705000Y-111900000D03*
X42545000Y-111900000D03*
%TD*%
D10*
%TO.C,MX_PLUS1*%
X40322500Y-68720000D03*
D11*
X42862500Y-73800000D03*
D10*
X46672500Y-71260000D03*
D12*
X47942500Y-73800000D03*
X37782500Y-73800000D03*
%TD*%
D10*
%TO.C,MX_P1*%
X68897500Y-87770000D03*
D11*
X71437500Y-92850000D03*
D10*
X75247500Y-90310000D03*
D12*
X76517500Y-92850000D03*
X66357500Y-92850000D03*
%TD*%
D10*
%TO.C,MX_OPBRK1*%
X49847500Y-87770000D03*
D11*
X52387500Y-92850000D03*
D10*
X56197500Y-90310000D03*
D12*
X57467500Y-92850000D03*
X47307500Y-92850000D03*
%TD*%
D10*
%TO.C,MX_O1*%
X87947500Y-87770000D03*
D11*
X90487500Y-92850000D03*
D10*
X94297500Y-90310000D03*
D12*
X95567500Y-92850000D03*
X85407500Y-92850000D03*
%TD*%
D10*
%TO.C,MX_N1*%
X130810000Y-125870000D03*
D11*
X133350000Y-130950000D03*
D10*
X137160000Y-128410000D03*
D12*
X138430000Y-130950000D03*
X128270000Y-130950000D03*
%TD*%
D10*
%TO.C,MX_MINUS1*%
X59372500Y-68720000D03*
D11*
X61912500Y-73800000D03*
D10*
X65722500Y-71260000D03*
D12*
X66992500Y-73800000D03*
X56832500Y-73800000D03*
%TD*%
D10*
%TO.C,MX_MACRO3*%
X-35877500Y-125870000D03*
D11*
X-33337500Y-130950000D03*
D10*
X-29527500Y-128410000D03*
D12*
X-28257500Y-130950000D03*
X-38417500Y-130950000D03*
%TD*%
D10*
%TO.C,MX_MACRO2*%
X-35877500Y-106820000D03*
D11*
X-33337500Y-111900000D03*
D10*
X-29527500Y-109360000D03*
D12*
X-28257500Y-111900000D03*
X-38417500Y-111900000D03*
%TD*%
D10*
%TO.C,MX_MACRO1*%
X-16827500Y-106820000D03*
D11*
X-14287500Y-111900000D03*
D10*
X-10477500Y-109360000D03*
D12*
X-9207500Y-111900000D03*
X-19367500Y-111900000D03*
%TD*%
D10*
%TO.C,MX_M1*%
X111760000Y-125870000D03*
D11*
X114300000Y-130950000D03*
D10*
X118110000Y-128410000D03*
D12*
X119380000Y-130950000D03*
X109220000Y-130950000D03*
%TD*%
D10*
%TO.C,MX_L1*%
X83185000Y-106820000D03*
D11*
X85725000Y-111900000D03*
D10*
X89535000Y-109360000D03*
D12*
X90805000Y-111900000D03*
X80645000Y-111900000D03*
%TD*%
D10*
%TO.C,MX_K1*%
X102235000Y-106820000D03*
D11*
X104775000Y-111900000D03*
D10*
X108585000Y-109360000D03*
D12*
X109855000Y-111900000D03*
X99695000Y-111900000D03*
%TD*%
D10*
%TO.C,MX_J1*%
X121285000Y-106820000D03*
D11*
X123825000Y-111900000D03*
D10*
X127635000Y-109360000D03*
D12*
X128905000Y-111900000D03*
X118745000Y-111900000D03*
%TD*%
D10*
%TO.C,MX_I1*%
X106997500Y-87770000D03*
D11*
X109537500Y-92850000D03*
D10*
X113347500Y-90310000D03*
D12*
X114617500Y-92850000D03*
X104457500Y-92850000D03*
%TD*%
D10*
%TO.C,MX_H1*%
X140335000Y-106820000D03*
D11*
X142875000Y-111900000D03*
D10*
X146685000Y-109360000D03*
D12*
X147955000Y-111900000D03*
X137795000Y-111900000D03*
%TD*%
D10*
%TO.C,MX_G1*%
X159385000Y-106820000D03*
D11*
X161925000Y-111900000D03*
D10*
X165735000Y-109360000D03*
D12*
X167005000Y-111900000D03*
X156845000Y-111900000D03*
%TD*%
D10*
%TO.C,MX_FSLSH1*%
X54610000Y-125870000D03*
D11*
X57150000Y-130950000D03*
D10*
X60960000Y-128410000D03*
D12*
X62230000Y-130950000D03*
X52070000Y-130950000D03*
%TD*%
D10*
%TO.C,MX_F1*%
X178435000Y-106820000D03*
D11*
X180975000Y-111900000D03*
D10*
X184785000Y-109360000D03*
D12*
X186055000Y-111900000D03*
X175895000Y-111900000D03*
%TD*%
D10*
%TO.C,MX_E1*%
X202247500Y-87770000D03*
D11*
X204787500Y-92850000D03*
D10*
X208597500Y-90310000D03*
D12*
X209867500Y-92850000D03*
X199707500Y-92850000D03*
%TD*%
D10*
%TO.C,MX_DOWN1*%
X-16827500Y-144920000D03*
D11*
X-14287500Y-150000000D03*
D10*
X-10477500Y-147460000D03*
D12*
X-9207500Y-150000000D03*
X-19367500Y-150000000D03*
%TD*%
D10*
%TO.C,MX_D1*%
X197485000Y-106820000D03*
D11*
X200025000Y-111900000D03*
D10*
X203835000Y-109360000D03*
D12*
X205105000Y-111900000D03*
X194945000Y-111900000D03*
%TD*%
D10*
%TO.C,MX_CLBRK1*%
X30797500Y-87770000D03*
D11*
X33337500Y-92850000D03*
D10*
X37147500Y-90310000D03*
D12*
X38417500Y-92850000D03*
X28257500Y-92850000D03*
%TD*%
D10*
%TO.C,MX_C1*%
X187960000Y-125870000D03*
D11*
X190500000Y-130950000D03*
D10*
X194310000Y-128410000D03*
D12*
X195580000Y-130950000D03*
X185420000Y-130950000D03*
%TD*%
D10*
%TO.C,MX_B1*%
X149860000Y-125870000D03*
D11*
X152400000Y-130950000D03*
D10*
X156210000Y-128410000D03*
D12*
X157480000Y-130950000D03*
X147320000Y-130950000D03*
%TD*%
D10*
%TO.C,MX_>1*%
X73660000Y-125870000D03*
D11*
X76200000Y-130950000D03*
D10*
X80010000Y-128410000D03*
D12*
X81280000Y-130950000D03*
X71120000Y-130950000D03*
%TD*%
D10*
%TO.C,MX_<1*%
X92710000Y-125870000D03*
D11*
X95250000Y-130950000D03*
D10*
X99060000Y-128410000D03*
D12*
X100330000Y-130950000D03*
X90170000Y-130950000D03*
%TD*%
D10*
%TO.C,MX_9*%
X97472500Y-68720000D03*
D11*
X100012500Y-73800000D03*
D10*
X103822500Y-71260000D03*
D12*
X105092500Y-73800000D03*
X94932500Y-73800000D03*
%TD*%
D10*
%TO.C,MX_8*%
X116522500Y-68720000D03*
D11*
X119062500Y-73800000D03*
D10*
X122872500Y-71260000D03*
D12*
X124142500Y-73800000D03*
X113982500Y-73800000D03*
%TD*%
D10*
%TO.C,MX_7*%
X135572500Y-68720000D03*
D11*
X138112500Y-73800000D03*
D10*
X141922500Y-71260000D03*
D12*
X143192500Y-73800000D03*
X133032500Y-73800000D03*
%TD*%
D10*
%TO.C,MX_6*%
X154622500Y-68720000D03*
D11*
X157162500Y-73800000D03*
D10*
X160972500Y-71260000D03*
D12*
X162242500Y-73800000D03*
X152082500Y-73800000D03*
%TD*%
D10*
%TO.C,MX_5*%
X173672500Y-68720000D03*
D11*
X176212500Y-73800000D03*
D10*
X180022500Y-71260000D03*
D12*
X181292500Y-73800000D03*
X171132500Y-73800000D03*
%TD*%
D10*
%TO.C,MX_4*%
X192722500Y-68720000D03*
D11*
X195262500Y-73800000D03*
D10*
X199072500Y-71260000D03*
D12*
X200342500Y-73800000D03*
X190182500Y-73800000D03*
%TD*%
D10*
%TO.C,MX_3*%
X211772500Y-68720000D03*
D11*
X214312500Y-73800000D03*
D10*
X218122500Y-71260000D03*
D12*
X219392500Y-73800000D03*
X209232500Y-73800000D03*
%TD*%
D10*
%TO.C,MX_2*%
X230822500Y-68720000D03*
D11*
X233362500Y-73800000D03*
D10*
X237172500Y-71260000D03*
D12*
X238442500Y-73800000D03*
X228282500Y-73800000D03*
%TD*%
D10*
%TO.C,MX_1*%
X249872500Y-68720000D03*
D11*
X252412500Y-73800000D03*
D10*
X256222500Y-71260000D03*
D12*
X257492500Y-73800000D03*
X247332500Y-73800000D03*
%TD*%
D10*
%TO.C,MX_ESC1*%
X268922500Y-68720000D03*
D11*
X271462500Y-73800000D03*
D10*
X275272500Y-71260000D03*
D12*
X276542500Y-73800000D03*
X266382500Y-73800000D03*
%TD*%
D14*
%TO.C,U1*%
X-4318000Y-76581000D03*
X-14478000Y-76581000D03*
X-1778000Y-66421000D03*
X-1778000Y-68961000D03*
X-1778000Y-71501000D03*
X-1778000Y-74041000D03*
X-1778000Y-76581000D03*
X-1778000Y-79121000D03*
X-1778000Y-81661000D03*
X-1778000Y-84201000D03*
X-1778000Y-86741000D03*
X-1778000Y-89281000D03*
X-1778000Y-91821000D03*
X-1778000Y-94361000D03*
X-4318000Y-94361000D03*
G36*
G01*
X-7258000Y-93561000D02*
X-6458000Y-93561000D01*
G75*
G02*
X-6058000Y-93961000I0J-400000D01*
G01*
X-6058000Y-94761000D01*
G75*
G02*
X-6458000Y-95161000I-400000J0D01*
G01*
X-7258000Y-95161000D01*
G75*
G02*
X-7658000Y-94761000I0J400000D01*
G01*
X-7658000Y-93961000D01*
G75*
G02*
X-7258000Y-93561000I400000J0D01*
G01*
G37*
X-11938000Y-94361000D03*
X-14478000Y-94361000D03*
X-17018000Y-94361000D03*
X-17018000Y-91821000D03*
X-17018000Y-89281000D03*
X-17018000Y-86741000D03*
X-17018000Y-84201000D03*
X-17018000Y-81661000D03*
X-17018000Y-79121000D03*
X-17018000Y-76581000D03*
X-17018000Y-74041000D03*
X-17018000Y-71501000D03*
X-17018000Y-68961000D03*
D15*
X-17018000Y-66421000D03*
D14*
X-9398000Y-94361000D03*
%TD*%
%TO.C,U2*%
X176530000Y-152146000D03*
X176530000Y-141986000D03*
X186690000Y-154686000D03*
X184150000Y-154686000D03*
X181610000Y-154686000D03*
X179070000Y-154686000D03*
X176530000Y-154686000D03*
X173990000Y-154686000D03*
X171450000Y-154686000D03*
X168910000Y-154686000D03*
X166370000Y-154686000D03*
X163830000Y-154686000D03*
X161290000Y-154686000D03*
X158750000Y-154686000D03*
X158750000Y-152146000D03*
G36*
G01*
X159550000Y-149206000D02*
X159550000Y-150006000D01*
G75*
G02*
X159150000Y-150406000I-400000J0D01*
G01*
X158350000Y-150406000D01*
G75*
G02*
X157950000Y-150006000I0J400000D01*
G01*
X157950000Y-149206000D01*
G75*
G02*
X158350000Y-148806000I400000J0D01*
G01*
X159150000Y-148806000D01*
G75*
G02*
X159550000Y-149206000I0J-400000D01*
G01*
G37*
X158750000Y-144526000D03*
X158750000Y-141986000D03*
X158750000Y-139446000D03*
X161290000Y-139446000D03*
X163830000Y-139446000D03*
X166370000Y-139446000D03*
X168910000Y-139446000D03*
X171450000Y-139446000D03*
X173990000Y-139446000D03*
X176530000Y-139446000D03*
X179070000Y-139446000D03*
X181610000Y-139446000D03*
X184150000Y-139446000D03*
D15*
X186690000Y-139446000D03*
D14*
X158750000Y-147066000D03*
%TD*%
D16*
%TO.C,SW2*%
X-27754580Y-71635640D03*
X-22674580Y-71635640D03*
X-25214580Y-89735640D03*
X-27754580Y-89735640D03*
X-22674580Y-89735640D03*
%TD*%
M02*
