%TF.GenerationSoftware,KiCad,Pcbnew,(5.1.6)-1*%
%TF.CreationDate,2022-03-28T18:13:33-05:00*%
%TF.ProjectId,PR-PCB,50522d50-4342-42e6-9b69-6361645f7063,rev?*%
%TF.SameCoordinates,Original*%
%TF.FileFunction,Soldermask,Top*%
%TF.FilePolarity,Negative*%
%FSLAX46Y46*%
G04 Gerber Fmt 4.6, Leading zero omitted, Abs format (unit mm)*
G04 Created by KiCad (PCBNEW (5.1.6)-1) date 2022-03-28 18:13:33*
%MOMM*%
%LPD*%
G01*
G04 APERTURE LIST*
%ADD10C,2.350000*%
%ADD11C,4.087800*%
%ADD12C,1.850000*%
%ADD13C,1.700000*%
%ADD14R,1.700000X1.700000*%
%ADD15R,1.800000X1.800000*%
G04 APERTURE END LIST*
D10*
%TO.C,MX5*%
X4770000Y-12190000D03*
D11*
X9850000Y-9650000D03*
D10*
X7310000Y-5840000D03*
D12*
X9850000Y-4570000D03*
X9850000Y-14730000D03*
%TD*%
D10*
%TO.C,MX4*%
X4770000Y-31190000D03*
D11*
X9850000Y-28650000D03*
D10*
X7310000Y-24840000D03*
D12*
X9850000Y-23570000D03*
X9850000Y-33730000D03*
%TD*%
D10*
%TO.C,MX3*%
X4770000Y-50190000D03*
D11*
X9850000Y-47650000D03*
D10*
X7310000Y-43840000D03*
D12*
X9850000Y-42570000D03*
X9850000Y-52730000D03*
%TD*%
D10*
%TO.C,MX2*%
X4770000Y-69190000D03*
D11*
X9850000Y-66650000D03*
D10*
X7310000Y-62840000D03*
D12*
X9850000Y-61570000D03*
X9850000Y-71730000D03*
%TD*%
D10*
%TO.C,MX1*%
X4770000Y-88190000D03*
D11*
X9850000Y-85650000D03*
D10*
X7310000Y-81840000D03*
D12*
X9850000Y-80570000D03*
X9850000Y-90730000D03*
%TD*%
D13*
%TO.C,U1*%
X17470000Y-1300000D03*
X17470000Y-3840000D03*
X17470000Y-6380000D03*
X17470000Y-8920000D03*
X17470000Y-11460000D03*
X17470000Y-14000000D03*
X17470000Y-16540000D03*
X17470000Y-19080000D03*
X17470000Y-21620000D03*
X17470000Y-24160000D03*
X17470000Y-26700000D03*
X17470000Y-29240000D03*
X2230000Y-29240000D03*
X2230000Y-26700000D03*
X2230000Y-24160000D03*
X2230000Y-21620000D03*
X2230000Y-19080000D03*
X2230000Y-16540000D03*
X2230000Y-14000000D03*
X2230000Y-11460000D03*
X2230000Y-8920000D03*
X2230000Y-6380000D03*
X2230000Y-3840000D03*
D14*
X2230000Y-1300000D03*
%TD*%
D15*
%TO.C,SW2*%
X-8740000Y-102550000D03*
X-3660000Y-102550000D03*
X-6200000Y-102550000D03*
X-8740000Y-120650000D03*
X-3660000Y-120650000D03*
%TD*%
%TO.C,SW1*%
X28340000Y-120650000D03*
X23260000Y-120650000D03*
X25800000Y-102550000D03*
X28340000Y-102550000D03*
X23260000Y-102550000D03*
%TD*%
M02*
