%TF.GenerationSoftware,KiCad,Pcbnew,(5.1.6)-1*%
%TF.CreationDate,2022-03-28T18:13:33-05:00*%
%TF.ProjectId,PR-PCB,50522d50-4342-42e6-9b69-6361645f7063,rev?*%
%TF.SameCoordinates,Original*%
%TF.FileFunction,Copper,L2,Bot*%
%TF.FilePolarity,Positive*%
%FSLAX46Y46*%
G04 Gerber Fmt 4.6, Leading zero omitted, Abs format (unit mm)*
G04 Created by KiCad (PCBNEW (5.1.6)-1) date 2022-03-28 18:13:33*
%MOMM*%
%LPD*%
G01*
G04 APERTURE LIST*
%TA.AperFunction,ComponentPad*%
%ADD10C,2.250000*%
%TD*%
%TA.AperFunction,ComponentPad*%
%ADD11C,1.600000*%
%TD*%
%TA.AperFunction,ComponentPad*%
%ADD12R,1.600000X1.600000*%
%TD*%
%TA.AperFunction,ComponentPad*%
%ADD13R,1.700000X1.700000*%
%TD*%
%TA.AperFunction,ViaPad*%
%ADD14C,0.800000*%
%TD*%
%TA.AperFunction,Conductor*%
%ADD15C,0.250000*%
%TD*%
%TA.AperFunction,Conductor*%
%ADD16C,0.254000*%
%TD*%
G04 APERTURE END LIST*
D10*
%TO.P,MX5,2*%
%TO.N,Net-(MX5-Pad2)*%
X4770000Y-12190000D03*
%TO.P,MX5,1*%
%TO.N,Net-(MX1-Pad1)*%
X7310000Y-5840000D03*
%TD*%
%TO.P,MX4,2*%
%TO.N,Net-(MX4-Pad2)*%
X4770000Y-31190000D03*
%TO.P,MX4,1*%
%TO.N,Net-(MX1-Pad1)*%
X7310000Y-24840000D03*
%TD*%
%TO.P,MX3,2*%
%TO.N,Net-(MX3-Pad2)*%
X4770000Y-50190000D03*
%TO.P,MX3,1*%
%TO.N,Net-(MX1-Pad1)*%
X7310000Y-43840000D03*
%TD*%
%TO.P,MX2,2*%
%TO.N,Net-(MX2-Pad2)*%
X4770000Y-69190000D03*
%TO.P,MX2,1*%
%TO.N,Net-(MX1-Pad1)*%
X7310000Y-62840000D03*
%TD*%
%TO.P,MX1,2*%
%TO.N,Net-(MX1-Pad2)*%
X4770000Y-88190000D03*
%TO.P,MX1,1*%
%TO.N,Net-(MX1-Pad1)*%
X7310000Y-81840000D03*
%TD*%
D11*
%TO.P,U1,24*%
%TO.N,Net-(U1-Pad24)*%
X17470000Y-1300000D03*
%TO.P,U1,23*%
%TO.N,GND*%
X17470000Y-3840000D03*
%TO.P,U1,22*%
%TO.N,Net-(U1-Pad22)*%
X17470000Y-6380000D03*
%TO.P,U1,21*%
%TO.N,Net-(U1-Pad21)*%
X17470000Y-8920000D03*
%TO.P,U1,20*%
%TO.N,Net-(U1-Pad20)*%
X17470000Y-11460000D03*
%TO.P,U1,19*%
%TO.N,Net-(SW2-PadA)*%
X17470000Y-14000000D03*
%TO.P,U1,18*%
%TO.N,Net-(SW2-PadB)*%
X17470000Y-16540000D03*
%TO.P,U1,17*%
%TO.N,Net-(MX1-Pad1)*%
X17470000Y-19080000D03*
%TO.P,U1,16*%
%TO.N,Net-(SW2-PadS2)*%
X17470000Y-21620000D03*
%TO.P,U1,15*%
%TO.N,Net-(SW1-PadS2)*%
X17470000Y-24160000D03*
%TO.P,U1,14*%
%TO.N,Net-(SW1-PadB)*%
X17470000Y-26700000D03*
%TO.P,U1,13*%
%TO.N,Net-(SW1-PadA)*%
X17470000Y-29240000D03*
%TO.P,U1,12*%
%TO.N,Net-(MX1-Pad2)*%
X2230000Y-29240000D03*
%TO.P,U1,11*%
%TO.N,Net-(MX2-Pad2)*%
X2230000Y-26700000D03*
%TO.P,U1,10*%
%TO.N,Net-(MX3-Pad2)*%
X2230000Y-24160000D03*
%TO.P,U1,9*%
%TO.N,Net-(MX4-Pad2)*%
X2230000Y-21620000D03*
%TO.P,U1,8*%
%TO.N,Net-(MX5-Pad2)*%
X2230000Y-19080000D03*
%TO.P,U1,7*%
%TO.N,Net-(U1-Pad7)*%
X2230000Y-16540000D03*
%TO.P,U1,6*%
%TO.N,Net-(U1-Pad6)*%
X2230000Y-14000000D03*
%TO.P,U1,5*%
%TO.N,Net-(U1-Pad5)*%
X2230000Y-11460000D03*
%TO.P,U1,4*%
%TO.N,Net-(U1-Pad4)*%
X2230000Y-8920000D03*
%TO.P,U1,3*%
%TO.N,Net-(U1-Pad3)*%
X2230000Y-6380000D03*
%TO.P,U1,2*%
%TO.N,Net-(U1-Pad2)*%
X2230000Y-3840000D03*
D12*
%TO.P,U1,1*%
%TO.N,Net-(U1-Pad1)*%
X2230000Y-1300000D03*
%TD*%
D13*
%TO.P,SW2,A*%
%TO.N,Net-(SW2-PadA)*%
X-8740000Y-102550000D03*
%TO.P,SW2,B*%
%TO.N,Net-(SW2-PadB)*%
X-3660000Y-102550000D03*
%TO.P,SW2,C*%
%TO.N,GND*%
X-6200000Y-102550000D03*
%TO.P,SW2,S2*%
%TO.N,Net-(SW2-PadS2)*%
X-8740000Y-120650000D03*
%TO.P,SW2,S1*%
%TO.N,Net-(MX1-Pad1)*%
X-3660000Y-120650000D03*
%TD*%
%TO.P,SW1,S1*%
%TO.N,Net-(MX1-Pad1)*%
X28340000Y-120650000D03*
%TO.P,SW1,S2*%
%TO.N,Net-(SW1-PadS2)*%
X23260000Y-120650000D03*
%TO.P,SW1,C*%
%TO.N,GND*%
X25800000Y-102550000D03*
%TO.P,SW1,B*%
%TO.N,Net-(SW1-PadB)*%
X28340000Y-102550000D03*
%TO.P,SW1,A*%
%TO.N,Net-(SW1-PadA)*%
X23260000Y-102550000D03*
%TD*%
D14*
%TO.N,Net-(MX1-Pad2)*%
X2900000Y-36400000D03*
X5500000Y-36600000D03*
%TO.N,Net-(MX2-Pad2)*%
X2500000Y-65700000D03*
%TO.N,GND*%
X5700000Y-85400000D03*
X6300000Y-66400000D03*
X5700000Y-46800000D03*
X7000000Y-27400000D03*
X6500000Y-9200000D03*
X15100000Y-3500000D03*
X15300000Y-12100000D03*
X18000000Y-33000000D03*
X4700000Y-20500000D03*
X4300000Y-4800000D03*
X4600000Y-33700000D03*
X1200000Y-35700000D03*
X19500000Y-99200000D03*
X31100000Y-102500000D03*
X16800000Y-102100000D03*
X-2400000Y-99600000D03*
X-14700000Y-111000000D03*
X34000000Y-111300000D03*
X18000000Y-94300000D03*
X12700000Y-16400000D03*
X10200000Y-104500000D03*
X10500000Y-96700000D03*
X14000000Y-104700000D03*
X8800000Y-36500000D03*
X2000000Y-59000000D03*
X14900000Y-17900000D03*
X15000000Y-20400000D03*
X15100000Y-22700000D03*
X15100000Y-25300000D03*
X15200000Y-28600000D03*
X-1200000Y-101700000D03*
X9200000Y-101700000D03*
X20900000Y-101600000D03*
X25700000Y-120700000D03*
X31000000Y-121000000D03*
X-6400000Y-120600000D03*
X-11300000Y-120800000D03*
X7400000Y-109000000D03*
X14300000Y-111000000D03*
%TD*%
D15*
%TO.N,Net-(MX1-Pad2)*%
X2900000Y-36400000D02*
X5300000Y-36400000D01*
X5300000Y-36400000D02*
X5500000Y-36600000D01*
%TO.N,Net-(MX2-Pad2)*%
X5859999Y-62143999D02*
X5859999Y-62340001D01*
X6300000Y-61703998D02*
X5859999Y-62143999D01*
X6425001Y-47148001D02*
X6300000Y-47273002D01*
X6425001Y-46451999D02*
X6425001Y-47148001D01*
X7095001Y-29326975D02*
X7095001Y-36554999D01*
X4498026Y-26730000D02*
X7095001Y-29326975D01*
X6300000Y-37350000D02*
X6300000Y-42703998D01*
X6300000Y-47273002D02*
X6300000Y-61703998D01*
X2230000Y-26700000D02*
X2260000Y-26730000D01*
X7095001Y-36554999D02*
X6300000Y-37350000D01*
X2260000Y-26730000D02*
X4498026Y-26730000D01*
X5859999Y-43143999D02*
X5859999Y-44536001D01*
X6300000Y-42703998D02*
X5859999Y-43143999D01*
X6300000Y-46326998D02*
X6425001Y-46451999D01*
X5859999Y-44536001D02*
X6300000Y-44976002D01*
X5859999Y-62340001D02*
X2500000Y-65700000D01*
X6300000Y-44976002D02*
X6300000Y-46326998D01*
%TO.N,Net-(SW1-PadS2)*%
X16670001Y-24959999D02*
X17470000Y-24160000D01*
X13699978Y-27930022D02*
X16670001Y-24959999D01*
X13699978Y-96636390D02*
X13699978Y-27930022D01*
X13700000Y-96636412D02*
X13699978Y-96636390D01*
X15474999Y-102025001D02*
X13700000Y-100250002D01*
X23260000Y-120650000D02*
X19050000Y-120650000D01*
X19050000Y-120650000D02*
X17300000Y-118900000D01*
X13700000Y-100250002D02*
X13700000Y-96636412D01*
X17300000Y-109186432D02*
X15474999Y-107361431D01*
X17300000Y-118900000D02*
X17300000Y-109186432D01*
X15474999Y-107361431D02*
X15474999Y-102025001D01*
%TO.N,Net-(SW1-PadB)*%
X18595001Y-27825001D02*
X17470000Y-26700000D01*
X18595001Y-30104999D02*
X18595001Y-27825001D01*
X19036410Y-100700000D02*
X14600000Y-96263590D01*
X14600000Y-96263590D02*
X14600000Y-34100000D01*
X28340000Y-102550000D02*
X28340000Y-101740000D01*
X27300000Y-100700000D02*
X19036410Y-100700000D01*
X28340000Y-101740000D02*
X27300000Y-100700000D01*
X14600000Y-34100000D02*
X18595001Y-30104999D01*
%TO.N,Net-(SW1-PadA)*%
X20250000Y-102550000D02*
X14149989Y-96449990D01*
X23260000Y-102550000D02*
X20250000Y-102550000D01*
X14149989Y-32560011D02*
X17470000Y-29240000D01*
X14149989Y-96449990D02*
X14149989Y-32560011D01*
%TO.N,Net-(SW2-PadS2)*%
X-8740000Y-121750000D02*
X-8740000Y-120650000D01*
X-1625001Y-121825001D02*
X-8664999Y-121825001D01*
X15024988Y-107375012D02*
X12000000Y-110400000D01*
X13200000Y-25890000D02*
X13200000Y-100386412D01*
X3600000Y-110400000D02*
X1800000Y-112200000D01*
X17470000Y-21620000D02*
X13200000Y-25890000D01*
X1800000Y-119500000D02*
X800000Y-120500000D01*
X12000000Y-110400000D02*
X3600000Y-110400000D01*
X13200000Y-100386412D02*
X15024989Y-102211401D01*
X15024989Y-102211401D02*
X15024988Y-107375012D01*
X1800000Y-112200000D02*
X1800000Y-119500000D01*
X800000Y-120500000D02*
X-300000Y-120500000D01*
X-8664999Y-121825001D02*
X-8740000Y-121750000D01*
X-300000Y-120500000D02*
X-1625001Y-121825001D01*
%TO.N,Net-(SW2-PadB)*%
X12700000Y-21310000D02*
X17470000Y-16540000D01*
X12700000Y-100622802D02*
X12700000Y-21310000D01*
X10772802Y-102550000D02*
X12700000Y-100622802D01*
X-3660000Y-102550000D02*
X10772802Y-102550000D01*
%TO.N,Net-(SW2-PadA)*%
X-8740000Y-101340000D02*
X-8740000Y-102550000D01*
X12249989Y-19220011D02*
X12249989Y-98786421D01*
X17470000Y-14000000D02*
X12249989Y-19220011D01*
X12249989Y-98786421D02*
X10236410Y-100800000D01*
X10236410Y-100800000D02*
X-8200000Y-100800000D01*
X-8200000Y-100800000D02*
X-8740000Y-101340000D01*
%TD*%
D16*
%TO.N,GND*%
G36*
X29270946Y-100625391D02*
G01*
X32693106Y-102431532D01*
X35140000Y-105059678D01*
X35140001Y-118398624D01*
X30997613Y-121988695D01*
X26011072Y-123023637D01*
X22310043Y-122128227D01*
X22410000Y-122138072D01*
X24110000Y-122138072D01*
X24234482Y-122125812D01*
X24354180Y-122089502D01*
X24464494Y-122030537D01*
X24561185Y-121951185D01*
X24640537Y-121854494D01*
X24699502Y-121744180D01*
X24735812Y-121624482D01*
X24748072Y-121500000D01*
X24748072Y-120360000D01*
X26851928Y-120360000D01*
X26851928Y-121500000D01*
X26864188Y-121624482D01*
X26900498Y-121744180D01*
X26959463Y-121854494D01*
X27038815Y-121951185D01*
X27135506Y-122030537D01*
X27245820Y-122089502D01*
X27365518Y-122125812D01*
X27490000Y-122138072D01*
X29190000Y-122138072D01*
X29314482Y-122125812D01*
X29434180Y-122089502D01*
X29544494Y-122030537D01*
X29641185Y-121951185D01*
X29720537Y-121854494D01*
X29779502Y-121744180D01*
X29815812Y-121624482D01*
X29828072Y-121500000D01*
X29828072Y-120360000D01*
X32467581Y-120360000D01*
X32500000Y-120363193D01*
X32532419Y-120360000D01*
X32555234Y-120357753D01*
X32629383Y-120350450D01*
X32753793Y-120312710D01*
X32868450Y-120251425D01*
X32968948Y-120168948D01*
X33051425Y-120068450D01*
X33112710Y-119953793D01*
X33150450Y-119829383D01*
X33160000Y-119732419D01*
X33160000Y-119732418D01*
X33163193Y-119700000D01*
X33160000Y-119667581D01*
X33160000Y-103532419D01*
X33163193Y-103500000D01*
X33150450Y-103370617D01*
X33112710Y-103246207D01*
X33051425Y-103131550D01*
X32968948Y-103031052D01*
X32868450Y-102948575D01*
X32753793Y-102887290D01*
X32629383Y-102849550D01*
X32532419Y-102840000D01*
X32500000Y-102836807D01*
X32467581Y-102840000D01*
X29828072Y-102840000D01*
X29828072Y-101700000D01*
X29815812Y-101575518D01*
X29779502Y-101455820D01*
X29720537Y-101345506D01*
X29641185Y-101248815D01*
X29544494Y-101169463D01*
X29434180Y-101110498D01*
X29314482Y-101074188D01*
X29190000Y-101061928D01*
X28736730Y-101061928D01*
X28026390Y-100351589D01*
X29270946Y-100625391D01*
G37*
X29270946Y-100625391D02*
X32693106Y-102431532D01*
X35140000Y-105059678D01*
X35140001Y-118398624D01*
X30997613Y-121988695D01*
X26011072Y-123023637D01*
X22310043Y-122128227D01*
X22410000Y-122138072D01*
X24110000Y-122138072D01*
X24234482Y-122125812D01*
X24354180Y-122089502D01*
X24464494Y-122030537D01*
X24561185Y-121951185D01*
X24640537Y-121854494D01*
X24699502Y-121744180D01*
X24735812Y-121624482D01*
X24748072Y-121500000D01*
X24748072Y-120360000D01*
X26851928Y-120360000D01*
X26851928Y-121500000D01*
X26864188Y-121624482D01*
X26900498Y-121744180D01*
X26959463Y-121854494D01*
X27038815Y-121951185D01*
X27135506Y-122030537D01*
X27245820Y-122089502D01*
X27365518Y-122125812D01*
X27490000Y-122138072D01*
X29190000Y-122138072D01*
X29314482Y-122125812D01*
X29434180Y-122089502D01*
X29544494Y-122030537D01*
X29641185Y-121951185D01*
X29720537Y-121854494D01*
X29779502Y-121744180D01*
X29815812Y-121624482D01*
X29828072Y-121500000D01*
X29828072Y-120360000D01*
X32467581Y-120360000D01*
X32500000Y-120363193D01*
X32532419Y-120360000D01*
X32555234Y-120357753D01*
X32629383Y-120350450D01*
X32753793Y-120312710D01*
X32868450Y-120251425D01*
X32968948Y-120168948D01*
X33051425Y-120068450D01*
X33112710Y-119953793D01*
X33150450Y-119829383D01*
X33160000Y-119732419D01*
X33160000Y-119732418D01*
X33163193Y-119700000D01*
X33160000Y-119667581D01*
X33160000Y-103532419D01*
X33163193Y-103500000D01*
X33150450Y-103370617D01*
X33112710Y-103246207D01*
X33051425Y-103131550D01*
X32968948Y-103031052D01*
X32868450Y-102948575D01*
X32753793Y-102887290D01*
X32629383Y-102849550D01*
X32532419Y-102840000D01*
X32500000Y-102836807D01*
X32467581Y-102840000D01*
X29828072Y-102840000D01*
X29828072Y-101700000D01*
X29815812Y-101575518D01*
X29779502Y-101455820D01*
X29720537Y-101345506D01*
X29641185Y-101248815D01*
X29544494Y-101169463D01*
X29434180Y-101110498D01*
X29314482Y-101074188D01*
X29190000Y-101061928D01*
X28736730Y-101061928D01*
X28026390Y-100351589D01*
X29270946Y-100625391D01*
G36*
X-8740001Y-100259999D02*
G01*
X-8763800Y-100288998D01*
X-9250998Y-100776197D01*
X-9280001Y-100799999D01*
X-9320202Y-100848985D01*
X-9374974Y-100915724D01*
X-9419489Y-100999005D01*
X-9445546Y-101047754D01*
X-9449846Y-101061928D01*
X-9590000Y-101061928D01*
X-9714482Y-101074188D01*
X-9834180Y-101110498D01*
X-9944494Y-101169463D01*
X-10041185Y-101248815D01*
X-10120537Y-101345506D01*
X-10179502Y-101455820D01*
X-10215812Y-101575518D01*
X-10228072Y-101700000D01*
X-10228072Y-102840000D01*
X-12867581Y-102840000D01*
X-12900000Y-102836807D01*
X-12997136Y-102846374D01*
X-13029383Y-102849550D01*
X-13153793Y-102887290D01*
X-13268450Y-102948575D01*
X-13368948Y-103031052D01*
X-13451425Y-103131550D01*
X-13512710Y-103246207D01*
X-13550450Y-103370617D01*
X-13563193Y-103500000D01*
X-13560000Y-103532419D01*
X-13559999Y-119667571D01*
X-13563193Y-119700000D01*
X-13550450Y-119829383D01*
X-13512710Y-119953793D01*
X-13451425Y-120068450D01*
X-13368948Y-120168948D01*
X-13268450Y-120251425D01*
X-13153793Y-120312710D01*
X-13029383Y-120350450D01*
X-12932419Y-120360000D01*
X-12900000Y-120363193D01*
X-12867581Y-120360000D01*
X-10228072Y-120360000D01*
X-10228072Y-121500000D01*
X-10215812Y-121624482D01*
X-10179502Y-121744180D01*
X-10120537Y-121854494D01*
X-10041185Y-121951185D01*
X-9944494Y-122030537D01*
X-9834180Y-122089502D01*
X-9714482Y-122125812D01*
X-9590000Y-122138072D01*
X-9394326Y-122138072D01*
X-9374974Y-122174276D01*
X-9359444Y-122193199D01*
X-9280001Y-122290001D01*
X-9251000Y-122313802D01*
X-9228800Y-122336002D01*
X-9205000Y-122365002D01*
X-9089275Y-122459975D01*
X-9065394Y-122472740D01*
X-11398836Y-121988441D01*
X-15340000Y-118597208D01*
X-15340000Y-104766115D01*
X-12986408Y-102322000D01*
X-9946804Y-100517236D01*
X-8667425Y-100200438D01*
X-8740001Y-100259999D01*
G37*
X-8740001Y-100259999D02*
X-8763800Y-100288998D01*
X-9250998Y-100776197D01*
X-9280001Y-100799999D01*
X-9320202Y-100848985D01*
X-9374974Y-100915724D01*
X-9419489Y-100999005D01*
X-9445546Y-101047754D01*
X-9449846Y-101061928D01*
X-9590000Y-101061928D01*
X-9714482Y-101074188D01*
X-9834180Y-101110498D01*
X-9944494Y-101169463D01*
X-10041185Y-101248815D01*
X-10120537Y-101345506D01*
X-10179502Y-101455820D01*
X-10215812Y-101575518D01*
X-10228072Y-101700000D01*
X-10228072Y-102840000D01*
X-12867581Y-102840000D01*
X-12900000Y-102836807D01*
X-12997136Y-102846374D01*
X-13029383Y-102849550D01*
X-13153793Y-102887290D01*
X-13268450Y-102948575D01*
X-13368948Y-103031052D01*
X-13451425Y-103131550D01*
X-13512710Y-103246207D01*
X-13550450Y-103370617D01*
X-13563193Y-103500000D01*
X-13560000Y-103532419D01*
X-13559999Y-119667571D01*
X-13563193Y-119700000D01*
X-13550450Y-119829383D01*
X-13512710Y-119953793D01*
X-13451425Y-120068450D01*
X-13368948Y-120168948D01*
X-13268450Y-120251425D01*
X-13153793Y-120312710D01*
X-13029383Y-120350450D01*
X-12932419Y-120360000D01*
X-12900000Y-120363193D01*
X-12867581Y-120360000D01*
X-10228072Y-120360000D01*
X-10228072Y-121500000D01*
X-10215812Y-121624482D01*
X-10179502Y-121744180D01*
X-10120537Y-121854494D01*
X-10041185Y-121951185D01*
X-9944494Y-122030537D01*
X-9834180Y-122089502D01*
X-9714482Y-122125812D01*
X-9590000Y-122138072D01*
X-9394326Y-122138072D01*
X-9374974Y-122174276D01*
X-9359444Y-122193199D01*
X-9280001Y-122290001D01*
X-9251000Y-122313802D01*
X-9228800Y-122336002D01*
X-9205000Y-122365002D01*
X-9089275Y-122459975D01*
X-9065394Y-122472740D01*
X-11398836Y-121988441D01*
X-15340000Y-118597208D01*
X-15340000Y-104766115D01*
X-12986408Y-102322000D01*
X-9946804Y-100517236D01*
X-8667425Y-100200438D01*
X-8740001Y-100259999D01*
G36*
X-5148072Y-121065001D02*
G01*
X-7251928Y-121065001D01*
X-7251928Y-120360000D01*
X-5148072Y-120360000D01*
X-5148072Y-121065001D01*
G37*
X-5148072Y-121065001D02*
X-7251928Y-121065001D01*
X-7251928Y-120360000D01*
X-5148072Y-120360000D01*
X-5148072Y-121065001D01*
G36*
X19465198Y-102840000D02*
G01*
X19132419Y-102840000D01*
X19100000Y-102836807D01*
X19067581Y-102840000D01*
X18970617Y-102849550D01*
X18846207Y-102887290D01*
X18731550Y-102948575D01*
X18631052Y-103031052D01*
X18548575Y-103131550D01*
X18487290Y-103246207D01*
X18449550Y-103370617D01*
X18436807Y-103500000D01*
X18440001Y-103532429D01*
X18440000Y-118965199D01*
X18060000Y-118585199D01*
X18060000Y-109223754D01*
X18063676Y-109186431D01*
X18060000Y-109149108D01*
X18060000Y-109149099D01*
X18049003Y-109037446D01*
X18005546Y-108894185D01*
X17934974Y-108762156D01*
X17840001Y-108646431D01*
X17811003Y-108622633D01*
X16234999Y-107046630D01*
X16234999Y-102062326D01*
X16238675Y-102025001D01*
X16234999Y-101987676D01*
X16234999Y-101987668D01*
X16224002Y-101876015D01*
X16180545Y-101732754D01*
X16109973Y-101600725D01*
X16015000Y-101485000D01*
X15986002Y-101461202D01*
X14460000Y-99935201D01*
X14460000Y-97834802D01*
X19465198Y-102840000D01*
G37*
X19465198Y-102840000D02*
X19132419Y-102840000D01*
X19100000Y-102836807D01*
X19067581Y-102840000D01*
X18970617Y-102849550D01*
X18846207Y-102887290D01*
X18731550Y-102948575D01*
X18631052Y-103031052D01*
X18548575Y-103131550D01*
X18487290Y-103246207D01*
X18449550Y-103370617D01*
X18436807Y-103500000D01*
X18440001Y-103532429D01*
X18440000Y-118965199D01*
X18060000Y-118585199D01*
X18060000Y-109223754D01*
X18063676Y-109186431D01*
X18060000Y-109149108D01*
X18060000Y-109149099D01*
X18049003Y-109037446D01*
X18005546Y-108894185D01*
X17934974Y-108762156D01*
X17840001Y-108646431D01*
X17811003Y-108622633D01*
X16234999Y-107046630D01*
X16234999Y-102062326D01*
X16238675Y-102025001D01*
X16234999Y-101987676D01*
X16234999Y-101987668D01*
X16224002Y-101876015D01*
X16180545Y-101732754D01*
X16109973Y-101600725D01*
X16015000Y-101485000D01*
X15986002Y-101461202D01*
X14460000Y-99935201D01*
X14460000Y-97834802D01*
X19465198Y-102840000D01*
G36*
X16540001Y-109501235D02*
G01*
X16540001Y-111940747D01*
X16532419Y-111940000D01*
X16500000Y-111936807D01*
X16467581Y-111940000D01*
X3232419Y-111940000D01*
X3200000Y-111936807D01*
X3167581Y-111940000D01*
X3131221Y-111943581D01*
X3914803Y-111160000D01*
X11962678Y-111160000D01*
X12000000Y-111163676D01*
X12037322Y-111160000D01*
X12037333Y-111160000D01*
X12148986Y-111149003D01*
X12292247Y-111105546D01*
X12424276Y-111034974D01*
X12540001Y-110940001D01*
X12563804Y-110910997D01*
X15256784Y-108218018D01*
X16540001Y-109501235D01*
G37*
X16540001Y-109501235D02*
X16540001Y-111940747D01*
X16532419Y-111940000D01*
X16500000Y-111936807D01*
X16467581Y-111940000D01*
X3232419Y-111940000D01*
X3200000Y-111936807D01*
X3167581Y-111940000D01*
X3131221Y-111943581D01*
X3914803Y-111160000D01*
X11962678Y-111160000D01*
X12000000Y-111163676D01*
X12037322Y-111160000D01*
X12037333Y-111160000D01*
X12148986Y-111149003D01*
X12292247Y-111105546D01*
X12424276Y-111034974D01*
X12540001Y-110940001D01*
X12563804Y-110910997D01*
X15256784Y-108218018D01*
X16540001Y-109501235D01*
G36*
X14264990Y-102526204D02*
G01*
X14264988Y-107060210D01*
X11685199Y-109640000D01*
X3637322Y-109640000D01*
X3599999Y-109636324D01*
X3562676Y-109640000D01*
X3562667Y-109640000D01*
X3451014Y-109650997D01*
X3307753Y-109694454D01*
X3175724Y-109765026D01*
X3175722Y-109765027D01*
X3175723Y-109765027D01*
X3088996Y-109836201D01*
X3088992Y-109836205D01*
X3059999Y-109859999D01*
X3036205Y-109888992D01*
X1289002Y-111636197D01*
X1259999Y-111659999D01*
X1204871Y-111727174D01*
X1165026Y-111775724D01*
X1160000Y-111785127D01*
X1160000Y-103532419D01*
X1163193Y-103500000D01*
X1150450Y-103370617D01*
X1132062Y-103310000D01*
X10735480Y-103310000D01*
X10772802Y-103313676D01*
X10810124Y-103310000D01*
X10810135Y-103310000D01*
X10921788Y-103299003D01*
X11065049Y-103255546D01*
X11197078Y-103184974D01*
X11312803Y-103090001D01*
X11336606Y-103060997D01*
X13068195Y-101329409D01*
X14264990Y-102526204D01*
G37*
X14264990Y-102526204D02*
X14264988Y-107060210D01*
X11685199Y-109640000D01*
X3637322Y-109640000D01*
X3599999Y-109636324D01*
X3562676Y-109640000D01*
X3562667Y-109640000D01*
X3451014Y-109650997D01*
X3307753Y-109694454D01*
X3175724Y-109765026D01*
X3175722Y-109765027D01*
X3175723Y-109765027D01*
X3088996Y-109836201D01*
X3088992Y-109836205D01*
X3059999Y-109859999D01*
X3036205Y-109888992D01*
X1289002Y-111636197D01*
X1259999Y-111659999D01*
X1204871Y-111727174D01*
X1165026Y-111775724D01*
X1160000Y-111785127D01*
X1160000Y-103532419D01*
X1163193Y-103500000D01*
X1150450Y-103370617D01*
X1132062Y-103310000D01*
X10735480Y-103310000D01*
X10772802Y-103313676D01*
X10810124Y-103310000D01*
X10810135Y-103310000D01*
X10921788Y-103299003D01*
X11065049Y-103255546D01*
X11197078Y-103184974D01*
X11312803Y-103090001D01*
X11336606Y-103060997D01*
X13068195Y-101329409D01*
X14264990Y-102526204D01*
G36*
X-6073000Y-102423000D02*
G01*
X-6053000Y-102423000D01*
X-6053000Y-102677000D01*
X-6073000Y-102677000D01*
X-6073000Y-102697000D01*
X-6327000Y-102697000D01*
X-6327000Y-102677000D01*
X-6347000Y-102677000D01*
X-6347000Y-102423000D01*
X-6327000Y-102423000D01*
X-6327000Y-102403000D01*
X-6073000Y-102403000D01*
X-6073000Y-102423000D01*
G37*
X-6073000Y-102423000D02*
X-6053000Y-102423000D01*
X-6053000Y-102677000D01*
X-6073000Y-102677000D01*
X-6073000Y-102697000D01*
X-6327000Y-102697000D01*
X-6327000Y-102677000D01*
X-6347000Y-102677000D01*
X-6347000Y-102423000D01*
X-6327000Y-102423000D01*
X-6327000Y-102403000D01*
X-6073000Y-102403000D01*
X-6073000Y-102423000D01*
G36*
X25927000Y-102423000D02*
G01*
X25947000Y-102423000D01*
X25947000Y-102677000D01*
X25927000Y-102677000D01*
X25927000Y-102697000D01*
X25673000Y-102697000D01*
X25673000Y-102677000D01*
X25653000Y-102677000D01*
X25653000Y-102423000D01*
X25673000Y-102423000D01*
X25673000Y-102403000D01*
X25927000Y-102403000D01*
X25927000Y-102423000D01*
G37*
X25927000Y-102423000D02*
X25947000Y-102423000D01*
X25947000Y-102677000D01*
X25927000Y-102677000D01*
X25927000Y-102697000D01*
X25673000Y-102697000D01*
X25673000Y-102677000D01*
X25653000Y-102677000D01*
X25653000Y-102423000D01*
X25673000Y-102423000D01*
X25673000Y-102403000D01*
X25927000Y-102403000D01*
X25927000Y-102423000D01*
G36*
X21784188Y-101575518D02*
G01*
X21771928Y-101700000D01*
X21771928Y-101790000D01*
X20564802Y-101790000D01*
X20234802Y-101460000D01*
X21819230Y-101460000D01*
X21784188Y-101575518D01*
G37*
X21784188Y-101575518D02*
X21771928Y-101700000D01*
X21771928Y-101790000D01*
X20564802Y-101790000D01*
X20234802Y-101460000D01*
X21819230Y-101460000D01*
X21784188Y-101575518D01*
G36*
X11940000Y-100308000D02*
G01*
X10458001Y-101790000D01*
X-2171928Y-101790000D01*
X-2171928Y-101700000D01*
X-2184188Y-101575518D01*
X-2188895Y-101560000D01*
X10199088Y-101560000D01*
X10236410Y-101563676D01*
X10273732Y-101560000D01*
X10273743Y-101560000D01*
X10385396Y-101549003D01*
X10528657Y-101505546D01*
X10660686Y-101434974D01*
X10776411Y-101340001D01*
X10800214Y-101310997D01*
X11940000Y-100171212D01*
X11940000Y-100308000D01*
G37*
X11940000Y-100308000D02*
X10458001Y-101790000D01*
X-2171928Y-101790000D01*
X-2171928Y-101700000D01*
X-2184188Y-101575518D01*
X-2188895Y-101560000D01*
X10199088Y-101560000D01*
X10236410Y-101563676D01*
X10273732Y-101560000D01*
X10273743Y-101560000D01*
X10385396Y-101549003D01*
X10528657Y-101505546D01*
X10660686Y-101434974D01*
X10776411Y-101340001D01*
X10800214Y-101310997D01*
X11940000Y-100171212D01*
X11940000Y-100308000D01*
G36*
X8174174Y-30692000D02*
G01*
X8604749Y-30979701D01*
X9083178Y-31177873D01*
X9591076Y-31278900D01*
X10108924Y-31278900D01*
X10616822Y-31177873D01*
X11095251Y-30979701D01*
X11489989Y-30715945D01*
X11489989Y-45584055D01*
X11095251Y-45320299D01*
X10616822Y-45122127D01*
X10108924Y-45021100D01*
X9591076Y-45021100D01*
X9083178Y-45122127D01*
X8604749Y-45320299D01*
X8174174Y-45608000D01*
X7808000Y-45974174D01*
X7520299Y-46404749D01*
X7322127Y-46883178D01*
X7221100Y-47391076D01*
X7221100Y-47908924D01*
X7322127Y-48416822D01*
X7520299Y-48895251D01*
X7808000Y-49325826D01*
X8174174Y-49692000D01*
X8604749Y-49979701D01*
X9083178Y-50177873D01*
X9591076Y-50278900D01*
X10108924Y-50278900D01*
X10616822Y-50177873D01*
X11095251Y-49979701D01*
X11489989Y-49715945D01*
X11489990Y-64584055D01*
X11095251Y-64320299D01*
X10616822Y-64122127D01*
X10108924Y-64021100D01*
X9591076Y-64021100D01*
X9083178Y-64122127D01*
X8604749Y-64320299D01*
X8174174Y-64608000D01*
X7808000Y-64974174D01*
X7520299Y-65404749D01*
X7322127Y-65883178D01*
X7221100Y-66391076D01*
X7221100Y-66908924D01*
X7322127Y-67416822D01*
X7520299Y-67895251D01*
X7808000Y-68325826D01*
X8174174Y-68692000D01*
X8604749Y-68979701D01*
X9083178Y-69177873D01*
X9591076Y-69278900D01*
X10108924Y-69278900D01*
X10616822Y-69177873D01*
X11095251Y-68979701D01*
X11489990Y-68715945D01*
X11489990Y-83584055D01*
X11095251Y-83320299D01*
X10616822Y-83122127D01*
X10108924Y-83021100D01*
X9591076Y-83021100D01*
X9083178Y-83122127D01*
X8604749Y-83320299D01*
X8174174Y-83608000D01*
X7808000Y-83974174D01*
X7520299Y-84404749D01*
X7322127Y-84883178D01*
X7221100Y-85391076D01*
X7221100Y-85908924D01*
X7322127Y-86416822D01*
X7520299Y-86895251D01*
X7808000Y-87325826D01*
X8174174Y-87692000D01*
X8604749Y-87979701D01*
X9083178Y-88177873D01*
X9591076Y-88278900D01*
X10108924Y-88278900D01*
X10616822Y-88177873D01*
X11095251Y-87979701D01*
X11489990Y-87715945D01*
X11489990Y-98471618D01*
X9921609Y-100040000D01*
X-8019503Y-100040000D01*
X412258Y-97952137D01*
X429382Y-97950450D01*
X475200Y-97936551D01*
X490106Y-97932860D01*
X506262Y-97927128D01*
X553792Y-97912710D01*
X567390Y-97905442D01*
X581931Y-97900283D01*
X624634Y-97874845D01*
X668449Y-97851425D01*
X680369Y-97841642D01*
X693623Y-97833747D01*
X730539Y-97800470D01*
X768948Y-97768948D01*
X778733Y-97757025D01*
X790188Y-97746699D01*
X819895Y-97706869D01*
X851425Y-97668450D01*
X858696Y-97654847D01*
X867916Y-97642485D01*
X889283Y-97597623D01*
X912710Y-97553793D01*
X917188Y-97539032D01*
X923819Y-97525109D01*
X936021Y-97476950D01*
X950450Y-97429383D01*
X951962Y-97414028D01*
X955749Y-97399082D01*
X958321Y-97349470D01*
X960000Y-97332419D01*
X960000Y-97317072D01*
X962479Y-97269248D01*
X960000Y-97252219D01*
X960000Y-90581278D01*
X8340000Y-90581278D01*
X8340000Y-90878722D01*
X8398029Y-91170451D01*
X8511856Y-91445253D01*
X8677107Y-91692569D01*
X8887431Y-91902893D01*
X9134747Y-92068144D01*
X9409549Y-92181971D01*
X9701278Y-92240000D01*
X9998722Y-92240000D01*
X10290451Y-92181971D01*
X10565253Y-92068144D01*
X10812569Y-91902893D01*
X11022893Y-91692569D01*
X11188144Y-91445253D01*
X11301971Y-91170451D01*
X11360000Y-90878722D01*
X11360000Y-90581278D01*
X11301971Y-90289549D01*
X11188144Y-90014747D01*
X11022893Y-89767431D01*
X10812569Y-89557107D01*
X10565253Y-89391856D01*
X10290451Y-89278029D01*
X9998722Y-89220000D01*
X9701278Y-89220000D01*
X9409549Y-89278029D01*
X9134747Y-89391856D01*
X8887431Y-89557107D01*
X8677107Y-89767431D01*
X8511856Y-90014747D01*
X8398029Y-90289549D01*
X8340000Y-90581278D01*
X960000Y-90581278D01*
X960000Y-88016655D01*
X3010000Y-88016655D01*
X3010000Y-88363345D01*
X3077636Y-88703373D01*
X3210308Y-89023673D01*
X3402919Y-89311935D01*
X3648065Y-89557081D01*
X3936327Y-89749692D01*
X4256627Y-89882364D01*
X4596655Y-89950000D01*
X4943345Y-89950000D01*
X5283373Y-89882364D01*
X5603673Y-89749692D01*
X5891935Y-89557081D01*
X6137081Y-89311935D01*
X6329692Y-89023673D01*
X6462364Y-88703373D01*
X6530000Y-88363345D01*
X6530000Y-88016655D01*
X6462364Y-87676627D01*
X6329692Y-87356327D01*
X6137081Y-87068065D01*
X5891935Y-86822919D01*
X5603673Y-86630308D01*
X5283373Y-86497636D01*
X4943345Y-86430000D01*
X4596655Y-86430000D01*
X4256627Y-86497636D01*
X3936327Y-86630308D01*
X3648065Y-86822919D01*
X3402919Y-87068065D01*
X3210308Y-87356327D01*
X3077636Y-87676627D01*
X3010000Y-88016655D01*
X960000Y-88016655D01*
X960000Y-81666655D01*
X5550000Y-81666655D01*
X5550000Y-82013345D01*
X5617636Y-82353373D01*
X5750308Y-82673673D01*
X5942919Y-82961935D01*
X6188065Y-83207081D01*
X6476327Y-83399692D01*
X6796627Y-83532364D01*
X7136655Y-83600000D01*
X7483345Y-83600000D01*
X7823373Y-83532364D01*
X8143673Y-83399692D01*
X8431935Y-83207081D01*
X8677081Y-82961935D01*
X8869692Y-82673673D01*
X9002364Y-82353373D01*
X9070000Y-82013345D01*
X9070000Y-81864882D01*
X9134747Y-81908144D01*
X9409549Y-82021971D01*
X9701278Y-82080000D01*
X9998722Y-82080000D01*
X10290451Y-82021971D01*
X10565253Y-81908144D01*
X10812569Y-81742893D01*
X11022893Y-81532569D01*
X11188144Y-81285253D01*
X11301971Y-81010451D01*
X11360000Y-80718722D01*
X11360000Y-80421278D01*
X11301971Y-80129549D01*
X11188144Y-79854747D01*
X11022893Y-79607431D01*
X10812569Y-79397107D01*
X10565253Y-79231856D01*
X10290451Y-79118029D01*
X9998722Y-79060000D01*
X9701278Y-79060000D01*
X9409549Y-79118029D01*
X9134747Y-79231856D01*
X8887431Y-79397107D01*
X8677107Y-79607431D01*
X8511856Y-79854747D01*
X8398029Y-80129549D01*
X8341719Y-80412638D01*
X8143673Y-80280308D01*
X7823373Y-80147636D01*
X7483345Y-80080000D01*
X7136655Y-80080000D01*
X6796627Y-80147636D01*
X6476327Y-80280308D01*
X6188065Y-80472919D01*
X5942919Y-80718065D01*
X5750308Y-81006327D01*
X5617636Y-81326627D01*
X5550000Y-81666655D01*
X960000Y-81666655D01*
X960000Y-71581278D01*
X8340000Y-71581278D01*
X8340000Y-71878722D01*
X8398029Y-72170451D01*
X8511856Y-72445253D01*
X8677107Y-72692569D01*
X8887431Y-72902893D01*
X9134747Y-73068144D01*
X9409549Y-73181971D01*
X9701278Y-73240000D01*
X9998722Y-73240000D01*
X10290451Y-73181971D01*
X10565253Y-73068144D01*
X10812569Y-72902893D01*
X11022893Y-72692569D01*
X11188144Y-72445253D01*
X11301971Y-72170451D01*
X11360000Y-71878722D01*
X11360000Y-71581278D01*
X11301971Y-71289549D01*
X11188144Y-71014747D01*
X11022893Y-70767431D01*
X10812569Y-70557107D01*
X10565253Y-70391856D01*
X10290451Y-70278029D01*
X9998722Y-70220000D01*
X9701278Y-70220000D01*
X9409549Y-70278029D01*
X9134747Y-70391856D01*
X8887431Y-70557107D01*
X8677107Y-70767431D01*
X8511856Y-71014747D01*
X8398029Y-71289549D01*
X8340000Y-71581278D01*
X960000Y-71581278D01*
X960000Y-69016655D01*
X3010000Y-69016655D01*
X3010000Y-69363345D01*
X3077636Y-69703373D01*
X3210308Y-70023673D01*
X3402919Y-70311935D01*
X3648065Y-70557081D01*
X3936327Y-70749692D01*
X4256627Y-70882364D01*
X4596655Y-70950000D01*
X4943345Y-70950000D01*
X5283373Y-70882364D01*
X5603673Y-70749692D01*
X5891935Y-70557081D01*
X6137081Y-70311935D01*
X6329692Y-70023673D01*
X6462364Y-69703373D01*
X6530000Y-69363345D01*
X6530000Y-69016655D01*
X6462364Y-68676627D01*
X6329692Y-68356327D01*
X6137081Y-68068065D01*
X5891935Y-67822919D01*
X5603673Y-67630308D01*
X5283373Y-67497636D01*
X4943345Y-67430000D01*
X4596655Y-67430000D01*
X4256627Y-67497636D01*
X3936327Y-67630308D01*
X3648065Y-67822919D01*
X3402919Y-68068065D01*
X3210308Y-68356327D01*
X3077636Y-68676627D01*
X3010000Y-69016655D01*
X960000Y-69016655D01*
X960000Y-57860000D01*
X3067581Y-57860000D01*
X3100000Y-57863193D01*
X3132419Y-57860000D01*
X3229383Y-57850450D01*
X3353793Y-57812710D01*
X3468450Y-57751425D01*
X3568948Y-57668948D01*
X3651425Y-57568450D01*
X3712710Y-57453793D01*
X3750450Y-57329383D01*
X3763193Y-57200000D01*
X3760000Y-57167581D01*
X3760000Y-51631874D01*
X3936327Y-51749692D01*
X4256627Y-51882364D01*
X4596655Y-51950000D01*
X4943345Y-51950000D01*
X5283373Y-51882364D01*
X5540000Y-51776066D01*
X5540001Y-61389196D01*
X5349001Y-61580196D01*
X5319998Y-61603998D01*
X5295003Y-61634455D01*
X5225025Y-61719723D01*
X5194836Y-61776202D01*
X5154453Y-61851753D01*
X5110996Y-61995014D01*
X5108900Y-62016298D01*
X2460199Y-64665000D01*
X2398061Y-64665000D01*
X2198102Y-64704774D01*
X2009744Y-64782795D01*
X1840226Y-64896063D01*
X1696063Y-65040226D01*
X1582795Y-65209744D01*
X1504774Y-65398102D01*
X1465000Y-65598061D01*
X1465000Y-65801939D01*
X1504774Y-66001898D01*
X1582795Y-66190256D01*
X1696063Y-66359774D01*
X1840226Y-66503937D01*
X2009744Y-66617205D01*
X2198102Y-66695226D01*
X2398061Y-66735000D01*
X2601939Y-66735000D01*
X2801898Y-66695226D01*
X2990256Y-66617205D01*
X3159774Y-66503937D01*
X3303937Y-66359774D01*
X3417205Y-66190256D01*
X3495226Y-66001898D01*
X3535000Y-65801939D01*
X3535000Y-65739801D01*
X5706615Y-63568187D01*
X5750308Y-63673673D01*
X5942919Y-63961935D01*
X6188065Y-64207081D01*
X6476327Y-64399692D01*
X6796627Y-64532364D01*
X7136655Y-64600000D01*
X7483345Y-64600000D01*
X7823373Y-64532364D01*
X8143673Y-64399692D01*
X8431935Y-64207081D01*
X8677081Y-63961935D01*
X8869692Y-63673673D01*
X9002364Y-63353373D01*
X9070000Y-63013345D01*
X9070000Y-62864882D01*
X9134747Y-62908144D01*
X9409549Y-63021971D01*
X9701278Y-63080000D01*
X9998722Y-63080000D01*
X10290451Y-63021971D01*
X10565253Y-62908144D01*
X10812569Y-62742893D01*
X11022893Y-62532569D01*
X11188144Y-62285253D01*
X11301971Y-62010451D01*
X11360000Y-61718722D01*
X11360000Y-61421278D01*
X11301971Y-61129549D01*
X11188144Y-60854747D01*
X11022893Y-60607431D01*
X10812569Y-60397107D01*
X10565253Y-60231856D01*
X10290451Y-60118029D01*
X9998722Y-60060000D01*
X9701278Y-60060000D01*
X9409549Y-60118029D01*
X9134747Y-60231856D01*
X8887431Y-60397107D01*
X8677107Y-60607431D01*
X8511856Y-60854747D01*
X8398029Y-61129549D01*
X8341719Y-61412638D01*
X8143673Y-61280308D01*
X7823373Y-61147636D01*
X7483345Y-61080000D01*
X7136655Y-61080000D01*
X7060000Y-61095248D01*
X7060000Y-52581278D01*
X8340000Y-52581278D01*
X8340000Y-52878722D01*
X8398029Y-53170451D01*
X8511856Y-53445253D01*
X8677107Y-53692569D01*
X8887431Y-53902893D01*
X9134747Y-54068144D01*
X9409549Y-54181971D01*
X9701278Y-54240000D01*
X9998722Y-54240000D01*
X10290451Y-54181971D01*
X10565253Y-54068144D01*
X10812569Y-53902893D01*
X11022893Y-53692569D01*
X11188144Y-53445253D01*
X11301971Y-53170451D01*
X11360000Y-52878722D01*
X11360000Y-52581278D01*
X11301971Y-52289549D01*
X11188144Y-52014747D01*
X11022893Y-51767431D01*
X10812569Y-51557107D01*
X10565253Y-51391856D01*
X10290451Y-51278029D01*
X9998722Y-51220000D01*
X9701278Y-51220000D01*
X9409549Y-51278029D01*
X9134747Y-51391856D01*
X8887431Y-51557107D01*
X8677107Y-51767431D01*
X8511856Y-52014747D01*
X8398029Y-52289549D01*
X8340000Y-52581278D01*
X7060000Y-52581278D01*
X7060000Y-47572230D01*
X7130547Y-47440248D01*
X7174004Y-47296987D01*
X7185001Y-47185334D01*
X7185001Y-47185324D01*
X7188677Y-47148002D01*
X7185001Y-47110679D01*
X7185001Y-46489321D01*
X7188677Y-46451998D01*
X7185001Y-46414676D01*
X7185001Y-46414666D01*
X7174004Y-46303013D01*
X7130547Y-46159752D01*
X7060000Y-46027770D01*
X7060000Y-45584752D01*
X7136655Y-45600000D01*
X7483345Y-45600000D01*
X7823373Y-45532364D01*
X8143673Y-45399692D01*
X8431935Y-45207081D01*
X8677081Y-44961935D01*
X8869692Y-44673673D01*
X9002364Y-44353373D01*
X9070000Y-44013345D01*
X9070000Y-43864882D01*
X9134747Y-43908144D01*
X9409549Y-44021971D01*
X9701278Y-44080000D01*
X9998722Y-44080000D01*
X10290451Y-44021971D01*
X10565253Y-43908144D01*
X10812569Y-43742893D01*
X11022893Y-43532569D01*
X11188144Y-43285253D01*
X11301971Y-43010451D01*
X11360000Y-42718722D01*
X11360000Y-42421278D01*
X11301971Y-42129549D01*
X11188144Y-41854747D01*
X11022893Y-41607431D01*
X10812569Y-41397107D01*
X10565253Y-41231856D01*
X10290451Y-41118029D01*
X9998722Y-41060000D01*
X9701278Y-41060000D01*
X9409549Y-41118029D01*
X9134747Y-41231856D01*
X8887431Y-41397107D01*
X8677107Y-41607431D01*
X8511856Y-41854747D01*
X8398029Y-42129549D01*
X8341719Y-42412638D01*
X8143673Y-42280308D01*
X7823373Y-42147636D01*
X7483345Y-42080000D01*
X7136655Y-42080000D01*
X7060000Y-42095248D01*
X7060000Y-37664801D01*
X7606003Y-37118798D01*
X7635002Y-37095000D01*
X7729975Y-36979275D01*
X7800547Y-36847246D01*
X7844004Y-36703985D01*
X7855001Y-36592332D01*
X7855001Y-36592323D01*
X7858677Y-36555000D01*
X7855001Y-36517677D01*
X7855001Y-33581278D01*
X8340000Y-33581278D01*
X8340000Y-33878722D01*
X8398029Y-34170451D01*
X8511856Y-34445253D01*
X8677107Y-34692569D01*
X8887431Y-34902893D01*
X9134747Y-35068144D01*
X9409549Y-35181971D01*
X9701278Y-35240000D01*
X9998722Y-35240000D01*
X10290451Y-35181971D01*
X10565253Y-35068144D01*
X10812569Y-34902893D01*
X11022893Y-34692569D01*
X11188144Y-34445253D01*
X11301971Y-34170451D01*
X11360000Y-33878722D01*
X11360000Y-33581278D01*
X11301971Y-33289549D01*
X11188144Y-33014747D01*
X11022893Y-32767431D01*
X10812569Y-32557107D01*
X10565253Y-32391856D01*
X10290451Y-32278029D01*
X9998722Y-32220000D01*
X9701278Y-32220000D01*
X9409549Y-32278029D01*
X9134747Y-32391856D01*
X8887431Y-32557107D01*
X8677107Y-32767431D01*
X8511856Y-33014747D01*
X8398029Y-33289549D01*
X8340000Y-33581278D01*
X7855001Y-33581278D01*
X7855001Y-30372827D01*
X8174174Y-30692000D01*
G37*
X8174174Y-30692000D02*
X8604749Y-30979701D01*
X9083178Y-31177873D01*
X9591076Y-31278900D01*
X10108924Y-31278900D01*
X10616822Y-31177873D01*
X11095251Y-30979701D01*
X11489989Y-30715945D01*
X11489989Y-45584055D01*
X11095251Y-45320299D01*
X10616822Y-45122127D01*
X10108924Y-45021100D01*
X9591076Y-45021100D01*
X9083178Y-45122127D01*
X8604749Y-45320299D01*
X8174174Y-45608000D01*
X7808000Y-45974174D01*
X7520299Y-46404749D01*
X7322127Y-46883178D01*
X7221100Y-47391076D01*
X7221100Y-47908924D01*
X7322127Y-48416822D01*
X7520299Y-48895251D01*
X7808000Y-49325826D01*
X8174174Y-49692000D01*
X8604749Y-49979701D01*
X9083178Y-50177873D01*
X9591076Y-50278900D01*
X10108924Y-50278900D01*
X10616822Y-50177873D01*
X11095251Y-49979701D01*
X11489989Y-49715945D01*
X11489990Y-64584055D01*
X11095251Y-64320299D01*
X10616822Y-64122127D01*
X10108924Y-64021100D01*
X9591076Y-64021100D01*
X9083178Y-64122127D01*
X8604749Y-64320299D01*
X8174174Y-64608000D01*
X7808000Y-64974174D01*
X7520299Y-65404749D01*
X7322127Y-65883178D01*
X7221100Y-66391076D01*
X7221100Y-66908924D01*
X7322127Y-67416822D01*
X7520299Y-67895251D01*
X7808000Y-68325826D01*
X8174174Y-68692000D01*
X8604749Y-68979701D01*
X9083178Y-69177873D01*
X9591076Y-69278900D01*
X10108924Y-69278900D01*
X10616822Y-69177873D01*
X11095251Y-68979701D01*
X11489990Y-68715945D01*
X11489990Y-83584055D01*
X11095251Y-83320299D01*
X10616822Y-83122127D01*
X10108924Y-83021100D01*
X9591076Y-83021100D01*
X9083178Y-83122127D01*
X8604749Y-83320299D01*
X8174174Y-83608000D01*
X7808000Y-83974174D01*
X7520299Y-84404749D01*
X7322127Y-84883178D01*
X7221100Y-85391076D01*
X7221100Y-85908924D01*
X7322127Y-86416822D01*
X7520299Y-86895251D01*
X7808000Y-87325826D01*
X8174174Y-87692000D01*
X8604749Y-87979701D01*
X9083178Y-88177873D01*
X9591076Y-88278900D01*
X10108924Y-88278900D01*
X10616822Y-88177873D01*
X11095251Y-87979701D01*
X11489990Y-87715945D01*
X11489990Y-98471618D01*
X9921609Y-100040000D01*
X-8019503Y-100040000D01*
X412258Y-97952137D01*
X429382Y-97950450D01*
X475200Y-97936551D01*
X490106Y-97932860D01*
X506262Y-97927128D01*
X553792Y-97912710D01*
X567390Y-97905442D01*
X581931Y-97900283D01*
X624634Y-97874845D01*
X668449Y-97851425D01*
X680369Y-97841642D01*
X693623Y-97833747D01*
X730539Y-97800470D01*
X768948Y-97768948D01*
X778733Y-97757025D01*
X790188Y-97746699D01*
X819895Y-97706869D01*
X851425Y-97668450D01*
X858696Y-97654847D01*
X867916Y-97642485D01*
X889283Y-97597623D01*
X912710Y-97553793D01*
X917188Y-97539032D01*
X923819Y-97525109D01*
X936021Y-97476950D01*
X950450Y-97429383D01*
X951962Y-97414028D01*
X955749Y-97399082D01*
X958321Y-97349470D01*
X960000Y-97332419D01*
X960000Y-97317072D01*
X962479Y-97269248D01*
X960000Y-97252219D01*
X960000Y-90581278D01*
X8340000Y-90581278D01*
X8340000Y-90878722D01*
X8398029Y-91170451D01*
X8511856Y-91445253D01*
X8677107Y-91692569D01*
X8887431Y-91902893D01*
X9134747Y-92068144D01*
X9409549Y-92181971D01*
X9701278Y-92240000D01*
X9998722Y-92240000D01*
X10290451Y-92181971D01*
X10565253Y-92068144D01*
X10812569Y-91902893D01*
X11022893Y-91692569D01*
X11188144Y-91445253D01*
X11301971Y-91170451D01*
X11360000Y-90878722D01*
X11360000Y-90581278D01*
X11301971Y-90289549D01*
X11188144Y-90014747D01*
X11022893Y-89767431D01*
X10812569Y-89557107D01*
X10565253Y-89391856D01*
X10290451Y-89278029D01*
X9998722Y-89220000D01*
X9701278Y-89220000D01*
X9409549Y-89278029D01*
X9134747Y-89391856D01*
X8887431Y-89557107D01*
X8677107Y-89767431D01*
X8511856Y-90014747D01*
X8398029Y-90289549D01*
X8340000Y-90581278D01*
X960000Y-90581278D01*
X960000Y-88016655D01*
X3010000Y-88016655D01*
X3010000Y-88363345D01*
X3077636Y-88703373D01*
X3210308Y-89023673D01*
X3402919Y-89311935D01*
X3648065Y-89557081D01*
X3936327Y-89749692D01*
X4256627Y-89882364D01*
X4596655Y-89950000D01*
X4943345Y-89950000D01*
X5283373Y-89882364D01*
X5603673Y-89749692D01*
X5891935Y-89557081D01*
X6137081Y-89311935D01*
X6329692Y-89023673D01*
X6462364Y-88703373D01*
X6530000Y-88363345D01*
X6530000Y-88016655D01*
X6462364Y-87676627D01*
X6329692Y-87356327D01*
X6137081Y-87068065D01*
X5891935Y-86822919D01*
X5603673Y-86630308D01*
X5283373Y-86497636D01*
X4943345Y-86430000D01*
X4596655Y-86430000D01*
X4256627Y-86497636D01*
X3936327Y-86630308D01*
X3648065Y-86822919D01*
X3402919Y-87068065D01*
X3210308Y-87356327D01*
X3077636Y-87676627D01*
X3010000Y-88016655D01*
X960000Y-88016655D01*
X960000Y-81666655D01*
X5550000Y-81666655D01*
X5550000Y-82013345D01*
X5617636Y-82353373D01*
X5750308Y-82673673D01*
X5942919Y-82961935D01*
X6188065Y-83207081D01*
X6476327Y-83399692D01*
X6796627Y-83532364D01*
X7136655Y-83600000D01*
X7483345Y-83600000D01*
X7823373Y-83532364D01*
X8143673Y-83399692D01*
X8431935Y-83207081D01*
X8677081Y-82961935D01*
X8869692Y-82673673D01*
X9002364Y-82353373D01*
X9070000Y-82013345D01*
X9070000Y-81864882D01*
X9134747Y-81908144D01*
X9409549Y-82021971D01*
X9701278Y-82080000D01*
X9998722Y-82080000D01*
X10290451Y-82021971D01*
X10565253Y-81908144D01*
X10812569Y-81742893D01*
X11022893Y-81532569D01*
X11188144Y-81285253D01*
X11301971Y-81010451D01*
X11360000Y-80718722D01*
X11360000Y-80421278D01*
X11301971Y-80129549D01*
X11188144Y-79854747D01*
X11022893Y-79607431D01*
X10812569Y-79397107D01*
X10565253Y-79231856D01*
X10290451Y-79118029D01*
X9998722Y-79060000D01*
X9701278Y-79060000D01*
X9409549Y-79118029D01*
X9134747Y-79231856D01*
X8887431Y-79397107D01*
X8677107Y-79607431D01*
X8511856Y-79854747D01*
X8398029Y-80129549D01*
X8341719Y-80412638D01*
X8143673Y-80280308D01*
X7823373Y-80147636D01*
X7483345Y-80080000D01*
X7136655Y-80080000D01*
X6796627Y-80147636D01*
X6476327Y-80280308D01*
X6188065Y-80472919D01*
X5942919Y-80718065D01*
X5750308Y-81006327D01*
X5617636Y-81326627D01*
X5550000Y-81666655D01*
X960000Y-81666655D01*
X960000Y-71581278D01*
X8340000Y-71581278D01*
X8340000Y-71878722D01*
X8398029Y-72170451D01*
X8511856Y-72445253D01*
X8677107Y-72692569D01*
X8887431Y-72902893D01*
X9134747Y-73068144D01*
X9409549Y-73181971D01*
X9701278Y-73240000D01*
X9998722Y-73240000D01*
X10290451Y-73181971D01*
X10565253Y-73068144D01*
X10812569Y-72902893D01*
X11022893Y-72692569D01*
X11188144Y-72445253D01*
X11301971Y-72170451D01*
X11360000Y-71878722D01*
X11360000Y-71581278D01*
X11301971Y-71289549D01*
X11188144Y-71014747D01*
X11022893Y-70767431D01*
X10812569Y-70557107D01*
X10565253Y-70391856D01*
X10290451Y-70278029D01*
X9998722Y-70220000D01*
X9701278Y-70220000D01*
X9409549Y-70278029D01*
X9134747Y-70391856D01*
X8887431Y-70557107D01*
X8677107Y-70767431D01*
X8511856Y-71014747D01*
X8398029Y-71289549D01*
X8340000Y-71581278D01*
X960000Y-71581278D01*
X960000Y-69016655D01*
X3010000Y-69016655D01*
X3010000Y-69363345D01*
X3077636Y-69703373D01*
X3210308Y-70023673D01*
X3402919Y-70311935D01*
X3648065Y-70557081D01*
X3936327Y-70749692D01*
X4256627Y-70882364D01*
X4596655Y-70950000D01*
X4943345Y-70950000D01*
X5283373Y-70882364D01*
X5603673Y-70749692D01*
X5891935Y-70557081D01*
X6137081Y-70311935D01*
X6329692Y-70023673D01*
X6462364Y-69703373D01*
X6530000Y-69363345D01*
X6530000Y-69016655D01*
X6462364Y-68676627D01*
X6329692Y-68356327D01*
X6137081Y-68068065D01*
X5891935Y-67822919D01*
X5603673Y-67630308D01*
X5283373Y-67497636D01*
X4943345Y-67430000D01*
X4596655Y-67430000D01*
X4256627Y-67497636D01*
X3936327Y-67630308D01*
X3648065Y-67822919D01*
X3402919Y-68068065D01*
X3210308Y-68356327D01*
X3077636Y-68676627D01*
X3010000Y-69016655D01*
X960000Y-69016655D01*
X960000Y-57860000D01*
X3067581Y-57860000D01*
X3100000Y-57863193D01*
X3132419Y-57860000D01*
X3229383Y-57850450D01*
X3353793Y-57812710D01*
X3468450Y-57751425D01*
X3568948Y-57668948D01*
X3651425Y-57568450D01*
X3712710Y-57453793D01*
X3750450Y-57329383D01*
X3763193Y-57200000D01*
X3760000Y-57167581D01*
X3760000Y-51631874D01*
X3936327Y-51749692D01*
X4256627Y-51882364D01*
X4596655Y-51950000D01*
X4943345Y-51950000D01*
X5283373Y-51882364D01*
X5540000Y-51776066D01*
X5540001Y-61389196D01*
X5349001Y-61580196D01*
X5319998Y-61603998D01*
X5295003Y-61634455D01*
X5225025Y-61719723D01*
X5194836Y-61776202D01*
X5154453Y-61851753D01*
X5110996Y-61995014D01*
X5108900Y-62016298D01*
X2460199Y-64665000D01*
X2398061Y-64665000D01*
X2198102Y-64704774D01*
X2009744Y-64782795D01*
X1840226Y-64896063D01*
X1696063Y-65040226D01*
X1582795Y-65209744D01*
X1504774Y-65398102D01*
X1465000Y-65598061D01*
X1465000Y-65801939D01*
X1504774Y-66001898D01*
X1582795Y-66190256D01*
X1696063Y-66359774D01*
X1840226Y-66503937D01*
X2009744Y-66617205D01*
X2198102Y-66695226D01*
X2398061Y-66735000D01*
X2601939Y-66735000D01*
X2801898Y-66695226D01*
X2990256Y-66617205D01*
X3159774Y-66503937D01*
X3303937Y-66359774D01*
X3417205Y-66190256D01*
X3495226Y-66001898D01*
X3535000Y-65801939D01*
X3535000Y-65739801D01*
X5706615Y-63568187D01*
X5750308Y-63673673D01*
X5942919Y-63961935D01*
X6188065Y-64207081D01*
X6476327Y-64399692D01*
X6796627Y-64532364D01*
X7136655Y-64600000D01*
X7483345Y-64600000D01*
X7823373Y-64532364D01*
X8143673Y-64399692D01*
X8431935Y-64207081D01*
X8677081Y-63961935D01*
X8869692Y-63673673D01*
X9002364Y-63353373D01*
X9070000Y-63013345D01*
X9070000Y-62864882D01*
X9134747Y-62908144D01*
X9409549Y-63021971D01*
X9701278Y-63080000D01*
X9998722Y-63080000D01*
X10290451Y-63021971D01*
X10565253Y-62908144D01*
X10812569Y-62742893D01*
X11022893Y-62532569D01*
X11188144Y-62285253D01*
X11301971Y-62010451D01*
X11360000Y-61718722D01*
X11360000Y-61421278D01*
X11301971Y-61129549D01*
X11188144Y-60854747D01*
X11022893Y-60607431D01*
X10812569Y-60397107D01*
X10565253Y-60231856D01*
X10290451Y-60118029D01*
X9998722Y-60060000D01*
X9701278Y-60060000D01*
X9409549Y-60118029D01*
X9134747Y-60231856D01*
X8887431Y-60397107D01*
X8677107Y-60607431D01*
X8511856Y-60854747D01*
X8398029Y-61129549D01*
X8341719Y-61412638D01*
X8143673Y-61280308D01*
X7823373Y-61147636D01*
X7483345Y-61080000D01*
X7136655Y-61080000D01*
X7060000Y-61095248D01*
X7060000Y-52581278D01*
X8340000Y-52581278D01*
X8340000Y-52878722D01*
X8398029Y-53170451D01*
X8511856Y-53445253D01*
X8677107Y-53692569D01*
X8887431Y-53902893D01*
X9134747Y-54068144D01*
X9409549Y-54181971D01*
X9701278Y-54240000D01*
X9998722Y-54240000D01*
X10290451Y-54181971D01*
X10565253Y-54068144D01*
X10812569Y-53902893D01*
X11022893Y-53692569D01*
X11188144Y-53445253D01*
X11301971Y-53170451D01*
X11360000Y-52878722D01*
X11360000Y-52581278D01*
X11301971Y-52289549D01*
X11188144Y-52014747D01*
X11022893Y-51767431D01*
X10812569Y-51557107D01*
X10565253Y-51391856D01*
X10290451Y-51278029D01*
X9998722Y-51220000D01*
X9701278Y-51220000D01*
X9409549Y-51278029D01*
X9134747Y-51391856D01*
X8887431Y-51557107D01*
X8677107Y-51767431D01*
X8511856Y-52014747D01*
X8398029Y-52289549D01*
X8340000Y-52581278D01*
X7060000Y-52581278D01*
X7060000Y-47572230D01*
X7130547Y-47440248D01*
X7174004Y-47296987D01*
X7185001Y-47185334D01*
X7185001Y-47185324D01*
X7188677Y-47148002D01*
X7185001Y-47110679D01*
X7185001Y-46489321D01*
X7188677Y-46451998D01*
X7185001Y-46414676D01*
X7185001Y-46414666D01*
X7174004Y-46303013D01*
X7130547Y-46159752D01*
X7060000Y-46027770D01*
X7060000Y-45584752D01*
X7136655Y-45600000D01*
X7483345Y-45600000D01*
X7823373Y-45532364D01*
X8143673Y-45399692D01*
X8431935Y-45207081D01*
X8677081Y-44961935D01*
X8869692Y-44673673D01*
X9002364Y-44353373D01*
X9070000Y-44013345D01*
X9070000Y-43864882D01*
X9134747Y-43908144D01*
X9409549Y-44021971D01*
X9701278Y-44080000D01*
X9998722Y-44080000D01*
X10290451Y-44021971D01*
X10565253Y-43908144D01*
X10812569Y-43742893D01*
X11022893Y-43532569D01*
X11188144Y-43285253D01*
X11301971Y-43010451D01*
X11360000Y-42718722D01*
X11360000Y-42421278D01*
X11301971Y-42129549D01*
X11188144Y-41854747D01*
X11022893Y-41607431D01*
X10812569Y-41397107D01*
X10565253Y-41231856D01*
X10290451Y-41118029D01*
X9998722Y-41060000D01*
X9701278Y-41060000D01*
X9409549Y-41118029D01*
X9134747Y-41231856D01*
X8887431Y-41397107D01*
X8677107Y-41607431D01*
X8511856Y-41854747D01*
X8398029Y-42129549D01*
X8341719Y-42412638D01*
X8143673Y-42280308D01*
X7823373Y-42147636D01*
X7483345Y-42080000D01*
X7136655Y-42080000D01*
X7060000Y-42095248D01*
X7060000Y-37664801D01*
X7606003Y-37118798D01*
X7635002Y-37095000D01*
X7729975Y-36979275D01*
X7800547Y-36847246D01*
X7844004Y-36703985D01*
X7855001Y-36592332D01*
X7855001Y-36592323D01*
X7858677Y-36555000D01*
X7855001Y-36517677D01*
X7855001Y-33581278D01*
X8340000Y-33581278D01*
X8340000Y-33878722D01*
X8398029Y-34170451D01*
X8511856Y-34445253D01*
X8677107Y-34692569D01*
X8887431Y-34902893D01*
X9134747Y-35068144D01*
X9409549Y-35181971D01*
X9701278Y-35240000D01*
X9998722Y-35240000D01*
X10290451Y-35181971D01*
X10565253Y-35068144D01*
X10812569Y-34902893D01*
X11022893Y-34692569D01*
X11188144Y-34445253D01*
X11301971Y-34170451D01*
X11360000Y-33878722D01*
X11360000Y-33581278D01*
X11301971Y-33289549D01*
X11188144Y-33014747D01*
X11022893Y-32767431D01*
X10812569Y-32557107D01*
X10565253Y-32391856D01*
X10290451Y-32278029D01*
X9998722Y-32220000D01*
X9701278Y-32220000D01*
X9409549Y-32278029D01*
X9134747Y-32391856D01*
X8887431Y-32557107D01*
X8677107Y-32767431D01*
X8511856Y-33014747D01*
X8398029Y-33289549D01*
X8340000Y-33581278D01*
X7855001Y-33581278D01*
X7855001Y-30372827D01*
X8174174Y-30692000D01*
G36*
X18840001Y-37540000D02*
G01*
X16532419Y-37540000D01*
X16500000Y-37536807D01*
X16467581Y-37540000D01*
X16370617Y-37549550D01*
X16246207Y-37587290D01*
X16131550Y-37648575D01*
X16031052Y-37731052D01*
X15948575Y-37831550D01*
X15887290Y-37946207D01*
X15849550Y-38070617D01*
X15836807Y-38200000D01*
X15840000Y-38232419D01*
X15840001Y-57067571D01*
X15836807Y-57100000D01*
X15849550Y-57229383D01*
X15887290Y-57353793D01*
X15948575Y-57468450D01*
X16031052Y-57568948D01*
X16131550Y-57651425D01*
X16246207Y-57712710D01*
X16370617Y-57750450D01*
X16467581Y-57760000D01*
X16500000Y-57763193D01*
X16532419Y-57760000D01*
X18840001Y-57760000D01*
X18840000Y-97760901D01*
X18836943Y-97786605D01*
X18840000Y-97825730D01*
X18840000Y-97832418D01*
X18842528Y-97858086D01*
X18847070Y-97916217D01*
X18848891Y-97922686D01*
X18849550Y-97929382D01*
X18866493Y-97985235D01*
X18882289Y-98041364D01*
X18885337Y-98047355D01*
X18887290Y-98053792D01*
X18914800Y-98105260D01*
X18941246Y-98157236D01*
X18945404Y-98162517D01*
X18948575Y-98168449D01*
X18985598Y-98213562D01*
X19021676Y-98259380D01*
X19026785Y-98263748D01*
X19031052Y-98268948D01*
X19076173Y-98305978D01*
X19120487Y-98343869D01*
X19126348Y-98347155D01*
X19131550Y-98351425D01*
X19183027Y-98378940D01*
X19233882Y-98407458D01*
X19240275Y-98409539D01*
X19246207Y-98412710D01*
X19302068Y-98429655D01*
X19326530Y-98437619D01*
X19333043Y-98439052D01*
X19370617Y-98450450D01*
X19396392Y-98452989D01*
X26155532Y-99940000D01*
X19351212Y-99940000D01*
X15360000Y-95948789D01*
X15360000Y-34414801D01*
X18840001Y-30934801D01*
X18840001Y-37540000D01*
G37*
X18840001Y-37540000D02*
X16532419Y-37540000D01*
X16500000Y-37536807D01*
X16467581Y-37540000D01*
X16370617Y-37549550D01*
X16246207Y-37587290D01*
X16131550Y-37648575D01*
X16031052Y-37731052D01*
X15948575Y-37831550D01*
X15887290Y-37946207D01*
X15849550Y-38070617D01*
X15836807Y-38200000D01*
X15840000Y-38232419D01*
X15840001Y-57067571D01*
X15836807Y-57100000D01*
X15849550Y-57229383D01*
X15887290Y-57353793D01*
X15948575Y-57468450D01*
X16031052Y-57568948D01*
X16131550Y-57651425D01*
X16246207Y-57712710D01*
X16370617Y-57750450D01*
X16467581Y-57760000D01*
X16500000Y-57763193D01*
X16532419Y-57760000D01*
X18840001Y-57760000D01*
X18840000Y-97760901D01*
X18836943Y-97786605D01*
X18840000Y-97825730D01*
X18840000Y-97832418D01*
X18842528Y-97858086D01*
X18847070Y-97916217D01*
X18848891Y-97922686D01*
X18849550Y-97929382D01*
X18866493Y-97985235D01*
X18882289Y-98041364D01*
X18885337Y-98047355D01*
X18887290Y-98053792D01*
X18914800Y-98105260D01*
X18941246Y-98157236D01*
X18945404Y-98162517D01*
X18948575Y-98168449D01*
X18985598Y-98213562D01*
X19021676Y-98259380D01*
X19026785Y-98263748D01*
X19031052Y-98268948D01*
X19076173Y-98305978D01*
X19120487Y-98343869D01*
X19126348Y-98347155D01*
X19131550Y-98351425D01*
X19183027Y-98378940D01*
X19233882Y-98407458D01*
X19240275Y-98409539D01*
X19246207Y-98412710D01*
X19302068Y-98429655D01*
X19326530Y-98437619D01*
X19333043Y-98439052D01*
X19370617Y-98450450D01*
X19396392Y-98452989D01*
X26155532Y-99940000D01*
X19351212Y-99940000D01*
X15360000Y-95948789D01*
X15360000Y-34414801D01*
X18840001Y-30934801D01*
X18840001Y-37540000D01*
G36*
X6335001Y-29641777D02*
G01*
X6335001Y-30369144D01*
X6329692Y-30356327D01*
X6137081Y-30068065D01*
X5891935Y-29822919D01*
X5603673Y-29630308D01*
X5283373Y-29497636D01*
X4943345Y-29430000D01*
X4596655Y-29430000D01*
X4256627Y-29497636D01*
X3936327Y-29630308D01*
X3648065Y-29822919D01*
X3402919Y-30068065D01*
X3210308Y-30356327D01*
X3077636Y-30676627D01*
X3010000Y-31016655D01*
X3010000Y-31363345D01*
X3077636Y-31703373D01*
X3210308Y-32023673D01*
X3402919Y-32311935D01*
X3648065Y-32557081D01*
X3936327Y-32749692D01*
X4256627Y-32882364D01*
X4596655Y-32950000D01*
X4943345Y-32950000D01*
X5283373Y-32882364D01*
X5603673Y-32749692D01*
X5891935Y-32557081D01*
X6137081Y-32311935D01*
X6329692Y-32023673D01*
X6335001Y-32010855D01*
X6335002Y-35986718D01*
X6303937Y-35940226D01*
X6159774Y-35796063D01*
X5990256Y-35682795D01*
X5801898Y-35604774D01*
X5601939Y-35565000D01*
X5398061Y-35565000D01*
X5198102Y-35604774D01*
X5113060Y-35640000D01*
X3603711Y-35640000D01*
X3559774Y-35596063D01*
X3390256Y-35482795D01*
X3201898Y-35404774D01*
X3001939Y-35365000D01*
X2798061Y-35365000D01*
X2598102Y-35404774D01*
X2409744Y-35482795D01*
X2240226Y-35596063D01*
X2096063Y-35740226D01*
X1982795Y-35909744D01*
X1904774Y-36098102D01*
X1865000Y-36298061D01*
X1865000Y-36501939D01*
X1904774Y-36701898D01*
X1982795Y-36890256D01*
X2096063Y-37059774D01*
X2240226Y-37203937D01*
X2409744Y-37317205D01*
X2598102Y-37395226D01*
X2798061Y-37435000D01*
X3001939Y-37435000D01*
X3201898Y-37395226D01*
X3390256Y-37317205D01*
X3559774Y-37203937D01*
X3603711Y-37160000D01*
X4629396Y-37160000D01*
X4696063Y-37259774D01*
X4840226Y-37403937D01*
X5009744Y-37517205D01*
X5198102Y-37595226D01*
X5398061Y-37635000D01*
X5540000Y-37635000D01*
X5540001Y-42389196D01*
X5349001Y-42580196D01*
X5319998Y-42603998D01*
X5264870Y-42671173D01*
X5225025Y-42719723D01*
X5154454Y-42851752D01*
X5154453Y-42851753D01*
X5110996Y-42995014D01*
X5099999Y-43106667D01*
X5099999Y-43106677D01*
X5096323Y-43143999D01*
X5099999Y-43181322D01*
X5100000Y-44498669D01*
X5096323Y-44536001D01*
X5110997Y-44684986D01*
X5154453Y-44828247D01*
X5225025Y-44960277D01*
X5237930Y-44976001D01*
X5319999Y-45076002D01*
X5348997Y-45099800D01*
X5540000Y-45290804D01*
X5540001Y-46289666D01*
X5536324Y-46326998D01*
X5550998Y-46475983D01*
X5594454Y-46619244D01*
X5665001Y-46751227D01*
X5665001Y-46848773D01*
X5661269Y-46855755D01*
X5594454Y-46980756D01*
X5550997Y-47124017D01*
X5540000Y-47235670D01*
X5540000Y-47235680D01*
X5536324Y-47273002D01*
X5540000Y-47310324D01*
X5540000Y-48603934D01*
X5283373Y-48497636D01*
X4943345Y-48430000D01*
X4596655Y-48430000D01*
X4256627Y-48497636D01*
X3936327Y-48630308D01*
X3760000Y-48748126D01*
X3760000Y-38232419D01*
X3763193Y-38200000D01*
X3750450Y-38070617D01*
X3712710Y-37946207D01*
X3651425Y-37831550D01*
X3568948Y-37731052D01*
X3468450Y-37648575D01*
X3353793Y-37587290D01*
X3229383Y-37549550D01*
X3132419Y-37540000D01*
X3100000Y-37536807D01*
X3067581Y-37540000D01*
X959137Y-37540000D01*
X949147Y-29897582D01*
X958320Y-29919727D01*
X1115363Y-30154759D01*
X1315241Y-30354637D01*
X1550273Y-30511680D01*
X1811426Y-30619853D01*
X2088665Y-30675000D01*
X2371335Y-30675000D01*
X2648574Y-30619853D01*
X2909727Y-30511680D01*
X3144759Y-30354637D01*
X3344637Y-30154759D01*
X3501680Y-29919727D01*
X3609853Y-29658574D01*
X3665000Y-29381335D01*
X3665000Y-29098665D01*
X3609853Y-28821426D01*
X3501680Y-28560273D01*
X3344637Y-28325241D01*
X3144759Y-28125363D01*
X2912241Y-27970000D01*
X3144759Y-27814637D01*
X3344637Y-27614759D01*
X3427998Y-27490000D01*
X4183225Y-27490000D01*
X6335001Y-29641777D01*
G37*
X6335001Y-29641777D02*
X6335001Y-30369144D01*
X6329692Y-30356327D01*
X6137081Y-30068065D01*
X5891935Y-29822919D01*
X5603673Y-29630308D01*
X5283373Y-29497636D01*
X4943345Y-29430000D01*
X4596655Y-29430000D01*
X4256627Y-29497636D01*
X3936327Y-29630308D01*
X3648065Y-29822919D01*
X3402919Y-30068065D01*
X3210308Y-30356327D01*
X3077636Y-30676627D01*
X3010000Y-31016655D01*
X3010000Y-31363345D01*
X3077636Y-31703373D01*
X3210308Y-32023673D01*
X3402919Y-32311935D01*
X3648065Y-32557081D01*
X3936327Y-32749692D01*
X4256627Y-32882364D01*
X4596655Y-32950000D01*
X4943345Y-32950000D01*
X5283373Y-32882364D01*
X5603673Y-32749692D01*
X5891935Y-32557081D01*
X6137081Y-32311935D01*
X6329692Y-32023673D01*
X6335001Y-32010855D01*
X6335002Y-35986718D01*
X6303937Y-35940226D01*
X6159774Y-35796063D01*
X5990256Y-35682795D01*
X5801898Y-35604774D01*
X5601939Y-35565000D01*
X5398061Y-35565000D01*
X5198102Y-35604774D01*
X5113060Y-35640000D01*
X3603711Y-35640000D01*
X3559774Y-35596063D01*
X3390256Y-35482795D01*
X3201898Y-35404774D01*
X3001939Y-35365000D01*
X2798061Y-35365000D01*
X2598102Y-35404774D01*
X2409744Y-35482795D01*
X2240226Y-35596063D01*
X2096063Y-35740226D01*
X1982795Y-35909744D01*
X1904774Y-36098102D01*
X1865000Y-36298061D01*
X1865000Y-36501939D01*
X1904774Y-36701898D01*
X1982795Y-36890256D01*
X2096063Y-37059774D01*
X2240226Y-37203937D01*
X2409744Y-37317205D01*
X2598102Y-37395226D01*
X2798061Y-37435000D01*
X3001939Y-37435000D01*
X3201898Y-37395226D01*
X3390256Y-37317205D01*
X3559774Y-37203937D01*
X3603711Y-37160000D01*
X4629396Y-37160000D01*
X4696063Y-37259774D01*
X4840226Y-37403937D01*
X5009744Y-37517205D01*
X5198102Y-37595226D01*
X5398061Y-37635000D01*
X5540000Y-37635000D01*
X5540001Y-42389196D01*
X5349001Y-42580196D01*
X5319998Y-42603998D01*
X5264870Y-42671173D01*
X5225025Y-42719723D01*
X5154454Y-42851752D01*
X5154453Y-42851753D01*
X5110996Y-42995014D01*
X5099999Y-43106667D01*
X5099999Y-43106677D01*
X5096323Y-43143999D01*
X5099999Y-43181322D01*
X5100000Y-44498669D01*
X5096323Y-44536001D01*
X5110997Y-44684986D01*
X5154453Y-44828247D01*
X5225025Y-44960277D01*
X5237930Y-44976001D01*
X5319999Y-45076002D01*
X5348997Y-45099800D01*
X5540000Y-45290804D01*
X5540001Y-46289666D01*
X5536324Y-46326998D01*
X5550998Y-46475983D01*
X5594454Y-46619244D01*
X5665001Y-46751227D01*
X5665001Y-46848773D01*
X5661269Y-46855755D01*
X5594454Y-46980756D01*
X5550997Y-47124017D01*
X5540000Y-47235670D01*
X5540000Y-47235680D01*
X5536324Y-47273002D01*
X5540000Y-47310324D01*
X5540000Y-48603934D01*
X5283373Y-48497636D01*
X4943345Y-48430000D01*
X4596655Y-48430000D01*
X4256627Y-48497636D01*
X3936327Y-48630308D01*
X3760000Y-48748126D01*
X3760000Y-38232419D01*
X3763193Y-38200000D01*
X3750450Y-38070617D01*
X3712710Y-37946207D01*
X3651425Y-37831550D01*
X3568948Y-37731052D01*
X3468450Y-37648575D01*
X3353793Y-37587290D01*
X3229383Y-37549550D01*
X3132419Y-37540000D01*
X3100000Y-37536807D01*
X3067581Y-37540000D01*
X959137Y-37540000D01*
X949147Y-29897582D01*
X958320Y-29919727D01*
X1115363Y-30154759D01*
X1315241Y-30354637D01*
X1550273Y-30511680D01*
X1811426Y-30619853D01*
X2088665Y-30675000D01*
X2371335Y-30675000D01*
X2648574Y-30619853D01*
X2909727Y-30511680D01*
X3144759Y-30354637D01*
X3344637Y-30154759D01*
X3501680Y-29919727D01*
X3609853Y-29658574D01*
X3665000Y-29381335D01*
X3665000Y-29098665D01*
X3609853Y-28821426D01*
X3501680Y-28560273D01*
X3344637Y-28325241D01*
X3144759Y-28125363D01*
X2912241Y-27970000D01*
X3144759Y-27814637D01*
X3344637Y-27614759D01*
X3427998Y-27490000D01*
X4183225Y-27490000D01*
X6335001Y-29641777D01*
G36*
X16035000Y-26841335D02*
G01*
X16090147Y-27118574D01*
X16198320Y-27379727D01*
X16355363Y-27614759D01*
X16555241Y-27814637D01*
X16787759Y-27970000D01*
X16555241Y-28125363D01*
X16355363Y-28325241D01*
X16198320Y-28560273D01*
X16090147Y-28821426D01*
X16035000Y-29098665D01*
X16035000Y-29381335D01*
X16071312Y-29563886D01*
X14459978Y-31175221D01*
X14459978Y-28244823D01*
X16035000Y-26669802D01*
X16035000Y-26841335D01*
G37*
X16035000Y-26841335D02*
X16090147Y-27118574D01*
X16198320Y-27379727D01*
X16355363Y-27614759D01*
X16555241Y-27814637D01*
X16787759Y-27970000D01*
X16555241Y-28125363D01*
X16355363Y-28325241D01*
X16198320Y-28560273D01*
X16090147Y-28821426D01*
X16035000Y-29098665D01*
X16035000Y-29381335D01*
X16071312Y-29563886D01*
X14459978Y-31175221D01*
X14459978Y-28244823D01*
X16035000Y-26669802D01*
X16035000Y-26841335D01*
G36*
X16198320Y-620273D02*
G01*
X16090147Y-881426D01*
X16035000Y-1158665D01*
X16035000Y-1441335D01*
X16090147Y-1718574D01*
X16198320Y-1979727D01*
X16355363Y-2214759D01*
X16555241Y-2414637D01*
X16789128Y-2570915D01*
X16728486Y-2603329D01*
X16656903Y-2847298D01*
X17470000Y-3660395D01*
X18283097Y-2847298D01*
X18211514Y-2603329D01*
X18147008Y-2572806D01*
X18149727Y-2571680D01*
X18384759Y-2414637D01*
X18584637Y-2214759D01*
X18741680Y-1979727D01*
X18840000Y-1742361D01*
X18840000Y-3409373D01*
X18773603Y-3223708D01*
X18706671Y-3098486D01*
X18462702Y-3026903D01*
X17649605Y-3840000D01*
X18462702Y-4653097D01*
X18706671Y-4581514D01*
X18827571Y-4326004D01*
X18840000Y-4276419D01*
X18840000Y-5937639D01*
X18741680Y-5700273D01*
X18584637Y-5465241D01*
X18384759Y-5265363D01*
X18150872Y-5109085D01*
X18211514Y-5076671D01*
X18283097Y-4832702D01*
X17470000Y-4019605D01*
X16656903Y-4832702D01*
X16728486Y-5076671D01*
X16792992Y-5107194D01*
X16790273Y-5108320D01*
X16555241Y-5265363D01*
X16355363Y-5465241D01*
X16198320Y-5700273D01*
X16090147Y-5961426D01*
X16035000Y-6238665D01*
X16035000Y-6521335D01*
X16090147Y-6798574D01*
X16198320Y-7059727D01*
X16355363Y-7294759D01*
X16555241Y-7494637D01*
X16787759Y-7650000D01*
X16555241Y-7805363D01*
X16355363Y-8005241D01*
X16198320Y-8240273D01*
X16090147Y-8501426D01*
X16035000Y-8778665D01*
X16035000Y-9061335D01*
X16090147Y-9338574D01*
X16198320Y-9599727D01*
X16355363Y-9834759D01*
X16555241Y-10034637D01*
X16787759Y-10190000D01*
X16555241Y-10345363D01*
X16355363Y-10545241D01*
X16198320Y-10780273D01*
X16090147Y-11041426D01*
X16035000Y-11318665D01*
X16035000Y-11601335D01*
X16090147Y-11878574D01*
X16198320Y-12139727D01*
X16355363Y-12374759D01*
X16555241Y-12574637D01*
X16787759Y-12730000D01*
X16555241Y-12885363D01*
X16355363Y-13085241D01*
X16198320Y-13320273D01*
X16090147Y-13581426D01*
X16035000Y-13858665D01*
X16035000Y-14141335D01*
X16071312Y-14323886D01*
X11738992Y-18656207D01*
X11709988Y-18680010D01*
X11654860Y-18747185D01*
X11615015Y-18795735D01*
X11544444Y-18927764D01*
X11544443Y-18927765D01*
X11500986Y-19071026D01*
X11489989Y-19182679D01*
X11489989Y-19182689D01*
X11486313Y-19220011D01*
X11489989Y-19257333D01*
X11489989Y-26584055D01*
X11095251Y-26320299D01*
X10616822Y-26122127D01*
X10108924Y-26021100D01*
X9591076Y-26021100D01*
X9083178Y-26122127D01*
X8604749Y-26320299D01*
X8174174Y-26608000D01*
X7808000Y-26974174D01*
X7520299Y-27404749D01*
X7322127Y-27883178D01*
X7223224Y-28380396D01*
X5061830Y-26219003D01*
X5038027Y-26189999D01*
X4922302Y-26095026D01*
X4790273Y-26024454D01*
X4647012Y-25980997D01*
X4535359Y-25970000D01*
X4535348Y-25970000D01*
X4498026Y-25966324D01*
X4460704Y-25970000D01*
X3468089Y-25970000D01*
X3344637Y-25785241D01*
X3144759Y-25585363D01*
X2912241Y-25430000D01*
X3144759Y-25274637D01*
X3344637Y-25074759D01*
X3501680Y-24839727D01*
X3573368Y-24666655D01*
X5550000Y-24666655D01*
X5550000Y-25013345D01*
X5617636Y-25353373D01*
X5750308Y-25673673D01*
X5942919Y-25961935D01*
X6188065Y-26207081D01*
X6476327Y-26399692D01*
X6796627Y-26532364D01*
X7136655Y-26600000D01*
X7483345Y-26600000D01*
X7823373Y-26532364D01*
X8143673Y-26399692D01*
X8431935Y-26207081D01*
X8677081Y-25961935D01*
X8869692Y-25673673D01*
X9002364Y-25353373D01*
X9070000Y-25013345D01*
X9070000Y-24864882D01*
X9134747Y-24908144D01*
X9409549Y-25021971D01*
X9701278Y-25080000D01*
X9998722Y-25080000D01*
X10290451Y-25021971D01*
X10565253Y-24908144D01*
X10812569Y-24742893D01*
X11022893Y-24532569D01*
X11188144Y-24285253D01*
X11301971Y-24010451D01*
X11360000Y-23718722D01*
X11360000Y-23421278D01*
X11301971Y-23129549D01*
X11188144Y-22854747D01*
X11022893Y-22607431D01*
X10812569Y-22397107D01*
X10565253Y-22231856D01*
X10290451Y-22118029D01*
X9998722Y-22060000D01*
X9701278Y-22060000D01*
X9409549Y-22118029D01*
X9134747Y-22231856D01*
X8887431Y-22397107D01*
X8677107Y-22607431D01*
X8511856Y-22854747D01*
X8398029Y-23129549D01*
X8341719Y-23412638D01*
X8143673Y-23280308D01*
X7823373Y-23147636D01*
X7483345Y-23080000D01*
X7136655Y-23080000D01*
X6796627Y-23147636D01*
X6476327Y-23280308D01*
X6188065Y-23472919D01*
X5942919Y-23718065D01*
X5750308Y-24006327D01*
X5617636Y-24326627D01*
X5550000Y-24666655D01*
X3573368Y-24666655D01*
X3609853Y-24578574D01*
X3665000Y-24301335D01*
X3665000Y-24018665D01*
X3609853Y-23741426D01*
X3501680Y-23480273D01*
X3344637Y-23245241D01*
X3144759Y-23045363D01*
X2912241Y-22890000D01*
X3144759Y-22734637D01*
X3344637Y-22534759D01*
X3501680Y-22299727D01*
X3609853Y-22038574D01*
X3665000Y-21761335D01*
X3665000Y-21478665D01*
X3609853Y-21201426D01*
X3501680Y-20940273D01*
X3344637Y-20705241D01*
X3144759Y-20505363D01*
X2912241Y-20350000D01*
X3144759Y-20194637D01*
X3344637Y-19994759D01*
X3501680Y-19759727D01*
X3609853Y-19498574D01*
X3665000Y-19221335D01*
X3665000Y-18938665D01*
X3609853Y-18661426D01*
X3501680Y-18400273D01*
X3344637Y-18165241D01*
X3144759Y-17965363D01*
X2912241Y-17810000D01*
X3144759Y-17654637D01*
X3344637Y-17454759D01*
X3501680Y-17219727D01*
X3609853Y-16958574D01*
X3665000Y-16681335D01*
X3665000Y-16398665D01*
X3609853Y-16121426D01*
X3501680Y-15860273D01*
X3344637Y-15625241D01*
X3144759Y-15425363D01*
X2912241Y-15270000D01*
X3144759Y-15114637D01*
X3344637Y-14914759D01*
X3501680Y-14679727D01*
X3542458Y-14581278D01*
X8340000Y-14581278D01*
X8340000Y-14878722D01*
X8398029Y-15170451D01*
X8511856Y-15445253D01*
X8677107Y-15692569D01*
X8887431Y-15902893D01*
X9134747Y-16068144D01*
X9409549Y-16181971D01*
X9701278Y-16240000D01*
X9998722Y-16240000D01*
X10290451Y-16181971D01*
X10565253Y-16068144D01*
X10812569Y-15902893D01*
X11022893Y-15692569D01*
X11188144Y-15445253D01*
X11301971Y-15170451D01*
X11360000Y-14878722D01*
X11360000Y-14581278D01*
X11301971Y-14289549D01*
X11188144Y-14014747D01*
X11022893Y-13767431D01*
X10812569Y-13557107D01*
X10565253Y-13391856D01*
X10290451Y-13278029D01*
X9998722Y-13220000D01*
X9701278Y-13220000D01*
X9409549Y-13278029D01*
X9134747Y-13391856D01*
X8887431Y-13557107D01*
X8677107Y-13767431D01*
X8511856Y-14014747D01*
X8398029Y-14289549D01*
X8340000Y-14581278D01*
X3542458Y-14581278D01*
X3609853Y-14418574D01*
X3665000Y-14141335D01*
X3665000Y-13858665D01*
X3609853Y-13581426D01*
X3565619Y-13474635D01*
X3648065Y-13557081D01*
X3936327Y-13749692D01*
X4256627Y-13882364D01*
X4596655Y-13950000D01*
X4943345Y-13950000D01*
X5283373Y-13882364D01*
X5603673Y-13749692D01*
X5891935Y-13557081D01*
X6137081Y-13311935D01*
X6329692Y-13023673D01*
X6462364Y-12703373D01*
X6530000Y-12363345D01*
X6530000Y-12016655D01*
X6462364Y-11676627D01*
X6329692Y-11356327D01*
X6137081Y-11068065D01*
X5891935Y-10822919D01*
X5603673Y-10630308D01*
X5283373Y-10497636D01*
X4943345Y-10430000D01*
X4596655Y-10430000D01*
X4256627Y-10497636D01*
X3936327Y-10630308D01*
X3648065Y-10822919D01*
X3557046Y-10913938D01*
X3501680Y-10780273D01*
X3344637Y-10545241D01*
X3144759Y-10345363D01*
X2912241Y-10190000D01*
X3144759Y-10034637D01*
X3344637Y-9834759D01*
X3501680Y-9599727D01*
X3588105Y-9391076D01*
X7221100Y-9391076D01*
X7221100Y-9908924D01*
X7322127Y-10416822D01*
X7520299Y-10895251D01*
X7808000Y-11325826D01*
X8174174Y-11692000D01*
X8604749Y-11979701D01*
X9083178Y-12177873D01*
X9591076Y-12278900D01*
X10108924Y-12278900D01*
X10616822Y-12177873D01*
X11095251Y-11979701D01*
X11525826Y-11692000D01*
X11892000Y-11325826D01*
X12179701Y-10895251D01*
X12377873Y-10416822D01*
X12478900Y-9908924D01*
X12478900Y-9391076D01*
X12377873Y-8883178D01*
X12179701Y-8404749D01*
X11892000Y-7974174D01*
X11525826Y-7608000D01*
X11095251Y-7320299D01*
X10616822Y-7122127D01*
X10108924Y-7021100D01*
X9591076Y-7021100D01*
X9083178Y-7122127D01*
X8604749Y-7320299D01*
X8174174Y-7608000D01*
X7808000Y-7974174D01*
X7520299Y-8404749D01*
X7322127Y-8883178D01*
X7221100Y-9391076D01*
X3588105Y-9391076D01*
X3609853Y-9338574D01*
X3665000Y-9061335D01*
X3665000Y-8778665D01*
X3609853Y-8501426D01*
X3501680Y-8240273D01*
X3344637Y-8005241D01*
X3144759Y-7805363D01*
X2912241Y-7650000D01*
X3144759Y-7494637D01*
X3344637Y-7294759D01*
X3501680Y-7059727D01*
X3609853Y-6798574D01*
X3665000Y-6521335D01*
X3665000Y-6238665D01*
X3609853Y-5961426D01*
X3501680Y-5700273D01*
X3479218Y-5666655D01*
X5550000Y-5666655D01*
X5550000Y-6013345D01*
X5617636Y-6353373D01*
X5750308Y-6673673D01*
X5942919Y-6961935D01*
X6188065Y-7207081D01*
X6476327Y-7399692D01*
X6796627Y-7532364D01*
X7136655Y-7600000D01*
X7483345Y-7600000D01*
X7823373Y-7532364D01*
X8143673Y-7399692D01*
X8431935Y-7207081D01*
X8677081Y-6961935D01*
X8869692Y-6673673D01*
X9002364Y-6353373D01*
X9070000Y-6013345D01*
X9070000Y-5864882D01*
X9134747Y-5908144D01*
X9409549Y-6021971D01*
X9701278Y-6080000D01*
X9998722Y-6080000D01*
X10290451Y-6021971D01*
X10565253Y-5908144D01*
X10812569Y-5742893D01*
X11022893Y-5532569D01*
X11188144Y-5285253D01*
X11301971Y-5010451D01*
X11360000Y-4718722D01*
X11360000Y-4421278D01*
X11301971Y-4129549D01*
X11211243Y-3910512D01*
X16029783Y-3910512D01*
X16071213Y-4190130D01*
X16166397Y-4456292D01*
X16233329Y-4581514D01*
X16477298Y-4653097D01*
X17290395Y-3840000D01*
X16477298Y-3026903D01*
X16233329Y-3098486D01*
X16112429Y-3353996D01*
X16043700Y-3628184D01*
X16029783Y-3910512D01*
X11211243Y-3910512D01*
X11188144Y-3854747D01*
X11022893Y-3607431D01*
X10812569Y-3397107D01*
X10565253Y-3231856D01*
X10290451Y-3118029D01*
X9998722Y-3060000D01*
X9701278Y-3060000D01*
X9409549Y-3118029D01*
X9134747Y-3231856D01*
X8887431Y-3397107D01*
X8677107Y-3607431D01*
X8511856Y-3854747D01*
X8398029Y-4129549D01*
X8341719Y-4412638D01*
X8143673Y-4280308D01*
X7823373Y-4147636D01*
X7483345Y-4080000D01*
X7136655Y-4080000D01*
X6796627Y-4147636D01*
X6476327Y-4280308D01*
X6188065Y-4472919D01*
X5942919Y-4718065D01*
X5750308Y-5006327D01*
X5617636Y-5326627D01*
X5550000Y-5666655D01*
X3479218Y-5666655D01*
X3344637Y-5465241D01*
X3144759Y-5265363D01*
X2912241Y-5110000D01*
X3144759Y-4954637D01*
X3344637Y-4754759D01*
X3501680Y-4519727D01*
X3609853Y-4258574D01*
X3665000Y-3981335D01*
X3665000Y-3698665D01*
X3609853Y-3421426D01*
X3501680Y-3160273D01*
X3344637Y-2925241D01*
X3146039Y-2726643D01*
X3154482Y-2725812D01*
X3274180Y-2689502D01*
X3384494Y-2630537D01*
X3481185Y-2551185D01*
X3560537Y-2454494D01*
X3619502Y-2344180D01*
X3655812Y-2224482D01*
X3668072Y-2100000D01*
X3668072Y-610000D01*
X16205184Y-610000D01*
X16198320Y-620273D01*
G37*
X16198320Y-620273D02*
X16090147Y-881426D01*
X16035000Y-1158665D01*
X16035000Y-1441335D01*
X16090147Y-1718574D01*
X16198320Y-1979727D01*
X16355363Y-2214759D01*
X16555241Y-2414637D01*
X16789128Y-2570915D01*
X16728486Y-2603329D01*
X16656903Y-2847298D01*
X17470000Y-3660395D01*
X18283097Y-2847298D01*
X18211514Y-2603329D01*
X18147008Y-2572806D01*
X18149727Y-2571680D01*
X18384759Y-2414637D01*
X18584637Y-2214759D01*
X18741680Y-1979727D01*
X18840000Y-1742361D01*
X18840000Y-3409373D01*
X18773603Y-3223708D01*
X18706671Y-3098486D01*
X18462702Y-3026903D01*
X17649605Y-3840000D01*
X18462702Y-4653097D01*
X18706671Y-4581514D01*
X18827571Y-4326004D01*
X18840000Y-4276419D01*
X18840000Y-5937639D01*
X18741680Y-5700273D01*
X18584637Y-5465241D01*
X18384759Y-5265363D01*
X18150872Y-5109085D01*
X18211514Y-5076671D01*
X18283097Y-4832702D01*
X17470000Y-4019605D01*
X16656903Y-4832702D01*
X16728486Y-5076671D01*
X16792992Y-5107194D01*
X16790273Y-5108320D01*
X16555241Y-5265363D01*
X16355363Y-5465241D01*
X16198320Y-5700273D01*
X16090147Y-5961426D01*
X16035000Y-6238665D01*
X16035000Y-6521335D01*
X16090147Y-6798574D01*
X16198320Y-7059727D01*
X16355363Y-7294759D01*
X16555241Y-7494637D01*
X16787759Y-7650000D01*
X16555241Y-7805363D01*
X16355363Y-8005241D01*
X16198320Y-8240273D01*
X16090147Y-8501426D01*
X16035000Y-8778665D01*
X16035000Y-9061335D01*
X16090147Y-9338574D01*
X16198320Y-9599727D01*
X16355363Y-9834759D01*
X16555241Y-10034637D01*
X16787759Y-10190000D01*
X16555241Y-10345363D01*
X16355363Y-10545241D01*
X16198320Y-10780273D01*
X16090147Y-11041426D01*
X16035000Y-11318665D01*
X16035000Y-11601335D01*
X16090147Y-11878574D01*
X16198320Y-12139727D01*
X16355363Y-12374759D01*
X16555241Y-12574637D01*
X16787759Y-12730000D01*
X16555241Y-12885363D01*
X16355363Y-13085241D01*
X16198320Y-13320273D01*
X16090147Y-13581426D01*
X16035000Y-13858665D01*
X16035000Y-14141335D01*
X16071312Y-14323886D01*
X11738992Y-18656207D01*
X11709988Y-18680010D01*
X11654860Y-18747185D01*
X11615015Y-18795735D01*
X11544444Y-18927764D01*
X11544443Y-18927765D01*
X11500986Y-19071026D01*
X11489989Y-19182679D01*
X11489989Y-19182689D01*
X11486313Y-19220011D01*
X11489989Y-19257333D01*
X11489989Y-26584055D01*
X11095251Y-26320299D01*
X10616822Y-26122127D01*
X10108924Y-26021100D01*
X9591076Y-26021100D01*
X9083178Y-26122127D01*
X8604749Y-26320299D01*
X8174174Y-26608000D01*
X7808000Y-26974174D01*
X7520299Y-27404749D01*
X7322127Y-27883178D01*
X7223224Y-28380396D01*
X5061830Y-26219003D01*
X5038027Y-26189999D01*
X4922302Y-26095026D01*
X4790273Y-26024454D01*
X4647012Y-25980997D01*
X4535359Y-25970000D01*
X4535348Y-25970000D01*
X4498026Y-25966324D01*
X4460704Y-25970000D01*
X3468089Y-25970000D01*
X3344637Y-25785241D01*
X3144759Y-25585363D01*
X2912241Y-25430000D01*
X3144759Y-25274637D01*
X3344637Y-25074759D01*
X3501680Y-24839727D01*
X3573368Y-24666655D01*
X5550000Y-24666655D01*
X5550000Y-25013345D01*
X5617636Y-25353373D01*
X5750308Y-25673673D01*
X5942919Y-25961935D01*
X6188065Y-26207081D01*
X6476327Y-26399692D01*
X6796627Y-26532364D01*
X7136655Y-26600000D01*
X7483345Y-26600000D01*
X7823373Y-26532364D01*
X8143673Y-26399692D01*
X8431935Y-26207081D01*
X8677081Y-25961935D01*
X8869692Y-25673673D01*
X9002364Y-25353373D01*
X9070000Y-25013345D01*
X9070000Y-24864882D01*
X9134747Y-24908144D01*
X9409549Y-25021971D01*
X9701278Y-25080000D01*
X9998722Y-25080000D01*
X10290451Y-25021971D01*
X10565253Y-24908144D01*
X10812569Y-24742893D01*
X11022893Y-24532569D01*
X11188144Y-24285253D01*
X11301971Y-24010451D01*
X11360000Y-23718722D01*
X11360000Y-23421278D01*
X11301971Y-23129549D01*
X11188144Y-22854747D01*
X11022893Y-22607431D01*
X10812569Y-22397107D01*
X10565253Y-22231856D01*
X10290451Y-22118029D01*
X9998722Y-22060000D01*
X9701278Y-22060000D01*
X9409549Y-22118029D01*
X9134747Y-22231856D01*
X8887431Y-22397107D01*
X8677107Y-22607431D01*
X8511856Y-22854747D01*
X8398029Y-23129549D01*
X8341719Y-23412638D01*
X8143673Y-23280308D01*
X7823373Y-23147636D01*
X7483345Y-23080000D01*
X7136655Y-23080000D01*
X6796627Y-23147636D01*
X6476327Y-23280308D01*
X6188065Y-23472919D01*
X5942919Y-23718065D01*
X5750308Y-24006327D01*
X5617636Y-24326627D01*
X5550000Y-24666655D01*
X3573368Y-24666655D01*
X3609853Y-24578574D01*
X3665000Y-24301335D01*
X3665000Y-24018665D01*
X3609853Y-23741426D01*
X3501680Y-23480273D01*
X3344637Y-23245241D01*
X3144759Y-23045363D01*
X2912241Y-22890000D01*
X3144759Y-22734637D01*
X3344637Y-22534759D01*
X3501680Y-22299727D01*
X3609853Y-22038574D01*
X3665000Y-21761335D01*
X3665000Y-21478665D01*
X3609853Y-21201426D01*
X3501680Y-20940273D01*
X3344637Y-20705241D01*
X3144759Y-20505363D01*
X2912241Y-20350000D01*
X3144759Y-20194637D01*
X3344637Y-19994759D01*
X3501680Y-19759727D01*
X3609853Y-19498574D01*
X3665000Y-19221335D01*
X3665000Y-18938665D01*
X3609853Y-18661426D01*
X3501680Y-18400273D01*
X3344637Y-18165241D01*
X3144759Y-17965363D01*
X2912241Y-17810000D01*
X3144759Y-17654637D01*
X3344637Y-17454759D01*
X3501680Y-17219727D01*
X3609853Y-16958574D01*
X3665000Y-16681335D01*
X3665000Y-16398665D01*
X3609853Y-16121426D01*
X3501680Y-15860273D01*
X3344637Y-15625241D01*
X3144759Y-15425363D01*
X2912241Y-15270000D01*
X3144759Y-15114637D01*
X3344637Y-14914759D01*
X3501680Y-14679727D01*
X3542458Y-14581278D01*
X8340000Y-14581278D01*
X8340000Y-14878722D01*
X8398029Y-15170451D01*
X8511856Y-15445253D01*
X8677107Y-15692569D01*
X8887431Y-15902893D01*
X9134747Y-16068144D01*
X9409549Y-16181971D01*
X9701278Y-16240000D01*
X9998722Y-16240000D01*
X10290451Y-16181971D01*
X10565253Y-16068144D01*
X10812569Y-15902893D01*
X11022893Y-15692569D01*
X11188144Y-15445253D01*
X11301971Y-15170451D01*
X11360000Y-14878722D01*
X11360000Y-14581278D01*
X11301971Y-14289549D01*
X11188144Y-14014747D01*
X11022893Y-13767431D01*
X10812569Y-13557107D01*
X10565253Y-13391856D01*
X10290451Y-13278029D01*
X9998722Y-13220000D01*
X9701278Y-13220000D01*
X9409549Y-13278029D01*
X9134747Y-13391856D01*
X8887431Y-13557107D01*
X8677107Y-13767431D01*
X8511856Y-14014747D01*
X8398029Y-14289549D01*
X8340000Y-14581278D01*
X3542458Y-14581278D01*
X3609853Y-14418574D01*
X3665000Y-14141335D01*
X3665000Y-13858665D01*
X3609853Y-13581426D01*
X3565619Y-13474635D01*
X3648065Y-13557081D01*
X3936327Y-13749692D01*
X4256627Y-13882364D01*
X4596655Y-13950000D01*
X4943345Y-13950000D01*
X5283373Y-13882364D01*
X5603673Y-13749692D01*
X5891935Y-13557081D01*
X6137081Y-13311935D01*
X6329692Y-13023673D01*
X6462364Y-12703373D01*
X6530000Y-12363345D01*
X6530000Y-12016655D01*
X6462364Y-11676627D01*
X6329692Y-11356327D01*
X6137081Y-11068065D01*
X5891935Y-10822919D01*
X5603673Y-10630308D01*
X5283373Y-10497636D01*
X4943345Y-10430000D01*
X4596655Y-10430000D01*
X4256627Y-10497636D01*
X3936327Y-10630308D01*
X3648065Y-10822919D01*
X3557046Y-10913938D01*
X3501680Y-10780273D01*
X3344637Y-10545241D01*
X3144759Y-10345363D01*
X2912241Y-10190000D01*
X3144759Y-10034637D01*
X3344637Y-9834759D01*
X3501680Y-9599727D01*
X3588105Y-9391076D01*
X7221100Y-9391076D01*
X7221100Y-9908924D01*
X7322127Y-10416822D01*
X7520299Y-10895251D01*
X7808000Y-11325826D01*
X8174174Y-11692000D01*
X8604749Y-11979701D01*
X9083178Y-12177873D01*
X9591076Y-12278900D01*
X10108924Y-12278900D01*
X10616822Y-12177873D01*
X11095251Y-11979701D01*
X11525826Y-11692000D01*
X11892000Y-11325826D01*
X12179701Y-10895251D01*
X12377873Y-10416822D01*
X12478900Y-9908924D01*
X12478900Y-9391076D01*
X12377873Y-8883178D01*
X12179701Y-8404749D01*
X11892000Y-7974174D01*
X11525826Y-7608000D01*
X11095251Y-7320299D01*
X10616822Y-7122127D01*
X10108924Y-7021100D01*
X9591076Y-7021100D01*
X9083178Y-7122127D01*
X8604749Y-7320299D01*
X8174174Y-7608000D01*
X7808000Y-7974174D01*
X7520299Y-8404749D01*
X7322127Y-8883178D01*
X7221100Y-9391076D01*
X3588105Y-9391076D01*
X3609853Y-9338574D01*
X3665000Y-9061335D01*
X3665000Y-8778665D01*
X3609853Y-8501426D01*
X3501680Y-8240273D01*
X3344637Y-8005241D01*
X3144759Y-7805363D01*
X2912241Y-7650000D01*
X3144759Y-7494637D01*
X3344637Y-7294759D01*
X3501680Y-7059727D01*
X3609853Y-6798574D01*
X3665000Y-6521335D01*
X3665000Y-6238665D01*
X3609853Y-5961426D01*
X3501680Y-5700273D01*
X3479218Y-5666655D01*
X5550000Y-5666655D01*
X5550000Y-6013345D01*
X5617636Y-6353373D01*
X5750308Y-6673673D01*
X5942919Y-6961935D01*
X6188065Y-7207081D01*
X6476327Y-7399692D01*
X6796627Y-7532364D01*
X7136655Y-7600000D01*
X7483345Y-7600000D01*
X7823373Y-7532364D01*
X8143673Y-7399692D01*
X8431935Y-7207081D01*
X8677081Y-6961935D01*
X8869692Y-6673673D01*
X9002364Y-6353373D01*
X9070000Y-6013345D01*
X9070000Y-5864882D01*
X9134747Y-5908144D01*
X9409549Y-6021971D01*
X9701278Y-6080000D01*
X9998722Y-6080000D01*
X10290451Y-6021971D01*
X10565253Y-5908144D01*
X10812569Y-5742893D01*
X11022893Y-5532569D01*
X11188144Y-5285253D01*
X11301971Y-5010451D01*
X11360000Y-4718722D01*
X11360000Y-4421278D01*
X11301971Y-4129549D01*
X11211243Y-3910512D01*
X16029783Y-3910512D01*
X16071213Y-4190130D01*
X16166397Y-4456292D01*
X16233329Y-4581514D01*
X16477298Y-4653097D01*
X17290395Y-3840000D01*
X16477298Y-3026903D01*
X16233329Y-3098486D01*
X16112429Y-3353996D01*
X16043700Y-3628184D01*
X16029783Y-3910512D01*
X11211243Y-3910512D01*
X11188144Y-3854747D01*
X11022893Y-3607431D01*
X10812569Y-3397107D01*
X10565253Y-3231856D01*
X10290451Y-3118029D01*
X9998722Y-3060000D01*
X9701278Y-3060000D01*
X9409549Y-3118029D01*
X9134747Y-3231856D01*
X8887431Y-3397107D01*
X8677107Y-3607431D01*
X8511856Y-3854747D01*
X8398029Y-4129549D01*
X8341719Y-4412638D01*
X8143673Y-4280308D01*
X7823373Y-4147636D01*
X7483345Y-4080000D01*
X7136655Y-4080000D01*
X6796627Y-4147636D01*
X6476327Y-4280308D01*
X6188065Y-4472919D01*
X5942919Y-4718065D01*
X5750308Y-5006327D01*
X5617636Y-5326627D01*
X5550000Y-5666655D01*
X3479218Y-5666655D01*
X3344637Y-5465241D01*
X3144759Y-5265363D01*
X2912241Y-5110000D01*
X3144759Y-4954637D01*
X3344637Y-4754759D01*
X3501680Y-4519727D01*
X3609853Y-4258574D01*
X3665000Y-3981335D01*
X3665000Y-3698665D01*
X3609853Y-3421426D01*
X3501680Y-3160273D01*
X3344637Y-2925241D01*
X3146039Y-2726643D01*
X3154482Y-2725812D01*
X3274180Y-2689502D01*
X3384494Y-2630537D01*
X3481185Y-2551185D01*
X3560537Y-2454494D01*
X3619502Y-2344180D01*
X3655812Y-2224482D01*
X3668072Y-2100000D01*
X3668072Y-610000D01*
X16205184Y-610000D01*
X16198320Y-620273D01*
G36*
X16035000Y-24301335D02*
G01*
X16071312Y-24483886D01*
X13960000Y-26595199D01*
X13960000Y-26204801D01*
X16035000Y-24129802D01*
X16035000Y-24301335D01*
G37*
X16035000Y-24301335D02*
X16071312Y-24483886D01*
X13960000Y-26595199D01*
X13960000Y-26204801D01*
X16035000Y-24129802D01*
X16035000Y-24301335D01*
G36*
X16035000Y-19221335D02*
G01*
X16090147Y-19498574D01*
X16198320Y-19759727D01*
X16355363Y-19994759D01*
X16555241Y-20194637D01*
X16787759Y-20350000D01*
X16555241Y-20505363D01*
X16355363Y-20705241D01*
X16198320Y-20940273D01*
X16090147Y-21201426D01*
X16035000Y-21478665D01*
X16035000Y-21761335D01*
X16071312Y-21943886D01*
X13460000Y-24555199D01*
X13460000Y-21624801D01*
X16035000Y-19049802D01*
X16035000Y-19221335D01*
G37*
X16035000Y-19221335D02*
X16090147Y-19498574D01*
X16198320Y-19759727D01*
X16355363Y-19994759D01*
X16555241Y-20194637D01*
X16787759Y-20350000D01*
X16555241Y-20505363D01*
X16355363Y-20705241D01*
X16198320Y-20940273D01*
X16090147Y-21201426D01*
X16035000Y-21478665D01*
X16035000Y-21761335D01*
X16071312Y-21943886D01*
X13460000Y-24555199D01*
X13460000Y-21624801D01*
X16035000Y-19049802D01*
X16035000Y-19221335D01*
G36*
X16035000Y-16681335D02*
G01*
X16071312Y-16863886D01*
X13009989Y-19925210D01*
X13009989Y-19534812D01*
X16035000Y-16509802D01*
X16035000Y-16681335D01*
G37*
X16035000Y-16681335D02*
X16071312Y-16863886D01*
X13009989Y-19925210D01*
X13009989Y-19534812D01*
X16035000Y-16509802D01*
X16035000Y-16681335D01*
%TD*%
M02*
