M48
; DRILL file {KiCad (5.1.6)-1} date 03/28/22 18:13:35
; FORMAT={-:-/ absolute / inch / decimal}
; #@! TF.CreationDate,2022-03-28T18:13:35-05:00
; #@! TF.GenerationSoftware,Kicad,Pcbnew,(5.1.6)-1
; #@! TF.FileFunction,Plated,1,2,PTH
FMAT,2
INCH
T1C0.0157
T2C0.0394
T3C0.0433
T4C0.0579
%
G90
G05
T1
X-0.5787Y-4.3701
X-0.4449Y-4.7559
X-0.252Y-4.748
X-0.0945Y-3.9213
X-0.0472Y-4.0039
X0.0472Y-1.4055
X0.0787Y-2.3228
X0.0984Y-2.5866
X0.1142Y-1.4331
X0.1693Y-0.189
X0.1811Y-1.3268
X0.185Y-0.8071
X0.2165Y-1.4409
X0.2244Y-1.8425
X0.2244Y-3.3622
X0.248Y-2.6142
X0.2559Y-0.3622
X0.2756Y-1.0787
X0.2913Y-4.2913
X0.3465Y-1.437
X0.3622Y-4.0039
X0.4016Y-4.1142
X0.4134Y-3.8071
X0.5Y-0.6457
X0.5512Y-4.122
X0.563Y-4.3701
X0.5866Y-0.7047
X0.5906Y-0.8031
X0.5945Y-0.1378
X0.5945Y-0.8937
X0.5945Y-0.9961
X0.5984Y-1.126
X0.6024Y-0.4764
X0.6614Y-4.0197
X0.7087Y-1.2992
X0.7087Y-3.7126
X0.7677Y-3.9055
X0.8228Y-4.0
X1.0118Y-4.752
X1.2205Y-4.7638
X1.2244Y-4.0354
X1.3386Y-4.3819
T2
X0.9157Y-4.0374
X0.9157Y-4.75
X1.0157Y-4.0374
X1.1157Y-4.0374
X1.1157Y-4.75
X-0.3441Y-4.0374
X-0.3441Y-4.75
X-0.2441Y-4.0374
X-0.1441Y-4.0374
X-0.1441Y-4.75
T3
X0.0878Y-0.0512
X0.0878Y-0.1512
X0.0878Y-0.2512
X0.0878Y-0.3512
X0.0878Y-0.4512
X0.0878Y-0.5512
X0.0878Y-0.6512
X0.0878Y-0.7512
X0.0878Y-0.8512
X0.0878Y-0.9512
X0.0878Y-1.0512
X0.0878Y-1.1512
X0.6878Y-0.0512
X0.6878Y-0.1512
X0.6878Y-0.2512
X0.6878Y-0.3512
X0.6878Y-0.4512
X0.6878Y-0.5512
X0.6878Y-0.6512
X0.6878Y-0.7512
X0.6878Y-0.8512
X0.6878Y-0.9512
X0.6878Y-1.0512
X0.6878Y-1.1512
T4
X0.1878Y-2.724
X0.2878Y-2.474
X0.1878Y-3.472
X0.2878Y-3.222
X0.1878Y-0.4799
X0.2878Y-0.2299
X0.1878Y-1.976
X0.2878Y-1.726
X0.1878Y-1.228
X0.2878Y-0.978
T0
M30
