M48
; DRILL file {KiCad (5.1.5)-3} date 7/15/2020 7:05:25 PM
; FORMAT={-:-/ absolute / inch / decimal}
; #@! TF.CreationDate,2020-07-15T19:05:25-05:00
; #@! TF.GenerationSoftware,Kicad,Pcbnew,(5.1.5)-3
; #@! TF.FileFunction,Plated,1,2,PTH
FMAT,2
INCH
T1C0.0157
T2C0.0394
T3C0.0409
T4C0.0579
%
G90
G05
T1
X5.5755Y-1.922
X5.5984Y-1.8268
X5.7324Y-1.9163
X5.7402Y-1.9921
X5.7874Y-1.9921
X5.811Y-1.8819
X6.1811Y-1.8031
X6.1969Y-1.9055
X6.3228Y-1.7874
X6.4488Y-1.8504
X8.6299Y-1.7874
T2
X5.3622Y-2.2441
X5.3622Y-2.3441
X5.3622Y-2.4441
X6.6717Y-1.9449
X6.7717Y-1.9449
X6.8717Y-1.9449
X6.9717Y-1.9449
X7.0717Y-1.9449
X7.1717Y-1.9449
X7.2717Y-1.9449
X7.3717Y-1.9449
X7.4717Y-1.9449
X7.5717Y-1.9449
X7.6717Y-1.9449
X7.7717Y-1.9449
X7.8717Y-1.9449
X7.9717Y-1.9449
X8.0717Y-1.9449
X8.1717Y-1.9449
X4.6378Y-2.2441
X4.6378Y-2.3441
X4.6378Y-2.4441
T3
X8.2409Y-2.2965
X8.2409Y-2.3965
X5.9969Y-2.2965
X5.9969Y-2.3965
X8.989Y-2.2965
X8.989Y-2.3965
X7.4929Y-2.2965
X7.4929Y-2.3965
X6.7449Y-2.2965
X6.7449Y-2.3965
T4
X8.5409Y-2.4965
X8.5984Y-2.4449
X8.6181Y-2.248
X8.6409Y-2.2465
X6.2969Y-2.4965
X6.3543Y-2.4449
X6.374Y-2.248
X6.3969Y-2.2465
X9.289Y-2.4965
X9.3465Y-2.4449
X9.3661Y-2.248
X9.389Y-2.2465
X7.7929Y-2.4965
X7.8504Y-2.4449
X7.8701Y-2.248
X7.8929Y-2.2465
X7.0449Y-2.4965
X7.1024Y-2.4449
X7.122Y-2.248
X7.1449Y-2.2465
T0
M30
