G04 #@! TF.GenerationSoftware,KiCad,Pcbnew,(5.1.5)-3*
G04 #@! TF.CreationDate,2020-07-15T19:05:23-05:00*
G04 #@! TF.ProjectId,PikateaBSB,50696b61-7465-4614-9253-422e6b696361,rev?*
G04 #@! TF.SameCoordinates,Original*
G04 #@! TF.FileFunction,Copper,L1,Top*
G04 #@! TF.FilePolarity,Positive*
%FSLAX46Y46*%
G04 Gerber Fmt 4.6, Leading zero omitted, Abs format (unit mm)*
G04 Created by KiCad (PCBNEW (5.1.5)-3) date 2020-07-15 19:05:23*
%MOMM*%
%LPD*%
G04 APERTURE LIST*
%ADD10R,1.905000X1.905000*%
%ADD11C,1.905000*%
%ADD12C,2.250000*%
%ADD13C,2.250000*%
%ADD14R,1.500000X1.800000*%
%ADD15R,1.450000X0.450000*%
%ADD16O,1.700000X1.700000*%
%ADD17R,1.700000X1.700000*%
%ADD18R,0.700000X1.600000*%
%ADD19R,1.200000X1.400000*%
%ADD20R,1.600000X1.400000*%
%ADD21R,1.200000X2.200000*%
%ADD22R,2.000000X1.500000*%
%ADD23R,2.000000X3.800000*%
%ADD24C,0.100000*%
%ADD25C,0.800000*%
%ADD26C,0.250000*%
%ADD27C,0.350000*%
%ADD28C,0.254000*%
G04 APERTURE END LIST*
D10*
X152320000Y-58330000D03*
D11*
X152320000Y-60870000D03*
D12*
X161400000Y-62100000D03*
D13*
X159940000Y-63410000D02*
X161400000Y-62099998D01*
D12*
X162480000Y-57060000D03*
D13*
X161900000Y-57100000D02*
X162480000Y-57060000D01*
D14*
X151650000Y-47100000D03*
D15*
X155350000Y-46050000D03*
X155350000Y-46700000D03*
X155350000Y-47350000D03*
X155350000Y-48000000D03*
X155350000Y-48650000D03*
X155350000Y-49300000D03*
X155350000Y-49950000D03*
X149450000Y-49950000D03*
X149450000Y-49300000D03*
X149450000Y-48650000D03*
X149450000Y-48000000D03*
X149450000Y-47350000D03*
X149450000Y-46700000D03*
X149450000Y-46050000D03*
D14*
X153150000Y-47100000D03*
X153150000Y-48900000D03*
X151650000Y-48900000D03*
D16*
X136200000Y-62080000D03*
X136200000Y-59540000D03*
D17*
X136200000Y-57000000D03*
D16*
X117800000Y-57000000D03*
X117800000Y-59540000D03*
D17*
X117800000Y-62080000D03*
D16*
X169460000Y-49400000D03*
X172000000Y-49400000D03*
X174540000Y-49400000D03*
X177080000Y-49400000D03*
X179620000Y-49400000D03*
X182160000Y-49400000D03*
X184700000Y-49400000D03*
X187240000Y-49400000D03*
X189780000Y-49400000D03*
X192320000Y-49400000D03*
X194860000Y-49400000D03*
X197400000Y-49400000D03*
X199940000Y-49400000D03*
X202480000Y-49400000D03*
X205020000Y-49400000D03*
D17*
X207560000Y-49400000D03*
D18*
X146800000Y-52700000D03*
X147900000Y-52700000D03*
X149000000Y-52700000D03*
X145700000Y-52700000D03*
X144600000Y-52700000D03*
X143500000Y-52700000D03*
X141300000Y-52700000D03*
X142400000Y-52700000D03*
X140200000Y-52700000D03*
D19*
X139050000Y-53200000D03*
D20*
X153650000Y-53200000D03*
D21*
X139050000Y-62800000D03*
X154550000Y-62800000D03*
D13*
X237900000Y-57100000D02*
X238480000Y-57060000D01*
D12*
X238480000Y-57060000D03*
D13*
X235940000Y-63410000D02*
X237400000Y-62099998D01*
D12*
X237400000Y-62100000D03*
D11*
X228320000Y-60870000D03*
D10*
X228320000Y-58330000D03*
X171320000Y-58330000D03*
D11*
X171320000Y-60870000D03*
D12*
X180400000Y-62100000D03*
D13*
X178940000Y-63410000D02*
X180400000Y-62099998D01*
D12*
X181480000Y-57060000D03*
D13*
X180900000Y-57100000D02*
X181480000Y-57060000D01*
D10*
X209320000Y-58330000D03*
D11*
X209320000Y-60870000D03*
D12*
X218400000Y-62100000D03*
D13*
X216940000Y-63410000D02*
X218400000Y-62099998D01*
D12*
X219480000Y-57060000D03*
D13*
X218900000Y-57100000D02*
X219480000Y-57060000D01*
D10*
X190320000Y-58330000D03*
D11*
X190320000Y-60870000D03*
D12*
X199400000Y-62100000D03*
D13*
X197940000Y-63410000D02*
X199400000Y-62099998D01*
D12*
X200480000Y-57060000D03*
D13*
X199900000Y-57100000D02*
X200480000Y-57060000D01*
D22*
X222400000Y-49400000D03*
X222400000Y-44800000D03*
X222400000Y-47100000D03*
D23*
X216100000Y-47100000D03*
G04 #@! TA.AperFunction,SMDPad,CuDef*
D24*
G36*
X145867642Y-46501174D02*
G01*
X145891303Y-46504684D01*
X145914507Y-46510496D01*
X145937029Y-46518554D01*
X145958653Y-46528782D01*
X145979170Y-46541079D01*
X145998383Y-46555329D01*
X146016107Y-46571393D01*
X146032171Y-46589117D01*
X146046421Y-46608330D01*
X146058718Y-46628847D01*
X146068946Y-46650471D01*
X146077004Y-46672993D01*
X146082816Y-46696197D01*
X146086326Y-46719858D01*
X146087500Y-46743750D01*
X146087500Y-47656250D01*
X146086326Y-47680142D01*
X146082816Y-47703803D01*
X146077004Y-47727007D01*
X146068946Y-47749529D01*
X146058718Y-47771153D01*
X146046421Y-47791670D01*
X146032171Y-47810883D01*
X146016107Y-47828607D01*
X145998383Y-47844671D01*
X145979170Y-47858921D01*
X145958653Y-47871218D01*
X145937029Y-47881446D01*
X145914507Y-47889504D01*
X145891303Y-47895316D01*
X145867642Y-47898826D01*
X145843750Y-47900000D01*
X145356250Y-47900000D01*
X145332358Y-47898826D01*
X145308697Y-47895316D01*
X145285493Y-47889504D01*
X145262971Y-47881446D01*
X145241347Y-47871218D01*
X145220830Y-47858921D01*
X145201617Y-47844671D01*
X145183893Y-47828607D01*
X145167829Y-47810883D01*
X145153579Y-47791670D01*
X145141282Y-47771153D01*
X145131054Y-47749529D01*
X145122996Y-47727007D01*
X145117184Y-47703803D01*
X145113674Y-47680142D01*
X145112500Y-47656250D01*
X145112500Y-46743750D01*
X145113674Y-46719858D01*
X145117184Y-46696197D01*
X145122996Y-46672993D01*
X145131054Y-46650471D01*
X145141282Y-46628847D01*
X145153579Y-46608330D01*
X145167829Y-46589117D01*
X145183893Y-46571393D01*
X145201617Y-46555329D01*
X145220830Y-46541079D01*
X145241347Y-46528782D01*
X145262971Y-46518554D01*
X145285493Y-46510496D01*
X145308697Y-46504684D01*
X145332358Y-46501174D01*
X145356250Y-46500000D01*
X145843750Y-46500000D01*
X145867642Y-46501174D01*
G37*
G04 #@! TD.AperFunction*
G04 #@! TA.AperFunction,SMDPad,CuDef*
G36*
X143992642Y-46501174D02*
G01*
X144016303Y-46504684D01*
X144039507Y-46510496D01*
X144062029Y-46518554D01*
X144083653Y-46528782D01*
X144104170Y-46541079D01*
X144123383Y-46555329D01*
X144141107Y-46571393D01*
X144157171Y-46589117D01*
X144171421Y-46608330D01*
X144183718Y-46628847D01*
X144193946Y-46650471D01*
X144202004Y-46672993D01*
X144207816Y-46696197D01*
X144211326Y-46719858D01*
X144212500Y-46743750D01*
X144212500Y-47656250D01*
X144211326Y-47680142D01*
X144207816Y-47703803D01*
X144202004Y-47727007D01*
X144193946Y-47749529D01*
X144183718Y-47771153D01*
X144171421Y-47791670D01*
X144157171Y-47810883D01*
X144141107Y-47828607D01*
X144123383Y-47844671D01*
X144104170Y-47858921D01*
X144083653Y-47871218D01*
X144062029Y-47881446D01*
X144039507Y-47889504D01*
X144016303Y-47895316D01*
X143992642Y-47898826D01*
X143968750Y-47900000D01*
X143481250Y-47900000D01*
X143457358Y-47898826D01*
X143433697Y-47895316D01*
X143410493Y-47889504D01*
X143387971Y-47881446D01*
X143366347Y-47871218D01*
X143345830Y-47858921D01*
X143326617Y-47844671D01*
X143308893Y-47828607D01*
X143292829Y-47810883D01*
X143278579Y-47791670D01*
X143266282Y-47771153D01*
X143256054Y-47749529D01*
X143247996Y-47727007D01*
X143242184Y-47703803D01*
X143238674Y-47680142D01*
X143237500Y-47656250D01*
X143237500Y-46743750D01*
X143238674Y-46719858D01*
X143242184Y-46696197D01*
X143247996Y-46672993D01*
X143256054Y-46650471D01*
X143266282Y-46628847D01*
X143278579Y-46608330D01*
X143292829Y-46589117D01*
X143308893Y-46571393D01*
X143326617Y-46555329D01*
X143345830Y-46541079D01*
X143366347Y-46528782D01*
X143387971Y-46518554D01*
X143410493Y-46510496D01*
X143433697Y-46504684D01*
X143457358Y-46501174D01*
X143481250Y-46500000D01*
X143968750Y-46500000D01*
X143992642Y-46501174D01*
G37*
G04 #@! TD.AperFunction*
G04 #@! TA.AperFunction,SMDPad,CuDef*
G36*
X145867642Y-44501174D02*
G01*
X145891303Y-44504684D01*
X145914507Y-44510496D01*
X145937029Y-44518554D01*
X145958653Y-44528782D01*
X145979170Y-44541079D01*
X145998383Y-44555329D01*
X146016107Y-44571393D01*
X146032171Y-44589117D01*
X146046421Y-44608330D01*
X146058718Y-44628847D01*
X146068946Y-44650471D01*
X146077004Y-44672993D01*
X146082816Y-44696197D01*
X146086326Y-44719858D01*
X146087500Y-44743750D01*
X146087500Y-45656250D01*
X146086326Y-45680142D01*
X146082816Y-45703803D01*
X146077004Y-45727007D01*
X146068946Y-45749529D01*
X146058718Y-45771153D01*
X146046421Y-45791670D01*
X146032171Y-45810883D01*
X146016107Y-45828607D01*
X145998383Y-45844671D01*
X145979170Y-45858921D01*
X145958653Y-45871218D01*
X145937029Y-45881446D01*
X145914507Y-45889504D01*
X145891303Y-45895316D01*
X145867642Y-45898826D01*
X145843750Y-45900000D01*
X145356250Y-45900000D01*
X145332358Y-45898826D01*
X145308697Y-45895316D01*
X145285493Y-45889504D01*
X145262971Y-45881446D01*
X145241347Y-45871218D01*
X145220830Y-45858921D01*
X145201617Y-45844671D01*
X145183893Y-45828607D01*
X145167829Y-45810883D01*
X145153579Y-45791670D01*
X145141282Y-45771153D01*
X145131054Y-45749529D01*
X145122996Y-45727007D01*
X145117184Y-45703803D01*
X145113674Y-45680142D01*
X145112500Y-45656250D01*
X145112500Y-44743750D01*
X145113674Y-44719858D01*
X145117184Y-44696197D01*
X145122996Y-44672993D01*
X145131054Y-44650471D01*
X145141282Y-44628847D01*
X145153579Y-44608330D01*
X145167829Y-44589117D01*
X145183893Y-44571393D01*
X145201617Y-44555329D01*
X145220830Y-44541079D01*
X145241347Y-44528782D01*
X145262971Y-44518554D01*
X145285493Y-44510496D01*
X145308697Y-44504684D01*
X145332358Y-44501174D01*
X145356250Y-44500000D01*
X145843750Y-44500000D01*
X145867642Y-44501174D01*
G37*
G04 #@! TD.AperFunction*
G04 #@! TA.AperFunction,SMDPad,CuDef*
G36*
X143992642Y-44501174D02*
G01*
X144016303Y-44504684D01*
X144039507Y-44510496D01*
X144062029Y-44518554D01*
X144083653Y-44528782D01*
X144104170Y-44541079D01*
X144123383Y-44555329D01*
X144141107Y-44571393D01*
X144157171Y-44589117D01*
X144171421Y-44608330D01*
X144183718Y-44628847D01*
X144193946Y-44650471D01*
X144202004Y-44672993D01*
X144207816Y-44696197D01*
X144211326Y-44719858D01*
X144212500Y-44743750D01*
X144212500Y-45656250D01*
X144211326Y-45680142D01*
X144207816Y-45703803D01*
X144202004Y-45727007D01*
X144193946Y-45749529D01*
X144183718Y-45771153D01*
X144171421Y-45791670D01*
X144157171Y-45810883D01*
X144141107Y-45828607D01*
X144123383Y-45844671D01*
X144104170Y-45858921D01*
X144083653Y-45871218D01*
X144062029Y-45881446D01*
X144039507Y-45889504D01*
X144016303Y-45895316D01*
X143992642Y-45898826D01*
X143968750Y-45900000D01*
X143481250Y-45900000D01*
X143457358Y-45898826D01*
X143433697Y-45895316D01*
X143410493Y-45889504D01*
X143387971Y-45881446D01*
X143366347Y-45871218D01*
X143345830Y-45858921D01*
X143326617Y-45844671D01*
X143308893Y-45828607D01*
X143292829Y-45810883D01*
X143278579Y-45791670D01*
X143266282Y-45771153D01*
X143256054Y-45749529D01*
X143247996Y-45727007D01*
X143242184Y-45703803D01*
X143238674Y-45680142D01*
X143237500Y-45656250D01*
X143237500Y-44743750D01*
X143238674Y-44719858D01*
X143242184Y-44696197D01*
X143247996Y-44672993D01*
X143256054Y-44650471D01*
X143266282Y-44628847D01*
X143278579Y-44608330D01*
X143292829Y-44589117D01*
X143308893Y-44571393D01*
X143326617Y-44555329D01*
X143345830Y-44541079D01*
X143366347Y-44528782D01*
X143387971Y-44518554D01*
X143410493Y-44510496D01*
X143433697Y-44504684D01*
X143457358Y-44501174D01*
X143481250Y-44500000D01*
X143968750Y-44500000D01*
X143992642Y-44501174D01*
G37*
G04 #@! TD.AperFunction*
G04 #@! TA.AperFunction,SMDPad,CuDef*
G36*
X160667642Y-48301174D02*
G01*
X160691303Y-48304684D01*
X160714507Y-48310496D01*
X160737029Y-48318554D01*
X160758653Y-48328782D01*
X160779170Y-48341079D01*
X160798383Y-48355329D01*
X160816107Y-48371393D01*
X160832171Y-48389117D01*
X160846421Y-48408330D01*
X160858718Y-48428847D01*
X160868946Y-48450471D01*
X160877004Y-48472993D01*
X160882816Y-48496197D01*
X160886326Y-48519858D01*
X160887500Y-48543750D01*
X160887500Y-49456250D01*
X160886326Y-49480142D01*
X160882816Y-49503803D01*
X160877004Y-49527007D01*
X160868946Y-49549529D01*
X160858718Y-49571153D01*
X160846421Y-49591670D01*
X160832171Y-49610883D01*
X160816107Y-49628607D01*
X160798383Y-49644671D01*
X160779170Y-49658921D01*
X160758653Y-49671218D01*
X160737029Y-49681446D01*
X160714507Y-49689504D01*
X160691303Y-49695316D01*
X160667642Y-49698826D01*
X160643750Y-49700000D01*
X160156250Y-49700000D01*
X160132358Y-49698826D01*
X160108697Y-49695316D01*
X160085493Y-49689504D01*
X160062971Y-49681446D01*
X160041347Y-49671218D01*
X160020830Y-49658921D01*
X160001617Y-49644671D01*
X159983893Y-49628607D01*
X159967829Y-49610883D01*
X159953579Y-49591670D01*
X159941282Y-49571153D01*
X159931054Y-49549529D01*
X159922996Y-49527007D01*
X159917184Y-49503803D01*
X159913674Y-49480142D01*
X159912500Y-49456250D01*
X159912500Y-48543750D01*
X159913674Y-48519858D01*
X159917184Y-48496197D01*
X159922996Y-48472993D01*
X159931054Y-48450471D01*
X159941282Y-48428847D01*
X159953579Y-48408330D01*
X159967829Y-48389117D01*
X159983893Y-48371393D01*
X160001617Y-48355329D01*
X160020830Y-48341079D01*
X160041347Y-48328782D01*
X160062971Y-48318554D01*
X160085493Y-48310496D01*
X160108697Y-48304684D01*
X160132358Y-48301174D01*
X160156250Y-48300000D01*
X160643750Y-48300000D01*
X160667642Y-48301174D01*
G37*
G04 #@! TD.AperFunction*
G04 #@! TA.AperFunction,SMDPad,CuDef*
G36*
X162542642Y-48301174D02*
G01*
X162566303Y-48304684D01*
X162589507Y-48310496D01*
X162612029Y-48318554D01*
X162633653Y-48328782D01*
X162654170Y-48341079D01*
X162673383Y-48355329D01*
X162691107Y-48371393D01*
X162707171Y-48389117D01*
X162721421Y-48408330D01*
X162733718Y-48428847D01*
X162743946Y-48450471D01*
X162752004Y-48472993D01*
X162757816Y-48496197D01*
X162761326Y-48519858D01*
X162762500Y-48543750D01*
X162762500Y-49456250D01*
X162761326Y-49480142D01*
X162757816Y-49503803D01*
X162752004Y-49527007D01*
X162743946Y-49549529D01*
X162733718Y-49571153D01*
X162721421Y-49591670D01*
X162707171Y-49610883D01*
X162691107Y-49628607D01*
X162673383Y-49644671D01*
X162654170Y-49658921D01*
X162633653Y-49671218D01*
X162612029Y-49681446D01*
X162589507Y-49689504D01*
X162566303Y-49695316D01*
X162542642Y-49698826D01*
X162518750Y-49700000D01*
X162031250Y-49700000D01*
X162007358Y-49698826D01*
X161983697Y-49695316D01*
X161960493Y-49689504D01*
X161937971Y-49681446D01*
X161916347Y-49671218D01*
X161895830Y-49658921D01*
X161876617Y-49644671D01*
X161858893Y-49628607D01*
X161842829Y-49610883D01*
X161828579Y-49591670D01*
X161816282Y-49571153D01*
X161806054Y-49549529D01*
X161797996Y-49527007D01*
X161792184Y-49503803D01*
X161788674Y-49480142D01*
X161787500Y-49456250D01*
X161787500Y-48543750D01*
X161788674Y-48519858D01*
X161792184Y-48496197D01*
X161797996Y-48472993D01*
X161806054Y-48450471D01*
X161816282Y-48428847D01*
X161828579Y-48408330D01*
X161842829Y-48389117D01*
X161858893Y-48371393D01*
X161876617Y-48355329D01*
X161895830Y-48341079D01*
X161916347Y-48328782D01*
X161937971Y-48318554D01*
X161960493Y-48310496D01*
X161983697Y-48304684D01*
X162007358Y-48301174D01*
X162031250Y-48300000D01*
X162518750Y-48300000D01*
X162542642Y-48301174D01*
G37*
G04 #@! TD.AperFunction*
G04 #@! TA.AperFunction,SMDPad,CuDef*
G36*
X162542642Y-46301174D02*
G01*
X162566303Y-46304684D01*
X162589507Y-46310496D01*
X162612029Y-46318554D01*
X162633653Y-46328782D01*
X162654170Y-46341079D01*
X162673383Y-46355329D01*
X162691107Y-46371393D01*
X162707171Y-46389117D01*
X162721421Y-46408330D01*
X162733718Y-46428847D01*
X162743946Y-46450471D01*
X162752004Y-46472993D01*
X162757816Y-46496197D01*
X162761326Y-46519858D01*
X162762500Y-46543750D01*
X162762500Y-47456250D01*
X162761326Y-47480142D01*
X162757816Y-47503803D01*
X162752004Y-47527007D01*
X162743946Y-47549529D01*
X162733718Y-47571153D01*
X162721421Y-47591670D01*
X162707171Y-47610883D01*
X162691107Y-47628607D01*
X162673383Y-47644671D01*
X162654170Y-47658921D01*
X162633653Y-47671218D01*
X162612029Y-47681446D01*
X162589507Y-47689504D01*
X162566303Y-47695316D01*
X162542642Y-47698826D01*
X162518750Y-47700000D01*
X162031250Y-47700000D01*
X162007358Y-47698826D01*
X161983697Y-47695316D01*
X161960493Y-47689504D01*
X161937971Y-47681446D01*
X161916347Y-47671218D01*
X161895830Y-47658921D01*
X161876617Y-47644671D01*
X161858893Y-47628607D01*
X161842829Y-47610883D01*
X161828579Y-47591670D01*
X161816282Y-47571153D01*
X161806054Y-47549529D01*
X161797996Y-47527007D01*
X161792184Y-47503803D01*
X161788674Y-47480142D01*
X161787500Y-47456250D01*
X161787500Y-46543750D01*
X161788674Y-46519858D01*
X161792184Y-46496197D01*
X161797996Y-46472993D01*
X161806054Y-46450471D01*
X161816282Y-46428847D01*
X161828579Y-46408330D01*
X161842829Y-46389117D01*
X161858893Y-46371393D01*
X161876617Y-46355329D01*
X161895830Y-46341079D01*
X161916347Y-46328782D01*
X161937971Y-46318554D01*
X161960493Y-46310496D01*
X161983697Y-46304684D01*
X162007358Y-46301174D01*
X162031250Y-46300000D01*
X162518750Y-46300000D01*
X162542642Y-46301174D01*
G37*
G04 #@! TD.AperFunction*
G04 #@! TA.AperFunction,SMDPad,CuDef*
G36*
X160667642Y-46301174D02*
G01*
X160691303Y-46304684D01*
X160714507Y-46310496D01*
X160737029Y-46318554D01*
X160758653Y-46328782D01*
X160779170Y-46341079D01*
X160798383Y-46355329D01*
X160816107Y-46371393D01*
X160832171Y-46389117D01*
X160846421Y-46408330D01*
X160858718Y-46428847D01*
X160868946Y-46450471D01*
X160877004Y-46472993D01*
X160882816Y-46496197D01*
X160886326Y-46519858D01*
X160887500Y-46543750D01*
X160887500Y-47456250D01*
X160886326Y-47480142D01*
X160882816Y-47503803D01*
X160877004Y-47527007D01*
X160868946Y-47549529D01*
X160858718Y-47571153D01*
X160846421Y-47591670D01*
X160832171Y-47610883D01*
X160816107Y-47628607D01*
X160798383Y-47644671D01*
X160779170Y-47658921D01*
X160758653Y-47671218D01*
X160737029Y-47681446D01*
X160714507Y-47689504D01*
X160691303Y-47695316D01*
X160667642Y-47698826D01*
X160643750Y-47700000D01*
X160156250Y-47700000D01*
X160132358Y-47698826D01*
X160108697Y-47695316D01*
X160085493Y-47689504D01*
X160062971Y-47681446D01*
X160041347Y-47671218D01*
X160020830Y-47658921D01*
X160001617Y-47644671D01*
X159983893Y-47628607D01*
X159967829Y-47610883D01*
X159953579Y-47591670D01*
X159941282Y-47571153D01*
X159931054Y-47549529D01*
X159922996Y-47527007D01*
X159917184Y-47503803D01*
X159913674Y-47480142D01*
X159912500Y-47456250D01*
X159912500Y-46543750D01*
X159913674Y-46519858D01*
X159917184Y-46496197D01*
X159922996Y-46472993D01*
X159931054Y-46450471D01*
X159941282Y-46428847D01*
X159953579Y-46408330D01*
X159967829Y-46389117D01*
X159983893Y-46371393D01*
X160001617Y-46355329D01*
X160020830Y-46341079D01*
X160041347Y-46328782D01*
X160062971Y-46318554D01*
X160085493Y-46310496D01*
X160108697Y-46304684D01*
X160132358Y-46301174D01*
X160156250Y-46300000D01*
X160643750Y-46300000D01*
X160667642Y-46301174D01*
G37*
G04 #@! TD.AperFunction*
G04 #@! TA.AperFunction,SMDPad,CuDef*
G36*
X212880142Y-50113674D02*
G01*
X212903803Y-50117184D01*
X212927007Y-50122996D01*
X212949529Y-50131054D01*
X212971153Y-50141282D01*
X212991670Y-50153579D01*
X213010883Y-50167829D01*
X213028607Y-50183893D01*
X213044671Y-50201617D01*
X213058921Y-50220830D01*
X213071218Y-50241347D01*
X213081446Y-50262971D01*
X213089504Y-50285493D01*
X213095316Y-50308697D01*
X213098826Y-50332358D01*
X213100000Y-50356250D01*
X213100000Y-50843750D01*
X213098826Y-50867642D01*
X213095316Y-50891303D01*
X213089504Y-50914507D01*
X213081446Y-50937029D01*
X213071218Y-50958653D01*
X213058921Y-50979170D01*
X213044671Y-50998383D01*
X213028607Y-51016107D01*
X213010883Y-51032171D01*
X212991670Y-51046421D01*
X212971153Y-51058718D01*
X212949529Y-51068946D01*
X212927007Y-51077004D01*
X212903803Y-51082816D01*
X212880142Y-51086326D01*
X212856250Y-51087500D01*
X211943750Y-51087500D01*
X211919858Y-51086326D01*
X211896197Y-51082816D01*
X211872993Y-51077004D01*
X211850471Y-51068946D01*
X211828847Y-51058718D01*
X211808330Y-51046421D01*
X211789117Y-51032171D01*
X211771393Y-51016107D01*
X211755329Y-50998383D01*
X211741079Y-50979170D01*
X211728782Y-50958653D01*
X211718554Y-50937029D01*
X211710496Y-50914507D01*
X211704684Y-50891303D01*
X211701174Y-50867642D01*
X211700000Y-50843750D01*
X211700000Y-50356250D01*
X211701174Y-50332358D01*
X211704684Y-50308697D01*
X211710496Y-50285493D01*
X211718554Y-50262971D01*
X211728782Y-50241347D01*
X211741079Y-50220830D01*
X211755329Y-50201617D01*
X211771393Y-50183893D01*
X211789117Y-50167829D01*
X211808330Y-50153579D01*
X211828847Y-50141282D01*
X211850471Y-50131054D01*
X211872993Y-50122996D01*
X211896197Y-50117184D01*
X211919858Y-50113674D01*
X211943750Y-50112500D01*
X212856250Y-50112500D01*
X212880142Y-50113674D01*
G37*
G04 #@! TD.AperFunction*
G04 #@! TA.AperFunction,SMDPad,CuDef*
G36*
X212880142Y-48238674D02*
G01*
X212903803Y-48242184D01*
X212927007Y-48247996D01*
X212949529Y-48256054D01*
X212971153Y-48266282D01*
X212991670Y-48278579D01*
X213010883Y-48292829D01*
X213028607Y-48308893D01*
X213044671Y-48326617D01*
X213058921Y-48345830D01*
X213071218Y-48366347D01*
X213081446Y-48387971D01*
X213089504Y-48410493D01*
X213095316Y-48433697D01*
X213098826Y-48457358D01*
X213100000Y-48481250D01*
X213100000Y-48968750D01*
X213098826Y-48992642D01*
X213095316Y-49016303D01*
X213089504Y-49039507D01*
X213081446Y-49062029D01*
X213071218Y-49083653D01*
X213058921Y-49104170D01*
X213044671Y-49123383D01*
X213028607Y-49141107D01*
X213010883Y-49157171D01*
X212991670Y-49171421D01*
X212971153Y-49183718D01*
X212949529Y-49193946D01*
X212927007Y-49202004D01*
X212903803Y-49207816D01*
X212880142Y-49211326D01*
X212856250Y-49212500D01*
X211943750Y-49212500D01*
X211919858Y-49211326D01*
X211896197Y-49207816D01*
X211872993Y-49202004D01*
X211850471Y-49193946D01*
X211828847Y-49183718D01*
X211808330Y-49171421D01*
X211789117Y-49157171D01*
X211771393Y-49141107D01*
X211755329Y-49123383D01*
X211741079Y-49104170D01*
X211728782Y-49083653D01*
X211718554Y-49062029D01*
X211710496Y-49039507D01*
X211704684Y-49016303D01*
X211701174Y-48992642D01*
X211700000Y-48968750D01*
X211700000Y-48481250D01*
X211701174Y-48457358D01*
X211704684Y-48433697D01*
X211710496Y-48410493D01*
X211718554Y-48387971D01*
X211728782Y-48366347D01*
X211741079Y-48345830D01*
X211755329Y-48326617D01*
X211771393Y-48308893D01*
X211789117Y-48292829D01*
X211808330Y-48278579D01*
X211828847Y-48266282D01*
X211850471Y-48256054D01*
X211872993Y-48247996D01*
X211896197Y-48242184D01*
X211919858Y-48238674D01*
X211943750Y-48237500D01*
X212856250Y-48237500D01*
X212880142Y-48238674D01*
G37*
G04 #@! TD.AperFunction*
G04 #@! TA.AperFunction,SMDPad,CuDef*
G36*
X159080142Y-45913674D02*
G01*
X159103803Y-45917184D01*
X159127007Y-45922996D01*
X159149529Y-45931054D01*
X159171153Y-45941282D01*
X159191670Y-45953579D01*
X159210883Y-45967829D01*
X159228607Y-45983893D01*
X159244671Y-46001617D01*
X159258921Y-46020830D01*
X159271218Y-46041347D01*
X159281446Y-46062971D01*
X159289504Y-46085493D01*
X159295316Y-46108697D01*
X159298826Y-46132358D01*
X159300000Y-46156250D01*
X159300000Y-46643750D01*
X159298826Y-46667642D01*
X159295316Y-46691303D01*
X159289504Y-46714507D01*
X159281446Y-46737029D01*
X159271218Y-46758653D01*
X159258921Y-46779170D01*
X159244671Y-46798383D01*
X159228607Y-46816107D01*
X159210883Y-46832171D01*
X159191670Y-46846421D01*
X159171153Y-46858718D01*
X159149529Y-46868946D01*
X159127007Y-46877004D01*
X159103803Y-46882816D01*
X159080142Y-46886326D01*
X159056250Y-46887500D01*
X158143750Y-46887500D01*
X158119858Y-46886326D01*
X158096197Y-46882816D01*
X158072993Y-46877004D01*
X158050471Y-46868946D01*
X158028847Y-46858718D01*
X158008330Y-46846421D01*
X157989117Y-46832171D01*
X157971393Y-46816107D01*
X157955329Y-46798383D01*
X157941079Y-46779170D01*
X157928782Y-46758653D01*
X157918554Y-46737029D01*
X157910496Y-46714507D01*
X157904684Y-46691303D01*
X157901174Y-46667642D01*
X157900000Y-46643750D01*
X157900000Y-46156250D01*
X157901174Y-46132358D01*
X157904684Y-46108697D01*
X157910496Y-46085493D01*
X157918554Y-46062971D01*
X157928782Y-46041347D01*
X157941079Y-46020830D01*
X157955329Y-46001617D01*
X157971393Y-45983893D01*
X157989117Y-45967829D01*
X158008330Y-45953579D01*
X158028847Y-45941282D01*
X158050471Y-45931054D01*
X158072993Y-45922996D01*
X158096197Y-45917184D01*
X158119858Y-45913674D01*
X158143750Y-45912500D01*
X159056250Y-45912500D01*
X159080142Y-45913674D01*
G37*
G04 #@! TD.AperFunction*
G04 #@! TA.AperFunction,SMDPad,CuDef*
G36*
X159080142Y-44038674D02*
G01*
X159103803Y-44042184D01*
X159127007Y-44047996D01*
X159149529Y-44056054D01*
X159171153Y-44066282D01*
X159191670Y-44078579D01*
X159210883Y-44092829D01*
X159228607Y-44108893D01*
X159244671Y-44126617D01*
X159258921Y-44145830D01*
X159271218Y-44166347D01*
X159281446Y-44187971D01*
X159289504Y-44210493D01*
X159295316Y-44233697D01*
X159298826Y-44257358D01*
X159300000Y-44281250D01*
X159300000Y-44768750D01*
X159298826Y-44792642D01*
X159295316Y-44816303D01*
X159289504Y-44839507D01*
X159281446Y-44862029D01*
X159271218Y-44883653D01*
X159258921Y-44904170D01*
X159244671Y-44923383D01*
X159228607Y-44941107D01*
X159210883Y-44957171D01*
X159191670Y-44971421D01*
X159171153Y-44983718D01*
X159149529Y-44993946D01*
X159127007Y-45002004D01*
X159103803Y-45007816D01*
X159080142Y-45011326D01*
X159056250Y-45012500D01*
X158143750Y-45012500D01*
X158119858Y-45011326D01*
X158096197Y-45007816D01*
X158072993Y-45002004D01*
X158050471Y-44993946D01*
X158028847Y-44983718D01*
X158008330Y-44971421D01*
X157989117Y-44957171D01*
X157971393Y-44941107D01*
X157955329Y-44923383D01*
X157941079Y-44904170D01*
X157928782Y-44883653D01*
X157918554Y-44862029D01*
X157910496Y-44839507D01*
X157904684Y-44816303D01*
X157901174Y-44792642D01*
X157900000Y-44768750D01*
X157900000Y-44281250D01*
X157901174Y-44257358D01*
X157904684Y-44233697D01*
X157910496Y-44210493D01*
X157918554Y-44187971D01*
X157928782Y-44166347D01*
X157941079Y-44145830D01*
X157955329Y-44126617D01*
X157971393Y-44108893D01*
X157989117Y-44092829D01*
X158008330Y-44078579D01*
X158028847Y-44066282D01*
X158050471Y-44056054D01*
X158072993Y-44047996D01*
X158096197Y-44042184D01*
X158119858Y-44038674D01*
X158143750Y-44037500D01*
X159056250Y-44037500D01*
X159080142Y-44038674D01*
G37*
G04 #@! TD.AperFunction*
G04 #@! TA.AperFunction,SMDPad,CuDef*
G36*
X227080142Y-47051174D02*
G01*
X227103803Y-47054684D01*
X227127007Y-47060496D01*
X227149529Y-47068554D01*
X227171153Y-47078782D01*
X227191670Y-47091079D01*
X227210883Y-47105329D01*
X227228607Y-47121393D01*
X227244671Y-47139117D01*
X227258921Y-47158330D01*
X227271218Y-47178847D01*
X227281446Y-47200471D01*
X227289504Y-47222993D01*
X227295316Y-47246197D01*
X227298826Y-47269858D01*
X227300000Y-47293750D01*
X227300000Y-47781250D01*
X227298826Y-47805142D01*
X227295316Y-47828803D01*
X227289504Y-47852007D01*
X227281446Y-47874529D01*
X227271218Y-47896153D01*
X227258921Y-47916670D01*
X227244671Y-47935883D01*
X227228607Y-47953607D01*
X227210883Y-47969671D01*
X227191670Y-47983921D01*
X227171153Y-47996218D01*
X227149529Y-48006446D01*
X227127007Y-48014504D01*
X227103803Y-48020316D01*
X227080142Y-48023826D01*
X227056250Y-48025000D01*
X226143750Y-48025000D01*
X226119858Y-48023826D01*
X226096197Y-48020316D01*
X226072993Y-48014504D01*
X226050471Y-48006446D01*
X226028847Y-47996218D01*
X226008330Y-47983921D01*
X225989117Y-47969671D01*
X225971393Y-47953607D01*
X225955329Y-47935883D01*
X225941079Y-47916670D01*
X225928782Y-47896153D01*
X225918554Y-47874529D01*
X225910496Y-47852007D01*
X225904684Y-47828803D01*
X225901174Y-47805142D01*
X225900000Y-47781250D01*
X225900000Y-47293750D01*
X225901174Y-47269858D01*
X225904684Y-47246197D01*
X225910496Y-47222993D01*
X225918554Y-47200471D01*
X225928782Y-47178847D01*
X225941079Y-47158330D01*
X225955329Y-47139117D01*
X225971393Y-47121393D01*
X225989117Y-47105329D01*
X226008330Y-47091079D01*
X226028847Y-47078782D01*
X226050471Y-47068554D01*
X226072993Y-47060496D01*
X226096197Y-47054684D01*
X226119858Y-47051174D01*
X226143750Y-47050000D01*
X227056250Y-47050000D01*
X227080142Y-47051174D01*
G37*
G04 #@! TD.AperFunction*
G04 #@! TA.AperFunction,SMDPad,CuDef*
G36*
X227080142Y-45176174D02*
G01*
X227103803Y-45179684D01*
X227127007Y-45185496D01*
X227149529Y-45193554D01*
X227171153Y-45203782D01*
X227191670Y-45216079D01*
X227210883Y-45230329D01*
X227228607Y-45246393D01*
X227244671Y-45264117D01*
X227258921Y-45283330D01*
X227271218Y-45303847D01*
X227281446Y-45325471D01*
X227289504Y-45347993D01*
X227295316Y-45371197D01*
X227298826Y-45394858D01*
X227300000Y-45418750D01*
X227300000Y-45906250D01*
X227298826Y-45930142D01*
X227295316Y-45953803D01*
X227289504Y-45977007D01*
X227281446Y-45999529D01*
X227271218Y-46021153D01*
X227258921Y-46041670D01*
X227244671Y-46060883D01*
X227228607Y-46078607D01*
X227210883Y-46094671D01*
X227191670Y-46108921D01*
X227171153Y-46121218D01*
X227149529Y-46131446D01*
X227127007Y-46139504D01*
X227103803Y-46145316D01*
X227080142Y-46148826D01*
X227056250Y-46150000D01*
X226143750Y-46150000D01*
X226119858Y-46148826D01*
X226096197Y-46145316D01*
X226072993Y-46139504D01*
X226050471Y-46131446D01*
X226028847Y-46121218D01*
X226008330Y-46108921D01*
X225989117Y-46094671D01*
X225971393Y-46078607D01*
X225955329Y-46060883D01*
X225941079Y-46041670D01*
X225928782Y-46021153D01*
X225918554Y-45999529D01*
X225910496Y-45977007D01*
X225904684Y-45953803D01*
X225901174Y-45930142D01*
X225900000Y-45906250D01*
X225900000Y-45418750D01*
X225901174Y-45394858D01*
X225904684Y-45371197D01*
X225910496Y-45347993D01*
X225918554Y-45325471D01*
X225928782Y-45303847D01*
X225941079Y-45283330D01*
X225955329Y-45264117D01*
X225971393Y-45246393D01*
X225989117Y-45230329D01*
X226008330Y-45216079D01*
X226028847Y-45203782D01*
X226050471Y-45193554D01*
X226072993Y-45185496D01*
X226096197Y-45179684D01*
X226119858Y-45176174D01*
X226143750Y-45175000D01*
X227056250Y-45175000D01*
X227080142Y-45176174D01*
G37*
G04 #@! TD.AperFunction*
G04 #@! TA.AperFunction,SMDPad,CuDef*
G36*
X212880142Y-44176174D02*
G01*
X212903803Y-44179684D01*
X212927007Y-44185496D01*
X212949529Y-44193554D01*
X212971153Y-44203782D01*
X212991670Y-44216079D01*
X213010883Y-44230329D01*
X213028607Y-44246393D01*
X213044671Y-44264117D01*
X213058921Y-44283330D01*
X213071218Y-44303847D01*
X213081446Y-44325471D01*
X213089504Y-44347993D01*
X213095316Y-44371197D01*
X213098826Y-44394858D01*
X213100000Y-44418750D01*
X213100000Y-44906250D01*
X213098826Y-44930142D01*
X213095316Y-44953803D01*
X213089504Y-44977007D01*
X213081446Y-44999529D01*
X213071218Y-45021153D01*
X213058921Y-45041670D01*
X213044671Y-45060883D01*
X213028607Y-45078607D01*
X213010883Y-45094671D01*
X212991670Y-45108921D01*
X212971153Y-45121218D01*
X212949529Y-45131446D01*
X212927007Y-45139504D01*
X212903803Y-45145316D01*
X212880142Y-45148826D01*
X212856250Y-45150000D01*
X211943750Y-45150000D01*
X211919858Y-45148826D01*
X211896197Y-45145316D01*
X211872993Y-45139504D01*
X211850471Y-45131446D01*
X211828847Y-45121218D01*
X211808330Y-45108921D01*
X211789117Y-45094671D01*
X211771393Y-45078607D01*
X211755329Y-45060883D01*
X211741079Y-45041670D01*
X211728782Y-45021153D01*
X211718554Y-44999529D01*
X211710496Y-44977007D01*
X211704684Y-44953803D01*
X211701174Y-44930142D01*
X211700000Y-44906250D01*
X211700000Y-44418750D01*
X211701174Y-44394858D01*
X211704684Y-44371197D01*
X211710496Y-44347993D01*
X211718554Y-44325471D01*
X211728782Y-44303847D01*
X211741079Y-44283330D01*
X211755329Y-44264117D01*
X211771393Y-44246393D01*
X211789117Y-44230329D01*
X211808330Y-44216079D01*
X211828847Y-44203782D01*
X211850471Y-44193554D01*
X211872993Y-44185496D01*
X211896197Y-44179684D01*
X211919858Y-44176174D01*
X211943750Y-44175000D01*
X212856250Y-44175000D01*
X212880142Y-44176174D01*
G37*
G04 #@! TD.AperFunction*
G04 #@! TA.AperFunction,SMDPad,CuDef*
G36*
X212880142Y-46051174D02*
G01*
X212903803Y-46054684D01*
X212927007Y-46060496D01*
X212949529Y-46068554D01*
X212971153Y-46078782D01*
X212991670Y-46091079D01*
X213010883Y-46105329D01*
X213028607Y-46121393D01*
X213044671Y-46139117D01*
X213058921Y-46158330D01*
X213071218Y-46178847D01*
X213081446Y-46200471D01*
X213089504Y-46222993D01*
X213095316Y-46246197D01*
X213098826Y-46269858D01*
X213100000Y-46293750D01*
X213100000Y-46781250D01*
X213098826Y-46805142D01*
X213095316Y-46828803D01*
X213089504Y-46852007D01*
X213081446Y-46874529D01*
X213071218Y-46896153D01*
X213058921Y-46916670D01*
X213044671Y-46935883D01*
X213028607Y-46953607D01*
X213010883Y-46969671D01*
X212991670Y-46983921D01*
X212971153Y-46996218D01*
X212949529Y-47006446D01*
X212927007Y-47014504D01*
X212903803Y-47020316D01*
X212880142Y-47023826D01*
X212856250Y-47025000D01*
X211943750Y-47025000D01*
X211919858Y-47023826D01*
X211896197Y-47020316D01*
X211872993Y-47014504D01*
X211850471Y-47006446D01*
X211828847Y-46996218D01*
X211808330Y-46983921D01*
X211789117Y-46969671D01*
X211771393Y-46953607D01*
X211755329Y-46935883D01*
X211741079Y-46916670D01*
X211728782Y-46896153D01*
X211718554Y-46874529D01*
X211710496Y-46852007D01*
X211704684Y-46828803D01*
X211701174Y-46805142D01*
X211700000Y-46781250D01*
X211700000Y-46293750D01*
X211701174Y-46269858D01*
X211704684Y-46246197D01*
X211710496Y-46222993D01*
X211718554Y-46200471D01*
X211728782Y-46178847D01*
X211741079Y-46158330D01*
X211755329Y-46139117D01*
X211771393Y-46121393D01*
X211789117Y-46105329D01*
X211808330Y-46091079D01*
X211828847Y-46078782D01*
X211850471Y-46068554D01*
X211872993Y-46060496D01*
X211896197Y-46054684D01*
X211919858Y-46051174D01*
X211943750Y-46050000D01*
X212856250Y-46050000D01*
X212880142Y-46051174D01*
G37*
G04 #@! TD.AperFunction*
D25*
X160600000Y-45400000D03*
X219200000Y-45400000D03*
X157000000Y-45800000D03*
X145800000Y-50600000D03*
X163800000Y-47000000D03*
X145602158Y-48675000D03*
X147600000Y-47800000D03*
X147000000Y-50600000D03*
X157400000Y-48400000D03*
X142200000Y-46400000D03*
X141618750Y-48818750D03*
D26*
X150425000Y-46050000D02*
X149450000Y-46050000D01*
X150600001Y-45874999D02*
X150425000Y-46050000D01*
X154160001Y-45874999D02*
X150600001Y-45874999D01*
X154225001Y-46550001D02*
X154225001Y-45939999D01*
X154225001Y-45939999D02*
X154160001Y-45874999D01*
X154375000Y-46700000D02*
X154225001Y-46550001D01*
X154160001Y-50125001D02*
X150600001Y-50125001D01*
X154225001Y-50060001D02*
X154160001Y-50125001D01*
X154225001Y-48799999D02*
X154225001Y-50060001D01*
X154375000Y-48650000D02*
X154225001Y-48799999D01*
X150600001Y-50125001D02*
X150425000Y-49950000D01*
X155350000Y-48650000D02*
X154375000Y-48650000D01*
X150500001Y-48075001D02*
X150425000Y-48000000D01*
X150425000Y-48000000D02*
X149450000Y-48000000D01*
X150425000Y-49950000D02*
X150500001Y-49874999D01*
X150500001Y-49874999D02*
X150500001Y-48075001D01*
X222200000Y-50600000D02*
X213100000Y-50600000D01*
X213100000Y-50600000D02*
X212400000Y-50600000D01*
X222400000Y-50400000D02*
X222200000Y-50600000D01*
X222400000Y-49400000D02*
X222400000Y-50400000D01*
X225225000Y-49400000D02*
X223650000Y-49400000D01*
X223650000Y-49400000D02*
X222400000Y-49400000D01*
X226600000Y-48025000D02*
X225225000Y-49400000D01*
X226600000Y-47537500D02*
X226600000Y-48025000D01*
X159600000Y-45400000D02*
X160600000Y-45400000D01*
X158600000Y-46400000D02*
X159600000Y-45400000D01*
X158114473Y-46885527D02*
X158600000Y-46400000D01*
X156510527Y-46885527D02*
X158114473Y-46885527D01*
X156325000Y-46700000D02*
X156510527Y-46885527D01*
X155350000Y-46700000D02*
X156325000Y-46700000D01*
X150574999Y-47850001D02*
X150574999Y-46000000D01*
X150425000Y-48000000D02*
X150574999Y-47850001D01*
X154225001Y-46849999D02*
X154225001Y-48799999D01*
X154375000Y-46700000D02*
X154225001Y-46849999D01*
X155350000Y-46700000D02*
X154375000Y-46700000D01*
X139050000Y-53300000D02*
X139050000Y-53200000D01*
X143100000Y-54150000D02*
X139900000Y-54150000D01*
X143500000Y-53750000D02*
X143100000Y-54150000D01*
X139900000Y-54150000D02*
X139050000Y-53300000D01*
X150900000Y-50425000D02*
X150425000Y-49950000D01*
X153860002Y-50425000D02*
X150900000Y-50425000D01*
X159095651Y-46799999D02*
X154364999Y-46799999D01*
X159920660Y-45974990D02*
X159095651Y-46799999D01*
X154299999Y-46864999D02*
X154299999Y-49985003D01*
X160879340Y-45974990D02*
X159920660Y-45974990D01*
X161212510Y-46308160D02*
X160879340Y-45974990D01*
X154299999Y-49985003D02*
X153860002Y-50425000D01*
X161212510Y-49691840D02*
X161212510Y-46308160D01*
X160879340Y-50025010D02*
X161212510Y-49691840D01*
X159446402Y-50025010D02*
X160879340Y-50025010D01*
X154571403Y-54900009D02*
X159446402Y-50025010D01*
X144650010Y-54900010D02*
X154571403Y-54900009D01*
X150425000Y-49950000D02*
X149450000Y-49950000D01*
X143500000Y-53750000D02*
X144650010Y-54900010D01*
X154364999Y-46799999D02*
X154299999Y-46864999D01*
X143500000Y-52700000D02*
X143500000Y-53750000D01*
X212400000Y-44662500D02*
X218462500Y-44662500D01*
X218462500Y-44662500D02*
X219200000Y-45400000D01*
X212962500Y-47100000D02*
X212400000Y-46537500D01*
X216100000Y-47100000D02*
X212962500Y-47100000D01*
X214025000Y-47100000D02*
X212400000Y-48725000D01*
X216100000Y-47100000D02*
X214025000Y-47100000D01*
X222400000Y-47100000D02*
X216100000Y-47100000D01*
X155450000Y-46050000D02*
X155500000Y-46000000D01*
X155350000Y-46050000D02*
X155450000Y-46050000D01*
X155500000Y-46000000D02*
X156800000Y-46000000D01*
X156800000Y-46000000D02*
X157000000Y-45800000D01*
X145800000Y-52600000D02*
X145700000Y-52700000D01*
X145800000Y-50600000D02*
X145800000Y-52600000D01*
X157325000Y-45800000D02*
X158600000Y-44525000D01*
X157000000Y-45800000D02*
X157325000Y-45800000D01*
X169977008Y-44525000D02*
X158600000Y-44525000D01*
X170451999Y-44999991D02*
X169977008Y-44525000D01*
X212400000Y-46537500D02*
X196937500Y-46537500D01*
X195399991Y-44999991D02*
X170451999Y-44999991D01*
X196937500Y-46537500D02*
X195399991Y-44999991D01*
D27*
X207560000Y-49400000D02*
X207560000Y-50600000D01*
X208422510Y-51462510D02*
X225337490Y-51462510D01*
X207560000Y-50600000D02*
X208422510Y-51462510D01*
X227675010Y-46737510D02*
X227085527Y-46148027D01*
X227675010Y-49124990D02*
X227675010Y-46737510D01*
X227085527Y-46148027D02*
X226600000Y-45662500D01*
X225337490Y-51462510D02*
X227675010Y-49124990D01*
X225737500Y-44800000D02*
X226600000Y-45662500D01*
X222400000Y-44800000D02*
X225737500Y-44800000D01*
D26*
X156350000Y-47350000D02*
X156325000Y-47350000D01*
X156485527Y-47485527D02*
X156350000Y-47350000D01*
X156325000Y-47350000D02*
X155350000Y-47350000D01*
X159914473Y-47485527D02*
X156485527Y-47485527D01*
X160400000Y-47000000D02*
X159914473Y-47485527D01*
X160100000Y-49300000D02*
X160400000Y-49000000D01*
X155350000Y-49300000D02*
X160100000Y-49300000D01*
X145700000Y-45300000D02*
X145600000Y-45200000D01*
X147100000Y-46700000D02*
X145600000Y-45200000D01*
X149450000Y-46700000D02*
X147100000Y-46700000D01*
X145650000Y-47250000D02*
X145600000Y-47200000D01*
X147050000Y-48650000D02*
X145600000Y-47200000D01*
X149450000Y-48650000D02*
X147050000Y-48650000D01*
X162275000Y-47000000D02*
X163800000Y-47000000D01*
X142400000Y-50200000D02*
X142400000Y-52700000D01*
X143800000Y-48800000D02*
X142400000Y-50200000D01*
X144911473Y-48800000D02*
X143800000Y-48800000D01*
X145036473Y-48675000D02*
X144911473Y-48800000D01*
X145602158Y-48675000D02*
X145036473Y-48675000D01*
X155350000Y-53485002D02*
X155350000Y-49950000D01*
X154385002Y-54450000D02*
X155350000Y-53485002D01*
X147900000Y-52700000D02*
X147900000Y-53750000D01*
X148600000Y-54450000D02*
X154385002Y-54450000D01*
X147900000Y-53750000D02*
X148600000Y-54450000D01*
X148475000Y-49300000D02*
X148375000Y-49400000D01*
X149450000Y-49300000D02*
X148475000Y-49300000D01*
X148375000Y-49400000D02*
X145200000Y-49400000D01*
X144600000Y-50000000D02*
X144600000Y-52700000D01*
X145200000Y-49400000D02*
X144600000Y-50000000D01*
X148475000Y-47350000D02*
X148025000Y-47800000D01*
X149450000Y-47350000D02*
X148475000Y-47350000D01*
X148025000Y-47800000D02*
X147600000Y-47800000D01*
X147000000Y-52500000D02*
X146800000Y-52700000D01*
X147000000Y-50600000D02*
X147000000Y-52500000D01*
X157000000Y-48000000D02*
X155350000Y-48000000D01*
X157400000Y-48400000D02*
X157000000Y-48000000D01*
X178000000Y-53200000D02*
X179620000Y-51580000D01*
X162000000Y-53200000D02*
X178000000Y-53200000D01*
X179620000Y-51580000D02*
X179620000Y-49400000D01*
X158800000Y-56400000D02*
X162000000Y-53200000D01*
X139400000Y-57000000D02*
X140600000Y-55800000D01*
X155800000Y-56400000D02*
X158800000Y-56400000D01*
X136200000Y-57000000D02*
X139400000Y-57000000D01*
X140600000Y-55800000D02*
X155200000Y-55800000D01*
X155200000Y-55800000D02*
X155800000Y-56400000D01*
X143725000Y-45200000D02*
X143400000Y-45200000D01*
X143400000Y-45200000D02*
X142200000Y-46400000D01*
X143237500Y-47200000D02*
X141618750Y-48818750D01*
X143725000Y-47200000D02*
X143237500Y-47200000D01*
X141618750Y-48818750D02*
X141600000Y-48837500D01*
X160090000Y-63410000D02*
X159940000Y-63410000D01*
X166900000Y-56600000D02*
X160090000Y-63410000D01*
X189780000Y-49400000D02*
X189780000Y-51420000D01*
X189780000Y-51420000D02*
X186600000Y-54600000D01*
X186600000Y-54600000D02*
X179600000Y-54600000D01*
X177600000Y-56600000D02*
X166900000Y-56600000D01*
X179600000Y-54600000D02*
X177600000Y-56600000D01*
X199940000Y-49400000D02*
X199940000Y-53740000D01*
X199940000Y-53740000D02*
X202800000Y-56600000D01*
X202800000Y-56600000D02*
X216130000Y-56600000D01*
X180250000Y-62100000D02*
X178940000Y-63410000D01*
X182100000Y-62100000D02*
X180250000Y-62100000D01*
X192320000Y-51880000D02*
X182100000Y-62100000D01*
X192320000Y-49400000D02*
X192320000Y-51880000D01*
X194860000Y-49400000D02*
X194860000Y-51460000D01*
X194860000Y-51460000D02*
X196000000Y-52600000D01*
X196000000Y-52600000D02*
X197000000Y-52600000D01*
X197000000Y-52600000D02*
X197400000Y-53000000D01*
X197400000Y-53000000D02*
X197400000Y-57400000D01*
X197400000Y-57400000D02*
X198400000Y-58400000D01*
X198400000Y-58400000D02*
X198400000Y-60400000D01*
X198400000Y-60400000D02*
X199000000Y-61000000D01*
X197940000Y-62060000D02*
X197940000Y-63410000D01*
X199000000Y-61000000D02*
X197940000Y-62060000D01*
X195000000Y-47000000D02*
X197400000Y-49400000D01*
X167600000Y-47000000D02*
X195000000Y-47000000D01*
X162275000Y-49000000D02*
X163050001Y-48224999D01*
X166375001Y-48224999D02*
X167600000Y-47000000D01*
X163050001Y-48224999D02*
X166375001Y-48224999D01*
X217200000Y-60900000D02*
X218400000Y-62100000D01*
X217200000Y-57400000D02*
X217200000Y-60900000D01*
X216130000Y-56600000D02*
X216400000Y-56600000D01*
X216400000Y-56600000D02*
X217200000Y-57400000D01*
X236000000Y-60700000D02*
X235940000Y-60760000D01*
X205020000Y-49400000D02*
X208420000Y-52800000D01*
X236000000Y-57200000D02*
X236000000Y-60700000D01*
X208420000Y-52800000D02*
X226400000Y-52800000D01*
X235940000Y-60760000D02*
X235940000Y-63410000D01*
X226400000Y-52800000D02*
X230200000Y-56600000D01*
X230200000Y-56600000D02*
X235400000Y-56600000D01*
X235400000Y-56600000D02*
X236000000Y-57200000D01*
D28*
G36*
X142666553Y-44406291D02*
G01*
X142616372Y-44571715D01*
X142599428Y-44743750D01*
X142599428Y-44925770D01*
X142160199Y-45365000D01*
X142098061Y-45365000D01*
X141898102Y-45404774D01*
X141709744Y-45482795D01*
X141540226Y-45596063D01*
X141396063Y-45740226D01*
X141282795Y-45909744D01*
X141204774Y-46098102D01*
X141165000Y-46298061D01*
X141165000Y-46501939D01*
X141204774Y-46701898D01*
X141282795Y-46890256D01*
X141396063Y-47059774D01*
X141540226Y-47203937D01*
X141709744Y-47317205D01*
X141898102Y-47395226D01*
X141955963Y-47406735D01*
X141578949Y-47783750D01*
X141516811Y-47783750D01*
X141316852Y-47823524D01*
X141128494Y-47901545D01*
X140958976Y-48014813D01*
X140814813Y-48158976D01*
X140701545Y-48328494D01*
X140623524Y-48516852D01*
X140583750Y-48716811D01*
X140583750Y-48920689D01*
X140623524Y-49120648D01*
X140701545Y-49309006D01*
X140814813Y-49478524D01*
X140958976Y-49622687D01*
X141128494Y-49735955D01*
X141316852Y-49813976D01*
X141516811Y-49853750D01*
X141720689Y-49853750D01*
X141723633Y-49853164D01*
X141701563Y-49894454D01*
X141694454Y-49907754D01*
X141650997Y-50051015D01*
X141640000Y-50162668D01*
X141640000Y-50162678D01*
X141636324Y-50200000D01*
X141640000Y-50237323D01*
X141640000Y-51261928D01*
X140950000Y-51261928D01*
X140825518Y-51274188D01*
X140750000Y-51297096D01*
X140674482Y-51274188D01*
X140550000Y-51261928D01*
X139850000Y-51261928D01*
X139725518Y-51274188D01*
X139605820Y-51310498D01*
X139495506Y-51369463D01*
X139398815Y-51448815D01*
X139319463Y-51545506D01*
X139260498Y-51655820D01*
X139224188Y-51775518D01*
X139211928Y-51900000D01*
X139211928Y-51988822D01*
X139177000Y-52023750D01*
X139177000Y-53073000D01*
X139197000Y-53073000D01*
X139197000Y-53327000D01*
X139177000Y-53327000D01*
X139177000Y-54376250D01*
X139335750Y-54535000D01*
X139650000Y-54538072D01*
X139774482Y-54525812D01*
X139894180Y-54489502D01*
X140004494Y-54430537D01*
X140101185Y-54351185D01*
X140180537Y-54254494D01*
X140239502Y-54144180D01*
X140241355Y-54138072D01*
X140550000Y-54138072D01*
X140674482Y-54125812D01*
X140750000Y-54102904D01*
X140825518Y-54125812D01*
X140950000Y-54138072D01*
X141650000Y-54138072D01*
X141774482Y-54125812D01*
X141850000Y-54102904D01*
X141925518Y-54125812D01*
X142050000Y-54138072D01*
X142750000Y-54138072D01*
X142874482Y-54125812D01*
X142950000Y-54102904D01*
X143025518Y-54125812D01*
X143150000Y-54138072D01*
X143214250Y-54135000D01*
X143373000Y-53976250D01*
X143373000Y-53633752D01*
X143375812Y-53624482D01*
X143388072Y-53500000D01*
X143388072Y-51900000D01*
X143375812Y-51775518D01*
X143373000Y-51766248D01*
X143373000Y-51423750D01*
X143214250Y-51265000D01*
X143160000Y-51262406D01*
X143160000Y-50514801D01*
X143862845Y-49811957D01*
X143850997Y-49851015D01*
X143840000Y-49962668D01*
X143840000Y-49962678D01*
X143836324Y-50000000D01*
X143840000Y-50037323D01*
X143840000Y-51262406D01*
X143785750Y-51265000D01*
X143627000Y-51423750D01*
X143627000Y-51766248D01*
X143624188Y-51775518D01*
X143611928Y-51900000D01*
X143611928Y-53500000D01*
X143624188Y-53624482D01*
X143627000Y-53633752D01*
X143627000Y-53976250D01*
X143785750Y-54135000D01*
X143850000Y-54138072D01*
X143974482Y-54125812D01*
X144050000Y-54102904D01*
X144125518Y-54125812D01*
X144250000Y-54138072D01*
X144950000Y-54138072D01*
X145074482Y-54125812D01*
X145150000Y-54102904D01*
X145225518Y-54125812D01*
X145350000Y-54138072D01*
X146050000Y-54138072D01*
X146174482Y-54125812D01*
X146250000Y-54102904D01*
X146325518Y-54125812D01*
X146450000Y-54138072D01*
X147150000Y-54138072D01*
X147240890Y-54129120D01*
X147265026Y-54174276D01*
X147314045Y-54234005D01*
X147360000Y-54290001D01*
X147388997Y-54313799D01*
X148036205Y-54961008D01*
X148059999Y-54990001D01*
X148088992Y-55013795D01*
X148088996Y-55013799D01*
X148120922Y-55040000D01*
X140637322Y-55040000D01*
X140599999Y-55036324D01*
X140562676Y-55040000D01*
X140562667Y-55040000D01*
X140451014Y-55050997D01*
X140307753Y-55094454D01*
X140175724Y-55165026D01*
X140059999Y-55259999D01*
X140036201Y-55288997D01*
X139085199Y-56240000D01*
X137688072Y-56240000D01*
X137688072Y-56150000D01*
X137675812Y-56025518D01*
X137639502Y-55905820D01*
X137580537Y-55795506D01*
X137501185Y-55698815D01*
X137404494Y-55619463D01*
X137294180Y-55560498D01*
X137174482Y-55524188D01*
X137050000Y-55511928D01*
X135660000Y-55511928D01*
X135660000Y-53900000D01*
X137811928Y-53900000D01*
X137824188Y-54024482D01*
X137860498Y-54144180D01*
X137919463Y-54254494D01*
X137998815Y-54351185D01*
X138095506Y-54430537D01*
X138205820Y-54489502D01*
X138325518Y-54525812D01*
X138450000Y-54538072D01*
X138764250Y-54535000D01*
X138923000Y-54376250D01*
X138923000Y-53327000D01*
X137973750Y-53327000D01*
X137815000Y-53485750D01*
X137811928Y-53900000D01*
X135660000Y-53900000D01*
X135660000Y-52832419D01*
X135663193Y-52800000D01*
X135650450Y-52670617D01*
X135612710Y-52546207D01*
X135588013Y-52500000D01*
X137811928Y-52500000D01*
X137815000Y-52914250D01*
X137973750Y-53073000D01*
X138923000Y-53073000D01*
X138923000Y-52023750D01*
X138764250Y-51865000D01*
X138450000Y-51861928D01*
X138325518Y-51874188D01*
X138205820Y-51910498D01*
X138095506Y-51969463D01*
X137998815Y-52048815D01*
X137919463Y-52145506D01*
X137860498Y-52255820D01*
X137824188Y-52375518D01*
X137811928Y-52500000D01*
X135588013Y-52500000D01*
X135551425Y-52431550D01*
X135468948Y-52331052D01*
X135368450Y-52248575D01*
X135253793Y-52187290D01*
X135129383Y-52149550D01*
X135032419Y-52140000D01*
X135000000Y-52136807D01*
X134967581Y-52140000D01*
X120232412Y-52140000D01*
X120200000Y-52136808D01*
X120167588Y-52140000D01*
X120167581Y-52140000D01*
X120070617Y-52149550D01*
X119946207Y-52187290D01*
X119831550Y-52248575D01*
X119759441Y-52307754D01*
X119731052Y-52331052D01*
X119710388Y-52356231D01*
X118156232Y-53910388D01*
X118131053Y-53931052D01*
X118110389Y-53956231D01*
X118110386Y-53956234D01*
X118048575Y-54031550D01*
X117987290Y-54146208D01*
X117978776Y-54174276D01*
X117949551Y-54270617D01*
X117945893Y-54307754D01*
X117936808Y-54400000D01*
X117940001Y-54432419D01*
X117940001Y-55515000D01*
X117653740Y-55515000D01*
X117366842Y-55572068D01*
X117096589Y-55684010D01*
X116853368Y-55846525D01*
X116646525Y-56053368D01*
X116484010Y-56296589D01*
X116372068Y-56566842D01*
X116315000Y-56853740D01*
X116315000Y-57146260D01*
X116372068Y-57433158D01*
X116484010Y-57703411D01*
X116646525Y-57946632D01*
X116853368Y-58153475D01*
X117035534Y-58275195D01*
X116918645Y-58344822D01*
X116702412Y-58539731D01*
X116528359Y-58773080D01*
X116403175Y-59035901D01*
X116358524Y-59183110D01*
X116479845Y-59413000D01*
X117673000Y-59413000D01*
X117673000Y-59393000D01*
X117927000Y-59393000D01*
X117927000Y-59413000D01*
X117940001Y-59413000D01*
X117940001Y-59667000D01*
X117927000Y-59667000D01*
X117927000Y-59687000D01*
X117673000Y-59687000D01*
X117673000Y-59667000D01*
X116479845Y-59667000D01*
X116358524Y-59896890D01*
X116403175Y-60044099D01*
X116528359Y-60306920D01*
X116702412Y-60540269D01*
X116786466Y-60616034D01*
X116705820Y-60640498D01*
X116595506Y-60699463D01*
X116498815Y-60778815D01*
X116419463Y-60875506D01*
X116360498Y-60985820D01*
X116324188Y-61105518D01*
X116311928Y-61230000D01*
X116311928Y-62930000D01*
X116324188Y-63054482D01*
X116360498Y-63174180D01*
X116419463Y-63284494D01*
X116498815Y-63381185D01*
X116595506Y-63460537D01*
X116705820Y-63519502D01*
X116825518Y-63555812D01*
X116950000Y-63568072D01*
X117940000Y-63568072D01*
X117940000Y-66167581D01*
X117936807Y-66200000D01*
X117949550Y-66329383D01*
X117987290Y-66453793D01*
X118048575Y-66568450D01*
X118131052Y-66668948D01*
X118231550Y-66751425D01*
X118346207Y-66812710D01*
X118470617Y-66850450D01*
X118600000Y-66863193D01*
X118632419Y-66860000D01*
X134967581Y-66860000D01*
X135000000Y-66863193D01*
X135032419Y-66860000D01*
X135129383Y-66850450D01*
X135253793Y-66812710D01*
X135368450Y-66751425D01*
X135468948Y-66668948D01*
X135551425Y-66568450D01*
X135612710Y-66453793D01*
X135650450Y-66329383D01*
X135663193Y-66200000D01*
X135660000Y-66167581D01*
X135660000Y-63900000D01*
X137811928Y-63900000D01*
X137824188Y-64024482D01*
X137860498Y-64144180D01*
X137919463Y-64254494D01*
X137998815Y-64351185D01*
X138095506Y-64430537D01*
X138205820Y-64489502D01*
X138325518Y-64525812D01*
X138450000Y-64538072D01*
X138764250Y-64535000D01*
X138923000Y-64376250D01*
X138923000Y-62927000D01*
X139177000Y-62927000D01*
X139177000Y-64376250D01*
X139335750Y-64535000D01*
X139650000Y-64538072D01*
X139774482Y-64525812D01*
X139894180Y-64489502D01*
X140004494Y-64430537D01*
X140101185Y-64351185D01*
X140180537Y-64254494D01*
X140239502Y-64144180D01*
X140275812Y-64024482D01*
X140288072Y-63900000D01*
X140285010Y-63088212D01*
X140735000Y-63088212D01*
X140735000Y-63311788D01*
X140778617Y-63531067D01*
X140864176Y-63737624D01*
X140988388Y-63923520D01*
X141146480Y-64081612D01*
X141332376Y-64205824D01*
X141538933Y-64291383D01*
X141758212Y-64335000D01*
X141981788Y-64335000D01*
X142201067Y-64291383D01*
X142407624Y-64205824D01*
X142593520Y-64081612D01*
X142751612Y-63923520D01*
X142875824Y-63737624D01*
X142961383Y-63531067D01*
X143005000Y-63311788D01*
X143005000Y-63088212D01*
X148715000Y-63088212D01*
X148715000Y-63311788D01*
X148758617Y-63531067D01*
X148844176Y-63737624D01*
X148968388Y-63923520D01*
X149126480Y-64081612D01*
X149312376Y-64205824D01*
X149518933Y-64291383D01*
X149738212Y-64335000D01*
X149961788Y-64335000D01*
X150181067Y-64291383D01*
X150387624Y-64205824D01*
X150573520Y-64081612D01*
X150731612Y-63923520D01*
X150747327Y-63900000D01*
X153311928Y-63900000D01*
X153324188Y-64024482D01*
X153360498Y-64144180D01*
X153419463Y-64254494D01*
X153498815Y-64351185D01*
X153595506Y-64430537D01*
X153705820Y-64489502D01*
X153825518Y-64525812D01*
X153950000Y-64538072D01*
X154264250Y-64535000D01*
X154423000Y-64376250D01*
X154423000Y-62927000D01*
X154677000Y-62927000D01*
X154677000Y-64376250D01*
X154835750Y-64535000D01*
X155150000Y-64538072D01*
X155274482Y-64525812D01*
X155394180Y-64489502D01*
X155504494Y-64430537D01*
X155601185Y-64351185D01*
X155680537Y-64254494D01*
X155739502Y-64144180D01*
X155775812Y-64024482D01*
X155788072Y-63900000D01*
X155785000Y-63085750D01*
X155626250Y-62927000D01*
X154677000Y-62927000D01*
X154423000Y-62927000D01*
X153473750Y-62927000D01*
X153315000Y-63085750D01*
X153311928Y-63900000D01*
X150747327Y-63900000D01*
X150855824Y-63737624D01*
X150941383Y-63531067D01*
X150985000Y-63311788D01*
X150985000Y-63088212D01*
X150941383Y-62868933D01*
X150855824Y-62662376D01*
X150731612Y-62476480D01*
X150573520Y-62318388D01*
X150387624Y-62194176D01*
X150181067Y-62108617D01*
X149961788Y-62065000D01*
X149738212Y-62065000D01*
X149518933Y-62108617D01*
X149312376Y-62194176D01*
X149126480Y-62318388D01*
X148968388Y-62476480D01*
X148844176Y-62662376D01*
X148758617Y-62868933D01*
X148715000Y-63088212D01*
X143005000Y-63088212D01*
X142961383Y-62868933D01*
X142875824Y-62662376D01*
X142751612Y-62476480D01*
X142593520Y-62318388D01*
X142407624Y-62194176D01*
X142201067Y-62108617D01*
X141981788Y-62065000D01*
X141758212Y-62065000D01*
X141538933Y-62108617D01*
X141332376Y-62194176D01*
X141146480Y-62318388D01*
X140988388Y-62476480D01*
X140864176Y-62662376D01*
X140778617Y-62868933D01*
X140735000Y-63088212D01*
X140285010Y-63088212D01*
X140285000Y-63085750D01*
X140126250Y-62927000D01*
X139177000Y-62927000D01*
X138923000Y-62927000D01*
X137973750Y-62927000D01*
X137815000Y-63085750D01*
X137811928Y-63900000D01*
X135660000Y-63900000D01*
X135660000Y-63463677D01*
X135766842Y-63507932D01*
X136053740Y-63565000D01*
X136346260Y-63565000D01*
X136633158Y-63507932D01*
X136903411Y-63395990D01*
X137146632Y-63233475D01*
X137353475Y-63026632D01*
X137515990Y-62783411D01*
X137627932Y-62513158D01*
X137685000Y-62226260D01*
X137685000Y-61933740D01*
X137638506Y-61700000D01*
X137811928Y-61700000D01*
X137815000Y-62514250D01*
X137973750Y-62673000D01*
X138923000Y-62673000D01*
X138923000Y-61223750D01*
X139177000Y-61223750D01*
X139177000Y-62673000D01*
X140126250Y-62673000D01*
X140285000Y-62514250D01*
X140288072Y-61700000D01*
X140275812Y-61575518D01*
X140239502Y-61455820D01*
X140180537Y-61345506D01*
X140101185Y-61248815D01*
X140004494Y-61169463D01*
X139894180Y-61110498D01*
X139774482Y-61074188D01*
X139650000Y-61061928D01*
X139335750Y-61065000D01*
X139177000Y-61223750D01*
X138923000Y-61223750D01*
X138764250Y-61065000D01*
X138450000Y-61061928D01*
X138325518Y-61074188D01*
X138205820Y-61110498D01*
X138095506Y-61169463D01*
X137998815Y-61248815D01*
X137919463Y-61345506D01*
X137860498Y-61455820D01*
X137824188Y-61575518D01*
X137811928Y-61700000D01*
X137638506Y-61700000D01*
X137627932Y-61646842D01*
X137515990Y-61376589D01*
X137353475Y-61133368D01*
X137146632Y-60926525D01*
X136972240Y-60810000D01*
X137146632Y-60693475D01*
X137353475Y-60486632D01*
X137515990Y-60243411D01*
X137627932Y-59973158D01*
X137685000Y-59686260D01*
X137685000Y-59393740D01*
X137627932Y-59106842D01*
X137515990Y-58836589D01*
X137353475Y-58593368D01*
X137221620Y-58461513D01*
X137294180Y-58439502D01*
X137404494Y-58380537D01*
X137501185Y-58301185D01*
X137580537Y-58204494D01*
X137639502Y-58094180D01*
X137675812Y-57974482D01*
X137688072Y-57850000D01*
X137688072Y-57760000D01*
X139362678Y-57760000D01*
X139400000Y-57763676D01*
X139437322Y-57760000D01*
X139437333Y-57760000D01*
X139548986Y-57749003D01*
X139692247Y-57705546D01*
X139824276Y-57634974D01*
X139940001Y-57540001D01*
X139963804Y-57510997D01*
X140097301Y-57377500D01*
X150729428Y-57377500D01*
X150729428Y-59282500D01*
X150741688Y-59406982D01*
X150777998Y-59526680D01*
X150836963Y-59636994D01*
X150916315Y-59733685D01*
X151013006Y-59813037D01*
X151090485Y-59854451D01*
X151086908Y-59858028D01*
X150913176Y-60118037D01*
X150793507Y-60406943D01*
X150732500Y-60713645D01*
X150732500Y-61026355D01*
X150793507Y-61333057D01*
X150913176Y-61621963D01*
X151086908Y-61881972D01*
X151308028Y-62103092D01*
X151568037Y-62276824D01*
X151856943Y-62396493D01*
X152163645Y-62457500D01*
X152476355Y-62457500D01*
X152783057Y-62396493D01*
X153071963Y-62276824D01*
X153313495Y-62115438D01*
X153315000Y-62514250D01*
X153473750Y-62673000D01*
X154423000Y-62673000D01*
X154423000Y-61223750D01*
X154264250Y-61065000D01*
X153950000Y-61061928D01*
X153899433Y-61066908D01*
X153907500Y-61026355D01*
X153907500Y-60713645D01*
X153846493Y-60406943D01*
X153726824Y-60118037D01*
X153553092Y-59858028D01*
X153549515Y-59854451D01*
X153626994Y-59813037D01*
X153723685Y-59733685D01*
X153803037Y-59636994D01*
X153862002Y-59526680D01*
X153898312Y-59406982D01*
X153910572Y-59282500D01*
X153910572Y-57377500D01*
X153898312Y-57253018D01*
X153862002Y-57133320D01*
X153803037Y-57023006D01*
X153723685Y-56926315D01*
X153626994Y-56846963D01*
X153516680Y-56787998D01*
X153396982Y-56751688D01*
X153272500Y-56739428D01*
X151367500Y-56739428D01*
X151243018Y-56751688D01*
X151123320Y-56787998D01*
X151013006Y-56846963D01*
X150916315Y-56926315D01*
X150836963Y-57023006D01*
X150777998Y-57133320D01*
X150741688Y-57253018D01*
X150729428Y-57377500D01*
X140097301Y-57377500D01*
X140914802Y-56560000D01*
X154885199Y-56560000D01*
X155236200Y-56911002D01*
X155259999Y-56940001D01*
X155288997Y-56963799D01*
X155375723Y-57034974D01*
X155445231Y-57072127D01*
X155507753Y-57105546D01*
X155651014Y-57149003D01*
X155762667Y-57160000D01*
X155762676Y-57160000D01*
X155799999Y-57163676D01*
X155837322Y-57160000D01*
X156421034Y-57160000D01*
X156154749Y-57270299D01*
X155724174Y-57558000D01*
X155358000Y-57924174D01*
X155070299Y-58354749D01*
X154872127Y-58833178D01*
X154771100Y-59341076D01*
X154771100Y-59858924D01*
X154872127Y-60366822D01*
X155070299Y-60845251D01*
X155219662Y-61068789D01*
X155150000Y-61061928D01*
X154835750Y-61065000D01*
X154677000Y-61223750D01*
X154677000Y-62673000D01*
X155626250Y-62673000D01*
X155785000Y-62514250D01*
X155788072Y-61700000D01*
X155786458Y-61683617D01*
X156154749Y-61929701D01*
X156633178Y-62127873D01*
X157141076Y-62228900D01*
X157658924Y-62228900D01*
X158166822Y-62127873D01*
X158645251Y-61929701D01*
X159075826Y-61642000D01*
X159442000Y-61275826D01*
X159729701Y-60845251D01*
X159927873Y-60366822D01*
X160028900Y-59858924D01*
X160028900Y-59341076D01*
X159927873Y-58833178D01*
X159729701Y-58354749D01*
X159442000Y-57924174D01*
X159075826Y-57558000D01*
X158645251Y-57270299D01*
X158527868Y-57221677D01*
X160135676Y-57221677D01*
X160193316Y-57563541D01*
X160316541Y-57887592D01*
X160500619Y-58181376D01*
X160738474Y-58433604D01*
X161020966Y-58634581D01*
X161337239Y-58776587D01*
X161675138Y-58854160D01*
X161934843Y-58861777D01*
X162540614Y-58820000D01*
X162653345Y-58820000D01*
X162798102Y-58791206D01*
X162943542Y-58766684D01*
X162967848Y-58757441D01*
X162993373Y-58752364D01*
X163129736Y-58695881D01*
X163267592Y-58643459D01*
X163289628Y-58629652D01*
X163313673Y-58619692D01*
X163436398Y-58537690D01*
X163561377Y-58459381D01*
X163580297Y-58441539D01*
X163601935Y-58427081D01*
X163706304Y-58322712D01*
X163813604Y-58221526D01*
X163828678Y-58200338D01*
X163847081Y-58181935D01*
X163929087Y-58059204D01*
X164014582Y-57939034D01*
X164025233Y-57915313D01*
X164039692Y-57893673D01*
X164096175Y-57757311D01*
X164156587Y-57622761D01*
X164162406Y-57597413D01*
X164172364Y-57573373D01*
X164201156Y-57428625D01*
X164234161Y-57284862D01*
X164234923Y-57258867D01*
X164240000Y-57233345D01*
X164240000Y-57085763D01*
X164244324Y-56938323D01*
X164240000Y-56912677D01*
X164240000Y-56886655D01*
X164211205Y-56741892D01*
X164186684Y-56596459D01*
X164177442Y-56572154D01*
X164172364Y-56546627D01*
X164115879Y-56410260D01*
X164063459Y-56272408D01*
X164049652Y-56250372D01*
X164039692Y-56226327D01*
X163957684Y-56103593D01*
X163879381Y-55978624D01*
X163861541Y-55959706D01*
X163847081Y-55938065D01*
X163742705Y-55833689D01*
X163641526Y-55726396D01*
X163620338Y-55711322D01*
X163601935Y-55692919D01*
X163479191Y-55610904D01*
X163359034Y-55525419D01*
X163335317Y-55514770D01*
X163313673Y-55500308D01*
X163177306Y-55443823D01*
X163042762Y-55383413D01*
X163017412Y-55377593D01*
X162993373Y-55367636D01*
X162848613Y-55338841D01*
X162704863Y-55305840D01*
X162678872Y-55305078D01*
X162653345Y-55300000D01*
X162505744Y-55300000D01*
X162445156Y-55298223D01*
X162419389Y-55300000D01*
X162306655Y-55300000D01*
X162246825Y-55311901D01*
X161692661Y-55350119D01*
X161436459Y-55393316D01*
X161112408Y-55516541D01*
X160818624Y-55700619D01*
X160566396Y-55938474D01*
X160365419Y-56220966D01*
X160223413Y-56537239D01*
X160145840Y-56875138D01*
X160135676Y-57221677D01*
X158527868Y-57221677D01*
X158378966Y-57160000D01*
X158762678Y-57160000D01*
X158800000Y-57163676D01*
X158837322Y-57160000D01*
X158837333Y-57160000D01*
X158948986Y-57149003D01*
X159092247Y-57105546D01*
X159224276Y-57034974D01*
X159340001Y-56940001D01*
X159363804Y-56910997D01*
X162314803Y-53960000D01*
X174997548Y-53960000D01*
X174948029Y-54079549D01*
X174890000Y-54371278D01*
X174890000Y-54668722D01*
X174948029Y-54960451D01*
X175061856Y-55235253D01*
X175227107Y-55482569D01*
X175437431Y-55692893D01*
X175657593Y-55840000D01*
X166937322Y-55840000D01*
X166899999Y-55836324D01*
X166862676Y-55840000D01*
X166862667Y-55840000D01*
X166751014Y-55850997D01*
X166607753Y-55894454D01*
X166475724Y-55965026D01*
X166359999Y-56059999D01*
X166336201Y-56088997D01*
X161987046Y-60438152D01*
X161913373Y-60407636D01*
X161875039Y-60400011D01*
X161838304Y-60386659D01*
X161705309Y-60366249D01*
X161573345Y-60340000D01*
X161534261Y-60340000D01*
X161495626Y-60334071D01*
X161361198Y-60340000D01*
X161226655Y-60340000D01*
X161188323Y-60347625D01*
X161149273Y-60349347D01*
X161018574Y-60381390D01*
X160886627Y-60407636D01*
X160850524Y-60422590D01*
X160812555Y-60431899D01*
X160690618Y-60488825D01*
X160566327Y-60540308D01*
X160533831Y-60562021D01*
X160498413Y-60578556D01*
X160389930Y-60658173D01*
X160278065Y-60732919D01*
X160189184Y-60821800D01*
X158700258Y-62157757D01*
X158524813Y-62349393D01*
X158345091Y-62645861D01*
X158226661Y-62971696D01*
X158174073Y-63314374D01*
X158177108Y-63383186D01*
X158115253Y-63341856D01*
X157840451Y-63228029D01*
X157548722Y-63170000D01*
X157251278Y-63170000D01*
X156959549Y-63228029D01*
X156684747Y-63341856D01*
X156437431Y-63507107D01*
X156227107Y-63717431D01*
X156061856Y-63964747D01*
X155948029Y-64239549D01*
X155890000Y-64531278D01*
X155890000Y-64828722D01*
X155948029Y-65120451D01*
X156061856Y-65395253D01*
X156227107Y-65642569D01*
X156437431Y-65852893D01*
X156684747Y-66018144D01*
X156959549Y-66131971D01*
X157251278Y-66190000D01*
X157548722Y-66190000D01*
X157840451Y-66131971D01*
X158115253Y-66018144D01*
X158362569Y-65852893D01*
X158572893Y-65642569D01*
X158738144Y-65395253D01*
X158851971Y-65120451D01*
X158907334Y-64842125D01*
X159175861Y-65004909D01*
X159501696Y-65123339D01*
X159844374Y-65175927D01*
X160190726Y-65160651D01*
X160527444Y-65078099D01*
X160841586Y-64931442D01*
X161051047Y-64777716D01*
X162482057Y-63493727D01*
X162521935Y-63467081D01*
X162610853Y-63378163D01*
X162639742Y-63352242D01*
X162671903Y-63317113D01*
X162767081Y-63221935D01*
X162788805Y-63189422D01*
X162815187Y-63160606D01*
X162884905Y-63045600D01*
X162959692Y-62933673D01*
X162974656Y-62897546D01*
X162994909Y-62864137D01*
X163040853Y-62737731D01*
X163092364Y-62613373D01*
X163099992Y-62575024D01*
X163113339Y-62538303D01*
X163133741Y-62405356D01*
X163160000Y-62273345D01*
X163160000Y-62234247D01*
X163165927Y-62195625D01*
X163160000Y-62061242D01*
X163160000Y-61926655D01*
X163152373Y-61888311D01*
X163150651Y-61849272D01*
X163118618Y-61718612D01*
X163092364Y-61586627D01*
X163077405Y-61550514D01*
X163068099Y-61512554D01*
X163066237Y-61508565D01*
X167214802Y-57360000D01*
X169731152Y-57360000D01*
X169729428Y-57377500D01*
X169729428Y-59282500D01*
X169741688Y-59406982D01*
X169777998Y-59526680D01*
X169836963Y-59636994D01*
X169916315Y-59733685D01*
X170013006Y-59813037D01*
X170090485Y-59854451D01*
X170086908Y-59858028D01*
X169913176Y-60118037D01*
X169793507Y-60406943D01*
X169732500Y-60713645D01*
X169732500Y-61026355D01*
X169793507Y-61333057D01*
X169913176Y-61621963D01*
X170086908Y-61881972D01*
X170308028Y-62103092D01*
X170568037Y-62276824D01*
X170856943Y-62396493D01*
X171163645Y-62457500D01*
X171476355Y-62457500D01*
X171783057Y-62396493D01*
X172071963Y-62276824D01*
X172331972Y-62103092D01*
X172553092Y-61881972D01*
X172726824Y-61621963D01*
X172846493Y-61333057D01*
X172907500Y-61026355D01*
X172907500Y-60713645D01*
X172846493Y-60406943D01*
X172726824Y-60118037D01*
X172553092Y-59858028D01*
X172549515Y-59854451D01*
X172626994Y-59813037D01*
X172723685Y-59733685D01*
X172803037Y-59636994D01*
X172862002Y-59526680D01*
X172898312Y-59406982D01*
X172910572Y-59282500D01*
X172910572Y-57377500D01*
X172908848Y-57360000D01*
X175020502Y-57360000D01*
X174724174Y-57558000D01*
X174358000Y-57924174D01*
X174070299Y-58354749D01*
X173872127Y-58833178D01*
X173771100Y-59341076D01*
X173771100Y-59858924D01*
X173872127Y-60366822D01*
X174070299Y-60845251D01*
X174358000Y-61275826D01*
X174724174Y-61642000D01*
X175154749Y-61929701D01*
X175633178Y-62127873D01*
X176141076Y-62228900D01*
X176658924Y-62228900D01*
X177166822Y-62127873D01*
X177645251Y-61929701D01*
X178075826Y-61642000D01*
X178442000Y-61275826D01*
X178729701Y-60845251D01*
X178927873Y-60366822D01*
X179028900Y-59858924D01*
X179028900Y-59341076D01*
X178927873Y-58833178D01*
X178729701Y-58354749D01*
X178442000Y-57924174D01*
X178075826Y-57558000D01*
X177758652Y-57346071D01*
X177892247Y-57305546D01*
X178024276Y-57234974D01*
X178140001Y-57140001D01*
X178163804Y-57110997D01*
X179914802Y-55360000D01*
X180634057Y-55360000D01*
X180436459Y-55393316D01*
X180112408Y-55516541D01*
X179818624Y-55700619D01*
X179566396Y-55938474D01*
X179365419Y-56220966D01*
X179223413Y-56537239D01*
X179145840Y-56875138D01*
X179135676Y-57221677D01*
X179193316Y-57563541D01*
X179316541Y-57887592D01*
X179500619Y-58181376D01*
X179738474Y-58433604D01*
X180020966Y-58634581D01*
X180337239Y-58776587D01*
X180675138Y-58854160D01*
X180934843Y-58861777D01*
X181540614Y-58820000D01*
X181653345Y-58820000D01*
X181798102Y-58791206D01*
X181943542Y-58766684D01*
X181967848Y-58757441D01*
X181993373Y-58752364D01*
X182129736Y-58695881D01*
X182267592Y-58643459D01*
X182289628Y-58629652D01*
X182313673Y-58619692D01*
X182436398Y-58537690D01*
X182561377Y-58459381D01*
X182580297Y-58441539D01*
X182601935Y-58427081D01*
X182706304Y-58322712D01*
X182813604Y-58221526D01*
X182828678Y-58200338D01*
X182847081Y-58181935D01*
X182929087Y-58059204D01*
X183014582Y-57939034D01*
X183025233Y-57915313D01*
X183039692Y-57893673D01*
X183096175Y-57757311D01*
X183156587Y-57622761D01*
X183162406Y-57597413D01*
X183172364Y-57573373D01*
X183201156Y-57428625D01*
X183234161Y-57284862D01*
X183234923Y-57258867D01*
X183240000Y-57233345D01*
X183240000Y-57085763D01*
X183244324Y-56938323D01*
X183240000Y-56912677D01*
X183240000Y-56886655D01*
X183211205Y-56741892D01*
X183186684Y-56596459D01*
X183177442Y-56572154D01*
X183172364Y-56546627D01*
X183115879Y-56410260D01*
X183063459Y-56272408D01*
X183049652Y-56250372D01*
X183039692Y-56226327D01*
X182957684Y-56103593D01*
X182879381Y-55978624D01*
X182861541Y-55959706D01*
X182847081Y-55938065D01*
X182742705Y-55833689D01*
X182641526Y-55726396D01*
X182620338Y-55711322D01*
X182601935Y-55692919D01*
X182479191Y-55610904D01*
X182359034Y-55525419D01*
X182335317Y-55514770D01*
X182313673Y-55500308D01*
X182177306Y-55443823D01*
X182042762Y-55383413D01*
X182017412Y-55377593D01*
X181993373Y-55367636D01*
X181954984Y-55360000D01*
X186562678Y-55360000D01*
X186600000Y-55363676D01*
X186637322Y-55360000D01*
X186637333Y-55360000D01*
X186748986Y-55349003D01*
X186892247Y-55305546D01*
X187024276Y-55234974D01*
X187140001Y-55140001D01*
X187163804Y-55110997D01*
X190291003Y-51983799D01*
X190320001Y-51960001D01*
X190369243Y-51900000D01*
X190414974Y-51844277D01*
X190485546Y-51712247D01*
X190500444Y-51663134D01*
X190529003Y-51568986D01*
X190540000Y-51457333D01*
X190540000Y-51457324D01*
X190543676Y-51420001D01*
X190540000Y-51382678D01*
X190540000Y-50678178D01*
X190726632Y-50553475D01*
X190933475Y-50346632D01*
X191050000Y-50172240D01*
X191166525Y-50346632D01*
X191373368Y-50553475D01*
X191560001Y-50678179D01*
X191560001Y-51565197D01*
X181923143Y-61202056D01*
X181921442Y-61198412D01*
X181841841Y-61089950D01*
X181767081Y-60978065D01*
X181739441Y-60950425D01*
X181716317Y-60918917D01*
X181617082Y-60828066D01*
X181521935Y-60732919D01*
X181489434Y-60711202D01*
X181460607Y-60684811D01*
X181345554Y-60615065D01*
X181233673Y-60540308D01*
X181197562Y-60525350D01*
X181164139Y-60505089D01*
X181037680Y-60459126D01*
X180913373Y-60407636D01*
X180875039Y-60400011D01*
X180838304Y-60386659D01*
X180705309Y-60366249D01*
X180573345Y-60340000D01*
X180534261Y-60340000D01*
X180495626Y-60334071D01*
X180361198Y-60340000D01*
X180226655Y-60340000D01*
X180188323Y-60347625D01*
X180149273Y-60349347D01*
X180018574Y-60381390D01*
X179886627Y-60407636D01*
X179850524Y-60422590D01*
X179812555Y-60431899D01*
X179690618Y-60488825D01*
X179566327Y-60540308D01*
X179533831Y-60562021D01*
X179498413Y-60578556D01*
X179389930Y-60658173D01*
X179278065Y-60732919D01*
X179189184Y-60821800D01*
X177700258Y-62157757D01*
X177524813Y-62349393D01*
X177345091Y-62645861D01*
X177226661Y-62971696D01*
X177174073Y-63314374D01*
X177177108Y-63383186D01*
X177115253Y-63341856D01*
X176840451Y-63228029D01*
X176548722Y-63170000D01*
X176251278Y-63170000D01*
X175959549Y-63228029D01*
X175684747Y-63341856D01*
X175437431Y-63507107D01*
X175227107Y-63717431D01*
X175061856Y-63964747D01*
X174948029Y-64239549D01*
X174890000Y-64531278D01*
X174890000Y-64828722D01*
X174948029Y-65120451D01*
X175061856Y-65395253D01*
X175227107Y-65642569D01*
X175437431Y-65852893D01*
X175684747Y-66018144D01*
X175959549Y-66131971D01*
X176251278Y-66190000D01*
X176548722Y-66190000D01*
X176840451Y-66131971D01*
X177115253Y-66018144D01*
X177362569Y-65852893D01*
X177572893Y-65642569D01*
X177738144Y-65395253D01*
X177851971Y-65120451D01*
X177907334Y-64842125D01*
X178175861Y-65004909D01*
X178501696Y-65123339D01*
X178844374Y-65175927D01*
X179190726Y-65160651D01*
X179527444Y-65078099D01*
X179841586Y-64931442D01*
X180051047Y-64777716D01*
X181482057Y-63493727D01*
X181521935Y-63467081D01*
X181610853Y-63378163D01*
X181639742Y-63352242D01*
X181671903Y-63317113D01*
X181767081Y-63221935D01*
X181788805Y-63189422D01*
X181815187Y-63160606D01*
X181884905Y-63045600D01*
X181959692Y-62933673D01*
X181974656Y-62897546D01*
X181994909Y-62864137D01*
X181996413Y-62860000D01*
X182062678Y-62860000D01*
X182100000Y-62863676D01*
X182137322Y-62860000D01*
X182137333Y-62860000D01*
X182248986Y-62849003D01*
X182392247Y-62805546D01*
X182524276Y-62734974D01*
X182640001Y-62640001D01*
X182663804Y-62610997D01*
X187897301Y-57377500D01*
X188729428Y-57377500D01*
X188729428Y-59282500D01*
X188741688Y-59406982D01*
X188777998Y-59526680D01*
X188836963Y-59636994D01*
X188916315Y-59733685D01*
X189013006Y-59813037D01*
X189090485Y-59854451D01*
X189086908Y-59858028D01*
X188913176Y-60118037D01*
X188793507Y-60406943D01*
X188732500Y-60713645D01*
X188732500Y-61026355D01*
X188793507Y-61333057D01*
X188913176Y-61621963D01*
X189086908Y-61881972D01*
X189308028Y-62103092D01*
X189568037Y-62276824D01*
X189856943Y-62396493D01*
X190163645Y-62457500D01*
X190476355Y-62457500D01*
X190783057Y-62396493D01*
X191071963Y-62276824D01*
X191331972Y-62103092D01*
X191553092Y-61881972D01*
X191726824Y-61621963D01*
X191846493Y-61333057D01*
X191907500Y-61026355D01*
X191907500Y-60713645D01*
X191846493Y-60406943D01*
X191726824Y-60118037D01*
X191553092Y-59858028D01*
X191549515Y-59854451D01*
X191626994Y-59813037D01*
X191723685Y-59733685D01*
X191803037Y-59636994D01*
X191862002Y-59526680D01*
X191898312Y-59406982D01*
X191910572Y-59282500D01*
X191910572Y-57377500D01*
X191898312Y-57253018D01*
X191862002Y-57133320D01*
X191803037Y-57023006D01*
X191723685Y-56926315D01*
X191626994Y-56846963D01*
X191516680Y-56787998D01*
X191396982Y-56751688D01*
X191272500Y-56739428D01*
X189367500Y-56739428D01*
X189243018Y-56751688D01*
X189123320Y-56787998D01*
X189013006Y-56846963D01*
X188916315Y-56926315D01*
X188836963Y-57023006D01*
X188777998Y-57133320D01*
X188741688Y-57253018D01*
X188729428Y-57377500D01*
X187897301Y-57377500D01*
X192831003Y-52443799D01*
X192860001Y-52420001D01*
X192954974Y-52304276D01*
X193025546Y-52172247D01*
X193069003Y-52028986D01*
X193080000Y-51917333D01*
X193083677Y-51880000D01*
X193080000Y-51842667D01*
X193080000Y-50678178D01*
X193266632Y-50553475D01*
X193473475Y-50346632D01*
X193590000Y-50172240D01*
X193706525Y-50346632D01*
X193913368Y-50553475D01*
X194100001Y-50678179D01*
X194100001Y-51422668D01*
X194096324Y-51460000D01*
X194100001Y-51497333D01*
X194110998Y-51608986D01*
X194114733Y-51621298D01*
X194154454Y-51752246D01*
X194225026Y-51884276D01*
X194294938Y-51969463D01*
X194320000Y-52000001D01*
X194348998Y-52023799D01*
X195335197Y-53010000D01*
X195251278Y-53010000D01*
X194959549Y-53068029D01*
X194684747Y-53181856D01*
X194437431Y-53347107D01*
X194227107Y-53557431D01*
X194061856Y-53804747D01*
X193948029Y-54079549D01*
X193890000Y-54371278D01*
X193890000Y-54668722D01*
X193948029Y-54960451D01*
X194061856Y-55235253D01*
X194227107Y-55482569D01*
X194437431Y-55692893D01*
X194684747Y-55858144D01*
X194959549Y-55971971D01*
X195251278Y-56030000D01*
X195548722Y-56030000D01*
X195840451Y-55971971D01*
X196115253Y-55858144D01*
X196362569Y-55692893D01*
X196572893Y-55482569D01*
X196640001Y-55382135D01*
X196640001Y-57268124D01*
X196166822Y-57072127D01*
X195658924Y-56971100D01*
X195141076Y-56971100D01*
X194633178Y-57072127D01*
X194154749Y-57270299D01*
X193724174Y-57558000D01*
X193358000Y-57924174D01*
X193070299Y-58354749D01*
X192872127Y-58833178D01*
X192771100Y-59341076D01*
X192771100Y-59858924D01*
X192872127Y-60366822D01*
X193070299Y-60845251D01*
X193358000Y-61275826D01*
X193724174Y-61642000D01*
X194154749Y-61929701D01*
X194633178Y-62127873D01*
X195141076Y-62228900D01*
X195658924Y-62228900D01*
X196166822Y-62127873D01*
X196645251Y-61929701D01*
X197075826Y-61642000D01*
X197442000Y-61275826D01*
X197729701Y-60845251D01*
X197750019Y-60796200D01*
X197765026Y-60824276D01*
X197807070Y-60875506D01*
X197860000Y-60940001D01*
X197888998Y-60963799D01*
X197925198Y-61000000D01*
X197429002Y-61496197D01*
X197399999Y-61519999D01*
X197369161Y-61557576D01*
X196700258Y-62157757D01*
X196524813Y-62349393D01*
X196345091Y-62645861D01*
X196226661Y-62971696D01*
X196174073Y-63314374D01*
X196177108Y-63383186D01*
X196115253Y-63341856D01*
X195840451Y-63228029D01*
X195548722Y-63170000D01*
X195251278Y-63170000D01*
X194959549Y-63228029D01*
X194684747Y-63341856D01*
X194437431Y-63507107D01*
X194227107Y-63717431D01*
X194061856Y-63964747D01*
X193948029Y-64239549D01*
X193890000Y-64531278D01*
X193890000Y-64828722D01*
X193948029Y-65120451D01*
X194061856Y-65395253D01*
X194227107Y-65642569D01*
X194437431Y-65852893D01*
X194684747Y-66018144D01*
X194959549Y-66131971D01*
X195251278Y-66190000D01*
X195548722Y-66190000D01*
X195840451Y-66131971D01*
X196115253Y-66018144D01*
X196362569Y-65852893D01*
X196572893Y-65642569D01*
X196738144Y-65395253D01*
X196851971Y-65120451D01*
X196907334Y-64842125D01*
X197175861Y-65004909D01*
X197501696Y-65123339D01*
X197844374Y-65175927D01*
X198190726Y-65160651D01*
X198527444Y-65078099D01*
X198841586Y-64931442D01*
X199051047Y-64777716D01*
X200482057Y-63493727D01*
X200521935Y-63467081D01*
X200610853Y-63378163D01*
X200639742Y-63352242D01*
X200671903Y-63317113D01*
X200767081Y-63221935D01*
X200788805Y-63189422D01*
X200815187Y-63160606D01*
X200884905Y-63045600D01*
X200959692Y-62933673D01*
X200974656Y-62897546D01*
X200994909Y-62864137D01*
X201040853Y-62737731D01*
X201092364Y-62613373D01*
X201099992Y-62575024D01*
X201113339Y-62538303D01*
X201133741Y-62405356D01*
X201160000Y-62273345D01*
X201160000Y-62234247D01*
X201165927Y-62195625D01*
X201160000Y-62061242D01*
X201160000Y-61926655D01*
X201152373Y-61888311D01*
X201150651Y-61849272D01*
X201118618Y-61718612D01*
X201092364Y-61586627D01*
X201077405Y-61550514D01*
X201068099Y-61512554D01*
X201011187Y-61390647D01*
X200959692Y-61266327D01*
X200937974Y-61233824D01*
X200921442Y-61198412D01*
X200841841Y-61089950D01*
X200767081Y-60978065D01*
X200739441Y-60950425D01*
X200716317Y-60918917D01*
X200617082Y-60828066D01*
X200521935Y-60732919D01*
X200489434Y-60711202D01*
X200460607Y-60684811D01*
X200345554Y-60615065D01*
X200233673Y-60540308D01*
X200197562Y-60525350D01*
X200164139Y-60505089D01*
X200037680Y-60459126D01*
X199913373Y-60407636D01*
X199875039Y-60400011D01*
X199838304Y-60386659D01*
X199705309Y-60366249D01*
X199573345Y-60340000D01*
X199534261Y-60340000D01*
X199495626Y-60334071D01*
X199412537Y-60337736D01*
X199160000Y-60085199D01*
X199160000Y-58697007D01*
X199337239Y-58776587D01*
X199675138Y-58854160D01*
X199934843Y-58861777D01*
X200540614Y-58820000D01*
X200653345Y-58820000D01*
X200798102Y-58791206D01*
X200943542Y-58766684D01*
X200967848Y-58757441D01*
X200993373Y-58752364D01*
X201129736Y-58695881D01*
X201267592Y-58643459D01*
X201289628Y-58629652D01*
X201313673Y-58619692D01*
X201436398Y-58537690D01*
X201561377Y-58459381D01*
X201580297Y-58441539D01*
X201601935Y-58427081D01*
X201706304Y-58322712D01*
X201813604Y-58221526D01*
X201828678Y-58200338D01*
X201847081Y-58181935D01*
X201929087Y-58059204D01*
X202014582Y-57939034D01*
X202025233Y-57915313D01*
X202039692Y-57893673D01*
X202096175Y-57757311D01*
X202156587Y-57622761D01*
X202162406Y-57597413D01*
X202172364Y-57573373D01*
X202201156Y-57428625D01*
X202234161Y-57284862D01*
X202234923Y-57258867D01*
X202240000Y-57233345D01*
X202240000Y-57115632D01*
X202259999Y-57140001D01*
X202375724Y-57234974D01*
X202507753Y-57305546D01*
X202651014Y-57349003D01*
X202762667Y-57360000D01*
X202762675Y-57360000D01*
X202800000Y-57363676D01*
X202837325Y-57360000D01*
X207731152Y-57360000D01*
X207729428Y-57377500D01*
X207729428Y-59282500D01*
X207741688Y-59406982D01*
X207777998Y-59526680D01*
X207836963Y-59636994D01*
X207916315Y-59733685D01*
X208013006Y-59813037D01*
X208090485Y-59854451D01*
X208086908Y-59858028D01*
X207913176Y-60118037D01*
X207793507Y-60406943D01*
X207732500Y-60713645D01*
X207732500Y-61026355D01*
X207793507Y-61333057D01*
X207913176Y-61621963D01*
X208086908Y-61881972D01*
X208308028Y-62103092D01*
X208568037Y-62276824D01*
X208856943Y-62396493D01*
X209163645Y-62457500D01*
X209476355Y-62457500D01*
X209783057Y-62396493D01*
X210071963Y-62276824D01*
X210331972Y-62103092D01*
X210553092Y-61881972D01*
X210726824Y-61621963D01*
X210846493Y-61333057D01*
X210907500Y-61026355D01*
X210907500Y-60713645D01*
X210846493Y-60406943D01*
X210726824Y-60118037D01*
X210553092Y-59858028D01*
X210549515Y-59854451D01*
X210626994Y-59813037D01*
X210723685Y-59733685D01*
X210803037Y-59636994D01*
X210862002Y-59526680D01*
X210898312Y-59406982D01*
X210910572Y-59282500D01*
X210910572Y-57377500D01*
X210908848Y-57360000D01*
X213020502Y-57360000D01*
X212724174Y-57558000D01*
X212358000Y-57924174D01*
X212070299Y-58354749D01*
X211872127Y-58833178D01*
X211771100Y-59341076D01*
X211771100Y-59858924D01*
X211872127Y-60366822D01*
X212070299Y-60845251D01*
X212358000Y-61275826D01*
X212724174Y-61642000D01*
X213154749Y-61929701D01*
X213633178Y-62127873D01*
X214141076Y-62228900D01*
X214658924Y-62228900D01*
X215166822Y-62127873D01*
X215645251Y-61929701D01*
X216075826Y-61642000D01*
X216442000Y-61275826D01*
X216495962Y-61195067D01*
X216565026Y-61324276D01*
X216592230Y-61357424D01*
X215700258Y-62157757D01*
X215524813Y-62349393D01*
X215345091Y-62645861D01*
X215226661Y-62971696D01*
X215174073Y-63314374D01*
X215177108Y-63383186D01*
X215115253Y-63341856D01*
X214840451Y-63228029D01*
X214548722Y-63170000D01*
X214251278Y-63170000D01*
X213959549Y-63228029D01*
X213684747Y-63341856D01*
X213437431Y-63507107D01*
X213227107Y-63717431D01*
X213061856Y-63964747D01*
X212948029Y-64239549D01*
X212890000Y-64531278D01*
X212890000Y-64828722D01*
X212948029Y-65120451D01*
X213061856Y-65395253D01*
X213227107Y-65642569D01*
X213437431Y-65852893D01*
X213684747Y-66018144D01*
X213959549Y-66131971D01*
X214251278Y-66190000D01*
X214548722Y-66190000D01*
X214840451Y-66131971D01*
X215115253Y-66018144D01*
X215362569Y-65852893D01*
X215572893Y-65642569D01*
X215738144Y-65395253D01*
X215851971Y-65120451D01*
X215907334Y-64842125D01*
X216175861Y-65004909D01*
X216501696Y-65123339D01*
X216844374Y-65175927D01*
X217190726Y-65160651D01*
X217527444Y-65078099D01*
X217841586Y-64931442D01*
X218051047Y-64777716D01*
X219482057Y-63493727D01*
X219521935Y-63467081D01*
X219610853Y-63378163D01*
X219639742Y-63352242D01*
X219671903Y-63317113D01*
X219767081Y-63221935D01*
X219788805Y-63189422D01*
X219815187Y-63160606D01*
X219884905Y-63045600D01*
X219959692Y-62933673D01*
X219974656Y-62897546D01*
X219994909Y-62864137D01*
X220040853Y-62737731D01*
X220092364Y-62613373D01*
X220099992Y-62575024D01*
X220113339Y-62538303D01*
X220133741Y-62405356D01*
X220160000Y-62273345D01*
X220160000Y-62234247D01*
X220165927Y-62195625D01*
X220160000Y-62061242D01*
X220160000Y-61926655D01*
X220152373Y-61888311D01*
X220150651Y-61849272D01*
X220118618Y-61718612D01*
X220092364Y-61586627D01*
X220077405Y-61550514D01*
X220068099Y-61512554D01*
X220011187Y-61390647D01*
X219959692Y-61266327D01*
X219937974Y-61233824D01*
X219921442Y-61198412D01*
X219841841Y-61089950D01*
X219767081Y-60978065D01*
X219739441Y-60950425D01*
X219716317Y-60918917D01*
X219617082Y-60828066D01*
X219521935Y-60732919D01*
X219489434Y-60711202D01*
X219460607Y-60684811D01*
X219345554Y-60615065D01*
X219233673Y-60540308D01*
X219197562Y-60525350D01*
X219164139Y-60505089D01*
X219037680Y-60459126D01*
X218913373Y-60407636D01*
X218875039Y-60400011D01*
X218838304Y-60386659D01*
X218705309Y-60366249D01*
X218573345Y-60340000D01*
X218534261Y-60340000D01*
X218495626Y-60334071D01*
X218361198Y-60340000D01*
X218226655Y-60340000D01*
X218188323Y-60347625D01*
X218149273Y-60349347D01*
X218018574Y-60381390D01*
X217960000Y-60393041D01*
X217960000Y-58591207D01*
X218020966Y-58634581D01*
X218337239Y-58776587D01*
X218675138Y-58854160D01*
X218934843Y-58861777D01*
X219540614Y-58820000D01*
X219653345Y-58820000D01*
X219798102Y-58791206D01*
X219943542Y-58766684D01*
X219967848Y-58757441D01*
X219993373Y-58752364D01*
X220129736Y-58695881D01*
X220267592Y-58643459D01*
X220289628Y-58629652D01*
X220313673Y-58619692D01*
X220436398Y-58537690D01*
X220561377Y-58459381D01*
X220580297Y-58441539D01*
X220601935Y-58427081D01*
X220706304Y-58322712D01*
X220813604Y-58221526D01*
X220828678Y-58200338D01*
X220847081Y-58181935D01*
X220929087Y-58059204D01*
X221014582Y-57939034D01*
X221025233Y-57915313D01*
X221039692Y-57893673D01*
X221096175Y-57757311D01*
X221156587Y-57622761D01*
X221162406Y-57597413D01*
X221172364Y-57573373D01*
X221201156Y-57428625D01*
X221234161Y-57284862D01*
X221234923Y-57258867D01*
X221240000Y-57233345D01*
X221240000Y-57085763D01*
X221244324Y-56938323D01*
X221240000Y-56912677D01*
X221240000Y-56886655D01*
X221211205Y-56741892D01*
X221186684Y-56596459D01*
X221177442Y-56572154D01*
X221172364Y-56546627D01*
X221115879Y-56410260D01*
X221063459Y-56272408D01*
X221049652Y-56250372D01*
X221039692Y-56226327D01*
X220957684Y-56103593D01*
X220879381Y-55978624D01*
X220861541Y-55959706D01*
X220847081Y-55938065D01*
X220742705Y-55833689D01*
X220641526Y-55726396D01*
X220620338Y-55711322D01*
X220601935Y-55692919D01*
X220479191Y-55610904D01*
X220359034Y-55525419D01*
X220335317Y-55514770D01*
X220313673Y-55500308D01*
X220177306Y-55443823D01*
X220042762Y-55383413D01*
X220017412Y-55377593D01*
X219993373Y-55367636D01*
X219848613Y-55338841D01*
X219704863Y-55305840D01*
X219678872Y-55305078D01*
X219653345Y-55300000D01*
X219505744Y-55300000D01*
X219445156Y-55298223D01*
X219419389Y-55300000D01*
X219306655Y-55300000D01*
X219246825Y-55311901D01*
X218692661Y-55350119D01*
X218436459Y-55393316D01*
X218112408Y-55516541D01*
X217818624Y-55700619D01*
X217566396Y-55938474D01*
X217365419Y-56220966D01*
X217281863Y-56407061D01*
X216963803Y-56089002D01*
X216940001Y-56059999D01*
X216824276Y-55965026D01*
X216692247Y-55894454D01*
X216548986Y-55850997D01*
X216437333Y-55840000D01*
X216437322Y-55840000D01*
X216400000Y-55836324D01*
X216362678Y-55840000D01*
X215142407Y-55840000D01*
X215362569Y-55692893D01*
X215572893Y-55482569D01*
X215738144Y-55235253D01*
X215851971Y-54960451D01*
X215910000Y-54668722D01*
X215910000Y-54371278D01*
X215851971Y-54079549D01*
X215738144Y-53804747D01*
X215574610Y-53560000D01*
X226085199Y-53560000D01*
X229264626Y-56739428D01*
X227367500Y-56739428D01*
X227243018Y-56751688D01*
X227123320Y-56787998D01*
X227013006Y-56846963D01*
X226916315Y-56926315D01*
X226836963Y-57023006D01*
X226777998Y-57133320D01*
X226741688Y-57253018D01*
X226729428Y-57377500D01*
X226729428Y-59282500D01*
X226741688Y-59406982D01*
X226777998Y-59526680D01*
X226836963Y-59636994D01*
X226916315Y-59733685D01*
X227013006Y-59813037D01*
X227090485Y-59854451D01*
X227086908Y-59858028D01*
X226913176Y-60118037D01*
X226793507Y-60406943D01*
X226732500Y-60713645D01*
X226732500Y-61026355D01*
X226793507Y-61333057D01*
X226913176Y-61621963D01*
X227086908Y-61881972D01*
X227308028Y-62103092D01*
X227568037Y-62276824D01*
X227856943Y-62396493D01*
X228163645Y-62457500D01*
X228476355Y-62457500D01*
X228783057Y-62396493D01*
X229071963Y-62276824D01*
X229331972Y-62103092D01*
X229553092Y-61881972D01*
X229726824Y-61621963D01*
X229846493Y-61333057D01*
X229907500Y-61026355D01*
X229907500Y-60713645D01*
X229846493Y-60406943D01*
X229726824Y-60118037D01*
X229553092Y-59858028D01*
X229549515Y-59854451D01*
X229626994Y-59813037D01*
X229723685Y-59733685D01*
X229803037Y-59636994D01*
X229862002Y-59526680D01*
X229898312Y-59406982D01*
X229910572Y-59282500D01*
X229910572Y-57377500D01*
X229903248Y-57303138D01*
X229907753Y-57305546D01*
X230051014Y-57349003D01*
X230200000Y-57363677D01*
X230237333Y-57360000D01*
X232020502Y-57360000D01*
X231724174Y-57558000D01*
X231358000Y-57924174D01*
X231070299Y-58354749D01*
X230872127Y-58833178D01*
X230771100Y-59341076D01*
X230771100Y-59858924D01*
X230872127Y-60366822D01*
X231070299Y-60845251D01*
X231358000Y-61275826D01*
X231724174Y-61642000D01*
X232154749Y-61929701D01*
X232633178Y-62127873D01*
X233141076Y-62228900D01*
X233658924Y-62228900D01*
X234166822Y-62127873D01*
X234645251Y-61929701D01*
X235075826Y-61642000D01*
X235180000Y-61537826D01*
X235180000Y-61727302D01*
X234700258Y-62157757D01*
X234524813Y-62349393D01*
X234345091Y-62645861D01*
X234226661Y-62971696D01*
X234174073Y-63314374D01*
X234177108Y-63383186D01*
X234115253Y-63341856D01*
X233840451Y-63228029D01*
X233548722Y-63170000D01*
X233251278Y-63170000D01*
X232959549Y-63228029D01*
X232684747Y-63341856D01*
X232437431Y-63507107D01*
X232227107Y-63717431D01*
X232061856Y-63964747D01*
X231948029Y-64239549D01*
X231890000Y-64531278D01*
X231890000Y-64828722D01*
X231948029Y-65120451D01*
X232061856Y-65395253D01*
X232227107Y-65642569D01*
X232437431Y-65852893D01*
X232684747Y-66018144D01*
X232959549Y-66131971D01*
X233251278Y-66190000D01*
X233548722Y-66190000D01*
X233840451Y-66131971D01*
X234115253Y-66018144D01*
X234362569Y-65852893D01*
X234572893Y-65642569D01*
X234738144Y-65395253D01*
X234851971Y-65120451D01*
X234907334Y-64842125D01*
X235175861Y-65004909D01*
X235501696Y-65123339D01*
X235844374Y-65175927D01*
X236190726Y-65160651D01*
X236527444Y-65078099D01*
X236841586Y-64931442D01*
X237051047Y-64777716D01*
X238482057Y-63493727D01*
X238521935Y-63467081D01*
X238610853Y-63378163D01*
X238639742Y-63352242D01*
X238671903Y-63317113D01*
X238767081Y-63221935D01*
X238788805Y-63189422D01*
X238815187Y-63160606D01*
X238884905Y-63045600D01*
X238959692Y-62933673D01*
X238974656Y-62897546D01*
X238994909Y-62864137D01*
X239040853Y-62737731D01*
X239092364Y-62613373D01*
X239099992Y-62575024D01*
X239113339Y-62538303D01*
X239133741Y-62405356D01*
X239160000Y-62273345D01*
X239160000Y-62234247D01*
X239165927Y-62195625D01*
X239160000Y-62061242D01*
X239160000Y-61926655D01*
X239152373Y-61888311D01*
X239150651Y-61849272D01*
X239118618Y-61718612D01*
X239092364Y-61586627D01*
X239077405Y-61550514D01*
X239068099Y-61512554D01*
X239011187Y-61390647D01*
X238959692Y-61266327D01*
X238937974Y-61233824D01*
X238921442Y-61198412D01*
X238841841Y-61089950D01*
X238767081Y-60978065D01*
X238739441Y-60950425D01*
X238716317Y-60918917D01*
X238617082Y-60828066D01*
X238521935Y-60732919D01*
X238489434Y-60711202D01*
X238460607Y-60684811D01*
X238345554Y-60615065D01*
X238233673Y-60540308D01*
X238197562Y-60525350D01*
X238164139Y-60505089D01*
X238037680Y-60459126D01*
X237913373Y-60407636D01*
X237875039Y-60400011D01*
X237838304Y-60386659D01*
X237705309Y-60366249D01*
X237573345Y-60340000D01*
X237534261Y-60340000D01*
X237495626Y-60334071D01*
X237361198Y-60340000D01*
X237226655Y-60340000D01*
X237188323Y-60347625D01*
X237149273Y-60349347D01*
X237018574Y-60381390D01*
X236886627Y-60407636D01*
X236850524Y-60422590D01*
X236812555Y-60431899D01*
X236760000Y-60456434D01*
X236760000Y-58448919D01*
X237020966Y-58634581D01*
X237337239Y-58776587D01*
X237675138Y-58854160D01*
X237934843Y-58861777D01*
X238540614Y-58820000D01*
X238653345Y-58820000D01*
X238798102Y-58791206D01*
X238943542Y-58766684D01*
X238967848Y-58757441D01*
X238993373Y-58752364D01*
X239129736Y-58695881D01*
X239267592Y-58643459D01*
X239289628Y-58629652D01*
X239313673Y-58619692D01*
X239436398Y-58537690D01*
X239561377Y-58459381D01*
X239580297Y-58441539D01*
X239601935Y-58427081D01*
X239706304Y-58322712D01*
X239740001Y-58290935D01*
X239740001Y-66567581D01*
X239740000Y-67940000D01*
X115460000Y-67940000D01*
X115460000Y-51358435D01*
X126395430Y-44260000D01*
X142744747Y-44260000D01*
X142666553Y-44406291D01*
G37*
X142666553Y-44406291D02*
X142616372Y-44571715D01*
X142599428Y-44743750D01*
X142599428Y-44925770D01*
X142160199Y-45365000D01*
X142098061Y-45365000D01*
X141898102Y-45404774D01*
X141709744Y-45482795D01*
X141540226Y-45596063D01*
X141396063Y-45740226D01*
X141282795Y-45909744D01*
X141204774Y-46098102D01*
X141165000Y-46298061D01*
X141165000Y-46501939D01*
X141204774Y-46701898D01*
X141282795Y-46890256D01*
X141396063Y-47059774D01*
X141540226Y-47203937D01*
X141709744Y-47317205D01*
X141898102Y-47395226D01*
X141955963Y-47406735D01*
X141578949Y-47783750D01*
X141516811Y-47783750D01*
X141316852Y-47823524D01*
X141128494Y-47901545D01*
X140958976Y-48014813D01*
X140814813Y-48158976D01*
X140701545Y-48328494D01*
X140623524Y-48516852D01*
X140583750Y-48716811D01*
X140583750Y-48920689D01*
X140623524Y-49120648D01*
X140701545Y-49309006D01*
X140814813Y-49478524D01*
X140958976Y-49622687D01*
X141128494Y-49735955D01*
X141316852Y-49813976D01*
X141516811Y-49853750D01*
X141720689Y-49853750D01*
X141723633Y-49853164D01*
X141701563Y-49894454D01*
X141694454Y-49907754D01*
X141650997Y-50051015D01*
X141640000Y-50162668D01*
X141640000Y-50162678D01*
X141636324Y-50200000D01*
X141640000Y-50237323D01*
X141640000Y-51261928D01*
X140950000Y-51261928D01*
X140825518Y-51274188D01*
X140750000Y-51297096D01*
X140674482Y-51274188D01*
X140550000Y-51261928D01*
X139850000Y-51261928D01*
X139725518Y-51274188D01*
X139605820Y-51310498D01*
X139495506Y-51369463D01*
X139398815Y-51448815D01*
X139319463Y-51545506D01*
X139260498Y-51655820D01*
X139224188Y-51775518D01*
X139211928Y-51900000D01*
X139211928Y-51988822D01*
X139177000Y-52023750D01*
X139177000Y-53073000D01*
X139197000Y-53073000D01*
X139197000Y-53327000D01*
X139177000Y-53327000D01*
X139177000Y-54376250D01*
X139335750Y-54535000D01*
X139650000Y-54538072D01*
X139774482Y-54525812D01*
X139894180Y-54489502D01*
X140004494Y-54430537D01*
X140101185Y-54351185D01*
X140180537Y-54254494D01*
X140239502Y-54144180D01*
X140241355Y-54138072D01*
X140550000Y-54138072D01*
X140674482Y-54125812D01*
X140750000Y-54102904D01*
X140825518Y-54125812D01*
X140950000Y-54138072D01*
X141650000Y-54138072D01*
X141774482Y-54125812D01*
X141850000Y-54102904D01*
X141925518Y-54125812D01*
X142050000Y-54138072D01*
X142750000Y-54138072D01*
X142874482Y-54125812D01*
X142950000Y-54102904D01*
X143025518Y-54125812D01*
X143150000Y-54138072D01*
X143214250Y-54135000D01*
X143373000Y-53976250D01*
X143373000Y-53633752D01*
X143375812Y-53624482D01*
X143388072Y-53500000D01*
X143388072Y-51900000D01*
X143375812Y-51775518D01*
X143373000Y-51766248D01*
X143373000Y-51423750D01*
X143214250Y-51265000D01*
X143160000Y-51262406D01*
X143160000Y-50514801D01*
X143862845Y-49811957D01*
X143850997Y-49851015D01*
X143840000Y-49962668D01*
X143840000Y-49962678D01*
X143836324Y-50000000D01*
X143840000Y-50037323D01*
X143840000Y-51262406D01*
X143785750Y-51265000D01*
X143627000Y-51423750D01*
X143627000Y-51766248D01*
X143624188Y-51775518D01*
X143611928Y-51900000D01*
X143611928Y-53500000D01*
X143624188Y-53624482D01*
X143627000Y-53633752D01*
X143627000Y-53976250D01*
X143785750Y-54135000D01*
X143850000Y-54138072D01*
X143974482Y-54125812D01*
X144050000Y-54102904D01*
X144125518Y-54125812D01*
X144250000Y-54138072D01*
X144950000Y-54138072D01*
X145074482Y-54125812D01*
X145150000Y-54102904D01*
X145225518Y-54125812D01*
X145350000Y-54138072D01*
X146050000Y-54138072D01*
X146174482Y-54125812D01*
X146250000Y-54102904D01*
X146325518Y-54125812D01*
X146450000Y-54138072D01*
X147150000Y-54138072D01*
X147240890Y-54129120D01*
X147265026Y-54174276D01*
X147314045Y-54234005D01*
X147360000Y-54290001D01*
X147388997Y-54313799D01*
X148036205Y-54961008D01*
X148059999Y-54990001D01*
X148088992Y-55013795D01*
X148088996Y-55013799D01*
X148120922Y-55040000D01*
X140637322Y-55040000D01*
X140599999Y-55036324D01*
X140562676Y-55040000D01*
X140562667Y-55040000D01*
X140451014Y-55050997D01*
X140307753Y-55094454D01*
X140175724Y-55165026D01*
X140059999Y-55259999D01*
X140036201Y-55288997D01*
X139085199Y-56240000D01*
X137688072Y-56240000D01*
X137688072Y-56150000D01*
X137675812Y-56025518D01*
X137639502Y-55905820D01*
X137580537Y-55795506D01*
X137501185Y-55698815D01*
X137404494Y-55619463D01*
X137294180Y-55560498D01*
X137174482Y-55524188D01*
X137050000Y-55511928D01*
X135660000Y-55511928D01*
X135660000Y-53900000D01*
X137811928Y-53900000D01*
X137824188Y-54024482D01*
X137860498Y-54144180D01*
X137919463Y-54254494D01*
X137998815Y-54351185D01*
X138095506Y-54430537D01*
X138205820Y-54489502D01*
X138325518Y-54525812D01*
X138450000Y-54538072D01*
X138764250Y-54535000D01*
X138923000Y-54376250D01*
X138923000Y-53327000D01*
X137973750Y-53327000D01*
X137815000Y-53485750D01*
X137811928Y-53900000D01*
X135660000Y-53900000D01*
X135660000Y-52832419D01*
X135663193Y-52800000D01*
X135650450Y-52670617D01*
X135612710Y-52546207D01*
X135588013Y-52500000D01*
X137811928Y-52500000D01*
X137815000Y-52914250D01*
X137973750Y-53073000D01*
X138923000Y-53073000D01*
X138923000Y-52023750D01*
X138764250Y-51865000D01*
X138450000Y-51861928D01*
X138325518Y-51874188D01*
X138205820Y-51910498D01*
X138095506Y-51969463D01*
X137998815Y-52048815D01*
X137919463Y-52145506D01*
X137860498Y-52255820D01*
X137824188Y-52375518D01*
X137811928Y-52500000D01*
X135588013Y-52500000D01*
X135551425Y-52431550D01*
X135468948Y-52331052D01*
X135368450Y-52248575D01*
X135253793Y-52187290D01*
X135129383Y-52149550D01*
X135032419Y-52140000D01*
X135000000Y-52136807D01*
X134967581Y-52140000D01*
X120232412Y-52140000D01*
X120200000Y-52136808D01*
X120167588Y-52140000D01*
X120167581Y-52140000D01*
X120070617Y-52149550D01*
X119946207Y-52187290D01*
X119831550Y-52248575D01*
X119759441Y-52307754D01*
X119731052Y-52331052D01*
X119710388Y-52356231D01*
X118156232Y-53910388D01*
X118131053Y-53931052D01*
X118110389Y-53956231D01*
X118110386Y-53956234D01*
X118048575Y-54031550D01*
X117987290Y-54146208D01*
X117978776Y-54174276D01*
X117949551Y-54270617D01*
X117945893Y-54307754D01*
X117936808Y-54400000D01*
X117940001Y-54432419D01*
X117940001Y-55515000D01*
X117653740Y-55515000D01*
X117366842Y-55572068D01*
X117096589Y-55684010D01*
X116853368Y-55846525D01*
X116646525Y-56053368D01*
X116484010Y-56296589D01*
X116372068Y-56566842D01*
X116315000Y-56853740D01*
X116315000Y-57146260D01*
X116372068Y-57433158D01*
X116484010Y-57703411D01*
X116646525Y-57946632D01*
X116853368Y-58153475D01*
X117035534Y-58275195D01*
X116918645Y-58344822D01*
X116702412Y-58539731D01*
X116528359Y-58773080D01*
X116403175Y-59035901D01*
X116358524Y-59183110D01*
X116479845Y-59413000D01*
X117673000Y-59413000D01*
X117673000Y-59393000D01*
X117927000Y-59393000D01*
X117927000Y-59413000D01*
X117940001Y-59413000D01*
X117940001Y-59667000D01*
X117927000Y-59667000D01*
X117927000Y-59687000D01*
X117673000Y-59687000D01*
X117673000Y-59667000D01*
X116479845Y-59667000D01*
X116358524Y-59896890D01*
X116403175Y-60044099D01*
X116528359Y-60306920D01*
X116702412Y-60540269D01*
X116786466Y-60616034D01*
X116705820Y-60640498D01*
X116595506Y-60699463D01*
X116498815Y-60778815D01*
X116419463Y-60875506D01*
X116360498Y-60985820D01*
X116324188Y-61105518D01*
X116311928Y-61230000D01*
X116311928Y-62930000D01*
X116324188Y-63054482D01*
X116360498Y-63174180D01*
X116419463Y-63284494D01*
X116498815Y-63381185D01*
X116595506Y-63460537D01*
X116705820Y-63519502D01*
X116825518Y-63555812D01*
X116950000Y-63568072D01*
X117940000Y-63568072D01*
X117940000Y-66167581D01*
X117936807Y-66200000D01*
X117949550Y-66329383D01*
X117987290Y-66453793D01*
X118048575Y-66568450D01*
X118131052Y-66668948D01*
X118231550Y-66751425D01*
X118346207Y-66812710D01*
X118470617Y-66850450D01*
X118600000Y-66863193D01*
X118632419Y-66860000D01*
X134967581Y-66860000D01*
X135000000Y-66863193D01*
X135032419Y-66860000D01*
X135129383Y-66850450D01*
X135253793Y-66812710D01*
X135368450Y-66751425D01*
X135468948Y-66668948D01*
X135551425Y-66568450D01*
X135612710Y-66453793D01*
X135650450Y-66329383D01*
X135663193Y-66200000D01*
X135660000Y-66167581D01*
X135660000Y-63900000D01*
X137811928Y-63900000D01*
X137824188Y-64024482D01*
X137860498Y-64144180D01*
X137919463Y-64254494D01*
X137998815Y-64351185D01*
X138095506Y-64430537D01*
X138205820Y-64489502D01*
X138325518Y-64525812D01*
X138450000Y-64538072D01*
X138764250Y-64535000D01*
X138923000Y-64376250D01*
X138923000Y-62927000D01*
X139177000Y-62927000D01*
X139177000Y-64376250D01*
X139335750Y-64535000D01*
X139650000Y-64538072D01*
X139774482Y-64525812D01*
X139894180Y-64489502D01*
X140004494Y-64430537D01*
X140101185Y-64351185D01*
X140180537Y-64254494D01*
X140239502Y-64144180D01*
X140275812Y-64024482D01*
X140288072Y-63900000D01*
X140285010Y-63088212D01*
X140735000Y-63088212D01*
X140735000Y-63311788D01*
X140778617Y-63531067D01*
X140864176Y-63737624D01*
X140988388Y-63923520D01*
X141146480Y-64081612D01*
X141332376Y-64205824D01*
X141538933Y-64291383D01*
X141758212Y-64335000D01*
X141981788Y-64335000D01*
X142201067Y-64291383D01*
X142407624Y-64205824D01*
X142593520Y-64081612D01*
X142751612Y-63923520D01*
X142875824Y-63737624D01*
X142961383Y-63531067D01*
X143005000Y-63311788D01*
X143005000Y-63088212D01*
X148715000Y-63088212D01*
X148715000Y-63311788D01*
X148758617Y-63531067D01*
X148844176Y-63737624D01*
X148968388Y-63923520D01*
X149126480Y-64081612D01*
X149312376Y-64205824D01*
X149518933Y-64291383D01*
X149738212Y-64335000D01*
X149961788Y-64335000D01*
X150181067Y-64291383D01*
X150387624Y-64205824D01*
X150573520Y-64081612D01*
X150731612Y-63923520D01*
X150747327Y-63900000D01*
X153311928Y-63900000D01*
X153324188Y-64024482D01*
X153360498Y-64144180D01*
X153419463Y-64254494D01*
X153498815Y-64351185D01*
X153595506Y-64430537D01*
X153705820Y-64489502D01*
X153825518Y-64525812D01*
X153950000Y-64538072D01*
X154264250Y-64535000D01*
X154423000Y-64376250D01*
X154423000Y-62927000D01*
X154677000Y-62927000D01*
X154677000Y-64376250D01*
X154835750Y-64535000D01*
X155150000Y-64538072D01*
X155274482Y-64525812D01*
X155394180Y-64489502D01*
X155504494Y-64430537D01*
X155601185Y-64351185D01*
X155680537Y-64254494D01*
X155739502Y-64144180D01*
X155775812Y-64024482D01*
X155788072Y-63900000D01*
X155785000Y-63085750D01*
X155626250Y-62927000D01*
X154677000Y-62927000D01*
X154423000Y-62927000D01*
X153473750Y-62927000D01*
X153315000Y-63085750D01*
X153311928Y-63900000D01*
X150747327Y-63900000D01*
X150855824Y-63737624D01*
X150941383Y-63531067D01*
X150985000Y-63311788D01*
X150985000Y-63088212D01*
X150941383Y-62868933D01*
X150855824Y-62662376D01*
X150731612Y-62476480D01*
X150573520Y-62318388D01*
X150387624Y-62194176D01*
X150181067Y-62108617D01*
X149961788Y-62065000D01*
X149738212Y-62065000D01*
X149518933Y-62108617D01*
X149312376Y-62194176D01*
X149126480Y-62318388D01*
X148968388Y-62476480D01*
X148844176Y-62662376D01*
X148758617Y-62868933D01*
X148715000Y-63088212D01*
X143005000Y-63088212D01*
X142961383Y-62868933D01*
X142875824Y-62662376D01*
X142751612Y-62476480D01*
X142593520Y-62318388D01*
X142407624Y-62194176D01*
X142201067Y-62108617D01*
X141981788Y-62065000D01*
X141758212Y-62065000D01*
X141538933Y-62108617D01*
X141332376Y-62194176D01*
X141146480Y-62318388D01*
X140988388Y-62476480D01*
X140864176Y-62662376D01*
X140778617Y-62868933D01*
X140735000Y-63088212D01*
X140285010Y-63088212D01*
X140285000Y-63085750D01*
X140126250Y-62927000D01*
X139177000Y-62927000D01*
X138923000Y-62927000D01*
X137973750Y-62927000D01*
X137815000Y-63085750D01*
X137811928Y-63900000D01*
X135660000Y-63900000D01*
X135660000Y-63463677D01*
X135766842Y-63507932D01*
X136053740Y-63565000D01*
X136346260Y-63565000D01*
X136633158Y-63507932D01*
X136903411Y-63395990D01*
X137146632Y-63233475D01*
X137353475Y-63026632D01*
X137515990Y-62783411D01*
X137627932Y-62513158D01*
X137685000Y-62226260D01*
X137685000Y-61933740D01*
X137638506Y-61700000D01*
X137811928Y-61700000D01*
X137815000Y-62514250D01*
X137973750Y-62673000D01*
X138923000Y-62673000D01*
X138923000Y-61223750D01*
X139177000Y-61223750D01*
X139177000Y-62673000D01*
X140126250Y-62673000D01*
X140285000Y-62514250D01*
X140288072Y-61700000D01*
X140275812Y-61575518D01*
X140239502Y-61455820D01*
X140180537Y-61345506D01*
X140101185Y-61248815D01*
X140004494Y-61169463D01*
X139894180Y-61110498D01*
X139774482Y-61074188D01*
X139650000Y-61061928D01*
X139335750Y-61065000D01*
X139177000Y-61223750D01*
X138923000Y-61223750D01*
X138764250Y-61065000D01*
X138450000Y-61061928D01*
X138325518Y-61074188D01*
X138205820Y-61110498D01*
X138095506Y-61169463D01*
X137998815Y-61248815D01*
X137919463Y-61345506D01*
X137860498Y-61455820D01*
X137824188Y-61575518D01*
X137811928Y-61700000D01*
X137638506Y-61700000D01*
X137627932Y-61646842D01*
X137515990Y-61376589D01*
X137353475Y-61133368D01*
X137146632Y-60926525D01*
X136972240Y-60810000D01*
X137146632Y-60693475D01*
X137353475Y-60486632D01*
X137515990Y-60243411D01*
X137627932Y-59973158D01*
X137685000Y-59686260D01*
X137685000Y-59393740D01*
X137627932Y-59106842D01*
X137515990Y-58836589D01*
X137353475Y-58593368D01*
X137221620Y-58461513D01*
X137294180Y-58439502D01*
X137404494Y-58380537D01*
X137501185Y-58301185D01*
X137580537Y-58204494D01*
X137639502Y-58094180D01*
X137675812Y-57974482D01*
X137688072Y-57850000D01*
X137688072Y-57760000D01*
X139362678Y-57760000D01*
X139400000Y-57763676D01*
X139437322Y-57760000D01*
X139437333Y-57760000D01*
X139548986Y-57749003D01*
X139692247Y-57705546D01*
X139824276Y-57634974D01*
X139940001Y-57540001D01*
X139963804Y-57510997D01*
X140097301Y-57377500D01*
X150729428Y-57377500D01*
X150729428Y-59282500D01*
X150741688Y-59406982D01*
X150777998Y-59526680D01*
X150836963Y-59636994D01*
X150916315Y-59733685D01*
X151013006Y-59813037D01*
X151090485Y-59854451D01*
X151086908Y-59858028D01*
X150913176Y-60118037D01*
X150793507Y-60406943D01*
X150732500Y-60713645D01*
X150732500Y-61026355D01*
X150793507Y-61333057D01*
X150913176Y-61621963D01*
X151086908Y-61881972D01*
X151308028Y-62103092D01*
X151568037Y-62276824D01*
X151856943Y-62396493D01*
X152163645Y-62457500D01*
X152476355Y-62457500D01*
X152783057Y-62396493D01*
X153071963Y-62276824D01*
X153313495Y-62115438D01*
X153315000Y-62514250D01*
X153473750Y-62673000D01*
X154423000Y-62673000D01*
X154423000Y-61223750D01*
X154264250Y-61065000D01*
X153950000Y-61061928D01*
X153899433Y-61066908D01*
X153907500Y-61026355D01*
X153907500Y-60713645D01*
X153846493Y-60406943D01*
X153726824Y-60118037D01*
X153553092Y-59858028D01*
X153549515Y-59854451D01*
X153626994Y-59813037D01*
X153723685Y-59733685D01*
X153803037Y-59636994D01*
X153862002Y-59526680D01*
X153898312Y-59406982D01*
X153910572Y-59282500D01*
X153910572Y-57377500D01*
X153898312Y-57253018D01*
X153862002Y-57133320D01*
X153803037Y-57023006D01*
X153723685Y-56926315D01*
X153626994Y-56846963D01*
X153516680Y-56787998D01*
X153396982Y-56751688D01*
X153272500Y-56739428D01*
X151367500Y-56739428D01*
X151243018Y-56751688D01*
X151123320Y-56787998D01*
X151013006Y-56846963D01*
X150916315Y-56926315D01*
X150836963Y-57023006D01*
X150777998Y-57133320D01*
X150741688Y-57253018D01*
X150729428Y-57377500D01*
X140097301Y-57377500D01*
X140914802Y-56560000D01*
X154885199Y-56560000D01*
X155236200Y-56911002D01*
X155259999Y-56940001D01*
X155288997Y-56963799D01*
X155375723Y-57034974D01*
X155445231Y-57072127D01*
X155507753Y-57105546D01*
X155651014Y-57149003D01*
X155762667Y-57160000D01*
X155762676Y-57160000D01*
X155799999Y-57163676D01*
X155837322Y-57160000D01*
X156421034Y-57160000D01*
X156154749Y-57270299D01*
X155724174Y-57558000D01*
X155358000Y-57924174D01*
X155070299Y-58354749D01*
X154872127Y-58833178D01*
X154771100Y-59341076D01*
X154771100Y-59858924D01*
X154872127Y-60366822D01*
X155070299Y-60845251D01*
X155219662Y-61068789D01*
X155150000Y-61061928D01*
X154835750Y-61065000D01*
X154677000Y-61223750D01*
X154677000Y-62673000D01*
X155626250Y-62673000D01*
X155785000Y-62514250D01*
X155788072Y-61700000D01*
X155786458Y-61683617D01*
X156154749Y-61929701D01*
X156633178Y-62127873D01*
X157141076Y-62228900D01*
X157658924Y-62228900D01*
X158166822Y-62127873D01*
X158645251Y-61929701D01*
X159075826Y-61642000D01*
X159442000Y-61275826D01*
X159729701Y-60845251D01*
X159927873Y-60366822D01*
X160028900Y-59858924D01*
X160028900Y-59341076D01*
X159927873Y-58833178D01*
X159729701Y-58354749D01*
X159442000Y-57924174D01*
X159075826Y-57558000D01*
X158645251Y-57270299D01*
X158527868Y-57221677D01*
X160135676Y-57221677D01*
X160193316Y-57563541D01*
X160316541Y-57887592D01*
X160500619Y-58181376D01*
X160738474Y-58433604D01*
X161020966Y-58634581D01*
X161337239Y-58776587D01*
X161675138Y-58854160D01*
X161934843Y-58861777D01*
X162540614Y-58820000D01*
X162653345Y-58820000D01*
X162798102Y-58791206D01*
X162943542Y-58766684D01*
X162967848Y-58757441D01*
X162993373Y-58752364D01*
X163129736Y-58695881D01*
X163267592Y-58643459D01*
X163289628Y-58629652D01*
X163313673Y-58619692D01*
X163436398Y-58537690D01*
X163561377Y-58459381D01*
X163580297Y-58441539D01*
X163601935Y-58427081D01*
X163706304Y-58322712D01*
X163813604Y-58221526D01*
X163828678Y-58200338D01*
X163847081Y-58181935D01*
X163929087Y-58059204D01*
X164014582Y-57939034D01*
X164025233Y-57915313D01*
X164039692Y-57893673D01*
X164096175Y-57757311D01*
X164156587Y-57622761D01*
X164162406Y-57597413D01*
X164172364Y-57573373D01*
X164201156Y-57428625D01*
X164234161Y-57284862D01*
X164234923Y-57258867D01*
X164240000Y-57233345D01*
X164240000Y-57085763D01*
X164244324Y-56938323D01*
X164240000Y-56912677D01*
X164240000Y-56886655D01*
X164211205Y-56741892D01*
X164186684Y-56596459D01*
X164177442Y-56572154D01*
X164172364Y-56546627D01*
X164115879Y-56410260D01*
X164063459Y-56272408D01*
X164049652Y-56250372D01*
X164039692Y-56226327D01*
X163957684Y-56103593D01*
X163879381Y-55978624D01*
X163861541Y-55959706D01*
X163847081Y-55938065D01*
X163742705Y-55833689D01*
X163641526Y-55726396D01*
X163620338Y-55711322D01*
X163601935Y-55692919D01*
X163479191Y-55610904D01*
X163359034Y-55525419D01*
X163335317Y-55514770D01*
X163313673Y-55500308D01*
X163177306Y-55443823D01*
X163042762Y-55383413D01*
X163017412Y-55377593D01*
X162993373Y-55367636D01*
X162848613Y-55338841D01*
X162704863Y-55305840D01*
X162678872Y-55305078D01*
X162653345Y-55300000D01*
X162505744Y-55300000D01*
X162445156Y-55298223D01*
X162419389Y-55300000D01*
X162306655Y-55300000D01*
X162246825Y-55311901D01*
X161692661Y-55350119D01*
X161436459Y-55393316D01*
X161112408Y-55516541D01*
X160818624Y-55700619D01*
X160566396Y-55938474D01*
X160365419Y-56220966D01*
X160223413Y-56537239D01*
X160145840Y-56875138D01*
X160135676Y-57221677D01*
X158527868Y-57221677D01*
X158378966Y-57160000D01*
X158762678Y-57160000D01*
X158800000Y-57163676D01*
X158837322Y-57160000D01*
X158837333Y-57160000D01*
X158948986Y-57149003D01*
X159092247Y-57105546D01*
X159224276Y-57034974D01*
X159340001Y-56940001D01*
X159363804Y-56910997D01*
X162314803Y-53960000D01*
X174997548Y-53960000D01*
X174948029Y-54079549D01*
X174890000Y-54371278D01*
X174890000Y-54668722D01*
X174948029Y-54960451D01*
X175061856Y-55235253D01*
X175227107Y-55482569D01*
X175437431Y-55692893D01*
X175657593Y-55840000D01*
X166937322Y-55840000D01*
X166899999Y-55836324D01*
X166862676Y-55840000D01*
X166862667Y-55840000D01*
X166751014Y-55850997D01*
X166607753Y-55894454D01*
X166475724Y-55965026D01*
X166359999Y-56059999D01*
X166336201Y-56088997D01*
X161987046Y-60438152D01*
X161913373Y-60407636D01*
X161875039Y-60400011D01*
X161838304Y-60386659D01*
X161705309Y-60366249D01*
X161573345Y-60340000D01*
X161534261Y-60340000D01*
X161495626Y-60334071D01*
X161361198Y-60340000D01*
X161226655Y-60340000D01*
X161188323Y-60347625D01*
X161149273Y-60349347D01*
X161018574Y-60381390D01*
X160886627Y-60407636D01*
X160850524Y-60422590D01*
X160812555Y-60431899D01*
X160690618Y-60488825D01*
X160566327Y-60540308D01*
X160533831Y-60562021D01*
X160498413Y-60578556D01*
X160389930Y-60658173D01*
X160278065Y-60732919D01*
X160189184Y-60821800D01*
X158700258Y-62157757D01*
X158524813Y-62349393D01*
X158345091Y-62645861D01*
X158226661Y-62971696D01*
X158174073Y-63314374D01*
X158177108Y-63383186D01*
X158115253Y-63341856D01*
X157840451Y-63228029D01*
X157548722Y-63170000D01*
X157251278Y-63170000D01*
X156959549Y-63228029D01*
X156684747Y-63341856D01*
X156437431Y-63507107D01*
X156227107Y-63717431D01*
X156061856Y-63964747D01*
X155948029Y-64239549D01*
X155890000Y-64531278D01*
X155890000Y-64828722D01*
X155948029Y-65120451D01*
X156061856Y-65395253D01*
X156227107Y-65642569D01*
X156437431Y-65852893D01*
X156684747Y-66018144D01*
X156959549Y-66131971D01*
X157251278Y-66190000D01*
X157548722Y-66190000D01*
X157840451Y-66131971D01*
X158115253Y-66018144D01*
X158362569Y-65852893D01*
X158572893Y-65642569D01*
X158738144Y-65395253D01*
X158851971Y-65120451D01*
X158907334Y-64842125D01*
X159175861Y-65004909D01*
X159501696Y-65123339D01*
X159844374Y-65175927D01*
X160190726Y-65160651D01*
X160527444Y-65078099D01*
X160841586Y-64931442D01*
X161051047Y-64777716D01*
X162482057Y-63493727D01*
X162521935Y-63467081D01*
X162610853Y-63378163D01*
X162639742Y-63352242D01*
X162671903Y-63317113D01*
X162767081Y-63221935D01*
X162788805Y-63189422D01*
X162815187Y-63160606D01*
X162884905Y-63045600D01*
X162959692Y-62933673D01*
X162974656Y-62897546D01*
X162994909Y-62864137D01*
X163040853Y-62737731D01*
X163092364Y-62613373D01*
X163099992Y-62575024D01*
X163113339Y-62538303D01*
X163133741Y-62405356D01*
X163160000Y-62273345D01*
X163160000Y-62234247D01*
X163165927Y-62195625D01*
X163160000Y-62061242D01*
X163160000Y-61926655D01*
X163152373Y-61888311D01*
X163150651Y-61849272D01*
X163118618Y-61718612D01*
X163092364Y-61586627D01*
X163077405Y-61550514D01*
X163068099Y-61512554D01*
X163066237Y-61508565D01*
X167214802Y-57360000D01*
X169731152Y-57360000D01*
X169729428Y-57377500D01*
X169729428Y-59282500D01*
X169741688Y-59406982D01*
X169777998Y-59526680D01*
X169836963Y-59636994D01*
X169916315Y-59733685D01*
X170013006Y-59813037D01*
X170090485Y-59854451D01*
X170086908Y-59858028D01*
X169913176Y-60118037D01*
X169793507Y-60406943D01*
X169732500Y-60713645D01*
X169732500Y-61026355D01*
X169793507Y-61333057D01*
X169913176Y-61621963D01*
X170086908Y-61881972D01*
X170308028Y-62103092D01*
X170568037Y-62276824D01*
X170856943Y-62396493D01*
X171163645Y-62457500D01*
X171476355Y-62457500D01*
X171783057Y-62396493D01*
X172071963Y-62276824D01*
X172331972Y-62103092D01*
X172553092Y-61881972D01*
X172726824Y-61621963D01*
X172846493Y-61333057D01*
X172907500Y-61026355D01*
X172907500Y-60713645D01*
X172846493Y-60406943D01*
X172726824Y-60118037D01*
X172553092Y-59858028D01*
X172549515Y-59854451D01*
X172626994Y-59813037D01*
X172723685Y-59733685D01*
X172803037Y-59636994D01*
X172862002Y-59526680D01*
X172898312Y-59406982D01*
X172910572Y-59282500D01*
X172910572Y-57377500D01*
X172908848Y-57360000D01*
X175020502Y-57360000D01*
X174724174Y-57558000D01*
X174358000Y-57924174D01*
X174070299Y-58354749D01*
X173872127Y-58833178D01*
X173771100Y-59341076D01*
X173771100Y-59858924D01*
X173872127Y-60366822D01*
X174070299Y-60845251D01*
X174358000Y-61275826D01*
X174724174Y-61642000D01*
X175154749Y-61929701D01*
X175633178Y-62127873D01*
X176141076Y-62228900D01*
X176658924Y-62228900D01*
X177166822Y-62127873D01*
X177645251Y-61929701D01*
X178075826Y-61642000D01*
X178442000Y-61275826D01*
X178729701Y-60845251D01*
X178927873Y-60366822D01*
X179028900Y-59858924D01*
X179028900Y-59341076D01*
X178927873Y-58833178D01*
X178729701Y-58354749D01*
X178442000Y-57924174D01*
X178075826Y-57558000D01*
X177758652Y-57346071D01*
X177892247Y-57305546D01*
X178024276Y-57234974D01*
X178140001Y-57140001D01*
X178163804Y-57110997D01*
X179914802Y-55360000D01*
X180634057Y-55360000D01*
X180436459Y-55393316D01*
X180112408Y-55516541D01*
X179818624Y-55700619D01*
X179566396Y-55938474D01*
X179365419Y-56220966D01*
X179223413Y-56537239D01*
X179145840Y-56875138D01*
X179135676Y-57221677D01*
X179193316Y-57563541D01*
X179316541Y-57887592D01*
X179500619Y-58181376D01*
X179738474Y-58433604D01*
X180020966Y-58634581D01*
X180337239Y-58776587D01*
X180675138Y-58854160D01*
X180934843Y-58861777D01*
X181540614Y-58820000D01*
X181653345Y-58820000D01*
X181798102Y-58791206D01*
X181943542Y-58766684D01*
X181967848Y-58757441D01*
X181993373Y-58752364D01*
X182129736Y-58695881D01*
X182267592Y-58643459D01*
X182289628Y-58629652D01*
X182313673Y-58619692D01*
X182436398Y-58537690D01*
X182561377Y-58459381D01*
X182580297Y-58441539D01*
X182601935Y-58427081D01*
X182706304Y-58322712D01*
X182813604Y-58221526D01*
X182828678Y-58200338D01*
X182847081Y-58181935D01*
X182929087Y-58059204D01*
X183014582Y-57939034D01*
X183025233Y-57915313D01*
X183039692Y-57893673D01*
X183096175Y-57757311D01*
X183156587Y-57622761D01*
X183162406Y-57597413D01*
X183172364Y-57573373D01*
X183201156Y-57428625D01*
X183234161Y-57284862D01*
X183234923Y-57258867D01*
X183240000Y-57233345D01*
X183240000Y-57085763D01*
X183244324Y-56938323D01*
X183240000Y-56912677D01*
X183240000Y-56886655D01*
X183211205Y-56741892D01*
X183186684Y-56596459D01*
X183177442Y-56572154D01*
X183172364Y-56546627D01*
X183115879Y-56410260D01*
X183063459Y-56272408D01*
X183049652Y-56250372D01*
X183039692Y-56226327D01*
X182957684Y-56103593D01*
X182879381Y-55978624D01*
X182861541Y-55959706D01*
X182847081Y-55938065D01*
X182742705Y-55833689D01*
X182641526Y-55726396D01*
X182620338Y-55711322D01*
X182601935Y-55692919D01*
X182479191Y-55610904D01*
X182359034Y-55525419D01*
X182335317Y-55514770D01*
X182313673Y-55500308D01*
X182177306Y-55443823D01*
X182042762Y-55383413D01*
X182017412Y-55377593D01*
X181993373Y-55367636D01*
X181954984Y-55360000D01*
X186562678Y-55360000D01*
X186600000Y-55363676D01*
X186637322Y-55360000D01*
X186637333Y-55360000D01*
X186748986Y-55349003D01*
X186892247Y-55305546D01*
X187024276Y-55234974D01*
X187140001Y-55140001D01*
X187163804Y-55110997D01*
X190291003Y-51983799D01*
X190320001Y-51960001D01*
X190369243Y-51900000D01*
X190414974Y-51844277D01*
X190485546Y-51712247D01*
X190500444Y-51663134D01*
X190529003Y-51568986D01*
X190540000Y-51457333D01*
X190540000Y-51457324D01*
X190543676Y-51420001D01*
X190540000Y-51382678D01*
X190540000Y-50678178D01*
X190726632Y-50553475D01*
X190933475Y-50346632D01*
X191050000Y-50172240D01*
X191166525Y-50346632D01*
X191373368Y-50553475D01*
X191560001Y-50678179D01*
X191560001Y-51565197D01*
X181923143Y-61202056D01*
X181921442Y-61198412D01*
X181841841Y-61089950D01*
X181767081Y-60978065D01*
X181739441Y-60950425D01*
X181716317Y-60918917D01*
X181617082Y-60828066D01*
X181521935Y-60732919D01*
X181489434Y-60711202D01*
X181460607Y-60684811D01*
X181345554Y-60615065D01*
X181233673Y-60540308D01*
X181197562Y-60525350D01*
X181164139Y-60505089D01*
X181037680Y-60459126D01*
X180913373Y-60407636D01*
X180875039Y-60400011D01*
X180838304Y-60386659D01*
X180705309Y-60366249D01*
X180573345Y-60340000D01*
X180534261Y-60340000D01*
X180495626Y-60334071D01*
X180361198Y-60340000D01*
X180226655Y-60340000D01*
X180188323Y-60347625D01*
X180149273Y-60349347D01*
X180018574Y-60381390D01*
X179886627Y-60407636D01*
X179850524Y-60422590D01*
X179812555Y-60431899D01*
X179690618Y-60488825D01*
X179566327Y-60540308D01*
X179533831Y-60562021D01*
X179498413Y-60578556D01*
X179389930Y-60658173D01*
X179278065Y-60732919D01*
X179189184Y-60821800D01*
X177700258Y-62157757D01*
X177524813Y-62349393D01*
X177345091Y-62645861D01*
X177226661Y-62971696D01*
X177174073Y-63314374D01*
X177177108Y-63383186D01*
X177115253Y-63341856D01*
X176840451Y-63228029D01*
X176548722Y-63170000D01*
X176251278Y-63170000D01*
X175959549Y-63228029D01*
X175684747Y-63341856D01*
X175437431Y-63507107D01*
X175227107Y-63717431D01*
X175061856Y-63964747D01*
X174948029Y-64239549D01*
X174890000Y-64531278D01*
X174890000Y-64828722D01*
X174948029Y-65120451D01*
X175061856Y-65395253D01*
X175227107Y-65642569D01*
X175437431Y-65852893D01*
X175684747Y-66018144D01*
X175959549Y-66131971D01*
X176251278Y-66190000D01*
X176548722Y-66190000D01*
X176840451Y-66131971D01*
X177115253Y-66018144D01*
X177362569Y-65852893D01*
X177572893Y-65642569D01*
X177738144Y-65395253D01*
X177851971Y-65120451D01*
X177907334Y-64842125D01*
X178175861Y-65004909D01*
X178501696Y-65123339D01*
X178844374Y-65175927D01*
X179190726Y-65160651D01*
X179527444Y-65078099D01*
X179841586Y-64931442D01*
X180051047Y-64777716D01*
X181482057Y-63493727D01*
X181521935Y-63467081D01*
X181610853Y-63378163D01*
X181639742Y-63352242D01*
X181671903Y-63317113D01*
X181767081Y-63221935D01*
X181788805Y-63189422D01*
X181815187Y-63160606D01*
X181884905Y-63045600D01*
X181959692Y-62933673D01*
X181974656Y-62897546D01*
X181994909Y-62864137D01*
X181996413Y-62860000D01*
X182062678Y-62860000D01*
X182100000Y-62863676D01*
X182137322Y-62860000D01*
X182137333Y-62860000D01*
X182248986Y-62849003D01*
X182392247Y-62805546D01*
X182524276Y-62734974D01*
X182640001Y-62640001D01*
X182663804Y-62610997D01*
X187897301Y-57377500D01*
X188729428Y-57377500D01*
X188729428Y-59282500D01*
X188741688Y-59406982D01*
X188777998Y-59526680D01*
X188836963Y-59636994D01*
X188916315Y-59733685D01*
X189013006Y-59813037D01*
X189090485Y-59854451D01*
X189086908Y-59858028D01*
X188913176Y-60118037D01*
X188793507Y-60406943D01*
X188732500Y-60713645D01*
X188732500Y-61026355D01*
X188793507Y-61333057D01*
X188913176Y-61621963D01*
X189086908Y-61881972D01*
X189308028Y-62103092D01*
X189568037Y-62276824D01*
X189856943Y-62396493D01*
X190163645Y-62457500D01*
X190476355Y-62457500D01*
X190783057Y-62396493D01*
X191071963Y-62276824D01*
X191331972Y-62103092D01*
X191553092Y-61881972D01*
X191726824Y-61621963D01*
X191846493Y-61333057D01*
X191907500Y-61026355D01*
X191907500Y-60713645D01*
X191846493Y-60406943D01*
X191726824Y-60118037D01*
X191553092Y-59858028D01*
X191549515Y-59854451D01*
X191626994Y-59813037D01*
X191723685Y-59733685D01*
X191803037Y-59636994D01*
X191862002Y-59526680D01*
X191898312Y-59406982D01*
X191910572Y-59282500D01*
X191910572Y-57377500D01*
X191898312Y-57253018D01*
X191862002Y-57133320D01*
X191803037Y-57023006D01*
X191723685Y-56926315D01*
X191626994Y-56846963D01*
X191516680Y-56787998D01*
X191396982Y-56751688D01*
X191272500Y-56739428D01*
X189367500Y-56739428D01*
X189243018Y-56751688D01*
X189123320Y-56787998D01*
X189013006Y-56846963D01*
X188916315Y-56926315D01*
X188836963Y-57023006D01*
X188777998Y-57133320D01*
X188741688Y-57253018D01*
X188729428Y-57377500D01*
X187897301Y-57377500D01*
X192831003Y-52443799D01*
X192860001Y-52420001D01*
X192954974Y-52304276D01*
X193025546Y-52172247D01*
X193069003Y-52028986D01*
X193080000Y-51917333D01*
X193083677Y-51880000D01*
X193080000Y-51842667D01*
X193080000Y-50678178D01*
X193266632Y-50553475D01*
X193473475Y-50346632D01*
X193590000Y-50172240D01*
X193706525Y-50346632D01*
X193913368Y-50553475D01*
X194100001Y-50678179D01*
X194100001Y-51422668D01*
X194096324Y-51460000D01*
X194100001Y-51497333D01*
X194110998Y-51608986D01*
X194114733Y-51621298D01*
X194154454Y-51752246D01*
X194225026Y-51884276D01*
X194294938Y-51969463D01*
X194320000Y-52000001D01*
X194348998Y-52023799D01*
X195335197Y-53010000D01*
X195251278Y-53010000D01*
X194959549Y-53068029D01*
X194684747Y-53181856D01*
X194437431Y-53347107D01*
X194227107Y-53557431D01*
X194061856Y-53804747D01*
X193948029Y-54079549D01*
X193890000Y-54371278D01*
X193890000Y-54668722D01*
X193948029Y-54960451D01*
X194061856Y-55235253D01*
X194227107Y-55482569D01*
X194437431Y-55692893D01*
X194684747Y-55858144D01*
X194959549Y-55971971D01*
X195251278Y-56030000D01*
X195548722Y-56030000D01*
X195840451Y-55971971D01*
X196115253Y-55858144D01*
X196362569Y-55692893D01*
X196572893Y-55482569D01*
X196640001Y-55382135D01*
X196640001Y-57268124D01*
X196166822Y-57072127D01*
X195658924Y-56971100D01*
X195141076Y-56971100D01*
X194633178Y-57072127D01*
X194154749Y-57270299D01*
X193724174Y-57558000D01*
X193358000Y-57924174D01*
X193070299Y-58354749D01*
X192872127Y-58833178D01*
X192771100Y-59341076D01*
X192771100Y-59858924D01*
X192872127Y-60366822D01*
X193070299Y-60845251D01*
X193358000Y-61275826D01*
X193724174Y-61642000D01*
X194154749Y-61929701D01*
X194633178Y-62127873D01*
X195141076Y-62228900D01*
X195658924Y-62228900D01*
X196166822Y-62127873D01*
X196645251Y-61929701D01*
X197075826Y-61642000D01*
X197442000Y-61275826D01*
X197729701Y-60845251D01*
X197750019Y-60796200D01*
X197765026Y-60824276D01*
X197807070Y-60875506D01*
X197860000Y-60940001D01*
X197888998Y-60963799D01*
X197925198Y-61000000D01*
X197429002Y-61496197D01*
X197399999Y-61519999D01*
X197369161Y-61557576D01*
X196700258Y-62157757D01*
X196524813Y-62349393D01*
X196345091Y-62645861D01*
X196226661Y-62971696D01*
X196174073Y-63314374D01*
X196177108Y-63383186D01*
X196115253Y-63341856D01*
X195840451Y-63228029D01*
X195548722Y-63170000D01*
X195251278Y-63170000D01*
X194959549Y-63228029D01*
X194684747Y-63341856D01*
X194437431Y-63507107D01*
X194227107Y-63717431D01*
X194061856Y-63964747D01*
X193948029Y-64239549D01*
X193890000Y-64531278D01*
X193890000Y-64828722D01*
X193948029Y-65120451D01*
X194061856Y-65395253D01*
X194227107Y-65642569D01*
X194437431Y-65852893D01*
X194684747Y-66018144D01*
X194959549Y-66131971D01*
X195251278Y-66190000D01*
X195548722Y-66190000D01*
X195840451Y-66131971D01*
X196115253Y-66018144D01*
X196362569Y-65852893D01*
X196572893Y-65642569D01*
X196738144Y-65395253D01*
X196851971Y-65120451D01*
X196907334Y-64842125D01*
X197175861Y-65004909D01*
X197501696Y-65123339D01*
X197844374Y-65175927D01*
X198190726Y-65160651D01*
X198527444Y-65078099D01*
X198841586Y-64931442D01*
X199051047Y-64777716D01*
X200482057Y-63493727D01*
X200521935Y-63467081D01*
X200610853Y-63378163D01*
X200639742Y-63352242D01*
X200671903Y-63317113D01*
X200767081Y-63221935D01*
X200788805Y-63189422D01*
X200815187Y-63160606D01*
X200884905Y-63045600D01*
X200959692Y-62933673D01*
X200974656Y-62897546D01*
X200994909Y-62864137D01*
X201040853Y-62737731D01*
X201092364Y-62613373D01*
X201099992Y-62575024D01*
X201113339Y-62538303D01*
X201133741Y-62405356D01*
X201160000Y-62273345D01*
X201160000Y-62234247D01*
X201165927Y-62195625D01*
X201160000Y-62061242D01*
X201160000Y-61926655D01*
X201152373Y-61888311D01*
X201150651Y-61849272D01*
X201118618Y-61718612D01*
X201092364Y-61586627D01*
X201077405Y-61550514D01*
X201068099Y-61512554D01*
X201011187Y-61390647D01*
X200959692Y-61266327D01*
X200937974Y-61233824D01*
X200921442Y-61198412D01*
X200841841Y-61089950D01*
X200767081Y-60978065D01*
X200739441Y-60950425D01*
X200716317Y-60918917D01*
X200617082Y-60828066D01*
X200521935Y-60732919D01*
X200489434Y-60711202D01*
X200460607Y-60684811D01*
X200345554Y-60615065D01*
X200233673Y-60540308D01*
X200197562Y-60525350D01*
X200164139Y-60505089D01*
X200037680Y-60459126D01*
X199913373Y-60407636D01*
X199875039Y-60400011D01*
X199838304Y-60386659D01*
X199705309Y-60366249D01*
X199573345Y-60340000D01*
X199534261Y-60340000D01*
X199495626Y-60334071D01*
X199412537Y-60337736D01*
X199160000Y-60085199D01*
X199160000Y-58697007D01*
X199337239Y-58776587D01*
X199675138Y-58854160D01*
X199934843Y-58861777D01*
X200540614Y-58820000D01*
X200653345Y-58820000D01*
X200798102Y-58791206D01*
X200943542Y-58766684D01*
X200967848Y-58757441D01*
X200993373Y-58752364D01*
X201129736Y-58695881D01*
X201267592Y-58643459D01*
X201289628Y-58629652D01*
X201313673Y-58619692D01*
X201436398Y-58537690D01*
X201561377Y-58459381D01*
X201580297Y-58441539D01*
X201601935Y-58427081D01*
X201706304Y-58322712D01*
X201813604Y-58221526D01*
X201828678Y-58200338D01*
X201847081Y-58181935D01*
X201929087Y-58059204D01*
X202014582Y-57939034D01*
X202025233Y-57915313D01*
X202039692Y-57893673D01*
X202096175Y-57757311D01*
X202156587Y-57622761D01*
X202162406Y-57597413D01*
X202172364Y-57573373D01*
X202201156Y-57428625D01*
X202234161Y-57284862D01*
X202234923Y-57258867D01*
X202240000Y-57233345D01*
X202240000Y-57115632D01*
X202259999Y-57140001D01*
X202375724Y-57234974D01*
X202507753Y-57305546D01*
X202651014Y-57349003D01*
X202762667Y-57360000D01*
X202762675Y-57360000D01*
X202800000Y-57363676D01*
X202837325Y-57360000D01*
X207731152Y-57360000D01*
X207729428Y-57377500D01*
X207729428Y-59282500D01*
X207741688Y-59406982D01*
X207777998Y-59526680D01*
X207836963Y-59636994D01*
X207916315Y-59733685D01*
X208013006Y-59813037D01*
X208090485Y-59854451D01*
X208086908Y-59858028D01*
X207913176Y-60118037D01*
X207793507Y-60406943D01*
X207732500Y-60713645D01*
X207732500Y-61026355D01*
X207793507Y-61333057D01*
X207913176Y-61621963D01*
X208086908Y-61881972D01*
X208308028Y-62103092D01*
X208568037Y-62276824D01*
X208856943Y-62396493D01*
X209163645Y-62457500D01*
X209476355Y-62457500D01*
X209783057Y-62396493D01*
X210071963Y-62276824D01*
X210331972Y-62103092D01*
X210553092Y-61881972D01*
X210726824Y-61621963D01*
X210846493Y-61333057D01*
X210907500Y-61026355D01*
X210907500Y-60713645D01*
X210846493Y-60406943D01*
X210726824Y-60118037D01*
X210553092Y-59858028D01*
X210549515Y-59854451D01*
X210626994Y-59813037D01*
X210723685Y-59733685D01*
X210803037Y-59636994D01*
X210862002Y-59526680D01*
X210898312Y-59406982D01*
X210910572Y-59282500D01*
X210910572Y-57377500D01*
X210908848Y-57360000D01*
X213020502Y-57360000D01*
X212724174Y-57558000D01*
X212358000Y-57924174D01*
X212070299Y-58354749D01*
X211872127Y-58833178D01*
X211771100Y-59341076D01*
X211771100Y-59858924D01*
X211872127Y-60366822D01*
X212070299Y-60845251D01*
X212358000Y-61275826D01*
X212724174Y-61642000D01*
X213154749Y-61929701D01*
X213633178Y-62127873D01*
X214141076Y-62228900D01*
X214658924Y-62228900D01*
X215166822Y-62127873D01*
X215645251Y-61929701D01*
X216075826Y-61642000D01*
X216442000Y-61275826D01*
X216495962Y-61195067D01*
X216565026Y-61324276D01*
X216592230Y-61357424D01*
X215700258Y-62157757D01*
X215524813Y-62349393D01*
X215345091Y-62645861D01*
X215226661Y-62971696D01*
X215174073Y-63314374D01*
X215177108Y-63383186D01*
X215115253Y-63341856D01*
X214840451Y-63228029D01*
X214548722Y-63170000D01*
X214251278Y-63170000D01*
X213959549Y-63228029D01*
X213684747Y-63341856D01*
X213437431Y-63507107D01*
X213227107Y-63717431D01*
X213061856Y-63964747D01*
X212948029Y-64239549D01*
X212890000Y-64531278D01*
X212890000Y-64828722D01*
X212948029Y-65120451D01*
X213061856Y-65395253D01*
X213227107Y-65642569D01*
X213437431Y-65852893D01*
X213684747Y-66018144D01*
X213959549Y-66131971D01*
X214251278Y-66190000D01*
X214548722Y-66190000D01*
X214840451Y-66131971D01*
X215115253Y-66018144D01*
X215362569Y-65852893D01*
X215572893Y-65642569D01*
X215738144Y-65395253D01*
X215851971Y-65120451D01*
X215907334Y-64842125D01*
X216175861Y-65004909D01*
X216501696Y-65123339D01*
X216844374Y-65175927D01*
X217190726Y-65160651D01*
X217527444Y-65078099D01*
X217841586Y-64931442D01*
X218051047Y-64777716D01*
X219482057Y-63493727D01*
X219521935Y-63467081D01*
X219610853Y-63378163D01*
X219639742Y-63352242D01*
X219671903Y-63317113D01*
X219767081Y-63221935D01*
X219788805Y-63189422D01*
X219815187Y-63160606D01*
X219884905Y-63045600D01*
X219959692Y-62933673D01*
X219974656Y-62897546D01*
X219994909Y-62864137D01*
X220040853Y-62737731D01*
X220092364Y-62613373D01*
X220099992Y-62575024D01*
X220113339Y-62538303D01*
X220133741Y-62405356D01*
X220160000Y-62273345D01*
X220160000Y-62234247D01*
X220165927Y-62195625D01*
X220160000Y-62061242D01*
X220160000Y-61926655D01*
X220152373Y-61888311D01*
X220150651Y-61849272D01*
X220118618Y-61718612D01*
X220092364Y-61586627D01*
X220077405Y-61550514D01*
X220068099Y-61512554D01*
X220011187Y-61390647D01*
X219959692Y-61266327D01*
X219937974Y-61233824D01*
X219921442Y-61198412D01*
X219841841Y-61089950D01*
X219767081Y-60978065D01*
X219739441Y-60950425D01*
X219716317Y-60918917D01*
X219617082Y-60828066D01*
X219521935Y-60732919D01*
X219489434Y-60711202D01*
X219460607Y-60684811D01*
X219345554Y-60615065D01*
X219233673Y-60540308D01*
X219197562Y-60525350D01*
X219164139Y-60505089D01*
X219037680Y-60459126D01*
X218913373Y-60407636D01*
X218875039Y-60400011D01*
X218838304Y-60386659D01*
X218705309Y-60366249D01*
X218573345Y-60340000D01*
X218534261Y-60340000D01*
X218495626Y-60334071D01*
X218361198Y-60340000D01*
X218226655Y-60340000D01*
X218188323Y-60347625D01*
X218149273Y-60349347D01*
X218018574Y-60381390D01*
X217960000Y-60393041D01*
X217960000Y-58591207D01*
X218020966Y-58634581D01*
X218337239Y-58776587D01*
X218675138Y-58854160D01*
X218934843Y-58861777D01*
X219540614Y-58820000D01*
X219653345Y-58820000D01*
X219798102Y-58791206D01*
X219943542Y-58766684D01*
X219967848Y-58757441D01*
X219993373Y-58752364D01*
X220129736Y-58695881D01*
X220267592Y-58643459D01*
X220289628Y-58629652D01*
X220313673Y-58619692D01*
X220436398Y-58537690D01*
X220561377Y-58459381D01*
X220580297Y-58441539D01*
X220601935Y-58427081D01*
X220706304Y-58322712D01*
X220813604Y-58221526D01*
X220828678Y-58200338D01*
X220847081Y-58181935D01*
X220929087Y-58059204D01*
X221014582Y-57939034D01*
X221025233Y-57915313D01*
X221039692Y-57893673D01*
X221096175Y-57757311D01*
X221156587Y-57622761D01*
X221162406Y-57597413D01*
X221172364Y-57573373D01*
X221201156Y-57428625D01*
X221234161Y-57284862D01*
X221234923Y-57258867D01*
X221240000Y-57233345D01*
X221240000Y-57085763D01*
X221244324Y-56938323D01*
X221240000Y-56912677D01*
X221240000Y-56886655D01*
X221211205Y-56741892D01*
X221186684Y-56596459D01*
X221177442Y-56572154D01*
X221172364Y-56546627D01*
X221115879Y-56410260D01*
X221063459Y-56272408D01*
X221049652Y-56250372D01*
X221039692Y-56226327D01*
X220957684Y-56103593D01*
X220879381Y-55978624D01*
X220861541Y-55959706D01*
X220847081Y-55938065D01*
X220742705Y-55833689D01*
X220641526Y-55726396D01*
X220620338Y-55711322D01*
X220601935Y-55692919D01*
X220479191Y-55610904D01*
X220359034Y-55525419D01*
X220335317Y-55514770D01*
X220313673Y-55500308D01*
X220177306Y-55443823D01*
X220042762Y-55383413D01*
X220017412Y-55377593D01*
X219993373Y-55367636D01*
X219848613Y-55338841D01*
X219704863Y-55305840D01*
X219678872Y-55305078D01*
X219653345Y-55300000D01*
X219505744Y-55300000D01*
X219445156Y-55298223D01*
X219419389Y-55300000D01*
X219306655Y-55300000D01*
X219246825Y-55311901D01*
X218692661Y-55350119D01*
X218436459Y-55393316D01*
X218112408Y-55516541D01*
X217818624Y-55700619D01*
X217566396Y-55938474D01*
X217365419Y-56220966D01*
X217281863Y-56407061D01*
X216963803Y-56089002D01*
X216940001Y-56059999D01*
X216824276Y-55965026D01*
X216692247Y-55894454D01*
X216548986Y-55850997D01*
X216437333Y-55840000D01*
X216437322Y-55840000D01*
X216400000Y-55836324D01*
X216362678Y-55840000D01*
X215142407Y-55840000D01*
X215362569Y-55692893D01*
X215572893Y-55482569D01*
X215738144Y-55235253D01*
X215851971Y-54960451D01*
X215910000Y-54668722D01*
X215910000Y-54371278D01*
X215851971Y-54079549D01*
X215738144Y-53804747D01*
X215574610Y-53560000D01*
X226085199Y-53560000D01*
X229264626Y-56739428D01*
X227367500Y-56739428D01*
X227243018Y-56751688D01*
X227123320Y-56787998D01*
X227013006Y-56846963D01*
X226916315Y-56926315D01*
X226836963Y-57023006D01*
X226777998Y-57133320D01*
X226741688Y-57253018D01*
X226729428Y-57377500D01*
X226729428Y-59282500D01*
X226741688Y-59406982D01*
X226777998Y-59526680D01*
X226836963Y-59636994D01*
X226916315Y-59733685D01*
X227013006Y-59813037D01*
X227090485Y-59854451D01*
X227086908Y-59858028D01*
X226913176Y-60118037D01*
X226793507Y-60406943D01*
X226732500Y-60713645D01*
X226732500Y-61026355D01*
X226793507Y-61333057D01*
X226913176Y-61621963D01*
X227086908Y-61881972D01*
X227308028Y-62103092D01*
X227568037Y-62276824D01*
X227856943Y-62396493D01*
X228163645Y-62457500D01*
X228476355Y-62457500D01*
X228783057Y-62396493D01*
X229071963Y-62276824D01*
X229331972Y-62103092D01*
X229553092Y-61881972D01*
X229726824Y-61621963D01*
X229846493Y-61333057D01*
X229907500Y-61026355D01*
X229907500Y-60713645D01*
X229846493Y-60406943D01*
X229726824Y-60118037D01*
X229553092Y-59858028D01*
X229549515Y-59854451D01*
X229626994Y-59813037D01*
X229723685Y-59733685D01*
X229803037Y-59636994D01*
X229862002Y-59526680D01*
X229898312Y-59406982D01*
X229910572Y-59282500D01*
X229910572Y-57377500D01*
X229903248Y-57303138D01*
X229907753Y-57305546D01*
X230051014Y-57349003D01*
X230200000Y-57363677D01*
X230237333Y-57360000D01*
X232020502Y-57360000D01*
X231724174Y-57558000D01*
X231358000Y-57924174D01*
X231070299Y-58354749D01*
X230872127Y-58833178D01*
X230771100Y-59341076D01*
X230771100Y-59858924D01*
X230872127Y-60366822D01*
X231070299Y-60845251D01*
X231358000Y-61275826D01*
X231724174Y-61642000D01*
X232154749Y-61929701D01*
X232633178Y-62127873D01*
X233141076Y-62228900D01*
X233658924Y-62228900D01*
X234166822Y-62127873D01*
X234645251Y-61929701D01*
X235075826Y-61642000D01*
X235180000Y-61537826D01*
X235180000Y-61727302D01*
X234700258Y-62157757D01*
X234524813Y-62349393D01*
X234345091Y-62645861D01*
X234226661Y-62971696D01*
X234174073Y-63314374D01*
X234177108Y-63383186D01*
X234115253Y-63341856D01*
X233840451Y-63228029D01*
X233548722Y-63170000D01*
X233251278Y-63170000D01*
X232959549Y-63228029D01*
X232684747Y-63341856D01*
X232437431Y-63507107D01*
X232227107Y-63717431D01*
X232061856Y-63964747D01*
X231948029Y-64239549D01*
X231890000Y-64531278D01*
X231890000Y-64828722D01*
X231948029Y-65120451D01*
X232061856Y-65395253D01*
X232227107Y-65642569D01*
X232437431Y-65852893D01*
X232684747Y-66018144D01*
X232959549Y-66131971D01*
X233251278Y-66190000D01*
X233548722Y-66190000D01*
X233840451Y-66131971D01*
X234115253Y-66018144D01*
X234362569Y-65852893D01*
X234572893Y-65642569D01*
X234738144Y-65395253D01*
X234851971Y-65120451D01*
X234907334Y-64842125D01*
X235175861Y-65004909D01*
X235501696Y-65123339D01*
X235844374Y-65175927D01*
X236190726Y-65160651D01*
X236527444Y-65078099D01*
X236841586Y-64931442D01*
X237051047Y-64777716D01*
X238482057Y-63493727D01*
X238521935Y-63467081D01*
X238610853Y-63378163D01*
X238639742Y-63352242D01*
X238671903Y-63317113D01*
X238767081Y-63221935D01*
X238788805Y-63189422D01*
X238815187Y-63160606D01*
X238884905Y-63045600D01*
X238959692Y-62933673D01*
X238974656Y-62897546D01*
X238994909Y-62864137D01*
X239040853Y-62737731D01*
X239092364Y-62613373D01*
X239099992Y-62575024D01*
X239113339Y-62538303D01*
X239133741Y-62405356D01*
X239160000Y-62273345D01*
X239160000Y-62234247D01*
X239165927Y-62195625D01*
X239160000Y-62061242D01*
X239160000Y-61926655D01*
X239152373Y-61888311D01*
X239150651Y-61849272D01*
X239118618Y-61718612D01*
X239092364Y-61586627D01*
X239077405Y-61550514D01*
X239068099Y-61512554D01*
X239011187Y-61390647D01*
X238959692Y-61266327D01*
X238937974Y-61233824D01*
X238921442Y-61198412D01*
X238841841Y-61089950D01*
X238767081Y-60978065D01*
X238739441Y-60950425D01*
X238716317Y-60918917D01*
X238617082Y-60828066D01*
X238521935Y-60732919D01*
X238489434Y-60711202D01*
X238460607Y-60684811D01*
X238345554Y-60615065D01*
X238233673Y-60540308D01*
X238197562Y-60525350D01*
X238164139Y-60505089D01*
X238037680Y-60459126D01*
X237913373Y-60407636D01*
X237875039Y-60400011D01*
X237838304Y-60386659D01*
X237705309Y-60366249D01*
X237573345Y-60340000D01*
X237534261Y-60340000D01*
X237495626Y-60334071D01*
X237361198Y-60340000D01*
X237226655Y-60340000D01*
X237188323Y-60347625D01*
X237149273Y-60349347D01*
X237018574Y-60381390D01*
X236886627Y-60407636D01*
X236850524Y-60422590D01*
X236812555Y-60431899D01*
X236760000Y-60456434D01*
X236760000Y-58448919D01*
X237020966Y-58634581D01*
X237337239Y-58776587D01*
X237675138Y-58854160D01*
X237934843Y-58861777D01*
X238540614Y-58820000D01*
X238653345Y-58820000D01*
X238798102Y-58791206D01*
X238943542Y-58766684D01*
X238967848Y-58757441D01*
X238993373Y-58752364D01*
X239129736Y-58695881D01*
X239267592Y-58643459D01*
X239289628Y-58629652D01*
X239313673Y-58619692D01*
X239436398Y-58537690D01*
X239561377Y-58459381D01*
X239580297Y-58441539D01*
X239601935Y-58427081D01*
X239706304Y-58322712D01*
X239740001Y-58290935D01*
X239740001Y-66567581D01*
X239740000Y-67940000D01*
X115460000Y-67940000D01*
X115460000Y-51358435D01*
X126395430Y-44260000D01*
X142744747Y-44260000D01*
X142666553Y-44406291D01*
G36*
X194840199Y-47915000D02*
G01*
X194713740Y-47915000D01*
X194426842Y-47972068D01*
X194156589Y-48084010D01*
X193913368Y-48246525D01*
X193706525Y-48453368D01*
X193590000Y-48627760D01*
X193473475Y-48453368D01*
X193266632Y-48246525D01*
X193023411Y-48084010D01*
X192753158Y-47972068D01*
X192466260Y-47915000D01*
X192173740Y-47915000D01*
X191886842Y-47972068D01*
X191616589Y-48084010D01*
X191373368Y-48246525D01*
X191166525Y-48453368D01*
X191050000Y-48627760D01*
X190933475Y-48453368D01*
X190726632Y-48246525D01*
X190483411Y-48084010D01*
X190213158Y-47972068D01*
X189926260Y-47915000D01*
X189633740Y-47915000D01*
X189346842Y-47972068D01*
X189076589Y-48084010D01*
X188833368Y-48246525D01*
X188626525Y-48453368D01*
X188510000Y-48627760D01*
X188393475Y-48453368D01*
X188186632Y-48246525D01*
X187943411Y-48084010D01*
X187673158Y-47972068D01*
X187386260Y-47915000D01*
X187093740Y-47915000D01*
X186806842Y-47972068D01*
X186536589Y-48084010D01*
X186293368Y-48246525D01*
X186086525Y-48453368D01*
X185970000Y-48627760D01*
X185853475Y-48453368D01*
X185646632Y-48246525D01*
X185403411Y-48084010D01*
X185133158Y-47972068D01*
X184846260Y-47915000D01*
X184553740Y-47915000D01*
X184266842Y-47972068D01*
X183996589Y-48084010D01*
X183753368Y-48246525D01*
X183546525Y-48453368D01*
X183430000Y-48627760D01*
X183313475Y-48453368D01*
X183106632Y-48246525D01*
X182863411Y-48084010D01*
X182593158Y-47972068D01*
X182306260Y-47915000D01*
X182013740Y-47915000D01*
X181726842Y-47972068D01*
X181456589Y-48084010D01*
X181213368Y-48246525D01*
X181006525Y-48453368D01*
X180890000Y-48627760D01*
X180773475Y-48453368D01*
X180566632Y-48246525D01*
X180323411Y-48084010D01*
X180053158Y-47972068D01*
X179766260Y-47915000D01*
X179473740Y-47915000D01*
X179186842Y-47972068D01*
X178916589Y-48084010D01*
X178673368Y-48246525D01*
X178466525Y-48453368D01*
X178350000Y-48627760D01*
X178233475Y-48453368D01*
X178026632Y-48246525D01*
X177783411Y-48084010D01*
X177513158Y-47972068D01*
X177226260Y-47915000D01*
X176933740Y-47915000D01*
X176646842Y-47972068D01*
X176376589Y-48084010D01*
X176133368Y-48246525D01*
X175926525Y-48453368D01*
X175810000Y-48627760D01*
X175693475Y-48453368D01*
X175486632Y-48246525D01*
X175243411Y-48084010D01*
X174973158Y-47972068D01*
X174686260Y-47915000D01*
X174393740Y-47915000D01*
X174106842Y-47972068D01*
X173836589Y-48084010D01*
X173593368Y-48246525D01*
X173386525Y-48453368D01*
X173264805Y-48635534D01*
X173195178Y-48518645D01*
X173000269Y-48302412D01*
X172766920Y-48128359D01*
X172504099Y-48003175D01*
X172356890Y-47958524D01*
X172127000Y-48079845D01*
X172127000Y-49273000D01*
X172147000Y-49273000D01*
X172147000Y-49527000D01*
X172127000Y-49527000D01*
X172127000Y-50720155D01*
X172356890Y-50841476D01*
X172504099Y-50796825D01*
X172766920Y-50671641D01*
X173000269Y-50497588D01*
X173195178Y-50281355D01*
X173264805Y-50164466D01*
X173386525Y-50346632D01*
X173593368Y-50553475D01*
X173836589Y-50715990D01*
X174106842Y-50827932D01*
X174393740Y-50885000D01*
X174686260Y-50885000D01*
X174973158Y-50827932D01*
X175243411Y-50715990D01*
X175486632Y-50553475D01*
X175693475Y-50346632D01*
X175810000Y-50172240D01*
X175926525Y-50346632D01*
X176133368Y-50553475D01*
X176376589Y-50715990D01*
X176646842Y-50827932D01*
X176933740Y-50885000D01*
X177226260Y-50885000D01*
X177513158Y-50827932D01*
X177783411Y-50715990D01*
X178026632Y-50553475D01*
X178233475Y-50346632D01*
X178350000Y-50172240D01*
X178466525Y-50346632D01*
X178673368Y-50553475D01*
X178860000Y-50678179D01*
X178860000Y-51265198D01*
X177685199Y-52440000D01*
X162037322Y-52440000D01*
X161999999Y-52436324D01*
X161962676Y-52440000D01*
X161962667Y-52440000D01*
X161851014Y-52450997D01*
X161707753Y-52494454D01*
X161575724Y-52565026D01*
X161575722Y-52565027D01*
X161575723Y-52565027D01*
X161488996Y-52636201D01*
X161488992Y-52636205D01*
X161459999Y-52659999D01*
X161436205Y-52688992D01*
X158485199Y-55640000D01*
X158415462Y-55640000D01*
X158572893Y-55482569D01*
X158738144Y-55235253D01*
X158851971Y-54960451D01*
X158910000Y-54668722D01*
X158910000Y-54371278D01*
X158851971Y-54079549D01*
X158738144Y-53804747D01*
X158572893Y-53557431D01*
X158362569Y-53347107D01*
X158115253Y-53181856D01*
X157840451Y-53068029D01*
X157548722Y-53010000D01*
X157251278Y-53010000D01*
X156959549Y-53068029D01*
X156684747Y-53181856D01*
X156437431Y-53347107D01*
X156227107Y-53557431D01*
X156061856Y-53804747D01*
X155948029Y-54079549D01*
X155890000Y-54371278D01*
X155890000Y-54668722D01*
X155948029Y-54960451D01*
X156061856Y-55235253D01*
X156227107Y-55482569D01*
X156384538Y-55640000D01*
X156114802Y-55640000D01*
X155763803Y-55289002D01*
X155740001Y-55259999D01*
X155624276Y-55165026D01*
X155492247Y-55094454D01*
X155348986Y-55050997D01*
X155237333Y-55040000D01*
X155237322Y-55040000D01*
X155200000Y-55036324D01*
X155162678Y-55040000D01*
X154864079Y-55040000D01*
X154925003Y-54990001D01*
X154948806Y-54960998D01*
X155861004Y-54048800D01*
X155890001Y-54025003D01*
X155984974Y-53909278D01*
X156055546Y-53777249D01*
X156099003Y-53633988D01*
X156110000Y-53522335D01*
X156110000Y-53522326D01*
X156113676Y-53485003D01*
X156110000Y-53447680D01*
X156110000Y-50809625D01*
X156199482Y-50800812D01*
X156319180Y-50764502D01*
X156429494Y-50705537D01*
X156526185Y-50626185D01*
X156605537Y-50529494D01*
X156664502Y-50419180D01*
X156700812Y-50299482D01*
X156713072Y-50175000D01*
X156713072Y-50060000D01*
X159516465Y-50060000D01*
X159532708Y-50079792D01*
X159666336Y-50189458D01*
X159818791Y-50270947D01*
X159984215Y-50321128D01*
X160156250Y-50338072D01*
X160643750Y-50338072D01*
X160815785Y-50321128D01*
X160981209Y-50270947D01*
X161133664Y-50189458D01*
X161267292Y-50079792D01*
X161337500Y-49994244D01*
X161407708Y-50079792D01*
X161541336Y-50189458D01*
X161693791Y-50270947D01*
X161859215Y-50321128D01*
X162031250Y-50338072D01*
X162518750Y-50338072D01*
X162690785Y-50321128D01*
X162856209Y-50270947D01*
X163008664Y-50189458D01*
X163142292Y-50079792D01*
X163251958Y-49946164D01*
X163333447Y-49793709D01*
X163383628Y-49628285D01*
X163400572Y-49456250D01*
X163400572Y-49253740D01*
X167975000Y-49253740D01*
X167975000Y-49546260D01*
X168032068Y-49833158D01*
X168144010Y-50103411D01*
X168306525Y-50346632D01*
X168513368Y-50553475D01*
X168756589Y-50715990D01*
X169026842Y-50827932D01*
X169313740Y-50885000D01*
X169606260Y-50885000D01*
X169893158Y-50827932D01*
X170163411Y-50715990D01*
X170406632Y-50553475D01*
X170613475Y-50346632D01*
X170735195Y-50164466D01*
X170804822Y-50281355D01*
X170999731Y-50497588D01*
X171233080Y-50671641D01*
X171495901Y-50796825D01*
X171643110Y-50841476D01*
X171873000Y-50720155D01*
X171873000Y-49527000D01*
X171853000Y-49527000D01*
X171853000Y-49273000D01*
X171873000Y-49273000D01*
X171873000Y-48079845D01*
X171643110Y-47958524D01*
X171495901Y-48003175D01*
X171233080Y-48128359D01*
X170999731Y-48302412D01*
X170804822Y-48518645D01*
X170735195Y-48635534D01*
X170613475Y-48453368D01*
X170406632Y-48246525D01*
X170163411Y-48084010D01*
X169893158Y-47972068D01*
X169606260Y-47915000D01*
X169313740Y-47915000D01*
X169026842Y-47972068D01*
X168756589Y-48084010D01*
X168513368Y-48246525D01*
X168306525Y-48453368D01*
X168144010Y-48696589D01*
X168032068Y-48966842D01*
X167975000Y-49253740D01*
X163400572Y-49253740D01*
X163400572Y-48984999D01*
X166337679Y-48984999D01*
X166375001Y-48988675D01*
X166412323Y-48984999D01*
X166412334Y-48984999D01*
X166523987Y-48974002D01*
X166667248Y-48930545D01*
X166799277Y-48859973D01*
X166915002Y-48765000D01*
X166938805Y-48735996D01*
X167914802Y-47760000D01*
X194685199Y-47760000D01*
X194840199Y-47915000D01*
G37*
X194840199Y-47915000D02*
X194713740Y-47915000D01*
X194426842Y-47972068D01*
X194156589Y-48084010D01*
X193913368Y-48246525D01*
X193706525Y-48453368D01*
X193590000Y-48627760D01*
X193473475Y-48453368D01*
X193266632Y-48246525D01*
X193023411Y-48084010D01*
X192753158Y-47972068D01*
X192466260Y-47915000D01*
X192173740Y-47915000D01*
X191886842Y-47972068D01*
X191616589Y-48084010D01*
X191373368Y-48246525D01*
X191166525Y-48453368D01*
X191050000Y-48627760D01*
X190933475Y-48453368D01*
X190726632Y-48246525D01*
X190483411Y-48084010D01*
X190213158Y-47972068D01*
X189926260Y-47915000D01*
X189633740Y-47915000D01*
X189346842Y-47972068D01*
X189076589Y-48084010D01*
X188833368Y-48246525D01*
X188626525Y-48453368D01*
X188510000Y-48627760D01*
X188393475Y-48453368D01*
X188186632Y-48246525D01*
X187943411Y-48084010D01*
X187673158Y-47972068D01*
X187386260Y-47915000D01*
X187093740Y-47915000D01*
X186806842Y-47972068D01*
X186536589Y-48084010D01*
X186293368Y-48246525D01*
X186086525Y-48453368D01*
X185970000Y-48627760D01*
X185853475Y-48453368D01*
X185646632Y-48246525D01*
X185403411Y-48084010D01*
X185133158Y-47972068D01*
X184846260Y-47915000D01*
X184553740Y-47915000D01*
X184266842Y-47972068D01*
X183996589Y-48084010D01*
X183753368Y-48246525D01*
X183546525Y-48453368D01*
X183430000Y-48627760D01*
X183313475Y-48453368D01*
X183106632Y-48246525D01*
X182863411Y-48084010D01*
X182593158Y-47972068D01*
X182306260Y-47915000D01*
X182013740Y-47915000D01*
X181726842Y-47972068D01*
X181456589Y-48084010D01*
X181213368Y-48246525D01*
X181006525Y-48453368D01*
X180890000Y-48627760D01*
X180773475Y-48453368D01*
X180566632Y-48246525D01*
X180323411Y-48084010D01*
X180053158Y-47972068D01*
X179766260Y-47915000D01*
X179473740Y-47915000D01*
X179186842Y-47972068D01*
X178916589Y-48084010D01*
X178673368Y-48246525D01*
X178466525Y-48453368D01*
X178350000Y-48627760D01*
X178233475Y-48453368D01*
X178026632Y-48246525D01*
X177783411Y-48084010D01*
X177513158Y-47972068D01*
X177226260Y-47915000D01*
X176933740Y-47915000D01*
X176646842Y-47972068D01*
X176376589Y-48084010D01*
X176133368Y-48246525D01*
X175926525Y-48453368D01*
X175810000Y-48627760D01*
X175693475Y-48453368D01*
X175486632Y-48246525D01*
X175243411Y-48084010D01*
X174973158Y-47972068D01*
X174686260Y-47915000D01*
X174393740Y-47915000D01*
X174106842Y-47972068D01*
X173836589Y-48084010D01*
X173593368Y-48246525D01*
X173386525Y-48453368D01*
X173264805Y-48635534D01*
X173195178Y-48518645D01*
X173000269Y-48302412D01*
X172766920Y-48128359D01*
X172504099Y-48003175D01*
X172356890Y-47958524D01*
X172127000Y-48079845D01*
X172127000Y-49273000D01*
X172147000Y-49273000D01*
X172147000Y-49527000D01*
X172127000Y-49527000D01*
X172127000Y-50720155D01*
X172356890Y-50841476D01*
X172504099Y-50796825D01*
X172766920Y-50671641D01*
X173000269Y-50497588D01*
X173195178Y-50281355D01*
X173264805Y-50164466D01*
X173386525Y-50346632D01*
X173593368Y-50553475D01*
X173836589Y-50715990D01*
X174106842Y-50827932D01*
X174393740Y-50885000D01*
X174686260Y-50885000D01*
X174973158Y-50827932D01*
X175243411Y-50715990D01*
X175486632Y-50553475D01*
X175693475Y-50346632D01*
X175810000Y-50172240D01*
X175926525Y-50346632D01*
X176133368Y-50553475D01*
X176376589Y-50715990D01*
X176646842Y-50827932D01*
X176933740Y-50885000D01*
X177226260Y-50885000D01*
X177513158Y-50827932D01*
X177783411Y-50715990D01*
X178026632Y-50553475D01*
X178233475Y-50346632D01*
X178350000Y-50172240D01*
X178466525Y-50346632D01*
X178673368Y-50553475D01*
X178860000Y-50678179D01*
X178860000Y-51265198D01*
X177685199Y-52440000D01*
X162037322Y-52440000D01*
X161999999Y-52436324D01*
X161962676Y-52440000D01*
X161962667Y-52440000D01*
X161851014Y-52450997D01*
X161707753Y-52494454D01*
X161575724Y-52565026D01*
X161575722Y-52565027D01*
X161575723Y-52565027D01*
X161488996Y-52636201D01*
X161488992Y-52636205D01*
X161459999Y-52659999D01*
X161436205Y-52688992D01*
X158485199Y-55640000D01*
X158415462Y-55640000D01*
X158572893Y-55482569D01*
X158738144Y-55235253D01*
X158851971Y-54960451D01*
X158910000Y-54668722D01*
X158910000Y-54371278D01*
X158851971Y-54079549D01*
X158738144Y-53804747D01*
X158572893Y-53557431D01*
X158362569Y-53347107D01*
X158115253Y-53181856D01*
X157840451Y-53068029D01*
X157548722Y-53010000D01*
X157251278Y-53010000D01*
X156959549Y-53068029D01*
X156684747Y-53181856D01*
X156437431Y-53347107D01*
X156227107Y-53557431D01*
X156061856Y-53804747D01*
X155948029Y-54079549D01*
X155890000Y-54371278D01*
X155890000Y-54668722D01*
X155948029Y-54960451D01*
X156061856Y-55235253D01*
X156227107Y-55482569D01*
X156384538Y-55640000D01*
X156114802Y-55640000D01*
X155763803Y-55289002D01*
X155740001Y-55259999D01*
X155624276Y-55165026D01*
X155492247Y-55094454D01*
X155348986Y-55050997D01*
X155237333Y-55040000D01*
X155237322Y-55040000D01*
X155200000Y-55036324D01*
X155162678Y-55040000D01*
X154864079Y-55040000D01*
X154925003Y-54990001D01*
X154948806Y-54960998D01*
X155861004Y-54048800D01*
X155890001Y-54025003D01*
X155984974Y-53909278D01*
X156055546Y-53777249D01*
X156099003Y-53633988D01*
X156110000Y-53522335D01*
X156110000Y-53522326D01*
X156113676Y-53485003D01*
X156110000Y-53447680D01*
X156110000Y-50809625D01*
X156199482Y-50800812D01*
X156319180Y-50764502D01*
X156429494Y-50705537D01*
X156526185Y-50626185D01*
X156605537Y-50529494D01*
X156664502Y-50419180D01*
X156700812Y-50299482D01*
X156713072Y-50175000D01*
X156713072Y-50060000D01*
X159516465Y-50060000D01*
X159532708Y-50079792D01*
X159666336Y-50189458D01*
X159818791Y-50270947D01*
X159984215Y-50321128D01*
X160156250Y-50338072D01*
X160643750Y-50338072D01*
X160815785Y-50321128D01*
X160981209Y-50270947D01*
X161133664Y-50189458D01*
X161267292Y-50079792D01*
X161337500Y-49994244D01*
X161407708Y-50079792D01*
X161541336Y-50189458D01*
X161693791Y-50270947D01*
X161859215Y-50321128D01*
X162031250Y-50338072D01*
X162518750Y-50338072D01*
X162690785Y-50321128D01*
X162856209Y-50270947D01*
X163008664Y-50189458D01*
X163142292Y-50079792D01*
X163251958Y-49946164D01*
X163333447Y-49793709D01*
X163383628Y-49628285D01*
X163400572Y-49456250D01*
X163400572Y-49253740D01*
X167975000Y-49253740D01*
X167975000Y-49546260D01*
X168032068Y-49833158D01*
X168144010Y-50103411D01*
X168306525Y-50346632D01*
X168513368Y-50553475D01*
X168756589Y-50715990D01*
X169026842Y-50827932D01*
X169313740Y-50885000D01*
X169606260Y-50885000D01*
X169893158Y-50827932D01*
X170163411Y-50715990D01*
X170406632Y-50553475D01*
X170613475Y-50346632D01*
X170735195Y-50164466D01*
X170804822Y-50281355D01*
X170999731Y-50497588D01*
X171233080Y-50671641D01*
X171495901Y-50796825D01*
X171643110Y-50841476D01*
X171873000Y-50720155D01*
X171873000Y-49527000D01*
X171853000Y-49527000D01*
X171853000Y-49273000D01*
X171873000Y-49273000D01*
X171873000Y-48079845D01*
X171643110Y-47958524D01*
X171495901Y-48003175D01*
X171233080Y-48128359D01*
X170999731Y-48302412D01*
X170804822Y-48518645D01*
X170735195Y-48635534D01*
X170613475Y-48453368D01*
X170406632Y-48246525D01*
X170163411Y-48084010D01*
X169893158Y-47972068D01*
X169606260Y-47915000D01*
X169313740Y-47915000D01*
X169026842Y-47972068D01*
X168756589Y-48084010D01*
X168513368Y-48246525D01*
X168306525Y-48453368D01*
X168144010Y-48696589D01*
X168032068Y-48966842D01*
X167975000Y-49253740D01*
X163400572Y-49253740D01*
X163400572Y-48984999D01*
X166337679Y-48984999D01*
X166375001Y-48988675D01*
X166412323Y-48984999D01*
X166412334Y-48984999D01*
X166523987Y-48974002D01*
X166667248Y-48930545D01*
X166799277Y-48859973D01*
X166915002Y-48765000D01*
X166938805Y-48735996D01*
X167914802Y-47760000D01*
X194685199Y-47760000D01*
X194840199Y-47915000D01*
G36*
X148090000Y-50206750D02*
G01*
X148101156Y-50308996D01*
X148139285Y-50428127D01*
X148199922Y-50537531D01*
X148280737Y-50633003D01*
X148378625Y-50710874D01*
X148489825Y-50768151D01*
X148610061Y-50802634D01*
X148734715Y-50812998D01*
X149164250Y-50810000D01*
X149323000Y-50651250D01*
X149323000Y-50163072D01*
X149577000Y-50163072D01*
X149577000Y-50651250D01*
X149735750Y-50810000D01*
X150165285Y-50812998D01*
X150289939Y-50802634D01*
X150410175Y-50768151D01*
X150521375Y-50710874D01*
X150619263Y-50633003D01*
X150700078Y-50537531D01*
X150760715Y-50428127D01*
X150762700Y-50421924D01*
X150775518Y-50425812D01*
X150900000Y-50438072D01*
X153900000Y-50438072D01*
X154024482Y-50425812D01*
X154037011Y-50422011D01*
X154094463Y-50529494D01*
X154173815Y-50626185D01*
X154270506Y-50705537D01*
X154380820Y-50764502D01*
X154500518Y-50800812D01*
X154590001Y-50809625D01*
X154590000Y-51878895D01*
X154574482Y-51874188D01*
X154450000Y-51861928D01*
X153935750Y-51865000D01*
X153777000Y-52023750D01*
X153777000Y-53073000D01*
X153797000Y-53073000D01*
X153797000Y-53327000D01*
X153777000Y-53327000D01*
X153777000Y-53347000D01*
X153523000Y-53347000D01*
X153523000Y-53327000D01*
X152373750Y-53327000D01*
X152215000Y-53485750D01*
X152213485Y-53690000D01*
X149955937Y-53690000D01*
X149975812Y-53624482D01*
X149988072Y-53500000D01*
X149988072Y-52500000D01*
X152211928Y-52500000D01*
X152215000Y-52914250D01*
X152373750Y-53073000D01*
X153523000Y-53073000D01*
X153523000Y-52023750D01*
X153364250Y-51865000D01*
X152850000Y-51861928D01*
X152725518Y-51874188D01*
X152605820Y-51910498D01*
X152495506Y-51969463D01*
X152398815Y-52048815D01*
X152319463Y-52145506D01*
X152260498Y-52255820D01*
X152224188Y-52375518D01*
X152211928Y-52500000D01*
X149988072Y-52500000D01*
X149988072Y-51900000D01*
X149975812Y-51775518D01*
X149939502Y-51655820D01*
X149880537Y-51545506D01*
X149801185Y-51448815D01*
X149704494Y-51369463D01*
X149594180Y-51310498D01*
X149474482Y-51274188D01*
X149350000Y-51261928D01*
X148650000Y-51261928D01*
X148525518Y-51274188D01*
X148450000Y-51297096D01*
X148374482Y-51274188D01*
X148250000Y-51261928D01*
X147801783Y-51261928D01*
X147803937Y-51259774D01*
X147917205Y-51090256D01*
X147995226Y-50901898D01*
X148035000Y-50701939D01*
X148035000Y-50498061D01*
X147995226Y-50298102D01*
X147938022Y-50160000D01*
X148136750Y-50160000D01*
X148090000Y-50206750D01*
G37*
X148090000Y-50206750D02*
X148101156Y-50308996D01*
X148139285Y-50428127D01*
X148199922Y-50537531D01*
X148280737Y-50633003D01*
X148378625Y-50710874D01*
X148489825Y-50768151D01*
X148610061Y-50802634D01*
X148734715Y-50812998D01*
X149164250Y-50810000D01*
X149323000Y-50651250D01*
X149323000Y-50163072D01*
X149577000Y-50163072D01*
X149577000Y-50651250D01*
X149735750Y-50810000D01*
X150165285Y-50812998D01*
X150289939Y-50802634D01*
X150410175Y-50768151D01*
X150521375Y-50710874D01*
X150619263Y-50633003D01*
X150700078Y-50537531D01*
X150760715Y-50428127D01*
X150762700Y-50421924D01*
X150775518Y-50425812D01*
X150900000Y-50438072D01*
X153900000Y-50438072D01*
X154024482Y-50425812D01*
X154037011Y-50422011D01*
X154094463Y-50529494D01*
X154173815Y-50626185D01*
X154270506Y-50705537D01*
X154380820Y-50764502D01*
X154500518Y-50800812D01*
X154590001Y-50809625D01*
X154590000Y-51878895D01*
X154574482Y-51874188D01*
X154450000Y-51861928D01*
X153935750Y-51865000D01*
X153777000Y-52023750D01*
X153777000Y-53073000D01*
X153797000Y-53073000D01*
X153797000Y-53327000D01*
X153777000Y-53327000D01*
X153777000Y-53347000D01*
X153523000Y-53347000D01*
X153523000Y-53327000D01*
X152373750Y-53327000D01*
X152215000Y-53485750D01*
X152213485Y-53690000D01*
X149955937Y-53690000D01*
X149975812Y-53624482D01*
X149988072Y-53500000D01*
X149988072Y-52500000D01*
X152211928Y-52500000D01*
X152215000Y-52914250D01*
X152373750Y-53073000D01*
X153523000Y-53073000D01*
X153523000Y-52023750D01*
X153364250Y-51865000D01*
X152850000Y-51861928D01*
X152725518Y-51874188D01*
X152605820Y-51910498D01*
X152495506Y-51969463D01*
X152398815Y-52048815D01*
X152319463Y-52145506D01*
X152260498Y-52255820D01*
X152224188Y-52375518D01*
X152211928Y-52500000D01*
X149988072Y-52500000D01*
X149988072Y-51900000D01*
X149975812Y-51775518D01*
X149939502Y-51655820D01*
X149880537Y-51545506D01*
X149801185Y-51448815D01*
X149704494Y-51369463D01*
X149594180Y-51310498D01*
X149474482Y-51274188D01*
X149350000Y-51261928D01*
X148650000Y-51261928D01*
X148525518Y-51274188D01*
X148450000Y-51297096D01*
X148374482Y-51274188D01*
X148250000Y-51261928D01*
X147801783Y-51261928D01*
X147803937Y-51259774D01*
X147917205Y-51090256D01*
X147995226Y-50901898D01*
X148035000Y-50701939D01*
X148035000Y-50498061D01*
X147995226Y-50298102D01*
X147938022Y-50160000D01*
X148136750Y-50160000D01*
X148090000Y-50206750D01*
G36*
X169888195Y-45510988D02*
G01*
X169911998Y-45539992D01*
X170027723Y-45634965D01*
X170159752Y-45705537D01*
X170303013Y-45748994D01*
X170414666Y-45759991D01*
X170414674Y-45759991D01*
X170451999Y-45763667D01*
X170489324Y-45759991D01*
X195085190Y-45759991D01*
X196373700Y-47048502D01*
X196397499Y-47077501D01*
X196426497Y-47101299D01*
X196513223Y-47172474D01*
X196572086Y-47203937D01*
X196645253Y-47243046D01*
X196788514Y-47286503D01*
X196900167Y-47297500D01*
X196900176Y-47297500D01*
X196937499Y-47301176D01*
X196974822Y-47297500D01*
X211232155Y-47297500D01*
X211320208Y-47404792D01*
X211453836Y-47514458D01*
X211606291Y-47595947D01*
X211722669Y-47631250D01*
X211606291Y-47666553D01*
X211453836Y-47748042D01*
X211320208Y-47857708D01*
X211210542Y-47991336D01*
X211129053Y-48143791D01*
X211078872Y-48309215D01*
X211061928Y-48481250D01*
X211061928Y-48968750D01*
X211078872Y-49140785D01*
X211129053Y-49306209D01*
X211210542Y-49458664D01*
X211320208Y-49592292D01*
X211326564Y-49597508D01*
X211248815Y-49661315D01*
X211169463Y-49758006D01*
X211110498Y-49868320D01*
X211074188Y-49988018D01*
X211061928Y-50112500D01*
X211065000Y-50314250D01*
X211223750Y-50473000D01*
X212273000Y-50473000D01*
X212273000Y-50453000D01*
X212527000Y-50453000D01*
X212527000Y-50473000D01*
X213576250Y-50473000D01*
X213735000Y-50314250D01*
X213738072Y-50112500D01*
X213725812Y-49988018D01*
X213689502Y-49868320D01*
X213630537Y-49758006D01*
X213551185Y-49661315D01*
X213473436Y-49597508D01*
X213479792Y-49592292D01*
X213589458Y-49458664D01*
X213670947Y-49306209D01*
X213721128Y-49140785D01*
X213738072Y-48968750D01*
X213738072Y-48481250D01*
X213736322Y-48463480D01*
X214339802Y-47860000D01*
X214461928Y-47860000D01*
X214461928Y-49000000D01*
X214474188Y-49124482D01*
X214510498Y-49244180D01*
X214569463Y-49354494D01*
X214648815Y-49451185D01*
X214745506Y-49530537D01*
X214855820Y-49589502D01*
X214975518Y-49625812D01*
X215100000Y-49638072D01*
X217100000Y-49638072D01*
X217224482Y-49625812D01*
X217344180Y-49589502D01*
X217454494Y-49530537D01*
X217551185Y-49451185D01*
X217630537Y-49354494D01*
X217689502Y-49244180D01*
X217725812Y-49124482D01*
X217738072Y-49000000D01*
X217738072Y-47860000D01*
X220762913Y-47860000D01*
X220774188Y-47974482D01*
X220810498Y-48094180D01*
X220869463Y-48204494D01*
X220906809Y-48250000D01*
X220869463Y-48295506D01*
X220810498Y-48405820D01*
X220774188Y-48525518D01*
X220761928Y-48650000D01*
X220765000Y-49114250D01*
X220923750Y-49273000D01*
X222273000Y-49273000D01*
X222273000Y-49253000D01*
X222527000Y-49253000D01*
X222527000Y-49273000D01*
X223876250Y-49273000D01*
X224035000Y-49114250D01*
X224038072Y-48650000D01*
X224025812Y-48525518D01*
X223989502Y-48405820D01*
X223930537Y-48295506D01*
X223893191Y-48250000D01*
X223930537Y-48204494D01*
X223989502Y-48094180D01*
X224010487Y-48025000D01*
X225261928Y-48025000D01*
X225274188Y-48149482D01*
X225310498Y-48269180D01*
X225369463Y-48379494D01*
X225448815Y-48476185D01*
X225545506Y-48555537D01*
X225655820Y-48614502D01*
X225775518Y-48650812D01*
X225900000Y-48663072D01*
X226314250Y-48660000D01*
X226473000Y-48501250D01*
X226473000Y-47664500D01*
X225423750Y-47664500D01*
X225265000Y-47823250D01*
X225261928Y-48025000D01*
X224010487Y-48025000D01*
X224025812Y-47974482D01*
X224038072Y-47850000D01*
X224038072Y-46350000D01*
X224025812Y-46225518D01*
X223989502Y-46105820D01*
X223930537Y-45995506D01*
X223893191Y-45950000D01*
X223930537Y-45904494D01*
X223989502Y-45794180D01*
X224025812Y-45674482D01*
X224032163Y-45610000D01*
X225261928Y-45610000D01*
X225261928Y-45906250D01*
X225278872Y-46078285D01*
X225329053Y-46243709D01*
X225410542Y-46396164D01*
X225520208Y-46529792D01*
X225526564Y-46535008D01*
X225448815Y-46598815D01*
X225369463Y-46695506D01*
X225310498Y-46805820D01*
X225274188Y-46925518D01*
X225261928Y-47050000D01*
X225265000Y-47251750D01*
X225423750Y-47410500D01*
X226473000Y-47410500D01*
X226473000Y-47390500D01*
X226727000Y-47390500D01*
X226727000Y-47410500D01*
X226747000Y-47410500D01*
X226747000Y-47664500D01*
X226727000Y-47664500D01*
X226727000Y-48501250D01*
X226865010Y-48639260D01*
X226865010Y-48789477D01*
X225001978Y-50652510D01*
X223788645Y-50652510D01*
X223851185Y-50601185D01*
X223930537Y-50504494D01*
X223989502Y-50394180D01*
X224025812Y-50274482D01*
X224038072Y-50150000D01*
X224035000Y-49685750D01*
X223876250Y-49527000D01*
X222527000Y-49527000D01*
X222527000Y-49547000D01*
X222273000Y-49547000D01*
X222273000Y-49527000D01*
X220923750Y-49527000D01*
X220765000Y-49685750D01*
X220761928Y-50150000D01*
X220774188Y-50274482D01*
X220810498Y-50394180D01*
X220869463Y-50504494D01*
X220948815Y-50601185D01*
X221011355Y-50652510D01*
X208901131Y-50652510D01*
X208940537Y-50604494D01*
X208999502Y-50494180D01*
X209035812Y-50374482D01*
X209048072Y-50250000D01*
X209048072Y-48550000D01*
X209035812Y-48425518D01*
X208999502Y-48305820D01*
X208940537Y-48195506D01*
X208861185Y-48098815D01*
X208764494Y-48019463D01*
X208654180Y-47960498D01*
X208534482Y-47924188D01*
X208410000Y-47911928D01*
X206710000Y-47911928D01*
X206585518Y-47924188D01*
X206465820Y-47960498D01*
X206355506Y-48019463D01*
X206258815Y-48098815D01*
X206179463Y-48195506D01*
X206120498Y-48305820D01*
X206098487Y-48378380D01*
X205966632Y-48246525D01*
X205723411Y-48084010D01*
X205453158Y-47972068D01*
X205166260Y-47915000D01*
X204873740Y-47915000D01*
X204586842Y-47972068D01*
X204316589Y-48084010D01*
X204073368Y-48246525D01*
X203866525Y-48453368D01*
X203750000Y-48627760D01*
X203633475Y-48453368D01*
X203426632Y-48246525D01*
X203183411Y-48084010D01*
X202913158Y-47972068D01*
X202626260Y-47915000D01*
X202333740Y-47915000D01*
X202046842Y-47972068D01*
X201776589Y-48084010D01*
X201533368Y-48246525D01*
X201326525Y-48453368D01*
X201210000Y-48627760D01*
X201093475Y-48453368D01*
X200886632Y-48246525D01*
X200643411Y-48084010D01*
X200373158Y-47972068D01*
X200086260Y-47915000D01*
X199793740Y-47915000D01*
X199506842Y-47972068D01*
X199236589Y-48084010D01*
X198993368Y-48246525D01*
X198786525Y-48453368D01*
X198670000Y-48627760D01*
X198553475Y-48453368D01*
X198346632Y-48246525D01*
X198103411Y-48084010D01*
X197833158Y-47972068D01*
X197546260Y-47915000D01*
X197253740Y-47915000D01*
X197033592Y-47958790D01*
X195563804Y-46489003D01*
X195540001Y-46459999D01*
X195424276Y-46365026D01*
X195292247Y-46294454D01*
X195148986Y-46250997D01*
X195037333Y-46240000D01*
X195037322Y-46240000D01*
X195000000Y-46236324D01*
X194962678Y-46240000D01*
X167637322Y-46240000D01*
X167599999Y-46236324D01*
X167562676Y-46240000D01*
X167562667Y-46240000D01*
X167451014Y-46250997D01*
X167307753Y-46294454D01*
X167175724Y-46365026D01*
X167059999Y-46459999D01*
X167036201Y-46488997D01*
X166060200Y-47464999D01*
X164727667Y-47464999D01*
X164795226Y-47301898D01*
X164835000Y-47101939D01*
X164835000Y-46898061D01*
X164795226Y-46698102D01*
X164717205Y-46509744D01*
X164603937Y-46340226D01*
X164459774Y-46196063D01*
X164290256Y-46082795D01*
X164101898Y-46004774D01*
X163901939Y-45965000D01*
X163698061Y-45965000D01*
X163498102Y-46004774D01*
X163309744Y-46082795D01*
X163278570Y-46103624D01*
X163251958Y-46053836D01*
X163142292Y-45920208D01*
X163008664Y-45810542D01*
X162856209Y-45729053D01*
X162690785Y-45678872D01*
X162518750Y-45661928D01*
X162031250Y-45661928D01*
X161859215Y-45678872D01*
X161693791Y-45729053D01*
X161541336Y-45810542D01*
X161407708Y-45920208D01*
X161337500Y-46005756D01*
X161267292Y-45920208D01*
X161133664Y-45810542D01*
X160981209Y-45729053D01*
X160815785Y-45678872D01*
X160643750Y-45661928D01*
X160156250Y-45661928D01*
X159984215Y-45678872D01*
X159900414Y-45704293D01*
X159889502Y-45668320D01*
X159830537Y-45558006D01*
X159751185Y-45461315D01*
X159673436Y-45397508D01*
X159679792Y-45392292D01*
X159767845Y-45285000D01*
X169662207Y-45285000D01*
X169888195Y-45510988D01*
G37*
X169888195Y-45510988D02*
X169911998Y-45539992D01*
X170027723Y-45634965D01*
X170159752Y-45705537D01*
X170303013Y-45748994D01*
X170414666Y-45759991D01*
X170414674Y-45759991D01*
X170451999Y-45763667D01*
X170489324Y-45759991D01*
X195085190Y-45759991D01*
X196373700Y-47048502D01*
X196397499Y-47077501D01*
X196426497Y-47101299D01*
X196513223Y-47172474D01*
X196572086Y-47203937D01*
X196645253Y-47243046D01*
X196788514Y-47286503D01*
X196900167Y-47297500D01*
X196900176Y-47297500D01*
X196937499Y-47301176D01*
X196974822Y-47297500D01*
X211232155Y-47297500D01*
X211320208Y-47404792D01*
X211453836Y-47514458D01*
X211606291Y-47595947D01*
X211722669Y-47631250D01*
X211606291Y-47666553D01*
X211453836Y-47748042D01*
X211320208Y-47857708D01*
X211210542Y-47991336D01*
X211129053Y-48143791D01*
X211078872Y-48309215D01*
X211061928Y-48481250D01*
X211061928Y-48968750D01*
X211078872Y-49140785D01*
X211129053Y-49306209D01*
X211210542Y-49458664D01*
X211320208Y-49592292D01*
X211326564Y-49597508D01*
X211248815Y-49661315D01*
X211169463Y-49758006D01*
X211110498Y-49868320D01*
X211074188Y-49988018D01*
X211061928Y-50112500D01*
X211065000Y-50314250D01*
X211223750Y-50473000D01*
X212273000Y-50473000D01*
X212273000Y-50453000D01*
X212527000Y-50453000D01*
X212527000Y-50473000D01*
X213576250Y-50473000D01*
X213735000Y-50314250D01*
X213738072Y-50112500D01*
X213725812Y-49988018D01*
X213689502Y-49868320D01*
X213630537Y-49758006D01*
X213551185Y-49661315D01*
X213473436Y-49597508D01*
X213479792Y-49592292D01*
X213589458Y-49458664D01*
X213670947Y-49306209D01*
X213721128Y-49140785D01*
X213738072Y-48968750D01*
X213738072Y-48481250D01*
X213736322Y-48463480D01*
X214339802Y-47860000D01*
X214461928Y-47860000D01*
X214461928Y-49000000D01*
X214474188Y-49124482D01*
X214510498Y-49244180D01*
X214569463Y-49354494D01*
X214648815Y-49451185D01*
X214745506Y-49530537D01*
X214855820Y-49589502D01*
X214975518Y-49625812D01*
X215100000Y-49638072D01*
X217100000Y-49638072D01*
X217224482Y-49625812D01*
X217344180Y-49589502D01*
X217454494Y-49530537D01*
X217551185Y-49451185D01*
X217630537Y-49354494D01*
X217689502Y-49244180D01*
X217725812Y-49124482D01*
X217738072Y-49000000D01*
X217738072Y-47860000D01*
X220762913Y-47860000D01*
X220774188Y-47974482D01*
X220810498Y-48094180D01*
X220869463Y-48204494D01*
X220906809Y-48250000D01*
X220869463Y-48295506D01*
X220810498Y-48405820D01*
X220774188Y-48525518D01*
X220761928Y-48650000D01*
X220765000Y-49114250D01*
X220923750Y-49273000D01*
X222273000Y-49273000D01*
X222273000Y-49253000D01*
X222527000Y-49253000D01*
X222527000Y-49273000D01*
X223876250Y-49273000D01*
X224035000Y-49114250D01*
X224038072Y-48650000D01*
X224025812Y-48525518D01*
X223989502Y-48405820D01*
X223930537Y-48295506D01*
X223893191Y-48250000D01*
X223930537Y-48204494D01*
X223989502Y-48094180D01*
X224010487Y-48025000D01*
X225261928Y-48025000D01*
X225274188Y-48149482D01*
X225310498Y-48269180D01*
X225369463Y-48379494D01*
X225448815Y-48476185D01*
X225545506Y-48555537D01*
X225655820Y-48614502D01*
X225775518Y-48650812D01*
X225900000Y-48663072D01*
X226314250Y-48660000D01*
X226473000Y-48501250D01*
X226473000Y-47664500D01*
X225423750Y-47664500D01*
X225265000Y-47823250D01*
X225261928Y-48025000D01*
X224010487Y-48025000D01*
X224025812Y-47974482D01*
X224038072Y-47850000D01*
X224038072Y-46350000D01*
X224025812Y-46225518D01*
X223989502Y-46105820D01*
X223930537Y-45995506D01*
X223893191Y-45950000D01*
X223930537Y-45904494D01*
X223989502Y-45794180D01*
X224025812Y-45674482D01*
X224032163Y-45610000D01*
X225261928Y-45610000D01*
X225261928Y-45906250D01*
X225278872Y-46078285D01*
X225329053Y-46243709D01*
X225410542Y-46396164D01*
X225520208Y-46529792D01*
X225526564Y-46535008D01*
X225448815Y-46598815D01*
X225369463Y-46695506D01*
X225310498Y-46805820D01*
X225274188Y-46925518D01*
X225261928Y-47050000D01*
X225265000Y-47251750D01*
X225423750Y-47410500D01*
X226473000Y-47410500D01*
X226473000Y-47390500D01*
X226727000Y-47390500D01*
X226727000Y-47410500D01*
X226747000Y-47410500D01*
X226747000Y-47664500D01*
X226727000Y-47664500D01*
X226727000Y-48501250D01*
X226865010Y-48639260D01*
X226865010Y-48789477D01*
X225001978Y-50652510D01*
X223788645Y-50652510D01*
X223851185Y-50601185D01*
X223930537Y-50504494D01*
X223989502Y-50394180D01*
X224025812Y-50274482D01*
X224038072Y-50150000D01*
X224035000Y-49685750D01*
X223876250Y-49527000D01*
X222527000Y-49527000D01*
X222527000Y-49547000D01*
X222273000Y-49547000D01*
X222273000Y-49527000D01*
X220923750Y-49527000D01*
X220765000Y-49685750D01*
X220761928Y-50150000D01*
X220774188Y-50274482D01*
X220810498Y-50394180D01*
X220869463Y-50504494D01*
X220948815Y-50601185D01*
X221011355Y-50652510D01*
X208901131Y-50652510D01*
X208940537Y-50604494D01*
X208999502Y-50494180D01*
X209035812Y-50374482D01*
X209048072Y-50250000D01*
X209048072Y-48550000D01*
X209035812Y-48425518D01*
X208999502Y-48305820D01*
X208940537Y-48195506D01*
X208861185Y-48098815D01*
X208764494Y-48019463D01*
X208654180Y-47960498D01*
X208534482Y-47924188D01*
X208410000Y-47911928D01*
X206710000Y-47911928D01*
X206585518Y-47924188D01*
X206465820Y-47960498D01*
X206355506Y-48019463D01*
X206258815Y-48098815D01*
X206179463Y-48195506D01*
X206120498Y-48305820D01*
X206098487Y-48378380D01*
X205966632Y-48246525D01*
X205723411Y-48084010D01*
X205453158Y-47972068D01*
X205166260Y-47915000D01*
X204873740Y-47915000D01*
X204586842Y-47972068D01*
X204316589Y-48084010D01*
X204073368Y-48246525D01*
X203866525Y-48453368D01*
X203750000Y-48627760D01*
X203633475Y-48453368D01*
X203426632Y-48246525D01*
X203183411Y-48084010D01*
X202913158Y-47972068D01*
X202626260Y-47915000D01*
X202333740Y-47915000D01*
X202046842Y-47972068D01*
X201776589Y-48084010D01*
X201533368Y-48246525D01*
X201326525Y-48453368D01*
X201210000Y-48627760D01*
X201093475Y-48453368D01*
X200886632Y-48246525D01*
X200643411Y-48084010D01*
X200373158Y-47972068D01*
X200086260Y-47915000D01*
X199793740Y-47915000D01*
X199506842Y-47972068D01*
X199236589Y-48084010D01*
X198993368Y-48246525D01*
X198786525Y-48453368D01*
X198670000Y-48627760D01*
X198553475Y-48453368D01*
X198346632Y-48246525D01*
X198103411Y-48084010D01*
X197833158Y-47972068D01*
X197546260Y-47915000D01*
X197253740Y-47915000D01*
X197033592Y-47958790D01*
X195563804Y-46489003D01*
X195540001Y-46459999D01*
X195424276Y-46365026D01*
X195292247Y-46294454D01*
X195148986Y-46250997D01*
X195037333Y-46240000D01*
X195037322Y-46240000D01*
X195000000Y-46236324D01*
X194962678Y-46240000D01*
X167637322Y-46240000D01*
X167599999Y-46236324D01*
X167562676Y-46240000D01*
X167562667Y-46240000D01*
X167451014Y-46250997D01*
X167307753Y-46294454D01*
X167175724Y-46365026D01*
X167059999Y-46459999D01*
X167036201Y-46488997D01*
X166060200Y-47464999D01*
X164727667Y-47464999D01*
X164795226Y-47301898D01*
X164835000Y-47101939D01*
X164835000Y-46898061D01*
X164795226Y-46698102D01*
X164717205Y-46509744D01*
X164603937Y-46340226D01*
X164459774Y-46196063D01*
X164290256Y-46082795D01*
X164101898Y-46004774D01*
X163901939Y-45965000D01*
X163698061Y-45965000D01*
X163498102Y-46004774D01*
X163309744Y-46082795D01*
X163278570Y-46103624D01*
X163251958Y-46053836D01*
X163142292Y-45920208D01*
X163008664Y-45810542D01*
X162856209Y-45729053D01*
X162690785Y-45678872D01*
X162518750Y-45661928D01*
X162031250Y-45661928D01*
X161859215Y-45678872D01*
X161693791Y-45729053D01*
X161541336Y-45810542D01*
X161407708Y-45920208D01*
X161337500Y-46005756D01*
X161267292Y-45920208D01*
X161133664Y-45810542D01*
X160981209Y-45729053D01*
X160815785Y-45678872D01*
X160643750Y-45661928D01*
X160156250Y-45661928D01*
X159984215Y-45678872D01*
X159900414Y-45704293D01*
X159889502Y-45668320D01*
X159830537Y-45558006D01*
X159751185Y-45461315D01*
X159673436Y-45397508D01*
X159679792Y-45392292D01*
X159767845Y-45285000D01*
X169662207Y-45285000D01*
X169888195Y-45510988D01*
G36*
X222272998Y-50652510D02*
G01*
X222246740Y-50652510D01*
X222272998Y-50626252D01*
X222272998Y-50652510D01*
G37*
X222272998Y-50652510D02*
X222246740Y-50652510D01*
X222272998Y-50626252D01*
X222272998Y-50652510D01*
G36*
X158727000Y-46273000D02*
G01*
X158747000Y-46273000D01*
X158747000Y-46527000D01*
X158727000Y-46527000D01*
X158727000Y-46547000D01*
X158473000Y-46547000D01*
X158473000Y-46527000D01*
X158453000Y-46527000D01*
X158453000Y-46273000D01*
X158473000Y-46273000D01*
X158473000Y-46253000D01*
X158727000Y-46253000D01*
X158727000Y-46273000D01*
G37*
X158727000Y-46273000D02*
X158747000Y-46273000D01*
X158747000Y-46527000D01*
X158727000Y-46527000D01*
X158727000Y-46547000D01*
X158473000Y-46547000D01*
X158473000Y-46527000D01*
X158453000Y-46527000D01*
X158453000Y-46273000D01*
X158473000Y-46273000D01*
X158473000Y-46253000D01*
X158727000Y-46253000D01*
X158727000Y-46273000D01*
G36*
X211065000Y-44376750D02*
G01*
X211223750Y-44535500D01*
X212273000Y-44535500D01*
X212273000Y-44515500D01*
X212527000Y-44515500D01*
X212527000Y-44535500D01*
X213576250Y-44535500D01*
X213735000Y-44376750D01*
X213736778Y-44260000D01*
X220761928Y-44260000D01*
X220761928Y-45550000D01*
X220774188Y-45674482D01*
X220810498Y-45794180D01*
X220869463Y-45904494D01*
X220906809Y-45950000D01*
X220869463Y-45995506D01*
X220810498Y-46105820D01*
X220774188Y-46225518D01*
X220762913Y-46340000D01*
X217738072Y-46340000D01*
X217738072Y-45200000D01*
X217725812Y-45075518D01*
X217689502Y-44955820D01*
X217630537Y-44845506D01*
X217551185Y-44748815D01*
X217454494Y-44669463D01*
X217344180Y-44610498D01*
X217224482Y-44574188D01*
X217100000Y-44561928D01*
X215100000Y-44561928D01*
X214975518Y-44574188D01*
X214855820Y-44610498D01*
X214745506Y-44669463D01*
X214648815Y-44748815D01*
X214569463Y-44845506D01*
X214510498Y-44955820D01*
X214474188Y-45075518D01*
X214461928Y-45200000D01*
X214461928Y-46340000D01*
X214062322Y-46340000D01*
X214024999Y-46336324D01*
X213987676Y-46340000D01*
X213738072Y-46340000D01*
X213738072Y-46293750D01*
X213721128Y-46121715D01*
X213670947Y-45956291D01*
X213589458Y-45803836D01*
X213479792Y-45670208D01*
X213473436Y-45664992D01*
X213551185Y-45601185D01*
X213630537Y-45504494D01*
X213689502Y-45394180D01*
X213725812Y-45274482D01*
X213738072Y-45150000D01*
X213735000Y-44948250D01*
X213576250Y-44789500D01*
X212527000Y-44789500D01*
X212527000Y-44809500D01*
X212273000Y-44809500D01*
X212273000Y-44789500D01*
X211223750Y-44789500D01*
X211065000Y-44948250D01*
X211061928Y-45150000D01*
X211074188Y-45274482D01*
X211110498Y-45394180D01*
X211169463Y-45504494D01*
X211248815Y-45601185D01*
X211326564Y-45664992D01*
X211320208Y-45670208D01*
X211232155Y-45777500D01*
X197252302Y-45777500D01*
X195963795Y-44488994D01*
X195939992Y-44459990D01*
X195824267Y-44365017D01*
X195692238Y-44294445D01*
X195578686Y-44260000D01*
X211063222Y-44260000D01*
X211065000Y-44376750D01*
G37*
X211065000Y-44376750D02*
X211223750Y-44535500D01*
X212273000Y-44535500D01*
X212273000Y-44515500D01*
X212527000Y-44515500D01*
X212527000Y-44535500D01*
X213576250Y-44535500D01*
X213735000Y-44376750D01*
X213736778Y-44260000D01*
X220761928Y-44260000D01*
X220761928Y-45550000D01*
X220774188Y-45674482D01*
X220810498Y-45794180D01*
X220869463Y-45904494D01*
X220906809Y-45950000D01*
X220869463Y-45995506D01*
X220810498Y-46105820D01*
X220774188Y-46225518D01*
X220762913Y-46340000D01*
X217738072Y-46340000D01*
X217738072Y-45200000D01*
X217725812Y-45075518D01*
X217689502Y-44955820D01*
X217630537Y-44845506D01*
X217551185Y-44748815D01*
X217454494Y-44669463D01*
X217344180Y-44610498D01*
X217224482Y-44574188D01*
X217100000Y-44561928D01*
X215100000Y-44561928D01*
X214975518Y-44574188D01*
X214855820Y-44610498D01*
X214745506Y-44669463D01*
X214648815Y-44748815D01*
X214569463Y-44845506D01*
X214510498Y-44955820D01*
X214474188Y-45075518D01*
X214461928Y-45200000D01*
X214461928Y-46340000D01*
X214062322Y-46340000D01*
X214024999Y-46336324D01*
X213987676Y-46340000D01*
X213738072Y-46340000D01*
X213738072Y-46293750D01*
X213721128Y-46121715D01*
X213670947Y-45956291D01*
X213589458Y-45803836D01*
X213479792Y-45670208D01*
X213473436Y-45664992D01*
X213551185Y-45601185D01*
X213630537Y-45504494D01*
X213689502Y-45394180D01*
X213725812Y-45274482D01*
X213738072Y-45150000D01*
X213735000Y-44948250D01*
X213576250Y-44789500D01*
X212527000Y-44789500D01*
X212527000Y-44809500D01*
X212273000Y-44809500D01*
X212273000Y-44789500D01*
X211223750Y-44789500D01*
X211065000Y-44948250D01*
X211061928Y-45150000D01*
X211074188Y-45274482D01*
X211110498Y-45394180D01*
X211169463Y-45504494D01*
X211248815Y-45601185D01*
X211326564Y-45664992D01*
X211320208Y-45670208D01*
X211232155Y-45777500D01*
X197252302Y-45777500D01*
X195963795Y-44488994D01*
X195939992Y-44459990D01*
X195824267Y-44365017D01*
X195692238Y-44294445D01*
X195578686Y-44260000D01*
X211063222Y-44260000D01*
X211065000Y-44376750D01*
M02*
