G04 #@! TF.GenerationSoftware,KiCad,Pcbnew,(5.1.5)-3*
G04 #@! TF.CreationDate,2020-07-15T19:05:24-05:00*
G04 #@! TF.ProjectId,PikateaBSB,50696b61-7465-4614-9253-422e6b696361,rev?*
G04 #@! TF.SameCoordinates,Original*
G04 #@! TF.FileFunction,Legend,Top*
G04 #@! TF.FilePolarity,Positive*
%FSLAX46Y46*%
G04 Gerber Fmt 4.6, Leading zero omitted, Abs format (unit mm)*
G04 Created by KiCad (PCBNEW (5.1.5)-3) date 2020-07-15 19:05:24*
%MOMM*%
%LPD*%
G04 APERTURE LIST*
%ADD10C,0.150000*%
%ADD11C,0.120000*%
G04 APERTURE END LIST*
D10*
X150075000Y-45500000D02*
X148725000Y-45500000D01*
X150075000Y-50625000D02*
X154725000Y-50625000D01*
X150075000Y-45375000D02*
X154725000Y-45375000D01*
X150075000Y-50625000D02*
X150075000Y-50400000D01*
X154725000Y-50625000D02*
X154725000Y-50400000D01*
X154725000Y-45375000D02*
X154725000Y-45600000D01*
X150075000Y-45375000D02*
X150075000Y-45500000D01*
D11*
X134870000Y-55670000D02*
X136200000Y-55670000D01*
X134870000Y-57000000D02*
X134870000Y-55670000D01*
X134870000Y-58270000D02*
X137530000Y-58270000D01*
X137530000Y-58270000D02*
X137530000Y-63410000D01*
X134870000Y-58270000D02*
X134870000Y-63410000D01*
X134870000Y-63410000D02*
X137530000Y-63410000D01*
X119130000Y-63410000D02*
X117800000Y-63410000D01*
X119130000Y-62080000D02*
X119130000Y-63410000D01*
X119130000Y-60810000D02*
X116470000Y-60810000D01*
X116470000Y-60810000D02*
X116470000Y-55670000D01*
X119130000Y-60810000D02*
X119130000Y-55670000D01*
X119130000Y-55670000D02*
X116470000Y-55670000D01*
X208890000Y-48070000D02*
X208890000Y-49400000D01*
X207560000Y-48070000D02*
X208890000Y-48070000D01*
X206290000Y-48070000D02*
X206290000Y-50730000D01*
X206290000Y-50730000D02*
X168130000Y-50730000D01*
X206290000Y-48070000D02*
X168130000Y-48070000D01*
X168130000Y-48070000D02*
X168130000Y-50730000D01*
D10*
X149600000Y-53200000D02*
X152600000Y-53200000D01*
X149150000Y-54100000D02*
X149150000Y-53800000D01*
X148850000Y-54100000D02*
X149150000Y-54100000D01*
X148850000Y-53800000D02*
X148850000Y-54100000D01*
X149150000Y-53800000D02*
X148850000Y-53800000D01*
X154150000Y-54200000D02*
X154150000Y-61400000D01*
X154150000Y-67200000D02*
X154150000Y-64200000D01*
X151450000Y-67200000D02*
X154150000Y-67200000D01*
X139450000Y-64200000D02*
X139450000Y-66500000D01*
X139450000Y-61400000D02*
X139450000Y-54200000D01*
X149600000Y-53200000D02*
X149600000Y-51900000D01*
X150400000Y-66900000D02*
X151450000Y-67200000D01*
X149300000Y-66700000D02*
X150400000Y-66900000D01*
X148150000Y-66550000D02*
X149300000Y-66700000D01*
X146800000Y-66500000D02*
X148150000Y-66550000D01*
X139450000Y-66500000D02*
X146800000Y-66500000D01*
D11*
X223350000Y-50510000D02*
X217340000Y-50510000D01*
X221100000Y-43690000D02*
X217340000Y-43690000D01*
X217340000Y-50510000D02*
X217340000Y-49250000D01*
X217340000Y-43690000D02*
X217340000Y-44950000D01*
X144403922Y-47910000D02*
X144921078Y-47910000D01*
X144403922Y-46490000D02*
X144921078Y-46490000D01*
X144403922Y-45910000D02*
X144921078Y-45910000D01*
X144403922Y-44490000D02*
X144921078Y-44490000D01*
X161596078Y-48290000D02*
X161078922Y-48290000D01*
X161596078Y-49710000D02*
X161078922Y-49710000D01*
X161078922Y-47710000D02*
X161596078Y-47710000D01*
X161078922Y-46290000D02*
X161596078Y-46290000D01*
X211690000Y-49403922D02*
X211690000Y-49921078D01*
X213110000Y-49403922D02*
X213110000Y-49921078D01*
X157890000Y-45203922D02*
X157890000Y-45721078D01*
X159310000Y-45203922D02*
X159310000Y-45721078D01*
X225890000Y-46341422D02*
X225890000Y-46858578D01*
X227310000Y-46341422D02*
X227310000Y-46858578D01*
X213110000Y-45858578D02*
X213110000Y-45341422D01*
X211690000Y-45858578D02*
X211690000Y-45341422D01*
D10*
X151638095Y-44252380D02*
X151638095Y-45061904D01*
X151685714Y-45157142D01*
X151733333Y-45204761D01*
X151828571Y-45252380D01*
X152019047Y-45252380D01*
X152114285Y-45204761D01*
X152161904Y-45157142D01*
X152209523Y-45061904D01*
X152209523Y-44252380D01*
X152638095Y-44347619D02*
X152685714Y-44300000D01*
X152780952Y-44252380D01*
X153019047Y-44252380D01*
X153114285Y-44300000D01*
X153161904Y-44347619D01*
X153209523Y-44442857D01*
X153209523Y-44538095D01*
X153161904Y-44680952D01*
X152590476Y-45252380D01*
X153209523Y-45252380D01*
X135866666Y-54122380D02*
X135866666Y-54836666D01*
X135819047Y-54979523D01*
X135723809Y-55074761D01*
X135580952Y-55122380D01*
X135485714Y-55122380D01*
X136247619Y-54122380D02*
X136866666Y-54122380D01*
X136533333Y-54503333D01*
X136676190Y-54503333D01*
X136771428Y-54550952D01*
X136819047Y-54598571D01*
X136866666Y-54693809D01*
X136866666Y-54931904D01*
X136819047Y-55027142D01*
X136771428Y-55074761D01*
X136676190Y-55122380D01*
X136390476Y-55122380D01*
X136295238Y-55074761D01*
X136247619Y-55027142D01*
X117466666Y-63862380D02*
X117466666Y-64576666D01*
X117419047Y-64719523D01*
X117323809Y-64814761D01*
X117180952Y-64862380D01*
X117085714Y-64862380D01*
X117895238Y-63957619D02*
X117942857Y-63910000D01*
X118038095Y-63862380D01*
X118276190Y-63862380D01*
X118371428Y-63910000D01*
X118419047Y-63957619D01*
X118466666Y-64052857D01*
X118466666Y-64148095D01*
X118419047Y-64290952D01*
X117847619Y-64862380D01*
X118466666Y-64862380D01*
X207266666Y-46652380D02*
X207266666Y-47366666D01*
X207219047Y-47509523D01*
X207123809Y-47604761D01*
X206980952Y-47652380D01*
X206885714Y-47652380D01*
X208266666Y-47652380D02*
X207695238Y-47652380D01*
X207980952Y-47652380D02*
X207980952Y-46652380D01*
X207885714Y-46795238D01*
X207790476Y-46890476D01*
X207695238Y-46938095D01*
X218488095Y-51052380D02*
X218488095Y-51861904D01*
X218535714Y-51957142D01*
X218583333Y-52004761D01*
X218678571Y-52052380D01*
X218869047Y-52052380D01*
X218964285Y-52004761D01*
X219011904Y-51957142D01*
X219059523Y-51861904D01*
X219059523Y-51052380D01*
X220059523Y-52052380D02*
X219488095Y-52052380D01*
X219773809Y-52052380D02*
X219773809Y-51052380D01*
X219678571Y-51195238D01*
X219583333Y-51290476D01*
X219488095Y-51338095D01*
X144495833Y-49252380D02*
X144162500Y-48776190D01*
X143924404Y-49252380D02*
X143924404Y-48252380D01*
X144305357Y-48252380D01*
X144400595Y-48300000D01*
X144448214Y-48347619D01*
X144495833Y-48442857D01*
X144495833Y-48585714D01*
X144448214Y-48680952D01*
X144400595Y-48728571D01*
X144305357Y-48776190D01*
X143924404Y-48776190D01*
X145352976Y-48585714D02*
X145352976Y-49252380D01*
X145114880Y-48204761D02*
X144876785Y-48919047D01*
X145495833Y-48919047D01*
X144495833Y-44002380D02*
X144162500Y-43526190D01*
X143924404Y-44002380D02*
X143924404Y-43002380D01*
X144305357Y-43002380D01*
X144400595Y-43050000D01*
X144448214Y-43097619D01*
X144495833Y-43192857D01*
X144495833Y-43335714D01*
X144448214Y-43430952D01*
X144400595Y-43478571D01*
X144305357Y-43526190D01*
X143924404Y-43526190D01*
X144829166Y-43002380D02*
X145448214Y-43002380D01*
X145114880Y-43383333D01*
X145257738Y-43383333D01*
X145352976Y-43430952D01*
X145400595Y-43478571D01*
X145448214Y-43573809D01*
X145448214Y-43811904D01*
X145400595Y-43907142D01*
X145352976Y-43954761D01*
X145257738Y-44002380D01*
X144972023Y-44002380D01*
X144876785Y-43954761D01*
X144829166Y-43907142D01*
X161170833Y-51102380D02*
X160837500Y-50626190D01*
X160599404Y-51102380D02*
X160599404Y-50102380D01*
X160980357Y-50102380D01*
X161075595Y-50150000D01*
X161123214Y-50197619D01*
X161170833Y-50292857D01*
X161170833Y-50435714D01*
X161123214Y-50530952D01*
X161075595Y-50578571D01*
X160980357Y-50626190D01*
X160599404Y-50626190D01*
X161551785Y-50197619D02*
X161599404Y-50150000D01*
X161694642Y-50102380D01*
X161932738Y-50102380D01*
X162027976Y-50150000D01*
X162075595Y-50197619D01*
X162123214Y-50292857D01*
X162123214Y-50388095D01*
X162075595Y-50530952D01*
X161504166Y-51102380D01*
X162123214Y-51102380D01*
X161170833Y-45802380D02*
X160837500Y-45326190D01*
X160599404Y-45802380D02*
X160599404Y-44802380D01*
X160980357Y-44802380D01*
X161075595Y-44850000D01*
X161123214Y-44897619D01*
X161170833Y-44992857D01*
X161170833Y-45135714D01*
X161123214Y-45230952D01*
X161075595Y-45278571D01*
X160980357Y-45326190D01*
X160599404Y-45326190D01*
X162123214Y-45802380D02*
X161551785Y-45802380D01*
X161837500Y-45802380D02*
X161837500Y-44802380D01*
X161742261Y-44945238D01*
X161647023Y-45040476D01*
X161551785Y-45088095D01*
X214407142Y-49829166D02*
X214454761Y-49876785D01*
X214502380Y-50019642D01*
X214502380Y-50114880D01*
X214454761Y-50257738D01*
X214359523Y-50352976D01*
X214264285Y-50400595D01*
X214073809Y-50448214D01*
X213930952Y-50448214D01*
X213740476Y-50400595D01*
X213645238Y-50352976D01*
X213550000Y-50257738D01*
X213502380Y-50114880D01*
X213502380Y-50019642D01*
X213550000Y-49876785D01*
X213597619Y-49829166D01*
X213835714Y-48972023D02*
X214502380Y-48972023D01*
X213454761Y-49210119D02*
X214169047Y-49448214D01*
X214169047Y-48829166D01*
X157357142Y-45629166D02*
X157404761Y-45676785D01*
X157452380Y-45819642D01*
X157452380Y-45914880D01*
X157404761Y-46057738D01*
X157309523Y-46152976D01*
X157214285Y-46200595D01*
X157023809Y-46248214D01*
X156880952Y-46248214D01*
X156690476Y-46200595D01*
X156595238Y-46152976D01*
X156500000Y-46057738D01*
X156452380Y-45914880D01*
X156452380Y-45819642D01*
X156500000Y-45676785D01*
X156547619Y-45629166D01*
X156452380Y-45295833D02*
X156452380Y-44676785D01*
X156833333Y-45010119D01*
X156833333Y-44867261D01*
X156880952Y-44772023D01*
X156928571Y-44724404D01*
X157023809Y-44676785D01*
X157261904Y-44676785D01*
X157357142Y-44724404D01*
X157404761Y-44772023D01*
X157452380Y-44867261D01*
X157452380Y-45152976D01*
X157404761Y-45248214D01*
X157357142Y-45295833D01*
X228607142Y-46766666D02*
X228654761Y-46814285D01*
X228702380Y-46957142D01*
X228702380Y-47052380D01*
X228654761Y-47195238D01*
X228559523Y-47290476D01*
X228464285Y-47338095D01*
X228273809Y-47385714D01*
X228130952Y-47385714D01*
X227940476Y-47338095D01*
X227845238Y-47290476D01*
X227750000Y-47195238D01*
X227702380Y-47052380D01*
X227702380Y-46957142D01*
X227750000Y-46814285D01*
X227797619Y-46766666D01*
X227797619Y-46385714D02*
X227750000Y-46338095D01*
X227702380Y-46242857D01*
X227702380Y-46004761D01*
X227750000Y-45909523D01*
X227797619Y-45861904D01*
X227892857Y-45814285D01*
X227988095Y-45814285D01*
X228130952Y-45861904D01*
X228702380Y-46433333D01*
X228702380Y-45814285D01*
X211107142Y-45766666D02*
X211154761Y-45814285D01*
X211202380Y-45957142D01*
X211202380Y-46052380D01*
X211154761Y-46195238D01*
X211059523Y-46290476D01*
X210964285Y-46338095D01*
X210773809Y-46385714D01*
X210630952Y-46385714D01*
X210440476Y-46338095D01*
X210345238Y-46290476D01*
X210250000Y-46195238D01*
X210202380Y-46052380D01*
X210202380Y-45957142D01*
X210250000Y-45814285D01*
X210297619Y-45766666D01*
X211202380Y-44814285D02*
X211202380Y-45385714D01*
X211202380Y-45100000D02*
X210202380Y-45100000D01*
X210345238Y-45195238D01*
X210440476Y-45290476D01*
X210488095Y-45385714D01*
M02*
