%TF.GenerationSoftware,KiCad,Pcbnew,(5.1.6)-1*%
%TF.CreationDate,2021-03-25T17:16:49-05:00*%
%TF.ProjectId,Pikatea Macropad GB3,50696b61-7465-4612-904d-6163726f7061,rev?*%
%TF.SameCoordinates,Original*%
%TF.FileFunction,Soldermask,Bot*%
%TF.FilePolarity,Negative*%
%FSLAX46Y46*%
G04 Gerber Fmt 4.6, Leading zero omitted, Abs format (unit mm)*
G04 Created by KiCad (PCBNEW (5.1.6)-1) date 2021-03-25 17:16:49*
%MOMM*%
%LPD*%
G01*
G04 APERTURE LIST*
%ADD10O,1.800000X1.800000*%
%ADD11R,1.800000X1.800000*%
%ADD12C,1.100000*%
%ADD13C,1.116000*%
%ADD14C,1.850000*%
%ADD15C,4.087800*%
%ADD16O,2.000000X1.300000*%
%ADD17C,1.200000*%
G04 APERTURE END LIST*
D10*
%TO.C,J7*%
X160000000Y-102120000D03*
X160000000Y-104660000D03*
D11*
X160000000Y-107200000D03*
%TD*%
D10*
%TO.C,J3*%
X140000000Y-102120000D03*
X140000000Y-104660000D03*
D11*
X140000000Y-107200000D03*
%TD*%
D12*
%TO.C,J6*%
X177580000Y-113550000D03*
X177580000Y-112150000D03*
X177580000Y-110750000D03*
X177580000Y-109350000D03*
X177580000Y-107950000D03*
X177580000Y-103750000D03*
X177580000Y-105150000D03*
X177580000Y-106550000D03*
X177580000Y-102350000D03*
X177580000Y-100950000D03*
X177580000Y-99550000D03*
%TD*%
D13*
%TO.C,J1*%
X97460000Y-94789000D03*
X97460000Y-96821000D03*
X102540000Y-95805000D03*
%TD*%
D14*
%TO.C,MX5*%
X212130000Y-104920000D03*
X201970000Y-104920000D03*
D15*
X207050000Y-104920000D03*
%TD*%
D14*
%TO.C,MX4*%
X193080000Y-104920000D03*
X182920000Y-104920000D03*
D15*
X188000000Y-104920000D03*
%TD*%
D14*
%TO.C,MX3*%
X174030000Y-104920000D03*
X163870000Y-104920000D03*
D15*
X168950000Y-104920000D03*
%TD*%
D14*
%TO.C,MX2*%
X154980000Y-104920000D03*
X144820000Y-104920000D03*
D15*
X149900000Y-104920000D03*
%TD*%
D14*
%TO.C,MX1*%
X135930000Y-104920000D03*
X125770000Y-104920000D03*
D15*
X130850000Y-104920000D03*
%TD*%
D16*
%TO.C,J2*%
X133960000Y-89510000D03*
X133960000Y-96810000D03*
D17*
X133360000Y-94760000D03*
X134560000Y-93960000D03*
X133360000Y-93160000D03*
X134560000Y-92360000D03*
X133360000Y-91560000D03*
D16*
X138780000Y-96810000D03*
X138780000Y-89510000D03*
%TD*%
D10*
%TO.C,J4*%
X114046000Y-112522000D03*
X114046000Y-109982000D03*
D11*
X114046000Y-107442000D03*
%TD*%
D10*
%TO.C,J5*%
X197760000Y-109390000D03*
X197760000Y-106850000D03*
D11*
X197760000Y-104310000D03*
%TD*%
%TO.C,SW2*%
X109450000Y-102360000D03*
X109450000Y-107440000D03*
X91350000Y-104900000D03*
X91350000Y-102360000D03*
X91350000Y-107440000D03*
%TD*%
M02*
