%TF.GenerationSoftware,KiCad,Pcbnew,(5.1.5)-3*%
%TF.CreationDate,2021-05-14T13:57:34-05:00*%
%TF.ProjectId,Pikatea Macropad GB3,50696b61-7465-4612-904d-6163726f7061,rev?*%
%TF.SameCoordinates,Original*%
%TF.FileFunction,Paste,Top*%
%TF.FilePolarity,Positive*%
%FSLAX46Y46*%
G04 Gerber Fmt 4.6, Leading zero omitted, Abs format (unit mm)*
G04 Created by KiCad (PCBNEW (5.1.5)-3) date 2021-05-14 13:57:34*
%MOMM*%
%LPD*%
G04 APERTURE LIST*
%ADD10R,1.700000X1.000000*%
%ADD11R,1.200000X1.400000*%
%ADD12C,0.100000*%
G04 APERTURE END LIST*
D10*
%TO.C,SW1*%
X122936000Y-112766000D03*
X116636000Y-112766000D03*
X122936000Y-108966000D03*
X116636000Y-108966000D03*
%TD*%
D11*
%TO.C,X1*%
X107620000Y-94996000D03*
X107620000Y-92796000D03*
X109220000Y-92796000D03*
X109220000Y-94996000D03*
%TD*%
D12*
%TO.C,R5*%
G36*
X129292642Y-94031174D02*
G01*
X129316303Y-94034684D01*
X129339507Y-94040496D01*
X129362029Y-94048554D01*
X129383653Y-94058782D01*
X129404170Y-94071079D01*
X129423383Y-94085329D01*
X129441107Y-94101393D01*
X129457171Y-94119117D01*
X129471421Y-94138330D01*
X129483718Y-94158847D01*
X129493946Y-94180471D01*
X129502004Y-94202993D01*
X129507816Y-94226197D01*
X129511326Y-94249858D01*
X129512500Y-94273750D01*
X129512500Y-95186250D01*
X129511326Y-95210142D01*
X129507816Y-95233803D01*
X129502004Y-95257007D01*
X129493946Y-95279529D01*
X129483718Y-95301153D01*
X129471421Y-95321670D01*
X129457171Y-95340883D01*
X129441107Y-95358607D01*
X129423383Y-95374671D01*
X129404170Y-95388921D01*
X129383653Y-95401218D01*
X129362029Y-95411446D01*
X129339507Y-95419504D01*
X129316303Y-95425316D01*
X129292642Y-95428826D01*
X129268750Y-95430000D01*
X128781250Y-95430000D01*
X128757358Y-95428826D01*
X128733697Y-95425316D01*
X128710493Y-95419504D01*
X128687971Y-95411446D01*
X128666347Y-95401218D01*
X128645830Y-95388921D01*
X128626617Y-95374671D01*
X128608893Y-95358607D01*
X128592829Y-95340883D01*
X128578579Y-95321670D01*
X128566282Y-95301153D01*
X128556054Y-95279529D01*
X128547996Y-95257007D01*
X128542184Y-95233803D01*
X128538674Y-95210142D01*
X128537500Y-95186250D01*
X128537500Y-94273750D01*
X128538674Y-94249858D01*
X128542184Y-94226197D01*
X128547996Y-94202993D01*
X128556054Y-94180471D01*
X128566282Y-94158847D01*
X128578579Y-94138330D01*
X128592829Y-94119117D01*
X128608893Y-94101393D01*
X128626617Y-94085329D01*
X128645830Y-94071079D01*
X128666347Y-94058782D01*
X128687971Y-94048554D01*
X128710493Y-94040496D01*
X128733697Y-94034684D01*
X128757358Y-94031174D01*
X128781250Y-94030000D01*
X129268750Y-94030000D01*
X129292642Y-94031174D01*
G37*
G36*
X131167642Y-94031174D02*
G01*
X131191303Y-94034684D01*
X131214507Y-94040496D01*
X131237029Y-94048554D01*
X131258653Y-94058782D01*
X131279170Y-94071079D01*
X131298383Y-94085329D01*
X131316107Y-94101393D01*
X131332171Y-94119117D01*
X131346421Y-94138330D01*
X131358718Y-94158847D01*
X131368946Y-94180471D01*
X131377004Y-94202993D01*
X131382816Y-94226197D01*
X131386326Y-94249858D01*
X131387500Y-94273750D01*
X131387500Y-95186250D01*
X131386326Y-95210142D01*
X131382816Y-95233803D01*
X131377004Y-95257007D01*
X131368946Y-95279529D01*
X131358718Y-95301153D01*
X131346421Y-95321670D01*
X131332171Y-95340883D01*
X131316107Y-95358607D01*
X131298383Y-95374671D01*
X131279170Y-95388921D01*
X131258653Y-95401218D01*
X131237029Y-95411446D01*
X131214507Y-95419504D01*
X131191303Y-95425316D01*
X131167642Y-95428826D01*
X131143750Y-95430000D01*
X130656250Y-95430000D01*
X130632358Y-95428826D01*
X130608697Y-95425316D01*
X130585493Y-95419504D01*
X130562971Y-95411446D01*
X130541347Y-95401218D01*
X130520830Y-95388921D01*
X130501617Y-95374671D01*
X130483893Y-95358607D01*
X130467829Y-95340883D01*
X130453579Y-95321670D01*
X130441282Y-95301153D01*
X130431054Y-95279529D01*
X130422996Y-95257007D01*
X130417184Y-95233803D01*
X130413674Y-95210142D01*
X130412500Y-95186250D01*
X130412500Y-94273750D01*
X130413674Y-94249858D01*
X130417184Y-94226197D01*
X130422996Y-94202993D01*
X130431054Y-94180471D01*
X130441282Y-94158847D01*
X130453579Y-94138330D01*
X130467829Y-94119117D01*
X130483893Y-94101393D01*
X130501617Y-94085329D01*
X130520830Y-94071079D01*
X130541347Y-94058782D01*
X130562971Y-94048554D01*
X130585493Y-94040496D01*
X130608697Y-94034684D01*
X130632358Y-94031174D01*
X130656250Y-94030000D01*
X131143750Y-94030000D01*
X131167642Y-94031174D01*
G37*
%TD*%
%TO.C,R4*%
G36*
X129292642Y-91491174D02*
G01*
X129316303Y-91494684D01*
X129339507Y-91500496D01*
X129362029Y-91508554D01*
X129383653Y-91518782D01*
X129404170Y-91531079D01*
X129423383Y-91545329D01*
X129441107Y-91561393D01*
X129457171Y-91579117D01*
X129471421Y-91598330D01*
X129483718Y-91618847D01*
X129493946Y-91640471D01*
X129502004Y-91662993D01*
X129507816Y-91686197D01*
X129511326Y-91709858D01*
X129512500Y-91733750D01*
X129512500Y-92646250D01*
X129511326Y-92670142D01*
X129507816Y-92693803D01*
X129502004Y-92717007D01*
X129493946Y-92739529D01*
X129483718Y-92761153D01*
X129471421Y-92781670D01*
X129457171Y-92800883D01*
X129441107Y-92818607D01*
X129423383Y-92834671D01*
X129404170Y-92848921D01*
X129383653Y-92861218D01*
X129362029Y-92871446D01*
X129339507Y-92879504D01*
X129316303Y-92885316D01*
X129292642Y-92888826D01*
X129268750Y-92890000D01*
X128781250Y-92890000D01*
X128757358Y-92888826D01*
X128733697Y-92885316D01*
X128710493Y-92879504D01*
X128687971Y-92871446D01*
X128666347Y-92861218D01*
X128645830Y-92848921D01*
X128626617Y-92834671D01*
X128608893Y-92818607D01*
X128592829Y-92800883D01*
X128578579Y-92781670D01*
X128566282Y-92761153D01*
X128556054Y-92739529D01*
X128547996Y-92717007D01*
X128542184Y-92693803D01*
X128538674Y-92670142D01*
X128537500Y-92646250D01*
X128537500Y-91733750D01*
X128538674Y-91709858D01*
X128542184Y-91686197D01*
X128547996Y-91662993D01*
X128556054Y-91640471D01*
X128566282Y-91618847D01*
X128578579Y-91598330D01*
X128592829Y-91579117D01*
X128608893Y-91561393D01*
X128626617Y-91545329D01*
X128645830Y-91531079D01*
X128666347Y-91518782D01*
X128687971Y-91508554D01*
X128710493Y-91500496D01*
X128733697Y-91494684D01*
X128757358Y-91491174D01*
X128781250Y-91490000D01*
X129268750Y-91490000D01*
X129292642Y-91491174D01*
G37*
G36*
X131167642Y-91491174D02*
G01*
X131191303Y-91494684D01*
X131214507Y-91500496D01*
X131237029Y-91508554D01*
X131258653Y-91518782D01*
X131279170Y-91531079D01*
X131298383Y-91545329D01*
X131316107Y-91561393D01*
X131332171Y-91579117D01*
X131346421Y-91598330D01*
X131358718Y-91618847D01*
X131368946Y-91640471D01*
X131377004Y-91662993D01*
X131382816Y-91686197D01*
X131386326Y-91709858D01*
X131387500Y-91733750D01*
X131387500Y-92646250D01*
X131386326Y-92670142D01*
X131382816Y-92693803D01*
X131377004Y-92717007D01*
X131368946Y-92739529D01*
X131358718Y-92761153D01*
X131346421Y-92781670D01*
X131332171Y-92800883D01*
X131316107Y-92818607D01*
X131298383Y-92834671D01*
X131279170Y-92848921D01*
X131258653Y-92861218D01*
X131237029Y-92871446D01*
X131214507Y-92879504D01*
X131191303Y-92885316D01*
X131167642Y-92888826D01*
X131143750Y-92890000D01*
X130656250Y-92890000D01*
X130632358Y-92888826D01*
X130608697Y-92885316D01*
X130585493Y-92879504D01*
X130562971Y-92871446D01*
X130541347Y-92861218D01*
X130520830Y-92848921D01*
X130501617Y-92834671D01*
X130483893Y-92818607D01*
X130467829Y-92800883D01*
X130453579Y-92781670D01*
X130441282Y-92761153D01*
X130431054Y-92739529D01*
X130422996Y-92717007D01*
X130417184Y-92693803D01*
X130413674Y-92670142D01*
X130412500Y-92646250D01*
X130412500Y-91733750D01*
X130413674Y-91709858D01*
X130417184Y-91686197D01*
X130422996Y-91662993D01*
X130431054Y-91640471D01*
X130441282Y-91618847D01*
X130453579Y-91598330D01*
X130467829Y-91579117D01*
X130483893Y-91561393D01*
X130501617Y-91545329D01*
X130520830Y-91531079D01*
X130541347Y-91518782D01*
X130562971Y-91508554D01*
X130585493Y-91500496D01*
X130608697Y-91494684D01*
X130632358Y-91491174D01*
X130656250Y-91490000D01*
X131143750Y-91490000D01*
X131167642Y-91491174D01*
G37*
%TD*%
%TO.C,R3*%
G36*
X111986142Y-112132674D02*
G01*
X112009803Y-112136184D01*
X112033007Y-112141996D01*
X112055529Y-112150054D01*
X112077153Y-112160282D01*
X112097670Y-112172579D01*
X112116883Y-112186829D01*
X112134607Y-112202893D01*
X112150671Y-112220617D01*
X112164921Y-112239830D01*
X112177218Y-112260347D01*
X112187446Y-112281971D01*
X112195504Y-112304493D01*
X112201316Y-112327697D01*
X112204826Y-112351358D01*
X112206000Y-112375250D01*
X112206000Y-112862750D01*
X112204826Y-112886642D01*
X112201316Y-112910303D01*
X112195504Y-112933507D01*
X112187446Y-112956029D01*
X112177218Y-112977653D01*
X112164921Y-112998170D01*
X112150671Y-113017383D01*
X112134607Y-113035107D01*
X112116883Y-113051171D01*
X112097670Y-113065421D01*
X112077153Y-113077718D01*
X112055529Y-113087946D01*
X112033007Y-113096004D01*
X112009803Y-113101816D01*
X111986142Y-113105326D01*
X111962250Y-113106500D01*
X111049750Y-113106500D01*
X111025858Y-113105326D01*
X111002197Y-113101816D01*
X110978993Y-113096004D01*
X110956471Y-113087946D01*
X110934847Y-113077718D01*
X110914330Y-113065421D01*
X110895117Y-113051171D01*
X110877393Y-113035107D01*
X110861329Y-113017383D01*
X110847079Y-112998170D01*
X110834782Y-112977653D01*
X110824554Y-112956029D01*
X110816496Y-112933507D01*
X110810684Y-112910303D01*
X110807174Y-112886642D01*
X110806000Y-112862750D01*
X110806000Y-112375250D01*
X110807174Y-112351358D01*
X110810684Y-112327697D01*
X110816496Y-112304493D01*
X110824554Y-112281971D01*
X110834782Y-112260347D01*
X110847079Y-112239830D01*
X110861329Y-112220617D01*
X110877393Y-112202893D01*
X110895117Y-112186829D01*
X110914330Y-112172579D01*
X110934847Y-112160282D01*
X110956471Y-112150054D01*
X110978993Y-112141996D01*
X111002197Y-112136184D01*
X111025858Y-112132674D01*
X111049750Y-112131500D01*
X111962250Y-112131500D01*
X111986142Y-112132674D01*
G37*
G36*
X111986142Y-110257674D02*
G01*
X112009803Y-110261184D01*
X112033007Y-110266996D01*
X112055529Y-110275054D01*
X112077153Y-110285282D01*
X112097670Y-110297579D01*
X112116883Y-110311829D01*
X112134607Y-110327893D01*
X112150671Y-110345617D01*
X112164921Y-110364830D01*
X112177218Y-110385347D01*
X112187446Y-110406971D01*
X112195504Y-110429493D01*
X112201316Y-110452697D01*
X112204826Y-110476358D01*
X112206000Y-110500250D01*
X112206000Y-110987750D01*
X112204826Y-111011642D01*
X112201316Y-111035303D01*
X112195504Y-111058507D01*
X112187446Y-111081029D01*
X112177218Y-111102653D01*
X112164921Y-111123170D01*
X112150671Y-111142383D01*
X112134607Y-111160107D01*
X112116883Y-111176171D01*
X112097670Y-111190421D01*
X112077153Y-111202718D01*
X112055529Y-111212946D01*
X112033007Y-111221004D01*
X112009803Y-111226816D01*
X111986142Y-111230326D01*
X111962250Y-111231500D01*
X111049750Y-111231500D01*
X111025858Y-111230326D01*
X111002197Y-111226816D01*
X110978993Y-111221004D01*
X110956471Y-111212946D01*
X110934847Y-111202718D01*
X110914330Y-111190421D01*
X110895117Y-111176171D01*
X110877393Y-111160107D01*
X110861329Y-111142383D01*
X110847079Y-111123170D01*
X110834782Y-111102653D01*
X110824554Y-111081029D01*
X110816496Y-111058507D01*
X110810684Y-111035303D01*
X110807174Y-111011642D01*
X110806000Y-110987750D01*
X110806000Y-110500250D01*
X110807174Y-110476358D01*
X110810684Y-110452697D01*
X110816496Y-110429493D01*
X110824554Y-110406971D01*
X110834782Y-110385347D01*
X110847079Y-110364830D01*
X110861329Y-110345617D01*
X110877393Y-110327893D01*
X110895117Y-110311829D01*
X110914330Y-110297579D01*
X110934847Y-110285282D01*
X110956471Y-110275054D01*
X110978993Y-110266996D01*
X111002197Y-110261184D01*
X111025858Y-110257674D01*
X111049750Y-110256500D01*
X111962250Y-110256500D01*
X111986142Y-110257674D01*
G37*
%TD*%
%TO.C,C10*%
G36*
X125840642Y-101917174D02*
G01*
X125864303Y-101920684D01*
X125887507Y-101926496D01*
X125910029Y-101934554D01*
X125931653Y-101944782D01*
X125952170Y-101957079D01*
X125971383Y-101971329D01*
X125989107Y-101987393D01*
X126005171Y-102005117D01*
X126019421Y-102024330D01*
X126031718Y-102044847D01*
X126041946Y-102066471D01*
X126050004Y-102088993D01*
X126055816Y-102112197D01*
X126059326Y-102135858D01*
X126060500Y-102159750D01*
X126060500Y-103072250D01*
X126059326Y-103096142D01*
X126055816Y-103119803D01*
X126050004Y-103143007D01*
X126041946Y-103165529D01*
X126031718Y-103187153D01*
X126019421Y-103207670D01*
X126005171Y-103226883D01*
X125989107Y-103244607D01*
X125971383Y-103260671D01*
X125952170Y-103274921D01*
X125931653Y-103287218D01*
X125910029Y-103297446D01*
X125887507Y-103305504D01*
X125864303Y-103311316D01*
X125840642Y-103314826D01*
X125816750Y-103316000D01*
X125329250Y-103316000D01*
X125305358Y-103314826D01*
X125281697Y-103311316D01*
X125258493Y-103305504D01*
X125235971Y-103297446D01*
X125214347Y-103287218D01*
X125193830Y-103274921D01*
X125174617Y-103260671D01*
X125156893Y-103244607D01*
X125140829Y-103226883D01*
X125126579Y-103207670D01*
X125114282Y-103187153D01*
X125104054Y-103165529D01*
X125095996Y-103143007D01*
X125090184Y-103119803D01*
X125086674Y-103096142D01*
X125085500Y-103072250D01*
X125085500Y-102159750D01*
X125086674Y-102135858D01*
X125090184Y-102112197D01*
X125095996Y-102088993D01*
X125104054Y-102066471D01*
X125114282Y-102044847D01*
X125126579Y-102024330D01*
X125140829Y-102005117D01*
X125156893Y-101987393D01*
X125174617Y-101971329D01*
X125193830Y-101957079D01*
X125214347Y-101944782D01*
X125235971Y-101934554D01*
X125258493Y-101926496D01*
X125281697Y-101920684D01*
X125305358Y-101917174D01*
X125329250Y-101916000D01*
X125816750Y-101916000D01*
X125840642Y-101917174D01*
G37*
G36*
X123965642Y-101917174D02*
G01*
X123989303Y-101920684D01*
X124012507Y-101926496D01*
X124035029Y-101934554D01*
X124056653Y-101944782D01*
X124077170Y-101957079D01*
X124096383Y-101971329D01*
X124114107Y-101987393D01*
X124130171Y-102005117D01*
X124144421Y-102024330D01*
X124156718Y-102044847D01*
X124166946Y-102066471D01*
X124175004Y-102088993D01*
X124180816Y-102112197D01*
X124184326Y-102135858D01*
X124185500Y-102159750D01*
X124185500Y-103072250D01*
X124184326Y-103096142D01*
X124180816Y-103119803D01*
X124175004Y-103143007D01*
X124166946Y-103165529D01*
X124156718Y-103187153D01*
X124144421Y-103207670D01*
X124130171Y-103226883D01*
X124114107Y-103244607D01*
X124096383Y-103260671D01*
X124077170Y-103274921D01*
X124056653Y-103287218D01*
X124035029Y-103297446D01*
X124012507Y-103305504D01*
X123989303Y-103311316D01*
X123965642Y-103314826D01*
X123941750Y-103316000D01*
X123454250Y-103316000D01*
X123430358Y-103314826D01*
X123406697Y-103311316D01*
X123383493Y-103305504D01*
X123360971Y-103297446D01*
X123339347Y-103287218D01*
X123318830Y-103274921D01*
X123299617Y-103260671D01*
X123281893Y-103244607D01*
X123265829Y-103226883D01*
X123251579Y-103207670D01*
X123239282Y-103187153D01*
X123229054Y-103165529D01*
X123220996Y-103143007D01*
X123215184Y-103119803D01*
X123211674Y-103096142D01*
X123210500Y-103072250D01*
X123210500Y-102159750D01*
X123211674Y-102135858D01*
X123215184Y-102112197D01*
X123220996Y-102088993D01*
X123229054Y-102066471D01*
X123239282Y-102044847D01*
X123251579Y-102024330D01*
X123265829Y-102005117D01*
X123281893Y-101987393D01*
X123299617Y-101971329D01*
X123318830Y-101957079D01*
X123339347Y-101944782D01*
X123360971Y-101934554D01*
X123383493Y-101926496D01*
X123406697Y-101920684D01*
X123430358Y-101917174D01*
X123454250Y-101916000D01*
X123941750Y-101916000D01*
X123965642Y-101917174D01*
G37*
%TD*%
%TO.C,C9*%
G36*
X128791642Y-89217174D02*
G01*
X128815303Y-89220684D01*
X128838507Y-89226496D01*
X128861029Y-89234554D01*
X128882653Y-89244782D01*
X128903170Y-89257079D01*
X128922383Y-89271329D01*
X128940107Y-89287393D01*
X128956171Y-89305117D01*
X128970421Y-89324330D01*
X128982718Y-89344847D01*
X128992946Y-89366471D01*
X129001004Y-89388993D01*
X129006816Y-89412197D01*
X129010326Y-89435858D01*
X129011500Y-89459750D01*
X129011500Y-90372250D01*
X129010326Y-90396142D01*
X129006816Y-90419803D01*
X129001004Y-90443007D01*
X128992946Y-90465529D01*
X128982718Y-90487153D01*
X128970421Y-90507670D01*
X128956171Y-90526883D01*
X128940107Y-90544607D01*
X128922383Y-90560671D01*
X128903170Y-90574921D01*
X128882653Y-90587218D01*
X128861029Y-90597446D01*
X128838507Y-90605504D01*
X128815303Y-90611316D01*
X128791642Y-90614826D01*
X128767750Y-90616000D01*
X128280250Y-90616000D01*
X128256358Y-90614826D01*
X128232697Y-90611316D01*
X128209493Y-90605504D01*
X128186971Y-90597446D01*
X128165347Y-90587218D01*
X128144830Y-90574921D01*
X128125617Y-90560671D01*
X128107893Y-90544607D01*
X128091829Y-90526883D01*
X128077579Y-90507670D01*
X128065282Y-90487153D01*
X128055054Y-90465529D01*
X128046996Y-90443007D01*
X128041184Y-90419803D01*
X128037674Y-90396142D01*
X128036500Y-90372250D01*
X128036500Y-89459750D01*
X128037674Y-89435858D01*
X128041184Y-89412197D01*
X128046996Y-89388993D01*
X128055054Y-89366471D01*
X128065282Y-89344847D01*
X128077579Y-89324330D01*
X128091829Y-89305117D01*
X128107893Y-89287393D01*
X128125617Y-89271329D01*
X128144830Y-89257079D01*
X128165347Y-89244782D01*
X128186971Y-89234554D01*
X128209493Y-89226496D01*
X128232697Y-89220684D01*
X128256358Y-89217174D01*
X128280250Y-89216000D01*
X128767750Y-89216000D01*
X128791642Y-89217174D01*
G37*
G36*
X126916642Y-89217174D02*
G01*
X126940303Y-89220684D01*
X126963507Y-89226496D01*
X126986029Y-89234554D01*
X127007653Y-89244782D01*
X127028170Y-89257079D01*
X127047383Y-89271329D01*
X127065107Y-89287393D01*
X127081171Y-89305117D01*
X127095421Y-89324330D01*
X127107718Y-89344847D01*
X127117946Y-89366471D01*
X127126004Y-89388993D01*
X127131816Y-89412197D01*
X127135326Y-89435858D01*
X127136500Y-89459750D01*
X127136500Y-90372250D01*
X127135326Y-90396142D01*
X127131816Y-90419803D01*
X127126004Y-90443007D01*
X127117946Y-90465529D01*
X127107718Y-90487153D01*
X127095421Y-90507670D01*
X127081171Y-90526883D01*
X127065107Y-90544607D01*
X127047383Y-90560671D01*
X127028170Y-90574921D01*
X127007653Y-90587218D01*
X126986029Y-90597446D01*
X126963507Y-90605504D01*
X126940303Y-90611316D01*
X126916642Y-90614826D01*
X126892750Y-90616000D01*
X126405250Y-90616000D01*
X126381358Y-90614826D01*
X126357697Y-90611316D01*
X126334493Y-90605504D01*
X126311971Y-90597446D01*
X126290347Y-90587218D01*
X126269830Y-90574921D01*
X126250617Y-90560671D01*
X126232893Y-90544607D01*
X126216829Y-90526883D01*
X126202579Y-90507670D01*
X126190282Y-90487153D01*
X126180054Y-90465529D01*
X126171996Y-90443007D01*
X126166184Y-90419803D01*
X126162674Y-90396142D01*
X126161500Y-90372250D01*
X126161500Y-89459750D01*
X126162674Y-89435858D01*
X126166184Y-89412197D01*
X126171996Y-89388993D01*
X126180054Y-89366471D01*
X126190282Y-89344847D01*
X126202579Y-89324330D01*
X126216829Y-89305117D01*
X126232893Y-89287393D01*
X126250617Y-89271329D01*
X126269830Y-89257079D01*
X126290347Y-89244782D01*
X126311971Y-89234554D01*
X126334493Y-89226496D01*
X126357697Y-89220684D01*
X126381358Y-89217174D01*
X126405250Y-89216000D01*
X126892750Y-89216000D01*
X126916642Y-89217174D01*
G37*
%TD*%
%TO.C,C8*%
G36*
X109584642Y-89979174D02*
G01*
X109608303Y-89982684D01*
X109631507Y-89988496D01*
X109654029Y-89996554D01*
X109675653Y-90006782D01*
X109696170Y-90019079D01*
X109715383Y-90033329D01*
X109733107Y-90049393D01*
X109749171Y-90067117D01*
X109763421Y-90086330D01*
X109775718Y-90106847D01*
X109785946Y-90128471D01*
X109794004Y-90150993D01*
X109799816Y-90174197D01*
X109803326Y-90197858D01*
X109804500Y-90221750D01*
X109804500Y-91134250D01*
X109803326Y-91158142D01*
X109799816Y-91181803D01*
X109794004Y-91205007D01*
X109785946Y-91227529D01*
X109775718Y-91249153D01*
X109763421Y-91269670D01*
X109749171Y-91288883D01*
X109733107Y-91306607D01*
X109715383Y-91322671D01*
X109696170Y-91336921D01*
X109675653Y-91349218D01*
X109654029Y-91359446D01*
X109631507Y-91367504D01*
X109608303Y-91373316D01*
X109584642Y-91376826D01*
X109560750Y-91378000D01*
X109073250Y-91378000D01*
X109049358Y-91376826D01*
X109025697Y-91373316D01*
X109002493Y-91367504D01*
X108979971Y-91359446D01*
X108958347Y-91349218D01*
X108937830Y-91336921D01*
X108918617Y-91322671D01*
X108900893Y-91306607D01*
X108884829Y-91288883D01*
X108870579Y-91269670D01*
X108858282Y-91249153D01*
X108848054Y-91227529D01*
X108839996Y-91205007D01*
X108834184Y-91181803D01*
X108830674Y-91158142D01*
X108829500Y-91134250D01*
X108829500Y-90221750D01*
X108830674Y-90197858D01*
X108834184Y-90174197D01*
X108839996Y-90150993D01*
X108848054Y-90128471D01*
X108858282Y-90106847D01*
X108870579Y-90086330D01*
X108884829Y-90067117D01*
X108900893Y-90049393D01*
X108918617Y-90033329D01*
X108937830Y-90019079D01*
X108958347Y-90006782D01*
X108979971Y-89996554D01*
X109002493Y-89988496D01*
X109025697Y-89982684D01*
X109049358Y-89979174D01*
X109073250Y-89978000D01*
X109560750Y-89978000D01*
X109584642Y-89979174D01*
G37*
G36*
X107709642Y-89979174D02*
G01*
X107733303Y-89982684D01*
X107756507Y-89988496D01*
X107779029Y-89996554D01*
X107800653Y-90006782D01*
X107821170Y-90019079D01*
X107840383Y-90033329D01*
X107858107Y-90049393D01*
X107874171Y-90067117D01*
X107888421Y-90086330D01*
X107900718Y-90106847D01*
X107910946Y-90128471D01*
X107919004Y-90150993D01*
X107924816Y-90174197D01*
X107928326Y-90197858D01*
X107929500Y-90221750D01*
X107929500Y-91134250D01*
X107928326Y-91158142D01*
X107924816Y-91181803D01*
X107919004Y-91205007D01*
X107910946Y-91227529D01*
X107900718Y-91249153D01*
X107888421Y-91269670D01*
X107874171Y-91288883D01*
X107858107Y-91306607D01*
X107840383Y-91322671D01*
X107821170Y-91336921D01*
X107800653Y-91349218D01*
X107779029Y-91359446D01*
X107756507Y-91367504D01*
X107733303Y-91373316D01*
X107709642Y-91376826D01*
X107685750Y-91378000D01*
X107198250Y-91378000D01*
X107174358Y-91376826D01*
X107150697Y-91373316D01*
X107127493Y-91367504D01*
X107104971Y-91359446D01*
X107083347Y-91349218D01*
X107062830Y-91336921D01*
X107043617Y-91322671D01*
X107025893Y-91306607D01*
X107009829Y-91288883D01*
X106995579Y-91269670D01*
X106983282Y-91249153D01*
X106973054Y-91227529D01*
X106964996Y-91205007D01*
X106959184Y-91181803D01*
X106955674Y-91158142D01*
X106954500Y-91134250D01*
X106954500Y-90221750D01*
X106955674Y-90197858D01*
X106959184Y-90174197D01*
X106964996Y-90150993D01*
X106973054Y-90128471D01*
X106983282Y-90106847D01*
X106995579Y-90086330D01*
X107009829Y-90067117D01*
X107025893Y-90049393D01*
X107043617Y-90033329D01*
X107062830Y-90019079D01*
X107083347Y-90006782D01*
X107104971Y-89996554D01*
X107127493Y-89988496D01*
X107150697Y-89982684D01*
X107174358Y-89979174D01*
X107198250Y-89978000D01*
X107685750Y-89978000D01*
X107709642Y-89979174D01*
G37*
%TD*%
%TO.C,C7*%
G36*
X107963642Y-96329174D02*
G01*
X107987303Y-96332684D01*
X108010507Y-96338496D01*
X108033029Y-96346554D01*
X108054653Y-96356782D01*
X108075170Y-96369079D01*
X108094383Y-96383329D01*
X108112107Y-96399393D01*
X108128171Y-96417117D01*
X108142421Y-96436330D01*
X108154718Y-96456847D01*
X108164946Y-96478471D01*
X108173004Y-96500993D01*
X108178816Y-96524197D01*
X108182326Y-96547858D01*
X108183500Y-96571750D01*
X108183500Y-97484250D01*
X108182326Y-97508142D01*
X108178816Y-97531803D01*
X108173004Y-97555007D01*
X108164946Y-97577529D01*
X108154718Y-97599153D01*
X108142421Y-97619670D01*
X108128171Y-97638883D01*
X108112107Y-97656607D01*
X108094383Y-97672671D01*
X108075170Y-97686921D01*
X108054653Y-97699218D01*
X108033029Y-97709446D01*
X108010507Y-97717504D01*
X107987303Y-97723316D01*
X107963642Y-97726826D01*
X107939750Y-97728000D01*
X107452250Y-97728000D01*
X107428358Y-97726826D01*
X107404697Y-97723316D01*
X107381493Y-97717504D01*
X107358971Y-97709446D01*
X107337347Y-97699218D01*
X107316830Y-97686921D01*
X107297617Y-97672671D01*
X107279893Y-97656607D01*
X107263829Y-97638883D01*
X107249579Y-97619670D01*
X107237282Y-97599153D01*
X107227054Y-97577529D01*
X107218996Y-97555007D01*
X107213184Y-97531803D01*
X107209674Y-97508142D01*
X107208500Y-97484250D01*
X107208500Y-96571750D01*
X107209674Y-96547858D01*
X107213184Y-96524197D01*
X107218996Y-96500993D01*
X107227054Y-96478471D01*
X107237282Y-96456847D01*
X107249579Y-96436330D01*
X107263829Y-96417117D01*
X107279893Y-96399393D01*
X107297617Y-96383329D01*
X107316830Y-96369079D01*
X107337347Y-96356782D01*
X107358971Y-96346554D01*
X107381493Y-96338496D01*
X107404697Y-96332684D01*
X107428358Y-96329174D01*
X107452250Y-96328000D01*
X107939750Y-96328000D01*
X107963642Y-96329174D01*
G37*
G36*
X109838642Y-96329174D02*
G01*
X109862303Y-96332684D01*
X109885507Y-96338496D01*
X109908029Y-96346554D01*
X109929653Y-96356782D01*
X109950170Y-96369079D01*
X109969383Y-96383329D01*
X109987107Y-96399393D01*
X110003171Y-96417117D01*
X110017421Y-96436330D01*
X110029718Y-96456847D01*
X110039946Y-96478471D01*
X110048004Y-96500993D01*
X110053816Y-96524197D01*
X110057326Y-96547858D01*
X110058500Y-96571750D01*
X110058500Y-97484250D01*
X110057326Y-97508142D01*
X110053816Y-97531803D01*
X110048004Y-97555007D01*
X110039946Y-97577529D01*
X110029718Y-97599153D01*
X110017421Y-97619670D01*
X110003171Y-97638883D01*
X109987107Y-97656607D01*
X109969383Y-97672671D01*
X109950170Y-97686921D01*
X109929653Y-97699218D01*
X109908029Y-97709446D01*
X109885507Y-97717504D01*
X109862303Y-97723316D01*
X109838642Y-97726826D01*
X109814750Y-97728000D01*
X109327250Y-97728000D01*
X109303358Y-97726826D01*
X109279697Y-97723316D01*
X109256493Y-97717504D01*
X109233971Y-97709446D01*
X109212347Y-97699218D01*
X109191830Y-97686921D01*
X109172617Y-97672671D01*
X109154893Y-97656607D01*
X109138829Y-97638883D01*
X109124579Y-97619670D01*
X109112282Y-97599153D01*
X109102054Y-97577529D01*
X109093996Y-97555007D01*
X109088184Y-97531803D01*
X109084674Y-97508142D01*
X109083500Y-97484250D01*
X109083500Y-96571750D01*
X109084674Y-96547858D01*
X109088184Y-96524197D01*
X109093996Y-96500993D01*
X109102054Y-96478471D01*
X109112282Y-96456847D01*
X109124579Y-96436330D01*
X109138829Y-96417117D01*
X109154893Y-96399393D01*
X109172617Y-96383329D01*
X109191830Y-96369079D01*
X109212347Y-96356782D01*
X109233971Y-96346554D01*
X109256493Y-96338496D01*
X109279697Y-96332684D01*
X109303358Y-96329174D01*
X109327250Y-96328000D01*
X109814750Y-96328000D01*
X109838642Y-96329174D01*
G37*
%TD*%
%TO.C,C6*%
G36*
X127660142Y-96458674D02*
G01*
X127683803Y-96462184D01*
X127707007Y-96467996D01*
X127729529Y-96476054D01*
X127751153Y-96486282D01*
X127771670Y-96498579D01*
X127790883Y-96512829D01*
X127808607Y-96528893D01*
X127824671Y-96546617D01*
X127838921Y-96565830D01*
X127851218Y-96586347D01*
X127861446Y-96607971D01*
X127869504Y-96630493D01*
X127875316Y-96653697D01*
X127878826Y-96677358D01*
X127880000Y-96701250D01*
X127880000Y-97188750D01*
X127878826Y-97212642D01*
X127875316Y-97236303D01*
X127869504Y-97259507D01*
X127861446Y-97282029D01*
X127851218Y-97303653D01*
X127838921Y-97324170D01*
X127824671Y-97343383D01*
X127808607Y-97361107D01*
X127790883Y-97377171D01*
X127771670Y-97391421D01*
X127751153Y-97403718D01*
X127729529Y-97413946D01*
X127707007Y-97422004D01*
X127683803Y-97427816D01*
X127660142Y-97431326D01*
X127636250Y-97432500D01*
X126723750Y-97432500D01*
X126699858Y-97431326D01*
X126676197Y-97427816D01*
X126652993Y-97422004D01*
X126630471Y-97413946D01*
X126608847Y-97403718D01*
X126588330Y-97391421D01*
X126569117Y-97377171D01*
X126551393Y-97361107D01*
X126535329Y-97343383D01*
X126521079Y-97324170D01*
X126508782Y-97303653D01*
X126498554Y-97282029D01*
X126490496Y-97259507D01*
X126484684Y-97236303D01*
X126481174Y-97212642D01*
X126480000Y-97188750D01*
X126480000Y-96701250D01*
X126481174Y-96677358D01*
X126484684Y-96653697D01*
X126490496Y-96630493D01*
X126498554Y-96607971D01*
X126508782Y-96586347D01*
X126521079Y-96565830D01*
X126535329Y-96546617D01*
X126551393Y-96528893D01*
X126569117Y-96512829D01*
X126588330Y-96498579D01*
X126608847Y-96486282D01*
X126630471Y-96476054D01*
X126652993Y-96467996D01*
X126676197Y-96462184D01*
X126699858Y-96458674D01*
X126723750Y-96457500D01*
X127636250Y-96457500D01*
X127660142Y-96458674D01*
G37*
G36*
X127660142Y-94583674D02*
G01*
X127683803Y-94587184D01*
X127707007Y-94592996D01*
X127729529Y-94601054D01*
X127751153Y-94611282D01*
X127771670Y-94623579D01*
X127790883Y-94637829D01*
X127808607Y-94653893D01*
X127824671Y-94671617D01*
X127838921Y-94690830D01*
X127851218Y-94711347D01*
X127861446Y-94732971D01*
X127869504Y-94755493D01*
X127875316Y-94778697D01*
X127878826Y-94802358D01*
X127880000Y-94826250D01*
X127880000Y-95313750D01*
X127878826Y-95337642D01*
X127875316Y-95361303D01*
X127869504Y-95384507D01*
X127861446Y-95407029D01*
X127851218Y-95428653D01*
X127838921Y-95449170D01*
X127824671Y-95468383D01*
X127808607Y-95486107D01*
X127790883Y-95502171D01*
X127771670Y-95516421D01*
X127751153Y-95528718D01*
X127729529Y-95538946D01*
X127707007Y-95547004D01*
X127683803Y-95552816D01*
X127660142Y-95556326D01*
X127636250Y-95557500D01*
X126723750Y-95557500D01*
X126699858Y-95556326D01*
X126676197Y-95552816D01*
X126652993Y-95547004D01*
X126630471Y-95538946D01*
X126608847Y-95528718D01*
X126588330Y-95516421D01*
X126569117Y-95502171D01*
X126551393Y-95486107D01*
X126535329Y-95468383D01*
X126521079Y-95449170D01*
X126508782Y-95428653D01*
X126498554Y-95407029D01*
X126490496Y-95384507D01*
X126484684Y-95361303D01*
X126481174Y-95337642D01*
X126480000Y-95313750D01*
X126480000Y-94826250D01*
X126481174Y-94802358D01*
X126484684Y-94778697D01*
X126490496Y-94755493D01*
X126498554Y-94732971D01*
X126508782Y-94711347D01*
X126521079Y-94690830D01*
X126535329Y-94671617D01*
X126551393Y-94653893D01*
X126569117Y-94637829D01*
X126588330Y-94623579D01*
X126608847Y-94611282D01*
X126630471Y-94601054D01*
X126652993Y-94592996D01*
X126676197Y-94587184D01*
X126699858Y-94583674D01*
X126723750Y-94582500D01*
X127636250Y-94582500D01*
X127660142Y-94583674D01*
G37*
%TD*%
%TO.C,C5*%
G36*
X123965642Y-104457174D02*
G01*
X123989303Y-104460684D01*
X124012507Y-104466496D01*
X124035029Y-104474554D01*
X124056653Y-104484782D01*
X124077170Y-104497079D01*
X124096383Y-104511329D01*
X124114107Y-104527393D01*
X124130171Y-104545117D01*
X124144421Y-104564330D01*
X124156718Y-104584847D01*
X124166946Y-104606471D01*
X124175004Y-104628993D01*
X124180816Y-104652197D01*
X124184326Y-104675858D01*
X124185500Y-104699750D01*
X124185500Y-105612250D01*
X124184326Y-105636142D01*
X124180816Y-105659803D01*
X124175004Y-105683007D01*
X124166946Y-105705529D01*
X124156718Y-105727153D01*
X124144421Y-105747670D01*
X124130171Y-105766883D01*
X124114107Y-105784607D01*
X124096383Y-105800671D01*
X124077170Y-105814921D01*
X124056653Y-105827218D01*
X124035029Y-105837446D01*
X124012507Y-105845504D01*
X123989303Y-105851316D01*
X123965642Y-105854826D01*
X123941750Y-105856000D01*
X123454250Y-105856000D01*
X123430358Y-105854826D01*
X123406697Y-105851316D01*
X123383493Y-105845504D01*
X123360971Y-105837446D01*
X123339347Y-105827218D01*
X123318830Y-105814921D01*
X123299617Y-105800671D01*
X123281893Y-105784607D01*
X123265829Y-105766883D01*
X123251579Y-105747670D01*
X123239282Y-105727153D01*
X123229054Y-105705529D01*
X123220996Y-105683007D01*
X123215184Y-105659803D01*
X123211674Y-105636142D01*
X123210500Y-105612250D01*
X123210500Y-104699750D01*
X123211674Y-104675858D01*
X123215184Y-104652197D01*
X123220996Y-104628993D01*
X123229054Y-104606471D01*
X123239282Y-104584847D01*
X123251579Y-104564330D01*
X123265829Y-104545117D01*
X123281893Y-104527393D01*
X123299617Y-104511329D01*
X123318830Y-104497079D01*
X123339347Y-104484782D01*
X123360971Y-104474554D01*
X123383493Y-104466496D01*
X123406697Y-104460684D01*
X123430358Y-104457174D01*
X123454250Y-104456000D01*
X123941750Y-104456000D01*
X123965642Y-104457174D01*
G37*
G36*
X122090642Y-104457174D02*
G01*
X122114303Y-104460684D01*
X122137507Y-104466496D01*
X122160029Y-104474554D01*
X122181653Y-104484782D01*
X122202170Y-104497079D01*
X122221383Y-104511329D01*
X122239107Y-104527393D01*
X122255171Y-104545117D01*
X122269421Y-104564330D01*
X122281718Y-104584847D01*
X122291946Y-104606471D01*
X122300004Y-104628993D01*
X122305816Y-104652197D01*
X122309326Y-104675858D01*
X122310500Y-104699750D01*
X122310500Y-105612250D01*
X122309326Y-105636142D01*
X122305816Y-105659803D01*
X122300004Y-105683007D01*
X122291946Y-105705529D01*
X122281718Y-105727153D01*
X122269421Y-105747670D01*
X122255171Y-105766883D01*
X122239107Y-105784607D01*
X122221383Y-105800671D01*
X122202170Y-105814921D01*
X122181653Y-105827218D01*
X122160029Y-105837446D01*
X122137507Y-105845504D01*
X122114303Y-105851316D01*
X122090642Y-105854826D01*
X122066750Y-105856000D01*
X121579250Y-105856000D01*
X121555358Y-105854826D01*
X121531697Y-105851316D01*
X121508493Y-105845504D01*
X121485971Y-105837446D01*
X121464347Y-105827218D01*
X121443830Y-105814921D01*
X121424617Y-105800671D01*
X121406893Y-105784607D01*
X121390829Y-105766883D01*
X121376579Y-105747670D01*
X121364282Y-105727153D01*
X121354054Y-105705529D01*
X121345996Y-105683007D01*
X121340184Y-105659803D01*
X121336674Y-105636142D01*
X121335500Y-105612250D01*
X121335500Y-104699750D01*
X121336674Y-104675858D01*
X121340184Y-104652197D01*
X121345996Y-104628993D01*
X121354054Y-104606471D01*
X121364282Y-104584847D01*
X121376579Y-104564330D01*
X121390829Y-104545117D01*
X121406893Y-104527393D01*
X121424617Y-104511329D01*
X121443830Y-104497079D01*
X121464347Y-104484782D01*
X121485971Y-104474554D01*
X121508493Y-104466496D01*
X121531697Y-104460684D01*
X121555358Y-104457174D01*
X121579250Y-104456000D01*
X122066750Y-104456000D01*
X122090642Y-104457174D01*
G37*
%TD*%
%TO.C,C4*%
G36*
X127872642Y-99885174D02*
G01*
X127896303Y-99888684D01*
X127919507Y-99894496D01*
X127942029Y-99902554D01*
X127963653Y-99912782D01*
X127984170Y-99925079D01*
X128003383Y-99939329D01*
X128021107Y-99955393D01*
X128037171Y-99973117D01*
X128051421Y-99992330D01*
X128063718Y-100012847D01*
X128073946Y-100034471D01*
X128082004Y-100056993D01*
X128087816Y-100080197D01*
X128091326Y-100103858D01*
X128092500Y-100127750D01*
X128092500Y-101040250D01*
X128091326Y-101064142D01*
X128087816Y-101087803D01*
X128082004Y-101111007D01*
X128073946Y-101133529D01*
X128063718Y-101155153D01*
X128051421Y-101175670D01*
X128037171Y-101194883D01*
X128021107Y-101212607D01*
X128003383Y-101228671D01*
X127984170Y-101242921D01*
X127963653Y-101255218D01*
X127942029Y-101265446D01*
X127919507Y-101273504D01*
X127896303Y-101279316D01*
X127872642Y-101282826D01*
X127848750Y-101284000D01*
X127361250Y-101284000D01*
X127337358Y-101282826D01*
X127313697Y-101279316D01*
X127290493Y-101273504D01*
X127267971Y-101265446D01*
X127246347Y-101255218D01*
X127225830Y-101242921D01*
X127206617Y-101228671D01*
X127188893Y-101212607D01*
X127172829Y-101194883D01*
X127158579Y-101175670D01*
X127146282Y-101155153D01*
X127136054Y-101133529D01*
X127127996Y-101111007D01*
X127122184Y-101087803D01*
X127118674Y-101064142D01*
X127117500Y-101040250D01*
X127117500Y-100127750D01*
X127118674Y-100103858D01*
X127122184Y-100080197D01*
X127127996Y-100056993D01*
X127136054Y-100034471D01*
X127146282Y-100012847D01*
X127158579Y-99992330D01*
X127172829Y-99973117D01*
X127188893Y-99955393D01*
X127206617Y-99939329D01*
X127225830Y-99925079D01*
X127246347Y-99912782D01*
X127267971Y-99902554D01*
X127290493Y-99894496D01*
X127313697Y-99888684D01*
X127337358Y-99885174D01*
X127361250Y-99884000D01*
X127848750Y-99884000D01*
X127872642Y-99885174D01*
G37*
G36*
X125997642Y-99885174D02*
G01*
X126021303Y-99888684D01*
X126044507Y-99894496D01*
X126067029Y-99902554D01*
X126088653Y-99912782D01*
X126109170Y-99925079D01*
X126128383Y-99939329D01*
X126146107Y-99955393D01*
X126162171Y-99973117D01*
X126176421Y-99992330D01*
X126188718Y-100012847D01*
X126198946Y-100034471D01*
X126207004Y-100056993D01*
X126212816Y-100080197D01*
X126216326Y-100103858D01*
X126217500Y-100127750D01*
X126217500Y-101040250D01*
X126216326Y-101064142D01*
X126212816Y-101087803D01*
X126207004Y-101111007D01*
X126198946Y-101133529D01*
X126188718Y-101155153D01*
X126176421Y-101175670D01*
X126162171Y-101194883D01*
X126146107Y-101212607D01*
X126128383Y-101228671D01*
X126109170Y-101242921D01*
X126088653Y-101255218D01*
X126067029Y-101265446D01*
X126044507Y-101273504D01*
X126021303Y-101279316D01*
X125997642Y-101282826D01*
X125973750Y-101284000D01*
X125486250Y-101284000D01*
X125462358Y-101282826D01*
X125438697Y-101279316D01*
X125415493Y-101273504D01*
X125392971Y-101265446D01*
X125371347Y-101255218D01*
X125350830Y-101242921D01*
X125331617Y-101228671D01*
X125313893Y-101212607D01*
X125297829Y-101194883D01*
X125283579Y-101175670D01*
X125271282Y-101155153D01*
X125261054Y-101133529D01*
X125252996Y-101111007D01*
X125247184Y-101087803D01*
X125243674Y-101064142D01*
X125242500Y-101040250D01*
X125242500Y-100127750D01*
X125243674Y-100103858D01*
X125247184Y-100080197D01*
X125252996Y-100056993D01*
X125261054Y-100034471D01*
X125271282Y-100012847D01*
X125283579Y-99992330D01*
X125297829Y-99973117D01*
X125313893Y-99955393D01*
X125331617Y-99939329D01*
X125350830Y-99925079D01*
X125371347Y-99912782D01*
X125392971Y-99902554D01*
X125415493Y-99894496D01*
X125438697Y-99888684D01*
X125462358Y-99885174D01*
X125486250Y-99884000D01*
X125973750Y-99884000D01*
X125997642Y-99885174D01*
G37*
%TD*%
%TO.C,C3*%
G36*
X111519642Y-104203174D02*
G01*
X111543303Y-104206684D01*
X111566507Y-104212496D01*
X111589029Y-104220554D01*
X111610653Y-104230782D01*
X111631170Y-104243079D01*
X111650383Y-104257329D01*
X111668107Y-104273393D01*
X111684171Y-104291117D01*
X111698421Y-104310330D01*
X111710718Y-104330847D01*
X111720946Y-104352471D01*
X111729004Y-104374993D01*
X111734816Y-104398197D01*
X111738326Y-104421858D01*
X111739500Y-104445750D01*
X111739500Y-105358250D01*
X111738326Y-105382142D01*
X111734816Y-105405803D01*
X111729004Y-105429007D01*
X111720946Y-105451529D01*
X111710718Y-105473153D01*
X111698421Y-105493670D01*
X111684171Y-105512883D01*
X111668107Y-105530607D01*
X111650383Y-105546671D01*
X111631170Y-105560921D01*
X111610653Y-105573218D01*
X111589029Y-105583446D01*
X111566507Y-105591504D01*
X111543303Y-105597316D01*
X111519642Y-105600826D01*
X111495750Y-105602000D01*
X111008250Y-105602000D01*
X110984358Y-105600826D01*
X110960697Y-105597316D01*
X110937493Y-105591504D01*
X110914971Y-105583446D01*
X110893347Y-105573218D01*
X110872830Y-105560921D01*
X110853617Y-105546671D01*
X110835893Y-105530607D01*
X110819829Y-105512883D01*
X110805579Y-105493670D01*
X110793282Y-105473153D01*
X110783054Y-105451529D01*
X110774996Y-105429007D01*
X110769184Y-105405803D01*
X110765674Y-105382142D01*
X110764500Y-105358250D01*
X110764500Y-104445750D01*
X110765674Y-104421858D01*
X110769184Y-104398197D01*
X110774996Y-104374993D01*
X110783054Y-104352471D01*
X110793282Y-104330847D01*
X110805579Y-104310330D01*
X110819829Y-104291117D01*
X110835893Y-104273393D01*
X110853617Y-104257329D01*
X110872830Y-104243079D01*
X110893347Y-104230782D01*
X110914971Y-104220554D01*
X110937493Y-104212496D01*
X110960697Y-104206684D01*
X110984358Y-104203174D01*
X111008250Y-104202000D01*
X111495750Y-104202000D01*
X111519642Y-104203174D01*
G37*
G36*
X113394642Y-104203174D02*
G01*
X113418303Y-104206684D01*
X113441507Y-104212496D01*
X113464029Y-104220554D01*
X113485653Y-104230782D01*
X113506170Y-104243079D01*
X113525383Y-104257329D01*
X113543107Y-104273393D01*
X113559171Y-104291117D01*
X113573421Y-104310330D01*
X113585718Y-104330847D01*
X113595946Y-104352471D01*
X113604004Y-104374993D01*
X113609816Y-104398197D01*
X113613326Y-104421858D01*
X113614500Y-104445750D01*
X113614500Y-105358250D01*
X113613326Y-105382142D01*
X113609816Y-105405803D01*
X113604004Y-105429007D01*
X113595946Y-105451529D01*
X113585718Y-105473153D01*
X113573421Y-105493670D01*
X113559171Y-105512883D01*
X113543107Y-105530607D01*
X113525383Y-105546671D01*
X113506170Y-105560921D01*
X113485653Y-105573218D01*
X113464029Y-105583446D01*
X113441507Y-105591504D01*
X113418303Y-105597316D01*
X113394642Y-105600826D01*
X113370750Y-105602000D01*
X112883250Y-105602000D01*
X112859358Y-105600826D01*
X112835697Y-105597316D01*
X112812493Y-105591504D01*
X112789971Y-105583446D01*
X112768347Y-105573218D01*
X112747830Y-105560921D01*
X112728617Y-105546671D01*
X112710893Y-105530607D01*
X112694829Y-105512883D01*
X112680579Y-105493670D01*
X112668282Y-105473153D01*
X112658054Y-105451529D01*
X112649996Y-105429007D01*
X112644184Y-105405803D01*
X112640674Y-105382142D01*
X112639500Y-105358250D01*
X112639500Y-104445750D01*
X112640674Y-104421858D01*
X112644184Y-104398197D01*
X112649996Y-104374993D01*
X112658054Y-104352471D01*
X112668282Y-104330847D01*
X112680579Y-104310330D01*
X112694829Y-104291117D01*
X112710893Y-104273393D01*
X112728617Y-104257329D01*
X112747830Y-104243079D01*
X112768347Y-104230782D01*
X112789971Y-104220554D01*
X112812493Y-104212496D01*
X112835697Y-104206684D01*
X112859358Y-104203174D01*
X112883250Y-104202000D01*
X113370750Y-104202000D01*
X113394642Y-104203174D01*
G37*
%TD*%
%TO.C,C2*%
G36*
X124473642Y-89217174D02*
G01*
X124497303Y-89220684D01*
X124520507Y-89226496D01*
X124543029Y-89234554D01*
X124564653Y-89244782D01*
X124585170Y-89257079D01*
X124604383Y-89271329D01*
X124622107Y-89287393D01*
X124638171Y-89305117D01*
X124652421Y-89324330D01*
X124664718Y-89344847D01*
X124674946Y-89366471D01*
X124683004Y-89388993D01*
X124688816Y-89412197D01*
X124692326Y-89435858D01*
X124693500Y-89459750D01*
X124693500Y-90372250D01*
X124692326Y-90396142D01*
X124688816Y-90419803D01*
X124683004Y-90443007D01*
X124674946Y-90465529D01*
X124664718Y-90487153D01*
X124652421Y-90507670D01*
X124638171Y-90526883D01*
X124622107Y-90544607D01*
X124604383Y-90560671D01*
X124585170Y-90574921D01*
X124564653Y-90587218D01*
X124543029Y-90597446D01*
X124520507Y-90605504D01*
X124497303Y-90611316D01*
X124473642Y-90614826D01*
X124449750Y-90616000D01*
X123962250Y-90616000D01*
X123938358Y-90614826D01*
X123914697Y-90611316D01*
X123891493Y-90605504D01*
X123868971Y-90597446D01*
X123847347Y-90587218D01*
X123826830Y-90574921D01*
X123807617Y-90560671D01*
X123789893Y-90544607D01*
X123773829Y-90526883D01*
X123759579Y-90507670D01*
X123747282Y-90487153D01*
X123737054Y-90465529D01*
X123728996Y-90443007D01*
X123723184Y-90419803D01*
X123719674Y-90396142D01*
X123718500Y-90372250D01*
X123718500Y-89459750D01*
X123719674Y-89435858D01*
X123723184Y-89412197D01*
X123728996Y-89388993D01*
X123737054Y-89366471D01*
X123747282Y-89344847D01*
X123759579Y-89324330D01*
X123773829Y-89305117D01*
X123789893Y-89287393D01*
X123807617Y-89271329D01*
X123826830Y-89257079D01*
X123847347Y-89244782D01*
X123868971Y-89234554D01*
X123891493Y-89226496D01*
X123914697Y-89220684D01*
X123938358Y-89217174D01*
X123962250Y-89216000D01*
X124449750Y-89216000D01*
X124473642Y-89217174D01*
G37*
G36*
X122598642Y-89217174D02*
G01*
X122622303Y-89220684D01*
X122645507Y-89226496D01*
X122668029Y-89234554D01*
X122689653Y-89244782D01*
X122710170Y-89257079D01*
X122729383Y-89271329D01*
X122747107Y-89287393D01*
X122763171Y-89305117D01*
X122777421Y-89324330D01*
X122789718Y-89344847D01*
X122799946Y-89366471D01*
X122808004Y-89388993D01*
X122813816Y-89412197D01*
X122817326Y-89435858D01*
X122818500Y-89459750D01*
X122818500Y-90372250D01*
X122817326Y-90396142D01*
X122813816Y-90419803D01*
X122808004Y-90443007D01*
X122799946Y-90465529D01*
X122789718Y-90487153D01*
X122777421Y-90507670D01*
X122763171Y-90526883D01*
X122747107Y-90544607D01*
X122729383Y-90560671D01*
X122710170Y-90574921D01*
X122689653Y-90587218D01*
X122668029Y-90597446D01*
X122645507Y-90605504D01*
X122622303Y-90611316D01*
X122598642Y-90614826D01*
X122574750Y-90616000D01*
X122087250Y-90616000D01*
X122063358Y-90614826D01*
X122039697Y-90611316D01*
X122016493Y-90605504D01*
X121993971Y-90597446D01*
X121972347Y-90587218D01*
X121951830Y-90574921D01*
X121932617Y-90560671D01*
X121914893Y-90544607D01*
X121898829Y-90526883D01*
X121884579Y-90507670D01*
X121872282Y-90487153D01*
X121862054Y-90465529D01*
X121853996Y-90443007D01*
X121848184Y-90419803D01*
X121844674Y-90396142D01*
X121843500Y-90372250D01*
X121843500Y-89459750D01*
X121844674Y-89435858D01*
X121848184Y-89412197D01*
X121853996Y-89388993D01*
X121862054Y-89366471D01*
X121872282Y-89344847D01*
X121884579Y-89324330D01*
X121898829Y-89305117D01*
X121914893Y-89287393D01*
X121932617Y-89271329D01*
X121951830Y-89257079D01*
X121972347Y-89244782D01*
X121993971Y-89234554D01*
X122016493Y-89226496D01*
X122039697Y-89220684D01*
X122063358Y-89217174D01*
X122087250Y-89216000D01*
X122574750Y-89216000D01*
X122598642Y-89217174D01*
G37*
%TD*%
%TO.C,C1*%
G36*
X111930642Y-89217174D02*
G01*
X111954303Y-89220684D01*
X111977507Y-89226496D01*
X112000029Y-89234554D01*
X112021653Y-89244782D01*
X112042170Y-89257079D01*
X112061383Y-89271329D01*
X112079107Y-89287393D01*
X112095171Y-89305117D01*
X112109421Y-89324330D01*
X112121718Y-89344847D01*
X112131946Y-89366471D01*
X112140004Y-89388993D01*
X112145816Y-89412197D01*
X112149326Y-89435858D01*
X112150500Y-89459750D01*
X112150500Y-90372250D01*
X112149326Y-90396142D01*
X112145816Y-90419803D01*
X112140004Y-90443007D01*
X112131946Y-90465529D01*
X112121718Y-90487153D01*
X112109421Y-90507670D01*
X112095171Y-90526883D01*
X112079107Y-90544607D01*
X112061383Y-90560671D01*
X112042170Y-90574921D01*
X112021653Y-90587218D01*
X112000029Y-90597446D01*
X111977507Y-90605504D01*
X111954303Y-90611316D01*
X111930642Y-90614826D01*
X111906750Y-90616000D01*
X111419250Y-90616000D01*
X111395358Y-90614826D01*
X111371697Y-90611316D01*
X111348493Y-90605504D01*
X111325971Y-90597446D01*
X111304347Y-90587218D01*
X111283830Y-90574921D01*
X111264617Y-90560671D01*
X111246893Y-90544607D01*
X111230829Y-90526883D01*
X111216579Y-90507670D01*
X111204282Y-90487153D01*
X111194054Y-90465529D01*
X111185996Y-90443007D01*
X111180184Y-90419803D01*
X111176674Y-90396142D01*
X111175500Y-90372250D01*
X111175500Y-89459750D01*
X111176674Y-89435858D01*
X111180184Y-89412197D01*
X111185996Y-89388993D01*
X111194054Y-89366471D01*
X111204282Y-89344847D01*
X111216579Y-89324330D01*
X111230829Y-89305117D01*
X111246893Y-89287393D01*
X111264617Y-89271329D01*
X111283830Y-89257079D01*
X111304347Y-89244782D01*
X111325971Y-89234554D01*
X111348493Y-89226496D01*
X111371697Y-89220684D01*
X111395358Y-89217174D01*
X111419250Y-89216000D01*
X111906750Y-89216000D01*
X111930642Y-89217174D01*
G37*
G36*
X113805642Y-89217174D02*
G01*
X113829303Y-89220684D01*
X113852507Y-89226496D01*
X113875029Y-89234554D01*
X113896653Y-89244782D01*
X113917170Y-89257079D01*
X113936383Y-89271329D01*
X113954107Y-89287393D01*
X113970171Y-89305117D01*
X113984421Y-89324330D01*
X113996718Y-89344847D01*
X114006946Y-89366471D01*
X114015004Y-89388993D01*
X114020816Y-89412197D01*
X114024326Y-89435858D01*
X114025500Y-89459750D01*
X114025500Y-90372250D01*
X114024326Y-90396142D01*
X114020816Y-90419803D01*
X114015004Y-90443007D01*
X114006946Y-90465529D01*
X113996718Y-90487153D01*
X113984421Y-90507670D01*
X113970171Y-90526883D01*
X113954107Y-90544607D01*
X113936383Y-90560671D01*
X113917170Y-90574921D01*
X113896653Y-90587218D01*
X113875029Y-90597446D01*
X113852507Y-90605504D01*
X113829303Y-90611316D01*
X113805642Y-90614826D01*
X113781750Y-90616000D01*
X113294250Y-90616000D01*
X113270358Y-90614826D01*
X113246697Y-90611316D01*
X113223493Y-90605504D01*
X113200971Y-90597446D01*
X113179347Y-90587218D01*
X113158830Y-90574921D01*
X113139617Y-90560671D01*
X113121893Y-90544607D01*
X113105829Y-90526883D01*
X113091579Y-90507670D01*
X113079282Y-90487153D01*
X113069054Y-90465529D01*
X113060996Y-90443007D01*
X113055184Y-90419803D01*
X113051674Y-90396142D01*
X113050500Y-90372250D01*
X113050500Y-89459750D01*
X113051674Y-89435858D01*
X113055184Y-89412197D01*
X113060996Y-89388993D01*
X113069054Y-89366471D01*
X113079282Y-89344847D01*
X113091579Y-89324330D01*
X113105829Y-89305117D01*
X113121893Y-89287393D01*
X113139617Y-89271329D01*
X113158830Y-89257079D01*
X113179347Y-89244782D01*
X113200971Y-89234554D01*
X113223493Y-89226496D01*
X113246697Y-89220684D01*
X113270358Y-89217174D01*
X113294250Y-89216000D01*
X113781750Y-89216000D01*
X113805642Y-89217174D01*
G37*
%TD*%
%TO.C,U1*%
G36*
X124608859Y-97607236D02*
G01*
X124622207Y-97609216D01*
X124635296Y-97612495D01*
X124648001Y-97617041D01*
X124660199Y-97622810D01*
X124671773Y-97629747D01*
X124682611Y-97637785D01*
X124692609Y-97646847D01*
X125541137Y-98495375D01*
X125550199Y-98505373D01*
X125558237Y-98516211D01*
X125565174Y-98527785D01*
X125570943Y-98539983D01*
X125575489Y-98552688D01*
X125578768Y-98565777D01*
X125580748Y-98579125D01*
X125581410Y-98592602D01*
X125580748Y-98606079D01*
X125578768Y-98619427D01*
X125575489Y-98632516D01*
X125570943Y-98645221D01*
X125565174Y-98657419D01*
X125558237Y-98668993D01*
X125550199Y-98679831D01*
X125541137Y-98689829D01*
X125346683Y-98884283D01*
X125336685Y-98893345D01*
X125325847Y-98901383D01*
X125314273Y-98908320D01*
X125302075Y-98914089D01*
X125289370Y-98918635D01*
X125276281Y-98921914D01*
X125262933Y-98923894D01*
X125249456Y-98924556D01*
X125235979Y-98923894D01*
X125222631Y-98921914D01*
X125209542Y-98918635D01*
X125196837Y-98914089D01*
X125184639Y-98908320D01*
X125173065Y-98901383D01*
X125162227Y-98893345D01*
X125152229Y-98884283D01*
X124303701Y-98035755D01*
X124294639Y-98025757D01*
X124286601Y-98014919D01*
X124279664Y-98003345D01*
X124273895Y-97991147D01*
X124269349Y-97978442D01*
X124266070Y-97965353D01*
X124264090Y-97952005D01*
X124263428Y-97938528D01*
X124264090Y-97925051D01*
X124266070Y-97911703D01*
X124269349Y-97898614D01*
X124273895Y-97885909D01*
X124279664Y-97873711D01*
X124286601Y-97862137D01*
X124294639Y-97851299D01*
X124303701Y-97841301D01*
X124498155Y-97646847D01*
X124508153Y-97637785D01*
X124518991Y-97629747D01*
X124530565Y-97622810D01*
X124542763Y-97617041D01*
X124555468Y-97612495D01*
X124568557Y-97609216D01*
X124581905Y-97607236D01*
X124595382Y-97606574D01*
X124608859Y-97607236D01*
G37*
G36*
X124043174Y-98172921D02*
G01*
X124056522Y-98174901D01*
X124069611Y-98178180D01*
X124082316Y-98182726D01*
X124094514Y-98188495D01*
X124106088Y-98195432D01*
X124116926Y-98203470D01*
X124126924Y-98212532D01*
X124975452Y-99061060D01*
X124984514Y-99071058D01*
X124992552Y-99081896D01*
X124999489Y-99093470D01*
X125005258Y-99105668D01*
X125009804Y-99118373D01*
X125013083Y-99131462D01*
X125015063Y-99144810D01*
X125015725Y-99158287D01*
X125015063Y-99171764D01*
X125013083Y-99185112D01*
X125009804Y-99198201D01*
X125005258Y-99210906D01*
X124999489Y-99223104D01*
X124992552Y-99234678D01*
X124984514Y-99245516D01*
X124975452Y-99255514D01*
X124780998Y-99449968D01*
X124771000Y-99459030D01*
X124760162Y-99467068D01*
X124748588Y-99474005D01*
X124736390Y-99479774D01*
X124723685Y-99484320D01*
X124710596Y-99487599D01*
X124697248Y-99489579D01*
X124683771Y-99490241D01*
X124670294Y-99489579D01*
X124656946Y-99487599D01*
X124643857Y-99484320D01*
X124631152Y-99479774D01*
X124618954Y-99474005D01*
X124607380Y-99467068D01*
X124596542Y-99459030D01*
X124586544Y-99449968D01*
X123738016Y-98601440D01*
X123728954Y-98591442D01*
X123720916Y-98580604D01*
X123713979Y-98569030D01*
X123708210Y-98556832D01*
X123703664Y-98544127D01*
X123700385Y-98531038D01*
X123698405Y-98517690D01*
X123697743Y-98504213D01*
X123698405Y-98490736D01*
X123700385Y-98477388D01*
X123703664Y-98464299D01*
X123708210Y-98451594D01*
X123713979Y-98439396D01*
X123720916Y-98427822D01*
X123728954Y-98416984D01*
X123738016Y-98406986D01*
X123932470Y-98212532D01*
X123942468Y-98203470D01*
X123953306Y-98195432D01*
X123964880Y-98188495D01*
X123977078Y-98182726D01*
X123989783Y-98178180D01*
X124002872Y-98174901D01*
X124016220Y-98172921D01*
X124029697Y-98172259D01*
X124043174Y-98172921D01*
G37*
G36*
X123477488Y-98738607D02*
G01*
X123490836Y-98740587D01*
X123503925Y-98743866D01*
X123516630Y-98748412D01*
X123528828Y-98754181D01*
X123540402Y-98761118D01*
X123551240Y-98769156D01*
X123561238Y-98778218D01*
X124409766Y-99626746D01*
X124418828Y-99636744D01*
X124426866Y-99647582D01*
X124433803Y-99659156D01*
X124439572Y-99671354D01*
X124444118Y-99684059D01*
X124447397Y-99697148D01*
X124449377Y-99710496D01*
X124450039Y-99723973D01*
X124449377Y-99737450D01*
X124447397Y-99750798D01*
X124444118Y-99763887D01*
X124439572Y-99776592D01*
X124433803Y-99788790D01*
X124426866Y-99800364D01*
X124418828Y-99811202D01*
X124409766Y-99821200D01*
X124215312Y-100015654D01*
X124205314Y-100024716D01*
X124194476Y-100032754D01*
X124182902Y-100039691D01*
X124170704Y-100045460D01*
X124157999Y-100050006D01*
X124144910Y-100053285D01*
X124131562Y-100055265D01*
X124118085Y-100055927D01*
X124104608Y-100055265D01*
X124091260Y-100053285D01*
X124078171Y-100050006D01*
X124065466Y-100045460D01*
X124053268Y-100039691D01*
X124041694Y-100032754D01*
X124030856Y-100024716D01*
X124020858Y-100015654D01*
X123172330Y-99167126D01*
X123163268Y-99157128D01*
X123155230Y-99146290D01*
X123148293Y-99134716D01*
X123142524Y-99122518D01*
X123137978Y-99109813D01*
X123134699Y-99096724D01*
X123132719Y-99083376D01*
X123132057Y-99069899D01*
X123132719Y-99056422D01*
X123134699Y-99043074D01*
X123137978Y-99029985D01*
X123142524Y-99017280D01*
X123148293Y-99005082D01*
X123155230Y-98993508D01*
X123163268Y-98982670D01*
X123172330Y-98972672D01*
X123366784Y-98778218D01*
X123376782Y-98769156D01*
X123387620Y-98761118D01*
X123399194Y-98754181D01*
X123411392Y-98748412D01*
X123424097Y-98743866D01*
X123437186Y-98740587D01*
X123450534Y-98738607D01*
X123464011Y-98737945D01*
X123477488Y-98738607D01*
G37*
G36*
X122911803Y-99304292D02*
G01*
X122925151Y-99306272D01*
X122938240Y-99309551D01*
X122950945Y-99314097D01*
X122963143Y-99319866D01*
X122974717Y-99326803D01*
X122985555Y-99334841D01*
X122995553Y-99343903D01*
X123844081Y-100192431D01*
X123853143Y-100202429D01*
X123861181Y-100213267D01*
X123868118Y-100224841D01*
X123873887Y-100237039D01*
X123878433Y-100249744D01*
X123881712Y-100262833D01*
X123883692Y-100276181D01*
X123884354Y-100289658D01*
X123883692Y-100303135D01*
X123881712Y-100316483D01*
X123878433Y-100329572D01*
X123873887Y-100342277D01*
X123868118Y-100354475D01*
X123861181Y-100366049D01*
X123853143Y-100376887D01*
X123844081Y-100386885D01*
X123649627Y-100581339D01*
X123639629Y-100590401D01*
X123628791Y-100598439D01*
X123617217Y-100605376D01*
X123605019Y-100611145D01*
X123592314Y-100615691D01*
X123579225Y-100618970D01*
X123565877Y-100620950D01*
X123552400Y-100621612D01*
X123538923Y-100620950D01*
X123525575Y-100618970D01*
X123512486Y-100615691D01*
X123499781Y-100611145D01*
X123487583Y-100605376D01*
X123476009Y-100598439D01*
X123465171Y-100590401D01*
X123455173Y-100581339D01*
X122606645Y-99732811D01*
X122597583Y-99722813D01*
X122589545Y-99711975D01*
X122582608Y-99700401D01*
X122576839Y-99688203D01*
X122572293Y-99675498D01*
X122569014Y-99662409D01*
X122567034Y-99649061D01*
X122566372Y-99635584D01*
X122567034Y-99622107D01*
X122569014Y-99608759D01*
X122572293Y-99595670D01*
X122576839Y-99582965D01*
X122582608Y-99570767D01*
X122589545Y-99559193D01*
X122597583Y-99548355D01*
X122606645Y-99538357D01*
X122801099Y-99343903D01*
X122811097Y-99334841D01*
X122821935Y-99326803D01*
X122833509Y-99319866D01*
X122845707Y-99314097D01*
X122858412Y-99309551D01*
X122871501Y-99306272D01*
X122884849Y-99304292D01*
X122898326Y-99303630D01*
X122911803Y-99304292D01*
G37*
G36*
X122346118Y-99869978D02*
G01*
X122359466Y-99871958D01*
X122372555Y-99875237D01*
X122385260Y-99879783D01*
X122397458Y-99885552D01*
X122409032Y-99892489D01*
X122419870Y-99900527D01*
X122429868Y-99909589D01*
X123278396Y-100758117D01*
X123287458Y-100768115D01*
X123295496Y-100778953D01*
X123302433Y-100790527D01*
X123308202Y-100802725D01*
X123312748Y-100815430D01*
X123316027Y-100828519D01*
X123318007Y-100841867D01*
X123318669Y-100855344D01*
X123318007Y-100868821D01*
X123316027Y-100882169D01*
X123312748Y-100895258D01*
X123308202Y-100907963D01*
X123302433Y-100920161D01*
X123295496Y-100931735D01*
X123287458Y-100942573D01*
X123278396Y-100952571D01*
X123083942Y-101147025D01*
X123073944Y-101156087D01*
X123063106Y-101164125D01*
X123051532Y-101171062D01*
X123039334Y-101176831D01*
X123026629Y-101181377D01*
X123013540Y-101184656D01*
X123000192Y-101186636D01*
X122986715Y-101187298D01*
X122973238Y-101186636D01*
X122959890Y-101184656D01*
X122946801Y-101181377D01*
X122934096Y-101176831D01*
X122921898Y-101171062D01*
X122910324Y-101164125D01*
X122899486Y-101156087D01*
X122889488Y-101147025D01*
X122040960Y-100298497D01*
X122031898Y-100288499D01*
X122023860Y-100277661D01*
X122016923Y-100266087D01*
X122011154Y-100253889D01*
X122006608Y-100241184D01*
X122003329Y-100228095D01*
X122001349Y-100214747D01*
X122000687Y-100201270D01*
X122001349Y-100187793D01*
X122003329Y-100174445D01*
X122006608Y-100161356D01*
X122011154Y-100148651D01*
X122016923Y-100136453D01*
X122023860Y-100124879D01*
X122031898Y-100114041D01*
X122040960Y-100104043D01*
X122235414Y-99909589D01*
X122245412Y-99900527D01*
X122256250Y-99892489D01*
X122267824Y-99885552D01*
X122280022Y-99879783D01*
X122292727Y-99875237D01*
X122305816Y-99871958D01*
X122319164Y-99869978D01*
X122332641Y-99869316D01*
X122346118Y-99869978D01*
G37*
G36*
X121780432Y-100435663D02*
G01*
X121793780Y-100437643D01*
X121806869Y-100440922D01*
X121819574Y-100445468D01*
X121831772Y-100451237D01*
X121843346Y-100458174D01*
X121854184Y-100466212D01*
X121864182Y-100475274D01*
X122712710Y-101323802D01*
X122721772Y-101333800D01*
X122729810Y-101344638D01*
X122736747Y-101356212D01*
X122742516Y-101368410D01*
X122747062Y-101381115D01*
X122750341Y-101394204D01*
X122752321Y-101407552D01*
X122752983Y-101421029D01*
X122752321Y-101434506D01*
X122750341Y-101447854D01*
X122747062Y-101460943D01*
X122742516Y-101473648D01*
X122736747Y-101485846D01*
X122729810Y-101497420D01*
X122721772Y-101508258D01*
X122712710Y-101518256D01*
X122518256Y-101712710D01*
X122508258Y-101721772D01*
X122497420Y-101729810D01*
X122485846Y-101736747D01*
X122473648Y-101742516D01*
X122460943Y-101747062D01*
X122447854Y-101750341D01*
X122434506Y-101752321D01*
X122421029Y-101752983D01*
X122407552Y-101752321D01*
X122394204Y-101750341D01*
X122381115Y-101747062D01*
X122368410Y-101742516D01*
X122356212Y-101736747D01*
X122344638Y-101729810D01*
X122333800Y-101721772D01*
X122323802Y-101712710D01*
X121475274Y-100864182D01*
X121466212Y-100854184D01*
X121458174Y-100843346D01*
X121451237Y-100831772D01*
X121445468Y-100819574D01*
X121440922Y-100806869D01*
X121437643Y-100793780D01*
X121435663Y-100780432D01*
X121435001Y-100766955D01*
X121435663Y-100753478D01*
X121437643Y-100740130D01*
X121440922Y-100727041D01*
X121445468Y-100714336D01*
X121451237Y-100702138D01*
X121458174Y-100690564D01*
X121466212Y-100679726D01*
X121475274Y-100669728D01*
X121669728Y-100475274D01*
X121679726Y-100466212D01*
X121690564Y-100458174D01*
X121702138Y-100451237D01*
X121714336Y-100445468D01*
X121727041Y-100440922D01*
X121740130Y-100437643D01*
X121753478Y-100435663D01*
X121766955Y-100435001D01*
X121780432Y-100435663D01*
G37*
G36*
X121214747Y-101001349D02*
G01*
X121228095Y-101003329D01*
X121241184Y-101006608D01*
X121253889Y-101011154D01*
X121266087Y-101016923D01*
X121277661Y-101023860D01*
X121288499Y-101031898D01*
X121298497Y-101040960D01*
X122147025Y-101889488D01*
X122156087Y-101899486D01*
X122164125Y-101910324D01*
X122171062Y-101921898D01*
X122176831Y-101934096D01*
X122181377Y-101946801D01*
X122184656Y-101959890D01*
X122186636Y-101973238D01*
X122187298Y-101986715D01*
X122186636Y-102000192D01*
X122184656Y-102013540D01*
X122181377Y-102026629D01*
X122176831Y-102039334D01*
X122171062Y-102051532D01*
X122164125Y-102063106D01*
X122156087Y-102073944D01*
X122147025Y-102083942D01*
X121952571Y-102278396D01*
X121942573Y-102287458D01*
X121931735Y-102295496D01*
X121920161Y-102302433D01*
X121907963Y-102308202D01*
X121895258Y-102312748D01*
X121882169Y-102316027D01*
X121868821Y-102318007D01*
X121855344Y-102318669D01*
X121841867Y-102318007D01*
X121828519Y-102316027D01*
X121815430Y-102312748D01*
X121802725Y-102308202D01*
X121790527Y-102302433D01*
X121778953Y-102295496D01*
X121768115Y-102287458D01*
X121758117Y-102278396D01*
X120909589Y-101429868D01*
X120900527Y-101419870D01*
X120892489Y-101409032D01*
X120885552Y-101397458D01*
X120879783Y-101385260D01*
X120875237Y-101372555D01*
X120871958Y-101359466D01*
X120869978Y-101346118D01*
X120869316Y-101332641D01*
X120869978Y-101319164D01*
X120871958Y-101305816D01*
X120875237Y-101292727D01*
X120879783Y-101280022D01*
X120885552Y-101267824D01*
X120892489Y-101256250D01*
X120900527Y-101245412D01*
X120909589Y-101235414D01*
X121104043Y-101040960D01*
X121114041Y-101031898D01*
X121124879Y-101023860D01*
X121136453Y-101016923D01*
X121148651Y-101011154D01*
X121161356Y-101006608D01*
X121174445Y-101003329D01*
X121187793Y-101001349D01*
X121201270Y-101000687D01*
X121214747Y-101001349D01*
G37*
G36*
X120649061Y-101567034D02*
G01*
X120662409Y-101569014D01*
X120675498Y-101572293D01*
X120688203Y-101576839D01*
X120700401Y-101582608D01*
X120711975Y-101589545D01*
X120722813Y-101597583D01*
X120732811Y-101606645D01*
X121581339Y-102455173D01*
X121590401Y-102465171D01*
X121598439Y-102476009D01*
X121605376Y-102487583D01*
X121611145Y-102499781D01*
X121615691Y-102512486D01*
X121618970Y-102525575D01*
X121620950Y-102538923D01*
X121621612Y-102552400D01*
X121620950Y-102565877D01*
X121618970Y-102579225D01*
X121615691Y-102592314D01*
X121611145Y-102605019D01*
X121605376Y-102617217D01*
X121598439Y-102628791D01*
X121590401Y-102639629D01*
X121581339Y-102649627D01*
X121386885Y-102844081D01*
X121376887Y-102853143D01*
X121366049Y-102861181D01*
X121354475Y-102868118D01*
X121342277Y-102873887D01*
X121329572Y-102878433D01*
X121316483Y-102881712D01*
X121303135Y-102883692D01*
X121289658Y-102884354D01*
X121276181Y-102883692D01*
X121262833Y-102881712D01*
X121249744Y-102878433D01*
X121237039Y-102873887D01*
X121224841Y-102868118D01*
X121213267Y-102861181D01*
X121202429Y-102853143D01*
X121192431Y-102844081D01*
X120343903Y-101995553D01*
X120334841Y-101985555D01*
X120326803Y-101974717D01*
X120319866Y-101963143D01*
X120314097Y-101950945D01*
X120309551Y-101938240D01*
X120306272Y-101925151D01*
X120304292Y-101911803D01*
X120303630Y-101898326D01*
X120304292Y-101884849D01*
X120306272Y-101871501D01*
X120309551Y-101858412D01*
X120314097Y-101845707D01*
X120319866Y-101833509D01*
X120326803Y-101821935D01*
X120334841Y-101811097D01*
X120343903Y-101801099D01*
X120538357Y-101606645D01*
X120548355Y-101597583D01*
X120559193Y-101589545D01*
X120570767Y-101582608D01*
X120582965Y-101576839D01*
X120595670Y-101572293D01*
X120608759Y-101569014D01*
X120622107Y-101567034D01*
X120635584Y-101566372D01*
X120649061Y-101567034D01*
G37*
G36*
X120083376Y-102132719D02*
G01*
X120096724Y-102134699D01*
X120109813Y-102137978D01*
X120122518Y-102142524D01*
X120134716Y-102148293D01*
X120146290Y-102155230D01*
X120157128Y-102163268D01*
X120167126Y-102172330D01*
X121015654Y-103020858D01*
X121024716Y-103030856D01*
X121032754Y-103041694D01*
X121039691Y-103053268D01*
X121045460Y-103065466D01*
X121050006Y-103078171D01*
X121053285Y-103091260D01*
X121055265Y-103104608D01*
X121055927Y-103118085D01*
X121055265Y-103131562D01*
X121053285Y-103144910D01*
X121050006Y-103157999D01*
X121045460Y-103170704D01*
X121039691Y-103182902D01*
X121032754Y-103194476D01*
X121024716Y-103205314D01*
X121015654Y-103215312D01*
X120821200Y-103409766D01*
X120811202Y-103418828D01*
X120800364Y-103426866D01*
X120788790Y-103433803D01*
X120776592Y-103439572D01*
X120763887Y-103444118D01*
X120750798Y-103447397D01*
X120737450Y-103449377D01*
X120723973Y-103450039D01*
X120710496Y-103449377D01*
X120697148Y-103447397D01*
X120684059Y-103444118D01*
X120671354Y-103439572D01*
X120659156Y-103433803D01*
X120647582Y-103426866D01*
X120636744Y-103418828D01*
X120626746Y-103409766D01*
X119778218Y-102561238D01*
X119769156Y-102551240D01*
X119761118Y-102540402D01*
X119754181Y-102528828D01*
X119748412Y-102516630D01*
X119743866Y-102503925D01*
X119740587Y-102490836D01*
X119738607Y-102477488D01*
X119737945Y-102464011D01*
X119738607Y-102450534D01*
X119740587Y-102437186D01*
X119743866Y-102424097D01*
X119748412Y-102411392D01*
X119754181Y-102399194D01*
X119761118Y-102387620D01*
X119769156Y-102376782D01*
X119778218Y-102366784D01*
X119972672Y-102172330D01*
X119982670Y-102163268D01*
X119993508Y-102155230D01*
X120005082Y-102148293D01*
X120017280Y-102142524D01*
X120029985Y-102137978D01*
X120043074Y-102134699D01*
X120056422Y-102132719D01*
X120069899Y-102132057D01*
X120083376Y-102132719D01*
G37*
G36*
X119517690Y-102698405D02*
G01*
X119531038Y-102700385D01*
X119544127Y-102703664D01*
X119556832Y-102708210D01*
X119569030Y-102713979D01*
X119580604Y-102720916D01*
X119591442Y-102728954D01*
X119601440Y-102738016D01*
X120449968Y-103586544D01*
X120459030Y-103596542D01*
X120467068Y-103607380D01*
X120474005Y-103618954D01*
X120479774Y-103631152D01*
X120484320Y-103643857D01*
X120487599Y-103656946D01*
X120489579Y-103670294D01*
X120490241Y-103683771D01*
X120489579Y-103697248D01*
X120487599Y-103710596D01*
X120484320Y-103723685D01*
X120479774Y-103736390D01*
X120474005Y-103748588D01*
X120467068Y-103760162D01*
X120459030Y-103771000D01*
X120449968Y-103780998D01*
X120255514Y-103975452D01*
X120245516Y-103984514D01*
X120234678Y-103992552D01*
X120223104Y-103999489D01*
X120210906Y-104005258D01*
X120198201Y-104009804D01*
X120185112Y-104013083D01*
X120171764Y-104015063D01*
X120158287Y-104015725D01*
X120144810Y-104015063D01*
X120131462Y-104013083D01*
X120118373Y-104009804D01*
X120105668Y-104005258D01*
X120093470Y-103999489D01*
X120081896Y-103992552D01*
X120071058Y-103984514D01*
X120061060Y-103975452D01*
X119212532Y-103126924D01*
X119203470Y-103116926D01*
X119195432Y-103106088D01*
X119188495Y-103094514D01*
X119182726Y-103082316D01*
X119178180Y-103069611D01*
X119174901Y-103056522D01*
X119172921Y-103043174D01*
X119172259Y-103029697D01*
X119172921Y-103016220D01*
X119174901Y-103002872D01*
X119178180Y-102989783D01*
X119182726Y-102977078D01*
X119188495Y-102964880D01*
X119195432Y-102953306D01*
X119203470Y-102942468D01*
X119212532Y-102932470D01*
X119406986Y-102738016D01*
X119416984Y-102728954D01*
X119427822Y-102720916D01*
X119439396Y-102713979D01*
X119451594Y-102708210D01*
X119464299Y-102703664D01*
X119477388Y-102700385D01*
X119490736Y-102698405D01*
X119504213Y-102697743D01*
X119517690Y-102698405D01*
G37*
G36*
X118952005Y-103264090D02*
G01*
X118965353Y-103266070D01*
X118978442Y-103269349D01*
X118991147Y-103273895D01*
X119003345Y-103279664D01*
X119014919Y-103286601D01*
X119025757Y-103294639D01*
X119035755Y-103303701D01*
X119884283Y-104152229D01*
X119893345Y-104162227D01*
X119901383Y-104173065D01*
X119908320Y-104184639D01*
X119914089Y-104196837D01*
X119918635Y-104209542D01*
X119921914Y-104222631D01*
X119923894Y-104235979D01*
X119924556Y-104249456D01*
X119923894Y-104262933D01*
X119921914Y-104276281D01*
X119918635Y-104289370D01*
X119914089Y-104302075D01*
X119908320Y-104314273D01*
X119901383Y-104325847D01*
X119893345Y-104336685D01*
X119884283Y-104346683D01*
X119689829Y-104541137D01*
X119679831Y-104550199D01*
X119668993Y-104558237D01*
X119657419Y-104565174D01*
X119645221Y-104570943D01*
X119632516Y-104575489D01*
X119619427Y-104578768D01*
X119606079Y-104580748D01*
X119592602Y-104581410D01*
X119579125Y-104580748D01*
X119565777Y-104578768D01*
X119552688Y-104575489D01*
X119539983Y-104570943D01*
X119527785Y-104565174D01*
X119516211Y-104558237D01*
X119505373Y-104550199D01*
X119495375Y-104541137D01*
X118646847Y-103692609D01*
X118637785Y-103682611D01*
X118629747Y-103671773D01*
X118622810Y-103660199D01*
X118617041Y-103648001D01*
X118612495Y-103635296D01*
X118609216Y-103622207D01*
X118607236Y-103608859D01*
X118606574Y-103595382D01*
X118607236Y-103581905D01*
X118609216Y-103568557D01*
X118612495Y-103555468D01*
X118617041Y-103542763D01*
X118622810Y-103530565D01*
X118629747Y-103518991D01*
X118637785Y-103508153D01*
X118646847Y-103498155D01*
X118841301Y-103303701D01*
X118851299Y-103294639D01*
X118862137Y-103286601D01*
X118873711Y-103279664D01*
X118885909Y-103273895D01*
X118898614Y-103269349D01*
X118911703Y-103266070D01*
X118925051Y-103264090D01*
X118938528Y-103263428D01*
X118952005Y-103264090D01*
G37*
G36*
X117254949Y-103264090D02*
G01*
X117268297Y-103266070D01*
X117281386Y-103269349D01*
X117294091Y-103273895D01*
X117306289Y-103279664D01*
X117317863Y-103286601D01*
X117328701Y-103294639D01*
X117338699Y-103303701D01*
X117533153Y-103498155D01*
X117542215Y-103508153D01*
X117550253Y-103518991D01*
X117557190Y-103530565D01*
X117562959Y-103542763D01*
X117567505Y-103555468D01*
X117570784Y-103568557D01*
X117572764Y-103581905D01*
X117573426Y-103595382D01*
X117572764Y-103608859D01*
X117570784Y-103622207D01*
X117567505Y-103635296D01*
X117562959Y-103648001D01*
X117557190Y-103660199D01*
X117550253Y-103671773D01*
X117542215Y-103682611D01*
X117533153Y-103692609D01*
X116684625Y-104541137D01*
X116674627Y-104550199D01*
X116663789Y-104558237D01*
X116652215Y-104565174D01*
X116640017Y-104570943D01*
X116627312Y-104575489D01*
X116614223Y-104578768D01*
X116600875Y-104580748D01*
X116587398Y-104581410D01*
X116573921Y-104580748D01*
X116560573Y-104578768D01*
X116547484Y-104575489D01*
X116534779Y-104570943D01*
X116522581Y-104565174D01*
X116511007Y-104558237D01*
X116500169Y-104550199D01*
X116490171Y-104541137D01*
X116295717Y-104346683D01*
X116286655Y-104336685D01*
X116278617Y-104325847D01*
X116271680Y-104314273D01*
X116265911Y-104302075D01*
X116261365Y-104289370D01*
X116258086Y-104276281D01*
X116256106Y-104262933D01*
X116255444Y-104249456D01*
X116256106Y-104235979D01*
X116258086Y-104222631D01*
X116261365Y-104209542D01*
X116265911Y-104196837D01*
X116271680Y-104184639D01*
X116278617Y-104173065D01*
X116286655Y-104162227D01*
X116295717Y-104152229D01*
X117144245Y-103303701D01*
X117154243Y-103294639D01*
X117165081Y-103286601D01*
X117176655Y-103279664D01*
X117188853Y-103273895D01*
X117201558Y-103269349D01*
X117214647Y-103266070D01*
X117227995Y-103264090D01*
X117241472Y-103263428D01*
X117254949Y-103264090D01*
G37*
G36*
X116689264Y-102698405D02*
G01*
X116702612Y-102700385D01*
X116715701Y-102703664D01*
X116728406Y-102708210D01*
X116740604Y-102713979D01*
X116752178Y-102720916D01*
X116763016Y-102728954D01*
X116773014Y-102738016D01*
X116967468Y-102932470D01*
X116976530Y-102942468D01*
X116984568Y-102953306D01*
X116991505Y-102964880D01*
X116997274Y-102977078D01*
X117001820Y-102989783D01*
X117005099Y-103002872D01*
X117007079Y-103016220D01*
X117007741Y-103029697D01*
X117007079Y-103043174D01*
X117005099Y-103056522D01*
X117001820Y-103069611D01*
X116997274Y-103082316D01*
X116991505Y-103094514D01*
X116984568Y-103106088D01*
X116976530Y-103116926D01*
X116967468Y-103126924D01*
X116118940Y-103975452D01*
X116108942Y-103984514D01*
X116098104Y-103992552D01*
X116086530Y-103999489D01*
X116074332Y-104005258D01*
X116061627Y-104009804D01*
X116048538Y-104013083D01*
X116035190Y-104015063D01*
X116021713Y-104015725D01*
X116008236Y-104015063D01*
X115994888Y-104013083D01*
X115981799Y-104009804D01*
X115969094Y-104005258D01*
X115956896Y-103999489D01*
X115945322Y-103992552D01*
X115934484Y-103984514D01*
X115924486Y-103975452D01*
X115730032Y-103780998D01*
X115720970Y-103771000D01*
X115712932Y-103760162D01*
X115705995Y-103748588D01*
X115700226Y-103736390D01*
X115695680Y-103723685D01*
X115692401Y-103710596D01*
X115690421Y-103697248D01*
X115689759Y-103683771D01*
X115690421Y-103670294D01*
X115692401Y-103656946D01*
X115695680Y-103643857D01*
X115700226Y-103631152D01*
X115705995Y-103618954D01*
X115712932Y-103607380D01*
X115720970Y-103596542D01*
X115730032Y-103586544D01*
X116578560Y-102738016D01*
X116588558Y-102728954D01*
X116599396Y-102720916D01*
X116610970Y-102713979D01*
X116623168Y-102708210D01*
X116635873Y-102703664D01*
X116648962Y-102700385D01*
X116662310Y-102698405D01*
X116675787Y-102697743D01*
X116689264Y-102698405D01*
G37*
G36*
X116123578Y-102132719D02*
G01*
X116136926Y-102134699D01*
X116150015Y-102137978D01*
X116162720Y-102142524D01*
X116174918Y-102148293D01*
X116186492Y-102155230D01*
X116197330Y-102163268D01*
X116207328Y-102172330D01*
X116401782Y-102366784D01*
X116410844Y-102376782D01*
X116418882Y-102387620D01*
X116425819Y-102399194D01*
X116431588Y-102411392D01*
X116436134Y-102424097D01*
X116439413Y-102437186D01*
X116441393Y-102450534D01*
X116442055Y-102464011D01*
X116441393Y-102477488D01*
X116439413Y-102490836D01*
X116436134Y-102503925D01*
X116431588Y-102516630D01*
X116425819Y-102528828D01*
X116418882Y-102540402D01*
X116410844Y-102551240D01*
X116401782Y-102561238D01*
X115553254Y-103409766D01*
X115543256Y-103418828D01*
X115532418Y-103426866D01*
X115520844Y-103433803D01*
X115508646Y-103439572D01*
X115495941Y-103444118D01*
X115482852Y-103447397D01*
X115469504Y-103449377D01*
X115456027Y-103450039D01*
X115442550Y-103449377D01*
X115429202Y-103447397D01*
X115416113Y-103444118D01*
X115403408Y-103439572D01*
X115391210Y-103433803D01*
X115379636Y-103426866D01*
X115368798Y-103418828D01*
X115358800Y-103409766D01*
X115164346Y-103215312D01*
X115155284Y-103205314D01*
X115147246Y-103194476D01*
X115140309Y-103182902D01*
X115134540Y-103170704D01*
X115129994Y-103157999D01*
X115126715Y-103144910D01*
X115124735Y-103131562D01*
X115124073Y-103118085D01*
X115124735Y-103104608D01*
X115126715Y-103091260D01*
X115129994Y-103078171D01*
X115134540Y-103065466D01*
X115140309Y-103053268D01*
X115147246Y-103041694D01*
X115155284Y-103030856D01*
X115164346Y-103020858D01*
X116012874Y-102172330D01*
X116022872Y-102163268D01*
X116033710Y-102155230D01*
X116045284Y-102148293D01*
X116057482Y-102142524D01*
X116070187Y-102137978D01*
X116083276Y-102134699D01*
X116096624Y-102132719D01*
X116110101Y-102132057D01*
X116123578Y-102132719D01*
G37*
G36*
X115557893Y-101567034D02*
G01*
X115571241Y-101569014D01*
X115584330Y-101572293D01*
X115597035Y-101576839D01*
X115609233Y-101582608D01*
X115620807Y-101589545D01*
X115631645Y-101597583D01*
X115641643Y-101606645D01*
X115836097Y-101801099D01*
X115845159Y-101811097D01*
X115853197Y-101821935D01*
X115860134Y-101833509D01*
X115865903Y-101845707D01*
X115870449Y-101858412D01*
X115873728Y-101871501D01*
X115875708Y-101884849D01*
X115876370Y-101898326D01*
X115875708Y-101911803D01*
X115873728Y-101925151D01*
X115870449Y-101938240D01*
X115865903Y-101950945D01*
X115860134Y-101963143D01*
X115853197Y-101974717D01*
X115845159Y-101985555D01*
X115836097Y-101995553D01*
X114987569Y-102844081D01*
X114977571Y-102853143D01*
X114966733Y-102861181D01*
X114955159Y-102868118D01*
X114942961Y-102873887D01*
X114930256Y-102878433D01*
X114917167Y-102881712D01*
X114903819Y-102883692D01*
X114890342Y-102884354D01*
X114876865Y-102883692D01*
X114863517Y-102881712D01*
X114850428Y-102878433D01*
X114837723Y-102873887D01*
X114825525Y-102868118D01*
X114813951Y-102861181D01*
X114803113Y-102853143D01*
X114793115Y-102844081D01*
X114598661Y-102649627D01*
X114589599Y-102639629D01*
X114581561Y-102628791D01*
X114574624Y-102617217D01*
X114568855Y-102605019D01*
X114564309Y-102592314D01*
X114561030Y-102579225D01*
X114559050Y-102565877D01*
X114558388Y-102552400D01*
X114559050Y-102538923D01*
X114561030Y-102525575D01*
X114564309Y-102512486D01*
X114568855Y-102499781D01*
X114574624Y-102487583D01*
X114581561Y-102476009D01*
X114589599Y-102465171D01*
X114598661Y-102455173D01*
X115447189Y-101606645D01*
X115457187Y-101597583D01*
X115468025Y-101589545D01*
X115479599Y-101582608D01*
X115491797Y-101576839D01*
X115504502Y-101572293D01*
X115517591Y-101569014D01*
X115530939Y-101567034D01*
X115544416Y-101566372D01*
X115557893Y-101567034D01*
G37*
G36*
X114992207Y-101001349D02*
G01*
X115005555Y-101003329D01*
X115018644Y-101006608D01*
X115031349Y-101011154D01*
X115043547Y-101016923D01*
X115055121Y-101023860D01*
X115065959Y-101031898D01*
X115075957Y-101040960D01*
X115270411Y-101235414D01*
X115279473Y-101245412D01*
X115287511Y-101256250D01*
X115294448Y-101267824D01*
X115300217Y-101280022D01*
X115304763Y-101292727D01*
X115308042Y-101305816D01*
X115310022Y-101319164D01*
X115310684Y-101332641D01*
X115310022Y-101346118D01*
X115308042Y-101359466D01*
X115304763Y-101372555D01*
X115300217Y-101385260D01*
X115294448Y-101397458D01*
X115287511Y-101409032D01*
X115279473Y-101419870D01*
X115270411Y-101429868D01*
X114421883Y-102278396D01*
X114411885Y-102287458D01*
X114401047Y-102295496D01*
X114389473Y-102302433D01*
X114377275Y-102308202D01*
X114364570Y-102312748D01*
X114351481Y-102316027D01*
X114338133Y-102318007D01*
X114324656Y-102318669D01*
X114311179Y-102318007D01*
X114297831Y-102316027D01*
X114284742Y-102312748D01*
X114272037Y-102308202D01*
X114259839Y-102302433D01*
X114248265Y-102295496D01*
X114237427Y-102287458D01*
X114227429Y-102278396D01*
X114032975Y-102083942D01*
X114023913Y-102073944D01*
X114015875Y-102063106D01*
X114008938Y-102051532D01*
X114003169Y-102039334D01*
X113998623Y-102026629D01*
X113995344Y-102013540D01*
X113993364Y-102000192D01*
X113992702Y-101986715D01*
X113993364Y-101973238D01*
X113995344Y-101959890D01*
X113998623Y-101946801D01*
X114003169Y-101934096D01*
X114008938Y-101921898D01*
X114015875Y-101910324D01*
X114023913Y-101899486D01*
X114032975Y-101889488D01*
X114881503Y-101040960D01*
X114891501Y-101031898D01*
X114902339Y-101023860D01*
X114913913Y-101016923D01*
X114926111Y-101011154D01*
X114938816Y-101006608D01*
X114951905Y-101003329D01*
X114965253Y-101001349D01*
X114978730Y-101000687D01*
X114992207Y-101001349D01*
G37*
G36*
X114426522Y-100435663D02*
G01*
X114439870Y-100437643D01*
X114452959Y-100440922D01*
X114465664Y-100445468D01*
X114477862Y-100451237D01*
X114489436Y-100458174D01*
X114500274Y-100466212D01*
X114510272Y-100475274D01*
X114704726Y-100669728D01*
X114713788Y-100679726D01*
X114721826Y-100690564D01*
X114728763Y-100702138D01*
X114734532Y-100714336D01*
X114739078Y-100727041D01*
X114742357Y-100740130D01*
X114744337Y-100753478D01*
X114744999Y-100766955D01*
X114744337Y-100780432D01*
X114742357Y-100793780D01*
X114739078Y-100806869D01*
X114734532Y-100819574D01*
X114728763Y-100831772D01*
X114721826Y-100843346D01*
X114713788Y-100854184D01*
X114704726Y-100864182D01*
X113856198Y-101712710D01*
X113846200Y-101721772D01*
X113835362Y-101729810D01*
X113823788Y-101736747D01*
X113811590Y-101742516D01*
X113798885Y-101747062D01*
X113785796Y-101750341D01*
X113772448Y-101752321D01*
X113758971Y-101752983D01*
X113745494Y-101752321D01*
X113732146Y-101750341D01*
X113719057Y-101747062D01*
X113706352Y-101742516D01*
X113694154Y-101736747D01*
X113682580Y-101729810D01*
X113671742Y-101721772D01*
X113661744Y-101712710D01*
X113467290Y-101518256D01*
X113458228Y-101508258D01*
X113450190Y-101497420D01*
X113443253Y-101485846D01*
X113437484Y-101473648D01*
X113432938Y-101460943D01*
X113429659Y-101447854D01*
X113427679Y-101434506D01*
X113427017Y-101421029D01*
X113427679Y-101407552D01*
X113429659Y-101394204D01*
X113432938Y-101381115D01*
X113437484Y-101368410D01*
X113443253Y-101356212D01*
X113450190Y-101344638D01*
X113458228Y-101333800D01*
X113467290Y-101323802D01*
X114315818Y-100475274D01*
X114325816Y-100466212D01*
X114336654Y-100458174D01*
X114348228Y-100451237D01*
X114360426Y-100445468D01*
X114373131Y-100440922D01*
X114386220Y-100437643D01*
X114399568Y-100435663D01*
X114413045Y-100435001D01*
X114426522Y-100435663D01*
G37*
G36*
X113860836Y-99869978D02*
G01*
X113874184Y-99871958D01*
X113887273Y-99875237D01*
X113899978Y-99879783D01*
X113912176Y-99885552D01*
X113923750Y-99892489D01*
X113934588Y-99900527D01*
X113944586Y-99909589D01*
X114139040Y-100104043D01*
X114148102Y-100114041D01*
X114156140Y-100124879D01*
X114163077Y-100136453D01*
X114168846Y-100148651D01*
X114173392Y-100161356D01*
X114176671Y-100174445D01*
X114178651Y-100187793D01*
X114179313Y-100201270D01*
X114178651Y-100214747D01*
X114176671Y-100228095D01*
X114173392Y-100241184D01*
X114168846Y-100253889D01*
X114163077Y-100266087D01*
X114156140Y-100277661D01*
X114148102Y-100288499D01*
X114139040Y-100298497D01*
X113290512Y-101147025D01*
X113280514Y-101156087D01*
X113269676Y-101164125D01*
X113258102Y-101171062D01*
X113245904Y-101176831D01*
X113233199Y-101181377D01*
X113220110Y-101184656D01*
X113206762Y-101186636D01*
X113193285Y-101187298D01*
X113179808Y-101186636D01*
X113166460Y-101184656D01*
X113153371Y-101181377D01*
X113140666Y-101176831D01*
X113128468Y-101171062D01*
X113116894Y-101164125D01*
X113106056Y-101156087D01*
X113096058Y-101147025D01*
X112901604Y-100952571D01*
X112892542Y-100942573D01*
X112884504Y-100931735D01*
X112877567Y-100920161D01*
X112871798Y-100907963D01*
X112867252Y-100895258D01*
X112863973Y-100882169D01*
X112861993Y-100868821D01*
X112861331Y-100855344D01*
X112861993Y-100841867D01*
X112863973Y-100828519D01*
X112867252Y-100815430D01*
X112871798Y-100802725D01*
X112877567Y-100790527D01*
X112884504Y-100778953D01*
X112892542Y-100768115D01*
X112901604Y-100758117D01*
X113750132Y-99909589D01*
X113760130Y-99900527D01*
X113770968Y-99892489D01*
X113782542Y-99885552D01*
X113794740Y-99879783D01*
X113807445Y-99875237D01*
X113820534Y-99871958D01*
X113833882Y-99869978D01*
X113847359Y-99869316D01*
X113860836Y-99869978D01*
G37*
G36*
X113295151Y-99304292D02*
G01*
X113308499Y-99306272D01*
X113321588Y-99309551D01*
X113334293Y-99314097D01*
X113346491Y-99319866D01*
X113358065Y-99326803D01*
X113368903Y-99334841D01*
X113378901Y-99343903D01*
X113573355Y-99538357D01*
X113582417Y-99548355D01*
X113590455Y-99559193D01*
X113597392Y-99570767D01*
X113603161Y-99582965D01*
X113607707Y-99595670D01*
X113610986Y-99608759D01*
X113612966Y-99622107D01*
X113613628Y-99635584D01*
X113612966Y-99649061D01*
X113610986Y-99662409D01*
X113607707Y-99675498D01*
X113603161Y-99688203D01*
X113597392Y-99700401D01*
X113590455Y-99711975D01*
X113582417Y-99722813D01*
X113573355Y-99732811D01*
X112724827Y-100581339D01*
X112714829Y-100590401D01*
X112703991Y-100598439D01*
X112692417Y-100605376D01*
X112680219Y-100611145D01*
X112667514Y-100615691D01*
X112654425Y-100618970D01*
X112641077Y-100620950D01*
X112627600Y-100621612D01*
X112614123Y-100620950D01*
X112600775Y-100618970D01*
X112587686Y-100615691D01*
X112574981Y-100611145D01*
X112562783Y-100605376D01*
X112551209Y-100598439D01*
X112540371Y-100590401D01*
X112530373Y-100581339D01*
X112335919Y-100386885D01*
X112326857Y-100376887D01*
X112318819Y-100366049D01*
X112311882Y-100354475D01*
X112306113Y-100342277D01*
X112301567Y-100329572D01*
X112298288Y-100316483D01*
X112296308Y-100303135D01*
X112295646Y-100289658D01*
X112296308Y-100276181D01*
X112298288Y-100262833D01*
X112301567Y-100249744D01*
X112306113Y-100237039D01*
X112311882Y-100224841D01*
X112318819Y-100213267D01*
X112326857Y-100202429D01*
X112335919Y-100192431D01*
X113184447Y-99343903D01*
X113194445Y-99334841D01*
X113205283Y-99326803D01*
X113216857Y-99319866D01*
X113229055Y-99314097D01*
X113241760Y-99309551D01*
X113254849Y-99306272D01*
X113268197Y-99304292D01*
X113281674Y-99303630D01*
X113295151Y-99304292D01*
G37*
G36*
X112729466Y-98738607D02*
G01*
X112742814Y-98740587D01*
X112755903Y-98743866D01*
X112768608Y-98748412D01*
X112780806Y-98754181D01*
X112792380Y-98761118D01*
X112803218Y-98769156D01*
X112813216Y-98778218D01*
X113007670Y-98972672D01*
X113016732Y-98982670D01*
X113024770Y-98993508D01*
X113031707Y-99005082D01*
X113037476Y-99017280D01*
X113042022Y-99029985D01*
X113045301Y-99043074D01*
X113047281Y-99056422D01*
X113047943Y-99069899D01*
X113047281Y-99083376D01*
X113045301Y-99096724D01*
X113042022Y-99109813D01*
X113037476Y-99122518D01*
X113031707Y-99134716D01*
X113024770Y-99146290D01*
X113016732Y-99157128D01*
X113007670Y-99167126D01*
X112159142Y-100015654D01*
X112149144Y-100024716D01*
X112138306Y-100032754D01*
X112126732Y-100039691D01*
X112114534Y-100045460D01*
X112101829Y-100050006D01*
X112088740Y-100053285D01*
X112075392Y-100055265D01*
X112061915Y-100055927D01*
X112048438Y-100055265D01*
X112035090Y-100053285D01*
X112022001Y-100050006D01*
X112009296Y-100045460D01*
X111997098Y-100039691D01*
X111985524Y-100032754D01*
X111974686Y-100024716D01*
X111964688Y-100015654D01*
X111770234Y-99821200D01*
X111761172Y-99811202D01*
X111753134Y-99800364D01*
X111746197Y-99788790D01*
X111740428Y-99776592D01*
X111735882Y-99763887D01*
X111732603Y-99750798D01*
X111730623Y-99737450D01*
X111729961Y-99723973D01*
X111730623Y-99710496D01*
X111732603Y-99697148D01*
X111735882Y-99684059D01*
X111740428Y-99671354D01*
X111746197Y-99659156D01*
X111753134Y-99647582D01*
X111761172Y-99636744D01*
X111770234Y-99626746D01*
X112618762Y-98778218D01*
X112628760Y-98769156D01*
X112639598Y-98761118D01*
X112651172Y-98754181D01*
X112663370Y-98748412D01*
X112676075Y-98743866D01*
X112689164Y-98740587D01*
X112702512Y-98738607D01*
X112715989Y-98737945D01*
X112729466Y-98738607D01*
G37*
G36*
X112163780Y-98172921D02*
G01*
X112177128Y-98174901D01*
X112190217Y-98178180D01*
X112202922Y-98182726D01*
X112215120Y-98188495D01*
X112226694Y-98195432D01*
X112237532Y-98203470D01*
X112247530Y-98212532D01*
X112441984Y-98406986D01*
X112451046Y-98416984D01*
X112459084Y-98427822D01*
X112466021Y-98439396D01*
X112471790Y-98451594D01*
X112476336Y-98464299D01*
X112479615Y-98477388D01*
X112481595Y-98490736D01*
X112482257Y-98504213D01*
X112481595Y-98517690D01*
X112479615Y-98531038D01*
X112476336Y-98544127D01*
X112471790Y-98556832D01*
X112466021Y-98569030D01*
X112459084Y-98580604D01*
X112451046Y-98591442D01*
X112441984Y-98601440D01*
X111593456Y-99449968D01*
X111583458Y-99459030D01*
X111572620Y-99467068D01*
X111561046Y-99474005D01*
X111548848Y-99479774D01*
X111536143Y-99484320D01*
X111523054Y-99487599D01*
X111509706Y-99489579D01*
X111496229Y-99490241D01*
X111482752Y-99489579D01*
X111469404Y-99487599D01*
X111456315Y-99484320D01*
X111443610Y-99479774D01*
X111431412Y-99474005D01*
X111419838Y-99467068D01*
X111409000Y-99459030D01*
X111399002Y-99449968D01*
X111204548Y-99255514D01*
X111195486Y-99245516D01*
X111187448Y-99234678D01*
X111180511Y-99223104D01*
X111174742Y-99210906D01*
X111170196Y-99198201D01*
X111166917Y-99185112D01*
X111164937Y-99171764D01*
X111164275Y-99158287D01*
X111164937Y-99144810D01*
X111166917Y-99131462D01*
X111170196Y-99118373D01*
X111174742Y-99105668D01*
X111180511Y-99093470D01*
X111187448Y-99081896D01*
X111195486Y-99071058D01*
X111204548Y-99061060D01*
X112053076Y-98212532D01*
X112063074Y-98203470D01*
X112073912Y-98195432D01*
X112085486Y-98188495D01*
X112097684Y-98182726D01*
X112110389Y-98178180D01*
X112123478Y-98174901D01*
X112136826Y-98172921D01*
X112150303Y-98172259D01*
X112163780Y-98172921D01*
G37*
G36*
X111598095Y-97607236D02*
G01*
X111611443Y-97609216D01*
X111624532Y-97612495D01*
X111637237Y-97617041D01*
X111649435Y-97622810D01*
X111661009Y-97629747D01*
X111671847Y-97637785D01*
X111681845Y-97646847D01*
X111876299Y-97841301D01*
X111885361Y-97851299D01*
X111893399Y-97862137D01*
X111900336Y-97873711D01*
X111906105Y-97885909D01*
X111910651Y-97898614D01*
X111913930Y-97911703D01*
X111915910Y-97925051D01*
X111916572Y-97938528D01*
X111915910Y-97952005D01*
X111913930Y-97965353D01*
X111910651Y-97978442D01*
X111906105Y-97991147D01*
X111900336Y-98003345D01*
X111893399Y-98014919D01*
X111885361Y-98025757D01*
X111876299Y-98035755D01*
X111027771Y-98884283D01*
X111017773Y-98893345D01*
X111006935Y-98901383D01*
X110995361Y-98908320D01*
X110983163Y-98914089D01*
X110970458Y-98918635D01*
X110957369Y-98921914D01*
X110944021Y-98923894D01*
X110930544Y-98924556D01*
X110917067Y-98923894D01*
X110903719Y-98921914D01*
X110890630Y-98918635D01*
X110877925Y-98914089D01*
X110865727Y-98908320D01*
X110854153Y-98901383D01*
X110843315Y-98893345D01*
X110833317Y-98884283D01*
X110638863Y-98689829D01*
X110629801Y-98679831D01*
X110621763Y-98668993D01*
X110614826Y-98657419D01*
X110609057Y-98645221D01*
X110604511Y-98632516D01*
X110601232Y-98619427D01*
X110599252Y-98606079D01*
X110598590Y-98592602D01*
X110599252Y-98579125D01*
X110601232Y-98565777D01*
X110604511Y-98552688D01*
X110609057Y-98539983D01*
X110614826Y-98527785D01*
X110621763Y-98516211D01*
X110629801Y-98505373D01*
X110638863Y-98495375D01*
X111487391Y-97646847D01*
X111497389Y-97637785D01*
X111508227Y-97629747D01*
X111519801Y-97622810D01*
X111531999Y-97617041D01*
X111544704Y-97612495D01*
X111557793Y-97609216D01*
X111571141Y-97607236D01*
X111584618Y-97606574D01*
X111598095Y-97607236D01*
G37*
G36*
X110944021Y-95256106D02*
G01*
X110957369Y-95258086D01*
X110970458Y-95261365D01*
X110983163Y-95265911D01*
X110995361Y-95271680D01*
X111006935Y-95278617D01*
X111017773Y-95286655D01*
X111027771Y-95295717D01*
X111876299Y-96144245D01*
X111885361Y-96154243D01*
X111893399Y-96165081D01*
X111900336Y-96176655D01*
X111906105Y-96188853D01*
X111910651Y-96201558D01*
X111913930Y-96214647D01*
X111915910Y-96227995D01*
X111916572Y-96241472D01*
X111915910Y-96254949D01*
X111913930Y-96268297D01*
X111910651Y-96281386D01*
X111906105Y-96294091D01*
X111900336Y-96306289D01*
X111893399Y-96317863D01*
X111885361Y-96328701D01*
X111876299Y-96338699D01*
X111681845Y-96533153D01*
X111671847Y-96542215D01*
X111661009Y-96550253D01*
X111649435Y-96557190D01*
X111637237Y-96562959D01*
X111624532Y-96567505D01*
X111611443Y-96570784D01*
X111598095Y-96572764D01*
X111584618Y-96573426D01*
X111571141Y-96572764D01*
X111557793Y-96570784D01*
X111544704Y-96567505D01*
X111531999Y-96562959D01*
X111519801Y-96557190D01*
X111508227Y-96550253D01*
X111497389Y-96542215D01*
X111487391Y-96533153D01*
X110638863Y-95684625D01*
X110629801Y-95674627D01*
X110621763Y-95663789D01*
X110614826Y-95652215D01*
X110609057Y-95640017D01*
X110604511Y-95627312D01*
X110601232Y-95614223D01*
X110599252Y-95600875D01*
X110598590Y-95587398D01*
X110599252Y-95573921D01*
X110601232Y-95560573D01*
X110604511Y-95547484D01*
X110609057Y-95534779D01*
X110614826Y-95522581D01*
X110621763Y-95511007D01*
X110629801Y-95500169D01*
X110638863Y-95490171D01*
X110833317Y-95295717D01*
X110843315Y-95286655D01*
X110854153Y-95278617D01*
X110865727Y-95271680D01*
X110877925Y-95265911D01*
X110890630Y-95261365D01*
X110903719Y-95258086D01*
X110917067Y-95256106D01*
X110930544Y-95255444D01*
X110944021Y-95256106D01*
G37*
G36*
X111509706Y-94690421D02*
G01*
X111523054Y-94692401D01*
X111536143Y-94695680D01*
X111548848Y-94700226D01*
X111561046Y-94705995D01*
X111572620Y-94712932D01*
X111583458Y-94720970D01*
X111593456Y-94730032D01*
X112441984Y-95578560D01*
X112451046Y-95588558D01*
X112459084Y-95599396D01*
X112466021Y-95610970D01*
X112471790Y-95623168D01*
X112476336Y-95635873D01*
X112479615Y-95648962D01*
X112481595Y-95662310D01*
X112482257Y-95675787D01*
X112481595Y-95689264D01*
X112479615Y-95702612D01*
X112476336Y-95715701D01*
X112471790Y-95728406D01*
X112466021Y-95740604D01*
X112459084Y-95752178D01*
X112451046Y-95763016D01*
X112441984Y-95773014D01*
X112247530Y-95967468D01*
X112237532Y-95976530D01*
X112226694Y-95984568D01*
X112215120Y-95991505D01*
X112202922Y-95997274D01*
X112190217Y-96001820D01*
X112177128Y-96005099D01*
X112163780Y-96007079D01*
X112150303Y-96007741D01*
X112136826Y-96007079D01*
X112123478Y-96005099D01*
X112110389Y-96001820D01*
X112097684Y-95997274D01*
X112085486Y-95991505D01*
X112073912Y-95984568D01*
X112063074Y-95976530D01*
X112053076Y-95967468D01*
X111204548Y-95118940D01*
X111195486Y-95108942D01*
X111187448Y-95098104D01*
X111180511Y-95086530D01*
X111174742Y-95074332D01*
X111170196Y-95061627D01*
X111166917Y-95048538D01*
X111164937Y-95035190D01*
X111164275Y-95021713D01*
X111164937Y-95008236D01*
X111166917Y-94994888D01*
X111170196Y-94981799D01*
X111174742Y-94969094D01*
X111180511Y-94956896D01*
X111187448Y-94945322D01*
X111195486Y-94934484D01*
X111204548Y-94924486D01*
X111399002Y-94730032D01*
X111409000Y-94720970D01*
X111419838Y-94712932D01*
X111431412Y-94705995D01*
X111443610Y-94700226D01*
X111456315Y-94695680D01*
X111469404Y-94692401D01*
X111482752Y-94690421D01*
X111496229Y-94689759D01*
X111509706Y-94690421D01*
G37*
G36*
X112075392Y-94124735D02*
G01*
X112088740Y-94126715D01*
X112101829Y-94129994D01*
X112114534Y-94134540D01*
X112126732Y-94140309D01*
X112138306Y-94147246D01*
X112149144Y-94155284D01*
X112159142Y-94164346D01*
X113007670Y-95012874D01*
X113016732Y-95022872D01*
X113024770Y-95033710D01*
X113031707Y-95045284D01*
X113037476Y-95057482D01*
X113042022Y-95070187D01*
X113045301Y-95083276D01*
X113047281Y-95096624D01*
X113047943Y-95110101D01*
X113047281Y-95123578D01*
X113045301Y-95136926D01*
X113042022Y-95150015D01*
X113037476Y-95162720D01*
X113031707Y-95174918D01*
X113024770Y-95186492D01*
X113016732Y-95197330D01*
X113007670Y-95207328D01*
X112813216Y-95401782D01*
X112803218Y-95410844D01*
X112792380Y-95418882D01*
X112780806Y-95425819D01*
X112768608Y-95431588D01*
X112755903Y-95436134D01*
X112742814Y-95439413D01*
X112729466Y-95441393D01*
X112715989Y-95442055D01*
X112702512Y-95441393D01*
X112689164Y-95439413D01*
X112676075Y-95436134D01*
X112663370Y-95431588D01*
X112651172Y-95425819D01*
X112639598Y-95418882D01*
X112628760Y-95410844D01*
X112618762Y-95401782D01*
X111770234Y-94553254D01*
X111761172Y-94543256D01*
X111753134Y-94532418D01*
X111746197Y-94520844D01*
X111740428Y-94508646D01*
X111735882Y-94495941D01*
X111732603Y-94482852D01*
X111730623Y-94469504D01*
X111729961Y-94456027D01*
X111730623Y-94442550D01*
X111732603Y-94429202D01*
X111735882Y-94416113D01*
X111740428Y-94403408D01*
X111746197Y-94391210D01*
X111753134Y-94379636D01*
X111761172Y-94368798D01*
X111770234Y-94358800D01*
X111964688Y-94164346D01*
X111974686Y-94155284D01*
X111985524Y-94147246D01*
X111997098Y-94140309D01*
X112009296Y-94134540D01*
X112022001Y-94129994D01*
X112035090Y-94126715D01*
X112048438Y-94124735D01*
X112061915Y-94124073D01*
X112075392Y-94124735D01*
G37*
G36*
X112641077Y-93559050D02*
G01*
X112654425Y-93561030D01*
X112667514Y-93564309D01*
X112680219Y-93568855D01*
X112692417Y-93574624D01*
X112703991Y-93581561D01*
X112714829Y-93589599D01*
X112724827Y-93598661D01*
X113573355Y-94447189D01*
X113582417Y-94457187D01*
X113590455Y-94468025D01*
X113597392Y-94479599D01*
X113603161Y-94491797D01*
X113607707Y-94504502D01*
X113610986Y-94517591D01*
X113612966Y-94530939D01*
X113613628Y-94544416D01*
X113612966Y-94557893D01*
X113610986Y-94571241D01*
X113607707Y-94584330D01*
X113603161Y-94597035D01*
X113597392Y-94609233D01*
X113590455Y-94620807D01*
X113582417Y-94631645D01*
X113573355Y-94641643D01*
X113378901Y-94836097D01*
X113368903Y-94845159D01*
X113358065Y-94853197D01*
X113346491Y-94860134D01*
X113334293Y-94865903D01*
X113321588Y-94870449D01*
X113308499Y-94873728D01*
X113295151Y-94875708D01*
X113281674Y-94876370D01*
X113268197Y-94875708D01*
X113254849Y-94873728D01*
X113241760Y-94870449D01*
X113229055Y-94865903D01*
X113216857Y-94860134D01*
X113205283Y-94853197D01*
X113194445Y-94845159D01*
X113184447Y-94836097D01*
X112335919Y-93987569D01*
X112326857Y-93977571D01*
X112318819Y-93966733D01*
X112311882Y-93955159D01*
X112306113Y-93942961D01*
X112301567Y-93930256D01*
X112298288Y-93917167D01*
X112296308Y-93903819D01*
X112295646Y-93890342D01*
X112296308Y-93876865D01*
X112298288Y-93863517D01*
X112301567Y-93850428D01*
X112306113Y-93837723D01*
X112311882Y-93825525D01*
X112318819Y-93813951D01*
X112326857Y-93803113D01*
X112335919Y-93793115D01*
X112530373Y-93598661D01*
X112540371Y-93589599D01*
X112551209Y-93581561D01*
X112562783Y-93574624D01*
X112574981Y-93568855D01*
X112587686Y-93564309D01*
X112600775Y-93561030D01*
X112614123Y-93559050D01*
X112627600Y-93558388D01*
X112641077Y-93559050D01*
G37*
G36*
X113206762Y-92993364D02*
G01*
X113220110Y-92995344D01*
X113233199Y-92998623D01*
X113245904Y-93003169D01*
X113258102Y-93008938D01*
X113269676Y-93015875D01*
X113280514Y-93023913D01*
X113290512Y-93032975D01*
X114139040Y-93881503D01*
X114148102Y-93891501D01*
X114156140Y-93902339D01*
X114163077Y-93913913D01*
X114168846Y-93926111D01*
X114173392Y-93938816D01*
X114176671Y-93951905D01*
X114178651Y-93965253D01*
X114179313Y-93978730D01*
X114178651Y-93992207D01*
X114176671Y-94005555D01*
X114173392Y-94018644D01*
X114168846Y-94031349D01*
X114163077Y-94043547D01*
X114156140Y-94055121D01*
X114148102Y-94065959D01*
X114139040Y-94075957D01*
X113944586Y-94270411D01*
X113934588Y-94279473D01*
X113923750Y-94287511D01*
X113912176Y-94294448D01*
X113899978Y-94300217D01*
X113887273Y-94304763D01*
X113874184Y-94308042D01*
X113860836Y-94310022D01*
X113847359Y-94310684D01*
X113833882Y-94310022D01*
X113820534Y-94308042D01*
X113807445Y-94304763D01*
X113794740Y-94300217D01*
X113782542Y-94294448D01*
X113770968Y-94287511D01*
X113760130Y-94279473D01*
X113750132Y-94270411D01*
X112901604Y-93421883D01*
X112892542Y-93411885D01*
X112884504Y-93401047D01*
X112877567Y-93389473D01*
X112871798Y-93377275D01*
X112867252Y-93364570D01*
X112863973Y-93351481D01*
X112861993Y-93338133D01*
X112861331Y-93324656D01*
X112861993Y-93311179D01*
X112863973Y-93297831D01*
X112867252Y-93284742D01*
X112871798Y-93272037D01*
X112877567Y-93259839D01*
X112884504Y-93248265D01*
X112892542Y-93237427D01*
X112901604Y-93227429D01*
X113096058Y-93032975D01*
X113106056Y-93023913D01*
X113116894Y-93015875D01*
X113128468Y-93008938D01*
X113140666Y-93003169D01*
X113153371Y-92998623D01*
X113166460Y-92995344D01*
X113179808Y-92993364D01*
X113193285Y-92992702D01*
X113206762Y-92993364D01*
G37*
G36*
X113772448Y-92427679D02*
G01*
X113785796Y-92429659D01*
X113798885Y-92432938D01*
X113811590Y-92437484D01*
X113823788Y-92443253D01*
X113835362Y-92450190D01*
X113846200Y-92458228D01*
X113856198Y-92467290D01*
X114704726Y-93315818D01*
X114713788Y-93325816D01*
X114721826Y-93336654D01*
X114728763Y-93348228D01*
X114734532Y-93360426D01*
X114739078Y-93373131D01*
X114742357Y-93386220D01*
X114744337Y-93399568D01*
X114744999Y-93413045D01*
X114744337Y-93426522D01*
X114742357Y-93439870D01*
X114739078Y-93452959D01*
X114734532Y-93465664D01*
X114728763Y-93477862D01*
X114721826Y-93489436D01*
X114713788Y-93500274D01*
X114704726Y-93510272D01*
X114510272Y-93704726D01*
X114500274Y-93713788D01*
X114489436Y-93721826D01*
X114477862Y-93728763D01*
X114465664Y-93734532D01*
X114452959Y-93739078D01*
X114439870Y-93742357D01*
X114426522Y-93744337D01*
X114413045Y-93744999D01*
X114399568Y-93744337D01*
X114386220Y-93742357D01*
X114373131Y-93739078D01*
X114360426Y-93734532D01*
X114348228Y-93728763D01*
X114336654Y-93721826D01*
X114325816Y-93713788D01*
X114315818Y-93704726D01*
X113467290Y-92856198D01*
X113458228Y-92846200D01*
X113450190Y-92835362D01*
X113443253Y-92823788D01*
X113437484Y-92811590D01*
X113432938Y-92798885D01*
X113429659Y-92785796D01*
X113427679Y-92772448D01*
X113427017Y-92758971D01*
X113427679Y-92745494D01*
X113429659Y-92732146D01*
X113432938Y-92719057D01*
X113437484Y-92706352D01*
X113443253Y-92694154D01*
X113450190Y-92682580D01*
X113458228Y-92671742D01*
X113467290Y-92661744D01*
X113661744Y-92467290D01*
X113671742Y-92458228D01*
X113682580Y-92450190D01*
X113694154Y-92443253D01*
X113706352Y-92437484D01*
X113719057Y-92432938D01*
X113732146Y-92429659D01*
X113745494Y-92427679D01*
X113758971Y-92427017D01*
X113772448Y-92427679D01*
G37*
G36*
X114338133Y-91861993D02*
G01*
X114351481Y-91863973D01*
X114364570Y-91867252D01*
X114377275Y-91871798D01*
X114389473Y-91877567D01*
X114401047Y-91884504D01*
X114411885Y-91892542D01*
X114421883Y-91901604D01*
X115270411Y-92750132D01*
X115279473Y-92760130D01*
X115287511Y-92770968D01*
X115294448Y-92782542D01*
X115300217Y-92794740D01*
X115304763Y-92807445D01*
X115308042Y-92820534D01*
X115310022Y-92833882D01*
X115310684Y-92847359D01*
X115310022Y-92860836D01*
X115308042Y-92874184D01*
X115304763Y-92887273D01*
X115300217Y-92899978D01*
X115294448Y-92912176D01*
X115287511Y-92923750D01*
X115279473Y-92934588D01*
X115270411Y-92944586D01*
X115075957Y-93139040D01*
X115065959Y-93148102D01*
X115055121Y-93156140D01*
X115043547Y-93163077D01*
X115031349Y-93168846D01*
X115018644Y-93173392D01*
X115005555Y-93176671D01*
X114992207Y-93178651D01*
X114978730Y-93179313D01*
X114965253Y-93178651D01*
X114951905Y-93176671D01*
X114938816Y-93173392D01*
X114926111Y-93168846D01*
X114913913Y-93163077D01*
X114902339Y-93156140D01*
X114891501Y-93148102D01*
X114881503Y-93139040D01*
X114032975Y-92290512D01*
X114023913Y-92280514D01*
X114015875Y-92269676D01*
X114008938Y-92258102D01*
X114003169Y-92245904D01*
X113998623Y-92233199D01*
X113995344Y-92220110D01*
X113993364Y-92206762D01*
X113992702Y-92193285D01*
X113993364Y-92179808D01*
X113995344Y-92166460D01*
X113998623Y-92153371D01*
X114003169Y-92140666D01*
X114008938Y-92128468D01*
X114015875Y-92116894D01*
X114023913Y-92106056D01*
X114032975Y-92096058D01*
X114227429Y-91901604D01*
X114237427Y-91892542D01*
X114248265Y-91884504D01*
X114259839Y-91877567D01*
X114272037Y-91871798D01*
X114284742Y-91867252D01*
X114297831Y-91863973D01*
X114311179Y-91861993D01*
X114324656Y-91861331D01*
X114338133Y-91861993D01*
G37*
G36*
X114903819Y-91296308D02*
G01*
X114917167Y-91298288D01*
X114930256Y-91301567D01*
X114942961Y-91306113D01*
X114955159Y-91311882D01*
X114966733Y-91318819D01*
X114977571Y-91326857D01*
X114987569Y-91335919D01*
X115836097Y-92184447D01*
X115845159Y-92194445D01*
X115853197Y-92205283D01*
X115860134Y-92216857D01*
X115865903Y-92229055D01*
X115870449Y-92241760D01*
X115873728Y-92254849D01*
X115875708Y-92268197D01*
X115876370Y-92281674D01*
X115875708Y-92295151D01*
X115873728Y-92308499D01*
X115870449Y-92321588D01*
X115865903Y-92334293D01*
X115860134Y-92346491D01*
X115853197Y-92358065D01*
X115845159Y-92368903D01*
X115836097Y-92378901D01*
X115641643Y-92573355D01*
X115631645Y-92582417D01*
X115620807Y-92590455D01*
X115609233Y-92597392D01*
X115597035Y-92603161D01*
X115584330Y-92607707D01*
X115571241Y-92610986D01*
X115557893Y-92612966D01*
X115544416Y-92613628D01*
X115530939Y-92612966D01*
X115517591Y-92610986D01*
X115504502Y-92607707D01*
X115491797Y-92603161D01*
X115479599Y-92597392D01*
X115468025Y-92590455D01*
X115457187Y-92582417D01*
X115447189Y-92573355D01*
X114598661Y-91724827D01*
X114589599Y-91714829D01*
X114581561Y-91703991D01*
X114574624Y-91692417D01*
X114568855Y-91680219D01*
X114564309Y-91667514D01*
X114561030Y-91654425D01*
X114559050Y-91641077D01*
X114558388Y-91627600D01*
X114559050Y-91614123D01*
X114561030Y-91600775D01*
X114564309Y-91587686D01*
X114568855Y-91574981D01*
X114574624Y-91562783D01*
X114581561Y-91551209D01*
X114589599Y-91540371D01*
X114598661Y-91530373D01*
X114793115Y-91335919D01*
X114803113Y-91326857D01*
X114813951Y-91318819D01*
X114825525Y-91311882D01*
X114837723Y-91306113D01*
X114850428Y-91301567D01*
X114863517Y-91298288D01*
X114876865Y-91296308D01*
X114890342Y-91295646D01*
X114903819Y-91296308D01*
G37*
G36*
X115469504Y-90730623D02*
G01*
X115482852Y-90732603D01*
X115495941Y-90735882D01*
X115508646Y-90740428D01*
X115520844Y-90746197D01*
X115532418Y-90753134D01*
X115543256Y-90761172D01*
X115553254Y-90770234D01*
X116401782Y-91618762D01*
X116410844Y-91628760D01*
X116418882Y-91639598D01*
X116425819Y-91651172D01*
X116431588Y-91663370D01*
X116436134Y-91676075D01*
X116439413Y-91689164D01*
X116441393Y-91702512D01*
X116442055Y-91715989D01*
X116441393Y-91729466D01*
X116439413Y-91742814D01*
X116436134Y-91755903D01*
X116431588Y-91768608D01*
X116425819Y-91780806D01*
X116418882Y-91792380D01*
X116410844Y-91803218D01*
X116401782Y-91813216D01*
X116207328Y-92007670D01*
X116197330Y-92016732D01*
X116186492Y-92024770D01*
X116174918Y-92031707D01*
X116162720Y-92037476D01*
X116150015Y-92042022D01*
X116136926Y-92045301D01*
X116123578Y-92047281D01*
X116110101Y-92047943D01*
X116096624Y-92047281D01*
X116083276Y-92045301D01*
X116070187Y-92042022D01*
X116057482Y-92037476D01*
X116045284Y-92031707D01*
X116033710Y-92024770D01*
X116022872Y-92016732D01*
X116012874Y-92007670D01*
X115164346Y-91159142D01*
X115155284Y-91149144D01*
X115147246Y-91138306D01*
X115140309Y-91126732D01*
X115134540Y-91114534D01*
X115129994Y-91101829D01*
X115126715Y-91088740D01*
X115124735Y-91075392D01*
X115124073Y-91061915D01*
X115124735Y-91048438D01*
X115126715Y-91035090D01*
X115129994Y-91022001D01*
X115134540Y-91009296D01*
X115140309Y-90997098D01*
X115147246Y-90985524D01*
X115155284Y-90974686D01*
X115164346Y-90964688D01*
X115358800Y-90770234D01*
X115368798Y-90761172D01*
X115379636Y-90753134D01*
X115391210Y-90746197D01*
X115403408Y-90740428D01*
X115416113Y-90735882D01*
X115429202Y-90732603D01*
X115442550Y-90730623D01*
X115456027Y-90729961D01*
X115469504Y-90730623D01*
G37*
G36*
X116035190Y-90164937D02*
G01*
X116048538Y-90166917D01*
X116061627Y-90170196D01*
X116074332Y-90174742D01*
X116086530Y-90180511D01*
X116098104Y-90187448D01*
X116108942Y-90195486D01*
X116118940Y-90204548D01*
X116967468Y-91053076D01*
X116976530Y-91063074D01*
X116984568Y-91073912D01*
X116991505Y-91085486D01*
X116997274Y-91097684D01*
X117001820Y-91110389D01*
X117005099Y-91123478D01*
X117007079Y-91136826D01*
X117007741Y-91150303D01*
X117007079Y-91163780D01*
X117005099Y-91177128D01*
X117001820Y-91190217D01*
X116997274Y-91202922D01*
X116991505Y-91215120D01*
X116984568Y-91226694D01*
X116976530Y-91237532D01*
X116967468Y-91247530D01*
X116773014Y-91441984D01*
X116763016Y-91451046D01*
X116752178Y-91459084D01*
X116740604Y-91466021D01*
X116728406Y-91471790D01*
X116715701Y-91476336D01*
X116702612Y-91479615D01*
X116689264Y-91481595D01*
X116675787Y-91482257D01*
X116662310Y-91481595D01*
X116648962Y-91479615D01*
X116635873Y-91476336D01*
X116623168Y-91471790D01*
X116610970Y-91466021D01*
X116599396Y-91459084D01*
X116588558Y-91451046D01*
X116578560Y-91441984D01*
X115730032Y-90593456D01*
X115720970Y-90583458D01*
X115712932Y-90572620D01*
X115705995Y-90561046D01*
X115700226Y-90548848D01*
X115695680Y-90536143D01*
X115692401Y-90523054D01*
X115690421Y-90509706D01*
X115689759Y-90496229D01*
X115690421Y-90482752D01*
X115692401Y-90469404D01*
X115695680Y-90456315D01*
X115700226Y-90443610D01*
X115705995Y-90431412D01*
X115712932Y-90419838D01*
X115720970Y-90409000D01*
X115730032Y-90399002D01*
X115924486Y-90204548D01*
X115934484Y-90195486D01*
X115945322Y-90187448D01*
X115956896Y-90180511D01*
X115969094Y-90174742D01*
X115981799Y-90170196D01*
X115994888Y-90166917D01*
X116008236Y-90164937D01*
X116021713Y-90164275D01*
X116035190Y-90164937D01*
G37*
G36*
X116600875Y-89599252D02*
G01*
X116614223Y-89601232D01*
X116627312Y-89604511D01*
X116640017Y-89609057D01*
X116652215Y-89614826D01*
X116663789Y-89621763D01*
X116674627Y-89629801D01*
X116684625Y-89638863D01*
X117533153Y-90487391D01*
X117542215Y-90497389D01*
X117550253Y-90508227D01*
X117557190Y-90519801D01*
X117562959Y-90531999D01*
X117567505Y-90544704D01*
X117570784Y-90557793D01*
X117572764Y-90571141D01*
X117573426Y-90584618D01*
X117572764Y-90598095D01*
X117570784Y-90611443D01*
X117567505Y-90624532D01*
X117562959Y-90637237D01*
X117557190Y-90649435D01*
X117550253Y-90661009D01*
X117542215Y-90671847D01*
X117533153Y-90681845D01*
X117338699Y-90876299D01*
X117328701Y-90885361D01*
X117317863Y-90893399D01*
X117306289Y-90900336D01*
X117294091Y-90906105D01*
X117281386Y-90910651D01*
X117268297Y-90913930D01*
X117254949Y-90915910D01*
X117241472Y-90916572D01*
X117227995Y-90915910D01*
X117214647Y-90913930D01*
X117201558Y-90910651D01*
X117188853Y-90906105D01*
X117176655Y-90900336D01*
X117165081Y-90893399D01*
X117154243Y-90885361D01*
X117144245Y-90876299D01*
X116295717Y-90027771D01*
X116286655Y-90017773D01*
X116278617Y-90006935D01*
X116271680Y-89995361D01*
X116265911Y-89983163D01*
X116261365Y-89970458D01*
X116258086Y-89957369D01*
X116256106Y-89944021D01*
X116255444Y-89930544D01*
X116256106Y-89917067D01*
X116258086Y-89903719D01*
X116261365Y-89890630D01*
X116265911Y-89877925D01*
X116271680Y-89865727D01*
X116278617Y-89854153D01*
X116286655Y-89843315D01*
X116295717Y-89833317D01*
X116490171Y-89638863D01*
X116500169Y-89629801D01*
X116511007Y-89621763D01*
X116522581Y-89614826D01*
X116534779Y-89609057D01*
X116547484Y-89604511D01*
X116560573Y-89601232D01*
X116573921Y-89599252D01*
X116587398Y-89598590D01*
X116600875Y-89599252D01*
G37*
G36*
X119606079Y-89599252D02*
G01*
X119619427Y-89601232D01*
X119632516Y-89604511D01*
X119645221Y-89609057D01*
X119657419Y-89614826D01*
X119668993Y-89621763D01*
X119679831Y-89629801D01*
X119689829Y-89638863D01*
X119884283Y-89833317D01*
X119893345Y-89843315D01*
X119901383Y-89854153D01*
X119908320Y-89865727D01*
X119914089Y-89877925D01*
X119918635Y-89890630D01*
X119921914Y-89903719D01*
X119923894Y-89917067D01*
X119924556Y-89930544D01*
X119923894Y-89944021D01*
X119921914Y-89957369D01*
X119918635Y-89970458D01*
X119914089Y-89983163D01*
X119908320Y-89995361D01*
X119901383Y-90006935D01*
X119893345Y-90017773D01*
X119884283Y-90027771D01*
X119035755Y-90876299D01*
X119025757Y-90885361D01*
X119014919Y-90893399D01*
X119003345Y-90900336D01*
X118991147Y-90906105D01*
X118978442Y-90910651D01*
X118965353Y-90913930D01*
X118952005Y-90915910D01*
X118938528Y-90916572D01*
X118925051Y-90915910D01*
X118911703Y-90913930D01*
X118898614Y-90910651D01*
X118885909Y-90906105D01*
X118873711Y-90900336D01*
X118862137Y-90893399D01*
X118851299Y-90885361D01*
X118841301Y-90876299D01*
X118646847Y-90681845D01*
X118637785Y-90671847D01*
X118629747Y-90661009D01*
X118622810Y-90649435D01*
X118617041Y-90637237D01*
X118612495Y-90624532D01*
X118609216Y-90611443D01*
X118607236Y-90598095D01*
X118606574Y-90584618D01*
X118607236Y-90571141D01*
X118609216Y-90557793D01*
X118612495Y-90544704D01*
X118617041Y-90531999D01*
X118622810Y-90519801D01*
X118629747Y-90508227D01*
X118637785Y-90497389D01*
X118646847Y-90487391D01*
X119495375Y-89638863D01*
X119505373Y-89629801D01*
X119516211Y-89621763D01*
X119527785Y-89614826D01*
X119539983Y-89609057D01*
X119552688Y-89604511D01*
X119565777Y-89601232D01*
X119579125Y-89599252D01*
X119592602Y-89598590D01*
X119606079Y-89599252D01*
G37*
G36*
X120171764Y-90164937D02*
G01*
X120185112Y-90166917D01*
X120198201Y-90170196D01*
X120210906Y-90174742D01*
X120223104Y-90180511D01*
X120234678Y-90187448D01*
X120245516Y-90195486D01*
X120255514Y-90204548D01*
X120449968Y-90399002D01*
X120459030Y-90409000D01*
X120467068Y-90419838D01*
X120474005Y-90431412D01*
X120479774Y-90443610D01*
X120484320Y-90456315D01*
X120487599Y-90469404D01*
X120489579Y-90482752D01*
X120490241Y-90496229D01*
X120489579Y-90509706D01*
X120487599Y-90523054D01*
X120484320Y-90536143D01*
X120479774Y-90548848D01*
X120474005Y-90561046D01*
X120467068Y-90572620D01*
X120459030Y-90583458D01*
X120449968Y-90593456D01*
X119601440Y-91441984D01*
X119591442Y-91451046D01*
X119580604Y-91459084D01*
X119569030Y-91466021D01*
X119556832Y-91471790D01*
X119544127Y-91476336D01*
X119531038Y-91479615D01*
X119517690Y-91481595D01*
X119504213Y-91482257D01*
X119490736Y-91481595D01*
X119477388Y-91479615D01*
X119464299Y-91476336D01*
X119451594Y-91471790D01*
X119439396Y-91466021D01*
X119427822Y-91459084D01*
X119416984Y-91451046D01*
X119406986Y-91441984D01*
X119212532Y-91247530D01*
X119203470Y-91237532D01*
X119195432Y-91226694D01*
X119188495Y-91215120D01*
X119182726Y-91202922D01*
X119178180Y-91190217D01*
X119174901Y-91177128D01*
X119172921Y-91163780D01*
X119172259Y-91150303D01*
X119172921Y-91136826D01*
X119174901Y-91123478D01*
X119178180Y-91110389D01*
X119182726Y-91097684D01*
X119188495Y-91085486D01*
X119195432Y-91073912D01*
X119203470Y-91063074D01*
X119212532Y-91053076D01*
X120061060Y-90204548D01*
X120071058Y-90195486D01*
X120081896Y-90187448D01*
X120093470Y-90180511D01*
X120105668Y-90174742D01*
X120118373Y-90170196D01*
X120131462Y-90166917D01*
X120144810Y-90164937D01*
X120158287Y-90164275D01*
X120171764Y-90164937D01*
G37*
G36*
X120737450Y-90730623D02*
G01*
X120750798Y-90732603D01*
X120763887Y-90735882D01*
X120776592Y-90740428D01*
X120788790Y-90746197D01*
X120800364Y-90753134D01*
X120811202Y-90761172D01*
X120821200Y-90770234D01*
X121015654Y-90964688D01*
X121024716Y-90974686D01*
X121032754Y-90985524D01*
X121039691Y-90997098D01*
X121045460Y-91009296D01*
X121050006Y-91022001D01*
X121053285Y-91035090D01*
X121055265Y-91048438D01*
X121055927Y-91061915D01*
X121055265Y-91075392D01*
X121053285Y-91088740D01*
X121050006Y-91101829D01*
X121045460Y-91114534D01*
X121039691Y-91126732D01*
X121032754Y-91138306D01*
X121024716Y-91149144D01*
X121015654Y-91159142D01*
X120167126Y-92007670D01*
X120157128Y-92016732D01*
X120146290Y-92024770D01*
X120134716Y-92031707D01*
X120122518Y-92037476D01*
X120109813Y-92042022D01*
X120096724Y-92045301D01*
X120083376Y-92047281D01*
X120069899Y-92047943D01*
X120056422Y-92047281D01*
X120043074Y-92045301D01*
X120029985Y-92042022D01*
X120017280Y-92037476D01*
X120005082Y-92031707D01*
X119993508Y-92024770D01*
X119982670Y-92016732D01*
X119972672Y-92007670D01*
X119778218Y-91813216D01*
X119769156Y-91803218D01*
X119761118Y-91792380D01*
X119754181Y-91780806D01*
X119748412Y-91768608D01*
X119743866Y-91755903D01*
X119740587Y-91742814D01*
X119738607Y-91729466D01*
X119737945Y-91715989D01*
X119738607Y-91702512D01*
X119740587Y-91689164D01*
X119743866Y-91676075D01*
X119748412Y-91663370D01*
X119754181Y-91651172D01*
X119761118Y-91639598D01*
X119769156Y-91628760D01*
X119778218Y-91618762D01*
X120626746Y-90770234D01*
X120636744Y-90761172D01*
X120647582Y-90753134D01*
X120659156Y-90746197D01*
X120671354Y-90740428D01*
X120684059Y-90735882D01*
X120697148Y-90732603D01*
X120710496Y-90730623D01*
X120723973Y-90729961D01*
X120737450Y-90730623D01*
G37*
G36*
X121303135Y-91296308D02*
G01*
X121316483Y-91298288D01*
X121329572Y-91301567D01*
X121342277Y-91306113D01*
X121354475Y-91311882D01*
X121366049Y-91318819D01*
X121376887Y-91326857D01*
X121386885Y-91335919D01*
X121581339Y-91530373D01*
X121590401Y-91540371D01*
X121598439Y-91551209D01*
X121605376Y-91562783D01*
X121611145Y-91574981D01*
X121615691Y-91587686D01*
X121618970Y-91600775D01*
X121620950Y-91614123D01*
X121621612Y-91627600D01*
X121620950Y-91641077D01*
X121618970Y-91654425D01*
X121615691Y-91667514D01*
X121611145Y-91680219D01*
X121605376Y-91692417D01*
X121598439Y-91703991D01*
X121590401Y-91714829D01*
X121581339Y-91724827D01*
X120732811Y-92573355D01*
X120722813Y-92582417D01*
X120711975Y-92590455D01*
X120700401Y-92597392D01*
X120688203Y-92603161D01*
X120675498Y-92607707D01*
X120662409Y-92610986D01*
X120649061Y-92612966D01*
X120635584Y-92613628D01*
X120622107Y-92612966D01*
X120608759Y-92610986D01*
X120595670Y-92607707D01*
X120582965Y-92603161D01*
X120570767Y-92597392D01*
X120559193Y-92590455D01*
X120548355Y-92582417D01*
X120538357Y-92573355D01*
X120343903Y-92378901D01*
X120334841Y-92368903D01*
X120326803Y-92358065D01*
X120319866Y-92346491D01*
X120314097Y-92334293D01*
X120309551Y-92321588D01*
X120306272Y-92308499D01*
X120304292Y-92295151D01*
X120303630Y-92281674D01*
X120304292Y-92268197D01*
X120306272Y-92254849D01*
X120309551Y-92241760D01*
X120314097Y-92229055D01*
X120319866Y-92216857D01*
X120326803Y-92205283D01*
X120334841Y-92194445D01*
X120343903Y-92184447D01*
X121192431Y-91335919D01*
X121202429Y-91326857D01*
X121213267Y-91318819D01*
X121224841Y-91311882D01*
X121237039Y-91306113D01*
X121249744Y-91301567D01*
X121262833Y-91298288D01*
X121276181Y-91296308D01*
X121289658Y-91295646D01*
X121303135Y-91296308D01*
G37*
G36*
X121868821Y-91861993D02*
G01*
X121882169Y-91863973D01*
X121895258Y-91867252D01*
X121907963Y-91871798D01*
X121920161Y-91877567D01*
X121931735Y-91884504D01*
X121942573Y-91892542D01*
X121952571Y-91901604D01*
X122147025Y-92096058D01*
X122156087Y-92106056D01*
X122164125Y-92116894D01*
X122171062Y-92128468D01*
X122176831Y-92140666D01*
X122181377Y-92153371D01*
X122184656Y-92166460D01*
X122186636Y-92179808D01*
X122187298Y-92193285D01*
X122186636Y-92206762D01*
X122184656Y-92220110D01*
X122181377Y-92233199D01*
X122176831Y-92245904D01*
X122171062Y-92258102D01*
X122164125Y-92269676D01*
X122156087Y-92280514D01*
X122147025Y-92290512D01*
X121298497Y-93139040D01*
X121288499Y-93148102D01*
X121277661Y-93156140D01*
X121266087Y-93163077D01*
X121253889Y-93168846D01*
X121241184Y-93173392D01*
X121228095Y-93176671D01*
X121214747Y-93178651D01*
X121201270Y-93179313D01*
X121187793Y-93178651D01*
X121174445Y-93176671D01*
X121161356Y-93173392D01*
X121148651Y-93168846D01*
X121136453Y-93163077D01*
X121124879Y-93156140D01*
X121114041Y-93148102D01*
X121104043Y-93139040D01*
X120909589Y-92944586D01*
X120900527Y-92934588D01*
X120892489Y-92923750D01*
X120885552Y-92912176D01*
X120879783Y-92899978D01*
X120875237Y-92887273D01*
X120871958Y-92874184D01*
X120869978Y-92860836D01*
X120869316Y-92847359D01*
X120869978Y-92833882D01*
X120871958Y-92820534D01*
X120875237Y-92807445D01*
X120879783Y-92794740D01*
X120885552Y-92782542D01*
X120892489Y-92770968D01*
X120900527Y-92760130D01*
X120909589Y-92750132D01*
X121758117Y-91901604D01*
X121768115Y-91892542D01*
X121778953Y-91884504D01*
X121790527Y-91877567D01*
X121802725Y-91871798D01*
X121815430Y-91867252D01*
X121828519Y-91863973D01*
X121841867Y-91861993D01*
X121855344Y-91861331D01*
X121868821Y-91861993D01*
G37*
G36*
X122434506Y-92427679D02*
G01*
X122447854Y-92429659D01*
X122460943Y-92432938D01*
X122473648Y-92437484D01*
X122485846Y-92443253D01*
X122497420Y-92450190D01*
X122508258Y-92458228D01*
X122518256Y-92467290D01*
X122712710Y-92661744D01*
X122721772Y-92671742D01*
X122729810Y-92682580D01*
X122736747Y-92694154D01*
X122742516Y-92706352D01*
X122747062Y-92719057D01*
X122750341Y-92732146D01*
X122752321Y-92745494D01*
X122752983Y-92758971D01*
X122752321Y-92772448D01*
X122750341Y-92785796D01*
X122747062Y-92798885D01*
X122742516Y-92811590D01*
X122736747Y-92823788D01*
X122729810Y-92835362D01*
X122721772Y-92846200D01*
X122712710Y-92856198D01*
X121864182Y-93704726D01*
X121854184Y-93713788D01*
X121843346Y-93721826D01*
X121831772Y-93728763D01*
X121819574Y-93734532D01*
X121806869Y-93739078D01*
X121793780Y-93742357D01*
X121780432Y-93744337D01*
X121766955Y-93744999D01*
X121753478Y-93744337D01*
X121740130Y-93742357D01*
X121727041Y-93739078D01*
X121714336Y-93734532D01*
X121702138Y-93728763D01*
X121690564Y-93721826D01*
X121679726Y-93713788D01*
X121669728Y-93704726D01*
X121475274Y-93510272D01*
X121466212Y-93500274D01*
X121458174Y-93489436D01*
X121451237Y-93477862D01*
X121445468Y-93465664D01*
X121440922Y-93452959D01*
X121437643Y-93439870D01*
X121435663Y-93426522D01*
X121435001Y-93413045D01*
X121435663Y-93399568D01*
X121437643Y-93386220D01*
X121440922Y-93373131D01*
X121445468Y-93360426D01*
X121451237Y-93348228D01*
X121458174Y-93336654D01*
X121466212Y-93325816D01*
X121475274Y-93315818D01*
X122323802Y-92467290D01*
X122333800Y-92458228D01*
X122344638Y-92450190D01*
X122356212Y-92443253D01*
X122368410Y-92437484D01*
X122381115Y-92432938D01*
X122394204Y-92429659D01*
X122407552Y-92427679D01*
X122421029Y-92427017D01*
X122434506Y-92427679D01*
G37*
G36*
X123000192Y-92993364D02*
G01*
X123013540Y-92995344D01*
X123026629Y-92998623D01*
X123039334Y-93003169D01*
X123051532Y-93008938D01*
X123063106Y-93015875D01*
X123073944Y-93023913D01*
X123083942Y-93032975D01*
X123278396Y-93227429D01*
X123287458Y-93237427D01*
X123295496Y-93248265D01*
X123302433Y-93259839D01*
X123308202Y-93272037D01*
X123312748Y-93284742D01*
X123316027Y-93297831D01*
X123318007Y-93311179D01*
X123318669Y-93324656D01*
X123318007Y-93338133D01*
X123316027Y-93351481D01*
X123312748Y-93364570D01*
X123308202Y-93377275D01*
X123302433Y-93389473D01*
X123295496Y-93401047D01*
X123287458Y-93411885D01*
X123278396Y-93421883D01*
X122429868Y-94270411D01*
X122419870Y-94279473D01*
X122409032Y-94287511D01*
X122397458Y-94294448D01*
X122385260Y-94300217D01*
X122372555Y-94304763D01*
X122359466Y-94308042D01*
X122346118Y-94310022D01*
X122332641Y-94310684D01*
X122319164Y-94310022D01*
X122305816Y-94308042D01*
X122292727Y-94304763D01*
X122280022Y-94300217D01*
X122267824Y-94294448D01*
X122256250Y-94287511D01*
X122245412Y-94279473D01*
X122235414Y-94270411D01*
X122040960Y-94075957D01*
X122031898Y-94065959D01*
X122023860Y-94055121D01*
X122016923Y-94043547D01*
X122011154Y-94031349D01*
X122006608Y-94018644D01*
X122003329Y-94005555D01*
X122001349Y-93992207D01*
X122000687Y-93978730D01*
X122001349Y-93965253D01*
X122003329Y-93951905D01*
X122006608Y-93938816D01*
X122011154Y-93926111D01*
X122016923Y-93913913D01*
X122023860Y-93902339D01*
X122031898Y-93891501D01*
X122040960Y-93881503D01*
X122889488Y-93032975D01*
X122899486Y-93023913D01*
X122910324Y-93015875D01*
X122921898Y-93008938D01*
X122934096Y-93003169D01*
X122946801Y-92998623D01*
X122959890Y-92995344D01*
X122973238Y-92993364D01*
X122986715Y-92992702D01*
X123000192Y-92993364D01*
G37*
G36*
X123565877Y-93559050D02*
G01*
X123579225Y-93561030D01*
X123592314Y-93564309D01*
X123605019Y-93568855D01*
X123617217Y-93574624D01*
X123628791Y-93581561D01*
X123639629Y-93589599D01*
X123649627Y-93598661D01*
X123844081Y-93793115D01*
X123853143Y-93803113D01*
X123861181Y-93813951D01*
X123868118Y-93825525D01*
X123873887Y-93837723D01*
X123878433Y-93850428D01*
X123881712Y-93863517D01*
X123883692Y-93876865D01*
X123884354Y-93890342D01*
X123883692Y-93903819D01*
X123881712Y-93917167D01*
X123878433Y-93930256D01*
X123873887Y-93942961D01*
X123868118Y-93955159D01*
X123861181Y-93966733D01*
X123853143Y-93977571D01*
X123844081Y-93987569D01*
X122995553Y-94836097D01*
X122985555Y-94845159D01*
X122974717Y-94853197D01*
X122963143Y-94860134D01*
X122950945Y-94865903D01*
X122938240Y-94870449D01*
X122925151Y-94873728D01*
X122911803Y-94875708D01*
X122898326Y-94876370D01*
X122884849Y-94875708D01*
X122871501Y-94873728D01*
X122858412Y-94870449D01*
X122845707Y-94865903D01*
X122833509Y-94860134D01*
X122821935Y-94853197D01*
X122811097Y-94845159D01*
X122801099Y-94836097D01*
X122606645Y-94641643D01*
X122597583Y-94631645D01*
X122589545Y-94620807D01*
X122582608Y-94609233D01*
X122576839Y-94597035D01*
X122572293Y-94584330D01*
X122569014Y-94571241D01*
X122567034Y-94557893D01*
X122566372Y-94544416D01*
X122567034Y-94530939D01*
X122569014Y-94517591D01*
X122572293Y-94504502D01*
X122576839Y-94491797D01*
X122582608Y-94479599D01*
X122589545Y-94468025D01*
X122597583Y-94457187D01*
X122606645Y-94447189D01*
X123455173Y-93598661D01*
X123465171Y-93589599D01*
X123476009Y-93581561D01*
X123487583Y-93574624D01*
X123499781Y-93568855D01*
X123512486Y-93564309D01*
X123525575Y-93561030D01*
X123538923Y-93559050D01*
X123552400Y-93558388D01*
X123565877Y-93559050D01*
G37*
G36*
X124131562Y-94124735D02*
G01*
X124144910Y-94126715D01*
X124157999Y-94129994D01*
X124170704Y-94134540D01*
X124182902Y-94140309D01*
X124194476Y-94147246D01*
X124205314Y-94155284D01*
X124215312Y-94164346D01*
X124409766Y-94358800D01*
X124418828Y-94368798D01*
X124426866Y-94379636D01*
X124433803Y-94391210D01*
X124439572Y-94403408D01*
X124444118Y-94416113D01*
X124447397Y-94429202D01*
X124449377Y-94442550D01*
X124450039Y-94456027D01*
X124449377Y-94469504D01*
X124447397Y-94482852D01*
X124444118Y-94495941D01*
X124439572Y-94508646D01*
X124433803Y-94520844D01*
X124426866Y-94532418D01*
X124418828Y-94543256D01*
X124409766Y-94553254D01*
X123561238Y-95401782D01*
X123551240Y-95410844D01*
X123540402Y-95418882D01*
X123528828Y-95425819D01*
X123516630Y-95431588D01*
X123503925Y-95436134D01*
X123490836Y-95439413D01*
X123477488Y-95441393D01*
X123464011Y-95442055D01*
X123450534Y-95441393D01*
X123437186Y-95439413D01*
X123424097Y-95436134D01*
X123411392Y-95431588D01*
X123399194Y-95425819D01*
X123387620Y-95418882D01*
X123376782Y-95410844D01*
X123366784Y-95401782D01*
X123172330Y-95207328D01*
X123163268Y-95197330D01*
X123155230Y-95186492D01*
X123148293Y-95174918D01*
X123142524Y-95162720D01*
X123137978Y-95150015D01*
X123134699Y-95136926D01*
X123132719Y-95123578D01*
X123132057Y-95110101D01*
X123132719Y-95096624D01*
X123134699Y-95083276D01*
X123137978Y-95070187D01*
X123142524Y-95057482D01*
X123148293Y-95045284D01*
X123155230Y-95033710D01*
X123163268Y-95022872D01*
X123172330Y-95012874D01*
X124020858Y-94164346D01*
X124030856Y-94155284D01*
X124041694Y-94147246D01*
X124053268Y-94140309D01*
X124065466Y-94134540D01*
X124078171Y-94129994D01*
X124091260Y-94126715D01*
X124104608Y-94124735D01*
X124118085Y-94124073D01*
X124131562Y-94124735D01*
G37*
G36*
X124697248Y-94690421D02*
G01*
X124710596Y-94692401D01*
X124723685Y-94695680D01*
X124736390Y-94700226D01*
X124748588Y-94705995D01*
X124760162Y-94712932D01*
X124771000Y-94720970D01*
X124780998Y-94730032D01*
X124975452Y-94924486D01*
X124984514Y-94934484D01*
X124992552Y-94945322D01*
X124999489Y-94956896D01*
X125005258Y-94969094D01*
X125009804Y-94981799D01*
X125013083Y-94994888D01*
X125015063Y-95008236D01*
X125015725Y-95021713D01*
X125015063Y-95035190D01*
X125013083Y-95048538D01*
X125009804Y-95061627D01*
X125005258Y-95074332D01*
X124999489Y-95086530D01*
X124992552Y-95098104D01*
X124984514Y-95108942D01*
X124975452Y-95118940D01*
X124126924Y-95967468D01*
X124116926Y-95976530D01*
X124106088Y-95984568D01*
X124094514Y-95991505D01*
X124082316Y-95997274D01*
X124069611Y-96001820D01*
X124056522Y-96005099D01*
X124043174Y-96007079D01*
X124029697Y-96007741D01*
X124016220Y-96007079D01*
X124002872Y-96005099D01*
X123989783Y-96001820D01*
X123977078Y-95997274D01*
X123964880Y-95991505D01*
X123953306Y-95984568D01*
X123942468Y-95976530D01*
X123932470Y-95967468D01*
X123738016Y-95773014D01*
X123728954Y-95763016D01*
X123720916Y-95752178D01*
X123713979Y-95740604D01*
X123708210Y-95728406D01*
X123703664Y-95715701D01*
X123700385Y-95702612D01*
X123698405Y-95689264D01*
X123697743Y-95675787D01*
X123698405Y-95662310D01*
X123700385Y-95648962D01*
X123703664Y-95635873D01*
X123708210Y-95623168D01*
X123713979Y-95610970D01*
X123720916Y-95599396D01*
X123728954Y-95588558D01*
X123738016Y-95578560D01*
X124586544Y-94730032D01*
X124596542Y-94720970D01*
X124607380Y-94712932D01*
X124618954Y-94705995D01*
X124631152Y-94700226D01*
X124643857Y-94695680D01*
X124656946Y-94692401D01*
X124670294Y-94690421D01*
X124683771Y-94689759D01*
X124697248Y-94690421D01*
G37*
G36*
X125262933Y-95256106D02*
G01*
X125276281Y-95258086D01*
X125289370Y-95261365D01*
X125302075Y-95265911D01*
X125314273Y-95271680D01*
X125325847Y-95278617D01*
X125336685Y-95286655D01*
X125346683Y-95295717D01*
X125541137Y-95490171D01*
X125550199Y-95500169D01*
X125558237Y-95511007D01*
X125565174Y-95522581D01*
X125570943Y-95534779D01*
X125575489Y-95547484D01*
X125578768Y-95560573D01*
X125580748Y-95573921D01*
X125581410Y-95587398D01*
X125580748Y-95600875D01*
X125578768Y-95614223D01*
X125575489Y-95627312D01*
X125570943Y-95640017D01*
X125565174Y-95652215D01*
X125558237Y-95663789D01*
X125550199Y-95674627D01*
X125541137Y-95684625D01*
X124692609Y-96533153D01*
X124682611Y-96542215D01*
X124671773Y-96550253D01*
X124660199Y-96557190D01*
X124648001Y-96562959D01*
X124635296Y-96567505D01*
X124622207Y-96570784D01*
X124608859Y-96572764D01*
X124595382Y-96573426D01*
X124581905Y-96572764D01*
X124568557Y-96570784D01*
X124555468Y-96567505D01*
X124542763Y-96562959D01*
X124530565Y-96557190D01*
X124518991Y-96550253D01*
X124508153Y-96542215D01*
X124498155Y-96533153D01*
X124303701Y-96338699D01*
X124294639Y-96328701D01*
X124286601Y-96317863D01*
X124279664Y-96306289D01*
X124273895Y-96294091D01*
X124269349Y-96281386D01*
X124266070Y-96268297D01*
X124264090Y-96254949D01*
X124263428Y-96241472D01*
X124264090Y-96227995D01*
X124266070Y-96214647D01*
X124269349Y-96201558D01*
X124273895Y-96188853D01*
X124279664Y-96176655D01*
X124286601Y-96165081D01*
X124294639Y-96154243D01*
X124303701Y-96144245D01*
X125152229Y-95295717D01*
X125162227Y-95286655D01*
X125173065Y-95278617D01*
X125184639Y-95271680D01*
X125196837Y-95265911D01*
X125209542Y-95261365D01*
X125222631Y-95258086D01*
X125235979Y-95256106D01*
X125249456Y-95255444D01*
X125262933Y-95256106D01*
G37*
%TD*%
M02*
