G04 #@! TF.GenerationSoftware,KiCad,Pcbnew,(6.0.1)*
G04 #@! TF.CreationDate,2022-02-17T12:21:18-06:00*
G04 #@! TF.ProjectId,2u Hand Wire Helpers,32752048-616e-4642-9057-697265204865,rev?*
G04 #@! TF.SameCoordinates,Original*
G04 #@! TF.FileFunction,Copper,L2,Bot*
G04 #@! TF.FilePolarity,Positive*
%FSLAX46Y46*%
G04 Gerber Fmt 4.6, Leading zero omitted, Abs format (unit mm)*
G04 Created by KiCad (PCBNEW (6.0.1)) date 2022-02-17 12:21:18*
%MOMM*%
%LPD*%
G01*
G04 APERTURE LIST*
G04 #@! TA.AperFunction,ComponentPad*
%ADD10C,1.700000*%
G04 #@! TD*
G04 #@! TA.AperFunction,ComponentPad*
%ADD11C,2.200000*%
G04 #@! TD*
G04 #@! TA.AperFunction,Conductor*
%ADD12C,0.250000*%
G04 #@! TD*
G04 APERTURE END LIST*
D10*
X145398000Y-103634000D03*
X145398000Y-86584000D03*
X138155625Y-91074000D03*
X155441971Y-90914000D03*
D11*
X144399000Y-91059000D03*
X150749000Y-93599000D03*
X149479000Y-101219000D03*
X143129000Y-98679000D03*
D12*
X150019800Y-90914000D02*
X149752900Y-90647100D01*
X155441971Y-90914000D02*
X150019800Y-90914000D01*
X149752900Y-90647100D02*
X147726400Y-88620600D01*
X140609025Y-88620600D02*
X140879400Y-88620600D01*
X138155625Y-91074000D02*
X140609025Y-88620600D01*
X147726400Y-88620600D02*
X140879400Y-88620600D01*
X143129000Y-98679000D02*
X143129000Y-92329000D01*
X143129000Y-92329000D02*
X144399000Y-91059000D01*
X145398000Y-100948000D02*
X143129000Y-98679000D01*
X145398000Y-103934000D02*
X145398000Y-100948000D01*
X150749000Y-93599000D02*
X150749000Y-99949000D01*
X150749000Y-99949000D02*
X149479000Y-101219000D01*
G04 #@! TA.AperFunction,NonConductor*
G36*
X144050315Y-86028002D02*
G01*
X144096808Y-86081658D01*
X144106912Y-86151932D01*
X144103613Y-86167662D01*
X144058989Y-86328570D01*
X144035251Y-86550695D01*
X144035548Y-86555848D01*
X144035548Y-86555851D01*
X144041011Y-86650590D01*
X144048110Y-86773715D01*
X144049247Y-86778761D01*
X144049248Y-86778767D01*
X144059747Y-86825352D01*
X144097222Y-86991639D01*
X144181266Y-87198616D01*
X144297987Y-87389088D01*
X144444250Y-87557938D01*
X144616126Y-87700632D01*
X144678785Y-87737247D01*
X144704566Y-87752312D01*
X144753290Y-87803950D01*
X144766361Y-87873733D01*
X144739630Y-87939505D01*
X144681583Y-87980384D01*
X144640996Y-87987100D01*
X140687793Y-87987100D01*
X140676610Y-87986573D01*
X140669117Y-87984898D01*
X140661191Y-87985147D01*
X140661190Y-87985147D01*
X140601027Y-87987038D01*
X140597069Y-87987100D01*
X140569169Y-87987100D01*
X140565179Y-87987604D01*
X140553345Y-87988536D01*
X140509136Y-87989926D01*
X140501520Y-87992139D01*
X140501518Y-87992139D01*
X140489677Y-87995579D01*
X140470318Y-87999588D01*
X140469008Y-87999754D01*
X140450228Y-88002126D01*
X140442862Y-88005042D01*
X140442856Y-88005044D01*
X140409123Y-88018400D01*
X140397893Y-88022245D01*
X140381853Y-88026905D01*
X140355432Y-88034581D01*
X140348609Y-88038616D01*
X140337991Y-88044895D01*
X140320238Y-88053592D01*
X140312593Y-88056619D01*
X140301408Y-88061048D01*
X140287730Y-88070986D01*
X140265637Y-88087037D01*
X140255720Y-88093551D01*
X140217663Y-88116058D01*
X140203342Y-88130379D01*
X140188309Y-88143219D01*
X140171918Y-88155128D01*
X140163242Y-88165616D01*
X140143727Y-88189205D01*
X140135737Y-88197984D01*
X138612970Y-89720750D01*
X138550658Y-89754776D01*
X138501779Y-89755702D01*
X138288998Y-89717800D01*
X138288992Y-89717799D01*
X138283909Y-89716894D01*
X138210077Y-89715992D01*
X138065706Y-89714228D01*
X138065704Y-89714228D01*
X138060536Y-89714165D01*
X137839716Y-89747955D01*
X137627381Y-89817357D01*
X137622789Y-89819747D01*
X137622790Y-89819747D01*
X137478932Y-89894635D01*
X137429232Y-89920507D01*
X137425099Y-89923610D01*
X137425096Y-89923612D01*
X137254725Y-90051530D01*
X137250590Y-90054635D01*
X137096254Y-90216138D01*
X137093340Y-90220410D01*
X137093339Y-90220411D01*
X137017851Y-90331072D01*
X136970368Y-90400680D01*
X136938212Y-90469954D01*
X136896225Y-90560409D01*
X136876313Y-90603305D01*
X136816614Y-90818570D01*
X136792876Y-91040695D01*
X136793173Y-91045848D01*
X136793173Y-91045851D01*
X136802466Y-91207023D01*
X136805735Y-91263715D01*
X136806872Y-91268761D01*
X136806873Y-91268767D01*
X136826744Y-91356939D01*
X136854847Y-91481639D01*
X136907553Y-91611438D01*
X136925888Y-91656592D01*
X136938891Y-91688616D01*
X136957564Y-91719088D01*
X137033361Y-91842777D01*
X137055612Y-91879088D01*
X137201875Y-92047938D01*
X137373751Y-92190632D01*
X137566625Y-92303338D01*
X137775317Y-92383030D01*
X137780385Y-92384061D01*
X137780388Y-92384062D01*
X137887642Y-92405883D01*
X137994222Y-92427567D01*
X137999397Y-92427757D01*
X137999399Y-92427757D01*
X138212298Y-92435564D01*
X138212302Y-92435564D01*
X138217462Y-92435753D01*
X138222582Y-92435097D01*
X138222584Y-92435097D01*
X138433913Y-92408025D01*
X138433914Y-92408025D01*
X138439041Y-92407368D01*
X138443991Y-92405883D01*
X138648054Y-92344661D01*
X138648059Y-92344659D01*
X138653009Y-92343174D01*
X138853619Y-92244896D01*
X139035485Y-92115173D01*
X139049090Y-92101616D01*
X139156871Y-91994210D01*
X139193721Y-91957489D01*
X139200612Y-91947900D01*
X139321060Y-91780277D01*
X139324078Y-91776077D01*
X139327725Y-91768699D01*
X139420761Y-91580453D01*
X139420762Y-91580451D01*
X139423055Y-91575811D01*
X139460914Y-91451202D01*
X139486490Y-91367023D01*
X139486490Y-91367021D01*
X139487995Y-91362069D01*
X139517154Y-91140590D01*
X139518781Y-91074000D01*
X139500477Y-90851361D01*
X139472446Y-90739765D01*
X139475250Y-90668823D01*
X139505555Y-90619974D01*
X140834524Y-89291005D01*
X140896836Y-89256979D01*
X140923619Y-89254100D01*
X143962116Y-89254100D01*
X144030237Y-89274102D01*
X144076730Y-89327758D01*
X144086834Y-89398032D01*
X144057340Y-89462612D01*
X143991530Y-89502619D01*
X143900409Y-89524495D01*
X143895838Y-89526388D01*
X143895836Y-89526389D01*
X143671072Y-89619489D01*
X143671068Y-89619491D01*
X143666498Y-89621384D01*
X143450624Y-89753672D01*
X143258102Y-89918102D01*
X143093672Y-90110624D01*
X142961384Y-90326498D01*
X142959491Y-90331068D01*
X142959489Y-90331072D01*
X142899996Y-90474702D01*
X142864495Y-90560409D01*
X142805391Y-90806597D01*
X142785526Y-91059000D01*
X142805391Y-91311403D01*
X142806545Y-91316210D01*
X142806546Y-91316216D01*
X142847410Y-91486425D01*
X142864495Y-91557591D01*
X142866385Y-91562154D01*
X142866388Y-91562163D01*
X142873285Y-91578815D01*
X142880872Y-91649405D01*
X142845970Y-91716125D01*
X142736747Y-91825348D01*
X142728461Y-91832888D01*
X142721982Y-91837000D01*
X142716557Y-91842777D01*
X142675357Y-91886651D01*
X142672602Y-91889493D01*
X142652865Y-91909230D01*
X142650385Y-91912427D01*
X142642682Y-91921447D01*
X142612414Y-91953679D01*
X142608595Y-91960625D01*
X142608593Y-91960628D01*
X142602652Y-91971434D01*
X142591801Y-91987953D01*
X142579386Y-92003959D01*
X142576241Y-92011228D01*
X142576238Y-92011232D01*
X142561826Y-92044537D01*
X142556609Y-92055187D01*
X142535305Y-92093940D01*
X142533334Y-92101615D01*
X142533334Y-92101616D01*
X142530267Y-92113562D01*
X142523863Y-92132266D01*
X142515819Y-92150855D01*
X142514580Y-92158678D01*
X142514577Y-92158688D01*
X142508901Y-92194524D01*
X142506495Y-92206144D01*
X142499698Y-92232619D01*
X142495500Y-92248970D01*
X142495500Y-92269224D01*
X142493949Y-92288934D01*
X142490780Y-92308943D01*
X142491526Y-92316835D01*
X142494941Y-92352961D01*
X142495500Y-92364819D01*
X142495500Y-94744999D01*
X142475498Y-94813120D01*
X142421842Y-94859613D01*
X142351568Y-94869717D01*
X142326509Y-94863438D01*
X142294052Y-94851657D01*
X142214175Y-94822663D01*
X142208926Y-94821714D01*
X142208923Y-94821713D01*
X141991392Y-94782377D01*
X141991385Y-94782376D01*
X141987308Y-94781639D01*
X141969586Y-94780803D01*
X141964644Y-94780570D01*
X141964637Y-94780570D01*
X141963156Y-94780500D01*
X141801110Y-94780500D01*
X141734191Y-94786178D01*
X141634591Y-94794629D01*
X141634587Y-94794630D01*
X141629280Y-94795080D01*
X141624125Y-94796418D01*
X141624119Y-94796419D01*
X141411297Y-94851657D01*
X141411293Y-94851658D01*
X141406128Y-94852999D01*
X141401262Y-94855191D01*
X141401259Y-94855192D01*
X141292980Y-94903968D01*
X141195925Y-94947688D01*
X141004681Y-95076441D01*
X141000824Y-95080120D01*
X141000822Y-95080122D01*
X140931464Y-95146287D01*
X140837865Y-95235576D01*
X140700246Y-95420542D01*
X140595760Y-95626051D01*
X140594178Y-95631145D01*
X140594177Y-95631148D01*
X140581504Y-95671961D01*
X140527393Y-95846227D01*
X140497102Y-96074774D01*
X140505751Y-96305158D01*
X140553093Y-96530791D01*
X140555051Y-96535750D01*
X140555052Y-96535752D01*
X140633800Y-96735152D01*
X140637776Y-96745221D01*
X140640543Y-96749780D01*
X140640544Y-96749783D01*
X140705883Y-96857458D01*
X140757377Y-96942317D01*
X140760874Y-96946347D01*
X140901151Y-97108002D01*
X140908477Y-97116445D01*
X140912608Y-97119832D01*
X141082627Y-97259240D01*
X141082633Y-97259244D01*
X141086755Y-97262624D01*
X141091391Y-97265263D01*
X141091394Y-97265265D01*
X141200422Y-97327327D01*
X141287114Y-97376675D01*
X141503825Y-97455337D01*
X141509074Y-97456286D01*
X141509077Y-97456287D01*
X141726608Y-97495623D01*
X141726615Y-97495624D01*
X141730692Y-97496361D01*
X141754844Y-97497500D01*
X141754815Y-97498117D01*
X141820232Y-97519055D01*
X141865415Y-97573818D01*
X141873818Y-97644316D01*
X141845381Y-97705206D01*
X141823672Y-97730624D01*
X141691384Y-97946498D01*
X141689491Y-97951068D01*
X141689489Y-97951072D01*
X141596389Y-98175836D01*
X141594495Y-98180409D01*
X141593340Y-98185221D01*
X141555401Y-98343250D01*
X141535391Y-98426597D01*
X141515526Y-98679000D01*
X141535391Y-98931403D01*
X141594495Y-99177591D01*
X141691384Y-99411502D01*
X141823672Y-99627376D01*
X141988102Y-99819898D01*
X142180624Y-99984328D01*
X142396498Y-100116616D01*
X142401068Y-100118509D01*
X142401072Y-100118511D01*
X142609188Y-100204715D01*
X142630409Y-100213505D01*
X142707568Y-100232029D01*
X142871784Y-100271454D01*
X142871790Y-100271455D01*
X142876597Y-100272609D01*
X143129000Y-100292474D01*
X143381403Y-100272609D01*
X143386210Y-100271455D01*
X143386216Y-100271454D01*
X143550432Y-100232029D01*
X143627591Y-100213505D01*
X143648812Y-100204715D01*
X143719402Y-100197126D01*
X143786125Y-100232029D01*
X144727595Y-101173499D01*
X144761621Y-101235811D01*
X144764500Y-101262594D01*
X144764500Y-102355692D01*
X144744498Y-102423813D01*
X144696683Y-102467453D01*
X144671607Y-102480507D01*
X144667474Y-102483610D01*
X144667471Y-102483612D01*
X144497100Y-102611530D01*
X144492965Y-102614635D01*
X144489393Y-102618373D01*
X144360258Y-102753505D01*
X144338629Y-102776138D01*
X144212743Y-102960680D01*
X144118688Y-103163305D01*
X144058989Y-103378570D01*
X144035251Y-103600695D01*
X144035548Y-103605848D01*
X144035548Y-103605851D01*
X144041011Y-103700590D01*
X144048110Y-103823715D01*
X144049247Y-103828761D01*
X144049248Y-103828767D01*
X144064949Y-103898434D01*
X144097222Y-104041639D01*
X144142961Y-104154281D01*
X144169076Y-104218596D01*
X144176172Y-104289237D01*
X144143950Y-104352501D01*
X144082640Y-104388301D01*
X144052333Y-104392000D01*
X136881903Y-104392000D01*
X136813782Y-104371998D01*
X136767289Y-104318342D01*
X136757185Y-104248068D01*
X136772784Y-104203000D01*
X136868956Y-104036425D01*
X136868959Y-104036420D01*
X136871161Y-104032605D01*
X136872811Y-104028521D01*
X136872814Y-104028515D01*
X136976047Y-103773002D01*
X136977696Y-103768921D01*
X137046497Y-103492976D01*
X137058522Y-103378570D01*
X137075765Y-103214510D01*
X137075765Y-103214507D01*
X137076224Y-103210141D01*
X137076071Y-103205747D01*
X137066453Y-102930319D01*
X137066452Y-102930313D01*
X137066299Y-102925922D01*
X137049754Y-102832086D01*
X137017677Y-102650173D01*
X137016915Y-102645850D01*
X137015560Y-102641679D01*
X137015558Y-102641672D01*
X136930394Y-102379566D01*
X136929033Y-102375377D01*
X136921484Y-102359898D01*
X136829417Y-102171135D01*
X136804363Y-102119767D01*
X136801908Y-102116128D01*
X136801905Y-102116122D01*
X136647792Y-101887641D01*
X136645333Y-101883995D01*
X136455037Y-101672650D01*
X136237180Y-101489846D01*
X135996002Y-101339141D01*
X135736196Y-101223469D01*
X135462821Y-101145079D01*
X135458467Y-101144467D01*
X135458462Y-101144466D01*
X135284833Y-101120065D01*
X135181196Y-101105500D01*
X134967982Y-101105500D01*
X134965796Y-101105653D01*
X134965792Y-101105653D01*
X134759685Y-101120065D01*
X134759680Y-101120066D01*
X134755300Y-101120372D01*
X134477123Y-101179501D01*
X134472994Y-101181004D01*
X134472990Y-101181005D01*
X134214026Y-101275260D01*
X134214022Y-101275262D01*
X134209881Y-101276769D01*
X134205991Y-101278837D01*
X134205985Y-101278840D01*
X133962670Y-101408213D01*
X133962664Y-101408217D01*
X133958778Y-101410283D01*
X133955218Y-101412870D01*
X133955214Y-101412872D01*
X133732262Y-101574855D01*
X133728699Y-101577444D01*
X133725535Y-101580500D01*
X133725532Y-101580502D01*
X133527290Y-101771943D01*
X133527286Y-101771947D01*
X133524125Y-101775000D01*
X133349035Y-101999104D01*
X133343119Y-102009351D01*
X133291737Y-102058344D01*
X133222024Y-102071781D01*
X133156113Y-102045394D01*
X133114930Y-101987563D01*
X133108000Y-101946351D01*
X133108000Y-89824466D01*
X133128002Y-89756345D01*
X133181658Y-89709852D01*
X133251932Y-89699748D01*
X133318122Y-89731591D01*
X133318418Y-89731233D01*
X133321456Y-89733746D01*
X133321461Y-89733751D01*
X133431117Y-89824466D01*
X133561625Y-89932432D01*
X133828131Y-90101562D01*
X133831710Y-90103246D01*
X133831717Y-90103250D01*
X134110144Y-90234267D01*
X134110148Y-90234269D01*
X134113734Y-90235956D01*
X134413928Y-90333495D01*
X134723980Y-90392641D01*
X134960162Y-90407500D01*
X135117838Y-90407500D01*
X135354020Y-90392641D01*
X135664072Y-90333495D01*
X135964266Y-90235956D01*
X135967852Y-90234269D01*
X135967856Y-90234267D01*
X136246283Y-90103250D01*
X136246290Y-90103246D01*
X136249869Y-90101562D01*
X136516375Y-89932432D01*
X136730004Y-89755702D01*
X136756530Y-89733758D01*
X136756531Y-89733757D01*
X136759582Y-89731233D01*
X136772197Y-89717800D01*
X136814138Y-89673137D01*
X136975654Y-89501140D01*
X137161184Y-89245779D01*
X137313247Y-88969179D01*
X137429443Y-88675702D01*
X137507940Y-88369975D01*
X137547500Y-88056821D01*
X137547500Y-87741179D01*
X137507940Y-87428025D01*
X137429443Y-87122298D01*
X137379606Y-86996425D01*
X137314702Y-86832495D01*
X137314700Y-86832490D01*
X137313247Y-86828821D01*
X137311340Y-86825352D01*
X137163093Y-86555693D01*
X137163091Y-86555690D01*
X137161184Y-86552221D01*
X136975654Y-86296860D01*
X136903715Y-86220253D01*
X136871664Y-86156903D01*
X136878951Y-86086281D01*
X136923261Y-86030810D01*
X136995565Y-86008000D01*
X143982194Y-86008000D01*
X144050315Y-86028002D01*
G37*
G04 #@! TD.AperFunction*
G04 #@! TA.AperFunction,NonConductor*
G36*
X156950556Y-86028002D02*
G01*
X156997049Y-86081658D01*
X157007153Y-86151932D01*
X156974285Y-86220253D01*
X156902346Y-86296860D01*
X156716816Y-86552221D01*
X156714909Y-86555690D01*
X156714907Y-86555693D01*
X156566660Y-86825352D01*
X156564753Y-86828821D01*
X156563300Y-86832490D01*
X156563298Y-86832495D01*
X156498394Y-86996425D01*
X156448557Y-87122298D01*
X156370060Y-87428025D01*
X156330500Y-87741179D01*
X156330500Y-88056821D01*
X156370060Y-88369975D01*
X156448557Y-88675702D01*
X156564753Y-88969179D01*
X156716816Y-89245779D01*
X156902346Y-89501140D01*
X157063862Y-89673137D01*
X157105804Y-89717800D01*
X157118418Y-89731233D01*
X157121469Y-89733757D01*
X157121470Y-89733758D01*
X157147996Y-89755702D01*
X157361625Y-89932432D01*
X157628131Y-90101562D01*
X157631710Y-90103246D01*
X157631717Y-90103250D01*
X157910144Y-90234267D01*
X157910148Y-90234269D01*
X157913734Y-90235956D01*
X158213928Y-90333495D01*
X158523980Y-90392641D01*
X158760162Y-90407500D01*
X158917838Y-90407500D01*
X159154020Y-90392641D01*
X159464072Y-90333495D01*
X159764266Y-90235956D01*
X159767852Y-90234269D01*
X159767856Y-90234267D01*
X160046283Y-90103250D01*
X160046290Y-90103246D01*
X160049869Y-90101562D01*
X160316375Y-89932432D01*
X160530004Y-89755702D01*
X160556530Y-89733758D01*
X160556531Y-89733757D01*
X160559582Y-89731233D01*
X160567000Y-89723334D01*
X160574151Y-89715719D01*
X160635364Y-89679754D01*
X160706304Y-89682593D01*
X160764448Y-89723334D01*
X160791335Y-89789042D01*
X160792000Y-89801973D01*
X160792000Y-101985823D01*
X160771998Y-102053944D01*
X160718342Y-102100437D01*
X160648068Y-102110541D01*
X160583488Y-102081047D01*
X160561541Y-102056281D01*
X160522975Y-101999104D01*
X160445333Y-101883995D01*
X160255037Y-101672650D01*
X160037180Y-101489846D01*
X159796002Y-101339141D01*
X159536196Y-101223469D01*
X159262821Y-101145079D01*
X159258467Y-101144467D01*
X159258462Y-101144466D01*
X159084833Y-101120065D01*
X158981196Y-101105500D01*
X158767982Y-101105500D01*
X158765796Y-101105653D01*
X158765792Y-101105653D01*
X158559685Y-101120065D01*
X158559680Y-101120066D01*
X158555300Y-101120372D01*
X158277123Y-101179501D01*
X158272994Y-101181004D01*
X158272990Y-101181005D01*
X158014026Y-101275260D01*
X158014022Y-101275262D01*
X158009881Y-101276769D01*
X158005991Y-101278837D01*
X158005985Y-101278840D01*
X157762670Y-101408213D01*
X157762664Y-101408217D01*
X157758778Y-101410283D01*
X157755218Y-101412870D01*
X157755214Y-101412872D01*
X157532262Y-101574855D01*
X157528699Y-101577444D01*
X157525535Y-101580500D01*
X157525532Y-101580502D01*
X157327290Y-101771943D01*
X157327286Y-101771947D01*
X157324125Y-101775000D01*
X157149035Y-101999104D01*
X157117373Y-102053944D01*
X157077089Y-102123719D01*
X157006839Y-102245395D01*
X157005189Y-102249479D01*
X157005186Y-102249485D01*
X156937349Y-102417390D01*
X156900304Y-102509079D01*
X156899240Y-102513348D01*
X156899239Y-102513350D01*
X156868397Y-102637051D01*
X156831503Y-102785024D01*
X156831044Y-102789392D01*
X156831043Y-102789397D01*
X156813041Y-102960680D01*
X156801776Y-103067859D01*
X156801929Y-103072247D01*
X156801929Y-103072253D01*
X156806745Y-103210141D01*
X156811701Y-103352078D01*
X156812463Y-103356401D01*
X156812464Y-103356408D01*
X156816372Y-103378570D01*
X156861085Y-103632150D01*
X156862440Y-103636321D01*
X156862442Y-103636328D01*
X156908000Y-103776540D01*
X156948967Y-103902623D01*
X156950895Y-103906576D01*
X156950897Y-103906581D01*
X157006793Y-104021184D01*
X157073637Y-104158233D01*
X157076096Y-104161878D01*
X157098802Y-104195542D01*
X157120312Y-104263202D01*
X157101828Y-104331750D01*
X157049218Y-104379423D01*
X156994343Y-104392000D01*
X146741635Y-104392000D01*
X146673514Y-104371998D01*
X146627021Y-104318342D01*
X146616917Y-104248068D01*
X146628678Y-104210173D01*
X146654348Y-104158233D01*
X146665430Y-104135811D01*
X146730370Y-103922069D01*
X146759529Y-103700590D01*
X146761156Y-103634000D01*
X146742852Y-103411361D01*
X146688431Y-103194702D01*
X146599354Y-102989840D01*
X146555202Y-102921592D01*
X146480822Y-102806617D01*
X146480820Y-102806614D01*
X146478014Y-102802277D01*
X146327670Y-102637051D01*
X146323619Y-102633852D01*
X146323615Y-102633848D01*
X146156414Y-102501800D01*
X146156410Y-102501798D01*
X146152359Y-102498598D01*
X146147835Y-102496101D01*
X146147831Y-102496098D01*
X146096608Y-102467822D01*
X146046636Y-102417390D01*
X146031500Y-102357513D01*
X146031500Y-101026768D01*
X146032027Y-101015585D01*
X146033702Y-101008092D01*
X146031562Y-100940001D01*
X146031500Y-100936044D01*
X146031500Y-100908144D01*
X146030996Y-100904153D01*
X146030063Y-100892311D01*
X146028923Y-100856036D01*
X146028674Y-100848111D01*
X146023021Y-100828652D01*
X146019012Y-100809293D01*
X146018846Y-100807983D01*
X146016474Y-100789203D01*
X146013558Y-100781837D01*
X146013556Y-100781831D01*
X146000200Y-100748098D01*
X145996355Y-100736868D01*
X145986230Y-100702017D01*
X145986230Y-100702016D01*
X145984019Y-100694407D01*
X145973705Y-100676966D01*
X145965008Y-100659213D01*
X145960472Y-100647758D01*
X145957552Y-100640383D01*
X145931563Y-100604612D01*
X145925047Y-100594692D01*
X145906578Y-100563463D01*
X145902542Y-100556638D01*
X145888221Y-100542317D01*
X145875380Y-100527283D01*
X145868131Y-100517306D01*
X145863472Y-100510893D01*
X145829395Y-100482702D01*
X145820616Y-100474712D01*
X144682029Y-99336125D01*
X144648003Y-99273813D01*
X144654715Y-99198812D01*
X144661611Y-99182164D01*
X144661612Y-99182162D01*
X144663505Y-99177591D01*
X144722609Y-98931403D01*
X144742474Y-98679000D01*
X144722609Y-98426597D01*
X144702600Y-98343250D01*
X144664660Y-98185221D01*
X144663505Y-98180409D01*
X144661611Y-98175836D01*
X144568511Y-97951072D01*
X144568509Y-97951068D01*
X144566616Y-97946498D01*
X144434328Y-97730624D01*
X144269898Y-97538102D01*
X144077376Y-97373672D01*
X143861502Y-97241384D01*
X143856925Y-97239488D01*
X143840280Y-97232593D01*
X143785000Y-97188044D01*
X143762500Y-97116185D01*
X143762500Y-96296821D01*
X144430500Y-96296821D01*
X144470060Y-96609975D01*
X144548557Y-96915702D01*
X144550010Y-96919371D01*
X144550010Y-96919372D01*
X144661268Y-97200376D01*
X144664753Y-97209179D01*
X144666659Y-97212647D01*
X144666660Y-97212648D01*
X144805327Y-97464880D01*
X144816816Y-97485779D01*
X145002346Y-97741140D01*
X145181577Y-97932001D01*
X145199486Y-97951072D01*
X145218418Y-97971233D01*
X145461625Y-98172432D01*
X145728131Y-98341562D01*
X145731710Y-98343246D01*
X145731717Y-98343250D01*
X146010144Y-98474267D01*
X146010148Y-98474269D01*
X146013734Y-98475956D01*
X146313928Y-98573495D01*
X146623980Y-98632641D01*
X146860162Y-98647500D01*
X147017838Y-98647500D01*
X147254020Y-98632641D01*
X147564072Y-98573495D01*
X147864266Y-98475956D01*
X147867852Y-98474269D01*
X147867856Y-98474267D01*
X148146283Y-98343250D01*
X148146290Y-98343246D01*
X148149869Y-98341562D01*
X148416375Y-98172432D01*
X148659582Y-97971233D01*
X148678515Y-97951072D01*
X148696423Y-97932001D01*
X148875654Y-97741140D01*
X149061184Y-97485779D01*
X149072674Y-97464880D01*
X149211340Y-97212648D01*
X149211341Y-97212647D01*
X149213247Y-97209179D01*
X149216733Y-97200376D01*
X149327990Y-96919372D01*
X149327990Y-96919371D01*
X149329443Y-96915702D01*
X149407940Y-96609975D01*
X149447500Y-96296821D01*
X149447500Y-95981179D01*
X149407940Y-95668025D01*
X149329443Y-95362298D01*
X149279270Y-95235576D01*
X149214702Y-95072495D01*
X149214700Y-95072490D01*
X149213247Y-95068821D01*
X149200375Y-95045407D01*
X149063093Y-94795693D01*
X149063091Y-94795690D01*
X149061184Y-94792221D01*
X148875654Y-94536860D01*
X148682810Y-94331502D01*
X148662297Y-94309658D01*
X148662296Y-94309657D01*
X148659582Y-94306767D01*
X148416375Y-94105568D01*
X148149869Y-93936438D01*
X148146290Y-93934754D01*
X148146283Y-93934750D01*
X147867856Y-93803733D01*
X147867852Y-93803731D01*
X147864266Y-93802044D01*
X147564072Y-93704505D01*
X147254020Y-93645359D01*
X147017838Y-93630500D01*
X146860162Y-93630500D01*
X146623980Y-93645359D01*
X146313928Y-93704505D01*
X146013734Y-93802044D01*
X146010148Y-93803731D01*
X146010144Y-93803733D01*
X145731717Y-93934750D01*
X145731710Y-93934754D01*
X145728131Y-93936438D01*
X145461625Y-94105568D01*
X145218418Y-94306767D01*
X145215704Y-94309657D01*
X145215703Y-94309658D01*
X145195190Y-94331502D01*
X145002346Y-94536860D01*
X144816816Y-94792221D01*
X144814909Y-94795690D01*
X144814907Y-94795693D01*
X144677625Y-95045407D01*
X144664753Y-95068821D01*
X144663300Y-95072490D01*
X144663298Y-95072495D01*
X144598730Y-95235576D01*
X144548557Y-95362298D01*
X144470060Y-95668025D01*
X144430500Y-95981179D01*
X144430500Y-96296821D01*
X143762500Y-96296821D01*
X143762500Y-92720227D01*
X143782502Y-92652106D01*
X143836158Y-92605613D01*
X143906432Y-92595509D01*
X143917914Y-92597708D01*
X144141784Y-92651454D01*
X144141790Y-92651455D01*
X144146597Y-92652609D01*
X144399000Y-92672474D01*
X144651403Y-92652609D01*
X144656210Y-92651455D01*
X144656216Y-92651454D01*
X144847157Y-92605613D01*
X144897591Y-92593505D01*
X144902164Y-92591611D01*
X145126928Y-92498511D01*
X145126932Y-92498509D01*
X145131502Y-92496616D01*
X145347376Y-92364328D01*
X145539898Y-92199898D01*
X145704328Y-92007376D01*
X145836616Y-91791502D01*
X145843006Y-91776077D01*
X145931611Y-91562164D01*
X145931612Y-91562162D01*
X145933505Y-91557591D01*
X145967543Y-91415811D01*
X145991454Y-91316216D01*
X145991455Y-91316210D01*
X145992609Y-91311403D01*
X146012474Y-91059000D01*
X145992609Y-90806597D01*
X145933505Y-90560409D01*
X145898004Y-90474702D01*
X145838511Y-90331072D01*
X145838509Y-90331068D01*
X145836616Y-90326498D01*
X145704328Y-90110624D01*
X145539898Y-89918102D01*
X145347376Y-89753672D01*
X145131502Y-89621384D01*
X145126932Y-89619491D01*
X145126928Y-89619489D01*
X144902164Y-89526389D01*
X144902162Y-89526388D01*
X144897591Y-89524495D01*
X144806470Y-89502619D01*
X144744901Y-89467267D01*
X144712218Y-89404240D01*
X144718798Y-89333549D01*
X144762553Y-89277638D01*
X144835884Y-89254100D01*
X147411806Y-89254100D01*
X147479927Y-89274102D01*
X147500901Y-89291005D01*
X149333130Y-91123235D01*
X149333133Y-91123237D01*
X149516143Y-91306247D01*
X149523687Y-91314537D01*
X149527800Y-91321018D01*
X149533577Y-91326443D01*
X149577467Y-91367658D01*
X149580309Y-91370413D01*
X149600031Y-91390135D01*
X149603155Y-91392558D01*
X149603159Y-91392562D01*
X149603224Y-91392612D01*
X149612245Y-91400317D01*
X149644479Y-91430586D01*
X149651427Y-91434405D01*
X149651429Y-91434407D01*
X149662232Y-91440346D01*
X149678759Y-91451202D01*
X149688498Y-91458757D01*
X149688500Y-91458758D01*
X149694760Y-91463614D01*
X149735340Y-91481174D01*
X149745988Y-91486391D01*
X149784740Y-91507695D01*
X149792416Y-91509666D01*
X149792419Y-91509667D01*
X149804362Y-91512733D01*
X149823067Y-91519137D01*
X149841655Y-91527181D01*
X149849478Y-91528420D01*
X149849488Y-91528423D01*
X149885324Y-91534099D01*
X149896944Y-91536505D01*
X149932089Y-91545528D01*
X149939770Y-91547500D01*
X149960024Y-91547500D01*
X149979734Y-91549051D01*
X149999743Y-91552220D01*
X150007635Y-91551474D01*
X150043761Y-91548059D01*
X150055619Y-91547500D01*
X154166245Y-91547500D01*
X154234366Y-91567502D01*
X154273678Y-91607665D01*
X154330362Y-91700165D01*
X154348900Y-91768699D01*
X154327444Y-91836375D01*
X154272804Y-91881708D01*
X154222929Y-91892000D01*
X154008702Y-91892000D01*
X154007932Y-91891998D01*
X154007078Y-91891993D01*
X153930348Y-91891524D01*
X153921719Y-91893990D01*
X153921714Y-91893991D01*
X153901952Y-91899639D01*
X153885191Y-91903217D01*
X153864848Y-91906130D01*
X153864838Y-91906133D01*
X153855955Y-91907405D01*
X153832605Y-91918021D01*
X153815093Y-91924464D01*
X153802200Y-91928149D01*
X153790435Y-91931512D01*
X153765452Y-91947274D01*
X153750386Y-91955404D01*
X153723490Y-91967633D01*
X153704061Y-91984374D01*
X153689053Y-91995479D01*
X153667369Y-92009160D01*
X153661427Y-92015888D01*
X153647819Y-92031296D01*
X153635626Y-92043341D01*
X153627911Y-92049989D01*
X153613253Y-92062619D01*
X153608374Y-92070147D01*
X153608371Y-92070150D01*
X153599304Y-92084139D01*
X153588014Y-92099013D01*
X153571044Y-92118228D01*
X153558490Y-92144966D01*
X153550176Y-92159935D01*
X153534107Y-92184727D01*
X153531535Y-92193327D01*
X153526761Y-92209290D01*
X153520099Y-92226736D01*
X153509201Y-92249948D01*
X153506200Y-92269224D01*
X153504658Y-92279128D01*
X153500874Y-92295849D01*
X153494986Y-92315536D01*
X153494985Y-92315539D01*
X153492413Y-92324141D01*
X153492358Y-92333116D01*
X153492358Y-92333117D01*
X153492203Y-92358546D01*
X153492170Y-92359328D01*
X153492000Y-92360423D01*
X153492000Y-92391298D01*
X153491998Y-92392068D01*
X153491524Y-92469652D01*
X153491908Y-92470996D01*
X153492000Y-92472341D01*
X153492000Y-95508233D01*
X153471998Y-95576354D01*
X153418342Y-95622847D01*
X153348068Y-95632951D01*
X153283488Y-95603457D01*
X153248808Y-95554515D01*
X153242185Y-95537744D01*
X153242184Y-95537742D01*
X153240224Y-95532779D01*
X153120623Y-95335683D01*
X153033755Y-95235576D01*
X152973023Y-95165588D01*
X152973021Y-95165586D01*
X152969523Y-95161555D01*
X152882202Y-95089956D01*
X152795373Y-95018760D01*
X152795367Y-95018756D01*
X152791245Y-95015376D01*
X152786609Y-95012737D01*
X152786606Y-95012735D01*
X152600697Y-94906910D01*
X152590886Y-94901325D01*
X152374175Y-94822663D01*
X152368926Y-94821714D01*
X152368923Y-94821713D01*
X152151392Y-94782377D01*
X152151385Y-94782376D01*
X152147308Y-94781639D01*
X152123156Y-94780500D01*
X152123185Y-94779883D01*
X152057768Y-94758945D01*
X152012585Y-94704182D01*
X152004182Y-94633684D01*
X152032619Y-94572794D01*
X152054328Y-94547376D01*
X152186616Y-94331502D01*
X152197908Y-94304242D01*
X152281611Y-94102164D01*
X152281612Y-94102162D01*
X152283505Y-94097591D01*
X152322194Y-93936438D01*
X152341454Y-93856216D01*
X152341455Y-93856210D01*
X152342609Y-93851403D01*
X152362474Y-93599000D01*
X152342609Y-93346597D01*
X152283505Y-93100409D01*
X152186616Y-92866498D01*
X152054328Y-92650624D01*
X151889898Y-92458102D01*
X151697376Y-92293672D01*
X151481502Y-92161384D01*
X151476932Y-92159491D01*
X151476928Y-92159489D01*
X151252164Y-92066389D01*
X151252162Y-92066388D01*
X151247591Y-92064495D01*
X151162352Y-92044031D01*
X151006216Y-92006546D01*
X151006210Y-92006545D01*
X151001403Y-92005391D01*
X150749000Y-91985526D01*
X150496597Y-92005391D01*
X150491790Y-92006545D01*
X150491784Y-92006546D01*
X150335648Y-92044031D01*
X150250409Y-92064495D01*
X150245838Y-92066388D01*
X150245836Y-92066389D01*
X150021072Y-92159489D01*
X150021068Y-92159491D01*
X150016498Y-92161384D01*
X149800624Y-92293672D01*
X149608102Y-92458102D01*
X149443672Y-92650624D01*
X149311384Y-92866498D01*
X149214495Y-93100409D01*
X149155391Y-93346597D01*
X149135526Y-93599000D01*
X149155391Y-93851403D01*
X149156545Y-93856210D01*
X149156546Y-93856216D01*
X149175806Y-93936438D01*
X149214495Y-94097591D01*
X149216388Y-94102162D01*
X149216389Y-94102164D01*
X149300093Y-94304242D01*
X149311384Y-94331502D01*
X149443672Y-94547376D01*
X149608102Y-94739898D01*
X149800624Y-94904328D01*
X150016498Y-95036616D01*
X150021073Y-95038511D01*
X150021075Y-95038512D01*
X150037720Y-95045407D01*
X150093000Y-95089956D01*
X150115500Y-95161815D01*
X150115500Y-99557773D01*
X150095498Y-99625894D01*
X150041842Y-99672387D01*
X149971568Y-99682491D01*
X149960086Y-99680292D01*
X149736216Y-99626546D01*
X149736210Y-99626545D01*
X149731403Y-99625391D01*
X149479000Y-99605526D01*
X149226597Y-99625391D01*
X149221790Y-99626545D01*
X149221784Y-99626546D01*
X149065032Y-99664179D01*
X148980409Y-99684495D01*
X148975838Y-99686388D01*
X148975836Y-99686389D01*
X148751072Y-99779489D01*
X148751068Y-99779491D01*
X148746498Y-99781384D01*
X148530624Y-99913672D01*
X148338102Y-100078102D01*
X148173672Y-100270624D01*
X148041384Y-100486498D01*
X148039491Y-100491068D01*
X148039489Y-100491072D01*
X147955265Y-100694407D01*
X147944495Y-100720409D01*
X147937848Y-100748098D01*
X147891776Y-100940002D01*
X147885391Y-100966597D01*
X147865526Y-101219000D01*
X147885391Y-101471403D01*
X147886545Y-101476210D01*
X147886546Y-101476216D01*
X147910227Y-101574855D01*
X147944495Y-101717591D01*
X147946388Y-101722162D01*
X147946389Y-101722164D01*
X148013422Y-101883995D01*
X148041384Y-101951502D01*
X148173672Y-102167376D01*
X148338102Y-102359898D01*
X148341858Y-102363106D01*
X148361130Y-102379566D01*
X148530624Y-102524328D01*
X148746498Y-102656616D01*
X148751068Y-102658509D01*
X148751072Y-102658511D01*
X148975836Y-102751611D01*
X148980409Y-102753505D01*
X149059117Y-102772401D01*
X149221784Y-102811454D01*
X149221790Y-102811455D01*
X149226597Y-102812609D01*
X149479000Y-102832474D01*
X149731403Y-102812609D01*
X149736210Y-102811455D01*
X149736216Y-102811454D01*
X149898883Y-102772401D01*
X149977591Y-102753505D01*
X149982164Y-102751611D01*
X150206928Y-102658511D01*
X150206932Y-102658509D01*
X150211502Y-102656616D01*
X150427376Y-102524328D01*
X150596870Y-102379566D01*
X150616142Y-102363106D01*
X150619898Y-102359898D01*
X150784328Y-102167376D01*
X150916616Y-101951502D01*
X150944579Y-101883995D01*
X151011611Y-101722164D01*
X151011612Y-101722162D01*
X151013505Y-101717591D01*
X151047773Y-101574855D01*
X151071454Y-101476216D01*
X151071455Y-101476210D01*
X151072609Y-101471403D01*
X151092474Y-101219000D01*
X151072609Y-100966597D01*
X151066225Y-100940002D01*
X151020152Y-100748098D01*
X151013505Y-100720409D01*
X151004715Y-100699188D01*
X150997126Y-100628598D01*
X151032029Y-100561875D01*
X151141247Y-100452657D01*
X151149537Y-100445113D01*
X151156018Y-100441000D01*
X151202659Y-100391332D01*
X151205413Y-100388491D01*
X151225134Y-100368770D01*
X151227612Y-100365575D01*
X151235318Y-100356553D01*
X151260158Y-100330101D01*
X151265586Y-100324321D01*
X151275346Y-100306568D01*
X151286199Y-100290045D01*
X151293753Y-100280306D01*
X151298613Y-100274041D01*
X151316176Y-100233457D01*
X151321383Y-100222827D01*
X151342695Y-100184060D01*
X151344666Y-100176383D01*
X151344668Y-100176378D01*
X151347732Y-100164442D01*
X151354138Y-100145730D01*
X151359033Y-100134419D01*
X151362181Y-100127145D01*
X151363421Y-100119317D01*
X151363423Y-100119310D01*
X151369099Y-100083476D01*
X151371505Y-100071856D01*
X151380528Y-100036711D01*
X151380528Y-100036710D01*
X151382500Y-100029030D01*
X151382500Y-100008776D01*
X151384051Y-99989065D01*
X151385980Y-99976886D01*
X151387220Y-99969057D01*
X151383059Y-99925038D01*
X151382500Y-99913181D01*
X151382500Y-97533001D01*
X151402502Y-97464880D01*
X151456158Y-97418387D01*
X151526432Y-97408283D01*
X151551492Y-97414562D01*
X151663825Y-97455337D01*
X151669074Y-97456286D01*
X151669077Y-97456287D01*
X151886608Y-97495623D01*
X151886615Y-97495624D01*
X151890692Y-97496361D01*
X151908414Y-97497197D01*
X151913356Y-97497430D01*
X151913363Y-97497430D01*
X151914844Y-97497500D01*
X152076890Y-97497500D01*
X152143809Y-97491822D01*
X152243409Y-97483371D01*
X152243413Y-97483370D01*
X152248720Y-97482920D01*
X152253875Y-97481582D01*
X152253881Y-97481581D01*
X152466703Y-97426343D01*
X152466707Y-97426342D01*
X152471872Y-97425001D01*
X152476738Y-97422809D01*
X152476741Y-97422808D01*
X152677202Y-97332507D01*
X152682075Y-97330312D01*
X152873319Y-97201559D01*
X152887487Y-97188044D01*
X152970920Y-97108452D01*
X153040135Y-97042424D01*
X153083521Y-96984112D01*
X153149131Y-96895929D01*
X153177754Y-96857458D01*
X153185713Y-96841805D01*
X153267065Y-96681796D01*
X153315768Y-96630138D01*
X153384668Y-96613011D01*
X153451890Y-96635853D01*
X153496091Y-96691412D01*
X153504109Y-96721037D01*
X153506131Y-96735152D01*
X153507405Y-96744045D01*
X153518021Y-96767395D01*
X153524464Y-96784907D01*
X153531512Y-96809565D01*
X153547274Y-96834548D01*
X153555404Y-96849614D01*
X153567633Y-96876510D01*
X153584374Y-96895939D01*
X153595479Y-96910947D01*
X153609160Y-96932631D01*
X153615888Y-96938573D01*
X153631296Y-96952181D01*
X153643340Y-96964373D01*
X153662619Y-96986747D01*
X153670147Y-96991626D01*
X153670150Y-96991629D01*
X153684139Y-97000696D01*
X153699013Y-97011986D01*
X153718228Y-97028956D01*
X153726354Y-97032771D01*
X153726355Y-97032772D01*
X153732021Y-97035432D01*
X153744966Y-97041510D01*
X153759935Y-97049824D01*
X153784727Y-97065893D01*
X153801650Y-97070954D01*
X153809290Y-97073239D01*
X153826736Y-97079901D01*
X153849948Y-97090799D01*
X153879130Y-97095343D01*
X153895849Y-97099126D01*
X153915536Y-97105014D01*
X153915539Y-97105015D01*
X153924141Y-97107587D01*
X153933116Y-97107642D01*
X153933117Y-97107642D01*
X153939810Y-97107683D01*
X153958556Y-97107797D01*
X153959328Y-97107830D01*
X153960423Y-97108000D01*
X153991298Y-97108000D01*
X153992068Y-97108002D01*
X154065716Y-97108452D01*
X154065717Y-97108452D01*
X154069652Y-97108476D01*
X154070996Y-97108092D01*
X154072341Y-97108000D01*
X155991298Y-97108000D01*
X155992069Y-97108002D01*
X156069652Y-97108476D01*
X156078281Y-97106010D01*
X156078286Y-97106009D01*
X156098048Y-97100361D01*
X156114809Y-97096783D01*
X156135152Y-97093870D01*
X156135162Y-97093867D01*
X156144045Y-97092595D01*
X156167395Y-97081979D01*
X156184907Y-97075536D01*
X156200937Y-97070954D01*
X156209565Y-97068488D01*
X156234548Y-97052726D01*
X156249614Y-97044596D01*
X156276510Y-97032367D01*
X156295939Y-97015626D01*
X156310947Y-97004521D01*
X156325039Y-96995630D01*
X156332631Y-96990840D01*
X156352182Y-96968703D01*
X156364374Y-96956659D01*
X156379949Y-96943239D01*
X156379950Y-96943237D01*
X156386747Y-96937381D01*
X156391626Y-96929853D01*
X156391629Y-96929850D01*
X156400696Y-96915861D01*
X156411986Y-96900987D01*
X156423012Y-96888502D01*
X156428956Y-96881772D01*
X156441510Y-96855034D01*
X156449824Y-96840065D01*
X156465893Y-96815273D01*
X156473239Y-96790709D01*
X156479901Y-96773264D01*
X156486983Y-96758179D01*
X156490799Y-96750052D01*
X156495343Y-96720870D01*
X156499126Y-96704151D01*
X156505014Y-96684464D01*
X156505015Y-96684461D01*
X156507587Y-96675859D01*
X156507797Y-96641444D01*
X156507830Y-96640672D01*
X156508000Y-96639577D01*
X156508000Y-96608702D01*
X156508002Y-96607932D01*
X156508452Y-96534284D01*
X156508452Y-96534283D01*
X156508476Y-96530348D01*
X156508092Y-96529004D01*
X156508000Y-96527659D01*
X156508000Y-92408702D01*
X156508002Y-92407932D01*
X156508338Y-92352961D01*
X156508476Y-92330348D01*
X156506010Y-92321719D01*
X156506009Y-92321714D01*
X156500361Y-92301952D01*
X156496783Y-92285191D01*
X156493870Y-92264848D01*
X156493867Y-92264838D01*
X156492595Y-92255955D01*
X156481979Y-92232605D01*
X156475536Y-92215093D01*
X156470954Y-92199063D01*
X156468488Y-92190435D01*
X156452726Y-92165452D01*
X156444596Y-92150386D01*
X156432367Y-92123490D01*
X156415626Y-92104061D01*
X156404521Y-92089053D01*
X156395630Y-92074960D01*
X156395628Y-92074957D01*
X156390840Y-92067369D01*
X156384112Y-92061427D01*
X156382089Y-92059050D01*
X156353171Y-91994210D01*
X156363899Y-91924028D01*
X156389103Y-91888136D01*
X156441045Y-91836375D01*
X156480067Y-91797489D01*
X156498787Y-91771438D01*
X156607406Y-91620277D01*
X156610424Y-91616077D01*
X156614582Y-91607665D01*
X156707107Y-91420453D01*
X156707108Y-91420451D01*
X156709401Y-91415811D01*
X156754077Y-91268767D01*
X156772836Y-91207023D01*
X156772836Y-91207021D01*
X156774341Y-91202069D01*
X156803500Y-90980590D01*
X156805127Y-90914000D01*
X156786823Y-90691361D01*
X156732402Y-90474702D01*
X156643325Y-90269840D01*
X156521985Y-90082277D01*
X156371641Y-89917051D01*
X156367590Y-89913852D01*
X156367586Y-89913848D01*
X156200385Y-89781800D01*
X156200381Y-89781798D01*
X156196330Y-89778598D01*
X156000760Y-89670638D01*
X155995891Y-89668914D01*
X155995887Y-89668912D01*
X155795058Y-89597795D01*
X155795054Y-89597794D01*
X155790183Y-89596069D01*
X155785090Y-89595162D01*
X155785087Y-89595161D01*
X155575344Y-89557800D01*
X155575338Y-89557799D01*
X155570255Y-89556894D01*
X155496423Y-89555992D01*
X155352052Y-89554228D01*
X155352050Y-89554228D01*
X155346882Y-89554165D01*
X155126062Y-89587955D01*
X154913727Y-89657357D01*
X154883414Y-89673137D01*
X154722540Y-89756883D01*
X154715578Y-89760507D01*
X154711445Y-89763610D01*
X154711442Y-89763612D01*
X154630392Y-89824466D01*
X154536936Y-89894635D01*
X154533364Y-89898373D01*
X154387004Y-90051530D01*
X154382600Y-90056138D01*
X154379686Y-90060410D01*
X154379685Y-90060411D01*
X154267066Y-90225504D01*
X154212155Y-90270507D01*
X154162978Y-90280500D01*
X150334395Y-90280500D01*
X150266274Y-90260498D01*
X150245300Y-90243595D01*
X150172670Y-90170965D01*
X150172666Y-90170962D01*
X148230052Y-88228347D01*
X148222512Y-88220061D01*
X148218400Y-88213582D01*
X148168748Y-88166956D01*
X148165907Y-88164202D01*
X148146170Y-88144465D01*
X148142973Y-88141985D01*
X148133951Y-88134280D01*
X148129797Y-88130379D01*
X148101721Y-88104014D01*
X148094775Y-88100195D01*
X148094772Y-88100193D01*
X148083966Y-88094252D01*
X148067447Y-88083401D01*
X148066983Y-88083041D01*
X148051441Y-88070986D01*
X148044172Y-88067841D01*
X148044168Y-88067838D01*
X148010863Y-88053426D01*
X148000213Y-88048209D01*
X147961460Y-88026905D01*
X147941837Y-88021867D01*
X147923134Y-88015463D01*
X147911820Y-88010567D01*
X147911819Y-88010567D01*
X147904545Y-88007419D01*
X147896722Y-88006180D01*
X147896712Y-88006177D01*
X147860876Y-88000501D01*
X147849256Y-87998095D01*
X147814111Y-87989072D01*
X147814110Y-87989072D01*
X147806430Y-87987100D01*
X147786176Y-87987100D01*
X147766465Y-87985549D01*
X147754286Y-87983620D01*
X147746457Y-87982380D01*
X147717186Y-87985147D01*
X147702439Y-87986541D01*
X147690581Y-87987100D01*
X146163081Y-87987100D01*
X146094960Y-87967098D01*
X146048467Y-87913442D01*
X146038363Y-87843168D01*
X146067857Y-87778588D01*
X146096051Y-87754976D01*
X146095994Y-87754896D01*
X146097019Y-87754165D01*
X146097020Y-87754164D01*
X146277860Y-87625173D01*
X146436096Y-87467489D01*
X146495594Y-87384689D01*
X146563435Y-87290277D01*
X146566453Y-87286077D01*
X146665430Y-87085811D01*
X146730370Y-86872069D01*
X146759529Y-86650590D01*
X146761156Y-86584000D01*
X146742852Y-86361361D01*
X146693453Y-86164695D01*
X146696257Y-86093754D01*
X146736970Y-86035591D01*
X146802665Y-86008672D01*
X146815657Y-86008000D01*
X156882435Y-86008000D01*
X156950556Y-86028002D01*
G37*
G04 #@! TD.AperFunction*
M02*
