G04 #@! TF.GenerationSoftware,KiCad,Pcbnew,(6.0.1)*
G04 #@! TF.CreationDate,2022-02-17T12:21:18-06:00*
G04 #@! TF.ProjectId,2u Hand Wire Helpers,32752048-616e-4642-9057-697265204865,rev?*
G04 #@! TF.SameCoordinates,Original*
G04 #@! TF.FileFunction,Legend,Bot*
G04 #@! TF.FilePolarity,Positive*
%FSLAX46Y46*%
G04 Gerber Fmt 4.6, Leading zero omitted, Abs format (unit mm)*
G04 Created by KiCad (PCBNEW (6.0.1)) date 2022-02-17 12:21:18*
%MOMM*%
%LPD*%
G01*
G04 APERTURE LIST*
%ADD10C,0.150000*%
%ADD11C,0.120000*%
G04 APERTURE END LIST*
D10*
X148224714Y-88717380D02*
X148224714Y-87717380D01*
X147891380Y-88431666D01*
X147558047Y-87717380D01*
X147558047Y-88717380D01*
X147177095Y-87717380D02*
X146510428Y-88717380D01*
X146510428Y-87717380D02*
X147177095Y-88717380D01*
X146177095Y-87812619D02*
X146129476Y-87765000D01*
X146034238Y-87717380D01*
X145796142Y-87717380D01*
X145700904Y-87765000D01*
X145653285Y-87812619D01*
X145605666Y-87907857D01*
X145605666Y-88003095D01*
X145653285Y-88145952D01*
X146224714Y-88717380D01*
X145605666Y-88717380D01*
X148224714Y-104465380D02*
X148224714Y-103465380D01*
X147891380Y-104179666D01*
X147558047Y-103465380D01*
X147558047Y-104465380D01*
X147177095Y-103465380D02*
X146510428Y-104465380D01*
X146510428Y-103465380D02*
X147177095Y-104465380D01*
X145605666Y-104465380D02*
X146177095Y-104465380D01*
X145891380Y-104465380D02*
X145891380Y-103465380D01*
X145986619Y-103608238D01*
X146081857Y-103703476D01*
X146177095Y-103751095D01*
D11*
X139954000Y-89154000D02*
X139954000Y-103124000D01*
X153924000Y-103124000D02*
X153924000Y-89154000D01*
X139954000Y-103124000D02*
X153924000Y-103124000D01*
X153924000Y-89154000D02*
X139954000Y-89154000D01*
X139954000Y-89154000D02*
X139954000Y-103124000D01*
X153924000Y-103124000D02*
X153924000Y-89154000D01*
X139954000Y-103124000D02*
X153924000Y-103124000D01*
X153924000Y-89154000D02*
X139954000Y-89154000D01*
M02*
