%TF.GenerationSoftware,KiCad,Pcbnew,(5.1.6)-1*%
%TF.CreationDate,2021-04-28T13:43:36-05:00*%
%TF.ProjectId,Pikatea Macropad GB3,50696b61-7465-4612-904d-6163726f7061,rev?*%
%TF.SameCoordinates,Original*%
%TF.FileFunction,Copper,L2,Bot*%
%TF.FilePolarity,Positive*%
%FSLAX46Y46*%
G04 Gerber Fmt 4.6, Leading zero omitted, Abs format (unit mm)*
G04 Created by KiCad (PCBNEW (5.1.6)-1) date 2021-04-28 13:43:36*
%MOMM*%
%LPD*%
G01*
G04 APERTURE LIST*
%TA.AperFunction,ComponentPad*%
%ADD10C,1.700000*%
%TD*%
%TA.AperFunction,ComponentPad*%
%ADD11R,1.700000X1.700000*%
%TD*%
%TA.AperFunction,ComponentPad*%
%ADD12O,1.700000X1.700000*%
%TD*%
%TA.AperFunction,ComponentPad*%
%ADD13C,1.000000*%
%TD*%
%TA.AperFunction,ComponentPad*%
%ADD14R,1.905000X1.905000*%
%TD*%
%TA.AperFunction,ComponentPad*%
%ADD15C,1.905000*%
%TD*%
%TA.AperFunction,ComponentPad*%
%ADD16C,2.250000*%
%TD*%
%TA.AperFunction,ComponentPad*%
%ADD17O,1.900000X1.200000*%
%TD*%
%TA.AperFunction,ComponentPad*%
%ADD18C,1.100000*%
%TD*%
%TA.AperFunction,ViaPad*%
%ADD19C,0.800000*%
%TD*%
%TA.AperFunction,Conductor*%
%ADD20C,0.250000*%
%TD*%
%TA.AperFunction,Conductor*%
%ADD21C,0.254000*%
%TD*%
G04 APERTURE END LIST*
D10*
%TO.P,J1,6*%
%TO.N,GND*%
X97810000Y-96240000D03*
%TO.P,J1,5*%
%TO.N,/RESET*%
X97810000Y-93700000D03*
%TO.P,J1,4*%
%TO.N,/MOSI*%
X100350000Y-96240000D03*
%TO.P,J1,3*%
%TO.N,/SCK*%
X100350000Y-93700000D03*
%TO.P,J1,2*%
%TO.N,VBUS*%
X102890000Y-96240000D03*
D11*
%TO.P,J1,1*%
%TO.N,/MISO*%
X102890000Y-93700000D03*
%TD*%
D12*
%TO.P,J7,3*%
%TO.N,VBUS*%
X160000000Y-101620000D03*
%TO.P,J7,2*%
%TO.N,/MISO*%
X160000000Y-104160000D03*
D11*
%TO.P,J7,1*%
%TO.N,GND*%
X160000000Y-106700000D03*
%TD*%
D12*
%TO.P,J3,3*%
%TO.N,/CS*%
X140000000Y-101620000D03*
%TO.P,J3,2*%
%TO.N,/MOSI*%
X140000000Y-104160000D03*
D11*
%TO.P,J3,1*%
%TO.N,/SCK*%
X140000000Y-106700000D03*
%TD*%
D13*
%TO.P,J6,1*%
%TO.N,GND*%
X177580000Y-113550000D03*
X177580000Y-112150000D03*
%TO.P,J6,3*%
%TO.N,/D6*%
X177580000Y-110750000D03*
%TO.P,J6,2*%
%TO.N,/D8*%
X177580000Y-109350000D03*
%TO.P,J6,1*%
%TO.N,GND*%
X177580000Y-107950000D03*
X177580000Y-103750000D03*
X177580000Y-105150000D03*
%TO.P,J6,4*%
%TO.N,/A0*%
X177580000Y-106550000D03*
%TO.P,J6,1*%
%TO.N,GND*%
X177580000Y-102350000D03*
X177580000Y-100950000D03*
X177580000Y-99550000D03*
%TD*%
D14*
%TO.P,MX5,4*%
%TO.N,Net-(MX1-Pad4)*%
X208320000Y-99840000D03*
D15*
%TO.P,MX5,3*%
%TO.N,Net-(MX5-Pad3)*%
X205780000Y-99840000D03*
D16*
%TO.P,MX5,1*%
%TO.N,/D6*%
X203240000Y-107460000D03*
%TO.P,MX5,2*%
%TO.N,/A0*%
X209590000Y-110000000D03*
%TD*%
D14*
%TO.P,MX4,4*%
%TO.N,Net-(MX1-Pad4)*%
X189270000Y-99840000D03*
D15*
%TO.P,MX4,3*%
%TO.N,Net-(MX4-Pad3)*%
X186730000Y-99840000D03*
D16*
%TO.P,MX4,1*%
%TO.N,/D8*%
X184190000Y-107460000D03*
%TO.P,MX4,2*%
%TO.N,/A0*%
X190540000Y-110000000D03*
%TD*%
D14*
%TO.P,MX3,4*%
%TO.N,Net-(MX1-Pad4)*%
X170220000Y-99840000D03*
D15*
%TO.P,MX3,3*%
%TO.N,Net-(MX3-Pad3)*%
X167680000Y-99840000D03*
D16*
%TO.P,MX3,1*%
%TO.N,/D7*%
X165140000Y-107460000D03*
%TO.P,MX3,2*%
%TO.N,/A0*%
X171490000Y-110000000D03*
%TD*%
D14*
%TO.P,MX2,4*%
%TO.N,Net-(MX1-Pad4)*%
X151170000Y-99840000D03*
D15*
%TO.P,MX2,3*%
%TO.N,Net-(MX2-Pad3)*%
X148630000Y-99840000D03*
D16*
%TO.P,MX2,1*%
%TO.N,/D9*%
X146090000Y-107460000D03*
%TO.P,MX2,2*%
%TO.N,/A0*%
X152440000Y-110000000D03*
%TD*%
D14*
%TO.P,MX1,4*%
%TO.N,Net-(MX1-Pad4)*%
X132120000Y-99840000D03*
D15*
%TO.P,MX1,3*%
%TO.N,Net-(MX1-Pad3)*%
X129580000Y-99840000D03*
D16*
%TO.P,MX1,1*%
%TO.N,/D5*%
X127040000Y-107460000D03*
%TO.P,MX1,2*%
%TO.N,/A0*%
X133390000Y-110000000D03*
%TD*%
D17*
%TO.P,J2,6*%
%TO.N,GND*%
X133960000Y-89510000D03*
X133960000Y-96810000D03*
D18*
%TO.P,J2,1*%
%TO.N,VBUS*%
X133360000Y-94760000D03*
%TO.P,J2,2*%
%TO.N,/D-*%
X134560000Y-93960000D03*
%TO.P,J2,3*%
%TO.N,/D+*%
X133360000Y-93160000D03*
%TO.P,J2,4*%
%TO.N,Net-(J2-Pad4)*%
X134560000Y-92360000D03*
%TO.P,J2,5*%
%TO.N,GND*%
X133360000Y-91560000D03*
D17*
%TO.P,J2,6*%
X138780000Y-96810000D03*
X138780000Y-89510000D03*
%TD*%
D12*
%TO.P,J4,3*%
%TO.N,/A0*%
X114046000Y-112522000D03*
%TO.P,J4,2*%
%TO.N,/D1*%
X114046000Y-109982000D03*
D11*
%TO.P,J4,1*%
%TO.N,/D0*%
X114046000Y-107442000D03*
%TD*%
D12*
%TO.P,J5,3*%
%TO.N,/A0*%
X197760000Y-109390000D03*
%TO.P,J5,2*%
%TO.N,/D6*%
X197760000Y-106850000D03*
D11*
%TO.P,J5,1*%
%TO.N,/D8*%
X197760000Y-104310000D03*
%TD*%
%TO.P,SW2,S1*%
%TO.N,/D2*%
X109450000Y-102360000D03*
%TO.P,SW2,S2*%
%TO.N,/A0*%
X109450000Y-107440000D03*
%TO.P,SW2,C*%
%TO.N,GND*%
X91350000Y-104900000D03*
%TO.P,SW2,B*%
%TO.N,/D3*%
X91350000Y-102360000D03*
%TO.P,SW2,A*%
%TO.N,/D4*%
X91350000Y-107440000D03*
%TD*%
D19*
%TO.N,GND*%
X127015990Y-91424010D03*
X125476000Y-89916000D03*
X110485347Y-92451347D03*
X110490000Y-90678000D03*
X126709000Y-98044000D03*
X125259000Y-97282000D03*
X117856000Y-93980000D03*
X116581347Y-95000653D03*
X117602000Y-98466619D03*
X119216592Y-98466619D03*
X122650000Y-96010000D03*
%TO.N,/MOSI*%
X118618000Y-91948000D03*
X119551391Y-93309915D03*
%TO.N,/RESET*%
X115824000Y-110744000D03*
X117617417Y-92471417D03*
X109430672Y-113073328D03*
%TO.N,/SCK*%
X121158000Y-90170000D03*
%TO.N,/MISO*%
X117866562Y-91196966D03*
X128778000Y-101186990D03*
X121480858Y-95943142D03*
X116596764Y-92466764D03*
X104970000Y-95820000D03*
%TO.N,/A0*%
X121666000Y-103632000D03*
X124206000Y-106680000D03*
%TO.N,/D9*%
X116549000Y-105664000D03*
%TO.N,/D6*%
X130302000Y-110998000D03*
X117602000Y-99916620D03*
%TO.N,/D5*%
X117502006Y-105361042D03*
%TO.N,/CS*%
X128330000Y-98552000D03*
X120718858Y-95181142D03*
%TO.N,/D4*%
X112120174Y-101363615D03*
%TO.N,/D3*%
X115022524Y-95066309D03*
%TO.N,/D2*%
X114315417Y-95773417D03*
%TO.N,/D8*%
X116586000Y-100838000D03*
%TO.N,VBUS*%
X114813056Y-90418944D03*
X110490000Y-94742000D03*
X125842768Y-94505839D03*
X122645315Y-91403315D03*
X109728000Y-98552000D03*
X110711805Y-99832686D03*
X110927841Y-108641841D03*
X111395174Y-106426000D03*
%TO.N,/D7*%
X128016000Y-104140000D03*
X121416620Y-98565926D03*
%TO.N,/D1*%
X119724840Y-97605406D03*
X114970000Y-98100000D03*
X116702382Y-97831175D03*
%TO.N,/D0*%
X119390347Y-96539653D03*
X115080966Y-97106175D03*
X117766592Y-96450000D03*
%TD*%
D20*
%TO.N,GND*%
X127015990Y-91424010D02*
X126984010Y-91424010D01*
X126984010Y-91424010D02*
X125476000Y-89916000D01*
X110485347Y-92451347D02*
X110485347Y-90682653D01*
X110485347Y-90682653D02*
X110490000Y-90678000D01*
X126709000Y-98044000D02*
X126021000Y-98044000D01*
X126021000Y-98044000D02*
X125259000Y-97282000D01*
X117856000Y-93980000D02*
X117602000Y-93980000D01*
X117602000Y-93980000D02*
X116581347Y-95000653D01*
X117602000Y-98466619D02*
X119216592Y-98466619D01*
X123922000Y-97282000D02*
X125259000Y-97282000D01*
X122650000Y-96010000D02*
X123922000Y-97282000D01*
%TO.N,/MOSI*%
X118618000Y-90875402D02*
X118618000Y-91948000D01*
X107799991Y-96006401D02*
X110935011Y-96006401D01*
X100350000Y-96240000D02*
X101525001Y-95064999D01*
X101525001Y-95064999D02*
X106858589Y-95064999D01*
X106858589Y-95064999D02*
X107799991Y-96006401D01*
X118214563Y-90471965D02*
X118618000Y-90875402D01*
X116469447Y-90471965D02*
X118214563Y-90471965D01*
X110935011Y-96006401D02*
X116469447Y-90471965D01*
X139472000Y-103632000D02*
X140000000Y-104160000D01*
X119551391Y-93309915D02*
X119551391Y-95038981D01*
X126424400Y-101911990D02*
X131910374Y-101911990D01*
X133630384Y-103632000D02*
X139472000Y-103632000D01*
X131910374Y-101911990D02*
X133630384Y-103632000D01*
X119551391Y-95038981D02*
X126424400Y-101911990D01*
%TO.N,/RESET*%
X115824000Y-110744000D02*
X115410999Y-111157001D01*
X111346999Y-111157001D02*
X109430672Y-113073328D01*
X115410999Y-111157001D02*
X111346999Y-111157001D01*
X117617417Y-92471417D02*
X117617417Y-92519113D01*
X115824000Y-110178315D02*
X115824000Y-110744000D01*
X115823999Y-94312531D02*
X115824000Y-110178315D01*
X117617417Y-92519113D02*
X115823999Y-94312531D01*
%TO.N,/SCK*%
X101525001Y-92524999D02*
X100350000Y-93700000D01*
X121158000Y-90170000D02*
X120142000Y-89154000D01*
X118200116Y-89154000D02*
X117284000Y-89154000D01*
X120142000Y-89154000D02*
X118200116Y-89154000D01*
X117284000Y-89154000D02*
X117280010Y-89150010D01*
X117151002Y-89154000D02*
X110785002Y-95520000D01*
X117284000Y-89154000D02*
X117151002Y-89154000D01*
X110785002Y-95520000D02*
X107950000Y-95520000D01*
X104954999Y-92524999D02*
X104234999Y-92524999D01*
X107950000Y-95520000D02*
X104954999Y-92524999D01*
X104404999Y-92524999D02*
X104234999Y-92524999D01*
X104234999Y-92524999D02*
X101525001Y-92524999D01*
X139420001Y-106120001D02*
X140000000Y-106700000D01*
X134870001Y-106120001D02*
X139420001Y-106120001D01*
X125634212Y-102362000D02*
X129569802Y-102362000D01*
X118618000Y-93218000D02*
X118618000Y-94742000D01*
X121158000Y-90678000D02*
X118618000Y-93218000D01*
X133168901Y-104418901D02*
X134870001Y-106120001D01*
X121158000Y-90170000D02*
X121158000Y-90678000D01*
X129569802Y-102362000D02*
X129808901Y-102601099D01*
X131963073Y-102601099D02*
X133168901Y-103806927D01*
X129808901Y-102601099D02*
X131963073Y-102601099D01*
X133168901Y-103806927D02*
X133168901Y-104418901D01*
X122645001Y-99372789D02*
X125634212Y-102362000D01*
X122645001Y-98769001D02*
X122645001Y-99372789D01*
X118618000Y-94742000D02*
X122645001Y-98769001D01*
%TO.N,/MISO*%
X128778000Y-101186990D02*
X126724706Y-101186990D01*
X117866562Y-91196966D02*
X116596764Y-92466764D01*
X105606411Y-96456411D02*
X104970000Y-95820000D01*
X111757822Y-95820000D02*
X111121411Y-96456411D01*
X111121411Y-96456411D02*
X105606411Y-96456411D01*
X113243528Y-95820000D02*
X111757822Y-95820000D01*
X116596764Y-92466764D02*
X113243528Y-95820000D01*
X126724706Y-101186990D02*
X121480858Y-95943142D01*
%TO.N,/A0*%
X109970000Y-107460000D02*
X109950000Y-107440000D01*
X109470000Y-107460000D02*
X109450000Y-107440000D01*
X121666000Y-103632000D02*
X121666000Y-104232002D01*
X121666000Y-105324887D02*
X122850887Y-105324887D01*
X122850887Y-105324887D02*
X124206000Y-106680000D01*
X121666000Y-104232002D02*
X121666000Y-105324887D01*
%TO.N,/D9*%
X146090000Y-107460000D02*
X145600000Y-107950000D01*
X134620000Y-107950000D02*
X136398000Y-109728000D01*
X132080000Y-107950000D02*
X134620000Y-107950000D01*
X131027001Y-109002999D02*
X132080000Y-107950000D01*
X116549000Y-107151000D02*
X121121001Y-111723001D01*
X143822000Y-109728000D02*
X146090000Y-107460000D01*
X116549000Y-105664000D02*
X116549000Y-107151000D01*
X136398000Y-109728000D02*
X143822000Y-109728000D01*
X131027001Y-111346001D02*
X131027001Y-109002999D01*
X121121001Y-111723001D02*
X130650001Y-111723001D01*
X130650001Y-111723001D02*
X131027001Y-111346001D01*
%TO.N,/D6*%
X196910001Y-107699999D02*
X186096003Y-107699999D01*
X197760000Y-106850000D02*
X196910001Y-107699999D01*
X118990618Y-99916620D02*
X117602000Y-99916620D01*
X125193999Y-106120001D02*
X118990618Y-99916620D01*
X130302000Y-108575998D02*
X127736001Y-106009999D01*
X126456003Y-106009999D02*
X126346001Y-106120001D01*
X130302000Y-110998000D02*
X130302000Y-108575998D01*
X127736001Y-106009999D02*
X126456003Y-106009999D01*
X126346001Y-106120001D02*
X125193999Y-106120001D01*
X183046002Y-110750000D02*
X177580000Y-110750000D01*
X186096003Y-107699999D02*
X183046002Y-110750000D01*
%TO.N,/D5*%
X127040000Y-107460000D02*
X118636000Y-107460000D01*
X117502006Y-105926727D02*
X117348000Y-106080733D01*
X117502006Y-105361042D02*
X117502006Y-105926727D01*
X117348000Y-106080733D02*
X117348000Y-107188000D01*
X117348000Y-107188000D02*
X117620000Y-107460000D01*
X117620000Y-107460000D02*
X118636000Y-107460000D01*
%TO.N,/CS*%
X128330000Y-98552000D02*
X124959142Y-95181142D01*
X124959142Y-95181142D02*
X120718858Y-95181142D01*
%TO.N,/D4*%
X91350000Y-109844988D02*
X93773012Y-112268000D01*
X91350000Y-107440000D02*
X91350000Y-109844988D01*
X93773012Y-112268000D02*
X102108000Y-112268000D01*
X112120174Y-108474814D02*
X112120174Y-101363615D01*
X108326988Y-112268000D02*
X112120174Y-108474814D01*
X102108000Y-112268000D02*
X108326988Y-112268000D01*
%TO.N,/D3*%
X108513389Y-112718009D02*
X112570184Y-108661214D01*
X112570184Y-108661214D02*
X112570184Y-101986607D01*
X91350000Y-102360000D02*
X90174999Y-103535001D01*
X93586612Y-112718010D02*
X108513389Y-112718009D01*
X90174999Y-103535001D02*
X90174999Y-109306397D01*
X112570184Y-101986607D02*
X113030000Y-101526791D01*
X90174999Y-109306397D02*
X93586612Y-112718010D01*
X115040418Y-95084203D02*
X115022524Y-95066309D01*
X115040418Y-96121418D02*
X115040418Y-95084203D01*
X113371836Y-97790000D02*
X115040418Y-96121418D01*
X113030000Y-101092000D02*
X113030000Y-101526791D01*
X113371836Y-100750164D02*
X113030000Y-101092000D01*
X113371836Y-97790000D02*
X113371836Y-100750164D01*
%TO.N,/D2*%
X112014000Y-98074834D02*
X114315417Y-95773417D01*
X110041002Y-102360000D02*
X112014000Y-100387002D01*
X112014000Y-100387002D02*
X112014000Y-98074834D01*
X109450000Y-102360000D02*
X110041002Y-102360000D01*
%TO.N,/D8*%
X184190000Y-107460000D02*
X180830000Y-107460000D01*
X178940000Y-109350000D02*
X177580000Y-109350000D01*
X180830000Y-107460000D02*
X178940000Y-109350000D01*
X175644000Y-109350000D02*
X177580000Y-109350000D01*
X174498000Y-108204000D02*
X175644000Y-109350000D01*
X164028001Y-108910001D02*
X168716001Y-108910001D01*
X168716001Y-108910001D02*
X169422002Y-108204000D01*
X149151003Y-108375001D02*
X163493001Y-108375001D01*
X146786001Y-106009999D02*
X149151003Y-108375001D01*
X145393999Y-106009999D02*
X146786001Y-106009999D01*
X144165097Y-107238901D02*
X145393999Y-106009999D01*
X125193999Y-103719999D02*
X126346001Y-103719999D01*
X144165097Y-108564903D02*
X144165097Y-107238901D01*
X116586000Y-100838000D02*
X116586000Y-99859618D01*
X136526410Y-109220000D02*
X143510000Y-109220000D01*
X117253999Y-99191619D02*
X120665619Y-99191619D01*
X126346001Y-103719999D02*
X129864903Y-107238901D01*
X163493001Y-108375001D02*
X164028001Y-108910001D01*
X120665619Y-99191619D02*
X125193999Y-103719999D01*
X116586000Y-99859618D02*
X117253999Y-99191619D01*
X129864903Y-107238901D02*
X134545311Y-107238901D01*
X134545311Y-107238901D02*
X136526410Y-109220000D01*
X169422002Y-108204000D02*
X174498000Y-108204000D01*
X143510000Y-109220000D02*
X144165097Y-108564903D01*
%TO.N,VBUS*%
X114813056Y-90418944D02*
X110490000Y-94742000D01*
X122740244Y-91403315D02*
X122645315Y-91403315D01*
X125842768Y-94505839D02*
X122740244Y-91403315D01*
X109728000Y-98552000D02*
X109728000Y-98848881D01*
X109728000Y-98848881D02*
X110711805Y-99832686D01*
X110927841Y-108641841D02*
X110927841Y-106893333D01*
X110927841Y-106893333D02*
X111395174Y-106426000D01*
X133360000Y-94760000D02*
X134137817Y-94760000D01*
X104499990Y-97849990D02*
X109025990Y-97849990D01*
X109025990Y-97849990D02*
X109728000Y-98552000D01*
X102890000Y-96240000D02*
X104499990Y-97849990D01*
X134212818Y-94835001D02*
X134137817Y-94760000D01*
X134945001Y-94835001D02*
X134212818Y-94835001D01*
X141730000Y-101620000D02*
X134945001Y-94835001D01*
X160000000Y-101620000D02*
X141730000Y-101620000D01*
%TO.N,/D7*%
X125236901Y-102601099D02*
X121920000Y-99284198D01*
X126688010Y-102812010D02*
X128016000Y-104140000D01*
X125236901Y-102601099D02*
X125447812Y-102812010D01*
X125447812Y-102812010D02*
X126688010Y-102812010D01*
X121920000Y-99284198D02*
X121920000Y-99069306D01*
X121920000Y-99069306D02*
X121416620Y-98565926D01*
%TO.N,/D1*%
X115221001Y-106331999D02*
X114496010Y-105607008D01*
X114046000Y-109982000D02*
X115221001Y-108806999D01*
X115221001Y-108806999D02*
X115221001Y-106331999D01*
X114496010Y-105607008D02*
X114496010Y-98573990D01*
X114496010Y-98573990D02*
X114970000Y-98100000D01*
X119724840Y-97605406D02*
X116928151Y-97605406D01*
X116928151Y-97605406D02*
X116702382Y-97831175D01*
%TO.N,/D0*%
X114046000Y-107442000D02*
X114046000Y-97864000D01*
X114046000Y-97864000D02*
X114803825Y-97106175D01*
X114803825Y-97106175D02*
X115080966Y-97106175D01*
X119300694Y-96450000D02*
X119390347Y-96539653D01*
X117766592Y-96450000D02*
X119300694Y-96450000D01*
%TD*%
D21*
%TO.N,GND*%
G36*
X166092500Y-99683645D02*
G01*
X166092500Y-99996355D01*
X166153507Y-100303057D01*
X166273176Y-100591963D01*
X166446908Y-100851972D01*
X166668028Y-101073092D01*
X166928037Y-101246824D01*
X167216943Y-101366493D01*
X167523645Y-101427500D01*
X167836355Y-101427500D01*
X168143057Y-101366493D01*
X168431963Y-101246824D01*
X168691972Y-101073092D01*
X168695549Y-101069515D01*
X168736963Y-101146994D01*
X168816315Y-101243685D01*
X168913006Y-101323037D01*
X169023320Y-101382002D01*
X169143018Y-101418312D01*
X169267500Y-101430572D01*
X171172500Y-101430572D01*
X171296982Y-101418312D01*
X171416680Y-101382002D01*
X171526994Y-101323037D01*
X171623685Y-101243685D01*
X171703037Y-101146994D01*
X171762002Y-101036680D01*
X171763298Y-101032406D01*
X176442489Y-101032406D01*
X176480423Y-101252740D01*
X176560613Y-101461440D01*
X176588412Y-101513450D01*
X176801834Y-101548561D01*
X177400395Y-100950000D01*
X177759605Y-100950000D01*
X178358166Y-101548561D01*
X178571588Y-101513450D01*
X178662458Y-101309174D01*
X178711731Y-101091095D01*
X178717511Y-100867594D01*
X178679577Y-100647260D01*
X178599387Y-100438560D01*
X178571588Y-100386550D01*
X178358166Y-100351439D01*
X177759605Y-100950000D01*
X177400395Y-100950000D01*
X176801834Y-100351439D01*
X176588412Y-100386550D01*
X176497542Y-100590826D01*
X176448269Y-100808905D01*
X176442489Y-101032406D01*
X171763298Y-101032406D01*
X171798312Y-100916982D01*
X171810572Y-100792500D01*
X171810572Y-100171834D01*
X176981439Y-100171834D01*
X177059605Y-100250000D01*
X176981439Y-100328166D01*
X177016550Y-100541588D01*
X177220826Y-100632458D01*
X177438905Y-100681731D01*
X177492728Y-100683123D01*
X177580000Y-100770395D01*
X177662983Y-100687412D01*
X177882740Y-100649577D01*
X178091440Y-100569387D01*
X178143450Y-100541588D01*
X178178561Y-100328166D01*
X178100395Y-100250000D01*
X178178561Y-100171834D01*
X178143450Y-99958412D01*
X177939174Y-99867542D01*
X177721095Y-99818269D01*
X177667272Y-99816877D01*
X177580000Y-99729605D01*
X177497017Y-99812588D01*
X177277260Y-99850423D01*
X177068560Y-99930613D01*
X177016550Y-99958412D01*
X176981439Y-100171834D01*
X171810572Y-100171834D01*
X171810572Y-99660000D01*
X176447240Y-99660000D01*
X176480423Y-99852740D01*
X176560613Y-100061440D01*
X176588412Y-100113450D01*
X176801834Y-100148561D01*
X177290395Y-99660000D01*
X177869605Y-99660000D01*
X178358166Y-100148561D01*
X178571588Y-100113450D01*
X178662458Y-99909174D01*
X178711731Y-99691095D01*
X178712535Y-99660000D01*
X185147203Y-99660000D01*
X185142500Y-99683645D01*
X185142500Y-99996355D01*
X185203507Y-100303057D01*
X185323176Y-100591963D01*
X185496908Y-100851972D01*
X185718028Y-101073092D01*
X185978037Y-101246824D01*
X186266943Y-101366493D01*
X186573645Y-101427500D01*
X186886355Y-101427500D01*
X187193057Y-101366493D01*
X187481963Y-101246824D01*
X187741972Y-101073092D01*
X187745549Y-101069515D01*
X187786963Y-101146994D01*
X187866315Y-101243685D01*
X187963006Y-101323037D01*
X188073320Y-101382002D01*
X188193018Y-101418312D01*
X188317500Y-101430572D01*
X190222500Y-101430572D01*
X190346982Y-101418312D01*
X190466680Y-101382002D01*
X190576994Y-101323037D01*
X190673685Y-101243685D01*
X190753037Y-101146994D01*
X190812002Y-101036680D01*
X190848312Y-100916982D01*
X190860572Y-100792500D01*
X190860572Y-99660000D01*
X204197203Y-99660000D01*
X204192500Y-99683645D01*
X204192500Y-99996355D01*
X204253507Y-100303057D01*
X204373176Y-100591963D01*
X204546908Y-100851972D01*
X204768028Y-101073092D01*
X205028037Y-101246824D01*
X205316943Y-101366493D01*
X205623645Y-101427500D01*
X205936355Y-101427500D01*
X206243057Y-101366493D01*
X206531963Y-101246824D01*
X206791972Y-101073092D01*
X206795549Y-101069515D01*
X206836963Y-101146994D01*
X206916315Y-101243685D01*
X207013006Y-101323037D01*
X207123320Y-101382002D01*
X207243018Y-101418312D01*
X207367500Y-101430572D01*
X209272500Y-101430572D01*
X209396982Y-101418312D01*
X209516680Y-101382002D01*
X209626994Y-101323037D01*
X209723685Y-101243685D01*
X209803037Y-101146994D01*
X209862002Y-101036680D01*
X209898312Y-100916982D01*
X209910572Y-100792500D01*
X209910572Y-99660000D01*
X213440001Y-99660000D01*
X213440001Y-104162627D01*
X213302893Y-103957431D01*
X213092569Y-103747107D01*
X212845253Y-103581856D01*
X212570451Y-103468029D01*
X212278722Y-103410000D01*
X211981278Y-103410000D01*
X211689549Y-103468029D01*
X211414747Y-103581856D01*
X211167431Y-103747107D01*
X210957107Y-103957431D01*
X210791856Y-104204747D01*
X210678029Y-104479549D01*
X210620000Y-104771278D01*
X210620000Y-105068722D01*
X210678029Y-105360451D01*
X210791856Y-105635253D01*
X210957107Y-105882569D01*
X211167431Y-106092893D01*
X211414747Y-106258144D01*
X211689549Y-106371971D01*
X211981278Y-106430000D01*
X212278722Y-106430000D01*
X212570451Y-106371971D01*
X212845253Y-106258144D01*
X213092569Y-106092893D01*
X213302893Y-105882569D01*
X213440001Y-105677373D01*
X213440000Y-113340000D01*
X178695544Y-113340000D01*
X178679577Y-113247260D01*
X178599387Y-113038560D01*
X178571588Y-112986550D01*
X178358166Y-112951439D01*
X177969605Y-113340000D01*
X177610395Y-113340000D01*
X177662983Y-113287412D01*
X177882740Y-113249577D01*
X178091440Y-113169387D01*
X178143450Y-113141588D01*
X178178561Y-112928166D01*
X178100395Y-112850000D01*
X178178561Y-112771834D01*
X178143450Y-112558412D01*
X177939174Y-112467542D01*
X177721095Y-112418269D01*
X177667272Y-112416877D01*
X177580000Y-112329605D01*
X177497017Y-112412588D01*
X177277260Y-112450423D01*
X177068560Y-112530613D01*
X177016550Y-112558412D01*
X176981439Y-112771834D01*
X177059605Y-112850000D01*
X176981439Y-112928166D01*
X177016550Y-113141588D01*
X177220826Y-113232458D01*
X177438905Y-113281731D01*
X177492728Y-113283123D01*
X177549605Y-113340000D01*
X177190395Y-113340000D01*
X176801834Y-112951439D01*
X176588412Y-112986550D01*
X176497542Y-113190826D01*
X176463837Y-113340000D01*
X115285424Y-113340000D01*
X115361990Y-113225411D01*
X115473932Y-112955158D01*
X115531000Y-112668260D01*
X115531000Y-112375740D01*
X115473932Y-112088842D01*
X115403990Y-111919987D01*
X115410999Y-111920677D01*
X115448321Y-111917001D01*
X115448332Y-111917001D01*
X115559985Y-111906004D01*
X115703246Y-111862547D01*
X115835275Y-111791975D01*
X115851085Y-111779000D01*
X115925939Y-111779000D01*
X116125898Y-111739226D01*
X116314256Y-111661205D01*
X116483774Y-111547937D01*
X116627937Y-111403774D01*
X116741205Y-111234256D01*
X116819226Y-111045898D01*
X116859000Y-110845939D01*
X116859000Y-110642061D01*
X116819226Y-110442102D01*
X116741205Y-110253744D01*
X116627937Y-110084226D01*
X116584000Y-110040289D01*
X116584000Y-108260801D01*
X120557202Y-112234004D01*
X120581000Y-112263002D01*
X120696725Y-112357975D01*
X120828754Y-112428547D01*
X120972015Y-112472004D01*
X121083668Y-112483001D01*
X121083678Y-112483001D01*
X121121001Y-112486677D01*
X121158324Y-112483001D01*
X130612679Y-112483001D01*
X130650001Y-112486677D01*
X130687323Y-112483001D01*
X130687334Y-112483001D01*
X130798987Y-112472004D01*
X130942248Y-112428547D01*
X131074277Y-112357975D01*
X131190002Y-112263002D01*
X131213805Y-112233998D01*
X131537999Y-111909804D01*
X131567002Y-111886002D01*
X131661975Y-111770277D01*
X131732547Y-111638248D01*
X131776004Y-111494987D01*
X131787001Y-111383334D01*
X131787001Y-111383333D01*
X131790678Y-111346001D01*
X131787001Y-111308668D01*
X131787001Y-110729120D01*
X131830308Y-110833673D01*
X132022919Y-111121935D01*
X132268065Y-111367081D01*
X132556327Y-111559692D01*
X132876627Y-111692364D01*
X133216655Y-111760000D01*
X133563345Y-111760000D01*
X133903373Y-111692364D01*
X134223673Y-111559692D01*
X134511935Y-111367081D01*
X134757081Y-111121935D01*
X134949692Y-110833673D01*
X135082364Y-110513373D01*
X135150000Y-110173345D01*
X135150000Y-109826655D01*
X135082498Y-109487299D01*
X135834201Y-110239003D01*
X135857999Y-110268001D01*
X135973724Y-110362974D01*
X136105753Y-110433546D01*
X136249014Y-110477003D01*
X136360667Y-110488000D01*
X136360675Y-110488000D01*
X136398000Y-110491676D01*
X136435325Y-110488000D01*
X143784678Y-110488000D01*
X143822000Y-110491676D01*
X143859322Y-110488000D01*
X143859333Y-110488000D01*
X143970986Y-110477003D01*
X144114247Y-110433546D01*
X144246276Y-110362974D01*
X144362001Y-110268001D01*
X144385804Y-110238997D01*
X145502954Y-109121848D01*
X145576627Y-109152364D01*
X145916655Y-109220000D01*
X146263345Y-109220000D01*
X146603373Y-109152364D01*
X146923673Y-109019692D01*
X147211935Y-108827081D01*
X147457081Y-108581935D01*
X147649692Y-108293673D01*
X147750793Y-108049593D01*
X148587203Y-108886003D01*
X148611002Y-108915002D01*
X148640000Y-108938800D01*
X148726726Y-109009975D01*
X148831758Y-109066116D01*
X148858756Y-109080547D01*
X149002017Y-109124004D01*
X149113670Y-109135001D01*
X149113680Y-109135001D01*
X149151003Y-109138677D01*
X149188326Y-109135001D01*
X150901239Y-109135001D01*
X150880308Y-109166327D01*
X150747636Y-109486627D01*
X150680000Y-109826655D01*
X150680000Y-110173345D01*
X150747636Y-110513373D01*
X150880308Y-110833673D01*
X151072919Y-111121935D01*
X151318065Y-111367081D01*
X151606327Y-111559692D01*
X151926627Y-111692364D01*
X152266655Y-111760000D01*
X152613345Y-111760000D01*
X152953373Y-111692364D01*
X153273673Y-111559692D01*
X153561935Y-111367081D01*
X153807081Y-111121935D01*
X153999692Y-110833673D01*
X154132364Y-110513373D01*
X154200000Y-110173345D01*
X154200000Y-109826655D01*
X154132364Y-109486627D01*
X153999692Y-109166327D01*
X153978761Y-109135001D01*
X163178200Y-109135001D01*
X163464201Y-109421003D01*
X163488000Y-109450002D01*
X163603725Y-109544975D01*
X163735754Y-109615547D01*
X163879015Y-109659004D01*
X163990668Y-109670001D01*
X163990677Y-109670001D01*
X164028000Y-109673677D01*
X164065323Y-109670001D01*
X168678679Y-109670001D01*
X168716001Y-109673677D01*
X168753323Y-109670001D01*
X168753334Y-109670001D01*
X168864987Y-109659004D01*
X169008248Y-109615547D01*
X169140277Y-109544975D01*
X169256002Y-109450002D01*
X169279804Y-109420999D01*
X169736804Y-108964000D01*
X170065499Y-108964000D01*
X169930308Y-109166327D01*
X169797636Y-109486627D01*
X169730000Y-109826655D01*
X169730000Y-110173345D01*
X169797636Y-110513373D01*
X169930308Y-110833673D01*
X170122919Y-111121935D01*
X170368065Y-111367081D01*
X170656327Y-111559692D01*
X170976627Y-111692364D01*
X171316655Y-111760000D01*
X171663345Y-111760000D01*
X172003373Y-111692364D01*
X172323673Y-111559692D01*
X172611935Y-111367081D01*
X172857081Y-111121935D01*
X173049692Y-110833673D01*
X173182364Y-110513373D01*
X173250000Y-110173345D01*
X173250000Y-109826655D01*
X173182364Y-109486627D01*
X173049692Y-109166327D01*
X172914501Y-108964000D01*
X174183199Y-108964000D01*
X175080201Y-109861003D01*
X175103999Y-109890001D01*
X175219724Y-109984974D01*
X175351753Y-110055546D01*
X175495014Y-110099003D01*
X175606667Y-110110000D01*
X175606675Y-110110000D01*
X175644000Y-110113676D01*
X175681325Y-110110000D01*
X176642582Y-110110000D01*
X176574176Y-110212376D01*
X176488617Y-110418933D01*
X176445000Y-110638212D01*
X176445000Y-110861788D01*
X176488617Y-111081067D01*
X176574176Y-111287624D01*
X176698388Y-111473520D01*
X176779913Y-111555045D01*
X176588412Y-111586550D01*
X176497542Y-111790826D01*
X176448269Y-112008905D01*
X176442489Y-112232406D01*
X176480423Y-112452740D01*
X176560613Y-112661440D01*
X176588412Y-112713450D01*
X176801834Y-112748561D01*
X177400395Y-112150000D01*
X177386253Y-112135858D01*
X177565858Y-111956253D01*
X177580000Y-111970395D01*
X177594143Y-111956253D01*
X177773748Y-112135858D01*
X177759605Y-112150000D01*
X178358166Y-112748561D01*
X178571588Y-112713450D01*
X178662458Y-112509174D01*
X178711731Y-112291095D01*
X178717511Y-112067594D01*
X178679577Y-111847260D01*
X178599387Y-111638560D01*
X178571588Y-111586550D01*
X178380087Y-111555045D01*
X178425132Y-111510000D01*
X183008680Y-111510000D01*
X183046002Y-111513676D01*
X183083324Y-111510000D01*
X183083335Y-111510000D01*
X183194988Y-111499003D01*
X183338249Y-111455546D01*
X183470278Y-111384974D01*
X183586003Y-111290001D01*
X183609806Y-111260997D01*
X186410805Y-108459999D01*
X189676857Y-108459999D01*
X189418065Y-108632919D01*
X189172919Y-108878065D01*
X188980308Y-109166327D01*
X188847636Y-109486627D01*
X188780000Y-109826655D01*
X188780000Y-110173345D01*
X188847636Y-110513373D01*
X188980308Y-110833673D01*
X189172919Y-111121935D01*
X189418065Y-111367081D01*
X189706327Y-111559692D01*
X190026627Y-111692364D01*
X190366655Y-111760000D01*
X190713345Y-111760000D01*
X191053373Y-111692364D01*
X191373673Y-111559692D01*
X191661935Y-111367081D01*
X191907081Y-111121935D01*
X192099692Y-110833673D01*
X192232364Y-110513373D01*
X192300000Y-110173345D01*
X192300000Y-109826655D01*
X192232364Y-109486627D01*
X192099692Y-109166327D01*
X191907081Y-108878065D01*
X191661935Y-108632919D01*
X191403143Y-108459999D01*
X196595413Y-108459999D01*
X196444010Y-108686589D01*
X196332068Y-108956842D01*
X196275000Y-109243740D01*
X196275000Y-109536260D01*
X196332068Y-109823158D01*
X196444010Y-110093411D01*
X196606525Y-110336632D01*
X196813368Y-110543475D01*
X197056589Y-110705990D01*
X197326842Y-110817932D01*
X197613740Y-110875000D01*
X197906260Y-110875000D01*
X198193158Y-110817932D01*
X198463411Y-110705990D01*
X198706632Y-110543475D01*
X198913475Y-110336632D01*
X199075990Y-110093411D01*
X199186483Y-109826655D01*
X207830000Y-109826655D01*
X207830000Y-110173345D01*
X207897636Y-110513373D01*
X208030308Y-110833673D01*
X208222919Y-111121935D01*
X208468065Y-111367081D01*
X208756327Y-111559692D01*
X209076627Y-111692364D01*
X209416655Y-111760000D01*
X209763345Y-111760000D01*
X210103373Y-111692364D01*
X210423673Y-111559692D01*
X210711935Y-111367081D01*
X210957081Y-111121935D01*
X211149692Y-110833673D01*
X211282364Y-110513373D01*
X211350000Y-110173345D01*
X211350000Y-109826655D01*
X211282364Y-109486627D01*
X211149692Y-109166327D01*
X210957081Y-108878065D01*
X210711935Y-108632919D01*
X210423673Y-108440308D01*
X210103373Y-108307636D01*
X209763345Y-108240000D01*
X209416655Y-108240000D01*
X209076627Y-108307636D01*
X208756327Y-108440308D01*
X208468065Y-108632919D01*
X208222919Y-108878065D01*
X208030308Y-109166327D01*
X207897636Y-109486627D01*
X207830000Y-109826655D01*
X199186483Y-109826655D01*
X199187932Y-109823158D01*
X199245000Y-109536260D01*
X199245000Y-109243740D01*
X199187932Y-108956842D01*
X199075990Y-108686589D01*
X198913475Y-108443368D01*
X198706632Y-108236525D01*
X198532240Y-108120000D01*
X198706632Y-108003475D01*
X198913475Y-107796632D01*
X199075990Y-107553411D01*
X199187932Y-107283158D01*
X199245000Y-106996260D01*
X199245000Y-106703740D01*
X199187932Y-106416842D01*
X199075990Y-106146589D01*
X198913475Y-105903368D01*
X198781620Y-105771513D01*
X198854180Y-105749502D01*
X198964494Y-105690537D01*
X199061185Y-105611185D01*
X199140537Y-105514494D01*
X199199502Y-105404180D01*
X199235812Y-105284482D01*
X199248072Y-105160000D01*
X199248072Y-104771278D01*
X200460000Y-104771278D01*
X200460000Y-105068722D01*
X200518029Y-105360451D01*
X200631856Y-105635253D01*
X200797107Y-105882569D01*
X201007431Y-106092893D01*
X201254747Y-106258144D01*
X201529549Y-106371971D01*
X201812638Y-106428281D01*
X201680308Y-106626327D01*
X201547636Y-106946627D01*
X201480000Y-107286655D01*
X201480000Y-107633345D01*
X201547636Y-107973373D01*
X201680308Y-108293673D01*
X201872919Y-108581935D01*
X202118065Y-108827081D01*
X202406327Y-109019692D01*
X202726627Y-109152364D01*
X203066655Y-109220000D01*
X203413345Y-109220000D01*
X203753373Y-109152364D01*
X204073673Y-109019692D01*
X204361935Y-108827081D01*
X204607081Y-108581935D01*
X204799692Y-108293673D01*
X204932364Y-107973373D01*
X205000000Y-107633345D01*
X205000000Y-107286655D01*
X204932364Y-106946627D01*
X204799692Y-106626327D01*
X204607081Y-106338065D01*
X204361935Y-106092919D01*
X204073673Y-105900308D01*
X203753373Y-105767636D01*
X203413345Y-105700000D01*
X203264882Y-105700000D01*
X203308144Y-105635253D01*
X203421971Y-105360451D01*
X203480000Y-105068722D01*
X203480000Y-104771278D01*
X203458080Y-104661076D01*
X204421100Y-104661076D01*
X204421100Y-105178924D01*
X204522127Y-105686822D01*
X204720299Y-106165251D01*
X205008000Y-106595826D01*
X205374174Y-106962000D01*
X205804749Y-107249701D01*
X206283178Y-107447873D01*
X206791076Y-107548900D01*
X207308924Y-107548900D01*
X207816822Y-107447873D01*
X208295251Y-107249701D01*
X208725826Y-106962000D01*
X209092000Y-106595826D01*
X209379701Y-106165251D01*
X209577873Y-105686822D01*
X209678900Y-105178924D01*
X209678900Y-104661076D01*
X209577873Y-104153178D01*
X209379701Y-103674749D01*
X209092000Y-103244174D01*
X208725826Y-102878000D01*
X208295251Y-102590299D01*
X207816822Y-102392127D01*
X207308924Y-102291100D01*
X206791076Y-102291100D01*
X206283178Y-102392127D01*
X205804749Y-102590299D01*
X205374174Y-102878000D01*
X205008000Y-103244174D01*
X204720299Y-103674749D01*
X204522127Y-104153178D01*
X204421100Y-104661076D01*
X203458080Y-104661076D01*
X203421971Y-104479549D01*
X203308144Y-104204747D01*
X203142893Y-103957431D01*
X202932569Y-103747107D01*
X202685253Y-103581856D01*
X202410451Y-103468029D01*
X202118722Y-103410000D01*
X201821278Y-103410000D01*
X201529549Y-103468029D01*
X201254747Y-103581856D01*
X201007431Y-103747107D01*
X200797107Y-103957431D01*
X200631856Y-104204747D01*
X200518029Y-104479549D01*
X200460000Y-104771278D01*
X199248072Y-104771278D01*
X199248072Y-103460000D01*
X199235812Y-103335518D01*
X199199502Y-103215820D01*
X199140537Y-103105506D01*
X199061185Y-103008815D01*
X198964494Y-102929463D01*
X198854180Y-102870498D01*
X198734482Y-102834188D01*
X198610000Y-102821928D01*
X196910000Y-102821928D01*
X196785518Y-102834188D01*
X196665820Y-102870498D01*
X196555506Y-102929463D01*
X196458815Y-103008815D01*
X196379463Y-103105506D01*
X196320498Y-103215820D01*
X196284188Y-103335518D01*
X196271928Y-103460000D01*
X196271928Y-105160000D01*
X196284188Y-105284482D01*
X196320498Y-105404180D01*
X196379463Y-105514494D01*
X196458815Y-105611185D01*
X196555506Y-105690537D01*
X196665820Y-105749502D01*
X196738380Y-105771513D01*
X196606525Y-105903368D01*
X196444010Y-106146589D01*
X196332068Y-106416842D01*
X196275000Y-106703740D01*
X196275000Y-106939999D01*
X189697827Y-106939999D01*
X190042000Y-106595826D01*
X190329701Y-106165251D01*
X190527873Y-105686822D01*
X190628900Y-105178924D01*
X190628900Y-104771278D01*
X191570000Y-104771278D01*
X191570000Y-105068722D01*
X191628029Y-105360451D01*
X191741856Y-105635253D01*
X191907107Y-105882569D01*
X192117431Y-106092893D01*
X192364747Y-106258144D01*
X192639549Y-106371971D01*
X192931278Y-106430000D01*
X193228722Y-106430000D01*
X193520451Y-106371971D01*
X193795253Y-106258144D01*
X194042569Y-106092893D01*
X194252893Y-105882569D01*
X194418144Y-105635253D01*
X194531971Y-105360451D01*
X194590000Y-105068722D01*
X194590000Y-104771278D01*
X194531971Y-104479549D01*
X194418144Y-104204747D01*
X194252893Y-103957431D01*
X194042569Y-103747107D01*
X193795253Y-103581856D01*
X193520451Y-103468029D01*
X193228722Y-103410000D01*
X192931278Y-103410000D01*
X192639549Y-103468029D01*
X192364747Y-103581856D01*
X192117431Y-103747107D01*
X191907107Y-103957431D01*
X191741856Y-104204747D01*
X191628029Y-104479549D01*
X191570000Y-104771278D01*
X190628900Y-104771278D01*
X190628900Y-104661076D01*
X190527873Y-104153178D01*
X190329701Y-103674749D01*
X190042000Y-103244174D01*
X189675826Y-102878000D01*
X189245251Y-102590299D01*
X188766822Y-102392127D01*
X188258924Y-102291100D01*
X187741076Y-102291100D01*
X187233178Y-102392127D01*
X186754749Y-102590299D01*
X186324174Y-102878000D01*
X185958000Y-103244174D01*
X185670299Y-103674749D01*
X185472127Y-104153178D01*
X185371100Y-104661076D01*
X185371100Y-105178924D01*
X185472127Y-105686822D01*
X185670299Y-106165251D01*
X185958000Y-106595826D01*
X186302173Y-106939999D01*
X186133328Y-106939999D01*
X186096003Y-106936323D01*
X186058678Y-106939999D01*
X186058670Y-106939999D01*
X185947017Y-106950996D01*
X185886863Y-106969243D01*
X185882364Y-106946627D01*
X185749692Y-106626327D01*
X185557081Y-106338065D01*
X185311935Y-106092919D01*
X185023673Y-105900308D01*
X184703373Y-105767636D01*
X184363345Y-105700000D01*
X184214882Y-105700000D01*
X184258144Y-105635253D01*
X184371971Y-105360451D01*
X184430000Y-105068722D01*
X184430000Y-104771278D01*
X184371971Y-104479549D01*
X184258144Y-104204747D01*
X184092893Y-103957431D01*
X183882569Y-103747107D01*
X183635253Y-103581856D01*
X183360451Y-103468029D01*
X183068722Y-103410000D01*
X182771278Y-103410000D01*
X182479549Y-103468029D01*
X182204747Y-103581856D01*
X181957431Y-103747107D01*
X181747107Y-103957431D01*
X181581856Y-104204747D01*
X181468029Y-104479549D01*
X181410000Y-104771278D01*
X181410000Y-105068722D01*
X181468029Y-105360451D01*
X181581856Y-105635253D01*
X181747107Y-105882569D01*
X181957431Y-106092893D01*
X182204747Y-106258144D01*
X182479549Y-106371971D01*
X182762638Y-106428281D01*
X182630308Y-106626327D01*
X182599792Y-106700000D01*
X180867325Y-106700000D01*
X180830000Y-106696324D01*
X180792675Y-106700000D01*
X180792667Y-106700000D01*
X180681014Y-106710997D01*
X180537753Y-106754454D01*
X180405724Y-106825026D01*
X180289999Y-106919999D01*
X180266201Y-106948997D01*
X178625199Y-108590000D01*
X178425132Y-108590000D01*
X178380087Y-108544955D01*
X178571588Y-108513450D01*
X178662458Y-108309174D01*
X178711731Y-108091095D01*
X178717511Y-107867594D01*
X178679577Y-107647260D01*
X178599387Y-107438560D01*
X178571588Y-107386550D01*
X178380087Y-107355045D01*
X178461612Y-107273520D01*
X178585824Y-107087624D01*
X178671383Y-106881067D01*
X178715000Y-106661788D01*
X178715000Y-106438212D01*
X178671383Y-106218933D01*
X178585824Y-106012376D01*
X178461612Y-105826480D01*
X178380087Y-105744955D01*
X178571588Y-105713450D01*
X178662458Y-105509174D01*
X178711731Y-105291095D01*
X178717511Y-105067594D01*
X178679577Y-104847260D01*
X178599387Y-104638560D01*
X178571588Y-104586550D01*
X178358166Y-104551439D01*
X177759605Y-105150000D01*
X177773748Y-105164143D01*
X177594143Y-105343748D01*
X177580000Y-105329605D01*
X177565858Y-105343748D01*
X177386253Y-105164143D01*
X177400395Y-105150000D01*
X176801834Y-104551439D01*
X176588412Y-104586550D01*
X176497542Y-104790826D01*
X176448269Y-105008905D01*
X176442489Y-105232406D01*
X176480423Y-105452740D01*
X176560613Y-105661440D01*
X176588412Y-105713450D01*
X176779913Y-105744955D01*
X176698388Y-105826480D01*
X176574176Y-106012376D01*
X176488617Y-106218933D01*
X176445000Y-106438212D01*
X176445000Y-106661788D01*
X176488617Y-106881067D01*
X176574176Y-107087624D01*
X176698388Y-107273520D01*
X176779913Y-107355045D01*
X176588412Y-107386550D01*
X176497542Y-107590826D01*
X176448269Y-107808905D01*
X176442489Y-108032406D01*
X176480423Y-108252740D01*
X176560613Y-108461440D01*
X176588412Y-108513450D01*
X176779913Y-108544955D01*
X176734868Y-108590000D01*
X175958802Y-108590000D01*
X175061804Y-107693002D01*
X175038001Y-107663999D01*
X174922276Y-107569026D01*
X174790247Y-107498454D01*
X174646986Y-107454997D01*
X174535333Y-107444000D01*
X174535322Y-107444000D01*
X174498000Y-107440324D01*
X174460678Y-107444000D01*
X169726172Y-107444000D01*
X170195251Y-107249701D01*
X170625826Y-106962000D01*
X170992000Y-106595826D01*
X171279701Y-106165251D01*
X171477873Y-105686822D01*
X171578900Y-105178924D01*
X171578900Y-104771278D01*
X172520000Y-104771278D01*
X172520000Y-105068722D01*
X172578029Y-105360451D01*
X172691856Y-105635253D01*
X172857107Y-105882569D01*
X173067431Y-106092893D01*
X173314747Y-106258144D01*
X173589549Y-106371971D01*
X173881278Y-106430000D01*
X174178722Y-106430000D01*
X174470451Y-106371971D01*
X174745253Y-106258144D01*
X174992569Y-106092893D01*
X175202893Y-105882569D01*
X175368144Y-105635253D01*
X175481971Y-105360451D01*
X175540000Y-105068722D01*
X175540000Y-104771278D01*
X175481971Y-104479549D01*
X175437354Y-104371834D01*
X176981439Y-104371834D01*
X177059605Y-104450000D01*
X176981439Y-104528166D01*
X177016550Y-104741588D01*
X177220826Y-104832458D01*
X177438905Y-104881731D01*
X177492728Y-104883123D01*
X177580000Y-104970395D01*
X177662983Y-104887412D01*
X177882740Y-104849577D01*
X178091440Y-104769387D01*
X178143450Y-104741588D01*
X178178561Y-104528166D01*
X178100395Y-104450000D01*
X178178561Y-104371834D01*
X178143450Y-104158412D01*
X177939174Y-104067542D01*
X177721095Y-104018269D01*
X177667272Y-104016877D01*
X177580000Y-103929605D01*
X177497017Y-104012588D01*
X177277260Y-104050423D01*
X177068560Y-104130613D01*
X177016550Y-104158412D01*
X176981439Y-104371834D01*
X175437354Y-104371834D01*
X175368144Y-104204747D01*
X175202893Y-103957431D01*
X175077868Y-103832406D01*
X176442489Y-103832406D01*
X176480423Y-104052740D01*
X176560613Y-104261440D01*
X176588412Y-104313450D01*
X176801834Y-104348561D01*
X177400395Y-103750000D01*
X177759605Y-103750000D01*
X178358166Y-104348561D01*
X178571588Y-104313450D01*
X178662458Y-104109174D01*
X178711731Y-103891095D01*
X178717511Y-103667594D01*
X178679577Y-103447260D01*
X178599387Y-103238560D01*
X178571588Y-103186550D01*
X178358166Y-103151439D01*
X177759605Y-103750000D01*
X177400395Y-103750000D01*
X176801834Y-103151439D01*
X176588412Y-103186550D01*
X176497542Y-103390826D01*
X176448269Y-103608905D01*
X176442489Y-103832406D01*
X175077868Y-103832406D01*
X174992569Y-103747107D01*
X174745253Y-103581856D01*
X174470451Y-103468029D01*
X174178722Y-103410000D01*
X173881278Y-103410000D01*
X173589549Y-103468029D01*
X173314747Y-103581856D01*
X173067431Y-103747107D01*
X172857107Y-103957431D01*
X172691856Y-104204747D01*
X172578029Y-104479549D01*
X172520000Y-104771278D01*
X171578900Y-104771278D01*
X171578900Y-104661076D01*
X171477873Y-104153178D01*
X171279701Y-103674749D01*
X170992000Y-103244174D01*
X170719660Y-102971834D01*
X176981439Y-102971834D01*
X177059605Y-103050000D01*
X176981439Y-103128166D01*
X177016550Y-103341588D01*
X177220826Y-103432458D01*
X177438905Y-103481731D01*
X177492728Y-103483123D01*
X177580000Y-103570395D01*
X177662983Y-103487412D01*
X177882740Y-103449577D01*
X178091440Y-103369387D01*
X178143450Y-103341588D01*
X178178561Y-103128166D01*
X178100395Y-103050000D01*
X178178561Y-102971834D01*
X178143450Y-102758412D01*
X177939174Y-102667542D01*
X177721095Y-102618269D01*
X177667272Y-102616877D01*
X177580000Y-102529605D01*
X177497017Y-102612588D01*
X177277260Y-102650423D01*
X177068560Y-102730613D01*
X177016550Y-102758412D01*
X176981439Y-102971834D01*
X170719660Y-102971834D01*
X170625826Y-102878000D01*
X170195251Y-102590299D01*
X169814065Y-102432406D01*
X176442489Y-102432406D01*
X176480423Y-102652740D01*
X176560613Y-102861440D01*
X176588412Y-102913450D01*
X176801834Y-102948561D01*
X177400395Y-102350000D01*
X177759605Y-102350000D01*
X178358166Y-102948561D01*
X178571588Y-102913450D01*
X178662458Y-102709174D01*
X178711731Y-102491095D01*
X178717511Y-102267594D01*
X178679577Y-102047260D01*
X178599387Y-101838560D01*
X178571588Y-101786550D01*
X178358166Y-101751439D01*
X177759605Y-102350000D01*
X177400395Y-102350000D01*
X176801834Y-101751439D01*
X176588412Y-101786550D01*
X176497542Y-101990826D01*
X176448269Y-102208905D01*
X176442489Y-102432406D01*
X169814065Y-102432406D01*
X169716822Y-102392127D01*
X169208924Y-102291100D01*
X168691076Y-102291100D01*
X168183178Y-102392127D01*
X167704749Y-102590299D01*
X167274174Y-102878000D01*
X166908000Y-103244174D01*
X166620299Y-103674749D01*
X166422127Y-104153178D01*
X166321100Y-104661076D01*
X166321100Y-105178924D01*
X166422127Y-105686822D01*
X166620299Y-106165251D01*
X166908000Y-106595826D01*
X167274174Y-106962000D01*
X167704749Y-107249701D01*
X168183178Y-107447873D01*
X168691076Y-107548900D01*
X169035379Y-107548900D01*
X168997726Y-107569026D01*
X168882001Y-107663999D01*
X168858203Y-107692998D01*
X168401200Y-108150001D01*
X166759203Y-108150001D01*
X166832364Y-107973373D01*
X166900000Y-107633345D01*
X166900000Y-107286655D01*
X166832364Y-106946627D01*
X166699692Y-106626327D01*
X166507081Y-106338065D01*
X166261935Y-106092919D01*
X165973673Y-105900308D01*
X165653373Y-105767636D01*
X165313345Y-105700000D01*
X165164882Y-105700000D01*
X165208144Y-105635253D01*
X165321971Y-105360451D01*
X165380000Y-105068722D01*
X165380000Y-104771278D01*
X165321971Y-104479549D01*
X165208144Y-104204747D01*
X165042893Y-103957431D01*
X164832569Y-103747107D01*
X164585253Y-103581856D01*
X164310451Y-103468029D01*
X164018722Y-103410000D01*
X163721278Y-103410000D01*
X163429549Y-103468029D01*
X163154747Y-103581856D01*
X162907431Y-103747107D01*
X162697107Y-103957431D01*
X162531856Y-104204747D01*
X162418029Y-104479549D01*
X162360000Y-104771278D01*
X162360000Y-105068722D01*
X162418029Y-105360451D01*
X162531856Y-105635253D01*
X162697107Y-105882569D01*
X162907431Y-106092893D01*
X163154747Y-106258144D01*
X163429549Y-106371971D01*
X163712638Y-106428281D01*
X163580308Y-106626327D01*
X163447636Y-106946627D01*
X163380000Y-107286655D01*
X163380000Y-107615001D01*
X161481670Y-107615001D01*
X161488072Y-107550000D01*
X161485000Y-106985750D01*
X161326250Y-106827000D01*
X160127000Y-106827000D01*
X160127000Y-106847000D01*
X159873000Y-106847000D01*
X159873000Y-106827000D01*
X158673750Y-106827000D01*
X158515000Y-106985750D01*
X158511928Y-107550000D01*
X158518330Y-107615001D01*
X149465805Y-107615001D01*
X149339771Y-107488967D01*
X149641076Y-107548900D01*
X150158924Y-107548900D01*
X150666822Y-107447873D01*
X151145251Y-107249701D01*
X151575826Y-106962000D01*
X151942000Y-106595826D01*
X152229701Y-106165251D01*
X152427873Y-105686822D01*
X152528900Y-105178924D01*
X152528900Y-104771278D01*
X153470000Y-104771278D01*
X153470000Y-105068722D01*
X153528029Y-105360451D01*
X153641856Y-105635253D01*
X153807107Y-105882569D01*
X154017431Y-106092893D01*
X154264747Y-106258144D01*
X154539549Y-106371971D01*
X154831278Y-106430000D01*
X155128722Y-106430000D01*
X155420451Y-106371971D01*
X155695253Y-106258144D01*
X155942569Y-106092893D01*
X156152893Y-105882569D01*
X156318144Y-105635253D01*
X156431971Y-105360451D01*
X156490000Y-105068722D01*
X156490000Y-104771278D01*
X156431971Y-104479549D01*
X156318144Y-104204747D01*
X156152893Y-103957431D01*
X155942569Y-103747107D01*
X155695253Y-103581856D01*
X155420451Y-103468029D01*
X155128722Y-103410000D01*
X154831278Y-103410000D01*
X154539549Y-103468029D01*
X154264747Y-103581856D01*
X154017431Y-103747107D01*
X153807107Y-103957431D01*
X153641856Y-104204747D01*
X153528029Y-104479549D01*
X153470000Y-104771278D01*
X152528900Y-104771278D01*
X152528900Y-104661076D01*
X152427873Y-104153178D01*
X152229701Y-103674749D01*
X151942000Y-103244174D01*
X151575826Y-102878000D01*
X151145251Y-102590299D01*
X150666822Y-102392127D01*
X150605855Y-102380000D01*
X158721822Y-102380000D01*
X158846525Y-102566632D01*
X159053368Y-102773475D01*
X159227760Y-102890000D01*
X159053368Y-103006525D01*
X158846525Y-103213368D01*
X158684010Y-103456589D01*
X158572068Y-103726842D01*
X158515000Y-104013740D01*
X158515000Y-104306260D01*
X158572068Y-104593158D01*
X158684010Y-104863411D01*
X158846525Y-105106632D01*
X158978380Y-105238487D01*
X158905820Y-105260498D01*
X158795506Y-105319463D01*
X158698815Y-105398815D01*
X158619463Y-105495506D01*
X158560498Y-105605820D01*
X158524188Y-105725518D01*
X158511928Y-105850000D01*
X158515000Y-106414250D01*
X158673750Y-106573000D01*
X159873000Y-106573000D01*
X159873000Y-106553000D01*
X160127000Y-106553000D01*
X160127000Y-106573000D01*
X161326250Y-106573000D01*
X161485000Y-106414250D01*
X161488072Y-105850000D01*
X161475812Y-105725518D01*
X161439502Y-105605820D01*
X161380537Y-105495506D01*
X161301185Y-105398815D01*
X161204494Y-105319463D01*
X161094180Y-105260498D01*
X161021620Y-105238487D01*
X161153475Y-105106632D01*
X161315990Y-104863411D01*
X161427932Y-104593158D01*
X161485000Y-104306260D01*
X161485000Y-104013740D01*
X161427932Y-103726842D01*
X161315990Y-103456589D01*
X161153475Y-103213368D01*
X160946632Y-103006525D01*
X160772240Y-102890000D01*
X160946632Y-102773475D01*
X161153475Y-102566632D01*
X161315990Y-102323411D01*
X161427932Y-102053158D01*
X161485000Y-101766260D01*
X161485000Y-101571834D01*
X176981439Y-101571834D01*
X177059605Y-101650000D01*
X176981439Y-101728166D01*
X177016550Y-101941588D01*
X177220826Y-102032458D01*
X177438905Y-102081731D01*
X177492728Y-102083123D01*
X177580000Y-102170395D01*
X177662983Y-102087412D01*
X177882740Y-102049577D01*
X178091440Y-101969387D01*
X178143450Y-101941588D01*
X178178561Y-101728166D01*
X178100395Y-101650000D01*
X178178561Y-101571834D01*
X178143450Y-101358412D01*
X177939174Y-101267542D01*
X177721095Y-101218269D01*
X177667272Y-101216877D01*
X177580000Y-101129605D01*
X177497017Y-101212588D01*
X177277260Y-101250423D01*
X177068560Y-101330613D01*
X177016550Y-101358412D01*
X176981439Y-101571834D01*
X161485000Y-101571834D01*
X161485000Y-101473740D01*
X161427932Y-101186842D01*
X161315990Y-100916589D01*
X161153475Y-100673368D01*
X160946632Y-100466525D01*
X160703411Y-100304010D01*
X160433158Y-100192068D01*
X160146260Y-100135000D01*
X159853740Y-100135000D01*
X159566842Y-100192068D01*
X159296589Y-100304010D01*
X159053368Y-100466525D01*
X158846525Y-100673368D01*
X158721822Y-100860000D01*
X152753924Y-100860000D01*
X152760572Y-100792500D01*
X152760572Y-99660000D01*
X166097203Y-99660000D01*
X166092500Y-99683645D01*
G37*
X166092500Y-99683645D02*
X166092500Y-99996355D01*
X166153507Y-100303057D01*
X166273176Y-100591963D01*
X166446908Y-100851972D01*
X166668028Y-101073092D01*
X166928037Y-101246824D01*
X167216943Y-101366493D01*
X167523645Y-101427500D01*
X167836355Y-101427500D01*
X168143057Y-101366493D01*
X168431963Y-101246824D01*
X168691972Y-101073092D01*
X168695549Y-101069515D01*
X168736963Y-101146994D01*
X168816315Y-101243685D01*
X168913006Y-101323037D01*
X169023320Y-101382002D01*
X169143018Y-101418312D01*
X169267500Y-101430572D01*
X171172500Y-101430572D01*
X171296982Y-101418312D01*
X171416680Y-101382002D01*
X171526994Y-101323037D01*
X171623685Y-101243685D01*
X171703037Y-101146994D01*
X171762002Y-101036680D01*
X171763298Y-101032406D01*
X176442489Y-101032406D01*
X176480423Y-101252740D01*
X176560613Y-101461440D01*
X176588412Y-101513450D01*
X176801834Y-101548561D01*
X177400395Y-100950000D01*
X177759605Y-100950000D01*
X178358166Y-101548561D01*
X178571588Y-101513450D01*
X178662458Y-101309174D01*
X178711731Y-101091095D01*
X178717511Y-100867594D01*
X178679577Y-100647260D01*
X178599387Y-100438560D01*
X178571588Y-100386550D01*
X178358166Y-100351439D01*
X177759605Y-100950000D01*
X177400395Y-100950000D01*
X176801834Y-100351439D01*
X176588412Y-100386550D01*
X176497542Y-100590826D01*
X176448269Y-100808905D01*
X176442489Y-101032406D01*
X171763298Y-101032406D01*
X171798312Y-100916982D01*
X171810572Y-100792500D01*
X171810572Y-100171834D01*
X176981439Y-100171834D01*
X177059605Y-100250000D01*
X176981439Y-100328166D01*
X177016550Y-100541588D01*
X177220826Y-100632458D01*
X177438905Y-100681731D01*
X177492728Y-100683123D01*
X177580000Y-100770395D01*
X177662983Y-100687412D01*
X177882740Y-100649577D01*
X178091440Y-100569387D01*
X178143450Y-100541588D01*
X178178561Y-100328166D01*
X178100395Y-100250000D01*
X178178561Y-100171834D01*
X178143450Y-99958412D01*
X177939174Y-99867542D01*
X177721095Y-99818269D01*
X177667272Y-99816877D01*
X177580000Y-99729605D01*
X177497017Y-99812588D01*
X177277260Y-99850423D01*
X177068560Y-99930613D01*
X177016550Y-99958412D01*
X176981439Y-100171834D01*
X171810572Y-100171834D01*
X171810572Y-99660000D01*
X176447240Y-99660000D01*
X176480423Y-99852740D01*
X176560613Y-100061440D01*
X176588412Y-100113450D01*
X176801834Y-100148561D01*
X177290395Y-99660000D01*
X177869605Y-99660000D01*
X178358166Y-100148561D01*
X178571588Y-100113450D01*
X178662458Y-99909174D01*
X178711731Y-99691095D01*
X178712535Y-99660000D01*
X185147203Y-99660000D01*
X185142500Y-99683645D01*
X185142500Y-99996355D01*
X185203507Y-100303057D01*
X185323176Y-100591963D01*
X185496908Y-100851972D01*
X185718028Y-101073092D01*
X185978037Y-101246824D01*
X186266943Y-101366493D01*
X186573645Y-101427500D01*
X186886355Y-101427500D01*
X187193057Y-101366493D01*
X187481963Y-101246824D01*
X187741972Y-101073092D01*
X187745549Y-101069515D01*
X187786963Y-101146994D01*
X187866315Y-101243685D01*
X187963006Y-101323037D01*
X188073320Y-101382002D01*
X188193018Y-101418312D01*
X188317500Y-101430572D01*
X190222500Y-101430572D01*
X190346982Y-101418312D01*
X190466680Y-101382002D01*
X190576994Y-101323037D01*
X190673685Y-101243685D01*
X190753037Y-101146994D01*
X190812002Y-101036680D01*
X190848312Y-100916982D01*
X190860572Y-100792500D01*
X190860572Y-99660000D01*
X204197203Y-99660000D01*
X204192500Y-99683645D01*
X204192500Y-99996355D01*
X204253507Y-100303057D01*
X204373176Y-100591963D01*
X204546908Y-100851972D01*
X204768028Y-101073092D01*
X205028037Y-101246824D01*
X205316943Y-101366493D01*
X205623645Y-101427500D01*
X205936355Y-101427500D01*
X206243057Y-101366493D01*
X206531963Y-101246824D01*
X206791972Y-101073092D01*
X206795549Y-101069515D01*
X206836963Y-101146994D01*
X206916315Y-101243685D01*
X207013006Y-101323037D01*
X207123320Y-101382002D01*
X207243018Y-101418312D01*
X207367500Y-101430572D01*
X209272500Y-101430572D01*
X209396982Y-101418312D01*
X209516680Y-101382002D01*
X209626994Y-101323037D01*
X209723685Y-101243685D01*
X209803037Y-101146994D01*
X209862002Y-101036680D01*
X209898312Y-100916982D01*
X209910572Y-100792500D01*
X209910572Y-99660000D01*
X213440001Y-99660000D01*
X213440001Y-104162627D01*
X213302893Y-103957431D01*
X213092569Y-103747107D01*
X212845253Y-103581856D01*
X212570451Y-103468029D01*
X212278722Y-103410000D01*
X211981278Y-103410000D01*
X211689549Y-103468029D01*
X211414747Y-103581856D01*
X211167431Y-103747107D01*
X210957107Y-103957431D01*
X210791856Y-104204747D01*
X210678029Y-104479549D01*
X210620000Y-104771278D01*
X210620000Y-105068722D01*
X210678029Y-105360451D01*
X210791856Y-105635253D01*
X210957107Y-105882569D01*
X211167431Y-106092893D01*
X211414747Y-106258144D01*
X211689549Y-106371971D01*
X211981278Y-106430000D01*
X212278722Y-106430000D01*
X212570451Y-106371971D01*
X212845253Y-106258144D01*
X213092569Y-106092893D01*
X213302893Y-105882569D01*
X213440001Y-105677373D01*
X213440000Y-113340000D01*
X178695544Y-113340000D01*
X178679577Y-113247260D01*
X178599387Y-113038560D01*
X178571588Y-112986550D01*
X178358166Y-112951439D01*
X177969605Y-113340000D01*
X177610395Y-113340000D01*
X177662983Y-113287412D01*
X177882740Y-113249577D01*
X178091440Y-113169387D01*
X178143450Y-113141588D01*
X178178561Y-112928166D01*
X178100395Y-112850000D01*
X178178561Y-112771834D01*
X178143450Y-112558412D01*
X177939174Y-112467542D01*
X177721095Y-112418269D01*
X177667272Y-112416877D01*
X177580000Y-112329605D01*
X177497017Y-112412588D01*
X177277260Y-112450423D01*
X177068560Y-112530613D01*
X177016550Y-112558412D01*
X176981439Y-112771834D01*
X177059605Y-112850000D01*
X176981439Y-112928166D01*
X177016550Y-113141588D01*
X177220826Y-113232458D01*
X177438905Y-113281731D01*
X177492728Y-113283123D01*
X177549605Y-113340000D01*
X177190395Y-113340000D01*
X176801834Y-112951439D01*
X176588412Y-112986550D01*
X176497542Y-113190826D01*
X176463837Y-113340000D01*
X115285424Y-113340000D01*
X115361990Y-113225411D01*
X115473932Y-112955158D01*
X115531000Y-112668260D01*
X115531000Y-112375740D01*
X115473932Y-112088842D01*
X115403990Y-111919987D01*
X115410999Y-111920677D01*
X115448321Y-111917001D01*
X115448332Y-111917001D01*
X115559985Y-111906004D01*
X115703246Y-111862547D01*
X115835275Y-111791975D01*
X115851085Y-111779000D01*
X115925939Y-111779000D01*
X116125898Y-111739226D01*
X116314256Y-111661205D01*
X116483774Y-111547937D01*
X116627937Y-111403774D01*
X116741205Y-111234256D01*
X116819226Y-111045898D01*
X116859000Y-110845939D01*
X116859000Y-110642061D01*
X116819226Y-110442102D01*
X116741205Y-110253744D01*
X116627937Y-110084226D01*
X116584000Y-110040289D01*
X116584000Y-108260801D01*
X120557202Y-112234004D01*
X120581000Y-112263002D01*
X120696725Y-112357975D01*
X120828754Y-112428547D01*
X120972015Y-112472004D01*
X121083668Y-112483001D01*
X121083678Y-112483001D01*
X121121001Y-112486677D01*
X121158324Y-112483001D01*
X130612679Y-112483001D01*
X130650001Y-112486677D01*
X130687323Y-112483001D01*
X130687334Y-112483001D01*
X130798987Y-112472004D01*
X130942248Y-112428547D01*
X131074277Y-112357975D01*
X131190002Y-112263002D01*
X131213805Y-112233998D01*
X131537999Y-111909804D01*
X131567002Y-111886002D01*
X131661975Y-111770277D01*
X131732547Y-111638248D01*
X131776004Y-111494987D01*
X131787001Y-111383334D01*
X131787001Y-111383333D01*
X131790678Y-111346001D01*
X131787001Y-111308668D01*
X131787001Y-110729120D01*
X131830308Y-110833673D01*
X132022919Y-111121935D01*
X132268065Y-111367081D01*
X132556327Y-111559692D01*
X132876627Y-111692364D01*
X133216655Y-111760000D01*
X133563345Y-111760000D01*
X133903373Y-111692364D01*
X134223673Y-111559692D01*
X134511935Y-111367081D01*
X134757081Y-111121935D01*
X134949692Y-110833673D01*
X135082364Y-110513373D01*
X135150000Y-110173345D01*
X135150000Y-109826655D01*
X135082498Y-109487299D01*
X135834201Y-110239003D01*
X135857999Y-110268001D01*
X135973724Y-110362974D01*
X136105753Y-110433546D01*
X136249014Y-110477003D01*
X136360667Y-110488000D01*
X136360675Y-110488000D01*
X136398000Y-110491676D01*
X136435325Y-110488000D01*
X143784678Y-110488000D01*
X143822000Y-110491676D01*
X143859322Y-110488000D01*
X143859333Y-110488000D01*
X143970986Y-110477003D01*
X144114247Y-110433546D01*
X144246276Y-110362974D01*
X144362001Y-110268001D01*
X144385804Y-110238997D01*
X145502954Y-109121848D01*
X145576627Y-109152364D01*
X145916655Y-109220000D01*
X146263345Y-109220000D01*
X146603373Y-109152364D01*
X146923673Y-109019692D01*
X147211935Y-108827081D01*
X147457081Y-108581935D01*
X147649692Y-108293673D01*
X147750793Y-108049593D01*
X148587203Y-108886003D01*
X148611002Y-108915002D01*
X148640000Y-108938800D01*
X148726726Y-109009975D01*
X148831758Y-109066116D01*
X148858756Y-109080547D01*
X149002017Y-109124004D01*
X149113670Y-109135001D01*
X149113680Y-109135001D01*
X149151003Y-109138677D01*
X149188326Y-109135001D01*
X150901239Y-109135001D01*
X150880308Y-109166327D01*
X150747636Y-109486627D01*
X150680000Y-109826655D01*
X150680000Y-110173345D01*
X150747636Y-110513373D01*
X150880308Y-110833673D01*
X151072919Y-111121935D01*
X151318065Y-111367081D01*
X151606327Y-111559692D01*
X151926627Y-111692364D01*
X152266655Y-111760000D01*
X152613345Y-111760000D01*
X152953373Y-111692364D01*
X153273673Y-111559692D01*
X153561935Y-111367081D01*
X153807081Y-111121935D01*
X153999692Y-110833673D01*
X154132364Y-110513373D01*
X154200000Y-110173345D01*
X154200000Y-109826655D01*
X154132364Y-109486627D01*
X153999692Y-109166327D01*
X153978761Y-109135001D01*
X163178200Y-109135001D01*
X163464201Y-109421003D01*
X163488000Y-109450002D01*
X163603725Y-109544975D01*
X163735754Y-109615547D01*
X163879015Y-109659004D01*
X163990668Y-109670001D01*
X163990677Y-109670001D01*
X164028000Y-109673677D01*
X164065323Y-109670001D01*
X168678679Y-109670001D01*
X168716001Y-109673677D01*
X168753323Y-109670001D01*
X168753334Y-109670001D01*
X168864987Y-109659004D01*
X169008248Y-109615547D01*
X169140277Y-109544975D01*
X169256002Y-109450002D01*
X169279804Y-109420999D01*
X169736804Y-108964000D01*
X170065499Y-108964000D01*
X169930308Y-109166327D01*
X169797636Y-109486627D01*
X169730000Y-109826655D01*
X169730000Y-110173345D01*
X169797636Y-110513373D01*
X169930308Y-110833673D01*
X170122919Y-111121935D01*
X170368065Y-111367081D01*
X170656327Y-111559692D01*
X170976627Y-111692364D01*
X171316655Y-111760000D01*
X171663345Y-111760000D01*
X172003373Y-111692364D01*
X172323673Y-111559692D01*
X172611935Y-111367081D01*
X172857081Y-111121935D01*
X173049692Y-110833673D01*
X173182364Y-110513373D01*
X173250000Y-110173345D01*
X173250000Y-109826655D01*
X173182364Y-109486627D01*
X173049692Y-109166327D01*
X172914501Y-108964000D01*
X174183199Y-108964000D01*
X175080201Y-109861003D01*
X175103999Y-109890001D01*
X175219724Y-109984974D01*
X175351753Y-110055546D01*
X175495014Y-110099003D01*
X175606667Y-110110000D01*
X175606675Y-110110000D01*
X175644000Y-110113676D01*
X175681325Y-110110000D01*
X176642582Y-110110000D01*
X176574176Y-110212376D01*
X176488617Y-110418933D01*
X176445000Y-110638212D01*
X176445000Y-110861788D01*
X176488617Y-111081067D01*
X176574176Y-111287624D01*
X176698388Y-111473520D01*
X176779913Y-111555045D01*
X176588412Y-111586550D01*
X176497542Y-111790826D01*
X176448269Y-112008905D01*
X176442489Y-112232406D01*
X176480423Y-112452740D01*
X176560613Y-112661440D01*
X176588412Y-112713450D01*
X176801834Y-112748561D01*
X177400395Y-112150000D01*
X177386253Y-112135858D01*
X177565858Y-111956253D01*
X177580000Y-111970395D01*
X177594143Y-111956253D01*
X177773748Y-112135858D01*
X177759605Y-112150000D01*
X178358166Y-112748561D01*
X178571588Y-112713450D01*
X178662458Y-112509174D01*
X178711731Y-112291095D01*
X178717511Y-112067594D01*
X178679577Y-111847260D01*
X178599387Y-111638560D01*
X178571588Y-111586550D01*
X178380087Y-111555045D01*
X178425132Y-111510000D01*
X183008680Y-111510000D01*
X183046002Y-111513676D01*
X183083324Y-111510000D01*
X183083335Y-111510000D01*
X183194988Y-111499003D01*
X183338249Y-111455546D01*
X183470278Y-111384974D01*
X183586003Y-111290001D01*
X183609806Y-111260997D01*
X186410805Y-108459999D01*
X189676857Y-108459999D01*
X189418065Y-108632919D01*
X189172919Y-108878065D01*
X188980308Y-109166327D01*
X188847636Y-109486627D01*
X188780000Y-109826655D01*
X188780000Y-110173345D01*
X188847636Y-110513373D01*
X188980308Y-110833673D01*
X189172919Y-111121935D01*
X189418065Y-111367081D01*
X189706327Y-111559692D01*
X190026627Y-111692364D01*
X190366655Y-111760000D01*
X190713345Y-111760000D01*
X191053373Y-111692364D01*
X191373673Y-111559692D01*
X191661935Y-111367081D01*
X191907081Y-111121935D01*
X192099692Y-110833673D01*
X192232364Y-110513373D01*
X192300000Y-110173345D01*
X192300000Y-109826655D01*
X192232364Y-109486627D01*
X192099692Y-109166327D01*
X191907081Y-108878065D01*
X191661935Y-108632919D01*
X191403143Y-108459999D01*
X196595413Y-108459999D01*
X196444010Y-108686589D01*
X196332068Y-108956842D01*
X196275000Y-109243740D01*
X196275000Y-109536260D01*
X196332068Y-109823158D01*
X196444010Y-110093411D01*
X196606525Y-110336632D01*
X196813368Y-110543475D01*
X197056589Y-110705990D01*
X197326842Y-110817932D01*
X197613740Y-110875000D01*
X197906260Y-110875000D01*
X198193158Y-110817932D01*
X198463411Y-110705990D01*
X198706632Y-110543475D01*
X198913475Y-110336632D01*
X199075990Y-110093411D01*
X199186483Y-109826655D01*
X207830000Y-109826655D01*
X207830000Y-110173345D01*
X207897636Y-110513373D01*
X208030308Y-110833673D01*
X208222919Y-111121935D01*
X208468065Y-111367081D01*
X208756327Y-111559692D01*
X209076627Y-111692364D01*
X209416655Y-111760000D01*
X209763345Y-111760000D01*
X210103373Y-111692364D01*
X210423673Y-111559692D01*
X210711935Y-111367081D01*
X210957081Y-111121935D01*
X211149692Y-110833673D01*
X211282364Y-110513373D01*
X211350000Y-110173345D01*
X211350000Y-109826655D01*
X211282364Y-109486627D01*
X211149692Y-109166327D01*
X210957081Y-108878065D01*
X210711935Y-108632919D01*
X210423673Y-108440308D01*
X210103373Y-108307636D01*
X209763345Y-108240000D01*
X209416655Y-108240000D01*
X209076627Y-108307636D01*
X208756327Y-108440308D01*
X208468065Y-108632919D01*
X208222919Y-108878065D01*
X208030308Y-109166327D01*
X207897636Y-109486627D01*
X207830000Y-109826655D01*
X199186483Y-109826655D01*
X199187932Y-109823158D01*
X199245000Y-109536260D01*
X199245000Y-109243740D01*
X199187932Y-108956842D01*
X199075990Y-108686589D01*
X198913475Y-108443368D01*
X198706632Y-108236525D01*
X198532240Y-108120000D01*
X198706632Y-108003475D01*
X198913475Y-107796632D01*
X199075990Y-107553411D01*
X199187932Y-107283158D01*
X199245000Y-106996260D01*
X199245000Y-106703740D01*
X199187932Y-106416842D01*
X199075990Y-106146589D01*
X198913475Y-105903368D01*
X198781620Y-105771513D01*
X198854180Y-105749502D01*
X198964494Y-105690537D01*
X199061185Y-105611185D01*
X199140537Y-105514494D01*
X199199502Y-105404180D01*
X199235812Y-105284482D01*
X199248072Y-105160000D01*
X199248072Y-104771278D01*
X200460000Y-104771278D01*
X200460000Y-105068722D01*
X200518029Y-105360451D01*
X200631856Y-105635253D01*
X200797107Y-105882569D01*
X201007431Y-106092893D01*
X201254747Y-106258144D01*
X201529549Y-106371971D01*
X201812638Y-106428281D01*
X201680308Y-106626327D01*
X201547636Y-106946627D01*
X201480000Y-107286655D01*
X201480000Y-107633345D01*
X201547636Y-107973373D01*
X201680308Y-108293673D01*
X201872919Y-108581935D01*
X202118065Y-108827081D01*
X202406327Y-109019692D01*
X202726627Y-109152364D01*
X203066655Y-109220000D01*
X203413345Y-109220000D01*
X203753373Y-109152364D01*
X204073673Y-109019692D01*
X204361935Y-108827081D01*
X204607081Y-108581935D01*
X204799692Y-108293673D01*
X204932364Y-107973373D01*
X205000000Y-107633345D01*
X205000000Y-107286655D01*
X204932364Y-106946627D01*
X204799692Y-106626327D01*
X204607081Y-106338065D01*
X204361935Y-106092919D01*
X204073673Y-105900308D01*
X203753373Y-105767636D01*
X203413345Y-105700000D01*
X203264882Y-105700000D01*
X203308144Y-105635253D01*
X203421971Y-105360451D01*
X203480000Y-105068722D01*
X203480000Y-104771278D01*
X203458080Y-104661076D01*
X204421100Y-104661076D01*
X204421100Y-105178924D01*
X204522127Y-105686822D01*
X204720299Y-106165251D01*
X205008000Y-106595826D01*
X205374174Y-106962000D01*
X205804749Y-107249701D01*
X206283178Y-107447873D01*
X206791076Y-107548900D01*
X207308924Y-107548900D01*
X207816822Y-107447873D01*
X208295251Y-107249701D01*
X208725826Y-106962000D01*
X209092000Y-106595826D01*
X209379701Y-106165251D01*
X209577873Y-105686822D01*
X209678900Y-105178924D01*
X209678900Y-104661076D01*
X209577873Y-104153178D01*
X209379701Y-103674749D01*
X209092000Y-103244174D01*
X208725826Y-102878000D01*
X208295251Y-102590299D01*
X207816822Y-102392127D01*
X207308924Y-102291100D01*
X206791076Y-102291100D01*
X206283178Y-102392127D01*
X205804749Y-102590299D01*
X205374174Y-102878000D01*
X205008000Y-103244174D01*
X204720299Y-103674749D01*
X204522127Y-104153178D01*
X204421100Y-104661076D01*
X203458080Y-104661076D01*
X203421971Y-104479549D01*
X203308144Y-104204747D01*
X203142893Y-103957431D01*
X202932569Y-103747107D01*
X202685253Y-103581856D01*
X202410451Y-103468029D01*
X202118722Y-103410000D01*
X201821278Y-103410000D01*
X201529549Y-103468029D01*
X201254747Y-103581856D01*
X201007431Y-103747107D01*
X200797107Y-103957431D01*
X200631856Y-104204747D01*
X200518029Y-104479549D01*
X200460000Y-104771278D01*
X199248072Y-104771278D01*
X199248072Y-103460000D01*
X199235812Y-103335518D01*
X199199502Y-103215820D01*
X199140537Y-103105506D01*
X199061185Y-103008815D01*
X198964494Y-102929463D01*
X198854180Y-102870498D01*
X198734482Y-102834188D01*
X198610000Y-102821928D01*
X196910000Y-102821928D01*
X196785518Y-102834188D01*
X196665820Y-102870498D01*
X196555506Y-102929463D01*
X196458815Y-103008815D01*
X196379463Y-103105506D01*
X196320498Y-103215820D01*
X196284188Y-103335518D01*
X196271928Y-103460000D01*
X196271928Y-105160000D01*
X196284188Y-105284482D01*
X196320498Y-105404180D01*
X196379463Y-105514494D01*
X196458815Y-105611185D01*
X196555506Y-105690537D01*
X196665820Y-105749502D01*
X196738380Y-105771513D01*
X196606525Y-105903368D01*
X196444010Y-106146589D01*
X196332068Y-106416842D01*
X196275000Y-106703740D01*
X196275000Y-106939999D01*
X189697827Y-106939999D01*
X190042000Y-106595826D01*
X190329701Y-106165251D01*
X190527873Y-105686822D01*
X190628900Y-105178924D01*
X190628900Y-104771278D01*
X191570000Y-104771278D01*
X191570000Y-105068722D01*
X191628029Y-105360451D01*
X191741856Y-105635253D01*
X191907107Y-105882569D01*
X192117431Y-106092893D01*
X192364747Y-106258144D01*
X192639549Y-106371971D01*
X192931278Y-106430000D01*
X193228722Y-106430000D01*
X193520451Y-106371971D01*
X193795253Y-106258144D01*
X194042569Y-106092893D01*
X194252893Y-105882569D01*
X194418144Y-105635253D01*
X194531971Y-105360451D01*
X194590000Y-105068722D01*
X194590000Y-104771278D01*
X194531971Y-104479549D01*
X194418144Y-104204747D01*
X194252893Y-103957431D01*
X194042569Y-103747107D01*
X193795253Y-103581856D01*
X193520451Y-103468029D01*
X193228722Y-103410000D01*
X192931278Y-103410000D01*
X192639549Y-103468029D01*
X192364747Y-103581856D01*
X192117431Y-103747107D01*
X191907107Y-103957431D01*
X191741856Y-104204747D01*
X191628029Y-104479549D01*
X191570000Y-104771278D01*
X190628900Y-104771278D01*
X190628900Y-104661076D01*
X190527873Y-104153178D01*
X190329701Y-103674749D01*
X190042000Y-103244174D01*
X189675826Y-102878000D01*
X189245251Y-102590299D01*
X188766822Y-102392127D01*
X188258924Y-102291100D01*
X187741076Y-102291100D01*
X187233178Y-102392127D01*
X186754749Y-102590299D01*
X186324174Y-102878000D01*
X185958000Y-103244174D01*
X185670299Y-103674749D01*
X185472127Y-104153178D01*
X185371100Y-104661076D01*
X185371100Y-105178924D01*
X185472127Y-105686822D01*
X185670299Y-106165251D01*
X185958000Y-106595826D01*
X186302173Y-106939999D01*
X186133328Y-106939999D01*
X186096003Y-106936323D01*
X186058678Y-106939999D01*
X186058670Y-106939999D01*
X185947017Y-106950996D01*
X185886863Y-106969243D01*
X185882364Y-106946627D01*
X185749692Y-106626327D01*
X185557081Y-106338065D01*
X185311935Y-106092919D01*
X185023673Y-105900308D01*
X184703373Y-105767636D01*
X184363345Y-105700000D01*
X184214882Y-105700000D01*
X184258144Y-105635253D01*
X184371971Y-105360451D01*
X184430000Y-105068722D01*
X184430000Y-104771278D01*
X184371971Y-104479549D01*
X184258144Y-104204747D01*
X184092893Y-103957431D01*
X183882569Y-103747107D01*
X183635253Y-103581856D01*
X183360451Y-103468029D01*
X183068722Y-103410000D01*
X182771278Y-103410000D01*
X182479549Y-103468029D01*
X182204747Y-103581856D01*
X181957431Y-103747107D01*
X181747107Y-103957431D01*
X181581856Y-104204747D01*
X181468029Y-104479549D01*
X181410000Y-104771278D01*
X181410000Y-105068722D01*
X181468029Y-105360451D01*
X181581856Y-105635253D01*
X181747107Y-105882569D01*
X181957431Y-106092893D01*
X182204747Y-106258144D01*
X182479549Y-106371971D01*
X182762638Y-106428281D01*
X182630308Y-106626327D01*
X182599792Y-106700000D01*
X180867325Y-106700000D01*
X180830000Y-106696324D01*
X180792675Y-106700000D01*
X180792667Y-106700000D01*
X180681014Y-106710997D01*
X180537753Y-106754454D01*
X180405724Y-106825026D01*
X180289999Y-106919999D01*
X180266201Y-106948997D01*
X178625199Y-108590000D01*
X178425132Y-108590000D01*
X178380087Y-108544955D01*
X178571588Y-108513450D01*
X178662458Y-108309174D01*
X178711731Y-108091095D01*
X178717511Y-107867594D01*
X178679577Y-107647260D01*
X178599387Y-107438560D01*
X178571588Y-107386550D01*
X178380087Y-107355045D01*
X178461612Y-107273520D01*
X178585824Y-107087624D01*
X178671383Y-106881067D01*
X178715000Y-106661788D01*
X178715000Y-106438212D01*
X178671383Y-106218933D01*
X178585824Y-106012376D01*
X178461612Y-105826480D01*
X178380087Y-105744955D01*
X178571588Y-105713450D01*
X178662458Y-105509174D01*
X178711731Y-105291095D01*
X178717511Y-105067594D01*
X178679577Y-104847260D01*
X178599387Y-104638560D01*
X178571588Y-104586550D01*
X178358166Y-104551439D01*
X177759605Y-105150000D01*
X177773748Y-105164143D01*
X177594143Y-105343748D01*
X177580000Y-105329605D01*
X177565858Y-105343748D01*
X177386253Y-105164143D01*
X177400395Y-105150000D01*
X176801834Y-104551439D01*
X176588412Y-104586550D01*
X176497542Y-104790826D01*
X176448269Y-105008905D01*
X176442489Y-105232406D01*
X176480423Y-105452740D01*
X176560613Y-105661440D01*
X176588412Y-105713450D01*
X176779913Y-105744955D01*
X176698388Y-105826480D01*
X176574176Y-106012376D01*
X176488617Y-106218933D01*
X176445000Y-106438212D01*
X176445000Y-106661788D01*
X176488617Y-106881067D01*
X176574176Y-107087624D01*
X176698388Y-107273520D01*
X176779913Y-107355045D01*
X176588412Y-107386550D01*
X176497542Y-107590826D01*
X176448269Y-107808905D01*
X176442489Y-108032406D01*
X176480423Y-108252740D01*
X176560613Y-108461440D01*
X176588412Y-108513450D01*
X176779913Y-108544955D01*
X176734868Y-108590000D01*
X175958802Y-108590000D01*
X175061804Y-107693002D01*
X175038001Y-107663999D01*
X174922276Y-107569026D01*
X174790247Y-107498454D01*
X174646986Y-107454997D01*
X174535333Y-107444000D01*
X174535322Y-107444000D01*
X174498000Y-107440324D01*
X174460678Y-107444000D01*
X169726172Y-107444000D01*
X170195251Y-107249701D01*
X170625826Y-106962000D01*
X170992000Y-106595826D01*
X171279701Y-106165251D01*
X171477873Y-105686822D01*
X171578900Y-105178924D01*
X171578900Y-104771278D01*
X172520000Y-104771278D01*
X172520000Y-105068722D01*
X172578029Y-105360451D01*
X172691856Y-105635253D01*
X172857107Y-105882569D01*
X173067431Y-106092893D01*
X173314747Y-106258144D01*
X173589549Y-106371971D01*
X173881278Y-106430000D01*
X174178722Y-106430000D01*
X174470451Y-106371971D01*
X174745253Y-106258144D01*
X174992569Y-106092893D01*
X175202893Y-105882569D01*
X175368144Y-105635253D01*
X175481971Y-105360451D01*
X175540000Y-105068722D01*
X175540000Y-104771278D01*
X175481971Y-104479549D01*
X175437354Y-104371834D01*
X176981439Y-104371834D01*
X177059605Y-104450000D01*
X176981439Y-104528166D01*
X177016550Y-104741588D01*
X177220826Y-104832458D01*
X177438905Y-104881731D01*
X177492728Y-104883123D01*
X177580000Y-104970395D01*
X177662983Y-104887412D01*
X177882740Y-104849577D01*
X178091440Y-104769387D01*
X178143450Y-104741588D01*
X178178561Y-104528166D01*
X178100395Y-104450000D01*
X178178561Y-104371834D01*
X178143450Y-104158412D01*
X177939174Y-104067542D01*
X177721095Y-104018269D01*
X177667272Y-104016877D01*
X177580000Y-103929605D01*
X177497017Y-104012588D01*
X177277260Y-104050423D01*
X177068560Y-104130613D01*
X177016550Y-104158412D01*
X176981439Y-104371834D01*
X175437354Y-104371834D01*
X175368144Y-104204747D01*
X175202893Y-103957431D01*
X175077868Y-103832406D01*
X176442489Y-103832406D01*
X176480423Y-104052740D01*
X176560613Y-104261440D01*
X176588412Y-104313450D01*
X176801834Y-104348561D01*
X177400395Y-103750000D01*
X177759605Y-103750000D01*
X178358166Y-104348561D01*
X178571588Y-104313450D01*
X178662458Y-104109174D01*
X178711731Y-103891095D01*
X178717511Y-103667594D01*
X178679577Y-103447260D01*
X178599387Y-103238560D01*
X178571588Y-103186550D01*
X178358166Y-103151439D01*
X177759605Y-103750000D01*
X177400395Y-103750000D01*
X176801834Y-103151439D01*
X176588412Y-103186550D01*
X176497542Y-103390826D01*
X176448269Y-103608905D01*
X176442489Y-103832406D01*
X175077868Y-103832406D01*
X174992569Y-103747107D01*
X174745253Y-103581856D01*
X174470451Y-103468029D01*
X174178722Y-103410000D01*
X173881278Y-103410000D01*
X173589549Y-103468029D01*
X173314747Y-103581856D01*
X173067431Y-103747107D01*
X172857107Y-103957431D01*
X172691856Y-104204747D01*
X172578029Y-104479549D01*
X172520000Y-104771278D01*
X171578900Y-104771278D01*
X171578900Y-104661076D01*
X171477873Y-104153178D01*
X171279701Y-103674749D01*
X170992000Y-103244174D01*
X170719660Y-102971834D01*
X176981439Y-102971834D01*
X177059605Y-103050000D01*
X176981439Y-103128166D01*
X177016550Y-103341588D01*
X177220826Y-103432458D01*
X177438905Y-103481731D01*
X177492728Y-103483123D01*
X177580000Y-103570395D01*
X177662983Y-103487412D01*
X177882740Y-103449577D01*
X178091440Y-103369387D01*
X178143450Y-103341588D01*
X178178561Y-103128166D01*
X178100395Y-103050000D01*
X178178561Y-102971834D01*
X178143450Y-102758412D01*
X177939174Y-102667542D01*
X177721095Y-102618269D01*
X177667272Y-102616877D01*
X177580000Y-102529605D01*
X177497017Y-102612588D01*
X177277260Y-102650423D01*
X177068560Y-102730613D01*
X177016550Y-102758412D01*
X176981439Y-102971834D01*
X170719660Y-102971834D01*
X170625826Y-102878000D01*
X170195251Y-102590299D01*
X169814065Y-102432406D01*
X176442489Y-102432406D01*
X176480423Y-102652740D01*
X176560613Y-102861440D01*
X176588412Y-102913450D01*
X176801834Y-102948561D01*
X177400395Y-102350000D01*
X177759605Y-102350000D01*
X178358166Y-102948561D01*
X178571588Y-102913450D01*
X178662458Y-102709174D01*
X178711731Y-102491095D01*
X178717511Y-102267594D01*
X178679577Y-102047260D01*
X178599387Y-101838560D01*
X178571588Y-101786550D01*
X178358166Y-101751439D01*
X177759605Y-102350000D01*
X177400395Y-102350000D01*
X176801834Y-101751439D01*
X176588412Y-101786550D01*
X176497542Y-101990826D01*
X176448269Y-102208905D01*
X176442489Y-102432406D01*
X169814065Y-102432406D01*
X169716822Y-102392127D01*
X169208924Y-102291100D01*
X168691076Y-102291100D01*
X168183178Y-102392127D01*
X167704749Y-102590299D01*
X167274174Y-102878000D01*
X166908000Y-103244174D01*
X166620299Y-103674749D01*
X166422127Y-104153178D01*
X166321100Y-104661076D01*
X166321100Y-105178924D01*
X166422127Y-105686822D01*
X166620299Y-106165251D01*
X166908000Y-106595826D01*
X167274174Y-106962000D01*
X167704749Y-107249701D01*
X168183178Y-107447873D01*
X168691076Y-107548900D01*
X169035379Y-107548900D01*
X168997726Y-107569026D01*
X168882001Y-107663999D01*
X168858203Y-107692998D01*
X168401200Y-108150001D01*
X166759203Y-108150001D01*
X166832364Y-107973373D01*
X166900000Y-107633345D01*
X166900000Y-107286655D01*
X166832364Y-106946627D01*
X166699692Y-106626327D01*
X166507081Y-106338065D01*
X166261935Y-106092919D01*
X165973673Y-105900308D01*
X165653373Y-105767636D01*
X165313345Y-105700000D01*
X165164882Y-105700000D01*
X165208144Y-105635253D01*
X165321971Y-105360451D01*
X165380000Y-105068722D01*
X165380000Y-104771278D01*
X165321971Y-104479549D01*
X165208144Y-104204747D01*
X165042893Y-103957431D01*
X164832569Y-103747107D01*
X164585253Y-103581856D01*
X164310451Y-103468029D01*
X164018722Y-103410000D01*
X163721278Y-103410000D01*
X163429549Y-103468029D01*
X163154747Y-103581856D01*
X162907431Y-103747107D01*
X162697107Y-103957431D01*
X162531856Y-104204747D01*
X162418029Y-104479549D01*
X162360000Y-104771278D01*
X162360000Y-105068722D01*
X162418029Y-105360451D01*
X162531856Y-105635253D01*
X162697107Y-105882569D01*
X162907431Y-106092893D01*
X163154747Y-106258144D01*
X163429549Y-106371971D01*
X163712638Y-106428281D01*
X163580308Y-106626327D01*
X163447636Y-106946627D01*
X163380000Y-107286655D01*
X163380000Y-107615001D01*
X161481670Y-107615001D01*
X161488072Y-107550000D01*
X161485000Y-106985750D01*
X161326250Y-106827000D01*
X160127000Y-106827000D01*
X160127000Y-106847000D01*
X159873000Y-106847000D01*
X159873000Y-106827000D01*
X158673750Y-106827000D01*
X158515000Y-106985750D01*
X158511928Y-107550000D01*
X158518330Y-107615001D01*
X149465805Y-107615001D01*
X149339771Y-107488967D01*
X149641076Y-107548900D01*
X150158924Y-107548900D01*
X150666822Y-107447873D01*
X151145251Y-107249701D01*
X151575826Y-106962000D01*
X151942000Y-106595826D01*
X152229701Y-106165251D01*
X152427873Y-105686822D01*
X152528900Y-105178924D01*
X152528900Y-104771278D01*
X153470000Y-104771278D01*
X153470000Y-105068722D01*
X153528029Y-105360451D01*
X153641856Y-105635253D01*
X153807107Y-105882569D01*
X154017431Y-106092893D01*
X154264747Y-106258144D01*
X154539549Y-106371971D01*
X154831278Y-106430000D01*
X155128722Y-106430000D01*
X155420451Y-106371971D01*
X155695253Y-106258144D01*
X155942569Y-106092893D01*
X156152893Y-105882569D01*
X156318144Y-105635253D01*
X156431971Y-105360451D01*
X156490000Y-105068722D01*
X156490000Y-104771278D01*
X156431971Y-104479549D01*
X156318144Y-104204747D01*
X156152893Y-103957431D01*
X155942569Y-103747107D01*
X155695253Y-103581856D01*
X155420451Y-103468029D01*
X155128722Y-103410000D01*
X154831278Y-103410000D01*
X154539549Y-103468029D01*
X154264747Y-103581856D01*
X154017431Y-103747107D01*
X153807107Y-103957431D01*
X153641856Y-104204747D01*
X153528029Y-104479549D01*
X153470000Y-104771278D01*
X152528900Y-104771278D01*
X152528900Y-104661076D01*
X152427873Y-104153178D01*
X152229701Y-103674749D01*
X151942000Y-103244174D01*
X151575826Y-102878000D01*
X151145251Y-102590299D01*
X150666822Y-102392127D01*
X150605855Y-102380000D01*
X158721822Y-102380000D01*
X158846525Y-102566632D01*
X159053368Y-102773475D01*
X159227760Y-102890000D01*
X159053368Y-103006525D01*
X158846525Y-103213368D01*
X158684010Y-103456589D01*
X158572068Y-103726842D01*
X158515000Y-104013740D01*
X158515000Y-104306260D01*
X158572068Y-104593158D01*
X158684010Y-104863411D01*
X158846525Y-105106632D01*
X158978380Y-105238487D01*
X158905820Y-105260498D01*
X158795506Y-105319463D01*
X158698815Y-105398815D01*
X158619463Y-105495506D01*
X158560498Y-105605820D01*
X158524188Y-105725518D01*
X158511928Y-105850000D01*
X158515000Y-106414250D01*
X158673750Y-106573000D01*
X159873000Y-106573000D01*
X159873000Y-106553000D01*
X160127000Y-106553000D01*
X160127000Y-106573000D01*
X161326250Y-106573000D01*
X161485000Y-106414250D01*
X161488072Y-105850000D01*
X161475812Y-105725518D01*
X161439502Y-105605820D01*
X161380537Y-105495506D01*
X161301185Y-105398815D01*
X161204494Y-105319463D01*
X161094180Y-105260498D01*
X161021620Y-105238487D01*
X161153475Y-105106632D01*
X161315990Y-104863411D01*
X161427932Y-104593158D01*
X161485000Y-104306260D01*
X161485000Y-104013740D01*
X161427932Y-103726842D01*
X161315990Y-103456589D01*
X161153475Y-103213368D01*
X160946632Y-103006525D01*
X160772240Y-102890000D01*
X160946632Y-102773475D01*
X161153475Y-102566632D01*
X161315990Y-102323411D01*
X161427932Y-102053158D01*
X161485000Y-101766260D01*
X161485000Y-101571834D01*
X176981439Y-101571834D01*
X177059605Y-101650000D01*
X176981439Y-101728166D01*
X177016550Y-101941588D01*
X177220826Y-102032458D01*
X177438905Y-102081731D01*
X177492728Y-102083123D01*
X177580000Y-102170395D01*
X177662983Y-102087412D01*
X177882740Y-102049577D01*
X178091440Y-101969387D01*
X178143450Y-101941588D01*
X178178561Y-101728166D01*
X178100395Y-101650000D01*
X178178561Y-101571834D01*
X178143450Y-101358412D01*
X177939174Y-101267542D01*
X177721095Y-101218269D01*
X177667272Y-101216877D01*
X177580000Y-101129605D01*
X177497017Y-101212588D01*
X177277260Y-101250423D01*
X177068560Y-101330613D01*
X177016550Y-101358412D01*
X176981439Y-101571834D01*
X161485000Y-101571834D01*
X161485000Y-101473740D01*
X161427932Y-101186842D01*
X161315990Y-100916589D01*
X161153475Y-100673368D01*
X160946632Y-100466525D01*
X160703411Y-100304010D01*
X160433158Y-100192068D01*
X160146260Y-100135000D01*
X159853740Y-100135000D01*
X159566842Y-100192068D01*
X159296589Y-100304010D01*
X159053368Y-100466525D01*
X158846525Y-100673368D01*
X158721822Y-100860000D01*
X152753924Y-100860000D01*
X152760572Y-100792500D01*
X152760572Y-99660000D01*
X166097203Y-99660000D01*
X166092500Y-99683645D01*
G36*
X177773748Y-107935858D02*
G01*
X177759605Y-107950000D01*
X177773748Y-107964143D01*
X177594143Y-108143748D01*
X177580000Y-108129605D01*
X177565858Y-108143748D01*
X177386253Y-107964143D01*
X177400395Y-107950000D01*
X177386253Y-107935858D01*
X177565858Y-107756253D01*
X177580000Y-107770395D01*
X177594143Y-107756253D01*
X177773748Y-107935858D01*
G37*
X177773748Y-107935858D02*
X177759605Y-107950000D01*
X177773748Y-107964143D01*
X177594143Y-108143748D01*
X177580000Y-108129605D01*
X177565858Y-108143748D01*
X177386253Y-107964143D01*
X177400395Y-107950000D01*
X177386253Y-107935858D01*
X177565858Y-107756253D01*
X177580000Y-107770395D01*
X177594143Y-107756253D01*
X177773748Y-107935858D01*
G36*
X91477000Y-104773000D02*
G01*
X91497000Y-104773000D01*
X91497000Y-105027000D01*
X91477000Y-105027000D01*
X91477000Y-105047000D01*
X91223000Y-105047000D01*
X91223000Y-105027000D01*
X91203000Y-105027000D01*
X91203000Y-104773000D01*
X91223000Y-104773000D01*
X91223000Y-104753000D01*
X91477000Y-104753000D01*
X91477000Y-104773000D01*
G37*
X91477000Y-104773000D02*
X91497000Y-104773000D01*
X91497000Y-105027000D01*
X91477000Y-105027000D01*
X91477000Y-105047000D01*
X91223000Y-105047000D01*
X91223000Y-105027000D01*
X91203000Y-105027000D01*
X91203000Y-104773000D01*
X91223000Y-104773000D01*
X91223000Y-104753000D01*
X91477000Y-104753000D01*
X91477000Y-104773000D01*
G36*
X96656525Y-92753368D02*
G01*
X96494010Y-92996589D01*
X96382068Y-93266842D01*
X96325000Y-93553740D01*
X96325000Y-93846260D01*
X96382068Y-94133158D01*
X96494010Y-94403411D01*
X96656525Y-94646632D01*
X96863368Y-94853475D01*
X97036729Y-94969311D01*
X96961208Y-95211603D01*
X97810000Y-96060395D01*
X98658792Y-95211603D01*
X98583271Y-94969311D01*
X98756632Y-94853475D01*
X98963475Y-94646632D01*
X99080000Y-94472240D01*
X99196525Y-94646632D01*
X99403368Y-94853475D01*
X99577760Y-94970000D01*
X99403368Y-95086525D01*
X99196525Y-95293368D01*
X99080689Y-95466729D01*
X98838397Y-95391208D01*
X97989605Y-96240000D01*
X98838397Y-97088792D01*
X99080689Y-97013271D01*
X99196525Y-97186632D01*
X99403368Y-97393475D01*
X99622658Y-97540000D01*
X98539010Y-97540000D01*
X98581157Y-97517472D01*
X98658792Y-97268397D01*
X97810000Y-96419605D01*
X96961208Y-97268397D01*
X97038843Y-97517472D01*
X97086090Y-97540000D01*
X93526074Y-97540000D01*
X93515304Y-97538223D01*
X93461191Y-97540000D01*
X93439581Y-97540000D01*
X93428772Y-97541065D01*
X93385365Y-97542490D01*
X93364224Y-97547422D01*
X93342617Y-97549550D01*
X93301048Y-97562160D01*
X93258757Y-97572026D01*
X93238985Y-97580987D01*
X93218207Y-97587290D01*
X93179906Y-97607762D01*
X93140342Y-97625693D01*
X93122694Y-97638342D01*
X93103550Y-97648575D01*
X93069974Y-97676130D01*
X93061150Y-97682455D01*
X93044916Y-97696695D01*
X93003052Y-97731052D01*
X92996124Y-97739493D01*
X91774936Y-98810678D01*
X91733052Y-98845052D01*
X91705492Y-98878635D01*
X91675811Y-98910331D01*
X91664351Y-98928765D01*
X91650575Y-98945551D01*
X91630096Y-98983865D01*
X91607170Y-99020742D01*
X91599526Y-99041057D01*
X91589290Y-99060208D01*
X91576680Y-99101777D01*
X91561387Y-99142422D01*
X91557853Y-99163839D01*
X91551550Y-99184618D01*
X91547292Y-99227852D01*
X91540223Y-99270696D01*
X91542000Y-99324796D01*
X91542000Y-100871928D01*
X90500000Y-100871928D01*
X90375518Y-100884188D01*
X90255820Y-100920498D01*
X90145506Y-100979463D01*
X90048815Y-101058815D01*
X89969463Y-101155506D01*
X89910498Y-101265820D01*
X89874188Y-101385518D01*
X89861928Y-101510000D01*
X89861928Y-102773271D01*
X89664002Y-102971197D01*
X89660000Y-102974481D01*
X89660000Y-99468280D01*
X92737244Y-96308531D01*
X96319389Y-96308531D01*
X96361401Y-96598019D01*
X96459081Y-96873747D01*
X96532528Y-97011157D01*
X96781603Y-97088792D01*
X97630395Y-96240000D01*
X96781603Y-95391208D01*
X96532528Y-95468843D01*
X96406629Y-95732883D01*
X96334661Y-96016411D01*
X96319389Y-96308531D01*
X92737244Y-96308531D01*
X96290509Y-92660000D01*
X96749893Y-92660000D01*
X96656525Y-92753368D01*
G37*
X96656525Y-92753368D02*
X96494010Y-92996589D01*
X96382068Y-93266842D01*
X96325000Y-93553740D01*
X96325000Y-93846260D01*
X96382068Y-94133158D01*
X96494010Y-94403411D01*
X96656525Y-94646632D01*
X96863368Y-94853475D01*
X97036729Y-94969311D01*
X96961208Y-95211603D01*
X97810000Y-96060395D01*
X98658792Y-95211603D01*
X98583271Y-94969311D01*
X98756632Y-94853475D01*
X98963475Y-94646632D01*
X99080000Y-94472240D01*
X99196525Y-94646632D01*
X99403368Y-94853475D01*
X99577760Y-94970000D01*
X99403368Y-95086525D01*
X99196525Y-95293368D01*
X99080689Y-95466729D01*
X98838397Y-95391208D01*
X97989605Y-96240000D01*
X98838397Y-97088792D01*
X99080689Y-97013271D01*
X99196525Y-97186632D01*
X99403368Y-97393475D01*
X99622658Y-97540000D01*
X98539010Y-97540000D01*
X98581157Y-97517472D01*
X98658792Y-97268397D01*
X97810000Y-96419605D01*
X96961208Y-97268397D01*
X97038843Y-97517472D01*
X97086090Y-97540000D01*
X93526074Y-97540000D01*
X93515304Y-97538223D01*
X93461191Y-97540000D01*
X93439581Y-97540000D01*
X93428772Y-97541065D01*
X93385365Y-97542490D01*
X93364224Y-97547422D01*
X93342617Y-97549550D01*
X93301048Y-97562160D01*
X93258757Y-97572026D01*
X93238985Y-97580987D01*
X93218207Y-97587290D01*
X93179906Y-97607762D01*
X93140342Y-97625693D01*
X93122694Y-97638342D01*
X93103550Y-97648575D01*
X93069974Y-97676130D01*
X93061150Y-97682455D01*
X93044916Y-97696695D01*
X93003052Y-97731052D01*
X92996124Y-97739493D01*
X91774936Y-98810678D01*
X91733052Y-98845052D01*
X91705492Y-98878635D01*
X91675811Y-98910331D01*
X91664351Y-98928765D01*
X91650575Y-98945551D01*
X91630096Y-98983865D01*
X91607170Y-99020742D01*
X91599526Y-99041057D01*
X91589290Y-99060208D01*
X91576680Y-99101777D01*
X91561387Y-99142422D01*
X91557853Y-99163839D01*
X91551550Y-99184618D01*
X91547292Y-99227852D01*
X91540223Y-99270696D01*
X91542000Y-99324796D01*
X91542000Y-100871928D01*
X90500000Y-100871928D01*
X90375518Y-100884188D01*
X90255820Y-100920498D01*
X90145506Y-100979463D01*
X90048815Y-101058815D01*
X89969463Y-101155506D01*
X89910498Y-101265820D01*
X89874188Y-101385518D01*
X89861928Y-101510000D01*
X89861928Y-102773271D01*
X89664002Y-102971197D01*
X89660000Y-102974481D01*
X89660000Y-99468280D01*
X92737244Y-96308531D01*
X96319389Y-96308531D01*
X96361401Y-96598019D01*
X96459081Y-96873747D01*
X96532528Y-97011157D01*
X96781603Y-97088792D01*
X97630395Y-96240000D01*
X96781603Y-95391208D01*
X96532528Y-95468843D01*
X96406629Y-95732883D01*
X96334661Y-96016411D01*
X96319389Y-96308531D01*
X92737244Y-96308531D01*
X96290509Y-92660000D01*
X96749893Y-92660000D01*
X96656525Y-92753368D01*
G36*
X138927000Y-89637000D02*
G01*
X138907000Y-89637000D01*
X138907000Y-90745000D01*
X139257000Y-90745000D01*
X139340000Y-90728119D01*
X139340001Y-95591881D01*
X139257000Y-95575000D01*
X138907000Y-95575000D01*
X138907000Y-96683000D01*
X138927000Y-96683000D01*
X138927000Y-96937000D01*
X138907000Y-96937000D01*
X138907000Y-96957000D01*
X138653000Y-96957000D01*
X138653000Y-96937000D01*
X138633000Y-96937000D01*
X138633000Y-96683000D01*
X138653000Y-96683000D01*
X138653000Y-95575000D01*
X138303000Y-95575000D01*
X138064504Y-95623507D01*
X137840054Y-95717610D01*
X137638275Y-95853693D01*
X137466922Y-96026526D01*
X137365117Y-96180315D01*
X135638244Y-94453443D01*
X135699461Y-94305652D01*
X135745000Y-94076712D01*
X135745000Y-93843288D01*
X135699461Y-93614348D01*
X135610134Y-93398692D01*
X135480450Y-93204606D01*
X135435844Y-93160000D01*
X135480450Y-93115394D01*
X135610134Y-92921308D01*
X135699461Y-92705652D01*
X135745000Y-92476712D01*
X135745000Y-92243288D01*
X135699461Y-92014348D01*
X135610134Y-91798692D01*
X135480450Y-91604606D01*
X135315394Y-91439550D01*
X135121308Y-91309866D01*
X134905652Y-91220539D01*
X134676712Y-91175000D01*
X134481333Y-91175000D01*
X134426808Y-91031066D01*
X134392478Y-90966841D01*
X134173982Y-90925626D01*
X134291345Y-90808263D01*
X134228082Y-90745000D01*
X134437000Y-90745000D01*
X134675496Y-90696493D01*
X134899946Y-90602390D01*
X135101725Y-90466307D01*
X135273078Y-90293474D01*
X135407421Y-90090533D01*
X135499591Y-89865282D01*
X135503462Y-89827609D01*
X137236538Y-89827609D01*
X137240409Y-89865282D01*
X137332579Y-90090533D01*
X137466922Y-90293474D01*
X137638275Y-90466307D01*
X137840054Y-90602390D01*
X138064504Y-90696493D01*
X138303000Y-90745000D01*
X138653000Y-90745000D01*
X138653000Y-89637000D01*
X137361269Y-89637000D01*
X137236538Y-89827609D01*
X135503462Y-89827609D01*
X135378731Y-89637000D01*
X134087000Y-89637000D01*
X134087000Y-89657000D01*
X133833000Y-89657000D01*
X133833000Y-89637000D01*
X132541269Y-89637000D01*
X132416538Y-89827609D01*
X132420409Y-89865282D01*
X132512579Y-90090533D01*
X132646922Y-90293474D01*
X132818275Y-90466307D01*
X132848402Y-90486625D01*
X132831066Y-90493192D01*
X132766841Y-90527522D01*
X132725626Y-90746021D01*
X133360000Y-91380395D01*
X133374143Y-91366253D01*
X133553748Y-91545858D01*
X133539605Y-91560000D01*
X133553748Y-91574143D01*
X133374143Y-91753748D01*
X133360000Y-91739605D01*
X133345858Y-91753748D01*
X133166253Y-91574143D01*
X133180395Y-91560000D01*
X132546021Y-90925626D01*
X132327522Y-90966841D01*
X132231641Y-91179665D01*
X132179122Y-91407105D01*
X132171984Y-91640421D01*
X132210500Y-91870646D01*
X132293192Y-92088934D01*
X132327522Y-92153159D01*
X132546018Y-92194374D01*
X132428655Y-92311737D01*
X132480537Y-92363619D01*
X132439550Y-92404606D01*
X132309866Y-92598692D01*
X132220539Y-92814348D01*
X132175000Y-93043288D01*
X132175000Y-93276712D01*
X132220539Y-93505652D01*
X132309866Y-93721308D01*
X132439550Y-93915394D01*
X132484156Y-93960000D01*
X132439550Y-94004606D01*
X132309866Y-94198692D01*
X132220539Y-94414348D01*
X132175000Y-94643288D01*
X132175000Y-94876712D01*
X132220539Y-95105652D01*
X132309866Y-95321308D01*
X132439550Y-95515394D01*
X132604606Y-95680450D01*
X132798692Y-95810134D01*
X132850837Y-95831733D01*
X132818275Y-95853693D01*
X132646922Y-96026526D01*
X132512579Y-96229467D01*
X132420409Y-96454718D01*
X132416538Y-96492391D01*
X132541269Y-96683000D01*
X133833000Y-96683000D01*
X133833000Y-96663000D01*
X134087000Y-96663000D01*
X134087000Y-96683000D01*
X135378731Y-96683000D01*
X135503462Y-96492391D01*
X135500699Y-96465500D01*
X139326725Y-100291527D01*
X139296589Y-100304010D01*
X139053368Y-100466525D01*
X138846525Y-100673368D01*
X138684010Y-100916589D01*
X138572068Y-101186842D01*
X138515000Y-101473740D01*
X138515000Y-101766260D01*
X138572068Y-102053158D01*
X138684010Y-102323411D01*
X138846525Y-102566632D01*
X139053368Y-102773475D01*
X139200821Y-102872000D01*
X133945187Y-102872000D01*
X132503757Y-101430572D01*
X133072500Y-101430572D01*
X133196982Y-101418312D01*
X133316680Y-101382002D01*
X133426994Y-101323037D01*
X133523685Y-101243685D01*
X133603037Y-101146994D01*
X133662002Y-101036680D01*
X133698312Y-100916982D01*
X133710572Y-100792500D01*
X133710572Y-98887500D01*
X133698312Y-98763018D01*
X133662002Y-98643320D01*
X133603037Y-98533006D01*
X133523685Y-98436315D01*
X133426994Y-98356963D01*
X133316680Y-98297998D01*
X133196982Y-98261688D01*
X133072500Y-98249428D01*
X131167500Y-98249428D01*
X131043018Y-98261688D01*
X130923320Y-98297998D01*
X130813006Y-98356963D01*
X130716315Y-98436315D01*
X130636963Y-98533006D01*
X130595549Y-98610485D01*
X130591972Y-98606908D01*
X130331963Y-98433176D01*
X130043057Y-98313507D01*
X129736355Y-98252500D01*
X129423645Y-98252500D01*
X129329431Y-98271240D01*
X129325226Y-98250102D01*
X129247205Y-98061744D01*
X129133937Y-97892226D01*
X128989774Y-97748063D01*
X128820256Y-97634795D01*
X128631898Y-97556774D01*
X128431939Y-97517000D01*
X128369802Y-97517000D01*
X127980411Y-97127609D01*
X132416538Y-97127609D01*
X132420409Y-97165282D01*
X132512579Y-97390533D01*
X132646922Y-97593474D01*
X132818275Y-97766307D01*
X133020054Y-97902390D01*
X133244504Y-97996493D01*
X133483000Y-98045000D01*
X133833000Y-98045000D01*
X133833000Y-96937000D01*
X134087000Y-96937000D01*
X134087000Y-98045000D01*
X134437000Y-98045000D01*
X134675496Y-97996493D01*
X134899946Y-97902390D01*
X135101725Y-97766307D01*
X135273078Y-97593474D01*
X135407421Y-97390533D01*
X135499591Y-97165282D01*
X135503462Y-97127609D01*
X135378731Y-96937000D01*
X134087000Y-96937000D01*
X133833000Y-96937000D01*
X132541269Y-96937000D01*
X132416538Y-97127609D01*
X127980411Y-97127609D01*
X126292593Y-95439791D01*
X126333024Y-95423044D01*
X126502542Y-95309776D01*
X126646705Y-95165613D01*
X126759973Y-94996095D01*
X126837994Y-94807737D01*
X126877768Y-94607778D01*
X126877768Y-94403900D01*
X126837994Y-94203941D01*
X126759973Y-94015583D01*
X126646705Y-93846065D01*
X126502542Y-93701902D01*
X126333024Y-93588634D01*
X126144666Y-93510613D01*
X125944707Y-93470839D01*
X125882570Y-93470839D01*
X123672173Y-91260443D01*
X123640541Y-91101417D01*
X123562520Y-90913059D01*
X123449252Y-90743541D01*
X123305089Y-90599378D01*
X123135571Y-90486110D01*
X122947213Y-90408089D01*
X122747254Y-90368315D01*
X122543376Y-90368315D01*
X122343417Y-90408089D01*
X122155059Y-90486110D01*
X122144385Y-90493242D01*
X122153226Y-90471898D01*
X122193000Y-90271939D01*
X122193000Y-90068061D01*
X122153226Y-89868102D01*
X122075205Y-89679744D01*
X121961937Y-89510226D01*
X121911711Y-89460000D01*
X138927000Y-89460000D01*
X138927000Y-89637000D01*
G37*
X138927000Y-89637000D02*
X138907000Y-89637000D01*
X138907000Y-90745000D01*
X139257000Y-90745000D01*
X139340000Y-90728119D01*
X139340001Y-95591881D01*
X139257000Y-95575000D01*
X138907000Y-95575000D01*
X138907000Y-96683000D01*
X138927000Y-96683000D01*
X138927000Y-96937000D01*
X138907000Y-96937000D01*
X138907000Y-96957000D01*
X138653000Y-96957000D01*
X138653000Y-96937000D01*
X138633000Y-96937000D01*
X138633000Y-96683000D01*
X138653000Y-96683000D01*
X138653000Y-95575000D01*
X138303000Y-95575000D01*
X138064504Y-95623507D01*
X137840054Y-95717610D01*
X137638275Y-95853693D01*
X137466922Y-96026526D01*
X137365117Y-96180315D01*
X135638244Y-94453443D01*
X135699461Y-94305652D01*
X135745000Y-94076712D01*
X135745000Y-93843288D01*
X135699461Y-93614348D01*
X135610134Y-93398692D01*
X135480450Y-93204606D01*
X135435844Y-93160000D01*
X135480450Y-93115394D01*
X135610134Y-92921308D01*
X135699461Y-92705652D01*
X135745000Y-92476712D01*
X135745000Y-92243288D01*
X135699461Y-92014348D01*
X135610134Y-91798692D01*
X135480450Y-91604606D01*
X135315394Y-91439550D01*
X135121308Y-91309866D01*
X134905652Y-91220539D01*
X134676712Y-91175000D01*
X134481333Y-91175000D01*
X134426808Y-91031066D01*
X134392478Y-90966841D01*
X134173982Y-90925626D01*
X134291345Y-90808263D01*
X134228082Y-90745000D01*
X134437000Y-90745000D01*
X134675496Y-90696493D01*
X134899946Y-90602390D01*
X135101725Y-90466307D01*
X135273078Y-90293474D01*
X135407421Y-90090533D01*
X135499591Y-89865282D01*
X135503462Y-89827609D01*
X137236538Y-89827609D01*
X137240409Y-89865282D01*
X137332579Y-90090533D01*
X137466922Y-90293474D01*
X137638275Y-90466307D01*
X137840054Y-90602390D01*
X138064504Y-90696493D01*
X138303000Y-90745000D01*
X138653000Y-90745000D01*
X138653000Y-89637000D01*
X137361269Y-89637000D01*
X137236538Y-89827609D01*
X135503462Y-89827609D01*
X135378731Y-89637000D01*
X134087000Y-89637000D01*
X134087000Y-89657000D01*
X133833000Y-89657000D01*
X133833000Y-89637000D01*
X132541269Y-89637000D01*
X132416538Y-89827609D01*
X132420409Y-89865282D01*
X132512579Y-90090533D01*
X132646922Y-90293474D01*
X132818275Y-90466307D01*
X132848402Y-90486625D01*
X132831066Y-90493192D01*
X132766841Y-90527522D01*
X132725626Y-90746021D01*
X133360000Y-91380395D01*
X133374143Y-91366253D01*
X133553748Y-91545858D01*
X133539605Y-91560000D01*
X133553748Y-91574143D01*
X133374143Y-91753748D01*
X133360000Y-91739605D01*
X133345858Y-91753748D01*
X133166253Y-91574143D01*
X133180395Y-91560000D01*
X132546021Y-90925626D01*
X132327522Y-90966841D01*
X132231641Y-91179665D01*
X132179122Y-91407105D01*
X132171984Y-91640421D01*
X132210500Y-91870646D01*
X132293192Y-92088934D01*
X132327522Y-92153159D01*
X132546018Y-92194374D01*
X132428655Y-92311737D01*
X132480537Y-92363619D01*
X132439550Y-92404606D01*
X132309866Y-92598692D01*
X132220539Y-92814348D01*
X132175000Y-93043288D01*
X132175000Y-93276712D01*
X132220539Y-93505652D01*
X132309866Y-93721308D01*
X132439550Y-93915394D01*
X132484156Y-93960000D01*
X132439550Y-94004606D01*
X132309866Y-94198692D01*
X132220539Y-94414348D01*
X132175000Y-94643288D01*
X132175000Y-94876712D01*
X132220539Y-95105652D01*
X132309866Y-95321308D01*
X132439550Y-95515394D01*
X132604606Y-95680450D01*
X132798692Y-95810134D01*
X132850837Y-95831733D01*
X132818275Y-95853693D01*
X132646922Y-96026526D01*
X132512579Y-96229467D01*
X132420409Y-96454718D01*
X132416538Y-96492391D01*
X132541269Y-96683000D01*
X133833000Y-96683000D01*
X133833000Y-96663000D01*
X134087000Y-96663000D01*
X134087000Y-96683000D01*
X135378731Y-96683000D01*
X135503462Y-96492391D01*
X135500699Y-96465500D01*
X139326725Y-100291527D01*
X139296589Y-100304010D01*
X139053368Y-100466525D01*
X138846525Y-100673368D01*
X138684010Y-100916589D01*
X138572068Y-101186842D01*
X138515000Y-101473740D01*
X138515000Y-101766260D01*
X138572068Y-102053158D01*
X138684010Y-102323411D01*
X138846525Y-102566632D01*
X139053368Y-102773475D01*
X139200821Y-102872000D01*
X133945187Y-102872000D01*
X132503757Y-101430572D01*
X133072500Y-101430572D01*
X133196982Y-101418312D01*
X133316680Y-101382002D01*
X133426994Y-101323037D01*
X133523685Y-101243685D01*
X133603037Y-101146994D01*
X133662002Y-101036680D01*
X133698312Y-100916982D01*
X133710572Y-100792500D01*
X133710572Y-98887500D01*
X133698312Y-98763018D01*
X133662002Y-98643320D01*
X133603037Y-98533006D01*
X133523685Y-98436315D01*
X133426994Y-98356963D01*
X133316680Y-98297998D01*
X133196982Y-98261688D01*
X133072500Y-98249428D01*
X131167500Y-98249428D01*
X131043018Y-98261688D01*
X130923320Y-98297998D01*
X130813006Y-98356963D01*
X130716315Y-98436315D01*
X130636963Y-98533006D01*
X130595549Y-98610485D01*
X130591972Y-98606908D01*
X130331963Y-98433176D01*
X130043057Y-98313507D01*
X129736355Y-98252500D01*
X129423645Y-98252500D01*
X129329431Y-98271240D01*
X129325226Y-98250102D01*
X129247205Y-98061744D01*
X129133937Y-97892226D01*
X128989774Y-97748063D01*
X128820256Y-97634795D01*
X128631898Y-97556774D01*
X128431939Y-97517000D01*
X128369802Y-97517000D01*
X127980411Y-97127609D01*
X132416538Y-97127609D01*
X132420409Y-97165282D01*
X132512579Y-97390533D01*
X132646922Y-97593474D01*
X132818275Y-97766307D01*
X133020054Y-97902390D01*
X133244504Y-97996493D01*
X133483000Y-98045000D01*
X133833000Y-98045000D01*
X133833000Y-96937000D01*
X134087000Y-96937000D01*
X134087000Y-98045000D01*
X134437000Y-98045000D01*
X134675496Y-97996493D01*
X134899946Y-97902390D01*
X135101725Y-97766307D01*
X135273078Y-97593474D01*
X135407421Y-97390533D01*
X135499591Y-97165282D01*
X135503462Y-97127609D01*
X135378731Y-96937000D01*
X134087000Y-96937000D01*
X133833000Y-96937000D01*
X132541269Y-96937000D01*
X132416538Y-97127609D01*
X127980411Y-97127609D01*
X126292593Y-95439791D01*
X126333024Y-95423044D01*
X126502542Y-95309776D01*
X126646705Y-95165613D01*
X126759973Y-94996095D01*
X126837994Y-94807737D01*
X126877768Y-94607778D01*
X126877768Y-94403900D01*
X126837994Y-94203941D01*
X126759973Y-94015583D01*
X126646705Y-93846065D01*
X126502542Y-93701902D01*
X126333024Y-93588634D01*
X126144666Y-93510613D01*
X125944707Y-93470839D01*
X125882570Y-93470839D01*
X123672173Y-91260443D01*
X123640541Y-91101417D01*
X123562520Y-90913059D01*
X123449252Y-90743541D01*
X123305089Y-90599378D01*
X123135571Y-90486110D01*
X122947213Y-90408089D01*
X122747254Y-90368315D01*
X122543376Y-90368315D01*
X122343417Y-90408089D01*
X122155059Y-90486110D01*
X122144385Y-90493242D01*
X122153226Y-90471898D01*
X122193000Y-90271939D01*
X122193000Y-90068061D01*
X122153226Y-89868102D01*
X122075205Y-89679744D01*
X121961937Y-89510226D01*
X121911711Y-89460000D01*
X138927000Y-89460000D01*
X138927000Y-89637000D01*
G36*
X127295000Y-98591802D02*
G01*
X127295000Y-98653939D01*
X127334774Y-98853898D01*
X127412795Y-99042256D01*
X127526063Y-99211774D01*
X127670226Y-99355937D01*
X127839744Y-99469205D01*
X128020280Y-99543986D01*
X127992500Y-99683645D01*
X127992500Y-99996355D01*
X128053507Y-100303057D01*
X128095893Y-100405386D01*
X128074289Y-100426990D01*
X127039508Y-100426990D01*
X122553659Y-95941142D01*
X124644341Y-95941142D01*
X127295000Y-98591802D01*
G37*
X127295000Y-98591802D02*
X127295000Y-98653939D01*
X127334774Y-98853898D01*
X127412795Y-99042256D01*
X127526063Y-99211774D01*
X127670226Y-99355937D01*
X127839744Y-99469205D01*
X128020280Y-99543986D01*
X127992500Y-99683645D01*
X127992500Y-99996355D01*
X128053507Y-100303057D01*
X128095893Y-100405386D01*
X128074289Y-100426990D01*
X127039508Y-100426990D01*
X122553659Y-95941142D01*
X124644341Y-95941142D01*
X127295000Y-98591802D01*
G36*
X119065066Y-98409343D02*
G01*
X119098404Y-98431619D01*
X117545962Y-98431619D01*
X117590204Y-98365406D01*
X119021129Y-98365406D01*
X119065066Y-98409343D01*
G37*
X119065066Y-98409343D02*
X119098404Y-98431619D01*
X117545962Y-98431619D01*
X117590204Y-98365406D01*
X119021129Y-98365406D01*
X119065066Y-98409343D01*
G36*
X117858001Y-94704668D02*
G01*
X117854324Y-94742000D01*
X117858001Y-94779333D01*
X117868998Y-94890986D01*
X117879016Y-94924010D01*
X117912454Y-95034246D01*
X117983026Y-95166276D01*
X118048784Y-95246401D01*
X118078000Y-95282001D01*
X118106998Y-95305799D01*
X118491199Y-95690000D01*
X118470303Y-95690000D01*
X118426366Y-95646063D01*
X118256848Y-95532795D01*
X118068490Y-95454774D01*
X117868531Y-95415000D01*
X117664653Y-95415000D01*
X117464694Y-95454774D01*
X117276336Y-95532795D01*
X117106818Y-95646063D01*
X116962655Y-95790226D01*
X116849387Y-95959744D01*
X116771366Y-96148102D01*
X116731592Y-96348061D01*
X116731592Y-96551939D01*
X116771366Y-96751898D01*
X116789706Y-96796175D01*
X116600443Y-96796175D01*
X116583998Y-96799446D01*
X116583998Y-94627333D01*
X117704915Y-93506417D01*
X117719356Y-93506417D01*
X117858000Y-93478839D01*
X117858001Y-94704668D01*
G37*
X117858001Y-94704668D02*
X117854324Y-94742000D01*
X117858001Y-94779333D01*
X117868998Y-94890986D01*
X117879016Y-94924010D01*
X117912454Y-95034246D01*
X117983026Y-95166276D01*
X118048784Y-95246401D01*
X118078000Y-95282001D01*
X118106998Y-95305799D01*
X118491199Y-95690000D01*
X118470303Y-95690000D01*
X118426366Y-95646063D01*
X118256848Y-95532795D01*
X118068490Y-95454774D01*
X117868531Y-95415000D01*
X117664653Y-95415000D01*
X117464694Y-95454774D01*
X117276336Y-95532795D01*
X117106818Y-95646063D01*
X116962655Y-95790226D01*
X116849387Y-95959744D01*
X116771366Y-96148102D01*
X116731592Y-96348061D01*
X116731592Y-96551939D01*
X116771366Y-96751898D01*
X116789706Y-96796175D01*
X116600443Y-96796175D01*
X116583998Y-96799446D01*
X116583998Y-94627333D01*
X117704915Y-93506417D01*
X117719356Y-93506417D01*
X117858000Y-93478839D01*
X117858001Y-94704668D01*
G36*
X114322800Y-89501739D02*
G01*
X114153282Y-89615007D01*
X114009119Y-89759170D01*
X113895851Y-89928688D01*
X113817830Y-90117046D01*
X113778056Y-90317005D01*
X113778056Y-90379141D01*
X110450199Y-93707000D01*
X110388061Y-93707000D01*
X110188102Y-93746774D01*
X109999744Y-93824795D01*
X109830226Y-93938063D01*
X109686063Y-94082226D01*
X109572795Y-94251744D01*
X109494774Y-94440102D01*
X109455000Y-94640061D01*
X109455000Y-94760000D01*
X108264802Y-94760000D01*
X105518803Y-92014002D01*
X105495000Y-91984998D01*
X105379275Y-91890025D01*
X105247246Y-91819453D01*
X105103985Y-91775996D01*
X104992332Y-91764999D01*
X104992321Y-91764999D01*
X104954999Y-91761323D01*
X104917677Y-91764999D01*
X104376350Y-91764999D01*
X106952187Y-89460000D01*
X114423566Y-89460000D01*
X114322800Y-89501739D01*
G37*
X114322800Y-89501739D02*
X114153282Y-89615007D01*
X114009119Y-89759170D01*
X113895851Y-89928688D01*
X113817830Y-90117046D01*
X113778056Y-90317005D01*
X113778056Y-90379141D01*
X110450199Y-93707000D01*
X110388061Y-93707000D01*
X110188102Y-93746774D01*
X109999744Y-93824795D01*
X109830226Y-93938063D01*
X109686063Y-94082226D01*
X109572795Y-94251744D01*
X109494774Y-94440102D01*
X109455000Y-94640061D01*
X109455000Y-94760000D01*
X108264802Y-94760000D01*
X105518803Y-92014002D01*
X105495000Y-91984998D01*
X105379275Y-91890025D01*
X105247246Y-91819453D01*
X105103985Y-91775996D01*
X104992332Y-91764999D01*
X104992321Y-91764999D01*
X104954999Y-91761323D01*
X104917677Y-91764999D01*
X104376350Y-91764999D01*
X106952187Y-89460000D01*
X114423566Y-89460000D01*
X114322800Y-89501739D01*
%TD*%
M02*
