M48
; DRILL file {KiCad (5.1.5)-3} date 7/3/2020 7:02:28 PM
; FORMAT={-:-/ absolute / inch / decimal}
; #@! TF.CreationDate,2020-07-03T19:02:28-05:00
; #@! TF.GenerationSoftware,Kicad,Pcbnew,(5.1.5)-3
; #@! TF.FileFunction,Plated,1,2,PTH
FMAT,2
INCH
T1C0.0157
T2C0.0394
T3C0.0400
%
G90
G05
T1
X4.8425Y-4.3898
X4.8504Y-4.4646
X4.9016Y-4.6063
X4.9693Y-4.4598
X5.0472Y-4.2598
X5.0886Y-4.3406
X5.0886Y-4.4488
X5.0984Y-4.8622
X5.1476Y-5.0689
X5.1575Y-4.8622
X5.187Y-4.5276
X5.2165Y-4.5571
X5.2362Y-4.6457
X5.2559Y-4.5768
X5.2559Y-4.872
X5.2657Y-4.311
X5.2849Y-4.2515
X5.2953Y-4.9016
X5.3155Y-4.6363
X5.3651Y-4.6162
X5.3839Y-4.9016
X5.403Y-4.6855
X5.502Y-4.8524
X5.561Y-4.6161
X5.5709Y-4.2815
X5.5723Y-4.1845
X5.6004Y-4.2224
X5.6102Y-4.5374
X5.6201Y-4.3307
X5.6791Y-4.3602
X5.7283Y-4.685
X5.7697Y-4.4018
X5.7776Y-4.685
X5.8858Y-4.7638
T2
X5.3051Y-3.7303
X5.4051Y-3.7303
X5.5051Y-3.7303
X5.6051Y-3.7303
X5.7051Y-3.7303
X5.8051Y-3.7303
X5.9051Y-3.7303
X6.0051Y-3.7303
X6.1516Y-3.7303
X6.1516Y-3.8303
X6.1516Y-3.9303
X6.1516Y-4.0303
X6.1516Y-4.1303
X6.1516Y-4.2303
X6.1516Y-4.3303
X6.1516Y-4.4303
X6.1516Y-4.5303
X6.1516Y-4.6303
X6.1516Y-4.7303
X6.1516Y-4.8303
X6.1516Y-4.9303
X6.1516Y-5.0303
X6.1516Y-5.1303
X5.0472Y-3.7559
X5.0472Y-3.8559
X5.0472Y-3.9559
X5.0472Y-4.0559
X5.0472Y-4.1559
X5.3051Y-5.128
X5.4051Y-5.128
X5.5051Y-5.128
X5.6051Y-5.128
X5.7051Y-5.128
X5.8051Y-5.128
X5.9051Y-5.128
X6.0051Y-5.128
T3
X4.813Y-4.9591
X4.813Y-5.0591
X4.913Y-4.9591
X4.913Y-5.0591
X5.013Y-4.9591
X5.013Y-5.0591
T0
M30
