M48
; DRILL file {KiCad (5.1.5)-3} date 7/4/2020 10:54:13 PM
; FORMAT={-:-/ absolute / inch / decimal}
; #@! TF.CreationDate,2020-07-04T22:54:13-05:00
; #@! TF.GenerationSoftware,Kicad,Pcbnew,(5.1.5)-3
; #@! TF.FileFunction,Plated,1,2,PTH
FMAT,2
INCH
T1C0.0157
T2C0.0276
T3C0.0315
T4C0.0394
T5C0.0400
%
G90
G05
T1
X4.9228Y-4.4437
X5.0303Y-4.5047
X5.1213Y-4.8591
X5.1504Y-4.7929
X5.1504Y-5.0303
X5.1563Y-4.2656
X5.1797Y-4.8281
X5.1797Y-5.0591
X5.25Y-4.4766
X5.2717Y-4.1906
X5.3672Y-4.0547
X5.3933Y-4.4764
X5.3937Y-4.5173
X5.3938Y-4.5576
X5.3943Y-4.5975
X5.5614Y-4.4087
X5.5969Y-4.1282
X5.6193Y-4.3508
X5.7823Y-4.8033
X5.7846Y-4.6931
X5.8125Y-4.1016
X5.8434Y-4.7108
X5.8724Y-5.0567
X5.9063Y-4.5
X5.9354Y-5.0567
X5.9411Y-4.8018
X5.9945Y-4.3783
X6.0764Y-4.8728
X6.0795Y-3.7756
T2
X4.8045Y-4.4075
X4.8045Y-4.4705
X4.8518Y-4.376
X4.8518Y-4.439
X4.8518Y-4.502
T4
X5.3051Y-3.7303
X5.4051Y-3.7303
X5.5051Y-3.7303
X5.6051Y-3.7303
X5.7051Y-3.7303
X5.8051Y-3.7303
X5.9051Y-3.7303
X6.0051Y-3.7303
X5.3051Y-5.128
X5.4051Y-5.128
X5.5051Y-5.128
X5.6051Y-5.128
X5.7051Y-5.128
X5.8051Y-5.128
X5.9051Y-5.128
X6.0051Y-5.128
X5.0472Y-3.7559
X5.0472Y-3.8559
X5.0472Y-3.9559
X5.0472Y-4.0559
X5.0472Y-4.1559
X6.1516Y-3.7303
X6.1516Y-3.8303
X6.1516Y-3.9303
X6.1516Y-4.0303
X6.1516Y-4.1303
X6.1516Y-4.2303
X6.1516Y-4.3303
X6.1516Y-4.4303
X6.1516Y-4.5303
X6.1516Y-4.6303
X6.1516Y-4.7303
X6.1516Y-4.8303
X6.1516Y-4.9303
X6.1516Y-5.0303
X6.1516Y-5.1303
T5
X4.813Y-4.9591
X4.813Y-5.0591
X4.913Y-4.9591
X4.913Y-5.0591
X5.013Y-4.9591
X5.013Y-5.0591
T3
G00X4.6521Y-4.2953
M15
G01X4.6246Y-4.2953
M16
G05
G00X4.6521Y-4.5827
M15
G01X4.6246Y-4.5827
M16
G05
G00X4.8419Y-4.2953
M15
G01X4.8143Y-4.2953
M16
G05
G00X4.8419Y-4.5827
M15
G01X4.8143Y-4.5827
M16
G05
T0
M30
