G04 #@! TF.GenerationSoftware,KiCad,Pcbnew,(5.1.5)-3*
G04 #@! TF.CreationDate,2020-07-03T19:02:18-05:00*
G04 #@! TF.ProjectId,PikateaTPM,50696b61-7465-4615-9450-4d2e6b696361,rev?*
G04 #@! TF.SameCoordinates,Original*
G04 #@! TF.FileFunction,Paste,Top*
G04 #@! TF.FilePolarity,Positive*
%FSLAX46Y46*%
G04 Gerber Fmt 4.6, Leading zero omitted, Abs format (unit mm)*
G04 Created by KiCad (PCBNEW (5.1.5)-3) date 2020-07-03 19:02:18*
%MOMM*%
%LPD*%
G04 APERTURE LIST*
%ADD10C,0.100000*%
%ADD11R,1.800000X3.000000*%
%ADD12R,1.500000X0.500000*%
G04 APERTURE END LIST*
D10*
G36*
X137881371Y-123164214D02*
G01*
X137032843Y-124012742D01*
X136042893Y-123022792D01*
X136891421Y-122174264D01*
X137881371Y-123164214D01*
G37*
G36*
X136325736Y-121608579D02*
G01*
X135477208Y-122457107D01*
X134487258Y-121467157D01*
X135335786Y-120618629D01*
X136325736Y-121608579D01*
G37*
G36*
X137457107Y-120477208D02*
G01*
X136608579Y-121325736D01*
X135618629Y-120335786D01*
X136467157Y-119487258D01*
X137457107Y-120477208D01*
G37*
G36*
X139012742Y-122032843D02*
G01*
X138164214Y-122881371D01*
X137174264Y-121891421D01*
X138022792Y-121042893D01*
X139012742Y-122032843D01*
G37*
G36*
X135118626Y-108775301D02*
G01*
X135124693Y-108776201D01*
X135130643Y-108777691D01*
X135136418Y-108779758D01*
X135141962Y-108782380D01*
X135147223Y-108785533D01*
X135152150Y-108789187D01*
X135156694Y-108793306D01*
X135160813Y-108797850D01*
X135164467Y-108802777D01*
X135167620Y-108808038D01*
X135170242Y-108813582D01*
X135172309Y-108819357D01*
X135173799Y-108825307D01*
X135174699Y-108831374D01*
X135175000Y-108837500D01*
X135175000Y-109787500D01*
X135174699Y-109793626D01*
X135173799Y-109799693D01*
X135172309Y-109805643D01*
X135170242Y-109811418D01*
X135167620Y-109816962D01*
X135164467Y-109822223D01*
X135160813Y-109827150D01*
X135156694Y-109831694D01*
X135152150Y-109835813D01*
X135147223Y-109839467D01*
X135141962Y-109842620D01*
X135136418Y-109845242D01*
X135130643Y-109847309D01*
X135124693Y-109848799D01*
X135118626Y-109849699D01*
X135112500Y-109850000D01*
X134987500Y-109850000D01*
X134981374Y-109849699D01*
X134975307Y-109848799D01*
X134969357Y-109847309D01*
X134963582Y-109845242D01*
X134958038Y-109842620D01*
X134952777Y-109839467D01*
X134947850Y-109835813D01*
X134943306Y-109831694D01*
X134939187Y-109827150D01*
X134935533Y-109822223D01*
X134932380Y-109816962D01*
X134929758Y-109811418D01*
X134927691Y-109805643D01*
X134926201Y-109799693D01*
X134925301Y-109793626D01*
X134925000Y-109787500D01*
X134925000Y-108837500D01*
X134925301Y-108831374D01*
X134926201Y-108825307D01*
X134927691Y-108819357D01*
X134929758Y-108813582D01*
X134932380Y-108808038D01*
X134935533Y-108802777D01*
X134939187Y-108797850D01*
X134943306Y-108793306D01*
X134947850Y-108789187D01*
X134952777Y-108785533D01*
X134958038Y-108782380D01*
X134963582Y-108779758D01*
X134969357Y-108777691D01*
X134975307Y-108776201D01*
X134981374Y-108775301D01*
X134987500Y-108775000D01*
X135112500Y-108775000D01*
X135118626Y-108775301D01*
G37*
G36*
X135618626Y-108775301D02*
G01*
X135624693Y-108776201D01*
X135630643Y-108777691D01*
X135636418Y-108779758D01*
X135641962Y-108782380D01*
X135647223Y-108785533D01*
X135652150Y-108789187D01*
X135656694Y-108793306D01*
X135660813Y-108797850D01*
X135664467Y-108802777D01*
X135667620Y-108808038D01*
X135670242Y-108813582D01*
X135672309Y-108819357D01*
X135673799Y-108825307D01*
X135674699Y-108831374D01*
X135675000Y-108837500D01*
X135675000Y-109787500D01*
X135674699Y-109793626D01*
X135673799Y-109799693D01*
X135672309Y-109805643D01*
X135670242Y-109811418D01*
X135667620Y-109816962D01*
X135664467Y-109822223D01*
X135660813Y-109827150D01*
X135656694Y-109831694D01*
X135652150Y-109835813D01*
X135647223Y-109839467D01*
X135641962Y-109842620D01*
X135636418Y-109845242D01*
X135630643Y-109847309D01*
X135624693Y-109848799D01*
X135618626Y-109849699D01*
X135612500Y-109850000D01*
X135487500Y-109850000D01*
X135481374Y-109849699D01*
X135475307Y-109848799D01*
X135469357Y-109847309D01*
X135463582Y-109845242D01*
X135458038Y-109842620D01*
X135452777Y-109839467D01*
X135447850Y-109835813D01*
X135443306Y-109831694D01*
X135439187Y-109827150D01*
X135435533Y-109822223D01*
X135432380Y-109816962D01*
X135429758Y-109811418D01*
X135427691Y-109805643D01*
X135426201Y-109799693D01*
X135425301Y-109793626D01*
X135425000Y-109787500D01*
X135425000Y-108837500D01*
X135425301Y-108831374D01*
X135426201Y-108825307D01*
X135427691Y-108819357D01*
X135429758Y-108813582D01*
X135432380Y-108808038D01*
X135435533Y-108802777D01*
X135439187Y-108797850D01*
X135443306Y-108793306D01*
X135447850Y-108789187D01*
X135452777Y-108785533D01*
X135458038Y-108782380D01*
X135463582Y-108779758D01*
X135469357Y-108777691D01*
X135475307Y-108776201D01*
X135481374Y-108775301D01*
X135487500Y-108775000D01*
X135612500Y-108775000D01*
X135618626Y-108775301D01*
G37*
G36*
X136118626Y-108775301D02*
G01*
X136124693Y-108776201D01*
X136130643Y-108777691D01*
X136136418Y-108779758D01*
X136141962Y-108782380D01*
X136147223Y-108785533D01*
X136152150Y-108789187D01*
X136156694Y-108793306D01*
X136160813Y-108797850D01*
X136164467Y-108802777D01*
X136167620Y-108808038D01*
X136170242Y-108813582D01*
X136172309Y-108819357D01*
X136173799Y-108825307D01*
X136174699Y-108831374D01*
X136175000Y-108837500D01*
X136175000Y-109787500D01*
X136174699Y-109793626D01*
X136173799Y-109799693D01*
X136172309Y-109805643D01*
X136170242Y-109811418D01*
X136167620Y-109816962D01*
X136164467Y-109822223D01*
X136160813Y-109827150D01*
X136156694Y-109831694D01*
X136152150Y-109835813D01*
X136147223Y-109839467D01*
X136141962Y-109842620D01*
X136136418Y-109845242D01*
X136130643Y-109847309D01*
X136124693Y-109848799D01*
X136118626Y-109849699D01*
X136112500Y-109850000D01*
X135987500Y-109850000D01*
X135981374Y-109849699D01*
X135975307Y-109848799D01*
X135969357Y-109847309D01*
X135963582Y-109845242D01*
X135958038Y-109842620D01*
X135952777Y-109839467D01*
X135947850Y-109835813D01*
X135943306Y-109831694D01*
X135939187Y-109827150D01*
X135935533Y-109822223D01*
X135932380Y-109816962D01*
X135929758Y-109811418D01*
X135927691Y-109805643D01*
X135926201Y-109799693D01*
X135925301Y-109793626D01*
X135925000Y-109787500D01*
X135925000Y-108837500D01*
X135925301Y-108831374D01*
X135926201Y-108825307D01*
X135927691Y-108819357D01*
X135929758Y-108813582D01*
X135932380Y-108808038D01*
X135935533Y-108802777D01*
X135939187Y-108797850D01*
X135943306Y-108793306D01*
X135947850Y-108789187D01*
X135952777Y-108785533D01*
X135958038Y-108782380D01*
X135963582Y-108779758D01*
X135969357Y-108777691D01*
X135975307Y-108776201D01*
X135981374Y-108775301D01*
X135987500Y-108775000D01*
X136112500Y-108775000D01*
X136118626Y-108775301D01*
G37*
G36*
X136618626Y-108775301D02*
G01*
X136624693Y-108776201D01*
X136630643Y-108777691D01*
X136636418Y-108779758D01*
X136641962Y-108782380D01*
X136647223Y-108785533D01*
X136652150Y-108789187D01*
X136656694Y-108793306D01*
X136660813Y-108797850D01*
X136664467Y-108802777D01*
X136667620Y-108808038D01*
X136670242Y-108813582D01*
X136672309Y-108819357D01*
X136673799Y-108825307D01*
X136674699Y-108831374D01*
X136675000Y-108837500D01*
X136675000Y-109787500D01*
X136674699Y-109793626D01*
X136673799Y-109799693D01*
X136672309Y-109805643D01*
X136670242Y-109811418D01*
X136667620Y-109816962D01*
X136664467Y-109822223D01*
X136660813Y-109827150D01*
X136656694Y-109831694D01*
X136652150Y-109835813D01*
X136647223Y-109839467D01*
X136641962Y-109842620D01*
X136636418Y-109845242D01*
X136630643Y-109847309D01*
X136624693Y-109848799D01*
X136618626Y-109849699D01*
X136612500Y-109850000D01*
X136487500Y-109850000D01*
X136481374Y-109849699D01*
X136475307Y-109848799D01*
X136469357Y-109847309D01*
X136463582Y-109845242D01*
X136458038Y-109842620D01*
X136452777Y-109839467D01*
X136447850Y-109835813D01*
X136443306Y-109831694D01*
X136439187Y-109827150D01*
X136435533Y-109822223D01*
X136432380Y-109816962D01*
X136429758Y-109811418D01*
X136427691Y-109805643D01*
X136426201Y-109799693D01*
X136425301Y-109793626D01*
X136425000Y-109787500D01*
X136425000Y-108837500D01*
X136425301Y-108831374D01*
X136426201Y-108825307D01*
X136427691Y-108819357D01*
X136429758Y-108813582D01*
X136432380Y-108808038D01*
X136435533Y-108802777D01*
X136439187Y-108797850D01*
X136443306Y-108793306D01*
X136447850Y-108789187D01*
X136452777Y-108785533D01*
X136458038Y-108782380D01*
X136463582Y-108779758D01*
X136469357Y-108777691D01*
X136475307Y-108776201D01*
X136481374Y-108775301D01*
X136487500Y-108775000D01*
X136612500Y-108775000D01*
X136618626Y-108775301D01*
G37*
G36*
X137118626Y-108775301D02*
G01*
X137124693Y-108776201D01*
X137130643Y-108777691D01*
X137136418Y-108779758D01*
X137141962Y-108782380D01*
X137147223Y-108785533D01*
X137152150Y-108789187D01*
X137156694Y-108793306D01*
X137160813Y-108797850D01*
X137164467Y-108802777D01*
X137167620Y-108808038D01*
X137170242Y-108813582D01*
X137172309Y-108819357D01*
X137173799Y-108825307D01*
X137174699Y-108831374D01*
X137175000Y-108837500D01*
X137175000Y-109787500D01*
X137174699Y-109793626D01*
X137173799Y-109799693D01*
X137172309Y-109805643D01*
X137170242Y-109811418D01*
X137167620Y-109816962D01*
X137164467Y-109822223D01*
X137160813Y-109827150D01*
X137156694Y-109831694D01*
X137152150Y-109835813D01*
X137147223Y-109839467D01*
X137141962Y-109842620D01*
X137136418Y-109845242D01*
X137130643Y-109847309D01*
X137124693Y-109848799D01*
X137118626Y-109849699D01*
X137112500Y-109850000D01*
X136987500Y-109850000D01*
X136981374Y-109849699D01*
X136975307Y-109848799D01*
X136969357Y-109847309D01*
X136963582Y-109845242D01*
X136958038Y-109842620D01*
X136952777Y-109839467D01*
X136947850Y-109835813D01*
X136943306Y-109831694D01*
X136939187Y-109827150D01*
X136935533Y-109822223D01*
X136932380Y-109816962D01*
X136929758Y-109811418D01*
X136927691Y-109805643D01*
X136926201Y-109799693D01*
X136925301Y-109793626D01*
X136925000Y-109787500D01*
X136925000Y-108837500D01*
X136925301Y-108831374D01*
X136926201Y-108825307D01*
X136927691Y-108819357D01*
X136929758Y-108813582D01*
X136932380Y-108808038D01*
X136935533Y-108802777D01*
X136939187Y-108797850D01*
X136943306Y-108793306D01*
X136947850Y-108789187D01*
X136952777Y-108785533D01*
X136958038Y-108782380D01*
X136963582Y-108779758D01*
X136969357Y-108777691D01*
X136975307Y-108776201D01*
X136981374Y-108775301D01*
X136987500Y-108775000D01*
X137112500Y-108775000D01*
X137118626Y-108775301D01*
G37*
G36*
X137618626Y-108775301D02*
G01*
X137624693Y-108776201D01*
X137630643Y-108777691D01*
X137636418Y-108779758D01*
X137641962Y-108782380D01*
X137647223Y-108785533D01*
X137652150Y-108789187D01*
X137656694Y-108793306D01*
X137660813Y-108797850D01*
X137664467Y-108802777D01*
X137667620Y-108808038D01*
X137670242Y-108813582D01*
X137672309Y-108819357D01*
X137673799Y-108825307D01*
X137674699Y-108831374D01*
X137675000Y-108837500D01*
X137675000Y-109787500D01*
X137674699Y-109793626D01*
X137673799Y-109799693D01*
X137672309Y-109805643D01*
X137670242Y-109811418D01*
X137667620Y-109816962D01*
X137664467Y-109822223D01*
X137660813Y-109827150D01*
X137656694Y-109831694D01*
X137652150Y-109835813D01*
X137647223Y-109839467D01*
X137641962Y-109842620D01*
X137636418Y-109845242D01*
X137630643Y-109847309D01*
X137624693Y-109848799D01*
X137618626Y-109849699D01*
X137612500Y-109850000D01*
X137487500Y-109850000D01*
X137481374Y-109849699D01*
X137475307Y-109848799D01*
X137469357Y-109847309D01*
X137463582Y-109845242D01*
X137458038Y-109842620D01*
X137452777Y-109839467D01*
X137447850Y-109835813D01*
X137443306Y-109831694D01*
X137439187Y-109827150D01*
X137435533Y-109822223D01*
X137432380Y-109816962D01*
X137429758Y-109811418D01*
X137427691Y-109805643D01*
X137426201Y-109799693D01*
X137425301Y-109793626D01*
X137425000Y-109787500D01*
X137425000Y-108837500D01*
X137425301Y-108831374D01*
X137426201Y-108825307D01*
X137427691Y-108819357D01*
X137429758Y-108813582D01*
X137432380Y-108808038D01*
X137435533Y-108802777D01*
X137439187Y-108797850D01*
X137443306Y-108793306D01*
X137447850Y-108789187D01*
X137452777Y-108785533D01*
X137458038Y-108782380D01*
X137463582Y-108779758D01*
X137469357Y-108777691D01*
X137475307Y-108776201D01*
X137481374Y-108775301D01*
X137487500Y-108775000D01*
X137612500Y-108775000D01*
X137618626Y-108775301D01*
G37*
G36*
X138118626Y-108775301D02*
G01*
X138124693Y-108776201D01*
X138130643Y-108777691D01*
X138136418Y-108779758D01*
X138141962Y-108782380D01*
X138147223Y-108785533D01*
X138152150Y-108789187D01*
X138156694Y-108793306D01*
X138160813Y-108797850D01*
X138164467Y-108802777D01*
X138167620Y-108808038D01*
X138170242Y-108813582D01*
X138172309Y-108819357D01*
X138173799Y-108825307D01*
X138174699Y-108831374D01*
X138175000Y-108837500D01*
X138175000Y-109787500D01*
X138174699Y-109793626D01*
X138173799Y-109799693D01*
X138172309Y-109805643D01*
X138170242Y-109811418D01*
X138167620Y-109816962D01*
X138164467Y-109822223D01*
X138160813Y-109827150D01*
X138156694Y-109831694D01*
X138152150Y-109835813D01*
X138147223Y-109839467D01*
X138141962Y-109842620D01*
X138136418Y-109845242D01*
X138130643Y-109847309D01*
X138124693Y-109848799D01*
X138118626Y-109849699D01*
X138112500Y-109850000D01*
X137987500Y-109850000D01*
X137981374Y-109849699D01*
X137975307Y-109848799D01*
X137969357Y-109847309D01*
X137963582Y-109845242D01*
X137958038Y-109842620D01*
X137952777Y-109839467D01*
X137947850Y-109835813D01*
X137943306Y-109831694D01*
X137939187Y-109827150D01*
X137935533Y-109822223D01*
X137932380Y-109816962D01*
X137929758Y-109811418D01*
X137927691Y-109805643D01*
X137926201Y-109799693D01*
X137925301Y-109793626D01*
X137925000Y-109787500D01*
X137925000Y-108837500D01*
X137925301Y-108831374D01*
X137926201Y-108825307D01*
X137927691Y-108819357D01*
X137929758Y-108813582D01*
X137932380Y-108808038D01*
X137935533Y-108802777D01*
X137939187Y-108797850D01*
X137943306Y-108793306D01*
X137947850Y-108789187D01*
X137952777Y-108785533D01*
X137958038Y-108782380D01*
X137963582Y-108779758D01*
X137969357Y-108777691D01*
X137975307Y-108776201D01*
X137981374Y-108775301D01*
X137987500Y-108775000D01*
X138112500Y-108775000D01*
X138118626Y-108775301D01*
G37*
G36*
X138618626Y-108775301D02*
G01*
X138624693Y-108776201D01*
X138630643Y-108777691D01*
X138636418Y-108779758D01*
X138641962Y-108782380D01*
X138647223Y-108785533D01*
X138652150Y-108789187D01*
X138656694Y-108793306D01*
X138660813Y-108797850D01*
X138664467Y-108802777D01*
X138667620Y-108808038D01*
X138670242Y-108813582D01*
X138672309Y-108819357D01*
X138673799Y-108825307D01*
X138674699Y-108831374D01*
X138675000Y-108837500D01*
X138675000Y-109787500D01*
X138674699Y-109793626D01*
X138673799Y-109799693D01*
X138672309Y-109805643D01*
X138670242Y-109811418D01*
X138667620Y-109816962D01*
X138664467Y-109822223D01*
X138660813Y-109827150D01*
X138656694Y-109831694D01*
X138652150Y-109835813D01*
X138647223Y-109839467D01*
X138641962Y-109842620D01*
X138636418Y-109845242D01*
X138630643Y-109847309D01*
X138624693Y-109848799D01*
X138618626Y-109849699D01*
X138612500Y-109850000D01*
X138487500Y-109850000D01*
X138481374Y-109849699D01*
X138475307Y-109848799D01*
X138469357Y-109847309D01*
X138463582Y-109845242D01*
X138458038Y-109842620D01*
X138452777Y-109839467D01*
X138447850Y-109835813D01*
X138443306Y-109831694D01*
X138439187Y-109827150D01*
X138435533Y-109822223D01*
X138432380Y-109816962D01*
X138429758Y-109811418D01*
X138427691Y-109805643D01*
X138426201Y-109799693D01*
X138425301Y-109793626D01*
X138425000Y-109787500D01*
X138425000Y-108837500D01*
X138425301Y-108831374D01*
X138426201Y-108825307D01*
X138427691Y-108819357D01*
X138429758Y-108813582D01*
X138432380Y-108808038D01*
X138435533Y-108802777D01*
X138439187Y-108797850D01*
X138443306Y-108793306D01*
X138447850Y-108789187D01*
X138452777Y-108785533D01*
X138458038Y-108782380D01*
X138463582Y-108779758D01*
X138469357Y-108777691D01*
X138475307Y-108776201D01*
X138481374Y-108775301D01*
X138487500Y-108775000D01*
X138612500Y-108775000D01*
X138618626Y-108775301D01*
G37*
G36*
X139118626Y-108775301D02*
G01*
X139124693Y-108776201D01*
X139130643Y-108777691D01*
X139136418Y-108779758D01*
X139141962Y-108782380D01*
X139147223Y-108785533D01*
X139152150Y-108789187D01*
X139156694Y-108793306D01*
X139160813Y-108797850D01*
X139164467Y-108802777D01*
X139167620Y-108808038D01*
X139170242Y-108813582D01*
X139172309Y-108819357D01*
X139173799Y-108825307D01*
X139174699Y-108831374D01*
X139175000Y-108837500D01*
X139175000Y-109787500D01*
X139174699Y-109793626D01*
X139173799Y-109799693D01*
X139172309Y-109805643D01*
X139170242Y-109811418D01*
X139167620Y-109816962D01*
X139164467Y-109822223D01*
X139160813Y-109827150D01*
X139156694Y-109831694D01*
X139152150Y-109835813D01*
X139147223Y-109839467D01*
X139141962Y-109842620D01*
X139136418Y-109845242D01*
X139130643Y-109847309D01*
X139124693Y-109848799D01*
X139118626Y-109849699D01*
X139112500Y-109850000D01*
X138987500Y-109850000D01*
X138981374Y-109849699D01*
X138975307Y-109848799D01*
X138969357Y-109847309D01*
X138963582Y-109845242D01*
X138958038Y-109842620D01*
X138952777Y-109839467D01*
X138947850Y-109835813D01*
X138943306Y-109831694D01*
X138939187Y-109827150D01*
X138935533Y-109822223D01*
X138932380Y-109816962D01*
X138929758Y-109811418D01*
X138927691Y-109805643D01*
X138926201Y-109799693D01*
X138925301Y-109793626D01*
X138925000Y-109787500D01*
X138925000Y-108837500D01*
X138925301Y-108831374D01*
X138926201Y-108825307D01*
X138927691Y-108819357D01*
X138929758Y-108813582D01*
X138932380Y-108808038D01*
X138935533Y-108802777D01*
X138939187Y-108797850D01*
X138943306Y-108793306D01*
X138947850Y-108789187D01*
X138952777Y-108785533D01*
X138958038Y-108782380D01*
X138963582Y-108779758D01*
X138969357Y-108777691D01*
X138975307Y-108776201D01*
X138981374Y-108775301D01*
X138987500Y-108775000D01*
X139112500Y-108775000D01*
X139118626Y-108775301D01*
G37*
G36*
X139618626Y-108775301D02*
G01*
X139624693Y-108776201D01*
X139630643Y-108777691D01*
X139636418Y-108779758D01*
X139641962Y-108782380D01*
X139647223Y-108785533D01*
X139652150Y-108789187D01*
X139656694Y-108793306D01*
X139660813Y-108797850D01*
X139664467Y-108802777D01*
X139667620Y-108808038D01*
X139670242Y-108813582D01*
X139672309Y-108819357D01*
X139673799Y-108825307D01*
X139674699Y-108831374D01*
X139675000Y-108837500D01*
X139675000Y-109787500D01*
X139674699Y-109793626D01*
X139673799Y-109799693D01*
X139672309Y-109805643D01*
X139670242Y-109811418D01*
X139667620Y-109816962D01*
X139664467Y-109822223D01*
X139660813Y-109827150D01*
X139656694Y-109831694D01*
X139652150Y-109835813D01*
X139647223Y-109839467D01*
X139641962Y-109842620D01*
X139636418Y-109845242D01*
X139630643Y-109847309D01*
X139624693Y-109848799D01*
X139618626Y-109849699D01*
X139612500Y-109850000D01*
X139487500Y-109850000D01*
X139481374Y-109849699D01*
X139475307Y-109848799D01*
X139469357Y-109847309D01*
X139463582Y-109845242D01*
X139458038Y-109842620D01*
X139452777Y-109839467D01*
X139447850Y-109835813D01*
X139443306Y-109831694D01*
X139439187Y-109827150D01*
X139435533Y-109822223D01*
X139432380Y-109816962D01*
X139429758Y-109811418D01*
X139427691Y-109805643D01*
X139426201Y-109799693D01*
X139425301Y-109793626D01*
X139425000Y-109787500D01*
X139425000Y-108837500D01*
X139425301Y-108831374D01*
X139426201Y-108825307D01*
X139427691Y-108819357D01*
X139429758Y-108813582D01*
X139432380Y-108808038D01*
X139435533Y-108802777D01*
X139439187Y-108797850D01*
X139443306Y-108793306D01*
X139447850Y-108789187D01*
X139452777Y-108785533D01*
X139458038Y-108782380D01*
X139463582Y-108779758D01*
X139469357Y-108777691D01*
X139475307Y-108776201D01*
X139481374Y-108775301D01*
X139487500Y-108775000D01*
X139612500Y-108775000D01*
X139618626Y-108775301D01*
G37*
G36*
X140118626Y-108775301D02*
G01*
X140124693Y-108776201D01*
X140130643Y-108777691D01*
X140136418Y-108779758D01*
X140141962Y-108782380D01*
X140147223Y-108785533D01*
X140152150Y-108789187D01*
X140156694Y-108793306D01*
X140160813Y-108797850D01*
X140164467Y-108802777D01*
X140167620Y-108808038D01*
X140170242Y-108813582D01*
X140172309Y-108819357D01*
X140173799Y-108825307D01*
X140174699Y-108831374D01*
X140175000Y-108837500D01*
X140175000Y-109787500D01*
X140174699Y-109793626D01*
X140173799Y-109799693D01*
X140172309Y-109805643D01*
X140170242Y-109811418D01*
X140167620Y-109816962D01*
X140164467Y-109822223D01*
X140160813Y-109827150D01*
X140156694Y-109831694D01*
X140152150Y-109835813D01*
X140147223Y-109839467D01*
X140141962Y-109842620D01*
X140136418Y-109845242D01*
X140130643Y-109847309D01*
X140124693Y-109848799D01*
X140118626Y-109849699D01*
X140112500Y-109850000D01*
X139987500Y-109850000D01*
X139981374Y-109849699D01*
X139975307Y-109848799D01*
X139969357Y-109847309D01*
X139963582Y-109845242D01*
X139958038Y-109842620D01*
X139952777Y-109839467D01*
X139947850Y-109835813D01*
X139943306Y-109831694D01*
X139939187Y-109827150D01*
X139935533Y-109822223D01*
X139932380Y-109816962D01*
X139929758Y-109811418D01*
X139927691Y-109805643D01*
X139926201Y-109799693D01*
X139925301Y-109793626D01*
X139925000Y-109787500D01*
X139925000Y-108837500D01*
X139925301Y-108831374D01*
X139926201Y-108825307D01*
X139927691Y-108819357D01*
X139929758Y-108813582D01*
X139932380Y-108808038D01*
X139935533Y-108802777D01*
X139939187Y-108797850D01*
X139943306Y-108793306D01*
X139947850Y-108789187D01*
X139952777Y-108785533D01*
X139958038Y-108782380D01*
X139963582Y-108779758D01*
X139969357Y-108777691D01*
X139975307Y-108776201D01*
X139981374Y-108775301D01*
X139987500Y-108775000D01*
X140112500Y-108775000D01*
X140118626Y-108775301D01*
G37*
G36*
X141368626Y-110025301D02*
G01*
X141374693Y-110026201D01*
X141380643Y-110027691D01*
X141386418Y-110029758D01*
X141391962Y-110032380D01*
X141397223Y-110035533D01*
X141402150Y-110039187D01*
X141406694Y-110043306D01*
X141410813Y-110047850D01*
X141414467Y-110052777D01*
X141417620Y-110058038D01*
X141420242Y-110063582D01*
X141422309Y-110069357D01*
X141423799Y-110075307D01*
X141424699Y-110081374D01*
X141425000Y-110087500D01*
X141425000Y-110212500D01*
X141424699Y-110218626D01*
X141423799Y-110224693D01*
X141422309Y-110230643D01*
X141420242Y-110236418D01*
X141417620Y-110241962D01*
X141414467Y-110247223D01*
X141410813Y-110252150D01*
X141406694Y-110256694D01*
X141402150Y-110260813D01*
X141397223Y-110264467D01*
X141391962Y-110267620D01*
X141386418Y-110270242D01*
X141380643Y-110272309D01*
X141374693Y-110273799D01*
X141368626Y-110274699D01*
X141362500Y-110275000D01*
X140412500Y-110275000D01*
X140406374Y-110274699D01*
X140400307Y-110273799D01*
X140394357Y-110272309D01*
X140388582Y-110270242D01*
X140383038Y-110267620D01*
X140377777Y-110264467D01*
X140372850Y-110260813D01*
X140368306Y-110256694D01*
X140364187Y-110252150D01*
X140360533Y-110247223D01*
X140357380Y-110241962D01*
X140354758Y-110236418D01*
X140352691Y-110230643D01*
X140351201Y-110224693D01*
X140350301Y-110218626D01*
X140350000Y-110212500D01*
X140350000Y-110087500D01*
X140350301Y-110081374D01*
X140351201Y-110075307D01*
X140352691Y-110069357D01*
X140354758Y-110063582D01*
X140357380Y-110058038D01*
X140360533Y-110052777D01*
X140364187Y-110047850D01*
X140368306Y-110043306D01*
X140372850Y-110039187D01*
X140377777Y-110035533D01*
X140383038Y-110032380D01*
X140388582Y-110029758D01*
X140394357Y-110027691D01*
X140400307Y-110026201D01*
X140406374Y-110025301D01*
X140412500Y-110025000D01*
X141362500Y-110025000D01*
X141368626Y-110025301D01*
G37*
G36*
X141368626Y-110525301D02*
G01*
X141374693Y-110526201D01*
X141380643Y-110527691D01*
X141386418Y-110529758D01*
X141391962Y-110532380D01*
X141397223Y-110535533D01*
X141402150Y-110539187D01*
X141406694Y-110543306D01*
X141410813Y-110547850D01*
X141414467Y-110552777D01*
X141417620Y-110558038D01*
X141420242Y-110563582D01*
X141422309Y-110569357D01*
X141423799Y-110575307D01*
X141424699Y-110581374D01*
X141425000Y-110587500D01*
X141425000Y-110712500D01*
X141424699Y-110718626D01*
X141423799Y-110724693D01*
X141422309Y-110730643D01*
X141420242Y-110736418D01*
X141417620Y-110741962D01*
X141414467Y-110747223D01*
X141410813Y-110752150D01*
X141406694Y-110756694D01*
X141402150Y-110760813D01*
X141397223Y-110764467D01*
X141391962Y-110767620D01*
X141386418Y-110770242D01*
X141380643Y-110772309D01*
X141374693Y-110773799D01*
X141368626Y-110774699D01*
X141362500Y-110775000D01*
X140412500Y-110775000D01*
X140406374Y-110774699D01*
X140400307Y-110773799D01*
X140394357Y-110772309D01*
X140388582Y-110770242D01*
X140383038Y-110767620D01*
X140377777Y-110764467D01*
X140372850Y-110760813D01*
X140368306Y-110756694D01*
X140364187Y-110752150D01*
X140360533Y-110747223D01*
X140357380Y-110741962D01*
X140354758Y-110736418D01*
X140352691Y-110730643D01*
X140351201Y-110724693D01*
X140350301Y-110718626D01*
X140350000Y-110712500D01*
X140350000Y-110587500D01*
X140350301Y-110581374D01*
X140351201Y-110575307D01*
X140352691Y-110569357D01*
X140354758Y-110563582D01*
X140357380Y-110558038D01*
X140360533Y-110552777D01*
X140364187Y-110547850D01*
X140368306Y-110543306D01*
X140372850Y-110539187D01*
X140377777Y-110535533D01*
X140383038Y-110532380D01*
X140388582Y-110529758D01*
X140394357Y-110527691D01*
X140400307Y-110526201D01*
X140406374Y-110525301D01*
X140412500Y-110525000D01*
X141362500Y-110525000D01*
X141368626Y-110525301D01*
G37*
G36*
X141368626Y-111025301D02*
G01*
X141374693Y-111026201D01*
X141380643Y-111027691D01*
X141386418Y-111029758D01*
X141391962Y-111032380D01*
X141397223Y-111035533D01*
X141402150Y-111039187D01*
X141406694Y-111043306D01*
X141410813Y-111047850D01*
X141414467Y-111052777D01*
X141417620Y-111058038D01*
X141420242Y-111063582D01*
X141422309Y-111069357D01*
X141423799Y-111075307D01*
X141424699Y-111081374D01*
X141425000Y-111087500D01*
X141425000Y-111212500D01*
X141424699Y-111218626D01*
X141423799Y-111224693D01*
X141422309Y-111230643D01*
X141420242Y-111236418D01*
X141417620Y-111241962D01*
X141414467Y-111247223D01*
X141410813Y-111252150D01*
X141406694Y-111256694D01*
X141402150Y-111260813D01*
X141397223Y-111264467D01*
X141391962Y-111267620D01*
X141386418Y-111270242D01*
X141380643Y-111272309D01*
X141374693Y-111273799D01*
X141368626Y-111274699D01*
X141362500Y-111275000D01*
X140412500Y-111275000D01*
X140406374Y-111274699D01*
X140400307Y-111273799D01*
X140394357Y-111272309D01*
X140388582Y-111270242D01*
X140383038Y-111267620D01*
X140377777Y-111264467D01*
X140372850Y-111260813D01*
X140368306Y-111256694D01*
X140364187Y-111252150D01*
X140360533Y-111247223D01*
X140357380Y-111241962D01*
X140354758Y-111236418D01*
X140352691Y-111230643D01*
X140351201Y-111224693D01*
X140350301Y-111218626D01*
X140350000Y-111212500D01*
X140350000Y-111087500D01*
X140350301Y-111081374D01*
X140351201Y-111075307D01*
X140352691Y-111069357D01*
X140354758Y-111063582D01*
X140357380Y-111058038D01*
X140360533Y-111052777D01*
X140364187Y-111047850D01*
X140368306Y-111043306D01*
X140372850Y-111039187D01*
X140377777Y-111035533D01*
X140383038Y-111032380D01*
X140388582Y-111029758D01*
X140394357Y-111027691D01*
X140400307Y-111026201D01*
X140406374Y-111025301D01*
X140412500Y-111025000D01*
X141362500Y-111025000D01*
X141368626Y-111025301D01*
G37*
G36*
X141368626Y-111525301D02*
G01*
X141374693Y-111526201D01*
X141380643Y-111527691D01*
X141386418Y-111529758D01*
X141391962Y-111532380D01*
X141397223Y-111535533D01*
X141402150Y-111539187D01*
X141406694Y-111543306D01*
X141410813Y-111547850D01*
X141414467Y-111552777D01*
X141417620Y-111558038D01*
X141420242Y-111563582D01*
X141422309Y-111569357D01*
X141423799Y-111575307D01*
X141424699Y-111581374D01*
X141425000Y-111587500D01*
X141425000Y-111712500D01*
X141424699Y-111718626D01*
X141423799Y-111724693D01*
X141422309Y-111730643D01*
X141420242Y-111736418D01*
X141417620Y-111741962D01*
X141414467Y-111747223D01*
X141410813Y-111752150D01*
X141406694Y-111756694D01*
X141402150Y-111760813D01*
X141397223Y-111764467D01*
X141391962Y-111767620D01*
X141386418Y-111770242D01*
X141380643Y-111772309D01*
X141374693Y-111773799D01*
X141368626Y-111774699D01*
X141362500Y-111775000D01*
X140412500Y-111775000D01*
X140406374Y-111774699D01*
X140400307Y-111773799D01*
X140394357Y-111772309D01*
X140388582Y-111770242D01*
X140383038Y-111767620D01*
X140377777Y-111764467D01*
X140372850Y-111760813D01*
X140368306Y-111756694D01*
X140364187Y-111752150D01*
X140360533Y-111747223D01*
X140357380Y-111741962D01*
X140354758Y-111736418D01*
X140352691Y-111730643D01*
X140351201Y-111724693D01*
X140350301Y-111718626D01*
X140350000Y-111712500D01*
X140350000Y-111587500D01*
X140350301Y-111581374D01*
X140351201Y-111575307D01*
X140352691Y-111569357D01*
X140354758Y-111563582D01*
X140357380Y-111558038D01*
X140360533Y-111552777D01*
X140364187Y-111547850D01*
X140368306Y-111543306D01*
X140372850Y-111539187D01*
X140377777Y-111535533D01*
X140383038Y-111532380D01*
X140388582Y-111529758D01*
X140394357Y-111527691D01*
X140400307Y-111526201D01*
X140406374Y-111525301D01*
X140412500Y-111525000D01*
X141362500Y-111525000D01*
X141368626Y-111525301D01*
G37*
G36*
X141368626Y-112025301D02*
G01*
X141374693Y-112026201D01*
X141380643Y-112027691D01*
X141386418Y-112029758D01*
X141391962Y-112032380D01*
X141397223Y-112035533D01*
X141402150Y-112039187D01*
X141406694Y-112043306D01*
X141410813Y-112047850D01*
X141414467Y-112052777D01*
X141417620Y-112058038D01*
X141420242Y-112063582D01*
X141422309Y-112069357D01*
X141423799Y-112075307D01*
X141424699Y-112081374D01*
X141425000Y-112087500D01*
X141425000Y-112212500D01*
X141424699Y-112218626D01*
X141423799Y-112224693D01*
X141422309Y-112230643D01*
X141420242Y-112236418D01*
X141417620Y-112241962D01*
X141414467Y-112247223D01*
X141410813Y-112252150D01*
X141406694Y-112256694D01*
X141402150Y-112260813D01*
X141397223Y-112264467D01*
X141391962Y-112267620D01*
X141386418Y-112270242D01*
X141380643Y-112272309D01*
X141374693Y-112273799D01*
X141368626Y-112274699D01*
X141362500Y-112275000D01*
X140412500Y-112275000D01*
X140406374Y-112274699D01*
X140400307Y-112273799D01*
X140394357Y-112272309D01*
X140388582Y-112270242D01*
X140383038Y-112267620D01*
X140377777Y-112264467D01*
X140372850Y-112260813D01*
X140368306Y-112256694D01*
X140364187Y-112252150D01*
X140360533Y-112247223D01*
X140357380Y-112241962D01*
X140354758Y-112236418D01*
X140352691Y-112230643D01*
X140351201Y-112224693D01*
X140350301Y-112218626D01*
X140350000Y-112212500D01*
X140350000Y-112087500D01*
X140350301Y-112081374D01*
X140351201Y-112075307D01*
X140352691Y-112069357D01*
X140354758Y-112063582D01*
X140357380Y-112058038D01*
X140360533Y-112052777D01*
X140364187Y-112047850D01*
X140368306Y-112043306D01*
X140372850Y-112039187D01*
X140377777Y-112035533D01*
X140383038Y-112032380D01*
X140388582Y-112029758D01*
X140394357Y-112027691D01*
X140400307Y-112026201D01*
X140406374Y-112025301D01*
X140412500Y-112025000D01*
X141362500Y-112025000D01*
X141368626Y-112025301D01*
G37*
G36*
X141368626Y-112525301D02*
G01*
X141374693Y-112526201D01*
X141380643Y-112527691D01*
X141386418Y-112529758D01*
X141391962Y-112532380D01*
X141397223Y-112535533D01*
X141402150Y-112539187D01*
X141406694Y-112543306D01*
X141410813Y-112547850D01*
X141414467Y-112552777D01*
X141417620Y-112558038D01*
X141420242Y-112563582D01*
X141422309Y-112569357D01*
X141423799Y-112575307D01*
X141424699Y-112581374D01*
X141425000Y-112587500D01*
X141425000Y-112712500D01*
X141424699Y-112718626D01*
X141423799Y-112724693D01*
X141422309Y-112730643D01*
X141420242Y-112736418D01*
X141417620Y-112741962D01*
X141414467Y-112747223D01*
X141410813Y-112752150D01*
X141406694Y-112756694D01*
X141402150Y-112760813D01*
X141397223Y-112764467D01*
X141391962Y-112767620D01*
X141386418Y-112770242D01*
X141380643Y-112772309D01*
X141374693Y-112773799D01*
X141368626Y-112774699D01*
X141362500Y-112775000D01*
X140412500Y-112775000D01*
X140406374Y-112774699D01*
X140400307Y-112773799D01*
X140394357Y-112772309D01*
X140388582Y-112770242D01*
X140383038Y-112767620D01*
X140377777Y-112764467D01*
X140372850Y-112760813D01*
X140368306Y-112756694D01*
X140364187Y-112752150D01*
X140360533Y-112747223D01*
X140357380Y-112741962D01*
X140354758Y-112736418D01*
X140352691Y-112730643D01*
X140351201Y-112724693D01*
X140350301Y-112718626D01*
X140350000Y-112712500D01*
X140350000Y-112587500D01*
X140350301Y-112581374D01*
X140351201Y-112575307D01*
X140352691Y-112569357D01*
X140354758Y-112563582D01*
X140357380Y-112558038D01*
X140360533Y-112552777D01*
X140364187Y-112547850D01*
X140368306Y-112543306D01*
X140372850Y-112539187D01*
X140377777Y-112535533D01*
X140383038Y-112532380D01*
X140388582Y-112529758D01*
X140394357Y-112527691D01*
X140400307Y-112526201D01*
X140406374Y-112525301D01*
X140412500Y-112525000D01*
X141362500Y-112525000D01*
X141368626Y-112525301D01*
G37*
G36*
X141368626Y-113025301D02*
G01*
X141374693Y-113026201D01*
X141380643Y-113027691D01*
X141386418Y-113029758D01*
X141391962Y-113032380D01*
X141397223Y-113035533D01*
X141402150Y-113039187D01*
X141406694Y-113043306D01*
X141410813Y-113047850D01*
X141414467Y-113052777D01*
X141417620Y-113058038D01*
X141420242Y-113063582D01*
X141422309Y-113069357D01*
X141423799Y-113075307D01*
X141424699Y-113081374D01*
X141425000Y-113087500D01*
X141425000Y-113212500D01*
X141424699Y-113218626D01*
X141423799Y-113224693D01*
X141422309Y-113230643D01*
X141420242Y-113236418D01*
X141417620Y-113241962D01*
X141414467Y-113247223D01*
X141410813Y-113252150D01*
X141406694Y-113256694D01*
X141402150Y-113260813D01*
X141397223Y-113264467D01*
X141391962Y-113267620D01*
X141386418Y-113270242D01*
X141380643Y-113272309D01*
X141374693Y-113273799D01*
X141368626Y-113274699D01*
X141362500Y-113275000D01*
X140412500Y-113275000D01*
X140406374Y-113274699D01*
X140400307Y-113273799D01*
X140394357Y-113272309D01*
X140388582Y-113270242D01*
X140383038Y-113267620D01*
X140377777Y-113264467D01*
X140372850Y-113260813D01*
X140368306Y-113256694D01*
X140364187Y-113252150D01*
X140360533Y-113247223D01*
X140357380Y-113241962D01*
X140354758Y-113236418D01*
X140352691Y-113230643D01*
X140351201Y-113224693D01*
X140350301Y-113218626D01*
X140350000Y-113212500D01*
X140350000Y-113087500D01*
X140350301Y-113081374D01*
X140351201Y-113075307D01*
X140352691Y-113069357D01*
X140354758Y-113063582D01*
X140357380Y-113058038D01*
X140360533Y-113052777D01*
X140364187Y-113047850D01*
X140368306Y-113043306D01*
X140372850Y-113039187D01*
X140377777Y-113035533D01*
X140383038Y-113032380D01*
X140388582Y-113029758D01*
X140394357Y-113027691D01*
X140400307Y-113026201D01*
X140406374Y-113025301D01*
X140412500Y-113025000D01*
X141362500Y-113025000D01*
X141368626Y-113025301D01*
G37*
G36*
X141368626Y-113525301D02*
G01*
X141374693Y-113526201D01*
X141380643Y-113527691D01*
X141386418Y-113529758D01*
X141391962Y-113532380D01*
X141397223Y-113535533D01*
X141402150Y-113539187D01*
X141406694Y-113543306D01*
X141410813Y-113547850D01*
X141414467Y-113552777D01*
X141417620Y-113558038D01*
X141420242Y-113563582D01*
X141422309Y-113569357D01*
X141423799Y-113575307D01*
X141424699Y-113581374D01*
X141425000Y-113587500D01*
X141425000Y-113712500D01*
X141424699Y-113718626D01*
X141423799Y-113724693D01*
X141422309Y-113730643D01*
X141420242Y-113736418D01*
X141417620Y-113741962D01*
X141414467Y-113747223D01*
X141410813Y-113752150D01*
X141406694Y-113756694D01*
X141402150Y-113760813D01*
X141397223Y-113764467D01*
X141391962Y-113767620D01*
X141386418Y-113770242D01*
X141380643Y-113772309D01*
X141374693Y-113773799D01*
X141368626Y-113774699D01*
X141362500Y-113775000D01*
X140412500Y-113775000D01*
X140406374Y-113774699D01*
X140400307Y-113773799D01*
X140394357Y-113772309D01*
X140388582Y-113770242D01*
X140383038Y-113767620D01*
X140377777Y-113764467D01*
X140372850Y-113760813D01*
X140368306Y-113756694D01*
X140364187Y-113752150D01*
X140360533Y-113747223D01*
X140357380Y-113741962D01*
X140354758Y-113736418D01*
X140352691Y-113730643D01*
X140351201Y-113724693D01*
X140350301Y-113718626D01*
X140350000Y-113712500D01*
X140350000Y-113587500D01*
X140350301Y-113581374D01*
X140351201Y-113575307D01*
X140352691Y-113569357D01*
X140354758Y-113563582D01*
X140357380Y-113558038D01*
X140360533Y-113552777D01*
X140364187Y-113547850D01*
X140368306Y-113543306D01*
X140372850Y-113539187D01*
X140377777Y-113535533D01*
X140383038Y-113532380D01*
X140388582Y-113529758D01*
X140394357Y-113527691D01*
X140400307Y-113526201D01*
X140406374Y-113525301D01*
X140412500Y-113525000D01*
X141362500Y-113525000D01*
X141368626Y-113525301D01*
G37*
G36*
X141368626Y-114025301D02*
G01*
X141374693Y-114026201D01*
X141380643Y-114027691D01*
X141386418Y-114029758D01*
X141391962Y-114032380D01*
X141397223Y-114035533D01*
X141402150Y-114039187D01*
X141406694Y-114043306D01*
X141410813Y-114047850D01*
X141414467Y-114052777D01*
X141417620Y-114058038D01*
X141420242Y-114063582D01*
X141422309Y-114069357D01*
X141423799Y-114075307D01*
X141424699Y-114081374D01*
X141425000Y-114087500D01*
X141425000Y-114212500D01*
X141424699Y-114218626D01*
X141423799Y-114224693D01*
X141422309Y-114230643D01*
X141420242Y-114236418D01*
X141417620Y-114241962D01*
X141414467Y-114247223D01*
X141410813Y-114252150D01*
X141406694Y-114256694D01*
X141402150Y-114260813D01*
X141397223Y-114264467D01*
X141391962Y-114267620D01*
X141386418Y-114270242D01*
X141380643Y-114272309D01*
X141374693Y-114273799D01*
X141368626Y-114274699D01*
X141362500Y-114275000D01*
X140412500Y-114275000D01*
X140406374Y-114274699D01*
X140400307Y-114273799D01*
X140394357Y-114272309D01*
X140388582Y-114270242D01*
X140383038Y-114267620D01*
X140377777Y-114264467D01*
X140372850Y-114260813D01*
X140368306Y-114256694D01*
X140364187Y-114252150D01*
X140360533Y-114247223D01*
X140357380Y-114241962D01*
X140354758Y-114236418D01*
X140352691Y-114230643D01*
X140351201Y-114224693D01*
X140350301Y-114218626D01*
X140350000Y-114212500D01*
X140350000Y-114087500D01*
X140350301Y-114081374D01*
X140351201Y-114075307D01*
X140352691Y-114069357D01*
X140354758Y-114063582D01*
X140357380Y-114058038D01*
X140360533Y-114052777D01*
X140364187Y-114047850D01*
X140368306Y-114043306D01*
X140372850Y-114039187D01*
X140377777Y-114035533D01*
X140383038Y-114032380D01*
X140388582Y-114029758D01*
X140394357Y-114027691D01*
X140400307Y-114026201D01*
X140406374Y-114025301D01*
X140412500Y-114025000D01*
X141362500Y-114025000D01*
X141368626Y-114025301D01*
G37*
G36*
X141368626Y-114525301D02*
G01*
X141374693Y-114526201D01*
X141380643Y-114527691D01*
X141386418Y-114529758D01*
X141391962Y-114532380D01*
X141397223Y-114535533D01*
X141402150Y-114539187D01*
X141406694Y-114543306D01*
X141410813Y-114547850D01*
X141414467Y-114552777D01*
X141417620Y-114558038D01*
X141420242Y-114563582D01*
X141422309Y-114569357D01*
X141423799Y-114575307D01*
X141424699Y-114581374D01*
X141425000Y-114587500D01*
X141425000Y-114712500D01*
X141424699Y-114718626D01*
X141423799Y-114724693D01*
X141422309Y-114730643D01*
X141420242Y-114736418D01*
X141417620Y-114741962D01*
X141414467Y-114747223D01*
X141410813Y-114752150D01*
X141406694Y-114756694D01*
X141402150Y-114760813D01*
X141397223Y-114764467D01*
X141391962Y-114767620D01*
X141386418Y-114770242D01*
X141380643Y-114772309D01*
X141374693Y-114773799D01*
X141368626Y-114774699D01*
X141362500Y-114775000D01*
X140412500Y-114775000D01*
X140406374Y-114774699D01*
X140400307Y-114773799D01*
X140394357Y-114772309D01*
X140388582Y-114770242D01*
X140383038Y-114767620D01*
X140377777Y-114764467D01*
X140372850Y-114760813D01*
X140368306Y-114756694D01*
X140364187Y-114752150D01*
X140360533Y-114747223D01*
X140357380Y-114741962D01*
X140354758Y-114736418D01*
X140352691Y-114730643D01*
X140351201Y-114724693D01*
X140350301Y-114718626D01*
X140350000Y-114712500D01*
X140350000Y-114587500D01*
X140350301Y-114581374D01*
X140351201Y-114575307D01*
X140352691Y-114569357D01*
X140354758Y-114563582D01*
X140357380Y-114558038D01*
X140360533Y-114552777D01*
X140364187Y-114547850D01*
X140368306Y-114543306D01*
X140372850Y-114539187D01*
X140377777Y-114535533D01*
X140383038Y-114532380D01*
X140388582Y-114529758D01*
X140394357Y-114527691D01*
X140400307Y-114526201D01*
X140406374Y-114525301D01*
X140412500Y-114525000D01*
X141362500Y-114525000D01*
X141368626Y-114525301D01*
G37*
G36*
X141368626Y-115025301D02*
G01*
X141374693Y-115026201D01*
X141380643Y-115027691D01*
X141386418Y-115029758D01*
X141391962Y-115032380D01*
X141397223Y-115035533D01*
X141402150Y-115039187D01*
X141406694Y-115043306D01*
X141410813Y-115047850D01*
X141414467Y-115052777D01*
X141417620Y-115058038D01*
X141420242Y-115063582D01*
X141422309Y-115069357D01*
X141423799Y-115075307D01*
X141424699Y-115081374D01*
X141425000Y-115087500D01*
X141425000Y-115212500D01*
X141424699Y-115218626D01*
X141423799Y-115224693D01*
X141422309Y-115230643D01*
X141420242Y-115236418D01*
X141417620Y-115241962D01*
X141414467Y-115247223D01*
X141410813Y-115252150D01*
X141406694Y-115256694D01*
X141402150Y-115260813D01*
X141397223Y-115264467D01*
X141391962Y-115267620D01*
X141386418Y-115270242D01*
X141380643Y-115272309D01*
X141374693Y-115273799D01*
X141368626Y-115274699D01*
X141362500Y-115275000D01*
X140412500Y-115275000D01*
X140406374Y-115274699D01*
X140400307Y-115273799D01*
X140394357Y-115272309D01*
X140388582Y-115270242D01*
X140383038Y-115267620D01*
X140377777Y-115264467D01*
X140372850Y-115260813D01*
X140368306Y-115256694D01*
X140364187Y-115252150D01*
X140360533Y-115247223D01*
X140357380Y-115241962D01*
X140354758Y-115236418D01*
X140352691Y-115230643D01*
X140351201Y-115224693D01*
X140350301Y-115218626D01*
X140350000Y-115212500D01*
X140350000Y-115087500D01*
X140350301Y-115081374D01*
X140351201Y-115075307D01*
X140352691Y-115069357D01*
X140354758Y-115063582D01*
X140357380Y-115058038D01*
X140360533Y-115052777D01*
X140364187Y-115047850D01*
X140368306Y-115043306D01*
X140372850Y-115039187D01*
X140377777Y-115035533D01*
X140383038Y-115032380D01*
X140388582Y-115029758D01*
X140394357Y-115027691D01*
X140400307Y-115026201D01*
X140406374Y-115025301D01*
X140412500Y-115025000D01*
X141362500Y-115025000D01*
X141368626Y-115025301D01*
G37*
G36*
X140118626Y-115450301D02*
G01*
X140124693Y-115451201D01*
X140130643Y-115452691D01*
X140136418Y-115454758D01*
X140141962Y-115457380D01*
X140147223Y-115460533D01*
X140152150Y-115464187D01*
X140156694Y-115468306D01*
X140160813Y-115472850D01*
X140164467Y-115477777D01*
X140167620Y-115483038D01*
X140170242Y-115488582D01*
X140172309Y-115494357D01*
X140173799Y-115500307D01*
X140174699Y-115506374D01*
X140175000Y-115512500D01*
X140175000Y-116462500D01*
X140174699Y-116468626D01*
X140173799Y-116474693D01*
X140172309Y-116480643D01*
X140170242Y-116486418D01*
X140167620Y-116491962D01*
X140164467Y-116497223D01*
X140160813Y-116502150D01*
X140156694Y-116506694D01*
X140152150Y-116510813D01*
X140147223Y-116514467D01*
X140141962Y-116517620D01*
X140136418Y-116520242D01*
X140130643Y-116522309D01*
X140124693Y-116523799D01*
X140118626Y-116524699D01*
X140112500Y-116525000D01*
X139987500Y-116525000D01*
X139981374Y-116524699D01*
X139975307Y-116523799D01*
X139969357Y-116522309D01*
X139963582Y-116520242D01*
X139958038Y-116517620D01*
X139952777Y-116514467D01*
X139947850Y-116510813D01*
X139943306Y-116506694D01*
X139939187Y-116502150D01*
X139935533Y-116497223D01*
X139932380Y-116491962D01*
X139929758Y-116486418D01*
X139927691Y-116480643D01*
X139926201Y-116474693D01*
X139925301Y-116468626D01*
X139925000Y-116462500D01*
X139925000Y-115512500D01*
X139925301Y-115506374D01*
X139926201Y-115500307D01*
X139927691Y-115494357D01*
X139929758Y-115488582D01*
X139932380Y-115483038D01*
X139935533Y-115477777D01*
X139939187Y-115472850D01*
X139943306Y-115468306D01*
X139947850Y-115464187D01*
X139952777Y-115460533D01*
X139958038Y-115457380D01*
X139963582Y-115454758D01*
X139969357Y-115452691D01*
X139975307Y-115451201D01*
X139981374Y-115450301D01*
X139987500Y-115450000D01*
X140112500Y-115450000D01*
X140118626Y-115450301D01*
G37*
G36*
X139618626Y-115450301D02*
G01*
X139624693Y-115451201D01*
X139630643Y-115452691D01*
X139636418Y-115454758D01*
X139641962Y-115457380D01*
X139647223Y-115460533D01*
X139652150Y-115464187D01*
X139656694Y-115468306D01*
X139660813Y-115472850D01*
X139664467Y-115477777D01*
X139667620Y-115483038D01*
X139670242Y-115488582D01*
X139672309Y-115494357D01*
X139673799Y-115500307D01*
X139674699Y-115506374D01*
X139675000Y-115512500D01*
X139675000Y-116462500D01*
X139674699Y-116468626D01*
X139673799Y-116474693D01*
X139672309Y-116480643D01*
X139670242Y-116486418D01*
X139667620Y-116491962D01*
X139664467Y-116497223D01*
X139660813Y-116502150D01*
X139656694Y-116506694D01*
X139652150Y-116510813D01*
X139647223Y-116514467D01*
X139641962Y-116517620D01*
X139636418Y-116520242D01*
X139630643Y-116522309D01*
X139624693Y-116523799D01*
X139618626Y-116524699D01*
X139612500Y-116525000D01*
X139487500Y-116525000D01*
X139481374Y-116524699D01*
X139475307Y-116523799D01*
X139469357Y-116522309D01*
X139463582Y-116520242D01*
X139458038Y-116517620D01*
X139452777Y-116514467D01*
X139447850Y-116510813D01*
X139443306Y-116506694D01*
X139439187Y-116502150D01*
X139435533Y-116497223D01*
X139432380Y-116491962D01*
X139429758Y-116486418D01*
X139427691Y-116480643D01*
X139426201Y-116474693D01*
X139425301Y-116468626D01*
X139425000Y-116462500D01*
X139425000Y-115512500D01*
X139425301Y-115506374D01*
X139426201Y-115500307D01*
X139427691Y-115494357D01*
X139429758Y-115488582D01*
X139432380Y-115483038D01*
X139435533Y-115477777D01*
X139439187Y-115472850D01*
X139443306Y-115468306D01*
X139447850Y-115464187D01*
X139452777Y-115460533D01*
X139458038Y-115457380D01*
X139463582Y-115454758D01*
X139469357Y-115452691D01*
X139475307Y-115451201D01*
X139481374Y-115450301D01*
X139487500Y-115450000D01*
X139612500Y-115450000D01*
X139618626Y-115450301D01*
G37*
G36*
X139118626Y-115450301D02*
G01*
X139124693Y-115451201D01*
X139130643Y-115452691D01*
X139136418Y-115454758D01*
X139141962Y-115457380D01*
X139147223Y-115460533D01*
X139152150Y-115464187D01*
X139156694Y-115468306D01*
X139160813Y-115472850D01*
X139164467Y-115477777D01*
X139167620Y-115483038D01*
X139170242Y-115488582D01*
X139172309Y-115494357D01*
X139173799Y-115500307D01*
X139174699Y-115506374D01*
X139175000Y-115512500D01*
X139175000Y-116462500D01*
X139174699Y-116468626D01*
X139173799Y-116474693D01*
X139172309Y-116480643D01*
X139170242Y-116486418D01*
X139167620Y-116491962D01*
X139164467Y-116497223D01*
X139160813Y-116502150D01*
X139156694Y-116506694D01*
X139152150Y-116510813D01*
X139147223Y-116514467D01*
X139141962Y-116517620D01*
X139136418Y-116520242D01*
X139130643Y-116522309D01*
X139124693Y-116523799D01*
X139118626Y-116524699D01*
X139112500Y-116525000D01*
X138987500Y-116525000D01*
X138981374Y-116524699D01*
X138975307Y-116523799D01*
X138969357Y-116522309D01*
X138963582Y-116520242D01*
X138958038Y-116517620D01*
X138952777Y-116514467D01*
X138947850Y-116510813D01*
X138943306Y-116506694D01*
X138939187Y-116502150D01*
X138935533Y-116497223D01*
X138932380Y-116491962D01*
X138929758Y-116486418D01*
X138927691Y-116480643D01*
X138926201Y-116474693D01*
X138925301Y-116468626D01*
X138925000Y-116462500D01*
X138925000Y-115512500D01*
X138925301Y-115506374D01*
X138926201Y-115500307D01*
X138927691Y-115494357D01*
X138929758Y-115488582D01*
X138932380Y-115483038D01*
X138935533Y-115477777D01*
X138939187Y-115472850D01*
X138943306Y-115468306D01*
X138947850Y-115464187D01*
X138952777Y-115460533D01*
X138958038Y-115457380D01*
X138963582Y-115454758D01*
X138969357Y-115452691D01*
X138975307Y-115451201D01*
X138981374Y-115450301D01*
X138987500Y-115450000D01*
X139112500Y-115450000D01*
X139118626Y-115450301D01*
G37*
G36*
X138618626Y-115450301D02*
G01*
X138624693Y-115451201D01*
X138630643Y-115452691D01*
X138636418Y-115454758D01*
X138641962Y-115457380D01*
X138647223Y-115460533D01*
X138652150Y-115464187D01*
X138656694Y-115468306D01*
X138660813Y-115472850D01*
X138664467Y-115477777D01*
X138667620Y-115483038D01*
X138670242Y-115488582D01*
X138672309Y-115494357D01*
X138673799Y-115500307D01*
X138674699Y-115506374D01*
X138675000Y-115512500D01*
X138675000Y-116462500D01*
X138674699Y-116468626D01*
X138673799Y-116474693D01*
X138672309Y-116480643D01*
X138670242Y-116486418D01*
X138667620Y-116491962D01*
X138664467Y-116497223D01*
X138660813Y-116502150D01*
X138656694Y-116506694D01*
X138652150Y-116510813D01*
X138647223Y-116514467D01*
X138641962Y-116517620D01*
X138636418Y-116520242D01*
X138630643Y-116522309D01*
X138624693Y-116523799D01*
X138618626Y-116524699D01*
X138612500Y-116525000D01*
X138487500Y-116525000D01*
X138481374Y-116524699D01*
X138475307Y-116523799D01*
X138469357Y-116522309D01*
X138463582Y-116520242D01*
X138458038Y-116517620D01*
X138452777Y-116514467D01*
X138447850Y-116510813D01*
X138443306Y-116506694D01*
X138439187Y-116502150D01*
X138435533Y-116497223D01*
X138432380Y-116491962D01*
X138429758Y-116486418D01*
X138427691Y-116480643D01*
X138426201Y-116474693D01*
X138425301Y-116468626D01*
X138425000Y-116462500D01*
X138425000Y-115512500D01*
X138425301Y-115506374D01*
X138426201Y-115500307D01*
X138427691Y-115494357D01*
X138429758Y-115488582D01*
X138432380Y-115483038D01*
X138435533Y-115477777D01*
X138439187Y-115472850D01*
X138443306Y-115468306D01*
X138447850Y-115464187D01*
X138452777Y-115460533D01*
X138458038Y-115457380D01*
X138463582Y-115454758D01*
X138469357Y-115452691D01*
X138475307Y-115451201D01*
X138481374Y-115450301D01*
X138487500Y-115450000D01*
X138612500Y-115450000D01*
X138618626Y-115450301D01*
G37*
G36*
X138118626Y-115450301D02*
G01*
X138124693Y-115451201D01*
X138130643Y-115452691D01*
X138136418Y-115454758D01*
X138141962Y-115457380D01*
X138147223Y-115460533D01*
X138152150Y-115464187D01*
X138156694Y-115468306D01*
X138160813Y-115472850D01*
X138164467Y-115477777D01*
X138167620Y-115483038D01*
X138170242Y-115488582D01*
X138172309Y-115494357D01*
X138173799Y-115500307D01*
X138174699Y-115506374D01*
X138175000Y-115512500D01*
X138175000Y-116462500D01*
X138174699Y-116468626D01*
X138173799Y-116474693D01*
X138172309Y-116480643D01*
X138170242Y-116486418D01*
X138167620Y-116491962D01*
X138164467Y-116497223D01*
X138160813Y-116502150D01*
X138156694Y-116506694D01*
X138152150Y-116510813D01*
X138147223Y-116514467D01*
X138141962Y-116517620D01*
X138136418Y-116520242D01*
X138130643Y-116522309D01*
X138124693Y-116523799D01*
X138118626Y-116524699D01*
X138112500Y-116525000D01*
X137987500Y-116525000D01*
X137981374Y-116524699D01*
X137975307Y-116523799D01*
X137969357Y-116522309D01*
X137963582Y-116520242D01*
X137958038Y-116517620D01*
X137952777Y-116514467D01*
X137947850Y-116510813D01*
X137943306Y-116506694D01*
X137939187Y-116502150D01*
X137935533Y-116497223D01*
X137932380Y-116491962D01*
X137929758Y-116486418D01*
X137927691Y-116480643D01*
X137926201Y-116474693D01*
X137925301Y-116468626D01*
X137925000Y-116462500D01*
X137925000Y-115512500D01*
X137925301Y-115506374D01*
X137926201Y-115500307D01*
X137927691Y-115494357D01*
X137929758Y-115488582D01*
X137932380Y-115483038D01*
X137935533Y-115477777D01*
X137939187Y-115472850D01*
X137943306Y-115468306D01*
X137947850Y-115464187D01*
X137952777Y-115460533D01*
X137958038Y-115457380D01*
X137963582Y-115454758D01*
X137969357Y-115452691D01*
X137975307Y-115451201D01*
X137981374Y-115450301D01*
X137987500Y-115450000D01*
X138112500Y-115450000D01*
X138118626Y-115450301D01*
G37*
G36*
X137618626Y-115450301D02*
G01*
X137624693Y-115451201D01*
X137630643Y-115452691D01*
X137636418Y-115454758D01*
X137641962Y-115457380D01*
X137647223Y-115460533D01*
X137652150Y-115464187D01*
X137656694Y-115468306D01*
X137660813Y-115472850D01*
X137664467Y-115477777D01*
X137667620Y-115483038D01*
X137670242Y-115488582D01*
X137672309Y-115494357D01*
X137673799Y-115500307D01*
X137674699Y-115506374D01*
X137675000Y-115512500D01*
X137675000Y-116462500D01*
X137674699Y-116468626D01*
X137673799Y-116474693D01*
X137672309Y-116480643D01*
X137670242Y-116486418D01*
X137667620Y-116491962D01*
X137664467Y-116497223D01*
X137660813Y-116502150D01*
X137656694Y-116506694D01*
X137652150Y-116510813D01*
X137647223Y-116514467D01*
X137641962Y-116517620D01*
X137636418Y-116520242D01*
X137630643Y-116522309D01*
X137624693Y-116523799D01*
X137618626Y-116524699D01*
X137612500Y-116525000D01*
X137487500Y-116525000D01*
X137481374Y-116524699D01*
X137475307Y-116523799D01*
X137469357Y-116522309D01*
X137463582Y-116520242D01*
X137458038Y-116517620D01*
X137452777Y-116514467D01*
X137447850Y-116510813D01*
X137443306Y-116506694D01*
X137439187Y-116502150D01*
X137435533Y-116497223D01*
X137432380Y-116491962D01*
X137429758Y-116486418D01*
X137427691Y-116480643D01*
X137426201Y-116474693D01*
X137425301Y-116468626D01*
X137425000Y-116462500D01*
X137425000Y-115512500D01*
X137425301Y-115506374D01*
X137426201Y-115500307D01*
X137427691Y-115494357D01*
X137429758Y-115488582D01*
X137432380Y-115483038D01*
X137435533Y-115477777D01*
X137439187Y-115472850D01*
X137443306Y-115468306D01*
X137447850Y-115464187D01*
X137452777Y-115460533D01*
X137458038Y-115457380D01*
X137463582Y-115454758D01*
X137469357Y-115452691D01*
X137475307Y-115451201D01*
X137481374Y-115450301D01*
X137487500Y-115450000D01*
X137612500Y-115450000D01*
X137618626Y-115450301D01*
G37*
G36*
X137118626Y-115450301D02*
G01*
X137124693Y-115451201D01*
X137130643Y-115452691D01*
X137136418Y-115454758D01*
X137141962Y-115457380D01*
X137147223Y-115460533D01*
X137152150Y-115464187D01*
X137156694Y-115468306D01*
X137160813Y-115472850D01*
X137164467Y-115477777D01*
X137167620Y-115483038D01*
X137170242Y-115488582D01*
X137172309Y-115494357D01*
X137173799Y-115500307D01*
X137174699Y-115506374D01*
X137175000Y-115512500D01*
X137175000Y-116462500D01*
X137174699Y-116468626D01*
X137173799Y-116474693D01*
X137172309Y-116480643D01*
X137170242Y-116486418D01*
X137167620Y-116491962D01*
X137164467Y-116497223D01*
X137160813Y-116502150D01*
X137156694Y-116506694D01*
X137152150Y-116510813D01*
X137147223Y-116514467D01*
X137141962Y-116517620D01*
X137136418Y-116520242D01*
X137130643Y-116522309D01*
X137124693Y-116523799D01*
X137118626Y-116524699D01*
X137112500Y-116525000D01*
X136987500Y-116525000D01*
X136981374Y-116524699D01*
X136975307Y-116523799D01*
X136969357Y-116522309D01*
X136963582Y-116520242D01*
X136958038Y-116517620D01*
X136952777Y-116514467D01*
X136947850Y-116510813D01*
X136943306Y-116506694D01*
X136939187Y-116502150D01*
X136935533Y-116497223D01*
X136932380Y-116491962D01*
X136929758Y-116486418D01*
X136927691Y-116480643D01*
X136926201Y-116474693D01*
X136925301Y-116468626D01*
X136925000Y-116462500D01*
X136925000Y-115512500D01*
X136925301Y-115506374D01*
X136926201Y-115500307D01*
X136927691Y-115494357D01*
X136929758Y-115488582D01*
X136932380Y-115483038D01*
X136935533Y-115477777D01*
X136939187Y-115472850D01*
X136943306Y-115468306D01*
X136947850Y-115464187D01*
X136952777Y-115460533D01*
X136958038Y-115457380D01*
X136963582Y-115454758D01*
X136969357Y-115452691D01*
X136975307Y-115451201D01*
X136981374Y-115450301D01*
X136987500Y-115450000D01*
X137112500Y-115450000D01*
X137118626Y-115450301D01*
G37*
G36*
X136618626Y-115450301D02*
G01*
X136624693Y-115451201D01*
X136630643Y-115452691D01*
X136636418Y-115454758D01*
X136641962Y-115457380D01*
X136647223Y-115460533D01*
X136652150Y-115464187D01*
X136656694Y-115468306D01*
X136660813Y-115472850D01*
X136664467Y-115477777D01*
X136667620Y-115483038D01*
X136670242Y-115488582D01*
X136672309Y-115494357D01*
X136673799Y-115500307D01*
X136674699Y-115506374D01*
X136675000Y-115512500D01*
X136675000Y-116462500D01*
X136674699Y-116468626D01*
X136673799Y-116474693D01*
X136672309Y-116480643D01*
X136670242Y-116486418D01*
X136667620Y-116491962D01*
X136664467Y-116497223D01*
X136660813Y-116502150D01*
X136656694Y-116506694D01*
X136652150Y-116510813D01*
X136647223Y-116514467D01*
X136641962Y-116517620D01*
X136636418Y-116520242D01*
X136630643Y-116522309D01*
X136624693Y-116523799D01*
X136618626Y-116524699D01*
X136612500Y-116525000D01*
X136487500Y-116525000D01*
X136481374Y-116524699D01*
X136475307Y-116523799D01*
X136469357Y-116522309D01*
X136463582Y-116520242D01*
X136458038Y-116517620D01*
X136452777Y-116514467D01*
X136447850Y-116510813D01*
X136443306Y-116506694D01*
X136439187Y-116502150D01*
X136435533Y-116497223D01*
X136432380Y-116491962D01*
X136429758Y-116486418D01*
X136427691Y-116480643D01*
X136426201Y-116474693D01*
X136425301Y-116468626D01*
X136425000Y-116462500D01*
X136425000Y-115512500D01*
X136425301Y-115506374D01*
X136426201Y-115500307D01*
X136427691Y-115494357D01*
X136429758Y-115488582D01*
X136432380Y-115483038D01*
X136435533Y-115477777D01*
X136439187Y-115472850D01*
X136443306Y-115468306D01*
X136447850Y-115464187D01*
X136452777Y-115460533D01*
X136458038Y-115457380D01*
X136463582Y-115454758D01*
X136469357Y-115452691D01*
X136475307Y-115451201D01*
X136481374Y-115450301D01*
X136487500Y-115450000D01*
X136612500Y-115450000D01*
X136618626Y-115450301D01*
G37*
G36*
X136118626Y-115450301D02*
G01*
X136124693Y-115451201D01*
X136130643Y-115452691D01*
X136136418Y-115454758D01*
X136141962Y-115457380D01*
X136147223Y-115460533D01*
X136152150Y-115464187D01*
X136156694Y-115468306D01*
X136160813Y-115472850D01*
X136164467Y-115477777D01*
X136167620Y-115483038D01*
X136170242Y-115488582D01*
X136172309Y-115494357D01*
X136173799Y-115500307D01*
X136174699Y-115506374D01*
X136175000Y-115512500D01*
X136175000Y-116462500D01*
X136174699Y-116468626D01*
X136173799Y-116474693D01*
X136172309Y-116480643D01*
X136170242Y-116486418D01*
X136167620Y-116491962D01*
X136164467Y-116497223D01*
X136160813Y-116502150D01*
X136156694Y-116506694D01*
X136152150Y-116510813D01*
X136147223Y-116514467D01*
X136141962Y-116517620D01*
X136136418Y-116520242D01*
X136130643Y-116522309D01*
X136124693Y-116523799D01*
X136118626Y-116524699D01*
X136112500Y-116525000D01*
X135987500Y-116525000D01*
X135981374Y-116524699D01*
X135975307Y-116523799D01*
X135969357Y-116522309D01*
X135963582Y-116520242D01*
X135958038Y-116517620D01*
X135952777Y-116514467D01*
X135947850Y-116510813D01*
X135943306Y-116506694D01*
X135939187Y-116502150D01*
X135935533Y-116497223D01*
X135932380Y-116491962D01*
X135929758Y-116486418D01*
X135927691Y-116480643D01*
X135926201Y-116474693D01*
X135925301Y-116468626D01*
X135925000Y-116462500D01*
X135925000Y-115512500D01*
X135925301Y-115506374D01*
X135926201Y-115500307D01*
X135927691Y-115494357D01*
X135929758Y-115488582D01*
X135932380Y-115483038D01*
X135935533Y-115477777D01*
X135939187Y-115472850D01*
X135943306Y-115468306D01*
X135947850Y-115464187D01*
X135952777Y-115460533D01*
X135958038Y-115457380D01*
X135963582Y-115454758D01*
X135969357Y-115452691D01*
X135975307Y-115451201D01*
X135981374Y-115450301D01*
X135987500Y-115450000D01*
X136112500Y-115450000D01*
X136118626Y-115450301D01*
G37*
G36*
X135618626Y-115450301D02*
G01*
X135624693Y-115451201D01*
X135630643Y-115452691D01*
X135636418Y-115454758D01*
X135641962Y-115457380D01*
X135647223Y-115460533D01*
X135652150Y-115464187D01*
X135656694Y-115468306D01*
X135660813Y-115472850D01*
X135664467Y-115477777D01*
X135667620Y-115483038D01*
X135670242Y-115488582D01*
X135672309Y-115494357D01*
X135673799Y-115500307D01*
X135674699Y-115506374D01*
X135675000Y-115512500D01*
X135675000Y-116462500D01*
X135674699Y-116468626D01*
X135673799Y-116474693D01*
X135672309Y-116480643D01*
X135670242Y-116486418D01*
X135667620Y-116491962D01*
X135664467Y-116497223D01*
X135660813Y-116502150D01*
X135656694Y-116506694D01*
X135652150Y-116510813D01*
X135647223Y-116514467D01*
X135641962Y-116517620D01*
X135636418Y-116520242D01*
X135630643Y-116522309D01*
X135624693Y-116523799D01*
X135618626Y-116524699D01*
X135612500Y-116525000D01*
X135487500Y-116525000D01*
X135481374Y-116524699D01*
X135475307Y-116523799D01*
X135469357Y-116522309D01*
X135463582Y-116520242D01*
X135458038Y-116517620D01*
X135452777Y-116514467D01*
X135447850Y-116510813D01*
X135443306Y-116506694D01*
X135439187Y-116502150D01*
X135435533Y-116497223D01*
X135432380Y-116491962D01*
X135429758Y-116486418D01*
X135427691Y-116480643D01*
X135426201Y-116474693D01*
X135425301Y-116468626D01*
X135425000Y-116462500D01*
X135425000Y-115512500D01*
X135425301Y-115506374D01*
X135426201Y-115500307D01*
X135427691Y-115494357D01*
X135429758Y-115488582D01*
X135432380Y-115483038D01*
X135435533Y-115477777D01*
X135439187Y-115472850D01*
X135443306Y-115468306D01*
X135447850Y-115464187D01*
X135452777Y-115460533D01*
X135458038Y-115457380D01*
X135463582Y-115454758D01*
X135469357Y-115452691D01*
X135475307Y-115451201D01*
X135481374Y-115450301D01*
X135487500Y-115450000D01*
X135612500Y-115450000D01*
X135618626Y-115450301D01*
G37*
G36*
X135118626Y-115450301D02*
G01*
X135124693Y-115451201D01*
X135130643Y-115452691D01*
X135136418Y-115454758D01*
X135141962Y-115457380D01*
X135147223Y-115460533D01*
X135152150Y-115464187D01*
X135156694Y-115468306D01*
X135160813Y-115472850D01*
X135164467Y-115477777D01*
X135167620Y-115483038D01*
X135170242Y-115488582D01*
X135172309Y-115494357D01*
X135173799Y-115500307D01*
X135174699Y-115506374D01*
X135175000Y-115512500D01*
X135175000Y-116462500D01*
X135174699Y-116468626D01*
X135173799Y-116474693D01*
X135172309Y-116480643D01*
X135170242Y-116486418D01*
X135167620Y-116491962D01*
X135164467Y-116497223D01*
X135160813Y-116502150D01*
X135156694Y-116506694D01*
X135152150Y-116510813D01*
X135147223Y-116514467D01*
X135141962Y-116517620D01*
X135136418Y-116520242D01*
X135130643Y-116522309D01*
X135124693Y-116523799D01*
X135118626Y-116524699D01*
X135112500Y-116525000D01*
X134987500Y-116525000D01*
X134981374Y-116524699D01*
X134975307Y-116523799D01*
X134969357Y-116522309D01*
X134963582Y-116520242D01*
X134958038Y-116517620D01*
X134952777Y-116514467D01*
X134947850Y-116510813D01*
X134943306Y-116506694D01*
X134939187Y-116502150D01*
X134935533Y-116497223D01*
X134932380Y-116491962D01*
X134929758Y-116486418D01*
X134927691Y-116480643D01*
X134926201Y-116474693D01*
X134925301Y-116468626D01*
X134925000Y-116462500D01*
X134925000Y-115512500D01*
X134925301Y-115506374D01*
X134926201Y-115500307D01*
X134927691Y-115494357D01*
X134929758Y-115488582D01*
X134932380Y-115483038D01*
X134935533Y-115477777D01*
X134939187Y-115472850D01*
X134943306Y-115468306D01*
X134947850Y-115464187D01*
X134952777Y-115460533D01*
X134958038Y-115457380D01*
X134963582Y-115454758D01*
X134969357Y-115452691D01*
X134975307Y-115451201D01*
X134981374Y-115450301D01*
X134987500Y-115450000D01*
X135112500Y-115450000D01*
X135118626Y-115450301D01*
G37*
G36*
X134693626Y-115025301D02*
G01*
X134699693Y-115026201D01*
X134705643Y-115027691D01*
X134711418Y-115029758D01*
X134716962Y-115032380D01*
X134722223Y-115035533D01*
X134727150Y-115039187D01*
X134731694Y-115043306D01*
X134735813Y-115047850D01*
X134739467Y-115052777D01*
X134742620Y-115058038D01*
X134745242Y-115063582D01*
X134747309Y-115069357D01*
X134748799Y-115075307D01*
X134749699Y-115081374D01*
X134750000Y-115087500D01*
X134750000Y-115212500D01*
X134749699Y-115218626D01*
X134748799Y-115224693D01*
X134747309Y-115230643D01*
X134745242Y-115236418D01*
X134742620Y-115241962D01*
X134739467Y-115247223D01*
X134735813Y-115252150D01*
X134731694Y-115256694D01*
X134727150Y-115260813D01*
X134722223Y-115264467D01*
X134716962Y-115267620D01*
X134711418Y-115270242D01*
X134705643Y-115272309D01*
X134699693Y-115273799D01*
X134693626Y-115274699D01*
X134687500Y-115275000D01*
X133737500Y-115275000D01*
X133731374Y-115274699D01*
X133725307Y-115273799D01*
X133719357Y-115272309D01*
X133713582Y-115270242D01*
X133708038Y-115267620D01*
X133702777Y-115264467D01*
X133697850Y-115260813D01*
X133693306Y-115256694D01*
X133689187Y-115252150D01*
X133685533Y-115247223D01*
X133682380Y-115241962D01*
X133679758Y-115236418D01*
X133677691Y-115230643D01*
X133676201Y-115224693D01*
X133675301Y-115218626D01*
X133675000Y-115212500D01*
X133675000Y-115087500D01*
X133675301Y-115081374D01*
X133676201Y-115075307D01*
X133677691Y-115069357D01*
X133679758Y-115063582D01*
X133682380Y-115058038D01*
X133685533Y-115052777D01*
X133689187Y-115047850D01*
X133693306Y-115043306D01*
X133697850Y-115039187D01*
X133702777Y-115035533D01*
X133708038Y-115032380D01*
X133713582Y-115029758D01*
X133719357Y-115027691D01*
X133725307Y-115026201D01*
X133731374Y-115025301D01*
X133737500Y-115025000D01*
X134687500Y-115025000D01*
X134693626Y-115025301D01*
G37*
G36*
X134693626Y-114525301D02*
G01*
X134699693Y-114526201D01*
X134705643Y-114527691D01*
X134711418Y-114529758D01*
X134716962Y-114532380D01*
X134722223Y-114535533D01*
X134727150Y-114539187D01*
X134731694Y-114543306D01*
X134735813Y-114547850D01*
X134739467Y-114552777D01*
X134742620Y-114558038D01*
X134745242Y-114563582D01*
X134747309Y-114569357D01*
X134748799Y-114575307D01*
X134749699Y-114581374D01*
X134750000Y-114587500D01*
X134750000Y-114712500D01*
X134749699Y-114718626D01*
X134748799Y-114724693D01*
X134747309Y-114730643D01*
X134745242Y-114736418D01*
X134742620Y-114741962D01*
X134739467Y-114747223D01*
X134735813Y-114752150D01*
X134731694Y-114756694D01*
X134727150Y-114760813D01*
X134722223Y-114764467D01*
X134716962Y-114767620D01*
X134711418Y-114770242D01*
X134705643Y-114772309D01*
X134699693Y-114773799D01*
X134693626Y-114774699D01*
X134687500Y-114775000D01*
X133737500Y-114775000D01*
X133731374Y-114774699D01*
X133725307Y-114773799D01*
X133719357Y-114772309D01*
X133713582Y-114770242D01*
X133708038Y-114767620D01*
X133702777Y-114764467D01*
X133697850Y-114760813D01*
X133693306Y-114756694D01*
X133689187Y-114752150D01*
X133685533Y-114747223D01*
X133682380Y-114741962D01*
X133679758Y-114736418D01*
X133677691Y-114730643D01*
X133676201Y-114724693D01*
X133675301Y-114718626D01*
X133675000Y-114712500D01*
X133675000Y-114587500D01*
X133675301Y-114581374D01*
X133676201Y-114575307D01*
X133677691Y-114569357D01*
X133679758Y-114563582D01*
X133682380Y-114558038D01*
X133685533Y-114552777D01*
X133689187Y-114547850D01*
X133693306Y-114543306D01*
X133697850Y-114539187D01*
X133702777Y-114535533D01*
X133708038Y-114532380D01*
X133713582Y-114529758D01*
X133719357Y-114527691D01*
X133725307Y-114526201D01*
X133731374Y-114525301D01*
X133737500Y-114525000D01*
X134687500Y-114525000D01*
X134693626Y-114525301D01*
G37*
G36*
X134693626Y-114025301D02*
G01*
X134699693Y-114026201D01*
X134705643Y-114027691D01*
X134711418Y-114029758D01*
X134716962Y-114032380D01*
X134722223Y-114035533D01*
X134727150Y-114039187D01*
X134731694Y-114043306D01*
X134735813Y-114047850D01*
X134739467Y-114052777D01*
X134742620Y-114058038D01*
X134745242Y-114063582D01*
X134747309Y-114069357D01*
X134748799Y-114075307D01*
X134749699Y-114081374D01*
X134750000Y-114087500D01*
X134750000Y-114212500D01*
X134749699Y-114218626D01*
X134748799Y-114224693D01*
X134747309Y-114230643D01*
X134745242Y-114236418D01*
X134742620Y-114241962D01*
X134739467Y-114247223D01*
X134735813Y-114252150D01*
X134731694Y-114256694D01*
X134727150Y-114260813D01*
X134722223Y-114264467D01*
X134716962Y-114267620D01*
X134711418Y-114270242D01*
X134705643Y-114272309D01*
X134699693Y-114273799D01*
X134693626Y-114274699D01*
X134687500Y-114275000D01*
X133737500Y-114275000D01*
X133731374Y-114274699D01*
X133725307Y-114273799D01*
X133719357Y-114272309D01*
X133713582Y-114270242D01*
X133708038Y-114267620D01*
X133702777Y-114264467D01*
X133697850Y-114260813D01*
X133693306Y-114256694D01*
X133689187Y-114252150D01*
X133685533Y-114247223D01*
X133682380Y-114241962D01*
X133679758Y-114236418D01*
X133677691Y-114230643D01*
X133676201Y-114224693D01*
X133675301Y-114218626D01*
X133675000Y-114212500D01*
X133675000Y-114087500D01*
X133675301Y-114081374D01*
X133676201Y-114075307D01*
X133677691Y-114069357D01*
X133679758Y-114063582D01*
X133682380Y-114058038D01*
X133685533Y-114052777D01*
X133689187Y-114047850D01*
X133693306Y-114043306D01*
X133697850Y-114039187D01*
X133702777Y-114035533D01*
X133708038Y-114032380D01*
X133713582Y-114029758D01*
X133719357Y-114027691D01*
X133725307Y-114026201D01*
X133731374Y-114025301D01*
X133737500Y-114025000D01*
X134687500Y-114025000D01*
X134693626Y-114025301D01*
G37*
G36*
X134693626Y-113525301D02*
G01*
X134699693Y-113526201D01*
X134705643Y-113527691D01*
X134711418Y-113529758D01*
X134716962Y-113532380D01*
X134722223Y-113535533D01*
X134727150Y-113539187D01*
X134731694Y-113543306D01*
X134735813Y-113547850D01*
X134739467Y-113552777D01*
X134742620Y-113558038D01*
X134745242Y-113563582D01*
X134747309Y-113569357D01*
X134748799Y-113575307D01*
X134749699Y-113581374D01*
X134750000Y-113587500D01*
X134750000Y-113712500D01*
X134749699Y-113718626D01*
X134748799Y-113724693D01*
X134747309Y-113730643D01*
X134745242Y-113736418D01*
X134742620Y-113741962D01*
X134739467Y-113747223D01*
X134735813Y-113752150D01*
X134731694Y-113756694D01*
X134727150Y-113760813D01*
X134722223Y-113764467D01*
X134716962Y-113767620D01*
X134711418Y-113770242D01*
X134705643Y-113772309D01*
X134699693Y-113773799D01*
X134693626Y-113774699D01*
X134687500Y-113775000D01*
X133737500Y-113775000D01*
X133731374Y-113774699D01*
X133725307Y-113773799D01*
X133719357Y-113772309D01*
X133713582Y-113770242D01*
X133708038Y-113767620D01*
X133702777Y-113764467D01*
X133697850Y-113760813D01*
X133693306Y-113756694D01*
X133689187Y-113752150D01*
X133685533Y-113747223D01*
X133682380Y-113741962D01*
X133679758Y-113736418D01*
X133677691Y-113730643D01*
X133676201Y-113724693D01*
X133675301Y-113718626D01*
X133675000Y-113712500D01*
X133675000Y-113587500D01*
X133675301Y-113581374D01*
X133676201Y-113575307D01*
X133677691Y-113569357D01*
X133679758Y-113563582D01*
X133682380Y-113558038D01*
X133685533Y-113552777D01*
X133689187Y-113547850D01*
X133693306Y-113543306D01*
X133697850Y-113539187D01*
X133702777Y-113535533D01*
X133708038Y-113532380D01*
X133713582Y-113529758D01*
X133719357Y-113527691D01*
X133725307Y-113526201D01*
X133731374Y-113525301D01*
X133737500Y-113525000D01*
X134687500Y-113525000D01*
X134693626Y-113525301D01*
G37*
G36*
X134693626Y-113025301D02*
G01*
X134699693Y-113026201D01*
X134705643Y-113027691D01*
X134711418Y-113029758D01*
X134716962Y-113032380D01*
X134722223Y-113035533D01*
X134727150Y-113039187D01*
X134731694Y-113043306D01*
X134735813Y-113047850D01*
X134739467Y-113052777D01*
X134742620Y-113058038D01*
X134745242Y-113063582D01*
X134747309Y-113069357D01*
X134748799Y-113075307D01*
X134749699Y-113081374D01*
X134750000Y-113087500D01*
X134750000Y-113212500D01*
X134749699Y-113218626D01*
X134748799Y-113224693D01*
X134747309Y-113230643D01*
X134745242Y-113236418D01*
X134742620Y-113241962D01*
X134739467Y-113247223D01*
X134735813Y-113252150D01*
X134731694Y-113256694D01*
X134727150Y-113260813D01*
X134722223Y-113264467D01*
X134716962Y-113267620D01*
X134711418Y-113270242D01*
X134705643Y-113272309D01*
X134699693Y-113273799D01*
X134693626Y-113274699D01*
X134687500Y-113275000D01*
X133737500Y-113275000D01*
X133731374Y-113274699D01*
X133725307Y-113273799D01*
X133719357Y-113272309D01*
X133713582Y-113270242D01*
X133708038Y-113267620D01*
X133702777Y-113264467D01*
X133697850Y-113260813D01*
X133693306Y-113256694D01*
X133689187Y-113252150D01*
X133685533Y-113247223D01*
X133682380Y-113241962D01*
X133679758Y-113236418D01*
X133677691Y-113230643D01*
X133676201Y-113224693D01*
X133675301Y-113218626D01*
X133675000Y-113212500D01*
X133675000Y-113087500D01*
X133675301Y-113081374D01*
X133676201Y-113075307D01*
X133677691Y-113069357D01*
X133679758Y-113063582D01*
X133682380Y-113058038D01*
X133685533Y-113052777D01*
X133689187Y-113047850D01*
X133693306Y-113043306D01*
X133697850Y-113039187D01*
X133702777Y-113035533D01*
X133708038Y-113032380D01*
X133713582Y-113029758D01*
X133719357Y-113027691D01*
X133725307Y-113026201D01*
X133731374Y-113025301D01*
X133737500Y-113025000D01*
X134687500Y-113025000D01*
X134693626Y-113025301D01*
G37*
G36*
X134693626Y-112525301D02*
G01*
X134699693Y-112526201D01*
X134705643Y-112527691D01*
X134711418Y-112529758D01*
X134716962Y-112532380D01*
X134722223Y-112535533D01*
X134727150Y-112539187D01*
X134731694Y-112543306D01*
X134735813Y-112547850D01*
X134739467Y-112552777D01*
X134742620Y-112558038D01*
X134745242Y-112563582D01*
X134747309Y-112569357D01*
X134748799Y-112575307D01*
X134749699Y-112581374D01*
X134750000Y-112587500D01*
X134750000Y-112712500D01*
X134749699Y-112718626D01*
X134748799Y-112724693D01*
X134747309Y-112730643D01*
X134745242Y-112736418D01*
X134742620Y-112741962D01*
X134739467Y-112747223D01*
X134735813Y-112752150D01*
X134731694Y-112756694D01*
X134727150Y-112760813D01*
X134722223Y-112764467D01*
X134716962Y-112767620D01*
X134711418Y-112770242D01*
X134705643Y-112772309D01*
X134699693Y-112773799D01*
X134693626Y-112774699D01*
X134687500Y-112775000D01*
X133737500Y-112775000D01*
X133731374Y-112774699D01*
X133725307Y-112773799D01*
X133719357Y-112772309D01*
X133713582Y-112770242D01*
X133708038Y-112767620D01*
X133702777Y-112764467D01*
X133697850Y-112760813D01*
X133693306Y-112756694D01*
X133689187Y-112752150D01*
X133685533Y-112747223D01*
X133682380Y-112741962D01*
X133679758Y-112736418D01*
X133677691Y-112730643D01*
X133676201Y-112724693D01*
X133675301Y-112718626D01*
X133675000Y-112712500D01*
X133675000Y-112587500D01*
X133675301Y-112581374D01*
X133676201Y-112575307D01*
X133677691Y-112569357D01*
X133679758Y-112563582D01*
X133682380Y-112558038D01*
X133685533Y-112552777D01*
X133689187Y-112547850D01*
X133693306Y-112543306D01*
X133697850Y-112539187D01*
X133702777Y-112535533D01*
X133708038Y-112532380D01*
X133713582Y-112529758D01*
X133719357Y-112527691D01*
X133725307Y-112526201D01*
X133731374Y-112525301D01*
X133737500Y-112525000D01*
X134687500Y-112525000D01*
X134693626Y-112525301D01*
G37*
G36*
X134693626Y-112025301D02*
G01*
X134699693Y-112026201D01*
X134705643Y-112027691D01*
X134711418Y-112029758D01*
X134716962Y-112032380D01*
X134722223Y-112035533D01*
X134727150Y-112039187D01*
X134731694Y-112043306D01*
X134735813Y-112047850D01*
X134739467Y-112052777D01*
X134742620Y-112058038D01*
X134745242Y-112063582D01*
X134747309Y-112069357D01*
X134748799Y-112075307D01*
X134749699Y-112081374D01*
X134750000Y-112087500D01*
X134750000Y-112212500D01*
X134749699Y-112218626D01*
X134748799Y-112224693D01*
X134747309Y-112230643D01*
X134745242Y-112236418D01*
X134742620Y-112241962D01*
X134739467Y-112247223D01*
X134735813Y-112252150D01*
X134731694Y-112256694D01*
X134727150Y-112260813D01*
X134722223Y-112264467D01*
X134716962Y-112267620D01*
X134711418Y-112270242D01*
X134705643Y-112272309D01*
X134699693Y-112273799D01*
X134693626Y-112274699D01*
X134687500Y-112275000D01*
X133737500Y-112275000D01*
X133731374Y-112274699D01*
X133725307Y-112273799D01*
X133719357Y-112272309D01*
X133713582Y-112270242D01*
X133708038Y-112267620D01*
X133702777Y-112264467D01*
X133697850Y-112260813D01*
X133693306Y-112256694D01*
X133689187Y-112252150D01*
X133685533Y-112247223D01*
X133682380Y-112241962D01*
X133679758Y-112236418D01*
X133677691Y-112230643D01*
X133676201Y-112224693D01*
X133675301Y-112218626D01*
X133675000Y-112212500D01*
X133675000Y-112087500D01*
X133675301Y-112081374D01*
X133676201Y-112075307D01*
X133677691Y-112069357D01*
X133679758Y-112063582D01*
X133682380Y-112058038D01*
X133685533Y-112052777D01*
X133689187Y-112047850D01*
X133693306Y-112043306D01*
X133697850Y-112039187D01*
X133702777Y-112035533D01*
X133708038Y-112032380D01*
X133713582Y-112029758D01*
X133719357Y-112027691D01*
X133725307Y-112026201D01*
X133731374Y-112025301D01*
X133737500Y-112025000D01*
X134687500Y-112025000D01*
X134693626Y-112025301D01*
G37*
G36*
X134693626Y-111525301D02*
G01*
X134699693Y-111526201D01*
X134705643Y-111527691D01*
X134711418Y-111529758D01*
X134716962Y-111532380D01*
X134722223Y-111535533D01*
X134727150Y-111539187D01*
X134731694Y-111543306D01*
X134735813Y-111547850D01*
X134739467Y-111552777D01*
X134742620Y-111558038D01*
X134745242Y-111563582D01*
X134747309Y-111569357D01*
X134748799Y-111575307D01*
X134749699Y-111581374D01*
X134750000Y-111587500D01*
X134750000Y-111712500D01*
X134749699Y-111718626D01*
X134748799Y-111724693D01*
X134747309Y-111730643D01*
X134745242Y-111736418D01*
X134742620Y-111741962D01*
X134739467Y-111747223D01*
X134735813Y-111752150D01*
X134731694Y-111756694D01*
X134727150Y-111760813D01*
X134722223Y-111764467D01*
X134716962Y-111767620D01*
X134711418Y-111770242D01*
X134705643Y-111772309D01*
X134699693Y-111773799D01*
X134693626Y-111774699D01*
X134687500Y-111775000D01*
X133737500Y-111775000D01*
X133731374Y-111774699D01*
X133725307Y-111773799D01*
X133719357Y-111772309D01*
X133713582Y-111770242D01*
X133708038Y-111767620D01*
X133702777Y-111764467D01*
X133697850Y-111760813D01*
X133693306Y-111756694D01*
X133689187Y-111752150D01*
X133685533Y-111747223D01*
X133682380Y-111741962D01*
X133679758Y-111736418D01*
X133677691Y-111730643D01*
X133676201Y-111724693D01*
X133675301Y-111718626D01*
X133675000Y-111712500D01*
X133675000Y-111587500D01*
X133675301Y-111581374D01*
X133676201Y-111575307D01*
X133677691Y-111569357D01*
X133679758Y-111563582D01*
X133682380Y-111558038D01*
X133685533Y-111552777D01*
X133689187Y-111547850D01*
X133693306Y-111543306D01*
X133697850Y-111539187D01*
X133702777Y-111535533D01*
X133708038Y-111532380D01*
X133713582Y-111529758D01*
X133719357Y-111527691D01*
X133725307Y-111526201D01*
X133731374Y-111525301D01*
X133737500Y-111525000D01*
X134687500Y-111525000D01*
X134693626Y-111525301D01*
G37*
G36*
X134693626Y-111025301D02*
G01*
X134699693Y-111026201D01*
X134705643Y-111027691D01*
X134711418Y-111029758D01*
X134716962Y-111032380D01*
X134722223Y-111035533D01*
X134727150Y-111039187D01*
X134731694Y-111043306D01*
X134735813Y-111047850D01*
X134739467Y-111052777D01*
X134742620Y-111058038D01*
X134745242Y-111063582D01*
X134747309Y-111069357D01*
X134748799Y-111075307D01*
X134749699Y-111081374D01*
X134750000Y-111087500D01*
X134750000Y-111212500D01*
X134749699Y-111218626D01*
X134748799Y-111224693D01*
X134747309Y-111230643D01*
X134745242Y-111236418D01*
X134742620Y-111241962D01*
X134739467Y-111247223D01*
X134735813Y-111252150D01*
X134731694Y-111256694D01*
X134727150Y-111260813D01*
X134722223Y-111264467D01*
X134716962Y-111267620D01*
X134711418Y-111270242D01*
X134705643Y-111272309D01*
X134699693Y-111273799D01*
X134693626Y-111274699D01*
X134687500Y-111275000D01*
X133737500Y-111275000D01*
X133731374Y-111274699D01*
X133725307Y-111273799D01*
X133719357Y-111272309D01*
X133713582Y-111270242D01*
X133708038Y-111267620D01*
X133702777Y-111264467D01*
X133697850Y-111260813D01*
X133693306Y-111256694D01*
X133689187Y-111252150D01*
X133685533Y-111247223D01*
X133682380Y-111241962D01*
X133679758Y-111236418D01*
X133677691Y-111230643D01*
X133676201Y-111224693D01*
X133675301Y-111218626D01*
X133675000Y-111212500D01*
X133675000Y-111087500D01*
X133675301Y-111081374D01*
X133676201Y-111075307D01*
X133677691Y-111069357D01*
X133679758Y-111063582D01*
X133682380Y-111058038D01*
X133685533Y-111052777D01*
X133689187Y-111047850D01*
X133693306Y-111043306D01*
X133697850Y-111039187D01*
X133702777Y-111035533D01*
X133708038Y-111032380D01*
X133713582Y-111029758D01*
X133719357Y-111027691D01*
X133725307Y-111026201D01*
X133731374Y-111025301D01*
X133737500Y-111025000D01*
X134687500Y-111025000D01*
X134693626Y-111025301D01*
G37*
G36*
X134693626Y-110525301D02*
G01*
X134699693Y-110526201D01*
X134705643Y-110527691D01*
X134711418Y-110529758D01*
X134716962Y-110532380D01*
X134722223Y-110535533D01*
X134727150Y-110539187D01*
X134731694Y-110543306D01*
X134735813Y-110547850D01*
X134739467Y-110552777D01*
X134742620Y-110558038D01*
X134745242Y-110563582D01*
X134747309Y-110569357D01*
X134748799Y-110575307D01*
X134749699Y-110581374D01*
X134750000Y-110587500D01*
X134750000Y-110712500D01*
X134749699Y-110718626D01*
X134748799Y-110724693D01*
X134747309Y-110730643D01*
X134745242Y-110736418D01*
X134742620Y-110741962D01*
X134739467Y-110747223D01*
X134735813Y-110752150D01*
X134731694Y-110756694D01*
X134727150Y-110760813D01*
X134722223Y-110764467D01*
X134716962Y-110767620D01*
X134711418Y-110770242D01*
X134705643Y-110772309D01*
X134699693Y-110773799D01*
X134693626Y-110774699D01*
X134687500Y-110775000D01*
X133737500Y-110775000D01*
X133731374Y-110774699D01*
X133725307Y-110773799D01*
X133719357Y-110772309D01*
X133713582Y-110770242D01*
X133708038Y-110767620D01*
X133702777Y-110764467D01*
X133697850Y-110760813D01*
X133693306Y-110756694D01*
X133689187Y-110752150D01*
X133685533Y-110747223D01*
X133682380Y-110741962D01*
X133679758Y-110736418D01*
X133677691Y-110730643D01*
X133676201Y-110724693D01*
X133675301Y-110718626D01*
X133675000Y-110712500D01*
X133675000Y-110587500D01*
X133675301Y-110581374D01*
X133676201Y-110575307D01*
X133677691Y-110569357D01*
X133679758Y-110563582D01*
X133682380Y-110558038D01*
X133685533Y-110552777D01*
X133689187Y-110547850D01*
X133693306Y-110543306D01*
X133697850Y-110539187D01*
X133702777Y-110535533D01*
X133708038Y-110532380D01*
X133713582Y-110529758D01*
X133719357Y-110527691D01*
X133725307Y-110526201D01*
X133731374Y-110525301D01*
X133737500Y-110525000D01*
X134687500Y-110525000D01*
X134693626Y-110525301D01*
G37*
G36*
X134693626Y-110025301D02*
G01*
X134699693Y-110026201D01*
X134705643Y-110027691D01*
X134711418Y-110029758D01*
X134716962Y-110032380D01*
X134722223Y-110035533D01*
X134727150Y-110039187D01*
X134731694Y-110043306D01*
X134735813Y-110047850D01*
X134739467Y-110052777D01*
X134742620Y-110058038D01*
X134745242Y-110063582D01*
X134747309Y-110069357D01*
X134748799Y-110075307D01*
X134749699Y-110081374D01*
X134750000Y-110087500D01*
X134750000Y-110212500D01*
X134749699Y-110218626D01*
X134748799Y-110224693D01*
X134747309Y-110230643D01*
X134745242Y-110236418D01*
X134742620Y-110241962D01*
X134739467Y-110247223D01*
X134735813Y-110252150D01*
X134731694Y-110256694D01*
X134727150Y-110260813D01*
X134722223Y-110264467D01*
X134716962Y-110267620D01*
X134711418Y-110270242D01*
X134705643Y-110272309D01*
X134699693Y-110273799D01*
X134693626Y-110274699D01*
X134687500Y-110275000D01*
X133737500Y-110275000D01*
X133731374Y-110274699D01*
X133725307Y-110273799D01*
X133719357Y-110272309D01*
X133713582Y-110270242D01*
X133708038Y-110267620D01*
X133702777Y-110264467D01*
X133697850Y-110260813D01*
X133693306Y-110256694D01*
X133689187Y-110252150D01*
X133685533Y-110247223D01*
X133682380Y-110241962D01*
X133679758Y-110236418D01*
X133677691Y-110230643D01*
X133676201Y-110224693D01*
X133675301Y-110218626D01*
X133675000Y-110212500D01*
X133675000Y-110087500D01*
X133675301Y-110081374D01*
X133676201Y-110075307D01*
X133677691Y-110069357D01*
X133679758Y-110063582D01*
X133682380Y-110058038D01*
X133685533Y-110052777D01*
X133689187Y-110047850D01*
X133693306Y-110043306D01*
X133697850Y-110039187D01*
X133702777Y-110035533D01*
X133708038Y-110032380D01*
X133713582Y-110029758D01*
X133719357Y-110027691D01*
X133725307Y-110026201D01*
X133731374Y-110025301D01*
X133737500Y-110025000D01*
X134687500Y-110025000D01*
X134693626Y-110025301D01*
G37*
G36*
X139799505Y-114076204D02*
G01*
X139823773Y-114079804D01*
X139847572Y-114085765D01*
X139870671Y-114094030D01*
X139892850Y-114104520D01*
X139913893Y-114117132D01*
X139933599Y-114131747D01*
X139951777Y-114148223D01*
X139968253Y-114166401D01*
X139982868Y-114186107D01*
X139995480Y-114207150D01*
X140005970Y-114229329D01*
X140014235Y-114252428D01*
X140020196Y-114276227D01*
X140023796Y-114300495D01*
X140025000Y-114324999D01*
X140025000Y-114875001D01*
X140023796Y-114899505D01*
X140020196Y-114923773D01*
X140014235Y-114947572D01*
X140005970Y-114970671D01*
X139995480Y-114992850D01*
X139982868Y-115013893D01*
X139968253Y-115033599D01*
X139951777Y-115051777D01*
X139933599Y-115068253D01*
X139913893Y-115082868D01*
X139892850Y-115095480D01*
X139870671Y-115105970D01*
X139847572Y-115114235D01*
X139823773Y-115120196D01*
X139799505Y-115123796D01*
X139775001Y-115125000D01*
X139224999Y-115125000D01*
X139200495Y-115123796D01*
X139176227Y-115120196D01*
X139152428Y-115114235D01*
X139129329Y-115105970D01*
X139107150Y-115095480D01*
X139086107Y-115082868D01*
X139066401Y-115068253D01*
X139048223Y-115051777D01*
X139031747Y-115033599D01*
X139017132Y-115013893D01*
X139004520Y-114992850D01*
X138994030Y-114970671D01*
X138985765Y-114947572D01*
X138979804Y-114923773D01*
X138976204Y-114899505D01*
X138975000Y-114875001D01*
X138975000Y-114324999D01*
X138976204Y-114300495D01*
X138979804Y-114276227D01*
X138985765Y-114252428D01*
X138994030Y-114229329D01*
X139004520Y-114207150D01*
X139017132Y-114186107D01*
X139031747Y-114166401D01*
X139048223Y-114148223D01*
X139066401Y-114131747D01*
X139086107Y-114117132D01*
X139107150Y-114104520D01*
X139129329Y-114094030D01*
X139152428Y-114085765D01*
X139176227Y-114079804D01*
X139200495Y-114076204D01*
X139224999Y-114075000D01*
X139775001Y-114075000D01*
X139799505Y-114076204D01*
G37*
G36*
X139799505Y-112776204D02*
G01*
X139823773Y-112779804D01*
X139847572Y-112785765D01*
X139870671Y-112794030D01*
X139892850Y-112804520D01*
X139913893Y-112817132D01*
X139933599Y-112831747D01*
X139951777Y-112848223D01*
X139968253Y-112866401D01*
X139982868Y-112886107D01*
X139995480Y-112907150D01*
X140005970Y-112929329D01*
X140014235Y-112952428D01*
X140020196Y-112976227D01*
X140023796Y-113000495D01*
X140025000Y-113024999D01*
X140025000Y-113575001D01*
X140023796Y-113599505D01*
X140020196Y-113623773D01*
X140014235Y-113647572D01*
X140005970Y-113670671D01*
X139995480Y-113692850D01*
X139982868Y-113713893D01*
X139968253Y-113733599D01*
X139951777Y-113751777D01*
X139933599Y-113768253D01*
X139913893Y-113782868D01*
X139892850Y-113795480D01*
X139870671Y-113805970D01*
X139847572Y-113814235D01*
X139823773Y-113820196D01*
X139799505Y-113823796D01*
X139775001Y-113825000D01*
X139224999Y-113825000D01*
X139200495Y-113823796D01*
X139176227Y-113820196D01*
X139152428Y-113814235D01*
X139129329Y-113805970D01*
X139107150Y-113795480D01*
X139086107Y-113782868D01*
X139066401Y-113768253D01*
X139048223Y-113751777D01*
X139031747Y-113733599D01*
X139017132Y-113713893D01*
X139004520Y-113692850D01*
X138994030Y-113670671D01*
X138985765Y-113647572D01*
X138979804Y-113623773D01*
X138976204Y-113599505D01*
X138975000Y-113575001D01*
X138975000Y-113024999D01*
X138976204Y-113000495D01*
X138979804Y-112976227D01*
X138985765Y-112952428D01*
X138994030Y-112929329D01*
X139004520Y-112907150D01*
X139017132Y-112886107D01*
X139031747Y-112866401D01*
X139048223Y-112848223D01*
X139066401Y-112831747D01*
X139086107Y-112817132D01*
X139107150Y-112804520D01*
X139129329Y-112794030D01*
X139152428Y-112785765D01*
X139176227Y-112779804D01*
X139200495Y-112776204D01*
X139224999Y-112775000D01*
X139775001Y-112775000D01*
X139799505Y-112776204D01*
G37*
G36*
X139799505Y-111476204D02*
G01*
X139823773Y-111479804D01*
X139847572Y-111485765D01*
X139870671Y-111494030D01*
X139892850Y-111504520D01*
X139913893Y-111517132D01*
X139933599Y-111531747D01*
X139951777Y-111548223D01*
X139968253Y-111566401D01*
X139982868Y-111586107D01*
X139995480Y-111607150D01*
X140005970Y-111629329D01*
X140014235Y-111652428D01*
X140020196Y-111676227D01*
X140023796Y-111700495D01*
X140025000Y-111724999D01*
X140025000Y-112275001D01*
X140023796Y-112299505D01*
X140020196Y-112323773D01*
X140014235Y-112347572D01*
X140005970Y-112370671D01*
X139995480Y-112392850D01*
X139982868Y-112413893D01*
X139968253Y-112433599D01*
X139951777Y-112451777D01*
X139933599Y-112468253D01*
X139913893Y-112482868D01*
X139892850Y-112495480D01*
X139870671Y-112505970D01*
X139847572Y-112514235D01*
X139823773Y-112520196D01*
X139799505Y-112523796D01*
X139775001Y-112525000D01*
X139224999Y-112525000D01*
X139200495Y-112523796D01*
X139176227Y-112520196D01*
X139152428Y-112514235D01*
X139129329Y-112505970D01*
X139107150Y-112495480D01*
X139086107Y-112482868D01*
X139066401Y-112468253D01*
X139048223Y-112451777D01*
X139031747Y-112433599D01*
X139017132Y-112413893D01*
X139004520Y-112392850D01*
X138994030Y-112370671D01*
X138985765Y-112347572D01*
X138979804Y-112323773D01*
X138976204Y-112299505D01*
X138975000Y-112275001D01*
X138975000Y-111724999D01*
X138976204Y-111700495D01*
X138979804Y-111676227D01*
X138985765Y-111652428D01*
X138994030Y-111629329D01*
X139004520Y-111607150D01*
X139017132Y-111586107D01*
X139031747Y-111566401D01*
X139048223Y-111548223D01*
X139066401Y-111531747D01*
X139086107Y-111517132D01*
X139107150Y-111504520D01*
X139129329Y-111494030D01*
X139152428Y-111485765D01*
X139176227Y-111479804D01*
X139200495Y-111476204D01*
X139224999Y-111475000D01*
X139775001Y-111475000D01*
X139799505Y-111476204D01*
G37*
G36*
X139799505Y-110176204D02*
G01*
X139823773Y-110179804D01*
X139847572Y-110185765D01*
X139870671Y-110194030D01*
X139892850Y-110204520D01*
X139913893Y-110217132D01*
X139933599Y-110231747D01*
X139951777Y-110248223D01*
X139968253Y-110266401D01*
X139982868Y-110286107D01*
X139995480Y-110307150D01*
X140005970Y-110329329D01*
X140014235Y-110352428D01*
X140020196Y-110376227D01*
X140023796Y-110400495D01*
X140025000Y-110424999D01*
X140025000Y-110975001D01*
X140023796Y-110999505D01*
X140020196Y-111023773D01*
X140014235Y-111047572D01*
X140005970Y-111070671D01*
X139995480Y-111092850D01*
X139982868Y-111113893D01*
X139968253Y-111133599D01*
X139951777Y-111151777D01*
X139933599Y-111168253D01*
X139913893Y-111182868D01*
X139892850Y-111195480D01*
X139870671Y-111205970D01*
X139847572Y-111214235D01*
X139823773Y-111220196D01*
X139799505Y-111223796D01*
X139775001Y-111225000D01*
X139224999Y-111225000D01*
X139200495Y-111223796D01*
X139176227Y-111220196D01*
X139152428Y-111214235D01*
X139129329Y-111205970D01*
X139107150Y-111195480D01*
X139086107Y-111182868D01*
X139066401Y-111168253D01*
X139048223Y-111151777D01*
X139031747Y-111133599D01*
X139017132Y-111113893D01*
X139004520Y-111092850D01*
X138994030Y-111070671D01*
X138985765Y-111047572D01*
X138979804Y-111023773D01*
X138976204Y-110999505D01*
X138975000Y-110975001D01*
X138975000Y-110424999D01*
X138976204Y-110400495D01*
X138979804Y-110376227D01*
X138985765Y-110352428D01*
X138994030Y-110329329D01*
X139004520Y-110307150D01*
X139017132Y-110286107D01*
X139031747Y-110266401D01*
X139048223Y-110248223D01*
X139066401Y-110231747D01*
X139086107Y-110217132D01*
X139107150Y-110204520D01*
X139129329Y-110194030D01*
X139152428Y-110185765D01*
X139176227Y-110179804D01*
X139200495Y-110176204D01*
X139224999Y-110175000D01*
X139775001Y-110175000D01*
X139799505Y-110176204D01*
G37*
G36*
X138499505Y-114076204D02*
G01*
X138523773Y-114079804D01*
X138547572Y-114085765D01*
X138570671Y-114094030D01*
X138592850Y-114104520D01*
X138613893Y-114117132D01*
X138633599Y-114131747D01*
X138651777Y-114148223D01*
X138668253Y-114166401D01*
X138682868Y-114186107D01*
X138695480Y-114207150D01*
X138705970Y-114229329D01*
X138714235Y-114252428D01*
X138720196Y-114276227D01*
X138723796Y-114300495D01*
X138725000Y-114324999D01*
X138725000Y-114875001D01*
X138723796Y-114899505D01*
X138720196Y-114923773D01*
X138714235Y-114947572D01*
X138705970Y-114970671D01*
X138695480Y-114992850D01*
X138682868Y-115013893D01*
X138668253Y-115033599D01*
X138651777Y-115051777D01*
X138633599Y-115068253D01*
X138613893Y-115082868D01*
X138592850Y-115095480D01*
X138570671Y-115105970D01*
X138547572Y-115114235D01*
X138523773Y-115120196D01*
X138499505Y-115123796D01*
X138475001Y-115125000D01*
X137924999Y-115125000D01*
X137900495Y-115123796D01*
X137876227Y-115120196D01*
X137852428Y-115114235D01*
X137829329Y-115105970D01*
X137807150Y-115095480D01*
X137786107Y-115082868D01*
X137766401Y-115068253D01*
X137748223Y-115051777D01*
X137731747Y-115033599D01*
X137717132Y-115013893D01*
X137704520Y-114992850D01*
X137694030Y-114970671D01*
X137685765Y-114947572D01*
X137679804Y-114923773D01*
X137676204Y-114899505D01*
X137675000Y-114875001D01*
X137675000Y-114324999D01*
X137676204Y-114300495D01*
X137679804Y-114276227D01*
X137685765Y-114252428D01*
X137694030Y-114229329D01*
X137704520Y-114207150D01*
X137717132Y-114186107D01*
X137731747Y-114166401D01*
X137748223Y-114148223D01*
X137766401Y-114131747D01*
X137786107Y-114117132D01*
X137807150Y-114104520D01*
X137829329Y-114094030D01*
X137852428Y-114085765D01*
X137876227Y-114079804D01*
X137900495Y-114076204D01*
X137924999Y-114075000D01*
X138475001Y-114075000D01*
X138499505Y-114076204D01*
G37*
G36*
X138499505Y-112776204D02*
G01*
X138523773Y-112779804D01*
X138547572Y-112785765D01*
X138570671Y-112794030D01*
X138592850Y-112804520D01*
X138613893Y-112817132D01*
X138633599Y-112831747D01*
X138651777Y-112848223D01*
X138668253Y-112866401D01*
X138682868Y-112886107D01*
X138695480Y-112907150D01*
X138705970Y-112929329D01*
X138714235Y-112952428D01*
X138720196Y-112976227D01*
X138723796Y-113000495D01*
X138725000Y-113024999D01*
X138725000Y-113575001D01*
X138723796Y-113599505D01*
X138720196Y-113623773D01*
X138714235Y-113647572D01*
X138705970Y-113670671D01*
X138695480Y-113692850D01*
X138682868Y-113713893D01*
X138668253Y-113733599D01*
X138651777Y-113751777D01*
X138633599Y-113768253D01*
X138613893Y-113782868D01*
X138592850Y-113795480D01*
X138570671Y-113805970D01*
X138547572Y-113814235D01*
X138523773Y-113820196D01*
X138499505Y-113823796D01*
X138475001Y-113825000D01*
X137924999Y-113825000D01*
X137900495Y-113823796D01*
X137876227Y-113820196D01*
X137852428Y-113814235D01*
X137829329Y-113805970D01*
X137807150Y-113795480D01*
X137786107Y-113782868D01*
X137766401Y-113768253D01*
X137748223Y-113751777D01*
X137731747Y-113733599D01*
X137717132Y-113713893D01*
X137704520Y-113692850D01*
X137694030Y-113670671D01*
X137685765Y-113647572D01*
X137679804Y-113623773D01*
X137676204Y-113599505D01*
X137675000Y-113575001D01*
X137675000Y-113024999D01*
X137676204Y-113000495D01*
X137679804Y-112976227D01*
X137685765Y-112952428D01*
X137694030Y-112929329D01*
X137704520Y-112907150D01*
X137717132Y-112886107D01*
X137731747Y-112866401D01*
X137748223Y-112848223D01*
X137766401Y-112831747D01*
X137786107Y-112817132D01*
X137807150Y-112804520D01*
X137829329Y-112794030D01*
X137852428Y-112785765D01*
X137876227Y-112779804D01*
X137900495Y-112776204D01*
X137924999Y-112775000D01*
X138475001Y-112775000D01*
X138499505Y-112776204D01*
G37*
G36*
X138499505Y-111476204D02*
G01*
X138523773Y-111479804D01*
X138547572Y-111485765D01*
X138570671Y-111494030D01*
X138592850Y-111504520D01*
X138613893Y-111517132D01*
X138633599Y-111531747D01*
X138651777Y-111548223D01*
X138668253Y-111566401D01*
X138682868Y-111586107D01*
X138695480Y-111607150D01*
X138705970Y-111629329D01*
X138714235Y-111652428D01*
X138720196Y-111676227D01*
X138723796Y-111700495D01*
X138725000Y-111724999D01*
X138725000Y-112275001D01*
X138723796Y-112299505D01*
X138720196Y-112323773D01*
X138714235Y-112347572D01*
X138705970Y-112370671D01*
X138695480Y-112392850D01*
X138682868Y-112413893D01*
X138668253Y-112433599D01*
X138651777Y-112451777D01*
X138633599Y-112468253D01*
X138613893Y-112482868D01*
X138592850Y-112495480D01*
X138570671Y-112505970D01*
X138547572Y-112514235D01*
X138523773Y-112520196D01*
X138499505Y-112523796D01*
X138475001Y-112525000D01*
X137924999Y-112525000D01*
X137900495Y-112523796D01*
X137876227Y-112520196D01*
X137852428Y-112514235D01*
X137829329Y-112505970D01*
X137807150Y-112495480D01*
X137786107Y-112482868D01*
X137766401Y-112468253D01*
X137748223Y-112451777D01*
X137731747Y-112433599D01*
X137717132Y-112413893D01*
X137704520Y-112392850D01*
X137694030Y-112370671D01*
X137685765Y-112347572D01*
X137679804Y-112323773D01*
X137676204Y-112299505D01*
X137675000Y-112275001D01*
X137675000Y-111724999D01*
X137676204Y-111700495D01*
X137679804Y-111676227D01*
X137685765Y-111652428D01*
X137694030Y-111629329D01*
X137704520Y-111607150D01*
X137717132Y-111586107D01*
X137731747Y-111566401D01*
X137748223Y-111548223D01*
X137766401Y-111531747D01*
X137786107Y-111517132D01*
X137807150Y-111504520D01*
X137829329Y-111494030D01*
X137852428Y-111485765D01*
X137876227Y-111479804D01*
X137900495Y-111476204D01*
X137924999Y-111475000D01*
X138475001Y-111475000D01*
X138499505Y-111476204D01*
G37*
G36*
X138499505Y-110176204D02*
G01*
X138523773Y-110179804D01*
X138547572Y-110185765D01*
X138570671Y-110194030D01*
X138592850Y-110204520D01*
X138613893Y-110217132D01*
X138633599Y-110231747D01*
X138651777Y-110248223D01*
X138668253Y-110266401D01*
X138682868Y-110286107D01*
X138695480Y-110307150D01*
X138705970Y-110329329D01*
X138714235Y-110352428D01*
X138720196Y-110376227D01*
X138723796Y-110400495D01*
X138725000Y-110424999D01*
X138725000Y-110975001D01*
X138723796Y-110999505D01*
X138720196Y-111023773D01*
X138714235Y-111047572D01*
X138705970Y-111070671D01*
X138695480Y-111092850D01*
X138682868Y-111113893D01*
X138668253Y-111133599D01*
X138651777Y-111151777D01*
X138633599Y-111168253D01*
X138613893Y-111182868D01*
X138592850Y-111195480D01*
X138570671Y-111205970D01*
X138547572Y-111214235D01*
X138523773Y-111220196D01*
X138499505Y-111223796D01*
X138475001Y-111225000D01*
X137924999Y-111225000D01*
X137900495Y-111223796D01*
X137876227Y-111220196D01*
X137852428Y-111214235D01*
X137829329Y-111205970D01*
X137807150Y-111195480D01*
X137786107Y-111182868D01*
X137766401Y-111168253D01*
X137748223Y-111151777D01*
X137731747Y-111133599D01*
X137717132Y-111113893D01*
X137704520Y-111092850D01*
X137694030Y-111070671D01*
X137685765Y-111047572D01*
X137679804Y-111023773D01*
X137676204Y-110999505D01*
X137675000Y-110975001D01*
X137675000Y-110424999D01*
X137676204Y-110400495D01*
X137679804Y-110376227D01*
X137685765Y-110352428D01*
X137694030Y-110329329D01*
X137704520Y-110307150D01*
X137717132Y-110286107D01*
X137731747Y-110266401D01*
X137748223Y-110248223D01*
X137766401Y-110231747D01*
X137786107Y-110217132D01*
X137807150Y-110204520D01*
X137829329Y-110194030D01*
X137852428Y-110185765D01*
X137876227Y-110179804D01*
X137900495Y-110176204D01*
X137924999Y-110175000D01*
X138475001Y-110175000D01*
X138499505Y-110176204D01*
G37*
G36*
X137199505Y-114076204D02*
G01*
X137223773Y-114079804D01*
X137247572Y-114085765D01*
X137270671Y-114094030D01*
X137292850Y-114104520D01*
X137313893Y-114117132D01*
X137333599Y-114131747D01*
X137351777Y-114148223D01*
X137368253Y-114166401D01*
X137382868Y-114186107D01*
X137395480Y-114207150D01*
X137405970Y-114229329D01*
X137414235Y-114252428D01*
X137420196Y-114276227D01*
X137423796Y-114300495D01*
X137425000Y-114324999D01*
X137425000Y-114875001D01*
X137423796Y-114899505D01*
X137420196Y-114923773D01*
X137414235Y-114947572D01*
X137405970Y-114970671D01*
X137395480Y-114992850D01*
X137382868Y-115013893D01*
X137368253Y-115033599D01*
X137351777Y-115051777D01*
X137333599Y-115068253D01*
X137313893Y-115082868D01*
X137292850Y-115095480D01*
X137270671Y-115105970D01*
X137247572Y-115114235D01*
X137223773Y-115120196D01*
X137199505Y-115123796D01*
X137175001Y-115125000D01*
X136624999Y-115125000D01*
X136600495Y-115123796D01*
X136576227Y-115120196D01*
X136552428Y-115114235D01*
X136529329Y-115105970D01*
X136507150Y-115095480D01*
X136486107Y-115082868D01*
X136466401Y-115068253D01*
X136448223Y-115051777D01*
X136431747Y-115033599D01*
X136417132Y-115013893D01*
X136404520Y-114992850D01*
X136394030Y-114970671D01*
X136385765Y-114947572D01*
X136379804Y-114923773D01*
X136376204Y-114899505D01*
X136375000Y-114875001D01*
X136375000Y-114324999D01*
X136376204Y-114300495D01*
X136379804Y-114276227D01*
X136385765Y-114252428D01*
X136394030Y-114229329D01*
X136404520Y-114207150D01*
X136417132Y-114186107D01*
X136431747Y-114166401D01*
X136448223Y-114148223D01*
X136466401Y-114131747D01*
X136486107Y-114117132D01*
X136507150Y-114104520D01*
X136529329Y-114094030D01*
X136552428Y-114085765D01*
X136576227Y-114079804D01*
X136600495Y-114076204D01*
X136624999Y-114075000D01*
X137175001Y-114075000D01*
X137199505Y-114076204D01*
G37*
G36*
X137199505Y-112776204D02*
G01*
X137223773Y-112779804D01*
X137247572Y-112785765D01*
X137270671Y-112794030D01*
X137292850Y-112804520D01*
X137313893Y-112817132D01*
X137333599Y-112831747D01*
X137351777Y-112848223D01*
X137368253Y-112866401D01*
X137382868Y-112886107D01*
X137395480Y-112907150D01*
X137405970Y-112929329D01*
X137414235Y-112952428D01*
X137420196Y-112976227D01*
X137423796Y-113000495D01*
X137425000Y-113024999D01*
X137425000Y-113575001D01*
X137423796Y-113599505D01*
X137420196Y-113623773D01*
X137414235Y-113647572D01*
X137405970Y-113670671D01*
X137395480Y-113692850D01*
X137382868Y-113713893D01*
X137368253Y-113733599D01*
X137351777Y-113751777D01*
X137333599Y-113768253D01*
X137313893Y-113782868D01*
X137292850Y-113795480D01*
X137270671Y-113805970D01*
X137247572Y-113814235D01*
X137223773Y-113820196D01*
X137199505Y-113823796D01*
X137175001Y-113825000D01*
X136624999Y-113825000D01*
X136600495Y-113823796D01*
X136576227Y-113820196D01*
X136552428Y-113814235D01*
X136529329Y-113805970D01*
X136507150Y-113795480D01*
X136486107Y-113782868D01*
X136466401Y-113768253D01*
X136448223Y-113751777D01*
X136431747Y-113733599D01*
X136417132Y-113713893D01*
X136404520Y-113692850D01*
X136394030Y-113670671D01*
X136385765Y-113647572D01*
X136379804Y-113623773D01*
X136376204Y-113599505D01*
X136375000Y-113575001D01*
X136375000Y-113024999D01*
X136376204Y-113000495D01*
X136379804Y-112976227D01*
X136385765Y-112952428D01*
X136394030Y-112929329D01*
X136404520Y-112907150D01*
X136417132Y-112886107D01*
X136431747Y-112866401D01*
X136448223Y-112848223D01*
X136466401Y-112831747D01*
X136486107Y-112817132D01*
X136507150Y-112804520D01*
X136529329Y-112794030D01*
X136552428Y-112785765D01*
X136576227Y-112779804D01*
X136600495Y-112776204D01*
X136624999Y-112775000D01*
X137175001Y-112775000D01*
X137199505Y-112776204D01*
G37*
G36*
X137199505Y-111476204D02*
G01*
X137223773Y-111479804D01*
X137247572Y-111485765D01*
X137270671Y-111494030D01*
X137292850Y-111504520D01*
X137313893Y-111517132D01*
X137333599Y-111531747D01*
X137351777Y-111548223D01*
X137368253Y-111566401D01*
X137382868Y-111586107D01*
X137395480Y-111607150D01*
X137405970Y-111629329D01*
X137414235Y-111652428D01*
X137420196Y-111676227D01*
X137423796Y-111700495D01*
X137425000Y-111724999D01*
X137425000Y-112275001D01*
X137423796Y-112299505D01*
X137420196Y-112323773D01*
X137414235Y-112347572D01*
X137405970Y-112370671D01*
X137395480Y-112392850D01*
X137382868Y-112413893D01*
X137368253Y-112433599D01*
X137351777Y-112451777D01*
X137333599Y-112468253D01*
X137313893Y-112482868D01*
X137292850Y-112495480D01*
X137270671Y-112505970D01*
X137247572Y-112514235D01*
X137223773Y-112520196D01*
X137199505Y-112523796D01*
X137175001Y-112525000D01*
X136624999Y-112525000D01*
X136600495Y-112523796D01*
X136576227Y-112520196D01*
X136552428Y-112514235D01*
X136529329Y-112505970D01*
X136507150Y-112495480D01*
X136486107Y-112482868D01*
X136466401Y-112468253D01*
X136448223Y-112451777D01*
X136431747Y-112433599D01*
X136417132Y-112413893D01*
X136404520Y-112392850D01*
X136394030Y-112370671D01*
X136385765Y-112347572D01*
X136379804Y-112323773D01*
X136376204Y-112299505D01*
X136375000Y-112275001D01*
X136375000Y-111724999D01*
X136376204Y-111700495D01*
X136379804Y-111676227D01*
X136385765Y-111652428D01*
X136394030Y-111629329D01*
X136404520Y-111607150D01*
X136417132Y-111586107D01*
X136431747Y-111566401D01*
X136448223Y-111548223D01*
X136466401Y-111531747D01*
X136486107Y-111517132D01*
X136507150Y-111504520D01*
X136529329Y-111494030D01*
X136552428Y-111485765D01*
X136576227Y-111479804D01*
X136600495Y-111476204D01*
X136624999Y-111475000D01*
X137175001Y-111475000D01*
X137199505Y-111476204D01*
G37*
G36*
X137199505Y-110176204D02*
G01*
X137223773Y-110179804D01*
X137247572Y-110185765D01*
X137270671Y-110194030D01*
X137292850Y-110204520D01*
X137313893Y-110217132D01*
X137333599Y-110231747D01*
X137351777Y-110248223D01*
X137368253Y-110266401D01*
X137382868Y-110286107D01*
X137395480Y-110307150D01*
X137405970Y-110329329D01*
X137414235Y-110352428D01*
X137420196Y-110376227D01*
X137423796Y-110400495D01*
X137425000Y-110424999D01*
X137425000Y-110975001D01*
X137423796Y-110999505D01*
X137420196Y-111023773D01*
X137414235Y-111047572D01*
X137405970Y-111070671D01*
X137395480Y-111092850D01*
X137382868Y-111113893D01*
X137368253Y-111133599D01*
X137351777Y-111151777D01*
X137333599Y-111168253D01*
X137313893Y-111182868D01*
X137292850Y-111195480D01*
X137270671Y-111205970D01*
X137247572Y-111214235D01*
X137223773Y-111220196D01*
X137199505Y-111223796D01*
X137175001Y-111225000D01*
X136624999Y-111225000D01*
X136600495Y-111223796D01*
X136576227Y-111220196D01*
X136552428Y-111214235D01*
X136529329Y-111205970D01*
X136507150Y-111195480D01*
X136486107Y-111182868D01*
X136466401Y-111168253D01*
X136448223Y-111151777D01*
X136431747Y-111133599D01*
X136417132Y-111113893D01*
X136404520Y-111092850D01*
X136394030Y-111070671D01*
X136385765Y-111047572D01*
X136379804Y-111023773D01*
X136376204Y-110999505D01*
X136375000Y-110975001D01*
X136375000Y-110424999D01*
X136376204Y-110400495D01*
X136379804Y-110376227D01*
X136385765Y-110352428D01*
X136394030Y-110329329D01*
X136404520Y-110307150D01*
X136417132Y-110286107D01*
X136431747Y-110266401D01*
X136448223Y-110248223D01*
X136466401Y-110231747D01*
X136486107Y-110217132D01*
X136507150Y-110204520D01*
X136529329Y-110194030D01*
X136552428Y-110185765D01*
X136576227Y-110179804D01*
X136600495Y-110176204D01*
X136624999Y-110175000D01*
X137175001Y-110175000D01*
X137199505Y-110176204D01*
G37*
G36*
X135899505Y-114076204D02*
G01*
X135923773Y-114079804D01*
X135947572Y-114085765D01*
X135970671Y-114094030D01*
X135992850Y-114104520D01*
X136013893Y-114117132D01*
X136033599Y-114131747D01*
X136051777Y-114148223D01*
X136068253Y-114166401D01*
X136082868Y-114186107D01*
X136095480Y-114207150D01*
X136105970Y-114229329D01*
X136114235Y-114252428D01*
X136120196Y-114276227D01*
X136123796Y-114300495D01*
X136125000Y-114324999D01*
X136125000Y-114875001D01*
X136123796Y-114899505D01*
X136120196Y-114923773D01*
X136114235Y-114947572D01*
X136105970Y-114970671D01*
X136095480Y-114992850D01*
X136082868Y-115013893D01*
X136068253Y-115033599D01*
X136051777Y-115051777D01*
X136033599Y-115068253D01*
X136013893Y-115082868D01*
X135992850Y-115095480D01*
X135970671Y-115105970D01*
X135947572Y-115114235D01*
X135923773Y-115120196D01*
X135899505Y-115123796D01*
X135875001Y-115125000D01*
X135324999Y-115125000D01*
X135300495Y-115123796D01*
X135276227Y-115120196D01*
X135252428Y-115114235D01*
X135229329Y-115105970D01*
X135207150Y-115095480D01*
X135186107Y-115082868D01*
X135166401Y-115068253D01*
X135148223Y-115051777D01*
X135131747Y-115033599D01*
X135117132Y-115013893D01*
X135104520Y-114992850D01*
X135094030Y-114970671D01*
X135085765Y-114947572D01*
X135079804Y-114923773D01*
X135076204Y-114899505D01*
X135075000Y-114875001D01*
X135075000Y-114324999D01*
X135076204Y-114300495D01*
X135079804Y-114276227D01*
X135085765Y-114252428D01*
X135094030Y-114229329D01*
X135104520Y-114207150D01*
X135117132Y-114186107D01*
X135131747Y-114166401D01*
X135148223Y-114148223D01*
X135166401Y-114131747D01*
X135186107Y-114117132D01*
X135207150Y-114104520D01*
X135229329Y-114094030D01*
X135252428Y-114085765D01*
X135276227Y-114079804D01*
X135300495Y-114076204D01*
X135324999Y-114075000D01*
X135875001Y-114075000D01*
X135899505Y-114076204D01*
G37*
G36*
X135899505Y-112776204D02*
G01*
X135923773Y-112779804D01*
X135947572Y-112785765D01*
X135970671Y-112794030D01*
X135992850Y-112804520D01*
X136013893Y-112817132D01*
X136033599Y-112831747D01*
X136051777Y-112848223D01*
X136068253Y-112866401D01*
X136082868Y-112886107D01*
X136095480Y-112907150D01*
X136105970Y-112929329D01*
X136114235Y-112952428D01*
X136120196Y-112976227D01*
X136123796Y-113000495D01*
X136125000Y-113024999D01*
X136125000Y-113575001D01*
X136123796Y-113599505D01*
X136120196Y-113623773D01*
X136114235Y-113647572D01*
X136105970Y-113670671D01*
X136095480Y-113692850D01*
X136082868Y-113713893D01*
X136068253Y-113733599D01*
X136051777Y-113751777D01*
X136033599Y-113768253D01*
X136013893Y-113782868D01*
X135992850Y-113795480D01*
X135970671Y-113805970D01*
X135947572Y-113814235D01*
X135923773Y-113820196D01*
X135899505Y-113823796D01*
X135875001Y-113825000D01*
X135324999Y-113825000D01*
X135300495Y-113823796D01*
X135276227Y-113820196D01*
X135252428Y-113814235D01*
X135229329Y-113805970D01*
X135207150Y-113795480D01*
X135186107Y-113782868D01*
X135166401Y-113768253D01*
X135148223Y-113751777D01*
X135131747Y-113733599D01*
X135117132Y-113713893D01*
X135104520Y-113692850D01*
X135094030Y-113670671D01*
X135085765Y-113647572D01*
X135079804Y-113623773D01*
X135076204Y-113599505D01*
X135075000Y-113575001D01*
X135075000Y-113024999D01*
X135076204Y-113000495D01*
X135079804Y-112976227D01*
X135085765Y-112952428D01*
X135094030Y-112929329D01*
X135104520Y-112907150D01*
X135117132Y-112886107D01*
X135131747Y-112866401D01*
X135148223Y-112848223D01*
X135166401Y-112831747D01*
X135186107Y-112817132D01*
X135207150Y-112804520D01*
X135229329Y-112794030D01*
X135252428Y-112785765D01*
X135276227Y-112779804D01*
X135300495Y-112776204D01*
X135324999Y-112775000D01*
X135875001Y-112775000D01*
X135899505Y-112776204D01*
G37*
G36*
X135899505Y-111476204D02*
G01*
X135923773Y-111479804D01*
X135947572Y-111485765D01*
X135970671Y-111494030D01*
X135992850Y-111504520D01*
X136013893Y-111517132D01*
X136033599Y-111531747D01*
X136051777Y-111548223D01*
X136068253Y-111566401D01*
X136082868Y-111586107D01*
X136095480Y-111607150D01*
X136105970Y-111629329D01*
X136114235Y-111652428D01*
X136120196Y-111676227D01*
X136123796Y-111700495D01*
X136125000Y-111724999D01*
X136125000Y-112275001D01*
X136123796Y-112299505D01*
X136120196Y-112323773D01*
X136114235Y-112347572D01*
X136105970Y-112370671D01*
X136095480Y-112392850D01*
X136082868Y-112413893D01*
X136068253Y-112433599D01*
X136051777Y-112451777D01*
X136033599Y-112468253D01*
X136013893Y-112482868D01*
X135992850Y-112495480D01*
X135970671Y-112505970D01*
X135947572Y-112514235D01*
X135923773Y-112520196D01*
X135899505Y-112523796D01*
X135875001Y-112525000D01*
X135324999Y-112525000D01*
X135300495Y-112523796D01*
X135276227Y-112520196D01*
X135252428Y-112514235D01*
X135229329Y-112505970D01*
X135207150Y-112495480D01*
X135186107Y-112482868D01*
X135166401Y-112468253D01*
X135148223Y-112451777D01*
X135131747Y-112433599D01*
X135117132Y-112413893D01*
X135104520Y-112392850D01*
X135094030Y-112370671D01*
X135085765Y-112347572D01*
X135079804Y-112323773D01*
X135076204Y-112299505D01*
X135075000Y-112275001D01*
X135075000Y-111724999D01*
X135076204Y-111700495D01*
X135079804Y-111676227D01*
X135085765Y-111652428D01*
X135094030Y-111629329D01*
X135104520Y-111607150D01*
X135117132Y-111586107D01*
X135131747Y-111566401D01*
X135148223Y-111548223D01*
X135166401Y-111531747D01*
X135186107Y-111517132D01*
X135207150Y-111504520D01*
X135229329Y-111494030D01*
X135252428Y-111485765D01*
X135276227Y-111479804D01*
X135300495Y-111476204D01*
X135324999Y-111475000D01*
X135875001Y-111475000D01*
X135899505Y-111476204D01*
G37*
G36*
X135899505Y-110176204D02*
G01*
X135923773Y-110179804D01*
X135947572Y-110185765D01*
X135970671Y-110194030D01*
X135992850Y-110204520D01*
X136013893Y-110217132D01*
X136033599Y-110231747D01*
X136051777Y-110248223D01*
X136068253Y-110266401D01*
X136082868Y-110286107D01*
X136095480Y-110307150D01*
X136105970Y-110329329D01*
X136114235Y-110352428D01*
X136120196Y-110376227D01*
X136123796Y-110400495D01*
X136125000Y-110424999D01*
X136125000Y-110975001D01*
X136123796Y-110999505D01*
X136120196Y-111023773D01*
X136114235Y-111047572D01*
X136105970Y-111070671D01*
X136095480Y-111092850D01*
X136082868Y-111113893D01*
X136068253Y-111133599D01*
X136051777Y-111151777D01*
X136033599Y-111168253D01*
X136013893Y-111182868D01*
X135992850Y-111195480D01*
X135970671Y-111205970D01*
X135947572Y-111214235D01*
X135923773Y-111220196D01*
X135899505Y-111223796D01*
X135875001Y-111225000D01*
X135324999Y-111225000D01*
X135300495Y-111223796D01*
X135276227Y-111220196D01*
X135252428Y-111214235D01*
X135229329Y-111205970D01*
X135207150Y-111195480D01*
X135186107Y-111182868D01*
X135166401Y-111168253D01*
X135148223Y-111151777D01*
X135131747Y-111133599D01*
X135117132Y-111113893D01*
X135104520Y-111092850D01*
X135094030Y-111070671D01*
X135085765Y-111047572D01*
X135079804Y-111023773D01*
X135076204Y-110999505D01*
X135075000Y-110975001D01*
X135075000Y-110424999D01*
X135076204Y-110400495D01*
X135079804Y-110376227D01*
X135085765Y-110352428D01*
X135094030Y-110329329D01*
X135104520Y-110307150D01*
X135117132Y-110286107D01*
X135131747Y-110266401D01*
X135148223Y-110248223D01*
X135166401Y-110231747D01*
X135186107Y-110217132D01*
X135207150Y-110204520D01*
X135229329Y-110194030D01*
X135252428Y-110185765D01*
X135276227Y-110179804D01*
X135300495Y-110176204D01*
X135324999Y-110175000D01*
X135875001Y-110175000D01*
X135899505Y-110176204D01*
G37*
G36*
X130186958Y-108955710D02*
G01*
X130201276Y-108957834D01*
X130215317Y-108961351D01*
X130228946Y-108966228D01*
X130242031Y-108972417D01*
X130254447Y-108979858D01*
X130266073Y-108988481D01*
X130276798Y-108998202D01*
X130286519Y-109008927D01*
X130295142Y-109020553D01*
X130302583Y-109032969D01*
X130308772Y-109046054D01*
X130313649Y-109059683D01*
X130317166Y-109073724D01*
X130319290Y-109088042D01*
X130320000Y-109102500D01*
X130320000Y-109397500D01*
X130319290Y-109411958D01*
X130317166Y-109426276D01*
X130313649Y-109440317D01*
X130308772Y-109453946D01*
X130302583Y-109467031D01*
X130295142Y-109479447D01*
X130286519Y-109491073D01*
X130276798Y-109501798D01*
X130266073Y-109511519D01*
X130254447Y-109520142D01*
X130242031Y-109527583D01*
X130228946Y-109533772D01*
X130215317Y-109538649D01*
X130201276Y-109542166D01*
X130186958Y-109544290D01*
X130172500Y-109545000D01*
X129827500Y-109545000D01*
X129813042Y-109544290D01*
X129798724Y-109542166D01*
X129784683Y-109538649D01*
X129771054Y-109533772D01*
X129757969Y-109527583D01*
X129745553Y-109520142D01*
X129733927Y-109511519D01*
X129723202Y-109501798D01*
X129713481Y-109491073D01*
X129704858Y-109479447D01*
X129697417Y-109467031D01*
X129691228Y-109453946D01*
X129686351Y-109440317D01*
X129682834Y-109426276D01*
X129680710Y-109411958D01*
X129680000Y-109397500D01*
X129680000Y-109102500D01*
X129680710Y-109088042D01*
X129682834Y-109073724D01*
X129686351Y-109059683D01*
X129691228Y-109046054D01*
X129697417Y-109032969D01*
X129704858Y-109020553D01*
X129713481Y-109008927D01*
X129723202Y-108998202D01*
X129733927Y-108988481D01*
X129745553Y-108979858D01*
X129757969Y-108972417D01*
X129771054Y-108966228D01*
X129784683Y-108961351D01*
X129798724Y-108957834D01*
X129813042Y-108955710D01*
X129827500Y-108955000D01*
X130172500Y-108955000D01*
X130186958Y-108955710D01*
G37*
G36*
X130186958Y-107985710D02*
G01*
X130201276Y-107987834D01*
X130215317Y-107991351D01*
X130228946Y-107996228D01*
X130242031Y-108002417D01*
X130254447Y-108009858D01*
X130266073Y-108018481D01*
X130276798Y-108028202D01*
X130286519Y-108038927D01*
X130295142Y-108050553D01*
X130302583Y-108062969D01*
X130308772Y-108076054D01*
X130313649Y-108089683D01*
X130317166Y-108103724D01*
X130319290Y-108118042D01*
X130320000Y-108132500D01*
X130320000Y-108427500D01*
X130319290Y-108441958D01*
X130317166Y-108456276D01*
X130313649Y-108470317D01*
X130308772Y-108483946D01*
X130302583Y-108497031D01*
X130295142Y-108509447D01*
X130286519Y-108521073D01*
X130276798Y-108531798D01*
X130266073Y-108541519D01*
X130254447Y-108550142D01*
X130242031Y-108557583D01*
X130228946Y-108563772D01*
X130215317Y-108568649D01*
X130201276Y-108572166D01*
X130186958Y-108574290D01*
X130172500Y-108575000D01*
X129827500Y-108575000D01*
X129813042Y-108574290D01*
X129798724Y-108572166D01*
X129784683Y-108568649D01*
X129771054Y-108563772D01*
X129757969Y-108557583D01*
X129745553Y-108550142D01*
X129733927Y-108541519D01*
X129723202Y-108531798D01*
X129713481Y-108521073D01*
X129704858Y-108509447D01*
X129697417Y-108497031D01*
X129691228Y-108483946D01*
X129686351Y-108470317D01*
X129682834Y-108456276D01*
X129680710Y-108441958D01*
X129680000Y-108427500D01*
X129680000Y-108132500D01*
X129680710Y-108118042D01*
X129682834Y-108103724D01*
X129686351Y-108089683D01*
X129691228Y-108076054D01*
X129697417Y-108062969D01*
X129704858Y-108050553D01*
X129713481Y-108038927D01*
X129723202Y-108028202D01*
X129733927Y-108018481D01*
X129745553Y-108009858D01*
X129757969Y-108002417D01*
X129771054Y-107996228D01*
X129784683Y-107991351D01*
X129798724Y-107987834D01*
X129813042Y-107985710D01*
X129827500Y-107985000D01*
X130172500Y-107985000D01*
X130186958Y-107985710D01*
G37*
G36*
X126911958Y-110180710D02*
G01*
X126926276Y-110182834D01*
X126940317Y-110186351D01*
X126953946Y-110191228D01*
X126967031Y-110197417D01*
X126979447Y-110204858D01*
X126991073Y-110213481D01*
X127001798Y-110223202D01*
X127011519Y-110233927D01*
X127020142Y-110245553D01*
X127027583Y-110257969D01*
X127033772Y-110271054D01*
X127038649Y-110284683D01*
X127042166Y-110298724D01*
X127044290Y-110313042D01*
X127045000Y-110327500D01*
X127045000Y-110672500D01*
X127044290Y-110686958D01*
X127042166Y-110701276D01*
X127038649Y-110715317D01*
X127033772Y-110728946D01*
X127027583Y-110742031D01*
X127020142Y-110754447D01*
X127011519Y-110766073D01*
X127001798Y-110776798D01*
X126991073Y-110786519D01*
X126979447Y-110795142D01*
X126967031Y-110802583D01*
X126953946Y-110808772D01*
X126940317Y-110813649D01*
X126926276Y-110817166D01*
X126911958Y-110819290D01*
X126897500Y-110820000D01*
X126602500Y-110820000D01*
X126588042Y-110819290D01*
X126573724Y-110817166D01*
X126559683Y-110813649D01*
X126546054Y-110808772D01*
X126532969Y-110802583D01*
X126520553Y-110795142D01*
X126508927Y-110786519D01*
X126498202Y-110776798D01*
X126488481Y-110766073D01*
X126479858Y-110754447D01*
X126472417Y-110742031D01*
X126466228Y-110728946D01*
X126461351Y-110715317D01*
X126457834Y-110701276D01*
X126455710Y-110686958D01*
X126455000Y-110672500D01*
X126455000Y-110327500D01*
X126455710Y-110313042D01*
X126457834Y-110298724D01*
X126461351Y-110284683D01*
X126466228Y-110271054D01*
X126472417Y-110257969D01*
X126479858Y-110245553D01*
X126488481Y-110233927D01*
X126498202Y-110223202D01*
X126508927Y-110213481D01*
X126520553Y-110204858D01*
X126532969Y-110197417D01*
X126546054Y-110191228D01*
X126559683Y-110186351D01*
X126573724Y-110182834D01*
X126588042Y-110180710D01*
X126602500Y-110180000D01*
X126897500Y-110180000D01*
X126911958Y-110180710D01*
G37*
G36*
X127881958Y-110180710D02*
G01*
X127896276Y-110182834D01*
X127910317Y-110186351D01*
X127923946Y-110191228D01*
X127937031Y-110197417D01*
X127949447Y-110204858D01*
X127961073Y-110213481D01*
X127971798Y-110223202D01*
X127981519Y-110233927D01*
X127990142Y-110245553D01*
X127997583Y-110257969D01*
X128003772Y-110271054D01*
X128008649Y-110284683D01*
X128012166Y-110298724D01*
X128014290Y-110313042D01*
X128015000Y-110327500D01*
X128015000Y-110672500D01*
X128014290Y-110686958D01*
X128012166Y-110701276D01*
X128008649Y-110715317D01*
X128003772Y-110728946D01*
X127997583Y-110742031D01*
X127990142Y-110754447D01*
X127981519Y-110766073D01*
X127971798Y-110776798D01*
X127961073Y-110786519D01*
X127949447Y-110795142D01*
X127937031Y-110802583D01*
X127923946Y-110808772D01*
X127910317Y-110813649D01*
X127896276Y-110817166D01*
X127881958Y-110819290D01*
X127867500Y-110820000D01*
X127572500Y-110820000D01*
X127558042Y-110819290D01*
X127543724Y-110817166D01*
X127529683Y-110813649D01*
X127516054Y-110808772D01*
X127502969Y-110802583D01*
X127490553Y-110795142D01*
X127478927Y-110786519D01*
X127468202Y-110776798D01*
X127458481Y-110766073D01*
X127449858Y-110754447D01*
X127442417Y-110742031D01*
X127436228Y-110728946D01*
X127431351Y-110715317D01*
X127427834Y-110701276D01*
X127425710Y-110686958D01*
X127425000Y-110672500D01*
X127425000Y-110327500D01*
X127425710Y-110313042D01*
X127427834Y-110298724D01*
X127431351Y-110284683D01*
X127436228Y-110271054D01*
X127442417Y-110257969D01*
X127449858Y-110245553D01*
X127458481Y-110233927D01*
X127468202Y-110223202D01*
X127478927Y-110213481D01*
X127490553Y-110204858D01*
X127502969Y-110197417D01*
X127516054Y-110191228D01*
X127529683Y-110186351D01*
X127543724Y-110182834D01*
X127558042Y-110180710D01*
X127572500Y-110180000D01*
X127867500Y-110180000D01*
X127881958Y-110180710D01*
G37*
G36*
X124411958Y-111430710D02*
G01*
X124426276Y-111432834D01*
X124440317Y-111436351D01*
X124453946Y-111441228D01*
X124467031Y-111447417D01*
X124479447Y-111454858D01*
X124491073Y-111463481D01*
X124501798Y-111473202D01*
X124511519Y-111483927D01*
X124520142Y-111495553D01*
X124527583Y-111507969D01*
X124533772Y-111521054D01*
X124538649Y-111534683D01*
X124542166Y-111548724D01*
X124544290Y-111563042D01*
X124545000Y-111577500D01*
X124545000Y-111922500D01*
X124544290Y-111936958D01*
X124542166Y-111951276D01*
X124538649Y-111965317D01*
X124533772Y-111978946D01*
X124527583Y-111992031D01*
X124520142Y-112004447D01*
X124511519Y-112016073D01*
X124501798Y-112026798D01*
X124491073Y-112036519D01*
X124479447Y-112045142D01*
X124467031Y-112052583D01*
X124453946Y-112058772D01*
X124440317Y-112063649D01*
X124426276Y-112067166D01*
X124411958Y-112069290D01*
X124397500Y-112070000D01*
X124102500Y-112070000D01*
X124088042Y-112069290D01*
X124073724Y-112067166D01*
X124059683Y-112063649D01*
X124046054Y-112058772D01*
X124032969Y-112052583D01*
X124020553Y-112045142D01*
X124008927Y-112036519D01*
X123998202Y-112026798D01*
X123988481Y-112016073D01*
X123979858Y-112004447D01*
X123972417Y-111992031D01*
X123966228Y-111978946D01*
X123961351Y-111965317D01*
X123957834Y-111951276D01*
X123955710Y-111936958D01*
X123955000Y-111922500D01*
X123955000Y-111577500D01*
X123955710Y-111563042D01*
X123957834Y-111548724D01*
X123961351Y-111534683D01*
X123966228Y-111521054D01*
X123972417Y-111507969D01*
X123979858Y-111495553D01*
X123988481Y-111483927D01*
X123998202Y-111473202D01*
X124008927Y-111463481D01*
X124020553Y-111454858D01*
X124032969Y-111447417D01*
X124046054Y-111441228D01*
X124059683Y-111436351D01*
X124073724Y-111432834D01*
X124088042Y-111430710D01*
X124102500Y-111430000D01*
X124397500Y-111430000D01*
X124411958Y-111430710D01*
G37*
G36*
X125381958Y-111430710D02*
G01*
X125396276Y-111432834D01*
X125410317Y-111436351D01*
X125423946Y-111441228D01*
X125437031Y-111447417D01*
X125449447Y-111454858D01*
X125461073Y-111463481D01*
X125471798Y-111473202D01*
X125481519Y-111483927D01*
X125490142Y-111495553D01*
X125497583Y-111507969D01*
X125503772Y-111521054D01*
X125508649Y-111534683D01*
X125512166Y-111548724D01*
X125514290Y-111563042D01*
X125515000Y-111577500D01*
X125515000Y-111922500D01*
X125514290Y-111936958D01*
X125512166Y-111951276D01*
X125508649Y-111965317D01*
X125503772Y-111978946D01*
X125497583Y-111992031D01*
X125490142Y-112004447D01*
X125481519Y-112016073D01*
X125471798Y-112026798D01*
X125461073Y-112036519D01*
X125449447Y-112045142D01*
X125437031Y-112052583D01*
X125423946Y-112058772D01*
X125410317Y-112063649D01*
X125396276Y-112067166D01*
X125381958Y-112069290D01*
X125367500Y-112070000D01*
X125072500Y-112070000D01*
X125058042Y-112069290D01*
X125043724Y-112067166D01*
X125029683Y-112063649D01*
X125016054Y-112058772D01*
X125002969Y-112052583D01*
X124990553Y-112045142D01*
X124978927Y-112036519D01*
X124968202Y-112026798D01*
X124958481Y-112016073D01*
X124949858Y-112004447D01*
X124942417Y-111992031D01*
X124936228Y-111978946D01*
X124931351Y-111965317D01*
X124927834Y-111951276D01*
X124925710Y-111936958D01*
X124925000Y-111922500D01*
X124925000Y-111577500D01*
X124925710Y-111563042D01*
X124927834Y-111548724D01*
X124931351Y-111534683D01*
X124936228Y-111521054D01*
X124942417Y-111507969D01*
X124949858Y-111495553D01*
X124958481Y-111483927D01*
X124968202Y-111473202D01*
X124978927Y-111463481D01*
X124990553Y-111454858D01*
X125002969Y-111447417D01*
X125016054Y-111441228D01*
X125029683Y-111436351D01*
X125043724Y-111432834D01*
X125058042Y-111430710D01*
X125072500Y-111430000D01*
X125367500Y-111430000D01*
X125381958Y-111430710D01*
G37*
G36*
X133686958Y-125235710D02*
G01*
X133701276Y-125237834D01*
X133715317Y-125241351D01*
X133728946Y-125246228D01*
X133742031Y-125252417D01*
X133754447Y-125259858D01*
X133766073Y-125268481D01*
X133776798Y-125278202D01*
X133786519Y-125288927D01*
X133795142Y-125300553D01*
X133802583Y-125312969D01*
X133808772Y-125326054D01*
X133813649Y-125339683D01*
X133817166Y-125353724D01*
X133819290Y-125368042D01*
X133820000Y-125382500D01*
X133820000Y-125677500D01*
X133819290Y-125691958D01*
X133817166Y-125706276D01*
X133813649Y-125720317D01*
X133808772Y-125733946D01*
X133802583Y-125747031D01*
X133795142Y-125759447D01*
X133786519Y-125771073D01*
X133776798Y-125781798D01*
X133766073Y-125791519D01*
X133754447Y-125800142D01*
X133742031Y-125807583D01*
X133728946Y-125813772D01*
X133715317Y-125818649D01*
X133701276Y-125822166D01*
X133686958Y-125824290D01*
X133672500Y-125825000D01*
X133327500Y-125825000D01*
X133313042Y-125824290D01*
X133298724Y-125822166D01*
X133284683Y-125818649D01*
X133271054Y-125813772D01*
X133257969Y-125807583D01*
X133245553Y-125800142D01*
X133233927Y-125791519D01*
X133223202Y-125781798D01*
X133213481Y-125771073D01*
X133204858Y-125759447D01*
X133197417Y-125747031D01*
X133191228Y-125733946D01*
X133186351Y-125720317D01*
X133182834Y-125706276D01*
X133180710Y-125691958D01*
X133180000Y-125677500D01*
X133180000Y-125382500D01*
X133180710Y-125368042D01*
X133182834Y-125353724D01*
X133186351Y-125339683D01*
X133191228Y-125326054D01*
X133197417Y-125312969D01*
X133204858Y-125300553D01*
X133213481Y-125288927D01*
X133223202Y-125278202D01*
X133233927Y-125268481D01*
X133245553Y-125259858D01*
X133257969Y-125252417D01*
X133271054Y-125246228D01*
X133284683Y-125241351D01*
X133298724Y-125237834D01*
X133313042Y-125235710D01*
X133327500Y-125235000D01*
X133672500Y-125235000D01*
X133686958Y-125235710D01*
G37*
G36*
X133686958Y-126205710D02*
G01*
X133701276Y-126207834D01*
X133715317Y-126211351D01*
X133728946Y-126216228D01*
X133742031Y-126222417D01*
X133754447Y-126229858D01*
X133766073Y-126238481D01*
X133776798Y-126248202D01*
X133786519Y-126258927D01*
X133795142Y-126270553D01*
X133802583Y-126282969D01*
X133808772Y-126296054D01*
X133813649Y-126309683D01*
X133817166Y-126323724D01*
X133819290Y-126338042D01*
X133820000Y-126352500D01*
X133820000Y-126647500D01*
X133819290Y-126661958D01*
X133817166Y-126676276D01*
X133813649Y-126690317D01*
X133808772Y-126703946D01*
X133802583Y-126717031D01*
X133795142Y-126729447D01*
X133786519Y-126741073D01*
X133776798Y-126751798D01*
X133766073Y-126761519D01*
X133754447Y-126770142D01*
X133742031Y-126777583D01*
X133728946Y-126783772D01*
X133715317Y-126788649D01*
X133701276Y-126792166D01*
X133686958Y-126794290D01*
X133672500Y-126795000D01*
X133327500Y-126795000D01*
X133313042Y-126794290D01*
X133298724Y-126792166D01*
X133284683Y-126788649D01*
X133271054Y-126783772D01*
X133257969Y-126777583D01*
X133245553Y-126770142D01*
X133233927Y-126761519D01*
X133223202Y-126751798D01*
X133213481Y-126741073D01*
X133204858Y-126729447D01*
X133197417Y-126717031D01*
X133191228Y-126703946D01*
X133186351Y-126690317D01*
X133182834Y-126676276D01*
X133180710Y-126661958D01*
X133180000Y-126647500D01*
X133180000Y-126352500D01*
X133180710Y-126338042D01*
X133182834Y-126323724D01*
X133186351Y-126309683D01*
X133191228Y-126296054D01*
X133197417Y-126282969D01*
X133204858Y-126270553D01*
X133213481Y-126258927D01*
X133223202Y-126248202D01*
X133233927Y-126238481D01*
X133245553Y-126229858D01*
X133257969Y-126222417D01*
X133271054Y-126216228D01*
X133284683Y-126211351D01*
X133298724Y-126207834D01*
X133313042Y-126205710D01*
X133327500Y-126205000D01*
X133672500Y-126205000D01*
X133686958Y-126205710D01*
G37*
D11*
X120200000Y-117500000D03*
X120200000Y-108000000D03*
D12*
X121350000Y-114350000D03*
X121350000Y-113550000D03*
X121350000Y-112750000D03*
X121350000Y-111950000D03*
X121350000Y-111150000D03*
D10*
G36*
X136941958Y-104930710D02*
G01*
X136956276Y-104932834D01*
X136970317Y-104936351D01*
X136983946Y-104941228D01*
X136997031Y-104947417D01*
X137009447Y-104954858D01*
X137021073Y-104963481D01*
X137031798Y-104973202D01*
X137041519Y-104983927D01*
X137050142Y-104995553D01*
X137057583Y-105007969D01*
X137063772Y-105021054D01*
X137068649Y-105034683D01*
X137072166Y-105048724D01*
X137074290Y-105063042D01*
X137075000Y-105077500D01*
X137075000Y-105422500D01*
X137074290Y-105436958D01*
X137072166Y-105451276D01*
X137068649Y-105465317D01*
X137063772Y-105478946D01*
X137057583Y-105492031D01*
X137050142Y-105504447D01*
X137041519Y-105516073D01*
X137031798Y-105526798D01*
X137021073Y-105536519D01*
X137009447Y-105545142D01*
X136997031Y-105552583D01*
X136983946Y-105558772D01*
X136970317Y-105563649D01*
X136956276Y-105567166D01*
X136941958Y-105569290D01*
X136927500Y-105570000D01*
X136632500Y-105570000D01*
X136618042Y-105569290D01*
X136603724Y-105567166D01*
X136589683Y-105563649D01*
X136576054Y-105558772D01*
X136562969Y-105552583D01*
X136550553Y-105545142D01*
X136538927Y-105536519D01*
X136528202Y-105526798D01*
X136518481Y-105516073D01*
X136509858Y-105504447D01*
X136502417Y-105492031D01*
X136496228Y-105478946D01*
X136491351Y-105465317D01*
X136487834Y-105451276D01*
X136485710Y-105436958D01*
X136485000Y-105422500D01*
X136485000Y-105077500D01*
X136485710Y-105063042D01*
X136487834Y-105048724D01*
X136491351Y-105034683D01*
X136496228Y-105021054D01*
X136502417Y-105007969D01*
X136509858Y-104995553D01*
X136518481Y-104983927D01*
X136528202Y-104973202D01*
X136538927Y-104963481D01*
X136550553Y-104954858D01*
X136562969Y-104947417D01*
X136576054Y-104941228D01*
X136589683Y-104936351D01*
X136603724Y-104932834D01*
X136618042Y-104930710D01*
X136632500Y-104930000D01*
X136927500Y-104930000D01*
X136941958Y-104930710D01*
G37*
G36*
X137911958Y-104930710D02*
G01*
X137926276Y-104932834D01*
X137940317Y-104936351D01*
X137953946Y-104941228D01*
X137967031Y-104947417D01*
X137979447Y-104954858D01*
X137991073Y-104963481D01*
X138001798Y-104973202D01*
X138011519Y-104983927D01*
X138020142Y-104995553D01*
X138027583Y-105007969D01*
X138033772Y-105021054D01*
X138038649Y-105034683D01*
X138042166Y-105048724D01*
X138044290Y-105063042D01*
X138045000Y-105077500D01*
X138045000Y-105422500D01*
X138044290Y-105436958D01*
X138042166Y-105451276D01*
X138038649Y-105465317D01*
X138033772Y-105478946D01*
X138027583Y-105492031D01*
X138020142Y-105504447D01*
X138011519Y-105516073D01*
X138001798Y-105526798D01*
X137991073Y-105536519D01*
X137979447Y-105545142D01*
X137967031Y-105552583D01*
X137953946Y-105558772D01*
X137940317Y-105563649D01*
X137926276Y-105567166D01*
X137911958Y-105569290D01*
X137897500Y-105570000D01*
X137602500Y-105570000D01*
X137588042Y-105569290D01*
X137573724Y-105567166D01*
X137559683Y-105563649D01*
X137546054Y-105558772D01*
X137532969Y-105552583D01*
X137520553Y-105545142D01*
X137508927Y-105536519D01*
X137498202Y-105526798D01*
X137488481Y-105516073D01*
X137479858Y-105504447D01*
X137472417Y-105492031D01*
X137466228Y-105478946D01*
X137461351Y-105465317D01*
X137457834Y-105451276D01*
X137455710Y-105436958D01*
X137455000Y-105422500D01*
X137455000Y-105077500D01*
X137455710Y-105063042D01*
X137457834Y-105048724D01*
X137461351Y-105034683D01*
X137466228Y-105021054D01*
X137472417Y-105007969D01*
X137479858Y-104995553D01*
X137488481Y-104983927D01*
X137498202Y-104973202D01*
X137508927Y-104963481D01*
X137520553Y-104954858D01*
X137532969Y-104947417D01*
X137546054Y-104941228D01*
X137559683Y-104936351D01*
X137573724Y-104932834D01*
X137588042Y-104930710D01*
X137602500Y-104930000D01*
X137897500Y-104930000D01*
X137911958Y-104930710D01*
G37*
G36*
X130936958Y-112205710D02*
G01*
X130951276Y-112207834D01*
X130965317Y-112211351D01*
X130978946Y-112216228D01*
X130992031Y-112222417D01*
X131004447Y-112229858D01*
X131016073Y-112238481D01*
X131026798Y-112248202D01*
X131036519Y-112258927D01*
X131045142Y-112270553D01*
X131052583Y-112282969D01*
X131058772Y-112296054D01*
X131063649Y-112309683D01*
X131067166Y-112323724D01*
X131069290Y-112338042D01*
X131070000Y-112352500D01*
X131070000Y-112647500D01*
X131069290Y-112661958D01*
X131067166Y-112676276D01*
X131063649Y-112690317D01*
X131058772Y-112703946D01*
X131052583Y-112717031D01*
X131045142Y-112729447D01*
X131036519Y-112741073D01*
X131026798Y-112751798D01*
X131016073Y-112761519D01*
X131004447Y-112770142D01*
X130992031Y-112777583D01*
X130978946Y-112783772D01*
X130965317Y-112788649D01*
X130951276Y-112792166D01*
X130936958Y-112794290D01*
X130922500Y-112795000D01*
X130577500Y-112795000D01*
X130563042Y-112794290D01*
X130548724Y-112792166D01*
X130534683Y-112788649D01*
X130521054Y-112783772D01*
X130507969Y-112777583D01*
X130495553Y-112770142D01*
X130483927Y-112761519D01*
X130473202Y-112751798D01*
X130463481Y-112741073D01*
X130454858Y-112729447D01*
X130447417Y-112717031D01*
X130441228Y-112703946D01*
X130436351Y-112690317D01*
X130432834Y-112676276D01*
X130430710Y-112661958D01*
X130430000Y-112647500D01*
X130430000Y-112352500D01*
X130430710Y-112338042D01*
X130432834Y-112323724D01*
X130436351Y-112309683D01*
X130441228Y-112296054D01*
X130447417Y-112282969D01*
X130454858Y-112270553D01*
X130463481Y-112258927D01*
X130473202Y-112248202D01*
X130483927Y-112238481D01*
X130495553Y-112229858D01*
X130507969Y-112222417D01*
X130521054Y-112216228D01*
X130534683Y-112211351D01*
X130548724Y-112207834D01*
X130563042Y-112205710D01*
X130577500Y-112205000D01*
X130922500Y-112205000D01*
X130936958Y-112205710D01*
G37*
G36*
X130936958Y-113175710D02*
G01*
X130951276Y-113177834D01*
X130965317Y-113181351D01*
X130978946Y-113186228D01*
X130992031Y-113192417D01*
X131004447Y-113199858D01*
X131016073Y-113208481D01*
X131026798Y-113218202D01*
X131036519Y-113228927D01*
X131045142Y-113240553D01*
X131052583Y-113252969D01*
X131058772Y-113266054D01*
X131063649Y-113279683D01*
X131067166Y-113293724D01*
X131069290Y-113308042D01*
X131070000Y-113322500D01*
X131070000Y-113617500D01*
X131069290Y-113631958D01*
X131067166Y-113646276D01*
X131063649Y-113660317D01*
X131058772Y-113673946D01*
X131052583Y-113687031D01*
X131045142Y-113699447D01*
X131036519Y-113711073D01*
X131026798Y-113721798D01*
X131016073Y-113731519D01*
X131004447Y-113740142D01*
X130992031Y-113747583D01*
X130978946Y-113753772D01*
X130965317Y-113758649D01*
X130951276Y-113762166D01*
X130936958Y-113764290D01*
X130922500Y-113765000D01*
X130577500Y-113765000D01*
X130563042Y-113764290D01*
X130548724Y-113762166D01*
X130534683Y-113758649D01*
X130521054Y-113753772D01*
X130507969Y-113747583D01*
X130495553Y-113740142D01*
X130483927Y-113731519D01*
X130473202Y-113721798D01*
X130463481Y-113711073D01*
X130454858Y-113699447D01*
X130447417Y-113687031D01*
X130441228Y-113673946D01*
X130436351Y-113660317D01*
X130432834Y-113646276D01*
X130430710Y-113631958D01*
X130430000Y-113617500D01*
X130430000Y-113322500D01*
X130430710Y-113308042D01*
X130432834Y-113293724D01*
X130436351Y-113279683D01*
X130441228Y-113266054D01*
X130447417Y-113252969D01*
X130454858Y-113240553D01*
X130463481Y-113228927D01*
X130473202Y-113218202D01*
X130483927Y-113208481D01*
X130495553Y-113199858D01*
X130507969Y-113192417D01*
X130521054Y-113186228D01*
X130534683Y-113181351D01*
X130548724Y-113177834D01*
X130563042Y-113175710D01*
X130577500Y-113175000D01*
X130922500Y-113175000D01*
X130936958Y-113175710D01*
G37*
G36*
X132191958Y-120680710D02*
G01*
X132206276Y-120682834D01*
X132220317Y-120686351D01*
X132233946Y-120691228D01*
X132247031Y-120697417D01*
X132259447Y-120704858D01*
X132271073Y-120713481D01*
X132281798Y-120723202D01*
X132291519Y-120733927D01*
X132300142Y-120745553D01*
X132307583Y-120757969D01*
X132313772Y-120771054D01*
X132318649Y-120784683D01*
X132322166Y-120798724D01*
X132324290Y-120813042D01*
X132325000Y-120827500D01*
X132325000Y-121172500D01*
X132324290Y-121186958D01*
X132322166Y-121201276D01*
X132318649Y-121215317D01*
X132313772Y-121228946D01*
X132307583Y-121242031D01*
X132300142Y-121254447D01*
X132291519Y-121266073D01*
X132281798Y-121276798D01*
X132271073Y-121286519D01*
X132259447Y-121295142D01*
X132247031Y-121302583D01*
X132233946Y-121308772D01*
X132220317Y-121313649D01*
X132206276Y-121317166D01*
X132191958Y-121319290D01*
X132177500Y-121320000D01*
X131882500Y-121320000D01*
X131868042Y-121319290D01*
X131853724Y-121317166D01*
X131839683Y-121313649D01*
X131826054Y-121308772D01*
X131812969Y-121302583D01*
X131800553Y-121295142D01*
X131788927Y-121286519D01*
X131778202Y-121276798D01*
X131768481Y-121266073D01*
X131759858Y-121254447D01*
X131752417Y-121242031D01*
X131746228Y-121228946D01*
X131741351Y-121215317D01*
X131737834Y-121201276D01*
X131735710Y-121186958D01*
X131735000Y-121172500D01*
X131735000Y-120827500D01*
X131735710Y-120813042D01*
X131737834Y-120798724D01*
X131741351Y-120784683D01*
X131746228Y-120771054D01*
X131752417Y-120757969D01*
X131759858Y-120745553D01*
X131768481Y-120733927D01*
X131778202Y-120723202D01*
X131788927Y-120713481D01*
X131800553Y-120704858D01*
X131812969Y-120697417D01*
X131826054Y-120691228D01*
X131839683Y-120686351D01*
X131853724Y-120682834D01*
X131868042Y-120680710D01*
X131882500Y-120680000D01*
X132177500Y-120680000D01*
X132191958Y-120680710D01*
G37*
G36*
X133161958Y-120680710D02*
G01*
X133176276Y-120682834D01*
X133190317Y-120686351D01*
X133203946Y-120691228D01*
X133217031Y-120697417D01*
X133229447Y-120704858D01*
X133241073Y-120713481D01*
X133251798Y-120723202D01*
X133261519Y-120733927D01*
X133270142Y-120745553D01*
X133277583Y-120757969D01*
X133283772Y-120771054D01*
X133288649Y-120784683D01*
X133292166Y-120798724D01*
X133294290Y-120813042D01*
X133295000Y-120827500D01*
X133295000Y-121172500D01*
X133294290Y-121186958D01*
X133292166Y-121201276D01*
X133288649Y-121215317D01*
X133283772Y-121228946D01*
X133277583Y-121242031D01*
X133270142Y-121254447D01*
X133261519Y-121266073D01*
X133251798Y-121276798D01*
X133241073Y-121286519D01*
X133229447Y-121295142D01*
X133217031Y-121302583D01*
X133203946Y-121308772D01*
X133190317Y-121313649D01*
X133176276Y-121317166D01*
X133161958Y-121319290D01*
X133147500Y-121320000D01*
X132852500Y-121320000D01*
X132838042Y-121319290D01*
X132823724Y-121317166D01*
X132809683Y-121313649D01*
X132796054Y-121308772D01*
X132782969Y-121302583D01*
X132770553Y-121295142D01*
X132758927Y-121286519D01*
X132748202Y-121276798D01*
X132738481Y-121266073D01*
X132729858Y-121254447D01*
X132722417Y-121242031D01*
X132716228Y-121228946D01*
X132711351Y-121215317D01*
X132707834Y-121201276D01*
X132705710Y-121186958D01*
X132705000Y-121172500D01*
X132705000Y-120827500D01*
X132705710Y-120813042D01*
X132707834Y-120798724D01*
X132711351Y-120784683D01*
X132716228Y-120771054D01*
X132722417Y-120757969D01*
X132729858Y-120745553D01*
X132738481Y-120733927D01*
X132748202Y-120723202D01*
X132758927Y-120713481D01*
X132770553Y-120704858D01*
X132782969Y-120697417D01*
X132796054Y-120691228D01*
X132809683Y-120686351D01*
X132823724Y-120682834D01*
X132838042Y-120680710D01*
X132852500Y-120680000D01*
X133147500Y-120680000D01*
X133161958Y-120680710D01*
G37*
G36*
X141631958Y-121180710D02*
G01*
X141646276Y-121182834D01*
X141660317Y-121186351D01*
X141673946Y-121191228D01*
X141687031Y-121197417D01*
X141699447Y-121204858D01*
X141711073Y-121213481D01*
X141721798Y-121223202D01*
X141731519Y-121233927D01*
X141740142Y-121245553D01*
X141747583Y-121257969D01*
X141753772Y-121271054D01*
X141758649Y-121284683D01*
X141762166Y-121298724D01*
X141764290Y-121313042D01*
X141765000Y-121327500D01*
X141765000Y-121672500D01*
X141764290Y-121686958D01*
X141762166Y-121701276D01*
X141758649Y-121715317D01*
X141753772Y-121728946D01*
X141747583Y-121742031D01*
X141740142Y-121754447D01*
X141731519Y-121766073D01*
X141721798Y-121776798D01*
X141711073Y-121786519D01*
X141699447Y-121795142D01*
X141687031Y-121802583D01*
X141673946Y-121808772D01*
X141660317Y-121813649D01*
X141646276Y-121817166D01*
X141631958Y-121819290D01*
X141617500Y-121820000D01*
X141322500Y-121820000D01*
X141308042Y-121819290D01*
X141293724Y-121817166D01*
X141279683Y-121813649D01*
X141266054Y-121808772D01*
X141252969Y-121802583D01*
X141240553Y-121795142D01*
X141228927Y-121786519D01*
X141218202Y-121776798D01*
X141208481Y-121766073D01*
X141199858Y-121754447D01*
X141192417Y-121742031D01*
X141186228Y-121728946D01*
X141181351Y-121715317D01*
X141177834Y-121701276D01*
X141175710Y-121686958D01*
X141175000Y-121672500D01*
X141175000Y-121327500D01*
X141175710Y-121313042D01*
X141177834Y-121298724D01*
X141181351Y-121284683D01*
X141186228Y-121271054D01*
X141192417Y-121257969D01*
X141199858Y-121245553D01*
X141208481Y-121233927D01*
X141218202Y-121223202D01*
X141228927Y-121213481D01*
X141240553Y-121204858D01*
X141252969Y-121197417D01*
X141266054Y-121191228D01*
X141279683Y-121186351D01*
X141293724Y-121182834D01*
X141308042Y-121180710D01*
X141322500Y-121180000D01*
X141617500Y-121180000D01*
X141631958Y-121180710D01*
G37*
G36*
X140661958Y-121180710D02*
G01*
X140676276Y-121182834D01*
X140690317Y-121186351D01*
X140703946Y-121191228D01*
X140717031Y-121197417D01*
X140729447Y-121204858D01*
X140741073Y-121213481D01*
X140751798Y-121223202D01*
X140761519Y-121233927D01*
X140770142Y-121245553D01*
X140777583Y-121257969D01*
X140783772Y-121271054D01*
X140788649Y-121284683D01*
X140792166Y-121298724D01*
X140794290Y-121313042D01*
X140795000Y-121327500D01*
X140795000Y-121672500D01*
X140794290Y-121686958D01*
X140792166Y-121701276D01*
X140788649Y-121715317D01*
X140783772Y-121728946D01*
X140777583Y-121742031D01*
X140770142Y-121754447D01*
X140761519Y-121766073D01*
X140751798Y-121776798D01*
X140741073Y-121786519D01*
X140729447Y-121795142D01*
X140717031Y-121802583D01*
X140703946Y-121808772D01*
X140690317Y-121813649D01*
X140676276Y-121817166D01*
X140661958Y-121819290D01*
X140647500Y-121820000D01*
X140352500Y-121820000D01*
X140338042Y-121819290D01*
X140323724Y-121817166D01*
X140309683Y-121813649D01*
X140296054Y-121808772D01*
X140282969Y-121802583D01*
X140270553Y-121795142D01*
X140258927Y-121786519D01*
X140248202Y-121776798D01*
X140238481Y-121766073D01*
X140229858Y-121754447D01*
X140222417Y-121742031D01*
X140216228Y-121728946D01*
X140211351Y-121715317D01*
X140207834Y-121701276D01*
X140205710Y-121686958D01*
X140205000Y-121672500D01*
X140205000Y-121327500D01*
X140205710Y-121313042D01*
X140207834Y-121298724D01*
X140211351Y-121284683D01*
X140216228Y-121271054D01*
X140222417Y-121257969D01*
X140229858Y-121245553D01*
X140238481Y-121233927D01*
X140248202Y-121223202D01*
X140258927Y-121213481D01*
X140270553Y-121204858D01*
X140282969Y-121197417D01*
X140296054Y-121191228D01*
X140309683Y-121186351D01*
X140323724Y-121182834D01*
X140338042Y-121180710D01*
X140352500Y-121180000D01*
X140647500Y-121180000D01*
X140661958Y-121180710D01*
G37*
G36*
X124686958Y-112985710D02*
G01*
X124701276Y-112987834D01*
X124715317Y-112991351D01*
X124728946Y-112996228D01*
X124742031Y-113002417D01*
X124754447Y-113009858D01*
X124766073Y-113018481D01*
X124776798Y-113028202D01*
X124786519Y-113038927D01*
X124795142Y-113050553D01*
X124802583Y-113062969D01*
X124808772Y-113076054D01*
X124813649Y-113089683D01*
X124817166Y-113103724D01*
X124819290Y-113118042D01*
X124820000Y-113132500D01*
X124820000Y-113427500D01*
X124819290Y-113441958D01*
X124817166Y-113456276D01*
X124813649Y-113470317D01*
X124808772Y-113483946D01*
X124802583Y-113497031D01*
X124795142Y-113509447D01*
X124786519Y-113521073D01*
X124776798Y-113531798D01*
X124766073Y-113541519D01*
X124754447Y-113550142D01*
X124742031Y-113557583D01*
X124728946Y-113563772D01*
X124715317Y-113568649D01*
X124701276Y-113572166D01*
X124686958Y-113574290D01*
X124672500Y-113575000D01*
X124327500Y-113575000D01*
X124313042Y-113574290D01*
X124298724Y-113572166D01*
X124284683Y-113568649D01*
X124271054Y-113563772D01*
X124257969Y-113557583D01*
X124245553Y-113550142D01*
X124233927Y-113541519D01*
X124223202Y-113531798D01*
X124213481Y-113521073D01*
X124204858Y-113509447D01*
X124197417Y-113497031D01*
X124191228Y-113483946D01*
X124186351Y-113470317D01*
X124182834Y-113456276D01*
X124180710Y-113441958D01*
X124180000Y-113427500D01*
X124180000Y-113132500D01*
X124180710Y-113118042D01*
X124182834Y-113103724D01*
X124186351Y-113089683D01*
X124191228Y-113076054D01*
X124197417Y-113062969D01*
X124204858Y-113050553D01*
X124213481Y-113038927D01*
X124223202Y-113028202D01*
X124233927Y-113018481D01*
X124245553Y-113009858D01*
X124257969Y-113002417D01*
X124271054Y-112996228D01*
X124284683Y-112991351D01*
X124298724Y-112987834D01*
X124313042Y-112985710D01*
X124327500Y-112985000D01*
X124672500Y-112985000D01*
X124686958Y-112985710D01*
G37*
G36*
X124686958Y-113955710D02*
G01*
X124701276Y-113957834D01*
X124715317Y-113961351D01*
X124728946Y-113966228D01*
X124742031Y-113972417D01*
X124754447Y-113979858D01*
X124766073Y-113988481D01*
X124776798Y-113998202D01*
X124786519Y-114008927D01*
X124795142Y-114020553D01*
X124802583Y-114032969D01*
X124808772Y-114046054D01*
X124813649Y-114059683D01*
X124817166Y-114073724D01*
X124819290Y-114088042D01*
X124820000Y-114102500D01*
X124820000Y-114397500D01*
X124819290Y-114411958D01*
X124817166Y-114426276D01*
X124813649Y-114440317D01*
X124808772Y-114453946D01*
X124802583Y-114467031D01*
X124795142Y-114479447D01*
X124786519Y-114491073D01*
X124776798Y-114501798D01*
X124766073Y-114511519D01*
X124754447Y-114520142D01*
X124742031Y-114527583D01*
X124728946Y-114533772D01*
X124715317Y-114538649D01*
X124701276Y-114542166D01*
X124686958Y-114544290D01*
X124672500Y-114545000D01*
X124327500Y-114545000D01*
X124313042Y-114544290D01*
X124298724Y-114542166D01*
X124284683Y-114538649D01*
X124271054Y-114533772D01*
X124257969Y-114527583D01*
X124245553Y-114520142D01*
X124233927Y-114511519D01*
X124223202Y-114501798D01*
X124213481Y-114491073D01*
X124204858Y-114479447D01*
X124197417Y-114467031D01*
X124191228Y-114453946D01*
X124186351Y-114440317D01*
X124182834Y-114426276D01*
X124180710Y-114411958D01*
X124180000Y-114397500D01*
X124180000Y-114102500D01*
X124180710Y-114088042D01*
X124182834Y-114073724D01*
X124186351Y-114059683D01*
X124191228Y-114046054D01*
X124197417Y-114032969D01*
X124204858Y-114020553D01*
X124213481Y-114008927D01*
X124223202Y-113998202D01*
X124233927Y-113988481D01*
X124245553Y-113979858D01*
X124257969Y-113972417D01*
X124271054Y-113966228D01*
X124284683Y-113961351D01*
X124298724Y-113957834D01*
X124313042Y-113955710D01*
X124327500Y-113955000D01*
X124672500Y-113955000D01*
X124686958Y-113955710D01*
G37*
G36*
X132186958Y-107985710D02*
G01*
X132201276Y-107987834D01*
X132215317Y-107991351D01*
X132228946Y-107996228D01*
X132242031Y-108002417D01*
X132254447Y-108009858D01*
X132266073Y-108018481D01*
X132276798Y-108028202D01*
X132286519Y-108038927D01*
X132295142Y-108050553D01*
X132302583Y-108062969D01*
X132308772Y-108076054D01*
X132313649Y-108089683D01*
X132317166Y-108103724D01*
X132319290Y-108118042D01*
X132320000Y-108132500D01*
X132320000Y-108427500D01*
X132319290Y-108441958D01*
X132317166Y-108456276D01*
X132313649Y-108470317D01*
X132308772Y-108483946D01*
X132302583Y-108497031D01*
X132295142Y-108509447D01*
X132286519Y-108521073D01*
X132276798Y-108531798D01*
X132266073Y-108541519D01*
X132254447Y-108550142D01*
X132242031Y-108557583D01*
X132228946Y-108563772D01*
X132215317Y-108568649D01*
X132201276Y-108572166D01*
X132186958Y-108574290D01*
X132172500Y-108575000D01*
X131827500Y-108575000D01*
X131813042Y-108574290D01*
X131798724Y-108572166D01*
X131784683Y-108568649D01*
X131771054Y-108563772D01*
X131757969Y-108557583D01*
X131745553Y-108550142D01*
X131733927Y-108541519D01*
X131723202Y-108531798D01*
X131713481Y-108521073D01*
X131704858Y-108509447D01*
X131697417Y-108497031D01*
X131691228Y-108483946D01*
X131686351Y-108470317D01*
X131682834Y-108456276D01*
X131680710Y-108441958D01*
X131680000Y-108427500D01*
X131680000Y-108132500D01*
X131680710Y-108118042D01*
X131682834Y-108103724D01*
X131686351Y-108089683D01*
X131691228Y-108076054D01*
X131697417Y-108062969D01*
X131704858Y-108050553D01*
X131713481Y-108038927D01*
X131723202Y-108028202D01*
X131733927Y-108018481D01*
X131745553Y-108009858D01*
X131757969Y-108002417D01*
X131771054Y-107996228D01*
X131784683Y-107991351D01*
X131798724Y-107987834D01*
X131813042Y-107985710D01*
X131827500Y-107985000D01*
X132172500Y-107985000D01*
X132186958Y-107985710D01*
G37*
G36*
X132186958Y-108955710D02*
G01*
X132201276Y-108957834D01*
X132215317Y-108961351D01*
X132228946Y-108966228D01*
X132242031Y-108972417D01*
X132254447Y-108979858D01*
X132266073Y-108988481D01*
X132276798Y-108998202D01*
X132286519Y-109008927D01*
X132295142Y-109020553D01*
X132302583Y-109032969D01*
X132308772Y-109046054D01*
X132313649Y-109059683D01*
X132317166Y-109073724D01*
X132319290Y-109088042D01*
X132320000Y-109102500D01*
X132320000Y-109397500D01*
X132319290Y-109411958D01*
X132317166Y-109426276D01*
X132313649Y-109440317D01*
X132308772Y-109453946D01*
X132302583Y-109467031D01*
X132295142Y-109479447D01*
X132286519Y-109491073D01*
X132276798Y-109501798D01*
X132266073Y-109511519D01*
X132254447Y-109520142D01*
X132242031Y-109527583D01*
X132228946Y-109533772D01*
X132215317Y-109538649D01*
X132201276Y-109542166D01*
X132186958Y-109544290D01*
X132172500Y-109545000D01*
X131827500Y-109545000D01*
X131813042Y-109544290D01*
X131798724Y-109542166D01*
X131784683Y-109538649D01*
X131771054Y-109533772D01*
X131757969Y-109527583D01*
X131745553Y-109520142D01*
X131733927Y-109511519D01*
X131723202Y-109501798D01*
X131713481Y-109491073D01*
X131704858Y-109479447D01*
X131697417Y-109467031D01*
X131691228Y-109453946D01*
X131686351Y-109440317D01*
X131682834Y-109426276D01*
X131680710Y-109411958D01*
X131680000Y-109397500D01*
X131680000Y-109102500D01*
X131680710Y-109088042D01*
X131682834Y-109073724D01*
X131686351Y-109059683D01*
X131691228Y-109046054D01*
X131697417Y-109032969D01*
X131704858Y-109020553D01*
X131713481Y-109008927D01*
X131723202Y-108998202D01*
X131733927Y-108988481D01*
X131745553Y-108979858D01*
X131757969Y-108972417D01*
X131771054Y-108966228D01*
X131784683Y-108961351D01*
X131798724Y-108957834D01*
X131813042Y-108955710D01*
X131827500Y-108955000D01*
X132172500Y-108955000D01*
X132186958Y-108955710D01*
G37*
G36*
X129411958Y-116680710D02*
G01*
X129426276Y-116682834D01*
X129440317Y-116686351D01*
X129453946Y-116691228D01*
X129467031Y-116697417D01*
X129479447Y-116704858D01*
X129491073Y-116713481D01*
X129501798Y-116723202D01*
X129511519Y-116733927D01*
X129520142Y-116745553D01*
X129527583Y-116757969D01*
X129533772Y-116771054D01*
X129538649Y-116784683D01*
X129542166Y-116798724D01*
X129544290Y-116813042D01*
X129545000Y-116827500D01*
X129545000Y-117172500D01*
X129544290Y-117186958D01*
X129542166Y-117201276D01*
X129538649Y-117215317D01*
X129533772Y-117228946D01*
X129527583Y-117242031D01*
X129520142Y-117254447D01*
X129511519Y-117266073D01*
X129501798Y-117276798D01*
X129491073Y-117286519D01*
X129479447Y-117295142D01*
X129467031Y-117302583D01*
X129453946Y-117308772D01*
X129440317Y-117313649D01*
X129426276Y-117317166D01*
X129411958Y-117319290D01*
X129397500Y-117320000D01*
X129102500Y-117320000D01*
X129088042Y-117319290D01*
X129073724Y-117317166D01*
X129059683Y-117313649D01*
X129046054Y-117308772D01*
X129032969Y-117302583D01*
X129020553Y-117295142D01*
X129008927Y-117286519D01*
X128998202Y-117276798D01*
X128988481Y-117266073D01*
X128979858Y-117254447D01*
X128972417Y-117242031D01*
X128966228Y-117228946D01*
X128961351Y-117215317D01*
X128957834Y-117201276D01*
X128955710Y-117186958D01*
X128955000Y-117172500D01*
X128955000Y-116827500D01*
X128955710Y-116813042D01*
X128957834Y-116798724D01*
X128961351Y-116784683D01*
X128966228Y-116771054D01*
X128972417Y-116757969D01*
X128979858Y-116745553D01*
X128988481Y-116733927D01*
X128998202Y-116723202D01*
X129008927Y-116713481D01*
X129020553Y-116704858D01*
X129032969Y-116697417D01*
X129046054Y-116691228D01*
X129059683Y-116686351D01*
X129073724Y-116682834D01*
X129088042Y-116680710D01*
X129102500Y-116680000D01*
X129397500Y-116680000D01*
X129411958Y-116680710D01*
G37*
G36*
X130381958Y-116680710D02*
G01*
X130396276Y-116682834D01*
X130410317Y-116686351D01*
X130423946Y-116691228D01*
X130437031Y-116697417D01*
X130449447Y-116704858D01*
X130461073Y-116713481D01*
X130471798Y-116723202D01*
X130481519Y-116733927D01*
X130490142Y-116745553D01*
X130497583Y-116757969D01*
X130503772Y-116771054D01*
X130508649Y-116784683D01*
X130512166Y-116798724D01*
X130514290Y-116813042D01*
X130515000Y-116827500D01*
X130515000Y-117172500D01*
X130514290Y-117186958D01*
X130512166Y-117201276D01*
X130508649Y-117215317D01*
X130503772Y-117228946D01*
X130497583Y-117242031D01*
X130490142Y-117254447D01*
X130481519Y-117266073D01*
X130471798Y-117276798D01*
X130461073Y-117286519D01*
X130449447Y-117295142D01*
X130437031Y-117302583D01*
X130423946Y-117308772D01*
X130410317Y-117313649D01*
X130396276Y-117317166D01*
X130381958Y-117319290D01*
X130367500Y-117320000D01*
X130072500Y-117320000D01*
X130058042Y-117319290D01*
X130043724Y-117317166D01*
X130029683Y-117313649D01*
X130016054Y-117308772D01*
X130002969Y-117302583D01*
X129990553Y-117295142D01*
X129978927Y-117286519D01*
X129968202Y-117276798D01*
X129958481Y-117266073D01*
X129949858Y-117254447D01*
X129942417Y-117242031D01*
X129936228Y-117228946D01*
X129931351Y-117215317D01*
X129927834Y-117201276D01*
X129925710Y-117186958D01*
X129925000Y-117172500D01*
X129925000Y-116827500D01*
X129925710Y-116813042D01*
X129927834Y-116798724D01*
X129931351Y-116784683D01*
X129936228Y-116771054D01*
X129942417Y-116757969D01*
X129949858Y-116745553D01*
X129958481Y-116733927D01*
X129968202Y-116723202D01*
X129978927Y-116713481D01*
X129990553Y-116704858D01*
X130002969Y-116697417D01*
X130016054Y-116691228D01*
X130029683Y-116686351D01*
X130043724Y-116682834D01*
X130058042Y-116680710D01*
X130072500Y-116680000D01*
X130367500Y-116680000D01*
X130381958Y-116680710D01*
G37*
G36*
X129441958Y-114930710D02*
G01*
X129456276Y-114932834D01*
X129470317Y-114936351D01*
X129483946Y-114941228D01*
X129497031Y-114947417D01*
X129509447Y-114954858D01*
X129521073Y-114963481D01*
X129531798Y-114973202D01*
X129541519Y-114983927D01*
X129550142Y-114995553D01*
X129557583Y-115007969D01*
X129563772Y-115021054D01*
X129568649Y-115034683D01*
X129572166Y-115048724D01*
X129574290Y-115063042D01*
X129575000Y-115077500D01*
X129575000Y-115422500D01*
X129574290Y-115436958D01*
X129572166Y-115451276D01*
X129568649Y-115465317D01*
X129563772Y-115478946D01*
X129557583Y-115492031D01*
X129550142Y-115504447D01*
X129541519Y-115516073D01*
X129531798Y-115526798D01*
X129521073Y-115536519D01*
X129509447Y-115545142D01*
X129497031Y-115552583D01*
X129483946Y-115558772D01*
X129470317Y-115563649D01*
X129456276Y-115567166D01*
X129441958Y-115569290D01*
X129427500Y-115570000D01*
X129132500Y-115570000D01*
X129118042Y-115569290D01*
X129103724Y-115567166D01*
X129089683Y-115563649D01*
X129076054Y-115558772D01*
X129062969Y-115552583D01*
X129050553Y-115545142D01*
X129038927Y-115536519D01*
X129028202Y-115526798D01*
X129018481Y-115516073D01*
X129009858Y-115504447D01*
X129002417Y-115492031D01*
X128996228Y-115478946D01*
X128991351Y-115465317D01*
X128987834Y-115451276D01*
X128985710Y-115436958D01*
X128985000Y-115422500D01*
X128985000Y-115077500D01*
X128985710Y-115063042D01*
X128987834Y-115048724D01*
X128991351Y-115034683D01*
X128996228Y-115021054D01*
X129002417Y-115007969D01*
X129009858Y-114995553D01*
X129018481Y-114983927D01*
X129028202Y-114973202D01*
X129038927Y-114963481D01*
X129050553Y-114954858D01*
X129062969Y-114947417D01*
X129076054Y-114941228D01*
X129089683Y-114936351D01*
X129103724Y-114932834D01*
X129118042Y-114930710D01*
X129132500Y-114930000D01*
X129427500Y-114930000D01*
X129441958Y-114930710D01*
G37*
G36*
X130411958Y-114930710D02*
G01*
X130426276Y-114932834D01*
X130440317Y-114936351D01*
X130453946Y-114941228D01*
X130467031Y-114947417D01*
X130479447Y-114954858D01*
X130491073Y-114963481D01*
X130501798Y-114973202D01*
X130511519Y-114983927D01*
X130520142Y-114995553D01*
X130527583Y-115007969D01*
X130533772Y-115021054D01*
X130538649Y-115034683D01*
X130542166Y-115048724D01*
X130544290Y-115063042D01*
X130545000Y-115077500D01*
X130545000Y-115422500D01*
X130544290Y-115436958D01*
X130542166Y-115451276D01*
X130538649Y-115465317D01*
X130533772Y-115478946D01*
X130527583Y-115492031D01*
X130520142Y-115504447D01*
X130511519Y-115516073D01*
X130501798Y-115526798D01*
X130491073Y-115536519D01*
X130479447Y-115545142D01*
X130467031Y-115552583D01*
X130453946Y-115558772D01*
X130440317Y-115563649D01*
X130426276Y-115567166D01*
X130411958Y-115569290D01*
X130397500Y-115570000D01*
X130102500Y-115570000D01*
X130088042Y-115569290D01*
X130073724Y-115567166D01*
X130059683Y-115563649D01*
X130046054Y-115558772D01*
X130032969Y-115552583D01*
X130020553Y-115545142D01*
X130008927Y-115536519D01*
X129998202Y-115526798D01*
X129988481Y-115516073D01*
X129979858Y-115504447D01*
X129972417Y-115492031D01*
X129966228Y-115478946D01*
X129961351Y-115465317D01*
X129957834Y-115451276D01*
X129955710Y-115436958D01*
X129955000Y-115422500D01*
X129955000Y-115077500D01*
X129955710Y-115063042D01*
X129957834Y-115048724D01*
X129961351Y-115034683D01*
X129966228Y-115021054D01*
X129972417Y-115007969D01*
X129979858Y-114995553D01*
X129988481Y-114983927D01*
X129998202Y-114973202D01*
X130008927Y-114963481D01*
X130020553Y-114954858D01*
X130032969Y-114947417D01*
X130046054Y-114941228D01*
X130059683Y-114936351D01*
X130073724Y-114932834D01*
X130088042Y-114930710D01*
X130102500Y-114930000D01*
X130397500Y-114930000D01*
X130411958Y-114930710D01*
G37*
G36*
X129441958Y-120180710D02*
G01*
X129456276Y-120182834D01*
X129470317Y-120186351D01*
X129483946Y-120191228D01*
X129497031Y-120197417D01*
X129509447Y-120204858D01*
X129521073Y-120213481D01*
X129531798Y-120223202D01*
X129541519Y-120233927D01*
X129550142Y-120245553D01*
X129557583Y-120257969D01*
X129563772Y-120271054D01*
X129568649Y-120284683D01*
X129572166Y-120298724D01*
X129574290Y-120313042D01*
X129575000Y-120327500D01*
X129575000Y-120672500D01*
X129574290Y-120686958D01*
X129572166Y-120701276D01*
X129568649Y-120715317D01*
X129563772Y-120728946D01*
X129557583Y-120742031D01*
X129550142Y-120754447D01*
X129541519Y-120766073D01*
X129531798Y-120776798D01*
X129521073Y-120786519D01*
X129509447Y-120795142D01*
X129497031Y-120802583D01*
X129483946Y-120808772D01*
X129470317Y-120813649D01*
X129456276Y-120817166D01*
X129441958Y-120819290D01*
X129427500Y-120820000D01*
X129132500Y-120820000D01*
X129118042Y-120819290D01*
X129103724Y-120817166D01*
X129089683Y-120813649D01*
X129076054Y-120808772D01*
X129062969Y-120802583D01*
X129050553Y-120795142D01*
X129038927Y-120786519D01*
X129028202Y-120776798D01*
X129018481Y-120766073D01*
X129009858Y-120754447D01*
X129002417Y-120742031D01*
X128996228Y-120728946D01*
X128991351Y-120715317D01*
X128987834Y-120701276D01*
X128985710Y-120686958D01*
X128985000Y-120672500D01*
X128985000Y-120327500D01*
X128985710Y-120313042D01*
X128987834Y-120298724D01*
X128991351Y-120284683D01*
X128996228Y-120271054D01*
X129002417Y-120257969D01*
X129009858Y-120245553D01*
X129018481Y-120233927D01*
X129028202Y-120223202D01*
X129038927Y-120213481D01*
X129050553Y-120204858D01*
X129062969Y-120197417D01*
X129076054Y-120191228D01*
X129089683Y-120186351D01*
X129103724Y-120182834D01*
X129118042Y-120180710D01*
X129132500Y-120180000D01*
X129427500Y-120180000D01*
X129441958Y-120180710D01*
G37*
G36*
X130411958Y-120180710D02*
G01*
X130426276Y-120182834D01*
X130440317Y-120186351D01*
X130453946Y-120191228D01*
X130467031Y-120197417D01*
X130479447Y-120204858D01*
X130491073Y-120213481D01*
X130501798Y-120223202D01*
X130511519Y-120233927D01*
X130520142Y-120245553D01*
X130527583Y-120257969D01*
X130533772Y-120271054D01*
X130538649Y-120284683D01*
X130542166Y-120298724D01*
X130544290Y-120313042D01*
X130545000Y-120327500D01*
X130545000Y-120672500D01*
X130544290Y-120686958D01*
X130542166Y-120701276D01*
X130538649Y-120715317D01*
X130533772Y-120728946D01*
X130527583Y-120742031D01*
X130520142Y-120754447D01*
X130511519Y-120766073D01*
X130501798Y-120776798D01*
X130491073Y-120786519D01*
X130479447Y-120795142D01*
X130467031Y-120802583D01*
X130453946Y-120808772D01*
X130440317Y-120813649D01*
X130426276Y-120817166D01*
X130411958Y-120819290D01*
X130397500Y-120820000D01*
X130102500Y-120820000D01*
X130088042Y-120819290D01*
X130073724Y-120817166D01*
X130059683Y-120813649D01*
X130046054Y-120808772D01*
X130032969Y-120802583D01*
X130020553Y-120795142D01*
X130008927Y-120786519D01*
X129998202Y-120776798D01*
X129988481Y-120766073D01*
X129979858Y-120754447D01*
X129972417Y-120742031D01*
X129966228Y-120728946D01*
X129961351Y-120715317D01*
X129957834Y-120701276D01*
X129955710Y-120686958D01*
X129955000Y-120672500D01*
X129955000Y-120327500D01*
X129955710Y-120313042D01*
X129957834Y-120298724D01*
X129961351Y-120284683D01*
X129966228Y-120271054D01*
X129972417Y-120257969D01*
X129979858Y-120245553D01*
X129988481Y-120233927D01*
X129998202Y-120223202D01*
X130008927Y-120213481D01*
X130020553Y-120204858D01*
X130032969Y-120197417D01*
X130046054Y-120191228D01*
X130059683Y-120186351D01*
X130073724Y-120182834D01*
X130088042Y-120180710D01*
X130102500Y-120180000D01*
X130397500Y-120180000D01*
X130411958Y-120180710D01*
G37*
G36*
X129441958Y-118430710D02*
G01*
X129456276Y-118432834D01*
X129470317Y-118436351D01*
X129483946Y-118441228D01*
X129497031Y-118447417D01*
X129509447Y-118454858D01*
X129521073Y-118463481D01*
X129531798Y-118473202D01*
X129541519Y-118483927D01*
X129550142Y-118495553D01*
X129557583Y-118507969D01*
X129563772Y-118521054D01*
X129568649Y-118534683D01*
X129572166Y-118548724D01*
X129574290Y-118563042D01*
X129575000Y-118577500D01*
X129575000Y-118922500D01*
X129574290Y-118936958D01*
X129572166Y-118951276D01*
X129568649Y-118965317D01*
X129563772Y-118978946D01*
X129557583Y-118992031D01*
X129550142Y-119004447D01*
X129541519Y-119016073D01*
X129531798Y-119026798D01*
X129521073Y-119036519D01*
X129509447Y-119045142D01*
X129497031Y-119052583D01*
X129483946Y-119058772D01*
X129470317Y-119063649D01*
X129456276Y-119067166D01*
X129441958Y-119069290D01*
X129427500Y-119070000D01*
X129132500Y-119070000D01*
X129118042Y-119069290D01*
X129103724Y-119067166D01*
X129089683Y-119063649D01*
X129076054Y-119058772D01*
X129062969Y-119052583D01*
X129050553Y-119045142D01*
X129038927Y-119036519D01*
X129028202Y-119026798D01*
X129018481Y-119016073D01*
X129009858Y-119004447D01*
X129002417Y-118992031D01*
X128996228Y-118978946D01*
X128991351Y-118965317D01*
X128987834Y-118951276D01*
X128985710Y-118936958D01*
X128985000Y-118922500D01*
X128985000Y-118577500D01*
X128985710Y-118563042D01*
X128987834Y-118548724D01*
X128991351Y-118534683D01*
X128996228Y-118521054D01*
X129002417Y-118507969D01*
X129009858Y-118495553D01*
X129018481Y-118483927D01*
X129028202Y-118473202D01*
X129038927Y-118463481D01*
X129050553Y-118454858D01*
X129062969Y-118447417D01*
X129076054Y-118441228D01*
X129089683Y-118436351D01*
X129103724Y-118432834D01*
X129118042Y-118430710D01*
X129132500Y-118430000D01*
X129427500Y-118430000D01*
X129441958Y-118430710D01*
G37*
G36*
X130411958Y-118430710D02*
G01*
X130426276Y-118432834D01*
X130440317Y-118436351D01*
X130453946Y-118441228D01*
X130467031Y-118447417D01*
X130479447Y-118454858D01*
X130491073Y-118463481D01*
X130501798Y-118473202D01*
X130511519Y-118483927D01*
X130520142Y-118495553D01*
X130527583Y-118507969D01*
X130533772Y-118521054D01*
X130538649Y-118534683D01*
X130542166Y-118548724D01*
X130544290Y-118563042D01*
X130545000Y-118577500D01*
X130545000Y-118922500D01*
X130544290Y-118936958D01*
X130542166Y-118951276D01*
X130538649Y-118965317D01*
X130533772Y-118978946D01*
X130527583Y-118992031D01*
X130520142Y-119004447D01*
X130511519Y-119016073D01*
X130501798Y-119026798D01*
X130491073Y-119036519D01*
X130479447Y-119045142D01*
X130467031Y-119052583D01*
X130453946Y-119058772D01*
X130440317Y-119063649D01*
X130426276Y-119067166D01*
X130411958Y-119069290D01*
X130397500Y-119070000D01*
X130102500Y-119070000D01*
X130088042Y-119069290D01*
X130073724Y-119067166D01*
X130059683Y-119063649D01*
X130046054Y-119058772D01*
X130032969Y-119052583D01*
X130020553Y-119045142D01*
X130008927Y-119036519D01*
X129998202Y-119026798D01*
X129988481Y-119016073D01*
X129979858Y-119004447D01*
X129972417Y-118992031D01*
X129966228Y-118978946D01*
X129961351Y-118965317D01*
X129957834Y-118951276D01*
X129955710Y-118936958D01*
X129955000Y-118922500D01*
X129955000Y-118577500D01*
X129955710Y-118563042D01*
X129957834Y-118548724D01*
X129961351Y-118534683D01*
X129966228Y-118521054D01*
X129972417Y-118507969D01*
X129979858Y-118495553D01*
X129988481Y-118483927D01*
X129998202Y-118473202D01*
X130008927Y-118463481D01*
X130020553Y-118454858D01*
X130032969Y-118447417D01*
X130046054Y-118441228D01*
X130059683Y-118436351D01*
X130073724Y-118432834D01*
X130088042Y-118430710D01*
X130102500Y-118430000D01*
X130397500Y-118430000D01*
X130411958Y-118430710D01*
G37*
M02*
