G04 #@! TF.GenerationSoftware,KiCad,Pcbnew,(5.1.5)-3*
G04 #@! TF.CreationDate,2020-07-04T22:53:46-05:00*
G04 #@! TF.ProjectId,PikateaTPM,50696b61-7465-4615-9450-4d2e6b696361,rev?*
G04 #@! TF.SameCoordinates,Original*
G04 #@! TF.FileFunction,Soldermask,Top*
G04 #@! TF.FilePolarity,Negative*
%FSLAX46Y46*%
G04 Gerber Fmt 4.6, Leading zero omitted, Abs format (unit mm)*
G04 Created by KiCad (PCBNEW (5.1.5)-3) date 2020-07-04 22:53:46*
%MOMM*%
%LPD*%
G04 APERTURE LIST*
%ADD10C,0.100000*%
G04 APERTURE END LIST*
D10*
G36*
X156497935Y-129492664D02*
G01*
X156652624Y-129556739D01*
X156652626Y-129556740D01*
X156791844Y-129649762D01*
X156910238Y-129768156D01*
X157003260Y-129907374D01*
X157003261Y-129907376D01*
X157067336Y-130062065D01*
X157100000Y-130226281D01*
X157100000Y-130393719D01*
X157067336Y-130557935D01*
X157028114Y-130652624D01*
X157003260Y-130712626D01*
X156910238Y-130851844D01*
X156791844Y-130970238D01*
X156652626Y-131063260D01*
X156652625Y-131063261D01*
X156652624Y-131063261D01*
X156497935Y-131127336D01*
X156333719Y-131160000D01*
X156166281Y-131160000D01*
X156002065Y-131127336D01*
X155847376Y-131063261D01*
X155847375Y-131063261D01*
X155847374Y-131063260D01*
X155708156Y-130970238D01*
X155589762Y-130851844D01*
X155496740Y-130712626D01*
X155471886Y-130652624D01*
X155432664Y-130557935D01*
X155400000Y-130393719D01*
X155400000Y-130226281D01*
X155432664Y-130062065D01*
X155496739Y-129907376D01*
X155496740Y-129907374D01*
X155589762Y-129768156D01*
X155708156Y-129649762D01*
X155847374Y-129556740D01*
X155847376Y-129556739D01*
X156002065Y-129492664D01*
X156166281Y-129460000D01*
X156333719Y-129460000D01*
X156497935Y-129492664D01*
G37*
G36*
X147697935Y-129432664D02*
G01*
X147852624Y-129496739D01*
X147852626Y-129496740D01*
X147991844Y-129589762D01*
X148110238Y-129708156D01*
X148150329Y-129768157D01*
X148203261Y-129847376D01*
X148267336Y-130002065D01*
X148300000Y-130166281D01*
X148300000Y-130333719D01*
X148267336Y-130497935D01*
X148242482Y-130557936D01*
X148203260Y-130652626D01*
X148110238Y-130791844D01*
X147991844Y-130910238D01*
X147852626Y-131003260D01*
X147852625Y-131003261D01*
X147852624Y-131003261D01*
X147697935Y-131067336D01*
X147533719Y-131100000D01*
X147366281Y-131100000D01*
X147202065Y-131067336D01*
X147047376Y-131003261D01*
X147047375Y-131003261D01*
X147047374Y-131003260D01*
X146908156Y-130910238D01*
X146789762Y-130791844D01*
X146696740Y-130652626D01*
X146657518Y-130557936D01*
X146632664Y-130497935D01*
X146600000Y-130333719D01*
X146600000Y-130166281D01*
X146632664Y-130002065D01*
X146696739Y-129847376D01*
X146749671Y-129768157D01*
X146789762Y-129708156D01*
X146908156Y-129589762D01*
X147047374Y-129496740D01*
X147047376Y-129496739D01*
X147202065Y-129432664D01*
X147366281Y-129400000D01*
X147533719Y-129400000D01*
X147697935Y-129432664D01*
G37*
G36*
X150237935Y-129432664D02*
G01*
X150392624Y-129496739D01*
X150392626Y-129496740D01*
X150531844Y-129589762D01*
X150650238Y-129708156D01*
X150690329Y-129768157D01*
X150743261Y-129847376D01*
X150807336Y-130002065D01*
X150840000Y-130166281D01*
X150840000Y-130333719D01*
X150807336Y-130497935D01*
X150782482Y-130557936D01*
X150743260Y-130652626D01*
X150650238Y-130791844D01*
X150531844Y-130910238D01*
X150392626Y-131003260D01*
X150392625Y-131003261D01*
X150392624Y-131003261D01*
X150237935Y-131067336D01*
X150073719Y-131100000D01*
X149906281Y-131100000D01*
X149742065Y-131067336D01*
X149587376Y-131003261D01*
X149587375Y-131003261D01*
X149587374Y-131003260D01*
X149448156Y-130910238D01*
X149329762Y-130791844D01*
X149236740Y-130652626D01*
X149197518Y-130557936D01*
X149172664Y-130497935D01*
X149140000Y-130333719D01*
X149140000Y-130166281D01*
X149172664Y-130002065D01*
X149236739Y-129847376D01*
X149289671Y-129768157D01*
X149329762Y-129708156D01*
X149448156Y-129589762D01*
X149587374Y-129496740D01*
X149587376Y-129496739D01*
X149742065Y-129432664D01*
X149906281Y-129400000D01*
X150073719Y-129400000D01*
X150237935Y-129432664D01*
G37*
G36*
X145157935Y-129432664D02*
G01*
X145312624Y-129496739D01*
X145312626Y-129496740D01*
X145451844Y-129589762D01*
X145570238Y-129708156D01*
X145610329Y-129768157D01*
X145663261Y-129847376D01*
X145727336Y-130002065D01*
X145760000Y-130166281D01*
X145760000Y-130333719D01*
X145727336Y-130497935D01*
X145702482Y-130557936D01*
X145663260Y-130652626D01*
X145570238Y-130791844D01*
X145451844Y-130910238D01*
X145312626Y-131003260D01*
X145312625Y-131003261D01*
X145312624Y-131003261D01*
X145157935Y-131067336D01*
X144993719Y-131100000D01*
X144826281Y-131100000D01*
X144662065Y-131067336D01*
X144507376Y-131003261D01*
X144507375Y-131003261D01*
X144507374Y-131003260D01*
X144368156Y-130910238D01*
X144249762Y-130791844D01*
X144156740Y-130652626D01*
X144117518Y-130557936D01*
X144092664Y-130497935D01*
X144060000Y-130333719D01*
X144060000Y-130166281D01*
X144092664Y-130002065D01*
X144156739Y-129847376D01*
X144209671Y-129768157D01*
X144249762Y-129708156D01*
X144368156Y-129589762D01*
X144507374Y-129496740D01*
X144507376Y-129496739D01*
X144662065Y-129432664D01*
X144826281Y-129400000D01*
X144993719Y-129400000D01*
X145157935Y-129432664D01*
G37*
G36*
X142617935Y-129432664D02*
G01*
X142772624Y-129496739D01*
X142772626Y-129496740D01*
X142911844Y-129589762D01*
X143030238Y-129708156D01*
X143070329Y-129768157D01*
X143123261Y-129847376D01*
X143187336Y-130002065D01*
X143220000Y-130166281D01*
X143220000Y-130333719D01*
X143187336Y-130497935D01*
X143162482Y-130557936D01*
X143123260Y-130652626D01*
X143030238Y-130791844D01*
X142911844Y-130910238D01*
X142772626Y-131003260D01*
X142772625Y-131003261D01*
X142772624Y-131003261D01*
X142617935Y-131067336D01*
X142453719Y-131100000D01*
X142286281Y-131100000D01*
X142122065Y-131067336D01*
X141967376Y-131003261D01*
X141967375Y-131003261D01*
X141967374Y-131003260D01*
X141828156Y-130910238D01*
X141709762Y-130791844D01*
X141616740Y-130652626D01*
X141577518Y-130557936D01*
X141552664Y-130497935D01*
X141520000Y-130333719D01*
X141520000Y-130166281D01*
X141552664Y-130002065D01*
X141616739Y-129847376D01*
X141669671Y-129768157D01*
X141709762Y-129708156D01*
X141828156Y-129589762D01*
X141967374Y-129496740D01*
X141967376Y-129496739D01*
X142122065Y-129432664D01*
X142286281Y-129400000D01*
X142453719Y-129400000D01*
X142617935Y-129432664D01*
G37*
G36*
X137537935Y-129432664D02*
G01*
X137692624Y-129496739D01*
X137692626Y-129496740D01*
X137831844Y-129589762D01*
X137950238Y-129708156D01*
X137990329Y-129768157D01*
X138043261Y-129847376D01*
X138107336Y-130002065D01*
X138140000Y-130166281D01*
X138140000Y-130333719D01*
X138107336Y-130497935D01*
X138082482Y-130557936D01*
X138043260Y-130652626D01*
X137950238Y-130791844D01*
X137831844Y-130910238D01*
X137692626Y-131003260D01*
X137692625Y-131003261D01*
X137692624Y-131003261D01*
X137537935Y-131067336D01*
X137373719Y-131100000D01*
X137206281Y-131100000D01*
X137042065Y-131067336D01*
X136887376Y-131003261D01*
X136887375Y-131003261D01*
X136887374Y-131003260D01*
X136748156Y-130910238D01*
X136629762Y-130791844D01*
X136536740Y-130652626D01*
X136497518Y-130557936D01*
X136472664Y-130497935D01*
X136440000Y-130333719D01*
X136440000Y-130166281D01*
X136472664Y-130002065D01*
X136536739Y-129847376D01*
X136589671Y-129768157D01*
X136629762Y-129708156D01*
X136748156Y-129589762D01*
X136887374Y-129496740D01*
X136887376Y-129496739D01*
X137042065Y-129432664D01*
X137206281Y-129400000D01*
X137373719Y-129400000D01*
X137537935Y-129432664D01*
G37*
G36*
X140077935Y-129432664D02*
G01*
X140232624Y-129496739D01*
X140232626Y-129496740D01*
X140371844Y-129589762D01*
X140490238Y-129708156D01*
X140530329Y-129768157D01*
X140583261Y-129847376D01*
X140647336Y-130002065D01*
X140680000Y-130166281D01*
X140680000Y-130333719D01*
X140647336Y-130497935D01*
X140622482Y-130557936D01*
X140583260Y-130652626D01*
X140490238Y-130791844D01*
X140371844Y-130910238D01*
X140232626Y-131003260D01*
X140232625Y-131003261D01*
X140232624Y-131003261D01*
X140077935Y-131067336D01*
X139913719Y-131100000D01*
X139746281Y-131100000D01*
X139582065Y-131067336D01*
X139427376Y-131003261D01*
X139427375Y-131003261D01*
X139427374Y-131003260D01*
X139288156Y-130910238D01*
X139169762Y-130791844D01*
X139076740Y-130652626D01*
X139037518Y-130557936D01*
X139012664Y-130497935D01*
X138980000Y-130333719D01*
X138980000Y-130166281D01*
X139012664Y-130002065D01*
X139076739Y-129847376D01*
X139129671Y-129768157D01*
X139169762Y-129708156D01*
X139288156Y-129589762D01*
X139427374Y-129496740D01*
X139427376Y-129496739D01*
X139582065Y-129432664D01*
X139746281Y-129400000D01*
X139913719Y-129400000D01*
X140077935Y-129432664D01*
G37*
G36*
X152777935Y-129432664D02*
G01*
X152932624Y-129496739D01*
X152932626Y-129496740D01*
X153071844Y-129589762D01*
X153190238Y-129708156D01*
X153230329Y-129768157D01*
X153283261Y-129847376D01*
X153347336Y-130002065D01*
X153380000Y-130166281D01*
X153380000Y-130333719D01*
X153347336Y-130497935D01*
X153322482Y-130557936D01*
X153283260Y-130652626D01*
X153190238Y-130791844D01*
X153071844Y-130910238D01*
X152932626Y-131003260D01*
X152932625Y-131003261D01*
X152932624Y-131003261D01*
X152777935Y-131067336D01*
X152613719Y-131100000D01*
X152446281Y-131100000D01*
X152282065Y-131067336D01*
X152127376Y-131003261D01*
X152127375Y-131003261D01*
X152127374Y-131003260D01*
X151988156Y-130910238D01*
X151869762Y-130791844D01*
X151776740Y-130652626D01*
X151737518Y-130557936D01*
X151712664Y-130497935D01*
X151680000Y-130333719D01*
X151680000Y-130166281D01*
X151712664Y-130002065D01*
X151776739Y-129847376D01*
X151829671Y-129768157D01*
X151869762Y-129708156D01*
X151988156Y-129589762D01*
X152127374Y-129496740D01*
X152127376Y-129496739D01*
X152282065Y-129432664D01*
X152446281Y-129400000D01*
X152613719Y-129400000D01*
X152777935Y-129432664D01*
G37*
G36*
X135600000Y-131100000D02*
G01*
X133900000Y-131100000D01*
X133900000Y-129400000D01*
X135600000Y-129400000D01*
X135600000Y-131100000D01*
G37*
G36*
X125041903Y-127669587D02*
G01*
X125199068Y-127734687D01*
X125340513Y-127829198D01*
X125460802Y-127949487D01*
X125555313Y-128090932D01*
X125620413Y-128248097D01*
X125653600Y-128414943D01*
X125653600Y-128585057D01*
X125620413Y-128751903D01*
X125555313Y-128909068D01*
X125460802Y-129050513D01*
X125340513Y-129170802D01*
X125199068Y-129265313D01*
X125041903Y-129330413D01*
X124875057Y-129363600D01*
X124704943Y-129363600D01*
X124538097Y-129330413D01*
X124380932Y-129265313D01*
X124239487Y-129170802D01*
X124119198Y-129050513D01*
X124024687Y-128909068D01*
X123959587Y-128751903D01*
X123926400Y-128585057D01*
X123926400Y-128414943D01*
X123959587Y-128248097D01*
X124024687Y-128090932D01*
X124119198Y-127949487D01*
X124239487Y-127829198D01*
X124380932Y-127734687D01*
X124538097Y-127669587D01*
X124704943Y-127636400D01*
X124875057Y-127636400D01*
X125041903Y-127669587D01*
G37*
G36*
X127581903Y-127669587D02*
G01*
X127739068Y-127734687D01*
X127880513Y-127829198D01*
X128000802Y-127949487D01*
X128095313Y-128090932D01*
X128160413Y-128248097D01*
X128193600Y-128414943D01*
X128193600Y-128585057D01*
X128160413Y-128751903D01*
X128095313Y-128909068D01*
X128000802Y-129050513D01*
X127880513Y-129170802D01*
X127739068Y-129265313D01*
X127581903Y-129330413D01*
X127415057Y-129363600D01*
X127244943Y-129363600D01*
X127078097Y-129330413D01*
X126920932Y-129265313D01*
X126779487Y-129170802D01*
X126659198Y-129050513D01*
X126564687Y-128909068D01*
X126499587Y-128751903D01*
X126466400Y-128585057D01*
X126466400Y-128414943D01*
X126499587Y-128248097D01*
X126564687Y-128090932D01*
X126659198Y-127949487D01*
X126779487Y-127829198D01*
X126920932Y-127734687D01*
X127078097Y-127669587D01*
X127244943Y-127636400D01*
X127415057Y-127636400D01*
X127581903Y-127669587D01*
G37*
G36*
X123113600Y-129363600D02*
G01*
X121386400Y-129363600D01*
X121386400Y-127636400D01*
X123113600Y-127636400D01*
X123113600Y-129363600D01*
G37*
G36*
X156497935Y-126952664D02*
G01*
X156652624Y-127016739D01*
X156652626Y-127016740D01*
X156791844Y-127109762D01*
X156910238Y-127228156D01*
X157003260Y-127367374D01*
X157003261Y-127367376D01*
X157067336Y-127522065D01*
X157100000Y-127686281D01*
X157100000Y-127853719D01*
X157067336Y-128017935D01*
X157037099Y-128090932D01*
X157003260Y-128172626D01*
X156910238Y-128311844D01*
X156791844Y-128430238D01*
X156652626Y-128523260D01*
X156652625Y-128523261D01*
X156652624Y-128523261D01*
X156497935Y-128587336D01*
X156333719Y-128620000D01*
X156166281Y-128620000D01*
X156002065Y-128587336D01*
X155847376Y-128523261D01*
X155847375Y-128523261D01*
X155847374Y-128523260D01*
X155708156Y-128430238D01*
X155589762Y-128311844D01*
X155496740Y-128172626D01*
X155462901Y-128090932D01*
X155432664Y-128017935D01*
X155400000Y-127853719D01*
X155400000Y-127686281D01*
X155432664Y-127522065D01*
X155496739Y-127367376D01*
X155496740Y-127367374D01*
X155589762Y-127228156D01*
X155708156Y-127109762D01*
X155847374Y-127016740D01*
X155847376Y-127016739D01*
X156002065Y-126952664D01*
X156166281Y-126920000D01*
X156333719Y-126920000D01*
X156497935Y-126952664D01*
G37*
G36*
X125041903Y-125129587D02*
G01*
X125199068Y-125194687D01*
X125340513Y-125289198D01*
X125460802Y-125409487D01*
X125555313Y-125550932D01*
X125620413Y-125708097D01*
X125653600Y-125874943D01*
X125653600Y-126045057D01*
X125620413Y-126211903D01*
X125555313Y-126369068D01*
X125460802Y-126510513D01*
X125340513Y-126630802D01*
X125199068Y-126725313D01*
X125041903Y-126790413D01*
X124875057Y-126823600D01*
X124704943Y-126823600D01*
X124538097Y-126790413D01*
X124380932Y-126725313D01*
X124239487Y-126630802D01*
X124119198Y-126510513D01*
X124024687Y-126369068D01*
X123959587Y-126211903D01*
X123926400Y-126045057D01*
X123926400Y-125874943D01*
X123959587Y-125708097D01*
X124024687Y-125550932D01*
X124119198Y-125409487D01*
X124239487Y-125289198D01*
X124380932Y-125194687D01*
X124538097Y-125129587D01*
X124704943Y-125096400D01*
X124875057Y-125096400D01*
X125041903Y-125129587D01*
G37*
G36*
X122501903Y-125129587D02*
G01*
X122659068Y-125194687D01*
X122800513Y-125289198D01*
X122920802Y-125409487D01*
X123015313Y-125550932D01*
X123080413Y-125708097D01*
X123113600Y-125874943D01*
X123113600Y-126045057D01*
X123080413Y-126211903D01*
X123015313Y-126369068D01*
X122920802Y-126510513D01*
X122800513Y-126630802D01*
X122659068Y-126725313D01*
X122501903Y-126790413D01*
X122335057Y-126823600D01*
X122164943Y-126823600D01*
X121998097Y-126790413D01*
X121840932Y-126725313D01*
X121699487Y-126630802D01*
X121579198Y-126510513D01*
X121484687Y-126369068D01*
X121419587Y-126211903D01*
X121386400Y-126045057D01*
X121386400Y-125874943D01*
X121419587Y-125708097D01*
X121484687Y-125550932D01*
X121579198Y-125409487D01*
X121699487Y-125289198D01*
X121840932Y-125194687D01*
X121998097Y-125129587D01*
X122164943Y-125096400D01*
X122335057Y-125096400D01*
X122501903Y-125129587D01*
G37*
G36*
X127581903Y-125129587D02*
G01*
X127739068Y-125194687D01*
X127880513Y-125289198D01*
X128000802Y-125409487D01*
X128095313Y-125550932D01*
X128160413Y-125708097D01*
X128193600Y-125874943D01*
X128193600Y-126045057D01*
X128160413Y-126211903D01*
X128095313Y-126369068D01*
X128000802Y-126510513D01*
X127880513Y-126630802D01*
X127739068Y-126725313D01*
X127581903Y-126790413D01*
X127415057Y-126823600D01*
X127244943Y-126823600D01*
X127078097Y-126790413D01*
X126920932Y-126725313D01*
X126779487Y-126630802D01*
X126659198Y-126510513D01*
X126564687Y-126369068D01*
X126499587Y-126211903D01*
X126466400Y-126045057D01*
X126466400Y-125874943D01*
X126499587Y-125708097D01*
X126564687Y-125550932D01*
X126659198Y-125409487D01*
X126779487Y-125289198D01*
X126920932Y-125194687D01*
X127078097Y-125129587D01*
X127244943Y-125096400D01*
X127415057Y-125096400D01*
X127581903Y-125129587D01*
G37*
G36*
X156497935Y-124412664D02*
G01*
X156652624Y-124476739D01*
X156652626Y-124476740D01*
X156791844Y-124569762D01*
X156910238Y-124688156D01*
X157003260Y-124827374D01*
X157003261Y-124827376D01*
X157067336Y-124982065D01*
X157100000Y-125146281D01*
X157100000Y-125313719D01*
X157067336Y-125477935D01*
X157037099Y-125550932D01*
X157003260Y-125632626D01*
X156910238Y-125771844D01*
X156791844Y-125890238D01*
X156652626Y-125983260D01*
X156652625Y-125983261D01*
X156652624Y-125983261D01*
X156497935Y-126047336D01*
X156333719Y-126080000D01*
X156166281Y-126080000D01*
X156002065Y-126047336D01*
X155847376Y-125983261D01*
X155847375Y-125983261D01*
X155847374Y-125983260D01*
X155708156Y-125890238D01*
X155589762Y-125771844D01*
X155496740Y-125632626D01*
X155462901Y-125550932D01*
X155432664Y-125477935D01*
X155400000Y-125313719D01*
X155400000Y-125146281D01*
X155432664Y-124982065D01*
X155496739Y-124827376D01*
X155496740Y-124827374D01*
X155589762Y-124688156D01*
X155708156Y-124569762D01*
X155847374Y-124476740D01*
X155847376Y-124476739D01*
X156002065Y-124412664D01*
X156166281Y-124380000D01*
X156333719Y-124380000D01*
X156497935Y-124412664D01*
G37*
G36*
X142293868Y-125225104D02*
G01*
X140893868Y-125225104D01*
X140893868Y-124025104D01*
X142293868Y-124025104D01*
X142293868Y-125225104D01*
G37*
G36*
X140093868Y-125225104D02*
G01*
X138693868Y-125225104D01*
X138693868Y-124025104D01*
X140093868Y-124025104D01*
X140093868Y-125225104D01*
G37*
G36*
X137768766Y-124017330D02*
G01*
X137784602Y-124022134D01*
X137799189Y-124029931D01*
X137811980Y-124040427D01*
X137822476Y-124053218D01*
X137830273Y-124067805D01*
X137835077Y-124083641D01*
X137837303Y-124106244D01*
X137837303Y-124513964D01*
X137835077Y-124536567D01*
X137830273Y-124552403D01*
X137822476Y-124566990D01*
X137811980Y-124579781D01*
X137799189Y-124590277D01*
X137784602Y-124598074D01*
X137768766Y-124602878D01*
X137746163Y-124605104D01*
X137288443Y-124605104D01*
X137265840Y-124602878D01*
X137250004Y-124598074D01*
X137235417Y-124590277D01*
X137222626Y-124579781D01*
X137212130Y-124566990D01*
X137204333Y-124552403D01*
X137199529Y-124536567D01*
X137197303Y-124513964D01*
X137197303Y-124106244D01*
X137199529Y-124083641D01*
X137204333Y-124067805D01*
X137212130Y-124053218D01*
X137222626Y-124040427D01*
X137235417Y-124029931D01*
X137250004Y-124022134D01*
X137265840Y-124017330D01*
X137288443Y-124015104D01*
X137746163Y-124015104D01*
X137768766Y-124017330D01*
G37*
G36*
X143721896Y-124017330D02*
G01*
X143737732Y-124022134D01*
X143752319Y-124029931D01*
X143765110Y-124040427D01*
X143775606Y-124053218D01*
X143783403Y-124067805D01*
X143788207Y-124083641D01*
X143790433Y-124106244D01*
X143790433Y-124513964D01*
X143788207Y-124536567D01*
X143783403Y-124552403D01*
X143775606Y-124566990D01*
X143765110Y-124579781D01*
X143752319Y-124590277D01*
X143737732Y-124598074D01*
X143721896Y-124602878D01*
X143699293Y-124605104D01*
X143241573Y-124605104D01*
X143218970Y-124602878D01*
X143203134Y-124598074D01*
X143188547Y-124590277D01*
X143175756Y-124579781D01*
X143165260Y-124566990D01*
X143157463Y-124552403D01*
X143152659Y-124536567D01*
X143150433Y-124513964D01*
X143150433Y-124106244D01*
X143152659Y-124083641D01*
X143157463Y-124067805D01*
X143165260Y-124053218D01*
X143175756Y-124040427D01*
X143188547Y-124029931D01*
X143203134Y-124022134D01*
X143218970Y-124017330D01*
X143241573Y-124015104D01*
X143699293Y-124015104D01*
X143721896Y-124017330D01*
G37*
G36*
X137768766Y-123047330D02*
G01*
X137784602Y-123052134D01*
X137799189Y-123059931D01*
X137811980Y-123070427D01*
X137822476Y-123083218D01*
X137830273Y-123097805D01*
X137835077Y-123113641D01*
X137837303Y-123136244D01*
X137837303Y-123543964D01*
X137835077Y-123566567D01*
X137830273Y-123582403D01*
X137822476Y-123596990D01*
X137811980Y-123609781D01*
X137799189Y-123620277D01*
X137784602Y-123628074D01*
X137768766Y-123632878D01*
X137746163Y-123635104D01*
X137288443Y-123635104D01*
X137265840Y-123632878D01*
X137250004Y-123628074D01*
X137235417Y-123620277D01*
X137222626Y-123609781D01*
X137212130Y-123596990D01*
X137204333Y-123582403D01*
X137199529Y-123566567D01*
X137197303Y-123543964D01*
X137197303Y-123136244D01*
X137199529Y-123113641D01*
X137204333Y-123097805D01*
X137212130Y-123083218D01*
X137222626Y-123070427D01*
X137235417Y-123059931D01*
X137250004Y-123052134D01*
X137265840Y-123047330D01*
X137288443Y-123045104D01*
X137746163Y-123045104D01*
X137768766Y-123047330D01*
G37*
G36*
X143721896Y-123047330D02*
G01*
X143737732Y-123052134D01*
X143752319Y-123059931D01*
X143765110Y-123070427D01*
X143775606Y-123083218D01*
X143783403Y-123097805D01*
X143788207Y-123113641D01*
X143790433Y-123136244D01*
X143790433Y-123543964D01*
X143788207Y-123566567D01*
X143783403Y-123582403D01*
X143775606Y-123596990D01*
X143765110Y-123609781D01*
X143752319Y-123620277D01*
X143737732Y-123628074D01*
X143721896Y-123632878D01*
X143699293Y-123635104D01*
X143241573Y-123635104D01*
X143218970Y-123632878D01*
X143203134Y-123628074D01*
X143188547Y-123620277D01*
X143175756Y-123609781D01*
X143165260Y-123596990D01*
X143157463Y-123582403D01*
X143152659Y-123566567D01*
X143150433Y-123543964D01*
X143150433Y-123136244D01*
X143152659Y-123113641D01*
X143157463Y-123097805D01*
X143165260Y-123083218D01*
X143175756Y-123070427D01*
X143188547Y-123059931D01*
X143203134Y-123052134D01*
X143218970Y-123047330D01*
X143241573Y-123045104D01*
X143699293Y-123045104D01*
X143721896Y-123047330D01*
G37*
G36*
X140093868Y-123625104D02*
G01*
X138693868Y-123625104D01*
X138693868Y-122425104D01*
X140093868Y-122425104D01*
X140093868Y-123625104D01*
G37*
G36*
X142293868Y-123625104D02*
G01*
X140893868Y-123625104D01*
X140893868Y-122425104D01*
X142293868Y-122425104D01*
X142293868Y-123625104D01*
G37*
G36*
X156497935Y-121872664D02*
G01*
X156652624Y-121936739D01*
X156652626Y-121936740D01*
X156791844Y-122029762D01*
X156910238Y-122148156D01*
X156960816Y-122223852D01*
X157003261Y-122287376D01*
X157067336Y-122442065D01*
X157100000Y-122606281D01*
X157100000Y-122773719D01*
X157067336Y-122937935D01*
X157003261Y-123092624D01*
X157003260Y-123092626D01*
X156910238Y-123231844D01*
X156791844Y-123350238D01*
X156652626Y-123443260D01*
X156652625Y-123443261D01*
X156652624Y-123443261D01*
X156497935Y-123507336D01*
X156333719Y-123540000D01*
X156166281Y-123540000D01*
X156002065Y-123507336D01*
X155847376Y-123443261D01*
X155847375Y-123443261D01*
X155847374Y-123443260D01*
X155708156Y-123350238D01*
X155589762Y-123231844D01*
X155496740Y-123092626D01*
X155496739Y-123092624D01*
X155432664Y-122937935D01*
X155400000Y-122773719D01*
X155400000Y-122606281D01*
X155432664Y-122442065D01*
X155496739Y-122287376D01*
X155539184Y-122223852D01*
X155589762Y-122148156D01*
X155708156Y-122029762D01*
X155847374Y-121936740D01*
X155847376Y-121936739D01*
X156002065Y-121872664D01*
X156166281Y-121840000D01*
X156333719Y-121840000D01*
X156497935Y-121872664D01*
G37*
G36*
X135387514Y-121636078D02*
G01*
X135403350Y-121640882D01*
X135417937Y-121648679D01*
X135430728Y-121659175D01*
X135441224Y-121671966D01*
X135449021Y-121686553D01*
X135453825Y-121702389D01*
X135456051Y-121724992D01*
X135456051Y-122132712D01*
X135453825Y-122155315D01*
X135449021Y-122171151D01*
X135441224Y-122185738D01*
X135430728Y-122198529D01*
X135417937Y-122209025D01*
X135403350Y-122216822D01*
X135387514Y-122221626D01*
X135364911Y-122223852D01*
X134907191Y-122223852D01*
X134884588Y-122221626D01*
X134868752Y-122216822D01*
X134854165Y-122209025D01*
X134841374Y-122198529D01*
X134830878Y-122185738D01*
X134823081Y-122171151D01*
X134818277Y-122155315D01*
X134816051Y-122132712D01*
X134816051Y-121724992D01*
X134818277Y-121702389D01*
X134823081Y-121686553D01*
X134830878Y-121671966D01*
X134841374Y-121659175D01*
X134854165Y-121648679D01*
X134868752Y-121640882D01*
X134884588Y-121636078D01*
X134907191Y-121633852D01*
X135364911Y-121633852D01*
X135387514Y-121636078D01*
G37*
G36*
X133006262Y-121636078D02*
G01*
X133022098Y-121640882D01*
X133036685Y-121648679D01*
X133049476Y-121659175D01*
X133059972Y-121671966D01*
X133067769Y-121686553D01*
X133072573Y-121702389D01*
X133074799Y-121724992D01*
X133074799Y-122132712D01*
X133072573Y-122155315D01*
X133067769Y-122171151D01*
X133059972Y-122185738D01*
X133049476Y-122198529D01*
X133036685Y-122209025D01*
X133022098Y-122216822D01*
X133006262Y-122221626D01*
X132983659Y-122223852D01*
X132525939Y-122223852D01*
X132503336Y-122221626D01*
X132487500Y-122216822D01*
X132472913Y-122209025D01*
X132460122Y-122198529D01*
X132449626Y-122185738D01*
X132441829Y-122171151D01*
X132437025Y-122155315D01*
X132434799Y-122132712D01*
X132434799Y-121724992D01*
X132437025Y-121702389D01*
X132441829Y-121686553D01*
X132449626Y-121671966D01*
X132460122Y-121659175D01*
X132472913Y-121648679D01*
X132487500Y-121640882D01*
X132503336Y-121636078D01*
X132525939Y-121633852D01*
X132983659Y-121633852D01*
X133006262Y-121636078D01*
G37*
G36*
X135387514Y-120666078D02*
G01*
X135403350Y-120670882D01*
X135417937Y-120678679D01*
X135430728Y-120689175D01*
X135441224Y-120701966D01*
X135449021Y-120716553D01*
X135453825Y-120732389D01*
X135456051Y-120754992D01*
X135456051Y-121162712D01*
X135453825Y-121185315D01*
X135449021Y-121201151D01*
X135441224Y-121215738D01*
X135430728Y-121228529D01*
X135417937Y-121239025D01*
X135403350Y-121246822D01*
X135387514Y-121251626D01*
X135364911Y-121253852D01*
X134907191Y-121253852D01*
X134884588Y-121251626D01*
X134868752Y-121246822D01*
X134854165Y-121239025D01*
X134841374Y-121228529D01*
X134830878Y-121215738D01*
X134823081Y-121201151D01*
X134818277Y-121185315D01*
X134816051Y-121162712D01*
X134816051Y-120754992D01*
X134818277Y-120732389D01*
X134823081Y-120716553D01*
X134830878Y-120701966D01*
X134841374Y-120689175D01*
X134854165Y-120678679D01*
X134868752Y-120670882D01*
X134884588Y-120666078D01*
X134907191Y-120663852D01*
X135364911Y-120663852D01*
X135387514Y-120666078D01*
G37*
G36*
X133006262Y-120666078D02*
G01*
X133022098Y-120670882D01*
X133036685Y-120678679D01*
X133049476Y-120689175D01*
X133059972Y-120701966D01*
X133067769Y-120716553D01*
X133072573Y-120732389D01*
X133074799Y-120754992D01*
X133074799Y-121162712D01*
X133072573Y-121185315D01*
X133067769Y-121201151D01*
X133059972Y-121215738D01*
X133049476Y-121228529D01*
X133036685Y-121239025D01*
X133022098Y-121246822D01*
X133006262Y-121251626D01*
X132983659Y-121253852D01*
X132525939Y-121253852D01*
X132503336Y-121251626D01*
X132487500Y-121246822D01*
X132472913Y-121239025D01*
X132460122Y-121228529D01*
X132449626Y-121215738D01*
X132441829Y-121201151D01*
X132437025Y-121185315D01*
X132434799Y-121162712D01*
X132434799Y-120754992D01*
X132437025Y-120732389D01*
X132441829Y-120716553D01*
X132449626Y-120701966D01*
X132460122Y-120689175D01*
X132472913Y-120678679D01*
X132487500Y-120670882D01*
X132503336Y-120666078D01*
X132525939Y-120663852D01*
X132983659Y-120663852D01*
X133006262Y-120666078D01*
G37*
G36*
X156497935Y-119332664D02*
G01*
X156652624Y-119396739D01*
X156652626Y-119396740D01*
X156791844Y-119489762D01*
X156910238Y-119608156D01*
X157003260Y-119747374D01*
X157003261Y-119747376D01*
X157067336Y-119902065D01*
X157100000Y-120066281D01*
X157100000Y-120233719D01*
X157067336Y-120397935D01*
X157003261Y-120552624D01*
X157003260Y-120552626D01*
X156910238Y-120691844D01*
X156791844Y-120810238D01*
X156652626Y-120903260D01*
X156652625Y-120903261D01*
X156652624Y-120903261D01*
X156497935Y-120967336D01*
X156333719Y-121000000D01*
X156166281Y-121000000D01*
X156002065Y-120967336D01*
X155847376Y-120903261D01*
X155847375Y-120903261D01*
X155847374Y-120903260D01*
X155708156Y-120810238D01*
X155589762Y-120691844D01*
X155496740Y-120552626D01*
X155496739Y-120552624D01*
X155432664Y-120397935D01*
X155400000Y-120233719D01*
X155400000Y-120066281D01*
X155432664Y-119902065D01*
X155496739Y-119747376D01*
X155496740Y-119747374D01*
X155589762Y-119608156D01*
X155708156Y-119489762D01*
X155847374Y-119396740D01*
X155847376Y-119396739D01*
X156002065Y-119332664D01*
X156166281Y-119300000D01*
X156333719Y-119300000D01*
X156497935Y-119332664D01*
G37*
G36*
X143168868Y-118964157D02*
G01*
X142618868Y-118964157D01*
X142618868Y-117464157D01*
X143168868Y-117464157D01*
X143168868Y-118964157D01*
G37*
G36*
X143968868Y-118964157D02*
G01*
X143418868Y-118964157D01*
X143418868Y-117464157D01*
X143968868Y-117464157D01*
X143968868Y-118964157D01*
G37*
G36*
X140768868Y-118964157D02*
G01*
X140218868Y-118964157D01*
X140218868Y-117464157D01*
X140768868Y-117464157D01*
X140768868Y-118964157D01*
G37*
G36*
X138368868Y-118964157D02*
G01*
X137818868Y-118964157D01*
X137818868Y-117464157D01*
X138368868Y-117464157D01*
X138368868Y-118964157D01*
G37*
G36*
X141568868Y-118964157D02*
G01*
X141018868Y-118964157D01*
X141018868Y-117464157D01*
X141568868Y-117464157D01*
X141568868Y-118964157D01*
G37*
G36*
X139168868Y-118964157D02*
G01*
X138618868Y-118964157D01*
X138618868Y-117464157D01*
X139168868Y-117464157D01*
X139168868Y-118964157D01*
G37*
G36*
X137568868Y-118964157D02*
G01*
X137018868Y-118964157D01*
X137018868Y-117464157D01*
X137568868Y-117464157D01*
X137568868Y-118964157D01*
G37*
G36*
X142368868Y-118964157D02*
G01*
X141818868Y-118964157D01*
X141818868Y-117464157D01*
X142368868Y-117464157D01*
X142368868Y-118964157D01*
G37*
G36*
X144768868Y-118964157D02*
G01*
X144218868Y-118964157D01*
X144218868Y-117464157D01*
X144768868Y-117464157D01*
X144768868Y-118964157D01*
G37*
G36*
X139968868Y-118964157D02*
G01*
X139418868Y-118964157D01*
X139418868Y-117464157D01*
X139968868Y-117464157D01*
X139968868Y-118964157D01*
G37*
G36*
X136768868Y-118964157D02*
G01*
X136218868Y-118964157D01*
X136218868Y-117464157D01*
X136768868Y-117464157D01*
X136768868Y-118964157D01*
G37*
G36*
X156497935Y-116792664D02*
G01*
X156652624Y-116856739D01*
X156652626Y-116856740D01*
X156791844Y-116949762D01*
X156910238Y-117068156D01*
X157003260Y-117207374D01*
X157003261Y-117207376D01*
X157067336Y-117362065D01*
X157100000Y-117526281D01*
X157100000Y-117693719D01*
X157067336Y-117857935D01*
X157003261Y-118012624D01*
X157003260Y-118012626D01*
X156910238Y-118151844D01*
X156791844Y-118270238D01*
X156652626Y-118363260D01*
X156652625Y-118363261D01*
X156652624Y-118363261D01*
X156497935Y-118427336D01*
X156333719Y-118460000D01*
X156166281Y-118460000D01*
X156002065Y-118427336D01*
X155847376Y-118363261D01*
X155847375Y-118363261D01*
X155847374Y-118363260D01*
X155708156Y-118270238D01*
X155589762Y-118151844D01*
X155496740Y-118012626D01*
X155496739Y-118012624D01*
X155432664Y-117857935D01*
X155400000Y-117693719D01*
X155400000Y-117526281D01*
X155432664Y-117362065D01*
X155496739Y-117207376D01*
X155496740Y-117207374D01*
X155589762Y-117068156D01*
X155708156Y-116949762D01*
X155847374Y-116856740D01*
X155847376Y-116856739D01*
X156002065Y-116792664D01*
X156166281Y-116760000D01*
X156333719Y-116760000D01*
X156497935Y-116792664D01*
G37*
G36*
X118282099Y-115808682D02*
G01*
X118395199Y-115842990D01*
X118499433Y-115898704D01*
X118590795Y-115973683D01*
X118665774Y-116065045D01*
X118721488Y-116169279D01*
X118755796Y-116282379D01*
X118767381Y-116400000D01*
X118755796Y-116517621D01*
X118721488Y-116630721D01*
X118665774Y-116734955D01*
X118590795Y-116826317D01*
X118499433Y-116901296D01*
X118395199Y-116957010D01*
X118282099Y-116991318D01*
X118193952Y-117000000D01*
X117435004Y-117000000D01*
X117346857Y-116991318D01*
X117233757Y-116957010D01*
X117129523Y-116901296D01*
X117038161Y-116826317D01*
X116963182Y-116734955D01*
X116907468Y-116630721D01*
X116873160Y-116517621D01*
X116861575Y-116400000D01*
X116873160Y-116282379D01*
X116907468Y-116169279D01*
X116963182Y-116065045D01*
X117038161Y-115973683D01*
X117129523Y-115898704D01*
X117233757Y-115842990D01*
X117346857Y-115808682D01*
X117435004Y-115800000D01*
X118193952Y-115800000D01*
X118282099Y-115808682D01*
G37*
G36*
X123102099Y-115808682D02*
G01*
X123215199Y-115842990D01*
X123319433Y-115898704D01*
X123410795Y-115973683D01*
X123485774Y-116065045D01*
X123541488Y-116169279D01*
X123575796Y-116282379D01*
X123587381Y-116400000D01*
X123575796Y-116517621D01*
X123541488Y-116630721D01*
X123485774Y-116734955D01*
X123410795Y-116826317D01*
X123319433Y-116901296D01*
X123215199Y-116957010D01*
X123102099Y-116991318D01*
X123013952Y-117000000D01*
X122255004Y-117000000D01*
X122166857Y-116991318D01*
X122053757Y-116957010D01*
X121949523Y-116901296D01*
X121858161Y-116826317D01*
X121783182Y-116734955D01*
X121727468Y-116630721D01*
X121693160Y-116517621D01*
X121681575Y-116400000D01*
X121693160Y-116282379D01*
X121727468Y-116169279D01*
X121783182Y-116065045D01*
X121858161Y-115973683D01*
X121949523Y-115898704D01*
X122053757Y-115842990D01*
X122166857Y-115808682D01*
X122255004Y-115800000D01*
X123013952Y-115800000D01*
X123102099Y-115808682D01*
G37*
G36*
X135543868Y-116789157D02*
G01*
X134043868Y-116789157D01*
X134043868Y-116239157D01*
X135543868Y-116239157D01*
X135543868Y-116789157D01*
G37*
G36*
X146943868Y-116789157D02*
G01*
X145443868Y-116789157D01*
X145443868Y-116239157D01*
X146943868Y-116239157D01*
X146943868Y-116789157D01*
G37*
G36*
X135543868Y-115989157D02*
G01*
X134043868Y-115989157D01*
X134043868Y-115439157D01*
X135543868Y-115439157D01*
X135543868Y-115989157D01*
G37*
G36*
X146943868Y-115989157D02*
G01*
X145443868Y-115989157D01*
X145443868Y-115439157D01*
X146943868Y-115439157D01*
X146943868Y-115989157D01*
G37*
G36*
X156497935Y-114252664D02*
G01*
X156652624Y-114316739D01*
X156652626Y-114316740D01*
X156791844Y-114409762D01*
X156910238Y-114528156D01*
X157003207Y-114667295D01*
X157003261Y-114667376D01*
X157067336Y-114822065D01*
X157100000Y-114986281D01*
X157100000Y-115153719D01*
X157067336Y-115317935D01*
X157003261Y-115472624D01*
X157003260Y-115472626D01*
X156910238Y-115611844D01*
X156791844Y-115730238D01*
X156652626Y-115823260D01*
X156652625Y-115823261D01*
X156652624Y-115823261D01*
X156497935Y-115887336D01*
X156333719Y-115920000D01*
X156166281Y-115920000D01*
X156002065Y-115887336D01*
X155847376Y-115823261D01*
X155847375Y-115823261D01*
X155847374Y-115823260D01*
X155708156Y-115730238D01*
X155589762Y-115611844D01*
X155496740Y-115472626D01*
X155496739Y-115472624D01*
X155432664Y-115317935D01*
X155400000Y-115153719D01*
X155400000Y-114986281D01*
X155432664Y-114822065D01*
X155496739Y-114667376D01*
X155496793Y-114667295D01*
X155589762Y-114528156D01*
X155708156Y-114409762D01*
X155847374Y-114316740D01*
X155847376Y-114316739D01*
X156002065Y-114252664D01*
X156166281Y-114220000D01*
X156333719Y-114220000D01*
X156497935Y-114252664D01*
G37*
G36*
X131220323Y-115087635D02*
G01*
X131236159Y-115092439D01*
X131250746Y-115100236D01*
X131263537Y-115110732D01*
X131274033Y-115123523D01*
X131281830Y-115138110D01*
X131286634Y-115153946D01*
X131288860Y-115176549D01*
X131288860Y-115584269D01*
X131286634Y-115606872D01*
X131281830Y-115622708D01*
X131274033Y-115637295D01*
X131263537Y-115650086D01*
X131250746Y-115660582D01*
X131236159Y-115668379D01*
X131220323Y-115673183D01*
X131197720Y-115675409D01*
X130740000Y-115675409D01*
X130717397Y-115673183D01*
X130701561Y-115668379D01*
X130686974Y-115660582D01*
X130674183Y-115650086D01*
X130663687Y-115637295D01*
X130655890Y-115622708D01*
X130651086Y-115606872D01*
X130648860Y-115584269D01*
X130648860Y-115176549D01*
X130651086Y-115153946D01*
X130655890Y-115138110D01*
X130663687Y-115123523D01*
X130674183Y-115110732D01*
X130686974Y-115100236D01*
X130701561Y-115092439D01*
X130717397Y-115087635D01*
X130740000Y-115085409D01*
X131197720Y-115085409D01*
X131220323Y-115087635D01*
G37*
G36*
X149079713Y-114602635D02*
G01*
X149095549Y-114607439D01*
X149110136Y-114615236D01*
X149122927Y-114625732D01*
X149133423Y-114638523D01*
X149141220Y-114653110D01*
X149146024Y-114668946D01*
X149148250Y-114691549D01*
X149148250Y-115099269D01*
X149146024Y-115121872D01*
X149141220Y-115137708D01*
X149133423Y-115152295D01*
X149122927Y-115165086D01*
X149110136Y-115175582D01*
X149095549Y-115183379D01*
X149079713Y-115188183D01*
X149057110Y-115190409D01*
X148599390Y-115190409D01*
X148576787Y-115188183D01*
X148560951Y-115183379D01*
X148546364Y-115175582D01*
X148533573Y-115165086D01*
X148523077Y-115152295D01*
X148515280Y-115137708D01*
X148510476Y-115121872D01*
X148508250Y-115099269D01*
X148508250Y-114691549D01*
X148510476Y-114668946D01*
X148515280Y-114653110D01*
X148523077Y-114638523D01*
X148533573Y-114625732D01*
X148546364Y-114615236D01*
X148560951Y-114607439D01*
X148576787Y-114602635D01*
X148599390Y-114600409D01*
X149057110Y-114600409D01*
X149079713Y-114602635D01*
G37*
G36*
X146943868Y-115189157D02*
G01*
X145443868Y-115189157D01*
X145443868Y-114639157D01*
X146943868Y-114639157D01*
X146943868Y-115189157D01*
G37*
G36*
X135543868Y-115189157D02*
G01*
X134043868Y-115189157D01*
X134043868Y-114639157D01*
X135543868Y-114639157D01*
X135543868Y-115189157D01*
G37*
G36*
X123359487Y-113814091D02*
G01*
X123394907Y-113821136D01*
X123438413Y-113839157D01*
X123495002Y-113862597D01*
X123585080Y-113922785D01*
X123661693Y-113999398D01*
X123721881Y-114089476D01*
X123738364Y-114129269D01*
X123763342Y-114189571D01*
X123784478Y-114295830D01*
X123784478Y-114404170D01*
X123763342Y-114510429D01*
X123743675Y-114557909D01*
X123721881Y-114610524D01*
X123661693Y-114700602D01*
X123585080Y-114777215D01*
X123495002Y-114837403D01*
X123444954Y-114858133D01*
X123394907Y-114878864D01*
X123359487Y-114885909D01*
X123288650Y-114900000D01*
X123180306Y-114900000D01*
X123109469Y-114885909D01*
X123074049Y-114878864D01*
X123024002Y-114858133D01*
X122973954Y-114837403D01*
X122883876Y-114777215D01*
X122807263Y-114700602D01*
X122747075Y-114610524D01*
X122725281Y-114557909D01*
X122705614Y-114510429D01*
X122684478Y-114404170D01*
X122684478Y-114295830D01*
X122705614Y-114189571D01*
X122730592Y-114129269D01*
X122747075Y-114089476D01*
X122807263Y-113999398D01*
X122883876Y-113922785D01*
X122973954Y-113862597D01*
X123030543Y-113839157D01*
X123074049Y-113821136D01*
X123109469Y-113814091D01*
X123180306Y-113800000D01*
X123288650Y-113800000D01*
X123359487Y-113814091D01*
G37*
G36*
X131220323Y-114117635D02*
G01*
X131236159Y-114122439D01*
X131250746Y-114130236D01*
X131263537Y-114140732D01*
X131274033Y-114153523D01*
X131281830Y-114168110D01*
X131286634Y-114183946D01*
X131288860Y-114206549D01*
X131288860Y-114614269D01*
X131286634Y-114636872D01*
X131281830Y-114652708D01*
X131274033Y-114667295D01*
X131263537Y-114680086D01*
X131250746Y-114690582D01*
X131236159Y-114698379D01*
X131220323Y-114703183D01*
X131197720Y-114705409D01*
X130740000Y-114705409D01*
X130717397Y-114703183D01*
X130701561Y-114698379D01*
X130686974Y-114690582D01*
X130674183Y-114680086D01*
X130663687Y-114667295D01*
X130655890Y-114652708D01*
X130651086Y-114636872D01*
X130648860Y-114614269D01*
X130648860Y-114206549D01*
X130651086Y-114183946D01*
X130655890Y-114168110D01*
X130663687Y-114153523D01*
X130674183Y-114140732D01*
X130686974Y-114130236D01*
X130701561Y-114122439D01*
X130717397Y-114117635D01*
X130740000Y-114115409D01*
X131197720Y-114115409D01*
X131220323Y-114117635D01*
G37*
G36*
X146943868Y-114389157D02*
G01*
X145443868Y-114389157D01*
X145443868Y-113839157D01*
X146943868Y-113839157D01*
X146943868Y-114389157D01*
G37*
G36*
X135543868Y-114389157D02*
G01*
X134043868Y-114389157D01*
X134043868Y-113839157D01*
X135543868Y-113839157D01*
X135543868Y-114389157D01*
G37*
G36*
X149079713Y-113632635D02*
G01*
X149095549Y-113637439D01*
X149110136Y-113645236D01*
X149122927Y-113655732D01*
X149133423Y-113668523D01*
X149141220Y-113683110D01*
X149146024Y-113698946D01*
X149148250Y-113721549D01*
X149148250Y-114129269D01*
X149146024Y-114151872D01*
X149141220Y-114167708D01*
X149133423Y-114182295D01*
X149122927Y-114195086D01*
X149110136Y-114205582D01*
X149095549Y-114213379D01*
X149079713Y-114218183D01*
X149057110Y-114220409D01*
X148599390Y-114220409D01*
X148576787Y-114218183D01*
X148560951Y-114213379D01*
X148546364Y-114205582D01*
X148533573Y-114195086D01*
X148523077Y-114182295D01*
X148515280Y-114167708D01*
X148510476Y-114151872D01*
X148508250Y-114129269D01*
X148508250Y-113721549D01*
X148510476Y-113698946D01*
X148515280Y-113683110D01*
X148523077Y-113668523D01*
X148533573Y-113655732D01*
X148546364Y-113645236D01*
X148560951Y-113637439D01*
X148576787Y-113632635D01*
X148599390Y-113630409D01*
X149057110Y-113630409D01*
X149079713Y-113632635D01*
G37*
G36*
X122159487Y-113014091D02*
G01*
X122194907Y-113021136D01*
X122238413Y-113039157D01*
X122295002Y-113062597D01*
X122385080Y-113122785D01*
X122461693Y-113199398D01*
X122521881Y-113289476D01*
X122563342Y-113389572D01*
X122584478Y-113495828D01*
X122584478Y-113604172D01*
X122563342Y-113710428D01*
X122521881Y-113810524D01*
X122461693Y-113900602D01*
X122385080Y-113977215D01*
X122295002Y-114037403D01*
X122244954Y-114058133D01*
X122194907Y-114078864D01*
X122159487Y-114085909D01*
X122088650Y-114100000D01*
X121980306Y-114100000D01*
X121909469Y-114085909D01*
X121874049Y-114078864D01*
X121824002Y-114058133D01*
X121773954Y-114037403D01*
X121683876Y-113977215D01*
X121607263Y-113900602D01*
X121547075Y-113810524D01*
X121505614Y-113710428D01*
X121484478Y-113604172D01*
X121484478Y-113495828D01*
X121505614Y-113389572D01*
X121547075Y-113289476D01*
X121607263Y-113199398D01*
X121683876Y-113122785D01*
X121773954Y-113062597D01*
X121830543Y-113039157D01*
X121874049Y-113021136D01*
X121909469Y-113014091D01*
X121980306Y-113000000D01*
X122088650Y-113000000D01*
X122159487Y-113014091D01*
G37*
G36*
X135543868Y-113589157D02*
G01*
X134043868Y-113589157D01*
X134043868Y-113039157D01*
X135543868Y-113039157D01*
X135543868Y-113589157D01*
G37*
G36*
X146943868Y-113589157D02*
G01*
X145443868Y-113589157D01*
X145443868Y-113039157D01*
X146943868Y-113039157D01*
X146943868Y-113589157D01*
G37*
G36*
X156497935Y-111712664D02*
G01*
X156641837Y-111772271D01*
X156652626Y-111776740D01*
X156791844Y-111869762D01*
X156910238Y-111988156D01*
X157003260Y-112127374D01*
X157003261Y-112127376D01*
X157067336Y-112282065D01*
X157100000Y-112446281D01*
X157100000Y-112613719D01*
X157067336Y-112777935D01*
X157003261Y-112932624D01*
X157003260Y-112932626D01*
X156910238Y-113071844D01*
X156791844Y-113190238D01*
X156652626Y-113283260D01*
X156652625Y-113283261D01*
X156652624Y-113283261D01*
X156497935Y-113347336D01*
X156333719Y-113380000D01*
X156166281Y-113380000D01*
X156002065Y-113347336D01*
X155847376Y-113283261D01*
X155847375Y-113283261D01*
X155847374Y-113283260D01*
X155708156Y-113190238D01*
X155589762Y-113071844D01*
X155496740Y-112932626D01*
X155496739Y-112932624D01*
X155432664Y-112777935D01*
X155400000Y-112613719D01*
X155400000Y-112446281D01*
X155432664Y-112282065D01*
X155496739Y-112127376D01*
X155496740Y-112127374D01*
X155589762Y-111988156D01*
X155708156Y-111869762D01*
X155847374Y-111776740D01*
X155858163Y-111772271D01*
X156002065Y-111712664D01*
X156166281Y-111680000D01*
X156333719Y-111680000D01*
X156497935Y-111712664D01*
G37*
G36*
X123359487Y-112214091D02*
G01*
X123394907Y-112221136D01*
X123423797Y-112233103D01*
X123495002Y-112262597D01*
X123585080Y-112322785D01*
X123661693Y-112399398D01*
X123721881Y-112489476D01*
X123721881Y-112489477D01*
X123763342Y-112589571D01*
X123784478Y-112695830D01*
X123784478Y-112804170D01*
X123763342Y-112910429D01*
X123742611Y-112960476D01*
X123721881Y-113010524D01*
X123661693Y-113100602D01*
X123585080Y-113177215D01*
X123495002Y-113237403D01*
X123462284Y-113250955D01*
X123394907Y-113278864D01*
X123359487Y-113285909D01*
X123288650Y-113300000D01*
X123180306Y-113300000D01*
X123109469Y-113285909D01*
X123074049Y-113278864D01*
X123006672Y-113250955D01*
X122973954Y-113237403D01*
X122883876Y-113177215D01*
X122807263Y-113100602D01*
X122747075Y-113010524D01*
X122726345Y-112960476D01*
X122705614Y-112910429D01*
X122684478Y-112804170D01*
X122684478Y-112695830D01*
X122705614Y-112589571D01*
X122747075Y-112489477D01*
X122747075Y-112489476D01*
X122807263Y-112399398D01*
X122883876Y-112322785D01*
X122973954Y-112262597D01*
X123045159Y-112233103D01*
X123074049Y-112221136D01*
X123109469Y-112214091D01*
X123180306Y-112200000D01*
X123288650Y-112200000D01*
X123359487Y-112214091D01*
G37*
G36*
X132410949Y-112706383D02*
G01*
X132426785Y-112711187D01*
X132441372Y-112718984D01*
X132454163Y-112729480D01*
X132464659Y-112742271D01*
X132472456Y-112756858D01*
X132477260Y-112772694D01*
X132479486Y-112795297D01*
X132479486Y-113203017D01*
X132477260Y-113225620D01*
X132472456Y-113241456D01*
X132464659Y-113256043D01*
X132454163Y-113268834D01*
X132441372Y-113279330D01*
X132426785Y-113287127D01*
X132410949Y-113291931D01*
X132388346Y-113294157D01*
X131930626Y-113294157D01*
X131908023Y-113291931D01*
X131892187Y-113287127D01*
X131877600Y-113279330D01*
X131864809Y-113268834D01*
X131854313Y-113256043D01*
X131846516Y-113241456D01*
X131841712Y-113225620D01*
X131839486Y-113203017D01*
X131839486Y-112795297D01*
X131841712Y-112772694D01*
X131846516Y-112756858D01*
X131854313Y-112742271D01*
X131864809Y-112729480D01*
X131877600Y-112718984D01*
X131892187Y-112711187D01*
X131908023Y-112706383D01*
X131930626Y-112704157D01*
X132388346Y-112704157D01*
X132410949Y-112706383D01*
G37*
G36*
X146943868Y-112789157D02*
G01*
X145443868Y-112789157D01*
X145443868Y-112239157D01*
X146943868Y-112239157D01*
X146943868Y-112789157D01*
G37*
G36*
X135543868Y-112789157D02*
G01*
X134043868Y-112789157D01*
X134043868Y-112239157D01*
X135543868Y-112239157D01*
X135543868Y-112789157D01*
G37*
G36*
X122159487Y-111414091D02*
G01*
X122194907Y-111421136D01*
X122238413Y-111439157D01*
X122295002Y-111462597D01*
X122385080Y-111522785D01*
X122461693Y-111599398D01*
X122521881Y-111689476D01*
X122521881Y-111689477D01*
X122558284Y-111777359D01*
X122563342Y-111789572D01*
X122584478Y-111895828D01*
X122584478Y-112004172D01*
X122563342Y-112110428D01*
X122521881Y-112210524D01*
X122461693Y-112300602D01*
X122385080Y-112377215D01*
X122295002Y-112437403D01*
X122273566Y-112446282D01*
X122194907Y-112478864D01*
X122159487Y-112485909D01*
X122088650Y-112500000D01*
X121980306Y-112500000D01*
X121909469Y-112485909D01*
X121874049Y-112478864D01*
X121795390Y-112446282D01*
X121773954Y-112437403D01*
X121683876Y-112377215D01*
X121607263Y-112300602D01*
X121547075Y-112210524D01*
X121505614Y-112110428D01*
X121484478Y-112004172D01*
X121484478Y-111895828D01*
X121505614Y-111789572D01*
X121510673Y-111777359D01*
X121547075Y-111689477D01*
X121547075Y-111689476D01*
X121607263Y-111599398D01*
X121683876Y-111522785D01*
X121773954Y-111462597D01*
X121830543Y-111439157D01*
X121874049Y-111421136D01*
X121909469Y-111414091D01*
X121980306Y-111400000D01*
X122088650Y-111400000D01*
X122159487Y-111414091D01*
G37*
G36*
X132410949Y-111736383D02*
G01*
X132426785Y-111741187D01*
X132441372Y-111748984D01*
X132454163Y-111759480D01*
X132464659Y-111772271D01*
X132472456Y-111786858D01*
X132477260Y-111802694D01*
X132479486Y-111825297D01*
X132479486Y-112233017D01*
X132477260Y-112255620D01*
X132472456Y-112271456D01*
X132464659Y-112286043D01*
X132454163Y-112298834D01*
X132441372Y-112309330D01*
X132426785Y-112317127D01*
X132410949Y-112321931D01*
X132388346Y-112324157D01*
X131930626Y-112324157D01*
X131908023Y-112321931D01*
X131892187Y-112317127D01*
X131877600Y-112309330D01*
X131864809Y-112298834D01*
X131854313Y-112286043D01*
X131846516Y-112271456D01*
X131841712Y-112255620D01*
X131839486Y-112233017D01*
X131839486Y-111825297D01*
X131841712Y-111802694D01*
X131846516Y-111786858D01*
X131854313Y-111772271D01*
X131864809Y-111759480D01*
X131877600Y-111748984D01*
X131892187Y-111741187D01*
X131908023Y-111736383D01*
X131930626Y-111734157D01*
X132388346Y-111734157D01*
X132410949Y-111736383D01*
G37*
G36*
X146943868Y-111989157D02*
G01*
X145443868Y-111989157D01*
X145443868Y-111439157D01*
X146943868Y-111439157D01*
X146943868Y-111989157D01*
G37*
G36*
X135543868Y-111989157D02*
G01*
X134043868Y-111989157D01*
X134043868Y-111439157D01*
X135543868Y-111439157D01*
X135543868Y-111989157D01*
G37*
G36*
X123359487Y-110614091D02*
G01*
X123394907Y-110621136D01*
X123438413Y-110639157D01*
X123495002Y-110662597D01*
X123585080Y-110722785D01*
X123661693Y-110799398D01*
X123721881Y-110889476D01*
X123721881Y-110889477D01*
X123763342Y-110989571D01*
X123766682Y-111006365D01*
X123784478Y-111095828D01*
X123784478Y-111204172D01*
X123763342Y-111310428D01*
X123721881Y-111410524D01*
X123661693Y-111500602D01*
X123585080Y-111577215D01*
X123495002Y-111637403D01*
X123444954Y-111658134D01*
X123394907Y-111678864D01*
X123359487Y-111685909D01*
X123288650Y-111700000D01*
X123180306Y-111700000D01*
X123109469Y-111685909D01*
X123074049Y-111678864D01*
X123024002Y-111658134D01*
X122973954Y-111637403D01*
X122883876Y-111577215D01*
X122807263Y-111500602D01*
X122747075Y-111410524D01*
X122705614Y-111310428D01*
X122684478Y-111204172D01*
X122684478Y-111095828D01*
X122702274Y-111006365D01*
X122705614Y-110989571D01*
X122747075Y-110889477D01*
X122747075Y-110889476D01*
X122807263Y-110799398D01*
X122883876Y-110722785D01*
X122973954Y-110662597D01*
X123030543Y-110639157D01*
X123074049Y-110621136D01*
X123109469Y-110614091D01*
X123180306Y-110600000D01*
X123288650Y-110600000D01*
X123359487Y-110614091D01*
G37*
G36*
X129894384Y-111005757D02*
G01*
X129910220Y-111010561D01*
X129924807Y-111018358D01*
X129937598Y-111028854D01*
X129948094Y-111041645D01*
X129955891Y-111056232D01*
X129960695Y-111072068D01*
X129962921Y-111094671D01*
X129962921Y-111552391D01*
X129960695Y-111574994D01*
X129955891Y-111590830D01*
X129948094Y-111605417D01*
X129937598Y-111618208D01*
X129924807Y-111628704D01*
X129910220Y-111636501D01*
X129894384Y-111641305D01*
X129871781Y-111643531D01*
X129464061Y-111643531D01*
X129441458Y-111641305D01*
X129425622Y-111636501D01*
X129411035Y-111628704D01*
X129398244Y-111618208D01*
X129387748Y-111605417D01*
X129379951Y-111590830D01*
X129375147Y-111574994D01*
X129372921Y-111552391D01*
X129372921Y-111094671D01*
X129375147Y-111072068D01*
X129379951Y-111056232D01*
X129387748Y-111041645D01*
X129398244Y-111028854D01*
X129411035Y-111018358D01*
X129425622Y-111010561D01*
X129441458Y-111005757D01*
X129464061Y-111003531D01*
X129871781Y-111003531D01*
X129894384Y-111005757D01*
G37*
G36*
X128924384Y-111005757D02*
G01*
X128940220Y-111010561D01*
X128954807Y-111018358D01*
X128967598Y-111028854D01*
X128978094Y-111041645D01*
X128985891Y-111056232D01*
X128990695Y-111072068D01*
X128992921Y-111094671D01*
X128992921Y-111552391D01*
X128990695Y-111574994D01*
X128985891Y-111590830D01*
X128978094Y-111605417D01*
X128967598Y-111618208D01*
X128954807Y-111628704D01*
X128940220Y-111636501D01*
X128924384Y-111641305D01*
X128901781Y-111643531D01*
X128494061Y-111643531D01*
X128471458Y-111641305D01*
X128455622Y-111636501D01*
X128441035Y-111628704D01*
X128428244Y-111618208D01*
X128417748Y-111605417D01*
X128409951Y-111590830D01*
X128405147Y-111574994D01*
X128402921Y-111552391D01*
X128402921Y-111094671D01*
X128405147Y-111072068D01*
X128409951Y-111056232D01*
X128417748Y-111041645D01*
X128428244Y-111028854D01*
X128441035Y-111018358D01*
X128455622Y-111010561D01*
X128471458Y-111005757D01*
X128494061Y-111003531D01*
X128901781Y-111003531D01*
X128924384Y-111005757D01*
G37*
G36*
X135543868Y-111189157D02*
G01*
X134043868Y-111189157D01*
X134043868Y-110639157D01*
X135543868Y-110639157D01*
X135543868Y-111189157D01*
G37*
G36*
X146943868Y-111189157D02*
G01*
X145443868Y-111189157D01*
X145443868Y-110639157D01*
X146943868Y-110639157D01*
X146943868Y-111189157D01*
G37*
G36*
X156497935Y-109172664D02*
G01*
X156652624Y-109236739D01*
X156652626Y-109236740D01*
X156791844Y-109329762D01*
X156910238Y-109448156D01*
X156962463Y-109526317D01*
X157003261Y-109587376D01*
X157067336Y-109742065D01*
X157100000Y-109906281D01*
X157100000Y-110073719D01*
X157067336Y-110237935D01*
X157006681Y-110384368D01*
X157003260Y-110392626D01*
X156910238Y-110531844D01*
X156791844Y-110650238D01*
X156652626Y-110743260D01*
X156652625Y-110743261D01*
X156652624Y-110743261D01*
X156497935Y-110807336D01*
X156333719Y-110840000D01*
X156166281Y-110840000D01*
X156002065Y-110807336D01*
X155847376Y-110743261D01*
X155847375Y-110743261D01*
X155847374Y-110743260D01*
X155708156Y-110650238D01*
X155589762Y-110531844D01*
X155496740Y-110392626D01*
X155493319Y-110384368D01*
X155432664Y-110237935D01*
X155400000Y-110073719D01*
X155400000Y-109906281D01*
X155432664Y-109742065D01*
X155496739Y-109587376D01*
X155537537Y-109526317D01*
X155589762Y-109448156D01*
X155708156Y-109329762D01*
X155847374Y-109236740D01*
X155847376Y-109236739D01*
X156002065Y-109172664D01*
X156166281Y-109140000D01*
X156333719Y-109140000D01*
X156497935Y-109172664D01*
G37*
G36*
X128924384Y-109815131D02*
G01*
X128940220Y-109819935D01*
X128954807Y-109827732D01*
X128967598Y-109838228D01*
X128978094Y-109851019D01*
X128985891Y-109865606D01*
X128990695Y-109881442D01*
X128992921Y-109904045D01*
X128992921Y-110361765D01*
X128990695Y-110384368D01*
X128985891Y-110400204D01*
X128978094Y-110414791D01*
X128967598Y-110427582D01*
X128954807Y-110438078D01*
X128940220Y-110445875D01*
X128924384Y-110450679D01*
X128901781Y-110452905D01*
X128494061Y-110452905D01*
X128471458Y-110450679D01*
X128455622Y-110445875D01*
X128441035Y-110438078D01*
X128428244Y-110427582D01*
X128417748Y-110414791D01*
X128409951Y-110400204D01*
X128405147Y-110384368D01*
X128402921Y-110361765D01*
X128402921Y-109904045D01*
X128405147Y-109881442D01*
X128409951Y-109865606D01*
X128417748Y-109851019D01*
X128428244Y-109838228D01*
X128441035Y-109827732D01*
X128455622Y-109819935D01*
X128471458Y-109815131D01*
X128494061Y-109812905D01*
X128901781Y-109812905D01*
X128924384Y-109815131D01*
G37*
G36*
X129894384Y-109815131D02*
G01*
X129910220Y-109819935D01*
X129924807Y-109827732D01*
X129937598Y-109838228D01*
X129948094Y-109851019D01*
X129955891Y-109865606D01*
X129960695Y-109881442D01*
X129962921Y-109904045D01*
X129962921Y-110361765D01*
X129960695Y-110384368D01*
X129955891Y-110400204D01*
X129948094Y-110414791D01*
X129937598Y-110427582D01*
X129924807Y-110438078D01*
X129910220Y-110445875D01*
X129894384Y-110450679D01*
X129871781Y-110452905D01*
X129464061Y-110452905D01*
X129441458Y-110450679D01*
X129425622Y-110445875D01*
X129411035Y-110438078D01*
X129398244Y-110427582D01*
X129387748Y-110414791D01*
X129379951Y-110400204D01*
X129375147Y-110384368D01*
X129372921Y-110361765D01*
X129372921Y-109904045D01*
X129375147Y-109881442D01*
X129379951Y-109865606D01*
X129387748Y-109851019D01*
X129398244Y-109838228D01*
X129411035Y-109827732D01*
X129425622Y-109819935D01*
X129441458Y-109815131D01*
X129464061Y-109812905D01*
X129871781Y-109812905D01*
X129894384Y-109815131D01*
G37*
G36*
X146943868Y-110389157D02*
G01*
X145443868Y-110389157D01*
X145443868Y-109839157D01*
X146943868Y-109839157D01*
X146943868Y-110389157D01*
G37*
G36*
X135543868Y-110389157D02*
G01*
X134043868Y-110389157D01*
X134043868Y-109839157D01*
X135543868Y-109839157D01*
X135543868Y-110389157D01*
G37*
G36*
X118282099Y-108508682D02*
G01*
X118395199Y-108542990D01*
X118499433Y-108598704D01*
X118590795Y-108673683D01*
X118665774Y-108765045D01*
X118721488Y-108869279D01*
X118755796Y-108982379D01*
X118767381Y-109100000D01*
X118755796Y-109217621D01*
X118721488Y-109330721D01*
X118665774Y-109434955D01*
X118590795Y-109526317D01*
X118499433Y-109601296D01*
X118395199Y-109657010D01*
X118282099Y-109691318D01*
X118193952Y-109700000D01*
X117435004Y-109700000D01*
X117346857Y-109691318D01*
X117233757Y-109657010D01*
X117129523Y-109601296D01*
X117038161Y-109526317D01*
X116963182Y-109434955D01*
X116907468Y-109330721D01*
X116873160Y-109217621D01*
X116861575Y-109100000D01*
X116873160Y-108982379D01*
X116907468Y-108869279D01*
X116963182Y-108765045D01*
X117038161Y-108673683D01*
X117129523Y-108598704D01*
X117233757Y-108542990D01*
X117346857Y-108508682D01*
X117435004Y-108500000D01*
X118193952Y-108500000D01*
X118282099Y-108508682D01*
G37*
G36*
X123102099Y-108508682D02*
G01*
X123215199Y-108542990D01*
X123319433Y-108598704D01*
X123410795Y-108673683D01*
X123485774Y-108765045D01*
X123541488Y-108869279D01*
X123575796Y-108982379D01*
X123587381Y-109100000D01*
X123575796Y-109217621D01*
X123541488Y-109330721D01*
X123485774Y-109434955D01*
X123410795Y-109526317D01*
X123319433Y-109601296D01*
X123215199Y-109657010D01*
X123102099Y-109691318D01*
X123013952Y-109700000D01*
X122255004Y-109700000D01*
X122166857Y-109691318D01*
X122053757Y-109657010D01*
X121949523Y-109601296D01*
X121858161Y-109526317D01*
X121783182Y-109434955D01*
X121727468Y-109330721D01*
X121693160Y-109217621D01*
X121681575Y-109100000D01*
X121693160Y-108982379D01*
X121727468Y-108869279D01*
X121783182Y-108765045D01*
X121858161Y-108673683D01*
X121949523Y-108598704D01*
X122053757Y-108542990D01*
X122166857Y-108508682D01*
X122255004Y-108500000D01*
X123013952Y-108500000D01*
X123102099Y-108508682D01*
G37*
G36*
X135543868Y-109589157D02*
G01*
X134043868Y-109589157D01*
X134043868Y-109039157D01*
X135543868Y-109039157D01*
X135543868Y-109589157D01*
G37*
G36*
X146943868Y-109589157D02*
G01*
X145443868Y-109589157D01*
X145443868Y-109039157D01*
X146943868Y-109039157D01*
X146943868Y-109589157D01*
G37*
G36*
X132410949Y-108539192D02*
G01*
X132426785Y-108543996D01*
X132441372Y-108551793D01*
X132454163Y-108562289D01*
X132464659Y-108575080D01*
X132472456Y-108589667D01*
X132477260Y-108605503D01*
X132479486Y-108628106D01*
X132479486Y-109035826D01*
X132477260Y-109058429D01*
X132472456Y-109074265D01*
X132464659Y-109088852D01*
X132454163Y-109101643D01*
X132441372Y-109112139D01*
X132426785Y-109119936D01*
X132410949Y-109124740D01*
X132388346Y-109126966D01*
X131930626Y-109126966D01*
X131908023Y-109124740D01*
X131892187Y-109119936D01*
X131877600Y-109112139D01*
X131864809Y-109101643D01*
X131854313Y-109088852D01*
X131846516Y-109074265D01*
X131841712Y-109058429D01*
X131839486Y-109035826D01*
X131839486Y-108628106D01*
X131841712Y-108605503D01*
X131846516Y-108589667D01*
X131854313Y-108575080D01*
X131864809Y-108562289D01*
X131877600Y-108551793D01*
X131892187Y-108543996D01*
X131908023Y-108539192D01*
X131930626Y-108536966D01*
X132388346Y-108536966D01*
X132410949Y-108539192D01*
G37*
G36*
X135543868Y-108789157D02*
G01*
X134043868Y-108789157D01*
X134043868Y-108239157D01*
X135543868Y-108239157D01*
X135543868Y-108789157D01*
G37*
G36*
X146943868Y-108789157D02*
G01*
X145443868Y-108789157D01*
X145443868Y-108239157D01*
X146943868Y-108239157D01*
X146943868Y-108789157D01*
G37*
G36*
X156497935Y-106632664D02*
G01*
X156652624Y-106696739D01*
X156652626Y-106696740D01*
X156791844Y-106789762D01*
X156910238Y-106908156D01*
X157003260Y-107047374D01*
X157003261Y-107047376D01*
X157067336Y-107202065D01*
X157100000Y-107366281D01*
X157100000Y-107533719D01*
X157067336Y-107697935D01*
X157003261Y-107852624D01*
X157003260Y-107852626D01*
X156910238Y-107991844D01*
X156791844Y-108110238D01*
X156652626Y-108203260D01*
X156652625Y-108203261D01*
X156652624Y-108203261D01*
X156497935Y-108267336D01*
X156333719Y-108300000D01*
X156166281Y-108300000D01*
X156002065Y-108267336D01*
X155847376Y-108203261D01*
X155847375Y-108203261D01*
X155847374Y-108203260D01*
X155708156Y-108110238D01*
X155589762Y-107991844D01*
X155496740Y-107852626D01*
X155496739Y-107852624D01*
X155432664Y-107697935D01*
X155400000Y-107533719D01*
X155400000Y-107366281D01*
X155432664Y-107202065D01*
X155496739Y-107047376D01*
X155496740Y-107047374D01*
X155589762Y-106908156D01*
X155708156Y-106789762D01*
X155847374Y-106696740D01*
X155847376Y-106696739D01*
X156002065Y-106632664D01*
X156166281Y-106600000D01*
X156333719Y-106600000D01*
X156497935Y-106632664D01*
G37*
G36*
X132410949Y-107569192D02*
G01*
X132426785Y-107573996D01*
X132441372Y-107581793D01*
X132454163Y-107592289D01*
X132464659Y-107605080D01*
X132472456Y-107619667D01*
X132477260Y-107635503D01*
X132479486Y-107658106D01*
X132479486Y-108065826D01*
X132477260Y-108088429D01*
X132472456Y-108104265D01*
X132464659Y-108118852D01*
X132454163Y-108131643D01*
X132441372Y-108142139D01*
X132426785Y-108149936D01*
X132410949Y-108154740D01*
X132388346Y-108156966D01*
X131930626Y-108156966D01*
X131908023Y-108154740D01*
X131892187Y-108149936D01*
X131877600Y-108142139D01*
X131864809Y-108131643D01*
X131854313Y-108118852D01*
X131846516Y-108104265D01*
X131841712Y-108088429D01*
X131839486Y-108065826D01*
X131839486Y-107658106D01*
X131841712Y-107635503D01*
X131846516Y-107619667D01*
X131854313Y-107605080D01*
X131864809Y-107592289D01*
X131877600Y-107581793D01*
X131892187Y-107573996D01*
X131908023Y-107569192D01*
X131930626Y-107566966D01*
X132388346Y-107566966D01*
X132410949Y-107569192D01*
G37*
G36*
X141568868Y-107564157D02*
G01*
X141018868Y-107564157D01*
X141018868Y-106064157D01*
X141568868Y-106064157D01*
X141568868Y-107564157D01*
G37*
G36*
X142368868Y-107564157D02*
G01*
X141818868Y-107564157D01*
X141818868Y-106064157D01*
X142368868Y-106064157D01*
X142368868Y-107564157D01*
G37*
G36*
X143168868Y-107564157D02*
G01*
X142618868Y-107564157D01*
X142618868Y-106064157D01*
X143168868Y-106064157D01*
X143168868Y-107564157D01*
G37*
G36*
X143968868Y-107564157D02*
G01*
X143418868Y-107564157D01*
X143418868Y-106064157D01*
X143968868Y-106064157D01*
X143968868Y-107564157D01*
G37*
G36*
X139168868Y-107564157D02*
G01*
X138618868Y-107564157D01*
X138618868Y-106064157D01*
X139168868Y-106064157D01*
X139168868Y-107564157D01*
G37*
G36*
X144768868Y-107564157D02*
G01*
X144218868Y-107564157D01*
X144218868Y-106064157D01*
X144768868Y-106064157D01*
X144768868Y-107564157D01*
G37*
G36*
X138368868Y-107564157D02*
G01*
X137818868Y-107564157D01*
X137818868Y-106064157D01*
X138368868Y-106064157D01*
X138368868Y-107564157D01*
G37*
G36*
X137568868Y-107564157D02*
G01*
X137018868Y-107564157D01*
X137018868Y-106064157D01*
X137568868Y-106064157D01*
X137568868Y-107564157D01*
G37*
G36*
X136768868Y-107564157D02*
G01*
X136218868Y-107564157D01*
X136218868Y-106064157D01*
X136768868Y-106064157D01*
X136768868Y-107564157D01*
G37*
G36*
X140768868Y-107564157D02*
G01*
X140218868Y-107564157D01*
X140218868Y-106064157D01*
X140768868Y-106064157D01*
X140768868Y-107564157D01*
G37*
G36*
X139968868Y-107564157D02*
G01*
X139418868Y-107564157D01*
X139418868Y-106064157D01*
X139968868Y-106064157D01*
X139968868Y-107564157D01*
G37*
G36*
X129050000Y-106410000D02*
G01*
X127350000Y-106410000D01*
X127350000Y-104710000D01*
X129050000Y-104710000D01*
X129050000Y-106410000D01*
G37*
G36*
X156497935Y-104092664D02*
G01*
X156652624Y-104156739D01*
X156652626Y-104156740D01*
X156791844Y-104249762D01*
X156910238Y-104368156D01*
X157003260Y-104507374D01*
X157003261Y-104507376D01*
X157067336Y-104662065D01*
X157100000Y-104826281D01*
X157100000Y-104993719D01*
X157067336Y-105157935D01*
X157003261Y-105312624D01*
X157003260Y-105312626D01*
X156910238Y-105451844D01*
X156791844Y-105570238D01*
X156652626Y-105663260D01*
X156652625Y-105663261D01*
X156652624Y-105663261D01*
X156497935Y-105727336D01*
X156333719Y-105760000D01*
X156166281Y-105760000D01*
X156002065Y-105727336D01*
X155847376Y-105663261D01*
X155847375Y-105663261D01*
X155847374Y-105663260D01*
X155708156Y-105570238D01*
X155589762Y-105451844D01*
X155496740Y-105312626D01*
X155496739Y-105312624D01*
X155432664Y-105157935D01*
X155400000Y-104993719D01*
X155400000Y-104826281D01*
X155432664Y-104662065D01*
X155496739Y-104507376D01*
X155496740Y-104507374D01*
X155589762Y-104368156D01*
X155708156Y-104249762D01*
X155847374Y-104156740D01*
X155847376Y-104156739D01*
X156002065Y-104092664D01*
X156166281Y-104060000D01*
X156333719Y-104060000D01*
X156497935Y-104092664D01*
G37*
G36*
X146563148Y-103862001D02*
G01*
X146578984Y-103866805D01*
X146593571Y-103874602D01*
X146606362Y-103885098D01*
X146616858Y-103897889D01*
X146624655Y-103912476D01*
X146629459Y-103928312D01*
X146631685Y-103950915D01*
X146631685Y-104408635D01*
X146629459Y-104431238D01*
X146624655Y-104447074D01*
X146616858Y-104461661D01*
X146606362Y-104474452D01*
X146593571Y-104484948D01*
X146578984Y-104492745D01*
X146563148Y-104497549D01*
X146540545Y-104499775D01*
X146132825Y-104499775D01*
X146110222Y-104497549D01*
X146094386Y-104492745D01*
X146079799Y-104484948D01*
X146067008Y-104474452D01*
X146056512Y-104461661D01*
X146048715Y-104447074D01*
X146043911Y-104431238D01*
X146041685Y-104408635D01*
X146041685Y-103950915D01*
X146043911Y-103928312D01*
X146048715Y-103912476D01*
X146056512Y-103897889D01*
X146067008Y-103885098D01*
X146079799Y-103874602D01*
X146094386Y-103866805D01*
X146110222Y-103862001D01*
X146132825Y-103859775D01*
X146540545Y-103859775D01*
X146563148Y-103862001D01*
G37*
G36*
X145593148Y-103862001D02*
G01*
X145608984Y-103866805D01*
X145623571Y-103874602D01*
X145636362Y-103885098D01*
X145646858Y-103897889D01*
X145654655Y-103912476D01*
X145659459Y-103928312D01*
X145661685Y-103950915D01*
X145661685Y-104408635D01*
X145659459Y-104431238D01*
X145654655Y-104447074D01*
X145646858Y-104461661D01*
X145636362Y-104474452D01*
X145623571Y-104484948D01*
X145608984Y-104492745D01*
X145593148Y-104497549D01*
X145570545Y-104499775D01*
X145162825Y-104499775D01*
X145140222Y-104497549D01*
X145124386Y-104492745D01*
X145109799Y-104484948D01*
X145097008Y-104474452D01*
X145086512Y-104461661D01*
X145078715Y-104447074D01*
X145073911Y-104431238D01*
X145071685Y-104408635D01*
X145071685Y-103950915D01*
X145073911Y-103928312D01*
X145078715Y-103912476D01*
X145086512Y-103897889D01*
X145097008Y-103885098D01*
X145109799Y-103874602D01*
X145124386Y-103866805D01*
X145140222Y-103862001D01*
X145162825Y-103859775D01*
X145570545Y-103859775D01*
X145593148Y-103862001D01*
G37*
G36*
X136068140Y-103862001D02*
G01*
X136083976Y-103866805D01*
X136098563Y-103874602D01*
X136111354Y-103885098D01*
X136121850Y-103897889D01*
X136129647Y-103912476D01*
X136134451Y-103928312D01*
X136136677Y-103950915D01*
X136136677Y-104408635D01*
X136134451Y-104431238D01*
X136129647Y-104447074D01*
X136121850Y-104461661D01*
X136111354Y-104474452D01*
X136098563Y-104484948D01*
X136083976Y-104492745D01*
X136068140Y-104497549D01*
X136045537Y-104499775D01*
X135637817Y-104499775D01*
X135615214Y-104497549D01*
X135599378Y-104492745D01*
X135584791Y-104484948D01*
X135572000Y-104474452D01*
X135561504Y-104461661D01*
X135553707Y-104447074D01*
X135548903Y-104431238D01*
X135546677Y-104408635D01*
X135546677Y-103950915D01*
X135548903Y-103928312D01*
X135553707Y-103912476D01*
X135561504Y-103897889D01*
X135572000Y-103885098D01*
X135584791Y-103874602D01*
X135599378Y-103866805D01*
X135615214Y-103862001D01*
X135637817Y-103859775D01*
X136045537Y-103859775D01*
X136068140Y-103862001D01*
G37*
G36*
X137038140Y-103862001D02*
G01*
X137053976Y-103866805D01*
X137068563Y-103874602D01*
X137081354Y-103885098D01*
X137091850Y-103897889D01*
X137099647Y-103912476D01*
X137104451Y-103928312D01*
X137106677Y-103950915D01*
X137106677Y-104408635D01*
X137104451Y-104431238D01*
X137099647Y-104447074D01*
X137091850Y-104461661D01*
X137081354Y-104474452D01*
X137068563Y-104484948D01*
X137053976Y-104492745D01*
X137038140Y-104497549D01*
X137015537Y-104499775D01*
X136607817Y-104499775D01*
X136585214Y-104497549D01*
X136569378Y-104492745D01*
X136554791Y-104484948D01*
X136542000Y-104474452D01*
X136531504Y-104461661D01*
X136523707Y-104447074D01*
X136518903Y-104431238D01*
X136516677Y-104408635D01*
X136516677Y-103950915D01*
X136518903Y-103928312D01*
X136523707Y-103912476D01*
X136531504Y-103897889D01*
X136542000Y-103885098D01*
X136554791Y-103874602D01*
X136569378Y-103866805D01*
X136585214Y-103862001D01*
X136607817Y-103859775D01*
X137015537Y-103859775D01*
X137038140Y-103862001D01*
G37*
G36*
X138364079Y-103887001D02*
G01*
X138379915Y-103891805D01*
X138394502Y-103899602D01*
X138407293Y-103910098D01*
X138417789Y-103922889D01*
X138425586Y-103937476D01*
X138430390Y-103953312D01*
X138432616Y-103975915D01*
X138432616Y-104383635D01*
X138430390Y-104406238D01*
X138425586Y-104422074D01*
X138417789Y-104436661D01*
X138407293Y-104449452D01*
X138394502Y-104459948D01*
X138379915Y-104467745D01*
X138364079Y-104472549D01*
X138341476Y-104474775D01*
X137883756Y-104474775D01*
X137861153Y-104472549D01*
X137845317Y-104467745D01*
X137830730Y-104459948D01*
X137817939Y-104449452D01*
X137807443Y-104436661D01*
X137799646Y-104422074D01*
X137794842Y-104406238D01*
X137792616Y-104383635D01*
X137792616Y-103975915D01*
X137794842Y-103953312D01*
X137799646Y-103937476D01*
X137807443Y-103922889D01*
X137817939Y-103910098D01*
X137830730Y-103899602D01*
X137845317Y-103891805D01*
X137861153Y-103887001D01*
X137883756Y-103884775D01*
X138341476Y-103884775D01*
X138364079Y-103887001D01*
G37*
G36*
X128447935Y-102202664D02*
G01*
X128602624Y-102266739D01*
X128602626Y-102266740D01*
X128741844Y-102359762D01*
X128860238Y-102478156D01*
X128953260Y-102617374D01*
X128953261Y-102617376D01*
X129017336Y-102772065D01*
X129050000Y-102936281D01*
X129050000Y-103103719D01*
X129017336Y-103267935D01*
X128968410Y-103386051D01*
X128953260Y-103422626D01*
X128860238Y-103561844D01*
X128741844Y-103680238D01*
X128602626Y-103773260D01*
X128602625Y-103773261D01*
X128602624Y-103773261D01*
X128447935Y-103837336D01*
X128283719Y-103870000D01*
X128116281Y-103870000D01*
X127952065Y-103837336D01*
X127797376Y-103773261D01*
X127797375Y-103773261D01*
X127797374Y-103773260D01*
X127658156Y-103680238D01*
X127539762Y-103561844D01*
X127446740Y-103422626D01*
X127431590Y-103386051D01*
X127382664Y-103267935D01*
X127350000Y-103103719D01*
X127350000Y-102936281D01*
X127382664Y-102772065D01*
X127446739Y-102617376D01*
X127446740Y-102617374D01*
X127539762Y-102478156D01*
X127658156Y-102359762D01*
X127797374Y-102266740D01*
X127797376Y-102266739D01*
X127952065Y-102202664D01*
X128116281Y-102170000D01*
X128283719Y-102170000D01*
X128447935Y-102202664D01*
G37*
G36*
X138364079Y-102917001D02*
G01*
X138379915Y-102921805D01*
X138394502Y-102929602D01*
X138407293Y-102940098D01*
X138417789Y-102952889D01*
X138425586Y-102967476D01*
X138430390Y-102983312D01*
X138432616Y-103005915D01*
X138432616Y-103413635D01*
X138430390Y-103436238D01*
X138425586Y-103452074D01*
X138417789Y-103466661D01*
X138407293Y-103479452D01*
X138394502Y-103489948D01*
X138379915Y-103497745D01*
X138364079Y-103502549D01*
X138341476Y-103504775D01*
X137883756Y-103504775D01*
X137861153Y-103502549D01*
X137845317Y-103497745D01*
X137830730Y-103489948D01*
X137817939Y-103479452D01*
X137807443Y-103466661D01*
X137799646Y-103452074D01*
X137794842Y-103436238D01*
X137792616Y-103413635D01*
X137792616Y-103005915D01*
X137794842Y-102983312D01*
X137799646Y-102967476D01*
X137807443Y-102952889D01*
X137817939Y-102940098D01*
X137830730Y-102929602D01*
X137845317Y-102921805D01*
X137861153Y-102917001D01*
X137883756Y-102914775D01*
X138341476Y-102914775D01*
X138364079Y-102917001D01*
G37*
G36*
X156497935Y-101552664D02*
G01*
X156652624Y-101616739D01*
X156652626Y-101616740D01*
X156791844Y-101709762D01*
X156910238Y-101828156D01*
X157003260Y-101967374D01*
X157003261Y-101967376D01*
X157067336Y-102122065D01*
X157100000Y-102286281D01*
X157100000Y-102453719D01*
X157067336Y-102617935D01*
X157003261Y-102772624D01*
X157003260Y-102772626D01*
X156910238Y-102911844D01*
X156791844Y-103030238D01*
X156652626Y-103123260D01*
X156652625Y-103123261D01*
X156652624Y-103123261D01*
X156497935Y-103187336D01*
X156333719Y-103220000D01*
X156166281Y-103220000D01*
X156002065Y-103187336D01*
X155847376Y-103123261D01*
X155847375Y-103123261D01*
X155847374Y-103123260D01*
X155708156Y-103030238D01*
X155589762Y-102911844D01*
X155496740Y-102772626D01*
X155496739Y-102772624D01*
X155432664Y-102617935D01*
X155400000Y-102453719D01*
X155400000Y-102286281D01*
X155432664Y-102122065D01*
X155496739Y-101967376D01*
X155496740Y-101967374D01*
X155589762Y-101828156D01*
X155708156Y-101709762D01*
X155847374Y-101616740D01*
X155847376Y-101616739D01*
X156002065Y-101552664D01*
X156166281Y-101520000D01*
X156333719Y-101520000D01*
X156497935Y-101552664D01*
G37*
G36*
X128447935Y-99662664D02*
G01*
X128602624Y-99726739D01*
X128602626Y-99726740D01*
X128741844Y-99819762D01*
X128860238Y-99938156D01*
X128953260Y-100077374D01*
X128953261Y-100077376D01*
X129017336Y-100232065D01*
X129050000Y-100396281D01*
X129050000Y-100563719D01*
X129017336Y-100727935D01*
X128953261Y-100882624D01*
X128953260Y-100882626D01*
X128860238Y-101021844D01*
X128741844Y-101140238D01*
X128602626Y-101233260D01*
X128602625Y-101233261D01*
X128602624Y-101233261D01*
X128447935Y-101297336D01*
X128283719Y-101330000D01*
X128116281Y-101330000D01*
X127952065Y-101297336D01*
X127797376Y-101233261D01*
X127797375Y-101233261D01*
X127797374Y-101233260D01*
X127658156Y-101140238D01*
X127539762Y-101021844D01*
X127446740Y-100882626D01*
X127446739Y-100882624D01*
X127382664Y-100727935D01*
X127350000Y-100563719D01*
X127350000Y-100396281D01*
X127382664Y-100232065D01*
X127446739Y-100077376D01*
X127446740Y-100077374D01*
X127539762Y-99938156D01*
X127658156Y-99819762D01*
X127797374Y-99726740D01*
X127797376Y-99726739D01*
X127952065Y-99662664D01*
X128116281Y-99630000D01*
X128283719Y-99630000D01*
X128447935Y-99662664D01*
G37*
G36*
X156497935Y-99012664D02*
G01*
X156652624Y-99076739D01*
X156652626Y-99076740D01*
X156791844Y-99169762D01*
X156910238Y-99288156D01*
X157003260Y-99427374D01*
X157003261Y-99427376D01*
X157067336Y-99582065D01*
X157100000Y-99746281D01*
X157100000Y-99913719D01*
X157067336Y-100077935D01*
X157003261Y-100232624D01*
X157003260Y-100232626D01*
X156910238Y-100371844D01*
X156791844Y-100490238D01*
X156652626Y-100583260D01*
X156652625Y-100583261D01*
X156652624Y-100583261D01*
X156497935Y-100647336D01*
X156333719Y-100680000D01*
X156166281Y-100680000D01*
X156002065Y-100647336D01*
X155847376Y-100583261D01*
X155847375Y-100583261D01*
X155847374Y-100583260D01*
X155708156Y-100490238D01*
X155589762Y-100371844D01*
X155496740Y-100232626D01*
X155496739Y-100232624D01*
X155432664Y-100077935D01*
X155400000Y-99913719D01*
X155400000Y-99746281D01*
X155432664Y-99582065D01*
X155496739Y-99427376D01*
X155496740Y-99427374D01*
X155589762Y-99288156D01*
X155708156Y-99169762D01*
X155847374Y-99076740D01*
X155847376Y-99076739D01*
X156002065Y-99012664D01*
X156166281Y-98980000D01*
X156333719Y-98980000D01*
X156497935Y-99012664D01*
G37*
G36*
X128447935Y-97122664D02*
G01*
X128602624Y-97186739D01*
X128602626Y-97186740D01*
X128741844Y-97279762D01*
X128860238Y-97398156D01*
X128953260Y-97537374D01*
X128953261Y-97537376D01*
X129017336Y-97692065D01*
X129050000Y-97856281D01*
X129050000Y-98023719D01*
X129017336Y-98187935D01*
X128953261Y-98342624D01*
X128953260Y-98342626D01*
X128860238Y-98481844D01*
X128741844Y-98600238D01*
X128602626Y-98693260D01*
X128602625Y-98693261D01*
X128602624Y-98693261D01*
X128447935Y-98757336D01*
X128283719Y-98790000D01*
X128116281Y-98790000D01*
X127952065Y-98757336D01*
X127797376Y-98693261D01*
X127797375Y-98693261D01*
X127797374Y-98693260D01*
X127658156Y-98600238D01*
X127539762Y-98481844D01*
X127446740Y-98342626D01*
X127446739Y-98342624D01*
X127382664Y-98187935D01*
X127350000Y-98023719D01*
X127350000Y-97856281D01*
X127382664Y-97692065D01*
X127446739Y-97537376D01*
X127446740Y-97537374D01*
X127539762Y-97398156D01*
X127658156Y-97279762D01*
X127797374Y-97186740D01*
X127797376Y-97186739D01*
X127952065Y-97122664D01*
X128116281Y-97090000D01*
X128283719Y-97090000D01*
X128447935Y-97122664D01*
G37*
G36*
X156497935Y-96472664D02*
G01*
X156652624Y-96536739D01*
X156652626Y-96536740D01*
X156791844Y-96629762D01*
X156910238Y-96748156D01*
X157003260Y-96887374D01*
X157003261Y-96887376D01*
X157067336Y-97042065D01*
X157100000Y-97206281D01*
X157100000Y-97373719D01*
X157067336Y-97537935D01*
X157003261Y-97692624D01*
X157003260Y-97692626D01*
X156910238Y-97831844D01*
X156791844Y-97950238D01*
X156652626Y-98043260D01*
X156652625Y-98043261D01*
X156652624Y-98043261D01*
X156497935Y-98107336D01*
X156333719Y-98140000D01*
X156166281Y-98140000D01*
X156002065Y-98107336D01*
X155847376Y-98043261D01*
X155847375Y-98043261D01*
X155847374Y-98043260D01*
X155708156Y-97950238D01*
X155589762Y-97831844D01*
X155496740Y-97692626D01*
X155496739Y-97692624D01*
X155432664Y-97537935D01*
X155400000Y-97373719D01*
X155400000Y-97206281D01*
X155432664Y-97042065D01*
X155496739Y-96887376D01*
X155496740Y-96887374D01*
X155589762Y-96748156D01*
X155708156Y-96629762D01*
X155847374Y-96536740D01*
X155847376Y-96536739D01*
X156002065Y-96472664D01*
X156166281Y-96440000D01*
X156333719Y-96440000D01*
X156497935Y-96472664D01*
G37*
G36*
X128447935Y-94582664D02*
G01*
X128602624Y-94646739D01*
X128602626Y-94646740D01*
X128741844Y-94739762D01*
X128860238Y-94858156D01*
X128953260Y-94997374D01*
X128953261Y-94997376D01*
X129017336Y-95152065D01*
X129050000Y-95316281D01*
X129050000Y-95483719D01*
X129017336Y-95647935D01*
X128953261Y-95802624D01*
X128953260Y-95802626D01*
X128860238Y-95941844D01*
X128741844Y-96060238D01*
X128602626Y-96153260D01*
X128602625Y-96153261D01*
X128602624Y-96153261D01*
X128447935Y-96217336D01*
X128283719Y-96250000D01*
X128116281Y-96250000D01*
X127952065Y-96217336D01*
X127797376Y-96153261D01*
X127797375Y-96153261D01*
X127797374Y-96153260D01*
X127658156Y-96060238D01*
X127539762Y-95941844D01*
X127446740Y-95802626D01*
X127446739Y-95802624D01*
X127382664Y-95647935D01*
X127350000Y-95483719D01*
X127350000Y-95316281D01*
X127382664Y-95152065D01*
X127446739Y-94997376D01*
X127446740Y-94997374D01*
X127539762Y-94858156D01*
X127658156Y-94739762D01*
X127797374Y-94646740D01*
X127797376Y-94646739D01*
X127952065Y-94582664D01*
X128116281Y-94550000D01*
X128283719Y-94550000D01*
X128447935Y-94582664D01*
G37*
G36*
X135600000Y-95600000D02*
G01*
X133900000Y-95600000D01*
X133900000Y-93900000D01*
X135600000Y-93900000D01*
X135600000Y-95600000D01*
G37*
G36*
X157100000Y-95600000D02*
G01*
X155400000Y-95600000D01*
X155400000Y-93900000D01*
X157100000Y-93900000D01*
X157100000Y-95600000D01*
G37*
G36*
X152777935Y-93932664D02*
G01*
X152932624Y-93996739D01*
X152932626Y-93996740D01*
X153071844Y-94089762D01*
X153190238Y-94208156D01*
X153283260Y-94347374D01*
X153283261Y-94347376D01*
X153347336Y-94502065D01*
X153380000Y-94666281D01*
X153380000Y-94833719D01*
X153347336Y-94997935D01*
X153283261Y-95152624D01*
X153283260Y-95152626D01*
X153190238Y-95291844D01*
X153071844Y-95410238D01*
X152932626Y-95503260D01*
X152932625Y-95503261D01*
X152932624Y-95503261D01*
X152777935Y-95567336D01*
X152613719Y-95600000D01*
X152446281Y-95600000D01*
X152282065Y-95567336D01*
X152127376Y-95503261D01*
X152127375Y-95503261D01*
X152127374Y-95503260D01*
X151988156Y-95410238D01*
X151869762Y-95291844D01*
X151776740Y-95152626D01*
X151776739Y-95152624D01*
X151712664Y-94997935D01*
X151680000Y-94833719D01*
X151680000Y-94666281D01*
X151712664Y-94502065D01*
X151776739Y-94347376D01*
X151776740Y-94347374D01*
X151869762Y-94208156D01*
X151988156Y-94089762D01*
X152127374Y-93996740D01*
X152127376Y-93996739D01*
X152282065Y-93932664D01*
X152446281Y-93900000D01*
X152613719Y-93900000D01*
X152777935Y-93932664D01*
G37*
G36*
X150237935Y-93932664D02*
G01*
X150392624Y-93996739D01*
X150392626Y-93996740D01*
X150531844Y-94089762D01*
X150650238Y-94208156D01*
X150743260Y-94347374D01*
X150743261Y-94347376D01*
X150807336Y-94502065D01*
X150840000Y-94666281D01*
X150840000Y-94833719D01*
X150807336Y-94997935D01*
X150743261Y-95152624D01*
X150743260Y-95152626D01*
X150650238Y-95291844D01*
X150531844Y-95410238D01*
X150392626Y-95503260D01*
X150392625Y-95503261D01*
X150392624Y-95503261D01*
X150237935Y-95567336D01*
X150073719Y-95600000D01*
X149906281Y-95600000D01*
X149742065Y-95567336D01*
X149587376Y-95503261D01*
X149587375Y-95503261D01*
X149587374Y-95503260D01*
X149448156Y-95410238D01*
X149329762Y-95291844D01*
X149236740Y-95152626D01*
X149236739Y-95152624D01*
X149172664Y-94997935D01*
X149140000Y-94833719D01*
X149140000Y-94666281D01*
X149172664Y-94502065D01*
X149236739Y-94347376D01*
X149236740Y-94347374D01*
X149329762Y-94208156D01*
X149448156Y-94089762D01*
X149587374Y-93996740D01*
X149587376Y-93996739D01*
X149742065Y-93932664D01*
X149906281Y-93900000D01*
X150073719Y-93900000D01*
X150237935Y-93932664D01*
G37*
G36*
X147697935Y-93932664D02*
G01*
X147852624Y-93996739D01*
X147852626Y-93996740D01*
X147991844Y-94089762D01*
X148110238Y-94208156D01*
X148203260Y-94347374D01*
X148203261Y-94347376D01*
X148267336Y-94502065D01*
X148300000Y-94666281D01*
X148300000Y-94833719D01*
X148267336Y-94997935D01*
X148203261Y-95152624D01*
X148203260Y-95152626D01*
X148110238Y-95291844D01*
X147991844Y-95410238D01*
X147852626Y-95503260D01*
X147852625Y-95503261D01*
X147852624Y-95503261D01*
X147697935Y-95567336D01*
X147533719Y-95600000D01*
X147366281Y-95600000D01*
X147202065Y-95567336D01*
X147047376Y-95503261D01*
X147047375Y-95503261D01*
X147047374Y-95503260D01*
X146908156Y-95410238D01*
X146789762Y-95291844D01*
X146696740Y-95152626D01*
X146696739Y-95152624D01*
X146632664Y-94997935D01*
X146600000Y-94833719D01*
X146600000Y-94666281D01*
X146632664Y-94502065D01*
X146696739Y-94347376D01*
X146696740Y-94347374D01*
X146789762Y-94208156D01*
X146908156Y-94089762D01*
X147047374Y-93996740D01*
X147047376Y-93996739D01*
X147202065Y-93932664D01*
X147366281Y-93900000D01*
X147533719Y-93900000D01*
X147697935Y-93932664D01*
G37*
G36*
X145157935Y-93932664D02*
G01*
X145312624Y-93996739D01*
X145312626Y-93996740D01*
X145451844Y-94089762D01*
X145570238Y-94208156D01*
X145663260Y-94347374D01*
X145663261Y-94347376D01*
X145727336Y-94502065D01*
X145760000Y-94666281D01*
X145760000Y-94833719D01*
X145727336Y-94997935D01*
X145663261Y-95152624D01*
X145663260Y-95152626D01*
X145570238Y-95291844D01*
X145451844Y-95410238D01*
X145312626Y-95503260D01*
X145312625Y-95503261D01*
X145312624Y-95503261D01*
X145157935Y-95567336D01*
X144993719Y-95600000D01*
X144826281Y-95600000D01*
X144662065Y-95567336D01*
X144507376Y-95503261D01*
X144507375Y-95503261D01*
X144507374Y-95503260D01*
X144368156Y-95410238D01*
X144249762Y-95291844D01*
X144156740Y-95152626D01*
X144156739Y-95152624D01*
X144092664Y-94997935D01*
X144060000Y-94833719D01*
X144060000Y-94666281D01*
X144092664Y-94502065D01*
X144156739Y-94347376D01*
X144156740Y-94347374D01*
X144249762Y-94208156D01*
X144368156Y-94089762D01*
X144507374Y-93996740D01*
X144507376Y-93996739D01*
X144662065Y-93932664D01*
X144826281Y-93900000D01*
X144993719Y-93900000D01*
X145157935Y-93932664D01*
G37*
G36*
X142617935Y-93932664D02*
G01*
X142772624Y-93996739D01*
X142772626Y-93996740D01*
X142911844Y-94089762D01*
X143030238Y-94208156D01*
X143123260Y-94347374D01*
X143123261Y-94347376D01*
X143187336Y-94502065D01*
X143220000Y-94666281D01*
X143220000Y-94833719D01*
X143187336Y-94997935D01*
X143123261Y-95152624D01*
X143123260Y-95152626D01*
X143030238Y-95291844D01*
X142911844Y-95410238D01*
X142772626Y-95503260D01*
X142772625Y-95503261D01*
X142772624Y-95503261D01*
X142617935Y-95567336D01*
X142453719Y-95600000D01*
X142286281Y-95600000D01*
X142122065Y-95567336D01*
X141967376Y-95503261D01*
X141967375Y-95503261D01*
X141967374Y-95503260D01*
X141828156Y-95410238D01*
X141709762Y-95291844D01*
X141616740Y-95152626D01*
X141616739Y-95152624D01*
X141552664Y-94997935D01*
X141520000Y-94833719D01*
X141520000Y-94666281D01*
X141552664Y-94502065D01*
X141616739Y-94347376D01*
X141616740Y-94347374D01*
X141709762Y-94208156D01*
X141828156Y-94089762D01*
X141967374Y-93996740D01*
X141967376Y-93996739D01*
X142122065Y-93932664D01*
X142286281Y-93900000D01*
X142453719Y-93900000D01*
X142617935Y-93932664D01*
G37*
G36*
X140077935Y-93932664D02*
G01*
X140232624Y-93996739D01*
X140232626Y-93996740D01*
X140371844Y-94089762D01*
X140490238Y-94208156D01*
X140583260Y-94347374D01*
X140583261Y-94347376D01*
X140647336Y-94502065D01*
X140680000Y-94666281D01*
X140680000Y-94833719D01*
X140647336Y-94997935D01*
X140583261Y-95152624D01*
X140583260Y-95152626D01*
X140490238Y-95291844D01*
X140371844Y-95410238D01*
X140232626Y-95503260D01*
X140232625Y-95503261D01*
X140232624Y-95503261D01*
X140077935Y-95567336D01*
X139913719Y-95600000D01*
X139746281Y-95600000D01*
X139582065Y-95567336D01*
X139427376Y-95503261D01*
X139427375Y-95503261D01*
X139427374Y-95503260D01*
X139288156Y-95410238D01*
X139169762Y-95291844D01*
X139076740Y-95152626D01*
X139076739Y-95152624D01*
X139012664Y-94997935D01*
X138980000Y-94833719D01*
X138980000Y-94666281D01*
X139012664Y-94502065D01*
X139076739Y-94347376D01*
X139076740Y-94347374D01*
X139169762Y-94208156D01*
X139288156Y-94089762D01*
X139427374Y-93996740D01*
X139427376Y-93996739D01*
X139582065Y-93932664D01*
X139746281Y-93900000D01*
X139913719Y-93900000D01*
X140077935Y-93932664D01*
G37*
G36*
X137537935Y-93932664D02*
G01*
X137692624Y-93996739D01*
X137692626Y-93996740D01*
X137831844Y-94089762D01*
X137950238Y-94208156D01*
X138043260Y-94347374D01*
X138043261Y-94347376D01*
X138107336Y-94502065D01*
X138140000Y-94666281D01*
X138140000Y-94833719D01*
X138107336Y-94997935D01*
X138043261Y-95152624D01*
X138043260Y-95152626D01*
X137950238Y-95291844D01*
X137831844Y-95410238D01*
X137692626Y-95503260D01*
X137692625Y-95503261D01*
X137692624Y-95503261D01*
X137537935Y-95567336D01*
X137373719Y-95600000D01*
X137206281Y-95600000D01*
X137042065Y-95567336D01*
X136887376Y-95503261D01*
X136887375Y-95503261D01*
X136887374Y-95503260D01*
X136748156Y-95410238D01*
X136629762Y-95291844D01*
X136536740Y-95152626D01*
X136536739Y-95152624D01*
X136472664Y-94997935D01*
X136440000Y-94833719D01*
X136440000Y-94666281D01*
X136472664Y-94502065D01*
X136536739Y-94347376D01*
X136536740Y-94347374D01*
X136629762Y-94208156D01*
X136748156Y-94089762D01*
X136887374Y-93996740D01*
X136887376Y-93996739D01*
X137042065Y-93932664D01*
X137206281Y-93900000D01*
X137373719Y-93900000D01*
X137537935Y-93932664D01*
G37*
M02*
