G04 #@! TF.GenerationSoftware,KiCad,Pcbnew,(5.1.5)-3*
G04 #@! TF.CreationDate,2020-07-03T19:02:18-05:00*
G04 #@! TF.ProjectId,PikateaTPM,50696b61-7465-4615-9450-4d2e6b696361,rev?*
G04 #@! TF.SameCoordinates,Original*
G04 #@! TF.FileFunction,Legend,Top*
G04 #@! TF.FilePolarity,Positive*
%FSLAX46Y46*%
G04 Gerber Fmt 4.6, Leading zero omitted, Abs format (unit mm)*
G04 Created by KiCad (PCBNEW (5.1.5)-3) date 2020-07-03 19:02:18*
%MOMM*%
%LPD*%
G04 APERTURE LIST*
%ADD10C,0.120000*%
%ADD11C,0.100000*%
%ADD12C,0.150000*%
G04 APERTURE END LIST*
D10*
X126870000Y-94070000D02*
X128200000Y-94070000D01*
X126870000Y-95400000D02*
X126870000Y-94070000D01*
X126870000Y-96670000D02*
X129530000Y-96670000D01*
X129530000Y-96670000D02*
X129530000Y-106890000D01*
X126870000Y-96670000D02*
X126870000Y-106890000D01*
X126870000Y-106890000D02*
X129530000Y-106890000D01*
X139295584Y-122032843D02*
X136467157Y-119204416D01*
X137032843Y-124295584D02*
X139295584Y-122032843D01*
X134665000Y-109040000D02*
X133940000Y-109040000D01*
X141160000Y-116260000D02*
X141160000Y-115535000D01*
X140435000Y-116260000D02*
X141160000Y-116260000D01*
X133940000Y-116260000D02*
X133940000Y-115535000D01*
X134665000Y-116260000D02*
X133940000Y-116260000D01*
X141160000Y-109040000D02*
X141160000Y-109765000D01*
X140435000Y-109040000D02*
X141160000Y-109040000D01*
X154920000Y-93420000D02*
X156250000Y-93420000D01*
X154920000Y-94750000D02*
X154920000Y-93420000D01*
X154920000Y-96020000D02*
X157580000Y-96020000D01*
X157580000Y-96020000D02*
X157580000Y-131640000D01*
X154920000Y-96020000D02*
X154920000Y-131640000D01*
X154920000Y-131640000D02*
X157580000Y-131640000D01*
X116650000Y-132155000D02*
X116650000Y-129615000D01*
X116650000Y-132155000D02*
X119190000Y-132155000D01*
X116900000Y-131905000D02*
X116900000Y-122555000D01*
X132680000Y-131905000D02*
X116900000Y-131905000D01*
X132680000Y-122555000D02*
X132680000Y-131905000D01*
X116900000Y-122555000D02*
X132680000Y-122555000D01*
X133420000Y-96080000D02*
X133420000Y-94750000D01*
X134750000Y-96080000D02*
X133420000Y-96080000D01*
X136020000Y-96080000D02*
X136020000Y-93420000D01*
X136020000Y-93420000D02*
X153860000Y-93420000D01*
X136020000Y-96080000D02*
X153860000Y-96080000D01*
X153860000Y-96080000D02*
X153860000Y-93420000D01*
X133420000Y-131580000D02*
X133420000Y-130250000D01*
X134750000Y-131580000D02*
X133420000Y-131580000D01*
X136020000Y-131580000D02*
X136020000Y-128920000D01*
X136020000Y-128920000D02*
X153860000Y-128920000D01*
X136020000Y-131580000D02*
X153860000Y-131580000D01*
X153860000Y-131580000D02*
X153860000Y-128920000D01*
D11*
X116800000Y-116700000D02*
X119100000Y-116700000D01*
X116800000Y-108800000D02*
X116800000Y-116700000D01*
X119100000Y-108800000D02*
X116800000Y-108800000D01*
X120888539Y-110685524D02*
X120888539Y-109685524D01*
X121950000Y-114800000D02*
X120900000Y-114800000D01*
X120900000Y-114800000D02*
X120900000Y-115800000D01*
D12*
X127866666Y-92522380D02*
X127866666Y-93236666D01*
X127819047Y-93379523D01*
X127723809Y-93474761D01*
X127580952Y-93522380D01*
X127485714Y-93522380D01*
X128771428Y-92855714D02*
X128771428Y-93522380D01*
X128533333Y-92474761D02*
X128295238Y-93189047D01*
X128914285Y-93189047D01*
X134832393Y-122522767D02*
X134596691Y-123701278D01*
X135303797Y-122994171D02*
X134125286Y-123229873D01*
X135236454Y-124341041D02*
X134832393Y-123936980D01*
X135034423Y-124139011D02*
X135741530Y-123431904D01*
X135573171Y-123465576D01*
X135438484Y-123465576D01*
X135337469Y-123431904D01*
X136788095Y-107282380D02*
X136788095Y-108091904D01*
X136835714Y-108187142D01*
X136883333Y-108234761D01*
X136978571Y-108282380D01*
X137169047Y-108282380D01*
X137264285Y-108234761D01*
X137311904Y-108187142D01*
X137359523Y-108091904D01*
X137359523Y-107282380D01*
X138359523Y-108282380D02*
X137788095Y-108282380D01*
X138073809Y-108282380D02*
X138073809Y-107282380D01*
X137978571Y-107425238D01*
X137883333Y-107520476D01*
X137788095Y-107568095D01*
X132652380Y-106766666D02*
X132176190Y-107100000D01*
X132652380Y-107338095D02*
X131652380Y-107338095D01*
X131652380Y-106957142D01*
X131700000Y-106861904D01*
X131747619Y-106814285D01*
X131842857Y-106766666D01*
X131985714Y-106766666D01*
X132080952Y-106814285D01*
X132128571Y-106861904D01*
X132176190Y-106957142D01*
X132176190Y-107338095D01*
X131652380Y-105909523D02*
X131652380Y-106100000D01*
X131700000Y-106195238D01*
X131747619Y-106242857D01*
X131890476Y-106338095D01*
X132080952Y-106385714D01*
X132461904Y-106385714D01*
X132557142Y-106338095D01*
X132604761Y-106290476D01*
X132652380Y-106195238D01*
X132652380Y-106004761D01*
X132604761Y-105909523D01*
X132557142Y-105861904D01*
X132461904Y-105814285D01*
X132223809Y-105814285D01*
X132128571Y-105861904D01*
X132080952Y-105909523D01*
X132033333Y-106004761D01*
X132033333Y-106195238D01*
X132080952Y-106290476D01*
X132128571Y-106338095D01*
X132223809Y-106385714D01*
X127033333Y-109652380D02*
X126700000Y-109176190D01*
X126461904Y-109652380D02*
X126461904Y-108652380D01*
X126842857Y-108652380D01*
X126938095Y-108700000D01*
X126985714Y-108747619D01*
X127033333Y-108842857D01*
X127033333Y-108985714D01*
X126985714Y-109080952D01*
X126938095Y-109128571D01*
X126842857Y-109176190D01*
X126461904Y-109176190D01*
X127938095Y-108652380D02*
X127461904Y-108652380D01*
X127414285Y-109128571D01*
X127461904Y-109080952D01*
X127557142Y-109033333D01*
X127795238Y-109033333D01*
X127890476Y-109080952D01*
X127938095Y-109128571D01*
X127985714Y-109223809D01*
X127985714Y-109461904D01*
X127938095Y-109557142D01*
X127890476Y-109604761D01*
X127795238Y-109652380D01*
X127557142Y-109652380D01*
X127461904Y-109604761D01*
X127414285Y-109557142D01*
X124633333Y-111052380D02*
X124300000Y-110576190D01*
X124061904Y-111052380D02*
X124061904Y-110052380D01*
X124442857Y-110052380D01*
X124538095Y-110100000D01*
X124585714Y-110147619D01*
X124633333Y-110242857D01*
X124633333Y-110385714D01*
X124585714Y-110480952D01*
X124538095Y-110528571D01*
X124442857Y-110576190D01*
X124061904Y-110576190D01*
X125490476Y-110385714D02*
X125490476Y-111052380D01*
X125252380Y-110004761D02*
X125014285Y-110719047D01*
X125633333Y-110719047D01*
X134633333Y-126467380D02*
X134300000Y-125991190D01*
X134061904Y-126467380D02*
X134061904Y-125467380D01*
X134442857Y-125467380D01*
X134538095Y-125515000D01*
X134585714Y-125562619D01*
X134633333Y-125657857D01*
X134633333Y-125800714D01*
X134585714Y-125895952D01*
X134538095Y-125943571D01*
X134442857Y-125991190D01*
X134061904Y-125991190D01*
X134966666Y-125467380D02*
X135585714Y-125467380D01*
X135252380Y-125848333D01*
X135395238Y-125848333D01*
X135490476Y-125895952D01*
X135538095Y-125943571D01*
X135585714Y-126038809D01*
X135585714Y-126276904D01*
X135538095Y-126372142D01*
X135490476Y-126419761D01*
X135395238Y-126467380D01*
X135109523Y-126467380D01*
X135014285Y-126419761D01*
X134966666Y-126372142D01*
X155916666Y-91872380D02*
X155916666Y-92586666D01*
X155869047Y-92729523D01*
X155773809Y-92824761D01*
X155630952Y-92872380D01*
X155535714Y-92872380D01*
X156297619Y-91872380D02*
X156964285Y-91872380D01*
X156535714Y-92872380D01*
X115098380Y-127563333D02*
X115812666Y-127563333D01*
X115955523Y-127610952D01*
X116050761Y-127706190D01*
X116098380Y-127849047D01*
X116098380Y-127944285D01*
X115098380Y-126658571D02*
X115098380Y-126849047D01*
X115146000Y-126944285D01*
X115193619Y-126991904D01*
X115336476Y-127087142D01*
X115526952Y-127134761D01*
X115907904Y-127134761D01*
X116003142Y-127087142D01*
X116050761Y-127039523D01*
X116098380Y-126944285D01*
X116098380Y-126753809D01*
X116050761Y-126658571D01*
X116003142Y-126610952D01*
X115907904Y-126563333D01*
X115669809Y-126563333D01*
X115574571Y-126610952D01*
X115526952Y-126658571D01*
X115479333Y-126753809D01*
X115479333Y-126944285D01*
X115526952Y-127039523D01*
X115574571Y-127087142D01*
X115669809Y-127134761D01*
X131872380Y-95083333D02*
X132586666Y-95083333D01*
X132729523Y-95130952D01*
X132824761Y-95226190D01*
X132872380Y-95369047D01*
X132872380Y-95464285D01*
X131872380Y-94702380D02*
X131872380Y-94083333D01*
X132253333Y-94416666D01*
X132253333Y-94273809D01*
X132300952Y-94178571D01*
X132348571Y-94130952D01*
X132443809Y-94083333D01*
X132681904Y-94083333D01*
X132777142Y-94130952D01*
X132824761Y-94178571D01*
X132872380Y-94273809D01*
X132872380Y-94559523D01*
X132824761Y-94654761D01*
X132777142Y-94702380D01*
X131872380Y-130583333D02*
X132586666Y-130583333D01*
X132729523Y-130630952D01*
X132824761Y-130726190D01*
X132872380Y-130869047D01*
X132872380Y-130964285D01*
X131967619Y-130154761D02*
X131920000Y-130107142D01*
X131872380Y-130011904D01*
X131872380Y-129773809D01*
X131920000Y-129678571D01*
X131967619Y-129630952D01*
X132062857Y-129583333D01*
X132158095Y-129583333D01*
X132300952Y-129630952D01*
X132872380Y-130202380D01*
X132872380Y-129583333D01*
X121382380Y-108693333D02*
X122096666Y-108693333D01*
X122239523Y-108740952D01*
X122334761Y-108836190D01*
X122382380Y-108979047D01*
X122382380Y-109074285D01*
X122382380Y-107693333D02*
X122382380Y-108264761D01*
X122382380Y-107979047D02*
X121382380Y-107979047D01*
X121525238Y-108074285D01*
X121620476Y-108169523D01*
X121668095Y-108264761D01*
X136957142Y-104357142D02*
X136909523Y-104404761D01*
X136766666Y-104452380D01*
X136671428Y-104452380D01*
X136528571Y-104404761D01*
X136433333Y-104309523D01*
X136385714Y-104214285D01*
X136338095Y-104023809D01*
X136338095Y-103880952D01*
X136385714Y-103690476D01*
X136433333Y-103595238D01*
X136528571Y-103500000D01*
X136671428Y-103452380D01*
X136766666Y-103452380D01*
X136909523Y-103500000D01*
X136957142Y-103547619D01*
X137909523Y-104452380D02*
X137338095Y-104452380D01*
X137623809Y-104452380D02*
X137623809Y-103452380D01*
X137528571Y-103595238D01*
X137433333Y-103690476D01*
X137338095Y-103738095D01*
X138528571Y-103452380D02*
X138623809Y-103452380D01*
X138719047Y-103500000D01*
X138766666Y-103547619D01*
X138814285Y-103642857D01*
X138861904Y-103833333D01*
X138861904Y-104071428D01*
X138814285Y-104261904D01*
X138766666Y-104357142D01*
X138719047Y-104404761D01*
X138623809Y-104452380D01*
X138528571Y-104452380D01*
X138433333Y-104404761D01*
X138385714Y-104357142D01*
X138338095Y-104261904D01*
X138290476Y-104071428D01*
X138290476Y-103833333D01*
X138338095Y-103642857D01*
X138385714Y-103547619D01*
X138433333Y-103500000D01*
X138528571Y-103452380D01*
X130633333Y-111757142D02*
X130585714Y-111804761D01*
X130442857Y-111852380D01*
X130347619Y-111852380D01*
X130204761Y-111804761D01*
X130109523Y-111709523D01*
X130061904Y-111614285D01*
X130014285Y-111423809D01*
X130014285Y-111280952D01*
X130061904Y-111090476D01*
X130109523Y-110995238D01*
X130204761Y-110900000D01*
X130347619Y-110852380D01*
X130442857Y-110852380D01*
X130585714Y-110900000D01*
X130633333Y-110947619D01*
X131109523Y-111852380D02*
X131300000Y-111852380D01*
X131395238Y-111804761D01*
X131442857Y-111757142D01*
X131538095Y-111614285D01*
X131585714Y-111423809D01*
X131585714Y-111042857D01*
X131538095Y-110947619D01*
X131490476Y-110900000D01*
X131395238Y-110852380D01*
X131204761Y-110852380D01*
X131109523Y-110900000D01*
X131061904Y-110947619D01*
X131014285Y-111042857D01*
X131014285Y-111280952D01*
X131061904Y-111376190D01*
X131109523Y-111423809D01*
X131204761Y-111471428D01*
X131395238Y-111471428D01*
X131490476Y-111423809D01*
X131538095Y-111376190D01*
X131585714Y-111280952D01*
X132348333Y-122527142D02*
X132300714Y-122574761D01*
X132157857Y-122622380D01*
X132062619Y-122622380D01*
X131919761Y-122574761D01*
X131824523Y-122479523D01*
X131776904Y-122384285D01*
X131729285Y-122193809D01*
X131729285Y-122050952D01*
X131776904Y-121860476D01*
X131824523Y-121765238D01*
X131919761Y-121670000D01*
X132062619Y-121622380D01*
X132157857Y-121622380D01*
X132300714Y-121670000D01*
X132348333Y-121717619D01*
X132919761Y-122050952D02*
X132824523Y-122003333D01*
X132776904Y-121955714D01*
X132729285Y-121860476D01*
X132729285Y-121812857D01*
X132776904Y-121717619D01*
X132824523Y-121670000D01*
X132919761Y-121622380D01*
X133110238Y-121622380D01*
X133205476Y-121670000D01*
X133253095Y-121717619D01*
X133300714Y-121812857D01*
X133300714Y-121860476D01*
X133253095Y-121955714D01*
X133205476Y-122003333D01*
X133110238Y-122050952D01*
X132919761Y-122050952D01*
X132824523Y-122098571D01*
X132776904Y-122146190D01*
X132729285Y-122241428D01*
X132729285Y-122431904D01*
X132776904Y-122527142D01*
X132824523Y-122574761D01*
X132919761Y-122622380D01*
X133110238Y-122622380D01*
X133205476Y-122574761D01*
X133253095Y-122527142D01*
X133300714Y-122431904D01*
X133300714Y-122241428D01*
X133253095Y-122146190D01*
X133205476Y-122098571D01*
X133110238Y-122050952D01*
X140818333Y-120757142D02*
X140770714Y-120804761D01*
X140627857Y-120852380D01*
X140532619Y-120852380D01*
X140389761Y-120804761D01*
X140294523Y-120709523D01*
X140246904Y-120614285D01*
X140199285Y-120423809D01*
X140199285Y-120280952D01*
X140246904Y-120090476D01*
X140294523Y-119995238D01*
X140389761Y-119900000D01*
X140532619Y-119852380D01*
X140627857Y-119852380D01*
X140770714Y-119900000D01*
X140818333Y-119947619D01*
X141151666Y-119852380D02*
X141818333Y-119852380D01*
X141389761Y-120852380D01*
X124433333Y-115757142D02*
X124385714Y-115804761D01*
X124242857Y-115852380D01*
X124147619Y-115852380D01*
X124004761Y-115804761D01*
X123909523Y-115709523D01*
X123861904Y-115614285D01*
X123814285Y-115423809D01*
X123814285Y-115280952D01*
X123861904Y-115090476D01*
X123909523Y-114995238D01*
X124004761Y-114900000D01*
X124147619Y-114852380D01*
X124242857Y-114852380D01*
X124385714Y-114900000D01*
X124433333Y-114947619D01*
X125290476Y-114852380D02*
X125100000Y-114852380D01*
X125004761Y-114900000D01*
X124957142Y-114947619D01*
X124861904Y-115090476D01*
X124814285Y-115280952D01*
X124814285Y-115661904D01*
X124861904Y-115757142D01*
X124909523Y-115804761D01*
X125004761Y-115852380D01*
X125195238Y-115852380D01*
X125290476Y-115804761D01*
X125338095Y-115757142D01*
X125385714Y-115661904D01*
X125385714Y-115423809D01*
X125338095Y-115328571D01*
X125290476Y-115280952D01*
X125195238Y-115233333D01*
X125004761Y-115233333D01*
X124909523Y-115280952D01*
X124861904Y-115328571D01*
X124814285Y-115423809D01*
X130357142Y-106766666D02*
X130404761Y-106814285D01*
X130452380Y-106957142D01*
X130452380Y-107052380D01*
X130404761Y-107195238D01*
X130309523Y-107290476D01*
X130214285Y-107338095D01*
X130023809Y-107385714D01*
X129880952Y-107385714D01*
X129690476Y-107338095D01*
X129595238Y-107290476D01*
X129500000Y-107195238D01*
X129452380Y-107052380D01*
X129452380Y-106957142D01*
X129500000Y-106814285D01*
X129547619Y-106766666D01*
X129452380Y-105861904D02*
X129452380Y-106338095D01*
X129928571Y-106385714D01*
X129880952Y-106338095D01*
X129833333Y-106242857D01*
X129833333Y-106004761D01*
X129880952Y-105909523D01*
X129928571Y-105861904D01*
X130023809Y-105814285D01*
X130261904Y-105814285D01*
X130357142Y-105861904D01*
X130404761Y-105909523D01*
X130452380Y-106004761D01*
X130452380Y-106242857D01*
X130404761Y-106338095D01*
X130357142Y-106385714D01*
X129568333Y-118527142D02*
X129520714Y-118574761D01*
X129377857Y-118622380D01*
X129282619Y-118622380D01*
X129139761Y-118574761D01*
X129044523Y-118479523D01*
X128996904Y-118384285D01*
X128949285Y-118193809D01*
X128949285Y-118050952D01*
X128996904Y-117860476D01*
X129044523Y-117765238D01*
X129139761Y-117670000D01*
X129282619Y-117622380D01*
X129377857Y-117622380D01*
X129520714Y-117670000D01*
X129568333Y-117717619D01*
X130425476Y-117955714D02*
X130425476Y-118622380D01*
X130187380Y-117574761D02*
X129949285Y-118289047D01*
X130568333Y-118289047D01*
X129598333Y-116777142D02*
X129550714Y-116824761D01*
X129407857Y-116872380D01*
X129312619Y-116872380D01*
X129169761Y-116824761D01*
X129074523Y-116729523D01*
X129026904Y-116634285D01*
X128979285Y-116443809D01*
X128979285Y-116300952D01*
X129026904Y-116110476D01*
X129074523Y-116015238D01*
X129169761Y-115920000D01*
X129312619Y-115872380D01*
X129407857Y-115872380D01*
X129550714Y-115920000D01*
X129598333Y-115967619D01*
X129931666Y-115872380D02*
X130550714Y-115872380D01*
X130217380Y-116253333D01*
X130360238Y-116253333D01*
X130455476Y-116300952D01*
X130503095Y-116348571D01*
X130550714Y-116443809D01*
X130550714Y-116681904D01*
X130503095Y-116777142D01*
X130455476Y-116824761D01*
X130360238Y-116872380D01*
X130074523Y-116872380D01*
X129979285Y-116824761D01*
X129931666Y-116777142D01*
X129598333Y-122027142D02*
X129550714Y-122074761D01*
X129407857Y-122122380D01*
X129312619Y-122122380D01*
X129169761Y-122074761D01*
X129074523Y-121979523D01*
X129026904Y-121884285D01*
X128979285Y-121693809D01*
X128979285Y-121550952D01*
X129026904Y-121360476D01*
X129074523Y-121265238D01*
X129169761Y-121170000D01*
X129312619Y-121122380D01*
X129407857Y-121122380D01*
X129550714Y-121170000D01*
X129598333Y-121217619D01*
X129979285Y-121217619D02*
X130026904Y-121170000D01*
X130122142Y-121122380D01*
X130360238Y-121122380D01*
X130455476Y-121170000D01*
X130503095Y-121217619D01*
X130550714Y-121312857D01*
X130550714Y-121408095D01*
X130503095Y-121550952D01*
X129931666Y-122122380D01*
X130550714Y-122122380D01*
X129598333Y-120277142D02*
X129550714Y-120324761D01*
X129407857Y-120372380D01*
X129312619Y-120372380D01*
X129169761Y-120324761D01*
X129074523Y-120229523D01*
X129026904Y-120134285D01*
X128979285Y-119943809D01*
X128979285Y-119800952D01*
X129026904Y-119610476D01*
X129074523Y-119515238D01*
X129169761Y-119420000D01*
X129312619Y-119372380D01*
X129407857Y-119372380D01*
X129550714Y-119420000D01*
X129598333Y-119467619D01*
X130550714Y-120372380D02*
X129979285Y-120372380D01*
X130265000Y-120372380D02*
X130265000Y-119372380D01*
X130169761Y-119515238D01*
X130074523Y-119610476D01*
X129979285Y-119658095D01*
M02*
