G04 #@! TF.GenerationSoftware,KiCad,Pcbnew,(6.0.1)*
G04 #@! TF.CreationDate,2022-02-15T16:57:21-06:00*
G04 #@! TF.ProjectId,1u Hand Wire Helpers,31752048-616e-4642-9057-697265204865,rev?*
G04 #@! TF.SameCoordinates,Original*
G04 #@! TF.FileFunction,Copper,L1,Top*
G04 #@! TF.FilePolarity,Positive*
%FSLAX46Y46*%
G04 Gerber Fmt 4.6, Leading zero omitted, Abs format (unit mm)*
G04 Created by KiCad (PCBNEW (6.0.1)) date 2022-02-15 16:57:21*
%MOMM*%
%LPD*%
G01*
G04 APERTURE LIST*
G04 #@! TA.AperFunction,ComponentPad*
%ADD10C,1.700000*%
G04 #@! TD*
G04 #@! TA.AperFunction,ComponentPad*
%ADD11C,2.200000*%
G04 #@! TD*
G04 #@! TA.AperFunction,Conductor*
%ADD12C,0.250000*%
G04 #@! TD*
G04 APERTURE END LIST*
D10*
X140298000Y-90334000D03*
X152998000Y-90234000D03*
X145398000Y-89434000D03*
X145398000Y-102834000D03*
D11*
X149479000Y-101219000D03*
X143129000Y-98679000D03*
D12*
X145415000Y-94221998D02*
X145415000Y-89451000D01*
X145415000Y-102817000D02*
X145398000Y-102834000D01*
X143129000Y-96507998D02*
X145415000Y-94221998D01*
X143129000Y-98679000D02*
X143129000Y-96507998D01*
X145415000Y-100965000D02*
X145415000Y-102817000D01*
X145415000Y-89451000D02*
X145398000Y-89434000D01*
X143129000Y-98679000D02*
X145415000Y-100965000D01*
G04 #@! TA.AperFunction,NonConductor*
G36*
X152202472Y-88920002D02*
G01*
X152248965Y-88973658D01*
X152259069Y-89043932D01*
X152229575Y-89108512D01*
X152210004Y-89126760D01*
X152097326Y-89211361D01*
X152092965Y-89214635D01*
X151938629Y-89376138D01*
X151812743Y-89560680D01*
X151718688Y-89763305D01*
X151658989Y-89978570D01*
X151635251Y-90200695D01*
X151635548Y-90205848D01*
X151635548Y-90205851D01*
X151642744Y-90330646D01*
X151648110Y-90423715D01*
X151649247Y-90428761D01*
X151649248Y-90428767D01*
X151660382Y-90478171D01*
X151697222Y-90641639D01*
X151758673Y-90792976D01*
X151776738Y-90837464D01*
X151781266Y-90848616D01*
X151814888Y-90903482D01*
X151892230Y-91029693D01*
X151897987Y-91039088D01*
X151901367Y-91042990D01*
X151912352Y-91055671D01*
X152044250Y-91207938D01*
X152216126Y-91350632D01*
X152409000Y-91463338D01*
X152617692Y-91543030D01*
X152622760Y-91544061D01*
X152622763Y-91544062D01*
X152717508Y-91563338D01*
X152836597Y-91587567D01*
X152841772Y-91587757D01*
X152841774Y-91587757D01*
X153054673Y-91595564D01*
X153054677Y-91595564D01*
X153059837Y-91595753D01*
X153064957Y-91595097D01*
X153064959Y-91595097D01*
X153276288Y-91568025D01*
X153276289Y-91568025D01*
X153281416Y-91567368D01*
X153312378Y-91558079D01*
X153490429Y-91504661D01*
X153490434Y-91504659D01*
X153495384Y-91503174D01*
X153695994Y-91404896D01*
X153724831Y-91384327D01*
X153791905Y-91361053D01*
X153860913Y-91377736D01*
X153909947Y-91429079D01*
X153924000Y-91486905D01*
X153924000Y-103252000D01*
X153903998Y-103320121D01*
X153850342Y-103366614D01*
X153798000Y-103378000D01*
X146822581Y-103378000D01*
X146754460Y-103357998D01*
X146707967Y-103304342D01*
X146697863Y-103234068D01*
X146702022Y-103215372D01*
X146728867Y-103127015D01*
X146730370Y-103122069D01*
X146759529Y-102900590D01*
X146761156Y-102834000D01*
X146742852Y-102611361D01*
X146688431Y-102394702D01*
X146599354Y-102189840D01*
X146478014Y-102002277D01*
X146327670Y-101837051D01*
X146323619Y-101833852D01*
X146323615Y-101833848D01*
X146156414Y-101701800D01*
X146156410Y-101701798D01*
X146152359Y-101698598D01*
X146113607Y-101677206D01*
X146063636Y-101626773D01*
X146048500Y-101566897D01*
X146048500Y-101219000D01*
X147865526Y-101219000D01*
X147885391Y-101471403D01*
X147944495Y-101717591D01*
X147946388Y-101722162D01*
X147946389Y-101722164D01*
X147995559Y-101840870D01*
X148041384Y-101951502D01*
X148173672Y-102167376D01*
X148338102Y-102359898D01*
X148530624Y-102524328D01*
X148746498Y-102656616D01*
X148751068Y-102658509D01*
X148751072Y-102658511D01*
X148975836Y-102751611D01*
X148980409Y-102753505D01*
X149065032Y-102773821D01*
X149221784Y-102811454D01*
X149221790Y-102811455D01*
X149226597Y-102812609D01*
X149479000Y-102832474D01*
X149731403Y-102812609D01*
X149736210Y-102811455D01*
X149736216Y-102811454D01*
X149892968Y-102773821D01*
X149977591Y-102753505D01*
X149982164Y-102751611D01*
X150206928Y-102658511D01*
X150206932Y-102658509D01*
X150211502Y-102656616D01*
X150427376Y-102524328D01*
X150619898Y-102359898D01*
X150784328Y-102167376D01*
X150916616Y-101951502D01*
X150962442Y-101840870D01*
X151011611Y-101722164D01*
X151011612Y-101722162D01*
X151013505Y-101717591D01*
X151072609Y-101471403D01*
X151092474Y-101219000D01*
X151072609Y-100966597D01*
X151070309Y-100957014D01*
X151032333Y-100798832D01*
X151013505Y-100720409D01*
X150984742Y-100650968D01*
X150918511Y-100491072D01*
X150918509Y-100491068D01*
X150916616Y-100486498D01*
X150784328Y-100270624D01*
X150619898Y-100078102D01*
X150427376Y-99913672D01*
X150211502Y-99781384D01*
X150206932Y-99779491D01*
X150206928Y-99779489D01*
X149982164Y-99686389D01*
X149982162Y-99686388D01*
X149977591Y-99684495D01*
X149892968Y-99664179D01*
X149736216Y-99626546D01*
X149736210Y-99626545D01*
X149731403Y-99625391D01*
X149479000Y-99605526D01*
X149226597Y-99625391D01*
X149221790Y-99626545D01*
X149221784Y-99626546D01*
X149065032Y-99664179D01*
X148980409Y-99684495D01*
X148975838Y-99686388D01*
X148975836Y-99686389D01*
X148751072Y-99779489D01*
X148751068Y-99779491D01*
X148746498Y-99781384D01*
X148530624Y-99913672D01*
X148338102Y-100078102D01*
X148173672Y-100270624D01*
X148041384Y-100486498D01*
X148039491Y-100491068D01*
X148039489Y-100491072D01*
X147973258Y-100650968D01*
X147944495Y-100720409D01*
X147925667Y-100798832D01*
X147887692Y-100957014D01*
X147885391Y-100966597D01*
X147865526Y-101219000D01*
X146048500Y-101219000D01*
X146048500Y-101043767D01*
X146049027Y-101032584D01*
X146050702Y-101025091D01*
X146048562Y-100957014D01*
X146048500Y-100953055D01*
X146048500Y-100925144D01*
X146047995Y-100921144D01*
X146047062Y-100909301D01*
X146045922Y-100873029D01*
X146045673Y-100865110D01*
X146040022Y-100845658D01*
X146036014Y-100826306D01*
X146034467Y-100814063D01*
X146033474Y-100806203D01*
X146030556Y-100798832D01*
X146017200Y-100765097D01*
X146013355Y-100753870D01*
X146003633Y-100720409D01*
X146001018Y-100711407D01*
X145996984Y-100704585D01*
X145996981Y-100704579D01*
X145990706Y-100693968D01*
X145982010Y-100676218D01*
X145977472Y-100664756D01*
X145977469Y-100664751D01*
X145974552Y-100657383D01*
X145948573Y-100621625D01*
X145942057Y-100611707D01*
X145923575Y-100580457D01*
X145919542Y-100573637D01*
X145905218Y-100559313D01*
X145892376Y-100544278D01*
X145880472Y-100527893D01*
X145846406Y-100499711D01*
X145837627Y-100491722D01*
X144682030Y-99336125D01*
X144648004Y-99273813D01*
X144654715Y-99198815D01*
X144661612Y-99182163D01*
X144661615Y-99182154D01*
X144663505Y-99177591D01*
X144722609Y-98931403D01*
X144742474Y-98679000D01*
X144722609Y-98426597D01*
X144702600Y-98343250D01*
X144664660Y-98185221D01*
X144663505Y-98180409D01*
X144661611Y-98175836D01*
X144568511Y-97951072D01*
X144568509Y-97951068D01*
X144566616Y-97946498D01*
X144434328Y-97730624D01*
X144269898Y-97538102D01*
X144077376Y-97373672D01*
X143861502Y-97241384D01*
X143856925Y-97239488D01*
X143840280Y-97232593D01*
X143785000Y-97188044D01*
X143762500Y-97116185D01*
X143762500Y-96822592D01*
X143782502Y-96754471D01*
X143799405Y-96733497D01*
X144226828Y-96306074D01*
X144289140Y-96272048D01*
X144359955Y-96277113D01*
X144416791Y-96319660D01*
X144440929Y-96379377D01*
X144470060Y-96609975D01*
X144548557Y-96915702D01*
X144550010Y-96919371D01*
X144550010Y-96919372D01*
X144661268Y-97200376D01*
X144664753Y-97209179D01*
X144666659Y-97212647D01*
X144666660Y-97212648D01*
X144800603Y-97456287D01*
X144816816Y-97485779D01*
X145002346Y-97741140D01*
X145181577Y-97932001D01*
X145199486Y-97951072D01*
X145218418Y-97971233D01*
X145461625Y-98172432D01*
X145728131Y-98341562D01*
X145731710Y-98343246D01*
X145731717Y-98343250D01*
X146010144Y-98474267D01*
X146010148Y-98474269D01*
X146013734Y-98475956D01*
X146313928Y-98573495D01*
X146623980Y-98632641D01*
X146860162Y-98647500D01*
X147017838Y-98647500D01*
X147254020Y-98632641D01*
X147564072Y-98573495D01*
X147864266Y-98475956D01*
X147867852Y-98474269D01*
X147867856Y-98474267D01*
X148146283Y-98343250D01*
X148146290Y-98343246D01*
X148149869Y-98341562D01*
X148416375Y-98172432D01*
X148659582Y-97971233D01*
X148678515Y-97951072D01*
X148696423Y-97932001D01*
X148875654Y-97741140D01*
X149061184Y-97485779D01*
X149077398Y-97456287D01*
X149211340Y-97212648D01*
X149211341Y-97212647D01*
X149213247Y-97209179D01*
X149216733Y-97200376D01*
X149327990Y-96919372D01*
X149327990Y-96919371D01*
X149329443Y-96915702D01*
X149407940Y-96609975D01*
X149447500Y-96296821D01*
X149447500Y-96138000D01*
X149467502Y-96069879D01*
X149521158Y-96023386D01*
X149573500Y-96012000D01*
X150533387Y-96012000D01*
X150601508Y-96032002D01*
X150648001Y-96085658D01*
X150659298Y-96133273D01*
X150661724Y-96197895D01*
X150665751Y-96305158D01*
X150713093Y-96530791D01*
X150797776Y-96745221D01*
X150917377Y-96942317D01*
X150920874Y-96946347D01*
X151007438Y-97046103D01*
X151068477Y-97116445D01*
X151072608Y-97119832D01*
X151242627Y-97259240D01*
X151242633Y-97259244D01*
X151246755Y-97262624D01*
X151251391Y-97265263D01*
X151251394Y-97265265D01*
X151360422Y-97327327D01*
X151447114Y-97376675D01*
X151663825Y-97455337D01*
X151669074Y-97456286D01*
X151669077Y-97456287D01*
X151886608Y-97495623D01*
X151886615Y-97495624D01*
X151890692Y-97496361D01*
X151908414Y-97497197D01*
X151913356Y-97497430D01*
X151913363Y-97497430D01*
X151914844Y-97497500D01*
X152076890Y-97497500D01*
X152143809Y-97491822D01*
X152243409Y-97483371D01*
X152243413Y-97483370D01*
X152248720Y-97482920D01*
X152253875Y-97481582D01*
X152253881Y-97481581D01*
X152466703Y-97426343D01*
X152466707Y-97426342D01*
X152471872Y-97425001D01*
X152476738Y-97422809D01*
X152476741Y-97422808D01*
X152677202Y-97332507D01*
X152682075Y-97330312D01*
X152873319Y-97201559D01*
X152887487Y-97188044D01*
X153036278Y-97046103D01*
X153040135Y-97042424D01*
X153177754Y-96857458D01*
X153222016Y-96770402D01*
X153279822Y-96656704D01*
X153282240Y-96651949D01*
X153295274Y-96609975D01*
X153349024Y-96436871D01*
X153350607Y-96431773D01*
X153351308Y-96426484D01*
X153380198Y-96208511D01*
X153380198Y-96208506D01*
X153380898Y-96203226D01*
X153372249Y-95972842D01*
X153324907Y-95747209D01*
X153240224Y-95532779D01*
X153120623Y-95335683D01*
X153033755Y-95235576D01*
X152973023Y-95165588D01*
X152973021Y-95165586D01*
X152969523Y-95161555D01*
X152927970Y-95127484D01*
X152795373Y-95018760D01*
X152795367Y-95018756D01*
X152791245Y-95015376D01*
X152786609Y-95012737D01*
X152786606Y-95012735D01*
X152595529Y-94903968D01*
X152590886Y-94901325D01*
X152374175Y-94822663D01*
X152368926Y-94821714D01*
X152368923Y-94821713D01*
X152151392Y-94782377D01*
X152151385Y-94782376D01*
X152147308Y-94781639D01*
X152129586Y-94780803D01*
X152124644Y-94780570D01*
X152124637Y-94780570D01*
X152123156Y-94780500D01*
X151961110Y-94780500D01*
X151789280Y-94795080D01*
X151784967Y-94796199D01*
X151714711Y-94787990D01*
X151659843Y-94742935D01*
X151638000Y-94672031D01*
X151638000Y-91321702D01*
X151638002Y-91320932D01*
X151638274Y-91276411D01*
X151638476Y-91243348D01*
X151636010Y-91234719D01*
X151636009Y-91234714D01*
X151630361Y-91214952D01*
X151626783Y-91198191D01*
X151623870Y-91177848D01*
X151623867Y-91177838D01*
X151622595Y-91168955D01*
X151611979Y-91145605D01*
X151605536Y-91128093D01*
X151600954Y-91112063D01*
X151598488Y-91103435D01*
X151582726Y-91078452D01*
X151574596Y-91063386D01*
X151562367Y-91036490D01*
X151545626Y-91017061D01*
X151534521Y-91002053D01*
X151525630Y-90987961D01*
X151520840Y-90980369D01*
X151498703Y-90960818D01*
X151486659Y-90948626D01*
X151473239Y-90933051D01*
X151473237Y-90933050D01*
X151467381Y-90926253D01*
X151459853Y-90921374D01*
X151459850Y-90921371D01*
X151445861Y-90912304D01*
X151430987Y-90901014D01*
X151418502Y-90889988D01*
X151411772Y-90884044D01*
X151403646Y-90880229D01*
X151403645Y-90880228D01*
X151397979Y-90877568D01*
X151385034Y-90871490D01*
X151370065Y-90863176D01*
X151345273Y-90847107D01*
X151320709Y-90839761D01*
X151303264Y-90833099D01*
X151298827Y-90831016D01*
X151280052Y-90822201D01*
X151250870Y-90817657D01*
X151234151Y-90813874D01*
X151214464Y-90807986D01*
X151214461Y-90807985D01*
X151205859Y-90805413D01*
X151196884Y-90805358D01*
X151196883Y-90805358D01*
X151190190Y-90805317D01*
X151171444Y-90805203D01*
X151170672Y-90805170D01*
X151169577Y-90805000D01*
X151138702Y-90805000D01*
X151137932Y-90804998D01*
X151064284Y-90804548D01*
X151064283Y-90804548D01*
X151060348Y-90804524D01*
X151059004Y-90804908D01*
X151057659Y-90805000D01*
X149106702Y-90805000D01*
X149105932Y-90804998D01*
X149105078Y-90804993D01*
X149028348Y-90804524D01*
X149019719Y-90806990D01*
X149019714Y-90806991D01*
X148999952Y-90812639D01*
X148983191Y-90816217D01*
X148962848Y-90819130D01*
X148962838Y-90819133D01*
X148953955Y-90820405D01*
X148930605Y-90831021D01*
X148913093Y-90837464D01*
X148905057Y-90839761D01*
X148888435Y-90844512D01*
X148863452Y-90860274D01*
X148848386Y-90868404D01*
X148821490Y-90880633D01*
X148802061Y-90897374D01*
X148787053Y-90908479D01*
X148765369Y-90922160D01*
X148759427Y-90928888D01*
X148745819Y-90944296D01*
X148733627Y-90956340D01*
X148711253Y-90975619D01*
X148706374Y-90983147D01*
X148706371Y-90983150D01*
X148697304Y-90997139D01*
X148686014Y-91012013D01*
X148669044Y-91031228D01*
X148665229Y-91039354D01*
X148665228Y-91039355D01*
X148662737Y-91044661D01*
X148656490Y-91057966D01*
X148648176Y-91072935D01*
X148632107Y-91097727D01*
X148629535Y-91106327D01*
X148624761Y-91122290D01*
X148618099Y-91139736D01*
X148607201Y-91162948D01*
X148602658Y-91192128D01*
X148598874Y-91208849D01*
X148592986Y-91228536D01*
X148592985Y-91228539D01*
X148590413Y-91237141D01*
X148590358Y-91246116D01*
X148590358Y-91246117D01*
X148590203Y-91271546D01*
X148590170Y-91272328D01*
X148590000Y-91273423D01*
X148590000Y-91304298D01*
X148589998Y-91305068D01*
X148589524Y-91382652D01*
X148589908Y-91383996D01*
X148590000Y-91385341D01*
X148590000Y-93986561D01*
X148569998Y-94054682D01*
X148516342Y-94101175D01*
X148446068Y-94111279D01*
X148396486Y-94092946D01*
X148153216Y-93938562D01*
X148153215Y-93938562D01*
X148149869Y-93936438D01*
X148146290Y-93934754D01*
X148146283Y-93934750D01*
X147867856Y-93803733D01*
X147867852Y-93803731D01*
X147864266Y-93802044D01*
X147564072Y-93704505D01*
X147254020Y-93645359D01*
X147017838Y-93630500D01*
X146860162Y-93630500D01*
X146623980Y-93645359D01*
X146313928Y-93704505D01*
X146310151Y-93705732D01*
X146310152Y-93705732D01*
X146213436Y-93737157D01*
X146142469Y-93739185D01*
X146081671Y-93702522D01*
X146050345Y-93638810D01*
X146048500Y-93617324D01*
X146048500Y-90703667D01*
X146068502Y-90635546D01*
X146101331Y-90601089D01*
X146277860Y-90475173D01*
X146324429Y-90428767D01*
X146432435Y-90321137D01*
X146436096Y-90317489D01*
X146495594Y-90234689D01*
X146563435Y-90140277D01*
X146566453Y-90136077D01*
X146578669Y-90111361D01*
X146663136Y-89940453D01*
X146663137Y-89940451D01*
X146665430Y-89935811D01*
X146730370Y-89722069D01*
X146759529Y-89500590D01*
X146761156Y-89434000D01*
X146742852Y-89211361D01*
X146740451Y-89201800D01*
X146704003Y-89056695D01*
X146706807Y-88985754D01*
X146747520Y-88927591D01*
X146813215Y-88900672D01*
X146826207Y-88900000D01*
X152134351Y-88900000D01*
X152202472Y-88920002D01*
G37*
G04 #@! TD.AperFunction*
G04 #@! TA.AperFunction,NonConductor*
G36*
X144038667Y-88920002D02*
G01*
X144085160Y-88973658D01*
X144095264Y-89043932D01*
X144091965Y-89059665D01*
X144058989Y-89178570D01*
X144035251Y-89400695D01*
X144035548Y-89405848D01*
X144035548Y-89405851D01*
X144040888Y-89498457D01*
X144048110Y-89623715D01*
X144049247Y-89628761D01*
X144049248Y-89628767D01*
X144069119Y-89716939D01*
X144097222Y-89841639D01*
X144181266Y-90048616D01*
X144297987Y-90239088D01*
X144444250Y-90407938D01*
X144616126Y-90550632D01*
X144719070Y-90610787D01*
X144767794Y-90662425D01*
X144781500Y-90719575D01*
X144781500Y-93907403D01*
X144761498Y-93975524D01*
X144744595Y-93996498D01*
X143242123Y-95498970D01*
X143179811Y-95532996D01*
X143108996Y-95527931D01*
X143052160Y-95485384D01*
X143045309Y-95475241D01*
X142963390Y-95340243D01*
X142960623Y-95335683D01*
X142873755Y-95235576D01*
X142813023Y-95165588D01*
X142813021Y-95165586D01*
X142809523Y-95161555D01*
X142767970Y-95127484D01*
X142635373Y-95018760D01*
X142635367Y-95018756D01*
X142631245Y-95015376D01*
X142626609Y-95012737D01*
X142626606Y-95012735D01*
X142435529Y-94903968D01*
X142430886Y-94901325D01*
X142214175Y-94822663D01*
X142208926Y-94821714D01*
X142208923Y-94821713D01*
X141991392Y-94782377D01*
X141991385Y-94782376D01*
X141987308Y-94781639D01*
X141969586Y-94780803D01*
X141964644Y-94780570D01*
X141964637Y-94780570D01*
X141963156Y-94780500D01*
X141801110Y-94780500D01*
X141734191Y-94786178D01*
X141634591Y-94794629D01*
X141634587Y-94794630D01*
X141629280Y-94795080D01*
X141624125Y-94796418D01*
X141624119Y-94796419D01*
X141411297Y-94851657D01*
X141411293Y-94851658D01*
X141406128Y-94852999D01*
X141401262Y-94855191D01*
X141401259Y-94855192D01*
X141292980Y-94903968D01*
X141195925Y-94947688D01*
X141004681Y-95076441D01*
X140837865Y-95235576D01*
X140700246Y-95420542D01*
X140697830Y-95425293D01*
X140697828Y-95425297D01*
X140667279Y-95485384D01*
X140595760Y-95626051D01*
X140594178Y-95631145D01*
X140594177Y-95631148D01*
X140532115Y-95831020D01*
X140527393Y-95846227D01*
X140526692Y-95851516D01*
X140503913Y-96023386D01*
X140497102Y-96074774D01*
X140497302Y-96080103D01*
X140497302Y-96080105D01*
X140498139Y-96102402D01*
X140505751Y-96305158D01*
X140553093Y-96530791D01*
X140637776Y-96745221D01*
X140757377Y-96942317D01*
X140760874Y-96946347D01*
X140847438Y-97046103D01*
X140908477Y-97116445D01*
X140912608Y-97119832D01*
X141082627Y-97259240D01*
X141082633Y-97259244D01*
X141086755Y-97262624D01*
X141091391Y-97265263D01*
X141091394Y-97265265D01*
X141200422Y-97327327D01*
X141287114Y-97376675D01*
X141503825Y-97455337D01*
X141509074Y-97456286D01*
X141509077Y-97456287D01*
X141726608Y-97495623D01*
X141726615Y-97495624D01*
X141730692Y-97496361D01*
X141754844Y-97497500D01*
X141754815Y-97498117D01*
X141820232Y-97519055D01*
X141865415Y-97573818D01*
X141873818Y-97644316D01*
X141845381Y-97705206D01*
X141823672Y-97730624D01*
X141691384Y-97946498D01*
X141689491Y-97951068D01*
X141689489Y-97951072D01*
X141596389Y-98175836D01*
X141594495Y-98180409D01*
X141593340Y-98185221D01*
X141555401Y-98343250D01*
X141535391Y-98426597D01*
X141515526Y-98679000D01*
X141535391Y-98931403D01*
X141594495Y-99177591D01*
X141596388Y-99182162D01*
X141596389Y-99182164D01*
X141635503Y-99276592D01*
X141691384Y-99411502D01*
X141823672Y-99627376D01*
X141988102Y-99819898D01*
X142180624Y-99984328D01*
X142396498Y-100116616D01*
X142401068Y-100118509D01*
X142401072Y-100118511D01*
X142609188Y-100204715D01*
X142630409Y-100213505D01*
X142707568Y-100232029D01*
X142871784Y-100271454D01*
X142871790Y-100271455D01*
X142876597Y-100272609D01*
X143129000Y-100292474D01*
X143381403Y-100272609D01*
X143386210Y-100271455D01*
X143386216Y-100271454D01*
X143550432Y-100232029D01*
X143627591Y-100213505D01*
X143648812Y-100204715D01*
X143719402Y-100197126D01*
X143786125Y-100232029D01*
X144744595Y-101190499D01*
X144778621Y-101252811D01*
X144781500Y-101279594D01*
X144781500Y-101546842D01*
X144761498Y-101614963D01*
X144713682Y-101658604D01*
X144671607Y-101680507D01*
X144492965Y-101814635D01*
X144338629Y-101976138D01*
X144212743Y-102160680D01*
X144118688Y-102363305D01*
X144058989Y-102578570D01*
X144035251Y-102800695D01*
X144035548Y-102805848D01*
X144035548Y-102805851D01*
X144041011Y-102900590D01*
X144048110Y-103023715D01*
X144049247Y-103028761D01*
X144049248Y-103028767D01*
X144093314Y-103224299D01*
X144088778Y-103295151D01*
X144046656Y-103352302D01*
X143980323Y-103377608D01*
X143970397Y-103378000D01*
X139826000Y-103378000D01*
X139757879Y-103357998D01*
X139711386Y-103304342D01*
X139700000Y-103252000D01*
X139700000Y-91742891D01*
X139720002Y-91674770D01*
X139773658Y-91628277D01*
X139843932Y-91618173D01*
X139870948Y-91625181D01*
X139912856Y-91641184D01*
X139912864Y-91641186D01*
X139917692Y-91643030D01*
X139922760Y-91644061D01*
X139922763Y-91644062D01*
X140030017Y-91665883D01*
X140136597Y-91687567D01*
X140141772Y-91687757D01*
X140141774Y-91687757D01*
X140354673Y-91695564D01*
X140354677Y-91695564D01*
X140359837Y-91695753D01*
X140364957Y-91695097D01*
X140364959Y-91695097D01*
X140576288Y-91668025D01*
X140576289Y-91668025D01*
X140581416Y-91667368D01*
X140586366Y-91665883D01*
X140790429Y-91604661D01*
X140790434Y-91604659D01*
X140795384Y-91603174D01*
X140995994Y-91504896D01*
X141177860Y-91375173D01*
X141192030Y-91361053D01*
X141332435Y-91221137D01*
X141336096Y-91217489D01*
X141340587Y-91211240D01*
X141463435Y-91040277D01*
X141466453Y-91036077D01*
X141475847Y-91017071D01*
X141563136Y-90840453D01*
X141563137Y-90840451D01*
X141565430Y-90835811D01*
X141626275Y-90635546D01*
X141628865Y-90627023D01*
X141628865Y-90627021D01*
X141630370Y-90622069D01*
X141659529Y-90400590D01*
X141661156Y-90334000D01*
X141642852Y-90111361D01*
X141588431Y-89894702D01*
X141499354Y-89689840D01*
X141415797Y-89560680D01*
X141380822Y-89506617D01*
X141380820Y-89506614D01*
X141378014Y-89502277D01*
X141227670Y-89337051D01*
X141223619Y-89333852D01*
X141223615Y-89333848D01*
X141056414Y-89201800D01*
X141056410Y-89201798D01*
X141052359Y-89198598D01*
X140939522Y-89136309D01*
X140889551Y-89085876D01*
X140874779Y-89016433D01*
X140899895Y-88950028D01*
X140956926Y-88907743D01*
X141000415Y-88900000D01*
X143970546Y-88900000D01*
X144038667Y-88920002D01*
G37*
G04 #@! TD.AperFunction*
M02*
