G04 #@! TF.GenerationSoftware,KiCad,Pcbnew,(5.1.6)-1*
G04 #@! TF.CreationDate,2021-12-02T17:52:09-06:00*
G04 #@! TF.ProjectId,1u Hand Wire Helpers,31752048-616e-4642-9057-697265204865,rev?*
G04 #@! TF.SameCoordinates,Original*
G04 #@! TF.FileFunction,Copper,L1,Top*
G04 #@! TF.FilePolarity,Positive*
%FSLAX46Y46*%
G04 Gerber Fmt 4.6, Leading zero omitted, Abs format (unit mm)*
G04 Created by KiCad (PCBNEW (5.1.6)-1) date 2021-12-02 17:52:09*
%MOMM*%
%LPD*%
G01*
G04 APERTURE LIST*
G04 #@! TA.AperFunction,ComponentPad*
%ADD10C,2.200000*%
G04 #@! TD*
G04 #@! TA.AperFunction,ComponentPad*
%ADD11C,1.700000*%
G04 #@! TD*
G04 #@! TA.AperFunction,Conductor*
%ADD12C,0.250000*%
G04 #@! TD*
G04 #@! TA.AperFunction,NonConductor*
%ADD13C,0.254000*%
G04 #@! TD*
G04 APERTURE END LIST*
D10*
X143129000Y-98679000D03*
X149479000Y-101219000D03*
D11*
X145398000Y-102834000D03*
X145398000Y-89434000D03*
X140298000Y-90334000D03*
X152998000Y-90234000D03*
D12*
X145415000Y-89451000D02*
X145398000Y-89434000D01*
X143129000Y-98679000D02*
X143129000Y-96507998D01*
X145415000Y-94221998D02*
X145415000Y-89451000D01*
X143129000Y-96507998D02*
X145415000Y-94221998D01*
X145415000Y-102817000D02*
X145398000Y-102834000D01*
X143129000Y-98679000D02*
X145415000Y-100965000D01*
X145415000Y-100965000D02*
X145415000Y-102817000D01*
D13*
G36*
X143913000Y-89287740D02*
G01*
X143913000Y-89580260D01*
X143970068Y-89867158D01*
X144082010Y-90137411D01*
X144244525Y-90380632D01*
X144451368Y-90587475D01*
X144655001Y-90723538D01*
X144655000Y-93907196D01*
X143155611Y-95406586D01*
X143012475Y-95192368D01*
X142805632Y-94985525D01*
X142562411Y-94823010D01*
X142292158Y-94711068D01*
X142005260Y-94654000D01*
X141712740Y-94654000D01*
X141425842Y-94711068D01*
X141155589Y-94823010D01*
X140912368Y-94985525D01*
X140705525Y-95192368D01*
X140543010Y-95435589D01*
X140431068Y-95705842D01*
X140374000Y-95992740D01*
X140374000Y-96285260D01*
X140431068Y-96572158D01*
X140543010Y-96842411D01*
X140705525Y-97085632D01*
X140912368Y-97292475D01*
X141155589Y-97454990D01*
X141425842Y-97566932D01*
X141712740Y-97624000D01*
X141747261Y-97624000D01*
X141591463Y-97857169D01*
X141460675Y-98172919D01*
X141394000Y-98508117D01*
X141394000Y-98849883D01*
X141460675Y-99185081D01*
X141591463Y-99500831D01*
X141781337Y-99784998D01*
X142023002Y-100026663D01*
X142307169Y-100216537D01*
X142622919Y-100347325D01*
X142958117Y-100414000D01*
X143299883Y-100414000D01*
X143635081Y-100347325D01*
X143696912Y-100321714D01*
X144655000Y-101279802D01*
X144655000Y-101544462D01*
X144451368Y-101680525D01*
X144244525Y-101887368D01*
X144082010Y-102130589D01*
X143970068Y-102400842D01*
X143913000Y-102687740D01*
X143913000Y-102980260D01*
X143956908Y-103201000D01*
X139877000Y-103201000D01*
X139877000Y-91764350D01*
X140151740Y-91819000D01*
X140444260Y-91819000D01*
X140731158Y-91761932D01*
X141001411Y-91649990D01*
X141244632Y-91487475D01*
X141451475Y-91280632D01*
X141613990Y-91037411D01*
X141725932Y-90767158D01*
X141783000Y-90480260D01*
X141783000Y-90187740D01*
X141725932Y-89900842D01*
X141613990Y-89630589D01*
X141451475Y-89387368D01*
X141244632Y-89180525D01*
X141089696Y-89077000D01*
X143954919Y-89077000D01*
X143913000Y-89287740D01*
G37*
X143913000Y-89287740D02*
X143913000Y-89580260D01*
X143970068Y-89867158D01*
X144082010Y-90137411D01*
X144244525Y-90380632D01*
X144451368Y-90587475D01*
X144655001Y-90723538D01*
X144655000Y-93907196D01*
X143155611Y-95406586D01*
X143012475Y-95192368D01*
X142805632Y-94985525D01*
X142562411Y-94823010D01*
X142292158Y-94711068D01*
X142005260Y-94654000D01*
X141712740Y-94654000D01*
X141425842Y-94711068D01*
X141155589Y-94823010D01*
X140912368Y-94985525D01*
X140705525Y-95192368D01*
X140543010Y-95435589D01*
X140431068Y-95705842D01*
X140374000Y-95992740D01*
X140374000Y-96285260D01*
X140431068Y-96572158D01*
X140543010Y-96842411D01*
X140705525Y-97085632D01*
X140912368Y-97292475D01*
X141155589Y-97454990D01*
X141425842Y-97566932D01*
X141712740Y-97624000D01*
X141747261Y-97624000D01*
X141591463Y-97857169D01*
X141460675Y-98172919D01*
X141394000Y-98508117D01*
X141394000Y-98849883D01*
X141460675Y-99185081D01*
X141591463Y-99500831D01*
X141781337Y-99784998D01*
X142023002Y-100026663D01*
X142307169Y-100216537D01*
X142622919Y-100347325D01*
X142958117Y-100414000D01*
X143299883Y-100414000D01*
X143635081Y-100347325D01*
X143696912Y-100321714D01*
X144655000Y-101279802D01*
X144655000Y-101544462D01*
X144451368Y-101680525D01*
X144244525Y-101887368D01*
X144082010Y-102130589D01*
X143970068Y-102400842D01*
X143913000Y-102687740D01*
X143913000Y-102980260D01*
X143956908Y-103201000D01*
X139877000Y-103201000D01*
X139877000Y-91764350D01*
X140151740Y-91819000D01*
X140444260Y-91819000D01*
X140731158Y-91761932D01*
X141001411Y-91649990D01*
X141244632Y-91487475D01*
X141451475Y-91280632D01*
X141613990Y-91037411D01*
X141725932Y-90767158D01*
X141783000Y-90480260D01*
X141783000Y-90187740D01*
X141725932Y-89900842D01*
X141613990Y-89630589D01*
X141451475Y-89387368D01*
X141244632Y-89180525D01*
X141089696Y-89077000D01*
X143954919Y-89077000D01*
X143913000Y-89287740D01*
G36*
X151844525Y-91180632D02*
G01*
X152051368Y-91387475D01*
X152294589Y-91549990D01*
X152564842Y-91661932D01*
X152851740Y-91719000D01*
X153144260Y-91719000D01*
X153431158Y-91661932D01*
X153701411Y-91549990D01*
X153747001Y-91519528D01*
X153747000Y-103201000D01*
X146839092Y-103201000D01*
X146883000Y-102980260D01*
X146883000Y-102687740D01*
X146825932Y-102400842D01*
X146713990Y-102130589D01*
X146551475Y-101887368D01*
X146344632Y-101680525D01*
X146175000Y-101567181D01*
X146175000Y-101048117D01*
X147744000Y-101048117D01*
X147744000Y-101389883D01*
X147810675Y-101725081D01*
X147941463Y-102040831D01*
X148131337Y-102324998D01*
X148373002Y-102566663D01*
X148657169Y-102756537D01*
X148972919Y-102887325D01*
X149308117Y-102954000D01*
X149649883Y-102954000D01*
X149985081Y-102887325D01*
X150300831Y-102756537D01*
X150584998Y-102566663D01*
X150826663Y-102324998D01*
X151016537Y-102040831D01*
X151147325Y-101725081D01*
X151214000Y-101389883D01*
X151214000Y-101048117D01*
X151147325Y-100712919D01*
X151016537Y-100397169D01*
X150826663Y-100113002D01*
X150584998Y-99871337D01*
X150300831Y-99681463D01*
X149985081Y-99550675D01*
X149649883Y-99484000D01*
X149308117Y-99484000D01*
X148972919Y-99550675D01*
X148657169Y-99681463D01*
X148373002Y-99871337D01*
X148131337Y-100113002D01*
X147941463Y-100397169D01*
X147810675Y-100712919D01*
X147744000Y-101048117D01*
X146175000Y-101048117D01*
X146175000Y-101002322D01*
X146178676Y-100964999D01*
X146175000Y-100927676D01*
X146175000Y-100927667D01*
X146164003Y-100816014D01*
X146120546Y-100672753D01*
X146049974Y-100540724D01*
X145955001Y-100424999D01*
X145926004Y-100401202D01*
X144771714Y-99246912D01*
X144797325Y-99185081D01*
X144864000Y-98849883D01*
X144864000Y-98508117D01*
X144797325Y-98172919D01*
X144666537Y-97857169D01*
X144476663Y-97573002D01*
X144234998Y-97331337D01*
X143950831Y-97141463D01*
X143889000Y-97115852D01*
X143889000Y-96822799D01*
X144305539Y-96406261D01*
X144405261Y-96907601D01*
X144603893Y-97387141D01*
X144892262Y-97818715D01*
X145259285Y-98185738D01*
X145690859Y-98474107D01*
X146170399Y-98672739D01*
X146679475Y-98774000D01*
X147198525Y-98774000D01*
X147707601Y-98672739D01*
X148187141Y-98474107D01*
X148618715Y-98185738D01*
X148985738Y-97818715D01*
X149274107Y-97387141D01*
X149472739Y-96907601D01*
X149574000Y-96398525D01*
X149574000Y-96189000D01*
X150534000Y-96189000D01*
X150534000Y-96285260D01*
X150591068Y-96572158D01*
X150703010Y-96842411D01*
X150865525Y-97085632D01*
X151072368Y-97292475D01*
X151315589Y-97454990D01*
X151585842Y-97566932D01*
X151872740Y-97624000D01*
X152165260Y-97624000D01*
X152452158Y-97566932D01*
X152722411Y-97454990D01*
X152965632Y-97292475D01*
X153172475Y-97085632D01*
X153334990Y-96842411D01*
X153446932Y-96572158D01*
X153504000Y-96285260D01*
X153504000Y-95992740D01*
X153446932Y-95705842D01*
X153334990Y-95435589D01*
X153172475Y-95192368D01*
X152965632Y-94985525D01*
X152722411Y-94823010D01*
X152452158Y-94711068D01*
X152165260Y-94654000D01*
X151872740Y-94654000D01*
X151815000Y-94665485D01*
X151815000Y-91346647D01*
X151818314Y-91313000D01*
X151805088Y-91178717D01*
X151773361Y-91074128D01*
X151844525Y-91180632D01*
G37*
X151844525Y-91180632D02*
X152051368Y-91387475D01*
X152294589Y-91549990D01*
X152564842Y-91661932D01*
X152851740Y-91719000D01*
X153144260Y-91719000D01*
X153431158Y-91661932D01*
X153701411Y-91549990D01*
X153747001Y-91519528D01*
X153747000Y-103201000D01*
X146839092Y-103201000D01*
X146883000Y-102980260D01*
X146883000Y-102687740D01*
X146825932Y-102400842D01*
X146713990Y-102130589D01*
X146551475Y-101887368D01*
X146344632Y-101680525D01*
X146175000Y-101567181D01*
X146175000Y-101048117D01*
X147744000Y-101048117D01*
X147744000Y-101389883D01*
X147810675Y-101725081D01*
X147941463Y-102040831D01*
X148131337Y-102324998D01*
X148373002Y-102566663D01*
X148657169Y-102756537D01*
X148972919Y-102887325D01*
X149308117Y-102954000D01*
X149649883Y-102954000D01*
X149985081Y-102887325D01*
X150300831Y-102756537D01*
X150584998Y-102566663D01*
X150826663Y-102324998D01*
X151016537Y-102040831D01*
X151147325Y-101725081D01*
X151214000Y-101389883D01*
X151214000Y-101048117D01*
X151147325Y-100712919D01*
X151016537Y-100397169D01*
X150826663Y-100113002D01*
X150584998Y-99871337D01*
X150300831Y-99681463D01*
X149985081Y-99550675D01*
X149649883Y-99484000D01*
X149308117Y-99484000D01*
X148972919Y-99550675D01*
X148657169Y-99681463D01*
X148373002Y-99871337D01*
X148131337Y-100113002D01*
X147941463Y-100397169D01*
X147810675Y-100712919D01*
X147744000Y-101048117D01*
X146175000Y-101048117D01*
X146175000Y-101002322D01*
X146178676Y-100964999D01*
X146175000Y-100927676D01*
X146175000Y-100927667D01*
X146164003Y-100816014D01*
X146120546Y-100672753D01*
X146049974Y-100540724D01*
X145955001Y-100424999D01*
X145926004Y-100401202D01*
X144771714Y-99246912D01*
X144797325Y-99185081D01*
X144864000Y-98849883D01*
X144864000Y-98508117D01*
X144797325Y-98172919D01*
X144666537Y-97857169D01*
X144476663Y-97573002D01*
X144234998Y-97331337D01*
X143950831Y-97141463D01*
X143889000Y-97115852D01*
X143889000Y-96822799D01*
X144305539Y-96406261D01*
X144405261Y-96907601D01*
X144603893Y-97387141D01*
X144892262Y-97818715D01*
X145259285Y-98185738D01*
X145690859Y-98474107D01*
X146170399Y-98672739D01*
X146679475Y-98774000D01*
X147198525Y-98774000D01*
X147707601Y-98672739D01*
X148187141Y-98474107D01*
X148618715Y-98185738D01*
X148985738Y-97818715D01*
X149274107Y-97387141D01*
X149472739Y-96907601D01*
X149574000Y-96398525D01*
X149574000Y-96189000D01*
X150534000Y-96189000D01*
X150534000Y-96285260D01*
X150591068Y-96572158D01*
X150703010Y-96842411D01*
X150865525Y-97085632D01*
X151072368Y-97292475D01*
X151315589Y-97454990D01*
X151585842Y-97566932D01*
X151872740Y-97624000D01*
X152165260Y-97624000D01*
X152452158Y-97566932D01*
X152722411Y-97454990D01*
X152965632Y-97292475D01*
X153172475Y-97085632D01*
X153334990Y-96842411D01*
X153446932Y-96572158D01*
X153504000Y-96285260D01*
X153504000Y-95992740D01*
X153446932Y-95705842D01*
X153334990Y-95435589D01*
X153172475Y-95192368D01*
X152965632Y-94985525D01*
X152722411Y-94823010D01*
X152452158Y-94711068D01*
X152165260Y-94654000D01*
X151872740Y-94654000D01*
X151815000Y-94665485D01*
X151815000Y-91346647D01*
X151818314Y-91313000D01*
X151805088Y-91178717D01*
X151773361Y-91074128D01*
X151844525Y-91180632D01*
G36*
X152051368Y-89080525D02*
G01*
X151844525Y-89287368D01*
X151682010Y-89530589D01*
X151570068Y-89800842D01*
X151513000Y-90087740D01*
X151513000Y-90380260D01*
X151570068Y-90667158D01*
X151655620Y-90873699D01*
X151616711Y-90826289D01*
X151512407Y-90740688D01*
X151393406Y-90677081D01*
X151264283Y-90637912D01*
X151163647Y-90628000D01*
X151130000Y-90624686D01*
X151096353Y-90628000D01*
X149131647Y-90628000D01*
X149098000Y-90624686D01*
X149064353Y-90628000D01*
X148963717Y-90637912D01*
X148834594Y-90677081D01*
X148715593Y-90740688D01*
X148611289Y-90826289D01*
X148525688Y-90930593D01*
X148462081Y-91049594D01*
X148422912Y-91178717D01*
X148409686Y-91313000D01*
X148413000Y-91346647D01*
X148413001Y-93954808D01*
X148187141Y-93803893D01*
X147707601Y-93605261D01*
X147198525Y-93504000D01*
X146679475Y-93504000D01*
X146175000Y-93604346D01*
X146175000Y-90700819D01*
X146344632Y-90587475D01*
X146551475Y-90380632D01*
X146713990Y-90137411D01*
X146825932Y-89867158D01*
X146883000Y-89580260D01*
X146883000Y-89287740D01*
X146841081Y-89077000D01*
X152056644Y-89077000D01*
X152051368Y-89080525D01*
G37*
X152051368Y-89080525D02*
X151844525Y-89287368D01*
X151682010Y-89530589D01*
X151570068Y-89800842D01*
X151513000Y-90087740D01*
X151513000Y-90380260D01*
X151570068Y-90667158D01*
X151655620Y-90873699D01*
X151616711Y-90826289D01*
X151512407Y-90740688D01*
X151393406Y-90677081D01*
X151264283Y-90637912D01*
X151163647Y-90628000D01*
X151130000Y-90624686D01*
X151096353Y-90628000D01*
X149131647Y-90628000D01*
X149098000Y-90624686D01*
X149064353Y-90628000D01*
X148963717Y-90637912D01*
X148834594Y-90677081D01*
X148715593Y-90740688D01*
X148611289Y-90826289D01*
X148525688Y-90930593D01*
X148462081Y-91049594D01*
X148422912Y-91178717D01*
X148409686Y-91313000D01*
X148413000Y-91346647D01*
X148413001Y-93954808D01*
X148187141Y-93803893D01*
X147707601Y-93605261D01*
X147198525Y-93504000D01*
X146679475Y-93504000D01*
X146175000Y-93604346D01*
X146175000Y-90700819D01*
X146344632Y-90587475D01*
X146551475Y-90380632D01*
X146713990Y-90137411D01*
X146825932Y-89867158D01*
X146883000Y-89580260D01*
X146883000Y-89287740D01*
X146841081Y-89077000D01*
X152056644Y-89077000D01*
X152051368Y-89080525D01*
M02*
