G04 #@! TF.GenerationSoftware,KiCad,Pcbnew,(6.0.1)*
G04 #@! TF.CreationDate,2022-02-15T16:57:22-06:00*
G04 #@! TF.ProjectId,1u Hand Wire Helpers,31752048-616e-4642-9057-697265204865,rev?*
G04 #@! TF.SameCoordinates,Original*
G04 #@! TF.FileFunction,Copper,L2,Bot*
G04 #@! TF.FilePolarity,Positive*
%FSLAX46Y46*%
G04 Gerber Fmt 4.6, Leading zero omitted, Abs format (unit mm)*
G04 Created by KiCad (PCBNEW (6.0.1)) date 2022-02-15 16:57:22*
%MOMM*%
%LPD*%
G01*
G04 APERTURE LIST*
G04 #@! TA.AperFunction,ComponentPad*
%ADD10C,1.700000*%
G04 #@! TD*
G04 #@! TA.AperFunction,ComponentPad*
%ADD11C,2.200000*%
G04 #@! TD*
G04 #@! TA.AperFunction,Conductor*
%ADD12C,0.250000*%
G04 #@! TD*
G04 APERTURE END LIST*
D10*
X140298000Y-90334000D03*
X152998000Y-90234000D03*
X145398000Y-89434000D03*
X145398000Y-102834000D03*
D11*
X149479000Y-101219000D03*
X143129000Y-98679000D03*
D12*
X148717000Y-90424000D02*
X152808000Y-90424000D01*
X140298000Y-90334000D02*
X140388000Y-90424000D01*
X141605000Y-90424000D02*
X143510000Y-92329000D01*
X143510000Y-92329000D02*
X146812000Y-92329000D01*
X146812000Y-92329000D02*
X148717000Y-90424000D01*
X140388000Y-90424000D02*
X141605000Y-90424000D01*
X152808000Y-90424000D02*
X152998000Y-90234000D01*
G04 #@! TA.AperFunction,NonConductor*
G36*
X144038667Y-88920002D02*
G01*
X144085160Y-88973658D01*
X144095264Y-89043932D01*
X144091965Y-89059665D01*
X144058989Y-89178570D01*
X144035251Y-89400695D01*
X144035548Y-89405848D01*
X144035548Y-89405851D01*
X144040888Y-89498457D01*
X144048110Y-89623715D01*
X144049247Y-89628761D01*
X144049248Y-89628767D01*
X144063012Y-89689840D01*
X144097222Y-89841639D01*
X144139371Y-89945441D01*
X144170852Y-90022968D01*
X144181266Y-90048616D01*
X144297987Y-90239088D01*
X144444250Y-90407938D01*
X144616126Y-90550632D01*
X144809000Y-90663338D01*
X145017692Y-90743030D01*
X145022760Y-90744061D01*
X145022763Y-90744062D01*
X145130017Y-90765883D01*
X145236597Y-90787567D01*
X145241772Y-90787757D01*
X145241774Y-90787757D01*
X145454673Y-90795564D01*
X145454677Y-90795564D01*
X145459837Y-90795753D01*
X145464957Y-90795097D01*
X145464959Y-90795097D01*
X145676288Y-90768025D01*
X145676289Y-90768025D01*
X145681416Y-90767368D01*
X145686366Y-90765883D01*
X145890429Y-90704661D01*
X145890434Y-90704659D01*
X145895384Y-90703174D01*
X146095994Y-90604896D01*
X146277860Y-90475173D01*
X146436096Y-90317489D01*
X146495594Y-90234689D01*
X146563435Y-90140277D01*
X146566453Y-90136077D01*
X146648357Y-89970357D01*
X146663136Y-89940453D01*
X146663137Y-89940451D01*
X146665430Y-89935811D01*
X146706238Y-89801495D01*
X146728865Y-89727023D01*
X146728865Y-89727021D01*
X146730370Y-89722069D01*
X146759529Y-89500590D01*
X146761156Y-89434000D01*
X146742852Y-89211361D01*
X146740451Y-89201800D01*
X146704003Y-89056695D01*
X146706807Y-88985754D01*
X146747520Y-88927591D01*
X146813215Y-88900672D01*
X146826207Y-88900000D01*
X152134351Y-88900000D01*
X152202472Y-88920002D01*
X152248965Y-88973658D01*
X152259069Y-89043932D01*
X152229575Y-89108512D01*
X152210004Y-89126760D01*
X152097326Y-89211361D01*
X152092965Y-89214635D01*
X151938629Y-89376138D01*
X151812743Y-89560680D01*
X151739927Y-89717550D01*
X151693103Y-89770917D01*
X151625639Y-89790500D01*
X148795767Y-89790500D01*
X148784584Y-89789973D01*
X148777091Y-89788298D01*
X148769165Y-89788547D01*
X148769164Y-89788547D01*
X148709001Y-89790438D01*
X148705043Y-89790500D01*
X148677144Y-89790500D01*
X148673154Y-89791004D01*
X148661320Y-89791936D01*
X148617111Y-89793326D01*
X148609497Y-89795538D01*
X148609492Y-89795539D01*
X148597659Y-89798977D01*
X148578296Y-89802988D01*
X148558203Y-89805526D01*
X148550836Y-89808443D01*
X148550831Y-89808444D01*
X148517092Y-89821802D01*
X148505865Y-89825646D01*
X148463407Y-89837982D01*
X148456581Y-89842019D01*
X148445972Y-89848293D01*
X148428224Y-89856988D01*
X148409383Y-89864448D01*
X148402967Y-89869110D01*
X148402966Y-89869110D01*
X148373613Y-89890436D01*
X148363693Y-89896952D01*
X148332465Y-89915420D01*
X148332462Y-89915422D01*
X148325638Y-89919458D01*
X148311317Y-89933779D01*
X148296284Y-89946619D01*
X148279893Y-89958528D01*
X148271217Y-89969016D01*
X148251702Y-89992605D01*
X148243712Y-90001384D01*
X146586500Y-91658595D01*
X146524188Y-91692621D01*
X146497405Y-91695500D01*
X143824594Y-91695500D01*
X143756473Y-91675498D01*
X143735499Y-91658595D01*
X142108652Y-90031747D01*
X142101112Y-90023461D01*
X142097000Y-90016982D01*
X142047348Y-89970356D01*
X142044507Y-89967602D01*
X142024770Y-89947865D01*
X142021573Y-89945385D01*
X142012551Y-89937680D01*
X141999122Y-89925069D01*
X141980321Y-89907414D01*
X141973375Y-89903595D01*
X141973372Y-89903593D01*
X141962566Y-89897652D01*
X141946047Y-89886801D01*
X141945583Y-89886441D01*
X141930041Y-89874386D01*
X141922772Y-89871241D01*
X141922768Y-89871238D01*
X141889463Y-89856826D01*
X141878813Y-89851609D01*
X141840060Y-89830305D01*
X141820437Y-89825267D01*
X141801734Y-89818863D01*
X141790420Y-89813967D01*
X141790419Y-89813967D01*
X141783145Y-89810819D01*
X141775322Y-89809580D01*
X141775312Y-89809577D01*
X141739476Y-89803901D01*
X141727856Y-89801495D01*
X141692711Y-89792472D01*
X141692710Y-89792472D01*
X141685030Y-89790500D01*
X141664776Y-89790500D01*
X141645065Y-89788949D01*
X141632886Y-89787020D01*
X141625057Y-89785780D01*
X141619236Y-89786330D01*
X141552657Y-89764488D01*
X141508521Y-89710923D01*
X141501413Y-89694576D01*
X141499354Y-89689840D01*
X141378014Y-89502277D01*
X141227670Y-89337051D01*
X141223619Y-89333852D01*
X141223615Y-89333848D01*
X141056414Y-89201800D01*
X141056410Y-89201798D01*
X141052359Y-89198598D01*
X140939522Y-89136309D01*
X140889551Y-89085876D01*
X140874779Y-89016433D01*
X140899895Y-88950028D01*
X140956926Y-88907743D01*
X141000415Y-88900000D01*
X143970546Y-88900000D01*
X144038667Y-88920002D01*
G37*
G04 #@! TD.AperFunction*
G04 #@! TA.AperFunction,NonConductor*
G36*
X151924503Y-91077502D02*
G01*
X151951619Y-91101003D01*
X152040860Y-91204025D01*
X152044250Y-91207938D01*
X152216126Y-91350632D01*
X152409000Y-91463338D01*
X152617692Y-91543030D01*
X152622760Y-91544061D01*
X152622763Y-91544062D01*
X152717508Y-91563338D01*
X152836597Y-91587567D01*
X152841772Y-91587757D01*
X152841774Y-91587757D01*
X153054673Y-91595564D01*
X153054677Y-91595564D01*
X153059837Y-91595753D01*
X153064957Y-91595097D01*
X153064959Y-91595097D01*
X153276288Y-91568025D01*
X153276289Y-91568025D01*
X153281416Y-91567368D01*
X153312378Y-91558079D01*
X153490429Y-91504661D01*
X153490434Y-91504659D01*
X153495384Y-91503174D01*
X153695994Y-91404896D01*
X153724831Y-91384327D01*
X153791905Y-91361053D01*
X153860913Y-91377736D01*
X153909947Y-91429079D01*
X153924000Y-91486905D01*
X153924000Y-103252000D01*
X153903998Y-103320121D01*
X153850342Y-103366614D01*
X153798000Y-103378000D01*
X146822581Y-103378000D01*
X146754460Y-103357998D01*
X146707967Y-103304342D01*
X146697863Y-103234068D01*
X146702022Y-103215372D01*
X146728867Y-103127015D01*
X146730370Y-103122069D01*
X146759529Y-102900590D01*
X146761156Y-102834000D01*
X146742852Y-102611361D01*
X146688431Y-102394702D01*
X146599354Y-102189840D01*
X146478014Y-102002277D01*
X146327670Y-101837051D01*
X146323619Y-101833852D01*
X146323615Y-101833848D01*
X146156414Y-101701800D01*
X146156410Y-101701798D01*
X146152359Y-101698598D01*
X145956789Y-101590638D01*
X145951920Y-101588914D01*
X145951916Y-101588912D01*
X145751087Y-101517795D01*
X145751083Y-101517794D01*
X145746212Y-101516069D01*
X145741119Y-101515162D01*
X145741116Y-101515161D01*
X145531373Y-101477800D01*
X145531367Y-101477799D01*
X145526284Y-101476894D01*
X145452452Y-101475992D01*
X145308081Y-101474228D01*
X145308079Y-101474228D01*
X145302911Y-101474165D01*
X145082091Y-101507955D01*
X144869756Y-101577357D01*
X144671607Y-101680507D01*
X144667474Y-101683610D01*
X144667471Y-101683612D01*
X144497100Y-101811530D01*
X144492965Y-101814635D01*
X144338629Y-101976138D01*
X144212743Y-102160680D01*
X144118688Y-102363305D01*
X144058989Y-102578570D01*
X144035251Y-102800695D01*
X144035548Y-102805848D01*
X144035548Y-102805851D01*
X144041011Y-102900590D01*
X144048110Y-103023715D01*
X144049247Y-103028761D01*
X144049248Y-103028767D01*
X144093314Y-103224299D01*
X144088778Y-103295151D01*
X144046656Y-103352302D01*
X143980323Y-103377608D01*
X143970397Y-103378000D01*
X139826000Y-103378000D01*
X139757879Y-103357998D01*
X139711386Y-103304342D01*
X139700000Y-103252000D01*
X139700000Y-101219000D01*
X147865526Y-101219000D01*
X147885391Y-101471403D01*
X147886545Y-101476210D01*
X147886546Y-101476216D01*
X147914616Y-101593137D01*
X147944495Y-101717591D01*
X147946388Y-101722162D01*
X147946389Y-101722164D01*
X147995559Y-101840870D01*
X148041384Y-101951502D01*
X148173672Y-102167376D01*
X148338102Y-102359898D01*
X148530624Y-102524328D01*
X148746498Y-102656616D01*
X148751068Y-102658509D01*
X148751072Y-102658511D01*
X148975836Y-102751611D01*
X148980409Y-102753505D01*
X149065032Y-102773821D01*
X149221784Y-102811454D01*
X149221790Y-102811455D01*
X149226597Y-102812609D01*
X149479000Y-102832474D01*
X149731403Y-102812609D01*
X149736210Y-102811455D01*
X149736216Y-102811454D01*
X149892968Y-102773821D01*
X149977591Y-102753505D01*
X149982164Y-102751611D01*
X150206928Y-102658511D01*
X150206932Y-102658509D01*
X150211502Y-102656616D01*
X150427376Y-102524328D01*
X150619898Y-102359898D01*
X150784328Y-102167376D01*
X150916616Y-101951502D01*
X150962442Y-101840870D01*
X151011611Y-101722164D01*
X151011612Y-101722162D01*
X151013505Y-101717591D01*
X151043384Y-101593137D01*
X151071454Y-101476216D01*
X151071455Y-101476210D01*
X151072609Y-101471403D01*
X151092474Y-101219000D01*
X151072609Y-100966597D01*
X151013505Y-100720409D01*
X150916616Y-100486498D01*
X150784328Y-100270624D01*
X150619898Y-100078102D01*
X150427376Y-99913672D01*
X150211502Y-99781384D01*
X150206932Y-99779491D01*
X150206928Y-99779489D01*
X149982164Y-99686389D01*
X149982162Y-99686388D01*
X149977591Y-99684495D01*
X149892968Y-99664179D01*
X149736216Y-99626546D01*
X149736210Y-99626545D01*
X149731403Y-99625391D01*
X149479000Y-99605526D01*
X149226597Y-99625391D01*
X149221790Y-99626545D01*
X149221784Y-99626546D01*
X149065032Y-99664179D01*
X148980409Y-99684495D01*
X148975838Y-99686388D01*
X148975836Y-99686389D01*
X148751072Y-99779489D01*
X148751068Y-99779491D01*
X148746498Y-99781384D01*
X148530624Y-99913672D01*
X148338102Y-100078102D01*
X148173672Y-100270624D01*
X148041384Y-100486498D01*
X147944495Y-100720409D01*
X147885391Y-100966597D01*
X147865526Y-101219000D01*
X139700000Y-101219000D01*
X139700000Y-96074774D01*
X140497102Y-96074774D01*
X140497302Y-96080103D01*
X140497302Y-96080105D01*
X140499298Y-96133273D01*
X140505751Y-96305158D01*
X140553093Y-96530791D01*
X140637776Y-96745221D01*
X140757377Y-96942317D01*
X140760874Y-96946347D01*
X140864629Y-97065914D01*
X140908477Y-97116445D01*
X140912608Y-97119832D01*
X141082627Y-97259240D01*
X141082633Y-97259244D01*
X141086755Y-97262624D01*
X141091391Y-97265263D01*
X141091394Y-97265265D01*
X141200422Y-97327327D01*
X141287114Y-97376675D01*
X141503825Y-97455337D01*
X141509074Y-97456286D01*
X141509077Y-97456287D01*
X141726608Y-97495623D01*
X141726615Y-97495624D01*
X141730692Y-97496361D01*
X141754844Y-97497500D01*
X141754815Y-97498117D01*
X141820232Y-97519055D01*
X141865415Y-97573818D01*
X141873818Y-97644316D01*
X141845381Y-97705206D01*
X141823672Y-97730624D01*
X141691384Y-97946498D01*
X141689491Y-97951068D01*
X141689489Y-97951072D01*
X141596389Y-98175836D01*
X141594495Y-98180409D01*
X141593340Y-98185221D01*
X141555401Y-98343250D01*
X141535391Y-98426597D01*
X141515526Y-98679000D01*
X141535391Y-98931403D01*
X141594495Y-99177591D01*
X141691384Y-99411502D01*
X141823672Y-99627376D01*
X141988102Y-99819898D01*
X142180624Y-99984328D01*
X142396498Y-100116616D01*
X142401068Y-100118509D01*
X142401072Y-100118511D01*
X142625836Y-100211611D01*
X142630409Y-100213505D01*
X142715032Y-100233821D01*
X142871784Y-100271454D01*
X142871790Y-100271455D01*
X142876597Y-100272609D01*
X143129000Y-100292474D01*
X143381403Y-100272609D01*
X143386210Y-100271455D01*
X143386216Y-100271454D01*
X143542968Y-100233821D01*
X143627591Y-100213505D01*
X143632164Y-100211611D01*
X143856928Y-100118511D01*
X143856932Y-100118509D01*
X143861502Y-100116616D01*
X144077376Y-99984328D01*
X144269898Y-99819898D01*
X144434328Y-99627376D01*
X144566616Y-99411502D01*
X144663505Y-99177591D01*
X144722609Y-98931403D01*
X144742474Y-98679000D01*
X144722609Y-98426597D01*
X144702600Y-98343250D01*
X144664660Y-98185221D01*
X144663505Y-98180409D01*
X144661611Y-98175836D01*
X144568511Y-97951072D01*
X144568509Y-97951068D01*
X144566616Y-97946498D01*
X144434328Y-97730624D01*
X144269898Y-97538102D01*
X144077376Y-97373672D01*
X143861502Y-97241384D01*
X143856932Y-97239491D01*
X143856928Y-97239489D01*
X143632164Y-97146389D01*
X143632162Y-97146388D01*
X143627591Y-97144495D01*
X143542968Y-97124179D01*
X143386216Y-97086546D01*
X143386210Y-97086545D01*
X143381403Y-97085391D01*
X143129000Y-97065526D01*
X143124070Y-97065914D01*
X143124065Y-97065914D01*
X143122985Y-97065999D01*
X143122580Y-97065914D01*
X143119114Y-97065914D01*
X143119114Y-97065186D01*
X143053505Y-97051401D01*
X143002947Y-97001558D01*
X142987362Y-96932293D01*
X143012012Y-96865175D01*
X143017754Y-96857458D01*
X143122240Y-96651949D01*
X143135274Y-96609975D01*
X143189024Y-96436871D01*
X143190607Y-96431773D01*
X143191308Y-96426484D01*
X143220198Y-96208511D01*
X143220198Y-96208506D01*
X143220898Y-96203226D01*
X143212249Y-95972842D01*
X143164907Y-95747209D01*
X143080224Y-95532779D01*
X142960623Y-95335683D01*
X142873755Y-95235576D01*
X142813023Y-95165588D01*
X142813021Y-95165586D01*
X142809523Y-95161555D01*
X142767970Y-95127484D01*
X142635373Y-95018760D01*
X142635367Y-95018756D01*
X142631245Y-95015376D01*
X142626609Y-95012737D01*
X142626606Y-95012735D01*
X142435529Y-94903968D01*
X142430886Y-94901325D01*
X142214175Y-94822663D01*
X142208926Y-94821714D01*
X142208923Y-94821713D01*
X141991392Y-94782377D01*
X141991385Y-94782376D01*
X141987308Y-94781639D01*
X141969586Y-94780803D01*
X141964644Y-94780570D01*
X141964637Y-94780570D01*
X141963156Y-94780500D01*
X141801110Y-94780500D01*
X141734191Y-94786178D01*
X141634591Y-94794629D01*
X141634587Y-94794630D01*
X141629280Y-94795080D01*
X141624125Y-94796418D01*
X141624119Y-94796419D01*
X141411297Y-94851657D01*
X141411293Y-94851658D01*
X141406128Y-94852999D01*
X141401262Y-94855191D01*
X141401259Y-94855192D01*
X141292980Y-94903968D01*
X141195925Y-94947688D01*
X141004681Y-95076441D01*
X140837865Y-95235576D01*
X140700246Y-95420542D01*
X140595760Y-95626051D01*
X140594178Y-95631145D01*
X140594177Y-95631148D01*
X140532115Y-95831020D01*
X140527393Y-95846227D01*
X140526692Y-95851516D01*
X140503913Y-96023386D01*
X140497102Y-96074774D01*
X139700000Y-96074774D01*
X139700000Y-91742891D01*
X139720002Y-91674770D01*
X139773658Y-91628277D01*
X139843932Y-91618173D01*
X139870948Y-91625181D01*
X139912856Y-91641184D01*
X139912864Y-91641186D01*
X139917692Y-91643030D01*
X139922760Y-91644061D01*
X139922763Y-91644062D01*
X140010932Y-91662000D01*
X140136597Y-91687567D01*
X140141772Y-91687757D01*
X140141774Y-91687757D01*
X140354673Y-91695564D01*
X140354677Y-91695564D01*
X140359837Y-91695753D01*
X140364957Y-91695097D01*
X140364959Y-91695097D01*
X140576288Y-91668025D01*
X140576289Y-91668025D01*
X140581416Y-91667368D01*
X140586366Y-91665883D01*
X140790429Y-91604661D01*
X140790434Y-91604659D01*
X140795384Y-91603174D01*
X140995994Y-91504896D01*
X141177860Y-91375173D01*
X141181515Y-91371531D01*
X141181523Y-91371524D01*
X141330392Y-91223175D01*
X141392763Y-91189259D01*
X141463570Y-91194448D01*
X141508426Y-91223331D01*
X143006348Y-92721253D01*
X143013888Y-92729539D01*
X143018000Y-92736018D01*
X143023777Y-92741443D01*
X143067651Y-92782643D01*
X143070493Y-92785398D01*
X143090230Y-92805135D01*
X143093427Y-92807615D01*
X143102447Y-92815318D01*
X143134679Y-92845586D01*
X143141625Y-92849405D01*
X143141628Y-92849407D01*
X143152434Y-92855348D01*
X143168953Y-92866199D01*
X143184959Y-92878614D01*
X143192228Y-92881759D01*
X143192232Y-92881762D01*
X143225537Y-92896174D01*
X143236187Y-92901391D01*
X143274940Y-92922695D01*
X143282615Y-92924666D01*
X143282616Y-92924666D01*
X143294562Y-92927733D01*
X143313267Y-92934137D01*
X143331855Y-92942181D01*
X143339678Y-92943420D01*
X143339688Y-92943423D01*
X143375524Y-92949099D01*
X143387144Y-92951505D01*
X143418959Y-92959673D01*
X143429970Y-92962500D01*
X143450224Y-92962500D01*
X143469934Y-92964051D01*
X143489943Y-92967220D01*
X143497835Y-92966474D01*
X143516580Y-92964702D01*
X143533962Y-92963059D01*
X143545819Y-92962500D01*
X146733233Y-92962500D01*
X146744416Y-92963027D01*
X146751909Y-92964702D01*
X146759835Y-92964453D01*
X146759836Y-92964453D01*
X146819986Y-92962562D01*
X146823945Y-92962500D01*
X146851856Y-92962500D01*
X146855791Y-92962003D01*
X146855856Y-92961995D01*
X146867693Y-92961062D01*
X146899951Y-92960048D01*
X146903970Y-92959922D01*
X146911889Y-92959673D01*
X146931343Y-92954021D01*
X146950700Y-92950013D01*
X146962930Y-92948468D01*
X146962931Y-92948468D01*
X146970797Y-92947474D01*
X146978168Y-92944555D01*
X146978170Y-92944555D01*
X147011912Y-92931196D01*
X147023142Y-92927351D01*
X147057983Y-92917229D01*
X147057984Y-92917229D01*
X147065593Y-92915018D01*
X147072412Y-92910985D01*
X147072417Y-92910983D01*
X147083028Y-92904707D01*
X147100776Y-92896012D01*
X147119617Y-92888552D01*
X147155387Y-92862564D01*
X147165307Y-92856048D01*
X147196535Y-92837580D01*
X147196538Y-92837578D01*
X147203362Y-92833542D01*
X147217683Y-92819221D01*
X147232717Y-92806380D01*
X147242694Y-92799131D01*
X147249107Y-92794472D01*
X147277298Y-92760395D01*
X147285288Y-92751616D01*
X148374905Y-91662000D01*
X148437217Y-91627974D01*
X148508033Y-91633039D01*
X148564868Y-91675586D01*
X148589679Y-91742106D01*
X148590000Y-91751095D01*
X148590000Y-93986561D01*
X148569998Y-94054682D01*
X148516342Y-94101175D01*
X148446068Y-94111279D01*
X148396486Y-94092946D01*
X148153216Y-93938562D01*
X148153215Y-93938562D01*
X148149869Y-93936438D01*
X148146290Y-93934754D01*
X148146283Y-93934750D01*
X147867856Y-93803733D01*
X147867852Y-93803731D01*
X147864266Y-93802044D01*
X147564072Y-93704505D01*
X147254020Y-93645359D01*
X147017838Y-93630500D01*
X146860162Y-93630500D01*
X146623980Y-93645359D01*
X146313928Y-93704505D01*
X146013734Y-93802044D01*
X146010148Y-93803731D01*
X146010144Y-93803733D01*
X145731717Y-93934750D01*
X145731710Y-93934754D01*
X145728131Y-93936438D01*
X145461625Y-94105568D01*
X145218418Y-94306767D01*
X145002346Y-94536860D01*
X144816816Y-94792221D01*
X144814909Y-94795690D01*
X144814907Y-94795693D01*
X144731347Y-94947688D01*
X144664753Y-95068821D01*
X144663300Y-95072490D01*
X144663298Y-95072495D01*
X144598730Y-95235576D01*
X144548557Y-95362298D01*
X144470060Y-95668025D01*
X144430500Y-95981179D01*
X144430500Y-96296821D01*
X144470060Y-96609975D01*
X144548557Y-96915702D01*
X144550010Y-96919371D01*
X144550010Y-96919372D01*
X144660279Y-97197878D01*
X144664753Y-97209179D01*
X144666659Y-97212647D01*
X144666660Y-97212648D01*
X144800603Y-97456287D01*
X144816816Y-97485779D01*
X145002346Y-97741140D01*
X145181577Y-97932001D01*
X145199486Y-97951072D01*
X145218418Y-97971233D01*
X145461625Y-98172432D01*
X145728131Y-98341562D01*
X145731710Y-98343246D01*
X145731717Y-98343250D01*
X146010144Y-98474267D01*
X146010148Y-98474269D01*
X146013734Y-98475956D01*
X146313928Y-98573495D01*
X146623980Y-98632641D01*
X146860162Y-98647500D01*
X147017838Y-98647500D01*
X147254020Y-98632641D01*
X147564072Y-98573495D01*
X147864266Y-98475956D01*
X147867852Y-98474269D01*
X147867856Y-98474267D01*
X148146283Y-98343250D01*
X148146290Y-98343246D01*
X148149869Y-98341562D01*
X148416375Y-98172432D01*
X148659582Y-97971233D01*
X148678515Y-97951072D01*
X148696423Y-97932001D01*
X148875654Y-97741140D01*
X149061184Y-97485779D01*
X149077398Y-97456287D01*
X149211340Y-97212648D01*
X149211341Y-97212647D01*
X149213247Y-97209179D01*
X149217722Y-97197878D01*
X149327990Y-96919372D01*
X149327990Y-96919371D01*
X149329443Y-96915702D01*
X149407940Y-96609975D01*
X149447500Y-96296821D01*
X149447500Y-96138000D01*
X149467502Y-96069879D01*
X149521158Y-96023386D01*
X149573500Y-96012000D01*
X150533387Y-96012000D01*
X150601508Y-96032002D01*
X150648001Y-96085658D01*
X150659298Y-96133273D01*
X150661724Y-96197895D01*
X150665751Y-96305158D01*
X150713093Y-96530791D01*
X150797776Y-96745221D01*
X150917377Y-96942317D01*
X150920874Y-96946347D01*
X151024629Y-97065914D01*
X151068477Y-97116445D01*
X151072608Y-97119832D01*
X151242627Y-97259240D01*
X151242633Y-97259244D01*
X151246755Y-97262624D01*
X151251391Y-97265263D01*
X151251394Y-97265265D01*
X151360422Y-97327327D01*
X151447114Y-97376675D01*
X151663825Y-97455337D01*
X151669074Y-97456286D01*
X151669077Y-97456287D01*
X151886608Y-97495623D01*
X151886615Y-97495624D01*
X151890692Y-97496361D01*
X151908414Y-97497197D01*
X151913356Y-97497430D01*
X151913363Y-97497430D01*
X151914844Y-97497500D01*
X152076890Y-97497500D01*
X152143809Y-97491822D01*
X152243409Y-97483371D01*
X152243413Y-97483370D01*
X152248720Y-97482920D01*
X152253875Y-97481582D01*
X152253881Y-97481581D01*
X152466703Y-97426343D01*
X152466707Y-97426342D01*
X152471872Y-97425001D01*
X152476738Y-97422809D01*
X152476741Y-97422808D01*
X152677202Y-97332507D01*
X152682075Y-97330312D01*
X152873319Y-97201559D01*
X153040135Y-97042424D01*
X153177754Y-96857458D01*
X153282240Y-96651949D01*
X153295274Y-96609975D01*
X153349024Y-96436871D01*
X153350607Y-96431773D01*
X153351308Y-96426484D01*
X153380198Y-96208511D01*
X153380198Y-96208506D01*
X153380898Y-96203226D01*
X153372249Y-95972842D01*
X153324907Y-95747209D01*
X153240224Y-95532779D01*
X153120623Y-95335683D01*
X153033755Y-95235576D01*
X152973023Y-95165588D01*
X152973021Y-95165586D01*
X152969523Y-95161555D01*
X152927970Y-95127484D01*
X152795373Y-95018760D01*
X152795367Y-95018756D01*
X152791245Y-95015376D01*
X152786609Y-95012737D01*
X152786606Y-95012735D01*
X152595529Y-94903968D01*
X152590886Y-94901325D01*
X152374175Y-94822663D01*
X152368926Y-94821714D01*
X152368923Y-94821713D01*
X152151392Y-94782377D01*
X152151385Y-94782376D01*
X152147308Y-94781639D01*
X152129586Y-94780803D01*
X152124644Y-94780570D01*
X152124637Y-94780570D01*
X152123156Y-94780500D01*
X151961110Y-94780500D01*
X151789280Y-94795080D01*
X151784967Y-94796199D01*
X151714711Y-94787990D01*
X151659843Y-94742935D01*
X151638000Y-94672031D01*
X151638000Y-91321702D01*
X151638002Y-91320932D01*
X151638007Y-91320078D01*
X151638476Y-91243348D01*
X151631267Y-91218125D01*
X151631779Y-91147132D01*
X151670591Y-91087684D01*
X151735383Y-91058657D01*
X151752416Y-91057500D01*
X151856382Y-91057500D01*
X151924503Y-91077502D01*
G37*
G04 #@! TD.AperFunction*
M02*
