0
SECTION
2
HEADER
9
$INSUNITS
70
4
9
$ACADVER
1
AC1014
9
$HANDSEED
5
FFFF
0
ENDSEC
0
SECTION
2
TABLES
0
TABLE
2
VPORT
5
8
100
AcDbSymbolTable
0
ENDTAB
0
TABLE
2
LTYPE
5
5
100
AcDbSymbolTable
0
LTYPE
5
14
100
AcDbSymbolTableRecord
100
AcDbLinetypeTableRecord
2
BYBLOCK
70
0
0
LTYPE
5
15
100
AcDbSymbolTableRecord
100
AcDbLinetypeTableRecord
2
BYLAYER
70
0
0
ENDTAB
0
TABLE
2
LAYER
5
2
100
AcDbSymbolTable
70
2
0
LAYER
5
50
100
AcDbSymbolTableRecord
100
AcDbLayerTableRecord
2
0
70
0
6
CONTINUOUS
0
ENDTAB
0
TABLE
2
STYLE
5
3
100
AcDbSymbolTable
70
1
0
STYLE
5
11
100
AcDbSymbolTableRecord
100
AcDbTextStyleTableRecord
2
STANDARD
70
0
0
ENDTAB
0
TABLE
2
VIEW
5
6
100
AcDbSymbolTable
70
0
0
ENDTAB
0
TABLE
2
UCS
5
7
100
AcDbSymbolTable
70
0
0
ENDTAB
0
TABLE
2
APPID
5
9
100
AcDbSymbolTable
70
2
0
APPID
5
12
100
AcDbSymbolTableRecord
100
AcDbRegAppTableRecord
2
ACAD
70
0
0
ENDTAB
0
TABLE
2
DIMSTYLE
5
A
100
AcDbSymbolTable
70
1
0
ENDTAB
0
TABLE
2
BLOCK_RECORD
5
1
100
AcDbSymbolTable
70
1
0
BLOCK_RECORD
5
1F
100
AcDbSymbolTableRecord
100
AcDbBlockTableRecord
2
*MODEL_SPACE
0
BLOCK_RECORD
5
1B
100
AcDbSymbolTableRecord
100
AcDbBlockTableRecord
2
*PAPER_SPACE
0
ENDTAB
0
ENDSEC
0
SECTION
2
BLOCKS
0
BLOCK
5
20
100
AcDbEntity
100
AcDbBlockBegin
2
*MODEL_SPACE
0
ENDBLK
5
21
100
AcDbEntity
100
AcDbBlockEnd
0
BLOCK
5
1C
100
AcDbEntity
100
AcDbBlockBegin
2
*PAPER_SPACE
0
ENDBLK
5
1D
100
AcDbEntity
100
AcDbBlockEnd
0
ENDSEC
0
SECTION
2
ENTITIES
0
ELLIPSE
5
100
100
AcDbEntity
8
0
100
AcDbEllipse
10
-66.050000000000011
20
-0.28212316913354429
30
0
11
2.4619874217960086e-16
21
1.2692832648571812
31
0.0
40
0.98480775301220813
41
4.9365307348882492
42
7.6298398794709241
0
LINE
5
101
100
AcDbEntity
8
0
100
AcDbLine
10
-64.831268464916931
20
-5.8333808294386381e-16
30
0
11
0
21
0
31
0
0
LINE
5
102
100
AcDbEntity
8
0
100
AcDbLine
10
0
20
0
30
0
11
0
21
47.050000000000011
31
0
0
LINE
5
103
100
AcDbEntity
8
0
100
AcDbLine
10
0
20
47.050000000000011
30
0
11
-64.831268464916917
21
47.049999999999997
31
0
0
ELLIPSE
5
104
100
AcDbEntity
8
0
100
AcDbEllipse
10
-66.050000000000011
20
47.332123169133531
30
0
11
-8.2767315838267833e-17
21
1.2692832648571808
31
0.0
40
0.98480775301220835
41
1.7949380812984479
42
4.4882472258811381
0
LINE
5
105
100
AcDbEntity
8
0
100
AcDbLine
10
-67.268731535083091
20
47.049999999999997
30
0
11
-132.10000000000002
21
47.049999999999997
31
0
0
LINE
5
106
100
AcDbEntity
8
0
100
AcDbLine
10
-132.10000000000002
20
47.049999999999997
30
0
11
-132.10000000000002
21
0
31
0
0
LINE
5
107
100
AcDbEntity
8
0
100
AcDbLine
10
-132.10000000000002
20
0
30
0
11
-67.268731535083091
21
-9.0852410639619039e-16
31
0
0
LWPOLYLINE
5
108
100
AcDbEntity
8
0
100
AcDbPolyline
90
4
70
1
43
0.0
10
-64.674999999999983
20
28.905000000000001
10
-64.674999999999983
20
30.405000000000001
10
-67.424999999999983
20
30.405000000000001
10
-67.424999999999983
20
28.905000000000001
0
CIRCLE
5
109
100
AcDbEntity
8
0
100
AcDbCircle
10
-66.050000000000011
20
23.524999999999999
30
0
40
3.7500000000000089
210
0
220
-0
230
1
0
LWPOLYLINE
5
110
100
AcDbEntity
8
0
100
AcDbPolyline
90
4
70
1
43
0.0
10
-7.0000000000000018
20
26.050000000000004
10
-7.0000000000000018
20
40.050000000000018
10
-21
20
40.050000000000018
10
-21
20
26.050000000000004
0
CIRCLE
5
111
100
AcDbEntity
8
0
100
AcDbCircle
10
-1.8747706729806719
20
45.175229327019423
30
0
40
1.1500000000000021
210
0
220
-0
230
1
0
LWPOLYLINE
5
112
100
AcDbEntity
8
0
100
AcDbPolyline
90
4
70
1
43
0.0
10
-7.0000000000000018
20
21
10
-21
20
21
10
-21
20
7.0000000000000018
10
-7.0000000000000018
20
7.0000000000000018
0
LWPOLYLINE
5
113
100
AcDbEntity
8
0
100
AcDbPolyline
90
4
70
1
43
0.0
10
-111.09999999999999
20
40.049999999999997
10
-125.10000000000004
20
40.049999999999997
10
-125.10000000000004
20
26.050000000000004
10
-111.09999999999999
20
26.050000000000004
0
LWPOLYLINE
5
114
100
AcDbEntity
8
0
100
AcDbPolyline
90
4
70
1
43
0.0
10
-111.09999999999999
20
21
10
-125.10000000000004
20
21
10
-125.10000000000004
20
7.0000000000000018
10
-111.09999999999999
20
7.0000000000000018
0
CIRCLE
5
115
100
AcDbEntity
8
0
100
AcDbCircle
10
-1.8747706729806715
20
1.8747706729806284
30
0
40
1.1499999999999997
210
0
220
-0
230
1
0
CIRCLE
5
116
100
AcDbEntity
8
0
100
AcDbCircle
10
-130.22522932701941
20
45.175229327019409
30
0
40
1.1500000000000021
210
0
220
-0
230
1
0
LWPOLYLINE
5
117
100
AcDbEntity
8
0
100
AcDbPolyline
90
4
70
1
43
0.0
10
-26.050000000000004
20
7.0000000000000018
10
-26.050000000000004
20
21
10
-40.050000000000018
20
21
10
-40.050000000000018
20
7.0000000000000018
0
CIRCLE
5
118
100
AcDbEntity
8
0
100
AcDbCircle
10
-130.22522932701941
20
1.8747706729805758
30
0
40
1.1500000000000021
210
0
220
-0
230
1
0
LWPOLYLINE
5
119
100
AcDbEntity
8
0
100
AcDbPolyline
90
4
70
1
43
0.0
10
-26.050000000000004
20
26.050000000000004
10
-26.050000000000004
20
40.049999999999997
10
-40.050000000000018
20
40.049999999999997
10
-40.050000000000018
20
26.050000000000004
0
LWPOLYLINE
5
120
100
AcDbEntity
8
0
100
AcDbPolyline
90
4
70
1
43
0.0
10
-92.049999999999997
20
7.0000000000000018
10
-92.049999999999997
20
21
10
-106.05000000000001
20
21
10
-106.05000000000001
20
7.0000000000000018
0
LWPOLYLINE
5
121
100
AcDbEntity
8
0
100
AcDbPolyline
90
4
70
1
43
0.0
10
-106.05000000000001
20
40.049999999999997
10
-106.05000000000001
20
26.050000000000004
10
-92.049999999999997
20
26.050000000000004
10
-92.049999999999997
20
40.049999999999997
0
ELLIPSE
5
122
100
AcDbEntity
8
0
100
AcDbEllipse
10
-66.050000000000011
20
47.332123169133531
30
0
11
-8.2767315838267833e-17
21
1.2692832648571808
31
0.0
40
0.98480775301220835
41
1.7949380812984479
42
4.4882472258811381
0
ELLIPSE
5
123
100
AcDbEntity
8
0
100
AcDbEllipse
10
-66.050000000000011
20
-0.28212316913354429
30
0
11
2.4619874217960086e-16
21
1.2692832648571812
31
0.0
40
0.98480775301220813
41
4.9365307348882492
42
7.6298398794709241
0
LINE
5
124
100
AcDbEntity
8
0
100
AcDbLine
10
-66.050000000000011
20
47.332123169133531
30
0
11
-66.050000000000011
21
23.524999999999999
31
0
0
LINE
5
125
100
AcDbEntity
8
0
100
AcDbLine
10
-66.050000000000011
20
23.524999999999999
30
0
11
-66.050000000000011
21
-0.28212316913354429
31
0
0
ENDSEC
0
SECTION
2
OBJECTS
0
DICTIONARY
5
C
100
AcDbDictionary
3
ACAD_GROUP
350
D
3
ACAD_MLINESTYLE
350
17
0
DICTIONARY
5
D
100
AcDbDictionary
0
DICTIONARY
5
1A
330
C
100
AcDbDictionary
0
DICTIONARY
5
17
100
AcDbDictionary
0
ENDSEC
0
EOF
