0
SECTION
2
HEADER
9
$INSUNITS
70
4
9
$ACADVER
1
AC1014
9
$HANDSEED
5
FFFF
0
ENDSEC
0
SECTION
2
TABLES
0
TABLE
2
VPORT
5
8
100
AcDbSymbolTable
0
ENDTAB
0
TABLE
2
LTYPE
5
5
100
AcDbSymbolTable
0
LTYPE
5
14
100
AcDbSymbolTableRecord
100
AcDbLinetypeTableRecord
2
BYBLOCK
70
0
0
LTYPE
5
15
100
AcDbSymbolTableRecord
100
AcDbLinetypeTableRecord
2
BYLAYER
70
0
0
ENDTAB
0
TABLE
2
LAYER
5
2
100
AcDbSymbolTable
70
2
0
LAYER
5
50
100
AcDbSymbolTableRecord
100
AcDbLayerTableRecord
2
0
70
0
6
CONTINUOUS
0
ENDTAB
0
TABLE
2
STYLE
5
3
100
AcDbSymbolTable
70
1
0
STYLE
5
11
100
AcDbSymbolTableRecord
100
AcDbTextStyleTableRecord
2
STANDARD
70
0
0
ENDTAB
0
TABLE
2
VIEW
5
6
100
AcDbSymbolTable
70
0
0
ENDTAB
0
TABLE
2
UCS
5
7
100
AcDbSymbolTable
70
0
0
ENDTAB
0
TABLE
2
APPID
5
9
100
AcDbSymbolTable
70
2
0
APPID
5
12
100
AcDbSymbolTableRecord
100
AcDbRegAppTableRecord
2
ACAD
70
0
0
ENDTAB
0
TABLE
2
DIMSTYLE
5
A
100
AcDbSymbolTable
70
1
0
ENDTAB
0
TABLE
2
BLOCK_RECORD
5
1
100
AcDbSymbolTable
70
1
0
BLOCK_RECORD
5
1F
100
AcDbSymbolTableRecord
100
AcDbBlockTableRecord
2
*MODEL_SPACE
0
BLOCK_RECORD
5
1B
100
AcDbSymbolTableRecord
100
AcDbBlockTableRecord
2
*PAPER_SPACE
0
ENDTAB
0
ENDSEC
0
SECTION
2
BLOCKS
0
BLOCK
5
20
100
AcDbEntity
100
AcDbBlockBegin
2
*MODEL_SPACE
0
ENDBLK
5
21
100
AcDbEntity
100
AcDbBlockEnd
0
BLOCK
5
1C
100
AcDbEntity
100
AcDbBlockBegin
2
*PAPER_SPACE
0
ENDBLK
5
1D
100
AcDbEntity
100
AcDbBlockEnd
0
ENDSEC
0
SECTION
2
ENTITIES
0
LINE
5
100
100
AcDbEntity
8
0
100
AcDbLine
10
106.05000000000001
20
-26.050000000000004
30
0
11
92.049999999999997
21
-26.050000000000004
31
0
0
LINE
5
101
100
AcDbEntity
8
0
100
AcDbLine
10
92.049999999999997
20
-40.049999999999997
30
0
11
106.05000000000001
21
-40.049999999999997
31
0
0
LINE
5
102
100
AcDbEntity
8
0
100
AcDbLine
10
111.09999999999999
20
-40.049999999999997
30
0
11
125.10000000000004
21
-40.049999999999997
31
0
0
LINE
5
103
100
AcDbEntity
8
0
100
AcDbLine
10
21
20
-26.050000000000004
30
0
11
7.0000000000000018
21
-26.050000000000004
31
0
0
LWPOLYLINE
5
104
100
AcDbEntity
8
0
100
AcDbPolyline
90
4
70
1
43
0.0
10
132.10000000000002
20
-47.049999999999997
10
0
20
-47.050000000000011
10
0
20
0
10
132.10000000000002
20
0
0
LINE
5
105
100
AcDbEntity
8
0
100
AcDbLine
10
125.10000000000004
20
-7.0000000000000018
30
0
11
111.09999999999999
21
-7.0000000000000018
31
0
0
LINE
5
106
100
AcDbEntity
8
0
100
AcDbLine
10
125.10000000000004
20
-21
30
0
11
125.10000000000004
21
-7.0000000000000018
31
0
0
LINE
5
107
100
AcDbEntity
8
0
100
AcDbLine
10
26.050000000000004
20
-7.0000000000000018
30
0
11
26.050000000000004
21
-21
31
0
0
LINE
5
108
100
AcDbEntity
8
0
100
AcDbLine
10
92.049999999999997
20
-21
30
0
11
106.05000000000001
21
-21
31
0
0
LINE
5
109
100
AcDbEntity
8
0
100
AcDbLine
10
125.10000000000004
20
-26.050000000000004
30
0
11
111.09999999999999
21
-26.050000000000004
31
0
0
LINE
5
110
100
AcDbEntity
8
0
100
AcDbLine
10
40.050000000000018
20
-21
30
0
11
40.050000000000018
21
-7.0000000000000018
31
0
0
LINE
5
111
100
AcDbEntity
8
0
100
AcDbLine
10
66.050000000000011
20
-1.6969288826472773
30
0
11
66.050000000000011
21
-47.049999999999997
31
0
0
LINE
5
112
100
AcDbEntity
8
0
100
AcDbLine
10
92.049999999999997
20
-26.050000000000004
30
0
11
92.049999999999997
21
-40.049999999999997
31
0
0
LINE
5
113
100
AcDbEntity
8
0
100
AcDbLine
10
7.0000000000000018
20
-40.050000000000018
30
0
11
21
21
-40.050000000000018
31
0
0
LINE
5
114
100
AcDbEntity
8
0
100
AcDbLine
10
40.050000000000018
20
-7.0000000000000018
30
0
11
26.050000000000004
21
-7.0000000000000018
31
0
0
LINE
5
115
100
AcDbEntity
8
0
100
AcDbLine
10
7.0000000000000018
20
-7.0000000000000018
30
0
11
7.0000000000000018
21
-21
31
0
0
LINE
5
116
100
AcDbEntity
8
0
100
AcDbLine
10
21
20
-40.050000000000018
30
0
11
21
21
-26.050000000000004
31
0
0
LINE
5
117
100
AcDbEntity
8
0
100
AcDbLine
10
26.050000000000004
20
-40.049999999999997
30
0
11
40.050000000000018
21
-40.049999999999997
31
0
0
LINE
5
118
100
AcDbEntity
8
0
100
AcDbLine
10
92.049999999999997
20
-7.0000000000000018
30
0
11
92.049999999999997
21
-21
31
0
0
LINE
5
119
100
AcDbEntity
8
0
100
AcDbLine
10
106.05000000000001
20
-21
30
0
11
106.05000000000001
21
-7.0000000000000018
31
0
0
LINE
5
120
100
AcDbEntity
8
0
100
AcDbLine
10
111.09999999999999
20
-7.0000000000000018
30
0
11
111.09999999999999
21
-21
31
0
0
LINE
5
121
100
AcDbEntity
8
0
100
AcDbLine
10
40.050000000000018
20
-26.050000000000004
30
0
11
26.050000000000004
21
-26.050000000000004
31
0
0
LINE
5
122
100
AcDbEntity
8
0
100
AcDbLine
10
7.0000000000000018
20
-26.050000000000004
30
0
11
7.0000000000000018
21
-40.050000000000018
31
0
0
LINE
5
123
100
AcDbEntity
8
0
100
AcDbLine
10
40.050000000000018
20
-40.049999999999997
30
0
11
40.050000000000018
21
-26.050000000000004
31
0
0
LINE
5
124
100
AcDbEntity
8
0
100
AcDbLine
10
7.0000000000000018
20
-21
30
0
11
21
21
-21
31
0
0
LINE
5
125
100
AcDbEntity
8
0
100
AcDbLine
10
26.050000000000004
20
-26.050000000000004
30
0
11
26.050000000000004
21
-40.049999999999997
31
0
0
LINE
5
126
100
AcDbEntity
8
0
100
AcDbLine
10
21
20
-7.0000000000000018
30
0
11
7.0000000000000018
21
-7.0000000000000018
31
0
0
LINE
5
127
100
AcDbEntity
8
0
100
AcDbLine
10
111.09999999999999
20
-26.050000000000004
30
0
11
111.09999999999999
21
-40.049999999999997
31
0
0
LINE
5
128
100
AcDbEntity
8
0
100
AcDbLine
10
125.10000000000004
20
-40.049999999999997
30
0
11
125.10000000000004
21
-26.050000000000004
31
0
0
LINE
5
129
100
AcDbEntity
8
0
100
AcDbLine
10
66.050000000000011
20
0
30
0
11
66.050000000000011
21
-1.6969288826472773
31
0
0
LINE
5
130
100
AcDbEntity
8
0
100
AcDbLine
10
26.050000000000004
20
-21
30
0
11
40.050000000000018
21
-21
31
0
0
LINE
5
131
100
AcDbEntity
8
0
100
AcDbLine
10
106.05000000000001
20
-7.0000000000000018
30
0
11
92.049999999999997
21
-7.0000000000000018
31
0
0
LINE
5
132
100
AcDbEntity
8
0
100
AcDbLine
10
111.09999999999999
20
-21
30
0
11
125.10000000000004
21
-21
31
0
0
LINE
5
133
100
AcDbEntity
8
0
100
AcDbLine
10
106.05000000000001
20
-40.049999999999997
30
0
11
106.05000000000001
21
-26.050000000000004
31
0
0
LINE
5
134
100
AcDbEntity
8
0
100
AcDbLine
10
21
20
-21
30
0
11
21
21
-7.0000000000000018
31
0
0
CIRCLE
5
135
100
AcDbEntity
8
0
100
AcDbCircle
10
66.050000000000011
20
-23.524999999999999
30
0
40
3.7500000000000049
210
0
220
0
230
1
0
LINE
5
136
100
AcDbEntity
8
0
100
AcDbLine
10
40.050000000000018
20
-7.0000000000000018
30
0
11
26.050000000000004
21
-21
31
0
0
CIRCLE
5
137
100
AcDbEntity
8
0
100
AcDbCircle
10
33.050000000000011
20
-14.000000000000002
30
0
40
4.7235385824570226
210
0
220
0
230
1
0
LINE
5
138
100
AcDbEntity
8
0
100
AcDbLine
10
92.049999999999997
20
-21
30
0
11
92.049999999999997
21
-26.050000000000004
31
0
0
LINE
5
139
100
AcDbEntity
8
0
100
AcDbLine
10
92.049999999999997
20
-23.524999999999999
30
0
11
66.050000000000011
21
-23.524999999999999
31
0
0
LINE
5
140
100
AcDbEntity
8
0
100
AcDbLine
10
26.050000000000004
20
-40.049999999999997
30
0
11
40.050000000000018
21
-26.050000000000004
31
0
0
LINE
5
141
100
AcDbEntity
8
0
100
AcDbLine
10
21
20
-40.050000000000018
30
0
11
7.0000000000000018
21
-26.050000000000004
31
0
0
LINE
5
142
100
AcDbEntity
8
0
100
AcDbLine
10
7.0000000000000018
20
-21
30
0
11
21
21
-7.0000000000000018
31
0
0
LINE
5
143
100
AcDbEntity
8
0
100
AcDbLine
10
106.05000000000001
20
-21
30
0
11
92.049999999999997
21
-7.0000000000000018
31
0
0
LINE
5
144
100
AcDbEntity
8
0
100
AcDbLine
10
106.05000000000001
20
-40.049999999999997
30
0
11
92.049999999999997
21
-26.050000000000004
31
0
0
LINE
5
145
100
AcDbEntity
8
0
100
AcDbLine
10
125.10000000000004
20
-40.049999999999997
30
0
11
111.09999999999999
21
-26.050000000000004
31
0
0
LINE
5
146
100
AcDbEntity
8
0
100
AcDbLine
10
125.10000000000004
20
-21
30
0
11
111.09999999999999
21
-7.0000000000000018
31
0
0
CIRCLE
5
147
100
AcDbEntity
8
0
100
AcDbCircle
10
118.10000000000002
20
-14.000000000000002
30
0
40
2.8775993107642033
210
0
220
0
230
1
0
CIRCLE
5
148
100
AcDbEntity
8
0
100
AcDbCircle
10
118.10000000000002
20
-33.050000000000004
30
0
40
3.6343827510618127
210
0
220
0
230
1
0
CIRCLE
5
149
100
AcDbEntity
8
0
100
AcDbCircle
10
99.050000000000011
20
-33.050000000000004
30
0
40
4.0306182340327439
210
0
220
0
230
1
0
CIRCLE
5
150
100
AcDbEntity
8
0
100
AcDbCircle
10
99.050000000000011
20
-14.000000000000002
30
0
40
4.9049981141523693
210
0
220
0
230
1
0
CIRCLE
5
151
100
AcDbEntity
8
0
100
AcDbCircle
10
33.050000000000011
20
-33.050000000000004
30
0
40
2.5644951456105853
210
0
220
0
230
1
0
CIRCLE
5
152
100
AcDbEntity
8
0
100
AcDbCircle
10
14.000000000000002
20
-33.050000000000011
30
0
40
3.3481219848660921
210
0
220
0
230
1
0
CIRCLE
5
153
100
AcDbEntity
8
0
100
AcDbCircle
10
14.000000000000002
20
-14.000000000000002
30
0
40
2.6669210025181189
210
0
220
0
230
1
0
ENDSEC
0
SECTION
2
OBJECTS
0
DICTIONARY
5
C
100
AcDbDictionary
3
ACAD_GROUP
350
D
3
ACAD_MLINESTYLE
350
17
0
DICTIONARY
5
D
100
AcDbDictionary
0
DICTIONARY
5
1A
330
C
100
AcDbDictionary
0
DICTIONARY
5
17
100
AcDbDictionary
0
ENDSEC
0
EOF
