%TF.GenerationSoftware,KiCad,Pcbnew,(5.1.6)-1*%
%TF.CreationDate,2021-01-28T10:50:38-06:00*%
%TF.ProjectId,BigSwitch,42696753-7769-4746-9368-2e6b69636164,rev?*%
%TF.SameCoordinates,Original*%
%TF.FileFunction,Copper,L1,Top*%
%TF.FilePolarity,Positive*%
%FSLAX46Y46*%
G04 Gerber Fmt 4.6, Leading zero omitted, Abs format (unit mm)*
G04 Created by KiCad (PCBNEW (5.1.6)-1) date 2021-01-28 10:50:38*
%MOMM*%
%LPD*%
G01*
G04 APERTURE LIST*
%TA.AperFunction,ComponentPad*%
%ADD10C,1.524000*%
%TD*%
%TA.AperFunction,ComponentPad*%
%ADD11O,5.000000X3.000000*%
%TD*%
%TA.AperFunction,ComponentPad*%
%ADD12C,1.600000*%
%TD*%
%TA.AperFunction,ComponentPad*%
%ADD13R,1.600000X1.600000*%
%TD*%
%TA.AperFunction,ComponentPad*%
%ADD14O,1.700000X1.700000*%
%TD*%
%TA.AperFunction,ComponentPad*%
%ADD15R,1.700000X1.700000*%
%TD*%
%TA.AperFunction,Conductor*%
%ADD16C,0.250000*%
%TD*%
%TA.AperFunction,Conductor*%
%ADD17C,0.254000*%
%TD*%
G04 APERTURE END LIST*
D10*
%TO.P,J1,3*%
%TO.N,/MISO*%
X126520000Y-85700000D03*
%TO.P,J1,4*%
%TO.N,/MOSI*%
X123980000Y-85700000D03*
%TO.P,J1,2*%
%TO.N,VCC*%
X129060000Y-85700000D03*
%TO.P,J1,1*%
%TO.N,GND*%
X131600000Y-85700000D03*
%TO.P,J1,5*%
%TO.N,/SCK*%
X121440000Y-85700000D03*
%TO.P,J1,6*%
%TO.N,/CS*%
X118900000Y-85700000D03*
%TD*%
D11*
%TO.P,MX1,1*%
%TO.N,/D7*%
X134800000Y-83200000D03*
%TO.P,MX1,2*%
%TO.N,/A0*%
X159300000Y-93500000D03*
%TD*%
D12*
%TO.P,U1,24*%
%TO.N,Net-(U1-Pad24)*%
X153580000Y-127070000D03*
%TO.P,U1,23*%
%TO.N,GND*%
X153580000Y-124530000D03*
%TO.P,U1,22*%
%TO.N,VCC*%
X153580000Y-121990000D03*
%TO.P,U1,21*%
%TO.N,Net-(U1-Pad21)*%
X153580000Y-119450000D03*
%TO.P,U1,20*%
%TO.N,Net-(U1-Pad20)*%
X153580000Y-116910000D03*
%TO.P,U1,19*%
%TO.N,Net-(U1-Pad19)*%
X153580000Y-114370000D03*
%TO.P,U1,18*%
%TO.N,Net-(U1-Pad18)*%
X153580000Y-111830000D03*
%TO.P,U1,17*%
%TO.N,/A0*%
X153580000Y-109290000D03*
%TO.P,U1,16*%
%TO.N,/SCK*%
X153580000Y-106750000D03*
%TO.P,U1,15*%
%TO.N,/MISO*%
X153580000Y-104210000D03*
%TO.P,U1,14*%
%TO.N,/MOSI*%
X153580000Y-101670000D03*
%TO.P,U1,13*%
%TO.N,/CS*%
X153580000Y-99130000D03*
%TO.P,U1,12*%
%TO.N,/D9*%
X168820000Y-99130000D03*
%TO.P,U1,11*%
%TO.N,/D8*%
X168820000Y-101670000D03*
%TO.P,U1,10*%
%TO.N,/D7*%
X168820000Y-104210000D03*
%TO.P,U1,9*%
%TO.N,/D6*%
X168820000Y-106750000D03*
%TO.P,U1,8*%
%TO.N,/D5*%
X168820000Y-109290000D03*
%TO.P,U1,7*%
%TO.N,Net-(U1-Pad7)*%
X168820000Y-111830000D03*
%TO.P,U1,6*%
%TO.N,Net-(U1-Pad6)*%
X168820000Y-114370000D03*
%TO.P,U1,5*%
%TO.N,Net-(U1-Pad5)*%
X168820000Y-116910000D03*
%TO.P,U1,4*%
%TO.N,GND*%
X168820000Y-119450000D03*
%TO.P,U1,3*%
X168820000Y-121990000D03*
%TO.P,U1,2*%
%TO.N,Net-(U1-Pad2)*%
X168820000Y-124530000D03*
D13*
%TO.P,U1,1*%
%TO.N,Net-(U1-Pad1)*%
X168820000Y-127070000D03*
%TD*%
D14*
%TO.P,J2,5*%
%TO.N,/A0*%
X166100000Y-92960000D03*
%TO.P,J2,4*%
%TO.N,/D5*%
X166100000Y-90420000D03*
%TO.P,J2,3*%
%TO.N,/D9*%
X166100000Y-87880000D03*
%TO.P,J2,2*%
%TO.N,/D8*%
X166100000Y-85340000D03*
D15*
%TO.P,J2,1*%
%TO.N,/D6*%
X166100000Y-82800000D03*
%TD*%
D16*
%TO.N,/MISO*%
X126520000Y-85700000D02*
X128720000Y-87900000D01*
X130623590Y-87900000D02*
X131341805Y-88618215D01*
X128720000Y-87900000D02*
X130623590Y-87900000D01*
X137945395Y-88618215D02*
X141427200Y-92100020D01*
X141427200Y-92100020D02*
X151663610Y-92100020D01*
X151663610Y-92100020D02*
X155749990Y-96186400D01*
X155749990Y-96186400D02*
X155749990Y-103450010D01*
X154990000Y-104210000D02*
X153580000Y-104210000D01*
X155749990Y-103450010D02*
X154990000Y-104210000D01*
X137945395Y-88618215D02*
X131341805Y-88618215D01*
%TO.N,/MOSI*%
X155130000Y-101670000D02*
X153580000Y-101670000D01*
X155299980Y-96372800D02*
X155299980Y-101500020D01*
X151477210Y-92550030D02*
X155299980Y-96372800D01*
X137758995Y-89068225D02*
X141240800Y-92550030D01*
X123980000Y-85700000D02*
X123980000Y-87680000D01*
X130787180Y-88700000D02*
X131155405Y-89068225D01*
X155299980Y-101500020D02*
X155130000Y-101670000D01*
X123980000Y-87680000D02*
X125000000Y-88700000D01*
X125000000Y-88700000D02*
X130787180Y-88700000D01*
X141240800Y-92550030D02*
X151477210Y-92550030D01*
X131155405Y-89068225D02*
X137758995Y-89068225D01*
%TO.N,VCC*%
X154710000Y-121990000D02*
X153580000Y-121990000D01*
X156200000Y-120500000D02*
X154710000Y-121990000D01*
X141613600Y-91650010D02*
X151850010Y-91650010D01*
X129060000Y-85700000D02*
X131528205Y-88168205D01*
X156200000Y-96000000D02*
X156200000Y-120500000D01*
X138131795Y-88168205D02*
X141613600Y-91650010D01*
X151850010Y-91650010D02*
X156200000Y-96000000D01*
X131528205Y-88168205D02*
X138131795Y-88168205D01*
%TO.N,/D9*%
X168820000Y-99130000D02*
X168820000Y-88820000D01*
X167880000Y-87880000D02*
X166100000Y-87880000D01*
X168820000Y-88820000D02*
X167880000Y-87880000D01*
%TO.N,/D8*%
X162575020Y-86324980D02*
X163560000Y-85340000D01*
X162575020Y-97328610D02*
X162575020Y-86324980D01*
X163560000Y-85340000D02*
X166100000Y-85340000D01*
X168820000Y-101670000D02*
X166916410Y-101670000D01*
X166916410Y-101670000D02*
X162575020Y-97328610D01*
%TO.N,/D7*%
X168820000Y-104210000D02*
X162125010Y-97515010D01*
X162125010Y-92744057D02*
X160580953Y-91200000D01*
X162125010Y-97515010D02*
X162125010Y-92744057D01*
X160580953Y-91200000D02*
X141800000Y-91200000D01*
X134800000Y-84200000D02*
X134800000Y-83200000D01*
X141800000Y-91200000D02*
X134800000Y-84200000D01*
%TD*%
D17*
%TO.N,GND*%
G36*
X169540001Y-88575405D02*
G01*
X169525546Y-88527753D01*
X169454974Y-88395724D01*
X169360001Y-88279999D01*
X169331003Y-88256201D01*
X168443804Y-87369002D01*
X168420001Y-87339999D01*
X168304276Y-87245026D01*
X168172247Y-87174454D01*
X168028986Y-87130997D01*
X167917333Y-87120000D01*
X167917322Y-87120000D01*
X167880000Y-87116324D01*
X167842678Y-87120000D01*
X167378178Y-87120000D01*
X167253475Y-86933368D01*
X167046632Y-86726525D01*
X166872240Y-86610000D01*
X167046632Y-86493475D01*
X167253475Y-86286632D01*
X167415990Y-86043411D01*
X167527932Y-85773158D01*
X167585000Y-85486260D01*
X167585000Y-85193740D01*
X167527932Y-84906842D01*
X167415990Y-84636589D01*
X167253475Y-84393368D01*
X167121620Y-84261513D01*
X167194180Y-84239502D01*
X167304494Y-84180537D01*
X167401185Y-84101185D01*
X167480537Y-84004494D01*
X167539502Y-83894180D01*
X167575812Y-83774482D01*
X167588072Y-83650000D01*
X167588072Y-81950000D01*
X167575812Y-81825518D01*
X167539502Y-81705820D01*
X167480537Y-81595506D01*
X167401185Y-81498815D01*
X167304494Y-81419463D01*
X167194180Y-81360498D01*
X167074482Y-81324188D01*
X166950000Y-81311928D01*
X165250000Y-81311928D01*
X165125518Y-81324188D01*
X165005820Y-81360498D01*
X164895506Y-81419463D01*
X164798815Y-81498815D01*
X164719463Y-81595506D01*
X164660498Y-81705820D01*
X164624188Y-81825518D01*
X164611928Y-81950000D01*
X164611928Y-83650000D01*
X164624188Y-83774482D01*
X164660498Y-83894180D01*
X164719463Y-84004494D01*
X164798815Y-84101185D01*
X164895506Y-84180537D01*
X165005820Y-84239502D01*
X165078380Y-84261513D01*
X164946525Y-84393368D01*
X164821822Y-84580000D01*
X163597322Y-84580000D01*
X163559999Y-84576324D01*
X163522676Y-84580000D01*
X163522667Y-84580000D01*
X163411014Y-84590997D01*
X163301306Y-84624276D01*
X163267753Y-84634454D01*
X163135723Y-84705026D01*
X163052083Y-84773668D01*
X163019999Y-84799999D01*
X162996201Y-84828997D01*
X162064018Y-85761181D01*
X162035020Y-85784979D01*
X162011222Y-85813977D01*
X162011221Y-85813978D01*
X161940046Y-85900704D01*
X161869474Y-86032734D01*
X161826018Y-86175995D01*
X161811344Y-86324980D01*
X161815021Y-86362312D01*
X161815021Y-91359266D01*
X161144757Y-90689003D01*
X161120954Y-90659999D01*
X161005229Y-90565026D01*
X160873200Y-90494454D01*
X160729939Y-90450997D01*
X160618286Y-90440000D01*
X160618275Y-90440000D01*
X160580953Y-90436324D01*
X160543631Y-90440000D01*
X142114802Y-90440000D01*
X136774676Y-85099875D01*
X136991881Y-84983777D01*
X137316977Y-84716977D01*
X137583777Y-84391881D01*
X137782026Y-84020982D01*
X137904108Y-83618533D01*
X137945330Y-83200000D01*
X137904108Y-82781467D01*
X137782026Y-82379018D01*
X137583777Y-82008119D01*
X137316977Y-81683023D01*
X136991881Y-81416223D01*
X136620982Y-81217974D01*
X136218533Y-81095892D01*
X135904882Y-81065000D01*
X133695118Y-81065000D01*
X133381467Y-81095892D01*
X132979018Y-81217974D01*
X132608119Y-81416223D01*
X132283023Y-81683023D01*
X132016223Y-82008119D01*
X131817974Y-82379018D01*
X131695892Y-82781467D01*
X131654670Y-83200000D01*
X131695892Y-83618533D01*
X131817974Y-84020982D01*
X131998988Y-84359637D01*
X131802865Y-84310977D01*
X131527983Y-84298090D01*
X131255867Y-84339078D01*
X130996977Y-84432364D01*
X130881020Y-84494344D01*
X130814040Y-84734435D01*
X131600000Y-85520395D01*
X131614143Y-85506253D01*
X131793748Y-85685858D01*
X131779605Y-85700000D01*
X132565565Y-86485960D01*
X132805656Y-86418980D01*
X132922756Y-86169952D01*
X132989023Y-85902865D01*
X133001910Y-85627983D01*
X132960922Y-85355867D01*
X132879023Y-85128578D01*
X132979018Y-85182026D01*
X133381467Y-85304108D01*
X133695118Y-85335000D01*
X134860199Y-85335000D01*
X136933404Y-87408205D01*
X131843007Y-87408205D01*
X131530056Y-87095255D01*
X131672017Y-87101910D01*
X131944133Y-87060922D01*
X132203023Y-86967636D01*
X132318980Y-86905656D01*
X132385960Y-86665565D01*
X131600000Y-85879605D01*
X131585858Y-85893748D01*
X131406253Y-85714143D01*
X131420395Y-85700000D01*
X130634435Y-84914040D01*
X130394344Y-84981020D01*
X130330515Y-85116760D01*
X130298005Y-85038273D01*
X130145120Y-84809465D01*
X129950535Y-84614880D01*
X129721727Y-84461995D01*
X129467490Y-84356686D01*
X129197592Y-84303000D01*
X128922408Y-84303000D01*
X128652510Y-84356686D01*
X128398273Y-84461995D01*
X128169465Y-84614880D01*
X127974880Y-84809465D01*
X127821995Y-85038273D01*
X127790000Y-85115515D01*
X127758005Y-85038273D01*
X127605120Y-84809465D01*
X127410535Y-84614880D01*
X127181727Y-84461995D01*
X126927490Y-84356686D01*
X126657592Y-84303000D01*
X126382408Y-84303000D01*
X126112510Y-84356686D01*
X125858273Y-84461995D01*
X125629465Y-84614880D01*
X125434880Y-84809465D01*
X125281995Y-85038273D01*
X125250000Y-85115515D01*
X125218005Y-85038273D01*
X125065120Y-84809465D01*
X124870535Y-84614880D01*
X124641727Y-84461995D01*
X124387490Y-84356686D01*
X124117592Y-84303000D01*
X123842408Y-84303000D01*
X123572510Y-84356686D01*
X123318273Y-84461995D01*
X123089465Y-84614880D01*
X122894880Y-84809465D01*
X122741995Y-85038273D01*
X122710000Y-85115515D01*
X122678005Y-85038273D01*
X122525120Y-84809465D01*
X122330535Y-84614880D01*
X122101727Y-84461995D01*
X121847490Y-84356686D01*
X121577592Y-84303000D01*
X121302408Y-84303000D01*
X121032510Y-84356686D01*
X120778273Y-84461995D01*
X120549465Y-84614880D01*
X120354880Y-84809465D01*
X120201995Y-85038273D01*
X120170000Y-85115515D01*
X120138005Y-85038273D01*
X119985120Y-84809465D01*
X119790535Y-84614880D01*
X119561727Y-84461995D01*
X119307490Y-84356686D01*
X119037592Y-84303000D01*
X118762408Y-84303000D01*
X118492510Y-84356686D01*
X118238273Y-84461995D01*
X118009465Y-84614880D01*
X117814880Y-84809465D01*
X117661995Y-85038273D01*
X117556686Y-85292510D01*
X117503000Y-85562408D01*
X117503000Y-85837592D01*
X117556686Y-86107490D01*
X117661995Y-86361727D01*
X117814880Y-86590535D01*
X118009465Y-86785120D01*
X118238273Y-86938005D01*
X118492510Y-87043314D01*
X118762408Y-87097000D01*
X119037592Y-87097000D01*
X119307490Y-87043314D01*
X119561727Y-86938005D01*
X119790535Y-86785120D01*
X119985120Y-86590535D01*
X120138005Y-86361727D01*
X120170000Y-86284485D01*
X120201995Y-86361727D01*
X120354880Y-86590535D01*
X120549465Y-86785120D01*
X120778273Y-86938005D01*
X121032510Y-87043314D01*
X121302408Y-87097000D01*
X121577592Y-87097000D01*
X121847490Y-87043314D01*
X122101727Y-86938005D01*
X122330535Y-86785120D01*
X122525120Y-86590535D01*
X122678005Y-86361727D01*
X122710000Y-86284485D01*
X122741995Y-86361727D01*
X122894880Y-86590535D01*
X123089465Y-86785120D01*
X123220001Y-86872341D01*
X123220001Y-87642668D01*
X123216324Y-87680000D01*
X123220001Y-87717333D01*
X123221349Y-87731014D01*
X123230998Y-87828985D01*
X123274454Y-87972246D01*
X123345026Y-88104276D01*
X123400809Y-88172247D01*
X123440000Y-88220001D01*
X123468998Y-88243799D01*
X124436200Y-89211002D01*
X124459999Y-89240001D01*
X124575724Y-89334974D01*
X124707753Y-89405546D01*
X124851014Y-89449003D01*
X124962667Y-89460000D01*
X124962677Y-89460000D01*
X125000000Y-89463676D01*
X125037323Y-89460000D01*
X130472379Y-89460000D01*
X130591601Y-89579222D01*
X130615404Y-89608226D01*
X130731129Y-89703199D01*
X130863158Y-89773771D01*
X131006419Y-89817228D01*
X131118072Y-89828225D01*
X131118080Y-89828225D01*
X131155405Y-89831901D01*
X131192730Y-89828225D01*
X137444194Y-89828225D01*
X140677000Y-93061032D01*
X140700799Y-93090031D01*
X140816524Y-93185004D01*
X140948553Y-93255576D01*
X141091814Y-93299033D01*
X141203467Y-93310030D01*
X141203477Y-93310030D01*
X141240800Y-93313706D01*
X141278123Y-93310030D01*
X151162409Y-93310030D01*
X154539980Y-96687602D01*
X154539980Y-98060584D01*
X154494759Y-98015363D01*
X154259727Y-97858320D01*
X153998574Y-97750147D01*
X153721335Y-97695000D01*
X153438665Y-97695000D01*
X153161426Y-97750147D01*
X152900273Y-97858320D01*
X152665241Y-98015363D01*
X152465363Y-98215241D01*
X152308320Y-98450273D01*
X152200147Y-98711426D01*
X152145000Y-98988665D01*
X152145000Y-99271335D01*
X152200147Y-99548574D01*
X152308320Y-99809727D01*
X152465363Y-100044759D01*
X152665241Y-100244637D01*
X152897759Y-100400000D01*
X152665241Y-100555363D01*
X152465363Y-100755241D01*
X152308320Y-100990273D01*
X152200147Y-101251426D01*
X152145000Y-101528665D01*
X152145000Y-101811335D01*
X152200147Y-102088574D01*
X152308320Y-102349727D01*
X152465363Y-102584759D01*
X152665241Y-102784637D01*
X152897759Y-102940000D01*
X152665241Y-103095363D01*
X152465363Y-103295241D01*
X152308320Y-103530273D01*
X152200147Y-103791426D01*
X152145000Y-104068665D01*
X152145000Y-104351335D01*
X152200147Y-104628574D01*
X152308320Y-104889727D01*
X152465363Y-105124759D01*
X152665241Y-105324637D01*
X152897759Y-105480000D01*
X152665241Y-105635363D01*
X152465363Y-105835241D01*
X152308320Y-106070273D01*
X152200147Y-106331426D01*
X152145000Y-106608665D01*
X152145000Y-106891335D01*
X152200147Y-107168574D01*
X152308320Y-107429727D01*
X152465363Y-107664759D01*
X152665241Y-107864637D01*
X152897759Y-108020000D01*
X152665241Y-108175363D01*
X152465363Y-108375241D01*
X152308320Y-108610273D01*
X152200147Y-108871426D01*
X152145000Y-109148665D01*
X152145000Y-109431335D01*
X152200147Y-109708574D01*
X152308320Y-109969727D01*
X152465363Y-110204759D01*
X152665241Y-110404637D01*
X152897759Y-110560000D01*
X152665241Y-110715363D01*
X152465363Y-110915241D01*
X152308320Y-111150273D01*
X152200147Y-111411426D01*
X152145000Y-111688665D01*
X152145000Y-111971335D01*
X152200147Y-112248574D01*
X152308320Y-112509727D01*
X152465363Y-112744759D01*
X152665241Y-112944637D01*
X152897759Y-113100000D01*
X152665241Y-113255363D01*
X152465363Y-113455241D01*
X152308320Y-113690273D01*
X152200147Y-113951426D01*
X152145000Y-114228665D01*
X152145000Y-114511335D01*
X152200147Y-114788574D01*
X152308320Y-115049727D01*
X152465363Y-115284759D01*
X152665241Y-115484637D01*
X152897759Y-115640000D01*
X152665241Y-115795363D01*
X152465363Y-115995241D01*
X152308320Y-116230273D01*
X152200147Y-116491426D01*
X152145000Y-116768665D01*
X152145000Y-117051335D01*
X152200147Y-117328574D01*
X152308320Y-117589727D01*
X152465363Y-117824759D01*
X152665241Y-118024637D01*
X152897759Y-118180000D01*
X152665241Y-118335363D01*
X152465363Y-118535241D01*
X152308320Y-118770273D01*
X152200147Y-119031426D01*
X152145000Y-119308665D01*
X152145000Y-119591335D01*
X152200147Y-119868574D01*
X152308320Y-120129727D01*
X152465363Y-120364759D01*
X152665241Y-120564637D01*
X152897759Y-120720000D01*
X152665241Y-120875363D01*
X152465363Y-121075241D01*
X152308320Y-121310273D01*
X152200147Y-121571426D01*
X152145000Y-121848665D01*
X152145000Y-122131335D01*
X152200147Y-122408574D01*
X152308320Y-122669727D01*
X152465363Y-122904759D01*
X152665241Y-123104637D01*
X152899128Y-123260915D01*
X152838486Y-123293329D01*
X152766903Y-123537298D01*
X153580000Y-124350395D01*
X154393097Y-123537298D01*
X154321514Y-123293329D01*
X154257008Y-123262806D01*
X154259727Y-123261680D01*
X154494759Y-123104637D01*
X154694637Y-122904759D01*
X154801616Y-122744654D01*
X154858986Y-122739003D01*
X155002247Y-122695546D01*
X155134276Y-122624974D01*
X155250001Y-122530001D01*
X155273804Y-122500997D01*
X155714289Y-122060512D01*
X167379783Y-122060512D01*
X167421213Y-122340130D01*
X167516397Y-122606292D01*
X167583329Y-122731514D01*
X167827298Y-122803097D01*
X168640395Y-121990000D01*
X167827298Y-121176903D01*
X167583329Y-121248486D01*
X167462429Y-121503996D01*
X167393700Y-121778184D01*
X167379783Y-122060512D01*
X155714289Y-122060512D01*
X156711003Y-121063799D01*
X156740001Y-121040001D01*
X156834974Y-120924276D01*
X156905546Y-120792247D01*
X156949003Y-120648986D01*
X156960000Y-120537333D01*
X156960000Y-120537324D01*
X156963676Y-120500001D01*
X156960000Y-120462678D01*
X156960000Y-119520512D01*
X167379783Y-119520512D01*
X167421213Y-119800130D01*
X167516397Y-120066292D01*
X167583329Y-120191514D01*
X167827298Y-120263097D01*
X168640395Y-119450000D01*
X167827298Y-118636903D01*
X167583329Y-118708486D01*
X167462429Y-118963996D01*
X167393700Y-119238184D01*
X167379783Y-119520512D01*
X156960000Y-119520512D01*
X156960000Y-96037323D01*
X156963676Y-96000000D01*
X156960000Y-95962677D01*
X156960000Y-95962667D01*
X156949003Y-95851014D01*
X156905546Y-95707753D01*
X156834974Y-95575724D01*
X156740001Y-95459999D01*
X156711004Y-95436202D01*
X153234801Y-91960000D01*
X156811077Y-91960000D01*
X156783023Y-91983023D01*
X156516223Y-92308119D01*
X156317974Y-92679018D01*
X156195892Y-93081467D01*
X156154670Y-93500000D01*
X156195892Y-93918533D01*
X156317974Y-94320982D01*
X156516223Y-94691881D01*
X156783023Y-95016977D01*
X157108119Y-95283777D01*
X157479018Y-95482026D01*
X157881467Y-95604108D01*
X158195118Y-95635000D01*
X160404882Y-95635000D01*
X160718533Y-95604108D01*
X161120982Y-95482026D01*
X161365010Y-95351590D01*
X161365010Y-97477687D01*
X161361334Y-97515010D01*
X161365010Y-97552332D01*
X161365010Y-97552342D01*
X161376007Y-97663995D01*
X161419464Y-97807256D01*
X161490036Y-97939286D01*
X161509977Y-97963584D01*
X161585009Y-98055011D01*
X161614013Y-98078814D01*
X167421312Y-103886114D01*
X167385000Y-104068665D01*
X167385000Y-104351335D01*
X167440147Y-104628574D01*
X167548320Y-104889727D01*
X167705363Y-105124759D01*
X167905241Y-105324637D01*
X168137759Y-105480000D01*
X167905241Y-105635363D01*
X167705363Y-105835241D01*
X167548320Y-106070273D01*
X167440147Y-106331426D01*
X167385000Y-106608665D01*
X167385000Y-106891335D01*
X167440147Y-107168574D01*
X167548320Y-107429727D01*
X167705363Y-107664759D01*
X167905241Y-107864637D01*
X168137759Y-108020000D01*
X167905241Y-108175363D01*
X167705363Y-108375241D01*
X167548320Y-108610273D01*
X167440147Y-108871426D01*
X167385000Y-109148665D01*
X167385000Y-109431335D01*
X167440147Y-109708574D01*
X167548320Y-109969727D01*
X167705363Y-110204759D01*
X167905241Y-110404637D01*
X168137759Y-110560000D01*
X167905241Y-110715363D01*
X167705363Y-110915241D01*
X167548320Y-111150273D01*
X167440147Y-111411426D01*
X167385000Y-111688665D01*
X167385000Y-111971335D01*
X167440147Y-112248574D01*
X167548320Y-112509727D01*
X167705363Y-112744759D01*
X167905241Y-112944637D01*
X168137759Y-113100000D01*
X167905241Y-113255363D01*
X167705363Y-113455241D01*
X167548320Y-113690273D01*
X167440147Y-113951426D01*
X167385000Y-114228665D01*
X167385000Y-114511335D01*
X167440147Y-114788574D01*
X167548320Y-115049727D01*
X167705363Y-115284759D01*
X167905241Y-115484637D01*
X168137759Y-115640000D01*
X167905241Y-115795363D01*
X167705363Y-115995241D01*
X167548320Y-116230273D01*
X167440147Y-116491426D01*
X167385000Y-116768665D01*
X167385000Y-117051335D01*
X167440147Y-117328574D01*
X167548320Y-117589727D01*
X167705363Y-117824759D01*
X167905241Y-118024637D01*
X168139128Y-118180915D01*
X168078486Y-118213329D01*
X168006903Y-118457298D01*
X168820000Y-119270395D01*
X168834143Y-119256253D01*
X169013748Y-119435858D01*
X168999605Y-119450000D01*
X169013748Y-119464143D01*
X168834143Y-119643748D01*
X168820000Y-119629605D01*
X168006903Y-120442702D01*
X168078486Y-120686671D01*
X168144636Y-120717971D01*
X168078486Y-120753329D01*
X168006903Y-120997298D01*
X168820000Y-121810395D01*
X168834143Y-121796253D01*
X169013748Y-121975858D01*
X168999605Y-121990000D01*
X169013748Y-122004143D01*
X168834143Y-122183748D01*
X168820000Y-122169605D01*
X168006903Y-122982702D01*
X168078486Y-123226671D01*
X168142992Y-123257194D01*
X168140273Y-123258320D01*
X167905241Y-123415363D01*
X167705363Y-123615241D01*
X167548320Y-123850273D01*
X167440147Y-124111426D01*
X167385000Y-124388665D01*
X167385000Y-124671335D01*
X167440147Y-124948574D01*
X167548320Y-125209727D01*
X167705363Y-125444759D01*
X167903961Y-125643357D01*
X167895518Y-125644188D01*
X167775820Y-125680498D01*
X167665506Y-125739463D01*
X167568815Y-125818815D01*
X167489463Y-125915506D01*
X167430498Y-126025820D01*
X167394188Y-126145518D01*
X167381928Y-126270000D01*
X167381928Y-127870000D01*
X167394188Y-127994482D01*
X167430498Y-128114180D01*
X167489463Y-128224494D01*
X167568815Y-128321185D01*
X167665506Y-128400537D01*
X167775820Y-128459502D01*
X167895518Y-128495812D01*
X168020000Y-128508072D01*
X169540000Y-128508072D01*
X169540000Y-129540000D01*
X113860000Y-129540000D01*
X113860000Y-126928665D01*
X152145000Y-126928665D01*
X152145000Y-127211335D01*
X152200147Y-127488574D01*
X152308320Y-127749727D01*
X152465363Y-127984759D01*
X152665241Y-128184637D01*
X152900273Y-128341680D01*
X153161426Y-128449853D01*
X153438665Y-128505000D01*
X153721335Y-128505000D01*
X153998574Y-128449853D01*
X154259727Y-128341680D01*
X154494759Y-128184637D01*
X154694637Y-127984759D01*
X154851680Y-127749727D01*
X154959853Y-127488574D01*
X155015000Y-127211335D01*
X155015000Y-126928665D01*
X154959853Y-126651426D01*
X154851680Y-126390273D01*
X154694637Y-126155241D01*
X154494759Y-125955363D01*
X154260872Y-125799085D01*
X154321514Y-125766671D01*
X154393097Y-125522702D01*
X153580000Y-124709605D01*
X152766903Y-125522702D01*
X152838486Y-125766671D01*
X152902992Y-125797194D01*
X152900273Y-125798320D01*
X152665241Y-125955363D01*
X152465363Y-126155241D01*
X152308320Y-126390273D01*
X152200147Y-126651426D01*
X152145000Y-126928665D01*
X113860000Y-126928665D01*
X113860000Y-124600512D01*
X152139783Y-124600512D01*
X152181213Y-124880130D01*
X152276397Y-125146292D01*
X152343329Y-125271514D01*
X152587298Y-125343097D01*
X153400395Y-124530000D01*
X153759605Y-124530000D01*
X154572702Y-125343097D01*
X154816671Y-125271514D01*
X154937571Y-125016004D01*
X155006300Y-124741816D01*
X155020217Y-124459488D01*
X154978787Y-124179870D01*
X154883603Y-123913708D01*
X154816671Y-123788486D01*
X154572702Y-123716903D01*
X153759605Y-124530000D01*
X153400395Y-124530000D01*
X152587298Y-123716903D01*
X152343329Y-123788486D01*
X152222429Y-124043996D01*
X152153700Y-124318184D01*
X152139783Y-124600512D01*
X113860000Y-124600512D01*
X113860000Y-102948018D01*
X136665000Y-102948018D01*
X136665000Y-104451982D01*
X136958408Y-105927047D01*
X137533950Y-107316529D01*
X138369508Y-108567029D01*
X139432971Y-109630492D01*
X140683471Y-110466050D01*
X142072953Y-111041592D01*
X143548018Y-111335000D01*
X145051982Y-111335000D01*
X146527047Y-111041592D01*
X147916529Y-110466050D01*
X149167029Y-109630492D01*
X150230492Y-108567029D01*
X151066050Y-107316529D01*
X151641592Y-105927047D01*
X151935000Y-104451982D01*
X151935000Y-102948018D01*
X151641592Y-101472953D01*
X151066050Y-100083471D01*
X150230492Y-98832971D01*
X149167029Y-97769508D01*
X147916529Y-96933950D01*
X146527047Y-96358408D01*
X145051982Y-96065000D01*
X143548018Y-96065000D01*
X142072953Y-96358408D01*
X140683471Y-96933950D01*
X139432971Y-97769508D01*
X138369508Y-98832971D01*
X137533950Y-100083471D01*
X136958408Y-101472953D01*
X136665000Y-102948018D01*
X113860000Y-102948018D01*
X113860000Y-92700000D01*
X116602251Y-92700000D01*
X116653127Y-93216550D01*
X116803799Y-93713250D01*
X117048477Y-94171011D01*
X117377759Y-94572241D01*
X117778989Y-94901523D01*
X118236750Y-95146201D01*
X118733450Y-95296873D01*
X119120558Y-95335000D01*
X131379442Y-95335000D01*
X131766550Y-95296873D01*
X132263250Y-95146201D01*
X132721011Y-94901523D01*
X133122241Y-94572241D01*
X133451523Y-94171011D01*
X133696201Y-93713250D01*
X133846873Y-93216550D01*
X133897749Y-92700000D01*
X133846873Y-92183450D01*
X133696201Y-91686750D01*
X133451523Y-91228989D01*
X133122241Y-90827759D01*
X132721011Y-90498477D01*
X132263250Y-90253799D01*
X131766550Y-90103127D01*
X131379442Y-90065000D01*
X119120558Y-90065000D01*
X118733450Y-90103127D01*
X118236750Y-90253799D01*
X117778989Y-90498477D01*
X117377759Y-90827759D01*
X117048477Y-91228989D01*
X116803799Y-91686750D01*
X116653127Y-92183450D01*
X116602251Y-92700000D01*
X113860000Y-92700000D01*
X113860000Y-80660000D01*
X169540001Y-80660000D01*
X169540001Y-88575405D01*
G37*
X169540001Y-88575405D02*
X169525546Y-88527753D01*
X169454974Y-88395724D01*
X169360001Y-88279999D01*
X169331003Y-88256201D01*
X168443804Y-87369002D01*
X168420001Y-87339999D01*
X168304276Y-87245026D01*
X168172247Y-87174454D01*
X168028986Y-87130997D01*
X167917333Y-87120000D01*
X167917322Y-87120000D01*
X167880000Y-87116324D01*
X167842678Y-87120000D01*
X167378178Y-87120000D01*
X167253475Y-86933368D01*
X167046632Y-86726525D01*
X166872240Y-86610000D01*
X167046632Y-86493475D01*
X167253475Y-86286632D01*
X167415990Y-86043411D01*
X167527932Y-85773158D01*
X167585000Y-85486260D01*
X167585000Y-85193740D01*
X167527932Y-84906842D01*
X167415990Y-84636589D01*
X167253475Y-84393368D01*
X167121620Y-84261513D01*
X167194180Y-84239502D01*
X167304494Y-84180537D01*
X167401185Y-84101185D01*
X167480537Y-84004494D01*
X167539502Y-83894180D01*
X167575812Y-83774482D01*
X167588072Y-83650000D01*
X167588072Y-81950000D01*
X167575812Y-81825518D01*
X167539502Y-81705820D01*
X167480537Y-81595506D01*
X167401185Y-81498815D01*
X167304494Y-81419463D01*
X167194180Y-81360498D01*
X167074482Y-81324188D01*
X166950000Y-81311928D01*
X165250000Y-81311928D01*
X165125518Y-81324188D01*
X165005820Y-81360498D01*
X164895506Y-81419463D01*
X164798815Y-81498815D01*
X164719463Y-81595506D01*
X164660498Y-81705820D01*
X164624188Y-81825518D01*
X164611928Y-81950000D01*
X164611928Y-83650000D01*
X164624188Y-83774482D01*
X164660498Y-83894180D01*
X164719463Y-84004494D01*
X164798815Y-84101185D01*
X164895506Y-84180537D01*
X165005820Y-84239502D01*
X165078380Y-84261513D01*
X164946525Y-84393368D01*
X164821822Y-84580000D01*
X163597322Y-84580000D01*
X163559999Y-84576324D01*
X163522676Y-84580000D01*
X163522667Y-84580000D01*
X163411014Y-84590997D01*
X163301306Y-84624276D01*
X163267753Y-84634454D01*
X163135723Y-84705026D01*
X163052083Y-84773668D01*
X163019999Y-84799999D01*
X162996201Y-84828997D01*
X162064018Y-85761181D01*
X162035020Y-85784979D01*
X162011222Y-85813977D01*
X162011221Y-85813978D01*
X161940046Y-85900704D01*
X161869474Y-86032734D01*
X161826018Y-86175995D01*
X161811344Y-86324980D01*
X161815021Y-86362312D01*
X161815021Y-91359266D01*
X161144757Y-90689003D01*
X161120954Y-90659999D01*
X161005229Y-90565026D01*
X160873200Y-90494454D01*
X160729939Y-90450997D01*
X160618286Y-90440000D01*
X160618275Y-90440000D01*
X160580953Y-90436324D01*
X160543631Y-90440000D01*
X142114802Y-90440000D01*
X136774676Y-85099875D01*
X136991881Y-84983777D01*
X137316977Y-84716977D01*
X137583777Y-84391881D01*
X137782026Y-84020982D01*
X137904108Y-83618533D01*
X137945330Y-83200000D01*
X137904108Y-82781467D01*
X137782026Y-82379018D01*
X137583777Y-82008119D01*
X137316977Y-81683023D01*
X136991881Y-81416223D01*
X136620982Y-81217974D01*
X136218533Y-81095892D01*
X135904882Y-81065000D01*
X133695118Y-81065000D01*
X133381467Y-81095892D01*
X132979018Y-81217974D01*
X132608119Y-81416223D01*
X132283023Y-81683023D01*
X132016223Y-82008119D01*
X131817974Y-82379018D01*
X131695892Y-82781467D01*
X131654670Y-83200000D01*
X131695892Y-83618533D01*
X131817974Y-84020982D01*
X131998988Y-84359637D01*
X131802865Y-84310977D01*
X131527983Y-84298090D01*
X131255867Y-84339078D01*
X130996977Y-84432364D01*
X130881020Y-84494344D01*
X130814040Y-84734435D01*
X131600000Y-85520395D01*
X131614143Y-85506253D01*
X131793748Y-85685858D01*
X131779605Y-85700000D01*
X132565565Y-86485960D01*
X132805656Y-86418980D01*
X132922756Y-86169952D01*
X132989023Y-85902865D01*
X133001910Y-85627983D01*
X132960922Y-85355867D01*
X132879023Y-85128578D01*
X132979018Y-85182026D01*
X133381467Y-85304108D01*
X133695118Y-85335000D01*
X134860199Y-85335000D01*
X136933404Y-87408205D01*
X131843007Y-87408205D01*
X131530056Y-87095255D01*
X131672017Y-87101910D01*
X131944133Y-87060922D01*
X132203023Y-86967636D01*
X132318980Y-86905656D01*
X132385960Y-86665565D01*
X131600000Y-85879605D01*
X131585858Y-85893748D01*
X131406253Y-85714143D01*
X131420395Y-85700000D01*
X130634435Y-84914040D01*
X130394344Y-84981020D01*
X130330515Y-85116760D01*
X130298005Y-85038273D01*
X130145120Y-84809465D01*
X129950535Y-84614880D01*
X129721727Y-84461995D01*
X129467490Y-84356686D01*
X129197592Y-84303000D01*
X128922408Y-84303000D01*
X128652510Y-84356686D01*
X128398273Y-84461995D01*
X128169465Y-84614880D01*
X127974880Y-84809465D01*
X127821995Y-85038273D01*
X127790000Y-85115515D01*
X127758005Y-85038273D01*
X127605120Y-84809465D01*
X127410535Y-84614880D01*
X127181727Y-84461995D01*
X126927490Y-84356686D01*
X126657592Y-84303000D01*
X126382408Y-84303000D01*
X126112510Y-84356686D01*
X125858273Y-84461995D01*
X125629465Y-84614880D01*
X125434880Y-84809465D01*
X125281995Y-85038273D01*
X125250000Y-85115515D01*
X125218005Y-85038273D01*
X125065120Y-84809465D01*
X124870535Y-84614880D01*
X124641727Y-84461995D01*
X124387490Y-84356686D01*
X124117592Y-84303000D01*
X123842408Y-84303000D01*
X123572510Y-84356686D01*
X123318273Y-84461995D01*
X123089465Y-84614880D01*
X122894880Y-84809465D01*
X122741995Y-85038273D01*
X122710000Y-85115515D01*
X122678005Y-85038273D01*
X122525120Y-84809465D01*
X122330535Y-84614880D01*
X122101727Y-84461995D01*
X121847490Y-84356686D01*
X121577592Y-84303000D01*
X121302408Y-84303000D01*
X121032510Y-84356686D01*
X120778273Y-84461995D01*
X120549465Y-84614880D01*
X120354880Y-84809465D01*
X120201995Y-85038273D01*
X120170000Y-85115515D01*
X120138005Y-85038273D01*
X119985120Y-84809465D01*
X119790535Y-84614880D01*
X119561727Y-84461995D01*
X119307490Y-84356686D01*
X119037592Y-84303000D01*
X118762408Y-84303000D01*
X118492510Y-84356686D01*
X118238273Y-84461995D01*
X118009465Y-84614880D01*
X117814880Y-84809465D01*
X117661995Y-85038273D01*
X117556686Y-85292510D01*
X117503000Y-85562408D01*
X117503000Y-85837592D01*
X117556686Y-86107490D01*
X117661995Y-86361727D01*
X117814880Y-86590535D01*
X118009465Y-86785120D01*
X118238273Y-86938005D01*
X118492510Y-87043314D01*
X118762408Y-87097000D01*
X119037592Y-87097000D01*
X119307490Y-87043314D01*
X119561727Y-86938005D01*
X119790535Y-86785120D01*
X119985120Y-86590535D01*
X120138005Y-86361727D01*
X120170000Y-86284485D01*
X120201995Y-86361727D01*
X120354880Y-86590535D01*
X120549465Y-86785120D01*
X120778273Y-86938005D01*
X121032510Y-87043314D01*
X121302408Y-87097000D01*
X121577592Y-87097000D01*
X121847490Y-87043314D01*
X122101727Y-86938005D01*
X122330535Y-86785120D01*
X122525120Y-86590535D01*
X122678005Y-86361727D01*
X122710000Y-86284485D01*
X122741995Y-86361727D01*
X122894880Y-86590535D01*
X123089465Y-86785120D01*
X123220001Y-86872341D01*
X123220001Y-87642668D01*
X123216324Y-87680000D01*
X123220001Y-87717333D01*
X123221349Y-87731014D01*
X123230998Y-87828985D01*
X123274454Y-87972246D01*
X123345026Y-88104276D01*
X123400809Y-88172247D01*
X123440000Y-88220001D01*
X123468998Y-88243799D01*
X124436200Y-89211002D01*
X124459999Y-89240001D01*
X124575724Y-89334974D01*
X124707753Y-89405546D01*
X124851014Y-89449003D01*
X124962667Y-89460000D01*
X124962677Y-89460000D01*
X125000000Y-89463676D01*
X125037323Y-89460000D01*
X130472379Y-89460000D01*
X130591601Y-89579222D01*
X130615404Y-89608226D01*
X130731129Y-89703199D01*
X130863158Y-89773771D01*
X131006419Y-89817228D01*
X131118072Y-89828225D01*
X131118080Y-89828225D01*
X131155405Y-89831901D01*
X131192730Y-89828225D01*
X137444194Y-89828225D01*
X140677000Y-93061032D01*
X140700799Y-93090031D01*
X140816524Y-93185004D01*
X140948553Y-93255576D01*
X141091814Y-93299033D01*
X141203467Y-93310030D01*
X141203477Y-93310030D01*
X141240800Y-93313706D01*
X141278123Y-93310030D01*
X151162409Y-93310030D01*
X154539980Y-96687602D01*
X154539980Y-98060584D01*
X154494759Y-98015363D01*
X154259727Y-97858320D01*
X153998574Y-97750147D01*
X153721335Y-97695000D01*
X153438665Y-97695000D01*
X153161426Y-97750147D01*
X152900273Y-97858320D01*
X152665241Y-98015363D01*
X152465363Y-98215241D01*
X152308320Y-98450273D01*
X152200147Y-98711426D01*
X152145000Y-98988665D01*
X152145000Y-99271335D01*
X152200147Y-99548574D01*
X152308320Y-99809727D01*
X152465363Y-100044759D01*
X152665241Y-100244637D01*
X152897759Y-100400000D01*
X152665241Y-100555363D01*
X152465363Y-100755241D01*
X152308320Y-100990273D01*
X152200147Y-101251426D01*
X152145000Y-101528665D01*
X152145000Y-101811335D01*
X152200147Y-102088574D01*
X152308320Y-102349727D01*
X152465363Y-102584759D01*
X152665241Y-102784637D01*
X152897759Y-102940000D01*
X152665241Y-103095363D01*
X152465363Y-103295241D01*
X152308320Y-103530273D01*
X152200147Y-103791426D01*
X152145000Y-104068665D01*
X152145000Y-104351335D01*
X152200147Y-104628574D01*
X152308320Y-104889727D01*
X152465363Y-105124759D01*
X152665241Y-105324637D01*
X152897759Y-105480000D01*
X152665241Y-105635363D01*
X152465363Y-105835241D01*
X152308320Y-106070273D01*
X152200147Y-106331426D01*
X152145000Y-106608665D01*
X152145000Y-106891335D01*
X152200147Y-107168574D01*
X152308320Y-107429727D01*
X152465363Y-107664759D01*
X152665241Y-107864637D01*
X152897759Y-108020000D01*
X152665241Y-108175363D01*
X152465363Y-108375241D01*
X152308320Y-108610273D01*
X152200147Y-108871426D01*
X152145000Y-109148665D01*
X152145000Y-109431335D01*
X152200147Y-109708574D01*
X152308320Y-109969727D01*
X152465363Y-110204759D01*
X152665241Y-110404637D01*
X152897759Y-110560000D01*
X152665241Y-110715363D01*
X152465363Y-110915241D01*
X152308320Y-111150273D01*
X152200147Y-111411426D01*
X152145000Y-111688665D01*
X152145000Y-111971335D01*
X152200147Y-112248574D01*
X152308320Y-112509727D01*
X152465363Y-112744759D01*
X152665241Y-112944637D01*
X152897759Y-113100000D01*
X152665241Y-113255363D01*
X152465363Y-113455241D01*
X152308320Y-113690273D01*
X152200147Y-113951426D01*
X152145000Y-114228665D01*
X152145000Y-114511335D01*
X152200147Y-114788574D01*
X152308320Y-115049727D01*
X152465363Y-115284759D01*
X152665241Y-115484637D01*
X152897759Y-115640000D01*
X152665241Y-115795363D01*
X152465363Y-115995241D01*
X152308320Y-116230273D01*
X152200147Y-116491426D01*
X152145000Y-116768665D01*
X152145000Y-117051335D01*
X152200147Y-117328574D01*
X152308320Y-117589727D01*
X152465363Y-117824759D01*
X152665241Y-118024637D01*
X152897759Y-118180000D01*
X152665241Y-118335363D01*
X152465363Y-118535241D01*
X152308320Y-118770273D01*
X152200147Y-119031426D01*
X152145000Y-119308665D01*
X152145000Y-119591335D01*
X152200147Y-119868574D01*
X152308320Y-120129727D01*
X152465363Y-120364759D01*
X152665241Y-120564637D01*
X152897759Y-120720000D01*
X152665241Y-120875363D01*
X152465363Y-121075241D01*
X152308320Y-121310273D01*
X152200147Y-121571426D01*
X152145000Y-121848665D01*
X152145000Y-122131335D01*
X152200147Y-122408574D01*
X152308320Y-122669727D01*
X152465363Y-122904759D01*
X152665241Y-123104637D01*
X152899128Y-123260915D01*
X152838486Y-123293329D01*
X152766903Y-123537298D01*
X153580000Y-124350395D01*
X154393097Y-123537298D01*
X154321514Y-123293329D01*
X154257008Y-123262806D01*
X154259727Y-123261680D01*
X154494759Y-123104637D01*
X154694637Y-122904759D01*
X154801616Y-122744654D01*
X154858986Y-122739003D01*
X155002247Y-122695546D01*
X155134276Y-122624974D01*
X155250001Y-122530001D01*
X155273804Y-122500997D01*
X155714289Y-122060512D01*
X167379783Y-122060512D01*
X167421213Y-122340130D01*
X167516397Y-122606292D01*
X167583329Y-122731514D01*
X167827298Y-122803097D01*
X168640395Y-121990000D01*
X167827298Y-121176903D01*
X167583329Y-121248486D01*
X167462429Y-121503996D01*
X167393700Y-121778184D01*
X167379783Y-122060512D01*
X155714289Y-122060512D01*
X156711003Y-121063799D01*
X156740001Y-121040001D01*
X156834974Y-120924276D01*
X156905546Y-120792247D01*
X156949003Y-120648986D01*
X156960000Y-120537333D01*
X156960000Y-120537324D01*
X156963676Y-120500001D01*
X156960000Y-120462678D01*
X156960000Y-119520512D01*
X167379783Y-119520512D01*
X167421213Y-119800130D01*
X167516397Y-120066292D01*
X167583329Y-120191514D01*
X167827298Y-120263097D01*
X168640395Y-119450000D01*
X167827298Y-118636903D01*
X167583329Y-118708486D01*
X167462429Y-118963996D01*
X167393700Y-119238184D01*
X167379783Y-119520512D01*
X156960000Y-119520512D01*
X156960000Y-96037323D01*
X156963676Y-96000000D01*
X156960000Y-95962677D01*
X156960000Y-95962667D01*
X156949003Y-95851014D01*
X156905546Y-95707753D01*
X156834974Y-95575724D01*
X156740001Y-95459999D01*
X156711004Y-95436202D01*
X153234801Y-91960000D01*
X156811077Y-91960000D01*
X156783023Y-91983023D01*
X156516223Y-92308119D01*
X156317974Y-92679018D01*
X156195892Y-93081467D01*
X156154670Y-93500000D01*
X156195892Y-93918533D01*
X156317974Y-94320982D01*
X156516223Y-94691881D01*
X156783023Y-95016977D01*
X157108119Y-95283777D01*
X157479018Y-95482026D01*
X157881467Y-95604108D01*
X158195118Y-95635000D01*
X160404882Y-95635000D01*
X160718533Y-95604108D01*
X161120982Y-95482026D01*
X161365010Y-95351590D01*
X161365010Y-97477687D01*
X161361334Y-97515010D01*
X161365010Y-97552332D01*
X161365010Y-97552342D01*
X161376007Y-97663995D01*
X161419464Y-97807256D01*
X161490036Y-97939286D01*
X161509977Y-97963584D01*
X161585009Y-98055011D01*
X161614013Y-98078814D01*
X167421312Y-103886114D01*
X167385000Y-104068665D01*
X167385000Y-104351335D01*
X167440147Y-104628574D01*
X167548320Y-104889727D01*
X167705363Y-105124759D01*
X167905241Y-105324637D01*
X168137759Y-105480000D01*
X167905241Y-105635363D01*
X167705363Y-105835241D01*
X167548320Y-106070273D01*
X167440147Y-106331426D01*
X167385000Y-106608665D01*
X167385000Y-106891335D01*
X167440147Y-107168574D01*
X167548320Y-107429727D01*
X167705363Y-107664759D01*
X167905241Y-107864637D01*
X168137759Y-108020000D01*
X167905241Y-108175363D01*
X167705363Y-108375241D01*
X167548320Y-108610273D01*
X167440147Y-108871426D01*
X167385000Y-109148665D01*
X167385000Y-109431335D01*
X167440147Y-109708574D01*
X167548320Y-109969727D01*
X167705363Y-110204759D01*
X167905241Y-110404637D01*
X168137759Y-110560000D01*
X167905241Y-110715363D01*
X167705363Y-110915241D01*
X167548320Y-111150273D01*
X167440147Y-111411426D01*
X167385000Y-111688665D01*
X167385000Y-111971335D01*
X167440147Y-112248574D01*
X167548320Y-112509727D01*
X167705363Y-112744759D01*
X167905241Y-112944637D01*
X168137759Y-113100000D01*
X167905241Y-113255363D01*
X167705363Y-113455241D01*
X167548320Y-113690273D01*
X167440147Y-113951426D01*
X167385000Y-114228665D01*
X167385000Y-114511335D01*
X167440147Y-114788574D01*
X167548320Y-115049727D01*
X167705363Y-115284759D01*
X167905241Y-115484637D01*
X168137759Y-115640000D01*
X167905241Y-115795363D01*
X167705363Y-115995241D01*
X167548320Y-116230273D01*
X167440147Y-116491426D01*
X167385000Y-116768665D01*
X167385000Y-117051335D01*
X167440147Y-117328574D01*
X167548320Y-117589727D01*
X167705363Y-117824759D01*
X167905241Y-118024637D01*
X168139128Y-118180915D01*
X168078486Y-118213329D01*
X168006903Y-118457298D01*
X168820000Y-119270395D01*
X168834143Y-119256253D01*
X169013748Y-119435858D01*
X168999605Y-119450000D01*
X169013748Y-119464143D01*
X168834143Y-119643748D01*
X168820000Y-119629605D01*
X168006903Y-120442702D01*
X168078486Y-120686671D01*
X168144636Y-120717971D01*
X168078486Y-120753329D01*
X168006903Y-120997298D01*
X168820000Y-121810395D01*
X168834143Y-121796253D01*
X169013748Y-121975858D01*
X168999605Y-121990000D01*
X169013748Y-122004143D01*
X168834143Y-122183748D01*
X168820000Y-122169605D01*
X168006903Y-122982702D01*
X168078486Y-123226671D01*
X168142992Y-123257194D01*
X168140273Y-123258320D01*
X167905241Y-123415363D01*
X167705363Y-123615241D01*
X167548320Y-123850273D01*
X167440147Y-124111426D01*
X167385000Y-124388665D01*
X167385000Y-124671335D01*
X167440147Y-124948574D01*
X167548320Y-125209727D01*
X167705363Y-125444759D01*
X167903961Y-125643357D01*
X167895518Y-125644188D01*
X167775820Y-125680498D01*
X167665506Y-125739463D01*
X167568815Y-125818815D01*
X167489463Y-125915506D01*
X167430498Y-126025820D01*
X167394188Y-126145518D01*
X167381928Y-126270000D01*
X167381928Y-127870000D01*
X167394188Y-127994482D01*
X167430498Y-128114180D01*
X167489463Y-128224494D01*
X167568815Y-128321185D01*
X167665506Y-128400537D01*
X167775820Y-128459502D01*
X167895518Y-128495812D01*
X168020000Y-128508072D01*
X169540000Y-128508072D01*
X169540000Y-129540000D01*
X113860000Y-129540000D01*
X113860000Y-126928665D01*
X152145000Y-126928665D01*
X152145000Y-127211335D01*
X152200147Y-127488574D01*
X152308320Y-127749727D01*
X152465363Y-127984759D01*
X152665241Y-128184637D01*
X152900273Y-128341680D01*
X153161426Y-128449853D01*
X153438665Y-128505000D01*
X153721335Y-128505000D01*
X153998574Y-128449853D01*
X154259727Y-128341680D01*
X154494759Y-128184637D01*
X154694637Y-127984759D01*
X154851680Y-127749727D01*
X154959853Y-127488574D01*
X155015000Y-127211335D01*
X155015000Y-126928665D01*
X154959853Y-126651426D01*
X154851680Y-126390273D01*
X154694637Y-126155241D01*
X154494759Y-125955363D01*
X154260872Y-125799085D01*
X154321514Y-125766671D01*
X154393097Y-125522702D01*
X153580000Y-124709605D01*
X152766903Y-125522702D01*
X152838486Y-125766671D01*
X152902992Y-125797194D01*
X152900273Y-125798320D01*
X152665241Y-125955363D01*
X152465363Y-126155241D01*
X152308320Y-126390273D01*
X152200147Y-126651426D01*
X152145000Y-126928665D01*
X113860000Y-126928665D01*
X113860000Y-124600512D01*
X152139783Y-124600512D01*
X152181213Y-124880130D01*
X152276397Y-125146292D01*
X152343329Y-125271514D01*
X152587298Y-125343097D01*
X153400395Y-124530000D01*
X153759605Y-124530000D01*
X154572702Y-125343097D01*
X154816671Y-125271514D01*
X154937571Y-125016004D01*
X155006300Y-124741816D01*
X155020217Y-124459488D01*
X154978787Y-124179870D01*
X154883603Y-123913708D01*
X154816671Y-123788486D01*
X154572702Y-123716903D01*
X153759605Y-124530000D01*
X153400395Y-124530000D01*
X152587298Y-123716903D01*
X152343329Y-123788486D01*
X152222429Y-124043996D01*
X152153700Y-124318184D01*
X152139783Y-124600512D01*
X113860000Y-124600512D01*
X113860000Y-102948018D01*
X136665000Y-102948018D01*
X136665000Y-104451982D01*
X136958408Y-105927047D01*
X137533950Y-107316529D01*
X138369508Y-108567029D01*
X139432971Y-109630492D01*
X140683471Y-110466050D01*
X142072953Y-111041592D01*
X143548018Y-111335000D01*
X145051982Y-111335000D01*
X146527047Y-111041592D01*
X147916529Y-110466050D01*
X149167029Y-109630492D01*
X150230492Y-108567029D01*
X151066050Y-107316529D01*
X151641592Y-105927047D01*
X151935000Y-104451982D01*
X151935000Y-102948018D01*
X151641592Y-101472953D01*
X151066050Y-100083471D01*
X150230492Y-98832971D01*
X149167029Y-97769508D01*
X147916529Y-96933950D01*
X146527047Y-96358408D01*
X145051982Y-96065000D01*
X143548018Y-96065000D01*
X142072953Y-96358408D01*
X140683471Y-96933950D01*
X139432971Y-97769508D01*
X138369508Y-98832971D01*
X137533950Y-100083471D01*
X136958408Y-101472953D01*
X136665000Y-102948018D01*
X113860000Y-102948018D01*
X113860000Y-92700000D01*
X116602251Y-92700000D01*
X116653127Y-93216550D01*
X116803799Y-93713250D01*
X117048477Y-94171011D01*
X117377759Y-94572241D01*
X117778989Y-94901523D01*
X118236750Y-95146201D01*
X118733450Y-95296873D01*
X119120558Y-95335000D01*
X131379442Y-95335000D01*
X131766550Y-95296873D01*
X132263250Y-95146201D01*
X132721011Y-94901523D01*
X133122241Y-94572241D01*
X133451523Y-94171011D01*
X133696201Y-93713250D01*
X133846873Y-93216550D01*
X133897749Y-92700000D01*
X133846873Y-92183450D01*
X133696201Y-91686750D01*
X133451523Y-91228989D01*
X133122241Y-90827759D01*
X132721011Y-90498477D01*
X132263250Y-90253799D01*
X131766550Y-90103127D01*
X131379442Y-90065000D01*
X119120558Y-90065000D01*
X118733450Y-90103127D01*
X118236750Y-90253799D01*
X117778989Y-90498477D01*
X117377759Y-90827759D01*
X117048477Y-91228989D01*
X116803799Y-91686750D01*
X116653127Y-92183450D01*
X116602251Y-92700000D01*
X113860000Y-92700000D01*
X113860000Y-80660000D01*
X169540001Y-80660000D01*
X169540001Y-88575405D01*
%TD*%
M02*
