M48
; DRILL file {KiCad (5.1.6)-1} date 01/28/21 10:50:40
; FORMAT={-:-/ absolute / inch / decimal}
; #@! TF.CreationDate,2021-01-28T10:50:40-06:00
; #@! TF.GenerationSoftware,Kicad,Pcbnew,(5.1.6)-1
; #@! TF.FileFunction,Plated,1,2,PTH
FMAT,2
INCH
T1C0.0300
T2C0.0394
T3C0.0433
T4C0.0787
%
G90
G05
T1
X4.6811Y-3.374
X4.7811Y-3.374
X4.8811Y-3.374
X4.9811Y-3.374
X5.0811Y-3.374
X5.1811Y-3.374
T2
X6.5394Y-3.2598
X6.5394Y-3.3598
X6.5394Y-3.4598
X6.5394Y-3.5598
X6.5394Y-3.6598
T3
X6.0465Y-3.9028
X6.0465Y-4.0028
X6.0465Y-4.1028
X6.0465Y-4.2028
X6.0465Y-4.3028
X6.0465Y-4.4028
X6.0465Y-4.5028
X6.0465Y-4.6028
X6.0465Y-4.7028
X6.0465Y-4.8028
X6.0465Y-4.9028
X6.0465Y-5.0028
X6.6465Y-3.9028
X6.6465Y-4.0028
X6.6465Y-4.1028
X6.6465Y-4.2028
X6.6465Y-4.3028
X6.6465Y-4.4028
X6.6465Y-4.5028
X6.6465Y-4.6028
X6.6465Y-4.7028
X6.6465Y-4.8028
X6.6465Y-4.9028
X6.6465Y-5.0028
T4
G00X5.2677Y-3.2756
M15
G01X5.3465Y-3.2756
M16
G05
G00X6.2323Y-3.6811
M15
G01X6.311Y-3.6811
M16
G05
T0
M30
