M48
; DRILL file {KiCad (5.1.6)-1} date 02/02/21 10:35:09
; FORMAT={-:-/ absolute / inch / decimal}
; #@! TF.CreationDate,2021-02-02T10:35:09-06:00
; #@! TF.GenerationSoftware,Kicad,Pcbnew,(5.1.6)-1
; #@! TF.FileFunction,Plated,1,2,PTH
FMAT,2
INCH
T1C0.0157
T2C0.0295
T3C0.0394
T4C0.0591
%
G90
G05
T1
X4.3189Y-3.9449
X4.3858Y-4.1142
X4.4685Y-4.1457
X4.4921Y-3.6654
X4.5512Y-4.2874
X4.6732Y-4.1102
X4.7244Y-4.1063
X4.7598Y-3.9764
X4.7992Y-3.8189
X4.8583Y-4.3228
X4.8622Y-3.6417
X4.8661Y-3.7441
X4.8858Y-3.7835
X4.8937Y-3.5748
X5.0512Y-3.7441
X5.0787Y-3.5512
X5.0787Y-3.9094
X5.1024Y-3.5891
X5.1024Y-3.7362
X5.1092Y-3.9989
X5.1811Y-3.7717
X5.189Y-3.7126
X5.2234Y-3.5758
X5.2323Y-3.6181
X5.2324Y-3.7342
X5.2499Y-3.6752
X5.2756Y-4.0276
X5.3268Y-4.0276
X5.3386Y-3.5472
X5.341Y-3.5984
X5.3976Y-3.8504
X5.4016Y-4.0906
X5.4321Y-3.7923
X5.4606Y-3.6654
X5.4783Y-4.3602
X5.4921Y-3.8228
X5.5409Y-3.6217
X5.5547Y-3.7037
X5.5551Y-3.7638
X5.5807Y-4.3287
X5.6181Y-3.622
X5.652Y-3.6423
X5.6535Y-4.2283
X5.6693Y-3.7205
X5.689Y-3.9055
X5.6924Y-3.9493
X5.7008Y-3.689
X5.7362Y-3.5315
X5.7598Y-4.1535
X5.7953Y-3.9961
X5.8012Y-4.2761
X5.8189Y-4.0581
X5.8272Y-3.6708
X5.8386Y-4.2638
X5.8543Y-4.437
X5.8664Y-3.6772
X5.9331Y-4.4606
X6.0354Y-4.1732
X6.0945Y-3.848
X6.1181Y-4.3543
X6.1531Y-3.6398
X6.1693Y-3.8504
X6.1698Y-3.7131
X6.1874Y-4.224
X6.1898Y-3.6075
X6.226Y-3.9409
X6.3184Y-3.7717
X6.3394Y-4.152
X6.342Y-4.0507
X6.3469Y-3.806
X6.3582Y-4.2282
X6.437Y-3.7717
X6.5305Y-4.3634
X6.5307Y-4.324
X6.5778Y-3.8238
X6.5854Y-4.0449
X6.6209Y-4.311
X6.6476Y-3.7902
X6.6739Y-3.6714
X6.7224Y-3.9043
T2
X6.9882Y-3.8937
X6.9882Y-3.9488
X6.9882Y-4.0039
X6.9882Y-4.0591
X6.9882Y-4.1142
X6.9882Y-4.1693
X6.9882Y-4.2244
X6.9882Y-4.2795
X6.9882Y-4.3346
X6.9882Y-4.3898
X6.9882Y-4.4449
T3
X6.1835Y-4.311
X6.1835Y-4.411
X6.2835Y-4.311
X6.2835Y-4.411
X6.3835Y-4.311
X6.3835Y-4.411
X6.872Y-3.6024
X6.872Y-3.7024
X6.872Y-3.8024
X7.7756Y-3.9409
X7.7756Y-4.0409
X7.7756Y-4.1409
X6.2795Y-3.563
X6.3795Y-3.563
X6.2756Y-4.085
X6.2756Y-4.185
X3.5965Y-4.0299
X3.5965Y-4.1299
X3.5965Y-4.2299
X4.3091Y-4.0299
X4.3091Y-4.2299
T4
X6.502Y-4.2307
X6.752Y-4.3307
X7.252Y-4.2307
X7.502Y-4.3307
X8.002Y-4.2307
X8.252Y-4.3307
X5.002Y-4.2307
X5.252Y-4.3307
X5.752Y-4.2307
X6.002Y-4.3307
T0
M30
