%TF.GenerationSoftware,KiCad,Pcbnew,(5.1.6)-1*%
%TF.CreationDate,2021-01-27T09:47:08-06:00*%
%TF.ProjectId,Pikatea Macropad Mini,50696b61-7465-4612-904d-6163726f7061,rev?*%
%TF.SameCoordinates,Original*%
%TF.FileFunction,Soldermask,Bot*%
%TF.FilePolarity,Negative*%
%FSLAX46Y46*%
G04 Gerber Fmt 4.6, Leading zero omitted, Abs format (unit mm)*
G04 Created by KiCad (PCBNEW (5.1.6)-1) date 2021-01-27 09:47:08*
%MOMM*%
%LPD*%
G01*
G04 APERTURE LIST*
%ADD10O,1.800000X1.800000*%
%ADD11R,1.800000X1.800000*%
%ADD12C,1.800000*%
%ADD13C,4.100000*%
%ADD14C,2.300000*%
G04 APERTURE END LIST*
D10*
%TO.C,J5*%
X197500000Y-105180000D03*
X197500000Y-102640000D03*
D11*
X197500000Y-100100000D03*
%TD*%
D12*
%TO.C,MX5*%
X212140000Y-104920000D03*
X201980000Y-104920000D03*
D13*
X207060000Y-104920000D03*
D14*
X203250000Y-107460000D03*
X209600000Y-110000000D03*
%TD*%
D12*
%TO.C,MX4*%
X193090000Y-104920000D03*
X182930000Y-104920000D03*
D13*
X188010000Y-104920000D03*
D14*
X184200000Y-107460000D03*
X190550000Y-110000000D03*
%TD*%
D10*
%TO.C,J4*%
X177100000Y-96380000D03*
X177100000Y-93840000D03*
D11*
X177100000Y-91300000D03*
%TD*%
D10*
%TO.C,J3*%
X162040000Y-90500000D03*
D11*
X159500000Y-90500000D03*
%TD*%
D10*
%TO.C,J2*%
X159400000Y-103760000D03*
D11*
X159400000Y-106300000D03*
%TD*%
D12*
%TO.C,J1*%
X162140000Y-109500000D03*
X159600000Y-109500000D03*
X157060000Y-109500000D03*
X162140000Y-112040000D03*
X159600000Y-112040000D03*
G36*
G01*
X157695294Y-112940000D02*
X156424706Y-112940000D01*
G75*
G02*
X156160000Y-112675294I0J264706D01*
G01*
X156160000Y-111404706D01*
G75*
G02*
X156424706Y-111140000I264706J0D01*
G01*
X157695294Y-111140000D01*
G75*
G02*
X157960000Y-111404706I0J-264706D01*
G01*
X157960000Y-112675294D01*
G75*
G02*
X157695294Y-112940000I-264706J0D01*
G01*
G37*
%TD*%
D11*
%TO.C,SW2*%
X109450000Y-102360000D03*
X109450000Y-107440000D03*
X91350000Y-104900000D03*
X91350000Y-102360000D03*
X91350000Y-107440000D03*
%TD*%
D12*
%TO.C,MX3*%
X135940000Y-104920000D03*
X125780000Y-104920000D03*
D13*
X130860000Y-104920000D03*
D14*
X127050000Y-107460000D03*
X133400000Y-110000000D03*
%TD*%
D12*
%TO.C,MX2*%
X174040000Y-104920000D03*
X163880000Y-104920000D03*
D13*
X168960000Y-104920000D03*
D14*
X165150000Y-107460000D03*
X171500000Y-110000000D03*
%TD*%
D12*
%TO.C,MX1*%
X154990000Y-104920000D03*
X144830000Y-104920000D03*
D13*
X149910000Y-104920000D03*
D14*
X146100000Y-107460000D03*
X152450000Y-110000000D03*
%TD*%
M02*
