%TF.GenerationSoftware,KiCad,Pcbnew,(5.1.6)-1*%
%TF.CreationDate,2021-01-27T09:47:08-06:00*%
%TF.ProjectId,Pikatea Macropad Mini,50696b61-7465-4612-904d-6163726f7061,rev?*%
%TF.SameCoordinates,Original*%
%TF.FileFunction,Paste,Top*%
%TF.FilePolarity,Positive*%
%FSLAX46Y46*%
G04 Gerber Fmt 4.6, Leading zero omitted, Abs format (unit mm)*
G04 Created by KiCad (PCBNEW (5.1.6)-1) date 2021-01-27 09:47:08*
%MOMM*%
%LPD*%
G01*
G04 APERTURE LIST*
%ADD10C,0.100000*%
%ADD11R,1.100000X1.400000*%
%ADD12R,1.450000X0.450000*%
%ADD13R,2.000000X1.500000*%
%ADD14R,2.000000X3.800000*%
%ADD15R,1.000000X1.700000*%
%ADD16R,0.725000X1.200000*%
%ADD17R,1.025000X1.150000*%
%ADD18R,1.775000X1.500000*%
%ADD19R,1.625000X1.500000*%
%ADD20R,0.750000X1.350000*%
%ADD21R,0.650000X1.350000*%
%ADD22R,1.400000X1.050000*%
%ADD23R,1.075000X1.050000*%
%ADD24R,1.200000X1.400000*%
G04 APERTURE END LIST*
D10*
%TO.C,SW3*%
G36*
X165117651Y-101809428D02*
G01*
X163869263Y-100935298D01*
X164743393Y-99686910D01*
X165991781Y-100561040D01*
X165117651Y-101809428D01*
G37*
G36*
X164085214Y-103283901D02*
G01*
X162836826Y-102409771D01*
X163710956Y-101161383D01*
X164959344Y-102035513D01*
X164085214Y-103283901D01*
G37*
%TD*%
%TO.C,C13*%
G36*
G01*
X168787500Y-92256250D02*
X168787500Y-91343750D01*
G75*
G02*
X169031250Y-91100000I243750J0D01*
G01*
X169518750Y-91100000D01*
G75*
G02*
X169762500Y-91343750I0J-243750D01*
G01*
X169762500Y-92256250D01*
G75*
G02*
X169518750Y-92500000I-243750J0D01*
G01*
X169031250Y-92500000D01*
G75*
G02*
X168787500Y-92256250I0J243750D01*
G01*
G37*
G36*
G01*
X166912500Y-92256250D02*
X166912500Y-91343750D01*
G75*
G02*
X167156250Y-91100000I243750J0D01*
G01*
X167643750Y-91100000D01*
G75*
G02*
X167887500Y-91343750I0J-243750D01*
G01*
X167887500Y-92256250D01*
G75*
G02*
X167643750Y-92500000I-243750J0D01*
G01*
X167156250Y-92500000D01*
G75*
G02*
X166912500Y-92256250I0J243750D01*
G01*
G37*
%TD*%
D11*
%TO.C,U3*%
X118400000Y-92800000D03*
D12*
X122100000Y-91750000D03*
X122100000Y-92400000D03*
X122100000Y-93050000D03*
X122100000Y-93700000D03*
X122100000Y-94350000D03*
X122100000Y-95000000D03*
X122100000Y-95650000D03*
X116200000Y-95650000D03*
X116200000Y-95000000D03*
X116200000Y-94350000D03*
X116200000Y-93700000D03*
X116200000Y-93050000D03*
X116200000Y-92400000D03*
X116200000Y-91750000D03*
D11*
X119900000Y-92800000D03*
X119900000Y-94600000D03*
X118400000Y-94600000D03*
%TD*%
D13*
%TO.C,U2*%
X165100000Y-98100000D03*
X165100000Y-93500000D03*
X165100000Y-95800000D03*
D14*
X158800000Y-95800000D03*
%TD*%
D15*
%TO.C,SW1*%
X167900000Y-100750000D03*
X167900000Y-94450000D03*
X171700000Y-100750000D03*
X171700000Y-94450000D03*
%TD*%
%TO.C,R7*%
G36*
G01*
X110243750Y-95287500D02*
X111156250Y-95287500D01*
G75*
G02*
X111400000Y-95531250I0J-243750D01*
G01*
X111400000Y-96018750D01*
G75*
G02*
X111156250Y-96262500I-243750J0D01*
G01*
X110243750Y-96262500D01*
G75*
G02*
X110000000Y-96018750I0J243750D01*
G01*
X110000000Y-95531250D01*
G75*
G02*
X110243750Y-95287500I243750J0D01*
G01*
G37*
G36*
G01*
X110243750Y-93412500D02*
X111156250Y-93412500D01*
G75*
G02*
X111400000Y-93656250I0J-243750D01*
G01*
X111400000Y-94143750D01*
G75*
G02*
X111156250Y-94387500I-243750J0D01*
G01*
X110243750Y-94387500D01*
G75*
G02*
X110000000Y-94143750I0J243750D01*
G01*
X110000000Y-93656250D01*
G75*
G02*
X110243750Y-93412500I243750J0D01*
G01*
G37*
%TD*%
%TO.C,R6*%
G36*
G01*
X125912500Y-90343750D02*
X125912500Y-91256250D01*
G75*
G02*
X125668750Y-91500000I-243750J0D01*
G01*
X125181250Y-91500000D01*
G75*
G02*
X124937500Y-91256250I0J243750D01*
G01*
X124937500Y-90343750D01*
G75*
G02*
X125181250Y-90100000I243750J0D01*
G01*
X125668750Y-90100000D01*
G75*
G02*
X125912500Y-90343750I0J-243750D01*
G01*
G37*
G36*
G01*
X127787500Y-90343750D02*
X127787500Y-91256250D01*
G75*
G02*
X127543750Y-91500000I-243750J0D01*
G01*
X127056250Y-91500000D01*
G75*
G02*
X126812500Y-91256250I0J243750D01*
G01*
X126812500Y-90343750D01*
G75*
G02*
X127056250Y-90100000I243750J0D01*
G01*
X127543750Y-90100000D01*
G75*
G02*
X127787500Y-90343750I0J-243750D01*
G01*
G37*
%TD*%
%TO.C,R3*%
G36*
G01*
X166336250Y-104052500D02*
X165423750Y-104052500D01*
G75*
G02*
X165180000Y-103808750I0J243750D01*
G01*
X165180000Y-103321250D01*
G75*
G02*
X165423750Y-103077500I243750J0D01*
G01*
X166336250Y-103077500D01*
G75*
G02*
X166580000Y-103321250I0J-243750D01*
G01*
X166580000Y-103808750D01*
G75*
G02*
X166336250Y-104052500I-243750J0D01*
G01*
G37*
G36*
G01*
X166336250Y-105927500D02*
X165423750Y-105927500D01*
G75*
G02*
X165180000Y-105683750I0J243750D01*
G01*
X165180000Y-105196250D01*
G75*
G02*
X165423750Y-104952500I243750J0D01*
G01*
X166336250Y-104952500D01*
G75*
G02*
X166580000Y-105196250I0J-243750D01*
G01*
X166580000Y-105683750D01*
G75*
G02*
X166336250Y-105927500I-243750J0D01*
G01*
G37*
%TD*%
%TO.C,R2*%
G36*
G01*
X111256250Y-90612500D02*
X110343750Y-90612500D01*
G75*
G02*
X110100000Y-90368750I0J243750D01*
G01*
X110100000Y-89881250D01*
G75*
G02*
X110343750Y-89637500I243750J0D01*
G01*
X111256250Y-89637500D01*
G75*
G02*
X111500000Y-89881250I0J-243750D01*
G01*
X111500000Y-90368750D01*
G75*
G02*
X111256250Y-90612500I-243750J0D01*
G01*
G37*
G36*
G01*
X111256250Y-92487500D02*
X110343750Y-92487500D01*
G75*
G02*
X110100000Y-92243750I0J243750D01*
G01*
X110100000Y-91756250D01*
G75*
G02*
X110343750Y-91512500I243750J0D01*
G01*
X111256250Y-91512500D01*
G75*
G02*
X111500000Y-91756250I0J-243750D01*
G01*
X111500000Y-92243750D01*
G75*
G02*
X111256250Y-92487500I-243750J0D01*
G01*
G37*
%TD*%
%TO.C,R1*%
G36*
G01*
X118143750Y-99512500D02*
X119056250Y-99512500D01*
G75*
G02*
X119300000Y-99756250I0J-243750D01*
G01*
X119300000Y-100243750D01*
G75*
G02*
X119056250Y-100487500I-243750J0D01*
G01*
X118143750Y-100487500D01*
G75*
G02*
X117900000Y-100243750I0J243750D01*
G01*
X117900000Y-99756250D01*
G75*
G02*
X118143750Y-99512500I243750J0D01*
G01*
G37*
G36*
G01*
X118143750Y-97637500D02*
X119056250Y-97637500D01*
G75*
G02*
X119300000Y-97881250I0J-243750D01*
G01*
X119300000Y-98368750D01*
G75*
G02*
X119056250Y-98612500I-243750J0D01*
G01*
X118143750Y-98612500D01*
G75*
G02*
X117900000Y-98368750I0J243750D01*
G01*
X117900000Y-97881250D01*
G75*
G02*
X118143750Y-97637500I243750J0D01*
G01*
G37*
%TD*%
%TO.C,C14*%
G36*
G01*
X155287500Y-95643750D02*
X155287500Y-96556250D01*
G75*
G02*
X155043750Y-96800000I-243750J0D01*
G01*
X154556250Y-96800000D01*
G75*
G02*
X154312500Y-96556250I0J243750D01*
G01*
X154312500Y-95643750D01*
G75*
G02*
X154556250Y-95400000I243750J0D01*
G01*
X155043750Y-95400000D01*
G75*
G02*
X155287500Y-95643750I0J-243750D01*
G01*
G37*
G36*
G01*
X157162500Y-95643750D02*
X157162500Y-96556250D01*
G75*
G02*
X156918750Y-96800000I-243750J0D01*
G01*
X156431250Y-96800000D01*
G75*
G02*
X156187500Y-96556250I0J243750D01*
G01*
X156187500Y-95643750D01*
G75*
G02*
X156431250Y-95400000I243750J0D01*
G01*
X156918750Y-95400000D01*
G75*
G02*
X157162500Y-95643750I0J-243750D01*
G01*
G37*
%TD*%
%TO.C,C12*%
G36*
G01*
X125787500Y-93743750D02*
X125787500Y-94656250D01*
G75*
G02*
X125543750Y-94900000I-243750J0D01*
G01*
X125056250Y-94900000D01*
G75*
G02*
X124812500Y-94656250I0J243750D01*
G01*
X124812500Y-93743750D01*
G75*
G02*
X125056250Y-93500000I243750J0D01*
G01*
X125543750Y-93500000D01*
G75*
G02*
X125787500Y-93743750I0J-243750D01*
G01*
G37*
G36*
G01*
X127662500Y-93743750D02*
X127662500Y-94656250D01*
G75*
G02*
X127418750Y-94900000I-243750J0D01*
G01*
X126931250Y-94900000D01*
G75*
G02*
X126687500Y-94656250I0J243750D01*
G01*
X126687500Y-93743750D01*
G75*
G02*
X126931250Y-93500000I243750J0D01*
G01*
X127418750Y-93500000D01*
G75*
G02*
X127662500Y-93743750I0J-243750D01*
G01*
G37*
%TD*%
%TO.C,C11*%
G36*
G01*
X160887500Y-99943750D02*
X160887500Y-100856250D01*
G75*
G02*
X160643750Y-101100000I-243750J0D01*
G01*
X160156250Y-101100000D01*
G75*
G02*
X159912500Y-100856250I0J243750D01*
G01*
X159912500Y-99943750D01*
G75*
G02*
X160156250Y-99700000I243750J0D01*
G01*
X160643750Y-99700000D01*
G75*
G02*
X160887500Y-99943750I0J-243750D01*
G01*
G37*
G36*
G01*
X162762500Y-99943750D02*
X162762500Y-100856250D01*
G75*
G02*
X162518750Y-101100000I-243750J0D01*
G01*
X162031250Y-101100000D01*
G75*
G02*
X161787500Y-100856250I0J243750D01*
G01*
X161787500Y-99943750D01*
G75*
G02*
X162031250Y-99700000I243750J0D01*
G01*
X162518750Y-99700000D01*
G75*
G02*
X162762500Y-99943750I0J-243750D01*
G01*
G37*
%TD*%
D16*
%TO.C,XS1*%
X112312500Y-107450000D03*
X123512500Y-107450000D03*
D17*
X123362500Y-104975000D03*
D18*
X122987500Y-112950000D03*
D19*
X112737500Y-112950000D03*
D20*
X113400000Y-111025000D03*
X114500000Y-111025000D03*
X115600000Y-111025000D03*
X116700000Y-111025000D03*
X117800000Y-111025000D03*
X118900000Y-111025000D03*
X120000000Y-111025000D03*
X121100000Y-111025000D03*
D21*
X122090000Y-111025000D03*
D22*
X114100000Y-102525000D03*
D23*
X112462500Y-102525000D03*
X123337500Y-102525000D03*
D22*
X120900000Y-102525000D03*
%TD*%
D24*
%TO.C,X1*%
X152900000Y-96000000D03*
X152900000Y-98200000D03*
X151300000Y-98200000D03*
X151300000Y-96000000D03*
%TD*%
%TO.C,U1*%
G36*
G01*
X135537500Y-100575000D02*
X134337500Y-100575000D01*
G75*
G02*
X134200000Y-100437500I0J137500D01*
G01*
X134200000Y-100162500D01*
G75*
G02*
X134337500Y-100025000I137500J0D01*
G01*
X135537500Y-100025000D01*
G75*
G02*
X135675000Y-100162500I0J-137500D01*
G01*
X135675000Y-100437500D01*
G75*
G02*
X135537500Y-100575000I-137500J0D01*
G01*
G37*
G36*
G01*
X135537500Y-99775000D02*
X134337500Y-99775000D01*
G75*
G02*
X134200000Y-99637500I0J137500D01*
G01*
X134200000Y-99362500D01*
G75*
G02*
X134337500Y-99225000I137500J0D01*
G01*
X135537500Y-99225000D01*
G75*
G02*
X135675000Y-99362500I0J-137500D01*
G01*
X135675000Y-99637500D01*
G75*
G02*
X135537500Y-99775000I-137500J0D01*
G01*
G37*
G36*
G01*
X135537500Y-98975000D02*
X134337500Y-98975000D01*
G75*
G02*
X134200000Y-98837500I0J137500D01*
G01*
X134200000Y-98562500D01*
G75*
G02*
X134337500Y-98425000I137500J0D01*
G01*
X135537500Y-98425000D01*
G75*
G02*
X135675000Y-98562500I0J-137500D01*
G01*
X135675000Y-98837500D01*
G75*
G02*
X135537500Y-98975000I-137500J0D01*
G01*
G37*
G36*
G01*
X135537500Y-98175000D02*
X134337500Y-98175000D01*
G75*
G02*
X134200000Y-98037500I0J137500D01*
G01*
X134200000Y-97762500D01*
G75*
G02*
X134337500Y-97625000I137500J0D01*
G01*
X135537500Y-97625000D01*
G75*
G02*
X135675000Y-97762500I0J-137500D01*
G01*
X135675000Y-98037500D01*
G75*
G02*
X135537500Y-98175000I-137500J0D01*
G01*
G37*
G36*
G01*
X135537500Y-97375000D02*
X134337500Y-97375000D01*
G75*
G02*
X134200000Y-97237500I0J137500D01*
G01*
X134200000Y-96962500D01*
G75*
G02*
X134337500Y-96825000I137500J0D01*
G01*
X135537500Y-96825000D01*
G75*
G02*
X135675000Y-96962500I0J-137500D01*
G01*
X135675000Y-97237500D01*
G75*
G02*
X135537500Y-97375000I-137500J0D01*
G01*
G37*
G36*
G01*
X135537500Y-96575000D02*
X134337500Y-96575000D01*
G75*
G02*
X134200000Y-96437500I0J137500D01*
G01*
X134200000Y-96162500D01*
G75*
G02*
X134337500Y-96025000I137500J0D01*
G01*
X135537500Y-96025000D01*
G75*
G02*
X135675000Y-96162500I0J-137500D01*
G01*
X135675000Y-96437500D01*
G75*
G02*
X135537500Y-96575000I-137500J0D01*
G01*
G37*
G36*
G01*
X135537500Y-95775000D02*
X134337500Y-95775000D01*
G75*
G02*
X134200000Y-95637500I0J137500D01*
G01*
X134200000Y-95362500D01*
G75*
G02*
X134337500Y-95225000I137500J0D01*
G01*
X135537500Y-95225000D01*
G75*
G02*
X135675000Y-95362500I0J-137500D01*
G01*
X135675000Y-95637500D01*
G75*
G02*
X135537500Y-95775000I-137500J0D01*
G01*
G37*
G36*
G01*
X135537500Y-94975000D02*
X134337500Y-94975000D01*
G75*
G02*
X134200000Y-94837500I0J137500D01*
G01*
X134200000Y-94562500D01*
G75*
G02*
X134337500Y-94425000I137500J0D01*
G01*
X135537500Y-94425000D01*
G75*
G02*
X135675000Y-94562500I0J-137500D01*
G01*
X135675000Y-94837500D01*
G75*
G02*
X135537500Y-94975000I-137500J0D01*
G01*
G37*
G36*
G01*
X135537500Y-94175000D02*
X134337500Y-94175000D01*
G75*
G02*
X134200000Y-94037500I0J137500D01*
G01*
X134200000Y-93762500D01*
G75*
G02*
X134337500Y-93625000I137500J0D01*
G01*
X135537500Y-93625000D01*
G75*
G02*
X135675000Y-93762500I0J-137500D01*
G01*
X135675000Y-94037500D01*
G75*
G02*
X135537500Y-94175000I-137500J0D01*
G01*
G37*
G36*
G01*
X135537500Y-93375000D02*
X134337500Y-93375000D01*
G75*
G02*
X134200000Y-93237500I0J137500D01*
G01*
X134200000Y-92962500D01*
G75*
G02*
X134337500Y-92825000I137500J0D01*
G01*
X135537500Y-92825000D01*
G75*
G02*
X135675000Y-92962500I0J-137500D01*
G01*
X135675000Y-93237500D01*
G75*
G02*
X135537500Y-93375000I-137500J0D01*
G01*
G37*
G36*
G01*
X135537500Y-92575000D02*
X134337500Y-92575000D01*
G75*
G02*
X134200000Y-92437500I0J137500D01*
G01*
X134200000Y-92162500D01*
G75*
G02*
X134337500Y-92025000I137500J0D01*
G01*
X135537500Y-92025000D01*
G75*
G02*
X135675000Y-92162500I0J-137500D01*
G01*
X135675000Y-92437500D01*
G75*
G02*
X135537500Y-92575000I-137500J0D01*
G01*
G37*
G36*
G01*
X136737500Y-91375000D02*
X136462500Y-91375000D01*
G75*
G02*
X136325000Y-91237500I0J137500D01*
G01*
X136325000Y-90037500D01*
G75*
G02*
X136462500Y-89900000I137500J0D01*
G01*
X136737500Y-89900000D01*
G75*
G02*
X136875000Y-90037500I0J-137500D01*
G01*
X136875000Y-91237500D01*
G75*
G02*
X136737500Y-91375000I-137500J0D01*
G01*
G37*
G36*
G01*
X137537500Y-91375000D02*
X137262500Y-91375000D01*
G75*
G02*
X137125000Y-91237500I0J137500D01*
G01*
X137125000Y-90037500D01*
G75*
G02*
X137262500Y-89900000I137500J0D01*
G01*
X137537500Y-89900000D01*
G75*
G02*
X137675000Y-90037500I0J-137500D01*
G01*
X137675000Y-91237500D01*
G75*
G02*
X137537500Y-91375000I-137500J0D01*
G01*
G37*
G36*
G01*
X138337500Y-91375000D02*
X138062500Y-91375000D01*
G75*
G02*
X137925000Y-91237500I0J137500D01*
G01*
X137925000Y-90037500D01*
G75*
G02*
X138062500Y-89900000I137500J0D01*
G01*
X138337500Y-89900000D01*
G75*
G02*
X138475000Y-90037500I0J-137500D01*
G01*
X138475000Y-91237500D01*
G75*
G02*
X138337500Y-91375000I-137500J0D01*
G01*
G37*
G36*
G01*
X139137500Y-91375000D02*
X138862500Y-91375000D01*
G75*
G02*
X138725000Y-91237500I0J137500D01*
G01*
X138725000Y-90037500D01*
G75*
G02*
X138862500Y-89900000I137500J0D01*
G01*
X139137500Y-89900000D01*
G75*
G02*
X139275000Y-90037500I0J-137500D01*
G01*
X139275000Y-91237500D01*
G75*
G02*
X139137500Y-91375000I-137500J0D01*
G01*
G37*
G36*
G01*
X139937500Y-91375000D02*
X139662500Y-91375000D01*
G75*
G02*
X139525000Y-91237500I0J137500D01*
G01*
X139525000Y-90037500D01*
G75*
G02*
X139662500Y-89900000I137500J0D01*
G01*
X139937500Y-89900000D01*
G75*
G02*
X140075000Y-90037500I0J-137500D01*
G01*
X140075000Y-91237500D01*
G75*
G02*
X139937500Y-91375000I-137500J0D01*
G01*
G37*
G36*
G01*
X140737500Y-91375000D02*
X140462500Y-91375000D01*
G75*
G02*
X140325000Y-91237500I0J137500D01*
G01*
X140325000Y-90037500D01*
G75*
G02*
X140462500Y-89900000I137500J0D01*
G01*
X140737500Y-89900000D01*
G75*
G02*
X140875000Y-90037500I0J-137500D01*
G01*
X140875000Y-91237500D01*
G75*
G02*
X140737500Y-91375000I-137500J0D01*
G01*
G37*
G36*
G01*
X141537500Y-91375000D02*
X141262500Y-91375000D01*
G75*
G02*
X141125000Y-91237500I0J137500D01*
G01*
X141125000Y-90037500D01*
G75*
G02*
X141262500Y-89900000I137500J0D01*
G01*
X141537500Y-89900000D01*
G75*
G02*
X141675000Y-90037500I0J-137500D01*
G01*
X141675000Y-91237500D01*
G75*
G02*
X141537500Y-91375000I-137500J0D01*
G01*
G37*
G36*
G01*
X142337500Y-91375000D02*
X142062500Y-91375000D01*
G75*
G02*
X141925000Y-91237500I0J137500D01*
G01*
X141925000Y-90037500D01*
G75*
G02*
X142062500Y-89900000I137500J0D01*
G01*
X142337500Y-89900000D01*
G75*
G02*
X142475000Y-90037500I0J-137500D01*
G01*
X142475000Y-91237500D01*
G75*
G02*
X142337500Y-91375000I-137500J0D01*
G01*
G37*
G36*
G01*
X143137500Y-91375000D02*
X142862500Y-91375000D01*
G75*
G02*
X142725000Y-91237500I0J137500D01*
G01*
X142725000Y-90037500D01*
G75*
G02*
X142862500Y-89900000I137500J0D01*
G01*
X143137500Y-89900000D01*
G75*
G02*
X143275000Y-90037500I0J-137500D01*
G01*
X143275000Y-91237500D01*
G75*
G02*
X143137500Y-91375000I-137500J0D01*
G01*
G37*
G36*
G01*
X143937500Y-91375000D02*
X143662500Y-91375000D01*
G75*
G02*
X143525000Y-91237500I0J137500D01*
G01*
X143525000Y-90037500D01*
G75*
G02*
X143662500Y-89900000I137500J0D01*
G01*
X143937500Y-89900000D01*
G75*
G02*
X144075000Y-90037500I0J-137500D01*
G01*
X144075000Y-91237500D01*
G75*
G02*
X143937500Y-91375000I-137500J0D01*
G01*
G37*
G36*
G01*
X144737500Y-91375000D02*
X144462500Y-91375000D01*
G75*
G02*
X144325000Y-91237500I0J137500D01*
G01*
X144325000Y-90037500D01*
G75*
G02*
X144462500Y-89900000I137500J0D01*
G01*
X144737500Y-89900000D01*
G75*
G02*
X144875000Y-90037500I0J-137500D01*
G01*
X144875000Y-91237500D01*
G75*
G02*
X144737500Y-91375000I-137500J0D01*
G01*
G37*
G36*
G01*
X146862500Y-92575000D02*
X145662500Y-92575000D01*
G75*
G02*
X145525000Y-92437500I0J137500D01*
G01*
X145525000Y-92162500D01*
G75*
G02*
X145662500Y-92025000I137500J0D01*
G01*
X146862500Y-92025000D01*
G75*
G02*
X147000000Y-92162500I0J-137500D01*
G01*
X147000000Y-92437500D01*
G75*
G02*
X146862500Y-92575000I-137500J0D01*
G01*
G37*
G36*
G01*
X146862500Y-93375000D02*
X145662500Y-93375000D01*
G75*
G02*
X145525000Y-93237500I0J137500D01*
G01*
X145525000Y-92962500D01*
G75*
G02*
X145662500Y-92825000I137500J0D01*
G01*
X146862500Y-92825000D01*
G75*
G02*
X147000000Y-92962500I0J-137500D01*
G01*
X147000000Y-93237500D01*
G75*
G02*
X146862500Y-93375000I-137500J0D01*
G01*
G37*
G36*
G01*
X146862500Y-94175000D02*
X145662500Y-94175000D01*
G75*
G02*
X145525000Y-94037500I0J137500D01*
G01*
X145525000Y-93762500D01*
G75*
G02*
X145662500Y-93625000I137500J0D01*
G01*
X146862500Y-93625000D01*
G75*
G02*
X147000000Y-93762500I0J-137500D01*
G01*
X147000000Y-94037500D01*
G75*
G02*
X146862500Y-94175000I-137500J0D01*
G01*
G37*
G36*
G01*
X146862500Y-94975000D02*
X145662500Y-94975000D01*
G75*
G02*
X145525000Y-94837500I0J137500D01*
G01*
X145525000Y-94562500D01*
G75*
G02*
X145662500Y-94425000I137500J0D01*
G01*
X146862500Y-94425000D01*
G75*
G02*
X147000000Y-94562500I0J-137500D01*
G01*
X147000000Y-94837500D01*
G75*
G02*
X146862500Y-94975000I-137500J0D01*
G01*
G37*
G36*
G01*
X146862500Y-95775000D02*
X145662500Y-95775000D01*
G75*
G02*
X145525000Y-95637500I0J137500D01*
G01*
X145525000Y-95362500D01*
G75*
G02*
X145662500Y-95225000I137500J0D01*
G01*
X146862500Y-95225000D01*
G75*
G02*
X147000000Y-95362500I0J-137500D01*
G01*
X147000000Y-95637500D01*
G75*
G02*
X146862500Y-95775000I-137500J0D01*
G01*
G37*
G36*
G01*
X146862500Y-96575000D02*
X145662500Y-96575000D01*
G75*
G02*
X145525000Y-96437500I0J137500D01*
G01*
X145525000Y-96162500D01*
G75*
G02*
X145662500Y-96025000I137500J0D01*
G01*
X146862500Y-96025000D01*
G75*
G02*
X147000000Y-96162500I0J-137500D01*
G01*
X147000000Y-96437500D01*
G75*
G02*
X146862500Y-96575000I-137500J0D01*
G01*
G37*
G36*
G01*
X146862500Y-97375000D02*
X145662500Y-97375000D01*
G75*
G02*
X145525000Y-97237500I0J137500D01*
G01*
X145525000Y-96962500D01*
G75*
G02*
X145662500Y-96825000I137500J0D01*
G01*
X146862500Y-96825000D01*
G75*
G02*
X147000000Y-96962500I0J-137500D01*
G01*
X147000000Y-97237500D01*
G75*
G02*
X146862500Y-97375000I-137500J0D01*
G01*
G37*
G36*
G01*
X146862500Y-98175000D02*
X145662500Y-98175000D01*
G75*
G02*
X145525000Y-98037500I0J137500D01*
G01*
X145525000Y-97762500D01*
G75*
G02*
X145662500Y-97625000I137500J0D01*
G01*
X146862500Y-97625000D01*
G75*
G02*
X147000000Y-97762500I0J-137500D01*
G01*
X147000000Y-98037500D01*
G75*
G02*
X146862500Y-98175000I-137500J0D01*
G01*
G37*
G36*
G01*
X146862500Y-98975000D02*
X145662500Y-98975000D01*
G75*
G02*
X145525000Y-98837500I0J137500D01*
G01*
X145525000Y-98562500D01*
G75*
G02*
X145662500Y-98425000I137500J0D01*
G01*
X146862500Y-98425000D01*
G75*
G02*
X147000000Y-98562500I0J-137500D01*
G01*
X147000000Y-98837500D01*
G75*
G02*
X146862500Y-98975000I-137500J0D01*
G01*
G37*
G36*
G01*
X146862500Y-99775000D02*
X145662500Y-99775000D01*
G75*
G02*
X145525000Y-99637500I0J137500D01*
G01*
X145525000Y-99362500D01*
G75*
G02*
X145662500Y-99225000I137500J0D01*
G01*
X146862500Y-99225000D01*
G75*
G02*
X147000000Y-99362500I0J-137500D01*
G01*
X147000000Y-99637500D01*
G75*
G02*
X146862500Y-99775000I-137500J0D01*
G01*
G37*
G36*
G01*
X146862500Y-100575000D02*
X145662500Y-100575000D01*
G75*
G02*
X145525000Y-100437500I0J137500D01*
G01*
X145525000Y-100162500D01*
G75*
G02*
X145662500Y-100025000I137500J0D01*
G01*
X146862500Y-100025000D01*
G75*
G02*
X147000000Y-100162500I0J-137500D01*
G01*
X147000000Y-100437500D01*
G75*
G02*
X146862500Y-100575000I-137500J0D01*
G01*
G37*
G36*
G01*
X144737500Y-102700000D02*
X144462500Y-102700000D01*
G75*
G02*
X144325000Y-102562500I0J137500D01*
G01*
X144325000Y-101362500D01*
G75*
G02*
X144462500Y-101225000I137500J0D01*
G01*
X144737500Y-101225000D01*
G75*
G02*
X144875000Y-101362500I0J-137500D01*
G01*
X144875000Y-102562500D01*
G75*
G02*
X144737500Y-102700000I-137500J0D01*
G01*
G37*
G36*
G01*
X143937500Y-102700000D02*
X143662500Y-102700000D01*
G75*
G02*
X143525000Y-102562500I0J137500D01*
G01*
X143525000Y-101362500D01*
G75*
G02*
X143662500Y-101225000I137500J0D01*
G01*
X143937500Y-101225000D01*
G75*
G02*
X144075000Y-101362500I0J-137500D01*
G01*
X144075000Y-102562500D01*
G75*
G02*
X143937500Y-102700000I-137500J0D01*
G01*
G37*
G36*
G01*
X143137500Y-102700000D02*
X142862500Y-102700000D01*
G75*
G02*
X142725000Y-102562500I0J137500D01*
G01*
X142725000Y-101362500D01*
G75*
G02*
X142862500Y-101225000I137500J0D01*
G01*
X143137500Y-101225000D01*
G75*
G02*
X143275000Y-101362500I0J-137500D01*
G01*
X143275000Y-102562500D01*
G75*
G02*
X143137500Y-102700000I-137500J0D01*
G01*
G37*
G36*
G01*
X142337500Y-102700000D02*
X142062500Y-102700000D01*
G75*
G02*
X141925000Y-102562500I0J137500D01*
G01*
X141925000Y-101362500D01*
G75*
G02*
X142062500Y-101225000I137500J0D01*
G01*
X142337500Y-101225000D01*
G75*
G02*
X142475000Y-101362500I0J-137500D01*
G01*
X142475000Y-102562500D01*
G75*
G02*
X142337500Y-102700000I-137500J0D01*
G01*
G37*
G36*
G01*
X141537500Y-102700000D02*
X141262500Y-102700000D01*
G75*
G02*
X141125000Y-102562500I0J137500D01*
G01*
X141125000Y-101362500D01*
G75*
G02*
X141262500Y-101225000I137500J0D01*
G01*
X141537500Y-101225000D01*
G75*
G02*
X141675000Y-101362500I0J-137500D01*
G01*
X141675000Y-102562500D01*
G75*
G02*
X141537500Y-102700000I-137500J0D01*
G01*
G37*
G36*
G01*
X140737500Y-102700000D02*
X140462500Y-102700000D01*
G75*
G02*
X140325000Y-102562500I0J137500D01*
G01*
X140325000Y-101362500D01*
G75*
G02*
X140462500Y-101225000I137500J0D01*
G01*
X140737500Y-101225000D01*
G75*
G02*
X140875000Y-101362500I0J-137500D01*
G01*
X140875000Y-102562500D01*
G75*
G02*
X140737500Y-102700000I-137500J0D01*
G01*
G37*
G36*
G01*
X139937500Y-102700000D02*
X139662500Y-102700000D01*
G75*
G02*
X139525000Y-102562500I0J137500D01*
G01*
X139525000Y-101362500D01*
G75*
G02*
X139662500Y-101225000I137500J0D01*
G01*
X139937500Y-101225000D01*
G75*
G02*
X140075000Y-101362500I0J-137500D01*
G01*
X140075000Y-102562500D01*
G75*
G02*
X139937500Y-102700000I-137500J0D01*
G01*
G37*
G36*
G01*
X139137500Y-102700000D02*
X138862500Y-102700000D01*
G75*
G02*
X138725000Y-102562500I0J137500D01*
G01*
X138725000Y-101362500D01*
G75*
G02*
X138862500Y-101225000I137500J0D01*
G01*
X139137500Y-101225000D01*
G75*
G02*
X139275000Y-101362500I0J-137500D01*
G01*
X139275000Y-102562500D01*
G75*
G02*
X139137500Y-102700000I-137500J0D01*
G01*
G37*
G36*
G01*
X138337500Y-102700000D02*
X138062500Y-102700000D01*
G75*
G02*
X137925000Y-102562500I0J137500D01*
G01*
X137925000Y-101362500D01*
G75*
G02*
X138062500Y-101225000I137500J0D01*
G01*
X138337500Y-101225000D01*
G75*
G02*
X138475000Y-101362500I0J-137500D01*
G01*
X138475000Y-102562500D01*
G75*
G02*
X138337500Y-102700000I-137500J0D01*
G01*
G37*
G36*
G01*
X137537500Y-102700000D02*
X137262500Y-102700000D01*
G75*
G02*
X137125000Y-102562500I0J137500D01*
G01*
X137125000Y-101362500D01*
G75*
G02*
X137262500Y-101225000I137500J0D01*
G01*
X137537500Y-101225000D01*
G75*
G02*
X137675000Y-101362500I0J-137500D01*
G01*
X137675000Y-102562500D01*
G75*
G02*
X137537500Y-102700000I-137500J0D01*
G01*
G37*
G36*
G01*
X136737500Y-102700000D02*
X136462500Y-102700000D01*
G75*
G02*
X136325000Y-102562500I0J137500D01*
G01*
X136325000Y-101362500D01*
G75*
G02*
X136462500Y-101225000I137500J0D01*
G01*
X136737500Y-101225000D01*
G75*
G02*
X136875000Y-101362500I0J-137500D01*
G01*
X136875000Y-102562500D01*
G75*
G02*
X136737500Y-102700000I-137500J0D01*
G01*
G37*
%TD*%
%TO.C,R5*%
G36*
G01*
X137556250Y-107387500D02*
X136643750Y-107387500D01*
G75*
G02*
X136400000Y-107143750I0J243750D01*
G01*
X136400000Y-106656250D01*
G75*
G02*
X136643750Y-106412500I243750J0D01*
G01*
X137556250Y-106412500D01*
G75*
G02*
X137800000Y-106656250I0J-243750D01*
G01*
X137800000Y-107143750D01*
G75*
G02*
X137556250Y-107387500I-243750J0D01*
G01*
G37*
G36*
G01*
X137556250Y-109262500D02*
X136643750Y-109262500D01*
G75*
G02*
X136400000Y-109018750I0J243750D01*
G01*
X136400000Y-108531250D01*
G75*
G02*
X136643750Y-108287500I243750J0D01*
G01*
X137556250Y-108287500D01*
G75*
G02*
X137800000Y-108531250I0J-243750D01*
G01*
X137800000Y-109018750D01*
G75*
G02*
X137556250Y-109262500I-243750J0D01*
G01*
G37*
%TD*%
%TO.C,R4*%
G36*
G01*
X139556250Y-107387500D02*
X138643750Y-107387500D01*
G75*
G02*
X138400000Y-107143750I0J243750D01*
G01*
X138400000Y-106656250D01*
G75*
G02*
X138643750Y-106412500I243750J0D01*
G01*
X139556250Y-106412500D01*
G75*
G02*
X139800000Y-106656250I0J-243750D01*
G01*
X139800000Y-107143750D01*
G75*
G02*
X139556250Y-107387500I-243750J0D01*
G01*
G37*
G36*
G01*
X139556250Y-109262500D02*
X138643750Y-109262500D01*
G75*
G02*
X138400000Y-109018750I0J243750D01*
G01*
X138400000Y-108531250D01*
G75*
G02*
X138643750Y-108287500I243750J0D01*
G01*
X139556250Y-108287500D01*
G75*
G02*
X139800000Y-108531250I0J-243750D01*
G01*
X139800000Y-109018750D01*
G75*
G02*
X139556250Y-109262500I-243750J0D01*
G01*
G37*
%TD*%
%TO.C,C10*%
G36*
G01*
X130887500Y-98143750D02*
X130887500Y-99056250D01*
G75*
G02*
X130643750Y-99300000I-243750J0D01*
G01*
X130156250Y-99300000D01*
G75*
G02*
X129912500Y-99056250I0J243750D01*
G01*
X129912500Y-98143750D01*
G75*
G02*
X130156250Y-97900000I243750J0D01*
G01*
X130643750Y-97900000D01*
G75*
G02*
X130887500Y-98143750I0J-243750D01*
G01*
G37*
G36*
G01*
X132762500Y-98143750D02*
X132762500Y-99056250D01*
G75*
G02*
X132518750Y-99300000I-243750J0D01*
G01*
X132031250Y-99300000D01*
G75*
G02*
X131787500Y-99056250I0J243750D01*
G01*
X131787500Y-98143750D01*
G75*
G02*
X132031250Y-97900000I243750J0D01*
G01*
X132518750Y-97900000D01*
G75*
G02*
X132762500Y-98143750I0J-243750D01*
G01*
G37*
%TD*%
%TO.C,C9*%
G36*
G01*
X141387500Y-105843750D02*
X141387500Y-106756250D01*
G75*
G02*
X141143750Y-107000000I-243750J0D01*
G01*
X140656250Y-107000000D01*
G75*
G02*
X140412500Y-106756250I0J243750D01*
G01*
X140412500Y-105843750D01*
G75*
G02*
X140656250Y-105600000I243750J0D01*
G01*
X141143750Y-105600000D01*
G75*
G02*
X141387500Y-105843750I0J-243750D01*
G01*
G37*
G36*
G01*
X143262500Y-105843750D02*
X143262500Y-106756250D01*
G75*
G02*
X143018750Y-107000000I-243750J0D01*
G01*
X142531250Y-107000000D01*
G75*
G02*
X142287500Y-106756250I0J243750D01*
G01*
X142287500Y-105843750D01*
G75*
G02*
X142531250Y-105600000I243750J0D01*
G01*
X143018750Y-105600000D01*
G75*
G02*
X143262500Y-105843750I0J-243750D01*
G01*
G37*
%TD*%
%TO.C,C8*%
G36*
G01*
X152387500Y-99843750D02*
X152387500Y-100756250D01*
G75*
G02*
X152143750Y-101000000I-243750J0D01*
G01*
X151656250Y-101000000D01*
G75*
G02*
X151412500Y-100756250I0J243750D01*
G01*
X151412500Y-99843750D01*
G75*
G02*
X151656250Y-99600000I243750J0D01*
G01*
X152143750Y-99600000D01*
G75*
G02*
X152387500Y-99843750I0J-243750D01*
G01*
G37*
G36*
G01*
X154262500Y-99843750D02*
X154262500Y-100756250D01*
G75*
G02*
X154018750Y-101000000I-243750J0D01*
G01*
X153531250Y-101000000D01*
G75*
G02*
X153287500Y-100756250I0J243750D01*
G01*
X153287500Y-99843750D01*
G75*
G02*
X153531250Y-99600000I243750J0D01*
G01*
X154018750Y-99600000D01*
G75*
G02*
X154262500Y-99843750I0J-243750D01*
G01*
G37*
%TD*%
%TO.C,C7*%
G36*
G01*
X153087500Y-94556250D02*
X153087500Y-93643750D01*
G75*
G02*
X153331250Y-93400000I243750J0D01*
G01*
X153818750Y-93400000D01*
G75*
G02*
X154062500Y-93643750I0J-243750D01*
G01*
X154062500Y-94556250D01*
G75*
G02*
X153818750Y-94800000I-243750J0D01*
G01*
X153331250Y-94800000D01*
G75*
G02*
X153087500Y-94556250I0J243750D01*
G01*
G37*
G36*
G01*
X151212500Y-94556250D02*
X151212500Y-93643750D01*
G75*
G02*
X151456250Y-93400000I243750J0D01*
G01*
X151943750Y-93400000D01*
G75*
G02*
X152187500Y-93643750I0J-243750D01*
G01*
X152187500Y-94556250D01*
G75*
G02*
X151943750Y-94800000I-243750J0D01*
G01*
X151456250Y-94800000D01*
G75*
G02*
X151212500Y-94556250I0J243750D01*
G01*
G37*
%TD*%
%TO.C,C6*%
G36*
G01*
X143143750Y-109912500D02*
X144056250Y-109912500D01*
G75*
G02*
X144300000Y-110156250I0J-243750D01*
G01*
X144300000Y-110643750D01*
G75*
G02*
X144056250Y-110887500I-243750J0D01*
G01*
X143143750Y-110887500D01*
G75*
G02*
X142900000Y-110643750I0J243750D01*
G01*
X142900000Y-110156250D01*
G75*
G02*
X143143750Y-109912500I243750J0D01*
G01*
G37*
G36*
G01*
X143143750Y-108037500D02*
X144056250Y-108037500D01*
G75*
G02*
X144300000Y-108281250I0J-243750D01*
G01*
X144300000Y-108768750D01*
G75*
G02*
X144056250Y-109012500I-243750J0D01*
G01*
X143143750Y-109012500D01*
G75*
G02*
X142900000Y-108768750I0J243750D01*
G01*
X142900000Y-108281250D01*
G75*
G02*
X143143750Y-108037500I243750J0D01*
G01*
G37*
%TD*%
%TO.C,C5*%
G36*
G01*
X133543750Y-105350000D02*
X134456250Y-105350000D01*
G75*
G02*
X134700000Y-105593750I0J-243750D01*
G01*
X134700000Y-106081250D01*
G75*
G02*
X134456250Y-106325000I-243750J0D01*
G01*
X133543750Y-106325000D01*
G75*
G02*
X133300000Y-106081250I0J243750D01*
G01*
X133300000Y-105593750D01*
G75*
G02*
X133543750Y-105350000I243750J0D01*
G01*
G37*
G36*
G01*
X133543750Y-103475000D02*
X134456250Y-103475000D01*
G75*
G02*
X134700000Y-103718750I0J-243750D01*
G01*
X134700000Y-104206250D01*
G75*
G02*
X134456250Y-104450000I-243750J0D01*
G01*
X133543750Y-104450000D01*
G75*
G02*
X133300000Y-104206250I0J243750D01*
G01*
X133300000Y-103718750D01*
G75*
G02*
X133543750Y-103475000I243750J0D01*
G01*
G37*
%TD*%
%TO.C,C4*%
G36*
G01*
X131312500Y-100543750D02*
X131312500Y-101456250D01*
G75*
G02*
X131068750Y-101700000I-243750J0D01*
G01*
X130581250Y-101700000D01*
G75*
G02*
X130337500Y-101456250I0J243750D01*
G01*
X130337500Y-100543750D01*
G75*
G02*
X130581250Y-100300000I243750J0D01*
G01*
X131068750Y-100300000D01*
G75*
G02*
X131312500Y-100543750I0J-243750D01*
G01*
G37*
G36*
G01*
X133187500Y-100543750D02*
X133187500Y-101456250D01*
G75*
G02*
X132943750Y-101700000I-243750J0D01*
G01*
X132456250Y-101700000D01*
G75*
G02*
X132212500Y-101456250I0J243750D01*
G01*
X132212500Y-100543750D01*
G75*
G02*
X132456250Y-100300000I243750J0D01*
G01*
X132943750Y-100300000D01*
G75*
G02*
X133187500Y-100543750I0J-243750D01*
G01*
G37*
%TD*%
%TO.C,C3*%
G36*
G01*
X148287500Y-90756250D02*
X148287500Y-89843750D01*
G75*
G02*
X148531250Y-89600000I243750J0D01*
G01*
X149018750Y-89600000D01*
G75*
G02*
X149262500Y-89843750I0J-243750D01*
G01*
X149262500Y-90756250D01*
G75*
G02*
X149018750Y-91000000I-243750J0D01*
G01*
X148531250Y-91000000D01*
G75*
G02*
X148287500Y-90756250I0J243750D01*
G01*
G37*
G36*
G01*
X146412500Y-90756250D02*
X146412500Y-89843750D01*
G75*
G02*
X146656250Y-89600000I243750J0D01*
G01*
X147143750Y-89600000D01*
G75*
G02*
X147387500Y-89843750I0J-243750D01*
G01*
X147387500Y-90756250D01*
G75*
G02*
X147143750Y-91000000I-243750J0D01*
G01*
X146656250Y-91000000D01*
G75*
G02*
X146412500Y-90756250I0J243750D01*
G01*
G37*
%TD*%
%TO.C,C2*%
G36*
G01*
X130743750Y-92212500D02*
X131656250Y-92212500D01*
G75*
G02*
X131900000Y-92456250I0J-243750D01*
G01*
X131900000Y-92943750D01*
G75*
G02*
X131656250Y-93187500I-243750J0D01*
G01*
X130743750Y-93187500D01*
G75*
G02*
X130500000Y-92943750I0J243750D01*
G01*
X130500000Y-92456250D01*
G75*
G02*
X130743750Y-92212500I243750J0D01*
G01*
G37*
G36*
G01*
X130743750Y-90337500D02*
X131656250Y-90337500D01*
G75*
G02*
X131900000Y-90581250I0J-243750D01*
G01*
X131900000Y-91068750D01*
G75*
G02*
X131656250Y-91312500I-243750J0D01*
G01*
X130743750Y-91312500D01*
G75*
G02*
X130500000Y-91068750I0J243750D01*
G01*
X130500000Y-90581250D01*
G75*
G02*
X130743750Y-90337500I243750J0D01*
G01*
G37*
%TD*%
%TO.C,C1*%
G36*
G01*
X149887500Y-101856250D02*
X149887500Y-100943750D01*
G75*
G02*
X150131250Y-100700000I243750J0D01*
G01*
X150618750Y-100700000D01*
G75*
G02*
X150862500Y-100943750I0J-243750D01*
G01*
X150862500Y-101856250D01*
G75*
G02*
X150618750Y-102100000I-243750J0D01*
G01*
X150131250Y-102100000D01*
G75*
G02*
X149887500Y-101856250I0J243750D01*
G01*
G37*
G36*
G01*
X148012500Y-101856250D02*
X148012500Y-100943750D01*
G75*
G02*
X148256250Y-100700000I243750J0D01*
G01*
X148743750Y-100700000D01*
G75*
G02*
X148987500Y-100943750I0J-243750D01*
G01*
X148987500Y-101856250D01*
G75*
G02*
X148743750Y-102100000I-243750J0D01*
G01*
X148256250Y-102100000D01*
G75*
G02*
X148012500Y-101856250I0J243750D01*
G01*
G37*
%TD*%
M02*
