%TF.GenerationSoftware,KiCad,Pcbnew,(5.1.6)-1*%
%TF.CreationDate,2021-01-27T09:47:08-06:00*%
%TF.ProjectId,Pikatea Macropad Mini,50696b61-7465-4612-904d-6163726f7061,rev?*%
%TF.SameCoordinates,Original*%
%TF.FileFunction,Copper,L1,Top*%
%TF.FilePolarity,Positive*%
%FSLAX46Y46*%
G04 Gerber Fmt 4.6, Leading zero omitted, Abs format (unit mm)*
G04 Created by KiCad (PCBNEW (5.1.6)-1) date 2021-01-27 09:47:08*
%MOMM*%
%LPD*%
G01*
G04 APERTURE LIST*
%TA.AperFunction,ComponentPad*%
%ADD10O,1.700000X1.700000*%
%TD*%
%TA.AperFunction,ComponentPad*%
%ADD11R,1.700000X1.700000*%
%TD*%
%TA.AperFunction,ComponentPad*%
%ADD12C,2.200000*%
%TD*%
%TA.AperFunction,SMDPad,CuDef*%
%ADD13C,0.100000*%
%TD*%
%TA.AperFunction,SMDPad,CuDef*%
%ADD14R,1.500000X1.800000*%
%TD*%
%TA.AperFunction,SMDPad,CuDef*%
%ADD15R,1.450000X0.450000*%
%TD*%
%TA.AperFunction,SMDPad,CuDef*%
%ADD16R,2.000000X1.500000*%
%TD*%
%TA.AperFunction,SMDPad,CuDef*%
%ADD17R,2.000000X3.800000*%
%TD*%
%TA.AperFunction,SMDPad,CuDef*%
%ADD18R,1.000000X1.700000*%
%TD*%
%TA.AperFunction,ComponentPad*%
%ADD19C,1.700000*%
%TD*%
%TA.AperFunction,SMDPad,CuDef*%
%ADD20R,0.725000X1.200000*%
%TD*%
%TA.AperFunction,SMDPad,CuDef*%
%ADD21R,1.025000X1.150000*%
%TD*%
%TA.AperFunction,SMDPad,CuDef*%
%ADD22R,1.775000X1.500000*%
%TD*%
%TA.AperFunction,SMDPad,CuDef*%
%ADD23R,1.625000X1.500000*%
%TD*%
%TA.AperFunction,SMDPad,CuDef*%
%ADD24R,0.750000X1.350000*%
%TD*%
%TA.AperFunction,SMDPad,CuDef*%
%ADD25R,0.650000X1.350000*%
%TD*%
%TA.AperFunction,SMDPad,CuDef*%
%ADD26R,1.400000X1.050000*%
%TD*%
%TA.AperFunction,SMDPad,CuDef*%
%ADD27R,1.075000X1.050000*%
%TD*%
%TA.AperFunction,SMDPad,CuDef*%
%ADD28R,1.200000X1.400000*%
%TD*%
%TA.AperFunction,ViaPad*%
%ADD29C,0.800000*%
%TD*%
%TA.AperFunction,Conductor*%
%ADD30C,0.250000*%
%TD*%
%TA.AperFunction,Conductor*%
%ADD31C,0.254000*%
%TD*%
G04 APERTURE END LIST*
D10*
%TO.P,J5,3*%
%TO.N,/A0*%
X197500000Y-105180000D03*
%TO.P,J5,2*%
%TO.N,/D6*%
X197500000Y-102640000D03*
D11*
%TO.P,J5,1*%
%TO.N,/D8*%
X197500000Y-100100000D03*
%TD*%
D12*
%TO.P,MX5,2*%
%TO.N,/A0*%
X203250000Y-107460000D03*
%TO.P,MX5,1*%
%TO.N,/D6*%
X209600000Y-110000000D03*
%TD*%
%TO.P,MX4,2*%
%TO.N,/A0*%
X184200000Y-107460000D03*
%TO.P,MX4,1*%
%TO.N,/D8*%
X190550000Y-110000000D03*
%TD*%
D10*
%TO.P,J4,3*%
%TO.N,/A0*%
X177100000Y-96380000D03*
%TO.P,J4,2*%
%TO.N,/D1*%
X177100000Y-93840000D03*
D11*
%TO.P,J4,1*%
%TO.N,/D0*%
X177100000Y-91300000D03*
%TD*%
%TA.AperFunction,SMDPad,CuDef*%
D13*
%TO.P,SW3,2*%
%TO.N,Net-(C11-Pad1)*%
G36*
X165117651Y-101809428D02*
G01*
X163869263Y-100935298D01*
X164743393Y-99686910D01*
X165991781Y-100561040D01*
X165117651Y-101809428D01*
G37*
%TD.AperFunction*%
%TA.AperFunction,SMDPad,CuDef*%
%TO.P,SW3,1*%
%TO.N,VBUS*%
G36*
X164085214Y-103283901D02*
G01*
X162836826Y-102409771D01*
X163710956Y-101161383D01*
X164959344Y-102035513D01*
X164085214Y-103283901D01*
G37*
%TD.AperFunction*%
%TD*%
%TO.P,C13,2*%
%TO.N,GND*%
%TA.AperFunction,SMDPad,CuDef*%
G36*
G01*
X168787500Y-92256250D02*
X168787500Y-91343750D01*
G75*
G02*
X169031250Y-91100000I243750J0D01*
G01*
X169518750Y-91100000D01*
G75*
G02*
X169762500Y-91343750I0J-243750D01*
G01*
X169762500Y-92256250D01*
G75*
G02*
X169518750Y-92500000I-243750J0D01*
G01*
X169031250Y-92500000D01*
G75*
G02*
X168787500Y-92256250I0J243750D01*
G01*
G37*
%TD.AperFunction*%
%TO.P,C13,1*%
%TO.N,/3.3V*%
%TA.AperFunction,SMDPad,CuDef*%
G36*
G01*
X166912500Y-92256250D02*
X166912500Y-91343750D01*
G75*
G02*
X167156250Y-91100000I243750J0D01*
G01*
X167643750Y-91100000D01*
G75*
G02*
X167887500Y-91343750I0J-243750D01*
G01*
X167887500Y-92256250D01*
G75*
G02*
X167643750Y-92500000I-243750J0D01*
G01*
X167156250Y-92500000D01*
G75*
G02*
X166912500Y-92256250I0J243750D01*
G01*
G37*
%TD.AperFunction*%
%TD*%
D10*
%TO.P,J3,2*%
%TO.N,GND*%
X162040000Y-90500000D03*
D11*
%TO.P,J3,1*%
%TO.N,/D-*%
X159500000Y-90500000D03*
%TD*%
D10*
%TO.P,J2,2*%
%TO.N,/D+*%
X159400000Y-103760000D03*
D11*
%TO.P,J2,1*%
%TO.N,VBUS*%
X159400000Y-106300000D03*
%TD*%
D14*
%TO.P,U3,15*%
%TO.N,N/C*%
X118400000Y-92800000D03*
D15*
%TO.P,U3,14*%
%TO.N,/3.3V*%
X122100000Y-91750000D03*
%TO.P,U3,13*%
%TO.N,GND*%
X122100000Y-92400000D03*
%TO.P,U3,12*%
%TO.N,Net-(R1-Pad1)*%
X122100000Y-93050000D03*
%TO.P,U3,11*%
%TO.N,/MISO*%
X122100000Y-93700000D03*
%TO.P,U3,10*%
%TO.N,GND*%
X122100000Y-94350000D03*
%TO.P,U3,9*%
%TO.N,Net-(R6-Pad2)*%
X122100000Y-95000000D03*
%TO.P,U3,8*%
%TO.N,Net-(U3-Pad8)*%
X122100000Y-95650000D03*
%TO.P,U3,7*%
%TO.N,GND*%
X116200000Y-95650000D03*
%TO.P,U3,6*%
%TO.N,Net-(U3-Pad6)*%
X116200000Y-95000000D03*
%TO.P,U3,5*%
%TO.N,Net-(R7-Pad1)*%
X116200000Y-94350000D03*
%TO.P,U3,4*%
%TO.N,GND*%
X116200000Y-93700000D03*
%TO.P,U3,3*%
%TO.N,Net-(U3-Pad3)*%
X116200000Y-93050000D03*
%TO.P,U3,2*%
%TO.N,Net-(R2-Pad1)*%
X116200000Y-92400000D03*
%TO.P,U3,1*%
%TO.N,GND*%
X116200000Y-91750000D03*
D14*
%TO.P,U3,15*%
%TO.N,N/C*%
X119900000Y-92800000D03*
X119900000Y-94600000D03*
X118400000Y-94600000D03*
%TD*%
D16*
%TO.P,U2,1*%
%TO.N,GND*%
X165100000Y-98100000D03*
%TO.P,U2,3*%
%TO.N,Net-(C11-Pad1)*%
X165100000Y-93500000D03*
%TO.P,U2,2*%
%TO.N,/3.3V*%
X165100000Y-95800000D03*
D17*
X158800000Y-95800000D03*
%TD*%
D18*
%TO.P,SW1,2*%
%TO.N,/RESET*%
X167900000Y-100750000D03*
X167900000Y-94450000D03*
%TO.P,SW1,1*%
%TO.N,GND*%
X171700000Y-100750000D03*
X171700000Y-94450000D03*
%TD*%
%TO.P,R7,2*%
%TO.N,/SCK*%
%TA.AperFunction,SMDPad,CuDef*%
G36*
G01*
X110243750Y-95287500D02*
X111156250Y-95287500D01*
G75*
G02*
X111400000Y-95531250I0J-243750D01*
G01*
X111400000Y-96018750D01*
G75*
G02*
X111156250Y-96262500I-243750J0D01*
G01*
X110243750Y-96262500D01*
G75*
G02*
X110000000Y-96018750I0J243750D01*
G01*
X110000000Y-95531250D01*
G75*
G02*
X110243750Y-95287500I243750J0D01*
G01*
G37*
%TD.AperFunction*%
%TO.P,R7,1*%
%TO.N,Net-(R7-Pad1)*%
%TA.AperFunction,SMDPad,CuDef*%
G36*
G01*
X110243750Y-93412500D02*
X111156250Y-93412500D01*
G75*
G02*
X111400000Y-93656250I0J-243750D01*
G01*
X111400000Y-94143750D01*
G75*
G02*
X111156250Y-94387500I-243750J0D01*
G01*
X110243750Y-94387500D01*
G75*
G02*
X110000000Y-94143750I0J243750D01*
G01*
X110000000Y-93656250D01*
G75*
G02*
X110243750Y-93412500I243750J0D01*
G01*
G37*
%TD.AperFunction*%
%TD*%
%TO.P,R6,2*%
%TO.N,Net-(R6-Pad2)*%
%TA.AperFunction,SMDPad,CuDef*%
G36*
G01*
X125912500Y-90343750D02*
X125912500Y-91256250D01*
G75*
G02*
X125668750Y-91500000I-243750J0D01*
G01*
X125181250Y-91500000D01*
G75*
G02*
X124937500Y-91256250I0J243750D01*
G01*
X124937500Y-90343750D01*
G75*
G02*
X125181250Y-90100000I243750J0D01*
G01*
X125668750Y-90100000D01*
G75*
G02*
X125912500Y-90343750I0J-243750D01*
G01*
G37*
%TD.AperFunction*%
%TO.P,R6,1*%
%TO.N,/CS*%
%TA.AperFunction,SMDPad,CuDef*%
G36*
G01*
X127787500Y-90343750D02*
X127787500Y-91256250D01*
G75*
G02*
X127543750Y-91500000I-243750J0D01*
G01*
X127056250Y-91500000D01*
G75*
G02*
X126812500Y-91256250I0J243750D01*
G01*
X126812500Y-90343750D01*
G75*
G02*
X127056250Y-90100000I243750J0D01*
G01*
X127543750Y-90100000D01*
G75*
G02*
X127787500Y-90343750I0J-243750D01*
G01*
G37*
%TD.AperFunction*%
%TD*%
%TO.P,R3,2*%
%TO.N,/RESET*%
%TA.AperFunction,SMDPad,CuDef*%
G36*
G01*
X166336250Y-104052500D02*
X165423750Y-104052500D01*
G75*
G02*
X165180000Y-103808750I0J243750D01*
G01*
X165180000Y-103321250D01*
G75*
G02*
X165423750Y-103077500I243750J0D01*
G01*
X166336250Y-103077500D01*
G75*
G02*
X166580000Y-103321250I0J-243750D01*
G01*
X166580000Y-103808750D01*
G75*
G02*
X166336250Y-104052500I-243750J0D01*
G01*
G37*
%TD.AperFunction*%
%TO.P,R3,1*%
%TO.N,VBUS*%
%TA.AperFunction,SMDPad,CuDef*%
G36*
G01*
X166336250Y-105927500D02*
X165423750Y-105927500D01*
G75*
G02*
X165180000Y-105683750I0J243750D01*
G01*
X165180000Y-105196250D01*
G75*
G02*
X165423750Y-104952500I243750J0D01*
G01*
X166336250Y-104952500D01*
G75*
G02*
X166580000Y-105196250I0J-243750D01*
G01*
X166580000Y-105683750D01*
G75*
G02*
X166336250Y-105927500I-243750J0D01*
G01*
G37*
%TD.AperFunction*%
%TD*%
%TO.P,R2,2*%
%TO.N,/MOSI*%
%TA.AperFunction,SMDPad,CuDef*%
G36*
G01*
X111256250Y-90612500D02*
X110343750Y-90612500D01*
G75*
G02*
X110100000Y-90368750I0J243750D01*
G01*
X110100000Y-89881250D01*
G75*
G02*
X110343750Y-89637500I243750J0D01*
G01*
X111256250Y-89637500D01*
G75*
G02*
X111500000Y-89881250I0J-243750D01*
G01*
X111500000Y-90368750D01*
G75*
G02*
X111256250Y-90612500I-243750J0D01*
G01*
G37*
%TD.AperFunction*%
%TO.P,R2,1*%
%TO.N,Net-(R2-Pad1)*%
%TA.AperFunction,SMDPad,CuDef*%
G36*
G01*
X111256250Y-92487500D02*
X110343750Y-92487500D01*
G75*
G02*
X110100000Y-92243750I0J243750D01*
G01*
X110100000Y-91756250D01*
G75*
G02*
X110343750Y-91512500I243750J0D01*
G01*
X111256250Y-91512500D01*
G75*
G02*
X111500000Y-91756250I0J-243750D01*
G01*
X111500000Y-92243750D01*
G75*
G02*
X111256250Y-92487500I-243750J0D01*
G01*
G37*
%TD.AperFunction*%
%TD*%
%TO.P,R1,2*%
%TO.N,Net-(R1-Pad2)*%
%TA.AperFunction,SMDPad,CuDef*%
G36*
G01*
X118143750Y-99512500D02*
X119056250Y-99512500D01*
G75*
G02*
X119300000Y-99756250I0J-243750D01*
G01*
X119300000Y-100243750D01*
G75*
G02*
X119056250Y-100487500I-243750J0D01*
G01*
X118143750Y-100487500D01*
G75*
G02*
X117900000Y-100243750I0J243750D01*
G01*
X117900000Y-99756250D01*
G75*
G02*
X118143750Y-99512500I243750J0D01*
G01*
G37*
%TD.AperFunction*%
%TO.P,R1,1*%
%TO.N,Net-(R1-Pad1)*%
%TA.AperFunction,SMDPad,CuDef*%
G36*
G01*
X118143750Y-97637500D02*
X119056250Y-97637500D01*
G75*
G02*
X119300000Y-97881250I0J-243750D01*
G01*
X119300000Y-98368750D01*
G75*
G02*
X119056250Y-98612500I-243750J0D01*
G01*
X118143750Y-98612500D01*
G75*
G02*
X117900000Y-98368750I0J243750D01*
G01*
X117900000Y-97881250D01*
G75*
G02*
X118143750Y-97637500I243750J0D01*
G01*
G37*
%TD.AperFunction*%
%TD*%
D19*
%TO.P,J1,6*%
%TO.N,GND*%
X162140000Y-109500000D03*
%TO.P,J1,4*%
%TO.N,/MOSI*%
X159600000Y-109500000D03*
%TO.P,J1,2*%
%TO.N,VBUS*%
X157060000Y-109500000D03*
%TO.P,J1,5*%
%TO.N,/RESET*%
X162140000Y-112040000D03*
%TO.P,J1,3*%
%TO.N,/SCK*%
X159600000Y-112040000D03*
%TO.P,J1,1*%
%TO.N,/MISO*%
%TA.AperFunction,ComponentPad*%
G36*
G01*
X157660000Y-112890000D02*
X156460000Y-112890000D01*
G75*
G02*
X156210000Y-112640000I0J250000D01*
G01*
X156210000Y-111440000D01*
G75*
G02*
X156460000Y-111190000I250000J0D01*
G01*
X157660000Y-111190000D01*
G75*
G02*
X157910000Y-111440000I0J-250000D01*
G01*
X157910000Y-112640000D01*
G75*
G02*
X157660000Y-112890000I-250000J0D01*
G01*
G37*
%TD.AperFunction*%
%TD*%
%TO.P,C14,2*%
%TO.N,GND*%
%TA.AperFunction,SMDPad,CuDef*%
G36*
G01*
X155287500Y-95643750D02*
X155287500Y-96556250D01*
G75*
G02*
X155043750Y-96800000I-243750J0D01*
G01*
X154556250Y-96800000D01*
G75*
G02*
X154312500Y-96556250I0J243750D01*
G01*
X154312500Y-95643750D01*
G75*
G02*
X154556250Y-95400000I243750J0D01*
G01*
X155043750Y-95400000D01*
G75*
G02*
X155287500Y-95643750I0J-243750D01*
G01*
G37*
%TD.AperFunction*%
%TO.P,C14,1*%
%TO.N,/3.3V*%
%TA.AperFunction,SMDPad,CuDef*%
G36*
G01*
X157162500Y-95643750D02*
X157162500Y-96556250D01*
G75*
G02*
X156918750Y-96800000I-243750J0D01*
G01*
X156431250Y-96800000D01*
G75*
G02*
X156187500Y-96556250I0J243750D01*
G01*
X156187500Y-95643750D01*
G75*
G02*
X156431250Y-95400000I243750J0D01*
G01*
X156918750Y-95400000D01*
G75*
G02*
X157162500Y-95643750I0J-243750D01*
G01*
G37*
%TD.AperFunction*%
%TD*%
%TO.P,C12,2*%
%TO.N,GND*%
%TA.AperFunction,SMDPad,CuDef*%
G36*
G01*
X125787500Y-93743750D02*
X125787500Y-94656250D01*
G75*
G02*
X125543750Y-94900000I-243750J0D01*
G01*
X125056250Y-94900000D01*
G75*
G02*
X124812500Y-94656250I0J243750D01*
G01*
X124812500Y-93743750D01*
G75*
G02*
X125056250Y-93500000I243750J0D01*
G01*
X125543750Y-93500000D01*
G75*
G02*
X125787500Y-93743750I0J-243750D01*
G01*
G37*
%TD.AperFunction*%
%TO.P,C12,1*%
%TO.N,/3.3V*%
%TA.AperFunction,SMDPad,CuDef*%
G36*
G01*
X127662500Y-93743750D02*
X127662500Y-94656250D01*
G75*
G02*
X127418750Y-94900000I-243750J0D01*
G01*
X126931250Y-94900000D01*
G75*
G02*
X126687500Y-94656250I0J243750D01*
G01*
X126687500Y-93743750D01*
G75*
G02*
X126931250Y-93500000I243750J0D01*
G01*
X127418750Y-93500000D01*
G75*
G02*
X127662500Y-93743750I0J-243750D01*
G01*
G37*
%TD.AperFunction*%
%TD*%
%TO.P,C11,2*%
%TO.N,GND*%
%TA.AperFunction,SMDPad,CuDef*%
G36*
G01*
X160887500Y-99943750D02*
X160887500Y-100856250D01*
G75*
G02*
X160643750Y-101100000I-243750J0D01*
G01*
X160156250Y-101100000D01*
G75*
G02*
X159912500Y-100856250I0J243750D01*
G01*
X159912500Y-99943750D01*
G75*
G02*
X160156250Y-99700000I243750J0D01*
G01*
X160643750Y-99700000D01*
G75*
G02*
X160887500Y-99943750I0J-243750D01*
G01*
G37*
%TD.AperFunction*%
%TO.P,C11,1*%
%TO.N,Net-(C11-Pad1)*%
%TA.AperFunction,SMDPad,CuDef*%
G36*
G01*
X162762500Y-99943750D02*
X162762500Y-100856250D01*
G75*
G02*
X162518750Y-101100000I-243750J0D01*
G01*
X162031250Y-101100000D01*
G75*
G02*
X161787500Y-100856250I0J243750D01*
G01*
X161787500Y-99943750D01*
G75*
G02*
X162031250Y-99700000I243750J0D01*
G01*
X162518750Y-99700000D01*
G75*
G02*
X162762500Y-99943750I0J-243750D01*
G01*
G37*
%TD.AperFunction*%
%TD*%
D11*
%TO.P,SW2,S1*%
%TO.N,/D2*%
X109450000Y-102360000D03*
%TO.P,SW2,S2*%
%TO.N,/A0*%
X109450000Y-107440000D03*
%TO.P,SW2,C*%
%TO.N,GND*%
X91350000Y-104900000D03*
%TO.P,SW2,B*%
%TO.N,/D3*%
X91350000Y-102360000D03*
%TO.P,SW2,A*%
%TO.N,/D4*%
X91350000Y-107440000D03*
%TD*%
D20*
%TO.P,XS1,15*%
%TO.N,N/C*%
X112312500Y-107450000D03*
%TO.P,XS1,18*%
X123512500Y-107450000D03*
D21*
%TO.P,XS1,10*%
X123362500Y-104975000D03*
D22*
%TO.P,XS1,17*%
X122987500Y-112950000D03*
D23*
%TO.P,XS1,16*%
X112737500Y-112950000D03*
D24*
%TO.P,XS1,8*%
%TO.N,Net-(XS1-Pad8)*%
X113400000Y-111025000D03*
%TO.P,XS1,7*%
%TO.N,Net-(R1-Pad2)*%
X114500000Y-111025000D03*
%TO.P,XS1,6*%
%TO.N,GND*%
X115600000Y-111025000D03*
%TO.P,XS1,5*%
%TO.N,Net-(U3-Pad6)*%
X116700000Y-111025000D03*
%TO.P,XS1,4*%
%TO.N,/3.3V*%
X117800000Y-111025000D03*
%TO.P,XS1,3*%
%TO.N,Net-(U3-Pad3)*%
X118900000Y-111025000D03*
%TO.P,XS1,2*%
%TO.N,Net-(U3-Pad8)*%
X120000000Y-111025000D03*
%TO.P,XS1,1*%
%TO.N,Net-(XS1-Pad1)*%
X121100000Y-111025000D03*
D25*
%TO.P,XS1,9*%
%TO.N,Net-(XS1-Pad9)*%
X122090000Y-111025000D03*
D26*
%TO.P,XS1,13*%
%TO.N,N/C*%
X114100000Y-102525000D03*
D27*
%TO.P,XS1,14*%
X112462500Y-102525000D03*
%TO.P,XS1,11*%
X123337500Y-102525000D03*
D26*
%TO.P,XS1,12*%
X120900000Y-102525000D03*
%TD*%
D28*
%TO.P,X1,4*%
%TO.N,GND*%
X152900000Y-96000000D03*
%TO.P,X1,3*%
%TO.N,Net-(C8-Pad1)*%
X152900000Y-98200000D03*
%TO.P,X1,2*%
%TO.N,GND*%
X151300000Y-98200000D03*
%TO.P,X1,1*%
%TO.N,Net-(C7-Pad1)*%
X151300000Y-96000000D03*
%TD*%
%TO.P,U1,44*%
%TO.N,VBUS*%
%TA.AperFunction,SMDPad,CuDef*%
G36*
G01*
X135537500Y-100575000D02*
X134337500Y-100575000D01*
G75*
G02*
X134200000Y-100437500I0J137500D01*
G01*
X134200000Y-100162500D01*
G75*
G02*
X134337500Y-100025000I137500J0D01*
G01*
X135537500Y-100025000D01*
G75*
G02*
X135675000Y-100162500I0J-137500D01*
G01*
X135675000Y-100437500D01*
G75*
G02*
X135537500Y-100575000I-137500J0D01*
G01*
G37*
%TD.AperFunction*%
%TO.P,U1,43*%
%TO.N,GND*%
%TA.AperFunction,SMDPad,CuDef*%
G36*
G01*
X135537500Y-99775000D02*
X134337500Y-99775000D01*
G75*
G02*
X134200000Y-99637500I0J137500D01*
G01*
X134200000Y-99362500D01*
G75*
G02*
X134337500Y-99225000I137500J0D01*
G01*
X135537500Y-99225000D01*
G75*
G02*
X135675000Y-99362500I0J-137500D01*
G01*
X135675000Y-99637500D01*
G75*
G02*
X135537500Y-99775000I-137500J0D01*
G01*
G37*
%TD.AperFunction*%
%TO.P,U1,42*%
%TO.N,Net-(C10-Pad1)*%
%TA.AperFunction,SMDPad,CuDef*%
G36*
G01*
X135537500Y-98975000D02*
X134337500Y-98975000D01*
G75*
G02*
X134200000Y-98837500I0J137500D01*
G01*
X134200000Y-98562500D01*
G75*
G02*
X134337500Y-98425000I137500J0D01*
G01*
X135537500Y-98425000D01*
G75*
G02*
X135675000Y-98562500I0J-137500D01*
G01*
X135675000Y-98837500D01*
G75*
G02*
X135537500Y-98975000I-137500J0D01*
G01*
G37*
%TD.AperFunction*%
%TO.P,U1,41*%
%TO.N,Net-(U1-Pad41)*%
%TA.AperFunction,SMDPad,CuDef*%
G36*
G01*
X135537500Y-98175000D02*
X134337500Y-98175000D01*
G75*
G02*
X134200000Y-98037500I0J137500D01*
G01*
X134200000Y-97762500D01*
G75*
G02*
X134337500Y-97625000I137500J0D01*
G01*
X135537500Y-97625000D01*
G75*
G02*
X135675000Y-97762500I0J-137500D01*
G01*
X135675000Y-98037500D01*
G75*
G02*
X135537500Y-98175000I-137500J0D01*
G01*
G37*
%TD.AperFunction*%
%TO.P,U1,40*%
%TO.N,Net-(U1-Pad40)*%
%TA.AperFunction,SMDPad,CuDef*%
G36*
G01*
X135537500Y-97375000D02*
X134337500Y-97375000D01*
G75*
G02*
X134200000Y-97237500I0J137500D01*
G01*
X134200000Y-96962500D01*
G75*
G02*
X134337500Y-96825000I137500J0D01*
G01*
X135537500Y-96825000D01*
G75*
G02*
X135675000Y-96962500I0J-137500D01*
G01*
X135675000Y-97237500D01*
G75*
G02*
X135537500Y-97375000I-137500J0D01*
G01*
G37*
%TD.AperFunction*%
%TO.P,U1,39*%
%TO.N,Net-(U1-Pad39)*%
%TA.AperFunction,SMDPad,CuDef*%
G36*
G01*
X135537500Y-96575000D02*
X134337500Y-96575000D01*
G75*
G02*
X134200000Y-96437500I0J137500D01*
G01*
X134200000Y-96162500D01*
G75*
G02*
X134337500Y-96025000I137500J0D01*
G01*
X135537500Y-96025000D01*
G75*
G02*
X135675000Y-96162500I0J-137500D01*
G01*
X135675000Y-96437500D01*
G75*
G02*
X135537500Y-96575000I-137500J0D01*
G01*
G37*
%TD.AperFunction*%
%TO.P,U1,38*%
%TO.N,Net-(U1-Pad38)*%
%TA.AperFunction,SMDPad,CuDef*%
G36*
G01*
X135537500Y-95775000D02*
X134337500Y-95775000D01*
G75*
G02*
X134200000Y-95637500I0J137500D01*
G01*
X134200000Y-95362500D01*
G75*
G02*
X134337500Y-95225000I137500J0D01*
G01*
X135537500Y-95225000D01*
G75*
G02*
X135675000Y-95362500I0J-137500D01*
G01*
X135675000Y-95637500D01*
G75*
G02*
X135537500Y-95775000I-137500J0D01*
G01*
G37*
%TD.AperFunction*%
%TO.P,U1,37*%
%TO.N,Net-(U1-Pad37)*%
%TA.AperFunction,SMDPad,CuDef*%
G36*
G01*
X135537500Y-94975000D02*
X134337500Y-94975000D01*
G75*
G02*
X134200000Y-94837500I0J137500D01*
G01*
X134200000Y-94562500D01*
G75*
G02*
X134337500Y-94425000I137500J0D01*
G01*
X135537500Y-94425000D01*
G75*
G02*
X135675000Y-94562500I0J-137500D01*
G01*
X135675000Y-94837500D01*
G75*
G02*
X135537500Y-94975000I-137500J0D01*
G01*
G37*
%TD.AperFunction*%
%TO.P,U1,36*%
%TO.N,/A0*%
%TA.AperFunction,SMDPad,CuDef*%
G36*
G01*
X135537500Y-94175000D02*
X134337500Y-94175000D01*
G75*
G02*
X134200000Y-94037500I0J137500D01*
G01*
X134200000Y-93762500D01*
G75*
G02*
X134337500Y-93625000I137500J0D01*
G01*
X135537500Y-93625000D01*
G75*
G02*
X135675000Y-93762500I0J-137500D01*
G01*
X135675000Y-94037500D01*
G75*
G02*
X135537500Y-94175000I-137500J0D01*
G01*
G37*
%TD.AperFunction*%
%TO.P,U1,35*%
%TO.N,GND*%
%TA.AperFunction,SMDPad,CuDef*%
G36*
G01*
X135537500Y-93375000D02*
X134337500Y-93375000D01*
G75*
G02*
X134200000Y-93237500I0J137500D01*
G01*
X134200000Y-92962500D01*
G75*
G02*
X134337500Y-92825000I137500J0D01*
G01*
X135537500Y-92825000D01*
G75*
G02*
X135675000Y-92962500I0J-137500D01*
G01*
X135675000Y-93237500D01*
G75*
G02*
X135537500Y-93375000I-137500J0D01*
G01*
G37*
%TD.AperFunction*%
%TO.P,U1,34*%
%TO.N,VBUS*%
%TA.AperFunction,SMDPad,CuDef*%
G36*
G01*
X135537500Y-92575000D02*
X134337500Y-92575000D01*
G75*
G02*
X134200000Y-92437500I0J137500D01*
G01*
X134200000Y-92162500D01*
G75*
G02*
X134337500Y-92025000I137500J0D01*
G01*
X135537500Y-92025000D01*
G75*
G02*
X135675000Y-92162500I0J-137500D01*
G01*
X135675000Y-92437500D01*
G75*
G02*
X135537500Y-92575000I-137500J0D01*
G01*
G37*
%TD.AperFunction*%
%TO.P,U1,33*%
%TO.N,GND*%
%TA.AperFunction,SMDPad,CuDef*%
G36*
G01*
X136737500Y-91375000D02*
X136462500Y-91375000D01*
G75*
G02*
X136325000Y-91237500I0J137500D01*
G01*
X136325000Y-90037500D01*
G75*
G02*
X136462500Y-89900000I137500J0D01*
G01*
X136737500Y-89900000D01*
G75*
G02*
X136875000Y-90037500I0J-137500D01*
G01*
X136875000Y-91237500D01*
G75*
G02*
X136737500Y-91375000I-137500J0D01*
G01*
G37*
%TD.AperFunction*%
%TO.P,U1,32*%
%TO.N,/D13*%
%TA.AperFunction,SMDPad,CuDef*%
G36*
G01*
X137537500Y-91375000D02*
X137262500Y-91375000D01*
G75*
G02*
X137125000Y-91237500I0J137500D01*
G01*
X137125000Y-90037500D01*
G75*
G02*
X137262500Y-89900000I137500J0D01*
G01*
X137537500Y-89900000D01*
G75*
G02*
X137675000Y-90037500I0J-137500D01*
G01*
X137675000Y-91237500D01*
G75*
G02*
X137537500Y-91375000I-137500J0D01*
G01*
G37*
%TD.AperFunction*%
%TO.P,U1,31*%
%TO.N,/D5*%
%TA.AperFunction,SMDPad,CuDef*%
G36*
G01*
X138337500Y-91375000D02*
X138062500Y-91375000D01*
G75*
G02*
X137925000Y-91237500I0J137500D01*
G01*
X137925000Y-90037500D01*
G75*
G02*
X138062500Y-89900000I137500J0D01*
G01*
X138337500Y-89900000D01*
G75*
G02*
X138475000Y-90037500I0J-137500D01*
G01*
X138475000Y-91237500D01*
G75*
G02*
X138337500Y-91375000I-137500J0D01*
G01*
G37*
%TD.AperFunction*%
%TO.P,U1,30*%
%TO.N,/CS*%
%TA.AperFunction,SMDPad,CuDef*%
G36*
G01*
X139137500Y-91375000D02*
X138862500Y-91375000D01*
G75*
G02*
X138725000Y-91237500I0J137500D01*
G01*
X138725000Y-90037500D01*
G75*
G02*
X138862500Y-89900000I137500J0D01*
G01*
X139137500Y-89900000D01*
G75*
G02*
X139275000Y-90037500I0J-137500D01*
G01*
X139275000Y-91237500D01*
G75*
G02*
X139137500Y-91375000I-137500J0D01*
G01*
G37*
%TD.AperFunction*%
%TO.P,U1,29*%
%TO.N,/D9*%
%TA.AperFunction,SMDPad,CuDef*%
G36*
G01*
X139937500Y-91375000D02*
X139662500Y-91375000D01*
G75*
G02*
X139525000Y-91237500I0J137500D01*
G01*
X139525000Y-90037500D01*
G75*
G02*
X139662500Y-89900000I137500J0D01*
G01*
X139937500Y-89900000D01*
G75*
G02*
X140075000Y-90037500I0J-137500D01*
G01*
X140075000Y-91237500D01*
G75*
G02*
X139937500Y-91375000I-137500J0D01*
G01*
G37*
%TD.AperFunction*%
%TO.P,U1,28*%
%TO.N,/D8*%
%TA.AperFunction,SMDPad,CuDef*%
G36*
G01*
X140737500Y-91375000D02*
X140462500Y-91375000D01*
G75*
G02*
X140325000Y-91237500I0J137500D01*
G01*
X140325000Y-90037500D01*
G75*
G02*
X140462500Y-89900000I137500J0D01*
G01*
X140737500Y-89900000D01*
G75*
G02*
X140875000Y-90037500I0J-137500D01*
G01*
X140875000Y-91237500D01*
G75*
G02*
X140737500Y-91375000I-137500J0D01*
G01*
G37*
%TD.AperFunction*%
%TO.P,U1,27*%
%TO.N,/D6*%
%TA.AperFunction,SMDPad,CuDef*%
G36*
G01*
X141537500Y-91375000D02*
X141262500Y-91375000D01*
G75*
G02*
X141125000Y-91237500I0J137500D01*
G01*
X141125000Y-90037500D01*
G75*
G02*
X141262500Y-89900000I137500J0D01*
G01*
X141537500Y-89900000D01*
G75*
G02*
X141675000Y-90037500I0J-137500D01*
G01*
X141675000Y-91237500D01*
G75*
G02*
X141537500Y-91375000I-137500J0D01*
G01*
G37*
%TD.AperFunction*%
%TO.P,U1,26*%
%TO.N,/D12*%
%TA.AperFunction,SMDPad,CuDef*%
G36*
G01*
X142337500Y-91375000D02*
X142062500Y-91375000D01*
G75*
G02*
X141925000Y-91237500I0J137500D01*
G01*
X141925000Y-90037500D01*
G75*
G02*
X142062500Y-89900000I137500J0D01*
G01*
X142337500Y-89900000D01*
G75*
G02*
X142475000Y-90037500I0J-137500D01*
G01*
X142475000Y-91237500D01*
G75*
G02*
X142337500Y-91375000I-137500J0D01*
G01*
G37*
%TD.AperFunction*%
%TO.P,U1,25*%
%TO.N,/D4*%
%TA.AperFunction,SMDPad,CuDef*%
G36*
G01*
X143137500Y-91375000D02*
X142862500Y-91375000D01*
G75*
G02*
X142725000Y-91237500I0J137500D01*
G01*
X142725000Y-90037500D01*
G75*
G02*
X142862500Y-89900000I137500J0D01*
G01*
X143137500Y-89900000D01*
G75*
G02*
X143275000Y-90037500I0J-137500D01*
G01*
X143275000Y-91237500D01*
G75*
G02*
X143137500Y-91375000I-137500J0D01*
G01*
G37*
%TD.AperFunction*%
%TO.P,U1,24*%
%TO.N,VBUS*%
%TA.AperFunction,SMDPad,CuDef*%
G36*
G01*
X143937500Y-91375000D02*
X143662500Y-91375000D01*
G75*
G02*
X143525000Y-91237500I0J137500D01*
G01*
X143525000Y-90037500D01*
G75*
G02*
X143662500Y-89900000I137500J0D01*
G01*
X143937500Y-89900000D01*
G75*
G02*
X144075000Y-90037500I0J-137500D01*
G01*
X144075000Y-91237500D01*
G75*
G02*
X143937500Y-91375000I-137500J0D01*
G01*
G37*
%TD.AperFunction*%
%TO.P,U1,23*%
%TO.N,GND*%
%TA.AperFunction,SMDPad,CuDef*%
G36*
G01*
X144737500Y-91375000D02*
X144462500Y-91375000D01*
G75*
G02*
X144325000Y-91237500I0J137500D01*
G01*
X144325000Y-90037500D01*
G75*
G02*
X144462500Y-89900000I137500J0D01*
G01*
X144737500Y-89900000D01*
G75*
G02*
X144875000Y-90037500I0J-137500D01*
G01*
X144875000Y-91237500D01*
G75*
G02*
X144737500Y-91375000I-137500J0D01*
G01*
G37*
%TD.AperFunction*%
%TO.P,U1,22*%
%TO.N,Net-(U1-Pad22)*%
%TA.AperFunction,SMDPad,CuDef*%
G36*
G01*
X146862500Y-92575000D02*
X145662500Y-92575000D01*
G75*
G02*
X145525000Y-92437500I0J137500D01*
G01*
X145525000Y-92162500D01*
G75*
G02*
X145662500Y-92025000I137500J0D01*
G01*
X146862500Y-92025000D01*
G75*
G02*
X147000000Y-92162500I0J-137500D01*
G01*
X147000000Y-92437500D01*
G75*
G02*
X146862500Y-92575000I-137500J0D01*
G01*
G37*
%TD.AperFunction*%
%TO.P,U1,21*%
%TO.N,/D1*%
%TA.AperFunction,SMDPad,CuDef*%
G36*
G01*
X146862500Y-93375000D02*
X145662500Y-93375000D01*
G75*
G02*
X145525000Y-93237500I0J137500D01*
G01*
X145525000Y-92962500D01*
G75*
G02*
X145662500Y-92825000I137500J0D01*
G01*
X146862500Y-92825000D01*
G75*
G02*
X147000000Y-92962500I0J-137500D01*
G01*
X147000000Y-93237500D01*
G75*
G02*
X146862500Y-93375000I-137500J0D01*
G01*
G37*
%TD.AperFunction*%
%TO.P,U1,20*%
%TO.N,/D0*%
%TA.AperFunction,SMDPad,CuDef*%
G36*
G01*
X146862500Y-94175000D02*
X145662500Y-94175000D01*
G75*
G02*
X145525000Y-94037500I0J137500D01*
G01*
X145525000Y-93762500D01*
G75*
G02*
X145662500Y-93625000I137500J0D01*
G01*
X146862500Y-93625000D01*
G75*
G02*
X147000000Y-93762500I0J-137500D01*
G01*
X147000000Y-94037500D01*
G75*
G02*
X146862500Y-94175000I-137500J0D01*
G01*
G37*
%TD.AperFunction*%
%TO.P,U1,19*%
%TO.N,/D2*%
%TA.AperFunction,SMDPad,CuDef*%
G36*
G01*
X146862500Y-94975000D02*
X145662500Y-94975000D01*
G75*
G02*
X145525000Y-94837500I0J137500D01*
G01*
X145525000Y-94562500D01*
G75*
G02*
X145662500Y-94425000I137500J0D01*
G01*
X146862500Y-94425000D01*
G75*
G02*
X147000000Y-94562500I0J-137500D01*
G01*
X147000000Y-94837500D01*
G75*
G02*
X146862500Y-94975000I-137500J0D01*
G01*
G37*
%TD.AperFunction*%
%TO.P,U1,18*%
%TO.N,/D3*%
%TA.AperFunction,SMDPad,CuDef*%
G36*
G01*
X146862500Y-95775000D02*
X145662500Y-95775000D01*
G75*
G02*
X145525000Y-95637500I0J137500D01*
G01*
X145525000Y-95362500D01*
G75*
G02*
X145662500Y-95225000I137500J0D01*
G01*
X146862500Y-95225000D01*
G75*
G02*
X147000000Y-95362500I0J-137500D01*
G01*
X147000000Y-95637500D01*
G75*
G02*
X146862500Y-95775000I-137500J0D01*
G01*
G37*
%TD.AperFunction*%
%TO.P,U1,17*%
%TO.N,Net-(C7-Pad1)*%
%TA.AperFunction,SMDPad,CuDef*%
G36*
G01*
X146862500Y-96575000D02*
X145662500Y-96575000D01*
G75*
G02*
X145525000Y-96437500I0J137500D01*
G01*
X145525000Y-96162500D01*
G75*
G02*
X145662500Y-96025000I137500J0D01*
G01*
X146862500Y-96025000D01*
G75*
G02*
X147000000Y-96162500I0J-137500D01*
G01*
X147000000Y-96437500D01*
G75*
G02*
X146862500Y-96575000I-137500J0D01*
G01*
G37*
%TD.AperFunction*%
%TO.P,U1,16*%
%TO.N,Net-(C8-Pad1)*%
%TA.AperFunction,SMDPad,CuDef*%
G36*
G01*
X146862500Y-97375000D02*
X145662500Y-97375000D01*
G75*
G02*
X145525000Y-97237500I0J137500D01*
G01*
X145525000Y-96962500D01*
G75*
G02*
X145662500Y-96825000I137500J0D01*
G01*
X146862500Y-96825000D01*
G75*
G02*
X147000000Y-96962500I0J-137500D01*
G01*
X147000000Y-97237500D01*
G75*
G02*
X146862500Y-97375000I-137500J0D01*
G01*
G37*
%TD.AperFunction*%
%TO.P,U1,15*%
%TO.N,GND*%
%TA.AperFunction,SMDPad,CuDef*%
G36*
G01*
X146862500Y-98175000D02*
X145662500Y-98175000D01*
G75*
G02*
X145525000Y-98037500I0J137500D01*
G01*
X145525000Y-97762500D01*
G75*
G02*
X145662500Y-97625000I137500J0D01*
G01*
X146862500Y-97625000D01*
G75*
G02*
X147000000Y-97762500I0J-137500D01*
G01*
X147000000Y-98037500D01*
G75*
G02*
X146862500Y-98175000I-137500J0D01*
G01*
G37*
%TD.AperFunction*%
%TO.P,U1,14*%
%TO.N,VBUS*%
%TA.AperFunction,SMDPad,CuDef*%
G36*
G01*
X146862500Y-98975000D02*
X145662500Y-98975000D01*
G75*
G02*
X145525000Y-98837500I0J137500D01*
G01*
X145525000Y-98562500D01*
G75*
G02*
X145662500Y-98425000I137500J0D01*
G01*
X146862500Y-98425000D01*
G75*
G02*
X147000000Y-98562500I0J-137500D01*
G01*
X147000000Y-98837500D01*
G75*
G02*
X146862500Y-98975000I-137500J0D01*
G01*
G37*
%TD.AperFunction*%
%TO.P,U1,13*%
%TO.N,/RESET*%
%TA.AperFunction,SMDPad,CuDef*%
G36*
G01*
X146862500Y-99775000D02*
X145662500Y-99775000D01*
G75*
G02*
X145525000Y-99637500I0J137500D01*
G01*
X145525000Y-99362500D01*
G75*
G02*
X145662500Y-99225000I137500J0D01*
G01*
X146862500Y-99225000D01*
G75*
G02*
X147000000Y-99362500I0J-137500D01*
G01*
X147000000Y-99637500D01*
G75*
G02*
X146862500Y-99775000I-137500J0D01*
G01*
G37*
%TD.AperFunction*%
%TO.P,U1,12*%
%TO.N,/D11*%
%TA.AperFunction,SMDPad,CuDef*%
G36*
G01*
X146862500Y-100575000D02*
X145662500Y-100575000D01*
G75*
G02*
X145525000Y-100437500I0J137500D01*
G01*
X145525000Y-100162500D01*
G75*
G02*
X145662500Y-100025000I137500J0D01*
G01*
X146862500Y-100025000D01*
G75*
G02*
X147000000Y-100162500I0J-137500D01*
G01*
X147000000Y-100437500D01*
G75*
G02*
X146862500Y-100575000I-137500J0D01*
G01*
G37*
%TD.AperFunction*%
%TO.P,U1,11*%
%TO.N,/MISO*%
%TA.AperFunction,SMDPad,CuDef*%
G36*
G01*
X144737500Y-102700000D02*
X144462500Y-102700000D01*
G75*
G02*
X144325000Y-102562500I0J137500D01*
G01*
X144325000Y-101362500D01*
G75*
G02*
X144462500Y-101225000I137500J0D01*
G01*
X144737500Y-101225000D01*
G75*
G02*
X144875000Y-101362500I0J-137500D01*
G01*
X144875000Y-102562500D01*
G75*
G02*
X144737500Y-102700000I-137500J0D01*
G01*
G37*
%TD.AperFunction*%
%TO.P,U1,10*%
%TO.N,/MOSI*%
%TA.AperFunction,SMDPad,CuDef*%
G36*
G01*
X143937500Y-102700000D02*
X143662500Y-102700000D01*
G75*
G02*
X143525000Y-102562500I0J137500D01*
G01*
X143525000Y-101362500D01*
G75*
G02*
X143662500Y-101225000I137500J0D01*
G01*
X143937500Y-101225000D01*
G75*
G02*
X144075000Y-101362500I0J-137500D01*
G01*
X144075000Y-102562500D01*
G75*
G02*
X143937500Y-102700000I-137500J0D01*
G01*
G37*
%TD.AperFunction*%
%TO.P,U1,9*%
%TO.N,/SCK*%
%TA.AperFunction,SMDPad,CuDef*%
G36*
G01*
X143137500Y-102700000D02*
X142862500Y-102700000D01*
G75*
G02*
X142725000Y-102562500I0J137500D01*
G01*
X142725000Y-101362500D01*
G75*
G02*
X142862500Y-101225000I137500J0D01*
G01*
X143137500Y-101225000D01*
G75*
G02*
X143275000Y-101362500I0J-137500D01*
G01*
X143275000Y-102562500D01*
G75*
G02*
X143137500Y-102700000I-137500J0D01*
G01*
G37*
%TD.AperFunction*%
%TO.P,U1,8*%
%TO.N,Net-(U1-Pad8)*%
%TA.AperFunction,SMDPad,CuDef*%
G36*
G01*
X142337500Y-102700000D02*
X142062500Y-102700000D01*
G75*
G02*
X141925000Y-102562500I0J137500D01*
G01*
X141925000Y-101362500D01*
G75*
G02*
X142062500Y-101225000I137500J0D01*
G01*
X142337500Y-101225000D01*
G75*
G02*
X142475000Y-101362500I0J-137500D01*
G01*
X142475000Y-102562500D01*
G75*
G02*
X142337500Y-102700000I-137500J0D01*
G01*
G37*
%TD.AperFunction*%
%TO.P,U1,7*%
%TO.N,VBUS*%
%TA.AperFunction,SMDPad,CuDef*%
G36*
G01*
X141537500Y-102700000D02*
X141262500Y-102700000D01*
G75*
G02*
X141125000Y-102562500I0J137500D01*
G01*
X141125000Y-101362500D01*
G75*
G02*
X141262500Y-101225000I137500J0D01*
G01*
X141537500Y-101225000D01*
G75*
G02*
X141675000Y-101362500I0J-137500D01*
G01*
X141675000Y-102562500D01*
G75*
G02*
X141537500Y-102700000I-137500J0D01*
G01*
G37*
%TD.AperFunction*%
%TO.P,U1,6*%
%TO.N,Net-(C9-Pad1)*%
%TA.AperFunction,SMDPad,CuDef*%
G36*
G01*
X140737500Y-102700000D02*
X140462500Y-102700000D01*
G75*
G02*
X140325000Y-102562500I0J137500D01*
G01*
X140325000Y-101362500D01*
G75*
G02*
X140462500Y-101225000I137500J0D01*
G01*
X140737500Y-101225000D01*
G75*
G02*
X140875000Y-101362500I0J-137500D01*
G01*
X140875000Y-102562500D01*
G75*
G02*
X140737500Y-102700000I-137500J0D01*
G01*
G37*
%TD.AperFunction*%
%TO.P,U1,5*%
%TO.N,GND*%
%TA.AperFunction,SMDPad,CuDef*%
G36*
G01*
X139937500Y-102700000D02*
X139662500Y-102700000D01*
G75*
G02*
X139525000Y-102562500I0J137500D01*
G01*
X139525000Y-101362500D01*
G75*
G02*
X139662500Y-101225000I137500J0D01*
G01*
X139937500Y-101225000D01*
G75*
G02*
X140075000Y-101362500I0J-137500D01*
G01*
X140075000Y-102562500D01*
G75*
G02*
X139937500Y-102700000I-137500J0D01*
G01*
G37*
%TD.AperFunction*%
%TO.P,U1,4*%
%TO.N,Net-(R4-Pad2)*%
%TA.AperFunction,SMDPad,CuDef*%
G36*
G01*
X139137500Y-102700000D02*
X138862500Y-102700000D01*
G75*
G02*
X138725000Y-102562500I0J137500D01*
G01*
X138725000Y-101362500D01*
G75*
G02*
X138862500Y-101225000I137500J0D01*
G01*
X139137500Y-101225000D01*
G75*
G02*
X139275000Y-101362500I0J-137500D01*
G01*
X139275000Y-102562500D01*
G75*
G02*
X139137500Y-102700000I-137500J0D01*
G01*
G37*
%TD.AperFunction*%
%TO.P,U1,3*%
%TO.N,Net-(R5-Pad2)*%
%TA.AperFunction,SMDPad,CuDef*%
G36*
G01*
X138337500Y-102700000D02*
X138062500Y-102700000D01*
G75*
G02*
X137925000Y-102562500I0J137500D01*
G01*
X137925000Y-101362500D01*
G75*
G02*
X138062500Y-101225000I137500J0D01*
G01*
X138337500Y-101225000D01*
G75*
G02*
X138475000Y-101362500I0J-137500D01*
G01*
X138475000Y-102562500D01*
G75*
G02*
X138337500Y-102700000I-137500J0D01*
G01*
G37*
%TD.AperFunction*%
%TO.P,U1,2*%
%TO.N,VBUS*%
%TA.AperFunction,SMDPad,CuDef*%
G36*
G01*
X137537500Y-102700000D02*
X137262500Y-102700000D01*
G75*
G02*
X137125000Y-102562500I0J137500D01*
G01*
X137125000Y-101362500D01*
G75*
G02*
X137262500Y-101225000I137500J0D01*
G01*
X137537500Y-101225000D01*
G75*
G02*
X137675000Y-101362500I0J-137500D01*
G01*
X137675000Y-102562500D01*
G75*
G02*
X137537500Y-102700000I-137500J0D01*
G01*
G37*
%TD.AperFunction*%
%TO.P,U1,1*%
%TO.N,/D7*%
%TA.AperFunction,SMDPad,CuDef*%
G36*
G01*
X136737500Y-102700000D02*
X136462500Y-102700000D01*
G75*
G02*
X136325000Y-102562500I0J137500D01*
G01*
X136325000Y-101362500D01*
G75*
G02*
X136462500Y-101225000I137500J0D01*
G01*
X136737500Y-101225000D01*
G75*
G02*
X136875000Y-101362500I0J-137500D01*
G01*
X136875000Y-102562500D01*
G75*
G02*
X136737500Y-102700000I-137500J0D01*
G01*
G37*
%TD.AperFunction*%
%TD*%
%TO.P,R5,2*%
%TO.N,Net-(R5-Pad2)*%
%TA.AperFunction,SMDPad,CuDef*%
G36*
G01*
X137556250Y-107387500D02*
X136643750Y-107387500D01*
G75*
G02*
X136400000Y-107143750I0J243750D01*
G01*
X136400000Y-106656250D01*
G75*
G02*
X136643750Y-106412500I243750J0D01*
G01*
X137556250Y-106412500D01*
G75*
G02*
X137800000Y-106656250I0J-243750D01*
G01*
X137800000Y-107143750D01*
G75*
G02*
X137556250Y-107387500I-243750J0D01*
G01*
G37*
%TD.AperFunction*%
%TO.P,R5,1*%
%TO.N,/D-*%
%TA.AperFunction,SMDPad,CuDef*%
G36*
G01*
X137556250Y-109262500D02*
X136643750Y-109262500D01*
G75*
G02*
X136400000Y-109018750I0J243750D01*
G01*
X136400000Y-108531250D01*
G75*
G02*
X136643750Y-108287500I243750J0D01*
G01*
X137556250Y-108287500D01*
G75*
G02*
X137800000Y-108531250I0J-243750D01*
G01*
X137800000Y-109018750D01*
G75*
G02*
X137556250Y-109262500I-243750J0D01*
G01*
G37*
%TD.AperFunction*%
%TD*%
%TO.P,R4,2*%
%TO.N,Net-(R4-Pad2)*%
%TA.AperFunction,SMDPad,CuDef*%
G36*
G01*
X139556250Y-107387500D02*
X138643750Y-107387500D01*
G75*
G02*
X138400000Y-107143750I0J243750D01*
G01*
X138400000Y-106656250D01*
G75*
G02*
X138643750Y-106412500I243750J0D01*
G01*
X139556250Y-106412500D01*
G75*
G02*
X139800000Y-106656250I0J-243750D01*
G01*
X139800000Y-107143750D01*
G75*
G02*
X139556250Y-107387500I-243750J0D01*
G01*
G37*
%TD.AperFunction*%
%TO.P,R4,1*%
%TO.N,/D+*%
%TA.AperFunction,SMDPad,CuDef*%
G36*
G01*
X139556250Y-109262500D02*
X138643750Y-109262500D01*
G75*
G02*
X138400000Y-109018750I0J243750D01*
G01*
X138400000Y-108531250D01*
G75*
G02*
X138643750Y-108287500I243750J0D01*
G01*
X139556250Y-108287500D01*
G75*
G02*
X139800000Y-108531250I0J-243750D01*
G01*
X139800000Y-109018750D01*
G75*
G02*
X139556250Y-109262500I-243750J0D01*
G01*
G37*
%TD.AperFunction*%
%TD*%
D12*
%TO.P,MX3,2*%
%TO.N,/A0*%
X127050000Y-107460000D03*
%TO.P,MX3,1*%
%TO.N,/D7*%
X133400000Y-110000000D03*
%TD*%
%TO.P,MX2,2*%
%TO.N,/A0*%
X165150000Y-107460000D03*
%TO.P,MX2,1*%
%TO.N,/D9*%
X171500000Y-110000000D03*
%TD*%
%TO.P,MX1,2*%
%TO.N,/A0*%
X146100000Y-107460000D03*
%TO.P,MX1,1*%
%TO.N,/D5*%
X152450000Y-110000000D03*
%TD*%
%TO.P,C10,2*%
%TO.N,GND*%
%TA.AperFunction,SMDPad,CuDef*%
G36*
G01*
X130887500Y-98143750D02*
X130887500Y-99056250D01*
G75*
G02*
X130643750Y-99300000I-243750J0D01*
G01*
X130156250Y-99300000D01*
G75*
G02*
X129912500Y-99056250I0J243750D01*
G01*
X129912500Y-98143750D01*
G75*
G02*
X130156250Y-97900000I243750J0D01*
G01*
X130643750Y-97900000D01*
G75*
G02*
X130887500Y-98143750I0J-243750D01*
G01*
G37*
%TD.AperFunction*%
%TO.P,C10,1*%
%TO.N,Net-(C10-Pad1)*%
%TA.AperFunction,SMDPad,CuDef*%
G36*
G01*
X132762500Y-98143750D02*
X132762500Y-99056250D01*
G75*
G02*
X132518750Y-99300000I-243750J0D01*
G01*
X132031250Y-99300000D01*
G75*
G02*
X131787500Y-99056250I0J243750D01*
G01*
X131787500Y-98143750D01*
G75*
G02*
X132031250Y-97900000I243750J0D01*
G01*
X132518750Y-97900000D01*
G75*
G02*
X132762500Y-98143750I0J-243750D01*
G01*
G37*
%TD.AperFunction*%
%TD*%
%TO.P,C9,2*%
%TO.N,GND*%
%TA.AperFunction,SMDPad,CuDef*%
G36*
G01*
X141387500Y-105843750D02*
X141387500Y-106756250D01*
G75*
G02*
X141143750Y-107000000I-243750J0D01*
G01*
X140656250Y-107000000D01*
G75*
G02*
X140412500Y-106756250I0J243750D01*
G01*
X140412500Y-105843750D01*
G75*
G02*
X140656250Y-105600000I243750J0D01*
G01*
X141143750Y-105600000D01*
G75*
G02*
X141387500Y-105843750I0J-243750D01*
G01*
G37*
%TD.AperFunction*%
%TO.P,C9,1*%
%TO.N,Net-(C9-Pad1)*%
%TA.AperFunction,SMDPad,CuDef*%
G36*
G01*
X143262500Y-105843750D02*
X143262500Y-106756250D01*
G75*
G02*
X143018750Y-107000000I-243750J0D01*
G01*
X142531250Y-107000000D01*
G75*
G02*
X142287500Y-106756250I0J243750D01*
G01*
X142287500Y-105843750D01*
G75*
G02*
X142531250Y-105600000I243750J0D01*
G01*
X143018750Y-105600000D01*
G75*
G02*
X143262500Y-105843750I0J-243750D01*
G01*
G37*
%TD.AperFunction*%
%TD*%
%TO.P,C8,2*%
%TO.N,GND*%
%TA.AperFunction,SMDPad,CuDef*%
G36*
G01*
X152387500Y-99843750D02*
X152387500Y-100756250D01*
G75*
G02*
X152143750Y-101000000I-243750J0D01*
G01*
X151656250Y-101000000D01*
G75*
G02*
X151412500Y-100756250I0J243750D01*
G01*
X151412500Y-99843750D01*
G75*
G02*
X151656250Y-99600000I243750J0D01*
G01*
X152143750Y-99600000D01*
G75*
G02*
X152387500Y-99843750I0J-243750D01*
G01*
G37*
%TD.AperFunction*%
%TO.P,C8,1*%
%TO.N,Net-(C8-Pad1)*%
%TA.AperFunction,SMDPad,CuDef*%
G36*
G01*
X154262500Y-99843750D02*
X154262500Y-100756250D01*
G75*
G02*
X154018750Y-101000000I-243750J0D01*
G01*
X153531250Y-101000000D01*
G75*
G02*
X153287500Y-100756250I0J243750D01*
G01*
X153287500Y-99843750D01*
G75*
G02*
X153531250Y-99600000I243750J0D01*
G01*
X154018750Y-99600000D01*
G75*
G02*
X154262500Y-99843750I0J-243750D01*
G01*
G37*
%TD.AperFunction*%
%TD*%
%TO.P,C7,2*%
%TO.N,GND*%
%TA.AperFunction,SMDPad,CuDef*%
G36*
G01*
X153087500Y-94556250D02*
X153087500Y-93643750D01*
G75*
G02*
X153331250Y-93400000I243750J0D01*
G01*
X153818750Y-93400000D01*
G75*
G02*
X154062500Y-93643750I0J-243750D01*
G01*
X154062500Y-94556250D01*
G75*
G02*
X153818750Y-94800000I-243750J0D01*
G01*
X153331250Y-94800000D01*
G75*
G02*
X153087500Y-94556250I0J243750D01*
G01*
G37*
%TD.AperFunction*%
%TO.P,C7,1*%
%TO.N,Net-(C7-Pad1)*%
%TA.AperFunction,SMDPad,CuDef*%
G36*
G01*
X151212500Y-94556250D02*
X151212500Y-93643750D01*
G75*
G02*
X151456250Y-93400000I243750J0D01*
G01*
X151943750Y-93400000D01*
G75*
G02*
X152187500Y-93643750I0J-243750D01*
G01*
X152187500Y-94556250D01*
G75*
G02*
X151943750Y-94800000I-243750J0D01*
G01*
X151456250Y-94800000D01*
G75*
G02*
X151212500Y-94556250I0J243750D01*
G01*
G37*
%TD.AperFunction*%
%TD*%
%TO.P,C6,2*%
%TO.N,GND*%
%TA.AperFunction,SMDPad,CuDef*%
G36*
G01*
X143143750Y-109912500D02*
X144056250Y-109912500D01*
G75*
G02*
X144300000Y-110156250I0J-243750D01*
G01*
X144300000Y-110643750D01*
G75*
G02*
X144056250Y-110887500I-243750J0D01*
G01*
X143143750Y-110887500D01*
G75*
G02*
X142900000Y-110643750I0J243750D01*
G01*
X142900000Y-110156250D01*
G75*
G02*
X143143750Y-109912500I243750J0D01*
G01*
G37*
%TD.AperFunction*%
%TO.P,C6,1*%
%TO.N,VBUS*%
%TA.AperFunction,SMDPad,CuDef*%
G36*
G01*
X143143750Y-108037500D02*
X144056250Y-108037500D01*
G75*
G02*
X144300000Y-108281250I0J-243750D01*
G01*
X144300000Y-108768750D01*
G75*
G02*
X144056250Y-109012500I-243750J0D01*
G01*
X143143750Y-109012500D01*
G75*
G02*
X142900000Y-108768750I0J243750D01*
G01*
X142900000Y-108281250D01*
G75*
G02*
X143143750Y-108037500I243750J0D01*
G01*
G37*
%TD.AperFunction*%
%TD*%
%TO.P,C5,2*%
%TO.N,GND*%
%TA.AperFunction,SMDPad,CuDef*%
G36*
G01*
X133543750Y-105350000D02*
X134456250Y-105350000D01*
G75*
G02*
X134700000Y-105593750I0J-243750D01*
G01*
X134700000Y-106081250D01*
G75*
G02*
X134456250Y-106325000I-243750J0D01*
G01*
X133543750Y-106325000D01*
G75*
G02*
X133300000Y-106081250I0J243750D01*
G01*
X133300000Y-105593750D01*
G75*
G02*
X133543750Y-105350000I243750J0D01*
G01*
G37*
%TD.AperFunction*%
%TO.P,C5,1*%
%TO.N,VBUS*%
%TA.AperFunction,SMDPad,CuDef*%
G36*
G01*
X133543750Y-103475000D02*
X134456250Y-103475000D01*
G75*
G02*
X134700000Y-103718750I0J-243750D01*
G01*
X134700000Y-104206250D01*
G75*
G02*
X134456250Y-104450000I-243750J0D01*
G01*
X133543750Y-104450000D01*
G75*
G02*
X133300000Y-104206250I0J243750D01*
G01*
X133300000Y-103718750D01*
G75*
G02*
X133543750Y-103475000I243750J0D01*
G01*
G37*
%TD.AperFunction*%
%TD*%
%TO.P,C4,2*%
%TO.N,GND*%
%TA.AperFunction,SMDPad,CuDef*%
G36*
G01*
X131312500Y-100543750D02*
X131312500Y-101456250D01*
G75*
G02*
X131068750Y-101700000I-243750J0D01*
G01*
X130581250Y-101700000D01*
G75*
G02*
X130337500Y-101456250I0J243750D01*
G01*
X130337500Y-100543750D01*
G75*
G02*
X130581250Y-100300000I243750J0D01*
G01*
X131068750Y-100300000D01*
G75*
G02*
X131312500Y-100543750I0J-243750D01*
G01*
G37*
%TD.AperFunction*%
%TO.P,C4,1*%
%TO.N,VBUS*%
%TA.AperFunction,SMDPad,CuDef*%
G36*
G01*
X133187500Y-100543750D02*
X133187500Y-101456250D01*
G75*
G02*
X132943750Y-101700000I-243750J0D01*
G01*
X132456250Y-101700000D01*
G75*
G02*
X132212500Y-101456250I0J243750D01*
G01*
X132212500Y-100543750D01*
G75*
G02*
X132456250Y-100300000I243750J0D01*
G01*
X132943750Y-100300000D01*
G75*
G02*
X133187500Y-100543750I0J-243750D01*
G01*
G37*
%TD.AperFunction*%
%TD*%
%TO.P,C3,2*%
%TO.N,GND*%
%TA.AperFunction,SMDPad,CuDef*%
G36*
G01*
X148287500Y-90756250D02*
X148287500Y-89843750D01*
G75*
G02*
X148531250Y-89600000I243750J0D01*
G01*
X149018750Y-89600000D01*
G75*
G02*
X149262500Y-89843750I0J-243750D01*
G01*
X149262500Y-90756250D01*
G75*
G02*
X149018750Y-91000000I-243750J0D01*
G01*
X148531250Y-91000000D01*
G75*
G02*
X148287500Y-90756250I0J243750D01*
G01*
G37*
%TD.AperFunction*%
%TO.P,C3,1*%
%TO.N,VBUS*%
%TA.AperFunction,SMDPad,CuDef*%
G36*
G01*
X146412500Y-90756250D02*
X146412500Y-89843750D01*
G75*
G02*
X146656250Y-89600000I243750J0D01*
G01*
X147143750Y-89600000D01*
G75*
G02*
X147387500Y-89843750I0J-243750D01*
G01*
X147387500Y-90756250D01*
G75*
G02*
X147143750Y-91000000I-243750J0D01*
G01*
X146656250Y-91000000D01*
G75*
G02*
X146412500Y-90756250I0J243750D01*
G01*
G37*
%TD.AperFunction*%
%TD*%
%TO.P,C2,2*%
%TO.N,GND*%
%TA.AperFunction,SMDPad,CuDef*%
G36*
G01*
X130743750Y-92212500D02*
X131656250Y-92212500D01*
G75*
G02*
X131900000Y-92456250I0J-243750D01*
G01*
X131900000Y-92943750D01*
G75*
G02*
X131656250Y-93187500I-243750J0D01*
G01*
X130743750Y-93187500D01*
G75*
G02*
X130500000Y-92943750I0J243750D01*
G01*
X130500000Y-92456250D01*
G75*
G02*
X130743750Y-92212500I243750J0D01*
G01*
G37*
%TD.AperFunction*%
%TO.P,C2,1*%
%TO.N,VBUS*%
%TA.AperFunction,SMDPad,CuDef*%
G36*
G01*
X130743750Y-90337500D02*
X131656250Y-90337500D01*
G75*
G02*
X131900000Y-90581250I0J-243750D01*
G01*
X131900000Y-91068750D01*
G75*
G02*
X131656250Y-91312500I-243750J0D01*
G01*
X130743750Y-91312500D01*
G75*
G02*
X130500000Y-91068750I0J243750D01*
G01*
X130500000Y-90581250D01*
G75*
G02*
X130743750Y-90337500I243750J0D01*
G01*
G37*
%TD.AperFunction*%
%TD*%
%TO.P,C1,2*%
%TO.N,GND*%
%TA.AperFunction,SMDPad,CuDef*%
G36*
G01*
X149887500Y-101856250D02*
X149887500Y-100943750D01*
G75*
G02*
X150131250Y-100700000I243750J0D01*
G01*
X150618750Y-100700000D01*
G75*
G02*
X150862500Y-100943750I0J-243750D01*
G01*
X150862500Y-101856250D01*
G75*
G02*
X150618750Y-102100000I-243750J0D01*
G01*
X150131250Y-102100000D01*
G75*
G02*
X149887500Y-101856250I0J243750D01*
G01*
G37*
%TD.AperFunction*%
%TO.P,C1,1*%
%TO.N,VBUS*%
%TA.AperFunction,SMDPad,CuDef*%
G36*
G01*
X148012500Y-101856250D02*
X148012500Y-100943750D01*
G75*
G02*
X148256250Y-100700000I243750J0D01*
G01*
X148743750Y-100700000D01*
G75*
G02*
X148987500Y-100943750I0J-243750D01*
G01*
X148987500Y-101856250D01*
G75*
G02*
X148743750Y-102100000I-243750J0D01*
G01*
X148256250Y-102100000D01*
G75*
G02*
X148012500Y-101856250I0J243750D01*
G01*
G37*
%TD.AperFunction*%
%TD*%
D29*
%TO.N,GND*%
X156700000Y-97800000D03*
X167074999Y-97125001D03*
X123500000Y-92500000D03*
X124100000Y-96100000D03*
X129000000Y-99300000D03*
X129772978Y-101572978D03*
X109700000Y-100200000D03*
X115600000Y-108900000D03*
X154800000Y-97740000D03*
X170750000Y-99170000D03*
X168850000Y-96270000D03*
X158140000Y-100100000D03*
X157160000Y-107290000D03*
X165880000Y-109830000D03*
X168170000Y-109500000D03*
X141175153Y-109824847D03*
X139699847Y-110400153D03*
X161498305Y-107397453D03*
%TO.N,/3.3V*%
X156712653Y-94312653D03*
X128300000Y-95100000D03*
X120900000Y-101000000D03*
X131800000Y-94300000D03*
X143561354Y-92513341D03*
X163500000Y-95800000D03*
X160487510Y-95800000D03*
X141090000Y-94075000D03*
%TO.N,/MOSI*%
X147350084Y-108612510D03*
X132900000Y-91900000D03*
X141100000Y-95600000D03*
%TO.N,/RESET*%
X144500000Y-99200000D03*
X161020000Y-105460000D03*
X167270000Y-102740000D03*
%TO.N,/SCK*%
X146300000Y-105500000D03*
X155400000Y-110600000D03*
X113500000Y-105300000D03*
X148700000Y-112700000D03*
%TO.N,/MISO*%
X148300000Y-108300000D03*
X144587347Y-100312653D03*
X131600000Y-95800000D03*
%TO.N,/A0*%
X150700000Y-113300000D03*
X123400000Y-109800000D03*
%TO.N,/D9*%
X161087347Y-102887347D03*
X137975000Y-96325000D03*
X161212510Y-96672510D03*
X165875000Y-110829989D03*
%TO.N,/D6*%
X139500000Y-97100000D03*
%TO.N,/D5*%
X153300000Y-106000000D03*
X137100000Y-97800000D03*
%TO.N,Net-(R6-Pad2)*%
X124300000Y-90800000D03*
X123600000Y-95100000D03*
%TO.N,/CS*%
X138700000Y-93100000D03*
X133348120Y-93350001D03*
%TO.N,/D4*%
X142700000Y-92000000D03*
X135600000Y-90100000D03*
X129000000Y-90200000D03*
%TO.N,/D3*%
X135662500Y-91400000D03*
X144000000Y-94500000D03*
X129600000Y-91162490D03*
%TO.N,/D2*%
X111400000Y-104500000D03*
X129600000Y-94900000D03*
X132901783Y-94849479D03*
X144800000Y-93700000D03*
%TO.N,/D8*%
X140740000Y-91990000D03*
X148010000Y-93238341D03*
X156290000Y-92450000D03*
%TO.N,VBUS*%
X143600000Y-107400000D03*
X134000000Y-102300000D03*
X145700000Y-89700000D03*
X132675000Y-90825000D03*
X147800000Y-103074991D03*
X147200000Y-101500000D03*
%TO.N,/D7*%
X137200000Y-103900000D03*
X135300000Y-102300000D03*
%TO.N,Net-(U3-Pad8)*%
X120000000Y-104300000D03*
X121900000Y-97000000D03*
%TO.N,Net-(U3-Pad3)*%
X118700000Y-104400000D03*
X114100000Y-93100000D03*
%TO.N,/D1*%
X157220000Y-91630000D03*
%TO.N,/D0*%
X149007611Y-93399999D03*
X169517347Y-93252653D03*
%TD*%
D30*
%TO.N,GND*%
X144600000Y-90637500D02*
X144937500Y-90637500D01*
X150800000Y-101400000D02*
X151900000Y-100300000D01*
X150375000Y-101400000D02*
X150800000Y-101400000D01*
X151900000Y-100300000D02*
X149600000Y-100300000D01*
X147636410Y-97900000D02*
X146262500Y-97900000D01*
X149600000Y-99863590D02*
X147636410Y-97900000D01*
X149600000Y-100300000D02*
X149600000Y-99863590D01*
X151300000Y-98200000D02*
X150100000Y-98200000D01*
X150100000Y-98200000D02*
X149600000Y-97700000D01*
X152900000Y-94775000D02*
X153575000Y-94100000D01*
X152900000Y-96000000D02*
X152900000Y-94775000D01*
X152900000Y-96314998D02*
X152900000Y-96000000D01*
X151300000Y-97914998D02*
X152900000Y-96314998D01*
X151300000Y-98200000D02*
X151300000Y-97914998D01*
X134937500Y-99500000D02*
X137800000Y-99500000D01*
X137800000Y-99500000D02*
X138700000Y-98600000D01*
X139800000Y-99700000D02*
X139800000Y-101962500D01*
X138700000Y-98600000D02*
X139800000Y-99700000D01*
X144600000Y-92500000D02*
X144600000Y-90637500D01*
X142300000Y-94800000D02*
X144600000Y-92500000D01*
X145400000Y-97900000D02*
X146262500Y-97900000D01*
X142300000Y-94800000D02*
X145400000Y-97900000D01*
X139800000Y-105200000D02*
X139800000Y-101962500D01*
X140900000Y-106300000D02*
X139800000Y-105200000D01*
X131600000Y-93100000D02*
X131200000Y-92700000D01*
X147749990Y-91325010D02*
X148775000Y-90300000D01*
X145625010Y-91325010D02*
X147749990Y-91325010D01*
X144937500Y-90637500D02*
X145625010Y-91325010D01*
X167474990Y-92825010D02*
X168249990Y-92825010D01*
X167074999Y-93225001D02*
X167474990Y-92825010D01*
X167074999Y-97375001D02*
X167074999Y-97125001D01*
X168249990Y-92825010D02*
X169275000Y-91800000D01*
X166350000Y-98100000D02*
X167074999Y-97375001D01*
X165100000Y-98100000D02*
X166350000Y-98100000D01*
X167074999Y-97125001D02*
X167074999Y-93225001D01*
X125150000Y-94350000D02*
X122100000Y-94350000D01*
X125300000Y-94200000D02*
X125150000Y-94350000D01*
X122985002Y-92400000D02*
X122100000Y-92400000D01*
X123075000Y-94350000D02*
X123150001Y-94274999D01*
X122100000Y-94350000D02*
X123075000Y-94350000D01*
X121214998Y-92400000D02*
X122100000Y-92400000D01*
X121049999Y-92235001D02*
X121214998Y-92400000D01*
X121049999Y-91574999D02*
X121049999Y-92235001D01*
X116375001Y-91574999D02*
X121049999Y-91574999D01*
X116200000Y-91750000D02*
X116375001Y-91574999D01*
X115314998Y-93700000D02*
X116200000Y-93700000D01*
X113826998Y-93900000D02*
X115114998Y-93900000D01*
X112739508Y-92812510D02*
X113826998Y-93900000D01*
X110108160Y-92812510D02*
X112739508Y-92812510D01*
X109774990Y-92479340D02*
X110108160Y-92812510D01*
X115114998Y-93900000D02*
X115314998Y-93700000D01*
X109774990Y-91520660D02*
X109774990Y-92479340D01*
X110108160Y-91187490D02*
X109774990Y-91520660D01*
X115637490Y-91187490D02*
X110108160Y-91187490D01*
X116200000Y-91750000D02*
X115637490Y-91187490D01*
X117085002Y-93700000D02*
X116200000Y-93700000D01*
X117250001Y-93864999D02*
X117085002Y-93700000D01*
X117250001Y-95485001D02*
X117250001Y-93864999D01*
X117085002Y-95650000D02*
X117250001Y-95485001D01*
X116200000Y-95650000D02*
X117085002Y-95650000D01*
X122985002Y-92400000D02*
X123035011Y-92349991D01*
X123349991Y-92349991D02*
X123500000Y-92500000D01*
X123035011Y-92349991D02*
X123349991Y-92349991D01*
X125300000Y-94200000D02*
X125300000Y-94900000D01*
X125300000Y-94900000D02*
X124100000Y-96100000D01*
X130400000Y-98600000D02*
X129700000Y-98600000D01*
X129700000Y-98600000D02*
X129000000Y-99300000D01*
X130252022Y-101572978D02*
X130825000Y-101000000D01*
X129772978Y-101572978D02*
X130252022Y-101572978D01*
X133874990Y-92629078D02*
X133729078Y-92629078D01*
X134937500Y-93100000D02*
X134345912Y-93100000D01*
X134345912Y-93100000D02*
X133874990Y-92629078D01*
X133729078Y-92629078D02*
X133725001Y-92625001D01*
X131274999Y-92625001D02*
X131200000Y-92700000D01*
X133725001Y-92625001D02*
X131274999Y-92625001D01*
X109674990Y-100174990D02*
X109700000Y-100200000D01*
X110108160Y-92812510D02*
X109674990Y-93245680D01*
X109674990Y-93245680D02*
X109674990Y-100174990D01*
X115600000Y-108900000D02*
X115600000Y-111025000D01*
X131850010Y-99974990D02*
X130825000Y-101000000D01*
X132879350Y-99500000D02*
X132404360Y-99974990D01*
X132404360Y-99974990D02*
X131850010Y-99974990D01*
X134937500Y-99500000D02*
X132879350Y-99500000D01*
X136600000Y-92175000D02*
X135675000Y-93100000D01*
X136600000Y-90637500D02*
X136600000Y-92175000D01*
X135529088Y-99500000D02*
X134937500Y-99500000D01*
X136000010Y-93425010D02*
X136000010Y-99029078D01*
X136000010Y-99029078D02*
X135529088Y-99500000D01*
X135675000Y-93100000D02*
X136000010Y-93425010D01*
X134937500Y-93100000D02*
X135675000Y-93100000D01*
X140663408Y-94800000D02*
X142300000Y-94800000D01*
X140374999Y-95088409D02*
X140663408Y-94800000D01*
X140374999Y-97298003D02*
X140374999Y-95088409D01*
X139073002Y-98600000D02*
X140374999Y-97298003D01*
X138700000Y-98600000D02*
X139073002Y-98600000D01*
X157099999Y-98199999D02*
X156700000Y-97800000D01*
X158899999Y-98199999D02*
X157099999Y-98199999D01*
X160400000Y-99700000D02*
X158899999Y-98199999D01*
X160400000Y-100400000D02*
X160400000Y-99700000D01*
X128534999Y-106036001D02*
X128534999Y-102810957D01*
X129743999Y-107245001D02*
X128534999Y-106036001D01*
X132592499Y-107245001D02*
X129743999Y-107245001D01*
X128534999Y-102810957D02*
X129772978Y-101572978D01*
X134000000Y-105837500D02*
X132592499Y-107245001D01*
X154800000Y-97740000D02*
X154800000Y-96100000D01*
X171700000Y-100750000D02*
X171700000Y-100120000D01*
X171700000Y-100120000D02*
X170750000Y-99170000D01*
X165880000Y-109830000D02*
X167920000Y-109830000D01*
X167920000Y-109830000D02*
X168170000Y-109580000D01*
X168170000Y-109580000D02*
X168170000Y-109500000D01*
X143600000Y-110400000D02*
X141750306Y-110400000D01*
X141750306Y-110400000D02*
X141175153Y-109824847D01*
X161498305Y-108858305D02*
X162140000Y-109500000D01*
X161498305Y-107397453D02*
X161498305Y-108858305D01*
%TO.N,Net-(C7-Pad1)*%
X151000000Y-96300000D02*
X146262500Y-96300000D01*
X151300000Y-96000000D02*
X151000000Y-96300000D01*
X151300000Y-94500000D02*
X151700000Y-94100000D01*
X151300000Y-96000000D02*
X151300000Y-94500000D01*
%TO.N,Net-(C8-Pad1)*%
X152110012Y-99274990D02*
X149874990Y-99274990D01*
X152900000Y-98200000D02*
X152900000Y-98485002D01*
X152900000Y-98485002D02*
X152110012Y-99274990D01*
X147700000Y-97100000D02*
X146262500Y-97100000D01*
X149874990Y-99274990D02*
X147700000Y-97100000D01*
X153775000Y-99075000D02*
X152900000Y-98200000D01*
X153775000Y-100300000D02*
X153775000Y-99075000D01*
%TO.N,Net-(C9-Pad1)*%
X142775000Y-106300000D02*
X142775000Y-104565498D01*
X142775000Y-104565498D02*
X141704751Y-103495249D01*
X140600000Y-102700000D02*
X140600000Y-101962500D01*
X141395249Y-103495249D02*
X140600000Y-102700000D01*
X141704751Y-103495249D02*
X141395249Y-103495249D01*
%TO.N,Net-(C10-Pad1)*%
X134837500Y-98600000D02*
X134937500Y-98700000D01*
X132275000Y-98600000D02*
X134837500Y-98600000D01*
%TO.N,/3.3V*%
X156975000Y-95800000D02*
X156675000Y-96100000D01*
X158800000Y-95800000D02*
X156975000Y-95800000D01*
X156675000Y-96100000D02*
X156675000Y-94350306D01*
X156675000Y-94350306D02*
X156712653Y-94312653D01*
X127275000Y-94100000D02*
X127175000Y-94200000D01*
X166425001Y-92774999D02*
X167400000Y-91800000D01*
X166425001Y-94474999D02*
X166425001Y-92774999D01*
X165100000Y-95800000D02*
X166425001Y-94474999D01*
X127175000Y-94439998D02*
X127175000Y-94200000D01*
X117800000Y-111025000D02*
X117800000Y-103814998D01*
X124725000Y-91750000D02*
X122100000Y-91750000D01*
X127175000Y-92275000D02*
X126700000Y-91800000D01*
X126700000Y-91800000D02*
X125929350Y-91800000D01*
X124800010Y-91825010D02*
X124725000Y-91750000D01*
X125904340Y-91825010D02*
X124800010Y-91825010D01*
X127175000Y-94200000D02*
X127175000Y-92275000D01*
X125929350Y-91800000D02*
X125904340Y-91825010D01*
X128300000Y-94100000D02*
X128300000Y-95100000D01*
X128300000Y-94100000D02*
X127275000Y-94100000D01*
X117800000Y-103534315D02*
X117800000Y-103814998D01*
X120334315Y-101000000D02*
X117800000Y-103534315D01*
X120900000Y-101000000D02*
X120334315Y-101000000D01*
X128300000Y-94100000D02*
X131600000Y-94100000D01*
X131600000Y-94100000D02*
X131800000Y-94300000D01*
X165100000Y-95800000D02*
X163500000Y-95800000D01*
X160487510Y-95800000D02*
X158800000Y-95800000D01*
X143561354Y-92513341D02*
X141999695Y-94075000D01*
X141999695Y-94075000D02*
X141090000Y-94075000D01*
%TO.N,/MOSI*%
X141100000Y-95600000D02*
X141900000Y-95600000D01*
X143774999Y-101937499D02*
X143800000Y-101962500D01*
X143774999Y-97474999D02*
X143774999Y-101937499D01*
X141900000Y-95600000D02*
X143774999Y-97474999D01*
X127354360Y-89350010D02*
X111574990Y-89350010D01*
X132887490Y-91887490D02*
X129023900Y-91887490D01*
X128112510Y-90976100D02*
X128112510Y-90108160D01*
X132900000Y-91900000D02*
X132887490Y-91887490D01*
X129023900Y-91887490D02*
X128112510Y-90976100D01*
X111574990Y-89350010D02*
X110800000Y-90125000D01*
X128112510Y-90108160D02*
X127354360Y-89350010D01*
X143800000Y-102554088D02*
X143800000Y-101962500D01*
X147525001Y-106775999D02*
X147049991Y-106300989D01*
X147525001Y-108437593D02*
X147525001Y-106775999D01*
X146960000Y-105070000D02*
X146943002Y-105070000D01*
X147350084Y-108612510D02*
X147525001Y-108437593D01*
X144540901Y-103294989D02*
X143800000Y-102554088D01*
X147049991Y-106300989D02*
X147049991Y-105159991D01*
X146750009Y-104464597D02*
X145580401Y-103294989D01*
X146943002Y-105070000D02*
X146750010Y-104877008D01*
X146750010Y-104877008D02*
X146750009Y-104464597D01*
X147049991Y-105159991D02*
X146960000Y-105070000D01*
X145580401Y-103294989D02*
X144540901Y-103294989D01*
%TO.N,/RESET*%
X167900000Y-100750000D02*
X166575001Y-102074999D01*
X167900000Y-100750000D02*
X167900000Y-94450000D01*
X146262500Y-99500000D02*
X144800000Y-99500000D01*
X144800000Y-99500000D02*
X144500000Y-99200000D01*
X167550000Y-100400000D02*
X167900000Y-100750000D01*
X160964999Y-110864999D02*
X162140000Y-112040000D01*
X161020000Y-105460000D02*
X160964999Y-105515001D01*
X166575001Y-102869999D02*
X165880000Y-103565000D01*
X166575001Y-102074999D02*
X166575001Y-102869999D01*
X165880000Y-103565000D02*
X166445000Y-103565000D01*
X166445000Y-103565000D02*
X167270000Y-102740000D01*
X160964999Y-110864999D02*
X160964999Y-109164999D01*
X160964999Y-109164999D02*
X160200000Y-108400000D01*
X160200000Y-108400000D02*
X160200000Y-107600000D01*
X160385002Y-107600000D02*
X160600000Y-107385002D01*
X160200000Y-107600000D02*
X160385002Y-107600000D01*
X160600000Y-105880000D02*
X161020000Y-105460000D01*
X160600000Y-107385002D02*
X160600000Y-105880000D01*
%TO.N,/SCK*%
X143000000Y-102700000D02*
X144044999Y-103744999D01*
X146300000Y-104650998D02*
X146300000Y-105500000D01*
X143000000Y-101962500D02*
X143000000Y-102700000D01*
X144044999Y-103744999D02*
X145394001Y-103744999D01*
X145394001Y-103744999D02*
X146300000Y-104650998D01*
X158424990Y-110864990D02*
X159600000Y-112040000D01*
X156685988Y-110864990D02*
X158424990Y-110864990D01*
X156420998Y-110600000D02*
X156685988Y-110864990D01*
X155400000Y-110600000D02*
X156420998Y-110600000D01*
X113500000Y-105210002D02*
X113500000Y-105300000D01*
X110700000Y-95775000D02*
X110700000Y-102410002D01*
X110700000Y-102410002D02*
X113500000Y-105210002D01*
X149099999Y-112300001D02*
X154499999Y-112300001D01*
X148700000Y-112700000D02*
X149099999Y-112300001D01*
X155400000Y-111400000D02*
X155400000Y-110600000D01*
X154499999Y-112300001D02*
X155400000Y-111400000D01*
%TO.N,/MISO*%
X148300000Y-108300000D02*
X148300000Y-106600000D01*
X148300000Y-106600000D02*
X147500000Y-105800000D01*
X122100000Y-93700000D02*
X123400000Y-93700000D01*
X123400000Y-93700000D02*
X124300000Y-92800000D01*
X124300000Y-92800000D02*
X126100000Y-92800000D01*
X126362490Y-94891840D02*
X127470650Y-96000000D01*
X126100000Y-92800000D02*
X126362490Y-93062490D01*
X126362490Y-93062490D02*
X126362490Y-94891840D01*
X144587347Y-101949847D02*
X144600000Y-101962500D01*
X144587347Y-100312653D02*
X144587347Y-101949847D01*
X127470650Y-96000000D02*
X131400000Y-96000000D01*
X131400000Y-96000000D02*
X131600000Y-95800000D01*
X147200018Y-104670018D02*
X147200018Y-104278196D01*
X147500000Y-105800000D02*
X147500000Y-104970000D01*
X147500000Y-104970000D02*
X147200018Y-104670018D01*
X147200018Y-104278196D02*
X145766801Y-102844979D01*
X145766801Y-102844979D02*
X144800000Y-102844979D01*
X144800000Y-102162500D02*
X144600000Y-101962500D01*
X144800000Y-102844979D02*
X144800000Y-102162500D01*
%TO.N,/A0*%
X134345912Y-93900000D02*
X134937500Y-93900000D01*
X150700000Y-113300000D02*
X163200000Y-113300000D01*
X165300000Y-107610000D02*
X165150000Y-107460000D01*
X131273002Y-97500000D02*
X133300000Y-95473002D01*
X130345660Y-99974990D02*
X127050000Y-103270650D01*
X127050000Y-103270650D02*
X127050000Y-107460000D01*
X130529360Y-99974990D02*
X130345660Y-99974990D01*
X131273002Y-99231348D02*
X130529360Y-99974990D01*
X131273002Y-97500000D02*
X131273002Y-99231348D01*
X133874990Y-94225010D02*
X134200000Y-93900000D01*
X133874990Y-94962510D02*
X133874990Y-94225010D01*
X134200000Y-93900000D02*
X134937500Y-93900000D01*
X133364498Y-95473002D02*
X133874990Y-94962510D01*
X133300000Y-95473002D02*
X133364498Y-95473002D01*
X124710000Y-109800000D02*
X127050000Y-107460000D01*
X123400000Y-109800000D02*
X124710000Y-109800000D01*
X165150000Y-107460000D02*
X169861002Y-107460000D01*
X163315001Y-113184999D02*
X163335001Y-113184999D01*
X163200000Y-113300000D02*
X163315001Y-113184999D01*
X165150000Y-111370000D02*
X165150000Y-107460000D01*
X163335001Y-113184999D02*
X165150000Y-111370000D01*
X175100000Y-100880000D02*
X175100000Y-98380000D01*
X172864999Y-103115001D02*
X175100000Y-100880000D01*
X169861002Y-107460000D02*
X172864999Y-104456003D01*
X175100000Y-98380000D02*
X177100000Y-96380000D01*
X172864999Y-104456003D02*
X172864999Y-103115001D01*
X170582937Y-106738065D02*
X169861002Y-107460000D01*
X183478065Y-106738065D02*
X170582937Y-106738065D01*
X184200000Y-107460000D02*
X183478065Y-106738065D01*
X197540000Y-107460000D02*
X197540000Y-105220000D01*
X197540000Y-107460000D02*
X203250000Y-107460000D01*
X197540000Y-105220000D02*
X197500000Y-105180000D01*
X184200000Y-107460000D02*
X197540000Y-107460000D01*
%TO.N,/D9*%
X161087347Y-102887347D02*
X161212510Y-102762184D01*
X139999990Y-90837490D02*
X139800000Y-90637500D01*
X137975000Y-96325000D02*
X137975000Y-94888590D01*
X139800000Y-93063590D02*
X137975000Y-94888590D01*
X139800000Y-90637500D02*
X139800000Y-93063590D01*
X161212510Y-102762184D02*
X161212510Y-96672510D01*
X170670011Y-110829989D02*
X171500000Y-110000000D01*
X165875000Y-110829989D02*
X170670011Y-110829989D01*
%TO.N,/D6*%
X140048001Y-94451999D02*
X139500000Y-95000000D01*
X139500000Y-95000000D02*
X139500000Y-97100000D01*
X141465001Y-90702501D02*
X141400000Y-90637500D01*
X141465001Y-92338001D02*
X141465001Y-90702501D01*
X140048001Y-93755001D02*
X141465001Y-92338001D01*
X140048001Y-94451999D02*
X140048001Y-93755001D01*
%TO.N,/D5*%
X152450000Y-110000000D02*
X152450000Y-106850000D01*
X152450000Y-106850000D02*
X153300000Y-106000000D01*
X138200000Y-92526998D02*
X136800000Y-93926998D01*
X138200000Y-90637500D02*
X138200000Y-92526998D01*
X136800000Y-93926998D02*
X136800000Y-97500000D01*
X136800000Y-97500000D02*
X137100000Y-97800000D01*
%TO.N,Net-(R1-Pad2)*%
X114500000Y-104100000D02*
X118600000Y-100000000D01*
X114500000Y-111025000D02*
X114500000Y-104100000D01*
%TO.N,Net-(R1-Pad1)*%
X121049999Y-93214999D02*
X121214998Y-93050000D01*
X121049999Y-95675001D02*
X121049999Y-93214999D01*
X121214998Y-93050000D02*
X122100000Y-93050000D01*
X118600000Y-98125000D02*
X121049999Y-95675001D01*
%TO.N,Net-(R2-Pad1)*%
X114073002Y-92000000D02*
X110800000Y-92000000D01*
X114473002Y-92400000D02*
X114073002Y-92000000D01*
X116200000Y-92400000D02*
X114473002Y-92400000D01*
%TO.N,Net-(R4-Pad2)*%
X138400000Y-106200000D02*
X139100000Y-106900000D01*
X138400000Y-105100000D02*
X138400000Y-106200000D01*
X139000000Y-101962500D02*
X139000000Y-104500000D01*
X139000000Y-104500000D02*
X138400000Y-105100000D01*
%TO.N,/D+*%
X156165001Y-108394001D02*
X153059002Y-111500000D01*
X159400000Y-103760000D02*
X159400000Y-99400000D01*
X156700000Y-98900000D02*
X156165001Y-99434999D01*
X159400000Y-99400000D02*
X158900000Y-98900000D01*
X141825000Y-111500000D02*
X139100000Y-108775000D01*
X158900000Y-98900000D02*
X156700000Y-98900000D01*
X153059002Y-111500000D02*
X141825000Y-111500000D01*
X156165001Y-99434999D02*
X156165001Y-108394001D01*
%TO.N,Net-(R5-Pad2)*%
X137949990Y-106050010D02*
X137100000Y-106900000D01*
X137949990Y-104913600D02*
X137949990Y-106050010D01*
X138200000Y-101962500D02*
X138200000Y-104663590D01*
X138200000Y-104663590D02*
X137949990Y-104913600D01*
%TO.N,/D-*%
X142908160Y-109337510D02*
X148833488Y-109337510D01*
X148833488Y-109337510D02*
X155714991Y-102456007D01*
X141533140Y-107962490D02*
X142908160Y-109337510D01*
X137912510Y-107962490D02*
X141533140Y-107962490D01*
X155714991Y-102456007D02*
X155714991Y-94285009D01*
X137100000Y-108775000D02*
X137912510Y-107962490D01*
X155714991Y-94285009D02*
X159500000Y-90500000D01*
%TO.N,Net-(R6-Pad2)*%
X125425000Y-90800000D02*
X124300000Y-90800000D01*
X122200000Y-95100000D02*
X122100000Y-95000000D01*
X123600000Y-95100000D02*
X122200000Y-95100000D01*
%TO.N,/CS*%
X127300000Y-90800000D02*
X130050009Y-93550009D01*
X139000000Y-92800000D02*
X139000000Y-90637500D01*
X138700000Y-93100000D02*
X139000000Y-92800000D01*
X130050009Y-93550009D02*
X132949991Y-93550009D01*
X133149999Y-93350001D02*
X133348120Y-93350001D01*
X132949991Y-93550009D02*
X133149999Y-93350001D01*
%TO.N,Net-(R7-Pad1)*%
X111150000Y-94350000D02*
X110700000Y-93900000D01*
X116200000Y-94350000D02*
X111150000Y-94350000D01*
%TO.N,/D4*%
X143000000Y-90637500D02*
X143000000Y-91700000D01*
X143000000Y-91700000D02*
X142700000Y-92000000D01*
X135062481Y-89562481D02*
X129637519Y-89562481D01*
X129637519Y-89562481D02*
X129000000Y-90200000D01*
X135600000Y-90100000D02*
X135062481Y-89562481D01*
%TO.N,/D3*%
X134274990Y-90012490D02*
X135662500Y-91400000D01*
X145000000Y-95500000D02*
X146262500Y-95500000D01*
X144000000Y-94500000D02*
X145000000Y-95500000D01*
X129600000Y-90920650D02*
X129600000Y-91162490D01*
X134274990Y-90012490D02*
X130508160Y-90012490D01*
X130508160Y-90012490D02*
X129600000Y-90920650D01*
%TO.N,/D2*%
X109450000Y-102360000D02*
X109450000Y-102550000D01*
X109450000Y-102550000D02*
X111400000Y-104500000D01*
X129600000Y-94900000D02*
X129725001Y-95025001D01*
X129725001Y-95025001D02*
X132774999Y-95025001D01*
X132774999Y-95025001D02*
X132774999Y-94976263D01*
X132774999Y-94976263D02*
X132901783Y-94849479D01*
X145234315Y-94700000D02*
X146262500Y-94700000D01*
X144800000Y-94265685D02*
X145234315Y-94700000D01*
X144800000Y-93700000D02*
X144800000Y-94265685D01*
%TO.N,/D8*%
X140600000Y-90637500D02*
X140600000Y-91850000D01*
X140600000Y-91850000D02*
X140740000Y-91990000D01*
X156065001Y-92674999D02*
X156290000Y-92450000D01*
X148010000Y-93238341D02*
X148573342Y-92674999D01*
X148573342Y-92674999D02*
X156065001Y-92674999D01*
%TO.N,VBUS*%
X143800000Y-89900000D02*
X143800000Y-90637500D01*
X144349990Y-89350010D02*
X143800000Y-89900000D01*
X147800000Y-98700000D02*
X146262500Y-98700000D01*
X148500000Y-101400000D02*
X148500000Y-99400000D01*
X148500000Y-99400000D02*
X147800000Y-98700000D01*
X137074990Y-103025010D02*
X137400000Y-102700000D01*
X134937490Y-103025010D02*
X137074990Y-103025010D01*
X137400000Y-102700000D02*
X137400000Y-101962500D01*
X134000000Y-103962500D02*
X134937490Y-103025010D01*
X134000000Y-102300000D02*
X132700000Y-101000000D01*
X134000000Y-103962500D02*
X134000000Y-102300000D01*
X134237500Y-101000000D02*
X134937500Y-100300000D01*
X132700000Y-101000000D02*
X134237500Y-101000000D01*
X141400000Y-102554088D02*
X141400000Y-101962500D01*
X143600000Y-104754088D02*
X141400000Y-102554088D01*
X143600000Y-107400000D02*
X143600000Y-104754088D01*
X143600000Y-108525000D02*
X143600000Y-107400000D01*
X131300000Y-90725000D02*
X131200000Y-90825000D01*
X146300000Y-89700000D02*
X146900000Y-90300000D01*
X145700000Y-89700000D02*
X146300000Y-89700000D01*
X145350010Y-89350010D02*
X145700000Y-89700000D01*
X144349990Y-89350010D02*
X145350010Y-89350010D01*
X159400000Y-106300000D02*
X158300000Y-106300000D01*
X158300000Y-108260000D02*
X157060000Y-109500000D01*
X158300000Y-106300000D02*
X158300000Y-108260000D01*
X159400000Y-105600000D02*
X159400000Y-106300000D01*
X134937500Y-91387500D02*
X134937500Y-92300000D01*
X134375000Y-90825000D02*
X134937500Y-91387500D01*
X131200000Y-90825000D02*
X132675000Y-90825000D01*
X132675000Y-90825000D02*
X134375000Y-90825000D01*
X159400000Y-105647696D02*
X162275000Y-102772696D01*
X159400000Y-106300000D02*
X159400000Y-105647696D01*
X163157304Y-102772696D02*
X163420000Y-102510000D01*
X162275000Y-102772696D02*
X163157304Y-102772696D01*
X159400000Y-106006998D02*
X159400000Y-106300000D01*
X160671999Y-104734999D02*
X159400000Y-106006998D01*
X161930000Y-104734999D02*
X160671999Y-104734999D01*
X163845001Y-106650000D02*
X161930000Y-104734999D01*
X165055001Y-105440000D02*
X163845001Y-106650000D01*
X165880000Y-105440000D02*
X165055001Y-105440000D01*
X147800000Y-102100000D02*
X148500000Y-101400000D01*
X147800000Y-103074991D02*
X147800000Y-102100000D01*
X147800000Y-102100000D02*
X147200000Y-101500000D01*
%TO.N,/D7*%
X135375999Y-106095001D02*
X136504001Y-106095001D01*
X136504001Y-106095001D02*
X137200000Y-105399002D01*
X137200000Y-105399002D02*
X137200000Y-103900000D01*
X133400000Y-108071000D02*
X135375999Y-106095001D01*
X133400000Y-110000000D02*
X133400000Y-108071000D01*
X135300000Y-102300000D02*
X135300000Y-102000000D01*
X135337500Y-101962500D02*
X136600000Y-101962500D01*
X135300000Y-102000000D02*
X135337500Y-101962500D01*
%TO.N,Net-(U3-Pad8)*%
X120000000Y-111025000D02*
X120000000Y-104300000D01*
X121900000Y-95850000D02*
X122100000Y-95650000D01*
X121900000Y-97000000D02*
X121900000Y-95850000D01*
%TO.N,Net-(U3-Pad6)*%
X115149999Y-96179349D02*
X115149999Y-95050001D01*
X118158140Y-99187490D02*
X115149999Y-96179349D01*
X115200000Y-95000000D02*
X116200000Y-95000000D01*
X119291840Y-99187490D02*
X118158140Y-99187490D01*
X119625010Y-99520660D02*
X119291840Y-99187490D01*
X119625010Y-100479340D02*
X119625010Y-99520660D01*
X116700000Y-103404350D02*
X119625010Y-100479340D01*
X115149999Y-95050001D02*
X115200000Y-95000000D01*
X116700000Y-111025000D02*
X116700000Y-103404350D01*
%TO.N,Net-(U3-Pad3)*%
X118900000Y-111025000D02*
X118900000Y-104600000D01*
X118900000Y-104600000D02*
X118700000Y-104400000D01*
X116150000Y-93100000D02*
X116200000Y-93050000D01*
X114100000Y-93100000D02*
X116150000Y-93100000D01*
%TO.N,/D1*%
X147075339Y-93100000D02*
X148405339Y-91770000D01*
X146262500Y-93100000D02*
X147075339Y-93100000D01*
X148405339Y-91770000D02*
X148545339Y-91630000D01*
X148545339Y-91630000D02*
X157220000Y-91630000D01*
%TO.N,/D0*%
X147661999Y-93963342D02*
X148444268Y-93963342D01*
X146262500Y-93900000D02*
X147598657Y-93900000D01*
X148444268Y-93963342D02*
X149007611Y-93399999D01*
X147598657Y-93900000D02*
X147661999Y-93963342D01*
X175092653Y-93252653D02*
X175100000Y-93260000D01*
X169517347Y-93252653D02*
X175092653Y-93252653D01*
X175092653Y-93252653D02*
X175247347Y-93252653D01*
X175247347Y-93252653D02*
X177000000Y-91500000D01*
%TO.N,Net-(C11-Pad1)*%
X162774999Y-94575001D02*
X162774999Y-99900001D01*
X165100000Y-93500000D02*
X163850000Y-93500000D01*
X162774999Y-99900001D02*
X162275000Y-100400000D01*
X163850000Y-93500000D02*
X162774999Y-94575001D01*
X164930522Y-100748169D02*
X164232353Y-100050000D01*
X162625000Y-100050000D02*
X162275000Y-100400000D01*
X164232353Y-100050000D02*
X162625000Y-100050000D01*
%TD*%
D31*
%TO.N,GND*%
G36*
X176917927Y-107573727D02*
G01*
X176917927Y-107826273D01*
X176967197Y-108073967D01*
X177063842Y-108307289D01*
X177204149Y-108517274D01*
X177382726Y-108695851D01*
X177592711Y-108836158D01*
X177826033Y-108932803D01*
X177971559Y-108961750D01*
X177931655Y-108969942D01*
X177872897Y-108981150D01*
X177864075Y-108983814D01*
X177733569Y-109024213D01*
X177678433Y-109047391D01*
X177622963Y-109069802D01*
X177614826Y-109074128D01*
X177494652Y-109139106D01*
X177445063Y-109172555D01*
X177395008Y-109205309D01*
X177387867Y-109211134D01*
X177282602Y-109298215D01*
X177240443Y-109340670D01*
X177197709Y-109382517D01*
X177191836Y-109389618D01*
X177105491Y-109495488D01*
X177072409Y-109545281D01*
X177038591Y-109594670D01*
X177034209Y-109602777D01*
X176970072Y-109723401D01*
X176947275Y-109778713D01*
X176923713Y-109833684D01*
X176920988Y-109842487D01*
X176881501Y-109973272D01*
X176869886Y-110031932D01*
X176857444Y-110090468D01*
X176856481Y-110099633D01*
X176843150Y-110235597D01*
X176843150Y-110235608D01*
X176840001Y-110267581D01*
X176840000Y-113340000D01*
X164254801Y-113340000D01*
X165661004Y-111933798D01*
X165690001Y-111910001D01*
X165733414Y-111857103D01*
X165773061Y-111864989D01*
X165976939Y-111864989D01*
X166176898Y-111825215D01*
X166365256Y-111747194D01*
X166534774Y-111633926D01*
X166578711Y-111589989D01*
X170632689Y-111589989D01*
X170670011Y-111593665D01*
X170707333Y-111589989D01*
X170707344Y-111589989D01*
X170786078Y-111582234D01*
X170993919Y-111668325D01*
X171329117Y-111735000D01*
X171670883Y-111735000D01*
X172006081Y-111668325D01*
X172321831Y-111537537D01*
X172605998Y-111347663D01*
X172847663Y-111105998D01*
X173037537Y-110821831D01*
X173168325Y-110506081D01*
X173235000Y-110170883D01*
X173235000Y-109829117D01*
X173168325Y-109493919D01*
X173037537Y-109178169D01*
X172847663Y-108894002D01*
X172605998Y-108652337D01*
X172321831Y-108462463D01*
X172006081Y-108331675D01*
X171670883Y-108265000D01*
X171329117Y-108265000D01*
X170993919Y-108331675D01*
X170678169Y-108462463D01*
X170394002Y-108652337D01*
X170152337Y-108894002D01*
X169962463Y-109178169D01*
X169831675Y-109493919D01*
X169765000Y-109829117D01*
X169765000Y-110069989D01*
X166578711Y-110069989D01*
X166534774Y-110026052D01*
X166365256Y-109912784D01*
X166176898Y-109834763D01*
X165976939Y-109794989D01*
X165910000Y-109794989D01*
X165910000Y-109023148D01*
X165971831Y-108997537D01*
X166255998Y-108807663D01*
X166497663Y-108565998D01*
X166687537Y-108281831D01*
X166713148Y-108220000D01*
X169823680Y-108220000D01*
X169861002Y-108223676D01*
X169898324Y-108220000D01*
X169898335Y-108220000D01*
X170009988Y-108209003D01*
X170153249Y-108165546D01*
X170285278Y-108094974D01*
X170401003Y-108000001D01*
X170424806Y-107970997D01*
X170757731Y-107638072D01*
X170897739Y-107498065D01*
X176932977Y-107498065D01*
X176917927Y-107573727D01*
G37*
X176917927Y-107573727D02*
X176917927Y-107826273D01*
X176967197Y-108073967D01*
X177063842Y-108307289D01*
X177204149Y-108517274D01*
X177382726Y-108695851D01*
X177592711Y-108836158D01*
X177826033Y-108932803D01*
X177971559Y-108961750D01*
X177931655Y-108969942D01*
X177872897Y-108981150D01*
X177864075Y-108983814D01*
X177733569Y-109024213D01*
X177678433Y-109047391D01*
X177622963Y-109069802D01*
X177614826Y-109074128D01*
X177494652Y-109139106D01*
X177445063Y-109172555D01*
X177395008Y-109205309D01*
X177387867Y-109211134D01*
X177282602Y-109298215D01*
X177240443Y-109340670D01*
X177197709Y-109382517D01*
X177191836Y-109389618D01*
X177105491Y-109495488D01*
X177072409Y-109545281D01*
X177038591Y-109594670D01*
X177034209Y-109602777D01*
X176970072Y-109723401D01*
X176947275Y-109778713D01*
X176923713Y-109833684D01*
X176920988Y-109842487D01*
X176881501Y-109973272D01*
X176869886Y-110031932D01*
X176857444Y-110090468D01*
X176856481Y-110099633D01*
X176843150Y-110235597D01*
X176843150Y-110235608D01*
X176840001Y-110267581D01*
X176840000Y-113340000D01*
X164254801Y-113340000D01*
X165661004Y-111933798D01*
X165690001Y-111910001D01*
X165733414Y-111857103D01*
X165773061Y-111864989D01*
X165976939Y-111864989D01*
X166176898Y-111825215D01*
X166365256Y-111747194D01*
X166534774Y-111633926D01*
X166578711Y-111589989D01*
X170632689Y-111589989D01*
X170670011Y-111593665D01*
X170707333Y-111589989D01*
X170707344Y-111589989D01*
X170786078Y-111582234D01*
X170993919Y-111668325D01*
X171329117Y-111735000D01*
X171670883Y-111735000D01*
X172006081Y-111668325D01*
X172321831Y-111537537D01*
X172605998Y-111347663D01*
X172847663Y-111105998D01*
X173037537Y-110821831D01*
X173168325Y-110506081D01*
X173235000Y-110170883D01*
X173235000Y-109829117D01*
X173168325Y-109493919D01*
X173037537Y-109178169D01*
X172847663Y-108894002D01*
X172605998Y-108652337D01*
X172321831Y-108462463D01*
X172006081Y-108331675D01*
X171670883Y-108265000D01*
X171329117Y-108265000D01*
X170993919Y-108331675D01*
X170678169Y-108462463D01*
X170394002Y-108652337D01*
X170152337Y-108894002D01*
X169962463Y-109178169D01*
X169831675Y-109493919D01*
X169765000Y-109829117D01*
X169765000Y-110069989D01*
X166578711Y-110069989D01*
X166534774Y-110026052D01*
X166365256Y-109912784D01*
X166176898Y-109834763D01*
X165976939Y-109794989D01*
X165910000Y-109794989D01*
X165910000Y-109023148D01*
X165971831Y-108997537D01*
X166255998Y-108807663D01*
X166497663Y-108565998D01*
X166687537Y-108281831D01*
X166713148Y-108220000D01*
X169823680Y-108220000D01*
X169861002Y-108223676D01*
X169898324Y-108220000D01*
X169898335Y-108220000D01*
X170009988Y-108209003D01*
X170153249Y-108165546D01*
X170285278Y-108094974D01*
X170401003Y-108000001D01*
X170424806Y-107970997D01*
X170757731Y-107638072D01*
X170897739Y-107498065D01*
X176932977Y-107498065D01*
X176917927Y-107573727D01*
G36*
X115940000Y-109713133D02*
G01*
X115885750Y-109715000D01*
X115727000Y-109873750D01*
X115727000Y-110133834D01*
X115699188Y-110225518D01*
X115686928Y-110350000D01*
X115686928Y-111700000D01*
X115699188Y-111824482D01*
X115727000Y-111916166D01*
X115727000Y-112176250D01*
X115885750Y-112335000D01*
X115975000Y-112338072D01*
X116099482Y-112325812D01*
X116150000Y-112310488D01*
X116200518Y-112325812D01*
X116325000Y-112338072D01*
X117075000Y-112338072D01*
X117199482Y-112325812D01*
X117250000Y-112310488D01*
X117300518Y-112325812D01*
X117425000Y-112338072D01*
X118175000Y-112338072D01*
X118299482Y-112325812D01*
X118350000Y-112310488D01*
X118400518Y-112325812D01*
X118525000Y-112338072D01*
X119275000Y-112338072D01*
X119399482Y-112325812D01*
X119450000Y-112310488D01*
X119500518Y-112325812D01*
X119625000Y-112338072D01*
X120375000Y-112338072D01*
X120499482Y-112325812D01*
X120550000Y-112310488D01*
X120600518Y-112325812D01*
X120725000Y-112338072D01*
X121461928Y-112338072D01*
X121461928Y-113340000D01*
X114188072Y-113340000D01*
X114188072Y-112338072D01*
X114875000Y-112338072D01*
X114999482Y-112325812D01*
X115050000Y-112310488D01*
X115100518Y-112325812D01*
X115225000Y-112338072D01*
X115314250Y-112335000D01*
X115473000Y-112176250D01*
X115473000Y-111916166D01*
X115500812Y-111824482D01*
X115513072Y-111700000D01*
X115513072Y-110350000D01*
X115500812Y-110225518D01*
X115473000Y-110133834D01*
X115473000Y-109873750D01*
X115314250Y-109715000D01*
X115260000Y-109713133D01*
X115260000Y-104414801D01*
X115940001Y-103734800D01*
X115940000Y-109713133D01*
G37*
X115940000Y-109713133D02*
X115885750Y-109715000D01*
X115727000Y-109873750D01*
X115727000Y-110133834D01*
X115699188Y-110225518D01*
X115686928Y-110350000D01*
X115686928Y-111700000D01*
X115699188Y-111824482D01*
X115727000Y-111916166D01*
X115727000Y-112176250D01*
X115885750Y-112335000D01*
X115975000Y-112338072D01*
X116099482Y-112325812D01*
X116150000Y-112310488D01*
X116200518Y-112325812D01*
X116325000Y-112338072D01*
X117075000Y-112338072D01*
X117199482Y-112325812D01*
X117250000Y-112310488D01*
X117300518Y-112325812D01*
X117425000Y-112338072D01*
X118175000Y-112338072D01*
X118299482Y-112325812D01*
X118350000Y-112310488D01*
X118400518Y-112325812D01*
X118525000Y-112338072D01*
X119275000Y-112338072D01*
X119399482Y-112325812D01*
X119450000Y-112310488D01*
X119500518Y-112325812D01*
X119625000Y-112338072D01*
X120375000Y-112338072D01*
X120499482Y-112325812D01*
X120550000Y-112310488D01*
X120600518Y-112325812D01*
X120725000Y-112338072D01*
X121461928Y-112338072D01*
X121461928Y-113340000D01*
X114188072Y-113340000D01*
X114188072Y-112338072D01*
X114875000Y-112338072D01*
X114999482Y-112325812D01*
X115050000Y-112310488D01*
X115100518Y-112325812D01*
X115225000Y-112338072D01*
X115314250Y-112335000D01*
X115473000Y-112176250D01*
X115473000Y-111916166D01*
X115500812Y-111824482D01*
X115513072Y-111700000D01*
X115513072Y-110350000D01*
X115500812Y-110225518D01*
X115473000Y-110133834D01*
X115473000Y-109873750D01*
X115314250Y-109715000D01*
X115260000Y-109713133D01*
X115260000Y-104414801D01*
X115940001Y-103734800D01*
X115940000Y-109713133D01*
G36*
X109478872Y-89709215D02*
G01*
X109461928Y-89881250D01*
X109461928Y-90368750D01*
X109478872Y-90540785D01*
X109529053Y-90706209D01*
X109610542Y-90858664D01*
X109720208Y-90992292D01*
X109805756Y-91062500D01*
X109720208Y-91132708D01*
X109610542Y-91266336D01*
X109529053Y-91418791D01*
X109478872Y-91584215D01*
X109461928Y-91756250D01*
X109461928Y-92243750D01*
X109478872Y-92415785D01*
X109529053Y-92581209D01*
X109610542Y-92733664D01*
X109720208Y-92867292D01*
X109774610Y-92911938D01*
X109753836Y-92923042D01*
X109620208Y-93032708D01*
X109510542Y-93166336D01*
X109429053Y-93318791D01*
X109378872Y-93484215D01*
X109361928Y-93656250D01*
X109361928Y-94143750D01*
X109378872Y-94315785D01*
X109429053Y-94481209D01*
X109510542Y-94633664D01*
X109620208Y-94767292D01*
X109705756Y-94837500D01*
X109620208Y-94907708D01*
X109510542Y-95041336D01*
X109429053Y-95193791D01*
X109378872Y-95359215D01*
X109361928Y-95531250D01*
X109361928Y-96018750D01*
X109378872Y-96190785D01*
X109429053Y-96356209D01*
X109510542Y-96508664D01*
X109620208Y-96642292D01*
X109753836Y-96751958D01*
X109906291Y-96833447D01*
X109940000Y-96843673D01*
X109940001Y-100871928D01*
X109160000Y-100871928D01*
X109160000Y-98232419D01*
X109163193Y-98200000D01*
X109150450Y-98070617D01*
X109112710Y-97946207D01*
X109051425Y-97831550D01*
X108968948Y-97731052D01*
X108868450Y-97648575D01*
X108753793Y-97587290D01*
X108629383Y-97549550D01*
X108570910Y-97543791D01*
X108500000Y-97536807D01*
X108467581Y-97540000D01*
X92332419Y-97540000D01*
X92300000Y-97536807D01*
X92229090Y-97543791D01*
X92170617Y-97549550D01*
X92046207Y-97587290D01*
X91931550Y-97648575D01*
X91831052Y-97731052D01*
X91748575Y-97831550D01*
X91687290Y-97946207D01*
X91649550Y-98070617D01*
X91636807Y-98200000D01*
X91640000Y-98232419D01*
X91640000Y-100871928D01*
X90500000Y-100871928D01*
X90375518Y-100884188D01*
X90255820Y-100920498D01*
X90145506Y-100979463D01*
X90048815Y-101058815D01*
X89969463Y-101155506D01*
X89910498Y-101265820D01*
X89874188Y-101385518D01*
X89861928Y-101510000D01*
X89861928Y-103210000D01*
X89874188Y-103334482D01*
X89910498Y-103454180D01*
X89969463Y-103564494D01*
X90023222Y-103630000D01*
X89969463Y-103695506D01*
X89910498Y-103805820D01*
X89874188Y-103925518D01*
X89861928Y-104050000D01*
X89865000Y-104614250D01*
X90023750Y-104773000D01*
X91223000Y-104773000D01*
X91223000Y-104753000D01*
X91477000Y-104753000D01*
X91477000Y-104773000D01*
X91497000Y-104773000D01*
X91497000Y-105027000D01*
X91477000Y-105027000D01*
X91477000Y-105047000D01*
X91223000Y-105047000D01*
X91223000Y-105027000D01*
X90023750Y-105027000D01*
X89865000Y-105185750D01*
X89861928Y-105750000D01*
X89874188Y-105874482D01*
X89910498Y-105994180D01*
X89969463Y-106104494D01*
X90023222Y-106170000D01*
X89969463Y-106235506D01*
X89910498Y-106345820D01*
X89874188Y-106465518D01*
X89861928Y-106590000D01*
X89861928Y-108290000D01*
X89874188Y-108414482D01*
X89910498Y-108534180D01*
X89969463Y-108644494D01*
X90048815Y-108741185D01*
X90145506Y-108820537D01*
X90255820Y-108879502D01*
X90375518Y-108915812D01*
X90500000Y-108928072D01*
X91640001Y-108928072D01*
X91640001Y-110267581D01*
X91636808Y-110300000D01*
X91640001Y-110332419D01*
X91649551Y-110429383D01*
X91650653Y-110433016D01*
X91687290Y-110553792D01*
X91748575Y-110668450D01*
X91810386Y-110743766D01*
X91810389Y-110743769D01*
X91831053Y-110768948D01*
X91856232Y-110789612D01*
X93110388Y-112043769D01*
X93131052Y-112068948D01*
X93156231Y-112089612D01*
X93156233Y-112089614D01*
X93228599Y-112149003D01*
X93231550Y-112151425D01*
X93346207Y-112212710D01*
X93470617Y-112250450D01*
X93567581Y-112260000D01*
X93567588Y-112260000D01*
X93600000Y-112263192D01*
X93632412Y-112260000D01*
X108467581Y-112260000D01*
X108500000Y-112263193D01*
X108532419Y-112260000D01*
X108629383Y-112250450D01*
X108753793Y-112212710D01*
X108868450Y-112151425D01*
X108968948Y-112068948D01*
X109051425Y-111968450D01*
X109112710Y-111853793D01*
X109150450Y-111729383D01*
X109163193Y-111600000D01*
X109160000Y-111567581D01*
X109160000Y-108928072D01*
X110300000Y-108928072D01*
X110424482Y-108915812D01*
X110544180Y-108879502D01*
X110654494Y-108820537D01*
X110751185Y-108741185D01*
X110830537Y-108644494D01*
X110889502Y-108534180D01*
X110925812Y-108414482D01*
X110938072Y-108290000D01*
X110938072Y-106850000D01*
X111311928Y-106850000D01*
X111311928Y-108050000D01*
X111324188Y-108174482D01*
X111360498Y-108294180D01*
X111419463Y-108404494D01*
X111498815Y-108501185D01*
X111595506Y-108580537D01*
X111705820Y-108639502D01*
X111825518Y-108675812D01*
X111950000Y-108688072D01*
X112675000Y-108688072D01*
X112799482Y-108675812D01*
X112919180Y-108639502D01*
X113029494Y-108580537D01*
X113126185Y-108501185D01*
X113205537Y-108404494D01*
X113264502Y-108294180D01*
X113300812Y-108174482D01*
X113313072Y-108050000D01*
X113313072Y-106850000D01*
X113300812Y-106725518D01*
X113264502Y-106605820D01*
X113205537Y-106495506D01*
X113126185Y-106398815D01*
X113029494Y-106319463D01*
X112919180Y-106260498D01*
X112799482Y-106224188D01*
X112675000Y-106211928D01*
X111950000Y-106211928D01*
X111825518Y-106224188D01*
X111705820Y-106260498D01*
X111595506Y-106319463D01*
X111498815Y-106398815D01*
X111419463Y-106495506D01*
X111360498Y-106605820D01*
X111324188Y-106725518D01*
X111311928Y-106850000D01*
X110938072Y-106850000D01*
X110938072Y-106590000D01*
X110925812Y-106465518D01*
X110889502Y-106345820D01*
X110830537Y-106235506D01*
X110751185Y-106138815D01*
X110654494Y-106059463D01*
X110544180Y-106000498D01*
X110424482Y-105964188D01*
X110300000Y-105951928D01*
X109160000Y-105951928D01*
X109160000Y-103848072D01*
X109673270Y-103848072D01*
X110365000Y-104539802D01*
X110365000Y-104601939D01*
X110404774Y-104801898D01*
X110482795Y-104990256D01*
X110596063Y-105159774D01*
X110740226Y-105303937D01*
X110909744Y-105417205D01*
X111098102Y-105495226D01*
X111298061Y-105535000D01*
X111501939Y-105535000D01*
X111701898Y-105495226D01*
X111890256Y-105417205D01*
X112059774Y-105303937D01*
X112203937Y-105159774D01*
X112272443Y-105057247D01*
X112465000Y-105249804D01*
X112465000Y-105401939D01*
X112504774Y-105601898D01*
X112582795Y-105790256D01*
X112696063Y-105959774D01*
X112840226Y-106103937D01*
X113009744Y-106217205D01*
X113198102Y-106295226D01*
X113398061Y-106335000D01*
X113601939Y-106335000D01*
X113740001Y-106307538D01*
X113740000Y-109711928D01*
X113025000Y-109711928D01*
X112900518Y-109724188D01*
X112780820Y-109760498D01*
X112670506Y-109819463D01*
X112573815Y-109898815D01*
X112494463Y-109995506D01*
X112435498Y-110105820D01*
X112399188Y-110225518D01*
X112386928Y-110350000D01*
X112386928Y-111561928D01*
X111925000Y-111561928D01*
X111800518Y-111574188D01*
X111680820Y-111610498D01*
X111570506Y-111669463D01*
X111473815Y-111748815D01*
X111394463Y-111845506D01*
X111335498Y-111955820D01*
X111299188Y-112075518D01*
X111286928Y-112200000D01*
X111286928Y-113340000D01*
X94184933Y-113340000D01*
X89660000Y-108538032D01*
X89660000Y-99473380D01*
X92473381Y-96660000D01*
X104767591Y-96660000D01*
X104800000Y-96663192D01*
X104832409Y-96660000D01*
X104832419Y-96660000D01*
X104929383Y-96650450D01*
X105053793Y-96612710D01*
X105168450Y-96551425D01*
X105268948Y-96468948D01*
X105289616Y-96443764D01*
X107143770Y-94589611D01*
X107168948Y-94568948D01*
X107194155Y-94538234D01*
X107251425Y-94468450D01*
X107312710Y-94353793D01*
X107350450Y-94229383D01*
X107353890Y-94194454D01*
X107360000Y-94132419D01*
X107360000Y-94132412D01*
X107363192Y-94100000D01*
X107360000Y-94067588D01*
X107360000Y-89660000D01*
X109493801Y-89660000D01*
X109478872Y-89709215D01*
G37*
X109478872Y-89709215D02*
X109461928Y-89881250D01*
X109461928Y-90368750D01*
X109478872Y-90540785D01*
X109529053Y-90706209D01*
X109610542Y-90858664D01*
X109720208Y-90992292D01*
X109805756Y-91062500D01*
X109720208Y-91132708D01*
X109610542Y-91266336D01*
X109529053Y-91418791D01*
X109478872Y-91584215D01*
X109461928Y-91756250D01*
X109461928Y-92243750D01*
X109478872Y-92415785D01*
X109529053Y-92581209D01*
X109610542Y-92733664D01*
X109720208Y-92867292D01*
X109774610Y-92911938D01*
X109753836Y-92923042D01*
X109620208Y-93032708D01*
X109510542Y-93166336D01*
X109429053Y-93318791D01*
X109378872Y-93484215D01*
X109361928Y-93656250D01*
X109361928Y-94143750D01*
X109378872Y-94315785D01*
X109429053Y-94481209D01*
X109510542Y-94633664D01*
X109620208Y-94767292D01*
X109705756Y-94837500D01*
X109620208Y-94907708D01*
X109510542Y-95041336D01*
X109429053Y-95193791D01*
X109378872Y-95359215D01*
X109361928Y-95531250D01*
X109361928Y-96018750D01*
X109378872Y-96190785D01*
X109429053Y-96356209D01*
X109510542Y-96508664D01*
X109620208Y-96642292D01*
X109753836Y-96751958D01*
X109906291Y-96833447D01*
X109940000Y-96843673D01*
X109940001Y-100871928D01*
X109160000Y-100871928D01*
X109160000Y-98232419D01*
X109163193Y-98200000D01*
X109150450Y-98070617D01*
X109112710Y-97946207D01*
X109051425Y-97831550D01*
X108968948Y-97731052D01*
X108868450Y-97648575D01*
X108753793Y-97587290D01*
X108629383Y-97549550D01*
X108570910Y-97543791D01*
X108500000Y-97536807D01*
X108467581Y-97540000D01*
X92332419Y-97540000D01*
X92300000Y-97536807D01*
X92229090Y-97543791D01*
X92170617Y-97549550D01*
X92046207Y-97587290D01*
X91931550Y-97648575D01*
X91831052Y-97731052D01*
X91748575Y-97831550D01*
X91687290Y-97946207D01*
X91649550Y-98070617D01*
X91636807Y-98200000D01*
X91640000Y-98232419D01*
X91640000Y-100871928D01*
X90500000Y-100871928D01*
X90375518Y-100884188D01*
X90255820Y-100920498D01*
X90145506Y-100979463D01*
X90048815Y-101058815D01*
X89969463Y-101155506D01*
X89910498Y-101265820D01*
X89874188Y-101385518D01*
X89861928Y-101510000D01*
X89861928Y-103210000D01*
X89874188Y-103334482D01*
X89910498Y-103454180D01*
X89969463Y-103564494D01*
X90023222Y-103630000D01*
X89969463Y-103695506D01*
X89910498Y-103805820D01*
X89874188Y-103925518D01*
X89861928Y-104050000D01*
X89865000Y-104614250D01*
X90023750Y-104773000D01*
X91223000Y-104773000D01*
X91223000Y-104753000D01*
X91477000Y-104753000D01*
X91477000Y-104773000D01*
X91497000Y-104773000D01*
X91497000Y-105027000D01*
X91477000Y-105027000D01*
X91477000Y-105047000D01*
X91223000Y-105047000D01*
X91223000Y-105027000D01*
X90023750Y-105027000D01*
X89865000Y-105185750D01*
X89861928Y-105750000D01*
X89874188Y-105874482D01*
X89910498Y-105994180D01*
X89969463Y-106104494D01*
X90023222Y-106170000D01*
X89969463Y-106235506D01*
X89910498Y-106345820D01*
X89874188Y-106465518D01*
X89861928Y-106590000D01*
X89861928Y-108290000D01*
X89874188Y-108414482D01*
X89910498Y-108534180D01*
X89969463Y-108644494D01*
X90048815Y-108741185D01*
X90145506Y-108820537D01*
X90255820Y-108879502D01*
X90375518Y-108915812D01*
X90500000Y-108928072D01*
X91640001Y-108928072D01*
X91640001Y-110267581D01*
X91636808Y-110300000D01*
X91640001Y-110332419D01*
X91649551Y-110429383D01*
X91650653Y-110433016D01*
X91687290Y-110553792D01*
X91748575Y-110668450D01*
X91810386Y-110743766D01*
X91810389Y-110743769D01*
X91831053Y-110768948D01*
X91856232Y-110789612D01*
X93110388Y-112043769D01*
X93131052Y-112068948D01*
X93156231Y-112089612D01*
X93156233Y-112089614D01*
X93228599Y-112149003D01*
X93231550Y-112151425D01*
X93346207Y-112212710D01*
X93470617Y-112250450D01*
X93567581Y-112260000D01*
X93567588Y-112260000D01*
X93600000Y-112263192D01*
X93632412Y-112260000D01*
X108467581Y-112260000D01*
X108500000Y-112263193D01*
X108532419Y-112260000D01*
X108629383Y-112250450D01*
X108753793Y-112212710D01*
X108868450Y-112151425D01*
X108968948Y-112068948D01*
X109051425Y-111968450D01*
X109112710Y-111853793D01*
X109150450Y-111729383D01*
X109163193Y-111600000D01*
X109160000Y-111567581D01*
X109160000Y-108928072D01*
X110300000Y-108928072D01*
X110424482Y-108915812D01*
X110544180Y-108879502D01*
X110654494Y-108820537D01*
X110751185Y-108741185D01*
X110830537Y-108644494D01*
X110889502Y-108534180D01*
X110925812Y-108414482D01*
X110938072Y-108290000D01*
X110938072Y-106850000D01*
X111311928Y-106850000D01*
X111311928Y-108050000D01*
X111324188Y-108174482D01*
X111360498Y-108294180D01*
X111419463Y-108404494D01*
X111498815Y-108501185D01*
X111595506Y-108580537D01*
X111705820Y-108639502D01*
X111825518Y-108675812D01*
X111950000Y-108688072D01*
X112675000Y-108688072D01*
X112799482Y-108675812D01*
X112919180Y-108639502D01*
X113029494Y-108580537D01*
X113126185Y-108501185D01*
X113205537Y-108404494D01*
X113264502Y-108294180D01*
X113300812Y-108174482D01*
X113313072Y-108050000D01*
X113313072Y-106850000D01*
X113300812Y-106725518D01*
X113264502Y-106605820D01*
X113205537Y-106495506D01*
X113126185Y-106398815D01*
X113029494Y-106319463D01*
X112919180Y-106260498D01*
X112799482Y-106224188D01*
X112675000Y-106211928D01*
X111950000Y-106211928D01*
X111825518Y-106224188D01*
X111705820Y-106260498D01*
X111595506Y-106319463D01*
X111498815Y-106398815D01*
X111419463Y-106495506D01*
X111360498Y-106605820D01*
X111324188Y-106725518D01*
X111311928Y-106850000D01*
X110938072Y-106850000D01*
X110938072Y-106590000D01*
X110925812Y-106465518D01*
X110889502Y-106345820D01*
X110830537Y-106235506D01*
X110751185Y-106138815D01*
X110654494Y-106059463D01*
X110544180Y-106000498D01*
X110424482Y-105964188D01*
X110300000Y-105951928D01*
X109160000Y-105951928D01*
X109160000Y-103848072D01*
X109673270Y-103848072D01*
X110365000Y-104539802D01*
X110365000Y-104601939D01*
X110404774Y-104801898D01*
X110482795Y-104990256D01*
X110596063Y-105159774D01*
X110740226Y-105303937D01*
X110909744Y-105417205D01*
X111098102Y-105495226D01*
X111298061Y-105535000D01*
X111501939Y-105535000D01*
X111701898Y-105495226D01*
X111890256Y-105417205D01*
X112059774Y-105303937D01*
X112203937Y-105159774D01*
X112272443Y-105057247D01*
X112465000Y-105249804D01*
X112465000Y-105401939D01*
X112504774Y-105601898D01*
X112582795Y-105790256D01*
X112696063Y-105959774D01*
X112840226Y-106103937D01*
X113009744Y-106217205D01*
X113198102Y-106295226D01*
X113398061Y-106335000D01*
X113601939Y-106335000D01*
X113740001Y-106307538D01*
X113740000Y-109711928D01*
X113025000Y-109711928D01*
X112900518Y-109724188D01*
X112780820Y-109760498D01*
X112670506Y-109819463D01*
X112573815Y-109898815D01*
X112494463Y-109995506D01*
X112435498Y-110105820D01*
X112399188Y-110225518D01*
X112386928Y-110350000D01*
X112386928Y-111561928D01*
X111925000Y-111561928D01*
X111800518Y-111574188D01*
X111680820Y-111610498D01*
X111570506Y-111669463D01*
X111473815Y-111748815D01*
X111394463Y-111845506D01*
X111335498Y-111955820D01*
X111299188Y-112075518D01*
X111286928Y-112200000D01*
X111286928Y-113340000D01*
X94184933Y-113340000D01*
X89660000Y-108538032D01*
X89660000Y-99473380D01*
X92473381Y-96660000D01*
X104767591Y-96660000D01*
X104800000Y-96663192D01*
X104832409Y-96660000D01*
X104832419Y-96660000D01*
X104929383Y-96650450D01*
X105053793Y-96612710D01*
X105168450Y-96551425D01*
X105268948Y-96468948D01*
X105289616Y-96443764D01*
X107143770Y-94589611D01*
X107168948Y-94568948D01*
X107194155Y-94538234D01*
X107251425Y-94468450D01*
X107312710Y-94353793D01*
X107350450Y-94229383D01*
X107353890Y-94194454D01*
X107360000Y-94132419D01*
X107360000Y-94132412D01*
X107363192Y-94100000D01*
X107360000Y-94067588D01*
X107360000Y-89660000D01*
X109493801Y-89660000D01*
X109478872Y-89709215D01*
G36*
X129699428Y-101700000D02*
G01*
X129711688Y-101824482D01*
X129747998Y-101944180D01*
X129806963Y-102054494D01*
X129886315Y-102151185D01*
X129983006Y-102230537D01*
X130093320Y-102289502D01*
X130213018Y-102325812D01*
X130334933Y-102337819D01*
X130091399Y-102386261D01*
X129611859Y-102584893D01*
X129180285Y-102873262D01*
X128813262Y-103240285D01*
X128524893Y-103671859D01*
X128326261Y-104151399D01*
X128225000Y-104660475D01*
X128225000Y-105179525D01*
X128326261Y-105688601D01*
X128524893Y-106168141D01*
X128813262Y-106599715D01*
X129180285Y-106966738D01*
X129611859Y-107255107D01*
X130091399Y-107453739D01*
X130600475Y-107555000D01*
X131119525Y-107555000D01*
X131628601Y-107453739D01*
X132108141Y-107255107D01*
X132539715Y-106966738D01*
X132795380Y-106711073D01*
X132848815Y-106776185D01*
X132945506Y-106855537D01*
X133055820Y-106914502D01*
X133175518Y-106950812D01*
X133300000Y-106963072D01*
X133434121Y-106962077D01*
X132888998Y-107507201D01*
X132860000Y-107530999D01*
X132836202Y-107559997D01*
X132836201Y-107559998D01*
X132765026Y-107646724D01*
X132694454Y-107778754D01*
X132671629Y-107854000D01*
X132650998Y-107922014D01*
X132640973Y-108023799D01*
X132636324Y-108071000D01*
X132640001Y-108108332D01*
X132640001Y-108436851D01*
X132578169Y-108462463D01*
X132294002Y-108652337D01*
X132052337Y-108894002D01*
X131862463Y-109178169D01*
X131731675Y-109493919D01*
X131665000Y-109829117D01*
X131665000Y-110170883D01*
X131731675Y-110506081D01*
X131862463Y-110821831D01*
X132052337Y-111105998D01*
X132294002Y-111347663D01*
X132578169Y-111537537D01*
X132893919Y-111668325D01*
X133229117Y-111735000D01*
X133570883Y-111735000D01*
X133906081Y-111668325D01*
X134221831Y-111537537D01*
X134505998Y-111347663D01*
X134747663Y-111105998D01*
X134937537Y-110821831D01*
X135068325Y-110506081D01*
X135135000Y-110170883D01*
X135135000Y-109829117D01*
X135068325Y-109493919D01*
X134937537Y-109178169D01*
X134747663Y-108894002D01*
X134505998Y-108652337D01*
X134221831Y-108462463D01*
X134160000Y-108436852D01*
X134160000Y-108385801D01*
X135690801Y-106855001D01*
X135761928Y-106855001D01*
X135761928Y-107143750D01*
X135778872Y-107315785D01*
X135829053Y-107481209D01*
X135910542Y-107633664D01*
X136020208Y-107767292D01*
X136105756Y-107837500D01*
X136020208Y-107907708D01*
X135910542Y-108041336D01*
X135829053Y-108193791D01*
X135778872Y-108359215D01*
X135761928Y-108531250D01*
X135761928Y-109018750D01*
X135778872Y-109190785D01*
X135829053Y-109356209D01*
X135910542Y-109508664D01*
X136020208Y-109642292D01*
X136153836Y-109751958D01*
X136306291Y-109833447D01*
X136471715Y-109883628D01*
X136643750Y-109900572D01*
X137556250Y-109900572D01*
X137728285Y-109883628D01*
X137893709Y-109833447D01*
X138046164Y-109751958D01*
X138100000Y-109707776D01*
X138153836Y-109751958D01*
X138306291Y-109833447D01*
X138471715Y-109883628D01*
X138643750Y-109900572D01*
X139150771Y-109900572D01*
X141261201Y-112011003D01*
X141284999Y-112040001D01*
X141313997Y-112063799D01*
X141400723Y-112134974D01*
X141496672Y-112186260D01*
X141532753Y-112205546D01*
X141676014Y-112249003D01*
X141787667Y-112260000D01*
X141787677Y-112260000D01*
X141825000Y-112263676D01*
X141862323Y-112260000D01*
X147761978Y-112260000D01*
X147704774Y-112398102D01*
X147665000Y-112598061D01*
X147665000Y-112801939D01*
X147704774Y-113001898D01*
X147782795Y-113190256D01*
X147882850Y-113340000D01*
X124513072Y-113340000D01*
X124513072Y-112200000D01*
X124500812Y-112075518D01*
X124464502Y-111955820D01*
X124405537Y-111845506D01*
X124326185Y-111748815D01*
X124229494Y-111669463D01*
X124119180Y-111610498D01*
X123999482Y-111574188D01*
X123875000Y-111561928D01*
X123053072Y-111561928D01*
X123053072Y-110776574D01*
X123098102Y-110795226D01*
X123298061Y-110835000D01*
X123501939Y-110835000D01*
X123701898Y-110795226D01*
X123890256Y-110717205D01*
X124059774Y-110603937D01*
X124103711Y-110560000D01*
X124672678Y-110560000D01*
X124710000Y-110563676D01*
X124747322Y-110560000D01*
X124747333Y-110560000D01*
X124858986Y-110549003D01*
X125002247Y-110505546D01*
X125134276Y-110434974D01*
X125250001Y-110340001D01*
X125273804Y-110310997D01*
X126482088Y-109102714D01*
X126543919Y-109128325D01*
X126879117Y-109195000D01*
X127220883Y-109195000D01*
X127556081Y-109128325D01*
X127871831Y-108997537D01*
X128155998Y-108807663D01*
X128397663Y-108565998D01*
X128587537Y-108281831D01*
X128718325Y-107966081D01*
X128785000Y-107630883D01*
X128785000Y-107289117D01*
X128718325Y-106953919D01*
X128587537Y-106638169D01*
X128397663Y-106354002D01*
X128155998Y-106112337D01*
X127871831Y-105922463D01*
X127810000Y-105896852D01*
X127810000Y-103585451D01*
X129699458Y-101695994D01*
X129699428Y-101700000D01*
G37*
X129699428Y-101700000D02*
X129711688Y-101824482D01*
X129747998Y-101944180D01*
X129806963Y-102054494D01*
X129886315Y-102151185D01*
X129983006Y-102230537D01*
X130093320Y-102289502D01*
X130213018Y-102325812D01*
X130334933Y-102337819D01*
X130091399Y-102386261D01*
X129611859Y-102584893D01*
X129180285Y-102873262D01*
X128813262Y-103240285D01*
X128524893Y-103671859D01*
X128326261Y-104151399D01*
X128225000Y-104660475D01*
X128225000Y-105179525D01*
X128326261Y-105688601D01*
X128524893Y-106168141D01*
X128813262Y-106599715D01*
X129180285Y-106966738D01*
X129611859Y-107255107D01*
X130091399Y-107453739D01*
X130600475Y-107555000D01*
X131119525Y-107555000D01*
X131628601Y-107453739D01*
X132108141Y-107255107D01*
X132539715Y-106966738D01*
X132795380Y-106711073D01*
X132848815Y-106776185D01*
X132945506Y-106855537D01*
X133055820Y-106914502D01*
X133175518Y-106950812D01*
X133300000Y-106963072D01*
X133434121Y-106962077D01*
X132888998Y-107507201D01*
X132860000Y-107530999D01*
X132836202Y-107559997D01*
X132836201Y-107559998D01*
X132765026Y-107646724D01*
X132694454Y-107778754D01*
X132671629Y-107854000D01*
X132650998Y-107922014D01*
X132640973Y-108023799D01*
X132636324Y-108071000D01*
X132640001Y-108108332D01*
X132640001Y-108436851D01*
X132578169Y-108462463D01*
X132294002Y-108652337D01*
X132052337Y-108894002D01*
X131862463Y-109178169D01*
X131731675Y-109493919D01*
X131665000Y-109829117D01*
X131665000Y-110170883D01*
X131731675Y-110506081D01*
X131862463Y-110821831D01*
X132052337Y-111105998D01*
X132294002Y-111347663D01*
X132578169Y-111537537D01*
X132893919Y-111668325D01*
X133229117Y-111735000D01*
X133570883Y-111735000D01*
X133906081Y-111668325D01*
X134221831Y-111537537D01*
X134505998Y-111347663D01*
X134747663Y-111105998D01*
X134937537Y-110821831D01*
X135068325Y-110506081D01*
X135135000Y-110170883D01*
X135135000Y-109829117D01*
X135068325Y-109493919D01*
X134937537Y-109178169D01*
X134747663Y-108894002D01*
X134505998Y-108652337D01*
X134221831Y-108462463D01*
X134160000Y-108436852D01*
X134160000Y-108385801D01*
X135690801Y-106855001D01*
X135761928Y-106855001D01*
X135761928Y-107143750D01*
X135778872Y-107315785D01*
X135829053Y-107481209D01*
X135910542Y-107633664D01*
X136020208Y-107767292D01*
X136105756Y-107837500D01*
X136020208Y-107907708D01*
X135910542Y-108041336D01*
X135829053Y-108193791D01*
X135778872Y-108359215D01*
X135761928Y-108531250D01*
X135761928Y-109018750D01*
X135778872Y-109190785D01*
X135829053Y-109356209D01*
X135910542Y-109508664D01*
X136020208Y-109642292D01*
X136153836Y-109751958D01*
X136306291Y-109833447D01*
X136471715Y-109883628D01*
X136643750Y-109900572D01*
X137556250Y-109900572D01*
X137728285Y-109883628D01*
X137893709Y-109833447D01*
X138046164Y-109751958D01*
X138100000Y-109707776D01*
X138153836Y-109751958D01*
X138306291Y-109833447D01*
X138471715Y-109883628D01*
X138643750Y-109900572D01*
X139150771Y-109900572D01*
X141261201Y-112011003D01*
X141284999Y-112040001D01*
X141313997Y-112063799D01*
X141400723Y-112134974D01*
X141496672Y-112186260D01*
X141532753Y-112205546D01*
X141676014Y-112249003D01*
X141787667Y-112260000D01*
X141787677Y-112260000D01*
X141825000Y-112263676D01*
X141862323Y-112260000D01*
X147761978Y-112260000D01*
X147704774Y-112398102D01*
X147665000Y-112598061D01*
X147665000Y-112801939D01*
X147704774Y-113001898D01*
X147782795Y-113190256D01*
X147882850Y-113340000D01*
X124513072Y-113340000D01*
X124513072Y-112200000D01*
X124500812Y-112075518D01*
X124464502Y-111955820D01*
X124405537Y-111845506D01*
X124326185Y-111748815D01*
X124229494Y-111669463D01*
X124119180Y-111610498D01*
X123999482Y-111574188D01*
X123875000Y-111561928D01*
X123053072Y-111561928D01*
X123053072Y-110776574D01*
X123098102Y-110795226D01*
X123298061Y-110835000D01*
X123501939Y-110835000D01*
X123701898Y-110795226D01*
X123890256Y-110717205D01*
X124059774Y-110603937D01*
X124103711Y-110560000D01*
X124672678Y-110560000D01*
X124710000Y-110563676D01*
X124747322Y-110560000D01*
X124747333Y-110560000D01*
X124858986Y-110549003D01*
X125002247Y-110505546D01*
X125134276Y-110434974D01*
X125250001Y-110340001D01*
X125273804Y-110310997D01*
X126482088Y-109102714D01*
X126543919Y-109128325D01*
X126879117Y-109195000D01*
X127220883Y-109195000D01*
X127556081Y-109128325D01*
X127871831Y-108997537D01*
X128155998Y-108807663D01*
X128397663Y-108565998D01*
X128587537Y-108281831D01*
X128718325Y-107966081D01*
X128785000Y-107630883D01*
X128785000Y-107289117D01*
X128718325Y-106953919D01*
X128587537Y-106638169D01*
X128397663Y-106354002D01*
X128155998Y-106112337D01*
X127871831Y-105922463D01*
X127810000Y-105896852D01*
X127810000Y-103585451D01*
X129699458Y-101695994D01*
X129699428Y-101700000D01*
G36*
X163281206Y-107161008D02*
G01*
X163305000Y-107190001D01*
X163333993Y-107213795D01*
X163333997Y-107213799D01*
X163404686Y-107271811D01*
X163416512Y-107281516D01*
X163415000Y-107289117D01*
X163415000Y-107630883D01*
X163481675Y-107966081D01*
X163612463Y-108281831D01*
X163802337Y-108565998D01*
X164044002Y-108807663D01*
X164328169Y-108997537D01*
X164390001Y-109023148D01*
X164390000Y-111055198D01*
X163612799Y-111832400D01*
X163567932Y-111606842D01*
X163455990Y-111336589D01*
X163293475Y-111093368D01*
X163086632Y-110886525D01*
X162913271Y-110770689D01*
X162988792Y-110528397D01*
X162140000Y-109679605D01*
X162125858Y-109693748D01*
X161946253Y-109514143D01*
X161960395Y-109500000D01*
X162319605Y-109500000D01*
X163168397Y-110348792D01*
X163417472Y-110271157D01*
X163543371Y-110007117D01*
X163615339Y-109723589D01*
X163630611Y-109431469D01*
X163588599Y-109141981D01*
X163490919Y-108866253D01*
X163417472Y-108728843D01*
X163168397Y-108651208D01*
X162319605Y-109500000D01*
X161960395Y-109500000D01*
X161946253Y-109485858D01*
X162125858Y-109306253D01*
X162140000Y-109320395D01*
X162988792Y-108471603D01*
X162911157Y-108222528D01*
X162647117Y-108096629D01*
X162363589Y-108024661D01*
X162071469Y-108009389D01*
X161781981Y-108051401D01*
X161506253Y-108149081D01*
X161368843Y-108222528D01*
X161304324Y-108429522D01*
X160967302Y-108092501D01*
X161110998Y-107948805D01*
X161140001Y-107925003D01*
X161234974Y-107809278D01*
X161305546Y-107677249D01*
X161349003Y-107533988D01*
X161360000Y-107422335D01*
X161360000Y-107422326D01*
X161363676Y-107385003D01*
X161360000Y-107347680D01*
X161360000Y-106439444D01*
X161510256Y-106377205D01*
X161679774Y-106263937D01*
X161823937Y-106119774D01*
X161937205Y-105950256D01*
X161976233Y-105856034D01*
X163281206Y-107161008D01*
G37*
X163281206Y-107161008D02*
X163305000Y-107190001D01*
X163333993Y-107213795D01*
X163333997Y-107213799D01*
X163404686Y-107271811D01*
X163416512Y-107281516D01*
X163415000Y-107289117D01*
X163415000Y-107630883D01*
X163481675Y-107966081D01*
X163612463Y-108281831D01*
X163802337Y-108565998D01*
X164044002Y-108807663D01*
X164328169Y-108997537D01*
X164390001Y-109023148D01*
X164390000Y-111055198D01*
X163612799Y-111832400D01*
X163567932Y-111606842D01*
X163455990Y-111336589D01*
X163293475Y-111093368D01*
X163086632Y-110886525D01*
X162913271Y-110770689D01*
X162988792Y-110528397D01*
X162140000Y-109679605D01*
X162125858Y-109693748D01*
X161946253Y-109514143D01*
X161960395Y-109500000D01*
X162319605Y-109500000D01*
X163168397Y-110348792D01*
X163417472Y-110271157D01*
X163543371Y-110007117D01*
X163615339Y-109723589D01*
X163630611Y-109431469D01*
X163588599Y-109141981D01*
X163490919Y-108866253D01*
X163417472Y-108728843D01*
X163168397Y-108651208D01*
X162319605Y-109500000D01*
X161960395Y-109500000D01*
X161946253Y-109485858D01*
X162125858Y-109306253D01*
X162140000Y-109320395D01*
X162988792Y-108471603D01*
X162911157Y-108222528D01*
X162647117Y-108096629D01*
X162363589Y-108024661D01*
X162071469Y-108009389D01*
X161781981Y-108051401D01*
X161506253Y-108149081D01*
X161368843Y-108222528D01*
X161304324Y-108429522D01*
X160967302Y-108092501D01*
X161110998Y-107948805D01*
X161140001Y-107925003D01*
X161234974Y-107809278D01*
X161305546Y-107677249D01*
X161349003Y-107533988D01*
X161360000Y-107422335D01*
X161360000Y-107422326D01*
X161363676Y-107385003D01*
X161360000Y-107347680D01*
X161360000Y-106439444D01*
X161510256Y-106377205D01*
X161679774Y-106263937D01*
X161823937Y-106119774D01*
X161937205Y-105950256D01*
X161976233Y-105856034D01*
X163281206Y-107161008D01*
G36*
X151690000Y-108436852D02*
G01*
X151628169Y-108462463D01*
X151344002Y-108652337D01*
X151102337Y-108894002D01*
X150912463Y-109178169D01*
X150781675Y-109493919D01*
X150715000Y-109829117D01*
X150715000Y-110170883D01*
X150781675Y-110506081D01*
X150878567Y-110740000D01*
X144935826Y-110740000D01*
X144935000Y-110685750D01*
X144776250Y-110527000D01*
X143727000Y-110527000D01*
X143727000Y-110547000D01*
X143473000Y-110547000D01*
X143473000Y-110527000D01*
X142423750Y-110527000D01*
X142265000Y-110685750D01*
X142264174Y-110740000D01*
X142139802Y-110740000D01*
X140436322Y-109036520D01*
X140438072Y-109018750D01*
X140438072Y-108722490D01*
X141218339Y-108722490D01*
X142276441Y-109780592D01*
X142274188Y-109788018D01*
X142261928Y-109912500D01*
X142265000Y-110114250D01*
X142423750Y-110273000D01*
X143473000Y-110273000D01*
X143473000Y-110253000D01*
X143727000Y-110253000D01*
X143727000Y-110273000D01*
X144776250Y-110273000D01*
X144935000Y-110114250D01*
X144935255Y-110097510D01*
X148796166Y-110097510D01*
X148833488Y-110101186D01*
X148870810Y-110097510D01*
X148870821Y-110097510D01*
X148982474Y-110086513D01*
X149125735Y-110043056D01*
X149257764Y-109972484D01*
X149373489Y-109877511D01*
X149397292Y-109848507D01*
X151690001Y-107555799D01*
X151690000Y-108436852D01*
G37*
X151690000Y-108436852D02*
X151628169Y-108462463D01*
X151344002Y-108652337D01*
X151102337Y-108894002D01*
X150912463Y-109178169D01*
X150781675Y-109493919D01*
X150715000Y-109829117D01*
X150715000Y-110170883D01*
X150781675Y-110506081D01*
X150878567Y-110740000D01*
X144935826Y-110740000D01*
X144935000Y-110685750D01*
X144776250Y-110527000D01*
X143727000Y-110527000D01*
X143727000Y-110547000D01*
X143473000Y-110547000D01*
X143473000Y-110527000D01*
X142423750Y-110527000D01*
X142265000Y-110685750D01*
X142264174Y-110740000D01*
X142139802Y-110740000D01*
X140436322Y-109036520D01*
X140438072Y-109018750D01*
X140438072Y-108722490D01*
X141218339Y-108722490D01*
X142276441Y-109780592D01*
X142274188Y-109788018D01*
X142261928Y-109912500D01*
X142265000Y-110114250D01*
X142423750Y-110273000D01*
X143473000Y-110273000D01*
X143473000Y-110253000D01*
X143727000Y-110253000D01*
X143727000Y-110273000D01*
X144776250Y-110273000D01*
X144935000Y-110114250D01*
X144935255Y-110097510D01*
X148796166Y-110097510D01*
X148833488Y-110101186D01*
X148870810Y-110097510D01*
X148870821Y-110097510D01*
X148982474Y-110086513D01*
X149125735Y-110043056D01*
X149257764Y-109972484D01*
X149373489Y-109877511D01*
X149397292Y-109848507D01*
X151690001Y-107555799D01*
X151690000Y-108436852D01*
G36*
X124336250Y-94073000D02*
G01*
X125173000Y-94073000D01*
X125173000Y-94053000D01*
X125427000Y-94053000D01*
X125427000Y-94073000D01*
X125447000Y-94073000D01*
X125447000Y-94327000D01*
X125427000Y-94327000D01*
X125427000Y-95376250D01*
X125585750Y-95535000D01*
X125787500Y-95538072D01*
X125911982Y-95525812D01*
X125919408Y-95523559D01*
X126906850Y-96511002D01*
X126930649Y-96540001D01*
X126959647Y-96563799D01*
X127046373Y-96634974D01*
X127164476Y-96698102D01*
X127178403Y-96705546D01*
X127321664Y-96749003D01*
X127433317Y-96760000D01*
X127433327Y-96760000D01*
X127470650Y-96763676D01*
X127507973Y-96760000D01*
X130938201Y-96760000D01*
X130762005Y-96936196D01*
X130733001Y-96959999D01*
X130700643Y-96999428D01*
X130638028Y-97075724D01*
X130577976Y-97188072D01*
X130567456Y-97207754D01*
X130523999Y-97351015D01*
X130513002Y-97462668D01*
X130513002Y-97462678D01*
X130509326Y-97500000D01*
X130513002Y-97537323D01*
X130513003Y-98747000D01*
X130273000Y-98747000D01*
X130273000Y-98727000D01*
X129436250Y-98727000D01*
X129277500Y-98885750D01*
X129274428Y-99300000D01*
X129286688Y-99424482D01*
X129322998Y-99544180D01*
X129381963Y-99654494D01*
X129461315Y-99751185D01*
X129479631Y-99766217D01*
X126539003Y-102706846D01*
X126509999Y-102730649D01*
X126473338Y-102775321D01*
X126415026Y-102846374D01*
X126374773Y-102921682D01*
X126344454Y-102978404D01*
X126300997Y-103121665D01*
X126290000Y-103233318D01*
X126290000Y-103233328D01*
X126286324Y-103270650D01*
X126290000Y-103307973D01*
X126290000Y-103523897D01*
X126213158Y-103492068D01*
X125926260Y-103435000D01*
X125633740Y-103435000D01*
X125346842Y-103492068D01*
X125076589Y-103604010D01*
X124833368Y-103766525D01*
X124626525Y-103973368D01*
X124477027Y-104197108D01*
X124464502Y-104155820D01*
X124405537Y-104045506D01*
X124326185Y-103948815D01*
X124229494Y-103869463D01*
X124119180Y-103810498D01*
X123999482Y-103774188D01*
X123875000Y-103761928D01*
X122850000Y-103761928D01*
X122725518Y-103774188D01*
X122605820Y-103810498D01*
X122495506Y-103869463D01*
X122398815Y-103948815D01*
X122319463Y-104045506D01*
X122260498Y-104155820D01*
X122224188Y-104275518D01*
X122211928Y-104400000D01*
X122211928Y-105550000D01*
X122224188Y-105674482D01*
X122260498Y-105794180D01*
X122319463Y-105904494D01*
X122398815Y-106001185D01*
X122495506Y-106080537D01*
X122605820Y-106139502D01*
X122725518Y-106175812D01*
X122850000Y-106188072D01*
X123875000Y-106188072D01*
X123999482Y-106175812D01*
X124119180Y-106139502D01*
X124229494Y-106080537D01*
X124326185Y-106001185D01*
X124405537Y-105904494D01*
X124464502Y-105794180D01*
X124499976Y-105677238D01*
X124626525Y-105866632D01*
X124833368Y-106073475D01*
X125076589Y-106235990D01*
X125346842Y-106347932D01*
X125633740Y-106405000D01*
X125668261Y-106405000D01*
X125512463Y-106638169D01*
X125381675Y-106953919D01*
X125315000Y-107289117D01*
X125315000Y-107630883D01*
X125381675Y-107966081D01*
X125407286Y-108027912D01*
X124395199Y-109040000D01*
X124103711Y-109040000D01*
X124059774Y-108996063D01*
X123890256Y-108882795D01*
X123701898Y-108804774D01*
X123501939Y-108765000D01*
X123298061Y-108765000D01*
X123098102Y-108804774D01*
X122909744Y-108882795D01*
X122740226Y-108996063D01*
X122596063Y-109140226D01*
X122482795Y-109309744D01*
X122404774Y-109498102D01*
X122365000Y-109698061D01*
X122365000Y-109711928D01*
X121765000Y-109711928D01*
X121640518Y-109724188D01*
X121620000Y-109730412D01*
X121599482Y-109724188D01*
X121475000Y-109711928D01*
X120760000Y-109711928D01*
X120760000Y-106850000D01*
X122511928Y-106850000D01*
X122511928Y-108050000D01*
X122524188Y-108174482D01*
X122560498Y-108294180D01*
X122619463Y-108404494D01*
X122698815Y-108501185D01*
X122795506Y-108580537D01*
X122905820Y-108639502D01*
X123025518Y-108675812D01*
X123150000Y-108688072D01*
X123875000Y-108688072D01*
X123999482Y-108675812D01*
X124119180Y-108639502D01*
X124229494Y-108580537D01*
X124326185Y-108501185D01*
X124405537Y-108404494D01*
X124464502Y-108294180D01*
X124500812Y-108174482D01*
X124513072Y-108050000D01*
X124513072Y-106850000D01*
X124500812Y-106725518D01*
X124464502Y-106605820D01*
X124405537Y-106495506D01*
X124326185Y-106398815D01*
X124229494Y-106319463D01*
X124119180Y-106260498D01*
X123999482Y-106224188D01*
X123875000Y-106211928D01*
X123150000Y-106211928D01*
X123025518Y-106224188D01*
X122905820Y-106260498D01*
X122795506Y-106319463D01*
X122698815Y-106398815D01*
X122619463Y-106495506D01*
X122560498Y-106605820D01*
X122524188Y-106725518D01*
X122511928Y-106850000D01*
X120760000Y-106850000D01*
X120760000Y-105003711D01*
X120803937Y-104959774D01*
X120917205Y-104790256D01*
X120995226Y-104601898D01*
X121035000Y-104401939D01*
X121035000Y-104198061D01*
X120995226Y-103998102D01*
X120917205Y-103809744D01*
X120835907Y-103688072D01*
X121600000Y-103688072D01*
X121724482Y-103675812D01*
X121844180Y-103639502D01*
X121954494Y-103580537D01*
X122051185Y-103501185D01*
X122130537Y-103404494D01*
X122189502Y-103294180D01*
X122200000Y-103259573D01*
X122210498Y-103294180D01*
X122269463Y-103404494D01*
X122348815Y-103501185D01*
X122445506Y-103580537D01*
X122555820Y-103639502D01*
X122675518Y-103675812D01*
X122800000Y-103688072D01*
X123875000Y-103688072D01*
X123999482Y-103675812D01*
X124119180Y-103639502D01*
X124229494Y-103580537D01*
X124326185Y-103501185D01*
X124405537Y-103404494D01*
X124464502Y-103294180D01*
X124500812Y-103174482D01*
X124513072Y-103050000D01*
X124513072Y-102000000D01*
X124500812Y-101875518D01*
X124464502Y-101755820D01*
X124405537Y-101645506D01*
X124326185Y-101548815D01*
X124229494Y-101469463D01*
X124119180Y-101410498D01*
X123999482Y-101374188D01*
X123875000Y-101361928D01*
X122800000Y-101361928D01*
X122675518Y-101374188D01*
X122555820Y-101410498D01*
X122445506Y-101469463D01*
X122348815Y-101548815D01*
X122269463Y-101645506D01*
X122210498Y-101755820D01*
X122200000Y-101790427D01*
X122189502Y-101755820D01*
X122130537Y-101645506D01*
X122051185Y-101548815D01*
X121954494Y-101469463D01*
X121849143Y-101413151D01*
X121895226Y-101301898D01*
X121935000Y-101101939D01*
X121935000Y-100898061D01*
X121895226Y-100698102D01*
X121817205Y-100509744D01*
X121703937Y-100340226D01*
X121559774Y-100196063D01*
X121390256Y-100082795D01*
X121201898Y-100004774D01*
X121001939Y-99965000D01*
X120798061Y-99965000D01*
X120598102Y-100004774D01*
X120409744Y-100082795D01*
X120385010Y-100099322D01*
X120385010Y-99557993D01*
X120388687Y-99520660D01*
X120374013Y-99371674D01*
X120330556Y-99228413D01*
X120312405Y-99194456D01*
X120259984Y-99096384D01*
X120165011Y-98980659D01*
X120136007Y-98956856D01*
X119874302Y-98695151D01*
X119921128Y-98540785D01*
X119938072Y-98368750D01*
X119938072Y-97881250D01*
X119936322Y-97863480D01*
X120865000Y-96934802D01*
X120865000Y-97101939D01*
X120904774Y-97301898D01*
X120982795Y-97490256D01*
X121096063Y-97659774D01*
X121240226Y-97803937D01*
X121409744Y-97917205D01*
X121598102Y-97995226D01*
X121798061Y-98035000D01*
X122001939Y-98035000D01*
X122201898Y-97995226D01*
X122390256Y-97917205D01*
X122416005Y-97900000D01*
X129274428Y-97900000D01*
X129277500Y-98314250D01*
X129436250Y-98473000D01*
X130273000Y-98473000D01*
X130273000Y-97423750D01*
X130114250Y-97265000D01*
X129912500Y-97261928D01*
X129788018Y-97274188D01*
X129668320Y-97310498D01*
X129558006Y-97369463D01*
X129461315Y-97448815D01*
X129381963Y-97545506D01*
X129322998Y-97655820D01*
X129286688Y-97775518D01*
X129274428Y-97900000D01*
X122416005Y-97900000D01*
X122559774Y-97803937D01*
X122703937Y-97659774D01*
X122817205Y-97490256D01*
X122895226Y-97301898D01*
X122935000Y-97101939D01*
X122935000Y-96898061D01*
X122895226Y-96698102D01*
X122818584Y-96513072D01*
X122825000Y-96513072D01*
X122949482Y-96500812D01*
X123069180Y-96464502D01*
X123179494Y-96405537D01*
X123276185Y-96326185D01*
X123355537Y-96229494D01*
X123414502Y-96119180D01*
X123414731Y-96118425D01*
X123498061Y-96135000D01*
X123701939Y-96135000D01*
X123901898Y-96095226D01*
X124090256Y-96017205D01*
X124259774Y-95903937D01*
X124403937Y-95759774D01*
X124517205Y-95590256D01*
X124560639Y-95485397D01*
X124568320Y-95489502D01*
X124688018Y-95525812D01*
X124812500Y-95538072D01*
X125014250Y-95535000D01*
X125173000Y-95376250D01*
X125173000Y-94327000D01*
X124336250Y-94327000D01*
X124313481Y-94349770D01*
X124259774Y-94296063D01*
X124090256Y-94182795D01*
X124020783Y-94154018D01*
X124219026Y-93955776D01*
X124336250Y-94073000D01*
G37*
X124336250Y-94073000D02*
X125173000Y-94073000D01*
X125173000Y-94053000D01*
X125427000Y-94053000D01*
X125427000Y-94073000D01*
X125447000Y-94073000D01*
X125447000Y-94327000D01*
X125427000Y-94327000D01*
X125427000Y-95376250D01*
X125585750Y-95535000D01*
X125787500Y-95538072D01*
X125911982Y-95525812D01*
X125919408Y-95523559D01*
X126906850Y-96511002D01*
X126930649Y-96540001D01*
X126959647Y-96563799D01*
X127046373Y-96634974D01*
X127164476Y-96698102D01*
X127178403Y-96705546D01*
X127321664Y-96749003D01*
X127433317Y-96760000D01*
X127433327Y-96760000D01*
X127470650Y-96763676D01*
X127507973Y-96760000D01*
X130938201Y-96760000D01*
X130762005Y-96936196D01*
X130733001Y-96959999D01*
X130700643Y-96999428D01*
X130638028Y-97075724D01*
X130577976Y-97188072D01*
X130567456Y-97207754D01*
X130523999Y-97351015D01*
X130513002Y-97462668D01*
X130513002Y-97462678D01*
X130509326Y-97500000D01*
X130513002Y-97537323D01*
X130513003Y-98747000D01*
X130273000Y-98747000D01*
X130273000Y-98727000D01*
X129436250Y-98727000D01*
X129277500Y-98885750D01*
X129274428Y-99300000D01*
X129286688Y-99424482D01*
X129322998Y-99544180D01*
X129381963Y-99654494D01*
X129461315Y-99751185D01*
X129479631Y-99766217D01*
X126539003Y-102706846D01*
X126509999Y-102730649D01*
X126473338Y-102775321D01*
X126415026Y-102846374D01*
X126374773Y-102921682D01*
X126344454Y-102978404D01*
X126300997Y-103121665D01*
X126290000Y-103233318D01*
X126290000Y-103233328D01*
X126286324Y-103270650D01*
X126290000Y-103307973D01*
X126290000Y-103523897D01*
X126213158Y-103492068D01*
X125926260Y-103435000D01*
X125633740Y-103435000D01*
X125346842Y-103492068D01*
X125076589Y-103604010D01*
X124833368Y-103766525D01*
X124626525Y-103973368D01*
X124477027Y-104197108D01*
X124464502Y-104155820D01*
X124405537Y-104045506D01*
X124326185Y-103948815D01*
X124229494Y-103869463D01*
X124119180Y-103810498D01*
X123999482Y-103774188D01*
X123875000Y-103761928D01*
X122850000Y-103761928D01*
X122725518Y-103774188D01*
X122605820Y-103810498D01*
X122495506Y-103869463D01*
X122398815Y-103948815D01*
X122319463Y-104045506D01*
X122260498Y-104155820D01*
X122224188Y-104275518D01*
X122211928Y-104400000D01*
X122211928Y-105550000D01*
X122224188Y-105674482D01*
X122260498Y-105794180D01*
X122319463Y-105904494D01*
X122398815Y-106001185D01*
X122495506Y-106080537D01*
X122605820Y-106139502D01*
X122725518Y-106175812D01*
X122850000Y-106188072D01*
X123875000Y-106188072D01*
X123999482Y-106175812D01*
X124119180Y-106139502D01*
X124229494Y-106080537D01*
X124326185Y-106001185D01*
X124405537Y-105904494D01*
X124464502Y-105794180D01*
X124499976Y-105677238D01*
X124626525Y-105866632D01*
X124833368Y-106073475D01*
X125076589Y-106235990D01*
X125346842Y-106347932D01*
X125633740Y-106405000D01*
X125668261Y-106405000D01*
X125512463Y-106638169D01*
X125381675Y-106953919D01*
X125315000Y-107289117D01*
X125315000Y-107630883D01*
X125381675Y-107966081D01*
X125407286Y-108027912D01*
X124395199Y-109040000D01*
X124103711Y-109040000D01*
X124059774Y-108996063D01*
X123890256Y-108882795D01*
X123701898Y-108804774D01*
X123501939Y-108765000D01*
X123298061Y-108765000D01*
X123098102Y-108804774D01*
X122909744Y-108882795D01*
X122740226Y-108996063D01*
X122596063Y-109140226D01*
X122482795Y-109309744D01*
X122404774Y-109498102D01*
X122365000Y-109698061D01*
X122365000Y-109711928D01*
X121765000Y-109711928D01*
X121640518Y-109724188D01*
X121620000Y-109730412D01*
X121599482Y-109724188D01*
X121475000Y-109711928D01*
X120760000Y-109711928D01*
X120760000Y-106850000D01*
X122511928Y-106850000D01*
X122511928Y-108050000D01*
X122524188Y-108174482D01*
X122560498Y-108294180D01*
X122619463Y-108404494D01*
X122698815Y-108501185D01*
X122795506Y-108580537D01*
X122905820Y-108639502D01*
X123025518Y-108675812D01*
X123150000Y-108688072D01*
X123875000Y-108688072D01*
X123999482Y-108675812D01*
X124119180Y-108639502D01*
X124229494Y-108580537D01*
X124326185Y-108501185D01*
X124405537Y-108404494D01*
X124464502Y-108294180D01*
X124500812Y-108174482D01*
X124513072Y-108050000D01*
X124513072Y-106850000D01*
X124500812Y-106725518D01*
X124464502Y-106605820D01*
X124405537Y-106495506D01*
X124326185Y-106398815D01*
X124229494Y-106319463D01*
X124119180Y-106260498D01*
X123999482Y-106224188D01*
X123875000Y-106211928D01*
X123150000Y-106211928D01*
X123025518Y-106224188D01*
X122905820Y-106260498D01*
X122795506Y-106319463D01*
X122698815Y-106398815D01*
X122619463Y-106495506D01*
X122560498Y-106605820D01*
X122524188Y-106725518D01*
X122511928Y-106850000D01*
X120760000Y-106850000D01*
X120760000Y-105003711D01*
X120803937Y-104959774D01*
X120917205Y-104790256D01*
X120995226Y-104601898D01*
X121035000Y-104401939D01*
X121035000Y-104198061D01*
X120995226Y-103998102D01*
X120917205Y-103809744D01*
X120835907Y-103688072D01*
X121600000Y-103688072D01*
X121724482Y-103675812D01*
X121844180Y-103639502D01*
X121954494Y-103580537D01*
X122051185Y-103501185D01*
X122130537Y-103404494D01*
X122189502Y-103294180D01*
X122200000Y-103259573D01*
X122210498Y-103294180D01*
X122269463Y-103404494D01*
X122348815Y-103501185D01*
X122445506Y-103580537D01*
X122555820Y-103639502D01*
X122675518Y-103675812D01*
X122800000Y-103688072D01*
X123875000Y-103688072D01*
X123999482Y-103675812D01*
X124119180Y-103639502D01*
X124229494Y-103580537D01*
X124326185Y-103501185D01*
X124405537Y-103404494D01*
X124464502Y-103294180D01*
X124500812Y-103174482D01*
X124513072Y-103050000D01*
X124513072Y-102000000D01*
X124500812Y-101875518D01*
X124464502Y-101755820D01*
X124405537Y-101645506D01*
X124326185Y-101548815D01*
X124229494Y-101469463D01*
X124119180Y-101410498D01*
X123999482Y-101374188D01*
X123875000Y-101361928D01*
X122800000Y-101361928D01*
X122675518Y-101374188D01*
X122555820Y-101410498D01*
X122445506Y-101469463D01*
X122348815Y-101548815D01*
X122269463Y-101645506D01*
X122210498Y-101755820D01*
X122200000Y-101790427D01*
X122189502Y-101755820D01*
X122130537Y-101645506D01*
X122051185Y-101548815D01*
X121954494Y-101469463D01*
X121849143Y-101413151D01*
X121895226Y-101301898D01*
X121935000Y-101101939D01*
X121935000Y-100898061D01*
X121895226Y-100698102D01*
X121817205Y-100509744D01*
X121703937Y-100340226D01*
X121559774Y-100196063D01*
X121390256Y-100082795D01*
X121201898Y-100004774D01*
X121001939Y-99965000D01*
X120798061Y-99965000D01*
X120598102Y-100004774D01*
X120409744Y-100082795D01*
X120385010Y-100099322D01*
X120385010Y-99557993D01*
X120388687Y-99520660D01*
X120374013Y-99371674D01*
X120330556Y-99228413D01*
X120312405Y-99194456D01*
X120259984Y-99096384D01*
X120165011Y-98980659D01*
X120136007Y-98956856D01*
X119874302Y-98695151D01*
X119921128Y-98540785D01*
X119938072Y-98368750D01*
X119938072Y-97881250D01*
X119936322Y-97863480D01*
X120865000Y-96934802D01*
X120865000Y-97101939D01*
X120904774Y-97301898D01*
X120982795Y-97490256D01*
X121096063Y-97659774D01*
X121240226Y-97803937D01*
X121409744Y-97917205D01*
X121598102Y-97995226D01*
X121798061Y-98035000D01*
X122001939Y-98035000D01*
X122201898Y-97995226D01*
X122390256Y-97917205D01*
X122416005Y-97900000D01*
X129274428Y-97900000D01*
X129277500Y-98314250D01*
X129436250Y-98473000D01*
X130273000Y-98473000D01*
X130273000Y-97423750D01*
X130114250Y-97265000D01*
X129912500Y-97261928D01*
X129788018Y-97274188D01*
X129668320Y-97310498D01*
X129558006Y-97369463D01*
X129461315Y-97448815D01*
X129381963Y-97545506D01*
X129322998Y-97655820D01*
X129286688Y-97775518D01*
X129274428Y-97900000D01*
X122416005Y-97900000D01*
X122559774Y-97803937D01*
X122703937Y-97659774D01*
X122817205Y-97490256D01*
X122895226Y-97301898D01*
X122935000Y-97101939D01*
X122935000Y-96898061D01*
X122895226Y-96698102D01*
X122818584Y-96513072D01*
X122825000Y-96513072D01*
X122949482Y-96500812D01*
X123069180Y-96464502D01*
X123179494Y-96405537D01*
X123276185Y-96326185D01*
X123355537Y-96229494D01*
X123414502Y-96119180D01*
X123414731Y-96118425D01*
X123498061Y-96135000D01*
X123701939Y-96135000D01*
X123901898Y-96095226D01*
X124090256Y-96017205D01*
X124259774Y-95903937D01*
X124403937Y-95759774D01*
X124517205Y-95590256D01*
X124560639Y-95485397D01*
X124568320Y-95489502D01*
X124688018Y-95525812D01*
X124812500Y-95538072D01*
X125014250Y-95535000D01*
X125173000Y-95376250D01*
X125173000Y-94327000D01*
X124336250Y-94327000D01*
X124313481Y-94349770D01*
X124259774Y-94296063D01*
X124090256Y-94182795D01*
X124020783Y-94154018D01*
X124219026Y-93955776D01*
X124336250Y-94073000D01*
G36*
X158640001Y-99714802D02*
G01*
X158640000Y-102481821D01*
X158453368Y-102606525D01*
X158246525Y-102813368D01*
X158084010Y-103056589D01*
X157972068Y-103326842D01*
X157915000Y-103613740D01*
X157915000Y-103906260D01*
X157972068Y-104193158D01*
X158084010Y-104463411D01*
X158246525Y-104706632D01*
X158378380Y-104838487D01*
X158305820Y-104860498D01*
X158195506Y-104919463D01*
X158098815Y-104998815D01*
X158019463Y-105095506D01*
X157960498Y-105205820D01*
X157924188Y-105325518D01*
X157911928Y-105450000D01*
X157911928Y-105645674D01*
X157875724Y-105665026D01*
X157759999Y-105759999D01*
X157665026Y-105875724D01*
X157594454Y-106007753D01*
X157550997Y-106151014D01*
X157536323Y-106300000D01*
X157540000Y-106337332D01*
X157540001Y-107945197D01*
X157426408Y-108058790D01*
X157206260Y-108015000D01*
X156925001Y-108015000D01*
X156925001Y-99749800D01*
X157014802Y-99660000D01*
X158585199Y-99660000D01*
X158640001Y-99714802D01*
G37*
X158640001Y-99714802D02*
X158640000Y-102481821D01*
X158453368Y-102606525D01*
X158246525Y-102813368D01*
X158084010Y-103056589D01*
X157972068Y-103326842D01*
X157915000Y-103613740D01*
X157915000Y-103906260D01*
X157972068Y-104193158D01*
X158084010Y-104463411D01*
X158246525Y-104706632D01*
X158378380Y-104838487D01*
X158305820Y-104860498D01*
X158195506Y-104919463D01*
X158098815Y-104998815D01*
X158019463Y-105095506D01*
X157960498Y-105205820D01*
X157924188Y-105325518D01*
X157911928Y-105450000D01*
X157911928Y-105645674D01*
X157875724Y-105665026D01*
X157759999Y-105759999D01*
X157665026Y-105875724D01*
X157594454Y-106007753D01*
X157550997Y-106151014D01*
X157536323Y-106300000D01*
X157540000Y-106337332D01*
X157540001Y-107945197D01*
X157426408Y-108058790D01*
X157206260Y-108015000D01*
X156925001Y-108015000D01*
X156925001Y-99749800D01*
X157014802Y-99660000D01*
X158585199Y-99660000D01*
X158640001Y-99714802D01*
G36*
X139817635Y-102993385D02*
G01*
X139914088Y-103110912D01*
X139927000Y-103121509D01*
X139927000Y-103176250D01*
X140085750Y-103335000D01*
X140154424Y-103329226D01*
X140831450Y-104006251D01*
X140855248Y-104035250D01*
X140884246Y-104059048D01*
X140970972Y-104130223D01*
X141088714Y-104193158D01*
X141103002Y-104200795D01*
X141246263Y-104244252D01*
X141357916Y-104255249D01*
X141357926Y-104255249D01*
X141393448Y-104258748D01*
X142015001Y-104880301D01*
X142015001Y-105132155D01*
X141907708Y-105220208D01*
X141902492Y-105226564D01*
X141838685Y-105148815D01*
X141741994Y-105069463D01*
X141631680Y-105010498D01*
X141511982Y-104974188D01*
X141387500Y-104961928D01*
X141185750Y-104965000D01*
X141027000Y-105123750D01*
X141027000Y-106173000D01*
X141047000Y-106173000D01*
X141047000Y-106427000D01*
X141027000Y-106427000D01*
X141027000Y-106447000D01*
X140773000Y-106447000D01*
X140773000Y-106427000D01*
X140753000Y-106427000D01*
X140753000Y-106173000D01*
X140773000Y-106173000D01*
X140773000Y-105123750D01*
X140614250Y-104965000D01*
X140412500Y-104961928D01*
X140288018Y-104974188D01*
X140168320Y-105010498D01*
X140058006Y-105069463D01*
X139961315Y-105148815D01*
X139881963Y-105245506D01*
X139822998Y-105355820D01*
X139786688Y-105475518D01*
X139774428Y-105600000D01*
X139775954Y-105805832D01*
X139728285Y-105791372D01*
X139556250Y-105774428D01*
X139160000Y-105774428D01*
X139160000Y-105414801D01*
X139511003Y-105063799D01*
X139540001Y-105040001D01*
X139569547Y-105003999D01*
X139634974Y-104924277D01*
X139705546Y-104792247D01*
X139715177Y-104760498D01*
X139749003Y-104648986D01*
X139760000Y-104537333D01*
X139760000Y-104537324D01*
X139763676Y-104500001D01*
X139760000Y-104462678D01*
X139760000Y-103020637D01*
X139782365Y-102993385D01*
X139800000Y-102960392D01*
X139817635Y-102993385D01*
G37*
X139817635Y-102993385D02*
X139914088Y-103110912D01*
X139927000Y-103121509D01*
X139927000Y-103176250D01*
X140085750Y-103335000D01*
X140154424Y-103329226D01*
X140831450Y-104006251D01*
X140855248Y-104035250D01*
X140884246Y-104059048D01*
X140970972Y-104130223D01*
X141088714Y-104193158D01*
X141103002Y-104200795D01*
X141246263Y-104244252D01*
X141357916Y-104255249D01*
X141357926Y-104255249D01*
X141393448Y-104258748D01*
X142015001Y-104880301D01*
X142015001Y-105132155D01*
X141907708Y-105220208D01*
X141902492Y-105226564D01*
X141838685Y-105148815D01*
X141741994Y-105069463D01*
X141631680Y-105010498D01*
X141511982Y-104974188D01*
X141387500Y-104961928D01*
X141185750Y-104965000D01*
X141027000Y-105123750D01*
X141027000Y-106173000D01*
X141047000Y-106173000D01*
X141047000Y-106427000D01*
X141027000Y-106427000D01*
X141027000Y-106447000D01*
X140773000Y-106447000D01*
X140773000Y-106427000D01*
X140753000Y-106427000D01*
X140753000Y-106173000D01*
X140773000Y-106173000D01*
X140773000Y-105123750D01*
X140614250Y-104965000D01*
X140412500Y-104961928D01*
X140288018Y-104974188D01*
X140168320Y-105010498D01*
X140058006Y-105069463D01*
X139961315Y-105148815D01*
X139881963Y-105245506D01*
X139822998Y-105355820D01*
X139786688Y-105475518D01*
X139774428Y-105600000D01*
X139775954Y-105805832D01*
X139728285Y-105791372D01*
X139556250Y-105774428D01*
X139160000Y-105774428D01*
X139160000Y-105414801D01*
X139511003Y-105063799D01*
X139540001Y-105040001D01*
X139569547Y-105003999D01*
X139634974Y-104924277D01*
X139705546Y-104792247D01*
X139715177Y-104760498D01*
X139749003Y-104648986D01*
X139760000Y-104537333D01*
X139760000Y-104537324D01*
X139763676Y-104500001D01*
X139760000Y-104462678D01*
X139760000Y-103020637D01*
X139782365Y-102993385D01*
X139800000Y-102960392D01*
X139817635Y-102993385D01*
G36*
X134127000Y-105710500D02*
G01*
X134147000Y-105710500D01*
X134147000Y-105964500D01*
X134127000Y-105964500D01*
X134127000Y-105984500D01*
X133873000Y-105984500D01*
X133873000Y-105964500D01*
X133853000Y-105964500D01*
X133853000Y-105710500D01*
X133873000Y-105710500D01*
X133873000Y-105690500D01*
X134127000Y-105690500D01*
X134127000Y-105710500D01*
G37*
X134127000Y-105710500D02*
X134147000Y-105710500D01*
X134147000Y-105964500D01*
X134127000Y-105964500D01*
X134127000Y-105984500D01*
X133873000Y-105984500D01*
X133873000Y-105964500D01*
X133853000Y-105964500D01*
X133853000Y-105710500D01*
X133873000Y-105710500D01*
X133873000Y-105690500D01*
X134127000Y-105690500D01*
X134127000Y-105710500D01*
G36*
X175615000Y-93986260D02*
G01*
X175672068Y-94273158D01*
X175784010Y-94543411D01*
X175946525Y-94786632D01*
X176153368Y-94993475D01*
X176327760Y-95110000D01*
X176153368Y-95226525D01*
X175946525Y-95433368D01*
X175784010Y-95676589D01*
X175672068Y-95946842D01*
X175615000Y-96233740D01*
X175615000Y-96526260D01*
X175658790Y-96746408D01*
X174588998Y-97816201D01*
X174560000Y-97839999D01*
X174536202Y-97868997D01*
X174536201Y-97868998D01*
X174465026Y-97955724D01*
X174394454Y-98087754D01*
X174367770Y-98175724D01*
X174350998Y-98231014D01*
X174348366Y-98257740D01*
X174336324Y-98380000D01*
X174340001Y-98417332D01*
X174340000Y-100565198D01*
X172353997Y-102551202D01*
X172324999Y-102575000D01*
X172301201Y-102603998D01*
X172301200Y-102603999D01*
X172230025Y-102690725D01*
X172159453Y-102822755D01*
X172136222Y-102899341D01*
X172115997Y-102966015D01*
X172106378Y-103063676D01*
X172101323Y-103115001D01*
X172105000Y-103152333D01*
X172104999Y-104141201D01*
X171593461Y-104652739D01*
X171493739Y-104151399D01*
X171295107Y-103671859D01*
X171006738Y-103240285D01*
X170639715Y-102873262D01*
X170208141Y-102584893D01*
X169728601Y-102386261D01*
X169219525Y-102285000D01*
X168700475Y-102285000D01*
X168239767Y-102376640D01*
X168187205Y-102249744D01*
X168179406Y-102238072D01*
X168400000Y-102238072D01*
X168524482Y-102225812D01*
X168644180Y-102189502D01*
X168754494Y-102130537D01*
X168851185Y-102051185D01*
X168930537Y-101954494D01*
X168989502Y-101844180D01*
X169025812Y-101724482D01*
X169038072Y-101600000D01*
X170561928Y-101600000D01*
X170574188Y-101724482D01*
X170610498Y-101844180D01*
X170669463Y-101954494D01*
X170748815Y-102051185D01*
X170845506Y-102130537D01*
X170955820Y-102189502D01*
X171075518Y-102225812D01*
X171200000Y-102238072D01*
X171414250Y-102235000D01*
X171573000Y-102076250D01*
X171573000Y-100877000D01*
X171827000Y-100877000D01*
X171827000Y-102076250D01*
X171985750Y-102235000D01*
X172200000Y-102238072D01*
X172324482Y-102225812D01*
X172444180Y-102189502D01*
X172554494Y-102130537D01*
X172651185Y-102051185D01*
X172730537Y-101954494D01*
X172789502Y-101844180D01*
X172825812Y-101724482D01*
X172838072Y-101600000D01*
X172835000Y-101035750D01*
X172676250Y-100877000D01*
X171827000Y-100877000D01*
X171573000Y-100877000D01*
X170723750Y-100877000D01*
X170565000Y-101035750D01*
X170561928Y-101600000D01*
X169038072Y-101600000D01*
X169038072Y-99900000D01*
X170561928Y-99900000D01*
X170565000Y-100464250D01*
X170723750Y-100623000D01*
X171573000Y-100623000D01*
X171573000Y-99423750D01*
X171827000Y-99423750D01*
X171827000Y-100623000D01*
X172676250Y-100623000D01*
X172835000Y-100464250D01*
X172838072Y-99900000D01*
X172825812Y-99775518D01*
X172789502Y-99655820D01*
X172730537Y-99545506D01*
X172651185Y-99448815D01*
X172554494Y-99369463D01*
X172444180Y-99310498D01*
X172324482Y-99274188D01*
X172200000Y-99261928D01*
X171985750Y-99265000D01*
X171827000Y-99423750D01*
X171573000Y-99423750D01*
X171414250Y-99265000D01*
X171200000Y-99261928D01*
X171075518Y-99274188D01*
X170955820Y-99310498D01*
X170845506Y-99369463D01*
X170748815Y-99448815D01*
X170669463Y-99545506D01*
X170610498Y-99655820D01*
X170574188Y-99775518D01*
X170561928Y-99900000D01*
X169038072Y-99900000D01*
X169025812Y-99775518D01*
X168989502Y-99655820D01*
X168930537Y-99545506D01*
X168851185Y-99448815D01*
X168754494Y-99369463D01*
X168660000Y-99318954D01*
X168660000Y-95881046D01*
X168754494Y-95830537D01*
X168851185Y-95751185D01*
X168930537Y-95654494D01*
X168989502Y-95544180D01*
X169025812Y-95424482D01*
X169038072Y-95300000D01*
X170561928Y-95300000D01*
X170574188Y-95424482D01*
X170610498Y-95544180D01*
X170669463Y-95654494D01*
X170748815Y-95751185D01*
X170845506Y-95830537D01*
X170955820Y-95889502D01*
X171075518Y-95925812D01*
X171200000Y-95938072D01*
X171414250Y-95935000D01*
X171573000Y-95776250D01*
X171573000Y-94577000D01*
X171827000Y-94577000D01*
X171827000Y-95776250D01*
X171985750Y-95935000D01*
X172200000Y-95938072D01*
X172324482Y-95925812D01*
X172444180Y-95889502D01*
X172554494Y-95830537D01*
X172651185Y-95751185D01*
X172730537Y-95654494D01*
X172789502Y-95544180D01*
X172825812Y-95424482D01*
X172838072Y-95300000D01*
X172835000Y-94735750D01*
X172676250Y-94577000D01*
X171827000Y-94577000D01*
X171573000Y-94577000D01*
X170723750Y-94577000D01*
X170565000Y-94735750D01*
X170561928Y-95300000D01*
X169038072Y-95300000D01*
X169038072Y-94174407D01*
X169215449Y-94247879D01*
X169415408Y-94287653D01*
X169619286Y-94287653D01*
X169819245Y-94247879D01*
X170007603Y-94169858D01*
X170177121Y-94056590D01*
X170221058Y-94012653D01*
X170564175Y-94012653D01*
X170565000Y-94164250D01*
X170723750Y-94323000D01*
X171573000Y-94323000D01*
X171573000Y-94303000D01*
X171827000Y-94303000D01*
X171827000Y-94323000D01*
X172676250Y-94323000D01*
X172835000Y-94164250D01*
X172835825Y-94012653D01*
X174988083Y-94012653D01*
X175099999Y-94023676D01*
X175210970Y-94012746D01*
X175247347Y-94016329D01*
X175284669Y-94012653D01*
X175284680Y-94012653D01*
X175396333Y-94001656D01*
X175539594Y-93958199D01*
X175615000Y-93917893D01*
X175615000Y-93986260D01*
G37*
X175615000Y-93986260D02*
X175672068Y-94273158D01*
X175784010Y-94543411D01*
X175946525Y-94786632D01*
X176153368Y-94993475D01*
X176327760Y-95110000D01*
X176153368Y-95226525D01*
X175946525Y-95433368D01*
X175784010Y-95676589D01*
X175672068Y-95946842D01*
X175615000Y-96233740D01*
X175615000Y-96526260D01*
X175658790Y-96746408D01*
X174588998Y-97816201D01*
X174560000Y-97839999D01*
X174536202Y-97868997D01*
X174536201Y-97868998D01*
X174465026Y-97955724D01*
X174394454Y-98087754D01*
X174367770Y-98175724D01*
X174350998Y-98231014D01*
X174348366Y-98257740D01*
X174336324Y-98380000D01*
X174340001Y-98417332D01*
X174340000Y-100565198D01*
X172353997Y-102551202D01*
X172324999Y-102575000D01*
X172301201Y-102603998D01*
X172301200Y-102603999D01*
X172230025Y-102690725D01*
X172159453Y-102822755D01*
X172136222Y-102899341D01*
X172115997Y-102966015D01*
X172106378Y-103063676D01*
X172101323Y-103115001D01*
X172105000Y-103152333D01*
X172104999Y-104141201D01*
X171593461Y-104652739D01*
X171493739Y-104151399D01*
X171295107Y-103671859D01*
X171006738Y-103240285D01*
X170639715Y-102873262D01*
X170208141Y-102584893D01*
X169728601Y-102386261D01*
X169219525Y-102285000D01*
X168700475Y-102285000D01*
X168239767Y-102376640D01*
X168187205Y-102249744D01*
X168179406Y-102238072D01*
X168400000Y-102238072D01*
X168524482Y-102225812D01*
X168644180Y-102189502D01*
X168754494Y-102130537D01*
X168851185Y-102051185D01*
X168930537Y-101954494D01*
X168989502Y-101844180D01*
X169025812Y-101724482D01*
X169038072Y-101600000D01*
X170561928Y-101600000D01*
X170574188Y-101724482D01*
X170610498Y-101844180D01*
X170669463Y-101954494D01*
X170748815Y-102051185D01*
X170845506Y-102130537D01*
X170955820Y-102189502D01*
X171075518Y-102225812D01*
X171200000Y-102238072D01*
X171414250Y-102235000D01*
X171573000Y-102076250D01*
X171573000Y-100877000D01*
X171827000Y-100877000D01*
X171827000Y-102076250D01*
X171985750Y-102235000D01*
X172200000Y-102238072D01*
X172324482Y-102225812D01*
X172444180Y-102189502D01*
X172554494Y-102130537D01*
X172651185Y-102051185D01*
X172730537Y-101954494D01*
X172789502Y-101844180D01*
X172825812Y-101724482D01*
X172838072Y-101600000D01*
X172835000Y-101035750D01*
X172676250Y-100877000D01*
X171827000Y-100877000D01*
X171573000Y-100877000D01*
X170723750Y-100877000D01*
X170565000Y-101035750D01*
X170561928Y-101600000D01*
X169038072Y-101600000D01*
X169038072Y-99900000D01*
X170561928Y-99900000D01*
X170565000Y-100464250D01*
X170723750Y-100623000D01*
X171573000Y-100623000D01*
X171573000Y-99423750D01*
X171827000Y-99423750D01*
X171827000Y-100623000D01*
X172676250Y-100623000D01*
X172835000Y-100464250D01*
X172838072Y-99900000D01*
X172825812Y-99775518D01*
X172789502Y-99655820D01*
X172730537Y-99545506D01*
X172651185Y-99448815D01*
X172554494Y-99369463D01*
X172444180Y-99310498D01*
X172324482Y-99274188D01*
X172200000Y-99261928D01*
X171985750Y-99265000D01*
X171827000Y-99423750D01*
X171573000Y-99423750D01*
X171414250Y-99265000D01*
X171200000Y-99261928D01*
X171075518Y-99274188D01*
X170955820Y-99310498D01*
X170845506Y-99369463D01*
X170748815Y-99448815D01*
X170669463Y-99545506D01*
X170610498Y-99655820D01*
X170574188Y-99775518D01*
X170561928Y-99900000D01*
X169038072Y-99900000D01*
X169025812Y-99775518D01*
X168989502Y-99655820D01*
X168930537Y-99545506D01*
X168851185Y-99448815D01*
X168754494Y-99369463D01*
X168660000Y-99318954D01*
X168660000Y-95881046D01*
X168754494Y-95830537D01*
X168851185Y-95751185D01*
X168930537Y-95654494D01*
X168989502Y-95544180D01*
X169025812Y-95424482D01*
X169038072Y-95300000D01*
X170561928Y-95300000D01*
X170574188Y-95424482D01*
X170610498Y-95544180D01*
X170669463Y-95654494D01*
X170748815Y-95751185D01*
X170845506Y-95830537D01*
X170955820Y-95889502D01*
X171075518Y-95925812D01*
X171200000Y-95938072D01*
X171414250Y-95935000D01*
X171573000Y-95776250D01*
X171573000Y-94577000D01*
X171827000Y-94577000D01*
X171827000Y-95776250D01*
X171985750Y-95935000D01*
X172200000Y-95938072D01*
X172324482Y-95925812D01*
X172444180Y-95889502D01*
X172554494Y-95830537D01*
X172651185Y-95751185D01*
X172730537Y-95654494D01*
X172789502Y-95544180D01*
X172825812Y-95424482D01*
X172838072Y-95300000D01*
X172835000Y-94735750D01*
X172676250Y-94577000D01*
X171827000Y-94577000D01*
X171573000Y-94577000D01*
X170723750Y-94577000D01*
X170565000Y-94735750D01*
X170561928Y-95300000D01*
X169038072Y-95300000D01*
X169038072Y-94174407D01*
X169215449Y-94247879D01*
X169415408Y-94287653D01*
X169619286Y-94287653D01*
X169819245Y-94247879D01*
X170007603Y-94169858D01*
X170177121Y-94056590D01*
X170221058Y-94012653D01*
X170564175Y-94012653D01*
X170565000Y-94164250D01*
X170723750Y-94323000D01*
X171573000Y-94323000D01*
X171573000Y-94303000D01*
X171827000Y-94303000D01*
X171827000Y-94323000D01*
X172676250Y-94323000D01*
X172835000Y-94164250D01*
X172835825Y-94012653D01*
X174988083Y-94012653D01*
X175099999Y-94023676D01*
X175210970Y-94012746D01*
X175247347Y-94016329D01*
X175284669Y-94012653D01*
X175284680Y-94012653D01*
X175396333Y-94001656D01*
X175539594Y-93958199D01*
X175615000Y-93917893D01*
X175615000Y-93986260D01*
G36*
X155203989Y-93721210D02*
G01*
X155174991Y-93745008D01*
X155151193Y-93774006D01*
X155151192Y-93774007D01*
X155080017Y-93860733D01*
X155009445Y-93992763D01*
X154987837Y-94063999D01*
X154965989Y-94136023D01*
X154954992Y-94247676D01*
X154951315Y-94285009D01*
X154954992Y-94322341D01*
X154954992Y-94895758D01*
X154927000Y-94923750D01*
X154927000Y-95973000D01*
X154947000Y-95973000D01*
X154947000Y-96227000D01*
X154927000Y-96227000D01*
X154927000Y-97276250D01*
X154954992Y-97304242D01*
X154954991Y-102141205D01*
X152526870Y-104569327D01*
X152443739Y-104151399D01*
X152245107Y-103671859D01*
X151956738Y-103240285D01*
X151589715Y-102873262D01*
X151221239Y-102627054D01*
X151313685Y-102551185D01*
X151393037Y-102454494D01*
X151452002Y-102344180D01*
X151488312Y-102224482D01*
X151500572Y-102100000D01*
X151497500Y-101685750D01*
X151449262Y-101637512D01*
X151614250Y-101635000D01*
X151773000Y-101476250D01*
X151773000Y-100427000D01*
X151753000Y-100427000D01*
X151753000Y-100173000D01*
X151773000Y-100173000D01*
X151773000Y-100153000D01*
X152027000Y-100153000D01*
X152027000Y-100173000D01*
X152047000Y-100173000D01*
X152047000Y-100427000D01*
X152027000Y-100427000D01*
X152027000Y-101476250D01*
X152185750Y-101635000D01*
X152387500Y-101638072D01*
X152511982Y-101625812D01*
X152631680Y-101589502D01*
X152741994Y-101530537D01*
X152838685Y-101451185D01*
X152902492Y-101373436D01*
X152907708Y-101379792D01*
X153041336Y-101489458D01*
X153193791Y-101570947D01*
X153359215Y-101621128D01*
X153531250Y-101638072D01*
X154018750Y-101638072D01*
X154190785Y-101621128D01*
X154356209Y-101570947D01*
X154508664Y-101489458D01*
X154642292Y-101379792D01*
X154751958Y-101246164D01*
X154833447Y-101093709D01*
X154883628Y-100928285D01*
X154900572Y-100756250D01*
X154900572Y-99843750D01*
X154883628Y-99671715D01*
X154833447Y-99506291D01*
X154751958Y-99353836D01*
X154642292Y-99220208D01*
X154535000Y-99132155D01*
X154535000Y-99112323D01*
X154538676Y-99075000D01*
X154535000Y-99037677D01*
X154535000Y-99037667D01*
X154524003Y-98926014D01*
X154480546Y-98782753D01*
X154409974Y-98650724D01*
X154315001Y-98534999D01*
X154286003Y-98511201D01*
X154138072Y-98363270D01*
X154138072Y-97500000D01*
X154129002Y-97407910D01*
X154188018Y-97425812D01*
X154312500Y-97438072D01*
X154514250Y-97435000D01*
X154673000Y-97276250D01*
X154673000Y-96227000D01*
X154076250Y-96227000D01*
X153976250Y-96127000D01*
X153027000Y-96127000D01*
X153027000Y-96147000D01*
X152773000Y-96147000D01*
X152773000Y-96127000D01*
X152753000Y-96127000D01*
X152753000Y-95873000D01*
X152773000Y-95873000D01*
X152773000Y-95853000D01*
X153027000Y-95853000D01*
X153027000Y-95873000D01*
X153736250Y-95873000D01*
X153836250Y-95973000D01*
X154673000Y-95973000D01*
X154673000Y-94974959D01*
X154688312Y-94924482D01*
X154700572Y-94800000D01*
X154697500Y-94385750D01*
X154538750Y-94227000D01*
X153702000Y-94227000D01*
X153702000Y-94247000D01*
X153448000Y-94247000D01*
X153448000Y-94227000D01*
X153428000Y-94227000D01*
X153428000Y-93973000D01*
X153448000Y-93973000D01*
X153448000Y-93953000D01*
X153702000Y-93953000D01*
X153702000Y-93973000D01*
X154538750Y-93973000D01*
X154697500Y-93814250D01*
X154700312Y-93434999D01*
X155490200Y-93434999D01*
X155203989Y-93721210D01*
G37*
X155203989Y-93721210D02*
X155174991Y-93745008D01*
X155151193Y-93774006D01*
X155151192Y-93774007D01*
X155080017Y-93860733D01*
X155009445Y-93992763D01*
X154987837Y-94063999D01*
X154965989Y-94136023D01*
X154954992Y-94247676D01*
X154951315Y-94285009D01*
X154954992Y-94322341D01*
X154954992Y-94895758D01*
X154927000Y-94923750D01*
X154927000Y-95973000D01*
X154947000Y-95973000D01*
X154947000Y-96227000D01*
X154927000Y-96227000D01*
X154927000Y-97276250D01*
X154954992Y-97304242D01*
X154954991Y-102141205D01*
X152526870Y-104569327D01*
X152443739Y-104151399D01*
X152245107Y-103671859D01*
X151956738Y-103240285D01*
X151589715Y-102873262D01*
X151221239Y-102627054D01*
X151313685Y-102551185D01*
X151393037Y-102454494D01*
X151452002Y-102344180D01*
X151488312Y-102224482D01*
X151500572Y-102100000D01*
X151497500Y-101685750D01*
X151449262Y-101637512D01*
X151614250Y-101635000D01*
X151773000Y-101476250D01*
X151773000Y-100427000D01*
X151753000Y-100427000D01*
X151753000Y-100173000D01*
X151773000Y-100173000D01*
X151773000Y-100153000D01*
X152027000Y-100153000D01*
X152027000Y-100173000D01*
X152047000Y-100173000D01*
X152047000Y-100427000D01*
X152027000Y-100427000D01*
X152027000Y-101476250D01*
X152185750Y-101635000D01*
X152387500Y-101638072D01*
X152511982Y-101625812D01*
X152631680Y-101589502D01*
X152741994Y-101530537D01*
X152838685Y-101451185D01*
X152902492Y-101373436D01*
X152907708Y-101379792D01*
X153041336Y-101489458D01*
X153193791Y-101570947D01*
X153359215Y-101621128D01*
X153531250Y-101638072D01*
X154018750Y-101638072D01*
X154190785Y-101621128D01*
X154356209Y-101570947D01*
X154508664Y-101489458D01*
X154642292Y-101379792D01*
X154751958Y-101246164D01*
X154833447Y-101093709D01*
X154883628Y-100928285D01*
X154900572Y-100756250D01*
X154900572Y-99843750D01*
X154883628Y-99671715D01*
X154833447Y-99506291D01*
X154751958Y-99353836D01*
X154642292Y-99220208D01*
X154535000Y-99132155D01*
X154535000Y-99112323D01*
X154538676Y-99075000D01*
X154535000Y-99037677D01*
X154535000Y-99037667D01*
X154524003Y-98926014D01*
X154480546Y-98782753D01*
X154409974Y-98650724D01*
X154315001Y-98534999D01*
X154286003Y-98511201D01*
X154138072Y-98363270D01*
X154138072Y-97500000D01*
X154129002Y-97407910D01*
X154188018Y-97425812D01*
X154312500Y-97438072D01*
X154514250Y-97435000D01*
X154673000Y-97276250D01*
X154673000Y-96227000D01*
X154076250Y-96227000D01*
X153976250Y-96127000D01*
X153027000Y-96127000D01*
X153027000Y-96147000D01*
X152773000Y-96147000D01*
X152773000Y-96127000D01*
X152753000Y-96127000D01*
X152753000Y-95873000D01*
X152773000Y-95873000D01*
X152773000Y-95853000D01*
X153027000Y-95853000D01*
X153027000Y-95873000D01*
X153736250Y-95873000D01*
X153836250Y-95973000D01*
X154673000Y-95973000D01*
X154673000Y-94974959D01*
X154688312Y-94924482D01*
X154700572Y-94800000D01*
X154697500Y-94385750D01*
X154538750Y-94227000D01*
X153702000Y-94227000D01*
X153702000Y-94247000D01*
X153448000Y-94247000D01*
X153448000Y-94227000D01*
X153428000Y-94227000D01*
X153428000Y-93973000D01*
X153448000Y-93973000D01*
X153448000Y-93953000D01*
X153702000Y-93953000D01*
X153702000Y-93973000D01*
X154538750Y-93973000D01*
X154697500Y-93814250D01*
X154700312Y-93434999D01*
X155490200Y-93434999D01*
X155203989Y-93721210D01*
G36*
X160452511Y-97376222D02*
G01*
X160452510Y-102066748D01*
X160427573Y-102083410D01*
X160283410Y-102227573D01*
X160170142Y-102397091D01*
X160160000Y-102421576D01*
X160160000Y-101689250D01*
X160273000Y-101576250D01*
X160273000Y-100527000D01*
X160253000Y-100527000D01*
X160253000Y-100273000D01*
X160273000Y-100273000D01*
X160273000Y-99223750D01*
X160114250Y-99065000D01*
X160082435Y-99064516D01*
X160034974Y-98975724D01*
X159940001Y-98859999D01*
X159910997Y-98836196D01*
X159463804Y-98389003D01*
X159440001Y-98359999D01*
X159413283Y-98338072D01*
X159800000Y-98338072D01*
X159924482Y-98325812D01*
X160044180Y-98289502D01*
X160154494Y-98230537D01*
X160251185Y-98151185D01*
X160330537Y-98054494D01*
X160389502Y-97944180D01*
X160425812Y-97824482D01*
X160438072Y-97700000D01*
X160438072Y-97361783D01*
X160452511Y-97376222D01*
G37*
X160452511Y-97376222D02*
X160452510Y-102066748D01*
X160427573Y-102083410D01*
X160283410Y-102227573D01*
X160170142Y-102397091D01*
X160160000Y-102421576D01*
X160160000Y-101689250D01*
X160273000Y-101576250D01*
X160273000Y-100527000D01*
X160253000Y-100527000D01*
X160253000Y-100273000D01*
X160273000Y-100273000D01*
X160273000Y-99223750D01*
X160114250Y-99065000D01*
X160082435Y-99064516D01*
X160034974Y-98975724D01*
X159940001Y-98859999D01*
X159910997Y-98836196D01*
X159463804Y-98389003D01*
X159440001Y-98359999D01*
X159413283Y-98338072D01*
X159800000Y-98338072D01*
X159924482Y-98325812D01*
X160044180Y-98289502D01*
X160154494Y-98230537D01*
X160251185Y-98151185D01*
X160330537Y-98054494D01*
X160389502Y-97944180D01*
X160425812Y-97824482D01*
X160438072Y-97700000D01*
X160438072Y-97361783D01*
X160452511Y-97376222D01*
G36*
X149311191Y-99785993D02*
G01*
X149334989Y-99814991D01*
X149450714Y-99909964D01*
X149582743Y-99980536D01*
X149726004Y-100023993D01*
X149837657Y-100034990D01*
X149837666Y-100034990D01*
X149874989Y-100038666D01*
X149912312Y-100034990D01*
X150798240Y-100034990D01*
X150825738Y-100062488D01*
X150660750Y-100065000D01*
X150502000Y-100223750D01*
X150502000Y-101273000D01*
X150522000Y-101273000D01*
X150522000Y-101527000D01*
X150502000Y-101527000D01*
X150502000Y-101547000D01*
X150248000Y-101547000D01*
X150248000Y-101527000D01*
X150228000Y-101527000D01*
X150228000Y-101273000D01*
X150248000Y-101273000D01*
X150248000Y-100223750D01*
X150089250Y-100065000D01*
X149887500Y-100061928D01*
X149763018Y-100074188D01*
X149643320Y-100110498D01*
X149533006Y-100169463D01*
X149436315Y-100248815D01*
X149372508Y-100326564D01*
X149367292Y-100320208D01*
X149260000Y-100232155D01*
X149260000Y-99734802D01*
X149311191Y-99785993D01*
G37*
X149311191Y-99785993D02*
X149334989Y-99814991D01*
X149450714Y-99909964D01*
X149582743Y-99980536D01*
X149726004Y-100023993D01*
X149837657Y-100034990D01*
X149837666Y-100034990D01*
X149874989Y-100038666D01*
X149912312Y-100034990D01*
X150798240Y-100034990D01*
X150825738Y-100062488D01*
X150660750Y-100065000D01*
X150502000Y-100223750D01*
X150502000Y-101273000D01*
X150522000Y-101273000D01*
X150522000Y-101527000D01*
X150502000Y-101527000D01*
X150502000Y-101547000D01*
X150248000Y-101547000D01*
X150248000Y-101527000D01*
X150228000Y-101527000D01*
X150228000Y-101273000D01*
X150248000Y-101273000D01*
X150248000Y-100223750D01*
X150089250Y-100065000D01*
X149887500Y-100061928D01*
X149763018Y-100074188D01*
X149643320Y-100110498D01*
X149533006Y-100169463D01*
X149436315Y-100248815D01*
X149372508Y-100326564D01*
X149367292Y-100320208D01*
X149260000Y-100232155D01*
X149260000Y-99734802D01*
X149311191Y-99785993D01*
G36*
X166761928Y-95300000D02*
G01*
X166774188Y-95424482D01*
X166810498Y-95544180D01*
X166869463Y-95654494D01*
X166948815Y-95751185D01*
X167045506Y-95830537D01*
X167140001Y-95881046D01*
X167140000Y-99318954D01*
X167045506Y-99369463D01*
X166948815Y-99448815D01*
X166869463Y-99545506D01*
X166810498Y-99655820D01*
X166774188Y-99775518D01*
X166761928Y-99900000D01*
X166761928Y-100813270D01*
X166202145Y-101373054D01*
X166514459Y-100927023D01*
X166575816Y-100818021D01*
X166614728Y-100699144D01*
X166629701Y-100574959D01*
X166620159Y-100450240D01*
X166586469Y-100329778D01*
X166529925Y-100218204D01*
X166452701Y-100119805D01*
X166357764Y-100038362D01*
X165568604Y-99485786D01*
X166100000Y-99488072D01*
X166224482Y-99475812D01*
X166344180Y-99439502D01*
X166454494Y-99380537D01*
X166551185Y-99301185D01*
X166630537Y-99204494D01*
X166689502Y-99094180D01*
X166725812Y-98974482D01*
X166738072Y-98850000D01*
X166735000Y-98385750D01*
X166576250Y-98227000D01*
X165227000Y-98227000D01*
X165227000Y-98247000D01*
X164973000Y-98247000D01*
X164973000Y-98227000D01*
X164953000Y-98227000D01*
X164953000Y-97973000D01*
X164973000Y-97973000D01*
X164973000Y-97953000D01*
X165227000Y-97953000D01*
X165227000Y-97973000D01*
X166576250Y-97973000D01*
X166735000Y-97814250D01*
X166738072Y-97350000D01*
X166725812Y-97225518D01*
X166689502Y-97105820D01*
X166630537Y-96995506D01*
X166593191Y-96950000D01*
X166630537Y-96904494D01*
X166689502Y-96794180D01*
X166725812Y-96674482D01*
X166738072Y-96550000D01*
X166738072Y-95236731D01*
X166761928Y-95212875D01*
X166761928Y-95300000D01*
G37*
X166761928Y-95300000D02*
X166774188Y-95424482D01*
X166810498Y-95544180D01*
X166869463Y-95654494D01*
X166948815Y-95751185D01*
X167045506Y-95830537D01*
X167140001Y-95881046D01*
X167140000Y-99318954D01*
X167045506Y-99369463D01*
X166948815Y-99448815D01*
X166869463Y-99545506D01*
X166810498Y-99655820D01*
X166774188Y-99775518D01*
X166761928Y-99900000D01*
X166761928Y-100813270D01*
X166202145Y-101373054D01*
X166514459Y-100927023D01*
X166575816Y-100818021D01*
X166614728Y-100699144D01*
X166629701Y-100574959D01*
X166620159Y-100450240D01*
X166586469Y-100329778D01*
X166529925Y-100218204D01*
X166452701Y-100119805D01*
X166357764Y-100038362D01*
X165568604Y-99485786D01*
X166100000Y-99488072D01*
X166224482Y-99475812D01*
X166344180Y-99439502D01*
X166454494Y-99380537D01*
X166551185Y-99301185D01*
X166630537Y-99204494D01*
X166689502Y-99094180D01*
X166725812Y-98974482D01*
X166738072Y-98850000D01*
X166735000Y-98385750D01*
X166576250Y-98227000D01*
X165227000Y-98227000D01*
X165227000Y-98247000D01*
X164973000Y-98247000D01*
X164973000Y-98227000D01*
X164953000Y-98227000D01*
X164953000Y-97973000D01*
X164973000Y-97973000D01*
X164973000Y-97953000D01*
X165227000Y-97953000D01*
X165227000Y-97973000D01*
X166576250Y-97973000D01*
X166735000Y-97814250D01*
X166738072Y-97350000D01*
X166725812Y-97225518D01*
X166689502Y-97105820D01*
X166630537Y-96995506D01*
X166593191Y-96950000D01*
X166630537Y-96904494D01*
X166689502Y-96794180D01*
X166725812Y-96674482D01*
X166738072Y-96550000D01*
X166738072Y-95236731D01*
X166761928Y-95212875D01*
X166761928Y-95300000D01*
G36*
X130952000Y-100873000D02*
G01*
X130972000Y-100873000D01*
X130972000Y-101127000D01*
X130952000Y-101127000D01*
X130952000Y-101147000D01*
X130698000Y-101147000D01*
X130698000Y-101127000D01*
X130678000Y-101127000D01*
X130678000Y-100873000D01*
X130698000Y-100873000D01*
X130698000Y-100853000D01*
X130952000Y-100853000D01*
X130952000Y-100873000D01*
G37*
X130952000Y-100873000D02*
X130972000Y-100873000D01*
X130972000Y-101127000D01*
X130952000Y-101127000D01*
X130952000Y-101147000D01*
X130698000Y-101147000D01*
X130698000Y-101127000D01*
X130678000Y-101127000D01*
X130678000Y-100873000D01*
X130698000Y-100873000D01*
X130698000Y-100853000D01*
X130952000Y-100853000D01*
X130952000Y-100873000D01*
G36*
X140296063Y-96259774D02*
G01*
X140440226Y-96403937D01*
X140609744Y-96517205D01*
X140798102Y-96595226D01*
X140998061Y-96635000D01*
X141201939Y-96635000D01*
X141401898Y-96595226D01*
X141590256Y-96517205D01*
X141681462Y-96456263D01*
X143014999Y-97789801D01*
X143015000Y-100586928D01*
X142862500Y-100586928D01*
X142711193Y-100601830D01*
X142600000Y-100635560D01*
X142488807Y-100601830D01*
X142337500Y-100586928D01*
X142062500Y-100586928D01*
X141911193Y-100601830D01*
X141800000Y-100635560D01*
X141688807Y-100601830D01*
X141537500Y-100586928D01*
X141262500Y-100586928D01*
X141111193Y-100601830D01*
X141000000Y-100635560D01*
X140888807Y-100601830D01*
X140737500Y-100586928D01*
X140462500Y-100586928D01*
X140311193Y-100601830D01*
X140259702Y-100617450D01*
X140202668Y-100599831D01*
X140085750Y-100590000D01*
X139927000Y-100748750D01*
X139927000Y-100803491D01*
X139914088Y-100814088D01*
X139817635Y-100931615D01*
X139800000Y-100964608D01*
X139782365Y-100931615D01*
X139685912Y-100814088D01*
X139673000Y-100803491D01*
X139673000Y-100748750D01*
X139514250Y-100590000D01*
X139397332Y-100599831D01*
X139340298Y-100617450D01*
X139288807Y-100601830D01*
X139137500Y-100586928D01*
X138862500Y-100586928D01*
X138711193Y-100601830D01*
X138600000Y-100635560D01*
X138488807Y-100601830D01*
X138337500Y-100586928D01*
X138062500Y-100586928D01*
X137911193Y-100601830D01*
X137800000Y-100635560D01*
X137688807Y-100601830D01*
X137537500Y-100586928D01*
X137262500Y-100586928D01*
X137111193Y-100601830D01*
X137000000Y-100635560D01*
X136888807Y-100601830D01*
X136737500Y-100586928D01*
X136462500Y-100586928D01*
X136311193Y-100601830D01*
X136292499Y-100607501D01*
X136298170Y-100588807D01*
X136313072Y-100437500D01*
X136313072Y-100162500D01*
X136298170Y-100011193D01*
X136282550Y-99959702D01*
X136300169Y-99902668D01*
X136310000Y-99785750D01*
X136151250Y-99627000D01*
X136096509Y-99627000D01*
X136085912Y-99614088D01*
X135968385Y-99517635D01*
X135935392Y-99500000D01*
X135968385Y-99482365D01*
X136085912Y-99385912D01*
X136096509Y-99373000D01*
X136151250Y-99373000D01*
X136310000Y-99214250D01*
X136300169Y-99097332D01*
X136282550Y-99040298D01*
X136298170Y-98988807D01*
X136313072Y-98837500D01*
X136313072Y-98562500D01*
X136303708Y-98467419D01*
X136440226Y-98603937D01*
X136609744Y-98717205D01*
X136798102Y-98795226D01*
X136998061Y-98835000D01*
X137201939Y-98835000D01*
X137401898Y-98795226D01*
X137590256Y-98717205D01*
X137759774Y-98603937D01*
X137903937Y-98459774D01*
X138017205Y-98290256D01*
X138095226Y-98101898D01*
X138135000Y-97901939D01*
X138135000Y-97698061D01*
X138095226Y-97498102D01*
X138038022Y-97360000D01*
X138076939Y-97360000D01*
X138276898Y-97320226D01*
X138465256Y-97242205D01*
X138472100Y-97237632D01*
X138504774Y-97401898D01*
X138582795Y-97590256D01*
X138696063Y-97759774D01*
X138840226Y-97903937D01*
X139009744Y-98017205D01*
X139198102Y-98095226D01*
X139398061Y-98135000D01*
X139601939Y-98135000D01*
X139801898Y-98095226D01*
X139990256Y-98017205D01*
X140159774Y-97903937D01*
X140303937Y-97759774D01*
X140417205Y-97590256D01*
X140495226Y-97401898D01*
X140535000Y-97201939D01*
X140535000Y-96998061D01*
X140495226Y-96798102D01*
X140417205Y-96609744D01*
X140303937Y-96440226D01*
X140260000Y-96396289D01*
X140260000Y-96205802D01*
X140296063Y-96259774D01*
G37*
X140296063Y-96259774D02*
X140440226Y-96403937D01*
X140609744Y-96517205D01*
X140798102Y-96595226D01*
X140998061Y-96635000D01*
X141201939Y-96635000D01*
X141401898Y-96595226D01*
X141590256Y-96517205D01*
X141681462Y-96456263D01*
X143014999Y-97789801D01*
X143015000Y-100586928D01*
X142862500Y-100586928D01*
X142711193Y-100601830D01*
X142600000Y-100635560D01*
X142488807Y-100601830D01*
X142337500Y-100586928D01*
X142062500Y-100586928D01*
X141911193Y-100601830D01*
X141800000Y-100635560D01*
X141688807Y-100601830D01*
X141537500Y-100586928D01*
X141262500Y-100586928D01*
X141111193Y-100601830D01*
X141000000Y-100635560D01*
X140888807Y-100601830D01*
X140737500Y-100586928D01*
X140462500Y-100586928D01*
X140311193Y-100601830D01*
X140259702Y-100617450D01*
X140202668Y-100599831D01*
X140085750Y-100590000D01*
X139927000Y-100748750D01*
X139927000Y-100803491D01*
X139914088Y-100814088D01*
X139817635Y-100931615D01*
X139800000Y-100964608D01*
X139782365Y-100931615D01*
X139685912Y-100814088D01*
X139673000Y-100803491D01*
X139673000Y-100748750D01*
X139514250Y-100590000D01*
X139397332Y-100599831D01*
X139340298Y-100617450D01*
X139288807Y-100601830D01*
X139137500Y-100586928D01*
X138862500Y-100586928D01*
X138711193Y-100601830D01*
X138600000Y-100635560D01*
X138488807Y-100601830D01*
X138337500Y-100586928D01*
X138062500Y-100586928D01*
X137911193Y-100601830D01*
X137800000Y-100635560D01*
X137688807Y-100601830D01*
X137537500Y-100586928D01*
X137262500Y-100586928D01*
X137111193Y-100601830D01*
X137000000Y-100635560D01*
X136888807Y-100601830D01*
X136737500Y-100586928D01*
X136462500Y-100586928D01*
X136311193Y-100601830D01*
X136292499Y-100607501D01*
X136298170Y-100588807D01*
X136313072Y-100437500D01*
X136313072Y-100162500D01*
X136298170Y-100011193D01*
X136282550Y-99959702D01*
X136300169Y-99902668D01*
X136310000Y-99785750D01*
X136151250Y-99627000D01*
X136096509Y-99627000D01*
X136085912Y-99614088D01*
X135968385Y-99517635D01*
X135935392Y-99500000D01*
X135968385Y-99482365D01*
X136085912Y-99385912D01*
X136096509Y-99373000D01*
X136151250Y-99373000D01*
X136310000Y-99214250D01*
X136300169Y-99097332D01*
X136282550Y-99040298D01*
X136298170Y-98988807D01*
X136313072Y-98837500D01*
X136313072Y-98562500D01*
X136303708Y-98467419D01*
X136440226Y-98603937D01*
X136609744Y-98717205D01*
X136798102Y-98795226D01*
X136998061Y-98835000D01*
X137201939Y-98835000D01*
X137401898Y-98795226D01*
X137590256Y-98717205D01*
X137759774Y-98603937D01*
X137903937Y-98459774D01*
X138017205Y-98290256D01*
X138095226Y-98101898D01*
X138135000Y-97901939D01*
X138135000Y-97698061D01*
X138095226Y-97498102D01*
X138038022Y-97360000D01*
X138076939Y-97360000D01*
X138276898Y-97320226D01*
X138465256Y-97242205D01*
X138472100Y-97237632D01*
X138504774Y-97401898D01*
X138582795Y-97590256D01*
X138696063Y-97759774D01*
X138840226Y-97903937D01*
X139009744Y-98017205D01*
X139198102Y-98095226D01*
X139398061Y-98135000D01*
X139601939Y-98135000D01*
X139801898Y-98095226D01*
X139990256Y-98017205D01*
X140159774Y-97903937D01*
X140303937Y-97759774D01*
X140417205Y-97590256D01*
X140495226Y-97401898D01*
X140535000Y-97201939D01*
X140535000Y-96998061D01*
X140495226Y-96798102D01*
X140417205Y-96609744D01*
X140303937Y-96440226D01*
X140260000Y-96396289D01*
X140260000Y-96205802D01*
X140296063Y-96259774D01*
G36*
X131839043Y-99915009D02*
G01*
X131832708Y-99920208D01*
X131827492Y-99926564D01*
X131811037Y-99906513D01*
X131839043Y-99915009D01*
G37*
X131839043Y-99915009D02*
X131832708Y-99920208D01*
X131827492Y-99926564D01*
X131811037Y-99906513D01*
X131839043Y-99915009D01*
G36*
X150206809Y-97100000D02*
G01*
X150169463Y-97145506D01*
X150110498Y-97255820D01*
X150074188Y-97375518D01*
X150061928Y-97500000D01*
X150065000Y-97914250D01*
X150223750Y-98073000D01*
X151173000Y-98073000D01*
X151173000Y-98053000D01*
X151427000Y-98053000D01*
X151427000Y-98073000D01*
X151447000Y-98073000D01*
X151447000Y-98327000D01*
X151427000Y-98327000D01*
X151427000Y-98347000D01*
X151173000Y-98347000D01*
X151173000Y-98327000D01*
X150223750Y-98327000D01*
X150112776Y-98437974D01*
X148734801Y-97060000D01*
X150173982Y-97060000D01*
X150206809Y-97100000D01*
G37*
X150206809Y-97100000D02*
X150169463Y-97145506D01*
X150110498Y-97255820D01*
X150074188Y-97375518D01*
X150061928Y-97500000D01*
X150065000Y-97914250D01*
X150223750Y-98073000D01*
X151173000Y-98073000D01*
X151173000Y-98053000D01*
X151427000Y-98053000D01*
X151427000Y-98073000D01*
X151447000Y-98073000D01*
X151447000Y-98327000D01*
X151427000Y-98327000D01*
X151427000Y-98347000D01*
X151173000Y-98347000D01*
X151173000Y-98327000D01*
X150223750Y-98327000D01*
X150112776Y-98437974D01*
X148734801Y-97060000D01*
X150173982Y-97060000D01*
X150206809Y-97100000D01*
G36*
X143004774Y-94198102D02*
G01*
X142965000Y-94398061D01*
X142965000Y-94601939D01*
X143004774Y-94801898D01*
X143082795Y-94990256D01*
X143196063Y-95159774D01*
X143340226Y-95303937D01*
X143509744Y-95417205D01*
X143698102Y-95495226D01*
X143898061Y-95535000D01*
X143960199Y-95535000D01*
X144436201Y-96011003D01*
X144459999Y-96040001D01*
X144575724Y-96134974D01*
X144707753Y-96205546D01*
X144851014Y-96249003D01*
X144886928Y-96252540D01*
X144886928Y-96437500D01*
X144901830Y-96588807D01*
X144935560Y-96700000D01*
X144901830Y-96811193D01*
X144886928Y-96962500D01*
X144886928Y-97237500D01*
X144901830Y-97388807D01*
X144917450Y-97440298D01*
X144899831Y-97497332D01*
X144890000Y-97614250D01*
X145048750Y-97773000D01*
X145103491Y-97773000D01*
X145114088Y-97785912D01*
X145231615Y-97882365D01*
X145264608Y-97900000D01*
X145231615Y-97917635D01*
X145114088Y-98014088D01*
X145103491Y-98027000D01*
X145048750Y-98027000D01*
X144890000Y-98185750D01*
X144894837Y-98243271D01*
X144801898Y-98204774D01*
X144601939Y-98165000D01*
X144534999Y-98165000D01*
X144534999Y-97512321D01*
X144538675Y-97474998D01*
X144534999Y-97437676D01*
X144534999Y-97437666D01*
X144524002Y-97326013D01*
X144480545Y-97182752D01*
X144463672Y-97151185D01*
X144409973Y-97050722D01*
X144338798Y-96963996D01*
X144315000Y-96934998D01*
X144286003Y-96911201D01*
X142463804Y-95089003D01*
X142440001Y-95059999D01*
X142324276Y-94965026D01*
X142192247Y-94894454D01*
X142048986Y-94850997D01*
X141937333Y-94840000D01*
X141937322Y-94840000D01*
X141900000Y-94836324D01*
X141862678Y-94840000D01*
X141803711Y-94840000D01*
X141798711Y-94835000D01*
X141962373Y-94835000D01*
X141999695Y-94838676D01*
X142037017Y-94835000D01*
X142037028Y-94835000D01*
X142148681Y-94824003D01*
X142291942Y-94780546D01*
X142423971Y-94709974D01*
X142539696Y-94615001D01*
X142563499Y-94585997D01*
X143042520Y-94106977D01*
X143004774Y-94198102D01*
G37*
X143004774Y-94198102D02*
X142965000Y-94398061D01*
X142965000Y-94601939D01*
X143004774Y-94801898D01*
X143082795Y-94990256D01*
X143196063Y-95159774D01*
X143340226Y-95303937D01*
X143509744Y-95417205D01*
X143698102Y-95495226D01*
X143898061Y-95535000D01*
X143960199Y-95535000D01*
X144436201Y-96011003D01*
X144459999Y-96040001D01*
X144575724Y-96134974D01*
X144707753Y-96205546D01*
X144851014Y-96249003D01*
X144886928Y-96252540D01*
X144886928Y-96437500D01*
X144901830Y-96588807D01*
X144935560Y-96700000D01*
X144901830Y-96811193D01*
X144886928Y-96962500D01*
X144886928Y-97237500D01*
X144901830Y-97388807D01*
X144917450Y-97440298D01*
X144899831Y-97497332D01*
X144890000Y-97614250D01*
X145048750Y-97773000D01*
X145103491Y-97773000D01*
X145114088Y-97785912D01*
X145231615Y-97882365D01*
X145264608Y-97900000D01*
X145231615Y-97917635D01*
X145114088Y-98014088D01*
X145103491Y-98027000D01*
X145048750Y-98027000D01*
X144890000Y-98185750D01*
X144894837Y-98243271D01*
X144801898Y-98204774D01*
X144601939Y-98165000D01*
X144534999Y-98165000D01*
X144534999Y-97512321D01*
X144538675Y-97474998D01*
X144534999Y-97437676D01*
X144534999Y-97437666D01*
X144524002Y-97326013D01*
X144480545Y-97182752D01*
X144463672Y-97151185D01*
X144409973Y-97050722D01*
X144338798Y-96963996D01*
X144315000Y-96934998D01*
X144286003Y-96911201D01*
X142463804Y-95089003D01*
X142440001Y-95059999D01*
X142324276Y-94965026D01*
X142192247Y-94894454D01*
X142048986Y-94850997D01*
X141937333Y-94840000D01*
X141937322Y-94840000D01*
X141900000Y-94836324D01*
X141862678Y-94840000D01*
X141803711Y-94840000D01*
X141798711Y-94835000D01*
X141962373Y-94835000D01*
X141999695Y-94838676D01*
X142037017Y-94835000D01*
X142037028Y-94835000D01*
X142148681Y-94824003D01*
X142291942Y-94780546D01*
X142423971Y-94709974D01*
X142539696Y-94615001D01*
X142563499Y-94585997D01*
X143042520Y-94106977D01*
X143004774Y-94198102D01*
G36*
X157161928Y-97700000D02*
G01*
X157174188Y-97824482D01*
X157210498Y-97944180D01*
X157269463Y-98054494D01*
X157339636Y-98140000D01*
X156737323Y-98140000D01*
X156700000Y-98136324D01*
X156662677Y-98140000D01*
X156662667Y-98140000D01*
X156551014Y-98150997D01*
X156474991Y-98174058D01*
X156474991Y-97438072D01*
X156918750Y-97438072D01*
X157090785Y-97421128D01*
X157161928Y-97399547D01*
X157161928Y-97700000D01*
G37*
X157161928Y-97700000D02*
X157174188Y-97824482D01*
X157210498Y-97944180D01*
X157269463Y-98054494D01*
X157339636Y-98140000D01*
X156737323Y-98140000D01*
X156700000Y-98136324D01*
X156662677Y-98140000D01*
X156662667Y-98140000D01*
X156551014Y-98150997D01*
X156474991Y-98174058D01*
X156474991Y-97438072D01*
X156918750Y-97438072D01*
X157090785Y-97421128D01*
X157161928Y-97399547D01*
X157161928Y-97700000D01*
G36*
X178340000Y-89948602D02*
G01*
X178304494Y-89919463D01*
X178194180Y-89860498D01*
X178074482Y-89824188D01*
X177950000Y-89811928D01*
X176250000Y-89811928D01*
X176125518Y-89824188D01*
X176005820Y-89860498D01*
X175895506Y-89919463D01*
X175798815Y-89998815D01*
X175719463Y-90095506D01*
X175660498Y-90205820D01*
X175624188Y-90325518D01*
X175611928Y-90450000D01*
X175611928Y-91813270D01*
X174932546Y-92492653D01*
X170400518Y-92492653D01*
X170397500Y-92085750D01*
X170238750Y-91927000D01*
X169402000Y-91927000D01*
X169402000Y-91947000D01*
X169148000Y-91947000D01*
X169148000Y-91927000D01*
X169128000Y-91927000D01*
X169128000Y-91673000D01*
X169148000Y-91673000D01*
X169148000Y-90623750D01*
X169402000Y-90623750D01*
X169402000Y-91673000D01*
X170238750Y-91673000D01*
X170397500Y-91514250D01*
X170400572Y-91100000D01*
X170388312Y-90975518D01*
X170352002Y-90855820D01*
X170293037Y-90745506D01*
X170213685Y-90648815D01*
X170116994Y-90569463D01*
X170006680Y-90510498D01*
X169886982Y-90474188D01*
X169762500Y-90461928D01*
X169560750Y-90465000D01*
X169402000Y-90623750D01*
X169148000Y-90623750D01*
X168989250Y-90465000D01*
X168787500Y-90461928D01*
X168663018Y-90474188D01*
X168543320Y-90510498D01*
X168433006Y-90569463D01*
X168336315Y-90648815D01*
X168272508Y-90726564D01*
X168267292Y-90720208D01*
X168133664Y-90610542D01*
X167981209Y-90529053D01*
X167815785Y-90478872D01*
X167643750Y-90461928D01*
X167156250Y-90461928D01*
X166984215Y-90478872D01*
X166818791Y-90529053D01*
X166666336Y-90610542D01*
X166532708Y-90720208D01*
X166423042Y-90853836D01*
X166341553Y-91006291D01*
X166291372Y-91171715D01*
X166274428Y-91343750D01*
X166274428Y-91850771D01*
X166013271Y-92111928D01*
X164100000Y-92111928D01*
X163975518Y-92124188D01*
X163855820Y-92160498D01*
X163745506Y-92219463D01*
X163648815Y-92298815D01*
X163569463Y-92395506D01*
X163510498Y-92505820D01*
X163474188Y-92625518D01*
X163461928Y-92750000D01*
X163461928Y-92845674D01*
X163425723Y-92865026D01*
X163353883Y-92923984D01*
X163309999Y-92959999D01*
X163286201Y-92988997D01*
X162264001Y-94011197D01*
X162234998Y-94035000D01*
X162189853Y-94090010D01*
X162140025Y-94150725D01*
X162074583Y-94273158D01*
X162069453Y-94282755D01*
X162025996Y-94426016D01*
X162014999Y-94537669D01*
X162014999Y-94537679D01*
X162011323Y-94575001D01*
X162014999Y-94612324D01*
X162014999Y-96011288D01*
X161872284Y-95868573D01*
X161702766Y-95755305D01*
X161518734Y-95679076D01*
X161482736Y-95498102D01*
X161404715Y-95309744D01*
X161291447Y-95140226D01*
X161147284Y-94996063D01*
X160977766Y-94882795D01*
X160789408Y-94804774D01*
X160589449Y-94765000D01*
X160438072Y-94765000D01*
X160438072Y-93900000D01*
X160425812Y-93775518D01*
X160389502Y-93655820D01*
X160330537Y-93545506D01*
X160251185Y-93448815D01*
X160154494Y-93369463D01*
X160044180Y-93310498D01*
X159924482Y-93274188D01*
X159800000Y-93261928D01*
X157812873Y-93261928D01*
X159086730Y-91988072D01*
X160350000Y-91988072D01*
X160474482Y-91975812D01*
X160594180Y-91939502D01*
X160704494Y-91880537D01*
X160801185Y-91801185D01*
X160880537Y-91704494D01*
X160939502Y-91594180D01*
X160963966Y-91513534D01*
X161039731Y-91597588D01*
X161273080Y-91771641D01*
X161535901Y-91896825D01*
X161683110Y-91941476D01*
X161913000Y-91820155D01*
X161913000Y-90627000D01*
X162167000Y-90627000D01*
X162167000Y-91820155D01*
X162396890Y-91941476D01*
X162544099Y-91896825D01*
X162806920Y-91771641D01*
X163040269Y-91597588D01*
X163235178Y-91381355D01*
X163384157Y-91131252D01*
X163481481Y-90856891D01*
X163360814Y-90627000D01*
X162167000Y-90627000D01*
X161913000Y-90627000D01*
X161893000Y-90627000D01*
X161893000Y-90373000D01*
X161913000Y-90373000D01*
X161913000Y-90353000D01*
X162167000Y-90353000D01*
X162167000Y-90373000D01*
X163360814Y-90373000D01*
X163481481Y-90143109D01*
X163384157Y-89868748D01*
X163259812Y-89660000D01*
X178340000Y-89660000D01*
X178340000Y-89948602D01*
G37*
X178340000Y-89948602D02*
X178304494Y-89919463D01*
X178194180Y-89860498D01*
X178074482Y-89824188D01*
X177950000Y-89811928D01*
X176250000Y-89811928D01*
X176125518Y-89824188D01*
X176005820Y-89860498D01*
X175895506Y-89919463D01*
X175798815Y-89998815D01*
X175719463Y-90095506D01*
X175660498Y-90205820D01*
X175624188Y-90325518D01*
X175611928Y-90450000D01*
X175611928Y-91813270D01*
X174932546Y-92492653D01*
X170400518Y-92492653D01*
X170397500Y-92085750D01*
X170238750Y-91927000D01*
X169402000Y-91927000D01*
X169402000Y-91947000D01*
X169148000Y-91947000D01*
X169148000Y-91927000D01*
X169128000Y-91927000D01*
X169128000Y-91673000D01*
X169148000Y-91673000D01*
X169148000Y-90623750D01*
X169402000Y-90623750D01*
X169402000Y-91673000D01*
X170238750Y-91673000D01*
X170397500Y-91514250D01*
X170400572Y-91100000D01*
X170388312Y-90975518D01*
X170352002Y-90855820D01*
X170293037Y-90745506D01*
X170213685Y-90648815D01*
X170116994Y-90569463D01*
X170006680Y-90510498D01*
X169886982Y-90474188D01*
X169762500Y-90461928D01*
X169560750Y-90465000D01*
X169402000Y-90623750D01*
X169148000Y-90623750D01*
X168989250Y-90465000D01*
X168787500Y-90461928D01*
X168663018Y-90474188D01*
X168543320Y-90510498D01*
X168433006Y-90569463D01*
X168336315Y-90648815D01*
X168272508Y-90726564D01*
X168267292Y-90720208D01*
X168133664Y-90610542D01*
X167981209Y-90529053D01*
X167815785Y-90478872D01*
X167643750Y-90461928D01*
X167156250Y-90461928D01*
X166984215Y-90478872D01*
X166818791Y-90529053D01*
X166666336Y-90610542D01*
X166532708Y-90720208D01*
X166423042Y-90853836D01*
X166341553Y-91006291D01*
X166291372Y-91171715D01*
X166274428Y-91343750D01*
X166274428Y-91850771D01*
X166013271Y-92111928D01*
X164100000Y-92111928D01*
X163975518Y-92124188D01*
X163855820Y-92160498D01*
X163745506Y-92219463D01*
X163648815Y-92298815D01*
X163569463Y-92395506D01*
X163510498Y-92505820D01*
X163474188Y-92625518D01*
X163461928Y-92750000D01*
X163461928Y-92845674D01*
X163425723Y-92865026D01*
X163353883Y-92923984D01*
X163309999Y-92959999D01*
X163286201Y-92988997D01*
X162264001Y-94011197D01*
X162234998Y-94035000D01*
X162189853Y-94090010D01*
X162140025Y-94150725D01*
X162074583Y-94273158D01*
X162069453Y-94282755D01*
X162025996Y-94426016D01*
X162014999Y-94537669D01*
X162014999Y-94537679D01*
X162011323Y-94575001D01*
X162014999Y-94612324D01*
X162014999Y-96011288D01*
X161872284Y-95868573D01*
X161702766Y-95755305D01*
X161518734Y-95679076D01*
X161482736Y-95498102D01*
X161404715Y-95309744D01*
X161291447Y-95140226D01*
X161147284Y-94996063D01*
X160977766Y-94882795D01*
X160789408Y-94804774D01*
X160589449Y-94765000D01*
X160438072Y-94765000D01*
X160438072Y-93900000D01*
X160425812Y-93775518D01*
X160389502Y-93655820D01*
X160330537Y-93545506D01*
X160251185Y-93448815D01*
X160154494Y-93369463D01*
X160044180Y-93310498D01*
X159924482Y-93274188D01*
X159800000Y-93261928D01*
X157812873Y-93261928D01*
X159086730Y-91988072D01*
X160350000Y-91988072D01*
X160474482Y-91975812D01*
X160594180Y-91939502D01*
X160704494Y-91880537D01*
X160801185Y-91801185D01*
X160880537Y-91704494D01*
X160939502Y-91594180D01*
X160963966Y-91513534D01*
X161039731Y-91597588D01*
X161273080Y-91771641D01*
X161535901Y-91896825D01*
X161683110Y-91941476D01*
X161913000Y-91820155D01*
X161913000Y-90627000D01*
X162167000Y-90627000D01*
X162167000Y-91820155D01*
X162396890Y-91941476D01*
X162544099Y-91896825D01*
X162806920Y-91771641D01*
X163040269Y-91597588D01*
X163235178Y-91381355D01*
X163384157Y-91131252D01*
X163481481Y-90856891D01*
X163360814Y-90627000D01*
X162167000Y-90627000D01*
X161913000Y-90627000D01*
X161893000Y-90627000D01*
X161893000Y-90373000D01*
X161913000Y-90373000D01*
X161913000Y-90353000D01*
X162167000Y-90353000D01*
X162167000Y-90373000D01*
X163360814Y-90373000D01*
X163481481Y-90143109D01*
X163384157Y-89868748D01*
X163259812Y-89660000D01*
X178340000Y-89660000D01*
X178340000Y-89948602D01*
G36*
X113104774Y-92798102D02*
G01*
X113065000Y-92998061D01*
X113065000Y-93201939D01*
X113104774Y-93401898D01*
X113182689Y-93590000D01*
X112031547Y-93590000D01*
X112021128Y-93484215D01*
X111970947Y-93318791D01*
X111889458Y-93166336D01*
X111779792Y-93032708D01*
X111725390Y-92988062D01*
X111746164Y-92976958D01*
X111879792Y-92867292D01*
X111967845Y-92760000D01*
X113120556Y-92760000D01*
X113104774Y-92798102D01*
G37*
X113104774Y-92798102D02*
X113065000Y-92998061D01*
X113065000Y-93201939D01*
X113104774Y-93401898D01*
X113182689Y-93590000D01*
X112031547Y-93590000D01*
X112021128Y-93484215D01*
X111970947Y-93318791D01*
X111889458Y-93166336D01*
X111779792Y-93032708D01*
X111725390Y-92988062D01*
X111746164Y-92976958D01*
X111879792Y-92867292D01*
X111967845Y-92760000D01*
X113120556Y-92760000D01*
X113104774Y-92798102D01*
G36*
X136714088Y-91785912D02*
G01*
X136727000Y-91796509D01*
X136727000Y-91851250D01*
X136885750Y-92010000D01*
X137002668Y-92000169D01*
X137059702Y-91982550D01*
X137111193Y-91998170D01*
X137262500Y-92013072D01*
X137440001Y-92013072D01*
X137440001Y-92212195D01*
X136289003Y-93363194D01*
X136288147Y-93363897D01*
X136151250Y-93227000D01*
X136096509Y-93227000D01*
X136085912Y-93214088D01*
X135968385Y-93117635D01*
X135935392Y-93100000D01*
X135968385Y-93082365D01*
X136085912Y-92985912D01*
X136096509Y-92973000D01*
X136151250Y-92973000D01*
X136310000Y-92814250D01*
X136300169Y-92697332D01*
X136282550Y-92640298D01*
X136298170Y-92588807D01*
X136313072Y-92437500D01*
X136313072Y-92210086D01*
X136322274Y-92203937D01*
X136466437Y-92059774D01*
X136579705Y-91890256D01*
X136653504Y-91712091D01*
X136714088Y-91785912D01*
G37*
X136714088Y-91785912D02*
X136727000Y-91796509D01*
X136727000Y-91851250D01*
X136885750Y-92010000D01*
X137002668Y-92000169D01*
X137059702Y-91982550D01*
X137111193Y-91998170D01*
X137262500Y-92013072D01*
X137440001Y-92013072D01*
X137440001Y-92212195D01*
X136289003Y-93363194D01*
X136288147Y-93363897D01*
X136151250Y-93227000D01*
X136096509Y-93227000D01*
X136085912Y-93214088D01*
X135968385Y-93117635D01*
X135935392Y-93100000D01*
X135968385Y-93082365D01*
X136085912Y-92985912D01*
X136096509Y-92973000D01*
X136151250Y-92973000D01*
X136310000Y-92814250D01*
X136300169Y-92697332D01*
X136282550Y-92640298D01*
X136298170Y-92588807D01*
X136313072Y-92437500D01*
X136313072Y-92210086D01*
X136322274Y-92203937D01*
X136466437Y-92059774D01*
X136579705Y-91890256D01*
X136653504Y-91712091D01*
X136714088Y-91785912D01*
G36*
X168336315Y-92951185D02*
G01*
X168349405Y-92961928D01*
X168167209Y-92961928D01*
X168267292Y-92879792D01*
X168272508Y-92873436D01*
X168336315Y-92951185D01*
G37*
X168336315Y-92951185D02*
X168349405Y-92961928D01*
X168167209Y-92961928D01*
X168267292Y-92879792D01*
X168272508Y-92873436D01*
X168336315Y-92951185D01*
G36*
X131347000Y-92790009D02*
G01*
X131053000Y-92790009D01*
X131053000Y-92647490D01*
X131347000Y-92647490D01*
X131347000Y-92790009D01*
G37*
X131347000Y-92790009D02*
X131053000Y-92790009D01*
X131053000Y-92647490D01*
X131347000Y-92647490D01*
X131347000Y-92790009D01*
G36*
X144727000Y-90510500D02*
G01*
X144747000Y-90510500D01*
X144747000Y-90764500D01*
X144727000Y-90764500D01*
X144727000Y-91851250D01*
X144885750Y-92010000D01*
X144902622Y-92008581D01*
X144901830Y-92011193D01*
X144886928Y-92162500D01*
X144886928Y-92437500D01*
X144901830Y-92588807D01*
X144926420Y-92669870D01*
X144901939Y-92665000D01*
X144698061Y-92665000D01*
X144581867Y-92688112D01*
X144596354Y-92615280D01*
X144596354Y-92411402D01*
X144556580Y-92211443D01*
X144478559Y-92023085D01*
X144407505Y-91916745D01*
X144473000Y-91851250D01*
X144473000Y-91796509D01*
X144485912Y-91785912D01*
X144582365Y-91668385D01*
X144654035Y-91534299D01*
X144698170Y-91388807D01*
X144713072Y-91237500D01*
X144713072Y-90490500D01*
X144727000Y-90490500D01*
X144727000Y-90510500D01*
G37*
X144727000Y-90510500D02*
X144747000Y-90510500D01*
X144747000Y-90764500D01*
X144727000Y-90764500D01*
X144727000Y-91851250D01*
X144885750Y-92010000D01*
X144902622Y-92008581D01*
X144901830Y-92011193D01*
X144886928Y-92162500D01*
X144886928Y-92437500D01*
X144901830Y-92588807D01*
X144926420Y-92669870D01*
X144901939Y-92665000D01*
X144698061Y-92665000D01*
X144581867Y-92688112D01*
X144596354Y-92615280D01*
X144596354Y-92411402D01*
X144556580Y-92211443D01*
X144478559Y-92023085D01*
X144407505Y-91916745D01*
X144473000Y-91851250D01*
X144473000Y-91796509D01*
X144485912Y-91785912D01*
X144582365Y-91668385D01*
X144654035Y-91534299D01*
X144698170Y-91388807D01*
X144713072Y-91237500D01*
X144713072Y-90490500D01*
X144727000Y-90490500D01*
X144727000Y-90510500D01*
G36*
X123421456Y-92603743D02*
G01*
X123414502Y-92580820D01*
X123385735Y-92527002D01*
X123460000Y-92527002D01*
X123460000Y-92510000D01*
X123515198Y-92510000D01*
X123421456Y-92603743D01*
G37*
X123421456Y-92603743D02*
X123414502Y-92580820D01*
X123385735Y-92527002D01*
X123460000Y-92527002D01*
X123460000Y-92510000D01*
X123515198Y-92510000D01*
X123421456Y-92603743D01*
G36*
X123496063Y-90140226D02*
G01*
X123382795Y-90309744D01*
X123304774Y-90498102D01*
X123265000Y-90698061D01*
X123265000Y-90901939D01*
X123282516Y-90990000D01*
X123171144Y-90990000D01*
X123069180Y-90935498D01*
X122949482Y-90899188D01*
X122825000Y-90886928D01*
X121375000Y-90886928D01*
X121250518Y-90899188D01*
X121130820Y-90935498D01*
X121020506Y-90994463D01*
X120923815Y-91073815D01*
X120844463Y-91170506D01*
X120787011Y-91277989D01*
X120774482Y-91274188D01*
X120650000Y-91261928D01*
X117650000Y-91261928D01*
X117525518Y-91274188D01*
X117512700Y-91278076D01*
X117510715Y-91271873D01*
X117450078Y-91162469D01*
X117369263Y-91066997D01*
X117271375Y-90989126D01*
X117160175Y-90931849D01*
X117039939Y-90897366D01*
X116915285Y-90887002D01*
X116485750Y-90890000D01*
X116327000Y-91048750D01*
X116327000Y-91536928D01*
X116073000Y-91536928D01*
X116073000Y-91048750D01*
X115914250Y-90890000D01*
X115484715Y-90887002D01*
X115360061Y-90897366D01*
X115239825Y-90931849D01*
X115128625Y-90989126D01*
X115030737Y-91066997D01*
X114949922Y-91162469D01*
X114889285Y-91271873D01*
X114851156Y-91391004D01*
X114840000Y-91493250D01*
X114969748Y-91622998D01*
X114840000Y-91622998D01*
X114840000Y-91640000D01*
X114787803Y-91640000D01*
X114636805Y-91489002D01*
X114613003Y-91459999D01*
X114497278Y-91365026D01*
X114365249Y-91294454D01*
X114221988Y-91250997D01*
X114110335Y-91240000D01*
X114110324Y-91240000D01*
X114073002Y-91236324D01*
X114035680Y-91240000D01*
X111967845Y-91240000D01*
X111879792Y-91132708D01*
X111794244Y-91062500D01*
X111879792Y-90992292D01*
X111989458Y-90858664D01*
X112070947Y-90706209D01*
X112121128Y-90540785D01*
X112138072Y-90368750D01*
X112138072Y-90110010D01*
X123526279Y-90110010D01*
X123496063Y-90140226D01*
G37*
X123496063Y-90140226D02*
X123382795Y-90309744D01*
X123304774Y-90498102D01*
X123265000Y-90698061D01*
X123265000Y-90901939D01*
X123282516Y-90990000D01*
X123171144Y-90990000D01*
X123069180Y-90935498D01*
X122949482Y-90899188D01*
X122825000Y-90886928D01*
X121375000Y-90886928D01*
X121250518Y-90899188D01*
X121130820Y-90935498D01*
X121020506Y-90994463D01*
X120923815Y-91073815D01*
X120844463Y-91170506D01*
X120787011Y-91277989D01*
X120774482Y-91274188D01*
X120650000Y-91261928D01*
X117650000Y-91261928D01*
X117525518Y-91274188D01*
X117512700Y-91278076D01*
X117510715Y-91271873D01*
X117450078Y-91162469D01*
X117369263Y-91066997D01*
X117271375Y-90989126D01*
X117160175Y-90931849D01*
X117039939Y-90897366D01*
X116915285Y-90887002D01*
X116485750Y-90890000D01*
X116327000Y-91048750D01*
X116327000Y-91536928D01*
X116073000Y-91536928D01*
X116073000Y-91048750D01*
X115914250Y-90890000D01*
X115484715Y-90887002D01*
X115360061Y-90897366D01*
X115239825Y-90931849D01*
X115128625Y-90989126D01*
X115030737Y-91066997D01*
X114949922Y-91162469D01*
X114889285Y-91271873D01*
X114851156Y-91391004D01*
X114840000Y-91493250D01*
X114969748Y-91622998D01*
X114840000Y-91622998D01*
X114840000Y-91640000D01*
X114787803Y-91640000D01*
X114636805Y-91489002D01*
X114613003Y-91459999D01*
X114497278Y-91365026D01*
X114365249Y-91294454D01*
X114221988Y-91250997D01*
X114110335Y-91240000D01*
X114110324Y-91240000D01*
X114073002Y-91236324D01*
X114035680Y-91240000D01*
X111967845Y-91240000D01*
X111879792Y-91132708D01*
X111794244Y-91062500D01*
X111879792Y-90992292D01*
X111989458Y-90858664D01*
X112070947Y-90706209D01*
X112121128Y-90540785D01*
X112138072Y-90368750D01*
X112138072Y-90110010D01*
X123526279Y-90110010D01*
X123496063Y-90140226D01*
G36*
X145598061Y-90735000D02*
G01*
X145774428Y-90735000D01*
X145774428Y-90756250D01*
X145791372Y-90928285D01*
X145841553Y-91093709D01*
X145923042Y-91246164D01*
X146032708Y-91379792D01*
X146041403Y-91386928D01*
X145662500Y-91386928D01*
X145511193Y-91401830D01*
X145510229Y-91402123D01*
X145513064Y-91371749D01*
X145510000Y-90923250D01*
X145351252Y-90764502D01*
X145510000Y-90764502D01*
X145510000Y-90717484D01*
X145598061Y-90735000D01*
G37*
X145598061Y-90735000D02*
X145774428Y-90735000D01*
X145774428Y-90756250D01*
X145791372Y-90928285D01*
X145841553Y-91093709D01*
X145923042Y-91246164D01*
X146032708Y-91379792D01*
X146041403Y-91386928D01*
X145662500Y-91386928D01*
X145511193Y-91401830D01*
X145510229Y-91402123D01*
X145513064Y-91371749D01*
X145510000Y-90923250D01*
X145351252Y-90764502D01*
X145510000Y-90764502D01*
X145510000Y-90717484D01*
X145598061Y-90735000D01*
G36*
X158011928Y-90913270D02*
G01*
X157989455Y-90935744D01*
X157879774Y-90826063D01*
X157710256Y-90712795D01*
X157521898Y-90634774D01*
X157321939Y-90595000D01*
X157118061Y-90595000D01*
X156918102Y-90634774D01*
X156729744Y-90712795D01*
X156560226Y-90826063D01*
X156516289Y-90870000D01*
X149899608Y-90870000D01*
X149897500Y-90585750D01*
X149738750Y-90427000D01*
X148902000Y-90427000D01*
X148902000Y-90447000D01*
X148648000Y-90447000D01*
X148648000Y-90427000D01*
X148628000Y-90427000D01*
X148628000Y-90173000D01*
X148648000Y-90173000D01*
X148648000Y-90153000D01*
X148902000Y-90153000D01*
X148902000Y-90173000D01*
X149738750Y-90173000D01*
X149897500Y-90014250D01*
X149900127Y-89660000D01*
X158011928Y-89660000D01*
X158011928Y-90913270D01*
G37*
X158011928Y-90913270D02*
X157989455Y-90935744D01*
X157879774Y-90826063D01*
X157710256Y-90712795D01*
X157521898Y-90634774D01*
X157321939Y-90595000D01*
X157118061Y-90595000D01*
X156918102Y-90634774D01*
X156729744Y-90712795D01*
X156560226Y-90826063D01*
X156516289Y-90870000D01*
X149899608Y-90870000D01*
X149897500Y-90585750D01*
X149738750Y-90427000D01*
X148902000Y-90427000D01*
X148902000Y-90447000D01*
X148648000Y-90447000D01*
X148648000Y-90427000D01*
X148628000Y-90427000D01*
X148628000Y-90173000D01*
X148648000Y-90173000D01*
X148648000Y-90153000D01*
X148902000Y-90153000D01*
X148902000Y-90173000D01*
X149738750Y-90173000D01*
X149897500Y-90014250D01*
X149900127Y-89660000D01*
X158011928Y-89660000D01*
X158011928Y-90913270D01*
G36*
X136486928Y-90770893D02*
G01*
X136466437Y-90740226D01*
X136453000Y-90726789D01*
X136453000Y-90686346D01*
X136486928Y-90635569D01*
X136486928Y-90770893D01*
G37*
X136486928Y-90770893D02*
X136466437Y-90740226D01*
X136453000Y-90726789D01*
X136453000Y-90686346D01*
X136486928Y-90635569D01*
X136486928Y-90770893D01*
%TD*%
M02*
