%TF.GenerationSoftware,KiCad,Pcbnew,(5.1.6)-1*%
%TF.CreationDate,2021-01-27T09:47:08-06:00*%
%TF.ProjectId,Pikatea Macropad Mini,50696b61-7465-4612-904d-6163726f7061,rev?*%
%TF.SameCoordinates,Original*%
%TF.FileFunction,Legend,Top*%
%TF.FilePolarity,Positive*%
%FSLAX46Y46*%
G04 Gerber Fmt 4.6, Leading zero omitted, Abs format (unit mm)*
G04 Created by KiCad (PCBNEW (5.1.6)-1) date 2021-01-27 09:47:08*
%MOMM*%
%LPD*%
G01*
G04 APERTURE LIST*
%ADD10C,0.120000*%
%ADD11C,0.150000*%
G04 APERTURE END LIST*
D10*
%TO.C,J5*%
X196170000Y-106510000D02*
X198830000Y-106510000D01*
X196170000Y-101370000D02*
X196170000Y-106510000D01*
X198830000Y-101370000D02*
X198830000Y-106510000D01*
X196170000Y-101370000D02*
X198830000Y-101370000D01*
X196170000Y-100100000D02*
X196170000Y-98770000D01*
X196170000Y-98770000D02*
X197500000Y-98770000D01*
%TO.C,J4*%
X175770000Y-97710000D02*
X178430000Y-97710000D01*
X175770000Y-92570000D02*
X175770000Y-97710000D01*
X178430000Y-92570000D02*
X178430000Y-97710000D01*
X175770000Y-92570000D02*
X178430000Y-92570000D01*
X175770000Y-91300000D02*
X175770000Y-89970000D01*
X175770000Y-89970000D02*
X177100000Y-89970000D01*
%TO.C,C13*%
X168078922Y-91090000D02*
X168596078Y-91090000D01*
X168078922Y-92510000D02*
X168596078Y-92510000D01*
%TO.C,J3*%
X163370000Y-91830000D02*
X163370000Y-89170000D01*
X160770000Y-91830000D02*
X163370000Y-91830000D01*
X160770000Y-89170000D02*
X163370000Y-89170000D01*
X160770000Y-91830000D02*
X160770000Y-89170000D01*
X159500000Y-91830000D02*
X158170000Y-91830000D01*
X158170000Y-91830000D02*
X158170000Y-90500000D01*
%TO.C,J2*%
X160730000Y-102430000D02*
X158070000Y-102430000D01*
X160730000Y-105030000D02*
X160730000Y-102430000D01*
X158070000Y-105030000D02*
X158070000Y-102430000D01*
X160730000Y-105030000D02*
X158070000Y-105030000D01*
X160730000Y-106300000D02*
X160730000Y-107630000D01*
X160730000Y-107630000D02*
X159400000Y-107630000D01*
D11*
%TO.C,U3*%
X116825000Y-91075000D02*
X116825000Y-91200000D01*
X121475000Y-91075000D02*
X121475000Y-91300000D01*
X121475000Y-96325000D02*
X121475000Y-96100000D01*
X116825000Y-96325000D02*
X116825000Y-96100000D01*
X116825000Y-91075000D02*
X121475000Y-91075000D01*
X116825000Y-96325000D02*
X121475000Y-96325000D01*
X116825000Y-91200000D02*
X115475000Y-91200000D01*
D10*
%TO.C,U2*%
X160040000Y-92390000D02*
X160040000Y-93650000D01*
X160040000Y-99210000D02*
X160040000Y-97950000D01*
X163800000Y-92390000D02*
X160040000Y-92390000D01*
X166050000Y-99210000D02*
X160040000Y-99210000D01*
%TO.C,SW1*%
X167500000Y-95900000D02*
X167050000Y-96350000D01*
X167500000Y-99300000D02*
X167050000Y-98850000D01*
X172100000Y-99300000D02*
X172550000Y-98850000D01*
X172100000Y-95900000D02*
X172550000Y-96350000D01*
X170800000Y-100350000D02*
X168800000Y-100350000D01*
X167050000Y-96350000D02*
X167050000Y-98850000D01*
X170800000Y-94850000D02*
X168800000Y-94850000D01*
X172550000Y-96350000D02*
X172550000Y-98850000D01*
%TO.C,R7*%
X111410000Y-94578922D02*
X111410000Y-95096078D01*
X109990000Y-94578922D02*
X109990000Y-95096078D01*
%TO.C,R6*%
X126621078Y-91510000D02*
X126103922Y-91510000D01*
X126621078Y-90090000D02*
X126103922Y-90090000D01*
%TO.C,R3*%
X165170000Y-104761078D02*
X165170000Y-104243922D01*
X166590000Y-104761078D02*
X166590000Y-104243922D01*
%TO.C,R2*%
X110090000Y-91321078D02*
X110090000Y-90803922D01*
X111510000Y-91321078D02*
X111510000Y-90803922D01*
%TO.C,R1*%
X119310000Y-98803922D02*
X119310000Y-99321078D01*
X117890000Y-98803922D02*
X117890000Y-99321078D01*
%TO.C,J1*%
X151850000Y-115330000D02*
X151850000Y-106210000D01*
X151850000Y-106210000D02*
X167350000Y-106210000D01*
X167350000Y-106210000D02*
X167350000Y-115330000D01*
X167350000Y-115330000D02*
X151850000Y-115330000D01*
X157550000Y-115330000D02*
X157550000Y-114020000D01*
X157550000Y-114020000D02*
X153150000Y-114020000D01*
X153150000Y-114020000D02*
X153150000Y-107520000D01*
X153150000Y-107520000D02*
X166050000Y-107520000D01*
X166050000Y-107520000D02*
X166050000Y-114020000D01*
X166050000Y-114020000D02*
X161650000Y-114020000D01*
X161650000Y-114020000D02*
X161650000Y-114020000D01*
X161650000Y-114020000D02*
X161650000Y-115330000D01*
X157060000Y-115720000D02*
X156560000Y-116720000D01*
X156560000Y-116720000D02*
X157560000Y-116720000D01*
X157560000Y-116720000D02*
X157060000Y-115720000D01*
%TO.C,C14*%
X155996078Y-96810000D02*
X155478922Y-96810000D01*
X155996078Y-95390000D02*
X155478922Y-95390000D01*
%TO.C,C12*%
X126496078Y-94910000D02*
X125978922Y-94910000D01*
X126496078Y-93490000D02*
X125978922Y-93490000D01*
%TO.C,C11*%
X161596078Y-101110000D02*
X161078922Y-101110000D01*
X161596078Y-99690000D02*
X161078922Y-99690000D01*
%TO.C,SW2*%
X108500000Y-111600000D02*
X92300000Y-111600000D01*
X92300000Y-98200000D02*
X108500000Y-98200000D01*
X108500000Y-111600000D02*
X108500000Y-98200000D01*
X92300000Y-111600000D02*
X92300000Y-98200000D01*
%TO.C,XS1*%
X124100000Y-113850000D02*
X124100000Y-101800000D01*
X124100000Y-101800000D02*
X111700000Y-101800000D01*
X111700000Y-101800000D02*
X111700000Y-113850000D01*
X111700000Y-113850000D02*
X124100000Y-113850000D01*
%TO.C,X1*%
X153700000Y-95100000D02*
X150500000Y-95100000D01*
X150500000Y-95100000D02*
X150500000Y-99100000D01*
%TO.C,U1*%
X145710000Y-91765000D02*
X145710000Y-91190000D01*
X145710000Y-91190000D02*
X145135000Y-91190000D01*
X145710000Y-100835000D02*
X145710000Y-101410000D01*
X145710000Y-101410000D02*
X145135000Y-101410000D01*
X135490000Y-91765000D02*
X135490000Y-91190000D01*
X135490000Y-91190000D02*
X136065000Y-91190000D01*
X135490000Y-100835000D02*
X135490000Y-101410000D01*
X135490000Y-101410000D02*
X136065000Y-101410000D01*
X136065000Y-101410000D02*
X136065000Y-102700000D01*
%TO.C,R5*%
X136390000Y-108096078D02*
X136390000Y-107578922D01*
X137810000Y-108096078D02*
X137810000Y-107578922D01*
%TO.C,R4*%
X138390000Y-108096078D02*
X138390000Y-107578922D01*
X139810000Y-108096078D02*
X139810000Y-107578922D01*
%TO.C,C10*%
X131596078Y-99310000D02*
X131078922Y-99310000D01*
X131596078Y-97890000D02*
X131078922Y-97890000D01*
%TO.C,C9*%
X142096078Y-107010000D02*
X141578922Y-107010000D01*
X142096078Y-105590000D02*
X141578922Y-105590000D01*
%TO.C,C8*%
X153096078Y-101010000D02*
X152578922Y-101010000D01*
X153096078Y-99590000D02*
X152578922Y-99590000D01*
%TO.C,C7*%
X152378922Y-93390000D02*
X152896078Y-93390000D01*
X152378922Y-94810000D02*
X152896078Y-94810000D01*
%TO.C,C6*%
X144310000Y-109203922D02*
X144310000Y-109721078D01*
X142890000Y-109203922D02*
X142890000Y-109721078D01*
%TO.C,C5*%
X134710000Y-104641422D02*
X134710000Y-105158578D01*
X133290000Y-104641422D02*
X133290000Y-105158578D01*
%TO.C,C4*%
X132021078Y-101710000D02*
X131503922Y-101710000D01*
X132021078Y-100290000D02*
X131503922Y-100290000D01*
%TO.C,C3*%
X147578922Y-89590000D02*
X148096078Y-89590000D01*
X147578922Y-91010000D02*
X148096078Y-91010000D01*
%TO.C,C2*%
X131910000Y-91503922D02*
X131910000Y-92021078D01*
X130490000Y-91503922D02*
X130490000Y-92021078D01*
%TO.C,C1*%
X149178922Y-100690000D02*
X149696078Y-100690000D01*
X149178922Y-102110000D02*
X149696078Y-102110000D01*
%TO.C,J5*%
D11*
X197166666Y-97222380D02*
X197166666Y-97936666D01*
X197119047Y-98079523D01*
X197023809Y-98174761D01*
X196880952Y-98222380D01*
X196785714Y-98222380D01*
X198119047Y-97222380D02*
X197642857Y-97222380D01*
X197595238Y-97698571D01*
X197642857Y-97650952D01*
X197738095Y-97603333D01*
X197976190Y-97603333D01*
X198071428Y-97650952D01*
X198119047Y-97698571D01*
X198166666Y-97793809D01*
X198166666Y-98031904D01*
X198119047Y-98127142D01*
X198071428Y-98174761D01*
X197976190Y-98222380D01*
X197738095Y-98222380D01*
X197642857Y-98174761D01*
X197595238Y-98127142D01*
%TO.C,J4*%
X176766666Y-88422380D02*
X176766666Y-89136666D01*
X176719047Y-89279523D01*
X176623809Y-89374761D01*
X176480952Y-89422380D01*
X176385714Y-89422380D01*
X177671428Y-88755714D02*
X177671428Y-89422380D01*
X177433333Y-88374761D02*
X177195238Y-89089047D01*
X177814285Y-89089047D01*
%TO.C,SW3*%
X163956368Y-103891152D02*
X164077315Y-103801444D01*
X164213881Y-103606407D01*
X164229500Y-103501080D01*
X164217806Y-103434759D01*
X164167105Y-103341126D01*
X164089090Y-103286499D01*
X163983763Y-103270880D01*
X163917442Y-103282574D01*
X163823809Y-103333276D01*
X163675549Y-103461992D01*
X163581915Y-103512693D01*
X163515595Y-103524387D01*
X163410267Y-103508768D01*
X163332253Y-103454141D01*
X163281551Y-103360508D01*
X163269857Y-103294188D01*
X163285476Y-103188860D01*
X163422042Y-102993824D01*
X163542989Y-102904115D01*
X163695174Y-102603751D02*
X164650892Y-102982292D01*
X164175036Y-102416565D01*
X164869397Y-102670234D01*
X164186811Y-101901621D01*
X164350690Y-101667578D02*
X164705761Y-101160483D01*
X164826627Y-101652039D01*
X164908566Y-101535018D01*
X165002200Y-101484316D01*
X165068520Y-101472622D01*
X165173848Y-101488241D01*
X165368884Y-101624807D01*
X165419585Y-101718441D01*
X165431279Y-101784761D01*
X165415660Y-101890089D01*
X165251781Y-102124132D01*
X165158148Y-102174834D01*
X165091827Y-102186528D01*
%TO.C,C13*%
X167694642Y-90507142D02*
X167647023Y-90554761D01*
X167504166Y-90602380D01*
X167408928Y-90602380D01*
X167266071Y-90554761D01*
X167170833Y-90459523D01*
X167123214Y-90364285D01*
X167075595Y-90173809D01*
X167075595Y-90030952D01*
X167123214Y-89840476D01*
X167170833Y-89745238D01*
X167266071Y-89650000D01*
X167408928Y-89602380D01*
X167504166Y-89602380D01*
X167647023Y-89650000D01*
X167694642Y-89697619D01*
X168647023Y-90602380D02*
X168075595Y-90602380D01*
X168361309Y-90602380D02*
X168361309Y-89602380D01*
X168266071Y-89745238D01*
X168170833Y-89840476D01*
X168075595Y-89888095D01*
X168980357Y-89602380D02*
X169599404Y-89602380D01*
X169266071Y-89983333D01*
X169408928Y-89983333D01*
X169504166Y-90030952D01*
X169551785Y-90078571D01*
X169599404Y-90173809D01*
X169599404Y-90411904D01*
X169551785Y-90507142D01*
X169504166Y-90554761D01*
X169408928Y-90602380D01*
X169123214Y-90602380D01*
X169027976Y-90554761D01*
X168980357Y-90507142D01*
%TO.C,J3*%
X156622380Y-90833333D02*
X157336666Y-90833333D01*
X157479523Y-90880952D01*
X157574761Y-90976190D01*
X157622380Y-91119047D01*
X157622380Y-91214285D01*
X156622380Y-90452380D02*
X156622380Y-89833333D01*
X157003333Y-90166666D01*
X157003333Y-90023809D01*
X157050952Y-89928571D01*
X157098571Y-89880952D01*
X157193809Y-89833333D01*
X157431904Y-89833333D01*
X157527142Y-89880952D01*
X157574761Y-89928571D01*
X157622380Y-90023809D01*
X157622380Y-90309523D01*
X157574761Y-90404761D01*
X157527142Y-90452380D01*
%TO.C,J2*%
X159066666Y-108082380D02*
X159066666Y-108796666D01*
X159019047Y-108939523D01*
X158923809Y-109034761D01*
X158780952Y-109082380D01*
X158685714Y-109082380D01*
X159495238Y-108177619D02*
X159542857Y-108130000D01*
X159638095Y-108082380D01*
X159876190Y-108082380D01*
X159971428Y-108130000D01*
X160019047Y-108177619D01*
X160066666Y-108272857D01*
X160066666Y-108368095D01*
X160019047Y-108510952D01*
X159447619Y-109082380D01*
X160066666Y-109082380D01*
%TO.C,U3*%
X118388095Y-89602380D02*
X118388095Y-90411904D01*
X118435714Y-90507142D01*
X118483333Y-90554761D01*
X118578571Y-90602380D01*
X118769047Y-90602380D01*
X118864285Y-90554761D01*
X118911904Y-90507142D01*
X118959523Y-90411904D01*
X118959523Y-89602380D01*
X119340476Y-89602380D02*
X119959523Y-89602380D01*
X119626190Y-89983333D01*
X119769047Y-89983333D01*
X119864285Y-90030952D01*
X119911904Y-90078571D01*
X119959523Y-90173809D01*
X119959523Y-90411904D01*
X119911904Y-90507142D01*
X119864285Y-90554761D01*
X119769047Y-90602380D01*
X119483333Y-90602380D01*
X119388095Y-90554761D01*
X119340476Y-90507142D01*
%TO.C,U2*%
X161188095Y-99752380D02*
X161188095Y-100561904D01*
X161235714Y-100657142D01*
X161283333Y-100704761D01*
X161378571Y-100752380D01*
X161569047Y-100752380D01*
X161664285Y-100704761D01*
X161711904Y-100657142D01*
X161759523Y-100561904D01*
X161759523Y-99752380D01*
X162188095Y-99847619D02*
X162235714Y-99800000D01*
X162330952Y-99752380D01*
X162569047Y-99752380D01*
X162664285Y-99800000D01*
X162711904Y-99847619D01*
X162759523Y-99942857D01*
X162759523Y-100038095D01*
X162711904Y-100180952D01*
X162140476Y-100752380D01*
X162759523Y-100752380D01*
%TO.C,SW1*%
X173954761Y-98933333D02*
X174002380Y-98790476D01*
X174002380Y-98552380D01*
X173954761Y-98457142D01*
X173907142Y-98409523D01*
X173811904Y-98361904D01*
X173716666Y-98361904D01*
X173621428Y-98409523D01*
X173573809Y-98457142D01*
X173526190Y-98552380D01*
X173478571Y-98742857D01*
X173430952Y-98838095D01*
X173383333Y-98885714D01*
X173288095Y-98933333D01*
X173192857Y-98933333D01*
X173097619Y-98885714D01*
X173050000Y-98838095D01*
X173002380Y-98742857D01*
X173002380Y-98504761D01*
X173050000Y-98361904D01*
X173002380Y-98028571D02*
X174002380Y-97790476D01*
X173288095Y-97600000D01*
X174002380Y-97409523D01*
X173002380Y-97171428D01*
X174002380Y-96266666D02*
X174002380Y-96838095D01*
X174002380Y-96552380D02*
X173002380Y-96552380D01*
X173145238Y-96647619D01*
X173240476Y-96742857D01*
X173288095Y-96838095D01*
%TO.C,R7*%
X112802380Y-95004166D02*
X112326190Y-95337500D01*
X112802380Y-95575595D02*
X111802380Y-95575595D01*
X111802380Y-95194642D01*
X111850000Y-95099404D01*
X111897619Y-95051785D01*
X111992857Y-95004166D01*
X112135714Y-95004166D01*
X112230952Y-95051785D01*
X112278571Y-95099404D01*
X112326190Y-95194642D01*
X112326190Y-95575595D01*
X111802380Y-94670833D02*
X111802380Y-94004166D01*
X112802380Y-94432738D01*
%TO.C,R6*%
X126195833Y-92902380D02*
X125862500Y-92426190D01*
X125624404Y-92902380D02*
X125624404Y-91902380D01*
X126005357Y-91902380D01*
X126100595Y-91950000D01*
X126148214Y-91997619D01*
X126195833Y-92092857D01*
X126195833Y-92235714D01*
X126148214Y-92330952D01*
X126100595Y-92378571D01*
X126005357Y-92426190D01*
X125624404Y-92426190D01*
X127052976Y-91902380D02*
X126862500Y-91902380D01*
X126767261Y-91950000D01*
X126719642Y-91997619D01*
X126624404Y-92140476D01*
X126576785Y-92330952D01*
X126576785Y-92711904D01*
X126624404Y-92807142D01*
X126672023Y-92854761D01*
X126767261Y-92902380D01*
X126957738Y-92902380D01*
X127052976Y-92854761D01*
X127100595Y-92807142D01*
X127148214Y-92711904D01*
X127148214Y-92473809D01*
X127100595Y-92378571D01*
X127052976Y-92330952D01*
X126957738Y-92283333D01*
X126767261Y-92283333D01*
X126672023Y-92330952D01*
X126624404Y-92378571D01*
X126576785Y-92473809D01*
%TO.C,R3*%
X164682380Y-104669166D02*
X164206190Y-105002500D01*
X164682380Y-105240595D02*
X163682380Y-105240595D01*
X163682380Y-104859642D01*
X163730000Y-104764404D01*
X163777619Y-104716785D01*
X163872857Y-104669166D01*
X164015714Y-104669166D01*
X164110952Y-104716785D01*
X164158571Y-104764404D01*
X164206190Y-104859642D01*
X164206190Y-105240595D01*
X163682380Y-104335833D02*
X163682380Y-103716785D01*
X164063333Y-104050119D01*
X164063333Y-103907261D01*
X164110952Y-103812023D01*
X164158571Y-103764404D01*
X164253809Y-103716785D01*
X164491904Y-103716785D01*
X164587142Y-103764404D01*
X164634761Y-103812023D01*
X164682380Y-103907261D01*
X164682380Y-104192976D01*
X164634761Y-104288214D01*
X164587142Y-104335833D01*
%TO.C,R2*%
X109602380Y-91229166D02*
X109126190Y-91562500D01*
X109602380Y-91800595D02*
X108602380Y-91800595D01*
X108602380Y-91419642D01*
X108650000Y-91324404D01*
X108697619Y-91276785D01*
X108792857Y-91229166D01*
X108935714Y-91229166D01*
X109030952Y-91276785D01*
X109078571Y-91324404D01*
X109126190Y-91419642D01*
X109126190Y-91800595D01*
X108697619Y-90848214D02*
X108650000Y-90800595D01*
X108602380Y-90705357D01*
X108602380Y-90467261D01*
X108650000Y-90372023D01*
X108697619Y-90324404D01*
X108792857Y-90276785D01*
X108888095Y-90276785D01*
X109030952Y-90324404D01*
X109602380Y-90895833D01*
X109602380Y-90276785D01*
%TO.C,R1*%
X120702380Y-99229166D02*
X120226190Y-99562500D01*
X120702380Y-99800595D02*
X119702380Y-99800595D01*
X119702380Y-99419642D01*
X119750000Y-99324404D01*
X119797619Y-99276785D01*
X119892857Y-99229166D01*
X120035714Y-99229166D01*
X120130952Y-99276785D01*
X120178571Y-99324404D01*
X120226190Y-99419642D01*
X120226190Y-99800595D01*
X120702380Y-98276785D02*
X120702380Y-98848214D01*
X120702380Y-98562500D02*
X119702380Y-98562500D01*
X119845238Y-98657738D01*
X119940476Y-98752976D01*
X119988095Y-98848214D01*
%TO.C,J1*%
X150412380Y-111103333D02*
X151126666Y-111103333D01*
X151269523Y-111150952D01*
X151364761Y-111246190D01*
X151412380Y-111389047D01*
X151412380Y-111484285D01*
X151412380Y-110103333D02*
X151412380Y-110674761D01*
X151412380Y-110389047D02*
X150412380Y-110389047D01*
X150555238Y-110484285D01*
X150650476Y-110579523D01*
X150698095Y-110674761D01*
%TO.C,C14*%
X155094642Y-98107142D02*
X155047023Y-98154761D01*
X154904166Y-98202380D01*
X154808928Y-98202380D01*
X154666071Y-98154761D01*
X154570833Y-98059523D01*
X154523214Y-97964285D01*
X154475595Y-97773809D01*
X154475595Y-97630952D01*
X154523214Y-97440476D01*
X154570833Y-97345238D01*
X154666071Y-97250000D01*
X154808928Y-97202380D01*
X154904166Y-97202380D01*
X155047023Y-97250000D01*
X155094642Y-97297619D01*
X156047023Y-98202380D02*
X155475595Y-98202380D01*
X155761309Y-98202380D02*
X155761309Y-97202380D01*
X155666071Y-97345238D01*
X155570833Y-97440476D01*
X155475595Y-97488095D01*
X156904166Y-97535714D02*
X156904166Y-98202380D01*
X156666071Y-97154761D02*
X156427976Y-97869047D01*
X157047023Y-97869047D01*
%TO.C,C12*%
X125594642Y-96207142D02*
X125547023Y-96254761D01*
X125404166Y-96302380D01*
X125308928Y-96302380D01*
X125166071Y-96254761D01*
X125070833Y-96159523D01*
X125023214Y-96064285D01*
X124975595Y-95873809D01*
X124975595Y-95730952D01*
X125023214Y-95540476D01*
X125070833Y-95445238D01*
X125166071Y-95350000D01*
X125308928Y-95302380D01*
X125404166Y-95302380D01*
X125547023Y-95350000D01*
X125594642Y-95397619D01*
X126547023Y-96302380D02*
X125975595Y-96302380D01*
X126261309Y-96302380D02*
X126261309Y-95302380D01*
X126166071Y-95445238D01*
X126070833Y-95540476D01*
X125975595Y-95588095D01*
X126927976Y-95397619D02*
X126975595Y-95350000D01*
X127070833Y-95302380D01*
X127308928Y-95302380D01*
X127404166Y-95350000D01*
X127451785Y-95397619D01*
X127499404Y-95492857D01*
X127499404Y-95588095D01*
X127451785Y-95730952D01*
X126880357Y-96302380D01*
X127499404Y-96302380D01*
%TO.C,C11*%
X160694642Y-102407142D02*
X160647023Y-102454761D01*
X160504166Y-102502380D01*
X160408928Y-102502380D01*
X160266071Y-102454761D01*
X160170833Y-102359523D01*
X160123214Y-102264285D01*
X160075595Y-102073809D01*
X160075595Y-101930952D01*
X160123214Y-101740476D01*
X160170833Y-101645238D01*
X160266071Y-101550000D01*
X160408928Y-101502380D01*
X160504166Y-101502380D01*
X160647023Y-101550000D01*
X160694642Y-101597619D01*
X161647023Y-102502380D02*
X161075595Y-102502380D01*
X161361309Y-102502380D02*
X161361309Y-101502380D01*
X161266071Y-101645238D01*
X161170833Y-101740476D01*
X161075595Y-101788095D01*
X162599404Y-102502380D02*
X162027976Y-102502380D01*
X162313690Y-102502380D02*
X162313690Y-101502380D01*
X162218452Y-101645238D01*
X162123214Y-101740476D01*
X162027976Y-101788095D01*
%TO.C,SW2*%
X88566666Y-111204761D02*
X88709523Y-111252380D01*
X88947619Y-111252380D01*
X89042857Y-111204761D01*
X89090476Y-111157142D01*
X89138095Y-111061904D01*
X89138095Y-110966666D01*
X89090476Y-110871428D01*
X89042857Y-110823809D01*
X88947619Y-110776190D01*
X88757142Y-110728571D01*
X88661904Y-110680952D01*
X88614285Y-110633333D01*
X88566666Y-110538095D01*
X88566666Y-110442857D01*
X88614285Y-110347619D01*
X88661904Y-110300000D01*
X88757142Y-110252380D01*
X88995238Y-110252380D01*
X89138095Y-110300000D01*
X89471428Y-110252380D02*
X89709523Y-111252380D01*
X89900000Y-110538095D01*
X90090476Y-111252380D01*
X90328571Y-110252380D01*
X90661904Y-110347619D02*
X90709523Y-110300000D01*
X90804761Y-110252380D01*
X91042857Y-110252380D01*
X91138095Y-110300000D01*
X91185714Y-110347619D01*
X91233333Y-110442857D01*
X91233333Y-110538095D01*
X91185714Y-110680952D01*
X90614285Y-111252380D01*
X91233333Y-111252380D01*
%TO.C,XS1*%
X116614285Y-99302380D02*
X117280952Y-100302380D01*
X117280952Y-99302380D02*
X116614285Y-100302380D01*
X117614285Y-100254761D02*
X117757142Y-100302380D01*
X117995238Y-100302380D01*
X118090476Y-100254761D01*
X118138095Y-100207142D01*
X118185714Y-100111904D01*
X118185714Y-100016666D01*
X118138095Y-99921428D01*
X118090476Y-99873809D01*
X117995238Y-99826190D01*
X117804761Y-99778571D01*
X117709523Y-99730952D01*
X117661904Y-99683333D01*
X117614285Y-99588095D01*
X117614285Y-99492857D01*
X117661904Y-99397619D01*
X117709523Y-99350000D01*
X117804761Y-99302380D01*
X118042857Y-99302380D01*
X118185714Y-99350000D01*
X119138095Y-100302380D02*
X118566666Y-100302380D01*
X118852380Y-100302380D02*
X118852380Y-99302380D01*
X118757142Y-99445238D01*
X118661904Y-99540476D01*
X118566666Y-99588095D01*
%TO.C,X1*%
X154002380Y-97909523D02*
X155002380Y-97242857D01*
X154002380Y-97242857D02*
X155002380Y-97909523D01*
X155002380Y-96338095D02*
X155002380Y-96909523D01*
X155002380Y-96623809D02*
X154002380Y-96623809D01*
X154145238Y-96719047D01*
X154240476Y-96814285D01*
X154288095Y-96909523D01*
%TO.C,U1*%
X132702380Y-97061904D02*
X133511904Y-97061904D01*
X133607142Y-97014285D01*
X133654761Y-96966666D01*
X133702380Y-96871428D01*
X133702380Y-96680952D01*
X133654761Y-96585714D01*
X133607142Y-96538095D01*
X133511904Y-96490476D01*
X132702380Y-96490476D01*
X133702380Y-95490476D02*
X133702380Y-96061904D01*
X133702380Y-95776190D02*
X132702380Y-95776190D01*
X132845238Y-95871428D01*
X132940476Y-95966666D01*
X132988095Y-96061904D01*
%TO.C,R5*%
X135902380Y-108004166D02*
X135426190Y-108337500D01*
X135902380Y-108575595D02*
X134902380Y-108575595D01*
X134902380Y-108194642D01*
X134950000Y-108099404D01*
X134997619Y-108051785D01*
X135092857Y-108004166D01*
X135235714Y-108004166D01*
X135330952Y-108051785D01*
X135378571Y-108099404D01*
X135426190Y-108194642D01*
X135426190Y-108575595D01*
X134902380Y-107099404D02*
X134902380Y-107575595D01*
X135378571Y-107623214D01*
X135330952Y-107575595D01*
X135283333Y-107480357D01*
X135283333Y-107242261D01*
X135330952Y-107147023D01*
X135378571Y-107099404D01*
X135473809Y-107051785D01*
X135711904Y-107051785D01*
X135807142Y-107099404D01*
X135854761Y-107147023D01*
X135902380Y-107242261D01*
X135902380Y-107480357D01*
X135854761Y-107575595D01*
X135807142Y-107623214D01*
%TO.C,R4*%
X137902380Y-108004166D02*
X137426190Y-108337500D01*
X137902380Y-108575595D02*
X136902380Y-108575595D01*
X136902380Y-108194642D01*
X136950000Y-108099404D01*
X136997619Y-108051785D01*
X137092857Y-108004166D01*
X137235714Y-108004166D01*
X137330952Y-108051785D01*
X137378571Y-108099404D01*
X137426190Y-108194642D01*
X137426190Y-108575595D01*
X137235714Y-107147023D02*
X137902380Y-107147023D01*
X136854761Y-107385119D02*
X137569047Y-107623214D01*
X137569047Y-107004166D01*
%TO.C,C10*%
X130694642Y-100607142D02*
X130647023Y-100654761D01*
X130504166Y-100702380D01*
X130408928Y-100702380D01*
X130266071Y-100654761D01*
X130170833Y-100559523D01*
X130123214Y-100464285D01*
X130075595Y-100273809D01*
X130075595Y-100130952D01*
X130123214Y-99940476D01*
X130170833Y-99845238D01*
X130266071Y-99750000D01*
X130408928Y-99702380D01*
X130504166Y-99702380D01*
X130647023Y-99750000D01*
X130694642Y-99797619D01*
X131647023Y-100702380D02*
X131075595Y-100702380D01*
X131361309Y-100702380D02*
X131361309Y-99702380D01*
X131266071Y-99845238D01*
X131170833Y-99940476D01*
X131075595Y-99988095D01*
X132266071Y-99702380D02*
X132361309Y-99702380D01*
X132456547Y-99750000D01*
X132504166Y-99797619D01*
X132551785Y-99892857D01*
X132599404Y-100083333D01*
X132599404Y-100321428D01*
X132551785Y-100511904D01*
X132504166Y-100607142D01*
X132456547Y-100654761D01*
X132361309Y-100702380D01*
X132266071Y-100702380D01*
X132170833Y-100654761D01*
X132123214Y-100607142D01*
X132075595Y-100511904D01*
X132027976Y-100321428D01*
X132027976Y-100083333D01*
X132075595Y-99892857D01*
X132123214Y-99797619D01*
X132170833Y-99750000D01*
X132266071Y-99702380D01*
%TO.C,C9*%
X141670833Y-108307142D02*
X141623214Y-108354761D01*
X141480357Y-108402380D01*
X141385119Y-108402380D01*
X141242261Y-108354761D01*
X141147023Y-108259523D01*
X141099404Y-108164285D01*
X141051785Y-107973809D01*
X141051785Y-107830952D01*
X141099404Y-107640476D01*
X141147023Y-107545238D01*
X141242261Y-107450000D01*
X141385119Y-107402380D01*
X141480357Y-107402380D01*
X141623214Y-107450000D01*
X141670833Y-107497619D01*
X142147023Y-108402380D02*
X142337500Y-108402380D01*
X142432738Y-108354761D01*
X142480357Y-108307142D01*
X142575595Y-108164285D01*
X142623214Y-107973809D01*
X142623214Y-107592857D01*
X142575595Y-107497619D01*
X142527976Y-107450000D01*
X142432738Y-107402380D01*
X142242261Y-107402380D01*
X142147023Y-107450000D01*
X142099404Y-107497619D01*
X142051785Y-107592857D01*
X142051785Y-107830952D01*
X142099404Y-107926190D01*
X142147023Y-107973809D01*
X142242261Y-108021428D01*
X142432738Y-108021428D01*
X142527976Y-107973809D01*
X142575595Y-107926190D01*
X142623214Y-107830952D01*
%TO.C,C8*%
X152670833Y-102307142D02*
X152623214Y-102354761D01*
X152480357Y-102402380D01*
X152385119Y-102402380D01*
X152242261Y-102354761D01*
X152147023Y-102259523D01*
X152099404Y-102164285D01*
X152051785Y-101973809D01*
X152051785Y-101830952D01*
X152099404Y-101640476D01*
X152147023Y-101545238D01*
X152242261Y-101450000D01*
X152385119Y-101402380D01*
X152480357Y-101402380D01*
X152623214Y-101450000D01*
X152670833Y-101497619D01*
X153242261Y-101830952D02*
X153147023Y-101783333D01*
X153099404Y-101735714D01*
X153051785Y-101640476D01*
X153051785Y-101592857D01*
X153099404Y-101497619D01*
X153147023Y-101450000D01*
X153242261Y-101402380D01*
X153432738Y-101402380D01*
X153527976Y-101450000D01*
X153575595Y-101497619D01*
X153623214Y-101592857D01*
X153623214Y-101640476D01*
X153575595Y-101735714D01*
X153527976Y-101783333D01*
X153432738Y-101830952D01*
X153242261Y-101830952D01*
X153147023Y-101878571D01*
X153099404Y-101926190D01*
X153051785Y-102021428D01*
X153051785Y-102211904D01*
X153099404Y-102307142D01*
X153147023Y-102354761D01*
X153242261Y-102402380D01*
X153432738Y-102402380D01*
X153527976Y-102354761D01*
X153575595Y-102307142D01*
X153623214Y-102211904D01*
X153623214Y-102021428D01*
X153575595Y-101926190D01*
X153527976Y-101878571D01*
X153432738Y-101830952D01*
%TO.C,C7*%
X152470833Y-92807142D02*
X152423214Y-92854761D01*
X152280357Y-92902380D01*
X152185119Y-92902380D01*
X152042261Y-92854761D01*
X151947023Y-92759523D01*
X151899404Y-92664285D01*
X151851785Y-92473809D01*
X151851785Y-92330952D01*
X151899404Y-92140476D01*
X151947023Y-92045238D01*
X152042261Y-91950000D01*
X152185119Y-91902380D01*
X152280357Y-91902380D01*
X152423214Y-91950000D01*
X152470833Y-91997619D01*
X152804166Y-91902380D02*
X153470833Y-91902380D01*
X153042261Y-92902380D01*
%TO.C,C6*%
X145607142Y-109629166D02*
X145654761Y-109676785D01*
X145702380Y-109819642D01*
X145702380Y-109914880D01*
X145654761Y-110057738D01*
X145559523Y-110152976D01*
X145464285Y-110200595D01*
X145273809Y-110248214D01*
X145130952Y-110248214D01*
X144940476Y-110200595D01*
X144845238Y-110152976D01*
X144750000Y-110057738D01*
X144702380Y-109914880D01*
X144702380Y-109819642D01*
X144750000Y-109676785D01*
X144797619Y-109629166D01*
X144702380Y-108772023D02*
X144702380Y-108962500D01*
X144750000Y-109057738D01*
X144797619Y-109105357D01*
X144940476Y-109200595D01*
X145130952Y-109248214D01*
X145511904Y-109248214D01*
X145607142Y-109200595D01*
X145654761Y-109152976D01*
X145702380Y-109057738D01*
X145702380Y-108867261D01*
X145654761Y-108772023D01*
X145607142Y-108724404D01*
X145511904Y-108676785D01*
X145273809Y-108676785D01*
X145178571Y-108724404D01*
X145130952Y-108772023D01*
X145083333Y-108867261D01*
X145083333Y-109057738D01*
X145130952Y-109152976D01*
X145178571Y-109200595D01*
X145273809Y-109248214D01*
%TO.C,C5*%
X136007142Y-105066666D02*
X136054761Y-105114285D01*
X136102380Y-105257142D01*
X136102380Y-105352380D01*
X136054761Y-105495238D01*
X135959523Y-105590476D01*
X135864285Y-105638095D01*
X135673809Y-105685714D01*
X135530952Y-105685714D01*
X135340476Y-105638095D01*
X135245238Y-105590476D01*
X135150000Y-105495238D01*
X135102380Y-105352380D01*
X135102380Y-105257142D01*
X135150000Y-105114285D01*
X135197619Y-105066666D01*
X135102380Y-104161904D02*
X135102380Y-104638095D01*
X135578571Y-104685714D01*
X135530952Y-104638095D01*
X135483333Y-104542857D01*
X135483333Y-104304761D01*
X135530952Y-104209523D01*
X135578571Y-104161904D01*
X135673809Y-104114285D01*
X135911904Y-104114285D01*
X136007142Y-104161904D01*
X136054761Y-104209523D01*
X136102380Y-104304761D01*
X136102380Y-104542857D01*
X136054761Y-104638095D01*
X136007142Y-104685714D01*
%TO.C,C4*%
X131595833Y-103007142D02*
X131548214Y-103054761D01*
X131405357Y-103102380D01*
X131310119Y-103102380D01*
X131167261Y-103054761D01*
X131072023Y-102959523D01*
X131024404Y-102864285D01*
X130976785Y-102673809D01*
X130976785Y-102530952D01*
X131024404Y-102340476D01*
X131072023Y-102245238D01*
X131167261Y-102150000D01*
X131310119Y-102102380D01*
X131405357Y-102102380D01*
X131548214Y-102150000D01*
X131595833Y-102197619D01*
X132452976Y-102435714D02*
X132452976Y-103102380D01*
X132214880Y-102054761D02*
X131976785Y-102769047D01*
X132595833Y-102769047D01*
%TO.C,C3*%
X147670833Y-89007142D02*
X147623214Y-89054761D01*
X147480357Y-89102380D01*
X147385119Y-89102380D01*
X147242261Y-89054761D01*
X147147023Y-88959523D01*
X147099404Y-88864285D01*
X147051785Y-88673809D01*
X147051785Y-88530952D01*
X147099404Y-88340476D01*
X147147023Y-88245238D01*
X147242261Y-88150000D01*
X147385119Y-88102380D01*
X147480357Y-88102380D01*
X147623214Y-88150000D01*
X147670833Y-88197619D01*
X148004166Y-88102380D02*
X148623214Y-88102380D01*
X148289880Y-88483333D01*
X148432738Y-88483333D01*
X148527976Y-88530952D01*
X148575595Y-88578571D01*
X148623214Y-88673809D01*
X148623214Y-88911904D01*
X148575595Y-89007142D01*
X148527976Y-89054761D01*
X148432738Y-89102380D01*
X148147023Y-89102380D01*
X148051785Y-89054761D01*
X148004166Y-89007142D01*
%TO.C,C2*%
X133207142Y-91929166D02*
X133254761Y-91976785D01*
X133302380Y-92119642D01*
X133302380Y-92214880D01*
X133254761Y-92357738D01*
X133159523Y-92452976D01*
X133064285Y-92500595D01*
X132873809Y-92548214D01*
X132730952Y-92548214D01*
X132540476Y-92500595D01*
X132445238Y-92452976D01*
X132350000Y-92357738D01*
X132302380Y-92214880D01*
X132302380Y-92119642D01*
X132350000Y-91976785D01*
X132397619Y-91929166D01*
X132397619Y-91548214D02*
X132350000Y-91500595D01*
X132302380Y-91405357D01*
X132302380Y-91167261D01*
X132350000Y-91072023D01*
X132397619Y-91024404D01*
X132492857Y-90976785D01*
X132588095Y-90976785D01*
X132730952Y-91024404D01*
X133302380Y-91595833D01*
X133302380Y-90976785D01*
%TO.C,C1*%
X149270833Y-100107142D02*
X149223214Y-100154761D01*
X149080357Y-100202380D01*
X148985119Y-100202380D01*
X148842261Y-100154761D01*
X148747023Y-100059523D01*
X148699404Y-99964285D01*
X148651785Y-99773809D01*
X148651785Y-99630952D01*
X148699404Y-99440476D01*
X148747023Y-99345238D01*
X148842261Y-99250000D01*
X148985119Y-99202380D01*
X149080357Y-99202380D01*
X149223214Y-99250000D01*
X149270833Y-99297619D01*
X150223214Y-100202380D02*
X149651785Y-100202380D01*
X149937500Y-100202380D02*
X149937500Y-99202380D01*
X149842261Y-99345238D01*
X149747023Y-99440476D01*
X149651785Y-99488095D01*
%TD*%
M02*
