%TF.GenerationSoftware,KiCad,Pcbnew,(5.1.6)-1*%
%TF.CreationDate,2021-02-18T08:34:05-06:00*%
%TF.ProjectId,Pikatea Macropad Mini,50696b61-7465-4612-904d-6163726f7061,rev?*%
%TF.SameCoordinates,Original*%
%TF.FileFunction,Soldermask,Bot*%
%TF.FilePolarity,Negative*%
%FSLAX46Y46*%
G04 Gerber Fmt 4.6, Leading zero omitted, Abs format (unit mm)*
G04 Created by KiCad (PCBNEW (5.1.6)-1) date 2021-02-18 08:34:05*
%MOMM*%
%LPD*%
G01*
G04 APERTURE LIST*
%ADD10C,0.500000*%
%ADD11C,1.100000*%
%ADD12O,1.800000X1.800000*%
%ADD13R,1.800000X1.800000*%
%ADD14C,1.800000*%
%ADD15C,4.100000*%
%ADD16C,2.300000*%
G04 APERTURE END LIST*
D10*
%TO.C,J6*%
X177500000Y-98200000D03*
X177500000Y-99600000D03*
X177500000Y-101000000D03*
X177500000Y-102400000D03*
X177500000Y-103800000D03*
X177500000Y-105200000D03*
X177500000Y-106600000D03*
X177500000Y-108000000D03*
X177500000Y-109400000D03*
X177500000Y-110800000D03*
X177500000Y-112200000D03*
X177500000Y-113600000D03*
D11*
X177500000Y-98900000D03*
X177500000Y-112900000D03*
X177500000Y-111500000D03*
X177500000Y-110100000D03*
X177500000Y-108700000D03*
X177500000Y-107300000D03*
X177500000Y-100300000D03*
X177500000Y-101700000D03*
X177500000Y-103100000D03*
X177500000Y-104500000D03*
X177500000Y-105900000D03*
%TD*%
D12*
%TO.C,J5*%
X197500000Y-105180000D03*
X197500000Y-102640000D03*
D13*
X197500000Y-100100000D03*
%TD*%
D14*
%TO.C,MX5*%
X212140000Y-104920000D03*
X201980000Y-104920000D03*
D15*
X207060000Y-104920000D03*
D16*
X203250000Y-107460000D03*
X209600000Y-110000000D03*
%TD*%
D14*
%TO.C,MX4*%
X193090000Y-104920000D03*
X182930000Y-104920000D03*
D15*
X188010000Y-104920000D03*
D16*
X184200000Y-107460000D03*
X190550000Y-110000000D03*
%TD*%
D12*
%TO.C,J4*%
X174550000Y-96580000D03*
X174550000Y-94040000D03*
D13*
X174550000Y-91500000D03*
%TD*%
D12*
%TO.C,J3*%
X162040000Y-90500000D03*
D13*
X159500000Y-90500000D03*
%TD*%
D12*
%TO.C,J2*%
X159400000Y-103760000D03*
D13*
X159400000Y-106300000D03*
%TD*%
D14*
%TO.C,J1*%
X162140000Y-109500000D03*
X159600000Y-109500000D03*
X157060000Y-109500000D03*
X162140000Y-112040000D03*
X159600000Y-112040000D03*
G36*
G01*
X157695294Y-112940000D02*
X156424706Y-112940000D01*
G75*
G02*
X156160000Y-112675294I0J264706D01*
G01*
X156160000Y-111404706D01*
G75*
G02*
X156424706Y-111140000I264706J0D01*
G01*
X157695294Y-111140000D01*
G75*
G02*
X157960000Y-111404706I0J-264706D01*
G01*
X157960000Y-112675294D01*
G75*
G02*
X157695294Y-112940000I-264706J0D01*
G01*
G37*
%TD*%
D13*
%TO.C,SW2*%
X109450000Y-102360000D03*
X109450000Y-107440000D03*
X91350000Y-104900000D03*
X91350000Y-102360000D03*
X91350000Y-107440000D03*
%TD*%
D14*
%TO.C,MX3*%
X135940000Y-104920000D03*
X125780000Y-104920000D03*
D15*
X130860000Y-104920000D03*
D16*
X127050000Y-107460000D03*
X133400000Y-110000000D03*
%TD*%
D14*
%TO.C,MX2*%
X174040000Y-104920000D03*
X163880000Y-104920000D03*
D15*
X168960000Y-104920000D03*
D16*
X165150000Y-107460000D03*
X171500000Y-110000000D03*
%TD*%
D14*
%TO.C,MX1*%
X154990000Y-104920000D03*
X144830000Y-104920000D03*
D15*
X149910000Y-104920000D03*
D16*
X146100000Y-107460000D03*
X152450000Y-110000000D03*
%TD*%
M02*
