%TF.GenerationSoftware,KiCad,Pcbnew,(5.1.5)-3*%
%TF.CreationDate,2021-06-23T12:29:00-05:00*%
%TF.ProjectId,Pikatea Keyboard,50696b61-7465-4612-904b-6579626f6172,rev?*%
%TF.SameCoordinates,Original*%
%TF.FileFunction,Profile,NP*%
%FSLAX46Y46*%
G04 Gerber Fmt 4.6, Leading zero omitted, Abs format (unit mm)*
G04 Created by KiCad (PCBNEW (5.1.5)-3) date 2021-06-23 12:29:00*
%MOMM*%
%LPD*%
G04 APERTURE LIST*
%TA.AperFunction,Profile*%
%ADD10C,0.050000*%
%TD*%
G04 APERTURE END LIST*
D10*
X-20471514Y-121920000D02*
G75*
G03X-20471514Y-121920000I-3277486J0D01*
G01*
X259309486Y-146431000D02*
G75*
G03X259309486Y-146431000I-3277486J0D01*
G01*
X257715945Y-92710000D02*
G75*
G03X257715945Y-92710000I-2953945J0D01*
G01*
X93171430Y-73787000D02*
G75*
G03X93171430Y-73787000I-2747430J0D01*
G01*
X188671308Y-73914000D02*
G75*
G03X188671308Y-73914000I-2997308J0D01*
G01*
X155400000Y-111887000D02*
G75*
G03X155400000Y-111887000I-3000000J0D01*
G01*
X94005774Y-146304000D02*
G75*
G03X94005774Y-146304000I-3454774J0D01*
G01*
X48221708Y-131064000D02*
G75*
G03X48221708Y-131064000I-3771708J0D01*
G01*
X23554806Y-92964000D02*
G75*
G03X23554806Y-92964000I-2726806J0D01*
G01*
X-40811000Y-68580000D02*
G75*
G02X-37211000Y-64980000I3600000J0D01*
G01*
X-37211000Y-158667000D02*
G75*
G02X-40811000Y-155067000I0J3600000D01*
G01*
X278809000Y-155067000D02*
G75*
G02X275209000Y-158667000I-3600000J0D01*
G01*
X-33320000Y-73990000D02*
X-17120000Y-74010000D01*
X-33320000Y-87380000D02*
X-33320000Y-73990000D01*
X-17120000Y-87380000D02*
X-33320000Y-87380000D01*
X-17120000Y-74010000D02*
X-17120000Y-87380000D01*
X275200000Y-65000000D02*
G75*
G02X278800000Y-68600000I0J-3600000D01*
G01*
X-40811000Y-155067000D02*
X-40811000Y-68580000D01*
X275200000Y-65000000D02*
X-37211000Y-64980000D01*
X278800000Y-68600000D02*
X278809000Y-155067000D01*
X-37211000Y-158667000D02*
X275209000Y-158667000D01*
M02*
