M48
; DRILL file {KiCad (5.1.5)-3} date 6/23/2021 12:29:03 PM
; FORMAT={-:-/ absolute / inch / decimal}
; #@! TF.CreationDate,2021-06-23T12:29:03-05:00
; #@! TF.GenerationSoftware,Kicad,Pcbnew,(5.1.5)-3
; #@! TF.FileFunction,Plated,1,2,PTH
FMAT,2
INCH
T1C0.0157
T2C0.0276
T3C0.0315
T4C0.0394
T5C0.0400
T6C0.0409
T7C0.0579
%
G90
G05
T1
X-1.3681Y-3.5148
X-1.2676Y-4.0219
X-0.7975Y-4.2658
X-0.7913Y-4.3047
X-0.7889Y-4.344
X-0.7598Y-3.7067
X-0.6643Y-3.9239
X-0.5539Y-4.0528
X-0.5396Y-4.1152
X-0.5062Y-3.4396
X-0.4529Y-4.1538
X-0.3165Y-4.337
X-0.3072Y-3.7733
X-0.2209Y-4.0812
X-0.1276Y-4.0646
X-0.0756Y-6.2
X-0.055Y-3.671
X0.275Y-3.6906
X9.5855Y-3.0178
T2
X9.535Y-2.8236
X9.5665Y-2.7764
X9.598Y-2.8236
X9.6295Y-2.7764
X9.661Y-2.8236
T4
X-1.349Y-3.0766
X-1.349Y-3.1766
X-1.349Y-3.2766
X-0.6364Y-3.0766
X-0.6364Y-3.2766
T5
X-1.4988Y-3.7413
X-1.4988Y-3.8413
X-1.4988Y-3.9413
X-1.3988Y-3.7413
X-1.3988Y-3.8413
X-1.3988Y-3.9413
T6
X8.668Y-6.1055
X8.768Y-6.1055
X6.5125Y-3.8555
X6.6125Y-3.8555
X10.3562Y-4.6055
X10.4562Y-4.6055
X6.8875Y-3.1055
X6.9875Y-3.1055
X9.5125Y-3.8555
X9.6125Y-3.8555
X1.6375Y-3.1055
X1.7375Y-3.1055
X10.6375Y-3.1055
X10.7375Y-3.1055
X-0.6125Y-6.1055
X-0.5125Y-6.1055
X4.6375Y-3.1055
X4.7375Y-3.1055
X3.325Y-4.6055
X3.425Y-4.6055
X3.7Y-5.3555
X3.8Y-5.3555
X0.8862Y-6.1055
X0.9862Y-6.1055
X8.2Y-5.3555
X8.3Y-5.3555
X8.95Y-5.3555
X9.05Y-5.3555
X10.45Y-3.8555
X10.55Y-3.8555
X6.1375Y-3.1055
X6.2375Y-3.1055
X-1.3625Y-6.1055
X-1.2625Y-6.1055
X1.2625Y-3.8555
X1.3625Y-3.8555
X0.325Y-3.8555
X0.425Y-3.8555
X5.575Y-4.6055
X5.675Y-4.6055
X8.5743Y-6.1055
X8.6743Y-6.1055
X3.1375Y-3.1055
X3.2375Y-3.1055
X0.3249Y-6.1055
X0.4249Y-6.1055
X3.5125Y-3.8555
X3.6125Y-3.8555
X5.3868Y-6.1055
X5.4868Y-6.1055
X6.7Y-5.3555
X6.8Y-5.3555
X8.0125Y-3.8555
X8.1125Y-3.8555
X9.325Y-4.6055
X9.425Y-4.6055
X9.6055Y-6.1055
X9.7055Y-6.1055
X-0.6125Y-4.6055
X-0.5125Y-4.6055
X2.575Y-4.6055
X2.675Y-4.6055
X2.3875Y-3.1055
X2.4875Y-3.1055
X4.825Y-4.6055
X4.925Y-4.6055
X2.3854Y-6.1055
X2.4854Y-6.1055
X2.95Y-5.3555
X3.05Y-5.3555
X0.1374Y-6.1055
X0.2374Y-6.1055
X0.5125Y-3.1055
X0.6125Y-3.1055
X10.543Y-6.1055
X10.643Y-6.1055
X5.95Y-5.3555
X6.05Y-5.3555
X7.45Y-5.3555
X7.55Y-5.3555
X9.1375Y-3.1055
X9.2375Y-3.1055
X1.825Y-4.6055
X1.925Y-4.6055
X-1.3625Y-4.6055
X-1.2625Y-4.6055
X2.1055Y-6.1055
X2.2055Y-6.1055
X5.0125Y-3.8555
X5.1125Y-3.8555
X10.4493Y-6.1055
X10.5493Y-6.1055
X4.2625Y-3.8555
X4.3625Y-3.8555
X1.45Y-6.1055
X1.55Y-6.1055
X10.543Y-5.3555
X10.643Y-5.3555
X7.825Y-4.6055
X7.925Y-4.6055
X8.7625Y-3.8555
X8.8625Y-3.8555
X5.7625Y-3.8555
X5.8625Y-3.8555
X1.1687Y-6.1055
X1.2688Y-6.1055
X2.2Y-5.3555
X2.3Y-5.3555
X-0.6125Y-5.3555
X-0.5125Y-5.3555
X2.7625Y-3.8555
X2.8625Y-3.8555
X0.2311Y-6.1055
X0.3311Y-6.1055
X5.2Y-5.3555
X5.3Y-5.3555
X7.6375Y-3.1055
X7.7375Y-3.1055
X8.575Y-4.6055
X8.675Y-4.6055
X7.2625Y-3.8555
X7.3625Y-3.8555
X0.7937Y-5.3555
X0.8937Y-5.3555
X10.1687Y-5.3555
X10.2687Y-5.3555
X2.0125Y-3.8555
X2.1125Y-3.8555
X3.043Y-6.1055
X3.143Y-6.1055
X5.3875Y-3.1055
X5.4875Y-3.1055
X1.1687Y-5.3555
X1.2688Y-5.3555
X4.075Y-4.6055
X4.175Y-4.6055
X9.5118Y-6.1055
X9.6118Y-6.1055
X7.075Y-4.6055
X7.175Y-4.6055
X8.3875Y-3.1055
X8.4875Y-3.1055
X6.325Y-4.6055
X6.425Y-4.6055
X9.8875Y-3.1055
X9.9875Y-3.1055
X9.7Y-5.3555
X9.8Y-5.3555
X-1.3625Y-5.3555
X-1.2625Y-5.3555
X0.6062Y-4.6055
X0.7062Y-4.6055
X5.8555Y-6.1055
X5.9555Y-6.1055
X4.45Y-5.3555
X4.55Y-5.3555
X0.1375Y-5.3555
X0.2375Y-5.3555
X3.8875Y-3.1055
X3.9875Y-3.1055
T7
X7.775Y-4.2055
X8.025Y-4.3055
X8.7125Y-3.4555
X8.9625Y-3.5555
X5.7125Y-3.4555
X5.9625Y-3.5555
X1.1187Y-5.7055
X1.3687Y-5.8055
X2.15Y-4.9555
X2.4Y-5.0555
X-0.6625Y-4.9555
X-0.4125Y-5.0555
X2.7125Y-3.4555
X2.9625Y-3.5555
X0.1811Y-5.7055
X0.4311Y-5.8055
X5.15Y-4.9555
X5.4Y-5.0555
X7.5875Y-2.7055
X7.8375Y-2.8055
X8.525Y-4.2055
X8.775Y-4.3055
X7.2125Y-3.4555
X7.4625Y-3.5555
X0.7438Y-4.9555
X0.9938Y-5.0555
X10.1188Y-4.9555
X10.3688Y-5.0555
X1.9625Y-3.4555
X2.2125Y-3.5555
X2.993Y-5.7055
X3.243Y-5.8055
X5.3375Y-2.7055
X5.5875Y-2.8055
X1.1187Y-4.9555
X1.3687Y-5.0555
X4.025Y-4.2055
X4.275Y-4.3055
X9.4618Y-5.7055
X9.7118Y-5.8055
X7.025Y-4.2055
X7.275Y-4.3055
X8.3375Y-2.7055
X8.5875Y-2.8055
X6.275Y-4.2055
X6.525Y-4.3055
X9.8375Y-2.7055
X10.0875Y-2.8055
X9.65Y-4.9555
X9.9Y-5.0555
X-1.4125Y-4.9555
X-1.1625Y-5.0555
X0.5563Y-4.2055
X0.8063Y-4.3055
X5.8055Y-5.7055
X6.0555Y-5.8055
X4.4Y-4.9555
X4.65Y-5.0555
X0.0375Y-5.0555
X0.2875Y-4.9555
X3.8375Y-2.7055
X4.0875Y-2.8055
X8.618Y-5.7055
X8.868Y-5.8055
X6.4625Y-3.4555
X6.7125Y-3.5555
X10.3063Y-4.2055
X10.5563Y-4.3055
X6.8375Y-2.7055
X7.0875Y-2.8055
X9.4625Y-3.4555
X9.7125Y-3.5555
X1.5875Y-2.7055
X1.8375Y-2.8055
X10.5875Y-2.7055
X10.8375Y-2.8055
X-0.6625Y-5.7055
X-0.4125Y-5.8055
X4.5875Y-2.7055
X4.8375Y-2.8055
X3.275Y-4.2055
X3.525Y-4.3055
X3.65Y-4.9555
X3.9Y-5.0555
X0.8362Y-5.7055
X1.0862Y-5.8055
X8.15Y-4.9555
X8.4Y-5.0555
X8.9Y-4.9555
X9.15Y-5.0555
X10.4Y-3.4555
X10.65Y-3.5555
X6.0875Y-2.7055
X6.3375Y-2.8055
X-1.4125Y-5.7055
X-1.1625Y-5.8055
X1.2125Y-3.4555
X1.4625Y-3.5555
X0.275Y-3.4555
X0.525Y-3.5555
X5.525Y-4.2055
X5.775Y-4.3055
X8.5243Y-5.7055
X8.7743Y-5.8055
X3.0875Y-2.7055
X3.3375Y-2.8055
X0.2749Y-5.7055
X0.5249Y-5.8055
X3.4625Y-3.4555
X3.7125Y-3.5555
X5.3368Y-5.7055
X5.5868Y-5.8055
X6.65Y-4.9555
X6.9Y-5.0555
X7.9625Y-3.4555
X8.2125Y-3.5555
X9.275Y-4.2055
X9.525Y-4.3055
X9.5555Y-5.7055
X9.8055Y-5.8055
X-0.6625Y-4.2055
X-0.4125Y-4.3055
X2.525Y-4.2055
X2.775Y-4.3055
X2.3375Y-2.7055
X2.5875Y-2.8055
X4.775Y-4.2055
X5.025Y-4.3055
X2.3354Y-5.7055
X2.5854Y-5.8055
X2.9Y-4.9555
X3.15Y-5.0555
X0.0874Y-5.7055
X0.3374Y-5.8055
X0.4625Y-2.7055
X0.7125Y-2.8055
X10.493Y-5.7055
X10.743Y-5.8055
X5.9Y-4.9555
X6.15Y-5.0555
X7.4Y-4.9555
X7.65Y-5.0555
X9.0875Y-2.7055
X9.3375Y-2.8055
X1.775Y-4.2055
X2.025Y-4.3055
X-1.4125Y-4.2055
X-1.1625Y-4.3055
X2.0555Y-5.7055
X2.3055Y-5.8055
X4.9625Y-3.4555
X5.2125Y-3.5555
X10.3993Y-5.7055
X10.6493Y-5.8055
X4.2125Y-3.4555
X4.4625Y-3.5555
X1.35Y-5.8055
X1.6Y-5.7055
X10.493Y-4.9555
X10.743Y-5.0555
T3
G00X9.4543Y-2.624
M15
G01X9.4543Y-2.5965
M16
G05
G00X9.4543Y-2.8138
M15
G01X9.4543Y-2.7862
M16
G05
G00X9.7417Y-2.624
M15
G01X9.7417Y-2.5965
M16
G05
G00X9.7417Y-2.8138
M15
G01X9.7417Y-2.7862
M16
G05
T0
M30
