M48
; DRILL file {KiCad (5.1.6)-1} date 08/27/20 23:19:41
; FORMAT={-:-/ absolute / inch / decimal}
; #@! TF.CreationDate,2020-08-27T23:19:41-05:00
; #@! TF.GenerationSoftware,Kicad,Pcbnew,(5.1.6)-1
; #@! TF.FileFunction,Plated,1,2,PTH
FMAT,2
INCH
T1C0.0157
T2C0.0276
T3C0.0315
T4C0.0394
T5C0.0400
%
G90
G05
T1
X4.9228Y-4.4437
X5.0303Y-4.5047
X5.1213Y-4.6016
X5.1213Y-4.8591
X5.1504Y-4.7363
X5.1504Y-5.0303
X5.1797Y-4.8672
X5.1797Y-5.0591
X5.25Y-4.1719
X5.3281Y-4.2109
X5.3933Y-4.4764
X5.3937Y-4.5173
X5.3938Y-4.5576
X5.3943Y-4.5975
X5.5614Y-4.4087
X5.5969Y-4.1282
X5.6193Y-4.3508
X5.7823Y-4.8033
X5.7846Y-4.6931
X5.8434Y-4.7108
X5.8516Y-4.1016
X5.8724Y-5.0567
X5.9297Y-4.4922
X5.9354Y-5.0567
X5.9411Y-4.8018
X5.9945Y-4.3783
X6.0764Y-4.8728
X6.0795Y-3.7756
T2
X4.8045Y-4.4075
X4.8045Y-4.4705
X4.8518Y-4.376
X4.8518Y-4.439
X4.8518Y-4.502
T4
X5.3051Y-3.7303
X5.4051Y-3.7303
X5.5051Y-3.7303
X5.6051Y-3.7303
X5.7051Y-3.7303
X5.8051Y-3.7303
X5.9051Y-3.7303
X6.0051Y-3.7303
X5.3051Y-5.128
X5.4051Y-5.128
X5.5051Y-5.128
X5.6051Y-5.128
X5.7051Y-5.128
X5.8051Y-5.128
X5.9051Y-5.128
X6.0051Y-5.128
X6.1496Y-3.7323
X6.1496Y-3.8323
X6.1496Y-3.9323
X6.1496Y-4.0323
X6.1496Y-4.1323
X6.1496Y-4.2323
X6.1496Y-4.3323
X6.1496Y-4.4323
X6.1496Y-4.5323
X6.1496Y-4.6323
X6.1496Y-4.7323
X6.1496Y-4.8323
X6.1496Y-4.9323
X6.1496Y-5.0323
X6.1496Y-5.1323
X6.1496Y-5.2323
T5
X4.813Y-4.9591
X4.813Y-5.0591
X4.913Y-4.9591
X4.913Y-5.0591
X5.013Y-4.9591
X5.013Y-5.0591
T3
G00X4.6521Y-4.2953
M15
G01X4.6246Y-4.2953
M16
G05
G00X4.6521Y-4.5827
M15
G01X4.6246Y-4.5827
M16
G05
G00X4.8419Y-4.2953
M15
G01X4.8143Y-4.2953
M16
G05
G00X4.8419Y-4.5827
M15
G01X4.8143Y-4.5827
M16
G05
T0
M30
