G04 #@! TF.GenerationSoftware,KiCad,Pcbnew,(5.1.6)-1*
G04 #@! TF.CreationDate,2020-08-27T23:19:36-05:00*
G04 #@! TF.ProjectId,PikateaTPM,50696b61-7465-4615-9450-4d2e6b696361,rev?*
G04 #@! TF.SameCoordinates,Original*
G04 #@! TF.FileFunction,Copper,L1,Top*
G04 #@! TF.FilePolarity,Positive*
%FSLAX46Y46*%
G04 Gerber Fmt 4.6, Leading zero omitted, Abs format (unit mm)*
G04 Created by KiCad (PCBNEW (5.1.6)-1) date 2020-08-27 23:19:36*
%MOMM*%
%LPD*%
G01*
G04 APERTURE LIST*
G04 #@! TA.AperFunction,ComponentPad*
%ADD10R,1.700000X1.700000*%
G04 #@! TD*
G04 #@! TA.AperFunction,ComponentPad*
%ADD11O,1.700000X1.700000*%
G04 #@! TD*
G04 #@! TA.AperFunction,SMDPad,CuDef*
%ADD12R,1.400000X1.200000*%
G04 #@! TD*
G04 #@! TA.AperFunction,ComponentPad*
%ADD13O,1.727200X1.727200*%
G04 #@! TD*
G04 #@! TA.AperFunction,ComponentPad*
%ADD14R,1.727200X1.727200*%
G04 #@! TD*
G04 #@! TA.AperFunction,SMDPad,CuDef*
%ADD15R,1.500000X0.550000*%
G04 #@! TD*
G04 #@! TA.AperFunction,SMDPad,CuDef*
%ADD16R,0.550000X1.500000*%
G04 #@! TD*
G04 #@! TA.AperFunction,ComponentPad*
%ADD17O,1.900000X1.200000*%
G04 #@! TD*
G04 #@! TA.AperFunction,ComponentPad*
%ADD18C,1.100000*%
G04 #@! TD*
G04 #@! TA.AperFunction,ViaPad*
%ADD19C,0.800000*%
G04 #@! TD*
G04 #@! TA.AperFunction,Conductor*
%ADD20C,0.250000*%
G04 #@! TD*
G04 #@! TA.AperFunction,Conductor*
%ADD21C,0.200000*%
G04 #@! TD*
G04 #@! TA.AperFunction,Conductor*
%ADD22C,0.254000*%
G04 #@! TD*
G04 APERTURE END LIST*
G04 #@! TA.AperFunction,SMDPad,CuDef*
G36*
G01*
X128732921Y-109279964D02*
X128732921Y-110192464D01*
G75*
G02*
X128489171Y-110436214I-243750J0D01*
G01*
X128001671Y-110436214D01*
G75*
G02*
X127757921Y-110192464I0J243750D01*
G01*
X127757921Y-109279964D01*
G75*
G02*
X128001671Y-109036214I243750J0D01*
G01*
X128489171Y-109036214D01*
G75*
G02*
X128732921Y-109279964I0J-243750D01*
G01*
G37*
G04 #@! TD.AperFunction*
G04 #@! TA.AperFunction,SMDPad,CuDef*
G36*
G01*
X130607921Y-109279964D02*
X130607921Y-110192464D01*
G75*
G02*
X130364171Y-110436214I-243750J0D01*
G01*
X129876671Y-110436214D01*
G75*
G02*
X129632921Y-110192464I0J243750D01*
G01*
X129632921Y-109279964D01*
G75*
G02*
X129876671Y-109036214I243750J0D01*
G01*
X130364171Y-109036214D01*
G75*
G02*
X130607921Y-109279964I0J-243750D01*
G01*
G37*
G04 #@! TD.AperFunction*
G04 #@! TA.AperFunction,SMDPad,CuDef*
G36*
G01*
X128732921Y-111264344D02*
X128732921Y-112176844D01*
G75*
G02*
X128489171Y-112420594I-243750J0D01*
G01*
X128001671Y-112420594D01*
G75*
G02*
X127757921Y-112176844I0J243750D01*
G01*
X127757921Y-111264344D01*
G75*
G02*
X128001671Y-111020594I243750J0D01*
G01*
X128489171Y-111020594D01*
G75*
G02*
X128732921Y-111264344I0J-243750D01*
G01*
G37*
G04 #@! TD.AperFunction*
G04 #@! TA.AperFunction,SMDPad,CuDef*
G36*
G01*
X130607921Y-111264344D02*
X130607921Y-112176844D01*
G75*
G02*
X130364171Y-112420594I-243750J0D01*
G01*
X129876671Y-112420594D01*
G75*
G02*
X129632921Y-112176844I0J243750D01*
G01*
X129632921Y-111264344D01*
G75*
G02*
X129876671Y-111020594I243750J0D01*
G01*
X130364171Y-111020594D01*
G75*
G02*
X130607921Y-111264344I0J-243750D01*
G01*
G37*
G04 #@! TD.AperFunction*
G04 #@! TA.AperFunction,SMDPad,CuDef*
G36*
G01*
X132298772Y-121298742D02*
X133211272Y-121298742D01*
G75*
G02*
X133455022Y-121542492I0J-243750D01*
G01*
X133455022Y-122029992D01*
G75*
G02*
X133211272Y-122273742I-243750J0D01*
G01*
X132298772Y-122273742D01*
G75*
G02*
X132055022Y-122029992I0J243750D01*
G01*
X132055022Y-121542492D01*
G75*
G02*
X132298772Y-121298742I243750J0D01*
G01*
G37*
G04 #@! TD.AperFunction*
G04 #@! TA.AperFunction,SMDPad,CuDef*
G36*
G01*
X132298772Y-119423742D02*
X133211272Y-119423742D01*
G75*
G02*
X133455022Y-119667492I0J-243750D01*
G01*
X133455022Y-120154992D01*
G75*
G02*
X133211272Y-120398742I-243750J0D01*
G01*
X132298772Y-120398742D01*
G75*
G02*
X132055022Y-120154992I0J243750D01*
G01*
X132055022Y-119667492D01*
G75*
G02*
X132298772Y-119423742I243750J0D01*
G01*
G37*
G04 #@! TD.AperFunction*
G04 #@! TA.AperFunction,SMDPad,CuDef*
G36*
G01*
X138568866Y-102936198D02*
X137656366Y-102936198D01*
G75*
G02*
X137412616Y-102692448I0J243750D01*
G01*
X137412616Y-102204948D01*
G75*
G02*
X137656366Y-101961198I243750J0D01*
G01*
X138568866Y-101961198D01*
G75*
G02*
X138812616Y-102204948I0J-243750D01*
G01*
X138812616Y-102692448D01*
G75*
G02*
X138568866Y-102936198I-243750J0D01*
G01*
G37*
G04 #@! TD.AperFunction*
G04 #@! TA.AperFunction,SMDPad,CuDef*
G36*
G01*
X138568866Y-104811198D02*
X137656366Y-104811198D01*
G75*
G02*
X137412616Y-104567448I0J243750D01*
G01*
X137412616Y-104079948D01*
G75*
G02*
X137656366Y-103836198I243750J0D01*
G01*
X138568866Y-103836198D01*
G75*
G02*
X138812616Y-104079948I0J-243750D01*
G01*
X138812616Y-104567448D01*
G75*
G02*
X138568866Y-104811198I-243750J0D01*
G01*
G37*
G04 #@! TD.AperFunction*
G04 #@! TA.AperFunction,SMDPad,CuDef*
G36*
G01*
X130433140Y-114247164D02*
X129520640Y-114247164D01*
G75*
G02*
X129276890Y-114003414I0J243750D01*
G01*
X129276890Y-113515914D01*
G75*
G02*
X129520640Y-113272164I243750J0D01*
G01*
X130433140Y-113272164D01*
G75*
G02*
X130676890Y-113515914I0J-243750D01*
G01*
X130676890Y-114003414D01*
G75*
G02*
X130433140Y-114247164I-243750J0D01*
G01*
G37*
G04 #@! TD.AperFunction*
G04 #@! TA.AperFunction,SMDPad,CuDef*
G36*
G01*
X130433140Y-116122164D02*
X129520640Y-116122164D01*
G75*
G02*
X129276890Y-115878414I0J243750D01*
G01*
X129276890Y-115390914D01*
G75*
G02*
X129520640Y-115147164I243750J0D01*
G01*
X130433140Y-115147164D01*
G75*
G02*
X130676890Y-115390914I0J-243750D01*
G01*
X130676890Y-115878414D01*
G75*
G02*
X130433140Y-116122164I-243750J0D01*
G01*
G37*
G04 #@! TD.AperFunction*
G04 #@! TA.AperFunction,SMDPad,CuDef*
G36*
G01*
X137576908Y-124169064D02*
X136664408Y-124169064D01*
G75*
G02*
X136420658Y-123925314I0J243750D01*
G01*
X136420658Y-123437814D01*
G75*
G02*
X136664408Y-123194064I243750J0D01*
G01*
X137576908Y-123194064D01*
G75*
G02*
X137820658Y-123437814I0J-243750D01*
G01*
X137820658Y-123925314D01*
G75*
G02*
X137576908Y-124169064I-243750J0D01*
G01*
G37*
G04 #@! TD.AperFunction*
G04 #@! TA.AperFunction,SMDPad,CuDef*
G36*
G01*
X137576908Y-126044064D02*
X136664408Y-126044064D01*
G75*
G02*
X136420658Y-125800314I0J243750D01*
G01*
X136420658Y-125312814D01*
G75*
G02*
X136664408Y-125069064I243750J0D01*
G01*
X137576908Y-125069064D01*
G75*
G02*
X137820658Y-125312814I0J-243750D01*
G01*
X137820658Y-125800314D01*
G75*
G02*
X137576908Y-126044064I-243750J0D01*
G01*
G37*
G04 #@! TD.AperFunction*
G04 #@! TA.AperFunction,SMDPad,CuDef*
G36*
G01*
X143411300Y-125069064D02*
X144323800Y-125069064D01*
G75*
G02*
X144567550Y-125312814I0J-243750D01*
G01*
X144567550Y-125800314D01*
G75*
G02*
X144323800Y-126044064I-243750J0D01*
G01*
X143411300Y-126044064D01*
G75*
G02*
X143167550Y-125800314I0J243750D01*
G01*
X143167550Y-125312814D01*
G75*
G02*
X143411300Y-125069064I243750J0D01*
G01*
G37*
G04 #@! TD.AperFunction*
G04 #@! TA.AperFunction,SMDPad,CuDef*
G36*
G01*
X143411300Y-123194064D02*
X144323800Y-123194064D01*
G75*
G02*
X144567550Y-123437814I0J-243750D01*
G01*
X144567550Y-123925314D01*
G75*
G02*
X144323800Y-124169064I-243750J0D01*
G01*
X143411300Y-124169064D01*
G75*
G02*
X143167550Y-123925314I0J243750D01*
G01*
X143167550Y-123437814D01*
G75*
G02*
X143411300Y-123194064I243750J0D01*
G01*
G37*
G04 #@! TD.AperFunction*
G04 #@! TA.AperFunction,SMDPad,CuDef*
G36*
G01*
X126406572Y-115431542D02*
X126406572Y-116344042D01*
G75*
G02*
X126162822Y-116587792I-243750J0D01*
G01*
X125675322Y-116587792D01*
G75*
G02*
X125431572Y-116344042I0J243750D01*
G01*
X125431572Y-115431542D01*
G75*
G02*
X125675322Y-115187792I243750J0D01*
G01*
X126162822Y-115187792D01*
G75*
G02*
X126406572Y-115431542I0J-243750D01*
G01*
G37*
G04 #@! TD.AperFunction*
G04 #@! TA.AperFunction,SMDPad,CuDef*
G36*
G01*
X128281572Y-115431542D02*
X128281572Y-116344042D01*
G75*
G02*
X128037822Y-116587792I-243750J0D01*
G01*
X127550322Y-116587792D01*
G75*
G02*
X127306572Y-116344042I0J243750D01*
G01*
X127306572Y-115431542D01*
G75*
G02*
X127550322Y-115187792I243750J0D01*
G01*
X128037822Y-115187792D01*
G75*
G02*
X128281572Y-115431542I0J-243750D01*
G01*
G37*
G04 #@! TD.AperFunction*
G04 #@! TA.AperFunction,SMDPad,CuDef*
G36*
G01*
X132615736Y-107896966D02*
X131703236Y-107896966D01*
G75*
G02*
X131459486Y-107653216I0J243750D01*
G01*
X131459486Y-107165716D01*
G75*
G02*
X131703236Y-106921966I243750J0D01*
G01*
X132615736Y-106921966D01*
G75*
G02*
X132859486Y-107165716I0J-243750D01*
G01*
X132859486Y-107653216D01*
G75*
G02*
X132615736Y-107896966I-243750J0D01*
G01*
G37*
G04 #@! TD.AperFunction*
G04 #@! TA.AperFunction,SMDPad,CuDef*
G36*
G01*
X132615736Y-109771966D02*
X131703236Y-109771966D01*
G75*
G02*
X131459486Y-109528216I0J243750D01*
G01*
X131459486Y-109040716D01*
G75*
G02*
X131703236Y-108796966I243750J0D01*
G01*
X132615736Y-108796966D01*
G75*
G02*
X132859486Y-109040716I0J-243750D01*
G01*
X132859486Y-109528216D01*
G75*
G02*
X132615736Y-109771966I-243750J0D01*
G01*
G37*
G04 #@! TD.AperFunction*
G04 #@! TA.AperFunction,SMDPad,CuDef*
G36*
G01*
X135586278Y-104437762D02*
X135586278Y-103525262D01*
G75*
G02*
X135830028Y-103281512I243750J0D01*
G01*
X136317528Y-103281512D01*
G75*
G02*
X136561278Y-103525262I0J-243750D01*
G01*
X136561278Y-104437762D01*
G75*
G02*
X136317528Y-104681512I-243750J0D01*
G01*
X135830028Y-104681512D01*
G75*
G02*
X135586278Y-104437762I0J243750D01*
G01*
G37*
G04 #@! TD.AperFunction*
G04 #@! TA.AperFunction,SMDPad,CuDef*
G36*
G01*
X133711278Y-104437762D02*
X133711278Y-103525262D01*
G75*
G02*
X133955028Y-103281512I243750J0D01*
G01*
X134442528Y-103281512D01*
G75*
G02*
X134686278Y-103525262I0J-243750D01*
G01*
X134686278Y-104437762D01*
G75*
G02*
X134442528Y-104681512I-243750J0D01*
G01*
X133955028Y-104681512D01*
G75*
G02*
X133711278Y-104437762I0J243750D01*
G01*
G37*
G04 #@! TD.AperFunction*
G04 #@! TA.AperFunction,SMDPad,CuDef*
G36*
G01*
X148769126Y-115544040D02*
X149681626Y-115544040D01*
G75*
G02*
X149925376Y-115787790I0J-243750D01*
G01*
X149925376Y-116275290D01*
G75*
G02*
X149681626Y-116519040I-243750J0D01*
G01*
X148769126Y-116519040D01*
G75*
G02*
X148525376Y-116275290I0J243750D01*
G01*
X148525376Y-115787790D01*
G75*
G02*
X148769126Y-115544040I243750J0D01*
G01*
G37*
G04 #@! TD.AperFunction*
G04 #@! TA.AperFunction,SMDPad,CuDef*
G36*
G01*
X148769126Y-113669040D02*
X149681626Y-113669040D01*
G75*
G02*
X149925376Y-113912790I0J-243750D01*
G01*
X149925376Y-114400290D01*
G75*
G02*
X149681626Y-114644040I-243750J0D01*
G01*
X148769126Y-114644040D01*
G75*
G02*
X148525376Y-114400290I0J243750D01*
G01*
X148525376Y-113912790D01*
G75*
G02*
X148769126Y-113669040I243750J0D01*
G01*
G37*
G04 #@! TD.AperFunction*
G04 #@! TA.AperFunction,SMDPad,CuDef*
G36*
G01*
X145401685Y-103723525D02*
X145401685Y-104636025D01*
G75*
G02*
X145157935Y-104879775I-243750J0D01*
G01*
X144670435Y-104879775D01*
G75*
G02*
X144426685Y-104636025I0J243750D01*
G01*
X144426685Y-103723525D01*
G75*
G02*
X144670435Y-103479775I243750J0D01*
G01*
X145157935Y-103479775D01*
G75*
G02*
X145401685Y-103723525I0J-243750D01*
G01*
G37*
G04 #@! TD.AperFunction*
G04 #@! TA.AperFunction,SMDPad,CuDef*
G36*
G01*
X147276685Y-103723525D02*
X147276685Y-104636025D01*
G75*
G02*
X147032935Y-104879775I-243750J0D01*
G01*
X146545435Y-104879775D01*
G75*
G02*
X146301685Y-104636025I0J243750D01*
G01*
X146301685Y-103723525D01*
G75*
G02*
X146545435Y-103479775I243750J0D01*
G01*
X147032935Y-103479775D01*
G75*
G02*
X147276685Y-103723525I0J-243750D01*
G01*
G37*
G04 #@! TD.AperFunction*
G04 #@! TA.AperFunction,SMDPad,CuDef*
G36*
G01*
X134679801Y-121893852D02*
X135592301Y-121893852D01*
G75*
G02*
X135836051Y-122137602I0J-243750D01*
G01*
X135836051Y-122625102D01*
G75*
G02*
X135592301Y-122868852I-243750J0D01*
G01*
X134679801Y-122868852D01*
G75*
G02*
X134436051Y-122625102I0J243750D01*
G01*
X134436051Y-122137602D01*
G75*
G02*
X134679801Y-121893852I243750J0D01*
G01*
G37*
G04 #@! TD.AperFunction*
G04 #@! TA.AperFunction,SMDPad,CuDef*
G36*
G01*
X134679801Y-120018852D02*
X135592301Y-120018852D01*
G75*
G02*
X135836051Y-120262602I0J-243750D01*
G01*
X135836051Y-120750102D01*
G75*
G02*
X135592301Y-120993852I-243750J0D01*
G01*
X134679801Y-120993852D01*
G75*
G02*
X134436051Y-120750102I0J243750D01*
G01*
X134436051Y-120262602D01*
G75*
G02*
X134679801Y-120018852I243750J0D01*
G01*
G37*
G04 #@! TD.AperFunction*
D10*
X156200000Y-94800000D03*
D11*
X156200000Y-97340000D03*
X156200000Y-99880000D03*
X156200000Y-102420000D03*
X156200000Y-104960000D03*
X156200000Y-107500000D03*
X156200000Y-110040000D03*
X156200000Y-112580000D03*
X156200000Y-115120000D03*
X156200000Y-117660000D03*
X156200000Y-120200000D03*
X156200000Y-122740000D03*
X156200000Y-125280000D03*
X156200000Y-127820000D03*
X156200000Y-130360000D03*
X156200000Y-132900000D03*
D12*
X141593868Y-124625104D03*
X139393868Y-124625104D03*
X139393868Y-123025104D03*
X141593868Y-123025104D03*
D13*
X127330000Y-125960000D03*
X127330000Y-128500000D03*
X124790000Y-125960000D03*
X124790000Y-128500000D03*
X122250000Y-125960000D03*
D14*
X122250000Y-128500000D03*
D11*
X152530000Y-94750000D03*
X149990000Y-94750000D03*
X147450000Y-94750000D03*
X144910000Y-94750000D03*
X142370000Y-94750000D03*
X139830000Y-94750000D03*
X137290000Y-94750000D03*
D10*
X134750000Y-94750000D03*
D11*
X152530000Y-130250000D03*
X149990000Y-130250000D03*
X147450000Y-130250000D03*
X144910000Y-130250000D03*
X142370000Y-130250000D03*
X139830000Y-130250000D03*
X137290000Y-130250000D03*
D10*
X134750000Y-130250000D03*
D15*
X134793868Y-108514157D03*
X134793868Y-109314157D03*
X134793868Y-110114157D03*
X134793868Y-110914157D03*
X134793868Y-111714157D03*
X134793868Y-112514157D03*
X134793868Y-113314157D03*
X134793868Y-114114157D03*
X134793868Y-114914157D03*
X134793868Y-115714157D03*
X134793868Y-116514157D03*
D16*
X136493868Y-118214157D03*
X137293868Y-118214157D03*
X138093868Y-118214157D03*
X138893868Y-118214157D03*
X139693868Y-118214157D03*
X140493868Y-118214157D03*
X141293868Y-118214157D03*
X142093868Y-118214157D03*
X142893868Y-118214157D03*
X143693868Y-118214157D03*
X144493868Y-118214157D03*
D15*
X146193868Y-116514157D03*
X146193868Y-115714157D03*
X146193868Y-114914157D03*
X146193868Y-114114157D03*
X146193868Y-113314157D03*
X146193868Y-112514157D03*
X146193868Y-111714157D03*
X146193868Y-110914157D03*
X146193868Y-110114157D03*
X146193868Y-109314157D03*
X146193868Y-108514157D03*
D16*
X144493868Y-106814157D03*
X143693868Y-106814157D03*
X142893868Y-106814157D03*
X142093868Y-106814157D03*
X141293868Y-106814157D03*
X140493868Y-106814157D03*
X139693868Y-106814157D03*
X138893868Y-106814157D03*
X138093868Y-106814157D03*
X137293868Y-106814157D03*
X136493868Y-106814157D03*
D17*
X117814478Y-116400000D03*
X117814478Y-109100000D03*
D18*
X123234478Y-114350000D03*
X122034478Y-113550000D03*
X123234478Y-112750000D03*
X122034478Y-111950000D03*
X123234478Y-111150000D03*
D17*
X122634478Y-109100000D03*
X122634478Y-116400000D03*
D19*
X152260000Y-111210000D03*
X154340000Y-123770000D03*
X149160000Y-128440000D03*
X150760000Y-128440000D03*
X154420000Y-95900000D03*
X130080000Y-123420000D03*
X125040000Y-112870000D03*
X127770000Y-114420000D03*
X130080000Y-116879982D03*
X133350135Y-105965691D03*
X148630062Y-104179950D03*
X150614442Y-114101850D03*
X137000000Y-114740000D03*
X137002653Y-115762653D03*
X146870000Y-122005038D03*
X136990000Y-113700000D03*
X131564173Y-128500000D03*
X131564173Y-123626653D03*
X148422005Y-119655020D03*
X150904817Y-121965000D03*
X142162508Y-104857492D03*
X135334716Y-106958082D03*
X130820000Y-127770000D03*
X130820000Y-120302786D03*
X146930000Y-119205010D03*
X137015306Y-116775306D03*
X142730000Y-110510000D03*
X141260000Y-111980000D03*
D20*
X136458025Y-111714157D02*
X137958025Y-110214157D01*
X134793868Y-111714157D02*
X136458025Y-111714157D01*
X141993868Y-113314157D02*
X141993868Y-110214157D01*
X141993868Y-110214157D02*
X143693868Y-108514157D01*
X137958025Y-110214157D02*
X137293868Y-109550000D01*
X137958025Y-110214157D02*
X137958025Y-110214157D01*
X141993868Y-110214157D02*
X137958025Y-110214157D01*
X137293868Y-106814157D02*
X137293868Y-109550000D01*
X138893868Y-116414157D02*
X141993868Y-113314157D01*
X138893868Y-118214157D02*
X138893868Y-116414157D01*
X145193868Y-116514157D02*
X141993868Y-113314157D01*
X146193868Y-116514157D02*
X145193868Y-116514157D01*
X146193868Y-108514157D02*
X143693868Y-108514157D01*
X139708866Y-123025104D02*
X141308866Y-124625104D01*
X141308866Y-124625104D02*
X141593868Y-124625104D01*
X139393868Y-123025104D02*
X139708866Y-123025104D01*
X139393868Y-123025104D02*
X139393868Y-122175104D01*
X139393868Y-122175104D02*
X140080000Y-121488972D01*
X143693868Y-106814157D02*
X143693868Y-108514157D01*
X129976890Y-113759664D02*
X131509704Y-113759664D01*
X134793868Y-111714157D02*
X133158335Y-111714157D01*
X131762832Y-113109660D02*
X131762832Y-113506536D01*
X133158335Y-111714157D02*
X131762832Y-113109660D01*
X131509704Y-113759664D02*
X131762832Y-113506536D01*
X137293868Y-105201602D02*
X136073778Y-103981512D01*
X137293868Y-106814157D02*
X137293868Y-105201602D01*
X136073778Y-103981512D02*
X136073778Y-102845574D01*
X136470654Y-102448698D02*
X138112616Y-102448698D01*
X136073778Y-102845574D02*
X136470654Y-102448698D01*
X143693868Y-106814157D02*
X143693868Y-104552070D01*
X144066163Y-104179775D02*
X144914185Y-104179775D01*
X143693868Y-104552070D02*
X144066163Y-104179775D01*
X146193868Y-116514157D02*
X147408383Y-116514157D01*
X147891000Y-116031540D02*
X149225376Y-116031540D01*
X147408383Y-116514157D02*
X147891000Y-116031540D01*
X141593868Y-124625104D02*
X142682962Y-124625104D01*
X143867550Y-125556564D02*
X143614422Y-125556564D01*
X143614422Y-125556564D02*
X142682962Y-124625104D01*
X138893868Y-118214157D02*
X138893868Y-119869284D01*
X137120658Y-121642494D02*
X137120658Y-123681564D01*
X138893868Y-119869284D02*
X137120658Y-121642494D01*
X137120658Y-123681564D02*
X135786282Y-123681564D01*
X135136051Y-123031333D02*
X135786282Y-123681564D01*
X135136051Y-122381352D02*
X135136051Y-123031333D01*
X137120658Y-123681564D02*
X135875340Y-123681564D01*
X135875340Y-123681564D02*
X135533154Y-124023750D01*
X135533154Y-124023750D02*
X135533154Y-126206568D01*
X135533154Y-126206568D02*
X136128468Y-126801882D01*
X136128468Y-126801882D02*
X138311286Y-126801882D01*
X138311286Y-126801882D02*
X139303476Y-125809692D01*
X141493868Y-124625104D02*
X141593868Y-124625104D01*
X140309280Y-125809692D02*
X141493868Y-124625104D01*
X139303476Y-125809692D02*
X140309280Y-125809692D01*
X138093868Y-118214157D02*
X138093868Y-119214157D01*
X133740738Y-113314157D02*
X133350112Y-113704783D01*
X134793868Y-113314157D02*
X133740738Y-113314157D01*
X125040000Y-112870000D02*
X126220000Y-112870000D01*
X126220000Y-112870000D02*
X127770000Y-114420000D01*
X127770000Y-115863720D02*
X127794072Y-115887792D01*
X127770000Y-114420000D02*
X127770000Y-115863720D01*
X127794072Y-115887792D02*
X128786262Y-116879982D01*
X133350112Y-114498950D02*
X133350112Y-113704783D01*
X130969080Y-116879982D02*
X133350112Y-114498950D01*
X128786262Y-116879982D02*
X130080000Y-116879982D01*
X130080000Y-116879982D02*
X130969080Y-116879982D01*
X132189177Y-109314157D02*
X132159486Y-109284466D01*
X134793868Y-109314157D02*
X132189177Y-109314157D01*
X134198778Y-103981512D02*
X134198778Y-97973682D01*
X134750000Y-97422460D02*
X134750000Y-94750000D01*
X134198778Y-97973682D02*
X134750000Y-97422460D01*
X133350135Y-108093817D02*
X133350135Y-105965691D01*
X132159486Y-109284466D02*
X133350135Y-108093817D01*
X133350135Y-104830155D02*
X134198778Y-103981512D01*
X133350135Y-105965691D02*
X133350135Y-104830155D01*
X134786278Y-103981512D02*
X135136278Y-104331512D01*
X134198778Y-103981512D02*
X134786278Y-103981512D01*
X136493868Y-106339157D02*
X136493868Y-106814157D01*
X135136278Y-104981567D02*
X136493868Y-106339157D01*
X135136278Y-104331512D02*
X135136278Y-104981567D01*
X144493868Y-105814157D02*
X144937447Y-105370578D01*
X144493868Y-106814157D02*
X144493868Y-105814157D01*
X144937447Y-105370578D02*
X145598382Y-105370578D01*
X146789185Y-104179775D02*
X146789185Y-105028637D01*
X146447244Y-105370578D02*
X146050368Y-105370578D01*
X146789185Y-105028637D02*
X146447244Y-105370578D01*
X145598382Y-105370578D02*
X146050368Y-105370578D01*
X146050368Y-105370578D02*
X146248806Y-105370578D01*
X148629887Y-104179775D02*
X148630062Y-104179950D01*
X146789185Y-104179775D02*
X148629887Y-104179775D01*
X147193868Y-115714157D02*
X148034748Y-114873277D01*
X146193868Y-115714157D02*
X147193868Y-115714157D01*
X148034748Y-114547168D02*
X148034748Y-114873277D01*
X148425376Y-114156540D02*
X148034748Y-114547168D01*
X149225376Y-114156540D02*
X148425376Y-114156540D01*
X149225376Y-114156540D02*
X150559752Y-114156540D01*
X150559752Y-114156540D02*
X150614442Y-114101850D01*
X130080000Y-123420000D02*
X130080000Y-124325298D01*
X130572204Y-124817502D02*
X132159708Y-124817502D01*
X130080000Y-124325298D02*
X130572204Y-124817502D01*
X136801673Y-120506352D02*
X138093868Y-119214157D01*
X135136051Y-120506352D02*
X136801673Y-120506352D01*
X132755022Y-124222188D02*
X132159708Y-124817502D01*
X132755022Y-121786242D02*
X132755022Y-124222188D01*
X132755022Y-121786242D02*
X133801902Y-121786242D01*
X133801902Y-121786242D02*
X133945650Y-121642494D01*
X133945650Y-120759276D02*
X134198574Y-120506352D01*
X133945650Y-121642494D02*
X133945650Y-120759276D01*
X134198574Y-120506352D02*
X135136051Y-120506352D01*
X140493868Y-118214157D02*
X140493868Y-120683868D01*
X141593868Y-121783868D02*
X141593868Y-123025104D01*
X140493868Y-120683868D02*
X141593868Y-121783868D01*
X141593868Y-123025104D02*
X142868904Y-123025104D01*
X143867550Y-123681564D02*
X143525364Y-123681564D01*
X143525364Y-123681564D02*
X142868904Y-123025104D01*
X138443868Y-124625104D02*
X139393868Y-124625104D01*
X138260000Y-124441236D02*
X138443868Y-124625104D01*
X138260000Y-122110000D02*
X138260000Y-124441236D01*
X139693868Y-120676132D02*
X138260000Y-122110000D01*
X139693868Y-118214157D02*
X139693868Y-120676132D01*
X137120658Y-125556564D02*
X138365976Y-125556564D01*
X139293868Y-124625104D02*
X139393868Y-124625104D01*
X138365976Y-125552996D02*
X139293868Y-124625104D01*
X138365976Y-125556564D02*
X138365976Y-125552996D01*
X129976890Y-115634664D02*
X131023770Y-115634664D01*
X131023770Y-115634664D02*
X132529239Y-114129195D01*
X133494273Y-112514157D02*
X132529239Y-113479191D01*
X134793868Y-112514157D02*
X133494273Y-112514157D01*
X132529239Y-114129195D02*
X132529239Y-113479191D01*
X138093868Y-104198523D02*
X138112616Y-104179775D01*
X138093868Y-104342446D02*
X138112616Y-104323698D01*
X138093868Y-106814157D02*
X138093868Y-104342446D01*
D21*
X123680000Y-110110000D02*
X124073218Y-110503218D01*
X122034478Y-111950000D02*
X122034478Y-110745522D01*
X122034478Y-110745522D02*
X122670000Y-110110000D01*
X122670000Y-110110000D02*
X123680000Y-110110000D01*
X124073218Y-110503218D02*
X126280000Y-110503218D01*
X127478417Y-110503218D02*
X128245421Y-109736214D01*
X127370448Y-110503218D02*
X127478417Y-110503218D01*
X126280000Y-110503218D02*
X127370448Y-110503218D01*
X125240000Y-111620000D02*
X125240000Y-111093218D01*
X125080000Y-111780000D02*
X125240000Y-111620000D01*
X125240000Y-111093218D02*
X125380000Y-110953218D01*
X124700000Y-111620000D02*
X124860000Y-111780000D01*
X124700000Y-111100000D02*
X124700000Y-111620000D01*
X123234478Y-112750000D02*
X124012295Y-112750000D01*
X124012295Y-112750000D02*
X124240000Y-112522295D01*
X124240000Y-112522295D02*
X124240000Y-111110000D01*
X124860000Y-111780000D02*
X125080000Y-111780000D01*
X124240000Y-111110000D02*
X124396782Y-110953218D01*
X124396782Y-110953218D02*
X124553218Y-110953218D01*
X124553218Y-110953218D02*
X124700000Y-111100000D01*
X127478045Y-110953218D02*
X128245421Y-111720594D01*
X126577068Y-110953218D02*
X127478045Y-110953218D01*
X125380000Y-110953218D02*
X126577068Y-110953218D01*
D20*
X154160010Y-106999990D02*
X156250000Y-104910000D01*
X147521048Y-110914157D02*
X151435215Y-106999990D01*
X146193868Y-110914157D02*
X147521048Y-110914157D01*
X151435215Y-106999990D02*
X154160010Y-106999990D01*
X134793868Y-115714157D02*
X136025843Y-115714157D01*
X136025843Y-115714157D02*
X137000000Y-114740000D01*
X134793868Y-115714157D02*
X133630278Y-115714157D01*
X124790000Y-124554435D02*
X124790000Y-125960000D01*
X133630278Y-115714157D02*
X124790000Y-124554435D01*
X152070020Y-123590020D02*
X156250000Y-127770000D01*
X150231529Y-123590020D02*
X152070020Y-123590020D01*
X148371557Y-121730048D02*
X150231529Y-123590020D01*
X134793868Y-116514157D02*
X136251149Y-116514157D01*
X136251149Y-116514157D02*
X137002653Y-115762653D01*
X126060000Y-129200000D02*
X125370000Y-129890000D01*
X122250000Y-129613600D02*
X122250000Y-128500000D01*
X122526400Y-129890000D02*
X122250000Y-129613600D01*
X125370000Y-129890000D02*
X122526400Y-129890000D01*
X134793868Y-116514157D02*
X133466688Y-116514157D01*
X126060000Y-123920845D02*
X126060000Y-129200000D01*
X133466688Y-116514157D02*
X126060000Y-123920845D01*
X147129952Y-121730048D02*
X148371557Y-121730048D01*
X146870000Y-121990000D02*
X147129952Y-121730048D01*
X136990000Y-113718025D02*
X136990000Y-113700000D01*
X135793868Y-114914157D02*
X136990000Y-113718025D01*
X134793868Y-114914157D02*
X135793868Y-114914157D01*
X133793868Y-114914157D02*
X123520000Y-125188025D01*
X134793868Y-114914157D02*
X133793868Y-114914157D01*
X123520000Y-127230000D02*
X124790000Y-128500000D01*
X123520000Y-125188025D02*
X123520000Y-127230000D01*
X154160010Y-97740010D02*
X156250000Y-99830000D01*
X144465630Y-97740010D02*
X154160010Y-97740010D01*
X142293908Y-99911732D02*
X144465630Y-97740010D01*
X142293908Y-103786797D02*
X142293908Y-99911732D01*
X142893868Y-106814157D02*
X142893868Y-104386757D01*
X142893868Y-104386757D02*
X142293908Y-103786797D01*
X142093868Y-105814157D02*
X142093868Y-106814157D01*
X142093868Y-105814157D02*
X141393888Y-105114177D01*
X141393888Y-105114177D02*
X141393888Y-99538932D01*
X149990000Y-94750000D02*
X147900010Y-96839990D01*
X144092830Y-96839990D02*
X141393888Y-99538932D01*
X147900010Y-96839990D02*
X144092830Y-96839990D01*
X141293868Y-105814157D02*
X140943878Y-105464167D01*
X141293868Y-106814157D02*
X141293868Y-105814157D01*
X140943878Y-105464167D02*
X140943878Y-99352532D01*
X147450000Y-94750000D02*
X145810020Y-96389980D01*
X143906430Y-96389980D02*
X140943878Y-99352532D01*
X145810020Y-96389980D02*
X143906430Y-96389980D01*
X140493868Y-99166132D02*
X144910000Y-94750000D01*
X140493868Y-106814157D02*
X140493868Y-99166132D01*
X131531574Y-123594054D02*
X131564173Y-123626653D01*
X134750000Y-130250000D02*
X134750000Y-131350000D01*
X134750000Y-131350000D02*
X136300000Y-132900000D01*
X136300000Y-132900000D02*
X154997919Y-132900000D01*
X127330000Y-128500000D02*
X131564173Y-128500000D01*
X154997919Y-132900000D02*
X156200000Y-132900000D01*
X131564173Y-128500000D02*
X134100000Y-128500000D01*
X134100000Y-128500000D02*
X134750000Y-129150000D01*
X134750000Y-129150000D02*
X134750000Y-130250000D01*
X137293868Y-119024159D02*
X136858351Y-119459676D01*
X137293868Y-118214157D02*
X137293868Y-119024159D01*
X136858351Y-119459676D02*
X136128468Y-119459676D01*
X135731592Y-119062800D02*
X135731592Y-118613291D01*
X136128468Y-119459676D02*
X135731592Y-119062800D01*
X135731592Y-118613291D02*
X134845169Y-117726868D01*
X134845169Y-117726868D02*
X133526797Y-117726868D01*
X132755022Y-118498643D02*
X133526797Y-117726868D01*
X131564173Y-121102091D02*
X132755022Y-119911242D01*
X131564173Y-123626653D02*
X131564173Y-121102091D01*
X132755022Y-118498643D02*
X132755022Y-119911242D01*
X143693868Y-118214157D02*
X143693868Y-119214157D01*
X143693868Y-119214157D02*
X144409721Y-119930010D01*
X144409721Y-119930010D02*
X146640000Y-119930010D01*
X146640000Y-119930010D02*
X148147015Y-119930010D01*
X148147015Y-119930010D02*
X148422005Y-119655020D01*
X142893868Y-119214157D02*
X144059731Y-120380020D01*
X142893868Y-118214157D02*
X142893868Y-119214157D01*
X150904817Y-121965000D02*
X150515739Y-121965000D01*
X148930759Y-120380020D02*
X144059731Y-120380020D01*
X150515739Y-121965000D02*
X148930759Y-120380020D01*
X142093868Y-118214157D02*
X142093868Y-119050567D01*
X142093868Y-119050567D02*
X143873331Y-120830030D01*
X148744359Y-120830030D02*
X143873331Y-120830030D01*
X150604329Y-122690000D02*
X148744359Y-120830030D01*
X156250000Y-122690000D02*
X150604329Y-122690000D01*
X141293868Y-118214157D02*
X141293868Y-119214157D01*
X141293868Y-119214157D02*
X143359749Y-121280038D01*
X143359749Y-121280038D02*
X148557957Y-121280038D01*
X150417929Y-123140010D02*
X148557957Y-121280038D01*
X156250000Y-125230000D02*
X154346410Y-125230000D01*
X152256420Y-123140010D02*
X150417929Y-123140010D01*
X154346410Y-125230000D02*
X152256420Y-123140010D01*
X154300010Y-112980010D02*
X154760000Y-113440000D01*
X146193868Y-114914157D02*
X147193868Y-114914157D01*
X147520000Y-113624435D02*
X148164425Y-112980010D01*
X156250000Y-115070000D02*
X155047919Y-115070000D01*
X147193868Y-114914157D02*
X147520000Y-114588025D01*
X147520000Y-114588025D02*
X147520000Y-113624435D01*
X148164425Y-112980010D02*
X154300010Y-112980010D01*
X154760000Y-113440000D02*
X154760000Y-114782081D01*
X154760000Y-114782081D02*
X155047919Y-115070000D01*
X147684638Y-110114157D02*
X146193868Y-110114157D01*
X151248815Y-106549980D02*
X147684638Y-110114157D01*
X153970020Y-106549980D02*
X151248815Y-106549980D01*
X154870000Y-105650000D02*
X153970020Y-106549980D01*
X154870000Y-103750000D02*
X154870000Y-105650000D01*
X156250000Y-102370000D02*
X154870000Y-103750000D01*
X147193868Y-113314157D02*
X146193868Y-113314157D01*
X156250000Y-112530000D02*
X147978025Y-112530000D01*
X147978025Y-112530000D02*
X147193868Y-113314157D01*
X141843898Y-103973197D02*
X141843898Y-99725332D01*
X144279230Y-97290000D02*
X141843898Y-99725332D01*
X156250000Y-97290000D02*
X144279230Y-97290000D01*
X142162508Y-104291807D02*
X141843898Y-103973197D01*
X142162508Y-104857492D02*
X142162508Y-104291807D01*
X134793868Y-108514157D02*
X134793868Y-107498930D01*
X134793868Y-107498930D02*
X135334716Y-106958082D01*
X146193868Y-112514157D02*
X147193868Y-112514157D01*
X156250000Y-109990000D02*
X154160010Y-107900010D01*
X151808015Y-107900010D02*
X147193868Y-112514157D01*
X154160010Y-107900010D02*
X151808015Y-107900010D01*
X146193868Y-111714157D02*
X147357458Y-111714157D01*
X151621615Y-107450000D02*
X147357458Y-111714157D01*
X156250000Y-107450000D02*
X151621615Y-107450000D01*
X131385685Y-127770000D02*
X130820000Y-127770000D01*
X136012081Y-127770000D02*
X131385685Y-127770000D01*
X137290000Y-129047919D02*
X136012081Y-127770000D01*
X137290000Y-130250000D02*
X137290000Y-129047919D01*
X135968868Y-118214157D02*
X135031569Y-117276858D01*
X136493868Y-118214157D02*
X135968868Y-118214157D01*
X135031569Y-117276858D02*
X133340397Y-117276858D01*
X133340397Y-117276858D02*
X130820000Y-119797255D01*
X130820000Y-119797255D02*
X130820000Y-120302786D01*
X144493868Y-119214157D02*
X144759711Y-119480000D01*
X144493868Y-118214157D02*
X144493868Y-119214157D01*
X146655010Y-119480000D02*
X146930000Y-119205010D01*
X144970000Y-119480000D02*
X146655010Y-119480000D01*
X144759711Y-119480000D02*
X144970000Y-119480000D01*
X143925843Y-109314157D02*
X142730000Y-110510000D01*
X137454694Y-116775306D02*
X137015306Y-116775306D01*
X141260000Y-112970000D02*
X137454694Y-116775306D01*
X146193868Y-109314157D02*
X143925843Y-109314157D01*
X141260000Y-111980000D02*
X141260000Y-112970000D01*
X139693868Y-106814157D02*
X139693868Y-105814157D01*
X139693868Y-105814157D02*
X140043858Y-105464167D01*
X140043858Y-105464167D02*
X140043858Y-98979732D01*
X142370000Y-94750000D02*
X142370000Y-96653590D01*
X140043858Y-98979732D02*
X142370000Y-96653590D01*
X138893868Y-106814157D02*
X138893868Y-105814157D01*
X138893868Y-105814157D02*
X139593848Y-105114177D01*
X139593848Y-105114177D02*
X139593848Y-98793332D01*
X140679999Y-97707181D02*
X139593848Y-98793332D01*
X140679999Y-95599999D02*
X140679999Y-97707181D01*
X139830000Y-94750000D02*
X140679999Y-95599999D01*
D21*
X133668867Y-110914157D02*
X134793868Y-110914157D01*
X133493867Y-110739157D02*
X133668867Y-110914157D01*
X131784982Y-110953218D02*
X131999043Y-110739157D01*
X131999043Y-110739157D02*
X133493867Y-110739157D01*
X130887797Y-110953218D02*
X130120421Y-111720594D01*
X131193894Y-110953218D02*
X130887797Y-110953218D01*
X131193894Y-110953218D02*
X131784982Y-110953218D01*
X131812643Y-110289157D02*
X133493867Y-110289157D01*
X131598582Y-110503218D02*
X131812643Y-110289157D01*
X133493867Y-110289157D02*
X133668867Y-110114157D01*
X133668867Y-110114157D02*
X134793868Y-110114157D01*
X130887425Y-110503218D02*
X130120421Y-109736214D01*
X131194266Y-110503218D02*
X130887425Y-110503218D01*
X131194266Y-110503218D02*
X131598582Y-110503218D01*
D22*
G36*
X133448815Y-93448815D02*
G01*
X133369463Y-93545506D01*
X133310498Y-93655820D01*
X133274188Y-93775518D01*
X133261928Y-93900000D01*
X133261928Y-95600000D01*
X133274188Y-95724482D01*
X133310498Y-95844180D01*
X133369463Y-95954494D01*
X133448815Y-96051185D01*
X133545506Y-96130537D01*
X133655820Y-96189502D01*
X133775518Y-96225812D01*
X133900000Y-96238072D01*
X133990000Y-96238072D01*
X133990000Y-97107658D01*
X133687776Y-97409883D01*
X133658778Y-97433681D01*
X133634980Y-97462679D01*
X133634979Y-97462680D01*
X133563804Y-97549406D01*
X133493232Y-97681436D01*
X133465410Y-97773158D01*
X133449776Y-97824696D01*
X133447605Y-97846735D01*
X133435102Y-97973682D01*
X133438779Y-98011014D01*
X133438778Y-102813667D01*
X133331486Y-102901720D01*
X133221820Y-103035348D01*
X133140331Y-103187803D01*
X133090150Y-103353227D01*
X133073206Y-103525262D01*
X133073206Y-104032282D01*
X132839133Y-104266356D01*
X132810135Y-104290154D01*
X132786337Y-104319152D01*
X132786336Y-104319153D01*
X132715161Y-104405879D01*
X132644589Y-104537909D01*
X132640807Y-104550378D01*
X132601133Y-104681169D01*
X132595190Y-104741512D01*
X132586459Y-104830155D01*
X132590136Y-104867487D01*
X132590136Y-105261979D01*
X132546198Y-105305917D01*
X132432930Y-105475435D01*
X132354909Y-105663793D01*
X132315135Y-105863752D01*
X132315135Y-106067630D01*
X132354909Y-106267589D01*
X132387041Y-106345161D01*
X132286486Y-106445716D01*
X132286486Y-107282466D01*
X132306486Y-107282466D01*
X132306486Y-107536466D01*
X132286486Y-107536466D01*
X132286486Y-107556466D01*
X132032486Y-107556466D01*
X132032486Y-107536466D01*
X130983236Y-107536466D01*
X130824486Y-107695216D01*
X130821414Y-107896966D01*
X130833674Y-108021448D01*
X130869984Y-108141146D01*
X130928949Y-108251460D01*
X131008301Y-108348151D01*
X131086050Y-108411958D01*
X131079694Y-108417174D01*
X130970028Y-108550802D01*
X130936179Y-108614129D01*
X130854085Y-108546756D01*
X130701630Y-108465267D01*
X130536206Y-108415086D01*
X130364171Y-108398142D01*
X129876671Y-108398142D01*
X129704636Y-108415086D01*
X129539212Y-108465267D01*
X129386757Y-108546756D01*
X129253129Y-108656422D01*
X129182921Y-108741970D01*
X129112713Y-108656422D01*
X128979085Y-108546756D01*
X128826630Y-108465267D01*
X128661206Y-108415086D01*
X128489171Y-108398142D01*
X128001671Y-108398142D01*
X127829636Y-108415086D01*
X127664212Y-108465267D01*
X127511757Y-108546756D01*
X127378129Y-108656422D01*
X127268463Y-108790050D01*
X127186974Y-108942505D01*
X127136793Y-109107929D01*
X127119849Y-109279964D01*
X127119849Y-109768218D01*
X124377664Y-109768218D01*
X124225259Y-109615813D01*
X124202238Y-109587762D01*
X124140569Y-109537151D01*
X124174069Y-109455282D01*
X124177940Y-109417609D01*
X124053209Y-109227000D01*
X122761478Y-109227000D01*
X122761478Y-109247000D01*
X122507478Y-109247000D01*
X122507478Y-109227000D01*
X121215747Y-109227000D01*
X121091016Y-109417609D01*
X121094887Y-109455282D01*
X121187057Y-109680533D01*
X121321400Y-109883474D01*
X121492753Y-110056307D01*
X121607118Y-110133436D01*
X121540286Y-110200268D01*
X121512241Y-110223284D01*
X121420392Y-110335202D01*
X121379941Y-110410881D01*
X121352142Y-110462889D01*
X121310113Y-110601437D01*
X121295922Y-110745522D01*
X121299479Y-110781637D01*
X121299479Y-111015923D01*
X121279084Y-111029550D01*
X121114028Y-111194606D01*
X120984344Y-111388692D01*
X120895017Y-111604348D01*
X120849478Y-111833288D01*
X120849478Y-112066712D01*
X120895017Y-112295652D01*
X120984344Y-112511308D01*
X121114028Y-112705394D01*
X121158634Y-112750000D01*
X121114028Y-112794606D01*
X120984344Y-112988692D01*
X120895017Y-113204348D01*
X120849478Y-113433288D01*
X120849478Y-113666712D01*
X120895017Y-113895652D01*
X120984344Y-114111308D01*
X121114028Y-114305394D01*
X121279084Y-114470450D01*
X121473170Y-114600134D01*
X121688826Y-114689461D01*
X121917766Y-114735000D01*
X122113145Y-114735000D01*
X122167670Y-114878934D01*
X122202000Y-114943159D01*
X122420496Y-114984374D01*
X122303133Y-115101737D01*
X122366396Y-115165000D01*
X122157478Y-115165000D01*
X121918982Y-115213507D01*
X121694532Y-115307610D01*
X121492753Y-115443693D01*
X121321400Y-115616526D01*
X121187057Y-115819467D01*
X121094887Y-116044718D01*
X121091016Y-116082391D01*
X121215747Y-116273000D01*
X122507478Y-116273000D01*
X122507478Y-116253000D01*
X122761478Y-116253000D01*
X122761478Y-116273000D01*
X124053209Y-116273000D01*
X124177940Y-116082391D01*
X124174069Y-116044718D01*
X124081899Y-115819467D01*
X123947556Y-115616526D01*
X123776203Y-115443693D01*
X123746076Y-115423375D01*
X123763412Y-115416808D01*
X123827637Y-115382478D01*
X123864360Y-115187792D01*
X124793500Y-115187792D01*
X124796572Y-115602042D01*
X124955322Y-115760792D01*
X125792072Y-115760792D01*
X125792072Y-114711542D01*
X125633322Y-114552792D01*
X125431572Y-114549720D01*
X125307090Y-114561980D01*
X125187392Y-114598290D01*
X125077078Y-114657255D01*
X124980387Y-114736607D01*
X124901035Y-114833298D01*
X124842070Y-114943612D01*
X124805760Y-115063310D01*
X124793500Y-115187792D01*
X123864360Y-115187792D01*
X123868852Y-115163979D01*
X123234478Y-114529605D01*
X123220336Y-114543748D01*
X123040731Y-114364143D01*
X123054873Y-114350000D01*
X123040731Y-114335858D01*
X123220336Y-114156253D01*
X123234478Y-114170395D01*
X123248621Y-114156253D01*
X123428226Y-114335858D01*
X123414083Y-114350000D01*
X124048457Y-114984374D01*
X124266956Y-114943159D01*
X124362837Y-114730335D01*
X124415356Y-114502895D01*
X124422494Y-114269579D01*
X124383978Y-114039354D01*
X124301286Y-113821066D01*
X124266956Y-113756841D01*
X124048460Y-113715626D01*
X124165823Y-113598263D01*
X124113941Y-113546381D01*
X124154928Y-113505394D01*
X124180562Y-113467029D01*
X124191851Y-113463605D01*
X124236063Y-113529774D01*
X124380226Y-113673937D01*
X124549744Y-113787205D01*
X124738102Y-113865226D01*
X124938061Y-113905000D01*
X125141939Y-113905000D01*
X125341898Y-113865226D01*
X125530256Y-113787205D01*
X125699774Y-113673937D01*
X125743711Y-113630000D01*
X125905199Y-113630000D01*
X126735000Y-114459802D01*
X126735000Y-114521939D01*
X126762082Y-114658088D01*
X126761066Y-114657255D01*
X126650752Y-114598290D01*
X126531054Y-114561980D01*
X126406572Y-114549720D01*
X126204822Y-114552792D01*
X126046072Y-114711542D01*
X126046072Y-115760792D01*
X126066072Y-115760792D01*
X126066072Y-116014792D01*
X126046072Y-116014792D01*
X126046072Y-117064042D01*
X126204822Y-117222792D01*
X126406572Y-117225864D01*
X126531054Y-117213604D01*
X126650752Y-117177294D01*
X126761066Y-117118329D01*
X126857757Y-117038977D01*
X126921564Y-116961228D01*
X126926780Y-116967584D01*
X127060408Y-117077250D01*
X127212863Y-117158739D01*
X127378287Y-117208920D01*
X127550322Y-117225864D01*
X128037822Y-117225864D01*
X128055592Y-117224114D01*
X128222463Y-117390985D01*
X128246261Y-117419983D01*
X128275259Y-117443781D01*
X128361986Y-117514956D01*
X128494015Y-117585528D01*
X128637276Y-117628985D01*
X128786262Y-117643659D01*
X128823595Y-117639982D01*
X129376289Y-117639982D01*
X129420226Y-117683919D01*
X129589744Y-117797187D01*
X129763898Y-117869325D01*
X123009003Y-124624221D01*
X122981749Y-124646588D01*
X122959853Y-124631958D01*
X122687125Y-124518990D01*
X122397599Y-124461400D01*
X122102401Y-124461400D01*
X121812875Y-124518990D01*
X121540147Y-124631958D01*
X121294698Y-124795961D01*
X121085961Y-125004698D01*
X120921958Y-125250147D01*
X120808990Y-125522875D01*
X120751400Y-125812401D01*
X120751400Y-126107599D01*
X120808990Y-126397125D01*
X120921958Y-126669853D01*
X121085961Y-126915302D01*
X121200023Y-127029364D01*
X121142220Y-127046898D01*
X121031906Y-127105863D01*
X120935215Y-127185215D01*
X120855863Y-127281906D01*
X120796898Y-127392220D01*
X120760588Y-127511918D01*
X120748328Y-127636400D01*
X120748328Y-129363600D01*
X120760588Y-129488082D01*
X120796898Y-129607780D01*
X120855863Y-129718094D01*
X120935215Y-129814785D01*
X121031906Y-129894137D01*
X121142220Y-129953102D01*
X121261918Y-129989412D01*
X121386400Y-130001672D01*
X121595674Y-130001672D01*
X121615026Y-130037876D01*
X121654871Y-130086426D01*
X121709999Y-130153601D01*
X121739003Y-130177404D01*
X121962596Y-130400997D01*
X121986399Y-130430001D01*
X122102124Y-130524974D01*
X122234153Y-130595546D01*
X122377411Y-130639002D01*
X122377414Y-130639003D01*
X122526400Y-130653677D01*
X122563733Y-130650000D01*
X125332678Y-130650000D01*
X125370000Y-130653676D01*
X125407322Y-130650000D01*
X125407333Y-130650000D01*
X125518986Y-130639003D01*
X125662247Y-130595546D01*
X125794276Y-130524974D01*
X125910001Y-130430001D01*
X125933803Y-130400998D01*
X126552176Y-129782626D01*
X126620147Y-129828042D01*
X126892875Y-129941010D01*
X127182401Y-129998600D01*
X127477599Y-129998600D01*
X127767125Y-129941010D01*
X128039853Y-129828042D01*
X128285302Y-129664039D01*
X128494039Y-129455302D01*
X128624535Y-129260000D01*
X130860462Y-129260000D01*
X130904399Y-129303937D01*
X131073917Y-129417205D01*
X131262275Y-129495226D01*
X131462234Y-129535000D01*
X131666112Y-129535000D01*
X131866071Y-129495226D01*
X132054429Y-129417205D01*
X132223947Y-129303937D01*
X132267884Y-129260000D01*
X133278895Y-129260000D01*
X133274188Y-129275518D01*
X133261928Y-129400000D01*
X133261928Y-131100000D01*
X133274188Y-131224482D01*
X133310498Y-131344180D01*
X133369463Y-131454494D01*
X133448815Y-131551185D01*
X133545506Y-131630537D01*
X133655820Y-131689502D01*
X133775518Y-131725812D01*
X133900000Y-131738072D01*
X134095674Y-131738072D01*
X134115026Y-131774276D01*
X134186201Y-131861002D01*
X134210000Y-131890001D01*
X134238998Y-131913799D01*
X135736201Y-133411003D01*
X135759999Y-133440001D01*
X135788997Y-133463799D01*
X135875723Y-133534974D01*
X136003759Y-133603411D01*
X136007753Y-133605546D01*
X136151014Y-133649003D01*
X136262667Y-133660000D01*
X136262677Y-133660000D01*
X136299999Y-133663676D01*
X136337322Y-133660000D01*
X154921822Y-133660000D01*
X155046525Y-133846632D01*
X155253368Y-134053475D01*
X155345447Y-134115000D01*
X117185000Y-134115000D01*
X117185000Y-119632881D01*
X118303210Y-119632881D01*
X118303210Y-119967119D01*
X118368417Y-120294935D01*
X118496324Y-120603731D01*
X118682017Y-120881641D01*
X118918359Y-121117983D01*
X119196269Y-121303676D01*
X119505065Y-121431583D01*
X119832881Y-121496790D01*
X120167119Y-121496790D01*
X120494935Y-121431583D01*
X120803731Y-121303676D01*
X121081641Y-121117983D01*
X121317983Y-120881641D01*
X121503676Y-120603731D01*
X121631583Y-120294935D01*
X121696790Y-119967119D01*
X121696790Y-119632881D01*
X121631583Y-119305065D01*
X121503676Y-118996269D01*
X121317983Y-118718359D01*
X121081641Y-118482017D01*
X120803731Y-118296324D01*
X120494935Y-118168417D01*
X120167119Y-118103210D01*
X119832881Y-118103210D01*
X119505065Y-118168417D01*
X119196269Y-118296324D01*
X118918359Y-118482017D01*
X118682017Y-118718359D01*
X118496324Y-118996269D01*
X118368417Y-119305065D01*
X118303210Y-119632881D01*
X117185000Y-119632881D01*
X117185000Y-117603988D01*
X117337478Y-117635000D01*
X117687478Y-117635000D01*
X117687478Y-116527000D01*
X117941478Y-116527000D01*
X117941478Y-117635000D01*
X118291478Y-117635000D01*
X118529974Y-117586493D01*
X118754424Y-117492390D01*
X118956203Y-117356307D01*
X119127556Y-117183474D01*
X119261899Y-116980533D01*
X119354069Y-116755282D01*
X119357940Y-116717609D01*
X121091016Y-116717609D01*
X121094887Y-116755282D01*
X121187057Y-116980533D01*
X121321400Y-117183474D01*
X121492753Y-117356307D01*
X121694532Y-117492390D01*
X121918982Y-117586493D01*
X122157478Y-117635000D01*
X122507478Y-117635000D01*
X122507478Y-116527000D01*
X122761478Y-116527000D01*
X122761478Y-117635000D01*
X123111478Y-117635000D01*
X123349974Y-117586493D01*
X123574424Y-117492390D01*
X123776203Y-117356307D01*
X123947556Y-117183474D01*
X124081899Y-116980533D01*
X124174069Y-116755282D01*
X124177940Y-116717609D01*
X124092991Y-116587792D01*
X124793500Y-116587792D01*
X124805760Y-116712274D01*
X124842070Y-116831972D01*
X124901035Y-116942286D01*
X124980387Y-117038977D01*
X125077078Y-117118329D01*
X125187392Y-117177294D01*
X125307090Y-117213604D01*
X125431572Y-117225864D01*
X125633322Y-117222792D01*
X125792072Y-117064042D01*
X125792072Y-116014792D01*
X124955322Y-116014792D01*
X124796572Y-116173542D01*
X124793500Y-116587792D01*
X124092991Y-116587792D01*
X124053209Y-116527000D01*
X122761478Y-116527000D01*
X122507478Y-116527000D01*
X121215747Y-116527000D01*
X121091016Y-116717609D01*
X119357940Y-116717609D01*
X119233209Y-116527000D01*
X117941478Y-116527000D01*
X117687478Y-116527000D01*
X117667478Y-116527000D01*
X117667478Y-116273000D01*
X117687478Y-116273000D01*
X117687478Y-115165000D01*
X117941478Y-115165000D01*
X117941478Y-116273000D01*
X119233209Y-116273000D01*
X119357940Y-116082391D01*
X119354069Y-116044718D01*
X119261899Y-115819467D01*
X119127556Y-115616526D01*
X118956203Y-115443693D01*
X118754424Y-115307610D01*
X118529974Y-115213507D01*
X118291478Y-115165000D01*
X117941478Y-115165000D01*
X117687478Y-115165000D01*
X117337478Y-115165000D01*
X117185000Y-115196012D01*
X117185000Y-110303988D01*
X117337478Y-110335000D01*
X117687478Y-110335000D01*
X117687478Y-109227000D01*
X117941478Y-109227000D01*
X117941478Y-110335000D01*
X118291478Y-110335000D01*
X118529974Y-110286493D01*
X118754424Y-110192390D01*
X118956203Y-110056307D01*
X119127556Y-109883474D01*
X119261899Y-109680533D01*
X119354069Y-109455282D01*
X119357940Y-109417609D01*
X119233209Y-109227000D01*
X117941478Y-109227000D01*
X117687478Y-109227000D01*
X117667478Y-109227000D01*
X117667478Y-108973000D01*
X117687478Y-108973000D01*
X117687478Y-107865000D01*
X117941478Y-107865000D01*
X117941478Y-108973000D01*
X119233209Y-108973000D01*
X119357940Y-108782391D01*
X121091016Y-108782391D01*
X121215747Y-108973000D01*
X122507478Y-108973000D01*
X122507478Y-107865000D01*
X122761478Y-107865000D01*
X122761478Y-108973000D01*
X124053209Y-108973000D01*
X124177940Y-108782391D01*
X124174069Y-108744718D01*
X124081899Y-108519467D01*
X123947556Y-108316526D01*
X123776203Y-108143693D01*
X123574424Y-108007610D01*
X123349974Y-107913507D01*
X123111478Y-107865000D01*
X122761478Y-107865000D01*
X122507478Y-107865000D01*
X122157478Y-107865000D01*
X121918982Y-107913507D01*
X121694532Y-108007610D01*
X121492753Y-108143693D01*
X121321400Y-108316526D01*
X121187057Y-108519467D01*
X121094887Y-108744718D01*
X121091016Y-108782391D01*
X119357940Y-108782391D01*
X119354069Y-108744718D01*
X119261899Y-108519467D01*
X119127556Y-108316526D01*
X118956203Y-108143693D01*
X118754424Y-108007610D01*
X118529974Y-107913507D01*
X118291478Y-107865000D01*
X117941478Y-107865000D01*
X117687478Y-107865000D01*
X117337478Y-107865000D01*
X117185000Y-107896012D01*
X117185000Y-106921966D01*
X130821414Y-106921966D01*
X130824486Y-107123716D01*
X130983236Y-107282466D01*
X132032486Y-107282466D01*
X132032486Y-106445716D01*
X131873736Y-106286966D01*
X131459486Y-106283894D01*
X131335004Y-106296154D01*
X131215306Y-106332464D01*
X131104992Y-106391429D01*
X131008301Y-106470781D01*
X130928949Y-106567472D01*
X130869984Y-106677786D01*
X130833674Y-106797484D01*
X130821414Y-106921966D01*
X117185000Y-106921966D01*
X117185000Y-95832881D01*
X118103210Y-95832881D01*
X118103210Y-96167119D01*
X118168417Y-96494935D01*
X118296324Y-96803731D01*
X118482017Y-97081641D01*
X118718359Y-97317983D01*
X118996269Y-97503676D01*
X119305065Y-97631583D01*
X119632881Y-97696790D01*
X119967119Y-97696790D01*
X120294935Y-97631583D01*
X120603731Y-97503676D01*
X120881641Y-97317983D01*
X121117983Y-97081641D01*
X121303676Y-96803731D01*
X121431583Y-96494935D01*
X121496790Y-96167119D01*
X121496790Y-95832881D01*
X121431583Y-95505065D01*
X121303676Y-95196269D01*
X121117983Y-94918359D01*
X120881641Y-94682017D01*
X120603731Y-94496324D01*
X120294935Y-94368417D01*
X119967119Y-94303210D01*
X119632881Y-94303210D01*
X119305065Y-94368417D01*
X118996269Y-94496324D01*
X118718359Y-94682017D01*
X118482017Y-94918359D01*
X118296324Y-95196269D01*
X118168417Y-95505065D01*
X118103210Y-95832881D01*
X117185000Y-95832881D01*
X117185000Y-93435000D01*
X133465649Y-93435000D01*
X133448815Y-93448815D01*
G37*
X133448815Y-93448815D02*
X133369463Y-93545506D01*
X133310498Y-93655820D01*
X133274188Y-93775518D01*
X133261928Y-93900000D01*
X133261928Y-95600000D01*
X133274188Y-95724482D01*
X133310498Y-95844180D01*
X133369463Y-95954494D01*
X133448815Y-96051185D01*
X133545506Y-96130537D01*
X133655820Y-96189502D01*
X133775518Y-96225812D01*
X133900000Y-96238072D01*
X133990000Y-96238072D01*
X133990000Y-97107658D01*
X133687776Y-97409883D01*
X133658778Y-97433681D01*
X133634980Y-97462679D01*
X133634979Y-97462680D01*
X133563804Y-97549406D01*
X133493232Y-97681436D01*
X133465410Y-97773158D01*
X133449776Y-97824696D01*
X133447605Y-97846735D01*
X133435102Y-97973682D01*
X133438779Y-98011014D01*
X133438778Y-102813667D01*
X133331486Y-102901720D01*
X133221820Y-103035348D01*
X133140331Y-103187803D01*
X133090150Y-103353227D01*
X133073206Y-103525262D01*
X133073206Y-104032282D01*
X132839133Y-104266356D01*
X132810135Y-104290154D01*
X132786337Y-104319152D01*
X132786336Y-104319153D01*
X132715161Y-104405879D01*
X132644589Y-104537909D01*
X132640807Y-104550378D01*
X132601133Y-104681169D01*
X132595190Y-104741512D01*
X132586459Y-104830155D01*
X132590136Y-104867487D01*
X132590136Y-105261979D01*
X132546198Y-105305917D01*
X132432930Y-105475435D01*
X132354909Y-105663793D01*
X132315135Y-105863752D01*
X132315135Y-106067630D01*
X132354909Y-106267589D01*
X132387041Y-106345161D01*
X132286486Y-106445716D01*
X132286486Y-107282466D01*
X132306486Y-107282466D01*
X132306486Y-107536466D01*
X132286486Y-107536466D01*
X132286486Y-107556466D01*
X132032486Y-107556466D01*
X132032486Y-107536466D01*
X130983236Y-107536466D01*
X130824486Y-107695216D01*
X130821414Y-107896966D01*
X130833674Y-108021448D01*
X130869984Y-108141146D01*
X130928949Y-108251460D01*
X131008301Y-108348151D01*
X131086050Y-108411958D01*
X131079694Y-108417174D01*
X130970028Y-108550802D01*
X130936179Y-108614129D01*
X130854085Y-108546756D01*
X130701630Y-108465267D01*
X130536206Y-108415086D01*
X130364171Y-108398142D01*
X129876671Y-108398142D01*
X129704636Y-108415086D01*
X129539212Y-108465267D01*
X129386757Y-108546756D01*
X129253129Y-108656422D01*
X129182921Y-108741970D01*
X129112713Y-108656422D01*
X128979085Y-108546756D01*
X128826630Y-108465267D01*
X128661206Y-108415086D01*
X128489171Y-108398142D01*
X128001671Y-108398142D01*
X127829636Y-108415086D01*
X127664212Y-108465267D01*
X127511757Y-108546756D01*
X127378129Y-108656422D01*
X127268463Y-108790050D01*
X127186974Y-108942505D01*
X127136793Y-109107929D01*
X127119849Y-109279964D01*
X127119849Y-109768218D01*
X124377664Y-109768218D01*
X124225259Y-109615813D01*
X124202238Y-109587762D01*
X124140569Y-109537151D01*
X124174069Y-109455282D01*
X124177940Y-109417609D01*
X124053209Y-109227000D01*
X122761478Y-109227000D01*
X122761478Y-109247000D01*
X122507478Y-109247000D01*
X122507478Y-109227000D01*
X121215747Y-109227000D01*
X121091016Y-109417609D01*
X121094887Y-109455282D01*
X121187057Y-109680533D01*
X121321400Y-109883474D01*
X121492753Y-110056307D01*
X121607118Y-110133436D01*
X121540286Y-110200268D01*
X121512241Y-110223284D01*
X121420392Y-110335202D01*
X121379941Y-110410881D01*
X121352142Y-110462889D01*
X121310113Y-110601437D01*
X121295922Y-110745522D01*
X121299479Y-110781637D01*
X121299479Y-111015923D01*
X121279084Y-111029550D01*
X121114028Y-111194606D01*
X120984344Y-111388692D01*
X120895017Y-111604348D01*
X120849478Y-111833288D01*
X120849478Y-112066712D01*
X120895017Y-112295652D01*
X120984344Y-112511308D01*
X121114028Y-112705394D01*
X121158634Y-112750000D01*
X121114028Y-112794606D01*
X120984344Y-112988692D01*
X120895017Y-113204348D01*
X120849478Y-113433288D01*
X120849478Y-113666712D01*
X120895017Y-113895652D01*
X120984344Y-114111308D01*
X121114028Y-114305394D01*
X121279084Y-114470450D01*
X121473170Y-114600134D01*
X121688826Y-114689461D01*
X121917766Y-114735000D01*
X122113145Y-114735000D01*
X122167670Y-114878934D01*
X122202000Y-114943159D01*
X122420496Y-114984374D01*
X122303133Y-115101737D01*
X122366396Y-115165000D01*
X122157478Y-115165000D01*
X121918982Y-115213507D01*
X121694532Y-115307610D01*
X121492753Y-115443693D01*
X121321400Y-115616526D01*
X121187057Y-115819467D01*
X121094887Y-116044718D01*
X121091016Y-116082391D01*
X121215747Y-116273000D01*
X122507478Y-116273000D01*
X122507478Y-116253000D01*
X122761478Y-116253000D01*
X122761478Y-116273000D01*
X124053209Y-116273000D01*
X124177940Y-116082391D01*
X124174069Y-116044718D01*
X124081899Y-115819467D01*
X123947556Y-115616526D01*
X123776203Y-115443693D01*
X123746076Y-115423375D01*
X123763412Y-115416808D01*
X123827637Y-115382478D01*
X123864360Y-115187792D01*
X124793500Y-115187792D01*
X124796572Y-115602042D01*
X124955322Y-115760792D01*
X125792072Y-115760792D01*
X125792072Y-114711542D01*
X125633322Y-114552792D01*
X125431572Y-114549720D01*
X125307090Y-114561980D01*
X125187392Y-114598290D01*
X125077078Y-114657255D01*
X124980387Y-114736607D01*
X124901035Y-114833298D01*
X124842070Y-114943612D01*
X124805760Y-115063310D01*
X124793500Y-115187792D01*
X123864360Y-115187792D01*
X123868852Y-115163979D01*
X123234478Y-114529605D01*
X123220336Y-114543748D01*
X123040731Y-114364143D01*
X123054873Y-114350000D01*
X123040731Y-114335858D01*
X123220336Y-114156253D01*
X123234478Y-114170395D01*
X123248621Y-114156253D01*
X123428226Y-114335858D01*
X123414083Y-114350000D01*
X124048457Y-114984374D01*
X124266956Y-114943159D01*
X124362837Y-114730335D01*
X124415356Y-114502895D01*
X124422494Y-114269579D01*
X124383978Y-114039354D01*
X124301286Y-113821066D01*
X124266956Y-113756841D01*
X124048460Y-113715626D01*
X124165823Y-113598263D01*
X124113941Y-113546381D01*
X124154928Y-113505394D01*
X124180562Y-113467029D01*
X124191851Y-113463605D01*
X124236063Y-113529774D01*
X124380226Y-113673937D01*
X124549744Y-113787205D01*
X124738102Y-113865226D01*
X124938061Y-113905000D01*
X125141939Y-113905000D01*
X125341898Y-113865226D01*
X125530256Y-113787205D01*
X125699774Y-113673937D01*
X125743711Y-113630000D01*
X125905199Y-113630000D01*
X126735000Y-114459802D01*
X126735000Y-114521939D01*
X126762082Y-114658088D01*
X126761066Y-114657255D01*
X126650752Y-114598290D01*
X126531054Y-114561980D01*
X126406572Y-114549720D01*
X126204822Y-114552792D01*
X126046072Y-114711542D01*
X126046072Y-115760792D01*
X126066072Y-115760792D01*
X126066072Y-116014792D01*
X126046072Y-116014792D01*
X126046072Y-117064042D01*
X126204822Y-117222792D01*
X126406572Y-117225864D01*
X126531054Y-117213604D01*
X126650752Y-117177294D01*
X126761066Y-117118329D01*
X126857757Y-117038977D01*
X126921564Y-116961228D01*
X126926780Y-116967584D01*
X127060408Y-117077250D01*
X127212863Y-117158739D01*
X127378287Y-117208920D01*
X127550322Y-117225864D01*
X128037822Y-117225864D01*
X128055592Y-117224114D01*
X128222463Y-117390985D01*
X128246261Y-117419983D01*
X128275259Y-117443781D01*
X128361986Y-117514956D01*
X128494015Y-117585528D01*
X128637276Y-117628985D01*
X128786262Y-117643659D01*
X128823595Y-117639982D01*
X129376289Y-117639982D01*
X129420226Y-117683919D01*
X129589744Y-117797187D01*
X129763898Y-117869325D01*
X123009003Y-124624221D01*
X122981749Y-124646588D01*
X122959853Y-124631958D01*
X122687125Y-124518990D01*
X122397599Y-124461400D01*
X122102401Y-124461400D01*
X121812875Y-124518990D01*
X121540147Y-124631958D01*
X121294698Y-124795961D01*
X121085961Y-125004698D01*
X120921958Y-125250147D01*
X120808990Y-125522875D01*
X120751400Y-125812401D01*
X120751400Y-126107599D01*
X120808990Y-126397125D01*
X120921958Y-126669853D01*
X121085961Y-126915302D01*
X121200023Y-127029364D01*
X121142220Y-127046898D01*
X121031906Y-127105863D01*
X120935215Y-127185215D01*
X120855863Y-127281906D01*
X120796898Y-127392220D01*
X120760588Y-127511918D01*
X120748328Y-127636400D01*
X120748328Y-129363600D01*
X120760588Y-129488082D01*
X120796898Y-129607780D01*
X120855863Y-129718094D01*
X120935215Y-129814785D01*
X121031906Y-129894137D01*
X121142220Y-129953102D01*
X121261918Y-129989412D01*
X121386400Y-130001672D01*
X121595674Y-130001672D01*
X121615026Y-130037876D01*
X121654871Y-130086426D01*
X121709999Y-130153601D01*
X121739003Y-130177404D01*
X121962596Y-130400997D01*
X121986399Y-130430001D01*
X122102124Y-130524974D01*
X122234153Y-130595546D01*
X122377411Y-130639002D01*
X122377414Y-130639003D01*
X122526400Y-130653677D01*
X122563733Y-130650000D01*
X125332678Y-130650000D01*
X125370000Y-130653676D01*
X125407322Y-130650000D01*
X125407333Y-130650000D01*
X125518986Y-130639003D01*
X125662247Y-130595546D01*
X125794276Y-130524974D01*
X125910001Y-130430001D01*
X125933803Y-130400998D01*
X126552176Y-129782626D01*
X126620147Y-129828042D01*
X126892875Y-129941010D01*
X127182401Y-129998600D01*
X127477599Y-129998600D01*
X127767125Y-129941010D01*
X128039853Y-129828042D01*
X128285302Y-129664039D01*
X128494039Y-129455302D01*
X128624535Y-129260000D01*
X130860462Y-129260000D01*
X130904399Y-129303937D01*
X131073917Y-129417205D01*
X131262275Y-129495226D01*
X131462234Y-129535000D01*
X131666112Y-129535000D01*
X131866071Y-129495226D01*
X132054429Y-129417205D01*
X132223947Y-129303937D01*
X132267884Y-129260000D01*
X133278895Y-129260000D01*
X133274188Y-129275518D01*
X133261928Y-129400000D01*
X133261928Y-131100000D01*
X133274188Y-131224482D01*
X133310498Y-131344180D01*
X133369463Y-131454494D01*
X133448815Y-131551185D01*
X133545506Y-131630537D01*
X133655820Y-131689502D01*
X133775518Y-131725812D01*
X133900000Y-131738072D01*
X134095674Y-131738072D01*
X134115026Y-131774276D01*
X134186201Y-131861002D01*
X134210000Y-131890001D01*
X134238998Y-131913799D01*
X135736201Y-133411003D01*
X135759999Y-133440001D01*
X135788997Y-133463799D01*
X135875723Y-133534974D01*
X136003759Y-133603411D01*
X136007753Y-133605546D01*
X136151014Y-133649003D01*
X136262667Y-133660000D01*
X136262677Y-133660000D01*
X136299999Y-133663676D01*
X136337322Y-133660000D01*
X154921822Y-133660000D01*
X155046525Y-133846632D01*
X155253368Y-134053475D01*
X155345447Y-134115000D01*
X117185000Y-134115000D01*
X117185000Y-119632881D01*
X118303210Y-119632881D01*
X118303210Y-119967119D01*
X118368417Y-120294935D01*
X118496324Y-120603731D01*
X118682017Y-120881641D01*
X118918359Y-121117983D01*
X119196269Y-121303676D01*
X119505065Y-121431583D01*
X119832881Y-121496790D01*
X120167119Y-121496790D01*
X120494935Y-121431583D01*
X120803731Y-121303676D01*
X121081641Y-121117983D01*
X121317983Y-120881641D01*
X121503676Y-120603731D01*
X121631583Y-120294935D01*
X121696790Y-119967119D01*
X121696790Y-119632881D01*
X121631583Y-119305065D01*
X121503676Y-118996269D01*
X121317983Y-118718359D01*
X121081641Y-118482017D01*
X120803731Y-118296324D01*
X120494935Y-118168417D01*
X120167119Y-118103210D01*
X119832881Y-118103210D01*
X119505065Y-118168417D01*
X119196269Y-118296324D01*
X118918359Y-118482017D01*
X118682017Y-118718359D01*
X118496324Y-118996269D01*
X118368417Y-119305065D01*
X118303210Y-119632881D01*
X117185000Y-119632881D01*
X117185000Y-117603988D01*
X117337478Y-117635000D01*
X117687478Y-117635000D01*
X117687478Y-116527000D01*
X117941478Y-116527000D01*
X117941478Y-117635000D01*
X118291478Y-117635000D01*
X118529974Y-117586493D01*
X118754424Y-117492390D01*
X118956203Y-117356307D01*
X119127556Y-117183474D01*
X119261899Y-116980533D01*
X119354069Y-116755282D01*
X119357940Y-116717609D01*
X121091016Y-116717609D01*
X121094887Y-116755282D01*
X121187057Y-116980533D01*
X121321400Y-117183474D01*
X121492753Y-117356307D01*
X121694532Y-117492390D01*
X121918982Y-117586493D01*
X122157478Y-117635000D01*
X122507478Y-117635000D01*
X122507478Y-116527000D01*
X122761478Y-116527000D01*
X122761478Y-117635000D01*
X123111478Y-117635000D01*
X123349974Y-117586493D01*
X123574424Y-117492390D01*
X123776203Y-117356307D01*
X123947556Y-117183474D01*
X124081899Y-116980533D01*
X124174069Y-116755282D01*
X124177940Y-116717609D01*
X124092991Y-116587792D01*
X124793500Y-116587792D01*
X124805760Y-116712274D01*
X124842070Y-116831972D01*
X124901035Y-116942286D01*
X124980387Y-117038977D01*
X125077078Y-117118329D01*
X125187392Y-117177294D01*
X125307090Y-117213604D01*
X125431572Y-117225864D01*
X125633322Y-117222792D01*
X125792072Y-117064042D01*
X125792072Y-116014792D01*
X124955322Y-116014792D01*
X124796572Y-116173542D01*
X124793500Y-116587792D01*
X124092991Y-116587792D01*
X124053209Y-116527000D01*
X122761478Y-116527000D01*
X122507478Y-116527000D01*
X121215747Y-116527000D01*
X121091016Y-116717609D01*
X119357940Y-116717609D01*
X119233209Y-116527000D01*
X117941478Y-116527000D01*
X117687478Y-116527000D01*
X117667478Y-116527000D01*
X117667478Y-116273000D01*
X117687478Y-116273000D01*
X117687478Y-115165000D01*
X117941478Y-115165000D01*
X117941478Y-116273000D01*
X119233209Y-116273000D01*
X119357940Y-116082391D01*
X119354069Y-116044718D01*
X119261899Y-115819467D01*
X119127556Y-115616526D01*
X118956203Y-115443693D01*
X118754424Y-115307610D01*
X118529974Y-115213507D01*
X118291478Y-115165000D01*
X117941478Y-115165000D01*
X117687478Y-115165000D01*
X117337478Y-115165000D01*
X117185000Y-115196012D01*
X117185000Y-110303988D01*
X117337478Y-110335000D01*
X117687478Y-110335000D01*
X117687478Y-109227000D01*
X117941478Y-109227000D01*
X117941478Y-110335000D01*
X118291478Y-110335000D01*
X118529974Y-110286493D01*
X118754424Y-110192390D01*
X118956203Y-110056307D01*
X119127556Y-109883474D01*
X119261899Y-109680533D01*
X119354069Y-109455282D01*
X119357940Y-109417609D01*
X119233209Y-109227000D01*
X117941478Y-109227000D01*
X117687478Y-109227000D01*
X117667478Y-109227000D01*
X117667478Y-108973000D01*
X117687478Y-108973000D01*
X117687478Y-107865000D01*
X117941478Y-107865000D01*
X117941478Y-108973000D01*
X119233209Y-108973000D01*
X119357940Y-108782391D01*
X121091016Y-108782391D01*
X121215747Y-108973000D01*
X122507478Y-108973000D01*
X122507478Y-107865000D01*
X122761478Y-107865000D01*
X122761478Y-108973000D01*
X124053209Y-108973000D01*
X124177940Y-108782391D01*
X124174069Y-108744718D01*
X124081899Y-108519467D01*
X123947556Y-108316526D01*
X123776203Y-108143693D01*
X123574424Y-108007610D01*
X123349974Y-107913507D01*
X123111478Y-107865000D01*
X122761478Y-107865000D01*
X122507478Y-107865000D01*
X122157478Y-107865000D01*
X121918982Y-107913507D01*
X121694532Y-108007610D01*
X121492753Y-108143693D01*
X121321400Y-108316526D01*
X121187057Y-108519467D01*
X121094887Y-108744718D01*
X121091016Y-108782391D01*
X119357940Y-108782391D01*
X119354069Y-108744718D01*
X119261899Y-108519467D01*
X119127556Y-108316526D01*
X118956203Y-108143693D01*
X118754424Y-108007610D01*
X118529974Y-107913507D01*
X118291478Y-107865000D01*
X117941478Y-107865000D01*
X117687478Y-107865000D01*
X117337478Y-107865000D01*
X117185000Y-107896012D01*
X117185000Y-106921966D01*
X130821414Y-106921966D01*
X130824486Y-107123716D01*
X130983236Y-107282466D01*
X132032486Y-107282466D01*
X132032486Y-106445716D01*
X131873736Y-106286966D01*
X131459486Y-106283894D01*
X131335004Y-106296154D01*
X131215306Y-106332464D01*
X131104992Y-106391429D01*
X131008301Y-106470781D01*
X130928949Y-106567472D01*
X130869984Y-106677786D01*
X130833674Y-106797484D01*
X130821414Y-106921966D01*
X117185000Y-106921966D01*
X117185000Y-95832881D01*
X118103210Y-95832881D01*
X118103210Y-96167119D01*
X118168417Y-96494935D01*
X118296324Y-96803731D01*
X118482017Y-97081641D01*
X118718359Y-97317983D01*
X118996269Y-97503676D01*
X119305065Y-97631583D01*
X119632881Y-97696790D01*
X119967119Y-97696790D01*
X120294935Y-97631583D01*
X120603731Y-97503676D01*
X120881641Y-97317983D01*
X121117983Y-97081641D01*
X121303676Y-96803731D01*
X121431583Y-96494935D01*
X121496790Y-96167119D01*
X121496790Y-95832881D01*
X121431583Y-95505065D01*
X121303676Y-95196269D01*
X121117983Y-94918359D01*
X120881641Y-94682017D01*
X120603731Y-94496324D01*
X120294935Y-94368417D01*
X119967119Y-94303210D01*
X119632881Y-94303210D01*
X119305065Y-94368417D01*
X118996269Y-94496324D01*
X118718359Y-94682017D01*
X118482017Y-94918359D01*
X118296324Y-95196269D01*
X118168417Y-95505065D01*
X118103210Y-95832881D01*
X117185000Y-95832881D01*
X117185000Y-93435000D01*
X133465649Y-93435000D01*
X133448815Y-93448815D01*
G36*
X138933868Y-119374139D02*
G01*
X138933869Y-120361329D01*
X137749003Y-121546196D01*
X137719999Y-121569999D01*
X137672455Y-121627932D01*
X137625026Y-121685724D01*
X137592522Y-121746535D01*
X137554454Y-121817754D01*
X137510997Y-121961015D01*
X137500000Y-122072668D01*
X137500000Y-122072678D01*
X137496324Y-122110000D01*
X137500000Y-122147323D01*
X137500000Y-122558370D01*
X137406408Y-122559064D01*
X137247658Y-122717814D01*
X137247658Y-123554564D01*
X137267658Y-123554564D01*
X137267658Y-123808564D01*
X137247658Y-123808564D01*
X137247658Y-123828564D01*
X136993658Y-123828564D01*
X136993658Y-123808564D01*
X135944408Y-123808564D01*
X135785658Y-123967314D01*
X135782586Y-124169064D01*
X135794846Y-124293546D01*
X135831156Y-124413244D01*
X135890121Y-124523558D01*
X135969473Y-124620249D01*
X136047222Y-124684056D01*
X136040866Y-124689272D01*
X135931200Y-124822900D01*
X135849711Y-124975355D01*
X135799530Y-125140779D01*
X135782586Y-125312814D01*
X135782586Y-125800314D01*
X135799530Y-125972349D01*
X135849711Y-126137773D01*
X135931200Y-126290228D01*
X136040866Y-126423856D01*
X136174494Y-126533522D01*
X136326949Y-126615011D01*
X136492373Y-126665192D01*
X136664408Y-126682136D01*
X137576908Y-126682136D01*
X137748943Y-126665192D01*
X137914367Y-126615011D01*
X138066822Y-126533522D01*
X138200450Y-126423856D01*
X138288503Y-126316564D01*
X138328643Y-126316564D01*
X138365976Y-126320241D01*
X138403309Y-126316564D01*
X138514962Y-126305567D01*
X138658223Y-126262110D01*
X138790252Y-126191538D01*
X138905977Y-126096565D01*
X138946108Y-126047665D01*
X139130598Y-125863176D01*
X140093868Y-125863176D01*
X140218350Y-125850916D01*
X140338048Y-125814606D01*
X140448362Y-125755641D01*
X140493868Y-125718295D01*
X140539374Y-125755641D01*
X140649688Y-125814606D01*
X140769386Y-125850916D01*
X140893868Y-125863176D01*
X141308118Y-125860104D01*
X141466868Y-125701354D01*
X141466868Y-124752104D01*
X141446868Y-124752104D01*
X141446868Y-124498104D01*
X141466868Y-124498104D01*
X141466868Y-124478104D01*
X141720868Y-124478104D01*
X141720868Y-124498104D01*
X141740868Y-124498104D01*
X141740868Y-124752104D01*
X141720868Y-124752104D01*
X141720868Y-125701354D01*
X141879618Y-125860104D01*
X142293868Y-125863176D01*
X142418350Y-125850916D01*
X142538048Y-125814606D01*
X142585762Y-125789102D01*
X142532550Y-125842314D01*
X142529478Y-126044064D01*
X142541738Y-126168546D01*
X142578048Y-126288244D01*
X142637013Y-126398558D01*
X142716365Y-126495249D01*
X142813056Y-126574601D01*
X142923370Y-126633566D01*
X143043068Y-126669876D01*
X143167550Y-126682136D01*
X143581800Y-126679064D01*
X143740550Y-126520314D01*
X143740550Y-125683564D01*
X143994550Y-125683564D01*
X143994550Y-126520314D01*
X144153300Y-126679064D01*
X144567550Y-126682136D01*
X144692032Y-126669876D01*
X144811730Y-126633566D01*
X144922044Y-126574601D01*
X145018735Y-126495249D01*
X145098087Y-126398558D01*
X145157052Y-126288244D01*
X145193362Y-126168546D01*
X145205622Y-126044064D01*
X145202550Y-125842314D01*
X145043800Y-125683564D01*
X143994550Y-125683564D01*
X143740550Y-125683564D01*
X143720550Y-125683564D01*
X143720550Y-125432881D01*
X145303210Y-125432881D01*
X145303210Y-125767119D01*
X145368417Y-126094935D01*
X145496324Y-126403731D01*
X145682017Y-126681641D01*
X145918359Y-126917983D01*
X146196269Y-127103676D01*
X146505065Y-127231583D01*
X146832881Y-127296790D01*
X147167119Y-127296790D01*
X147494935Y-127231583D01*
X147803731Y-127103676D01*
X148081641Y-126917983D01*
X148317983Y-126681641D01*
X148503676Y-126403731D01*
X148631583Y-126094935D01*
X148696790Y-125767119D01*
X148696790Y-125432881D01*
X148631583Y-125105065D01*
X148503676Y-124796269D01*
X148317983Y-124518359D01*
X148081641Y-124282017D01*
X147803731Y-124096324D01*
X147494935Y-123968417D01*
X147167119Y-123903210D01*
X146832881Y-123903210D01*
X146505065Y-123968417D01*
X146196269Y-124096324D01*
X145918359Y-124282017D01*
X145682017Y-124518359D01*
X145496324Y-124796269D01*
X145368417Y-125105065D01*
X145303210Y-125432881D01*
X143720550Y-125432881D01*
X143720550Y-125429564D01*
X143740550Y-125429564D01*
X143740550Y-125409564D01*
X143994550Y-125409564D01*
X143994550Y-125429564D01*
X145043800Y-125429564D01*
X145202550Y-125270814D01*
X145205622Y-125069064D01*
X145193362Y-124944582D01*
X145157052Y-124824884D01*
X145098087Y-124714570D01*
X145018735Y-124617879D01*
X144940986Y-124554072D01*
X144947342Y-124548856D01*
X145057008Y-124415228D01*
X145138497Y-124262773D01*
X145188678Y-124097349D01*
X145205622Y-123925314D01*
X145205622Y-123437814D01*
X145188678Y-123265779D01*
X145138497Y-123100355D01*
X145057008Y-122947900D01*
X144947342Y-122814272D01*
X144813714Y-122704606D01*
X144661259Y-122623117D01*
X144495835Y-122572936D01*
X144323800Y-122555992D01*
X143474593Y-122555992D01*
X143432707Y-122514106D01*
X143408905Y-122485103D01*
X143293180Y-122390130D01*
X143161151Y-122319558D01*
X143017890Y-122276101D01*
X142908988Y-122265375D01*
X142883370Y-122180924D01*
X142824405Y-122070610D01*
X142745053Y-121973919D01*
X142648362Y-121894567D01*
X142538048Y-121835602D01*
X142418350Y-121799292D01*
X142356624Y-121793213D01*
X142357544Y-121783868D01*
X142353868Y-121746545D01*
X142353868Y-121746535D01*
X142342871Y-121634882D01*
X142299414Y-121491621D01*
X142285187Y-121465004D01*
X142228842Y-121359591D01*
X142157667Y-121272865D01*
X142133869Y-121243867D01*
X142104872Y-121220070D01*
X141253868Y-120369067D01*
X141253868Y-120248958D01*
X142795949Y-121791040D01*
X142819748Y-121820039D01*
X142848746Y-121843837D01*
X142935472Y-121915012D01*
X143065388Y-121984454D01*
X143067502Y-121985584D01*
X143210763Y-122029041D01*
X143322416Y-122040038D01*
X143322426Y-122040038D01*
X143359749Y-122043714D01*
X143397072Y-122040038D01*
X145835000Y-122040038D01*
X145835000Y-122106977D01*
X145874774Y-122306936D01*
X145952795Y-122495294D01*
X146066063Y-122664812D01*
X146210226Y-122808975D01*
X146379744Y-122922243D01*
X146568102Y-123000264D01*
X146768061Y-123040038D01*
X146971939Y-123040038D01*
X147171898Y-123000264D01*
X147360256Y-122922243D01*
X147529774Y-122808975D01*
X147673937Y-122664812D01*
X147787205Y-122495294D01*
X147789378Y-122490048D01*
X148056756Y-122490048D01*
X149667729Y-124101022D01*
X149691528Y-124130021D01*
X149720526Y-124153819D01*
X149807253Y-124224994D01*
X149939282Y-124295566D01*
X150082543Y-124339023D01*
X150231529Y-124353697D01*
X150268862Y-124350020D01*
X151755219Y-124350020D01*
X154777917Y-127372720D01*
X154772068Y-127386842D01*
X154715000Y-127673740D01*
X154715000Y-127966260D01*
X154772068Y-128253158D01*
X154884010Y-128523411D01*
X155046525Y-128766632D01*
X155253368Y-128973475D01*
X155435534Y-129095195D01*
X155318645Y-129164822D01*
X155102412Y-129359731D01*
X154928359Y-129593080D01*
X154803175Y-129855901D01*
X154758524Y-130003110D01*
X154879845Y-130233000D01*
X156073000Y-130233000D01*
X156073000Y-130213000D01*
X156327000Y-130213000D01*
X156327000Y-130233000D01*
X156347000Y-130233000D01*
X156347000Y-130487000D01*
X156327000Y-130487000D01*
X156327000Y-130507000D01*
X156073000Y-130507000D01*
X156073000Y-130487000D01*
X154879845Y-130487000D01*
X154758524Y-130716890D01*
X154803175Y-130864099D01*
X154928359Y-131126920D01*
X155102412Y-131360269D01*
X155318645Y-131555178D01*
X155435534Y-131624805D01*
X155253368Y-131746525D01*
X155046525Y-131953368D01*
X154921822Y-132140000D01*
X136614802Y-132140000D01*
X136037345Y-131562543D01*
X136051185Y-131551185D01*
X136130537Y-131454494D01*
X136189502Y-131344180D01*
X136211513Y-131271620D01*
X136343368Y-131403475D01*
X136586589Y-131565990D01*
X136856842Y-131677932D01*
X137143740Y-131735000D01*
X137436260Y-131735000D01*
X137723158Y-131677932D01*
X137993411Y-131565990D01*
X138236632Y-131403475D01*
X138443475Y-131196632D01*
X138560000Y-131022240D01*
X138676525Y-131196632D01*
X138883368Y-131403475D01*
X139126589Y-131565990D01*
X139396842Y-131677932D01*
X139683740Y-131735000D01*
X139976260Y-131735000D01*
X140263158Y-131677932D01*
X140533411Y-131565990D01*
X140776632Y-131403475D01*
X140983475Y-131196632D01*
X141105195Y-131014466D01*
X141174822Y-131131355D01*
X141369731Y-131347588D01*
X141603080Y-131521641D01*
X141865901Y-131646825D01*
X142013110Y-131691476D01*
X142243000Y-131570155D01*
X142243000Y-130377000D01*
X142497000Y-130377000D01*
X142497000Y-131570155D01*
X142726890Y-131691476D01*
X142874099Y-131646825D01*
X143136920Y-131521641D01*
X143370269Y-131347588D01*
X143565178Y-131131355D01*
X143640000Y-131005745D01*
X143714822Y-131131355D01*
X143909731Y-131347588D01*
X144143080Y-131521641D01*
X144405901Y-131646825D01*
X144553110Y-131691476D01*
X144783000Y-131570155D01*
X144783000Y-130377000D01*
X142497000Y-130377000D01*
X142243000Y-130377000D01*
X142223000Y-130377000D01*
X142223000Y-130123000D01*
X142243000Y-130123000D01*
X142243000Y-128929845D01*
X142497000Y-128929845D01*
X142497000Y-130123000D01*
X144783000Y-130123000D01*
X144783000Y-128929845D01*
X145037000Y-128929845D01*
X145037000Y-130123000D01*
X145057000Y-130123000D01*
X145057000Y-130377000D01*
X145037000Y-130377000D01*
X145037000Y-131570155D01*
X145266890Y-131691476D01*
X145414099Y-131646825D01*
X145676920Y-131521641D01*
X145910269Y-131347588D01*
X146105178Y-131131355D01*
X146174805Y-131014466D01*
X146296525Y-131196632D01*
X146503368Y-131403475D01*
X146746589Y-131565990D01*
X147016842Y-131677932D01*
X147303740Y-131735000D01*
X147596260Y-131735000D01*
X147883158Y-131677932D01*
X148153411Y-131565990D01*
X148396632Y-131403475D01*
X148603475Y-131196632D01*
X148720000Y-131022240D01*
X148836525Y-131196632D01*
X149043368Y-131403475D01*
X149286589Y-131565990D01*
X149556842Y-131677932D01*
X149843740Y-131735000D01*
X150136260Y-131735000D01*
X150423158Y-131677932D01*
X150693411Y-131565990D01*
X150936632Y-131403475D01*
X151143475Y-131196632D01*
X151260000Y-131022240D01*
X151376525Y-131196632D01*
X151583368Y-131403475D01*
X151826589Y-131565990D01*
X152096842Y-131677932D01*
X152383740Y-131735000D01*
X152676260Y-131735000D01*
X152963158Y-131677932D01*
X153233411Y-131565990D01*
X153476632Y-131403475D01*
X153683475Y-131196632D01*
X153845990Y-130953411D01*
X153957932Y-130683158D01*
X154015000Y-130396260D01*
X154015000Y-130103740D01*
X153957932Y-129816842D01*
X153845990Y-129546589D01*
X153683475Y-129303368D01*
X153476632Y-129096525D01*
X153233411Y-128934010D01*
X152963158Y-128822068D01*
X152676260Y-128765000D01*
X152383740Y-128765000D01*
X152096842Y-128822068D01*
X151826589Y-128934010D01*
X151583368Y-129096525D01*
X151376525Y-129303368D01*
X151260000Y-129477760D01*
X151143475Y-129303368D01*
X150936632Y-129096525D01*
X150693411Y-128934010D01*
X150423158Y-128822068D01*
X150136260Y-128765000D01*
X149843740Y-128765000D01*
X149556842Y-128822068D01*
X149286589Y-128934010D01*
X149043368Y-129096525D01*
X148836525Y-129303368D01*
X148720000Y-129477760D01*
X148603475Y-129303368D01*
X148396632Y-129096525D01*
X148153411Y-128934010D01*
X147883158Y-128822068D01*
X147596260Y-128765000D01*
X147303740Y-128765000D01*
X147016842Y-128822068D01*
X146746589Y-128934010D01*
X146503368Y-129096525D01*
X146296525Y-129303368D01*
X146174805Y-129485534D01*
X146105178Y-129368645D01*
X145910269Y-129152412D01*
X145676920Y-128978359D01*
X145414099Y-128853175D01*
X145266890Y-128808524D01*
X145037000Y-128929845D01*
X144783000Y-128929845D01*
X144553110Y-128808524D01*
X144405901Y-128853175D01*
X144143080Y-128978359D01*
X143909731Y-129152412D01*
X143714822Y-129368645D01*
X143640000Y-129494255D01*
X143565178Y-129368645D01*
X143370269Y-129152412D01*
X143136920Y-128978359D01*
X142874099Y-128853175D01*
X142726890Y-128808524D01*
X142497000Y-128929845D01*
X142243000Y-128929845D01*
X142013110Y-128808524D01*
X141865901Y-128853175D01*
X141603080Y-128978359D01*
X141369731Y-129152412D01*
X141174822Y-129368645D01*
X141105195Y-129485534D01*
X140983475Y-129303368D01*
X140776632Y-129096525D01*
X140533411Y-128934010D01*
X140263158Y-128822068D01*
X139976260Y-128765000D01*
X139683740Y-128765000D01*
X139396842Y-128822068D01*
X139126589Y-128934010D01*
X138883368Y-129096525D01*
X138676525Y-129303368D01*
X138560000Y-129477760D01*
X138443475Y-129303368D01*
X138236632Y-129096525D01*
X138045913Y-128969091D01*
X138039003Y-128898933D01*
X137995546Y-128755672D01*
X137924974Y-128623643D01*
X137907162Y-128601939D01*
X137853799Y-128536915D01*
X137853795Y-128536911D01*
X137830001Y-128507918D01*
X137801008Y-128484124D01*
X136575884Y-127259002D01*
X136552082Y-127229999D01*
X136436357Y-127135026D01*
X136304328Y-127064454D01*
X136161067Y-127020997D01*
X136049414Y-127010000D01*
X136049403Y-127010000D01*
X136012081Y-127006324D01*
X135974759Y-127010000D01*
X131523711Y-127010000D01*
X131479774Y-126966063D01*
X131310256Y-126852795D01*
X131121898Y-126774774D01*
X130921939Y-126735000D01*
X130718061Y-126735000D01*
X130518102Y-126774774D01*
X130329744Y-126852795D01*
X130160226Y-126966063D01*
X130016063Y-127110226D01*
X129902795Y-127279744D01*
X129824774Y-127468102D01*
X129785000Y-127668061D01*
X129785000Y-127740000D01*
X128624535Y-127740000D01*
X128494039Y-127544698D01*
X128285302Y-127335961D01*
X128124187Y-127228308D01*
X128340293Y-127066854D01*
X128536817Y-126848488D01*
X128686964Y-126595978D01*
X128784963Y-126319027D01*
X128664464Y-126087000D01*
X127457000Y-126087000D01*
X127457000Y-126107000D01*
X127203000Y-126107000D01*
X127203000Y-126087000D01*
X127183000Y-126087000D01*
X127183000Y-125833000D01*
X127203000Y-125833000D01*
X127203000Y-124626183D01*
X127457000Y-124626183D01*
X127457000Y-125833000D01*
X128664464Y-125833000D01*
X128784963Y-125600973D01*
X128686964Y-125324022D01*
X128536817Y-125071512D01*
X128340293Y-124853146D01*
X128104944Y-124677316D01*
X127839814Y-124550778D01*
X127689026Y-124505042D01*
X127457000Y-124626183D01*
X127203000Y-124626183D01*
X126970974Y-124505042D01*
X126820186Y-124550778D01*
X126820000Y-124550867D01*
X126820000Y-124235646D01*
X130054575Y-121001072D01*
X130160226Y-121106723D01*
X130329744Y-121219991D01*
X130518102Y-121298012D01*
X130718061Y-121337786D01*
X130804174Y-121337786D01*
X130804173Y-122680462D01*
X130739774Y-122616063D01*
X130570256Y-122502795D01*
X130381898Y-122424774D01*
X130181939Y-122385000D01*
X129978061Y-122385000D01*
X129778102Y-122424774D01*
X129589744Y-122502795D01*
X129420226Y-122616063D01*
X129276063Y-122760226D01*
X129162795Y-122929744D01*
X129084774Y-123118102D01*
X129045000Y-123318061D01*
X129045000Y-123521939D01*
X129084774Y-123721898D01*
X129162795Y-123910256D01*
X129276063Y-124079774D01*
X129320000Y-124123711D01*
X129320000Y-124287976D01*
X129316324Y-124325298D01*
X129320000Y-124362620D01*
X129320000Y-124362631D01*
X129330998Y-124474284D01*
X129333484Y-124482479D01*
X129374454Y-124617544D01*
X129445026Y-124749574D01*
X129500774Y-124817502D01*
X129540000Y-124865299D01*
X129568998Y-124889097D01*
X130008400Y-125328499D01*
X130032203Y-125357503D01*
X130146751Y-125451510D01*
X130147928Y-125452476D01*
X130279957Y-125523048D01*
X130423218Y-125566505D01*
X130572204Y-125581179D01*
X130609537Y-125577502D01*
X132122386Y-125577502D01*
X132159708Y-125581178D01*
X132197030Y-125577502D01*
X132197041Y-125577502D01*
X132308694Y-125566505D01*
X132451955Y-125523048D01*
X132583984Y-125452476D01*
X132699709Y-125357503D01*
X132723511Y-125328500D01*
X133266024Y-124785988D01*
X133295023Y-124762189D01*
X133334103Y-124714570D01*
X133389996Y-124646465D01*
X133460568Y-124514435D01*
X133469605Y-124484644D01*
X133504025Y-124371174D01*
X133515022Y-124259521D01*
X133515022Y-124259512D01*
X133518698Y-124222189D01*
X133515022Y-124184866D01*
X133515022Y-122854915D01*
X133548731Y-122844689D01*
X133701186Y-122763200D01*
X133800833Y-122681422D01*
X133797979Y-122868852D01*
X133810239Y-122993334D01*
X133846549Y-123113032D01*
X133905514Y-123223346D01*
X133984866Y-123320037D01*
X134081557Y-123399389D01*
X134191871Y-123458354D01*
X134311569Y-123494664D01*
X134436051Y-123506924D01*
X134850301Y-123503852D01*
X135009051Y-123345102D01*
X135009051Y-122508352D01*
X135263051Y-122508352D01*
X135263051Y-123345102D01*
X135421801Y-123503852D01*
X135836051Y-123506924D01*
X135891324Y-123501480D01*
X135944408Y-123554564D01*
X136993658Y-123554564D01*
X136993658Y-122717814D01*
X136834908Y-122559064D01*
X136420658Y-122555992D01*
X136365385Y-122561436D01*
X136312301Y-122508352D01*
X135263051Y-122508352D01*
X135009051Y-122508352D01*
X134989051Y-122508352D01*
X134989051Y-122254352D01*
X135009051Y-122254352D01*
X135009051Y-122234352D01*
X135263051Y-122234352D01*
X135263051Y-122254352D01*
X136312301Y-122254352D01*
X136471051Y-122095602D01*
X136474123Y-121893852D01*
X136461863Y-121769370D01*
X136425553Y-121649672D01*
X136366588Y-121539358D01*
X136287236Y-121442667D01*
X136209487Y-121378860D01*
X136215843Y-121373644D01*
X136303896Y-121266352D01*
X136764351Y-121266352D01*
X136801673Y-121270028D01*
X136838995Y-121266352D01*
X136839006Y-121266352D01*
X136950659Y-121255355D01*
X137093920Y-121211898D01*
X137225949Y-121141326D01*
X137341674Y-121046353D01*
X137365477Y-121017349D01*
X138604871Y-119777956D01*
X138633869Y-119754158D01*
X138728842Y-119638433D01*
X138799414Y-119506404D01*
X138831132Y-119401842D01*
X138893868Y-119325398D01*
X138933868Y-119374139D01*
G37*
X138933868Y-119374139D02*
X138933869Y-120361329D01*
X137749003Y-121546196D01*
X137719999Y-121569999D01*
X137672455Y-121627932D01*
X137625026Y-121685724D01*
X137592522Y-121746535D01*
X137554454Y-121817754D01*
X137510997Y-121961015D01*
X137500000Y-122072668D01*
X137500000Y-122072678D01*
X137496324Y-122110000D01*
X137500000Y-122147323D01*
X137500000Y-122558370D01*
X137406408Y-122559064D01*
X137247658Y-122717814D01*
X137247658Y-123554564D01*
X137267658Y-123554564D01*
X137267658Y-123808564D01*
X137247658Y-123808564D01*
X137247658Y-123828564D01*
X136993658Y-123828564D01*
X136993658Y-123808564D01*
X135944408Y-123808564D01*
X135785658Y-123967314D01*
X135782586Y-124169064D01*
X135794846Y-124293546D01*
X135831156Y-124413244D01*
X135890121Y-124523558D01*
X135969473Y-124620249D01*
X136047222Y-124684056D01*
X136040866Y-124689272D01*
X135931200Y-124822900D01*
X135849711Y-124975355D01*
X135799530Y-125140779D01*
X135782586Y-125312814D01*
X135782586Y-125800314D01*
X135799530Y-125972349D01*
X135849711Y-126137773D01*
X135931200Y-126290228D01*
X136040866Y-126423856D01*
X136174494Y-126533522D01*
X136326949Y-126615011D01*
X136492373Y-126665192D01*
X136664408Y-126682136D01*
X137576908Y-126682136D01*
X137748943Y-126665192D01*
X137914367Y-126615011D01*
X138066822Y-126533522D01*
X138200450Y-126423856D01*
X138288503Y-126316564D01*
X138328643Y-126316564D01*
X138365976Y-126320241D01*
X138403309Y-126316564D01*
X138514962Y-126305567D01*
X138658223Y-126262110D01*
X138790252Y-126191538D01*
X138905977Y-126096565D01*
X138946108Y-126047665D01*
X139130598Y-125863176D01*
X140093868Y-125863176D01*
X140218350Y-125850916D01*
X140338048Y-125814606D01*
X140448362Y-125755641D01*
X140493868Y-125718295D01*
X140539374Y-125755641D01*
X140649688Y-125814606D01*
X140769386Y-125850916D01*
X140893868Y-125863176D01*
X141308118Y-125860104D01*
X141466868Y-125701354D01*
X141466868Y-124752104D01*
X141446868Y-124752104D01*
X141446868Y-124498104D01*
X141466868Y-124498104D01*
X141466868Y-124478104D01*
X141720868Y-124478104D01*
X141720868Y-124498104D01*
X141740868Y-124498104D01*
X141740868Y-124752104D01*
X141720868Y-124752104D01*
X141720868Y-125701354D01*
X141879618Y-125860104D01*
X142293868Y-125863176D01*
X142418350Y-125850916D01*
X142538048Y-125814606D01*
X142585762Y-125789102D01*
X142532550Y-125842314D01*
X142529478Y-126044064D01*
X142541738Y-126168546D01*
X142578048Y-126288244D01*
X142637013Y-126398558D01*
X142716365Y-126495249D01*
X142813056Y-126574601D01*
X142923370Y-126633566D01*
X143043068Y-126669876D01*
X143167550Y-126682136D01*
X143581800Y-126679064D01*
X143740550Y-126520314D01*
X143740550Y-125683564D01*
X143994550Y-125683564D01*
X143994550Y-126520314D01*
X144153300Y-126679064D01*
X144567550Y-126682136D01*
X144692032Y-126669876D01*
X144811730Y-126633566D01*
X144922044Y-126574601D01*
X145018735Y-126495249D01*
X145098087Y-126398558D01*
X145157052Y-126288244D01*
X145193362Y-126168546D01*
X145205622Y-126044064D01*
X145202550Y-125842314D01*
X145043800Y-125683564D01*
X143994550Y-125683564D01*
X143740550Y-125683564D01*
X143720550Y-125683564D01*
X143720550Y-125432881D01*
X145303210Y-125432881D01*
X145303210Y-125767119D01*
X145368417Y-126094935D01*
X145496324Y-126403731D01*
X145682017Y-126681641D01*
X145918359Y-126917983D01*
X146196269Y-127103676D01*
X146505065Y-127231583D01*
X146832881Y-127296790D01*
X147167119Y-127296790D01*
X147494935Y-127231583D01*
X147803731Y-127103676D01*
X148081641Y-126917983D01*
X148317983Y-126681641D01*
X148503676Y-126403731D01*
X148631583Y-126094935D01*
X148696790Y-125767119D01*
X148696790Y-125432881D01*
X148631583Y-125105065D01*
X148503676Y-124796269D01*
X148317983Y-124518359D01*
X148081641Y-124282017D01*
X147803731Y-124096324D01*
X147494935Y-123968417D01*
X147167119Y-123903210D01*
X146832881Y-123903210D01*
X146505065Y-123968417D01*
X146196269Y-124096324D01*
X145918359Y-124282017D01*
X145682017Y-124518359D01*
X145496324Y-124796269D01*
X145368417Y-125105065D01*
X145303210Y-125432881D01*
X143720550Y-125432881D01*
X143720550Y-125429564D01*
X143740550Y-125429564D01*
X143740550Y-125409564D01*
X143994550Y-125409564D01*
X143994550Y-125429564D01*
X145043800Y-125429564D01*
X145202550Y-125270814D01*
X145205622Y-125069064D01*
X145193362Y-124944582D01*
X145157052Y-124824884D01*
X145098087Y-124714570D01*
X145018735Y-124617879D01*
X144940986Y-124554072D01*
X144947342Y-124548856D01*
X145057008Y-124415228D01*
X145138497Y-124262773D01*
X145188678Y-124097349D01*
X145205622Y-123925314D01*
X145205622Y-123437814D01*
X145188678Y-123265779D01*
X145138497Y-123100355D01*
X145057008Y-122947900D01*
X144947342Y-122814272D01*
X144813714Y-122704606D01*
X144661259Y-122623117D01*
X144495835Y-122572936D01*
X144323800Y-122555992D01*
X143474593Y-122555992D01*
X143432707Y-122514106D01*
X143408905Y-122485103D01*
X143293180Y-122390130D01*
X143161151Y-122319558D01*
X143017890Y-122276101D01*
X142908988Y-122265375D01*
X142883370Y-122180924D01*
X142824405Y-122070610D01*
X142745053Y-121973919D01*
X142648362Y-121894567D01*
X142538048Y-121835602D01*
X142418350Y-121799292D01*
X142356624Y-121793213D01*
X142357544Y-121783868D01*
X142353868Y-121746545D01*
X142353868Y-121746535D01*
X142342871Y-121634882D01*
X142299414Y-121491621D01*
X142285187Y-121465004D01*
X142228842Y-121359591D01*
X142157667Y-121272865D01*
X142133869Y-121243867D01*
X142104872Y-121220070D01*
X141253868Y-120369067D01*
X141253868Y-120248958D01*
X142795949Y-121791040D01*
X142819748Y-121820039D01*
X142848746Y-121843837D01*
X142935472Y-121915012D01*
X143065388Y-121984454D01*
X143067502Y-121985584D01*
X143210763Y-122029041D01*
X143322416Y-122040038D01*
X143322426Y-122040038D01*
X143359749Y-122043714D01*
X143397072Y-122040038D01*
X145835000Y-122040038D01*
X145835000Y-122106977D01*
X145874774Y-122306936D01*
X145952795Y-122495294D01*
X146066063Y-122664812D01*
X146210226Y-122808975D01*
X146379744Y-122922243D01*
X146568102Y-123000264D01*
X146768061Y-123040038D01*
X146971939Y-123040038D01*
X147171898Y-123000264D01*
X147360256Y-122922243D01*
X147529774Y-122808975D01*
X147673937Y-122664812D01*
X147787205Y-122495294D01*
X147789378Y-122490048D01*
X148056756Y-122490048D01*
X149667729Y-124101022D01*
X149691528Y-124130021D01*
X149720526Y-124153819D01*
X149807253Y-124224994D01*
X149939282Y-124295566D01*
X150082543Y-124339023D01*
X150231529Y-124353697D01*
X150268862Y-124350020D01*
X151755219Y-124350020D01*
X154777917Y-127372720D01*
X154772068Y-127386842D01*
X154715000Y-127673740D01*
X154715000Y-127966260D01*
X154772068Y-128253158D01*
X154884010Y-128523411D01*
X155046525Y-128766632D01*
X155253368Y-128973475D01*
X155435534Y-129095195D01*
X155318645Y-129164822D01*
X155102412Y-129359731D01*
X154928359Y-129593080D01*
X154803175Y-129855901D01*
X154758524Y-130003110D01*
X154879845Y-130233000D01*
X156073000Y-130233000D01*
X156073000Y-130213000D01*
X156327000Y-130213000D01*
X156327000Y-130233000D01*
X156347000Y-130233000D01*
X156347000Y-130487000D01*
X156327000Y-130487000D01*
X156327000Y-130507000D01*
X156073000Y-130507000D01*
X156073000Y-130487000D01*
X154879845Y-130487000D01*
X154758524Y-130716890D01*
X154803175Y-130864099D01*
X154928359Y-131126920D01*
X155102412Y-131360269D01*
X155318645Y-131555178D01*
X155435534Y-131624805D01*
X155253368Y-131746525D01*
X155046525Y-131953368D01*
X154921822Y-132140000D01*
X136614802Y-132140000D01*
X136037345Y-131562543D01*
X136051185Y-131551185D01*
X136130537Y-131454494D01*
X136189502Y-131344180D01*
X136211513Y-131271620D01*
X136343368Y-131403475D01*
X136586589Y-131565990D01*
X136856842Y-131677932D01*
X137143740Y-131735000D01*
X137436260Y-131735000D01*
X137723158Y-131677932D01*
X137993411Y-131565990D01*
X138236632Y-131403475D01*
X138443475Y-131196632D01*
X138560000Y-131022240D01*
X138676525Y-131196632D01*
X138883368Y-131403475D01*
X139126589Y-131565990D01*
X139396842Y-131677932D01*
X139683740Y-131735000D01*
X139976260Y-131735000D01*
X140263158Y-131677932D01*
X140533411Y-131565990D01*
X140776632Y-131403475D01*
X140983475Y-131196632D01*
X141105195Y-131014466D01*
X141174822Y-131131355D01*
X141369731Y-131347588D01*
X141603080Y-131521641D01*
X141865901Y-131646825D01*
X142013110Y-131691476D01*
X142243000Y-131570155D01*
X142243000Y-130377000D01*
X142497000Y-130377000D01*
X142497000Y-131570155D01*
X142726890Y-131691476D01*
X142874099Y-131646825D01*
X143136920Y-131521641D01*
X143370269Y-131347588D01*
X143565178Y-131131355D01*
X143640000Y-131005745D01*
X143714822Y-131131355D01*
X143909731Y-131347588D01*
X144143080Y-131521641D01*
X144405901Y-131646825D01*
X144553110Y-131691476D01*
X144783000Y-131570155D01*
X144783000Y-130377000D01*
X142497000Y-130377000D01*
X142243000Y-130377000D01*
X142223000Y-130377000D01*
X142223000Y-130123000D01*
X142243000Y-130123000D01*
X142243000Y-128929845D01*
X142497000Y-128929845D01*
X142497000Y-130123000D01*
X144783000Y-130123000D01*
X144783000Y-128929845D01*
X145037000Y-128929845D01*
X145037000Y-130123000D01*
X145057000Y-130123000D01*
X145057000Y-130377000D01*
X145037000Y-130377000D01*
X145037000Y-131570155D01*
X145266890Y-131691476D01*
X145414099Y-131646825D01*
X145676920Y-131521641D01*
X145910269Y-131347588D01*
X146105178Y-131131355D01*
X146174805Y-131014466D01*
X146296525Y-131196632D01*
X146503368Y-131403475D01*
X146746589Y-131565990D01*
X147016842Y-131677932D01*
X147303740Y-131735000D01*
X147596260Y-131735000D01*
X147883158Y-131677932D01*
X148153411Y-131565990D01*
X148396632Y-131403475D01*
X148603475Y-131196632D01*
X148720000Y-131022240D01*
X148836525Y-131196632D01*
X149043368Y-131403475D01*
X149286589Y-131565990D01*
X149556842Y-131677932D01*
X149843740Y-131735000D01*
X150136260Y-131735000D01*
X150423158Y-131677932D01*
X150693411Y-131565990D01*
X150936632Y-131403475D01*
X151143475Y-131196632D01*
X151260000Y-131022240D01*
X151376525Y-131196632D01*
X151583368Y-131403475D01*
X151826589Y-131565990D01*
X152096842Y-131677932D01*
X152383740Y-131735000D01*
X152676260Y-131735000D01*
X152963158Y-131677932D01*
X153233411Y-131565990D01*
X153476632Y-131403475D01*
X153683475Y-131196632D01*
X153845990Y-130953411D01*
X153957932Y-130683158D01*
X154015000Y-130396260D01*
X154015000Y-130103740D01*
X153957932Y-129816842D01*
X153845990Y-129546589D01*
X153683475Y-129303368D01*
X153476632Y-129096525D01*
X153233411Y-128934010D01*
X152963158Y-128822068D01*
X152676260Y-128765000D01*
X152383740Y-128765000D01*
X152096842Y-128822068D01*
X151826589Y-128934010D01*
X151583368Y-129096525D01*
X151376525Y-129303368D01*
X151260000Y-129477760D01*
X151143475Y-129303368D01*
X150936632Y-129096525D01*
X150693411Y-128934010D01*
X150423158Y-128822068D01*
X150136260Y-128765000D01*
X149843740Y-128765000D01*
X149556842Y-128822068D01*
X149286589Y-128934010D01*
X149043368Y-129096525D01*
X148836525Y-129303368D01*
X148720000Y-129477760D01*
X148603475Y-129303368D01*
X148396632Y-129096525D01*
X148153411Y-128934010D01*
X147883158Y-128822068D01*
X147596260Y-128765000D01*
X147303740Y-128765000D01*
X147016842Y-128822068D01*
X146746589Y-128934010D01*
X146503368Y-129096525D01*
X146296525Y-129303368D01*
X146174805Y-129485534D01*
X146105178Y-129368645D01*
X145910269Y-129152412D01*
X145676920Y-128978359D01*
X145414099Y-128853175D01*
X145266890Y-128808524D01*
X145037000Y-128929845D01*
X144783000Y-128929845D01*
X144553110Y-128808524D01*
X144405901Y-128853175D01*
X144143080Y-128978359D01*
X143909731Y-129152412D01*
X143714822Y-129368645D01*
X143640000Y-129494255D01*
X143565178Y-129368645D01*
X143370269Y-129152412D01*
X143136920Y-128978359D01*
X142874099Y-128853175D01*
X142726890Y-128808524D01*
X142497000Y-128929845D01*
X142243000Y-128929845D01*
X142013110Y-128808524D01*
X141865901Y-128853175D01*
X141603080Y-128978359D01*
X141369731Y-129152412D01*
X141174822Y-129368645D01*
X141105195Y-129485534D01*
X140983475Y-129303368D01*
X140776632Y-129096525D01*
X140533411Y-128934010D01*
X140263158Y-128822068D01*
X139976260Y-128765000D01*
X139683740Y-128765000D01*
X139396842Y-128822068D01*
X139126589Y-128934010D01*
X138883368Y-129096525D01*
X138676525Y-129303368D01*
X138560000Y-129477760D01*
X138443475Y-129303368D01*
X138236632Y-129096525D01*
X138045913Y-128969091D01*
X138039003Y-128898933D01*
X137995546Y-128755672D01*
X137924974Y-128623643D01*
X137907162Y-128601939D01*
X137853799Y-128536915D01*
X137853795Y-128536911D01*
X137830001Y-128507918D01*
X137801008Y-128484124D01*
X136575884Y-127259002D01*
X136552082Y-127229999D01*
X136436357Y-127135026D01*
X136304328Y-127064454D01*
X136161067Y-127020997D01*
X136049414Y-127010000D01*
X136049403Y-127010000D01*
X136012081Y-127006324D01*
X135974759Y-127010000D01*
X131523711Y-127010000D01*
X131479774Y-126966063D01*
X131310256Y-126852795D01*
X131121898Y-126774774D01*
X130921939Y-126735000D01*
X130718061Y-126735000D01*
X130518102Y-126774774D01*
X130329744Y-126852795D01*
X130160226Y-126966063D01*
X130016063Y-127110226D01*
X129902795Y-127279744D01*
X129824774Y-127468102D01*
X129785000Y-127668061D01*
X129785000Y-127740000D01*
X128624535Y-127740000D01*
X128494039Y-127544698D01*
X128285302Y-127335961D01*
X128124187Y-127228308D01*
X128340293Y-127066854D01*
X128536817Y-126848488D01*
X128686964Y-126595978D01*
X128784963Y-126319027D01*
X128664464Y-126087000D01*
X127457000Y-126087000D01*
X127457000Y-126107000D01*
X127203000Y-126107000D01*
X127203000Y-126087000D01*
X127183000Y-126087000D01*
X127183000Y-125833000D01*
X127203000Y-125833000D01*
X127203000Y-124626183D01*
X127457000Y-124626183D01*
X127457000Y-125833000D01*
X128664464Y-125833000D01*
X128784963Y-125600973D01*
X128686964Y-125324022D01*
X128536817Y-125071512D01*
X128340293Y-124853146D01*
X128104944Y-124677316D01*
X127839814Y-124550778D01*
X127689026Y-124505042D01*
X127457000Y-124626183D01*
X127203000Y-124626183D01*
X126970974Y-124505042D01*
X126820186Y-124550778D01*
X126820000Y-124550867D01*
X126820000Y-124235646D01*
X130054575Y-121001072D01*
X130160226Y-121106723D01*
X130329744Y-121219991D01*
X130518102Y-121298012D01*
X130718061Y-121337786D01*
X130804174Y-121337786D01*
X130804173Y-122680462D01*
X130739774Y-122616063D01*
X130570256Y-122502795D01*
X130381898Y-122424774D01*
X130181939Y-122385000D01*
X129978061Y-122385000D01*
X129778102Y-122424774D01*
X129589744Y-122502795D01*
X129420226Y-122616063D01*
X129276063Y-122760226D01*
X129162795Y-122929744D01*
X129084774Y-123118102D01*
X129045000Y-123318061D01*
X129045000Y-123521939D01*
X129084774Y-123721898D01*
X129162795Y-123910256D01*
X129276063Y-124079774D01*
X129320000Y-124123711D01*
X129320000Y-124287976D01*
X129316324Y-124325298D01*
X129320000Y-124362620D01*
X129320000Y-124362631D01*
X129330998Y-124474284D01*
X129333484Y-124482479D01*
X129374454Y-124617544D01*
X129445026Y-124749574D01*
X129500774Y-124817502D01*
X129540000Y-124865299D01*
X129568998Y-124889097D01*
X130008400Y-125328499D01*
X130032203Y-125357503D01*
X130146751Y-125451510D01*
X130147928Y-125452476D01*
X130279957Y-125523048D01*
X130423218Y-125566505D01*
X130572204Y-125581179D01*
X130609537Y-125577502D01*
X132122386Y-125577502D01*
X132159708Y-125581178D01*
X132197030Y-125577502D01*
X132197041Y-125577502D01*
X132308694Y-125566505D01*
X132451955Y-125523048D01*
X132583984Y-125452476D01*
X132699709Y-125357503D01*
X132723511Y-125328500D01*
X133266024Y-124785988D01*
X133295023Y-124762189D01*
X133334103Y-124714570D01*
X133389996Y-124646465D01*
X133460568Y-124514435D01*
X133469605Y-124484644D01*
X133504025Y-124371174D01*
X133515022Y-124259521D01*
X133515022Y-124259512D01*
X133518698Y-124222189D01*
X133515022Y-124184866D01*
X133515022Y-122854915D01*
X133548731Y-122844689D01*
X133701186Y-122763200D01*
X133800833Y-122681422D01*
X133797979Y-122868852D01*
X133810239Y-122993334D01*
X133846549Y-123113032D01*
X133905514Y-123223346D01*
X133984866Y-123320037D01*
X134081557Y-123399389D01*
X134191871Y-123458354D01*
X134311569Y-123494664D01*
X134436051Y-123506924D01*
X134850301Y-123503852D01*
X135009051Y-123345102D01*
X135009051Y-122508352D01*
X135263051Y-122508352D01*
X135263051Y-123345102D01*
X135421801Y-123503852D01*
X135836051Y-123506924D01*
X135891324Y-123501480D01*
X135944408Y-123554564D01*
X136993658Y-123554564D01*
X136993658Y-122717814D01*
X136834908Y-122559064D01*
X136420658Y-122555992D01*
X136365385Y-122561436D01*
X136312301Y-122508352D01*
X135263051Y-122508352D01*
X135009051Y-122508352D01*
X134989051Y-122508352D01*
X134989051Y-122254352D01*
X135009051Y-122254352D01*
X135009051Y-122234352D01*
X135263051Y-122234352D01*
X135263051Y-122254352D01*
X136312301Y-122254352D01*
X136471051Y-122095602D01*
X136474123Y-121893852D01*
X136461863Y-121769370D01*
X136425553Y-121649672D01*
X136366588Y-121539358D01*
X136287236Y-121442667D01*
X136209487Y-121378860D01*
X136215843Y-121373644D01*
X136303896Y-121266352D01*
X136764351Y-121266352D01*
X136801673Y-121270028D01*
X136838995Y-121266352D01*
X136839006Y-121266352D01*
X136950659Y-121255355D01*
X137093920Y-121211898D01*
X137225949Y-121141326D01*
X137341674Y-121046353D01*
X137365477Y-121017349D01*
X138604871Y-119777956D01*
X138633869Y-119754158D01*
X138728842Y-119638433D01*
X138799414Y-119506404D01*
X138831132Y-119401842D01*
X138893868Y-119325398D01*
X138933868Y-119374139D01*
G36*
X155046525Y-123686632D02*
G01*
X155253368Y-123893475D01*
X155427760Y-124010000D01*
X155253368Y-124126525D01*
X155046525Y-124333368D01*
X154955230Y-124470000D01*
X154661212Y-124470000D01*
X153641211Y-123450000D01*
X154888413Y-123450000D01*
X155046525Y-123686632D01*
G37*
X155046525Y-123686632D02*
X155253368Y-123893475D01*
X155427760Y-124010000D01*
X155253368Y-124126525D01*
X155046525Y-124333368D01*
X154955230Y-124470000D01*
X154661212Y-124470000D01*
X153641211Y-123450000D01*
X154888413Y-123450000D01*
X155046525Y-123686632D01*
G36*
X139520868Y-122898104D02*
G01*
X139540868Y-122898104D01*
X139540868Y-123152104D01*
X139520868Y-123152104D01*
X139520868Y-123172104D01*
X139266868Y-123172104D01*
X139266868Y-123152104D01*
X139246868Y-123152104D01*
X139246868Y-122898104D01*
X139266868Y-122898104D01*
X139266868Y-122878104D01*
X139520868Y-122878104D01*
X139520868Y-122898104D01*
G37*
X139520868Y-122898104D02*
X139540868Y-122898104D01*
X139540868Y-123152104D01*
X139520868Y-123152104D01*
X139520868Y-123172104D01*
X139266868Y-123172104D01*
X139266868Y-123152104D01*
X139246868Y-123152104D01*
X139246868Y-122898104D01*
X139266868Y-122898104D01*
X139266868Y-122878104D01*
X139520868Y-122878104D01*
X139520868Y-122898104D01*
G36*
X140598279Y-121863081D02*
G01*
X140539374Y-121894567D01*
X140493868Y-121931913D01*
X140448362Y-121894567D01*
X140338048Y-121835602D01*
X140218350Y-121799292D01*
X140093868Y-121787032D01*
X139679618Y-121790104D01*
X139520870Y-121948852D01*
X139520870Y-121923931D01*
X140090000Y-121354802D01*
X140598279Y-121863081D01*
G37*
X140598279Y-121863081D02*
X140539374Y-121894567D01*
X140493868Y-121931913D01*
X140448362Y-121894567D01*
X140338048Y-121835602D01*
X140218350Y-121799292D01*
X140093868Y-121787032D01*
X139679618Y-121790104D01*
X139520870Y-121948852D01*
X139520870Y-121923931D01*
X140090000Y-121354802D01*
X140598279Y-121863081D01*
G36*
X154777918Y-99432719D02*
G01*
X154772068Y-99446842D01*
X154715000Y-99733740D01*
X154715000Y-100026260D01*
X154772068Y-100313158D01*
X154884010Y-100583411D01*
X155046525Y-100826632D01*
X155253368Y-101033475D01*
X155427760Y-101150000D01*
X155253368Y-101266525D01*
X155046525Y-101473368D01*
X154884010Y-101716589D01*
X154772068Y-101986842D01*
X154715000Y-102273740D01*
X154715000Y-102566260D01*
X154758791Y-102786408D01*
X154359003Y-103186196D01*
X154329999Y-103209999D01*
X154299801Y-103246796D01*
X154235026Y-103325724D01*
X154190301Y-103409398D01*
X154164454Y-103457754D01*
X154120997Y-103601015D01*
X154110000Y-103712668D01*
X154110000Y-103712678D01*
X154106324Y-103750000D01*
X154110000Y-103787323D01*
X154110001Y-105335197D01*
X153655219Y-105789980D01*
X151286137Y-105789980D01*
X151248814Y-105786304D01*
X151211491Y-105789980D01*
X151211482Y-105789980D01*
X151099829Y-105800977D01*
X150956568Y-105844434D01*
X150824539Y-105915006D01*
X150824537Y-105915007D01*
X150824538Y-105915007D01*
X150737811Y-105986181D01*
X150737807Y-105986185D01*
X150708814Y-106009979D01*
X150685020Y-106038972D01*
X147581940Y-109142054D01*
X147581940Y-109039157D01*
X147569680Y-108914675D01*
X147569322Y-108913494D01*
X147578868Y-108799907D01*
X147486785Y-108707824D01*
X147474405Y-108684663D01*
X147395053Y-108587972D01*
X147298362Y-108508620D01*
X147188048Y-108449655D01*
X147068350Y-108413345D01*
X146943868Y-108401085D01*
X145443868Y-108401085D01*
X145319386Y-108413345D01*
X145199688Y-108449655D01*
X145089374Y-108508620D01*
X145033887Y-108554157D01*
X143963165Y-108554157D01*
X143925842Y-108550481D01*
X143888519Y-108554157D01*
X143888510Y-108554157D01*
X143776857Y-108565154D01*
X143633596Y-108608611D01*
X143501567Y-108679183D01*
X143501565Y-108679184D01*
X143501566Y-108679184D01*
X143414839Y-108750358D01*
X143414835Y-108750362D01*
X143385842Y-108774156D01*
X143362048Y-108803149D01*
X142690198Y-109475000D01*
X142628061Y-109475000D01*
X142428102Y-109514774D01*
X142239744Y-109592795D01*
X142070226Y-109706063D01*
X141926063Y-109850226D01*
X141812795Y-110019744D01*
X141734774Y-110208102D01*
X141695000Y-110408061D01*
X141695000Y-110611939D01*
X141734774Y-110811898D01*
X141812795Y-111000256D01*
X141926063Y-111169774D01*
X142070226Y-111313937D01*
X142239744Y-111427205D01*
X142428102Y-111505226D01*
X142628061Y-111545000D01*
X142831939Y-111545000D01*
X143031898Y-111505226D01*
X143220256Y-111427205D01*
X143389774Y-111313937D01*
X143533937Y-111169774D01*
X143647205Y-111000256D01*
X143725226Y-110811898D01*
X143765000Y-110611939D01*
X143765000Y-110549802D01*
X144240646Y-110074157D01*
X144805796Y-110074157D01*
X144805796Y-110389157D01*
X144818056Y-110513639D01*
X144818213Y-110514157D01*
X144818056Y-110514675D01*
X144805796Y-110639157D01*
X144805796Y-111189157D01*
X144818056Y-111313639D01*
X144818213Y-111314157D01*
X144818056Y-111314675D01*
X144805796Y-111439157D01*
X144805796Y-111989157D01*
X144818056Y-112113639D01*
X144818213Y-112114157D01*
X144818056Y-112114675D01*
X144805796Y-112239157D01*
X144805796Y-112789157D01*
X144818056Y-112913639D01*
X144818213Y-112914157D01*
X144818056Y-112914675D01*
X144805796Y-113039157D01*
X144805796Y-113589157D01*
X144818056Y-113713639D01*
X144818213Y-113714157D01*
X144818056Y-113714675D01*
X144805796Y-113839157D01*
X144805796Y-114389157D01*
X144818056Y-114513639D01*
X144818213Y-114514157D01*
X144818056Y-114514675D01*
X144805796Y-114639157D01*
X144805796Y-115189157D01*
X144818056Y-115313639D01*
X144818213Y-115314157D01*
X144818056Y-115314675D01*
X144805796Y-115439157D01*
X144805796Y-115989157D01*
X144818056Y-116113639D01*
X144818414Y-116114820D01*
X144808868Y-116228407D01*
X144900951Y-116320490D01*
X144913331Y-116343651D01*
X144992683Y-116440342D01*
X145089374Y-116519694D01*
X145199688Y-116578659D01*
X145319386Y-116614969D01*
X145443868Y-116627229D01*
X146943868Y-116627229D01*
X147068350Y-116614969D01*
X147188048Y-116578659D01*
X147298362Y-116519694D01*
X147381553Y-116451421D01*
X147486115Y-116419703D01*
X147618144Y-116349131D01*
X147733869Y-116254158D01*
X147757671Y-116225155D01*
X147890376Y-116092450D01*
X147890376Y-116158542D01*
X148049124Y-116158542D01*
X147890376Y-116317290D01*
X147887304Y-116519040D01*
X147899564Y-116643522D01*
X147935874Y-116763220D01*
X147994839Y-116873534D01*
X148074191Y-116970225D01*
X148170882Y-117049577D01*
X148281196Y-117108542D01*
X148400894Y-117144852D01*
X148525376Y-117157112D01*
X148939626Y-117154040D01*
X149098376Y-116995290D01*
X149098376Y-116158540D01*
X149352376Y-116158540D01*
X149352376Y-116995290D01*
X149511126Y-117154040D01*
X149925376Y-117157112D01*
X150049858Y-117144852D01*
X150169556Y-117108542D01*
X150279870Y-117049577D01*
X150376561Y-116970225D01*
X150455913Y-116873534D01*
X150514878Y-116763220D01*
X150551188Y-116643522D01*
X150563448Y-116519040D01*
X150560376Y-116317290D01*
X150401626Y-116158540D01*
X149352376Y-116158540D01*
X149098376Y-116158540D01*
X149078376Y-116158540D01*
X149078376Y-115904540D01*
X149098376Y-115904540D01*
X149098376Y-115884540D01*
X149352376Y-115884540D01*
X149352376Y-115904540D01*
X150401626Y-115904540D01*
X150560376Y-115745790D01*
X150563448Y-115544040D01*
X150551188Y-115419558D01*
X150514878Y-115299860D01*
X150455913Y-115189546D01*
X150393190Y-115113117D01*
X150512503Y-115136850D01*
X150716381Y-115136850D01*
X150916340Y-115097076D01*
X151104698Y-115019055D01*
X151274216Y-114905787D01*
X151418379Y-114761624D01*
X151531647Y-114592106D01*
X151609668Y-114403748D01*
X151649442Y-114203789D01*
X151649442Y-113999911D01*
X151609668Y-113799952D01*
X151584839Y-113740010D01*
X153985209Y-113740010D01*
X154000000Y-113754801D01*
X154000001Y-114744749D01*
X153996324Y-114782081D01*
X154000001Y-114819414D01*
X154010998Y-114931067D01*
X154016887Y-114950481D01*
X154054454Y-115074327D01*
X154125026Y-115206357D01*
X154187197Y-115282112D01*
X154220000Y-115322082D01*
X154248998Y-115345880D01*
X154484115Y-115580997D01*
X154507918Y-115610001D01*
X154623643Y-115704974D01*
X154755672Y-115775546D01*
X154879777Y-115813192D01*
X154884010Y-115823411D01*
X155046525Y-116066632D01*
X155253368Y-116273475D01*
X155427760Y-116390000D01*
X155253368Y-116506525D01*
X155046525Y-116713368D01*
X154884010Y-116956589D01*
X154772068Y-117226842D01*
X154715000Y-117513740D01*
X154715000Y-117806260D01*
X154772068Y-118093158D01*
X154884010Y-118363411D01*
X155046525Y-118606632D01*
X155253368Y-118813475D01*
X155427760Y-118930000D01*
X155253368Y-119046525D01*
X155046525Y-119253368D01*
X154884010Y-119496589D01*
X154772068Y-119766842D01*
X154715000Y-120053740D01*
X154715000Y-120346260D01*
X154772068Y-120633158D01*
X154884010Y-120903411D01*
X155046525Y-121146632D01*
X155253368Y-121353475D01*
X155427760Y-121470000D01*
X155253368Y-121586525D01*
X155046525Y-121793368D01*
X154955230Y-121930000D01*
X151939817Y-121930000D01*
X151939817Y-121863061D01*
X151900043Y-121663102D01*
X151822022Y-121474744D01*
X151708754Y-121305226D01*
X151564591Y-121161063D01*
X151395073Y-121047795D01*
X151206715Y-120969774D01*
X151006756Y-120930000D01*
X150802878Y-120930000D01*
X150602919Y-120969774D01*
X150597542Y-120972001D01*
X149494563Y-119869023D01*
X149470760Y-119840019D01*
X149444732Y-119818659D01*
X149457005Y-119756959D01*
X149457005Y-119553081D01*
X149417231Y-119353122D01*
X149339210Y-119164764D01*
X149225942Y-118995246D01*
X149081779Y-118851083D01*
X148912261Y-118737815D01*
X148723903Y-118659794D01*
X148523944Y-118620020D01*
X148320066Y-118620020D01*
X148120107Y-118659794D01*
X147931749Y-118737815D01*
X147873013Y-118777061D01*
X147847205Y-118714754D01*
X147733937Y-118545236D01*
X147589774Y-118401073D01*
X147420256Y-118287805D01*
X147231898Y-118209784D01*
X147031939Y-118170010D01*
X146828061Y-118170010D01*
X146628102Y-118209784D01*
X146439744Y-118287805D01*
X146270226Y-118401073D01*
X146126063Y-118545236D01*
X146012795Y-118714754D01*
X146010622Y-118720000D01*
X145406940Y-118720000D01*
X145406940Y-117464157D01*
X145402896Y-117423093D01*
X145447081Y-117427221D01*
X145908118Y-117424157D01*
X146066868Y-117265407D01*
X146066868Y-116641157D01*
X146320868Y-116641157D01*
X146320868Y-117265407D01*
X146479618Y-117424157D01*
X146940655Y-117427221D01*
X147065197Y-117415587D01*
X147185076Y-117379881D01*
X147295686Y-117321473D01*
X147392776Y-117242608D01*
X147472614Y-117146318D01*
X147532133Y-117036302D01*
X147569045Y-116916788D01*
X147578868Y-116799907D01*
X147420118Y-116641157D01*
X146320868Y-116641157D01*
X146066868Y-116641157D01*
X144967618Y-116641157D01*
X144808868Y-116799907D01*
X144811420Y-116830276D01*
X144768868Y-116826085D01*
X144218868Y-116826085D01*
X144094386Y-116838345D01*
X144093868Y-116838502D01*
X144093350Y-116838345D01*
X143968868Y-116826085D01*
X143418868Y-116826085D01*
X143294386Y-116838345D01*
X143293868Y-116838502D01*
X143293350Y-116838345D01*
X143168868Y-116826085D01*
X142618868Y-116826085D01*
X142494386Y-116838345D01*
X142493868Y-116838502D01*
X142493350Y-116838345D01*
X142368868Y-116826085D01*
X141818868Y-116826085D01*
X141694386Y-116838345D01*
X141693868Y-116838502D01*
X141693350Y-116838345D01*
X141568868Y-116826085D01*
X141018868Y-116826085D01*
X140894386Y-116838345D01*
X140893868Y-116838502D01*
X140893350Y-116838345D01*
X140768868Y-116826085D01*
X140218868Y-116826085D01*
X140094386Y-116838345D01*
X140093868Y-116838502D01*
X140093350Y-116838345D01*
X139968868Y-116826085D01*
X139418868Y-116826085D01*
X139294386Y-116838345D01*
X139293205Y-116838703D01*
X139179618Y-116829157D01*
X139087535Y-116921240D01*
X139064374Y-116933620D01*
X138967683Y-117012972D01*
X138893868Y-117102916D01*
X138820053Y-117012972D01*
X138723362Y-116933620D01*
X138700201Y-116921240D01*
X138608118Y-116829157D01*
X138494531Y-116838703D01*
X138493350Y-116838345D01*
X138468867Y-116835934D01*
X141771003Y-113533799D01*
X141800001Y-113510001D01*
X141894974Y-113394276D01*
X141965546Y-113262247D01*
X142009003Y-113118986D01*
X142020000Y-113007333D01*
X142020000Y-113007324D01*
X142023676Y-112970001D01*
X142020000Y-112932678D01*
X142020000Y-112683711D01*
X142063937Y-112639774D01*
X142177205Y-112470256D01*
X142255226Y-112281898D01*
X142295000Y-112081939D01*
X142295000Y-111878061D01*
X142255226Y-111678102D01*
X142177205Y-111489744D01*
X142063937Y-111320226D01*
X141919774Y-111176063D01*
X141750256Y-111062795D01*
X141561898Y-110984774D01*
X141361939Y-110945000D01*
X141158061Y-110945000D01*
X140958102Y-110984774D01*
X140769744Y-111062795D01*
X140600226Y-111176063D01*
X140456063Y-111320226D01*
X140342795Y-111489744D01*
X140264774Y-111678102D01*
X140225000Y-111878061D01*
X140225000Y-112081939D01*
X140264774Y-112281898D01*
X140342795Y-112470256D01*
X140456063Y-112639774D01*
X140485744Y-112669455D01*
X137905015Y-115250183D01*
X137904453Y-115249341D01*
X137917205Y-115230256D01*
X137995226Y-115041898D01*
X138035000Y-114841939D01*
X138035000Y-114638061D01*
X137995226Y-114438102D01*
X137917205Y-114249744D01*
X137892331Y-114212517D01*
X137907205Y-114190256D01*
X137985226Y-114001898D01*
X138025000Y-113801939D01*
X138025000Y-113598061D01*
X137985226Y-113398102D01*
X137907205Y-113209744D01*
X137793937Y-113040226D01*
X137649774Y-112896063D01*
X137480256Y-112782795D01*
X137291898Y-112704774D01*
X137091939Y-112665000D01*
X136888061Y-112665000D01*
X136688102Y-112704774D01*
X136499744Y-112782795D01*
X136330226Y-112896063D01*
X136186063Y-113040226D01*
X136181940Y-113046397D01*
X136181940Y-113039157D01*
X136169680Y-112914675D01*
X136169523Y-112914157D01*
X136169680Y-112913639D01*
X136181940Y-112789157D01*
X136181940Y-112239157D01*
X136169680Y-112114675D01*
X136169322Y-112113494D01*
X136178868Y-111999907D01*
X136086785Y-111907824D01*
X136074405Y-111884663D01*
X135995053Y-111787972D01*
X135905109Y-111714157D01*
X135995053Y-111640342D01*
X136074405Y-111543651D01*
X136086785Y-111520490D01*
X136178868Y-111428407D01*
X136169322Y-111314820D01*
X136169680Y-111313639D01*
X136181940Y-111189157D01*
X136181940Y-110639157D01*
X136169680Y-110514675D01*
X136169523Y-110514157D01*
X136169680Y-110513639D01*
X136181940Y-110389157D01*
X136181940Y-109839157D01*
X136169680Y-109714675D01*
X136169523Y-109714157D01*
X136169680Y-109713639D01*
X136181940Y-109589157D01*
X136181940Y-109039157D01*
X136169680Y-108914675D01*
X136169523Y-108914157D01*
X136169680Y-108913639D01*
X136181940Y-108789157D01*
X136181940Y-108239157D01*
X136177906Y-108198195D01*
X136218868Y-108202229D01*
X136768868Y-108202229D01*
X136893350Y-108189969D01*
X136894531Y-108189611D01*
X137008118Y-108199157D01*
X137100201Y-108107074D01*
X137123362Y-108094694D01*
X137220053Y-108015342D01*
X137293868Y-107925398D01*
X137367683Y-108015342D01*
X137464374Y-108094694D01*
X137487535Y-108107074D01*
X137579618Y-108199157D01*
X137693205Y-108189611D01*
X137694386Y-108189969D01*
X137818868Y-108202229D01*
X138368868Y-108202229D01*
X138493350Y-108189969D01*
X138493868Y-108189812D01*
X138494386Y-108189969D01*
X138618868Y-108202229D01*
X139168868Y-108202229D01*
X139293350Y-108189969D01*
X139293868Y-108189812D01*
X139294386Y-108189969D01*
X139418868Y-108202229D01*
X139968868Y-108202229D01*
X140093350Y-108189969D01*
X140093868Y-108189812D01*
X140094386Y-108189969D01*
X140218868Y-108202229D01*
X140768868Y-108202229D01*
X140893350Y-108189969D01*
X140893868Y-108189812D01*
X140894386Y-108189969D01*
X141018868Y-108202229D01*
X141568868Y-108202229D01*
X141693350Y-108189969D01*
X141693868Y-108189812D01*
X141694386Y-108189969D01*
X141818868Y-108202229D01*
X142368868Y-108202229D01*
X142493350Y-108189969D01*
X142493868Y-108189812D01*
X142494386Y-108189969D01*
X142618868Y-108202229D01*
X143168868Y-108202229D01*
X143293350Y-108189969D01*
X143294531Y-108189611D01*
X143408118Y-108199157D01*
X143500201Y-108107074D01*
X143523362Y-108094694D01*
X143620053Y-108015342D01*
X143693868Y-107925398D01*
X143767683Y-108015342D01*
X143864374Y-108094694D01*
X143887535Y-108107074D01*
X143979618Y-108199157D01*
X144093205Y-108189611D01*
X144094386Y-108189969D01*
X144218868Y-108202229D01*
X144768868Y-108202229D01*
X144811420Y-108198038D01*
X144808868Y-108228407D01*
X144967618Y-108387157D01*
X146066868Y-108387157D01*
X146066868Y-107762907D01*
X146320868Y-107762907D01*
X146320868Y-108387157D01*
X147420118Y-108387157D01*
X147578868Y-108228407D01*
X147569045Y-108111526D01*
X147532133Y-107992012D01*
X147472614Y-107881996D01*
X147392776Y-107785706D01*
X147295686Y-107706841D01*
X147185076Y-107648433D01*
X147065197Y-107612727D01*
X146940655Y-107601093D01*
X146479618Y-107604157D01*
X146320868Y-107762907D01*
X146066868Y-107762907D01*
X145908118Y-107604157D01*
X145447081Y-107601093D01*
X145402896Y-107605221D01*
X145406940Y-107564157D01*
X145406940Y-106130578D01*
X146409922Y-106130578D01*
X146447244Y-106134254D01*
X146484566Y-106130578D01*
X146484577Y-106130578D01*
X146596230Y-106119581D01*
X146739491Y-106076124D01*
X146871520Y-106005552D01*
X146987245Y-105910579D01*
X147011048Y-105881575D01*
X147300182Y-105592441D01*
X147329186Y-105568638D01*
X147424159Y-105452913D01*
X147447304Y-105409613D01*
X147522849Y-105369233D01*
X147656477Y-105259567D01*
X147766143Y-105125939D01*
X147847632Y-104973484D01*
X147857858Y-104939775D01*
X147926176Y-104939775D01*
X147970288Y-104983887D01*
X148139806Y-105097155D01*
X148328164Y-105175176D01*
X148528123Y-105214950D01*
X148732001Y-105214950D01*
X148931960Y-105175176D01*
X149120318Y-105097155D01*
X149289836Y-104983887D01*
X149433999Y-104839724D01*
X149547267Y-104670206D01*
X149625288Y-104481848D01*
X149665062Y-104281889D01*
X149665062Y-104078011D01*
X149625288Y-103878052D01*
X149547267Y-103689694D01*
X149433999Y-103520176D01*
X149289836Y-103376013D01*
X149120318Y-103262745D01*
X148931960Y-103184724D01*
X148732001Y-103144950D01*
X148528123Y-103144950D01*
X148328164Y-103184724D01*
X148139806Y-103262745D01*
X147970288Y-103376013D01*
X147926526Y-103419775D01*
X147857858Y-103419775D01*
X147847632Y-103386066D01*
X147766143Y-103233611D01*
X147656477Y-103099983D01*
X147522849Y-102990317D01*
X147370394Y-102908828D01*
X147204970Y-102858647D01*
X147032935Y-102841703D01*
X146545435Y-102841703D01*
X146373400Y-102858647D01*
X146207976Y-102908828D01*
X146055521Y-102990317D01*
X145921893Y-103099983D01*
X145916677Y-103106339D01*
X145852870Y-103028590D01*
X145756179Y-102949238D01*
X145645865Y-102890273D01*
X145526167Y-102853963D01*
X145401685Y-102841703D01*
X145199935Y-102844775D01*
X145041185Y-103003525D01*
X145041185Y-104052775D01*
X145061185Y-104052775D01*
X145061185Y-104306775D01*
X145041185Y-104306775D01*
X145041185Y-104326775D01*
X144787185Y-104326775D01*
X144787185Y-104306775D01*
X143950435Y-104306775D01*
X143791685Y-104465525D01*
X143788613Y-104879775D01*
X143800873Y-105004257D01*
X143837183Y-105123955D01*
X143896148Y-105234269D01*
X143941375Y-105289379D01*
X143930070Y-105303154D01*
X143930069Y-105303155D01*
X143858894Y-105389881D01*
X143788322Y-105521911D01*
X143760645Y-105613153D01*
X143756606Y-105626470D01*
X143693868Y-105702916D01*
X143653868Y-105654176D01*
X143653868Y-104424090D01*
X143657545Y-104386757D01*
X143651640Y-104326798D01*
X143642871Y-104237771D01*
X143599414Y-104094510D01*
X143528842Y-103962481D01*
X143433869Y-103846756D01*
X143404870Y-103822957D01*
X143061688Y-103479775D01*
X143788613Y-103479775D01*
X143791685Y-103894025D01*
X143950435Y-104052775D01*
X144787185Y-104052775D01*
X144787185Y-103003525D01*
X144628435Y-102844775D01*
X144426685Y-102841703D01*
X144302203Y-102853963D01*
X144182505Y-102890273D01*
X144072191Y-102949238D01*
X143975500Y-103028590D01*
X143896148Y-103125281D01*
X143837183Y-103235595D01*
X143800873Y-103355293D01*
X143788613Y-103479775D01*
X143061688Y-103479775D01*
X143053908Y-103471996D01*
X143053908Y-100832881D01*
X147303210Y-100832881D01*
X147303210Y-101167119D01*
X147368417Y-101494935D01*
X147496324Y-101803731D01*
X147682017Y-102081641D01*
X147918359Y-102317983D01*
X148196269Y-102503676D01*
X148505065Y-102631583D01*
X148832881Y-102696790D01*
X149167119Y-102696790D01*
X149494935Y-102631583D01*
X149803731Y-102503676D01*
X150081641Y-102317983D01*
X150317983Y-102081641D01*
X150503676Y-101803731D01*
X150631583Y-101494935D01*
X150696790Y-101167119D01*
X150696790Y-100832881D01*
X150631583Y-100505065D01*
X150503676Y-100196269D01*
X150317983Y-99918359D01*
X150081641Y-99682017D01*
X149803731Y-99496324D01*
X149494935Y-99368417D01*
X149167119Y-99303210D01*
X148832881Y-99303210D01*
X148505065Y-99368417D01*
X148196269Y-99496324D01*
X147918359Y-99682017D01*
X147682017Y-99918359D01*
X147496324Y-100196269D01*
X147368417Y-100505065D01*
X147303210Y-100832881D01*
X143053908Y-100832881D01*
X143053908Y-100226533D01*
X144780432Y-98500010D01*
X153845209Y-98500010D01*
X154777918Y-99432719D01*
G37*
X154777918Y-99432719D02*
X154772068Y-99446842D01*
X154715000Y-99733740D01*
X154715000Y-100026260D01*
X154772068Y-100313158D01*
X154884010Y-100583411D01*
X155046525Y-100826632D01*
X155253368Y-101033475D01*
X155427760Y-101150000D01*
X155253368Y-101266525D01*
X155046525Y-101473368D01*
X154884010Y-101716589D01*
X154772068Y-101986842D01*
X154715000Y-102273740D01*
X154715000Y-102566260D01*
X154758791Y-102786408D01*
X154359003Y-103186196D01*
X154329999Y-103209999D01*
X154299801Y-103246796D01*
X154235026Y-103325724D01*
X154190301Y-103409398D01*
X154164454Y-103457754D01*
X154120997Y-103601015D01*
X154110000Y-103712668D01*
X154110000Y-103712678D01*
X154106324Y-103750000D01*
X154110000Y-103787323D01*
X154110001Y-105335197D01*
X153655219Y-105789980D01*
X151286137Y-105789980D01*
X151248814Y-105786304D01*
X151211491Y-105789980D01*
X151211482Y-105789980D01*
X151099829Y-105800977D01*
X150956568Y-105844434D01*
X150824539Y-105915006D01*
X150824537Y-105915007D01*
X150824538Y-105915007D01*
X150737811Y-105986181D01*
X150737807Y-105986185D01*
X150708814Y-106009979D01*
X150685020Y-106038972D01*
X147581940Y-109142054D01*
X147581940Y-109039157D01*
X147569680Y-108914675D01*
X147569322Y-108913494D01*
X147578868Y-108799907D01*
X147486785Y-108707824D01*
X147474405Y-108684663D01*
X147395053Y-108587972D01*
X147298362Y-108508620D01*
X147188048Y-108449655D01*
X147068350Y-108413345D01*
X146943868Y-108401085D01*
X145443868Y-108401085D01*
X145319386Y-108413345D01*
X145199688Y-108449655D01*
X145089374Y-108508620D01*
X145033887Y-108554157D01*
X143963165Y-108554157D01*
X143925842Y-108550481D01*
X143888519Y-108554157D01*
X143888510Y-108554157D01*
X143776857Y-108565154D01*
X143633596Y-108608611D01*
X143501567Y-108679183D01*
X143501565Y-108679184D01*
X143501566Y-108679184D01*
X143414839Y-108750358D01*
X143414835Y-108750362D01*
X143385842Y-108774156D01*
X143362048Y-108803149D01*
X142690198Y-109475000D01*
X142628061Y-109475000D01*
X142428102Y-109514774D01*
X142239744Y-109592795D01*
X142070226Y-109706063D01*
X141926063Y-109850226D01*
X141812795Y-110019744D01*
X141734774Y-110208102D01*
X141695000Y-110408061D01*
X141695000Y-110611939D01*
X141734774Y-110811898D01*
X141812795Y-111000256D01*
X141926063Y-111169774D01*
X142070226Y-111313937D01*
X142239744Y-111427205D01*
X142428102Y-111505226D01*
X142628061Y-111545000D01*
X142831939Y-111545000D01*
X143031898Y-111505226D01*
X143220256Y-111427205D01*
X143389774Y-111313937D01*
X143533937Y-111169774D01*
X143647205Y-111000256D01*
X143725226Y-110811898D01*
X143765000Y-110611939D01*
X143765000Y-110549802D01*
X144240646Y-110074157D01*
X144805796Y-110074157D01*
X144805796Y-110389157D01*
X144818056Y-110513639D01*
X144818213Y-110514157D01*
X144818056Y-110514675D01*
X144805796Y-110639157D01*
X144805796Y-111189157D01*
X144818056Y-111313639D01*
X144818213Y-111314157D01*
X144818056Y-111314675D01*
X144805796Y-111439157D01*
X144805796Y-111989157D01*
X144818056Y-112113639D01*
X144818213Y-112114157D01*
X144818056Y-112114675D01*
X144805796Y-112239157D01*
X144805796Y-112789157D01*
X144818056Y-112913639D01*
X144818213Y-112914157D01*
X144818056Y-112914675D01*
X144805796Y-113039157D01*
X144805796Y-113589157D01*
X144818056Y-113713639D01*
X144818213Y-113714157D01*
X144818056Y-113714675D01*
X144805796Y-113839157D01*
X144805796Y-114389157D01*
X144818056Y-114513639D01*
X144818213Y-114514157D01*
X144818056Y-114514675D01*
X144805796Y-114639157D01*
X144805796Y-115189157D01*
X144818056Y-115313639D01*
X144818213Y-115314157D01*
X144818056Y-115314675D01*
X144805796Y-115439157D01*
X144805796Y-115989157D01*
X144818056Y-116113639D01*
X144818414Y-116114820D01*
X144808868Y-116228407D01*
X144900951Y-116320490D01*
X144913331Y-116343651D01*
X144992683Y-116440342D01*
X145089374Y-116519694D01*
X145199688Y-116578659D01*
X145319386Y-116614969D01*
X145443868Y-116627229D01*
X146943868Y-116627229D01*
X147068350Y-116614969D01*
X147188048Y-116578659D01*
X147298362Y-116519694D01*
X147381553Y-116451421D01*
X147486115Y-116419703D01*
X147618144Y-116349131D01*
X147733869Y-116254158D01*
X147757671Y-116225155D01*
X147890376Y-116092450D01*
X147890376Y-116158542D01*
X148049124Y-116158542D01*
X147890376Y-116317290D01*
X147887304Y-116519040D01*
X147899564Y-116643522D01*
X147935874Y-116763220D01*
X147994839Y-116873534D01*
X148074191Y-116970225D01*
X148170882Y-117049577D01*
X148281196Y-117108542D01*
X148400894Y-117144852D01*
X148525376Y-117157112D01*
X148939626Y-117154040D01*
X149098376Y-116995290D01*
X149098376Y-116158540D01*
X149352376Y-116158540D01*
X149352376Y-116995290D01*
X149511126Y-117154040D01*
X149925376Y-117157112D01*
X150049858Y-117144852D01*
X150169556Y-117108542D01*
X150279870Y-117049577D01*
X150376561Y-116970225D01*
X150455913Y-116873534D01*
X150514878Y-116763220D01*
X150551188Y-116643522D01*
X150563448Y-116519040D01*
X150560376Y-116317290D01*
X150401626Y-116158540D01*
X149352376Y-116158540D01*
X149098376Y-116158540D01*
X149078376Y-116158540D01*
X149078376Y-115904540D01*
X149098376Y-115904540D01*
X149098376Y-115884540D01*
X149352376Y-115884540D01*
X149352376Y-115904540D01*
X150401626Y-115904540D01*
X150560376Y-115745790D01*
X150563448Y-115544040D01*
X150551188Y-115419558D01*
X150514878Y-115299860D01*
X150455913Y-115189546D01*
X150393190Y-115113117D01*
X150512503Y-115136850D01*
X150716381Y-115136850D01*
X150916340Y-115097076D01*
X151104698Y-115019055D01*
X151274216Y-114905787D01*
X151418379Y-114761624D01*
X151531647Y-114592106D01*
X151609668Y-114403748D01*
X151649442Y-114203789D01*
X151649442Y-113999911D01*
X151609668Y-113799952D01*
X151584839Y-113740010D01*
X153985209Y-113740010D01*
X154000000Y-113754801D01*
X154000001Y-114744749D01*
X153996324Y-114782081D01*
X154000001Y-114819414D01*
X154010998Y-114931067D01*
X154016887Y-114950481D01*
X154054454Y-115074327D01*
X154125026Y-115206357D01*
X154187197Y-115282112D01*
X154220000Y-115322082D01*
X154248998Y-115345880D01*
X154484115Y-115580997D01*
X154507918Y-115610001D01*
X154623643Y-115704974D01*
X154755672Y-115775546D01*
X154879777Y-115813192D01*
X154884010Y-115823411D01*
X155046525Y-116066632D01*
X155253368Y-116273475D01*
X155427760Y-116390000D01*
X155253368Y-116506525D01*
X155046525Y-116713368D01*
X154884010Y-116956589D01*
X154772068Y-117226842D01*
X154715000Y-117513740D01*
X154715000Y-117806260D01*
X154772068Y-118093158D01*
X154884010Y-118363411D01*
X155046525Y-118606632D01*
X155253368Y-118813475D01*
X155427760Y-118930000D01*
X155253368Y-119046525D01*
X155046525Y-119253368D01*
X154884010Y-119496589D01*
X154772068Y-119766842D01*
X154715000Y-120053740D01*
X154715000Y-120346260D01*
X154772068Y-120633158D01*
X154884010Y-120903411D01*
X155046525Y-121146632D01*
X155253368Y-121353475D01*
X155427760Y-121470000D01*
X155253368Y-121586525D01*
X155046525Y-121793368D01*
X154955230Y-121930000D01*
X151939817Y-121930000D01*
X151939817Y-121863061D01*
X151900043Y-121663102D01*
X151822022Y-121474744D01*
X151708754Y-121305226D01*
X151564591Y-121161063D01*
X151395073Y-121047795D01*
X151206715Y-120969774D01*
X151006756Y-120930000D01*
X150802878Y-120930000D01*
X150602919Y-120969774D01*
X150597542Y-120972001D01*
X149494563Y-119869023D01*
X149470760Y-119840019D01*
X149444732Y-119818659D01*
X149457005Y-119756959D01*
X149457005Y-119553081D01*
X149417231Y-119353122D01*
X149339210Y-119164764D01*
X149225942Y-118995246D01*
X149081779Y-118851083D01*
X148912261Y-118737815D01*
X148723903Y-118659794D01*
X148523944Y-118620020D01*
X148320066Y-118620020D01*
X148120107Y-118659794D01*
X147931749Y-118737815D01*
X147873013Y-118777061D01*
X147847205Y-118714754D01*
X147733937Y-118545236D01*
X147589774Y-118401073D01*
X147420256Y-118287805D01*
X147231898Y-118209784D01*
X147031939Y-118170010D01*
X146828061Y-118170010D01*
X146628102Y-118209784D01*
X146439744Y-118287805D01*
X146270226Y-118401073D01*
X146126063Y-118545236D01*
X146012795Y-118714754D01*
X146010622Y-118720000D01*
X145406940Y-118720000D01*
X145406940Y-117464157D01*
X145402896Y-117423093D01*
X145447081Y-117427221D01*
X145908118Y-117424157D01*
X146066868Y-117265407D01*
X146066868Y-116641157D01*
X146320868Y-116641157D01*
X146320868Y-117265407D01*
X146479618Y-117424157D01*
X146940655Y-117427221D01*
X147065197Y-117415587D01*
X147185076Y-117379881D01*
X147295686Y-117321473D01*
X147392776Y-117242608D01*
X147472614Y-117146318D01*
X147532133Y-117036302D01*
X147569045Y-116916788D01*
X147578868Y-116799907D01*
X147420118Y-116641157D01*
X146320868Y-116641157D01*
X146066868Y-116641157D01*
X144967618Y-116641157D01*
X144808868Y-116799907D01*
X144811420Y-116830276D01*
X144768868Y-116826085D01*
X144218868Y-116826085D01*
X144094386Y-116838345D01*
X144093868Y-116838502D01*
X144093350Y-116838345D01*
X143968868Y-116826085D01*
X143418868Y-116826085D01*
X143294386Y-116838345D01*
X143293868Y-116838502D01*
X143293350Y-116838345D01*
X143168868Y-116826085D01*
X142618868Y-116826085D01*
X142494386Y-116838345D01*
X142493868Y-116838502D01*
X142493350Y-116838345D01*
X142368868Y-116826085D01*
X141818868Y-116826085D01*
X141694386Y-116838345D01*
X141693868Y-116838502D01*
X141693350Y-116838345D01*
X141568868Y-116826085D01*
X141018868Y-116826085D01*
X140894386Y-116838345D01*
X140893868Y-116838502D01*
X140893350Y-116838345D01*
X140768868Y-116826085D01*
X140218868Y-116826085D01*
X140094386Y-116838345D01*
X140093868Y-116838502D01*
X140093350Y-116838345D01*
X139968868Y-116826085D01*
X139418868Y-116826085D01*
X139294386Y-116838345D01*
X139293205Y-116838703D01*
X139179618Y-116829157D01*
X139087535Y-116921240D01*
X139064374Y-116933620D01*
X138967683Y-117012972D01*
X138893868Y-117102916D01*
X138820053Y-117012972D01*
X138723362Y-116933620D01*
X138700201Y-116921240D01*
X138608118Y-116829157D01*
X138494531Y-116838703D01*
X138493350Y-116838345D01*
X138468867Y-116835934D01*
X141771003Y-113533799D01*
X141800001Y-113510001D01*
X141894974Y-113394276D01*
X141965546Y-113262247D01*
X142009003Y-113118986D01*
X142020000Y-113007333D01*
X142020000Y-113007324D01*
X142023676Y-112970001D01*
X142020000Y-112932678D01*
X142020000Y-112683711D01*
X142063937Y-112639774D01*
X142177205Y-112470256D01*
X142255226Y-112281898D01*
X142295000Y-112081939D01*
X142295000Y-111878061D01*
X142255226Y-111678102D01*
X142177205Y-111489744D01*
X142063937Y-111320226D01*
X141919774Y-111176063D01*
X141750256Y-111062795D01*
X141561898Y-110984774D01*
X141361939Y-110945000D01*
X141158061Y-110945000D01*
X140958102Y-110984774D01*
X140769744Y-111062795D01*
X140600226Y-111176063D01*
X140456063Y-111320226D01*
X140342795Y-111489744D01*
X140264774Y-111678102D01*
X140225000Y-111878061D01*
X140225000Y-112081939D01*
X140264774Y-112281898D01*
X140342795Y-112470256D01*
X140456063Y-112639774D01*
X140485744Y-112669455D01*
X137905015Y-115250183D01*
X137904453Y-115249341D01*
X137917205Y-115230256D01*
X137995226Y-115041898D01*
X138035000Y-114841939D01*
X138035000Y-114638061D01*
X137995226Y-114438102D01*
X137917205Y-114249744D01*
X137892331Y-114212517D01*
X137907205Y-114190256D01*
X137985226Y-114001898D01*
X138025000Y-113801939D01*
X138025000Y-113598061D01*
X137985226Y-113398102D01*
X137907205Y-113209744D01*
X137793937Y-113040226D01*
X137649774Y-112896063D01*
X137480256Y-112782795D01*
X137291898Y-112704774D01*
X137091939Y-112665000D01*
X136888061Y-112665000D01*
X136688102Y-112704774D01*
X136499744Y-112782795D01*
X136330226Y-112896063D01*
X136186063Y-113040226D01*
X136181940Y-113046397D01*
X136181940Y-113039157D01*
X136169680Y-112914675D01*
X136169523Y-112914157D01*
X136169680Y-112913639D01*
X136181940Y-112789157D01*
X136181940Y-112239157D01*
X136169680Y-112114675D01*
X136169322Y-112113494D01*
X136178868Y-111999907D01*
X136086785Y-111907824D01*
X136074405Y-111884663D01*
X135995053Y-111787972D01*
X135905109Y-111714157D01*
X135995053Y-111640342D01*
X136074405Y-111543651D01*
X136086785Y-111520490D01*
X136178868Y-111428407D01*
X136169322Y-111314820D01*
X136169680Y-111313639D01*
X136181940Y-111189157D01*
X136181940Y-110639157D01*
X136169680Y-110514675D01*
X136169523Y-110514157D01*
X136169680Y-110513639D01*
X136181940Y-110389157D01*
X136181940Y-109839157D01*
X136169680Y-109714675D01*
X136169523Y-109714157D01*
X136169680Y-109713639D01*
X136181940Y-109589157D01*
X136181940Y-109039157D01*
X136169680Y-108914675D01*
X136169523Y-108914157D01*
X136169680Y-108913639D01*
X136181940Y-108789157D01*
X136181940Y-108239157D01*
X136177906Y-108198195D01*
X136218868Y-108202229D01*
X136768868Y-108202229D01*
X136893350Y-108189969D01*
X136894531Y-108189611D01*
X137008118Y-108199157D01*
X137100201Y-108107074D01*
X137123362Y-108094694D01*
X137220053Y-108015342D01*
X137293868Y-107925398D01*
X137367683Y-108015342D01*
X137464374Y-108094694D01*
X137487535Y-108107074D01*
X137579618Y-108199157D01*
X137693205Y-108189611D01*
X137694386Y-108189969D01*
X137818868Y-108202229D01*
X138368868Y-108202229D01*
X138493350Y-108189969D01*
X138493868Y-108189812D01*
X138494386Y-108189969D01*
X138618868Y-108202229D01*
X139168868Y-108202229D01*
X139293350Y-108189969D01*
X139293868Y-108189812D01*
X139294386Y-108189969D01*
X139418868Y-108202229D01*
X139968868Y-108202229D01*
X140093350Y-108189969D01*
X140093868Y-108189812D01*
X140094386Y-108189969D01*
X140218868Y-108202229D01*
X140768868Y-108202229D01*
X140893350Y-108189969D01*
X140893868Y-108189812D01*
X140894386Y-108189969D01*
X141018868Y-108202229D01*
X141568868Y-108202229D01*
X141693350Y-108189969D01*
X141693868Y-108189812D01*
X141694386Y-108189969D01*
X141818868Y-108202229D01*
X142368868Y-108202229D01*
X142493350Y-108189969D01*
X142493868Y-108189812D01*
X142494386Y-108189969D01*
X142618868Y-108202229D01*
X143168868Y-108202229D01*
X143293350Y-108189969D01*
X143294531Y-108189611D01*
X143408118Y-108199157D01*
X143500201Y-108107074D01*
X143523362Y-108094694D01*
X143620053Y-108015342D01*
X143693868Y-107925398D01*
X143767683Y-108015342D01*
X143864374Y-108094694D01*
X143887535Y-108107074D01*
X143979618Y-108199157D01*
X144093205Y-108189611D01*
X144094386Y-108189969D01*
X144218868Y-108202229D01*
X144768868Y-108202229D01*
X144811420Y-108198038D01*
X144808868Y-108228407D01*
X144967618Y-108387157D01*
X146066868Y-108387157D01*
X146066868Y-107762907D01*
X146320868Y-107762907D01*
X146320868Y-108387157D01*
X147420118Y-108387157D01*
X147578868Y-108228407D01*
X147569045Y-108111526D01*
X147532133Y-107992012D01*
X147472614Y-107881996D01*
X147392776Y-107785706D01*
X147295686Y-107706841D01*
X147185076Y-107648433D01*
X147065197Y-107612727D01*
X146940655Y-107601093D01*
X146479618Y-107604157D01*
X146320868Y-107762907D01*
X146066868Y-107762907D01*
X145908118Y-107604157D01*
X145447081Y-107601093D01*
X145402896Y-107605221D01*
X145406940Y-107564157D01*
X145406940Y-106130578D01*
X146409922Y-106130578D01*
X146447244Y-106134254D01*
X146484566Y-106130578D01*
X146484577Y-106130578D01*
X146596230Y-106119581D01*
X146739491Y-106076124D01*
X146871520Y-106005552D01*
X146987245Y-105910579D01*
X147011048Y-105881575D01*
X147300182Y-105592441D01*
X147329186Y-105568638D01*
X147424159Y-105452913D01*
X147447304Y-105409613D01*
X147522849Y-105369233D01*
X147656477Y-105259567D01*
X147766143Y-105125939D01*
X147847632Y-104973484D01*
X147857858Y-104939775D01*
X147926176Y-104939775D01*
X147970288Y-104983887D01*
X148139806Y-105097155D01*
X148328164Y-105175176D01*
X148528123Y-105214950D01*
X148732001Y-105214950D01*
X148931960Y-105175176D01*
X149120318Y-105097155D01*
X149289836Y-104983887D01*
X149433999Y-104839724D01*
X149547267Y-104670206D01*
X149625288Y-104481848D01*
X149665062Y-104281889D01*
X149665062Y-104078011D01*
X149625288Y-103878052D01*
X149547267Y-103689694D01*
X149433999Y-103520176D01*
X149289836Y-103376013D01*
X149120318Y-103262745D01*
X148931960Y-103184724D01*
X148732001Y-103144950D01*
X148528123Y-103144950D01*
X148328164Y-103184724D01*
X148139806Y-103262745D01*
X147970288Y-103376013D01*
X147926526Y-103419775D01*
X147857858Y-103419775D01*
X147847632Y-103386066D01*
X147766143Y-103233611D01*
X147656477Y-103099983D01*
X147522849Y-102990317D01*
X147370394Y-102908828D01*
X147204970Y-102858647D01*
X147032935Y-102841703D01*
X146545435Y-102841703D01*
X146373400Y-102858647D01*
X146207976Y-102908828D01*
X146055521Y-102990317D01*
X145921893Y-103099983D01*
X145916677Y-103106339D01*
X145852870Y-103028590D01*
X145756179Y-102949238D01*
X145645865Y-102890273D01*
X145526167Y-102853963D01*
X145401685Y-102841703D01*
X145199935Y-102844775D01*
X145041185Y-103003525D01*
X145041185Y-104052775D01*
X145061185Y-104052775D01*
X145061185Y-104306775D01*
X145041185Y-104306775D01*
X145041185Y-104326775D01*
X144787185Y-104326775D01*
X144787185Y-104306775D01*
X143950435Y-104306775D01*
X143791685Y-104465525D01*
X143788613Y-104879775D01*
X143800873Y-105004257D01*
X143837183Y-105123955D01*
X143896148Y-105234269D01*
X143941375Y-105289379D01*
X143930070Y-105303154D01*
X143930069Y-105303155D01*
X143858894Y-105389881D01*
X143788322Y-105521911D01*
X143760645Y-105613153D01*
X143756606Y-105626470D01*
X143693868Y-105702916D01*
X143653868Y-105654176D01*
X143653868Y-104424090D01*
X143657545Y-104386757D01*
X143651640Y-104326798D01*
X143642871Y-104237771D01*
X143599414Y-104094510D01*
X143528842Y-103962481D01*
X143433869Y-103846756D01*
X143404870Y-103822957D01*
X143061688Y-103479775D01*
X143788613Y-103479775D01*
X143791685Y-103894025D01*
X143950435Y-104052775D01*
X144787185Y-104052775D01*
X144787185Y-103003525D01*
X144628435Y-102844775D01*
X144426685Y-102841703D01*
X144302203Y-102853963D01*
X144182505Y-102890273D01*
X144072191Y-102949238D01*
X143975500Y-103028590D01*
X143896148Y-103125281D01*
X143837183Y-103235595D01*
X143800873Y-103355293D01*
X143788613Y-103479775D01*
X143061688Y-103479775D01*
X143053908Y-103471996D01*
X143053908Y-100832881D01*
X147303210Y-100832881D01*
X147303210Y-101167119D01*
X147368417Y-101494935D01*
X147496324Y-101803731D01*
X147682017Y-102081641D01*
X147918359Y-102317983D01*
X148196269Y-102503676D01*
X148505065Y-102631583D01*
X148832881Y-102696790D01*
X149167119Y-102696790D01*
X149494935Y-102631583D01*
X149803731Y-102503676D01*
X150081641Y-102317983D01*
X150317983Y-102081641D01*
X150503676Y-101803731D01*
X150631583Y-101494935D01*
X150696790Y-101167119D01*
X150696790Y-100832881D01*
X150631583Y-100505065D01*
X150503676Y-100196269D01*
X150317983Y-99918359D01*
X150081641Y-99682017D01*
X149803731Y-99496324D01*
X149494935Y-99368417D01*
X149167119Y-99303210D01*
X148832881Y-99303210D01*
X148505065Y-99368417D01*
X148196269Y-99496324D01*
X147918359Y-99682017D01*
X147682017Y-99918359D01*
X147496324Y-100196269D01*
X147368417Y-100505065D01*
X147303210Y-100832881D01*
X143053908Y-100832881D01*
X143053908Y-100226533D01*
X144780432Y-98500010D01*
X153845209Y-98500010D01*
X154777918Y-99432719D01*
G36*
X133258547Y-111528244D02*
G01*
X133386234Y-111596494D01*
X133524782Y-111638522D01*
X133599423Y-111645873D01*
X133682627Y-111714157D01*
X133633887Y-111754157D01*
X133531595Y-111754157D01*
X133494272Y-111750481D01*
X133456949Y-111754157D01*
X133456940Y-111754157D01*
X133345287Y-111765154D01*
X133202026Y-111808611D01*
X133069997Y-111879183D01*
X132954272Y-111974156D01*
X132930474Y-112003154D01*
X132018237Y-112915392D01*
X131989239Y-112939190D01*
X131965441Y-112968188D01*
X131965440Y-112968189D01*
X131894265Y-113054915D01*
X131860018Y-113118986D01*
X131823693Y-113186944D01*
X131780236Y-113330205D01*
X131769239Y-113441858D01*
X131769239Y-113441869D01*
X131765563Y-113479191D01*
X131769239Y-113516513D01*
X131769239Y-113814393D01*
X131312612Y-114271020D01*
X131314962Y-114247164D01*
X131311890Y-114045414D01*
X131153140Y-113886664D01*
X130103890Y-113886664D01*
X130103890Y-113906664D01*
X129849890Y-113906664D01*
X129849890Y-113886664D01*
X128800640Y-113886664D01*
X128707812Y-113979492D01*
X128687205Y-113929744D01*
X128573937Y-113760226D01*
X128429774Y-113616063D01*
X128260256Y-113502795D01*
X128071898Y-113424774D01*
X127871939Y-113385000D01*
X127809802Y-113385000D01*
X126783804Y-112359003D01*
X126760001Y-112329999D01*
X126644276Y-112235026D01*
X126512247Y-112164454D01*
X126368986Y-112120997D01*
X126257333Y-112110000D01*
X126257322Y-112110000D01*
X126220000Y-112106324D01*
X126182678Y-112110000D01*
X125788694Y-112110000D01*
X125854087Y-112030320D01*
X125922337Y-111902633D01*
X125963686Y-111766324D01*
X125964365Y-111764086D01*
X125965765Y-111749868D01*
X125971837Y-111688218D01*
X127119849Y-111688218D01*
X127119849Y-112176844D01*
X127136793Y-112348879D01*
X127186974Y-112514303D01*
X127268463Y-112666758D01*
X127378129Y-112800386D01*
X127511757Y-112910052D01*
X127664212Y-112991541D01*
X127829636Y-113041722D01*
X128001671Y-113058666D01*
X128489171Y-113058666D01*
X128661206Y-113041722D01*
X128685452Y-113034367D01*
X128651078Y-113147682D01*
X128638818Y-113272164D01*
X128641890Y-113473914D01*
X128800640Y-113632664D01*
X129849890Y-113632664D01*
X129849890Y-113612664D01*
X130103890Y-113612664D01*
X130103890Y-113632664D01*
X131153140Y-113632664D01*
X131311890Y-113473914D01*
X131314962Y-113272164D01*
X131302702Y-113147682D01*
X131266392Y-113027984D01*
X131207427Y-112917670D01*
X131128075Y-112820979D01*
X131034104Y-112743859D01*
X131097379Y-112666758D01*
X131178868Y-112514303D01*
X131229049Y-112348879D01*
X131245993Y-112176844D01*
X131245993Y-111688218D01*
X131748877Y-111688218D01*
X131784982Y-111691774D01*
X131821087Y-111688218D01*
X131929067Y-111677583D01*
X132067615Y-111635555D01*
X132195302Y-111567305D01*
X132307220Y-111475456D01*
X132308286Y-111474157D01*
X133192642Y-111474157D01*
X133258547Y-111528244D01*
G37*
X133258547Y-111528244D02*
X133386234Y-111596494D01*
X133524782Y-111638522D01*
X133599423Y-111645873D01*
X133682627Y-111714157D01*
X133633887Y-111754157D01*
X133531595Y-111754157D01*
X133494272Y-111750481D01*
X133456949Y-111754157D01*
X133456940Y-111754157D01*
X133345287Y-111765154D01*
X133202026Y-111808611D01*
X133069997Y-111879183D01*
X132954272Y-111974156D01*
X132930474Y-112003154D01*
X132018237Y-112915392D01*
X131989239Y-112939190D01*
X131965441Y-112968188D01*
X131965440Y-112968189D01*
X131894265Y-113054915D01*
X131860018Y-113118986D01*
X131823693Y-113186944D01*
X131780236Y-113330205D01*
X131769239Y-113441858D01*
X131769239Y-113441869D01*
X131765563Y-113479191D01*
X131769239Y-113516513D01*
X131769239Y-113814393D01*
X131312612Y-114271020D01*
X131314962Y-114247164D01*
X131311890Y-114045414D01*
X131153140Y-113886664D01*
X130103890Y-113886664D01*
X130103890Y-113906664D01*
X129849890Y-113906664D01*
X129849890Y-113886664D01*
X128800640Y-113886664D01*
X128707812Y-113979492D01*
X128687205Y-113929744D01*
X128573937Y-113760226D01*
X128429774Y-113616063D01*
X128260256Y-113502795D01*
X128071898Y-113424774D01*
X127871939Y-113385000D01*
X127809802Y-113385000D01*
X126783804Y-112359003D01*
X126760001Y-112329999D01*
X126644276Y-112235026D01*
X126512247Y-112164454D01*
X126368986Y-112120997D01*
X126257333Y-112110000D01*
X126257322Y-112110000D01*
X126220000Y-112106324D01*
X126182678Y-112110000D01*
X125788694Y-112110000D01*
X125854087Y-112030320D01*
X125922337Y-111902633D01*
X125963686Y-111766324D01*
X125964365Y-111764086D01*
X125965765Y-111749868D01*
X125971837Y-111688218D01*
X127119849Y-111688218D01*
X127119849Y-112176844D01*
X127136793Y-112348879D01*
X127186974Y-112514303D01*
X127268463Y-112666758D01*
X127378129Y-112800386D01*
X127511757Y-112910052D01*
X127664212Y-112991541D01*
X127829636Y-113041722D01*
X128001671Y-113058666D01*
X128489171Y-113058666D01*
X128661206Y-113041722D01*
X128685452Y-113034367D01*
X128651078Y-113147682D01*
X128638818Y-113272164D01*
X128641890Y-113473914D01*
X128800640Y-113632664D01*
X129849890Y-113632664D01*
X129849890Y-113612664D01*
X130103890Y-113612664D01*
X130103890Y-113632664D01*
X131153140Y-113632664D01*
X131311890Y-113473914D01*
X131314962Y-113272164D01*
X131302702Y-113147682D01*
X131266392Y-113027984D01*
X131207427Y-112917670D01*
X131128075Y-112820979D01*
X131034104Y-112743859D01*
X131097379Y-112666758D01*
X131178868Y-112514303D01*
X131229049Y-112348879D01*
X131245993Y-112176844D01*
X131245993Y-111688218D01*
X131748877Y-111688218D01*
X131784982Y-111691774D01*
X131821087Y-111688218D01*
X131929067Y-111677583D01*
X132067615Y-111635555D01*
X132195302Y-111567305D01*
X132307220Y-111475456D01*
X132308286Y-111474157D01*
X133192642Y-111474157D01*
X133258547Y-111528244D01*
G36*
X154777918Y-109592719D02*
G01*
X154772068Y-109606842D01*
X154715000Y-109893740D01*
X154715000Y-110186260D01*
X154772068Y-110473158D01*
X154884010Y-110743411D01*
X155046525Y-110986632D01*
X155253368Y-111193475D01*
X155427760Y-111310000D01*
X155253368Y-111426525D01*
X155046525Y-111633368D01*
X154955230Y-111770000D01*
X149012826Y-111770000D01*
X152122817Y-108660010D01*
X153845209Y-108660010D01*
X154777918Y-109592719D01*
G37*
X154777918Y-109592719D02*
X154772068Y-109606842D01*
X154715000Y-109893740D01*
X154715000Y-110186260D01*
X154772068Y-110473158D01*
X154884010Y-110743411D01*
X155046525Y-110986632D01*
X155253368Y-111193475D01*
X155427760Y-111310000D01*
X155253368Y-111426525D01*
X155046525Y-111633368D01*
X154955230Y-111770000D01*
X149012826Y-111770000D01*
X152122817Y-108660010D01*
X153845209Y-108660010D01*
X154777918Y-109592719D01*
G36*
X137417000Y-94623000D02*
G01*
X137437000Y-94623000D01*
X137437000Y-94877000D01*
X137417000Y-94877000D01*
X137417000Y-96070155D01*
X137646890Y-96191476D01*
X137794099Y-96146825D01*
X138056920Y-96021641D01*
X138290269Y-95847588D01*
X138485178Y-95631355D01*
X138554805Y-95514466D01*
X138676525Y-95696632D01*
X138883368Y-95903475D01*
X139126589Y-96065990D01*
X139396842Y-96177932D01*
X139683740Y-96235000D01*
X139919999Y-96235000D01*
X139920000Y-97392378D01*
X139082846Y-98229533D01*
X139053848Y-98253331D01*
X139030050Y-98282329D01*
X139030049Y-98282330D01*
X138958874Y-98369056D01*
X138888302Y-98501086D01*
X138871810Y-98555456D01*
X138850372Y-98626131D01*
X138844846Y-98644347D01*
X138830172Y-98793332D01*
X138833849Y-98830664D01*
X138833849Y-101325217D01*
X138812616Y-101323126D01*
X138398366Y-101326198D01*
X138239616Y-101484948D01*
X138239616Y-102321698D01*
X138259616Y-102321698D01*
X138259616Y-102575698D01*
X138239616Y-102575698D01*
X138239616Y-102595698D01*
X137985616Y-102595698D01*
X137985616Y-102575698D01*
X136936366Y-102575698D01*
X136814970Y-102697094D01*
X136805458Y-102692010D01*
X136685760Y-102655700D01*
X136561278Y-102643440D01*
X136359528Y-102646512D01*
X136200778Y-102805262D01*
X136200778Y-103854512D01*
X136220778Y-103854512D01*
X136220778Y-104108512D01*
X136200778Y-104108512D01*
X136200778Y-104128512D01*
X135946778Y-104128512D01*
X135946778Y-104108512D01*
X135926778Y-104108512D01*
X135926778Y-103854512D01*
X135946778Y-103854512D01*
X135946778Y-102805262D01*
X135788028Y-102646512D01*
X135586278Y-102643440D01*
X135461796Y-102655700D01*
X135342098Y-102692010D01*
X135231784Y-102750975D01*
X135135093Y-102830327D01*
X135071286Y-102908076D01*
X135066070Y-102901720D01*
X134958778Y-102813667D01*
X134958778Y-101961198D01*
X136774544Y-101961198D01*
X136777616Y-102162948D01*
X136936366Y-102321698D01*
X137985616Y-102321698D01*
X137985616Y-101484948D01*
X137826866Y-101326198D01*
X137412616Y-101323126D01*
X137288134Y-101335386D01*
X137168436Y-101371696D01*
X137058122Y-101430661D01*
X136961431Y-101510013D01*
X136882079Y-101606704D01*
X136823114Y-101717018D01*
X136786804Y-101836716D01*
X136774544Y-101961198D01*
X134958778Y-101961198D01*
X134958778Y-98288483D01*
X135261003Y-97986258D01*
X135290001Y-97962461D01*
X135384974Y-97846736D01*
X135455546Y-97714707D01*
X135499003Y-97571446D01*
X135510000Y-97459793D01*
X135510000Y-97459792D01*
X135513677Y-97422460D01*
X135510000Y-97385127D01*
X135510000Y-96238072D01*
X135600000Y-96238072D01*
X135724482Y-96225812D01*
X135844180Y-96189502D01*
X135954494Y-96130537D01*
X136051185Y-96051185D01*
X136130537Y-95954494D01*
X136189502Y-95844180D01*
X136213966Y-95763534D01*
X136289731Y-95847588D01*
X136523080Y-96021641D01*
X136785901Y-96146825D01*
X136933110Y-96191476D01*
X137163000Y-96070155D01*
X137163000Y-94877000D01*
X137143000Y-94877000D01*
X137143000Y-94623000D01*
X137163000Y-94623000D01*
X137163000Y-94603000D01*
X137417000Y-94603000D01*
X137417000Y-94623000D01*
G37*
X137417000Y-94623000D02*
X137437000Y-94623000D01*
X137437000Y-94877000D01*
X137417000Y-94877000D01*
X137417000Y-96070155D01*
X137646890Y-96191476D01*
X137794099Y-96146825D01*
X138056920Y-96021641D01*
X138290269Y-95847588D01*
X138485178Y-95631355D01*
X138554805Y-95514466D01*
X138676525Y-95696632D01*
X138883368Y-95903475D01*
X139126589Y-96065990D01*
X139396842Y-96177932D01*
X139683740Y-96235000D01*
X139919999Y-96235000D01*
X139920000Y-97392378D01*
X139082846Y-98229533D01*
X139053848Y-98253331D01*
X139030050Y-98282329D01*
X139030049Y-98282330D01*
X138958874Y-98369056D01*
X138888302Y-98501086D01*
X138871810Y-98555456D01*
X138850372Y-98626131D01*
X138844846Y-98644347D01*
X138830172Y-98793332D01*
X138833849Y-98830664D01*
X138833849Y-101325217D01*
X138812616Y-101323126D01*
X138398366Y-101326198D01*
X138239616Y-101484948D01*
X138239616Y-102321698D01*
X138259616Y-102321698D01*
X138259616Y-102575698D01*
X138239616Y-102575698D01*
X138239616Y-102595698D01*
X137985616Y-102595698D01*
X137985616Y-102575698D01*
X136936366Y-102575698D01*
X136814970Y-102697094D01*
X136805458Y-102692010D01*
X136685760Y-102655700D01*
X136561278Y-102643440D01*
X136359528Y-102646512D01*
X136200778Y-102805262D01*
X136200778Y-103854512D01*
X136220778Y-103854512D01*
X136220778Y-104108512D01*
X136200778Y-104108512D01*
X136200778Y-104128512D01*
X135946778Y-104128512D01*
X135946778Y-104108512D01*
X135926778Y-104108512D01*
X135926778Y-103854512D01*
X135946778Y-103854512D01*
X135946778Y-102805262D01*
X135788028Y-102646512D01*
X135586278Y-102643440D01*
X135461796Y-102655700D01*
X135342098Y-102692010D01*
X135231784Y-102750975D01*
X135135093Y-102830327D01*
X135071286Y-102908076D01*
X135066070Y-102901720D01*
X134958778Y-102813667D01*
X134958778Y-101961198D01*
X136774544Y-101961198D01*
X136777616Y-102162948D01*
X136936366Y-102321698D01*
X137985616Y-102321698D01*
X137985616Y-101484948D01*
X137826866Y-101326198D01*
X137412616Y-101323126D01*
X137288134Y-101335386D01*
X137168436Y-101371696D01*
X137058122Y-101430661D01*
X136961431Y-101510013D01*
X136882079Y-101606704D01*
X136823114Y-101717018D01*
X136786804Y-101836716D01*
X136774544Y-101961198D01*
X134958778Y-101961198D01*
X134958778Y-98288483D01*
X135261003Y-97986258D01*
X135290001Y-97962461D01*
X135384974Y-97846736D01*
X135455546Y-97714707D01*
X135499003Y-97571446D01*
X135510000Y-97459793D01*
X135510000Y-97459792D01*
X135513677Y-97422460D01*
X135510000Y-97385127D01*
X135510000Y-96238072D01*
X135600000Y-96238072D01*
X135724482Y-96225812D01*
X135844180Y-96189502D01*
X135954494Y-96130537D01*
X136051185Y-96051185D01*
X136130537Y-95954494D01*
X136189502Y-95844180D01*
X136213966Y-95763534D01*
X136289731Y-95847588D01*
X136523080Y-96021641D01*
X136785901Y-96146825D01*
X136933110Y-96191476D01*
X137163000Y-96070155D01*
X137163000Y-94877000D01*
X137143000Y-94877000D01*
X137143000Y-94623000D01*
X137163000Y-94623000D01*
X137163000Y-94603000D01*
X137417000Y-94603000D01*
X137417000Y-94623000D01*
G36*
X154898815Y-93498815D02*
G01*
X154819463Y-93595506D01*
X154760498Y-93705820D01*
X154724188Y-93825518D01*
X154711928Y-93950000D01*
X154711928Y-95650000D01*
X154724188Y-95774482D01*
X154760498Y-95894180D01*
X154819463Y-96004494D01*
X154898815Y-96101185D01*
X154995506Y-96180537D01*
X155105820Y-96239502D01*
X155178380Y-96261513D01*
X155046525Y-96393368D01*
X154955230Y-96530000D01*
X149284801Y-96530000D01*
X149623592Y-96191210D01*
X149843740Y-96235000D01*
X150136260Y-96235000D01*
X150423158Y-96177932D01*
X150693411Y-96065990D01*
X150936632Y-95903475D01*
X151143475Y-95696632D01*
X151260000Y-95522240D01*
X151376525Y-95696632D01*
X151583368Y-95903475D01*
X151826589Y-96065990D01*
X152096842Y-96177932D01*
X152383740Y-96235000D01*
X152676260Y-96235000D01*
X152963158Y-96177932D01*
X153233411Y-96065990D01*
X153476632Y-95903475D01*
X153683475Y-95696632D01*
X153845990Y-95453411D01*
X153957932Y-95183158D01*
X154015000Y-94896260D01*
X154015000Y-94603740D01*
X153957932Y-94316842D01*
X153845990Y-94046589D01*
X153683475Y-93803368D01*
X153476632Y-93596525D01*
X153234893Y-93435000D01*
X154976574Y-93435000D01*
X154898815Y-93498815D01*
G37*
X154898815Y-93498815D02*
X154819463Y-93595506D01*
X154760498Y-93705820D01*
X154724188Y-93825518D01*
X154711928Y-93950000D01*
X154711928Y-95650000D01*
X154724188Y-95774482D01*
X154760498Y-95894180D01*
X154819463Y-96004494D01*
X154898815Y-96101185D01*
X154995506Y-96180537D01*
X155105820Y-96239502D01*
X155178380Y-96261513D01*
X155046525Y-96393368D01*
X154955230Y-96530000D01*
X149284801Y-96530000D01*
X149623592Y-96191210D01*
X149843740Y-96235000D01*
X150136260Y-96235000D01*
X150423158Y-96177932D01*
X150693411Y-96065990D01*
X150936632Y-95903475D01*
X151143475Y-95696632D01*
X151260000Y-95522240D01*
X151376525Y-95696632D01*
X151583368Y-95903475D01*
X151826589Y-96065990D01*
X152096842Y-96177932D01*
X152383740Y-96235000D01*
X152676260Y-96235000D01*
X152963158Y-96177932D01*
X153233411Y-96065990D01*
X153476632Y-95903475D01*
X153683475Y-95696632D01*
X153845990Y-95453411D01*
X153957932Y-95183158D01*
X154015000Y-94896260D01*
X154015000Y-94603740D01*
X153957932Y-94316842D01*
X153845990Y-94046589D01*
X153683475Y-93803368D01*
X153476632Y-93596525D01*
X153234893Y-93435000D01*
X154976574Y-93435000D01*
X154898815Y-93498815D01*
M02*
