G04 #@! TF.GenerationSoftware,KiCad,Pcbnew,(5.1.6)-1*
G04 #@! TF.CreationDate,2020-08-27T23:19:36-05:00*
G04 #@! TF.ProjectId,PikateaTPM,50696b61-7465-4615-9450-4d2e6b696361,rev?*
G04 #@! TF.SameCoordinates,Original*
G04 #@! TF.FileFunction,Paste,Top*
G04 #@! TF.FilePolarity,Positive*
%FSLAX46Y46*%
G04 Gerber Fmt 4.6, Leading zero omitted, Abs format (unit mm)*
G04 Created by KiCad (PCBNEW (5.1.6)-1) date 2020-08-27 23:19:36*
%MOMM*%
%LPD*%
G01*
G04 APERTURE LIST*
%ADD10R,1.400000X1.200000*%
%ADD11R,1.500000X0.550000*%
%ADD12R,0.550000X1.500000*%
G04 APERTURE END LIST*
G36*
G01*
X128732921Y-109279964D02*
X128732921Y-110192464D01*
G75*
G02*
X128489171Y-110436214I-243750J0D01*
G01*
X128001671Y-110436214D01*
G75*
G02*
X127757921Y-110192464I0J243750D01*
G01*
X127757921Y-109279964D01*
G75*
G02*
X128001671Y-109036214I243750J0D01*
G01*
X128489171Y-109036214D01*
G75*
G02*
X128732921Y-109279964I0J-243750D01*
G01*
G37*
G36*
G01*
X130607921Y-109279964D02*
X130607921Y-110192464D01*
G75*
G02*
X130364171Y-110436214I-243750J0D01*
G01*
X129876671Y-110436214D01*
G75*
G02*
X129632921Y-110192464I0J243750D01*
G01*
X129632921Y-109279964D01*
G75*
G02*
X129876671Y-109036214I243750J0D01*
G01*
X130364171Y-109036214D01*
G75*
G02*
X130607921Y-109279964I0J-243750D01*
G01*
G37*
G36*
G01*
X128732921Y-111264344D02*
X128732921Y-112176844D01*
G75*
G02*
X128489171Y-112420594I-243750J0D01*
G01*
X128001671Y-112420594D01*
G75*
G02*
X127757921Y-112176844I0J243750D01*
G01*
X127757921Y-111264344D01*
G75*
G02*
X128001671Y-111020594I243750J0D01*
G01*
X128489171Y-111020594D01*
G75*
G02*
X128732921Y-111264344I0J-243750D01*
G01*
G37*
G36*
G01*
X130607921Y-111264344D02*
X130607921Y-112176844D01*
G75*
G02*
X130364171Y-112420594I-243750J0D01*
G01*
X129876671Y-112420594D01*
G75*
G02*
X129632921Y-112176844I0J243750D01*
G01*
X129632921Y-111264344D01*
G75*
G02*
X129876671Y-111020594I243750J0D01*
G01*
X130364171Y-111020594D01*
G75*
G02*
X130607921Y-111264344I0J-243750D01*
G01*
G37*
G36*
G01*
X132298772Y-121298742D02*
X133211272Y-121298742D01*
G75*
G02*
X133455022Y-121542492I0J-243750D01*
G01*
X133455022Y-122029992D01*
G75*
G02*
X133211272Y-122273742I-243750J0D01*
G01*
X132298772Y-122273742D01*
G75*
G02*
X132055022Y-122029992I0J243750D01*
G01*
X132055022Y-121542492D01*
G75*
G02*
X132298772Y-121298742I243750J0D01*
G01*
G37*
G36*
G01*
X132298772Y-119423742D02*
X133211272Y-119423742D01*
G75*
G02*
X133455022Y-119667492I0J-243750D01*
G01*
X133455022Y-120154992D01*
G75*
G02*
X133211272Y-120398742I-243750J0D01*
G01*
X132298772Y-120398742D01*
G75*
G02*
X132055022Y-120154992I0J243750D01*
G01*
X132055022Y-119667492D01*
G75*
G02*
X132298772Y-119423742I243750J0D01*
G01*
G37*
G36*
G01*
X138568866Y-102936198D02*
X137656366Y-102936198D01*
G75*
G02*
X137412616Y-102692448I0J243750D01*
G01*
X137412616Y-102204948D01*
G75*
G02*
X137656366Y-101961198I243750J0D01*
G01*
X138568866Y-101961198D01*
G75*
G02*
X138812616Y-102204948I0J-243750D01*
G01*
X138812616Y-102692448D01*
G75*
G02*
X138568866Y-102936198I-243750J0D01*
G01*
G37*
G36*
G01*
X138568866Y-104811198D02*
X137656366Y-104811198D01*
G75*
G02*
X137412616Y-104567448I0J243750D01*
G01*
X137412616Y-104079948D01*
G75*
G02*
X137656366Y-103836198I243750J0D01*
G01*
X138568866Y-103836198D01*
G75*
G02*
X138812616Y-104079948I0J-243750D01*
G01*
X138812616Y-104567448D01*
G75*
G02*
X138568866Y-104811198I-243750J0D01*
G01*
G37*
G36*
G01*
X130433140Y-114247164D02*
X129520640Y-114247164D01*
G75*
G02*
X129276890Y-114003414I0J243750D01*
G01*
X129276890Y-113515914D01*
G75*
G02*
X129520640Y-113272164I243750J0D01*
G01*
X130433140Y-113272164D01*
G75*
G02*
X130676890Y-113515914I0J-243750D01*
G01*
X130676890Y-114003414D01*
G75*
G02*
X130433140Y-114247164I-243750J0D01*
G01*
G37*
G36*
G01*
X130433140Y-116122164D02*
X129520640Y-116122164D01*
G75*
G02*
X129276890Y-115878414I0J243750D01*
G01*
X129276890Y-115390914D01*
G75*
G02*
X129520640Y-115147164I243750J0D01*
G01*
X130433140Y-115147164D01*
G75*
G02*
X130676890Y-115390914I0J-243750D01*
G01*
X130676890Y-115878414D01*
G75*
G02*
X130433140Y-116122164I-243750J0D01*
G01*
G37*
G36*
G01*
X137576908Y-124169064D02*
X136664408Y-124169064D01*
G75*
G02*
X136420658Y-123925314I0J243750D01*
G01*
X136420658Y-123437814D01*
G75*
G02*
X136664408Y-123194064I243750J0D01*
G01*
X137576908Y-123194064D01*
G75*
G02*
X137820658Y-123437814I0J-243750D01*
G01*
X137820658Y-123925314D01*
G75*
G02*
X137576908Y-124169064I-243750J0D01*
G01*
G37*
G36*
G01*
X137576908Y-126044064D02*
X136664408Y-126044064D01*
G75*
G02*
X136420658Y-125800314I0J243750D01*
G01*
X136420658Y-125312814D01*
G75*
G02*
X136664408Y-125069064I243750J0D01*
G01*
X137576908Y-125069064D01*
G75*
G02*
X137820658Y-125312814I0J-243750D01*
G01*
X137820658Y-125800314D01*
G75*
G02*
X137576908Y-126044064I-243750J0D01*
G01*
G37*
G36*
G01*
X143411300Y-125069064D02*
X144323800Y-125069064D01*
G75*
G02*
X144567550Y-125312814I0J-243750D01*
G01*
X144567550Y-125800314D01*
G75*
G02*
X144323800Y-126044064I-243750J0D01*
G01*
X143411300Y-126044064D01*
G75*
G02*
X143167550Y-125800314I0J243750D01*
G01*
X143167550Y-125312814D01*
G75*
G02*
X143411300Y-125069064I243750J0D01*
G01*
G37*
G36*
G01*
X143411300Y-123194064D02*
X144323800Y-123194064D01*
G75*
G02*
X144567550Y-123437814I0J-243750D01*
G01*
X144567550Y-123925314D01*
G75*
G02*
X144323800Y-124169064I-243750J0D01*
G01*
X143411300Y-124169064D01*
G75*
G02*
X143167550Y-123925314I0J243750D01*
G01*
X143167550Y-123437814D01*
G75*
G02*
X143411300Y-123194064I243750J0D01*
G01*
G37*
G36*
G01*
X126406572Y-115431542D02*
X126406572Y-116344042D01*
G75*
G02*
X126162822Y-116587792I-243750J0D01*
G01*
X125675322Y-116587792D01*
G75*
G02*
X125431572Y-116344042I0J243750D01*
G01*
X125431572Y-115431542D01*
G75*
G02*
X125675322Y-115187792I243750J0D01*
G01*
X126162822Y-115187792D01*
G75*
G02*
X126406572Y-115431542I0J-243750D01*
G01*
G37*
G36*
G01*
X128281572Y-115431542D02*
X128281572Y-116344042D01*
G75*
G02*
X128037822Y-116587792I-243750J0D01*
G01*
X127550322Y-116587792D01*
G75*
G02*
X127306572Y-116344042I0J243750D01*
G01*
X127306572Y-115431542D01*
G75*
G02*
X127550322Y-115187792I243750J0D01*
G01*
X128037822Y-115187792D01*
G75*
G02*
X128281572Y-115431542I0J-243750D01*
G01*
G37*
G36*
G01*
X132615736Y-107896966D02*
X131703236Y-107896966D01*
G75*
G02*
X131459486Y-107653216I0J243750D01*
G01*
X131459486Y-107165716D01*
G75*
G02*
X131703236Y-106921966I243750J0D01*
G01*
X132615736Y-106921966D01*
G75*
G02*
X132859486Y-107165716I0J-243750D01*
G01*
X132859486Y-107653216D01*
G75*
G02*
X132615736Y-107896966I-243750J0D01*
G01*
G37*
G36*
G01*
X132615736Y-109771966D02*
X131703236Y-109771966D01*
G75*
G02*
X131459486Y-109528216I0J243750D01*
G01*
X131459486Y-109040716D01*
G75*
G02*
X131703236Y-108796966I243750J0D01*
G01*
X132615736Y-108796966D01*
G75*
G02*
X132859486Y-109040716I0J-243750D01*
G01*
X132859486Y-109528216D01*
G75*
G02*
X132615736Y-109771966I-243750J0D01*
G01*
G37*
G36*
G01*
X135586278Y-104437762D02*
X135586278Y-103525262D01*
G75*
G02*
X135830028Y-103281512I243750J0D01*
G01*
X136317528Y-103281512D01*
G75*
G02*
X136561278Y-103525262I0J-243750D01*
G01*
X136561278Y-104437762D01*
G75*
G02*
X136317528Y-104681512I-243750J0D01*
G01*
X135830028Y-104681512D01*
G75*
G02*
X135586278Y-104437762I0J243750D01*
G01*
G37*
G36*
G01*
X133711278Y-104437762D02*
X133711278Y-103525262D01*
G75*
G02*
X133955028Y-103281512I243750J0D01*
G01*
X134442528Y-103281512D01*
G75*
G02*
X134686278Y-103525262I0J-243750D01*
G01*
X134686278Y-104437762D01*
G75*
G02*
X134442528Y-104681512I-243750J0D01*
G01*
X133955028Y-104681512D01*
G75*
G02*
X133711278Y-104437762I0J243750D01*
G01*
G37*
G36*
G01*
X148769126Y-115544040D02*
X149681626Y-115544040D01*
G75*
G02*
X149925376Y-115787790I0J-243750D01*
G01*
X149925376Y-116275290D01*
G75*
G02*
X149681626Y-116519040I-243750J0D01*
G01*
X148769126Y-116519040D01*
G75*
G02*
X148525376Y-116275290I0J243750D01*
G01*
X148525376Y-115787790D01*
G75*
G02*
X148769126Y-115544040I243750J0D01*
G01*
G37*
G36*
G01*
X148769126Y-113669040D02*
X149681626Y-113669040D01*
G75*
G02*
X149925376Y-113912790I0J-243750D01*
G01*
X149925376Y-114400290D01*
G75*
G02*
X149681626Y-114644040I-243750J0D01*
G01*
X148769126Y-114644040D01*
G75*
G02*
X148525376Y-114400290I0J243750D01*
G01*
X148525376Y-113912790D01*
G75*
G02*
X148769126Y-113669040I243750J0D01*
G01*
G37*
G36*
G01*
X145401685Y-103723525D02*
X145401685Y-104636025D01*
G75*
G02*
X145157935Y-104879775I-243750J0D01*
G01*
X144670435Y-104879775D01*
G75*
G02*
X144426685Y-104636025I0J243750D01*
G01*
X144426685Y-103723525D01*
G75*
G02*
X144670435Y-103479775I243750J0D01*
G01*
X145157935Y-103479775D01*
G75*
G02*
X145401685Y-103723525I0J-243750D01*
G01*
G37*
G36*
G01*
X147276685Y-103723525D02*
X147276685Y-104636025D01*
G75*
G02*
X147032935Y-104879775I-243750J0D01*
G01*
X146545435Y-104879775D01*
G75*
G02*
X146301685Y-104636025I0J243750D01*
G01*
X146301685Y-103723525D01*
G75*
G02*
X146545435Y-103479775I243750J0D01*
G01*
X147032935Y-103479775D01*
G75*
G02*
X147276685Y-103723525I0J-243750D01*
G01*
G37*
G36*
G01*
X134679801Y-121893852D02*
X135592301Y-121893852D01*
G75*
G02*
X135836051Y-122137602I0J-243750D01*
G01*
X135836051Y-122625102D01*
G75*
G02*
X135592301Y-122868852I-243750J0D01*
G01*
X134679801Y-122868852D01*
G75*
G02*
X134436051Y-122625102I0J243750D01*
G01*
X134436051Y-122137602D01*
G75*
G02*
X134679801Y-121893852I243750J0D01*
G01*
G37*
G36*
G01*
X134679801Y-120018852D02*
X135592301Y-120018852D01*
G75*
G02*
X135836051Y-120262602I0J-243750D01*
G01*
X135836051Y-120750102D01*
G75*
G02*
X135592301Y-120993852I-243750J0D01*
G01*
X134679801Y-120993852D01*
G75*
G02*
X134436051Y-120750102I0J243750D01*
G01*
X134436051Y-120262602D01*
G75*
G02*
X134679801Y-120018852I243750J0D01*
G01*
G37*
D10*
X141593868Y-124625104D03*
X139393868Y-124625104D03*
X139393868Y-123025104D03*
X141593868Y-123025104D03*
D11*
X134793868Y-108514157D03*
X134793868Y-109314157D03*
X134793868Y-110114157D03*
X134793868Y-110914157D03*
X134793868Y-111714157D03*
X134793868Y-112514157D03*
X134793868Y-113314157D03*
X134793868Y-114114157D03*
X134793868Y-114914157D03*
X134793868Y-115714157D03*
X134793868Y-116514157D03*
D12*
X136493868Y-118214157D03*
X137293868Y-118214157D03*
X138093868Y-118214157D03*
X138893868Y-118214157D03*
X139693868Y-118214157D03*
X140493868Y-118214157D03*
X141293868Y-118214157D03*
X142093868Y-118214157D03*
X142893868Y-118214157D03*
X143693868Y-118214157D03*
X144493868Y-118214157D03*
D11*
X146193868Y-116514157D03*
X146193868Y-115714157D03*
X146193868Y-114914157D03*
X146193868Y-114114157D03*
X146193868Y-113314157D03*
X146193868Y-112514157D03*
X146193868Y-111714157D03*
X146193868Y-110914157D03*
X146193868Y-110114157D03*
X146193868Y-109314157D03*
X146193868Y-108514157D03*
D12*
X144493868Y-106814157D03*
X143693868Y-106814157D03*
X142893868Y-106814157D03*
X142093868Y-106814157D03*
X141293868Y-106814157D03*
X140493868Y-106814157D03*
X139693868Y-106814157D03*
X138893868Y-106814157D03*
X138093868Y-106814157D03*
X137293868Y-106814157D03*
X136493868Y-106814157D03*
M02*
