G04 #@! TF.GenerationSoftware,KiCad,Pcbnew,(5.1.5)-3*
G04 #@! TF.CreationDate,2020-09-01T22:55:03-05:00*
G04 #@! TF.ProjectId,PikateaTPM,50696b61-7465-4615-9450-4d2e6b696361,rev?*
G04 #@! TF.SameCoordinates,Original*
G04 #@! TF.FileFunction,Paste,Top*
G04 #@! TF.FilePolarity,Positive*
%FSLAX46Y46*%
G04 Gerber Fmt 4.6, Leading zero omitted, Abs format (unit mm)*
G04 Created by KiCad (PCBNEW (5.1.5)-3) date 2020-09-01 22:55:03*
%MOMM*%
%LPD*%
G04 APERTURE LIST*
%ADD10C,0.100000*%
%ADD11R,1.400000X1.200000*%
%ADD12R,1.500000X0.550000*%
%ADD13R,0.550000X1.500000*%
G04 APERTURE END LIST*
D10*
G36*
X128513063Y-109037388D02*
G01*
X128536724Y-109040898D01*
X128559928Y-109046710D01*
X128582450Y-109054768D01*
X128604074Y-109064996D01*
X128624591Y-109077293D01*
X128643804Y-109091543D01*
X128661528Y-109107607D01*
X128677592Y-109125331D01*
X128691842Y-109144544D01*
X128704139Y-109165061D01*
X128714367Y-109186685D01*
X128722425Y-109209207D01*
X128728237Y-109232411D01*
X128731747Y-109256072D01*
X128732921Y-109279964D01*
X128732921Y-110192464D01*
X128731747Y-110216356D01*
X128728237Y-110240017D01*
X128722425Y-110263221D01*
X128714367Y-110285743D01*
X128704139Y-110307367D01*
X128691842Y-110327884D01*
X128677592Y-110347097D01*
X128661528Y-110364821D01*
X128643804Y-110380885D01*
X128624591Y-110395135D01*
X128604074Y-110407432D01*
X128582450Y-110417660D01*
X128559928Y-110425718D01*
X128536724Y-110431530D01*
X128513063Y-110435040D01*
X128489171Y-110436214D01*
X128001671Y-110436214D01*
X127977779Y-110435040D01*
X127954118Y-110431530D01*
X127930914Y-110425718D01*
X127908392Y-110417660D01*
X127886768Y-110407432D01*
X127866251Y-110395135D01*
X127847038Y-110380885D01*
X127829314Y-110364821D01*
X127813250Y-110347097D01*
X127799000Y-110327884D01*
X127786703Y-110307367D01*
X127776475Y-110285743D01*
X127768417Y-110263221D01*
X127762605Y-110240017D01*
X127759095Y-110216356D01*
X127757921Y-110192464D01*
X127757921Y-109279964D01*
X127759095Y-109256072D01*
X127762605Y-109232411D01*
X127768417Y-109209207D01*
X127776475Y-109186685D01*
X127786703Y-109165061D01*
X127799000Y-109144544D01*
X127813250Y-109125331D01*
X127829314Y-109107607D01*
X127847038Y-109091543D01*
X127866251Y-109077293D01*
X127886768Y-109064996D01*
X127908392Y-109054768D01*
X127930914Y-109046710D01*
X127954118Y-109040898D01*
X127977779Y-109037388D01*
X128001671Y-109036214D01*
X128489171Y-109036214D01*
X128513063Y-109037388D01*
G37*
G36*
X130388063Y-109037388D02*
G01*
X130411724Y-109040898D01*
X130434928Y-109046710D01*
X130457450Y-109054768D01*
X130479074Y-109064996D01*
X130499591Y-109077293D01*
X130518804Y-109091543D01*
X130536528Y-109107607D01*
X130552592Y-109125331D01*
X130566842Y-109144544D01*
X130579139Y-109165061D01*
X130589367Y-109186685D01*
X130597425Y-109209207D01*
X130603237Y-109232411D01*
X130606747Y-109256072D01*
X130607921Y-109279964D01*
X130607921Y-110192464D01*
X130606747Y-110216356D01*
X130603237Y-110240017D01*
X130597425Y-110263221D01*
X130589367Y-110285743D01*
X130579139Y-110307367D01*
X130566842Y-110327884D01*
X130552592Y-110347097D01*
X130536528Y-110364821D01*
X130518804Y-110380885D01*
X130499591Y-110395135D01*
X130479074Y-110407432D01*
X130457450Y-110417660D01*
X130434928Y-110425718D01*
X130411724Y-110431530D01*
X130388063Y-110435040D01*
X130364171Y-110436214D01*
X129876671Y-110436214D01*
X129852779Y-110435040D01*
X129829118Y-110431530D01*
X129805914Y-110425718D01*
X129783392Y-110417660D01*
X129761768Y-110407432D01*
X129741251Y-110395135D01*
X129722038Y-110380885D01*
X129704314Y-110364821D01*
X129688250Y-110347097D01*
X129674000Y-110327884D01*
X129661703Y-110307367D01*
X129651475Y-110285743D01*
X129643417Y-110263221D01*
X129637605Y-110240017D01*
X129634095Y-110216356D01*
X129632921Y-110192464D01*
X129632921Y-109279964D01*
X129634095Y-109256072D01*
X129637605Y-109232411D01*
X129643417Y-109209207D01*
X129651475Y-109186685D01*
X129661703Y-109165061D01*
X129674000Y-109144544D01*
X129688250Y-109125331D01*
X129704314Y-109107607D01*
X129722038Y-109091543D01*
X129741251Y-109077293D01*
X129761768Y-109064996D01*
X129783392Y-109054768D01*
X129805914Y-109046710D01*
X129829118Y-109040898D01*
X129852779Y-109037388D01*
X129876671Y-109036214D01*
X130364171Y-109036214D01*
X130388063Y-109037388D01*
G37*
G36*
X128513063Y-111021768D02*
G01*
X128536724Y-111025278D01*
X128559928Y-111031090D01*
X128582450Y-111039148D01*
X128604074Y-111049376D01*
X128624591Y-111061673D01*
X128643804Y-111075923D01*
X128661528Y-111091987D01*
X128677592Y-111109711D01*
X128691842Y-111128924D01*
X128704139Y-111149441D01*
X128714367Y-111171065D01*
X128722425Y-111193587D01*
X128728237Y-111216791D01*
X128731747Y-111240452D01*
X128732921Y-111264344D01*
X128732921Y-112176844D01*
X128731747Y-112200736D01*
X128728237Y-112224397D01*
X128722425Y-112247601D01*
X128714367Y-112270123D01*
X128704139Y-112291747D01*
X128691842Y-112312264D01*
X128677592Y-112331477D01*
X128661528Y-112349201D01*
X128643804Y-112365265D01*
X128624591Y-112379515D01*
X128604074Y-112391812D01*
X128582450Y-112402040D01*
X128559928Y-112410098D01*
X128536724Y-112415910D01*
X128513063Y-112419420D01*
X128489171Y-112420594D01*
X128001671Y-112420594D01*
X127977779Y-112419420D01*
X127954118Y-112415910D01*
X127930914Y-112410098D01*
X127908392Y-112402040D01*
X127886768Y-112391812D01*
X127866251Y-112379515D01*
X127847038Y-112365265D01*
X127829314Y-112349201D01*
X127813250Y-112331477D01*
X127799000Y-112312264D01*
X127786703Y-112291747D01*
X127776475Y-112270123D01*
X127768417Y-112247601D01*
X127762605Y-112224397D01*
X127759095Y-112200736D01*
X127757921Y-112176844D01*
X127757921Y-111264344D01*
X127759095Y-111240452D01*
X127762605Y-111216791D01*
X127768417Y-111193587D01*
X127776475Y-111171065D01*
X127786703Y-111149441D01*
X127799000Y-111128924D01*
X127813250Y-111109711D01*
X127829314Y-111091987D01*
X127847038Y-111075923D01*
X127866251Y-111061673D01*
X127886768Y-111049376D01*
X127908392Y-111039148D01*
X127930914Y-111031090D01*
X127954118Y-111025278D01*
X127977779Y-111021768D01*
X128001671Y-111020594D01*
X128489171Y-111020594D01*
X128513063Y-111021768D01*
G37*
G36*
X130388063Y-111021768D02*
G01*
X130411724Y-111025278D01*
X130434928Y-111031090D01*
X130457450Y-111039148D01*
X130479074Y-111049376D01*
X130499591Y-111061673D01*
X130518804Y-111075923D01*
X130536528Y-111091987D01*
X130552592Y-111109711D01*
X130566842Y-111128924D01*
X130579139Y-111149441D01*
X130589367Y-111171065D01*
X130597425Y-111193587D01*
X130603237Y-111216791D01*
X130606747Y-111240452D01*
X130607921Y-111264344D01*
X130607921Y-112176844D01*
X130606747Y-112200736D01*
X130603237Y-112224397D01*
X130597425Y-112247601D01*
X130589367Y-112270123D01*
X130579139Y-112291747D01*
X130566842Y-112312264D01*
X130552592Y-112331477D01*
X130536528Y-112349201D01*
X130518804Y-112365265D01*
X130499591Y-112379515D01*
X130479074Y-112391812D01*
X130457450Y-112402040D01*
X130434928Y-112410098D01*
X130411724Y-112415910D01*
X130388063Y-112419420D01*
X130364171Y-112420594D01*
X129876671Y-112420594D01*
X129852779Y-112419420D01*
X129829118Y-112415910D01*
X129805914Y-112410098D01*
X129783392Y-112402040D01*
X129761768Y-112391812D01*
X129741251Y-112379515D01*
X129722038Y-112365265D01*
X129704314Y-112349201D01*
X129688250Y-112331477D01*
X129674000Y-112312264D01*
X129661703Y-112291747D01*
X129651475Y-112270123D01*
X129643417Y-112247601D01*
X129637605Y-112224397D01*
X129634095Y-112200736D01*
X129632921Y-112176844D01*
X129632921Y-111264344D01*
X129634095Y-111240452D01*
X129637605Y-111216791D01*
X129643417Y-111193587D01*
X129651475Y-111171065D01*
X129661703Y-111149441D01*
X129674000Y-111128924D01*
X129688250Y-111109711D01*
X129704314Y-111091987D01*
X129722038Y-111075923D01*
X129741251Y-111061673D01*
X129761768Y-111049376D01*
X129783392Y-111039148D01*
X129805914Y-111031090D01*
X129829118Y-111025278D01*
X129852779Y-111021768D01*
X129876671Y-111020594D01*
X130364171Y-111020594D01*
X130388063Y-111021768D01*
G37*
G36*
X133235164Y-121299916D02*
G01*
X133258825Y-121303426D01*
X133282029Y-121309238D01*
X133304551Y-121317296D01*
X133326175Y-121327524D01*
X133346692Y-121339821D01*
X133365905Y-121354071D01*
X133383629Y-121370135D01*
X133399693Y-121387859D01*
X133413943Y-121407072D01*
X133426240Y-121427589D01*
X133436468Y-121449213D01*
X133444526Y-121471735D01*
X133450338Y-121494939D01*
X133453848Y-121518600D01*
X133455022Y-121542492D01*
X133455022Y-122029992D01*
X133453848Y-122053884D01*
X133450338Y-122077545D01*
X133444526Y-122100749D01*
X133436468Y-122123271D01*
X133426240Y-122144895D01*
X133413943Y-122165412D01*
X133399693Y-122184625D01*
X133383629Y-122202349D01*
X133365905Y-122218413D01*
X133346692Y-122232663D01*
X133326175Y-122244960D01*
X133304551Y-122255188D01*
X133282029Y-122263246D01*
X133258825Y-122269058D01*
X133235164Y-122272568D01*
X133211272Y-122273742D01*
X132298772Y-122273742D01*
X132274880Y-122272568D01*
X132251219Y-122269058D01*
X132228015Y-122263246D01*
X132205493Y-122255188D01*
X132183869Y-122244960D01*
X132163352Y-122232663D01*
X132144139Y-122218413D01*
X132126415Y-122202349D01*
X132110351Y-122184625D01*
X132096101Y-122165412D01*
X132083804Y-122144895D01*
X132073576Y-122123271D01*
X132065518Y-122100749D01*
X132059706Y-122077545D01*
X132056196Y-122053884D01*
X132055022Y-122029992D01*
X132055022Y-121542492D01*
X132056196Y-121518600D01*
X132059706Y-121494939D01*
X132065518Y-121471735D01*
X132073576Y-121449213D01*
X132083804Y-121427589D01*
X132096101Y-121407072D01*
X132110351Y-121387859D01*
X132126415Y-121370135D01*
X132144139Y-121354071D01*
X132163352Y-121339821D01*
X132183869Y-121327524D01*
X132205493Y-121317296D01*
X132228015Y-121309238D01*
X132251219Y-121303426D01*
X132274880Y-121299916D01*
X132298772Y-121298742D01*
X133211272Y-121298742D01*
X133235164Y-121299916D01*
G37*
G36*
X133235164Y-119424916D02*
G01*
X133258825Y-119428426D01*
X133282029Y-119434238D01*
X133304551Y-119442296D01*
X133326175Y-119452524D01*
X133346692Y-119464821D01*
X133365905Y-119479071D01*
X133383629Y-119495135D01*
X133399693Y-119512859D01*
X133413943Y-119532072D01*
X133426240Y-119552589D01*
X133436468Y-119574213D01*
X133444526Y-119596735D01*
X133450338Y-119619939D01*
X133453848Y-119643600D01*
X133455022Y-119667492D01*
X133455022Y-120154992D01*
X133453848Y-120178884D01*
X133450338Y-120202545D01*
X133444526Y-120225749D01*
X133436468Y-120248271D01*
X133426240Y-120269895D01*
X133413943Y-120290412D01*
X133399693Y-120309625D01*
X133383629Y-120327349D01*
X133365905Y-120343413D01*
X133346692Y-120357663D01*
X133326175Y-120369960D01*
X133304551Y-120380188D01*
X133282029Y-120388246D01*
X133258825Y-120394058D01*
X133235164Y-120397568D01*
X133211272Y-120398742D01*
X132298772Y-120398742D01*
X132274880Y-120397568D01*
X132251219Y-120394058D01*
X132228015Y-120388246D01*
X132205493Y-120380188D01*
X132183869Y-120369960D01*
X132163352Y-120357663D01*
X132144139Y-120343413D01*
X132126415Y-120327349D01*
X132110351Y-120309625D01*
X132096101Y-120290412D01*
X132083804Y-120269895D01*
X132073576Y-120248271D01*
X132065518Y-120225749D01*
X132059706Y-120202545D01*
X132056196Y-120178884D01*
X132055022Y-120154992D01*
X132055022Y-119667492D01*
X132056196Y-119643600D01*
X132059706Y-119619939D01*
X132065518Y-119596735D01*
X132073576Y-119574213D01*
X132083804Y-119552589D01*
X132096101Y-119532072D01*
X132110351Y-119512859D01*
X132126415Y-119495135D01*
X132144139Y-119479071D01*
X132163352Y-119464821D01*
X132183869Y-119452524D01*
X132205493Y-119442296D01*
X132228015Y-119434238D01*
X132251219Y-119428426D01*
X132274880Y-119424916D01*
X132298772Y-119423742D01*
X133211272Y-119423742D01*
X133235164Y-119424916D01*
G37*
G36*
X138592758Y-101962372D02*
G01*
X138616419Y-101965882D01*
X138639623Y-101971694D01*
X138662145Y-101979752D01*
X138683769Y-101989980D01*
X138704286Y-102002277D01*
X138723499Y-102016527D01*
X138741223Y-102032591D01*
X138757287Y-102050315D01*
X138771537Y-102069528D01*
X138783834Y-102090045D01*
X138794062Y-102111669D01*
X138802120Y-102134191D01*
X138807932Y-102157395D01*
X138811442Y-102181056D01*
X138812616Y-102204948D01*
X138812616Y-102692448D01*
X138811442Y-102716340D01*
X138807932Y-102740001D01*
X138802120Y-102763205D01*
X138794062Y-102785727D01*
X138783834Y-102807351D01*
X138771537Y-102827868D01*
X138757287Y-102847081D01*
X138741223Y-102864805D01*
X138723499Y-102880869D01*
X138704286Y-102895119D01*
X138683769Y-102907416D01*
X138662145Y-102917644D01*
X138639623Y-102925702D01*
X138616419Y-102931514D01*
X138592758Y-102935024D01*
X138568866Y-102936198D01*
X137656366Y-102936198D01*
X137632474Y-102935024D01*
X137608813Y-102931514D01*
X137585609Y-102925702D01*
X137563087Y-102917644D01*
X137541463Y-102907416D01*
X137520946Y-102895119D01*
X137501733Y-102880869D01*
X137484009Y-102864805D01*
X137467945Y-102847081D01*
X137453695Y-102827868D01*
X137441398Y-102807351D01*
X137431170Y-102785727D01*
X137423112Y-102763205D01*
X137417300Y-102740001D01*
X137413790Y-102716340D01*
X137412616Y-102692448D01*
X137412616Y-102204948D01*
X137413790Y-102181056D01*
X137417300Y-102157395D01*
X137423112Y-102134191D01*
X137431170Y-102111669D01*
X137441398Y-102090045D01*
X137453695Y-102069528D01*
X137467945Y-102050315D01*
X137484009Y-102032591D01*
X137501733Y-102016527D01*
X137520946Y-102002277D01*
X137541463Y-101989980D01*
X137563087Y-101979752D01*
X137585609Y-101971694D01*
X137608813Y-101965882D01*
X137632474Y-101962372D01*
X137656366Y-101961198D01*
X138568866Y-101961198D01*
X138592758Y-101962372D01*
G37*
G36*
X138592758Y-103837372D02*
G01*
X138616419Y-103840882D01*
X138639623Y-103846694D01*
X138662145Y-103854752D01*
X138683769Y-103864980D01*
X138704286Y-103877277D01*
X138723499Y-103891527D01*
X138741223Y-103907591D01*
X138757287Y-103925315D01*
X138771537Y-103944528D01*
X138783834Y-103965045D01*
X138794062Y-103986669D01*
X138802120Y-104009191D01*
X138807932Y-104032395D01*
X138811442Y-104056056D01*
X138812616Y-104079948D01*
X138812616Y-104567448D01*
X138811442Y-104591340D01*
X138807932Y-104615001D01*
X138802120Y-104638205D01*
X138794062Y-104660727D01*
X138783834Y-104682351D01*
X138771537Y-104702868D01*
X138757287Y-104722081D01*
X138741223Y-104739805D01*
X138723499Y-104755869D01*
X138704286Y-104770119D01*
X138683769Y-104782416D01*
X138662145Y-104792644D01*
X138639623Y-104800702D01*
X138616419Y-104806514D01*
X138592758Y-104810024D01*
X138568866Y-104811198D01*
X137656366Y-104811198D01*
X137632474Y-104810024D01*
X137608813Y-104806514D01*
X137585609Y-104800702D01*
X137563087Y-104792644D01*
X137541463Y-104782416D01*
X137520946Y-104770119D01*
X137501733Y-104755869D01*
X137484009Y-104739805D01*
X137467945Y-104722081D01*
X137453695Y-104702868D01*
X137441398Y-104682351D01*
X137431170Y-104660727D01*
X137423112Y-104638205D01*
X137417300Y-104615001D01*
X137413790Y-104591340D01*
X137412616Y-104567448D01*
X137412616Y-104079948D01*
X137413790Y-104056056D01*
X137417300Y-104032395D01*
X137423112Y-104009191D01*
X137431170Y-103986669D01*
X137441398Y-103965045D01*
X137453695Y-103944528D01*
X137467945Y-103925315D01*
X137484009Y-103907591D01*
X137501733Y-103891527D01*
X137520946Y-103877277D01*
X137541463Y-103864980D01*
X137563087Y-103854752D01*
X137585609Y-103846694D01*
X137608813Y-103840882D01*
X137632474Y-103837372D01*
X137656366Y-103836198D01*
X138568866Y-103836198D01*
X138592758Y-103837372D01*
G37*
G36*
X130457032Y-113273338D02*
G01*
X130480693Y-113276848D01*
X130503897Y-113282660D01*
X130526419Y-113290718D01*
X130548043Y-113300946D01*
X130568560Y-113313243D01*
X130587773Y-113327493D01*
X130605497Y-113343557D01*
X130621561Y-113361281D01*
X130635811Y-113380494D01*
X130648108Y-113401011D01*
X130658336Y-113422635D01*
X130666394Y-113445157D01*
X130672206Y-113468361D01*
X130675716Y-113492022D01*
X130676890Y-113515914D01*
X130676890Y-114003414D01*
X130675716Y-114027306D01*
X130672206Y-114050967D01*
X130666394Y-114074171D01*
X130658336Y-114096693D01*
X130648108Y-114118317D01*
X130635811Y-114138834D01*
X130621561Y-114158047D01*
X130605497Y-114175771D01*
X130587773Y-114191835D01*
X130568560Y-114206085D01*
X130548043Y-114218382D01*
X130526419Y-114228610D01*
X130503897Y-114236668D01*
X130480693Y-114242480D01*
X130457032Y-114245990D01*
X130433140Y-114247164D01*
X129520640Y-114247164D01*
X129496748Y-114245990D01*
X129473087Y-114242480D01*
X129449883Y-114236668D01*
X129427361Y-114228610D01*
X129405737Y-114218382D01*
X129385220Y-114206085D01*
X129366007Y-114191835D01*
X129348283Y-114175771D01*
X129332219Y-114158047D01*
X129317969Y-114138834D01*
X129305672Y-114118317D01*
X129295444Y-114096693D01*
X129287386Y-114074171D01*
X129281574Y-114050967D01*
X129278064Y-114027306D01*
X129276890Y-114003414D01*
X129276890Y-113515914D01*
X129278064Y-113492022D01*
X129281574Y-113468361D01*
X129287386Y-113445157D01*
X129295444Y-113422635D01*
X129305672Y-113401011D01*
X129317969Y-113380494D01*
X129332219Y-113361281D01*
X129348283Y-113343557D01*
X129366007Y-113327493D01*
X129385220Y-113313243D01*
X129405737Y-113300946D01*
X129427361Y-113290718D01*
X129449883Y-113282660D01*
X129473087Y-113276848D01*
X129496748Y-113273338D01*
X129520640Y-113272164D01*
X130433140Y-113272164D01*
X130457032Y-113273338D01*
G37*
G36*
X130457032Y-115148338D02*
G01*
X130480693Y-115151848D01*
X130503897Y-115157660D01*
X130526419Y-115165718D01*
X130548043Y-115175946D01*
X130568560Y-115188243D01*
X130587773Y-115202493D01*
X130605497Y-115218557D01*
X130621561Y-115236281D01*
X130635811Y-115255494D01*
X130648108Y-115276011D01*
X130658336Y-115297635D01*
X130666394Y-115320157D01*
X130672206Y-115343361D01*
X130675716Y-115367022D01*
X130676890Y-115390914D01*
X130676890Y-115878414D01*
X130675716Y-115902306D01*
X130672206Y-115925967D01*
X130666394Y-115949171D01*
X130658336Y-115971693D01*
X130648108Y-115993317D01*
X130635811Y-116013834D01*
X130621561Y-116033047D01*
X130605497Y-116050771D01*
X130587773Y-116066835D01*
X130568560Y-116081085D01*
X130548043Y-116093382D01*
X130526419Y-116103610D01*
X130503897Y-116111668D01*
X130480693Y-116117480D01*
X130457032Y-116120990D01*
X130433140Y-116122164D01*
X129520640Y-116122164D01*
X129496748Y-116120990D01*
X129473087Y-116117480D01*
X129449883Y-116111668D01*
X129427361Y-116103610D01*
X129405737Y-116093382D01*
X129385220Y-116081085D01*
X129366007Y-116066835D01*
X129348283Y-116050771D01*
X129332219Y-116033047D01*
X129317969Y-116013834D01*
X129305672Y-115993317D01*
X129295444Y-115971693D01*
X129287386Y-115949171D01*
X129281574Y-115925967D01*
X129278064Y-115902306D01*
X129276890Y-115878414D01*
X129276890Y-115390914D01*
X129278064Y-115367022D01*
X129281574Y-115343361D01*
X129287386Y-115320157D01*
X129295444Y-115297635D01*
X129305672Y-115276011D01*
X129317969Y-115255494D01*
X129332219Y-115236281D01*
X129348283Y-115218557D01*
X129366007Y-115202493D01*
X129385220Y-115188243D01*
X129405737Y-115175946D01*
X129427361Y-115165718D01*
X129449883Y-115157660D01*
X129473087Y-115151848D01*
X129496748Y-115148338D01*
X129520640Y-115147164D01*
X130433140Y-115147164D01*
X130457032Y-115148338D01*
G37*
G36*
X137600800Y-123195238D02*
G01*
X137624461Y-123198748D01*
X137647665Y-123204560D01*
X137670187Y-123212618D01*
X137691811Y-123222846D01*
X137712328Y-123235143D01*
X137731541Y-123249393D01*
X137749265Y-123265457D01*
X137765329Y-123283181D01*
X137779579Y-123302394D01*
X137791876Y-123322911D01*
X137802104Y-123344535D01*
X137810162Y-123367057D01*
X137815974Y-123390261D01*
X137819484Y-123413922D01*
X137820658Y-123437814D01*
X137820658Y-123925314D01*
X137819484Y-123949206D01*
X137815974Y-123972867D01*
X137810162Y-123996071D01*
X137802104Y-124018593D01*
X137791876Y-124040217D01*
X137779579Y-124060734D01*
X137765329Y-124079947D01*
X137749265Y-124097671D01*
X137731541Y-124113735D01*
X137712328Y-124127985D01*
X137691811Y-124140282D01*
X137670187Y-124150510D01*
X137647665Y-124158568D01*
X137624461Y-124164380D01*
X137600800Y-124167890D01*
X137576908Y-124169064D01*
X136664408Y-124169064D01*
X136640516Y-124167890D01*
X136616855Y-124164380D01*
X136593651Y-124158568D01*
X136571129Y-124150510D01*
X136549505Y-124140282D01*
X136528988Y-124127985D01*
X136509775Y-124113735D01*
X136492051Y-124097671D01*
X136475987Y-124079947D01*
X136461737Y-124060734D01*
X136449440Y-124040217D01*
X136439212Y-124018593D01*
X136431154Y-123996071D01*
X136425342Y-123972867D01*
X136421832Y-123949206D01*
X136420658Y-123925314D01*
X136420658Y-123437814D01*
X136421832Y-123413922D01*
X136425342Y-123390261D01*
X136431154Y-123367057D01*
X136439212Y-123344535D01*
X136449440Y-123322911D01*
X136461737Y-123302394D01*
X136475987Y-123283181D01*
X136492051Y-123265457D01*
X136509775Y-123249393D01*
X136528988Y-123235143D01*
X136549505Y-123222846D01*
X136571129Y-123212618D01*
X136593651Y-123204560D01*
X136616855Y-123198748D01*
X136640516Y-123195238D01*
X136664408Y-123194064D01*
X137576908Y-123194064D01*
X137600800Y-123195238D01*
G37*
G36*
X137600800Y-125070238D02*
G01*
X137624461Y-125073748D01*
X137647665Y-125079560D01*
X137670187Y-125087618D01*
X137691811Y-125097846D01*
X137712328Y-125110143D01*
X137731541Y-125124393D01*
X137749265Y-125140457D01*
X137765329Y-125158181D01*
X137779579Y-125177394D01*
X137791876Y-125197911D01*
X137802104Y-125219535D01*
X137810162Y-125242057D01*
X137815974Y-125265261D01*
X137819484Y-125288922D01*
X137820658Y-125312814D01*
X137820658Y-125800314D01*
X137819484Y-125824206D01*
X137815974Y-125847867D01*
X137810162Y-125871071D01*
X137802104Y-125893593D01*
X137791876Y-125915217D01*
X137779579Y-125935734D01*
X137765329Y-125954947D01*
X137749265Y-125972671D01*
X137731541Y-125988735D01*
X137712328Y-126002985D01*
X137691811Y-126015282D01*
X137670187Y-126025510D01*
X137647665Y-126033568D01*
X137624461Y-126039380D01*
X137600800Y-126042890D01*
X137576908Y-126044064D01*
X136664408Y-126044064D01*
X136640516Y-126042890D01*
X136616855Y-126039380D01*
X136593651Y-126033568D01*
X136571129Y-126025510D01*
X136549505Y-126015282D01*
X136528988Y-126002985D01*
X136509775Y-125988735D01*
X136492051Y-125972671D01*
X136475987Y-125954947D01*
X136461737Y-125935734D01*
X136449440Y-125915217D01*
X136439212Y-125893593D01*
X136431154Y-125871071D01*
X136425342Y-125847867D01*
X136421832Y-125824206D01*
X136420658Y-125800314D01*
X136420658Y-125312814D01*
X136421832Y-125288922D01*
X136425342Y-125265261D01*
X136431154Y-125242057D01*
X136439212Y-125219535D01*
X136449440Y-125197911D01*
X136461737Y-125177394D01*
X136475987Y-125158181D01*
X136492051Y-125140457D01*
X136509775Y-125124393D01*
X136528988Y-125110143D01*
X136549505Y-125097846D01*
X136571129Y-125087618D01*
X136593651Y-125079560D01*
X136616855Y-125073748D01*
X136640516Y-125070238D01*
X136664408Y-125069064D01*
X137576908Y-125069064D01*
X137600800Y-125070238D01*
G37*
G36*
X144347692Y-125070238D02*
G01*
X144371353Y-125073748D01*
X144394557Y-125079560D01*
X144417079Y-125087618D01*
X144438703Y-125097846D01*
X144459220Y-125110143D01*
X144478433Y-125124393D01*
X144496157Y-125140457D01*
X144512221Y-125158181D01*
X144526471Y-125177394D01*
X144538768Y-125197911D01*
X144548996Y-125219535D01*
X144557054Y-125242057D01*
X144562866Y-125265261D01*
X144566376Y-125288922D01*
X144567550Y-125312814D01*
X144567550Y-125800314D01*
X144566376Y-125824206D01*
X144562866Y-125847867D01*
X144557054Y-125871071D01*
X144548996Y-125893593D01*
X144538768Y-125915217D01*
X144526471Y-125935734D01*
X144512221Y-125954947D01*
X144496157Y-125972671D01*
X144478433Y-125988735D01*
X144459220Y-126002985D01*
X144438703Y-126015282D01*
X144417079Y-126025510D01*
X144394557Y-126033568D01*
X144371353Y-126039380D01*
X144347692Y-126042890D01*
X144323800Y-126044064D01*
X143411300Y-126044064D01*
X143387408Y-126042890D01*
X143363747Y-126039380D01*
X143340543Y-126033568D01*
X143318021Y-126025510D01*
X143296397Y-126015282D01*
X143275880Y-126002985D01*
X143256667Y-125988735D01*
X143238943Y-125972671D01*
X143222879Y-125954947D01*
X143208629Y-125935734D01*
X143196332Y-125915217D01*
X143186104Y-125893593D01*
X143178046Y-125871071D01*
X143172234Y-125847867D01*
X143168724Y-125824206D01*
X143167550Y-125800314D01*
X143167550Y-125312814D01*
X143168724Y-125288922D01*
X143172234Y-125265261D01*
X143178046Y-125242057D01*
X143186104Y-125219535D01*
X143196332Y-125197911D01*
X143208629Y-125177394D01*
X143222879Y-125158181D01*
X143238943Y-125140457D01*
X143256667Y-125124393D01*
X143275880Y-125110143D01*
X143296397Y-125097846D01*
X143318021Y-125087618D01*
X143340543Y-125079560D01*
X143363747Y-125073748D01*
X143387408Y-125070238D01*
X143411300Y-125069064D01*
X144323800Y-125069064D01*
X144347692Y-125070238D01*
G37*
G36*
X144347692Y-123195238D02*
G01*
X144371353Y-123198748D01*
X144394557Y-123204560D01*
X144417079Y-123212618D01*
X144438703Y-123222846D01*
X144459220Y-123235143D01*
X144478433Y-123249393D01*
X144496157Y-123265457D01*
X144512221Y-123283181D01*
X144526471Y-123302394D01*
X144538768Y-123322911D01*
X144548996Y-123344535D01*
X144557054Y-123367057D01*
X144562866Y-123390261D01*
X144566376Y-123413922D01*
X144567550Y-123437814D01*
X144567550Y-123925314D01*
X144566376Y-123949206D01*
X144562866Y-123972867D01*
X144557054Y-123996071D01*
X144548996Y-124018593D01*
X144538768Y-124040217D01*
X144526471Y-124060734D01*
X144512221Y-124079947D01*
X144496157Y-124097671D01*
X144478433Y-124113735D01*
X144459220Y-124127985D01*
X144438703Y-124140282D01*
X144417079Y-124150510D01*
X144394557Y-124158568D01*
X144371353Y-124164380D01*
X144347692Y-124167890D01*
X144323800Y-124169064D01*
X143411300Y-124169064D01*
X143387408Y-124167890D01*
X143363747Y-124164380D01*
X143340543Y-124158568D01*
X143318021Y-124150510D01*
X143296397Y-124140282D01*
X143275880Y-124127985D01*
X143256667Y-124113735D01*
X143238943Y-124097671D01*
X143222879Y-124079947D01*
X143208629Y-124060734D01*
X143196332Y-124040217D01*
X143186104Y-124018593D01*
X143178046Y-123996071D01*
X143172234Y-123972867D01*
X143168724Y-123949206D01*
X143167550Y-123925314D01*
X143167550Y-123437814D01*
X143168724Y-123413922D01*
X143172234Y-123390261D01*
X143178046Y-123367057D01*
X143186104Y-123344535D01*
X143196332Y-123322911D01*
X143208629Y-123302394D01*
X143222879Y-123283181D01*
X143238943Y-123265457D01*
X143256667Y-123249393D01*
X143275880Y-123235143D01*
X143296397Y-123222846D01*
X143318021Y-123212618D01*
X143340543Y-123204560D01*
X143363747Y-123198748D01*
X143387408Y-123195238D01*
X143411300Y-123194064D01*
X144323800Y-123194064D01*
X144347692Y-123195238D01*
G37*
G36*
X126186714Y-115188966D02*
G01*
X126210375Y-115192476D01*
X126233579Y-115198288D01*
X126256101Y-115206346D01*
X126277725Y-115216574D01*
X126298242Y-115228871D01*
X126317455Y-115243121D01*
X126335179Y-115259185D01*
X126351243Y-115276909D01*
X126365493Y-115296122D01*
X126377790Y-115316639D01*
X126388018Y-115338263D01*
X126396076Y-115360785D01*
X126401888Y-115383989D01*
X126405398Y-115407650D01*
X126406572Y-115431542D01*
X126406572Y-116344042D01*
X126405398Y-116367934D01*
X126401888Y-116391595D01*
X126396076Y-116414799D01*
X126388018Y-116437321D01*
X126377790Y-116458945D01*
X126365493Y-116479462D01*
X126351243Y-116498675D01*
X126335179Y-116516399D01*
X126317455Y-116532463D01*
X126298242Y-116546713D01*
X126277725Y-116559010D01*
X126256101Y-116569238D01*
X126233579Y-116577296D01*
X126210375Y-116583108D01*
X126186714Y-116586618D01*
X126162822Y-116587792D01*
X125675322Y-116587792D01*
X125651430Y-116586618D01*
X125627769Y-116583108D01*
X125604565Y-116577296D01*
X125582043Y-116569238D01*
X125560419Y-116559010D01*
X125539902Y-116546713D01*
X125520689Y-116532463D01*
X125502965Y-116516399D01*
X125486901Y-116498675D01*
X125472651Y-116479462D01*
X125460354Y-116458945D01*
X125450126Y-116437321D01*
X125442068Y-116414799D01*
X125436256Y-116391595D01*
X125432746Y-116367934D01*
X125431572Y-116344042D01*
X125431572Y-115431542D01*
X125432746Y-115407650D01*
X125436256Y-115383989D01*
X125442068Y-115360785D01*
X125450126Y-115338263D01*
X125460354Y-115316639D01*
X125472651Y-115296122D01*
X125486901Y-115276909D01*
X125502965Y-115259185D01*
X125520689Y-115243121D01*
X125539902Y-115228871D01*
X125560419Y-115216574D01*
X125582043Y-115206346D01*
X125604565Y-115198288D01*
X125627769Y-115192476D01*
X125651430Y-115188966D01*
X125675322Y-115187792D01*
X126162822Y-115187792D01*
X126186714Y-115188966D01*
G37*
G36*
X128061714Y-115188966D02*
G01*
X128085375Y-115192476D01*
X128108579Y-115198288D01*
X128131101Y-115206346D01*
X128152725Y-115216574D01*
X128173242Y-115228871D01*
X128192455Y-115243121D01*
X128210179Y-115259185D01*
X128226243Y-115276909D01*
X128240493Y-115296122D01*
X128252790Y-115316639D01*
X128263018Y-115338263D01*
X128271076Y-115360785D01*
X128276888Y-115383989D01*
X128280398Y-115407650D01*
X128281572Y-115431542D01*
X128281572Y-116344042D01*
X128280398Y-116367934D01*
X128276888Y-116391595D01*
X128271076Y-116414799D01*
X128263018Y-116437321D01*
X128252790Y-116458945D01*
X128240493Y-116479462D01*
X128226243Y-116498675D01*
X128210179Y-116516399D01*
X128192455Y-116532463D01*
X128173242Y-116546713D01*
X128152725Y-116559010D01*
X128131101Y-116569238D01*
X128108579Y-116577296D01*
X128085375Y-116583108D01*
X128061714Y-116586618D01*
X128037822Y-116587792D01*
X127550322Y-116587792D01*
X127526430Y-116586618D01*
X127502769Y-116583108D01*
X127479565Y-116577296D01*
X127457043Y-116569238D01*
X127435419Y-116559010D01*
X127414902Y-116546713D01*
X127395689Y-116532463D01*
X127377965Y-116516399D01*
X127361901Y-116498675D01*
X127347651Y-116479462D01*
X127335354Y-116458945D01*
X127325126Y-116437321D01*
X127317068Y-116414799D01*
X127311256Y-116391595D01*
X127307746Y-116367934D01*
X127306572Y-116344042D01*
X127306572Y-115431542D01*
X127307746Y-115407650D01*
X127311256Y-115383989D01*
X127317068Y-115360785D01*
X127325126Y-115338263D01*
X127335354Y-115316639D01*
X127347651Y-115296122D01*
X127361901Y-115276909D01*
X127377965Y-115259185D01*
X127395689Y-115243121D01*
X127414902Y-115228871D01*
X127435419Y-115216574D01*
X127457043Y-115206346D01*
X127479565Y-115198288D01*
X127502769Y-115192476D01*
X127526430Y-115188966D01*
X127550322Y-115187792D01*
X128037822Y-115187792D01*
X128061714Y-115188966D01*
G37*
G36*
X132639628Y-106923140D02*
G01*
X132663289Y-106926650D01*
X132686493Y-106932462D01*
X132709015Y-106940520D01*
X132730639Y-106950748D01*
X132751156Y-106963045D01*
X132770369Y-106977295D01*
X132788093Y-106993359D01*
X132804157Y-107011083D01*
X132818407Y-107030296D01*
X132830704Y-107050813D01*
X132840932Y-107072437D01*
X132848990Y-107094959D01*
X132854802Y-107118163D01*
X132858312Y-107141824D01*
X132859486Y-107165716D01*
X132859486Y-107653216D01*
X132858312Y-107677108D01*
X132854802Y-107700769D01*
X132848990Y-107723973D01*
X132840932Y-107746495D01*
X132830704Y-107768119D01*
X132818407Y-107788636D01*
X132804157Y-107807849D01*
X132788093Y-107825573D01*
X132770369Y-107841637D01*
X132751156Y-107855887D01*
X132730639Y-107868184D01*
X132709015Y-107878412D01*
X132686493Y-107886470D01*
X132663289Y-107892282D01*
X132639628Y-107895792D01*
X132615736Y-107896966D01*
X131703236Y-107896966D01*
X131679344Y-107895792D01*
X131655683Y-107892282D01*
X131632479Y-107886470D01*
X131609957Y-107878412D01*
X131588333Y-107868184D01*
X131567816Y-107855887D01*
X131548603Y-107841637D01*
X131530879Y-107825573D01*
X131514815Y-107807849D01*
X131500565Y-107788636D01*
X131488268Y-107768119D01*
X131478040Y-107746495D01*
X131469982Y-107723973D01*
X131464170Y-107700769D01*
X131460660Y-107677108D01*
X131459486Y-107653216D01*
X131459486Y-107165716D01*
X131460660Y-107141824D01*
X131464170Y-107118163D01*
X131469982Y-107094959D01*
X131478040Y-107072437D01*
X131488268Y-107050813D01*
X131500565Y-107030296D01*
X131514815Y-107011083D01*
X131530879Y-106993359D01*
X131548603Y-106977295D01*
X131567816Y-106963045D01*
X131588333Y-106950748D01*
X131609957Y-106940520D01*
X131632479Y-106932462D01*
X131655683Y-106926650D01*
X131679344Y-106923140D01*
X131703236Y-106921966D01*
X132615736Y-106921966D01*
X132639628Y-106923140D01*
G37*
G36*
X132639628Y-108798140D02*
G01*
X132663289Y-108801650D01*
X132686493Y-108807462D01*
X132709015Y-108815520D01*
X132730639Y-108825748D01*
X132751156Y-108838045D01*
X132770369Y-108852295D01*
X132788093Y-108868359D01*
X132804157Y-108886083D01*
X132818407Y-108905296D01*
X132830704Y-108925813D01*
X132840932Y-108947437D01*
X132848990Y-108969959D01*
X132854802Y-108993163D01*
X132858312Y-109016824D01*
X132859486Y-109040716D01*
X132859486Y-109528216D01*
X132858312Y-109552108D01*
X132854802Y-109575769D01*
X132848990Y-109598973D01*
X132840932Y-109621495D01*
X132830704Y-109643119D01*
X132818407Y-109663636D01*
X132804157Y-109682849D01*
X132788093Y-109700573D01*
X132770369Y-109716637D01*
X132751156Y-109730887D01*
X132730639Y-109743184D01*
X132709015Y-109753412D01*
X132686493Y-109761470D01*
X132663289Y-109767282D01*
X132639628Y-109770792D01*
X132615736Y-109771966D01*
X131703236Y-109771966D01*
X131679344Y-109770792D01*
X131655683Y-109767282D01*
X131632479Y-109761470D01*
X131609957Y-109753412D01*
X131588333Y-109743184D01*
X131567816Y-109730887D01*
X131548603Y-109716637D01*
X131530879Y-109700573D01*
X131514815Y-109682849D01*
X131500565Y-109663636D01*
X131488268Y-109643119D01*
X131478040Y-109621495D01*
X131469982Y-109598973D01*
X131464170Y-109575769D01*
X131460660Y-109552108D01*
X131459486Y-109528216D01*
X131459486Y-109040716D01*
X131460660Y-109016824D01*
X131464170Y-108993163D01*
X131469982Y-108969959D01*
X131478040Y-108947437D01*
X131488268Y-108925813D01*
X131500565Y-108905296D01*
X131514815Y-108886083D01*
X131530879Y-108868359D01*
X131548603Y-108852295D01*
X131567816Y-108838045D01*
X131588333Y-108825748D01*
X131609957Y-108815520D01*
X131632479Y-108807462D01*
X131655683Y-108801650D01*
X131679344Y-108798140D01*
X131703236Y-108796966D01*
X132615736Y-108796966D01*
X132639628Y-108798140D01*
G37*
G36*
X136341420Y-103282686D02*
G01*
X136365081Y-103286196D01*
X136388285Y-103292008D01*
X136410807Y-103300066D01*
X136432431Y-103310294D01*
X136452948Y-103322591D01*
X136472161Y-103336841D01*
X136489885Y-103352905D01*
X136505949Y-103370629D01*
X136520199Y-103389842D01*
X136532496Y-103410359D01*
X136542724Y-103431983D01*
X136550782Y-103454505D01*
X136556594Y-103477709D01*
X136560104Y-103501370D01*
X136561278Y-103525262D01*
X136561278Y-104437762D01*
X136560104Y-104461654D01*
X136556594Y-104485315D01*
X136550782Y-104508519D01*
X136542724Y-104531041D01*
X136532496Y-104552665D01*
X136520199Y-104573182D01*
X136505949Y-104592395D01*
X136489885Y-104610119D01*
X136472161Y-104626183D01*
X136452948Y-104640433D01*
X136432431Y-104652730D01*
X136410807Y-104662958D01*
X136388285Y-104671016D01*
X136365081Y-104676828D01*
X136341420Y-104680338D01*
X136317528Y-104681512D01*
X135830028Y-104681512D01*
X135806136Y-104680338D01*
X135782475Y-104676828D01*
X135759271Y-104671016D01*
X135736749Y-104662958D01*
X135715125Y-104652730D01*
X135694608Y-104640433D01*
X135675395Y-104626183D01*
X135657671Y-104610119D01*
X135641607Y-104592395D01*
X135627357Y-104573182D01*
X135615060Y-104552665D01*
X135604832Y-104531041D01*
X135596774Y-104508519D01*
X135590962Y-104485315D01*
X135587452Y-104461654D01*
X135586278Y-104437762D01*
X135586278Y-103525262D01*
X135587452Y-103501370D01*
X135590962Y-103477709D01*
X135596774Y-103454505D01*
X135604832Y-103431983D01*
X135615060Y-103410359D01*
X135627357Y-103389842D01*
X135641607Y-103370629D01*
X135657671Y-103352905D01*
X135675395Y-103336841D01*
X135694608Y-103322591D01*
X135715125Y-103310294D01*
X135736749Y-103300066D01*
X135759271Y-103292008D01*
X135782475Y-103286196D01*
X135806136Y-103282686D01*
X135830028Y-103281512D01*
X136317528Y-103281512D01*
X136341420Y-103282686D01*
G37*
G36*
X134466420Y-103282686D02*
G01*
X134490081Y-103286196D01*
X134513285Y-103292008D01*
X134535807Y-103300066D01*
X134557431Y-103310294D01*
X134577948Y-103322591D01*
X134597161Y-103336841D01*
X134614885Y-103352905D01*
X134630949Y-103370629D01*
X134645199Y-103389842D01*
X134657496Y-103410359D01*
X134667724Y-103431983D01*
X134675782Y-103454505D01*
X134681594Y-103477709D01*
X134685104Y-103501370D01*
X134686278Y-103525262D01*
X134686278Y-104437762D01*
X134685104Y-104461654D01*
X134681594Y-104485315D01*
X134675782Y-104508519D01*
X134667724Y-104531041D01*
X134657496Y-104552665D01*
X134645199Y-104573182D01*
X134630949Y-104592395D01*
X134614885Y-104610119D01*
X134597161Y-104626183D01*
X134577948Y-104640433D01*
X134557431Y-104652730D01*
X134535807Y-104662958D01*
X134513285Y-104671016D01*
X134490081Y-104676828D01*
X134466420Y-104680338D01*
X134442528Y-104681512D01*
X133955028Y-104681512D01*
X133931136Y-104680338D01*
X133907475Y-104676828D01*
X133884271Y-104671016D01*
X133861749Y-104662958D01*
X133840125Y-104652730D01*
X133819608Y-104640433D01*
X133800395Y-104626183D01*
X133782671Y-104610119D01*
X133766607Y-104592395D01*
X133752357Y-104573182D01*
X133740060Y-104552665D01*
X133729832Y-104531041D01*
X133721774Y-104508519D01*
X133715962Y-104485315D01*
X133712452Y-104461654D01*
X133711278Y-104437762D01*
X133711278Y-103525262D01*
X133712452Y-103501370D01*
X133715962Y-103477709D01*
X133721774Y-103454505D01*
X133729832Y-103431983D01*
X133740060Y-103410359D01*
X133752357Y-103389842D01*
X133766607Y-103370629D01*
X133782671Y-103352905D01*
X133800395Y-103336841D01*
X133819608Y-103322591D01*
X133840125Y-103310294D01*
X133861749Y-103300066D01*
X133884271Y-103292008D01*
X133907475Y-103286196D01*
X133931136Y-103282686D01*
X133955028Y-103281512D01*
X134442528Y-103281512D01*
X134466420Y-103282686D01*
G37*
G36*
X149705518Y-115545214D02*
G01*
X149729179Y-115548724D01*
X149752383Y-115554536D01*
X149774905Y-115562594D01*
X149796529Y-115572822D01*
X149817046Y-115585119D01*
X149836259Y-115599369D01*
X149853983Y-115615433D01*
X149870047Y-115633157D01*
X149884297Y-115652370D01*
X149896594Y-115672887D01*
X149906822Y-115694511D01*
X149914880Y-115717033D01*
X149920692Y-115740237D01*
X149924202Y-115763898D01*
X149925376Y-115787790D01*
X149925376Y-116275290D01*
X149924202Y-116299182D01*
X149920692Y-116322843D01*
X149914880Y-116346047D01*
X149906822Y-116368569D01*
X149896594Y-116390193D01*
X149884297Y-116410710D01*
X149870047Y-116429923D01*
X149853983Y-116447647D01*
X149836259Y-116463711D01*
X149817046Y-116477961D01*
X149796529Y-116490258D01*
X149774905Y-116500486D01*
X149752383Y-116508544D01*
X149729179Y-116514356D01*
X149705518Y-116517866D01*
X149681626Y-116519040D01*
X148769126Y-116519040D01*
X148745234Y-116517866D01*
X148721573Y-116514356D01*
X148698369Y-116508544D01*
X148675847Y-116500486D01*
X148654223Y-116490258D01*
X148633706Y-116477961D01*
X148614493Y-116463711D01*
X148596769Y-116447647D01*
X148580705Y-116429923D01*
X148566455Y-116410710D01*
X148554158Y-116390193D01*
X148543930Y-116368569D01*
X148535872Y-116346047D01*
X148530060Y-116322843D01*
X148526550Y-116299182D01*
X148525376Y-116275290D01*
X148525376Y-115787790D01*
X148526550Y-115763898D01*
X148530060Y-115740237D01*
X148535872Y-115717033D01*
X148543930Y-115694511D01*
X148554158Y-115672887D01*
X148566455Y-115652370D01*
X148580705Y-115633157D01*
X148596769Y-115615433D01*
X148614493Y-115599369D01*
X148633706Y-115585119D01*
X148654223Y-115572822D01*
X148675847Y-115562594D01*
X148698369Y-115554536D01*
X148721573Y-115548724D01*
X148745234Y-115545214D01*
X148769126Y-115544040D01*
X149681626Y-115544040D01*
X149705518Y-115545214D01*
G37*
G36*
X149705518Y-113670214D02*
G01*
X149729179Y-113673724D01*
X149752383Y-113679536D01*
X149774905Y-113687594D01*
X149796529Y-113697822D01*
X149817046Y-113710119D01*
X149836259Y-113724369D01*
X149853983Y-113740433D01*
X149870047Y-113758157D01*
X149884297Y-113777370D01*
X149896594Y-113797887D01*
X149906822Y-113819511D01*
X149914880Y-113842033D01*
X149920692Y-113865237D01*
X149924202Y-113888898D01*
X149925376Y-113912790D01*
X149925376Y-114400290D01*
X149924202Y-114424182D01*
X149920692Y-114447843D01*
X149914880Y-114471047D01*
X149906822Y-114493569D01*
X149896594Y-114515193D01*
X149884297Y-114535710D01*
X149870047Y-114554923D01*
X149853983Y-114572647D01*
X149836259Y-114588711D01*
X149817046Y-114602961D01*
X149796529Y-114615258D01*
X149774905Y-114625486D01*
X149752383Y-114633544D01*
X149729179Y-114639356D01*
X149705518Y-114642866D01*
X149681626Y-114644040D01*
X148769126Y-114644040D01*
X148745234Y-114642866D01*
X148721573Y-114639356D01*
X148698369Y-114633544D01*
X148675847Y-114625486D01*
X148654223Y-114615258D01*
X148633706Y-114602961D01*
X148614493Y-114588711D01*
X148596769Y-114572647D01*
X148580705Y-114554923D01*
X148566455Y-114535710D01*
X148554158Y-114515193D01*
X148543930Y-114493569D01*
X148535872Y-114471047D01*
X148530060Y-114447843D01*
X148526550Y-114424182D01*
X148525376Y-114400290D01*
X148525376Y-113912790D01*
X148526550Y-113888898D01*
X148530060Y-113865237D01*
X148535872Y-113842033D01*
X148543930Y-113819511D01*
X148554158Y-113797887D01*
X148566455Y-113777370D01*
X148580705Y-113758157D01*
X148596769Y-113740433D01*
X148614493Y-113724369D01*
X148633706Y-113710119D01*
X148654223Y-113697822D01*
X148675847Y-113687594D01*
X148698369Y-113679536D01*
X148721573Y-113673724D01*
X148745234Y-113670214D01*
X148769126Y-113669040D01*
X149681626Y-113669040D01*
X149705518Y-113670214D01*
G37*
G36*
X145181827Y-103480949D02*
G01*
X145205488Y-103484459D01*
X145228692Y-103490271D01*
X145251214Y-103498329D01*
X145272838Y-103508557D01*
X145293355Y-103520854D01*
X145312568Y-103535104D01*
X145330292Y-103551168D01*
X145346356Y-103568892D01*
X145360606Y-103588105D01*
X145372903Y-103608622D01*
X145383131Y-103630246D01*
X145391189Y-103652768D01*
X145397001Y-103675972D01*
X145400511Y-103699633D01*
X145401685Y-103723525D01*
X145401685Y-104636025D01*
X145400511Y-104659917D01*
X145397001Y-104683578D01*
X145391189Y-104706782D01*
X145383131Y-104729304D01*
X145372903Y-104750928D01*
X145360606Y-104771445D01*
X145346356Y-104790658D01*
X145330292Y-104808382D01*
X145312568Y-104824446D01*
X145293355Y-104838696D01*
X145272838Y-104850993D01*
X145251214Y-104861221D01*
X145228692Y-104869279D01*
X145205488Y-104875091D01*
X145181827Y-104878601D01*
X145157935Y-104879775D01*
X144670435Y-104879775D01*
X144646543Y-104878601D01*
X144622882Y-104875091D01*
X144599678Y-104869279D01*
X144577156Y-104861221D01*
X144555532Y-104850993D01*
X144535015Y-104838696D01*
X144515802Y-104824446D01*
X144498078Y-104808382D01*
X144482014Y-104790658D01*
X144467764Y-104771445D01*
X144455467Y-104750928D01*
X144445239Y-104729304D01*
X144437181Y-104706782D01*
X144431369Y-104683578D01*
X144427859Y-104659917D01*
X144426685Y-104636025D01*
X144426685Y-103723525D01*
X144427859Y-103699633D01*
X144431369Y-103675972D01*
X144437181Y-103652768D01*
X144445239Y-103630246D01*
X144455467Y-103608622D01*
X144467764Y-103588105D01*
X144482014Y-103568892D01*
X144498078Y-103551168D01*
X144515802Y-103535104D01*
X144535015Y-103520854D01*
X144555532Y-103508557D01*
X144577156Y-103498329D01*
X144599678Y-103490271D01*
X144622882Y-103484459D01*
X144646543Y-103480949D01*
X144670435Y-103479775D01*
X145157935Y-103479775D01*
X145181827Y-103480949D01*
G37*
G36*
X147056827Y-103480949D02*
G01*
X147080488Y-103484459D01*
X147103692Y-103490271D01*
X147126214Y-103498329D01*
X147147838Y-103508557D01*
X147168355Y-103520854D01*
X147187568Y-103535104D01*
X147205292Y-103551168D01*
X147221356Y-103568892D01*
X147235606Y-103588105D01*
X147247903Y-103608622D01*
X147258131Y-103630246D01*
X147266189Y-103652768D01*
X147272001Y-103675972D01*
X147275511Y-103699633D01*
X147276685Y-103723525D01*
X147276685Y-104636025D01*
X147275511Y-104659917D01*
X147272001Y-104683578D01*
X147266189Y-104706782D01*
X147258131Y-104729304D01*
X147247903Y-104750928D01*
X147235606Y-104771445D01*
X147221356Y-104790658D01*
X147205292Y-104808382D01*
X147187568Y-104824446D01*
X147168355Y-104838696D01*
X147147838Y-104850993D01*
X147126214Y-104861221D01*
X147103692Y-104869279D01*
X147080488Y-104875091D01*
X147056827Y-104878601D01*
X147032935Y-104879775D01*
X146545435Y-104879775D01*
X146521543Y-104878601D01*
X146497882Y-104875091D01*
X146474678Y-104869279D01*
X146452156Y-104861221D01*
X146430532Y-104850993D01*
X146410015Y-104838696D01*
X146390802Y-104824446D01*
X146373078Y-104808382D01*
X146357014Y-104790658D01*
X146342764Y-104771445D01*
X146330467Y-104750928D01*
X146320239Y-104729304D01*
X146312181Y-104706782D01*
X146306369Y-104683578D01*
X146302859Y-104659917D01*
X146301685Y-104636025D01*
X146301685Y-103723525D01*
X146302859Y-103699633D01*
X146306369Y-103675972D01*
X146312181Y-103652768D01*
X146320239Y-103630246D01*
X146330467Y-103608622D01*
X146342764Y-103588105D01*
X146357014Y-103568892D01*
X146373078Y-103551168D01*
X146390802Y-103535104D01*
X146410015Y-103520854D01*
X146430532Y-103508557D01*
X146452156Y-103498329D01*
X146474678Y-103490271D01*
X146497882Y-103484459D01*
X146521543Y-103480949D01*
X146545435Y-103479775D01*
X147032935Y-103479775D01*
X147056827Y-103480949D01*
G37*
G36*
X135616193Y-121895026D02*
G01*
X135639854Y-121898536D01*
X135663058Y-121904348D01*
X135685580Y-121912406D01*
X135707204Y-121922634D01*
X135727721Y-121934931D01*
X135746934Y-121949181D01*
X135764658Y-121965245D01*
X135780722Y-121982969D01*
X135794972Y-122002182D01*
X135807269Y-122022699D01*
X135817497Y-122044323D01*
X135825555Y-122066845D01*
X135831367Y-122090049D01*
X135834877Y-122113710D01*
X135836051Y-122137602D01*
X135836051Y-122625102D01*
X135834877Y-122648994D01*
X135831367Y-122672655D01*
X135825555Y-122695859D01*
X135817497Y-122718381D01*
X135807269Y-122740005D01*
X135794972Y-122760522D01*
X135780722Y-122779735D01*
X135764658Y-122797459D01*
X135746934Y-122813523D01*
X135727721Y-122827773D01*
X135707204Y-122840070D01*
X135685580Y-122850298D01*
X135663058Y-122858356D01*
X135639854Y-122864168D01*
X135616193Y-122867678D01*
X135592301Y-122868852D01*
X134679801Y-122868852D01*
X134655909Y-122867678D01*
X134632248Y-122864168D01*
X134609044Y-122858356D01*
X134586522Y-122850298D01*
X134564898Y-122840070D01*
X134544381Y-122827773D01*
X134525168Y-122813523D01*
X134507444Y-122797459D01*
X134491380Y-122779735D01*
X134477130Y-122760522D01*
X134464833Y-122740005D01*
X134454605Y-122718381D01*
X134446547Y-122695859D01*
X134440735Y-122672655D01*
X134437225Y-122648994D01*
X134436051Y-122625102D01*
X134436051Y-122137602D01*
X134437225Y-122113710D01*
X134440735Y-122090049D01*
X134446547Y-122066845D01*
X134454605Y-122044323D01*
X134464833Y-122022699D01*
X134477130Y-122002182D01*
X134491380Y-121982969D01*
X134507444Y-121965245D01*
X134525168Y-121949181D01*
X134544381Y-121934931D01*
X134564898Y-121922634D01*
X134586522Y-121912406D01*
X134609044Y-121904348D01*
X134632248Y-121898536D01*
X134655909Y-121895026D01*
X134679801Y-121893852D01*
X135592301Y-121893852D01*
X135616193Y-121895026D01*
G37*
G36*
X135616193Y-120020026D02*
G01*
X135639854Y-120023536D01*
X135663058Y-120029348D01*
X135685580Y-120037406D01*
X135707204Y-120047634D01*
X135727721Y-120059931D01*
X135746934Y-120074181D01*
X135764658Y-120090245D01*
X135780722Y-120107969D01*
X135794972Y-120127182D01*
X135807269Y-120147699D01*
X135817497Y-120169323D01*
X135825555Y-120191845D01*
X135831367Y-120215049D01*
X135834877Y-120238710D01*
X135836051Y-120262602D01*
X135836051Y-120750102D01*
X135834877Y-120773994D01*
X135831367Y-120797655D01*
X135825555Y-120820859D01*
X135817497Y-120843381D01*
X135807269Y-120865005D01*
X135794972Y-120885522D01*
X135780722Y-120904735D01*
X135764658Y-120922459D01*
X135746934Y-120938523D01*
X135727721Y-120952773D01*
X135707204Y-120965070D01*
X135685580Y-120975298D01*
X135663058Y-120983356D01*
X135639854Y-120989168D01*
X135616193Y-120992678D01*
X135592301Y-120993852D01*
X134679801Y-120993852D01*
X134655909Y-120992678D01*
X134632248Y-120989168D01*
X134609044Y-120983356D01*
X134586522Y-120975298D01*
X134564898Y-120965070D01*
X134544381Y-120952773D01*
X134525168Y-120938523D01*
X134507444Y-120922459D01*
X134491380Y-120904735D01*
X134477130Y-120885522D01*
X134464833Y-120865005D01*
X134454605Y-120843381D01*
X134446547Y-120820859D01*
X134440735Y-120797655D01*
X134437225Y-120773994D01*
X134436051Y-120750102D01*
X134436051Y-120262602D01*
X134437225Y-120238710D01*
X134440735Y-120215049D01*
X134446547Y-120191845D01*
X134454605Y-120169323D01*
X134464833Y-120147699D01*
X134477130Y-120127182D01*
X134491380Y-120107969D01*
X134507444Y-120090245D01*
X134525168Y-120074181D01*
X134544381Y-120059931D01*
X134564898Y-120047634D01*
X134586522Y-120037406D01*
X134609044Y-120029348D01*
X134632248Y-120023536D01*
X134655909Y-120020026D01*
X134679801Y-120018852D01*
X135592301Y-120018852D01*
X135616193Y-120020026D01*
G37*
D11*
X141593868Y-124625104D03*
X139393868Y-124625104D03*
X139393868Y-123025104D03*
X141593868Y-123025104D03*
D12*
X134793868Y-108514157D03*
X134793868Y-109314157D03*
X134793868Y-110114157D03*
X134793868Y-110914157D03*
X134793868Y-111714157D03*
X134793868Y-112514157D03*
X134793868Y-113314157D03*
X134793868Y-114114157D03*
X134793868Y-114914157D03*
X134793868Y-115714157D03*
X134793868Y-116514157D03*
D13*
X136493868Y-118214157D03*
X137293868Y-118214157D03*
X138093868Y-118214157D03*
X138893868Y-118214157D03*
X139693868Y-118214157D03*
X140493868Y-118214157D03*
X141293868Y-118214157D03*
X142093868Y-118214157D03*
X142893868Y-118214157D03*
X143693868Y-118214157D03*
X144493868Y-118214157D03*
D12*
X146193868Y-116514157D03*
X146193868Y-115714157D03*
X146193868Y-114914157D03*
X146193868Y-114114157D03*
X146193868Y-113314157D03*
X146193868Y-112514157D03*
X146193868Y-111714157D03*
X146193868Y-110914157D03*
X146193868Y-110114157D03*
X146193868Y-109314157D03*
X146193868Y-108514157D03*
D13*
X144493868Y-106814157D03*
X143693868Y-106814157D03*
X142893868Y-106814157D03*
X142093868Y-106814157D03*
X141293868Y-106814157D03*
X140493868Y-106814157D03*
X139693868Y-106814157D03*
X138893868Y-106814157D03*
X138093868Y-106814157D03*
X137293868Y-106814157D03*
X136493868Y-106814157D03*
M02*
