G04 #@! TF.GenerationSoftware,KiCad,Pcbnew,(5.1.5)-3*
G04 #@! TF.CreationDate,2020-09-01T22:55:03-05:00*
G04 #@! TF.ProjectId,PikateaTPM,50696b61-7465-4615-9450-4d2e6b696361,rev?*
G04 #@! TF.SameCoordinates,Original*
G04 #@! TF.FileFunction,Soldermask,Bot*
G04 #@! TF.FilePolarity,Negative*
%FSLAX46Y46*%
G04 Gerber Fmt 4.6, Leading zero omitted, Abs format (unit mm)*
G04 Created by KiCad (PCBNEW (5.1.5)-3) date 2020-09-01 22:55:03*
%MOMM*%
%LPD*%
G04 APERTURE LIST*
%ADD10C,0.100000*%
G04 APERTURE END LIST*
D10*
G36*
X156447935Y-132082664D02*
G01*
X156602624Y-132146739D01*
X156602626Y-132146740D01*
X156741844Y-132239762D01*
X156860238Y-132358156D01*
X156953260Y-132497374D01*
X156953261Y-132497376D01*
X157017336Y-132652065D01*
X157050000Y-132816281D01*
X157050000Y-132983719D01*
X157017336Y-133147935D01*
X156953261Y-133302624D01*
X156953260Y-133302626D01*
X156860238Y-133441844D01*
X156741844Y-133560238D01*
X156602626Y-133653260D01*
X156602625Y-133653261D01*
X156602624Y-133653261D01*
X156447935Y-133717336D01*
X156283719Y-133750000D01*
X156116281Y-133750000D01*
X155952065Y-133717336D01*
X155797376Y-133653261D01*
X155797375Y-133653261D01*
X155797374Y-133653260D01*
X155658156Y-133560238D01*
X155539762Y-133441844D01*
X155446740Y-133302626D01*
X155446739Y-133302624D01*
X155382664Y-133147935D01*
X155350000Y-132983719D01*
X155350000Y-132816281D01*
X155382664Y-132652065D01*
X155446739Y-132497376D01*
X155446740Y-132497374D01*
X155539762Y-132358156D01*
X155658156Y-132239762D01*
X155797374Y-132146740D01*
X155797376Y-132146739D01*
X155952065Y-132082664D01*
X156116281Y-132050000D01*
X156283719Y-132050000D01*
X156447935Y-132082664D01*
G37*
G36*
X156447935Y-129542664D02*
G01*
X156561638Y-129589762D01*
X156602626Y-129606740D01*
X156741844Y-129699762D01*
X156860238Y-129818156D01*
X156953260Y-129957374D01*
X156953261Y-129957376D01*
X157017336Y-130112065D01*
X157050000Y-130276281D01*
X157050000Y-130443719D01*
X157017336Y-130607935D01*
X156998825Y-130652624D01*
X156953260Y-130762626D01*
X156860238Y-130901844D01*
X156741844Y-131020238D01*
X156602626Y-131113260D01*
X156602625Y-131113261D01*
X156602624Y-131113261D01*
X156447935Y-131177336D01*
X156283719Y-131210000D01*
X156116281Y-131210000D01*
X155952065Y-131177336D01*
X155797376Y-131113261D01*
X155797375Y-131113261D01*
X155797374Y-131113260D01*
X155658156Y-131020238D01*
X155539762Y-130901844D01*
X155446740Y-130762626D01*
X155401175Y-130652624D01*
X155382664Y-130607935D01*
X155350000Y-130443719D01*
X155350000Y-130276281D01*
X155382664Y-130112065D01*
X155446739Y-129957376D01*
X155446740Y-129957374D01*
X155539762Y-129818156D01*
X155658156Y-129699762D01*
X155797374Y-129606740D01*
X155838362Y-129589762D01*
X155952065Y-129542664D01*
X156116281Y-129510000D01*
X156283719Y-129510000D01*
X156447935Y-129542664D01*
G37*
G36*
X137537935Y-129432664D02*
G01*
X137692624Y-129496739D01*
X137692626Y-129496740D01*
X137831844Y-129589762D01*
X137950238Y-129708156D01*
X138023737Y-129818156D01*
X138043261Y-129847376D01*
X138107336Y-130002065D01*
X138140000Y-130166281D01*
X138140000Y-130333719D01*
X138107336Y-130497935D01*
X138043261Y-130652624D01*
X138043260Y-130652626D01*
X137950238Y-130791844D01*
X137831844Y-130910238D01*
X137692626Y-131003260D01*
X137692625Y-131003261D01*
X137692624Y-131003261D01*
X137537935Y-131067336D01*
X137373719Y-131100000D01*
X137206281Y-131100000D01*
X137042065Y-131067336D01*
X136887376Y-131003261D01*
X136887375Y-131003261D01*
X136887374Y-131003260D01*
X136748156Y-130910238D01*
X136629762Y-130791844D01*
X136536740Y-130652626D01*
X136536739Y-130652624D01*
X136472664Y-130497935D01*
X136440000Y-130333719D01*
X136440000Y-130166281D01*
X136472664Y-130002065D01*
X136536739Y-129847376D01*
X136556263Y-129818156D01*
X136629762Y-129708156D01*
X136748156Y-129589762D01*
X136887374Y-129496740D01*
X136887376Y-129496739D01*
X137042065Y-129432664D01*
X137206281Y-129400000D01*
X137373719Y-129400000D01*
X137537935Y-129432664D01*
G37*
G36*
X140077935Y-129432664D02*
G01*
X140232624Y-129496739D01*
X140232626Y-129496740D01*
X140371844Y-129589762D01*
X140490238Y-129708156D01*
X140563737Y-129818156D01*
X140583261Y-129847376D01*
X140647336Y-130002065D01*
X140680000Y-130166281D01*
X140680000Y-130333719D01*
X140647336Y-130497935D01*
X140583261Y-130652624D01*
X140583260Y-130652626D01*
X140490238Y-130791844D01*
X140371844Y-130910238D01*
X140232626Y-131003260D01*
X140232625Y-131003261D01*
X140232624Y-131003261D01*
X140077935Y-131067336D01*
X139913719Y-131100000D01*
X139746281Y-131100000D01*
X139582065Y-131067336D01*
X139427376Y-131003261D01*
X139427375Y-131003261D01*
X139427374Y-131003260D01*
X139288156Y-130910238D01*
X139169762Y-130791844D01*
X139076740Y-130652626D01*
X139076739Y-130652624D01*
X139012664Y-130497935D01*
X138980000Y-130333719D01*
X138980000Y-130166281D01*
X139012664Y-130002065D01*
X139076739Y-129847376D01*
X139096263Y-129818156D01*
X139169762Y-129708156D01*
X139288156Y-129589762D01*
X139427374Y-129496740D01*
X139427376Y-129496739D01*
X139582065Y-129432664D01*
X139746281Y-129400000D01*
X139913719Y-129400000D01*
X140077935Y-129432664D01*
G37*
G36*
X142617935Y-129432664D02*
G01*
X142772624Y-129496739D01*
X142772626Y-129496740D01*
X142911844Y-129589762D01*
X143030238Y-129708156D01*
X143103737Y-129818156D01*
X143123261Y-129847376D01*
X143187336Y-130002065D01*
X143220000Y-130166281D01*
X143220000Y-130333719D01*
X143187336Y-130497935D01*
X143123261Y-130652624D01*
X143123260Y-130652626D01*
X143030238Y-130791844D01*
X142911844Y-130910238D01*
X142772626Y-131003260D01*
X142772625Y-131003261D01*
X142772624Y-131003261D01*
X142617935Y-131067336D01*
X142453719Y-131100000D01*
X142286281Y-131100000D01*
X142122065Y-131067336D01*
X141967376Y-131003261D01*
X141967375Y-131003261D01*
X141967374Y-131003260D01*
X141828156Y-130910238D01*
X141709762Y-130791844D01*
X141616740Y-130652626D01*
X141616739Y-130652624D01*
X141552664Y-130497935D01*
X141520000Y-130333719D01*
X141520000Y-130166281D01*
X141552664Y-130002065D01*
X141616739Y-129847376D01*
X141636263Y-129818156D01*
X141709762Y-129708156D01*
X141828156Y-129589762D01*
X141967374Y-129496740D01*
X141967376Y-129496739D01*
X142122065Y-129432664D01*
X142286281Y-129400000D01*
X142453719Y-129400000D01*
X142617935Y-129432664D01*
G37*
G36*
X145157935Y-129432664D02*
G01*
X145312624Y-129496739D01*
X145312626Y-129496740D01*
X145451844Y-129589762D01*
X145570238Y-129708156D01*
X145643737Y-129818156D01*
X145663261Y-129847376D01*
X145727336Y-130002065D01*
X145760000Y-130166281D01*
X145760000Y-130333719D01*
X145727336Y-130497935D01*
X145663261Y-130652624D01*
X145663260Y-130652626D01*
X145570238Y-130791844D01*
X145451844Y-130910238D01*
X145312626Y-131003260D01*
X145312625Y-131003261D01*
X145312624Y-131003261D01*
X145157935Y-131067336D01*
X144993719Y-131100000D01*
X144826281Y-131100000D01*
X144662065Y-131067336D01*
X144507376Y-131003261D01*
X144507375Y-131003261D01*
X144507374Y-131003260D01*
X144368156Y-130910238D01*
X144249762Y-130791844D01*
X144156740Y-130652626D01*
X144156739Y-130652624D01*
X144092664Y-130497935D01*
X144060000Y-130333719D01*
X144060000Y-130166281D01*
X144092664Y-130002065D01*
X144156739Y-129847376D01*
X144176263Y-129818156D01*
X144249762Y-129708156D01*
X144368156Y-129589762D01*
X144507374Y-129496740D01*
X144507376Y-129496739D01*
X144662065Y-129432664D01*
X144826281Y-129400000D01*
X144993719Y-129400000D01*
X145157935Y-129432664D01*
G37*
G36*
X147697935Y-129432664D02*
G01*
X147852624Y-129496739D01*
X147852626Y-129496740D01*
X147991844Y-129589762D01*
X148110238Y-129708156D01*
X148183737Y-129818156D01*
X148203261Y-129847376D01*
X148267336Y-130002065D01*
X148300000Y-130166281D01*
X148300000Y-130333719D01*
X148267336Y-130497935D01*
X148203261Y-130652624D01*
X148203260Y-130652626D01*
X148110238Y-130791844D01*
X147991844Y-130910238D01*
X147852626Y-131003260D01*
X147852625Y-131003261D01*
X147852624Y-131003261D01*
X147697935Y-131067336D01*
X147533719Y-131100000D01*
X147366281Y-131100000D01*
X147202065Y-131067336D01*
X147047376Y-131003261D01*
X147047375Y-131003261D01*
X147047374Y-131003260D01*
X146908156Y-130910238D01*
X146789762Y-130791844D01*
X146696740Y-130652626D01*
X146696739Y-130652624D01*
X146632664Y-130497935D01*
X146600000Y-130333719D01*
X146600000Y-130166281D01*
X146632664Y-130002065D01*
X146696739Y-129847376D01*
X146716263Y-129818156D01*
X146789762Y-129708156D01*
X146908156Y-129589762D01*
X147047374Y-129496740D01*
X147047376Y-129496739D01*
X147202065Y-129432664D01*
X147366281Y-129400000D01*
X147533719Y-129400000D01*
X147697935Y-129432664D01*
G37*
G36*
X150237935Y-129432664D02*
G01*
X150392624Y-129496739D01*
X150392626Y-129496740D01*
X150531844Y-129589762D01*
X150650238Y-129708156D01*
X150723737Y-129818156D01*
X150743261Y-129847376D01*
X150807336Y-130002065D01*
X150840000Y-130166281D01*
X150840000Y-130333719D01*
X150807336Y-130497935D01*
X150743261Y-130652624D01*
X150743260Y-130652626D01*
X150650238Y-130791844D01*
X150531844Y-130910238D01*
X150392626Y-131003260D01*
X150392625Y-131003261D01*
X150392624Y-131003261D01*
X150237935Y-131067336D01*
X150073719Y-131100000D01*
X149906281Y-131100000D01*
X149742065Y-131067336D01*
X149587376Y-131003261D01*
X149587375Y-131003261D01*
X149587374Y-131003260D01*
X149448156Y-130910238D01*
X149329762Y-130791844D01*
X149236740Y-130652626D01*
X149236739Y-130652624D01*
X149172664Y-130497935D01*
X149140000Y-130333719D01*
X149140000Y-130166281D01*
X149172664Y-130002065D01*
X149236739Y-129847376D01*
X149256263Y-129818156D01*
X149329762Y-129708156D01*
X149448156Y-129589762D01*
X149587374Y-129496740D01*
X149587376Y-129496739D01*
X149742065Y-129432664D01*
X149906281Y-129400000D01*
X150073719Y-129400000D01*
X150237935Y-129432664D01*
G37*
G36*
X152777935Y-129432664D02*
G01*
X152932624Y-129496739D01*
X152932626Y-129496740D01*
X153071844Y-129589762D01*
X153190238Y-129708156D01*
X153263737Y-129818156D01*
X153283261Y-129847376D01*
X153347336Y-130002065D01*
X153380000Y-130166281D01*
X153380000Y-130333719D01*
X153347336Y-130497935D01*
X153283261Y-130652624D01*
X153283260Y-130652626D01*
X153190238Y-130791844D01*
X153071844Y-130910238D01*
X152932626Y-131003260D01*
X152932625Y-131003261D01*
X152932624Y-131003261D01*
X152777935Y-131067336D01*
X152613719Y-131100000D01*
X152446281Y-131100000D01*
X152282065Y-131067336D01*
X152127376Y-131003261D01*
X152127375Y-131003261D01*
X152127374Y-131003260D01*
X151988156Y-130910238D01*
X151869762Y-130791844D01*
X151776740Y-130652626D01*
X151776739Y-130652624D01*
X151712664Y-130497935D01*
X151680000Y-130333719D01*
X151680000Y-130166281D01*
X151712664Y-130002065D01*
X151776739Y-129847376D01*
X151796263Y-129818156D01*
X151869762Y-129708156D01*
X151988156Y-129589762D01*
X152127374Y-129496740D01*
X152127376Y-129496739D01*
X152282065Y-129432664D01*
X152446281Y-129400000D01*
X152613719Y-129400000D01*
X152777935Y-129432664D01*
G37*
G36*
X135600000Y-131100000D02*
G01*
X133900000Y-131100000D01*
X133900000Y-129400000D01*
X135600000Y-129400000D01*
X135600000Y-131100000D01*
G37*
G36*
X123113600Y-129363600D02*
G01*
X121386400Y-129363600D01*
X121386400Y-127636400D01*
X123113600Y-127636400D01*
X123113600Y-129363600D01*
G37*
G36*
X125041903Y-127669587D02*
G01*
X125199068Y-127734687D01*
X125340513Y-127829198D01*
X125460802Y-127949487D01*
X125555313Y-128090932D01*
X125620413Y-128248097D01*
X125653600Y-128414943D01*
X125653600Y-128585057D01*
X125620413Y-128751903D01*
X125555313Y-128909068D01*
X125460802Y-129050513D01*
X125340513Y-129170802D01*
X125199068Y-129265313D01*
X125041903Y-129330413D01*
X124875057Y-129363600D01*
X124704943Y-129363600D01*
X124538097Y-129330413D01*
X124380932Y-129265313D01*
X124239487Y-129170802D01*
X124119198Y-129050513D01*
X124024687Y-128909068D01*
X123959587Y-128751903D01*
X123926400Y-128585057D01*
X123926400Y-128414943D01*
X123959587Y-128248097D01*
X124024687Y-128090932D01*
X124119198Y-127949487D01*
X124239487Y-127829198D01*
X124380932Y-127734687D01*
X124538097Y-127669587D01*
X124704943Y-127636400D01*
X124875057Y-127636400D01*
X125041903Y-127669587D01*
G37*
G36*
X127581903Y-127669587D02*
G01*
X127739068Y-127734687D01*
X127880513Y-127829198D01*
X128000802Y-127949487D01*
X128095313Y-128090932D01*
X128160413Y-128248097D01*
X128193600Y-128414943D01*
X128193600Y-128585057D01*
X128160413Y-128751903D01*
X128095313Y-128909068D01*
X128000802Y-129050513D01*
X127880513Y-129170802D01*
X127739068Y-129265313D01*
X127581903Y-129330413D01*
X127415057Y-129363600D01*
X127244943Y-129363600D01*
X127078097Y-129330413D01*
X126920932Y-129265313D01*
X126779487Y-129170802D01*
X126659198Y-129050513D01*
X126564687Y-128909068D01*
X126499587Y-128751903D01*
X126466400Y-128585057D01*
X126466400Y-128414943D01*
X126499587Y-128248097D01*
X126564687Y-128090932D01*
X126659198Y-127949487D01*
X126779487Y-127829198D01*
X126920932Y-127734687D01*
X127078097Y-127669587D01*
X127244943Y-127636400D01*
X127415057Y-127636400D01*
X127581903Y-127669587D01*
G37*
G36*
X156447935Y-127002664D02*
G01*
X156602624Y-127066739D01*
X156602626Y-127066740D01*
X156741844Y-127159762D01*
X156860238Y-127278156D01*
X156953260Y-127417374D01*
X156953261Y-127417376D01*
X157017336Y-127572065D01*
X157050000Y-127736281D01*
X157050000Y-127903719D01*
X157017336Y-128067935D01*
X156953261Y-128222624D01*
X156953260Y-128222626D01*
X156860238Y-128361844D01*
X156741844Y-128480238D01*
X156602626Y-128573260D01*
X156602625Y-128573261D01*
X156602624Y-128573261D01*
X156447935Y-128637336D01*
X156283719Y-128670000D01*
X156116281Y-128670000D01*
X155952065Y-128637336D01*
X155797376Y-128573261D01*
X155797375Y-128573261D01*
X155797374Y-128573260D01*
X155658156Y-128480238D01*
X155539762Y-128361844D01*
X155446740Y-128222626D01*
X155446739Y-128222624D01*
X155382664Y-128067935D01*
X155350000Y-127903719D01*
X155350000Y-127736281D01*
X155382664Y-127572065D01*
X155446739Y-127417376D01*
X155446740Y-127417374D01*
X155539762Y-127278156D01*
X155658156Y-127159762D01*
X155797374Y-127066740D01*
X155797376Y-127066739D01*
X155952065Y-127002664D01*
X156116281Y-126970000D01*
X156283719Y-126970000D01*
X156447935Y-127002664D01*
G37*
G36*
X127581903Y-125129587D02*
G01*
X127739068Y-125194687D01*
X127880513Y-125289198D01*
X128000802Y-125409487D01*
X128095313Y-125550932D01*
X128160413Y-125708097D01*
X128193600Y-125874943D01*
X128193600Y-126045057D01*
X128160413Y-126211903D01*
X128095313Y-126369068D01*
X128000802Y-126510513D01*
X127880513Y-126630802D01*
X127739068Y-126725313D01*
X127581903Y-126790413D01*
X127415057Y-126823600D01*
X127244943Y-126823600D01*
X127078097Y-126790413D01*
X126920932Y-126725313D01*
X126779487Y-126630802D01*
X126659198Y-126510513D01*
X126564687Y-126369068D01*
X126499587Y-126211903D01*
X126466400Y-126045057D01*
X126466400Y-125874943D01*
X126499587Y-125708097D01*
X126564687Y-125550932D01*
X126659198Y-125409487D01*
X126779487Y-125289198D01*
X126920932Y-125194687D01*
X127078097Y-125129587D01*
X127244943Y-125096400D01*
X127415057Y-125096400D01*
X127581903Y-125129587D01*
G37*
G36*
X125041903Y-125129587D02*
G01*
X125199068Y-125194687D01*
X125340513Y-125289198D01*
X125460802Y-125409487D01*
X125555313Y-125550932D01*
X125620413Y-125708097D01*
X125653600Y-125874943D01*
X125653600Y-126045057D01*
X125620413Y-126211903D01*
X125555313Y-126369068D01*
X125460802Y-126510513D01*
X125340513Y-126630802D01*
X125199068Y-126725313D01*
X125041903Y-126790413D01*
X124875057Y-126823600D01*
X124704943Y-126823600D01*
X124538097Y-126790413D01*
X124380932Y-126725313D01*
X124239487Y-126630802D01*
X124119198Y-126510513D01*
X124024687Y-126369068D01*
X123959587Y-126211903D01*
X123926400Y-126045057D01*
X123926400Y-125874943D01*
X123959587Y-125708097D01*
X124024687Y-125550932D01*
X124119198Y-125409487D01*
X124239487Y-125289198D01*
X124380932Y-125194687D01*
X124538097Y-125129587D01*
X124704943Y-125096400D01*
X124875057Y-125096400D01*
X125041903Y-125129587D01*
G37*
G36*
X122501903Y-125129587D02*
G01*
X122659068Y-125194687D01*
X122800513Y-125289198D01*
X122920802Y-125409487D01*
X123015313Y-125550932D01*
X123080413Y-125708097D01*
X123113600Y-125874943D01*
X123113600Y-126045057D01*
X123080413Y-126211903D01*
X123015313Y-126369068D01*
X122920802Y-126510513D01*
X122800513Y-126630802D01*
X122659068Y-126725313D01*
X122501903Y-126790413D01*
X122335057Y-126823600D01*
X122164943Y-126823600D01*
X121998097Y-126790413D01*
X121840932Y-126725313D01*
X121699487Y-126630802D01*
X121579198Y-126510513D01*
X121484687Y-126369068D01*
X121419587Y-126211903D01*
X121386400Y-126045057D01*
X121386400Y-125874943D01*
X121419587Y-125708097D01*
X121484687Y-125550932D01*
X121579198Y-125409487D01*
X121699487Y-125289198D01*
X121840932Y-125194687D01*
X121998097Y-125129587D01*
X122164943Y-125096400D01*
X122335057Y-125096400D01*
X122501903Y-125129587D01*
G37*
G36*
X156447935Y-124462664D02*
G01*
X156602624Y-124526739D01*
X156602626Y-124526740D01*
X156741844Y-124619762D01*
X156860238Y-124738156D01*
X156953260Y-124877374D01*
X156953261Y-124877376D01*
X157017336Y-125032065D01*
X157050000Y-125196281D01*
X157050000Y-125363719D01*
X157017336Y-125527935D01*
X156953261Y-125682624D01*
X156953260Y-125682626D01*
X156860238Y-125821844D01*
X156741844Y-125940238D01*
X156602626Y-126033260D01*
X156602625Y-126033261D01*
X156602624Y-126033261D01*
X156447935Y-126097336D01*
X156283719Y-126130000D01*
X156116281Y-126130000D01*
X155952065Y-126097336D01*
X155797376Y-126033261D01*
X155797375Y-126033261D01*
X155797374Y-126033260D01*
X155658156Y-125940238D01*
X155539762Y-125821844D01*
X155446740Y-125682626D01*
X155446739Y-125682624D01*
X155382664Y-125527935D01*
X155350000Y-125363719D01*
X155350000Y-125196281D01*
X155382664Y-125032065D01*
X155446739Y-124877376D01*
X155446740Y-124877374D01*
X155539762Y-124738156D01*
X155658156Y-124619762D01*
X155797374Y-124526740D01*
X155797376Y-124526739D01*
X155952065Y-124462664D01*
X156116281Y-124430000D01*
X156283719Y-124430000D01*
X156447935Y-124462664D01*
G37*
G36*
X156447935Y-121922664D02*
G01*
X156602624Y-121986739D01*
X156602626Y-121986740D01*
X156741844Y-122079762D01*
X156860238Y-122198156D01*
X156953260Y-122337374D01*
X156953261Y-122337376D01*
X157017336Y-122492065D01*
X157050000Y-122656281D01*
X157050000Y-122823719D01*
X157017336Y-122987935D01*
X156953261Y-123142624D01*
X156953260Y-123142626D01*
X156860238Y-123281844D01*
X156741844Y-123400238D01*
X156602626Y-123493260D01*
X156602625Y-123493261D01*
X156602624Y-123493261D01*
X156447935Y-123557336D01*
X156283719Y-123590000D01*
X156116281Y-123590000D01*
X155952065Y-123557336D01*
X155797376Y-123493261D01*
X155797375Y-123493261D01*
X155797374Y-123493260D01*
X155658156Y-123400238D01*
X155539762Y-123281844D01*
X155446740Y-123142626D01*
X155446739Y-123142624D01*
X155382664Y-122987935D01*
X155350000Y-122823719D01*
X155350000Y-122656281D01*
X155382664Y-122492065D01*
X155446739Y-122337376D01*
X155446740Y-122337374D01*
X155539762Y-122198156D01*
X155658156Y-122079762D01*
X155797374Y-121986740D01*
X155797376Y-121986739D01*
X155952065Y-121922664D01*
X156116281Y-121890000D01*
X156283719Y-121890000D01*
X156447935Y-121922664D01*
G37*
G36*
X156447935Y-119382664D02*
G01*
X156602624Y-119446739D01*
X156602626Y-119446740D01*
X156741844Y-119539762D01*
X156860238Y-119658156D01*
X156953260Y-119797374D01*
X156953261Y-119797376D01*
X157017336Y-119952065D01*
X157050000Y-120116281D01*
X157050000Y-120283719D01*
X157017336Y-120447935D01*
X156953261Y-120602624D01*
X156953260Y-120602626D01*
X156860238Y-120741844D01*
X156741844Y-120860238D01*
X156602626Y-120953260D01*
X156602625Y-120953261D01*
X156602624Y-120953261D01*
X156447935Y-121017336D01*
X156283719Y-121050000D01*
X156116281Y-121050000D01*
X155952065Y-121017336D01*
X155797376Y-120953261D01*
X155797375Y-120953261D01*
X155797374Y-120953260D01*
X155658156Y-120860238D01*
X155539762Y-120741844D01*
X155446740Y-120602626D01*
X155446739Y-120602624D01*
X155382664Y-120447935D01*
X155350000Y-120283719D01*
X155350000Y-120116281D01*
X155382664Y-119952065D01*
X155446739Y-119797376D01*
X155446740Y-119797374D01*
X155539762Y-119658156D01*
X155658156Y-119539762D01*
X155797374Y-119446740D01*
X155797376Y-119446739D01*
X155952065Y-119382664D01*
X156116281Y-119350000D01*
X156283719Y-119350000D01*
X156447935Y-119382664D01*
G37*
G36*
X156447935Y-116842664D02*
G01*
X156602624Y-116906739D01*
X156602626Y-116906740D01*
X156741844Y-116999762D01*
X156860238Y-117118156D01*
X156953260Y-117257374D01*
X156953261Y-117257376D01*
X157017336Y-117412065D01*
X157050000Y-117576281D01*
X157050000Y-117743719D01*
X157017336Y-117907935D01*
X156953261Y-118062624D01*
X156953260Y-118062626D01*
X156860238Y-118201844D01*
X156741844Y-118320238D01*
X156602626Y-118413260D01*
X156602625Y-118413261D01*
X156602624Y-118413261D01*
X156447935Y-118477336D01*
X156283719Y-118510000D01*
X156116281Y-118510000D01*
X155952065Y-118477336D01*
X155797376Y-118413261D01*
X155797375Y-118413261D01*
X155797374Y-118413260D01*
X155658156Y-118320238D01*
X155539762Y-118201844D01*
X155446740Y-118062626D01*
X155446739Y-118062624D01*
X155382664Y-117907935D01*
X155350000Y-117743719D01*
X155350000Y-117576281D01*
X155382664Y-117412065D01*
X155446739Y-117257376D01*
X155446740Y-117257374D01*
X155539762Y-117118156D01*
X155658156Y-116999762D01*
X155797374Y-116906740D01*
X155797376Y-116906739D01*
X155952065Y-116842664D01*
X156116281Y-116810000D01*
X156283719Y-116810000D01*
X156447935Y-116842664D01*
G37*
G36*
X118252099Y-115858682D02*
G01*
X118365199Y-115892990D01*
X118469433Y-115948704D01*
X118560795Y-116023683D01*
X118635774Y-116115045D01*
X118691488Y-116219279D01*
X118725796Y-116332379D01*
X118737381Y-116450000D01*
X118725796Y-116567621D01*
X118691488Y-116680721D01*
X118635774Y-116784955D01*
X118560795Y-116876317D01*
X118469433Y-116951296D01*
X118365199Y-117007010D01*
X118252099Y-117041318D01*
X118163952Y-117050000D01*
X117005004Y-117050000D01*
X116916857Y-117041318D01*
X116803757Y-117007010D01*
X116699523Y-116951296D01*
X116608161Y-116876317D01*
X116533182Y-116784955D01*
X116477468Y-116680721D01*
X116443160Y-116567621D01*
X116431575Y-116450000D01*
X116443160Y-116332379D01*
X116477468Y-116219279D01*
X116533182Y-116115045D01*
X116608161Y-116023683D01*
X116699523Y-115948704D01*
X116803757Y-115892990D01*
X116916857Y-115858682D01*
X117005004Y-115850000D01*
X118163952Y-115850000D01*
X118252099Y-115858682D01*
G37*
G36*
X123002099Y-115858682D02*
G01*
X123115199Y-115892990D01*
X123219433Y-115948704D01*
X123310795Y-116023683D01*
X123385774Y-116115045D01*
X123441488Y-116219279D01*
X123475796Y-116332379D01*
X123487381Y-116450000D01*
X123475796Y-116567621D01*
X123441488Y-116680721D01*
X123385774Y-116784955D01*
X123310795Y-116876317D01*
X123219433Y-116951296D01*
X123115199Y-117007010D01*
X123002099Y-117041318D01*
X122913952Y-117050000D01*
X121755004Y-117050000D01*
X121666857Y-117041318D01*
X121553757Y-117007010D01*
X121449523Y-116951296D01*
X121358161Y-116876317D01*
X121283182Y-116784955D01*
X121227468Y-116680721D01*
X121193160Y-116567621D01*
X121181575Y-116450000D01*
X121193160Y-116332379D01*
X121227468Y-116219279D01*
X121283182Y-116115045D01*
X121358161Y-116023683D01*
X121449523Y-115948704D01*
X121553757Y-115892990D01*
X121666857Y-115858682D01*
X121755004Y-115850000D01*
X122913952Y-115850000D01*
X123002099Y-115858682D01*
G37*
G36*
X156447935Y-114302664D02*
G01*
X156602624Y-114366739D01*
X156602626Y-114366740D01*
X156741844Y-114459762D01*
X156860238Y-114578156D01*
X156953260Y-114717374D01*
X156953261Y-114717376D01*
X157017336Y-114872065D01*
X157050000Y-115036281D01*
X157050000Y-115203719D01*
X157017336Y-115367935D01*
X156953261Y-115522624D01*
X156953260Y-115522626D01*
X156860238Y-115661844D01*
X156741844Y-115780238D01*
X156602626Y-115873260D01*
X156602625Y-115873261D01*
X156602624Y-115873261D01*
X156447935Y-115937336D01*
X156283719Y-115970000D01*
X156116281Y-115970000D01*
X155952065Y-115937336D01*
X155797376Y-115873261D01*
X155797375Y-115873261D01*
X155797374Y-115873260D01*
X155658156Y-115780238D01*
X155539762Y-115661844D01*
X155446740Y-115522626D01*
X155446739Y-115522624D01*
X155382664Y-115367935D01*
X155350000Y-115203719D01*
X155350000Y-115036281D01*
X155382664Y-114872065D01*
X155446739Y-114717376D01*
X155446740Y-114717374D01*
X155539762Y-114578156D01*
X155658156Y-114459762D01*
X155797374Y-114366740D01*
X155797376Y-114366739D01*
X155952065Y-114302664D01*
X156116281Y-114270000D01*
X156283719Y-114270000D01*
X156447935Y-114302664D01*
G37*
G36*
X123359487Y-113814091D02*
G01*
X123394907Y-113821136D01*
X123444954Y-113841866D01*
X123495002Y-113862597D01*
X123585080Y-113922785D01*
X123661693Y-113999398D01*
X123721881Y-114089476D01*
X123763342Y-114189572D01*
X123784478Y-114295828D01*
X123784478Y-114404172D01*
X123763342Y-114510428D01*
X123721881Y-114610524D01*
X123661693Y-114700602D01*
X123585080Y-114777215D01*
X123495002Y-114837403D01*
X123444954Y-114858133D01*
X123394907Y-114878864D01*
X123359487Y-114885909D01*
X123288650Y-114900000D01*
X123180306Y-114900000D01*
X123109469Y-114885909D01*
X123074049Y-114878864D01*
X123024002Y-114858133D01*
X122973954Y-114837403D01*
X122883876Y-114777215D01*
X122807263Y-114700602D01*
X122747075Y-114610524D01*
X122705614Y-114510428D01*
X122684478Y-114404172D01*
X122684478Y-114295828D01*
X122705614Y-114189572D01*
X122747075Y-114089476D01*
X122807263Y-113999398D01*
X122883876Y-113922785D01*
X122973954Y-113862597D01*
X123024002Y-113841866D01*
X123074049Y-113821136D01*
X123109469Y-113814091D01*
X123180306Y-113800000D01*
X123288650Y-113800000D01*
X123359487Y-113814091D01*
G37*
G36*
X122159487Y-113014091D02*
G01*
X122194907Y-113021136D01*
X122244954Y-113041867D01*
X122295002Y-113062597D01*
X122385080Y-113122785D01*
X122461693Y-113199398D01*
X122521881Y-113289476D01*
X122521881Y-113289477D01*
X122563342Y-113389571D01*
X122570387Y-113424991D01*
X122584478Y-113495828D01*
X122584478Y-113604172D01*
X122563342Y-113710428D01*
X122521881Y-113810524D01*
X122461693Y-113900602D01*
X122385080Y-113977215D01*
X122295002Y-114037403D01*
X122244954Y-114058133D01*
X122194907Y-114078864D01*
X122159487Y-114085909D01*
X122088650Y-114100000D01*
X121980306Y-114100000D01*
X121909469Y-114085909D01*
X121874049Y-114078864D01*
X121824002Y-114058133D01*
X121773954Y-114037403D01*
X121683876Y-113977215D01*
X121607263Y-113900602D01*
X121547075Y-113810524D01*
X121505614Y-113710428D01*
X121484478Y-113604172D01*
X121484478Y-113495828D01*
X121498569Y-113424991D01*
X121505614Y-113389571D01*
X121547075Y-113289477D01*
X121547075Y-113289476D01*
X121607263Y-113199398D01*
X121683876Y-113122785D01*
X121773954Y-113062597D01*
X121824002Y-113041867D01*
X121874049Y-113021136D01*
X121909469Y-113014091D01*
X121980306Y-113000000D01*
X122088650Y-113000000D01*
X122159487Y-113014091D01*
G37*
G36*
X156447935Y-111762664D02*
G01*
X156602624Y-111826739D01*
X156602626Y-111826740D01*
X156741844Y-111919762D01*
X156860238Y-112038156D01*
X156908528Y-112110428D01*
X156953261Y-112177376D01*
X157017336Y-112332065D01*
X157050000Y-112496281D01*
X157050000Y-112663719D01*
X157017336Y-112827935D01*
X156983166Y-112910428D01*
X156953260Y-112982626D01*
X156860238Y-113121844D01*
X156741844Y-113240238D01*
X156602626Y-113333260D01*
X156602625Y-113333261D01*
X156602624Y-113333261D01*
X156447935Y-113397336D01*
X156283719Y-113430000D01*
X156116281Y-113430000D01*
X155952065Y-113397336D01*
X155797376Y-113333261D01*
X155797375Y-113333261D01*
X155797374Y-113333260D01*
X155658156Y-113240238D01*
X155539762Y-113121844D01*
X155446740Y-112982626D01*
X155416834Y-112910428D01*
X155382664Y-112827935D01*
X155350000Y-112663719D01*
X155350000Y-112496281D01*
X155382664Y-112332065D01*
X155446739Y-112177376D01*
X155491472Y-112110428D01*
X155539762Y-112038156D01*
X155658156Y-111919762D01*
X155797374Y-111826740D01*
X155797376Y-111826739D01*
X155952065Y-111762664D01*
X156116281Y-111730000D01*
X156283719Y-111730000D01*
X156447935Y-111762664D01*
G37*
G36*
X123359487Y-112214091D02*
G01*
X123394907Y-112221136D01*
X123444954Y-112241866D01*
X123495002Y-112262597D01*
X123585080Y-112322785D01*
X123661693Y-112399398D01*
X123721881Y-112489476D01*
X123763342Y-112589572D01*
X123784478Y-112695828D01*
X123784478Y-112804172D01*
X123763342Y-112910428D01*
X123721881Y-113010524D01*
X123661693Y-113100602D01*
X123585080Y-113177215D01*
X123495002Y-113237403D01*
X123444954Y-113258133D01*
X123394907Y-113278864D01*
X123359487Y-113285909D01*
X123288650Y-113300000D01*
X123180306Y-113300000D01*
X123109469Y-113285909D01*
X123074049Y-113278864D01*
X123024002Y-113258133D01*
X122973954Y-113237403D01*
X122883876Y-113177215D01*
X122807263Y-113100602D01*
X122747075Y-113010524D01*
X122705614Y-112910428D01*
X122684478Y-112804172D01*
X122684478Y-112695828D01*
X122705614Y-112589572D01*
X122747075Y-112489476D01*
X122807263Y-112399398D01*
X122883876Y-112322785D01*
X122973954Y-112262597D01*
X123024002Y-112241866D01*
X123074049Y-112221136D01*
X123109469Y-112214091D01*
X123180306Y-112200000D01*
X123288650Y-112200000D01*
X123359487Y-112214091D01*
G37*
G36*
X122159487Y-111414091D02*
G01*
X122194907Y-111421136D01*
X122244954Y-111441867D01*
X122295002Y-111462597D01*
X122385080Y-111522785D01*
X122461693Y-111599398D01*
X122521881Y-111689476D01*
X122542612Y-111739524D01*
X122552197Y-111762664D01*
X122563342Y-111789572D01*
X122584478Y-111895828D01*
X122584478Y-112004172D01*
X122563342Y-112110428D01*
X122521881Y-112210524D01*
X122461693Y-112300602D01*
X122385080Y-112377215D01*
X122295002Y-112437403D01*
X122244954Y-112458134D01*
X122194907Y-112478864D01*
X122159487Y-112485909D01*
X122088650Y-112500000D01*
X121980306Y-112500000D01*
X121909469Y-112485909D01*
X121874049Y-112478864D01*
X121824002Y-112458134D01*
X121773954Y-112437403D01*
X121683876Y-112377215D01*
X121607263Y-112300602D01*
X121547075Y-112210524D01*
X121505614Y-112110428D01*
X121484478Y-112004172D01*
X121484478Y-111895828D01*
X121505614Y-111789572D01*
X121516760Y-111762664D01*
X121526345Y-111739524D01*
X121547075Y-111689476D01*
X121607263Y-111599398D01*
X121683876Y-111522785D01*
X121773954Y-111462597D01*
X121824002Y-111441867D01*
X121874049Y-111421136D01*
X121909469Y-111414091D01*
X121980306Y-111400000D01*
X122088650Y-111400000D01*
X122159487Y-111414091D01*
G37*
G36*
X123359487Y-110614091D02*
G01*
X123394907Y-110621136D01*
X123444954Y-110641867D01*
X123495002Y-110662597D01*
X123585080Y-110722785D01*
X123661693Y-110799398D01*
X123721881Y-110889476D01*
X123763342Y-110989572D01*
X123784478Y-111095828D01*
X123784478Y-111204172D01*
X123763342Y-111310428D01*
X123721881Y-111410524D01*
X123661693Y-111500602D01*
X123585080Y-111577215D01*
X123495002Y-111637403D01*
X123444954Y-111658134D01*
X123394907Y-111678864D01*
X123359487Y-111685909D01*
X123288650Y-111700000D01*
X123180306Y-111700000D01*
X123109469Y-111685909D01*
X123074049Y-111678864D01*
X123024002Y-111658134D01*
X122973954Y-111637403D01*
X122883876Y-111577215D01*
X122807263Y-111500602D01*
X122747075Y-111410524D01*
X122705614Y-111310428D01*
X122684478Y-111204172D01*
X122684478Y-111095828D01*
X122705614Y-110989572D01*
X122747075Y-110889476D01*
X122807263Y-110799398D01*
X122883876Y-110722785D01*
X122973954Y-110662597D01*
X123024002Y-110641866D01*
X123074049Y-110621136D01*
X123109469Y-110614091D01*
X123180306Y-110600000D01*
X123288650Y-110600000D01*
X123359487Y-110614091D01*
G37*
G36*
X156447935Y-109222664D02*
G01*
X156602624Y-109286739D01*
X156602626Y-109286740D01*
X156741844Y-109379762D01*
X156860238Y-109498156D01*
X156953260Y-109637374D01*
X156953261Y-109637376D01*
X157017336Y-109792065D01*
X157050000Y-109956281D01*
X157050000Y-110123719D01*
X157017336Y-110287935D01*
X156953261Y-110442624D01*
X156953260Y-110442626D01*
X156860238Y-110581844D01*
X156741844Y-110700238D01*
X156602626Y-110793260D01*
X156602625Y-110793261D01*
X156602624Y-110793261D01*
X156447935Y-110857336D01*
X156283719Y-110890000D01*
X156116281Y-110890000D01*
X155952065Y-110857336D01*
X155797376Y-110793261D01*
X155797375Y-110793261D01*
X155797374Y-110793260D01*
X155658156Y-110700238D01*
X155539762Y-110581844D01*
X155446740Y-110442626D01*
X155446739Y-110442624D01*
X155382664Y-110287935D01*
X155350000Y-110123719D01*
X155350000Y-109956281D01*
X155382664Y-109792065D01*
X155446739Y-109637376D01*
X155446740Y-109637374D01*
X155539762Y-109498156D01*
X155658156Y-109379762D01*
X155797374Y-109286740D01*
X155797376Y-109286739D01*
X155952065Y-109222664D01*
X156116281Y-109190000D01*
X156283719Y-109190000D01*
X156447935Y-109222664D01*
G37*
G36*
X123002099Y-108458682D02*
G01*
X123115199Y-108492990D01*
X123219433Y-108548704D01*
X123310795Y-108623683D01*
X123385774Y-108715045D01*
X123441488Y-108819279D01*
X123475796Y-108932379D01*
X123487381Y-109050000D01*
X123475796Y-109167621D01*
X123441488Y-109280721D01*
X123385774Y-109384955D01*
X123310795Y-109476317D01*
X123219433Y-109551296D01*
X123115199Y-109607010D01*
X123002099Y-109641318D01*
X122913952Y-109650000D01*
X121755004Y-109650000D01*
X121666857Y-109641318D01*
X121553757Y-109607010D01*
X121449523Y-109551296D01*
X121358161Y-109476317D01*
X121283182Y-109384955D01*
X121227468Y-109280721D01*
X121193160Y-109167621D01*
X121181575Y-109050000D01*
X121193160Y-108932379D01*
X121227468Y-108819279D01*
X121283182Y-108715045D01*
X121358161Y-108623683D01*
X121449523Y-108548704D01*
X121553757Y-108492990D01*
X121666857Y-108458682D01*
X121755004Y-108450000D01*
X122913952Y-108450000D01*
X123002099Y-108458682D01*
G37*
G36*
X118252099Y-108458682D02*
G01*
X118365199Y-108492990D01*
X118469433Y-108548704D01*
X118560795Y-108623683D01*
X118635774Y-108715045D01*
X118691488Y-108819279D01*
X118725796Y-108932379D01*
X118737381Y-109050000D01*
X118725796Y-109167621D01*
X118691488Y-109280721D01*
X118635774Y-109384955D01*
X118560795Y-109476317D01*
X118469433Y-109551296D01*
X118365199Y-109607010D01*
X118252099Y-109641318D01*
X118163952Y-109650000D01*
X117005004Y-109650000D01*
X116916857Y-109641318D01*
X116803757Y-109607010D01*
X116699523Y-109551296D01*
X116608161Y-109476317D01*
X116533182Y-109384955D01*
X116477468Y-109280721D01*
X116443160Y-109167621D01*
X116431575Y-109050000D01*
X116443160Y-108932379D01*
X116477468Y-108819279D01*
X116533182Y-108715045D01*
X116608161Y-108623683D01*
X116699523Y-108548704D01*
X116803757Y-108492990D01*
X116916857Y-108458682D01*
X117005004Y-108450000D01*
X118163952Y-108450000D01*
X118252099Y-108458682D01*
G37*
G36*
X156447935Y-106682664D02*
G01*
X156602624Y-106746739D01*
X156602626Y-106746740D01*
X156741844Y-106839762D01*
X156860238Y-106958156D01*
X156953260Y-107097374D01*
X156953261Y-107097376D01*
X157017336Y-107252065D01*
X157050000Y-107416281D01*
X157050000Y-107583719D01*
X157017336Y-107747935D01*
X156953261Y-107902624D01*
X156953260Y-107902626D01*
X156860238Y-108041844D01*
X156741844Y-108160238D01*
X156602626Y-108253260D01*
X156602625Y-108253261D01*
X156602624Y-108253261D01*
X156447935Y-108317336D01*
X156283719Y-108350000D01*
X156116281Y-108350000D01*
X155952065Y-108317336D01*
X155797376Y-108253261D01*
X155797375Y-108253261D01*
X155797374Y-108253260D01*
X155658156Y-108160238D01*
X155539762Y-108041844D01*
X155446740Y-107902626D01*
X155446739Y-107902624D01*
X155382664Y-107747935D01*
X155350000Y-107583719D01*
X155350000Y-107416281D01*
X155382664Y-107252065D01*
X155446739Y-107097376D01*
X155446740Y-107097374D01*
X155539762Y-106958156D01*
X155658156Y-106839762D01*
X155797374Y-106746740D01*
X155797376Y-106746739D01*
X155952065Y-106682664D01*
X156116281Y-106650000D01*
X156283719Y-106650000D01*
X156447935Y-106682664D01*
G37*
G36*
X156447935Y-104142664D02*
G01*
X156602624Y-104206739D01*
X156602626Y-104206740D01*
X156741844Y-104299762D01*
X156860238Y-104418156D01*
X156953260Y-104557374D01*
X156953261Y-104557376D01*
X157017336Y-104712065D01*
X157050000Y-104876281D01*
X157050000Y-105043719D01*
X157017336Y-105207935D01*
X156953261Y-105362624D01*
X156953260Y-105362626D01*
X156860238Y-105501844D01*
X156741844Y-105620238D01*
X156602626Y-105713260D01*
X156602625Y-105713261D01*
X156602624Y-105713261D01*
X156447935Y-105777336D01*
X156283719Y-105810000D01*
X156116281Y-105810000D01*
X155952065Y-105777336D01*
X155797376Y-105713261D01*
X155797375Y-105713261D01*
X155797374Y-105713260D01*
X155658156Y-105620238D01*
X155539762Y-105501844D01*
X155446740Y-105362626D01*
X155446739Y-105362624D01*
X155382664Y-105207935D01*
X155350000Y-105043719D01*
X155350000Y-104876281D01*
X155382664Y-104712065D01*
X155446739Y-104557376D01*
X155446740Y-104557374D01*
X155539762Y-104418156D01*
X155658156Y-104299762D01*
X155797374Y-104206740D01*
X155797376Y-104206739D01*
X155952065Y-104142664D01*
X156116281Y-104110000D01*
X156283719Y-104110000D01*
X156447935Y-104142664D01*
G37*
G36*
X156447935Y-101602664D02*
G01*
X156602624Y-101666739D01*
X156602626Y-101666740D01*
X156741844Y-101759762D01*
X156860238Y-101878156D01*
X156953260Y-102017374D01*
X156953261Y-102017376D01*
X157017336Y-102172065D01*
X157050000Y-102336281D01*
X157050000Y-102503719D01*
X157017336Y-102667935D01*
X156953261Y-102822624D01*
X156953260Y-102822626D01*
X156860238Y-102961844D01*
X156741844Y-103080238D01*
X156602626Y-103173260D01*
X156602625Y-103173261D01*
X156602624Y-103173261D01*
X156447935Y-103237336D01*
X156283719Y-103270000D01*
X156116281Y-103270000D01*
X155952065Y-103237336D01*
X155797376Y-103173261D01*
X155797375Y-103173261D01*
X155797374Y-103173260D01*
X155658156Y-103080238D01*
X155539762Y-102961844D01*
X155446740Y-102822626D01*
X155446739Y-102822624D01*
X155382664Y-102667935D01*
X155350000Y-102503719D01*
X155350000Y-102336281D01*
X155382664Y-102172065D01*
X155446739Y-102017376D01*
X155446740Y-102017374D01*
X155539762Y-101878156D01*
X155658156Y-101759762D01*
X155797374Y-101666740D01*
X155797376Y-101666739D01*
X155952065Y-101602664D01*
X156116281Y-101570000D01*
X156283719Y-101570000D01*
X156447935Y-101602664D01*
G37*
G36*
X156447935Y-99062664D02*
G01*
X156602624Y-99126739D01*
X156602626Y-99126740D01*
X156741844Y-99219762D01*
X156860238Y-99338156D01*
X156953260Y-99477374D01*
X156953261Y-99477376D01*
X157017336Y-99632065D01*
X157050000Y-99796281D01*
X157050000Y-99963719D01*
X157017336Y-100127935D01*
X156953261Y-100282624D01*
X156953260Y-100282626D01*
X156860238Y-100421844D01*
X156741844Y-100540238D01*
X156602626Y-100633260D01*
X156602625Y-100633261D01*
X156602624Y-100633261D01*
X156447935Y-100697336D01*
X156283719Y-100730000D01*
X156116281Y-100730000D01*
X155952065Y-100697336D01*
X155797376Y-100633261D01*
X155797375Y-100633261D01*
X155797374Y-100633260D01*
X155658156Y-100540238D01*
X155539762Y-100421844D01*
X155446740Y-100282626D01*
X155446739Y-100282624D01*
X155382664Y-100127935D01*
X155350000Y-99963719D01*
X155350000Y-99796281D01*
X155382664Y-99632065D01*
X155446739Y-99477376D01*
X155446740Y-99477374D01*
X155539762Y-99338156D01*
X155658156Y-99219762D01*
X155797374Y-99126740D01*
X155797376Y-99126739D01*
X155952065Y-99062664D01*
X156116281Y-99030000D01*
X156283719Y-99030000D01*
X156447935Y-99062664D01*
G37*
G36*
X156447935Y-96522664D02*
G01*
X156602624Y-96586739D01*
X156602626Y-96586740D01*
X156741844Y-96679762D01*
X156860238Y-96798156D01*
X156953260Y-96937374D01*
X156953261Y-96937376D01*
X157017336Y-97092065D01*
X157050000Y-97256281D01*
X157050000Y-97423719D01*
X157017336Y-97587935D01*
X156953261Y-97742624D01*
X156953260Y-97742626D01*
X156860238Y-97881844D01*
X156741844Y-98000238D01*
X156602626Y-98093260D01*
X156602625Y-98093261D01*
X156602624Y-98093261D01*
X156447935Y-98157336D01*
X156283719Y-98190000D01*
X156116281Y-98190000D01*
X155952065Y-98157336D01*
X155797376Y-98093261D01*
X155797375Y-98093261D01*
X155797374Y-98093260D01*
X155658156Y-98000238D01*
X155539762Y-97881844D01*
X155446740Y-97742626D01*
X155446739Y-97742624D01*
X155382664Y-97587935D01*
X155350000Y-97423719D01*
X155350000Y-97256281D01*
X155382664Y-97092065D01*
X155446739Y-96937376D01*
X155446740Y-96937374D01*
X155539762Y-96798156D01*
X155658156Y-96679762D01*
X155797374Y-96586740D01*
X155797376Y-96586739D01*
X155952065Y-96522664D01*
X156116281Y-96490000D01*
X156283719Y-96490000D01*
X156447935Y-96522664D01*
G37*
G36*
X157050000Y-95650000D02*
G01*
X155350000Y-95650000D01*
X155350000Y-93950000D01*
X157050000Y-93950000D01*
X157050000Y-95650000D01*
G37*
G36*
X142617935Y-93932664D02*
G01*
X142772624Y-93996739D01*
X142772626Y-93996740D01*
X142911844Y-94089762D01*
X143030238Y-94208156D01*
X143123260Y-94347374D01*
X143123261Y-94347376D01*
X143187336Y-94502065D01*
X143220000Y-94666281D01*
X143220000Y-94833719D01*
X143187336Y-94997935D01*
X143123261Y-95152624D01*
X143123260Y-95152626D01*
X143030238Y-95291844D01*
X142911844Y-95410238D01*
X142772626Y-95503260D01*
X142772625Y-95503261D01*
X142772624Y-95503261D01*
X142617935Y-95567336D01*
X142453719Y-95600000D01*
X142286281Y-95600000D01*
X142122065Y-95567336D01*
X141967376Y-95503261D01*
X141967375Y-95503261D01*
X141967374Y-95503260D01*
X141828156Y-95410238D01*
X141709762Y-95291844D01*
X141616740Y-95152626D01*
X141616739Y-95152624D01*
X141552664Y-94997935D01*
X141520000Y-94833719D01*
X141520000Y-94666281D01*
X141552664Y-94502065D01*
X141616739Y-94347376D01*
X141616740Y-94347374D01*
X141709762Y-94208156D01*
X141828156Y-94089762D01*
X141967374Y-93996740D01*
X141967376Y-93996739D01*
X142122065Y-93932664D01*
X142286281Y-93900000D01*
X142453719Y-93900000D01*
X142617935Y-93932664D01*
G37*
G36*
X135600000Y-95600000D02*
G01*
X133900000Y-95600000D01*
X133900000Y-93900000D01*
X135600000Y-93900000D01*
X135600000Y-95600000D01*
G37*
G36*
X137537935Y-93932664D02*
G01*
X137692624Y-93996739D01*
X137692626Y-93996740D01*
X137831844Y-94089762D01*
X137950238Y-94208156D01*
X138043260Y-94347374D01*
X138043261Y-94347376D01*
X138107336Y-94502065D01*
X138140000Y-94666281D01*
X138140000Y-94833719D01*
X138107336Y-94997935D01*
X138043261Y-95152624D01*
X138043260Y-95152626D01*
X137950238Y-95291844D01*
X137831844Y-95410238D01*
X137692626Y-95503260D01*
X137692625Y-95503261D01*
X137692624Y-95503261D01*
X137537935Y-95567336D01*
X137373719Y-95600000D01*
X137206281Y-95600000D01*
X137042065Y-95567336D01*
X136887376Y-95503261D01*
X136887375Y-95503261D01*
X136887374Y-95503260D01*
X136748156Y-95410238D01*
X136629762Y-95291844D01*
X136536740Y-95152626D01*
X136536739Y-95152624D01*
X136472664Y-94997935D01*
X136440000Y-94833719D01*
X136440000Y-94666281D01*
X136472664Y-94502065D01*
X136536739Y-94347376D01*
X136536740Y-94347374D01*
X136629762Y-94208156D01*
X136748156Y-94089762D01*
X136887374Y-93996740D01*
X136887376Y-93996739D01*
X137042065Y-93932664D01*
X137206281Y-93900000D01*
X137373719Y-93900000D01*
X137537935Y-93932664D01*
G37*
G36*
X140077935Y-93932664D02*
G01*
X140232624Y-93996739D01*
X140232626Y-93996740D01*
X140371844Y-94089762D01*
X140490238Y-94208156D01*
X140583260Y-94347374D01*
X140583261Y-94347376D01*
X140647336Y-94502065D01*
X140680000Y-94666281D01*
X140680000Y-94833719D01*
X140647336Y-94997935D01*
X140583261Y-95152624D01*
X140583260Y-95152626D01*
X140490238Y-95291844D01*
X140371844Y-95410238D01*
X140232626Y-95503260D01*
X140232625Y-95503261D01*
X140232624Y-95503261D01*
X140077935Y-95567336D01*
X139913719Y-95600000D01*
X139746281Y-95600000D01*
X139582065Y-95567336D01*
X139427376Y-95503261D01*
X139427375Y-95503261D01*
X139427374Y-95503260D01*
X139288156Y-95410238D01*
X139169762Y-95291844D01*
X139076740Y-95152626D01*
X139076739Y-95152624D01*
X139012664Y-94997935D01*
X138980000Y-94833719D01*
X138980000Y-94666281D01*
X139012664Y-94502065D01*
X139076739Y-94347376D01*
X139076740Y-94347374D01*
X139169762Y-94208156D01*
X139288156Y-94089762D01*
X139427374Y-93996740D01*
X139427376Y-93996739D01*
X139582065Y-93932664D01*
X139746281Y-93900000D01*
X139913719Y-93900000D01*
X140077935Y-93932664D01*
G37*
G36*
X145157935Y-93932664D02*
G01*
X145312624Y-93996739D01*
X145312626Y-93996740D01*
X145451844Y-94089762D01*
X145570238Y-94208156D01*
X145663260Y-94347374D01*
X145663261Y-94347376D01*
X145727336Y-94502065D01*
X145760000Y-94666281D01*
X145760000Y-94833719D01*
X145727336Y-94997935D01*
X145663261Y-95152624D01*
X145663260Y-95152626D01*
X145570238Y-95291844D01*
X145451844Y-95410238D01*
X145312626Y-95503260D01*
X145312625Y-95503261D01*
X145312624Y-95503261D01*
X145157935Y-95567336D01*
X144993719Y-95600000D01*
X144826281Y-95600000D01*
X144662065Y-95567336D01*
X144507376Y-95503261D01*
X144507375Y-95503261D01*
X144507374Y-95503260D01*
X144368156Y-95410238D01*
X144249762Y-95291844D01*
X144156740Y-95152626D01*
X144156739Y-95152624D01*
X144092664Y-94997935D01*
X144060000Y-94833719D01*
X144060000Y-94666281D01*
X144092664Y-94502065D01*
X144156739Y-94347376D01*
X144156740Y-94347374D01*
X144249762Y-94208156D01*
X144368156Y-94089762D01*
X144507374Y-93996740D01*
X144507376Y-93996739D01*
X144662065Y-93932664D01*
X144826281Y-93900000D01*
X144993719Y-93900000D01*
X145157935Y-93932664D01*
G37*
G36*
X147697935Y-93932664D02*
G01*
X147852624Y-93996739D01*
X147852626Y-93996740D01*
X147991844Y-94089762D01*
X148110238Y-94208156D01*
X148203260Y-94347374D01*
X148203261Y-94347376D01*
X148267336Y-94502065D01*
X148300000Y-94666281D01*
X148300000Y-94833719D01*
X148267336Y-94997935D01*
X148203261Y-95152624D01*
X148203260Y-95152626D01*
X148110238Y-95291844D01*
X147991844Y-95410238D01*
X147852626Y-95503260D01*
X147852625Y-95503261D01*
X147852624Y-95503261D01*
X147697935Y-95567336D01*
X147533719Y-95600000D01*
X147366281Y-95600000D01*
X147202065Y-95567336D01*
X147047376Y-95503261D01*
X147047375Y-95503261D01*
X147047374Y-95503260D01*
X146908156Y-95410238D01*
X146789762Y-95291844D01*
X146696740Y-95152626D01*
X146696739Y-95152624D01*
X146632664Y-94997935D01*
X146600000Y-94833719D01*
X146600000Y-94666281D01*
X146632664Y-94502065D01*
X146696739Y-94347376D01*
X146696740Y-94347374D01*
X146789762Y-94208156D01*
X146908156Y-94089762D01*
X147047374Y-93996740D01*
X147047376Y-93996739D01*
X147202065Y-93932664D01*
X147366281Y-93900000D01*
X147533719Y-93900000D01*
X147697935Y-93932664D01*
G37*
G36*
X150237935Y-93932664D02*
G01*
X150392624Y-93996739D01*
X150392626Y-93996740D01*
X150531844Y-94089762D01*
X150650238Y-94208156D01*
X150743260Y-94347374D01*
X150743261Y-94347376D01*
X150807336Y-94502065D01*
X150840000Y-94666281D01*
X150840000Y-94833719D01*
X150807336Y-94997935D01*
X150743261Y-95152624D01*
X150743260Y-95152626D01*
X150650238Y-95291844D01*
X150531844Y-95410238D01*
X150392626Y-95503260D01*
X150392625Y-95503261D01*
X150392624Y-95503261D01*
X150237935Y-95567336D01*
X150073719Y-95600000D01*
X149906281Y-95600000D01*
X149742065Y-95567336D01*
X149587376Y-95503261D01*
X149587375Y-95503261D01*
X149587374Y-95503260D01*
X149448156Y-95410238D01*
X149329762Y-95291844D01*
X149236740Y-95152626D01*
X149236739Y-95152624D01*
X149172664Y-94997935D01*
X149140000Y-94833719D01*
X149140000Y-94666281D01*
X149172664Y-94502065D01*
X149236739Y-94347376D01*
X149236740Y-94347374D01*
X149329762Y-94208156D01*
X149448156Y-94089762D01*
X149587374Y-93996740D01*
X149587376Y-93996739D01*
X149742065Y-93932664D01*
X149906281Y-93900000D01*
X150073719Y-93900000D01*
X150237935Y-93932664D01*
G37*
G36*
X152777935Y-93932664D02*
G01*
X152932624Y-93996739D01*
X152932626Y-93996740D01*
X153071844Y-94089762D01*
X153190238Y-94208156D01*
X153283260Y-94347374D01*
X153283261Y-94347376D01*
X153347336Y-94502065D01*
X153380000Y-94666281D01*
X153380000Y-94833719D01*
X153347336Y-94997935D01*
X153283261Y-95152624D01*
X153283260Y-95152626D01*
X153190238Y-95291844D01*
X153071844Y-95410238D01*
X152932626Y-95503260D01*
X152932625Y-95503261D01*
X152932624Y-95503261D01*
X152777935Y-95567336D01*
X152613719Y-95600000D01*
X152446281Y-95600000D01*
X152282065Y-95567336D01*
X152127376Y-95503261D01*
X152127375Y-95503261D01*
X152127374Y-95503260D01*
X151988156Y-95410238D01*
X151869762Y-95291844D01*
X151776740Y-95152626D01*
X151776739Y-95152624D01*
X151712664Y-94997935D01*
X151680000Y-94833719D01*
X151680000Y-94666281D01*
X151712664Y-94502065D01*
X151776739Y-94347376D01*
X151776740Y-94347374D01*
X151869762Y-94208156D01*
X151988156Y-94089762D01*
X152127374Y-93996740D01*
X152127376Y-93996739D01*
X152282065Y-93932664D01*
X152446281Y-93900000D01*
X152613719Y-93900000D01*
X152777935Y-93932664D01*
G37*
M02*
