G04 #@! TF.GenerationSoftware,KiCad,Pcbnew,(5.1.6)-1*
G04 #@! TF.CreationDate,2020-08-27T23:19:36-05:00*
G04 #@! TF.ProjectId,PikateaTPM,50696b61-7465-4615-9450-4d2e6b696361,rev?*
G04 #@! TF.SameCoordinates,Original*
G04 #@! TF.FileFunction,Soldermask,Top*
G04 #@! TF.FilePolarity,Negative*
%FSLAX46Y46*%
G04 Gerber Fmt 4.6, Leading zero omitted, Abs format (unit mm)*
G04 Created by KiCad (PCBNEW (5.1.6)-1) date 2020-08-27 23:19:36*
%MOMM*%
%LPD*%
G01*
G04 APERTURE LIST*
%ADD10C,0.100000*%
G04 APERTURE END LIST*
D10*
G36*
X156447935Y-132082664D02*
G01*
X156602624Y-132146739D01*
X156602626Y-132146740D01*
X156741844Y-132239762D01*
X156860238Y-132358156D01*
X156953260Y-132497374D01*
X156953261Y-132497376D01*
X157017336Y-132652065D01*
X157050000Y-132816281D01*
X157050000Y-132983719D01*
X157017336Y-133147935D01*
X156953261Y-133302624D01*
X156953260Y-133302626D01*
X156860238Y-133441844D01*
X156741844Y-133560238D01*
X156602626Y-133653260D01*
X156602625Y-133653261D01*
X156602624Y-133653261D01*
X156447935Y-133717336D01*
X156283719Y-133750000D01*
X156116281Y-133750000D01*
X155952065Y-133717336D01*
X155797376Y-133653261D01*
X155797375Y-133653261D01*
X155797374Y-133653260D01*
X155658156Y-133560238D01*
X155539762Y-133441844D01*
X155446740Y-133302626D01*
X155446739Y-133302624D01*
X155382664Y-133147935D01*
X155350000Y-132983719D01*
X155350000Y-132816281D01*
X155382664Y-132652065D01*
X155446739Y-132497376D01*
X155446740Y-132497374D01*
X155539762Y-132358156D01*
X155658156Y-132239762D01*
X155797374Y-132146740D01*
X155797376Y-132146739D01*
X155952065Y-132082664D01*
X156116281Y-132050000D01*
X156283719Y-132050000D01*
X156447935Y-132082664D01*
G37*
G36*
X156447935Y-129542664D02*
G01*
X156561638Y-129589762D01*
X156602626Y-129606740D01*
X156741844Y-129699762D01*
X156860238Y-129818156D01*
X156953260Y-129957374D01*
X156953261Y-129957376D01*
X157017336Y-130112065D01*
X157050000Y-130276281D01*
X157050000Y-130443719D01*
X157017336Y-130607935D01*
X156998825Y-130652624D01*
X156953260Y-130762626D01*
X156860238Y-130901844D01*
X156741844Y-131020238D01*
X156602626Y-131113260D01*
X156602625Y-131113261D01*
X156602624Y-131113261D01*
X156447935Y-131177336D01*
X156283719Y-131210000D01*
X156116281Y-131210000D01*
X155952065Y-131177336D01*
X155797376Y-131113261D01*
X155797375Y-131113261D01*
X155797374Y-131113260D01*
X155658156Y-131020238D01*
X155539762Y-130901844D01*
X155446740Y-130762626D01*
X155401175Y-130652624D01*
X155382664Y-130607935D01*
X155350000Y-130443719D01*
X155350000Y-130276281D01*
X155382664Y-130112065D01*
X155446739Y-129957376D01*
X155446740Y-129957374D01*
X155539762Y-129818156D01*
X155658156Y-129699762D01*
X155797374Y-129606740D01*
X155838362Y-129589762D01*
X155952065Y-129542664D01*
X156116281Y-129510000D01*
X156283719Y-129510000D01*
X156447935Y-129542664D01*
G37*
G36*
X137537935Y-129432664D02*
G01*
X137692624Y-129496739D01*
X137692626Y-129496740D01*
X137831844Y-129589762D01*
X137950238Y-129708156D01*
X138023737Y-129818156D01*
X138043261Y-129847376D01*
X138107336Y-130002065D01*
X138140000Y-130166281D01*
X138140000Y-130333719D01*
X138107336Y-130497935D01*
X138043261Y-130652624D01*
X138043260Y-130652626D01*
X137950238Y-130791844D01*
X137831844Y-130910238D01*
X137692626Y-131003260D01*
X137692625Y-131003261D01*
X137692624Y-131003261D01*
X137537935Y-131067336D01*
X137373719Y-131100000D01*
X137206281Y-131100000D01*
X137042065Y-131067336D01*
X136887376Y-131003261D01*
X136887375Y-131003261D01*
X136887374Y-131003260D01*
X136748156Y-130910238D01*
X136629762Y-130791844D01*
X136536740Y-130652626D01*
X136536739Y-130652624D01*
X136472664Y-130497935D01*
X136440000Y-130333719D01*
X136440000Y-130166281D01*
X136472664Y-130002065D01*
X136536739Y-129847376D01*
X136556263Y-129818156D01*
X136629762Y-129708156D01*
X136748156Y-129589762D01*
X136887374Y-129496740D01*
X136887376Y-129496739D01*
X137042065Y-129432664D01*
X137206281Y-129400000D01*
X137373719Y-129400000D01*
X137537935Y-129432664D01*
G37*
G36*
X135600000Y-131100000D02*
G01*
X133900000Y-131100000D01*
X133900000Y-129400000D01*
X135600000Y-129400000D01*
X135600000Y-131100000D01*
G37*
G36*
X152777935Y-129432664D02*
G01*
X152932624Y-129496739D01*
X152932626Y-129496740D01*
X153071844Y-129589762D01*
X153190238Y-129708156D01*
X153263737Y-129818156D01*
X153283261Y-129847376D01*
X153347336Y-130002065D01*
X153380000Y-130166281D01*
X153380000Y-130333719D01*
X153347336Y-130497935D01*
X153283261Y-130652624D01*
X153283260Y-130652626D01*
X153190238Y-130791844D01*
X153071844Y-130910238D01*
X152932626Y-131003260D01*
X152932625Y-131003261D01*
X152932624Y-131003261D01*
X152777935Y-131067336D01*
X152613719Y-131100000D01*
X152446281Y-131100000D01*
X152282065Y-131067336D01*
X152127376Y-131003261D01*
X152127375Y-131003261D01*
X152127374Y-131003260D01*
X151988156Y-130910238D01*
X151869762Y-130791844D01*
X151776740Y-130652626D01*
X151776739Y-130652624D01*
X151712664Y-130497935D01*
X151680000Y-130333719D01*
X151680000Y-130166281D01*
X151712664Y-130002065D01*
X151776739Y-129847376D01*
X151796263Y-129818156D01*
X151869762Y-129708156D01*
X151988156Y-129589762D01*
X152127374Y-129496740D01*
X152127376Y-129496739D01*
X152282065Y-129432664D01*
X152446281Y-129400000D01*
X152613719Y-129400000D01*
X152777935Y-129432664D01*
G37*
G36*
X150237935Y-129432664D02*
G01*
X150392624Y-129496739D01*
X150392626Y-129496740D01*
X150531844Y-129589762D01*
X150650238Y-129708156D01*
X150723737Y-129818156D01*
X150743261Y-129847376D01*
X150807336Y-130002065D01*
X150840000Y-130166281D01*
X150840000Y-130333719D01*
X150807336Y-130497935D01*
X150743261Y-130652624D01*
X150743260Y-130652626D01*
X150650238Y-130791844D01*
X150531844Y-130910238D01*
X150392626Y-131003260D01*
X150392625Y-131003261D01*
X150392624Y-131003261D01*
X150237935Y-131067336D01*
X150073719Y-131100000D01*
X149906281Y-131100000D01*
X149742065Y-131067336D01*
X149587376Y-131003261D01*
X149587375Y-131003261D01*
X149587374Y-131003260D01*
X149448156Y-130910238D01*
X149329762Y-130791844D01*
X149236740Y-130652626D01*
X149236739Y-130652624D01*
X149172664Y-130497935D01*
X149140000Y-130333719D01*
X149140000Y-130166281D01*
X149172664Y-130002065D01*
X149236739Y-129847376D01*
X149256263Y-129818156D01*
X149329762Y-129708156D01*
X149448156Y-129589762D01*
X149587374Y-129496740D01*
X149587376Y-129496739D01*
X149742065Y-129432664D01*
X149906281Y-129400000D01*
X150073719Y-129400000D01*
X150237935Y-129432664D01*
G37*
G36*
X147697935Y-129432664D02*
G01*
X147852624Y-129496739D01*
X147852626Y-129496740D01*
X147991844Y-129589762D01*
X148110238Y-129708156D01*
X148183737Y-129818156D01*
X148203261Y-129847376D01*
X148267336Y-130002065D01*
X148300000Y-130166281D01*
X148300000Y-130333719D01*
X148267336Y-130497935D01*
X148203261Y-130652624D01*
X148203260Y-130652626D01*
X148110238Y-130791844D01*
X147991844Y-130910238D01*
X147852626Y-131003260D01*
X147852625Y-131003261D01*
X147852624Y-131003261D01*
X147697935Y-131067336D01*
X147533719Y-131100000D01*
X147366281Y-131100000D01*
X147202065Y-131067336D01*
X147047376Y-131003261D01*
X147047375Y-131003261D01*
X147047374Y-131003260D01*
X146908156Y-130910238D01*
X146789762Y-130791844D01*
X146696740Y-130652626D01*
X146696739Y-130652624D01*
X146632664Y-130497935D01*
X146600000Y-130333719D01*
X146600000Y-130166281D01*
X146632664Y-130002065D01*
X146696739Y-129847376D01*
X146716263Y-129818156D01*
X146789762Y-129708156D01*
X146908156Y-129589762D01*
X147047374Y-129496740D01*
X147047376Y-129496739D01*
X147202065Y-129432664D01*
X147366281Y-129400000D01*
X147533719Y-129400000D01*
X147697935Y-129432664D01*
G37*
G36*
X142617935Y-129432664D02*
G01*
X142772624Y-129496739D01*
X142772626Y-129496740D01*
X142911844Y-129589762D01*
X143030238Y-129708156D01*
X143103737Y-129818156D01*
X143123261Y-129847376D01*
X143187336Y-130002065D01*
X143220000Y-130166281D01*
X143220000Y-130333719D01*
X143187336Y-130497935D01*
X143123261Y-130652624D01*
X143123260Y-130652626D01*
X143030238Y-130791844D01*
X142911844Y-130910238D01*
X142772626Y-131003260D01*
X142772625Y-131003261D01*
X142772624Y-131003261D01*
X142617935Y-131067336D01*
X142453719Y-131100000D01*
X142286281Y-131100000D01*
X142122065Y-131067336D01*
X141967376Y-131003261D01*
X141967375Y-131003261D01*
X141967374Y-131003260D01*
X141828156Y-130910238D01*
X141709762Y-130791844D01*
X141616740Y-130652626D01*
X141616739Y-130652624D01*
X141552664Y-130497935D01*
X141520000Y-130333719D01*
X141520000Y-130166281D01*
X141552664Y-130002065D01*
X141616739Y-129847376D01*
X141636263Y-129818156D01*
X141709762Y-129708156D01*
X141828156Y-129589762D01*
X141967374Y-129496740D01*
X141967376Y-129496739D01*
X142122065Y-129432664D01*
X142286281Y-129400000D01*
X142453719Y-129400000D01*
X142617935Y-129432664D01*
G37*
G36*
X140077935Y-129432664D02*
G01*
X140232624Y-129496739D01*
X140232626Y-129496740D01*
X140371844Y-129589762D01*
X140490238Y-129708156D01*
X140563737Y-129818156D01*
X140583261Y-129847376D01*
X140647336Y-130002065D01*
X140680000Y-130166281D01*
X140680000Y-130333719D01*
X140647336Y-130497935D01*
X140583261Y-130652624D01*
X140583260Y-130652626D01*
X140490238Y-130791844D01*
X140371844Y-130910238D01*
X140232626Y-131003260D01*
X140232625Y-131003261D01*
X140232624Y-131003261D01*
X140077935Y-131067336D01*
X139913719Y-131100000D01*
X139746281Y-131100000D01*
X139582065Y-131067336D01*
X139427376Y-131003261D01*
X139427375Y-131003261D01*
X139427374Y-131003260D01*
X139288156Y-130910238D01*
X139169762Y-130791844D01*
X139076740Y-130652626D01*
X139076739Y-130652624D01*
X139012664Y-130497935D01*
X138980000Y-130333719D01*
X138980000Y-130166281D01*
X139012664Y-130002065D01*
X139076739Y-129847376D01*
X139096263Y-129818156D01*
X139169762Y-129708156D01*
X139288156Y-129589762D01*
X139427374Y-129496740D01*
X139427376Y-129496739D01*
X139582065Y-129432664D01*
X139746281Y-129400000D01*
X139913719Y-129400000D01*
X140077935Y-129432664D01*
G37*
G36*
X145157935Y-129432664D02*
G01*
X145312624Y-129496739D01*
X145312626Y-129496740D01*
X145451844Y-129589762D01*
X145570238Y-129708156D01*
X145643737Y-129818156D01*
X145663261Y-129847376D01*
X145727336Y-130002065D01*
X145760000Y-130166281D01*
X145760000Y-130333719D01*
X145727336Y-130497935D01*
X145663261Y-130652624D01*
X145663260Y-130652626D01*
X145570238Y-130791844D01*
X145451844Y-130910238D01*
X145312626Y-131003260D01*
X145312625Y-131003261D01*
X145312624Y-131003261D01*
X145157935Y-131067336D01*
X144993719Y-131100000D01*
X144826281Y-131100000D01*
X144662065Y-131067336D01*
X144507376Y-131003261D01*
X144507375Y-131003261D01*
X144507374Y-131003260D01*
X144368156Y-130910238D01*
X144249762Y-130791844D01*
X144156740Y-130652626D01*
X144156739Y-130652624D01*
X144092664Y-130497935D01*
X144060000Y-130333719D01*
X144060000Y-130166281D01*
X144092664Y-130002065D01*
X144156739Y-129847376D01*
X144176263Y-129818156D01*
X144249762Y-129708156D01*
X144368156Y-129589762D01*
X144507374Y-129496740D01*
X144507376Y-129496739D01*
X144662065Y-129432664D01*
X144826281Y-129400000D01*
X144993719Y-129400000D01*
X145157935Y-129432664D01*
G37*
G36*
X123113600Y-129363600D02*
G01*
X121386400Y-129363600D01*
X121386400Y-127636400D01*
X123113600Y-127636400D01*
X123113600Y-129363600D01*
G37*
G36*
X125041903Y-127669587D02*
G01*
X125199068Y-127734687D01*
X125340513Y-127829198D01*
X125460802Y-127949487D01*
X125555313Y-128090932D01*
X125620413Y-128248097D01*
X125653600Y-128414943D01*
X125653600Y-128585057D01*
X125620413Y-128751903D01*
X125555313Y-128909068D01*
X125460802Y-129050513D01*
X125340513Y-129170802D01*
X125199068Y-129265313D01*
X125041903Y-129330413D01*
X124875057Y-129363600D01*
X124704943Y-129363600D01*
X124538097Y-129330413D01*
X124380932Y-129265313D01*
X124239487Y-129170802D01*
X124119198Y-129050513D01*
X124024687Y-128909068D01*
X123959587Y-128751903D01*
X123926400Y-128585057D01*
X123926400Y-128414943D01*
X123959587Y-128248097D01*
X124024687Y-128090932D01*
X124119198Y-127949487D01*
X124239487Y-127829198D01*
X124380932Y-127734687D01*
X124538097Y-127669587D01*
X124704943Y-127636400D01*
X124875057Y-127636400D01*
X125041903Y-127669587D01*
G37*
G36*
X127581903Y-127669587D02*
G01*
X127739068Y-127734687D01*
X127880513Y-127829198D01*
X128000802Y-127949487D01*
X128095313Y-128090932D01*
X128160413Y-128248097D01*
X128193600Y-128414943D01*
X128193600Y-128585057D01*
X128160413Y-128751903D01*
X128095313Y-128909068D01*
X128000802Y-129050513D01*
X127880513Y-129170802D01*
X127739068Y-129265313D01*
X127581903Y-129330413D01*
X127415057Y-129363600D01*
X127244943Y-129363600D01*
X127078097Y-129330413D01*
X126920932Y-129265313D01*
X126779487Y-129170802D01*
X126659198Y-129050513D01*
X126564687Y-128909068D01*
X126499587Y-128751903D01*
X126466400Y-128585057D01*
X126466400Y-128414943D01*
X126499587Y-128248097D01*
X126564687Y-128090932D01*
X126659198Y-127949487D01*
X126779487Y-127829198D01*
X126920932Y-127734687D01*
X127078097Y-127669587D01*
X127244943Y-127636400D01*
X127415057Y-127636400D01*
X127581903Y-127669587D01*
G37*
G36*
X156447935Y-127002664D02*
G01*
X156602624Y-127066739D01*
X156602626Y-127066740D01*
X156741844Y-127159762D01*
X156860238Y-127278156D01*
X156953260Y-127417374D01*
X156953261Y-127417376D01*
X157017336Y-127572065D01*
X157050000Y-127736281D01*
X157050000Y-127903719D01*
X157017336Y-128067935D01*
X156953261Y-128222624D01*
X156953260Y-128222626D01*
X156860238Y-128361844D01*
X156741844Y-128480238D01*
X156602626Y-128573260D01*
X156602625Y-128573261D01*
X156602624Y-128573261D01*
X156447935Y-128637336D01*
X156283719Y-128670000D01*
X156116281Y-128670000D01*
X155952065Y-128637336D01*
X155797376Y-128573261D01*
X155797375Y-128573261D01*
X155797374Y-128573260D01*
X155658156Y-128480238D01*
X155539762Y-128361844D01*
X155446740Y-128222626D01*
X155446739Y-128222624D01*
X155382664Y-128067935D01*
X155350000Y-127903719D01*
X155350000Y-127736281D01*
X155382664Y-127572065D01*
X155446739Y-127417376D01*
X155446740Y-127417374D01*
X155539762Y-127278156D01*
X155658156Y-127159762D01*
X155797374Y-127066740D01*
X155797376Y-127066739D01*
X155952065Y-127002664D01*
X156116281Y-126970000D01*
X156283719Y-126970000D01*
X156447935Y-127002664D01*
G37*
G36*
X122501903Y-125129587D02*
G01*
X122659068Y-125194687D01*
X122800513Y-125289198D01*
X122920802Y-125409487D01*
X123015313Y-125550932D01*
X123080413Y-125708097D01*
X123113600Y-125874943D01*
X123113600Y-126045057D01*
X123080413Y-126211903D01*
X123015313Y-126369068D01*
X122920802Y-126510513D01*
X122800513Y-126630802D01*
X122659068Y-126725313D01*
X122501903Y-126790413D01*
X122335057Y-126823600D01*
X122164943Y-126823600D01*
X121998097Y-126790413D01*
X121840932Y-126725313D01*
X121699487Y-126630802D01*
X121579198Y-126510513D01*
X121484687Y-126369068D01*
X121419587Y-126211903D01*
X121386400Y-126045057D01*
X121386400Y-125874943D01*
X121419587Y-125708097D01*
X121484687Y-125550932D01*
X121579198Y-125409487D01*
X121699487Y-125289198D01*
X121840932Y-125194687D01*
X121998097Y-125129587D01*
X122164943Y-125096400D01*
X122335057Y-125096400D01*
X122501903Y-125129587D01*
G37*
G36*
X125041903Y-125129587D02*
G01*
X125199068Y-125194687D01*
X125340513Y-125289198D01*
X125460802Y-125409487D01*
X125555313Y-125550932D01*
X125620413Y-125708097D01*
X125653600Y-125874943D01*
X125653600Y-126045057D01*
X125620413Y-126211903D01*
X125555313Y-126369068D01*
X125460802Y-126510513D01*
X125340513Y-126630802D01*
X125199068Y-126725313D01*
X125041903Y-126790413D01*
X124875057Y-126823600D01*
X124704943Y-126823600D01*
X124538097Y-126790413D01*
X124380932Y-126725313D01*
X124239487Y-126630802D01*
X124119198Y-126510513D01*
X124024687Y-126369068D01*
X123959587Y-126211903D01*
X123926400Y-126045057D01*
X123926400Y-125874943D01*
X123959587Y-125708097D01*
X124024687Y-125550932D01*
X124119198Y-125409487D01*
X124239487Y-125289198D01*
X124380932Y-125194687D01*
X124538097Y-125129587D01*
X124704943Y-125096400D01*
X124875057Y-125096400D01*
X125041903Y-125129587D01*
G37*
G36*
X127581903Y-125129587D02*
G01*
X127739068Y-125194687D01*
X127880513Y-125289198D01*
X128000802Y-125409487D01*
X128095313Y-125550932D01*
X128160413Y-125708097D01*
X128193600Y-125874943D01*
X128193600Y-126045057D01*
X128160413Y-126211903D01*
X128095313Y-126369068D01*
X128000802Y-126510513D01*
X127880513Y-126630802D01*
X127739068Y-126725313D01*
X127581903Y-126790413D01*
X127415057Y-126823600D01*
X127244943Y-126823600D01*
X127078097Y-126790413D01*
X126920932Y-126725313D01*
X126779487Y-126630802D01*
X126659198Y-126510513D01*
X126564687Y-126369068D01*
X126499587Y-126211903D01*
X126466400Y-126045057D01*
X126466400Y-125874943D01*
X126499587Y-125708097D01*
X126564687Y-125550932D01*
X126659198Y-125409487D01*
X126779487Y-125289198D01*
X126920932Y-125194687D01*
X127078097Y-125129587D01*
X127244943Y-125096400D01*
X127415057Y-125096400D01*
X127581903Y-125129587D01*
G37*
G36*
X156447935Y-124462664D02*
G01*
X156602624Y-124526739D01*
X156602626Y-124526740D01*
X156741844Y-124619762D01*
X156860238Y-124738156D01*
X156953260Y-124877374D01*
X156953261Y-124877376D01*
X157017336Y-125032065D01*
X157050000Y-125196281D01*
X157050000Y-125363719D01*
X157017336Y-125527935D01*
X156953261Y-125682624D01*
X156953260Y-125682626D01*
X156860238Y-125821844D01*
X156741844Y-125940238D01*
X156602626Y-126033260D01*
X156602625Y-126033261D01*
X156602624Y-126033261D01*
X156447935Y-126097336D01*
X156283719Y-126130000D01*
X156116281Y-126130000D01*
X155952065Y-126097336D01*
X155797376Y-126033261D01*
X155797375Y-126033261D01*
X155797374Y-126033260D01*
X155658156Y-125940238D01*
X155539762Y-125821844D01*
X155446740Y-125682626D01*
X155446739Y-125682624D01*
X155382664Y-125527935D01*
X155350000Y-125363719D01*
X155350000Y-125196281D01*
X155382664Y-125032065D01*
X155446739Y-124877376D01*
X155446740Y-124877374D01*
X155539762Y-124738156D01*
X155658156Y-124619762D01*
X155797374Y-124526740D01*
X155797376Y-124526739D01*
X155952065Y-124462664D01*
X156116281Y-124430000D01*
X156283719Y-124430000D01*
X156447935Y-124462664D01*
G37*
G36*
X137674649Y-125073139D02*
G01*
X137708537Y-125083419D01*
X137739770Y-125100114D01*
X137767144Y-125122578D01*
X137789608Y-125149952D01*
X137806303Y-125181185D01*
X137816583Y-125215073D01*
X137820658Y-125256452D01*
X137820658Y-125856676D01*
X137816583Y-125898055D01*
X137806303Y-125931943D01*
X137789608Y-125963176D01*
X137767144Y-125990550D01*
X137739770Y-126013014D01*
X137708537Y-126029709D01*
X137674649Y-126039989D01*
X137633270Y-126044064D01*
X136608046Y-126044064D01*
X136566667Y-126039989D01*
X136532779Y-126029709D01*
X136501546Y-126013014D01*
X136474172Y-125990550D01*
X136451708Y-125963176D01*
X136435013Y-125931943D01*
X136424733Y-125898055D01*
X136420658Y-125856676D01*
X136420658Y-125256452D01*
X136424733Y-125215073D01*
X136435013Y-125181185D01*
X136451708Y-125149952D01*
X136474172Y-125122578D01*
X136501546Y-125100114D01*
X136532779Y-125083419D01*
X136566667Y-125073139D01*
X136608046Y-125069064D01*
X137633270Y-125069064D01*
X137674649Y-125073139D01*
G37*
G36*
X144421541Y-125073139D02*
G01*
X144455429Y-125083419D01*
X144486662Y-125100114D01*
X144514036Y-125122578D01*
X144536500Y-125149952D01*
X144553195Y-125181185D01*
X144563475Y-125215073D01*
X144567550Y-125256452D01*
X144567550Y-125856676D01*
X144563475Y-125898055D01*
X144553195Y-125931943D01*
X144536500Y-125963176D01*
X144514036Y-125990550D01*
X144486662Y-126013014D01*
X144455429Y-126029709D01*
X144421541Y-126039989D01*
X144380162Y-126044064D01*
X143354938Y-126044064D01*
X143313559Y-126039989D01*
X143279671Y-126029709D01*
X143248438Y-126013014D01*
X143221064Y-125990550D01*
X143198600Y-125963176D01*
X143181905Y-125931943D01*
X143171625Y-125898055D01*
X143167550Y-125856676D01*
X143167550Y-125256452D01*
X143171625Y-125215073D01*
X143181905Y-125181185D01*
X143198600Y-125149952D01*
X143221064Y-125122578D01*
X143248438Y-125100114D01*
X143279671Y-125083419D01*
X143313559Y-125073139D01*
X143354938Y-125069064D01*
X144380162Y-125069064D01*
X144421541Y-125073139D01*
G37*
G36*
X140093868Y-125225104D02*
G01*
X138693868Y-125225104D01*
X138693868Y-124025104D01*
X140093868Y-124025104D01*
X140093868Y-125225104D01*
G37*
G36*
X142293868Y-125225104D02*
G01*
X140893868Y-125225104D01*
X140893868Y-124025104D01*
X142293868Y-124025104D01*
X142293868Y-125225104D01*
G37*
G36*
X137674649Y-123198139D02*
G01*
X137708537Y-123208419D01*
X137739770Y-123225114D01*
X137767144Y-123247578D01*
X137789608Y-123274952D01*
X137806303Y-123306185D01*
X137816583Y-123340073D01*
X137820658Y-123381452D01*
X137820658Y-123981676D01*
X137816583Y-124023055D01*
X137806303Y-124056943D01*
X137789608Y-124088176D01*
X137767144Y-124115550D01*
X137739770Y-124138014D01*
X137708537Y-124154709D01*
X137674649Y-124164989D01*
X137633270Y-124169064D01*
X136608046Y-124169064D01*
X136566667Y-124164989D01*
X136532779Y-124154709D01*
X136501546Y-124138014D01*
X136474172Y-124115550D01*
X136451708Y-124088176D01*
X136435013Y-124056943D01*
X136424733Y-124023055D01*
X136420658Y-123981676D01*
X136420658Y-123381452D01*
X136424733Y-123340073D01*
X136435013Y-123306185D01*
X136451708Y-123274952D01*
X136474172Y-123247578D01*
X136501546Y-123225114D01*
X136532779Y-123208419D01*
X136566667Y-123198139D01*
X136608046Y-123194064D01*
X137633270Y-123194064D01*
X137674649Y-123198139D01*
G37*
G36*
X144421541Y-123198139D02*
G01*
X144455429Y-123208419D01*
X144486662Y-123225114D01*
X144514036Y-123247578D01*
X144536500Y-123274952D01*
X144553195Y-123306185D01*
X144563475Y-123340073D01*
X144567550Y-123381452D01*
X144567550Y-123981676D01*
X144563475Y-124023055D01*
X144553195Y-124056943D01*
X144536500Y-124088176D01*
X144514036Y-124115550D01*
X144486662Y-124138014D01*
X144455429Y-124154709D01*
X144421541Y-124164989D01*
X144380162Y-124169064D01*
X143354938Y-124169064D01*
X143313559Y-124164989D01*
X143279671Y-124154709D01*
X143248438Y-124138014D01*
X143221064Y-124115550D01*
X143198600Y-124088176D01*
X143181905Y-124056943D01*
X143171625Y-124023055D01*
X143167550Y-123981676D01*
X143167550Y-123381452D01*
X143171625Y-123340073D01*
X143181905Y-123306185D01*
X143198600Y-123274952D01*
X143221064Y-123247578D01*
X143248438Y-123225114D01*
X143279671Y-123208419D01*
X143313559Y-123198139D01*
X143354938Y-123194064D01*
X144380162Y-123194064D01*
X144421541Y-123198139D01*
G37*
G36*
X140093868Y-123625104D02*
G01*
X138693868Y-123625104D01*
X138693868Y-122425104D01*
X140093868Y-122425104D01*
X140093868Y-123625104D01*
G37*
G36*
X142293868Y-123625104D02*
G01*
X140893868Y-123625104D01*
X140893868Y-122425104D01*
X142293868Y-122425104D01*
X142293868Y-123625104D01*
G37*
G36*
X156447935Y-121922664D02*
G01*
X156550733Y-121965245D01*
X156602626Y-121986740D01*
X156741844Y-122079762D01*
X156860238Y-122198156D01*
X156953260Y-122337374D01*
X156953261Y-122337376D01*
X157017336Y-122492065D01*
X157050000Y-122656281D01*
X157050000Y-122823719D01*
X157017336Y-122987935D01*
X156953261Y-123142624D01*
X156953260Y-123142626D01*
X156860238Y-123281844D01*
X156741844Y-123400238D01*
X156602626Y-123493260D01*
X156602625Y-123493261D01*
X156602624Y-123493261D01*
X156447935Y-123557336D01*
X156283719Y-123590000D01*
X156116281Y-123590000D01*
X155952065Y-123557336D01*
X155797376Y-123493261D01*
X155797375Y-123493261D01*
X155797374Y-123493260D01*
X155658156Y-123400238D01*
X155539762Y-123281844D01*
X155446740Y-123142626D01*
X155446739Y-123142624D01*
X155382664Y-122987935D01*
X155350000Y-122823719D01*
X155350000Y-122656281D01*
X155382664Y-122492065D01*
X155446739Y-122337376D01*
X155446740Y-122337374D01*
X155539762Y-122198156D01*
X155658156Y-122079762D01*
X155797374Y-121986740D01*
X155849267Y-121965245D01*
X155952065Y-121922664D01*
X156116281Y-121890000D01*
X156283719Y-121890000D01*
X156447935Y-121922664D01*
G37*
G36*
X135690042Y-121897927D02*
G01*
X135723930Y-121908207D01*
X135755163Y-121924902D01*
X135782537Y-121947366D01*
X135805001Y-121974740D01*
X135821696Y-122005973D01*
X135831976Y-122039861D01*
X135836051Y-122081240D01*
X135836051Y-122681464D01*
X135831976Y-122722843D01*
X135821696Y-122756731D01*
X135805001Y-122787964D01*
X135782537Y-122815338D01*
X135755163Y-122837802D01*
X135723930Y-122854497D01*
X135690042Y-122864777D01*
X135648663Y-122868852D01*
X134623439Y-122868852D01*
X134582060Y-122864777D01*
X134548172Y-122854497D01*
X134516939Y-122837802D01*
X134489565Y-122815338D01*
X134467101Y-122787964D01*
X134450406Y-122756731D01*
X134440126Y-122722843D01*
X134436051Y-122681464D01*
X134436051Y-122081240D01*
X134440126Y-122039861D01*
X134450406Y-122005973D01*
X134467101Y-121974740D01*
X134489565Y-121947366D01*
X134516939Y-121924902D01*
X134548172Y-121908207D01*
X134582060Y-121897927D01*
X134623439Y-121893852D01*
X135648663Y-121893852D01*
X135690042Y-121897927D01*
G37*
G36*
X133309013Y-121302817D02*
G01*
X133342901Y-121313097D01*
X133374134Y-121329792D01*
X133401508Y-121352256D01*
X133423972Y-121379630D01*
X133440667Y-121410863D01*
X133450947Y-121444751D01*
X133455022Y-121486130D01*
X133455022Y-122086354D01*
X133450947Y-122127733D01*
X133440667Y-122161621D01*
X133423972Y-122192854D01*
X133401508Y-122220228D01*
X133374134Y-122242692D01*
X133342901Y-122259387D01*
X133309013Y-122269667D01*
X133267634Y-122273742D01*
X132242410Y-122273742D01*
X132201031Y-122269667D01*
X132167143Y-122259387D01*
X132135910Y-122242692D01*
X132108536Y-122220228D01*
X132086072Y-122192854D01*
X132069377Y-122161621D01*
X132059097Y-122127733D01*
X132055022Y-122086354D01*
X132055022Y-121486130D01*
X132059097Y-121444751D01*
X132069377Y-121410863D01*
X132086072Y-121379630D01*
X132108536Y-121352256D01*
X132135910Y-121329792D01*
X132167143Y-121313097D01*
X132201031Y-121302817D01*
X132242410Y-121298742D01*
X133267634Y-121298742D01*
X133309013Y-121302817D01*
G37*
G36*
X156447935Y-119382664D02*
G01*
X156602624Y-119446739D01*
X156602626Y-119446740D01*
X156741844Y-119539762D01*
X156860238Y-119658156D01*
X156953260Y-119797374D01*
X156953261Y-119797376D01*
X157017336Y-119952065D01*
X157050000Y-120116281D01*
X157050000Y-120283719D01*
X157017336Y-120447935D01*
X156953261Y-120602624D01*
X156953260Y-120602626D01*
X156860238Y-120741844D01*
X156741844Y-120860238D01*
X156602626Y-120953260D01*
X156602625Y-120953261D01*
X156602624Y-120953261D01*
X156447935Y-121017336D01*
X156283719Y-121050000D01*
X156116281Y-121050000D01*
X155952065Y-121017336D01*
X155797376Y-120953261D01*
X155797375Y-120953261D01*
X155797374Y-120953260D01*
X155658156Y-120860238D01*
X155539762Y-120741844D01*
X155446740Y-120602626D01*
X155446739Y-120602624D01*
X155382664Y-120447935D01*
X155350000Y-120283719D01*
X155350000Y-120116281D01*
X155382664Y-119952065D01*
X155446739Y-119797376D01*
X155446740Y-119797374D01*
X155539762Y-119658156D01*
X155658156Y-119539762D01*
X155797374Y-119446740D01*
X155797376Y-119446739D01*
X155952065Y-119382664D01*
X156116281Y-119350000D01*
X156283719Y-119350000D01*
X156447935Y-119382664D01*
G37*
G36*
X135690042Y-120022927D02*
G01*
X135723930Y-120033207D01*
X135755163Y-120049902D01*
X135782537Y-120072366D01*
X135805001Y-120099740D01*
X135821696Y-120130973D01*
X135831976Y-120164861D01*
X135836051Y-120206240D01*
X135836051Y-120806464D01*
X135831976Y-120847843D01*
X135821696Y-120881731D01*
X135805001Y-120912964D01*
X135782537Y-120940338D01*
X135755163Y-120962802D01*
X135723930Y-120979497D01*
X135690042Y-120989777D01*
X135648663Y-120993852D01*
X134623439Y-120993852D01*
X134582060Y-120989777D01*
X134548172Y-120979497D01*
X134516939Y-120962802D01*
X134489565Y-120940338D01*
X134467101Y-120912964D01*
X134450406Y-120881731D01*
X134440126Y-120847843D01*
X134436051Y-120806464D01*
X134436051Y-120206240D01*
X134440126Y-120164861D01*
X134450406Y-120130973D01*
X134467101Y-120099740D01*
X134489565Y-120072366D01*
X134516939Y-120049902D01*
X134548172Y-120033207D01*
X134582060Y-120022927D01*
X134623439Y-120018852D01*
X135648663Y-120018852D01*
X135690042Y-120022927D01*
G37*
G36*
X133309013Y-119427817D02*
G01*
X133342901Y-119438097D01*
X133374134Y-119454792D01*
X133401508Y-119477256D01*
X133423972Y-119504630D01*
X133440667Y-119535863D01*
X133450947Y-119569751D01*
X133455022Y-119611130D01*
X133455022Y-120211354D01*
X133450947Y-120252733D01*
X133440667Y-120286621D01*
X133423972Y-120317854D01*
X133401508Y-120345228D01*
X133374134Y-120367692D01*
X133342901Y-120384387D01*
X133309013Y-120394667D01*
X133267634Y-120398742D01*
X132242410Y-120398742D01*
X132201031Y-120394667D01*
X132167143Y-120384387D01*
X132135910Y-120367692D01*
X132108536Y-120345228D01*
X132086072Y-120317854D01*
X132069377Y-120286621D01*
X132059097Y-120252733D01*
X132055022Y-120211354D01*
X132055022Y-119611130D01*
X132059097Y-119569751D01*
X132069377Y-119535863D01*
X132086072Y-119504630D01*
X132108536Y-119477256D01*
X132135910Y-119454792D01*
X132167143Y-119438097D01*
X132201031Y-119427817D01*
X132242410Y-119423742D01*
X133267634Y-119423742D01*
X133309013Y-119427817D01*
G37*
G36*
X144768868Y-118964157D02*
G01*
X144218868Y-118964157D01*
X144218868Y-117464157D01*
X144768868Y-117464157D01*
X144768868Y-118964157D01*
G37*
G36*
X143968868Y-118964157D02*
G01*
X143418868Y-118964157D01*
X143418868Y-117464157D01*
X143968868Y-117464157D01*
X143968868Y-118964157D01*
G37*
G36*
X143168868Y-118964157D02*
G01*
X142618868Y-118964157D01*
X142618868Y-117464157D01*
X143168868Y-117464157D01*
X143168868Y-118964157D01*
G37*
G36*
X142368868Y-118964157D02*
G01*
X141818868Y-118964157D01*
X141818868Y-117464157D01*
X142368868Y-117464157D01*
X142368868Y-118964157D01*
G37*
G36*
X141568868Y-118964157D02*
G01*
X141018868Y-118964157D01*
X141018868Y-117464157D01*
X141568868Y-117464157D01*
X141568868Y-118964157D01*
G37*
G36*
X140768868Y-118964157D02*
G01*
X140218868Y-118964157D01*
X140218868Y-117464157D01*
X140768868Y-117464157D01*
X140768868Y-118964157D01*
G37*
G36*
X139968868Y-118964157D02*
G01*
X139418868Y-118964157D01*
X139418868Y-117464157D01*
X139968868Y-117464157D01*
X139968868Y-118964157D01*
G37*
G36*
X139168868Y-118964157D02*
G01*
X138618868Y-118964157D01*
X138618868Y-117464157D01*
X139168868Y-117464157D01*
X139168868Y-118964157D01*
G37*
G36*
X136768868Y-118964157D02*
G01*
X136218868Y-118964157D01*
X136218868Y-117464157D01*
X136768868Y-117464157D01*
X136768868Y-118964157D01*
G37*
G36*
X138368868Y-118964157D02*
G01*
X137818868Y-118964157D01*
X137818868Y-117464157D01*
X138368868Y-117464157D01*
X138368868Y-118964157D01*
G37*
G36*
X137568868Y-118964157D02*
G01*
X137018868Y-118964157D01*
X137018868Y-117464157D01*
X137568868Y-117464157D01*
X137568868Y-118964157D01*
G37*
G36*
X156447935Y-116842664D02*
G01*
X156602624Y-116906739D01*
X156602626Y-116906740D01*
X156741844Y-116999762D01*
X156860238Y-117118156D01*
X156953260Y-117257374D01*
X156953261Y-117257376D01*
X157017336Y-117412065D01*
X157050000Y-117576281D01*
X157050000Y-117743719D01*
X157017336Y-117907935D01*
X156953261Y-118062624D01*
X156953260Y-118062626D01*
X156860238Y-118201844D01*
X156741844Y-118320238D01*
X156602626Y-118413260D01*
X156602625Y-118413261D01*
X156602624Y-118413261D01*
X156447935Y-118477336D01*
X156283719Y-118510000D01*
X156116281Y-118510000D01*
X155952065Y-118477336D01*
X155797376Y-118413261D01*
X155797375Y-118413261D01*
X155797374Y-118413260D01*
X155658156Y-118320238D01*
X155539762Y-118201844D01*
X155446740Y-118062626D01*
X155446739Y-118062624D01*
X155382664Y-117907935D01*
X155350000Y-117743719D01*
X155350000Y-117576281D01*
X155382664Y-117412065D01*
X155446739Y-117257376D01*
X155446740Y-117257374D01*
X155539762Y-117118156D01*
X155658156Y-116999762D01*
X155797374Y-116906740D01*
X155797376Y-116906739D01*
X155952065Y-116842664D01*
X156116281Y-116810000D01*
X156283719Y-116810000D01*
X156447935Y-116842664D01*
G37*
G36*
X118282099Y-115808682D02*
G01*
X118395199Y-115842990D01*
X118499433Y-115898704D01*
X118590795Y-115973683D01*
X118665774Y-116065045D01*
X118721488Y-116169279D01*
X118755796Y-116282379D01*
X118767381Y-116400000D01*
X118755796Y-116517621D01*
X118721488Y-116630721D01*
X118665774Y-116734955D01*
X118590795Y-116826317D01*
X118499433Y-116901296D01*
X118395199Y-116957010D01*
X118282099Y-116991318D01*
X118193952Y-117000000D01*
X117435004Y-117000000D01*
X117346857Y-116991318D01*
X117233757Y-116957010D01*
X117129523Y-116901296D01*
X117038161Y-116826317D01*
X116963182Y-116734955D01*
X116907468Y-116630721D01*
X116873160Y-116517621D01*
X116861575Y-116400000D01*
X116873160Y-116282379D01*
X116907468Y-116169279D01*
X116963182Y-116065045D01*
X117038161Y-115973683D01*
X117129523Y-115898704D01*
X117233757Y-115842990D01*
X117346857Y-115808682D01*
X117435004Y-115800000D01*
X118193952Y-115800000D01*
X118282099Y-115808682D01*
G37*
G36*
X123102099Y-115808682D02*
G01*
X123215199Y-115842990D01*
X123319433Y-115898704D01*
X123410795Y-115973683D01*
X123485774Y-116065045D01*
X123541488Y-116169279D01*
X123575796Y-116282379D01*
X123587381Y-116400000D01*
X123575796Y-116517621D01*
X123541488Y-116630721D01*
X123485774Y-116734955D01*
X123410795Y-116826317D01*
X123319433Y-116901296D01*
X123215199Y-116957010D01*
X123102099Y-116991318D01*
X123013952Y-117000000D01*
X122255004Y-117000000D01*
X122166857Y-116991318D01*
X122053757Y-116957010D01*
X121949523Y-116901296D01*
X121858161Y-116826317D01*
X121783182Y-116734955D01*
X121727468Y-116630721D01*
X121693160Y-116517621D01*
X121681575Y-116400000D01*
X121693160Y-116282379D01*
X121727468Y-116169279D01*
X121783182Y-116065045D01*
X121858161Y-115973683D01*
X121949523Y-115898704D01*
X122053757Y-115842990D01*
X122166857Y-115808682D01*
X122255004Y-115800000D01*
X123013952Y-115800000D01*
X123102099Y-115808682D01*
G37*
G36*
X135543868Y-116789157D02*
G01*
X134043868Y-116789157D01*
X134043868Y-116239157D01*
X135543868Y-116239157D01*
X135543868Y-116789157D01*
G37*
G36*
X146943868Y-116789157D02*
G01*
X145443868Y-116789157D01*
X145443868Y-116239157D01*
X146943868Y-116239157D01*
X146943868Y-116789157D01*
G37*
G36*
X128135563Y-115191867D02*
G01*
X128169451Y-115202147D01*
X128200684Y-115218842D01*
X128228058Y-115241306D01*
X128250522Y-115268680D01*
X128267217Y-115299913D01*
X128277497Y-115333801D01*
X128281572Y-115375180D01*
X128281572Y-116400404D01*
X128277497Y-116441783D01*
X128267217Y-116475671D01*
X128250522Y-116506904D01*
X128228058Y-116534278D01*
X128200684Y-116556742D01*
X128169451Y-116573437D01*
X128135563Y-116583717D01*
X128094184Y-116587792D01*
X127493960Y-116587792D01*
X127452581Y-116583717D01*
X127418693Y-116573437D01*
X127387460Y-116556742D01*
X127360086Y-116534278D01*
X127337622Y-116506904D01*
X127320927Y-116475671D01*
X127310647Y-116441783D01*
X127306572Y-116400404D01*
X127306572Y-115375180D01*
X127310647Y-115333801D01*
X127320927Y-115299913D01*
X127337622Y-115268680D01*
X127360086Y-115241306D01*
X127387460Y-115218842D01*
X127418693Y-115202147D01*
X127452581Y-115191867D01*
X127493960Y-115187792D01*
X128094184Y-115187792D01*
X128135563Y-115191867D01*
G37*
G36*
X126260563Y-115191867D02*
G01*
X126294451Y-115202147D01*
X126325684Y-115218842D01*
X126353058Y-115241306D01*
X126375522Y-115268680D01*
X126392217Y-115299913D01*
X126402497Y-115333801D01*
X126406572Y-115375180D01*
X126406572Y-116400404D01*
X126402497Y-116441783D01*
X126392217Y-116475671D01*
X126375522Y-116506904D01*
X126353058Y-116534278D01*
X126325684Y-116556742D01*
X126294451Y-116573437D01*
X126260563Y-116583717D01*
X126219184Y-116587792D01*
X125618960Y-116587792D01*
X125577581Y-116583717D01*
X125543693Y-116573437D01*
X125512460Y-116556742D01*
X125485086Y-116534278D01*
X125462622Y-116506904D01*
X125445927Y-116475671D01*
X125435647Y-116441783D01*
X125431572Y-116400404D01*
X125431572Y-115375180D01*
X125435647Y-115333801D01*
X125445927Y-115299913D01*
X125462622Y-115268680D01*
X125485086Y-115241306D01*
X125512460Y-115218842D01*
X125543693Y-115202147D01*
X125577581Y-115191867D01*
X125618960Y-115187792D01*
X126219184Y-115187792D01*
X126260563Y-115191867D01*
G37*
G36*
X149779367Y-115548115D02*
G01*
X149813255Y-115558395D01*
X149844488Y-115575090D01*
X149871862Y-115597554D01*
X149894326Y-115624928D01*
X149911021Y-115656161D01*
X149921301Y-115690049D01*
X149925376Y-115731428D01*
X149925376Y-116331652D01*
X149921301Y-116373031D01*
X149911021Y-116406919D01*
X149894326Y-116438152D01*
X149871862Y-116465526D01*
X149844488Y-116487990D01*
X149813255Y-116504685D01*
X149779367Y-116514965D01*
X149737988Y-116519040D01*
X148712764Y-116519040D01*
X148671385Y-116514965D01*
X148637497Y-116504685D01*
X148606264Y-116487990D01*
X148578890Y-116465526D01*
X148556426Y-116438152D01*
X148539731Y-116406919D01*
X148529451Y-116373031D01*
X148525376Y-116331652D01*
X148525376Y-115731428D01*
X148529451Y-115690049D01*
X148539731Y-115656161D01*
X148556426Y-115624928D01*
X148578890Y-115597554D01*
X148606264Y-115575090D01*
X148637497Y-115558395D01*
X148671385Y-115548115D01*
X148712764Y-115544040D01*
X149737988Y-115544040D01*
X149779367Y-115548115D01*
G37*
G36*
X130530881Y-115151239D02*
G01*
X130564769Y-115161519D01*
X130596002Y-115178214D01*
X130623376Y-115200678D01*
X130645840Y-115228052D01*
X130662535Y-115259285D01*
X130672815Y-115293173D01*
X130676890Y-115334552D01*
X130676890Y-115934776D01*
X130672815Y-115976155D01*
X130662535Y-116010043D01*
X130645840Y-116041276D01*
X130623376Y-116068650D01*
X130596002Y-116091114D01*
X130564769Y-116107809D01*
X130530881Y-116118089D01*
X130489502Y-116122164D01*
X129464278Y-116122164D01*
X129422899Y-116118089D01*
X129389011Y-116107809D01*
X129357778Y-116091114D01*
X129330404Y-116068650D01*
X129307940Y-116041276D01*
X129291245Y-116010043D01*
X129280965Y-115976155D01*
X129276890Y-115934776D01*
X129276890Y-115334552D01*
X129280965Y-115293173D01*
X129291245Y-115259285D01*
X129307940Y-115228052D01*
X129330404Y-115200678D01*
X129357778Y-115178214D01*
X129389011Y-115161519D01*
X129422899Y-115151239D01*
X129464278Y-115147164D01*
X130489502Y-115147164D01*
X130530881Y-115151239D01*
G37*
G36*
X146943868Y-115989157D02*
G01*
X145443868Y-115989157D01*
X145443868Y-115439157D01*
X146943868Y-115439157D01*
X146943868Y-115989157D01*
G37*
G36*
X135543868Y-115989157D02*
G01*
X134043868Y-115989157D01*
X134043868Y-115439157D01*
X135543868Y-115439157D01*
X135543868Y-115989157D01*
G37*
G36*
X156447935Y-114302664D02*
G01*
X156602624Y-114366739D01*
X156602626Y-114366740D01*
X156741844Y-114459762D01*
X156860238Y-114578156D01*
X156953260Y-114717374D01*
X156953261Y-114717376D01*
X157017336Y-114872065D01*
X157050000Y-115036281D01*
X157050000Y-115203719D01*
X157017336Y-115367935D01*
X156953261Y-115522624D01*
X156953260Y-115522626D01*
X156860238Y-115661844D01*
X156741844Y-115780238D01*
X156602626Y-115873260D01*
X156602625Y-115873261D01*
X156602624Y-115873261D01*
X156447935Y-115937336D01*
X156283719Y-115970000D01*
X156116281Y-115970000D01*
X155952065Y-115937336D01*
X155797376Y-115873261D01*
X155797375Y-115873261D01*
X155797374Y-115873260D01*
X155658156Y-115780238D01*
X155539762Y-115661844D01*
X155446740Y-115522626D01*
X155446739Y-115522624D01*
X155382664Y-115367935D01*
X155350000Y-115203719D01*
X155350000Y-115036281D01*
X155382664Y-114872065D01*
X155446739Y-114717376D01*
X155446740Y-114717374D01*
X155539762Y-114578156D01*
X155658156Y-114459762D01*
X155797374Y-114366740D01*
X155797376Y-114366739D01*
X155952065Y-114302664D01*
X156116281Y-114270000D01*
X156283719Y-114270000D01*
X156447935Y-114302664D01*
G37*
G36*
X146943868Y-115189157D02*
G01*
X145443868Y-115189157D01*
X145443868Y-114639157D01*
X146943868Y-114639157D01*
X146943868Y-115189157D01*
G37*
G36*
X135543868Y-115189157D02*
G01*
X134043868Y-115189157D01*
X134043868Y-114639157D01*
X135543868Y-114639157D01*
X135543868Y-115189157D01*
G37*
G36*
X123359487Y-113814091D02*
G01*
X123394907Y-113821136D01*
X123438413Y-113839157D01*
X123495002Y-113862597D01*
X123585080Y-113922785D01*
X123661693Y-113999398D01*
X123721881Y-114089476D01*
X123740755Y-114135043D01*
X123757626Y-114175771D01*
X123763342Y-114189572D01*
X123784478Y-114295828D01*
X123784478Y-114404172D01*
X123763342Y-114510428D01*
X123721881Y-114610524D01*
X123661693Y-114700602D01*
X123585080Y-114777215D01*
X123495002Y-114837403D01*
X123444954Y-114858133D01*
X123394907Y-114878864D01*
X123359487Y-114885909D01*
X123288650Y-114900000D01*
X123180306Y-114900000D01*
X123109469Y-114885909D01*
X123074049Y-114878864D01*
X123024002Y-114858133D01*
X122973954Y-114837403D01*
X122883876Y-114777215D01*
X122807263Y-114700602D01*
X122747075Y-114610524D01*
X122705614Y-114510428D01*
X122684478Y-114404172D01*
X122684478Y-114295828D01*
X122705614Y-114189572D01*
X122711331Y-114175771D01*
X122728201Y-114135043D01*
X122747075Y-114089476D01*
X122807263Y-113999398D01*
X122883876Y-113922785D01*
X122973954Y-113862597D01*
X123030543Y-113839157D01*
X123074049Y-113821136D01*
X123109469Y-113814091D01*
X123180306Y-113800000D01*
X123288650Y-113800000D01*
X123359487Y-113814091D01*
G37*
G36*
X149779367Y-113673115D02*
G01*
X149813255Y-113683395D01*
X149844488Y-113700090D01*
X149871862Y-113722554D01*
X149894326Y-113749928D01*
X149911021Y-113781161D01*
X149921301Y-113815049D01*
X149925376Y-113856428D01*
X149925376Y-114456652D01*
X149921301Y-114498031D01*
X149911021Y-114531919D01*
X149894326Y-114563152D01*
X149871862Y-114590526D01*
X149844488Y-114612990D01*
X149813255Y-114629685D01*
X149779367Y-114639965D01*
X149737988Y-114644040D01*
X148712764Y-114644040D01*
X148671385Y-114639965D01*
X148637497Y-114629685D01*
X148606264Y-114612990D01*
X148578890Y-114590526D01*
X148556426Y-114563152D01*
X148539731Y-114531919D01*
X148529451Y-114498031D01*
X148525376Y-114456652D01*
X148525376Y-113856428D01*
X148529451Y-113815049D01*
X148539731Y-113781161D01*
X148556426Y-113749928D01*
X148578890Y-113722554D01*
X148606264Y-113700090D01*
X148637497Y-113683395D01*
X148671385Y-113673115D01*
X148712764Y-113669040D01*
X149737988Y-113669040D01*
X149779367Y-113673115D01*
G37*
G36*
X146943868Y-114389157D02*
G01*
X145443868Y-114389157D01*
X145443868Y-113839157D01*
X146943868Y-113839157D01*
X146943868Y-114389157D01*
G37*
G36*
X135543868Y-114389157D02*
G01*
X134043868Y-114389157D01*
X134043868Y-113839157D01*
X135543868Y-113839157D01*
X135543868Y-114389157D01*
G37*
G36*
X130530881Y-113276239D02*
G01*
X130564769Y-113286519D01*
X130596002Y-113303214D01*
X130623376Y-113325678D01*
X130645840Y-113353052D01*
X130662535Y-113384285D01*
X130672815Y-113418173D01*
X130676890Y-113459552D01*
X130676890Y-114059776D01*
X130672815Y-114101155D01*
X130662535Y-114135043D01*
X130645840Y-114166276D01*
X130623376Y-114193650D01*
X130596002Y-114216114D01*
X130564769Y-114232809D01*
X130530881Y-114243089D01*
X130489502Y-114247164D01*
X129464278Y-114247164D01*
X129422899Y-114243089D01*
X129389011Y-114232809D01*
X129357778Y-114216114D01*
X129330404Y-114193650D01*
X129307940Y-114166276D01*
X129291245Y-114135043D01*
X129280965Y-114101155D01*
X129276890Y-114059776D01*
X129276890Y-113459552D01*
X129280965Y-113418173D01*
X129291245Y-113384285D01*
X129307940Y-113353052D01*
X129330404Y-113325678D01*
X129357778Y-113303214D01*
X129389011Y-113286519D01*
X129422899Y-113276239D01*
X129464278Y-113272164D01*
X130489502Y-113272164D01*
X130530881Y-113276239D01*
G37*
G36*
X122159487Y-113014091D02*
G01*
X122194907Y-113021136D01*
X122238413Y-113039157D01*
X122295002Y-113062597D01*
X122385080Y-113122785D01*
X122461693Y-113199398D01*
X122521881Y-113289476D01*
X122536876Y-113325678D01*
X122563342Y-113389571D01*
X122584478Y-113495830D01*
X122584478Y-113604170D01*
X122563342Y-113710429D01*
X122550914Y-113740433D01*
X122521881Y-113810524D01*
X122461693Y-113900602D01*
X122385080Y-113977215D01*
X122295002Y-114037403D01*
X122244954Y-114058133D01*
X122194907Y-114078864D01*
X122159487Y-114085909D01*
X122088650Y-114100000D01*
X121980306Y-114100000D01*
X121909469Y-114085909D01*
X121874049Y-114078864D01*
X121824002Y-114058133D01*
X121773954Y-114037403D01*
X121683876Y-113977215D01*
X121607263Y-113900602D01*
X121547075Y-113810524D01*
X121518042Y-113740433D01*
X121505614Y-113710429D01*
X121484478Y-113604170D01*
X121484478Y-113495830D01*
X121505614Y-113389571D01*
X121532080Y-113325678D01*
X121547075Y-113289476D01*
X121607263Y-113199398D01*
X121683876Y-113122785D01*
X121773954Y-113062597D01*
X121830543Y-113039157D01*
X121874049Y-113021136D01*
X121909469Y-113014091D01*
X121980306Y-113000000D01*
X122088650Y-113000000D01*
X122159487Y-113014091D01*
G37*
G36*
X135543868Y-113589157D02*
G01*
X134043868Y-113589157D01*
X134043868Y-113039157D01*
X135543868Y-113039157D01*
X135543868Y-113589157D01*
G37*
G36*
X146943868Y-113589157D02*
G01*
X145443868Y-113589157D01*
X145443868Y-113039157D01*
X146943868Y-113039157D01*
X146943868Y-113589157D01*
G37*
G36*
X156447935Y-111762664D02*
G01*
X156602624Y-111826739D01*
X156602626Y-111826740D01*
X156741844Y-111919762D01*
X156860238Y-112038156D01*
X156908528Y-112110428D01*
X156953261Y-112177376D01*
X157017336Y-112332065D01*
X157050000Y-112496281D01*
X157050000Y-112663719D01*
X157017336Y-112827935D01*
X156983166Y-112910428D01*
X156953260Y-112982626D01*
X156860238Y-113121844D01*
X156741844Y-113240238D01*
X156602626Y-113333260D01*
X156602625Y-113333261D01*
X156602624Y-113333261D01*
X156447935Y-113397336D01*
X156283719Y-113430000D01*
X156116281Y-113430000D01*
X155952065Y-113397336D01*
X155797376Y-113333261D01*
X155797375Y-113333261D01*
X155797374Y-113333260D01*
X155658156Y-113240238D01*
X155539762Y-113121844D01*
X155446740Y-112982626D01*
X155416834Y-112910428D01*
X155382664Y-112827935D01*
X155350000Y-112663719D01*
X155350000Y-112496281D01*
X155382664Y-112332065D01*
X155446739Y-112177376D01*
X155491472Y-112110428D01*
X155539762Y-112038156D01*
X155658156Y-111919762D01*
X155797374Y-111826740D01*
X155797376Y-111826739D01*
X155952065Y-111762664D01*
X156116281Y-111730000D01*
X156283719Y-111730000D01*
X156447935Y-111762664D01*
G37*
G36*
X123359487Y-112214091D02*
G01*
X123394907Y-112221136D01*
X123424046Y-112233206D01*
X123495002Y-112262597D01*
X123585080Y-112322785D01*
X123661693Y-112399398D01*
X123721881Y-112489476D01*
X123763342Y-112589572D01*
X123784478Y-112695828D01*
X123784478Y-112804172D01*
X123763342Y-112910428D01*
X123721881Y-113010524D01*
X123661693Y-113100602D01*
X123585080Y-113177215D01*
X123495002Y-113237403D01*
X123444954Y-113258133D01*
X123394907Y-113278864D01*
X123359487Y-113285909D01*
X123288650Y-113300000D01*
X123180306Y-113300000D01*
X123109469Y-113285909D01*
X123074049Y-113278864D01*
X123024002Y-113258133D01*
X122973954Y-113237403D01*
X122883876Y-113177215D01*
X122807263Y-113100602D01*
X122747075Y-113010524D01*
X122705614Y-112910428D01*
X122684478Y-112804172D01*
X122684478Y-112695828D01*
X122705614Y-112589572D01*
X122747075Y-112489476D01*
X122807263Y-112399398D01*
X122883876Y-112322785D01*
X122973954Y-112262597D01*
X123044910Y-112233206D01*
X123074049Y-112221136D01*
X123109469Y-112214091D01*
X123180306Y-112200000D01*
X123288650Y-112200000D01*
X123359487Y-112214091D01*
G37*
G36*
X135543868Y-112789157D02*
G01*
X134043868Y-112789157D01*
X134043868Y-112239157D01*
X135543868Y-112239157D01*
X135543868Y-112789157D01*
G37*
G36*
X146943868Y-112789157D02*
G01*
X145443868Y-112789157D01*
X145443868Y-112239157D01*
X146943868Y-112239157D01*
X146943868Y-112789157D01*
G37*
G36*
X122159487Y-111414091D02*
G01*
X122194907Y-111421136D01*
X122238413Y-111439157D01*
X122295002Y-111462597D01*
X122385080Y-111522785D01*
X122461693Y-111599398D01*
X122521881Y-111689476D01*
X122542612Y-111739524D01*
X122552197Y-111762664D01*
X122563342Y-111789572D01*
X122584478Y-111895828D01*
X122584478Y-112004172D01*
X122563342Y-112110428D01*
X122521881Y-112210524D01*
X122461693Y-112300602D01*
X122385080Y-112377215D01*
X122295002Y-112437403D01*
X122244954Y-112458134D01*
X122194907Y-112478864D01*
X122159487Y-112485909D01*
X122088650Y-112500000D01*
X121980306Y-112500000D01*
X121909469Y-112485909D01*
X121874049Y-112478864D01*
X121824002Y-112458134D01*
X121773954Y-112437403D01*
X121683876Y-112377215D01*
X121607263Y-112300602D01*
X121547075Y-112210524D01*
X121505614Y-112110428D01*
X121484478Y-112004172D01*
X121484478Y-111895828D01*
X121505614Y-111789572D01*
X121516760Y-111762664D01*
X121526345Y-111739524D01*
X121547075Y-111689476D01*
X121607263Y-111599398D01*
X121683876Y-111522785D01*
X121773954Y-111462597D01*
X121830543Y-111439157D01*
X121874049Y-111421136D01*
X121909469Y-111414091D01*
X121980306Y-111400000D01*
X122088650Y-111400000D01*
X122159487Y-111414091D01*
G37*
G36*
X130461912Y-111024669D02*
G01*
X130495800Y-111034949D01*
X130527033Y-111051644D01*
X130554407Y-111074108D01*
X130576871Y-111101482D01*
X130593566Y-111132715D01*
X130603846Y-111166603D01*
X130607921Y-111207982D01*
X130607921Y-112233206D01*
X130603846Y-112274585D01*
X130593566Y-112308473D01*
X130576871Y-112339706D01*
X130554407Y-112367080D01*
X130527033Y-112389544D01*
X130495800Y-112406239D01*
X130461912Y-112416519D01*
X130420533Y-112420594D01*
X129820309Y-112420594D01*
X129778930Y-112416519D01*
X129745042Y-112406239D01*
X129713809Y-112389544D01*
X129686435Y-112367080D01*
X129663971Y-112339706D01*
X129647276Y-112308473D01*
X129636996Y-112274585D01*
X129632921Y-112233206D01*
X129632921Y-111207982D01*
X129636996Y-111166603D01*
X129647276Y-111132715D01*
X129663971Y-111101482D01*
X129686435Y-111074108D01*
X129713809Y-111051644D01*
X129745042Y-111034949D01*
X129778930Y-111024669D01*
X129820309Y-111020594D01*
X130420533Y-111020594D01*
X130461912Y-111024669D01*
G37*
G36*
X128586912Y-111024669D02*
G01*
X128620800Y-111034949D01*
X128652033Y-111051644D01*
X128679407Y-111074108D01*
X128701871Y-111101482D01*
X128718566Y-111132715D01*
X128728846Y-111166603D01*
X128732921Y-111207982D01*
X128732921Y-112233206D01*
X128728846Y-112274585D01*
X128718566Y-112308473D01*
X128701871Y-112339706D01*
X128679407Y-112367080D01*
X128652033Y-112389544D01*
X128620800Y-112406239D01*
X128586912Y-112416519D01*
X128545533Y-112420594D01*
X127945309Y-112420594D01*
X127903930Y-112416519D01*
X127870042Y-112406239D01*
X127838809Y-112389544D01*
X127811435Y-112367080D01*
X127788971Y-112339706D01*
X127772276Y-112308473D01*
X127761996Y-112274585D01*
X127757921Y-112233206D01*
X127757921Y-111207982D01*
X127761996Y-111166603D01*
X127772276Y-111132715D01*
X127788971Y-111101482D01*
X127811435Y-111074108D01*
X127838809Y-111051644D01*
X127870042Y-111034949D01*
X127903930Y-111024669D01*
X127945309Y-111020594D01*
X128545533Y-111020594D01*
X128586912Y-111024669D01*
G37*
G36*
X135543868Y-111989157D02*
G01*
X134043868Y-111989157D01*
X134043868Y-111439157D01*
X135543868Y-111439157D01*
X135543868Y-111989157D01*
G37*
G36*
X146943868Y-111989157D02*
G01*
X145443868Y-111989157D01*
X145443868Y-111439157D01*
X146943868Y-111439157D01*
X146943868Y-111989157D01*
G37*
G36*
X123359487Y-110614091D02*
G01*
X123394907Y-110621136D01*
X123438413Y-110639157D01*
X123495002Y-110662597D01*
X123585080Y-110722785D01*
X123661693Y-110799398D01*
X123721881Y-110889476D01*
X123763342Y-110989572D01*
X123784478Y-111095828D01*
X123784478Y-111204172D01*
X123763342Y-111310428D01*
X123721881Y-111410524D01*
X123661693Y-111500602D01*
X123585080Y-111577215D01*
X123495002Y-111637403D01*
X123444954Y-111658134D01*
X123394907Y-111678864D01*
X123359487Y-111685909D01*
X123288650Y-111700000D01*
X123180306Y-111700000D01*
X123109469Y-111685909D01*
X123074049Y-111678864D01*
X123024002Y-111658134D01*
X122973954Y-111637403D01*
X122883876Y-111577215D01*
X122807263Y-111500602D01*
X122747075Y-111410524D01*
X122705614Y-111310428D01*
X122684478Y-111204172D01*
X122684478Y-111095828D01*
X122705614Y-110989572D01*
X122747075Y-110889476D01*
X122807263Y-110799398D01*
X122883876Y-110722785D01*
X122973954Y-110662597D01*
X123030543Y-110639157D01*
X123074049Y-110621136D01*
X123109469Y-110614091D01*
X123180306Y-110600000D01*
X123288650Y-110600000D01*
X123359487Y-110614091D01*
G37*
G36*
X146943868Y-111189157D02*
G01*
X145443868Y-111189157D01*
X145443868Y-110639157D01*
X146943868Y-110639157D01*
X146943868Y-111189157D01*
G37*
G36*
X135543868Y-111189157D02*
G01*
X134043868Y-111189157D01*
X134043868Y-110639157D01*
X135543868Y-110639157D01*
X135543868Y-111189157D01*
G37*
G36*
X156447935Y-109222664D02*
G01*
X156602624Y-109286739D01*
X156602626Y-109286740D01*
X156741844Y-109379762D01*
X156860238Y-109498156D01*
X156942650Y-109621495D01*
X156953261Y-109637376D01*
X157017336Y-109792065D01*
X157050000Y-109956281D01*
X157050000Y-110123719D01*
X157017336Y-110287935D01*
X156961862Y-110421859D01*
X156953260Y-110442626D01*
X156860238Y-110581844D01*
X156741844Y-110700238D01*
X156602626Y-110793260D01*
X156602625Y-110793261D01*
X156602624Y-110793261D01*
X156447935Y-110857336D01*
X156283719Y-110890000D01*
X156116281Y-110890000D01*
X155952065Y-110857336D01*
X155797376Y-110793261D01*
X155797375Y-110793261D01*
X155797374Y-110793260D01*
X155658156Y-110700238D01*
X155539762Y-110581844D01*
X155446740Y-110442626D01*
X155438138Y-110421859D01*
X155382664Y-110287935D01*
X155350000Y-110123719D01*
X155350000Y-109956281D01*
X155382664Y-109792065D01*
X155446739Y-109637376D01*
X155457350Y-109621495D01*
X155539762Y-109498156D01*
X155658156Y-109379762D01*
X155797374Y-109286740D01*
X155797376Y-109286739D01*
X155952065Y-109222664D01*
X156116281Y-109190000D01*
X156283719Y-109190000D01*
X156447935Y-109222664D01*
G37*
G36*
X130461912Y-109040289D02*
G01*
X130495800Y-109050569D01*
X130527033Y-109067264D01*
X130554407Y-109089728D01*
X130576871Y-109117102D01*
X130593566Y-109148335D01*
X130603846Y-109182223D01*
X130607921Y-109223602D01*
X130607921Y-110248826D01*
X130603846Y-110290205D01*
X130593566Y-110324093D01*
X130576871Y-110355326D01*
X130554407Y-110382700D01*
X130527033Y-110405164D01*
X130495800Y-110421859D01*
X130461912Y-110432139D01*
X130420533Y-110436214D01*
X129820309Y-110436214D01*
X129778930Y-110432139D01*
X129745042Y-110421859D01*
X129713809Y-110405164D01*
X129686435Y-110382700D01*
X129663971Y-110355326D01*
X129647276Y-110324093D01*
X129636996Y-110290205D01*
X129632921Y-110248826D01*
X129632921Y-109223602D01*
X129636996Y-109182223D01*
X129647276Y-109148335D01*
X129663971Y-109117102D01*
X129686435Y-109089728D01*
X129713809Y-109067264D01*
X129745042Y-109050569D01*
X129778930Y-109040289D01*
X129820309Y-109036214D01*
X130420533Y-109036214D01*
X130461912Y-109040289D01*
G37*
G36*
X128586912Y-109040289D02*
G01*
X128620800Y-109050569D01*
X128652033Y-109067264D01*
X128679407Y-109089728D01*
X128701871Y-109117102D01*
X128718566Y-109148335D01*
X128728846Y-109182223D01*
X128732921Y-109223602D01*
X128732921Y-110248826D01*
X128728846Y-110290205D01*
X128718566Y-110324093D01*
X128701871Y-110355326D01*
X128679407Y-110382700D01*
X128652033Y-110405164D01*
X128620800Y-110421859D01*
X128586912Y-110432139D01*
X128545533Y-110436214D01*
X127945309Y-110436214D01*
X127903930Y-110432139D01*
X127870042Y-110421859D01*
X127838809Y-110405164D01*
X127811435Y-110382700D01*
X127788971Y-110355326D01*
X127772276Y-110324093D01*
X127761996Y-110290205D01*
X127757921Y-110248826D01*
X127757921Y-109223602D01*
X127761996Y-109182223D01*
X127772276Y-109148335D01*
X127788971Y-109117102D01*
X127811435Y-109089728D01*
X127838809Y-109067264D01*
X127870042Y-109050569D01*
X127903930Y-109040289D01*
X127945309Y-109036214D01*
X128545533Y-109036214D01*
X128586912Y-109040289D01*
G37*
G36*
X146943868Y-110389157D02*
G01*
X145443868Y-110389157D01*
X145443868Y-109839157D01*
X146943868Y-109839157D01*
X146943868Y-110389157D01*
G37*
G36*
X135543868Y-110389157D02*
G01*
X134043868Y-110389157D01*
X134043868Y-109839157D01*
X135543868Y-109839157D01*
X135543868Y-110389157D01*
G37*
G36*
X132713477Y-108801041D02*
G01*
X132747365Y-108811321D01*
X132778598Y-108828016D01*
X132805972Y-108850480D01*
X132828436Y-108877854D01*
X132845131Y-108909087D01*
X132855411Y-108942975D01*
X132859486Y-108984354D01*
X132859486Y-109584578D01*
X132855411Y-109625957D01*
X132845131Y-109659845D01*
X132828436Y-109691078D01*
X132805972Y-109718452D01*
X132778598Y-109740916D01*
X132747365Y-109757611D01*
X132713477Y-109767891D01*
X132672098Y-109771966D01*
X131646874Y-109771966D01*
X131605495Y-109767891D01*
X131571607Y-109757611D01*
X131540374Y-109740916D01*
X131513000Y-109718452D01*
X131490536Y-109691078D01*
X131473841Y-109659845D01*
X131463561Y-109625957D01*
X131459486Y-109584578D01*
X131459486Y-108984354D01*
X131463561Y-108942975D01*
X131473841Y-108909087D01*
X131490536Y-108877854D01*
X131513000Y-108850480D01*
X131540374Y-108828016D01*
X131571607Y-108811321D01*
X131605495Y-108801041D01*
X131646874Y-108796966D01*
X132672098Y-108796966D01*
X132713477Y-108801041D01*
G37*
G36*
X118282099Y-108508682D02*
G01*
X118395199Y-108542990D01*
X118499433Y-108598704D01*
X118590795Y-108673683D01*
X118665774Y-108765045D01*
X118721488Y-108869279D01*
X118755796Y-108982379D01*
X118767381Y-109100000D01*
X118755796Y-109217621D01*
X118721488Y-109330721D01*
X118665774Y-109434955D01*
X118590795Y-109526317D01*
X118499433Y-109601296D01*
X118395199Y-109657010D01*
X118282099Y-109691318D01*
X118193952Y-109700000D01*
X117435004Y-109700000D01*
X117346857Y-109691318D01*
X117233757Y-109657010D01*
X117129523Y-109601296D01*
X117038161Y-109526317D01*
X116963182Y-109434955D01*
X116907468Y-109330721D01*
X116873160Y-109217621D01*
X116861575Y-109100000D01*
X116873160Y-108982379D01*
X116907468Y-108869279D01*
X116963182Y-108765045D01*
X117038161Y-108673683D01*
X117129523Y-108598704D01*
X117233757Y-108542990D01*
X117346857Y-108508682D01*
X117435004Y-108500000D01*
X118193952Y-108500000D01*
X118282099Y-108508682D01*
G37*
G36*
X123102099Y-108508682D02*
G01*
X123215199Y-108542990D01*
X123319433Y-108598704D01*
X123410795Y-108673683D01*
X123485774Y-108765045D01*
X123541488Y-108869279D01*
X123575796Y-108982379D01*
X123587381Y-109100000D01*
X123575796Y-109217621D01*
X123541488Y-109330721D01*
X123485774Y-109434955D01*
X123410795Y-109526317D01*
X123319433Y-109601296D01*
X123215199Y-109657010D01*
X123102099Y-109691318D01*
X123013952Y-109700000D01*
X122255004Y-109700000D01*
X122166857Y-109691318D01*
X122053757Y-109657010D01*
X121949523Y-109601296D01*
X121858161Y-109526317D01*
X121783182Y-109434955D01*
X121727468Y-109330721D01*
X121693160Y-109217621D01*
X121681575Y-109100000D01*
X121693160Y-108982379D01*
X121727468Y-108869279D01*
X121783182Y-108765045D01*
X121858161Y-108673683D01*
X121949523Y-108598704D01*
X122053757Y-108542990D01*
X122166857Y-108508682D01*
X122255004Y-108500000D01*
X123013952Y-108500000D01*
X123102099Y-108508682D01*
G37*
G36*
X135543868Y-109589157D02*
G01*
X134043868Y-109589157D01*
X134043868Y-109039157D01*
X135543868Y-109039157D01*
X135543868Y-109589157D01*
G37*
G36*
X146943868Y-109589157D02*
G01*
X145443868Y-109589157D01*
X145443868Y-109039157D01*
X146943868Y-109039157D01*
X146943868Y-109589157D01*
G37*
G36*
X135543868Y-108789157D02*
G01*
X134043868Y-108789157D01*
X134043868Y-108239157D01*
X135543868Y-108239157D01*
X135543868Y-108789157D01*
G37*
G36*
X146943868Y-108789157D02*
G01*
X145443868Y-108789157D01*
X145443868Y-108239157D01*
X146943868Y-108239157D01*
X146943868Y-108789157D01*
G37*
G36*
X156447935Y-106682664D02*
G01*
X156602624Y-106746739D01*
X156602626Y-106746740D01*
X156741844Y-106839762D01*
X156860238Y-106958156D01*
X156953260Y-107097374D01*
X156953261Y-107097376D01*
X157017336Y-107252065D01*
X157050000Y-107416281D01*
X157050000Y-107583719D01*
X157017336Y-107747935D01*
X156953261Y-107902624D01*
X156953260Y-107902626D01*
X156860238Y-108041844D01*
X156741844Y-108160238D01*
X156602626Y-108253260D01*
X156602625Y-108253261D01*
X156602624Y-108253261D01*
X156447935Y-108317336D01*
X156283719Y-108350000D01*
X156116281Y-108350000D01*
X155952065Y-108317336D01*
X155797376Y-108253261D01*
X155797375Y-108253261D01*
X155797374Y-108253260D01*
X155658156Y-108160238D01*
X155539762Y-108041844D01*
X155446740Y-107902626D01*
X155446739Y-107902624D01*
X155382664Y-107747935D01*
X155350000Y-107583719D01*
X155350000Y-107416281D01*
X155382664Y-107252065D01*
X155446739Y-107097376D01*
X155446740Y-107097374D01*
X155539762Y-106958156D01*
X155658156Y-106839762D01*
X155797374Y-106746740D01*
X155797376Y-106746739D01*
X155952065Y-106682664D01*
X156116281Y-106650000D01*
X156283719Y-106650000D01*
X156447935Y-106682664D01*
G37*
G36*
X132713477Y-106926041D02*
G01*
X132747365Y-106936321D01*
X132778598Y-106953016D01*
X132805972Y-106975480D01*
X132828436Y-107002854D01*
X132845131Y-107034087D01*
X132855411Y-107067975D01*
X132859486Y-107109354D01*
X132859486Y-107709578D01*
X132855411Y-107750957D01*
X132845131Y-107784845D01*
X132828436Y-107816078D01*
X132805972Y-107843452D01*
X132778598Y-107865916D01*
X132747365Y-107882611D01*
X132713477Y-107892891D01*
X132672098Y-107896966D01*
X131646874Y-107896966D01*
X131605495Y-107892891D01*
X131571607Y-107882611D01*
X131540374Y-107865916D01*
X131513000Y-107843452D01*
X131490536Y-107816078D01*
X131473841Y-107784845D01*
X131463561Y-107750957D01*
X131459486Y-107709578D01*
X131459486Y-107109354D01*
X131463561Y-107067975D01*
X131473841Y-107034087D01*
X131490536Y-107002854D01*
X131513000Y-106975480D01*
X131540374Y-106953016D01*
X131571607Y-106936321D01*
X131605495Y-106926041D01*
X131646874Y-106921966D01*
X132672098Y-106921966D01*
X132713477Y-106926041D01*
G37*
G36*
X144768868Y-107564157D02*
G01*
X144218868Y-107564157D01*
X144218868Y-106064157D01*
X144768868Y-106064157D01*
X144768868Y-107564157D01*
G37*
G36*
X137568868Y-107564157D02*
G01*
X137018868Y-107564157D01*
X137018868Y-106064157D01*
X137568868Y-106064157D01*
X137568868Y-107564157D01*
G37*
G36*
X138368868Y-107564157D02*
G01*
X137818868Y-107564157D01*
X137818868Y-106064157D01*
X138368868Y-106064157D01*
X138368868Y-107564157D01*
G37*
G36*
X139168868Y-107564157D02*
G01*
X138618868Y-107564157D01*
X138618868Y-106064157D01*
X139168868Y-106064157D01*
X139168868Y-107564157D01*
G37*
G36*
X139968868Y-107564157D02*
G01*
X139418868Y-107564157D01*
X139418868Y-106064157D01*
X139968868Y-106064157D01*
X139968868Y-107564157D01*
G37*
G36*
X143968868Y-107564157D02*
G01*
X143418868Y-107564157D01*
X143418868Y-106064157D01*
X143968868Y-106064157D01*
X143968868Y-107564157D01*
G37*
G36*
X143168868Y-107564157D02*
G01*
X142618868Y-107564157D01*
X142618868Y-106064157D01*
X143168868Y-106064157D01*
X143168868Y-107564157D01*
G37*
G36*
X142368868Y-107564157D02*
G01*
X141818868Y-107564157D01*
X141818868Y-106064157D01*
X142368868Y-106064157D01*
X142368868Y-107564157D01*
G37*
G36*
X141568868Y-107564157D02*
G01*
X141018868Y-107564157D01*
X141018868Y-106064157D01*
X141568868Y-106064157D01*
X141568868Y-107564157D01*
G37*
G36*
X140768868Y-107564157D02*
G01*
X140218868Y-107564157D01*
X140218868Y-106064157D01*
X140768868Y-106064157D01*
X140768868Y-107564157D01*
G37*
G36*
X136768868Y-107564157D02*
G01*
X136218868Y-107564157D01*
X136218868Y-106064157D01*
X136768868Y-106064157D01*
X136768868Y-107564157D01*
G37*
G36*
X156447935Y-104142664D02*
G01*
X156602624Y-104206739D01*
X156602626Y-104206740D01*
X156741844Y-104299762D01*
X156860238Y-104418156D01*
X156935665Y-104531041D01*
X156953261Y-104557376D01*
X157017336Y-104712065D01*
X157050000Y-104876281D01*
X157050000Y-105043719D01*
X157017336Y-105207935D01*
X156953261Y-105362624D01*
X156953260Y-105362626D01*
X156860238Y-105501844D01*
X156741844Y-105620238D01*
X156602626Y-105713260D01*
X156602625Y-105713261D01*
X156602624Y-105713261D01*
X156447935Y-105777336D01*
X156283719Y-105810000D01*
X156116281Y-105810000D01*
X155952065Y-105777336D01*
X155797376Y-105713261D01*
X155797375Y-105713261D01*
X155797374Y-105713260D01*
X155658156Y-105620238D01*
X155539762Y-105501844D01*
X155446740Y-105362626D01*
X155446739Y-105362624D01*
X155382664Y-105207935D01*
X155350000Y-105043719D01*
X155350000Y-104876281D01*
X155382664Y-104712065D01*
X155446739Y-104557376D01*
X155464335Y-104531041D01*
X155539762Y-104418156D01*
X155658156Y-104299762D01*
X155797374Y-104206740D01*
X155797376Y-104206739D01*
X155952065Y-104142664D01*
X156116281Y-104110000D01*
X156283719Y-104110000D01*
X156447935Y-104142664D01*
G37*
G36*
X145255676Y-103483850D02*
G01*
X145289564Y-103494130D01*
X145320797Y-103510825D01*
X145348171Y-103533289D01*
X145370635Y-103560663D01*
X145387330Y-103591896D01*
X145397610Y-103625784D01*
X145401685Y-103667163D01*
X145401685Y-104692387D01*
X145397610Y-104733766D01*
X145387330Y-104767654D01*
X145370635Y-104798887D01*
X145348171Y-104826261D01*
X145320797Y-104848725D01*
X145289564Y-104865420D01*
X145255676Y-104875700D01*
X145214297Y-104879775D01*
X144614073Y-104879775D01*
X144572694Y-104875700D01*
X144538806Y-104865420D01*
X144507573Y-104848725D01*
X144480199Y-104826261D01*
X144457735Y-104798887D01*
X144441040Y-104767654D01*
X144430760Y-104733766D01*
X144426685Y-104692387D01*
X144426685Y-103667163D01*
X144430760Y-103625784D01*
X144441040Y-103591896D01*
X144457735Y-103560663D01*
X144480199Y-103533289D01*
X144507573Y-103510825D01*
X144538806Y-103494130D01*
X144572694Y-103483850D01*
X144614073Y-103479775D01*
X145214297Y-103479775D01*
X145255676Y-103483850D01*
G37*
G36*
X147130676Y-103483850D02*
G01*
X147164564Y-103494130D01*
X147195797Y-103510825D01*
X147223171Y-103533289D01*
X147245635Y-103560663D01*
X147262330Y-103591896D01*
X147272610Y-103625784D01*
X147276685Y-103667163D01*
X147276685Y-104692387D01*
X147272610Y-104733766D01*
X147262330Y-104767654D01*
X147245635Y-104798887D01*
X147223171Y-104826261D01*
X147195797Y-104848725D01*
X147164564Y-104865420D01*
X147130676Y-104875700D01*
X147089297Y-104879775D01*
X146489073Y-104879775D01*
X146447694Y-104875700D01*
X146413806Y-104865420D01*
X146382573Y-104848725D01*
X146355199Y-104826261D01*
X146332735Y-104798887D01*
X146316040Y-104767654D01*
X146305760Y-104733766D01*
X146301685Y-104692387D01*
X146301685Y-103667163D01*
X146305760Y-103625784D01*
X146316040Y-103591896D01*
X146332735Y-103560663D01*
X146355199Y-103533289D01*
X146382573Y-103510825D01*
X146413806Y-103494130D01*
X146447694Y-103483850D01*
X146489073Y-103479775D01*
X147089297Y-103479775D01*
X147130676Y-103483850D01*
G37*
G36*
X138666607Y-103840273D02*
G01*
X138700495Y-103850553D01*
X138731728Y-103867248D01*
X138759102Y-103889712D01*
X138781566Y-103917086D01*
X138798261Y-103948319D01*
X138808541Y-103982207D01*
X138812616Y-104023586D01*
X138812616Y-104623810D01*
X138808541Y-104665189D01*
X138798261Y-104699077D01*
X138781566Y-104730310D01*
X138759102Y-104757684D01*
X138731728Y-104780148D01*
X138700495Y-104796843D01*
X138666607Y-104807123D01*
X138625228Y-104811198D01*
X137600004Y-104811198D01*
X137558625Y-104807123D01*
X137524737Y-104796843D01*
X137493504Y-104780148D01*
X137466130Y-104757684D01*
X137443666Y-104730310D01*
X137426971Y-104699077D01*
X137416691Y-104665189D01*
X137412616Y-104623810D01*
X137412616Y-104023586D01*
X137416691Y-103982207D01*
X137426971Y-103948319D01*
X137443666Y-103917086D01*
X137466130Y-103889712D01*
X137493504Y-103867248D01*
X137524737Y-103850553D01*
X137558625Y-103840273D01*
X137600004Y-103836198D01*
X138625228Y-103836198D01*
X138666607Y-103840273D01*
G37*
G36*
X134540269Y-103285587D02*
G01*
X134574157Y-103295867D01*
X134605390Y-103312562D01*
X134632764Y-103335026D01*
X134655228Y-103362400D01*
X134671923Y-103393633D01*
X134682203Y-103427521D01*
X134686278Y-103468900D01*
X134686278Y-104494124D01*
X134682203Y-104535503D01*
X134671923Y-104569391D01*
X134655228Y-104600624D01*
X134632764Y-104627998D01*
X134605390Y-104650462D01*
X134574157Y-104667157D01*
X134540269Y-104677437D01*
X134498890Y-104681512D01*
X133898666Y-104681512D01*
X133857287Y-104677437D01*
X133823399Y-104667157D01*
X133792166Y-104650462D01*
X133764792Y-104627998D01*
X133742328Y-104600624D01*
X133725633Y-104569391D01*
X133715353Y-104535503D01*
X133711278Y-104494124D01*
X133711278Y-103468900D01*
X133715353Y-103427521D01*
X133725633Y-103393633D01*
X133742328Y-103362400D01*
X133764792Y-103335026D01*
X133792166Y-103312562D01*
X133823399Y-103295867D01*
X133857287Y-103285587D01*
X133898666Y-103281512D01*
X134498890Y-103281512D01*
X134540269Y-103285587D01*
G37*
G36*
X136415269Y-103285587D02*
G01*
X136449157Y-103295867D01*
X136480390Y-103312562D01*
X136507764Y-103335026D01*
X136530228Y-103362400D01*
X136546923Y-103393633D01*
X136557203Y-103427521D01*
X136561278Y-103468900D01*
X136561278Y-104494124D01*
X136557203Y-104535503D01*
X136546923Y-104569391D01*
X136530228Y-104600624D01*
X136507764Y-104627998D01*
X136480390Y-104650462D01*
X136449157Y-104667157D01*
X136415269Y-104677437D01*
X136373890Y-104681512D01*
X135773666Y-104681512D01*
X135732287Y-104677437D01*
X135698399Y-104667157D01*
X135667166Y-104650462D01*
X135639792Y-104627998D01*
X135617328Y-104600624D01*
X135600633Y-104569391D01*
X135590353Y-104535503D01*
X135586278Y-104494124D01*
X135586278Y-103468900D01*
X135590353Y-103427521D01*
X135600633Y-103393633D01*
X135617328Y-103362400D01*
X135639792Y-103335026D01*
X135667166Y-103312562D01*
X135698399Y-103295867D01*
X135732287Y-103285587D01*
X135773666Y-103281512D01*
X136373890Y-103281512D01*
X136415269Y-103285587D01*
G37*
G36*
X156447935Y-101602664D02*
G01*
X156602624Y-101666739D01*
X156602626Y-101666740D01*
X156741844Y-101759762D01*
X156860238Y-101878156D01*
X156951481Y-102014712D01*
X156953261Y-102017376D01*
X157017336Y-102172065D01*
X157050000Y-102336281D01*
X157050000Y-102503719D01*
X157017336Y-102667935D01*
X157007182Y-102692448D01*
X156953260Y-102822626D01*
X156860238Y-102961844D01*
X156741844Y-103080238D01*
X156602626Y-103173260D01*
X156602625Y-103173261D01*
X156602624Y-103173261D01*
X156447935Y-103237336D01*
X156283719Y-103270000D01*
X156116281Y-103270000D01*
X155952065Y-103237336D01*
X155797376Y-103173261D01*
X155797375Y-103173261D01*
X155797374Y-103173260D01*
X155658156Y-103080238D01*
X155539762Y-102961844D01*
X155446740Y-102822626D01*
X155392818Y-102692448D01*
X155382664Y-102667935D01*
X155350000Y-102503719D01*
X155350000Y-102336281D01*
X155382664Y-102172065D01*
X155446739Y-102017376D01*
X155448519Y-102014712D01*
X155539762Y-101878156D01*
X155658156Y-101759762D01*
X155797374Y-101666740D01*
X155797376Y-101666739D01*
X155952065Y-101602664D01*
X156116281Y-101570000D01*
X156283719Y-101570000D01*
X156447935Y-101602664D01*
G37*
G36*
X138666607Y-101965273D02*
G01*
X138700495Y-101975553D01*
X138731728Y-101992248D01*
X138759102Y-102014712D01*
X138781566Y-102042086D01*
X138798261Y-102073319D01*
X138808541Y-102107207D01*
X138812616Y-102148586D01*
X138812616Y-102748810D01*
X138808541Y-102790189D01*
X138798261Y-102824077D01*
X138781566Y-102855310D01*
X138759102Y-102882684D01*
X138731728Y-102905148D01*
X138700495Y-102921843D01*
X138666607Y-102932123D01*
X138625228Y-102936198D01*
X137600004Y-102936198D01*
X137558625Y-102932123D01*
X137524737Y-102921843D01*
X137493504Y-102905148D01*
X137466130Y-102882684D01*
X137443666Y-102855310D01*
X137426971Y-102824077D01*
X137416691Y-102790189D01*
X137412616Y-102748810D01*
X137412616Y-102148586D01*
X137416691Y-102107207D01*
X137426971Y-102073319D01*
X137443666Y-102042086D01*
X137466130Y-102014712D01*
X137493504Y-101992248D01*
X137524737Y-101975553D01*
X137558625Y-101965273D01*
X137600004Y-101961198D01*
X138625228Y-101961198D01*
X138666607Y-101965273D01*
G37*
G36*
X156447935Y-99062664D02*
G01*
X156602624Y-99126739D01*
X156602626Y-99126740D01*
X156741844Y-99219762D01*
X156860238Y-99338156D01*
X156953260Y-99477374D01*
X156953261Y-99477376D01*
X157017336Y-99632065D01*
X157050000Y-99796281D01*
X157050000Y-99963719D01*
X157017336Y-100127935D01*
X156953261Y-100282624D01*
X156953260Y-100282626D01*
X156860238Y-100421844D01*
X156741844Y-100540238D01*
X156602626Y-100633260D01*
X156602625Y-100633261D01*
X156602624Y-100633261D01*
X156447935Y-100697336D01*
X156283719Y-100730000D01*
X156116281Y-100730000D01*
X155952065Y-100697336D01*
X155797376Y-100633261D01*
X155797375Y-100633261D01*
X155797374Y-100633260D01*
X155658156Y-100540238D01*
X155539762Y-100421844D01*
X155446740Y-100282626D01*
X155446739Y-100282624D01*
X155382664Y-100127935D01*
X155350000Y-99963719D01*
X155350000Y-99796281D01*
X155382664Y-99632065D01*
X155446739Y-99477376D01*
X155446740Y-99477374D01*
X155539762Y-99338156D01*
X155658156Y-99219762D01*
X155797374Y-99126740D01*
X155797376Y-99126739D01*
X155952065Y-99062664D01*
X156116281Y-99030000D01*
X156283719Y-99030000D01*
X156447935Y-99062664D01*
G37*
G36*
X156447935Y-96522664D02*
G01*
X156602624Y-96586739D01*
X156602626Y-96586740D01*
X156741844Y-96679762D01*
X156860238Y-96798156D01*
X156953260Y-96937374D01*
X156953261Y-96937376D01*
X157017336Y-97092065D01*
X157050000Y-97256281D01*
X157050000Y-97423719D01*
X157017336Y-97587935D01*
X156953261Y-97742624D01*
X156953260Y-97742626D01*
X156860238Y-97881844D01*
X156741844Y-98000238D01*
X156602626Y-98093260D01*
X156602625Y-98093261D01*
X156602624Y-98093261D01*
X156447935Y-98157336D01*
X156283719Y-98190000D01*
X156116281Y-98190000D01*
X155952065Y-98157336D01*
X155797376Y-98093261D01*
X155797375Y-98093261D01*
X155797374Y-98093260D01*
X155658156Y-98000238D01*
X155539762Y-97881844D01*
X155446740Y-97742626D01*
X155446739Y-97742624D01*
X155382664Y-97587935D01*
X155350000Y-97423719D01*
X155350000Y-97256281D01*
X155382664Y-97092065D01*
X155446739Y-96937376D01*
X155446740Y-96937374D01*
X155539762Y-96798156D01*
X155658156Y-96679762D01*
X155797374Y-96586740D01*
X155797376Y-96586739D01*
X155952065Y-96522664D01*
X156116281Y-96490000D01*
X156283719Y-96490000D01*
X156447935Y-96522664D01*
G37*
G36*
X157050000Y-95650000D02*
G01*
X155350000Y-95650000D01*
X155350000Y-93950000D01*
X157050000Y-93950000D01*
X157050000Y-95650000D01*
G37*
G36*
X150237935Y-93932664D02*
G01*
X150392624Y-93996739D01*
X150392626Y-93996740D01*
X150531844Y-94089762D01*
X150650238Y-94208156D01*
X150743260Y-94347374D01*
X150743261Y-94347376D01*
X150807336Y-94502065D01*
X150840000Y-94666281D01*
X150840000Y-94833719D01*
X150807336Y-94997935D01*
X150743261Y-95152624D01*
X150743260Y-95152626D01*
X150650238Y-95291844D01*
X150531844Y-95410238D01*
X150392626Y-95503260D01*
X150392625Y-95503261D01*
X150392624Y-95503261D01*
X150237935Y-95567336D01*
X150073719Y-95600000D01*
X149906281Y-95600000D01*
X149742065Y-95567336D01*
X149587376Y-95503261D01*
X149587375Y-95503261D01*
X149587374Y-95503260D01*
X149448156Y-95410238D01*
X149329762Y-95291844D01*
X149236740Y-95152626D01*
X149236739Y-95152624D01*
X149172664Y-94997935D01*
X149140000Y-94833719D01*
X149140000Y-94666281D01*
X149172664Y-94502065D01*
X149236739Y-94347376D01*
X149236740Y-94347374D01*
X149329762Y-94208156D01*
X149448156Y-94089762D01*
X149587374Y-93996740D01*
X149587376Y-93996739D01*
X149742065Y-93932664D01*
X149906281Y-93900000D01*
X150073719Y-93900000D01*
X150237935Y-93932664D01*
G37*
G36*
X152777935Y-93932664D02*
G01*
X152932624Y-93996739D01*
X152932626Y-93996740D01*
X153071844Y-94089762D01*
X153190238Y-94208156D01*
X153283260Y-94347374D01*
X153283261Y-94347376D01*
X153347336Y-94502065D01*
X153380000Y-94666281D01*
X153380000Y-94833719D01*
X153347336Y-94997935D01*
X153283261Y-95152624D01*
X153283260Y-95152626D01*
X153190238Y-95291844D01*
X153071844Y-95410238D01*
X152932626Y-95503260D01*
X152932625Y-95503261D01*
X152932624Y-95503261D01*
X152777935Y-95567336D01*
X152613719Y-95600000D01*
X152446281Y-95600000D01*
X152282065Y-95567336D01*
X152127376Y-95503261D01*
X152127375Y-95503261D01*
X152127374Y-95503260D01*
X151988156Y-95410238D01*
X151869762Y-95291844D01*
X151776740Y-95152626D01*
X151776739Y-95152624D01*
X151712664Y-94997935D01*
X151680000Y-94833719D01*
X151680000Y-94666281D01*
X151712664Y-94502065D01*
X151776739Y-94347376D01*
X151776740Y-94347374D01*
X151869762Y-94208156D01*
X151988156Y-94089762D01*
X152127374Y-93996740D01*
X152127376Y-93996739D01*
X152282065Y-93932664D01*
X152446281Y-93900000D01*
X152613719Y-93900000D01*
X152777935Y-93932664D01*
G37*
G36*
X147697935Y-93932664D02*
G01*
X147852624Y-93996739D01*
X147852626Y-93996740D01*
X147991844Y-94089762D01*
X148110238Y-94208156D01*
X148203260Y-94347374D01*
X148203261Y-94347376D01*
X148267336Y-94502065D01*
X148300000Y-94666281D01*
X148300000Y-94833719D01*
X148267336Y-94997935D01*
X148203261Y-95152624D01*
X148203260Y-95152626D01*
X148110238Y-95291844D01*
X147991844Y-95410238D01*
X147852626Y-95503260D01*
X147852625Y-95503261D01*
X147852624Y-95503261D01*
X147697935Y-95567336D01*
X147533719Y-95600000D01*
X147366281Y-95600000D01*
X147202065Y-95567336D01*
X147047376Y-95503261D01*
X147047375Y-95503261D01*
X147047374Y-95503260D01*
X146908156Y-95410238D01*
X146789762Y-95291844D01*
X146696740Y-95152626D01*
X146696739Y-95152624D01*
X146632664Y-94997935D01*
X146600000Y-94833719D01*
X146600000Y-94666281D01*
X146632664Y-94502065D01*
X146696739Y-94347376D01*
X146696740Y-94347374D01*
X146789762Y-94208156D01*
X146908156Y-94089762D01*
X147047374Y-93996740D01*
X147047376Y-93996739D01*
X147202065Y-93932664D01*
X147366281Y-93900000D01*
X147533719Y-93900000D01*
X147697935Y-93932664D01*
G37*
G36*
X145157935Y-93932664D02*
G01*
X145312624Y-93996739D01*
X145312626Y-93996740D01*
X145451844Y-94089762D01*
X145570238Y-94208156D01*
X145663260Y-94347374D01*
X145663261Y-94347376D01*
X145727336Y-94502065D01*
X145760000Y-94666281D01*
X145760000Y-94833719D01*
X145727336Y-94997935D01*
X145663261Y-95152624D01*
X145663260Y-95152626D01*
X145570238Y-95291844D01*
X145451844Y-95410238D01*
X145312626Y-95503260D01*
X145312625Y-95503261D01*
X145312624Y-95503261D01*
X145157935Y-95567336D01*
X144993719Y-95600000D01*
X144826281Y-95600000D01*
X144662065Y-95567336D01*
X144507376Y-95503261D01*
X144507375Y-95503261D01*
X144507374Y-95503260D01*
X144368156Y-95410238D01*
X144249762Y-95291844D01*
X144156740Y-95152626D01*
X144156739Y-95152624D01*
X144092664Y-94997935D01*
X144060000Y-94833719D01*
X144060000Y-94666281D01*
X144092664Y-94502065D01*
X144156739Y-94347376D01*
X144156740Y-94347374D01*
X144249762Y-94208156D01*
X144368156Y-94089762D01*
X144507374Y-93996740D01*
X144507376Y-93996739D01*
X144662065Y-93932664D01*
X144826281Y-93900000D01*
X144993719Y-93900000D01*
X145157935Y-93932664D01*
G37*
G36*
X142617935Y-93932664D02*
G01*
X142772624Y-93996739D01*
X142772626Y-93996740D01*
X142911844Y-94089762D01*
X143030238Y-94208156D01*
X143123260Y-94347374D01*
X143123261Y-94347376D01*
X143187336Y-94502065D01*
X143220000Y-94666281D01*
X143220000Y-94833719D01*
X143187336Y-94997935D01*
X143123261Y-95152624D01*
X143123260Y-95152626D01*
X143030238Y-95291844D01*
X142911844Y-95410238D01*
X142772626Y-95503260D01*
X142772625Y-95503261D01*
X142772624Y-95503261D01*
X142617935Y-95567336D01*
X142453719Y-95600000D01*
X142286281Y-95600000D01*
X142122065Y-95567336D01*
X141967376Y-95503261D01*
X141967375Y-95503261D01*
X141967374Y-95503260D01*
X141828156Y-95410238D01*
X141709762Y-95291844D01*
X141616740Y-95152626D01*
X141616739Y-95152624D01*
X141552664Y-94997935D01*
X141520000Y-94833719D01*
X141520000Y-94666281D01*
X141552664Y-94502065D01*
X141616739Y-94347376D01*
X141616740Y-94347374D01*
X141709762Y-94208156D01*
X141828156Y-94089762D01*
X141967374Y-93996740D01*
X141967376Y-93996739D01*
X142122065Y-93932664D01*
X142286281Y-93900000D01*
X142453719Y-93900000D01*
X142617935Y-93932664D01*
G37*
G36*
X140077935Y-93932664D02*
G01*
X140232624Y-93996739D01*
X140232626Y-93996740D01*
X140371844Y-94089762D01*
X140490238Y-94208156D01*
X140583260Y-94347374D01*
X140583261Y-94347376D01*
X140647336Y-94502065D01*
X140680000Y-94666281D01*
X140680000Y-94833719D01*
X140647336Y-94997935D01*
X140583261Y-95152624D01*
X140583260Y-95152626D01*
X140490238Y-95291844D01*
X140371844Y-95410238D01*
X140232626Y-95503260D01*
X140232625Y-95503261D01*
X140232624Y-95503261D01*
X140077935Y-95567336D01*
X139913719Y-95600000D01*
X139746281Y-95600000D01*
X139582065Y-95567336D01*
X139427376Y-95503261D01*
X139427375Y-95503261D01*
X139427374Y-95503260D01*
X139288156Y-95410238D01*
X139169762Y-95291844D01*
X139076740Y-95152626D01*
X139076739Y-95152624D01*
X139012664Y-94997935D01*
X138980000Y-94833719D01*
X138980000Y-94666281D01*
X139012664Y-94502065D01*
X139076739Y-94347376D01*
X139076740Y-94347374D01*
X139169762Y-94208156D01*
X139288156Y-94089762D01*
X139427374Y-93996740D01*
X139427376Y-93996739D01*
X139582065Y-93932664D01*
X139746281Y-93900000D01*
X139913719Y-93900000D01*
X140077935Y-93932664D01*
G37*
G36*
X137537935Y-93932664D02*
G01*
X137692624Y-93996739D01*
X137692626Y-93996740D01*
X137831844Y-94089762D01*
X137950238Y-94208156D01*
X138043260Y-94347374D01*
X138043261Y-94347376D01*
X138107336Y-94502065D01*
X138140000Y-94666281D01*
X138140000Y-94833719D01*
X138107336Y-94997935D01*
X138043261Y-95152624D01*
X138043260Y-95152626D01*
X137950238Y-95291844D01*
X137831844Y-95410238D01*
X137692626Y-95503260D01*
X137692625Y-95503261D01*
X137692624Y-95503261D01*
X137537935Y-95567336D01*
X137373719Y-95600000D01*
X137206281Y-95600000D01*
X137042065Y-95567336D01*
X136887376Y-95503261D01*
X136887375Y-95503261D01*
X136887374Y-95503260D01*
X136748156Y-95410238D01*
X136629762Y-95291844D01*
X136536740Y-95152626D01*
X136536739Y-95152624D01*
X136472664Y-94997935D01*
X136440000Y-94833719D01*
X136440000Y-94666281D01*
X136472664Y-94502065D01*
X136536739Y-94347376D01*
X136536740Y-94347374D01*
X136629762Y-94208156D01*
X136748156Y-94089762D01*
X136887374Y-93996740D01*
X136887376Y-93996739D01*
X137042065Y-93932664D01*
X137206281Y-93900000D01*
X137373719Y-93900000D01*
X137537935Y-93932664D01*
G37*
G36*
X135600000Y-95600000D02*
G01*
X133900000Y-95600000D01*
X133900000Y-93900000D01*
X135600000Y-93900000D01*
X135600000Y-95600000D01*
G37*
M02*
