%TF.GenerationSoftware,KiCad,Pcbnew,(5.1.6)-1*%
%TF.CreationDate,2021-08-20T17:07:34-05:00*%
%TF.ProjectId,Pikatea Macropad GB3 Addon,50696b61-7465-4612-904d-6163726f7061,rev?*%
%TF.SameCoordinates,Original*%
%TF.FileFunction,Copper,L2,Bot*%
%TF.FilePolarity,Positive*%
%FSLAX46Y46*%
G04 Gerber Fmt 4.6, Leading zero omitted, Abs format (unit mm)*
G04 Created by KiCad (PCBNEW (5.1.6)-1) date 2021-08-20 17:07:34*
%MOMM*%
%LPD*%
G01*
G04 APERTURE LIST*
%TA.AperFunction,ComponentPad*%
%ADD10R,1.905000X1.905000*%
%TD*%
%TA.AperFunction,ComponentPad*%
%ADD11C,1.905000*%
%TD*%
%TA.AperFunction,ComponentPad*%
%ADD12C,2.250000*%
%TD*%
%TA.AperFunction,ComponentPad*%
%ADD13O,1.700000X1.700000*%
%TD*%
%TA.AperFunction,ComponentPad*%
%ADD14R,1.700000X1.700000*%
%TD*%
%TA.AperFunction,NonConductor*%
%ADD15C,0.254000*%
%TD*%
G04 APERTURE END LIST*
D10*
%TO.P,MX5,4*%
%TO.N,Net-(MX1-Pad4)*%
X208320000Y-99840000D03*
D11*
%TO.P,MX5,3*%
%TO.N,Net-(MX5-Pad3)*%
X205780000Y-99840000D03*
D12*
%TO.P,MX5,1*%
%TO.N,/D6*%
X203240000Y-107460000D03*
%TO.P,MX5,2*%
%TO.N,/A0*%
X209590000Y-110000000D03*
%TD*%
D10*
%TO.P,MX4,4*%
%TO.N,Net-(MX1-Pad4)*%
X189270000Y-99840000D03*
D11*
%TO.P,MX4,3*%
%TO.N,Net-(MX4-Pad3)*%
X186730000Y-99840000D03*
D12*
%TO.P,MX4,1*%
%TO.N,/D8*%
X184190000Y-107460000D03*
%TO.P,MX4,2*%
%TO.N,/A0*%
X190540000Y-110000000D03*
%TD*%
D13*
%TO.P,J5,3*%
%TO.N,/A0*%
X197760000Y-109390000D03*
%TO.P,J5,2*%
%TO.N,/D6*%
X197760000Y-106850000D03*
D14*
%TO.P,J5,1*%
%TO.N,/D8*%
X197760000Y-104310000D03*
%TD*%
D15*
G36*
X185142500Y-99683645D02*
G01*
X185142500Y-99996355D01*
X185203507Y-100303057D01*
X185323176Y-100591963D01*
X185496908Y-100851972D01*
X185718028Y-101073092D01*
X185978037Y-101246824D01*
X186266943Y-101366493D01*
X186573645Y-101427500D01*
X186886355Y-101427500D01*
X187193057Y-101366493D01*
X187481963Y-101246824D01*
X187741972Y-101073092D01*
X187745549Y-101069515D01*
X187786963Y-101146994D01*
X187866315Y-101243685D01*
X187963006Y-101323037D01*
X188073320Y-101382002D01*
X188193018Y-101418312D01*
X188317500Y-101430572D01*
X190222500Y-101430572D01*
X190346982Y-101418312D01*
X190466680Y-101382002D01*
X190576994Y-101323037D01*
X190673685Y-101243685D01*
X190753037Y-101146994D01*
X190812002Y-101036680D01*
X190848312Y-100916982D01*
X190860572Y-100792500D01*
X190860572Y-99660000D01*
X204197203Y-99660000D01*
X204192500Y-99683645D01*
X204192500Y-99996355D01*
X204253507Y-100303057D01*
X204373176Y-100591963D01*
X204546908Y-100851972D01*
X204768028Y-101073092D01*
X205028037Y-101246824D01*
X205316943Y-101366493D01*
X205623645Y-101427500D01*
X205936355Y-101427500D01*
X206243057Y-101366493D01*
X206531963Y-101246824D01*
X206791972Y-101073092D01*
X206795549Y-101069515D01*
X206836963Y-101146994D01*
X206916315Y-101243685D01*
X207013006Y-101323037D01*
X207123320Y-101382002D01*
X207243018Y-101418312D01*
X207367500Y-101430572D01*
X209272500Y-101430572D01*
X209396982Y-101418312D01*
X209516680Y-101382002D01*
X209626994Y-101323037D01*
X209723685Y-101243685D01*
X209803037Y-101146994D01*
X209862002Y-101036680D01*
X209898312Y-100916982D01*
X209910572Y-100792500D01*
X209910572Y-99660000D01*
X213440001Y-99660000D01*
X213440001Y-104162627D01*
X213302893Y-103957431D01*
X213092569Y-103747107D01*
X212845253Y-103581856D01*
X212570451Y-103468029D01*
X212278722Y-103410000D01*
X211981278Y-103410000D01*
X211689549Y-103468029D01*
X211414747Y-103581856D01*
X211167431Y-103747107D01*
X210957107Y-103957431D01*
X210791856Y-104204747D01*
X210678029Y-104479549D01*
X210620000Y-104771278D01*
X210620000Y-105068722D01*
X210678029Y-105360451D01*
X210791856Y-105635253D01*
X210957107Y-105882569D01*
X211167431Y-106092893D01*
X211414747Y-106258144D01*
X211689549Y-106371971D01*
X211981278Y-106430000D01*
X212278722Y-106430000D01*
X212570451Y-106371971D01*
X212845253Y-106258144D01*
X213092569Y-106092893D01*
X213302893Y-105882569D01*
X213440001Y-105677373D01*
X213440000Y-113340000D01*
X181660000Y-113340000D01*
X181660000Y-109826655D01*
X188780000Y-109826655D01*
X188780000Y-110173345D01*
X188847636Y-110513373D01*
X188980308Y-110833673D01*
X189172919Y-111121935D01*
X189418065Y-111367081D01*
X189706327Y-111559692D01*
X190026627Y-111692364D01*
X190366655Y-111760000D01*
X190713345Y-111760000D01*
X191053373Y-111692364D01*
X191373673Y-111559692D01*
X191661935Y-111367081D01*
X191907081Y-111121935D01*
X192099692Y-110833673D01*
X192232364Y-110513373D01*
X192300000Y-110173345D01*
X192300000Y-109826655D01*
X192232364Y-109486627D01*
X192099692Y-109166327D01*
X191907081Y-108878065D01*
X191661935Y-108632919D01*
X191373673Y-108440308D01*
X191053373Y-108307636D01*
X190713345Y-108240000D01*
X190366655Y-108240000D01*
X190026627Y-108307636D01*
X189706327Y-108440308D01*
X189418065Y-108632919D01*
X189172919Y-108878065D01*
X188980308Y-109166327D01*
X188847636Y-109486627D01*
X188780000Y-109826655D01*
X181660000Y-109826655D01*
X181660000Y-105752204D01*
X181747107Y-105882569D01*
X181957431Y-106092893D01*
X182204747Y-106258144D01*
X182479549Y-106371971D01*
X182762638Y-106428281D01*
X182630308Y-106626327D01*
X182497636Y-106946627D01*
X182430000Y-107286655D01*
X182430000Y-107633345D01*
X182497636Y-107973373D01*
X182630308Y-108293673D01*
X182822919Y-108581935D01*
X183068065Y-108827081D01*
X183356327Y-109019692D01*
X183676627Y-109152364D01*
X184016655Y-109220000D01*
X184363345Y-109220000D01*
X184703373Y-109152364D01*
X185023673Y-109019692D01*
X185311935Y-108827081D01*
X185557081Y-108581935D01*
X185749692Y-108293673D01*
X185882364Y-107973373D01*
X185950000Y-107633345D01*
X185950000Y-107286655D01*
X185882364Y-106946627D01*
X185749692Y-106626327D01*
X185557081Y-106338065D01*
X185311935Y-106092919D01*
X185023673Y-105900308D01*
X184703373Y-105767636D01*
X184363345Y-105700000D01*
X184214882Y-105700000D01*
X184258144Y-105635253D01*
X184371971Y-105360451D01*
X184430000Y-105068722D01*
X184430000Y-104771278D01*
X184408080Y-104661076D01*
X185371100Y-104661076D01*
X185371100Y-105178924D01*
X185472127Y-105686822D01*
X185670299Y-106165251D01*
X185958000Y-106595826D01*
X186324174Y-106962000D01*
X186754749Y-107249701D01*
X187233178Y-107447873D01*
X187741076Y-107548900D01*
X188258924Y-107548900D01*
X188766822Y-107447873D01*
X189245251Y-107249701D01*
X189675826Y-106962000D01*
X190042000Y-106595826D01*
X190329701Y-106165251D01*
X190527873Y-105686822D01*
X190628900Y-105178924D01*
X190628900Y-104771278D01*
X191570000Y-104771278D01*
X191570000Y-105068722D01*
X191628029Y-105360451D01*
X191741856Y-105635253D01*
X191907107Y-105882569D01*
X192117431Y-106092893D01*
X192364747Y-106258144D01*
X192639549Y-106371971D01*
X192931278Y-106430000D01*
X193228722Y-106430000D01*
X193520451Y-106371971D01*
X193795253Y-106258144D01*
X194042569Y-106092893D01*
X194252893Y-105882569D01*
X194418144Y-105635253D01*
X194531971Y-105360451D01*
X194590000Y-105068722D01*
X194590000Y-104771278D01*
X194531971Y-104479549D01*
X194418144Y-104204747D01*
X194252893Y-103957431D01*
X194042569Y-103747107D01*
X193795253Y-103581856D01*
X193520451Y-103468029D01*
X193480087Y-103460000D01*
X196271928Y-103460000D01*
X196271928Y-105160000D01*
X196284188Y-105284482D01*
X196320498Y-105404180D01*
X196379463Y-105514494D01*
X196458815Y-105611185D01*
X196555506Y-105690537D01*
X196665820Y-105749502D01*
X196738380Y-105771513D01*
X196606525Y-105903368D01*
X196444010Y-106146589D01*
X196332068Y-106416842D01*
X196275000Y-106703740D01*
X196275000Y-106996260D01*
X196332068Y-107283158D01*
X196444010Y-107553411D01*
X196606525Y-107796632D01*
X196813368Y-108003475D01*
X196987760Y-108120000D01*
X196813368Y-108236525D01*
X196606525Y-108443368D01*
X196444010Y-108686589D01*
X196332068Y-108956842D01*
X196275000Y-109243740D01*
X196275000Y-109536260D01*
X196332068Y-109823158D01*
X196444010Y-110093411D01*
X196606525Y-110336632D01*
X196813368Y-110543475D01*
X197056589Y-110705990D01*
X197326842Y-110817932D01*
X197613740Y-110875000D01*
X197906260Y-110875000D01*
X198193158Y-110817932D01*
X198463411Y-110705990D01*
X198706632Y-110543475D01*
X198913475Y-110336632D01*
X199075990Y-110093411D01*
X199186483Y-109826655D01*
X207830000Y-109826655D01*
X207830000Y-110173345D01*
X207897636Y-110513373D01*
X208030308Y-110833673D01*
X208222919Y-111121935D01*
X208468065Y-111367081D01*
X208756327Y-111559692D01*
X209076627Y-111692364D01*
X209416655Y-111760000D01*
X209763345Y-111760000D01*
X210103373Y-111692364D01*
X210423673Y-111559692D01*
X210711935Y-111367081D01*
X210957081Y-111121935D01*
X211149692Y-110833673D01*
X211282364Y-110513373D01*
X211350000Y-110173345D01*
X211350000Y-109826655D01*
X211282364Y-109486627D01*
X211149692Y-109166327D01*
X210957081Y-108878065D01*
X210711935Y-108632919D01*
X210423673Y-108440308D01*
X210103373Y-108307636D01*
X209763345Y-108240000D01*
X209416655Y-108240000D01*
X209076627Y-108307636D01*
X208756327Y-108440308D01*
X208468065Y-108632919D01*
X208222919Y-108878065D01*
X208030308Y-109166327D01*
X207897636Y-109486627D01*
X207830000Y-109826655D01*
X199186483Y-109826655D01*
X199187932Y-109823158D01*
X199245000Y-109536260D01*
X199245000Y-109243740D01*
X199187932Y-108956842D01*
X199075990Y-108686589D01*
X198913475Y-108443368D01*
X198706632Y-108236525D01*
X198532240Y-108120000D01*
X198706632Y-108003475D01*
X198913475Y-107796632D01*
X199075990Y-107553411D01*
X199187932Y-107283158D01*
X199245000Y-106996260D01*
X199245000Y-106703740D01*
X199187932Y-106416842D01*
X199075990Y-106146589D01*
X198913475Y-105903368D01*
X198781620Y-105771513D01*
X198854180Y-105749502D01*
X198964494Y-105690537D01*
X199061185Y-105611185D01*
X199140537Y-105514494D01*
X199199502Y-105404180D01*
X199235812Y-105284482D01*
X199248072Y-105160000D01*
X199248072Y-104771278D01*
X200460000Y-104771278D01*
X200460000Y-105068722D01*
X200518029Y-105360451D01*
X200631856Y-105635253D01*
X200797107Y-105882569D01*
X201007431Y-106092893D01*
X201254747Y-106258144D01*
X201529549Y-106371971D01*
X201812638Y-106428281D01*
X201680308Y-106626327D01*
X201547636Y-106946627D01*
X201480000Y-107286655D01*
X201480000Y-107633345D01*
X201547636Y-107973373D01*
X201680308Y-108293673D01*
X201872919Y-108581935D01*
X202118065Y-108827081D01*
X202406327Y-109019692D01*
X202726627Y-109152364D01*
X203066655Y-109220000D01*
X203413345Y-109220000D01*
X203753373Y-109152364D01*
X204073673Y-109019692D01*
X204361935Y-108827081D01*
X204607081Y-108581935D01*
X204799692Y-108293673D01*
X204932364Y-107973373D01*
X205000000Y-107633345D01*
X205000000Y-107286655D01*
X204932364Y-106946627D01*
X204799692Y-106626327D01*
X204607081Y-106338065D01*
X204361935Y-106092919D01*
X204073673Y-105900308D01*
X203753373Y-105767636D01*
X203413345Y-105700000D01*
X203264882Y-105700000D01*
X203308144Y-105635253D01*
X203421971Y-105360451D01*
X203480000Y-105068722D01*
X203480000Y-104771278D01*
X203458080Y-104661076D01*
X204421100Y-104661076D01*
X204421100Y-105178924D01*
X204522127Y-105686822D01*
X204720299Y-106165251D01*
X205008000Y-106595826D01*
X205374174Y-106962000D01*
X205804749Y-107249701D01*
X206283178Y-107447873D01*
X206791076Y-107548900D01*
X207308924Y-107548900D01*
X207816822Y-107447873D01*
X208295251Y-107249701D01*
X208725826Y-106962000D01*
X209092000Y-106595826D01*
X209379701Y-106165251D01*
X209577873Y-105686822D01*
X209678900Y-105178924D01*
X209678900Y-104661076D01*
X209577873Y-104153178D01*
X209379701Y-103674749D01*
X209092000Y-103244174D01*
X208725826Y-102878000D01*
X208295251Y-102590299D01*
X207816822Y-102392127D01*
X207308924Y-102291100D01*
X206791076Y-102291100D01*
X206283178Y-102392127D01*
X205804749Y-102590299D01*
X205374174Y-102878000D01*
X205008000Y-103244174D01*
X204720299Y-103674749D01*
X204522127Y-104153178D01*
X204421100Y-104661076D01*
X203458080Y-104661076D01*
X203421971Y-104479549D01*
X203308144Y-104204747D01*
X203142893Y-103957431D01*
X202932569Y-103747107D01*
X202685253Y-103581856D01*
X202410451Y-103468029D01*
X202118722Y-103410000D01*
X201821278Y-103410000D01*
X201529549Y-103468029D01*
X201254747Y-103581856D01*
X201007431Y-103747107D01*
X200797107Y-103957431D01*
X200631856Y-104204747D01*
X200518029Y-104479549D01*
X200460000Y-104771278D01*
X199248072Y-104771278D01*
X199248072Y-103460000D01*
X199235812Y-103335518D01*
X199199502Y-103215820D01*
X199140537Y-103105506D01*
X199061185Y-103008815D01*
X198964494Y-102929463D01*
X198854180Y-102870498D01*
X198734482Y-102834188D01*
X198610000Y-102821928D01*
X196910000Y-102821928D01*
X196785518Y-102834188D01*
X196665820Y-102870498D01*
X196555506Y-102929463D01*
X196458815Y-103008815D01*
X196379463Y-103105506D01*
X196320498Y-103215820D01*
X196284188Y-103335518D01*
X196271928Y-103460000D01*
X193480087Y-103460000D01*
X193228722Y-103410000D01*
X192931278Y-103410000D01*
X192639549Y-103468029D01*
X192364747Y-103581856D01*
X192117431Y-103747107D01*
X191907107Y-103957431D01*
X191741856Y-104204747D01*
X191628029Y-104479549D01*
X191570000Y-104771278D01*
X190628900Y-104771278D01*
X190628900Y-104661076D01*
X190527873Y-104153178D01*
X190329701Y-103674749D01*
X190042000Y-103244174D01*
X189675826Y-102878000D01*
X189245251Y-102590299D01*
X188766822Y-102392127D01*
X188258924Y-102291100D01*
X187741076Y-102291100D01*
X187233178Y-102392127D01*
X186754749Y-102590299D01*
X186324174Y-102878000D01*
X185958000Y-103244174D01*
X185670299Y-103674749D01*
X185472127Y-104153178D01*
X185371100Y-104661076D01*
X184408080Y-104661076D01*
X184371971Y-104479549D01*
X184258144Y-104204747D01*
X184092893Y-103957431D01*
X183882569Y-103747107D01*
X183635253Y-103581856D01*
X183360451Y-103468029D01*
X183068722Y-103410000D01*
X182771278Y-103410000D01*
X182479549Y-103468029D01*
X182204747Y-103581856D01*
X181957431Y-103747107D01*
X181747107Y-103957431D01*
X181660000Y-104087796D01*
X181660000Y-99660000D01*
X185147203Y-99660000D01*
X185142500Y-99683645D01*
G37*
X185142500Y-99683645D02*
X185142500Y-99996355D01*
X185203507Y-100303057D01*
X185323176Y-100591963D01*
X185496908Y-100851972D01*
X185718028Y-101073092D01*
X185978037Y-101246824D01*
X186266943Y-101366493D01*
X186573645Y-101427500D01*
X186886355Y-101427500D01*
X187193057Y-101366493D01*
X187481963Y-101246824D01*
X187741972Y-101073092D01*
X187745549Y-101069515D01*
X187786963Y-101146994D01*
X187866315Y-101243685D01*
X187963006Y-101323037D01*
X188073320Y-101382002D01*
X188193018Y-101418312D01*
X188317500Y-101430572D01*
X190222500Y-101430572D01*
X190346982Y-101418312D01*
X190466680Y-101382002D01*
X190576994Y-101323037D01*
X190673685Y-101243685D01*
X190753037Y-101146994D01*
X190812002Y-101036680D01*
X190848312Y-100916982D01*
X190860572Y-100792500D01*
X190860572Y-99660000D01*
X204197203Y-99660000D01*
X204192500Y-99683645D01*
X204192500Y-99996355D01*
X204253507Y-100303057D01*
X204373176Y-100591963D01*
X204546908Y-100851972D01*
X204768028Y-101073092D01*
X205028037Y-101246824D01*
X205316943Y-101366493D01*
X205623645Y-101427500D01*
X205936355Y-101427500D01*
X206243057Y-101366493D01*
X206531963Y-101246824D01*
X206791972Y-101073092D01*
X206795549Y-101069515D01*
X206836963Y-101146994D01*
X206916315Y-101243685D01*
X207013006Y-101323037D01*
X207123320Y-101382002D01*
X207243018Y-101418312D01*
X207367500Y-101430572D01*
X209272500Y-101430572D01*
X209396982Y-101418312D01*
X209516680Y-101382002D01*
X209626994Y-101323037D01*
X209723685Y-101243685D01*
X209803037Y-101146994D01*
X209862002Y-101036680D01*
X209898312Y-100916982D01*
X209910572Y-100792500D01*
X209910572Y-99660000D01*
X213440001Y-99660000D01*
X213440001Y-104162627D01*
X213302893Y-103957431D01*
X213092569Y-103747107D01*
X212845253Y-103581856D01*
X212570451Y-103468029D01*
X212278722Y-103410000D01*
X211981278Y-103410000D01*
X211689549Y-103468029D01*
X211414747Y-103581856D01*
X211167431Y-103747107D01*
X210957107Y-103957431D01*
X210791856Y-104204747D01*
X210678029Y-104479549D01*
X210620000Y-104771278D01*
X210620000Y-105068722D01*
X210678029Y-105360451D01*
X210791856Y-105635253D01*
X210957107Y-105882569D01*
X211167431Y-106092893D01*
X211414747Y-106258144D01*
X211689549Y-106371971D01*
X211981278Y-106430000D01*
X212278722Y-106430000D01*
X212570451Y-106371971D01*
X212845253Y-106258144D01*
X213092569Y-106092893D01*
X213302893Y-105882569D01*
X213440001Y-105677373D01*
X213440000Y-113340000D01*
X181660000Y-113340000D01*
X181660000Y-109826655D01*
X188780000Y-109826655D01*
X188780000Y-110173345D01*
X188847636Y-110513373D01*
X188980308Y-110833673D01*
X189172919Y-111121935D01*
X189418065Y-111367081D01*
X189706327Y-111559692D01*
X190026627Y-111692364D01*
X190366655Y-111760000D01*
X190713345Y-111760000D01*
X191053373Y-111692364D01*
X191373673Y-111559692D01*
X191661935Y-111367081D01*
X191907081Y-111121935D01*
X192099692Y-110833673D01*
X192232364Y-110513373D01*
X192300000Y-110173345D01*
X192300000Y-109826655D01*
X192232364Y-109486627D01*
X192099692Y-109166327D01*
X191907081Y-108878065D01*
X191661935Y-108632919D01*
X191373673Y-108440308D01*
X191053373Y-108307636D01*
X190713345Y-108240000D01*
X190366655Y-108240000D01*
X190026627Y-108307636D01*
X189706327Y-108440308D01*
X189418065Y-108632919D01*
X189172919Y-108878065D01*
X188980308Y-109166327D01*
X188847636Y-109486627D01*
X188780000Y-109826655D01*
X181660000Y-109826655D01*
X181660000Y-105752204D01*
X181747107Y-105882569D01*
X181957431Y-106092893D01*
X182204747Y-106258144D01*
X182479549Y-106371971D01*
X182762638Y-106428281D01*
X182630308Y-106626327D01*
X182497636Y-106946627D01*
X182430000Y-107286655D01*
X182430000Y-107633345D01*
X182497636Y-107973373D01*
X182630308Y-108293673D01*
X182822919Y-108581935D01*
X183068065Y-108827081D01*
X183356327Y-109019692D01*
X183676627Y-109152364D01*
X184016655Y-109220000D01*
X184363345Y-109220000D01*
X184703373Y-109152364D01*
X185023673Y-109019692D01*
X185311935Y-108827081D01*
X185557081Y-108581935D01*
X185749692Y-108293673D01*
X185882364Y-107973373D01*
X185950000Y-107633345D01*
X185950000Y-107286655D01*
X185882364Y-106946627D01*
X185749692Y-106626327D01*
X185557081Y-106338065D01*
X185311935Y-106092919D01*
X185023673Y-105900308D01*
X184703373Y-105767636D01*
X184363345Y-105700000D01*
X184214882Y-105700000D01*
X184258144Y-105635253D01*
X184371971Y-105360451D01*
X184430000Y-105068722D01*
X184430000Y-104771278D01*
X184408080Y-104661076D01*
X185371100Y-104661076D01*
X185371100Y-105178924D01*
X185472127Y-105686822D01*
X185670299Y-106165251D01*
X185958000Y-106595826D01*
X186324174Y-106962000D01*
X186754749Y-107249701D01*
X187233178Y-107447873D01*
X187741076Y-107548900D01*
X188258924Y-107548900D01*
X188766822Y-107447873D01*
X189245251Y-107249701D01*
X189675826Y-106962000D01*
X190042000Y-106595826D01*
X190329701Y-106165251D01*
X190527873Y-105686822D01*
X190628900Y-105178924D01*
X190628900Y-104771278D01*
X191570000Y-104771278D01*
X191570000Y-105068722D01*
X191628029Y-105360451D01*
X191741856Y-105635253D01*
X191907107Y-105882569D01*
X192117431Y-106092893D01*
X192364747Y-106258144D01*
X192639549Y-106371971D01*
X192931278Y-106430000D01*
X193228722Y-106430000D01*
X193520451Y-106371971D01*
X193795253Y-106258144D01*
X194042569Y-106092893D01*
X194252893Y-105882569D01*
X194418144Y-105635253D01*
X194531971Y-105360451D01*
X194590000Y-105068722D01*
X194590000Y-104771278D01*
X194531971Y-104479549D01*
X194418144Y-104204747D01*
X194252893Y-103957431D01*
X194042569Y-103747107D01*
X193795253Y-103581856D01*
X193520451Y-103468029D01*
X193480087Y-103460000D01*
X196271928Y-103460000D01*
X196271928Y-105160000D01*
X196284188Y-105284482D01*
X196320498Y-105404180D01*
X196379463Y-105514494D01*
X196458815Y-105611185D01*
X196555506Y-105690537D01*
X196665820Y-105749502D01*
X196738380Y-105771513D01*
X196606525Y-105903368D01*
X196444010Y-106146589D01*
X196332068Y-106416842D01*
X196275000Y-106703740D01*
X196275000Y-106996260D01*
X196332068Y-107283158D01*
X196444010Y-107553411D01*
X196606525Y-107796632D01*
X196813368Y-108003475D01*
X196987760Y-108120000D01*
X196813368Y-108236525D01*
X196606525Y-108443368D01*
X196444010Y-108686589D01*
X196332068Y-108956842D01*
X196275000Y-109243740D01*
X196275000Y-109536260D01*
X196332068Y-109823158D01*
X196444010Y-110093411D01*
X196606525Y-110336632D01*
X196813368Y-110543475D01*
X197056589Y-110705990D01*
X197326842Y-110817932D01*
X197613740Y-110875000D01*
X197906260Y-110875000D01*
X198193158Y-110817932D01*
X198463411Y-110705990D01*
X198706632Y-110543475D01*
X198913475Y-110336632D01*
X199075990Y-110093411D01*
X199186483Y-109826655D01*
X207830000Y-109826655D01*
X207830000Y-110173345D01*
X207897636Y-110513373D01*
X208030308Y-110833673D01*
X208222919Y-111121935D01*
X208468065Y-111367081D01*
X208756327Y-111559692D01*
X209076627Y-111692364D01*
X209416655Y-111760000D01*
X209763345Y-111760000D01*
X210103373Y-111692364D01*
X210423673Y-111559692D01*
X210711935Y-111367081D01*
X210957081Y-111121935D01*
X211149692Y-110833673D01*
X211282364Y-110513373D01*
X211350000Y-110173345D01*
X211350000Y-109826655D01*
X211282364Y-109486627D01*
X211149692Y-109166327D01*
X210957081Y-108878065D01*
X210711935Y-108632919D01*
X210423673Y-108440308D01*
X210103373Y-108307636D01*
X209763345Y-108240000D01*
X209416655Y-108240000D01*
X209076627Y-108307636D01*
X208756327Y-108440308D01*
X208468065Y-108632919D01*
X208222919Y-108878065D01*
X208030308Y-109166327D01*
X207897636Y-109486627D01*
X207830000Y-109826655D01*
X199186483Y-109826655D01*
X199187932Y-109823158D01*
X199245000Y-109536260D01*
X199245000Y-109243740D01*
X199187932Y-108956842D01*
X199075990Y-108686589D01*
X198913475Y-108443368D01*
X198706632Y-108236525D01*
X198532240Y-108120000D01*
X198706632Y-108003475D01*
X198913475Y-107796632D01*
X199075990Y-107553411D01*
X199187932Y-107283158D01*
X199245000Y-106996260D01*
X199245000Y-106703740D01*
X199187932Y-106416842D01*
X199075990Y-106146589D01*
X198913475Y-105903368D01*
X198781620Y-105771513D01*
X198854180Y-105749502D01*
X198964494Y-105690537D01*
X199061185Y-105611185D01*
X199140537Y-105514494D01*
X199199502Y-105404180D01*
X199235812Y-105284482D01*
X199248072Y-105160000D01*
X199248072Y-104771278D01*
X200460000Y-104771278D01*
X200460000Y-105068722D01*
X200518029Y-105360451D01*
X200631856Y-105635253D01*
X200797107Y-105882569D01*
X201007431Y-106092893D01*
X201254747Y-106258144D01*
X201529549Y-106371971D01*
X201812638Y-106428281D01*
X201680308Y-106626327D01*
X201547636Y-106946627D01*
X201480000Y-107286655D01*
X201480000Y-107633345D01*
X201547636Y-107973373D01*
X201680308Y-108293673D01*
X201872919Y-108581935D01*
X202118065Y-108827081D01*
X202406327Y-109019692D01*
X202726627Y-109152364D01*
X203066655Y-109220000D01*
X203413345Y-109220000D01*
X203753373Y-109152364D01*
X204073673Y-109019692D01*
X204361935Y-108827081D01*
X204607081Y-108581935D01*
X204799692Y-108293673D01*
X204932364Y-107973373D01*
X205000000Y-107633345D01*
X205000000Y-107286655D01*
X204932364Y-106946627D01*
X204799692Y-106626327D01*
X204607081Y-106338065D01*
X204361935Y-106092919D01*
X204073673Y-105900308D01*
X203753373Y-105767636D01*
X203413345Y-105700000D01*
X203264882Y-105700000D01*
X203308144Y-105635253D01*
X203421971Y-105360451D01*
X203480000Y-105068722D01*
X203480000Y-104771278D01*
X203458080Y-104661076D01*
X204421100Y-104661076D01*
X204421100Y-105178924D01*
X204522127Y-105686822D01*
X204720299Y-106165251D01*
X205008000Y-106595826D01*
X205374174Y-106962000D01*
X205804749Y-107249701D01*
X206283178Y-107447873D01*
X206791076Y-107548900D01*
X207308924Y-107548900D01*
X207816822Y-107447873D01*
X208295251Y-107249701D01*
X208725826Y-106962000D01*
X209092000Y-106595826D01*
X209379701Y-106165251D01*
X209577873Y-105686822D01*
X209678900Y-105178924D01*
X209678900Y-104661076D01*
X209577873Y-104153178D01*
X209379701Y-103674749D01*
X209092000Y-103244174D01*
X208725826Y-102878000D01*
X208295251Y-102590299D01*
X207816822Y-102392127D01*
X207308924Y-102291100D01*
X206791076Y-102291100D01*
X206283178Y-102392127D01*
X205804749Y-102590299D01*
X205374174Y-102878000D01*
X205008000Y-103244174D01*
X204720299Y-103674749D01*
X204522127Y-104153178D01*
X204421100Y-104661076D01*
X203458080Y-104661076D01*
X203421971Y-104479549D01*
X203308144Y-104204747D01*
X203142893Y-103957431D01*
X202932569Y-103747107D01*
X202685253Y-103581856D01*
X202410451Y-103468029D01*
X202118722Y-103410000D01*
X201821278Y-103410000D01*
X201529549Y-103468029D01*
X201254747Y-103581856D01*
X201007431Y-103747107D01*
X200797107Y-103957431D01*
X200631856Y-104204747D01*
X200518029Y-104479549D01*
X200460000Y-104771278D01*
X199248072Y-104771278D01*
X199248072Y-103460000D01*
X199235812Y-103335518D01*
X199199502Y-103215820D01*
X199140537Y-103105506D01*
X199061185Y-103008815D01*
X198964494Y-102929463D01*
X198854180Y-102870498D01*
X198734482Y-102834188D01*
X198610000Y-102821928D01*
X196910000Y-102821928D01*
X196785518Y-102834188D01*
X196665820Y-102870498D01*
X196555506Y-102929463D01*
X196458815Y-103008815D01*
X196379463Y-103105506D01*
X196320498Y-103215820D01*
X196284188Y-103335518D01*
X196271928Y-103460000D01*
X193480087Y-103460000D01*
X193228722Y-103410000D01*
X192931278Y-103410000D01*
X192639549Y-103468029D01*
X192364747Y-103581856D01*
X192117431Y-103747107D01*
X191907107Y-103957431D01*
X191741856Y-104204747D01*
X191628029Y-104479549D01*
X191570000Y-104771278D01*
X190628900Y-104771278D01*
X190628900Y-104661076D01*
X190527873Y-104153178D01*
X190329701Y-103674749D01*
X190042000Y-103244174D01*
X189675826Y-102878000D01*
X189245251Y-102590299D01*
X188766822Y-102392127D01*
X188258924Y-102291100D01*
X187741076Y-102291100D01*
X187233178Y-102392127D01*
X186754749Y-102590299D01*
X186324174Y-102878000D01*
X185958000Y-103244174D01*
X185670299Y-103674749D01*
X185472127Y-104153178D01*
X185371100Y-104661076D01*
X184408080Y-104661076D01*
X184371971Y-104479549D01*
X184258144Y-104204747D01*
X184092893Y-103957431D01*
X183882569Y-103747107D01*
X183635253Y-103581856D01*
X183360451Y-103468029D01*
X183068722Y-103410000D01*
X182771278Y-103410000D01*
X182479549Y-103468029D01*
X182204747Y-103581856D01*
X181957431Y-103747107D01*
X181747107Y-103957431D01*
X181660000Y-104087796D01*
X181660000Y-99660000D01*
X185147203Y-99660000D01*
X185142500Y-99683645D01*
M02*
